<?xml version="1.0" encoding="UTF-8" standalone="no"?>
<!DOCTYPE svg PUBLIC "-//W3C//DTD SVG 1.1//EN"
 "http://www.w3.org/Graphics/SVG/1.1/DTD/svg11.dtd">
<!-- Generated by graphviz version 2.36.0 (20140111.2315)
 -->
<!-- Title: Urho3D::LuaFile Pages: 1 -->
<svg width="1206pt" height="880pt"
 viewBox="0.00 0.00 1206.00 880.00" xmlns="http://www.w3.org/2000/svg" xmlns:xlink="http://www.w3.org/1999/xlink">
<g id="graph0" class="graph" transform="scale(1 1) rotate(0) translate(4 876)">
<title>Urho3D::LuaFile</title>
<!-- Node1 -->
<g id="node1" class="node"><title>Node1</title>
<polygon fill="#bfbfbf" stroke="black" points="1087,-841.5 1087,-860.5 1175,-860.5 1175,-841.5 1087,-841.5"/>
<text text-anchor="middle" x="1131" y="-848.5" font-family="Helvetica,sans-Serif" font-size="10.00">Urho3D::LuaFile</text>
</g>
<!-- Node2 -->
<g id="node2" class="node"><title>Node2</title>
<g id="a_node2"><a xlink:href="class_urho3_d_1_1_resource.html" target="_top" xlink:title="Base class for resources. ">
<polygon fill="none" stroke="black" points="750,-782.5 750,-801.5 848,-801.5 848,-782.5 750,-782.5"/>
<text text-anchor="middle" x="799" y="-789.5" font-family="Helvetica,sans-Serif" font-size="10.00">Urho3D::Resource</text>
</a>
</g>
</g>
<!-- Node2&#45;&gt;Node1 -->
<g id="edge1" class="edge"><title>Node2&#45;&gt;Node1</title>
<path fill="none" stroke="midnightblue" d="M858.49,-802.457C923.914,-814.154 1028.35,-832.827 1086.79,-843.275"/>
<polygon fill="midnightblue" stroke="midnightblue" points="858.798,-798.957 848.338,-800.642 857.566,-805.848 858.798,-798.957"/>
</g>
<!-- Node3 -->
<g id="node3" class="node"><title>Node3</title>
<g id="a_node3"><a xlink:href="class_urho3_d_1_1_object.html" target="_top" xlink:title="Base class for objects with type identification, subsystem access and event sending/receiving capabil...">
<polygon fill="none" stroke="black" points="485.5,-621.5 485.5,-640.5 570.5,-640.5 570.5,-621.5 485.5,-621.5"/>
<text text-anchor="middle" x="528" y="-628.5" font-family="Helvetica,sans-Serif" font-size="10.00">Urho3D::Object</text>
</a>
</g>
</g>
<!-- Node3&#45;&gt;Node2 -->
<g id="edge2" class="edge"><title>Node3&#45;&gt;Node2</title>
<path fill="none" stroke="midnightblue" d="M553.792,-645.98C569.243,-655.18 589.615,-667.064 608,-677 632.48,-690.23 639.848,-691.18 664,-705 709.26,-730.899 760.311,-765.678 784.239,-782.328"/>
<polygon fill="midnightblue" stroke="midnightblue" points="555.247,-642.772 544.869,-640.64 551.653,-648.779 555.247,-642.772"/>
</g>
<!-- Node13 -->
<g id="node13" class="node"><title>Node13</title>
<g id="a_node13"><a xlink:href="class_urho3_d_1_1_event_handler.html" target="_top" xlink:title="Internal helper class for invoking event handler functions. ">
<polygon fill="none" stroke="black" points="741,-615.5 741,-634.5 857,-634.5 857,-615.5 741,-615.5"/>
<text text-anchor="middle" x="799" y="-622.5" font-family="Helvetica,sans-Serif" font-size="10.00">Urho3D::EventHandler</text>
</a>
</g>
</g>
<!-- Node3&#45;&gt;Node13 -->
<g id="edge18" class="edge"><title>Node3&#45;&gt;Node13</title>
<path fill="none" stroke="#9a32cd" stroke-dasharray="5,2" d="M580.749,-629.846C626.538,-628.824 693.257,-627.336 740.657,-626.279"/>
<polygon fill="#9a32cd" stroke="#9a32cd" points="580.656,-626.347 570.736,-630.069 580.812,-633.345 580.656,-626.347"/>
<text text-anchor="middle" x="636" y="-644" font-family="Helvetica,sans-Serif" font-size="10.00"> sender_</text>
<text text-anchor="middle" x="636" y="-633" font-family="Helvetica,sans-Serif" font-size="10.00">receiver_</text>
</g>
<!-- Node4 -->
<g id="node4" class="node"><title>Node4</title>
<g id="a_node4"><a xlink:href="class_urho3_d_1_1_ref_counted.html" target="_top" xlink:title="Base class for intrusively reference&#45;counted objects. These are noncopyable and non&#45;assignable. ">
<polygon fill="none" stroke="black" points="188.5,-621.5 188.5,-640.5 297.5,-640.5 297.5,-621.5 188.5,-621.5"/>
<text text-anchor="middle" x="243" y="-628.5" font-family="Helvetica,sans-Serif" font-size="10.00">Urho3D::RefCounted</text>
</a>
</g>
</g>
<!-- Node4&#45;&gt;Node3 -->
<g id="edge3" class="edge"><title>Node4&#45;&gt;Node3</title>
<path fill="none" stroke="midnightblue" d="M307.762,-631C362.01,-631 438.362,-631 485.164,-631"/>
<polygon fill="midnightblue" stroke="midnightblue" points="307.563,-627.5 297.563,-631 307.563,-634.5 307.563,-627.5"/>
</g>
<!-- Node6 -->
<g id="node6" class="node"><title>Node6</title>
<g id="a_node6"><a xlink:href="class_urho3_d_1_1_context.html" target="_top" xlink:title="Urho3D execution context. Provides access to subsystems, object factories and attributes, and event receivers. ">
<polygon fill="none" stroke="black" points="1085.5,-362.5 1085.5,-381.5 1176.5,-381.5 1176.5,-362.5 1085.5,-362.5"/>
<text text-anchor="middle" x="1131" y="-369.5" font-family="Helvetica,sans-Serif" font-size="10.00">Urho3D::Context</text>
</a>
</g>
</g>
<!-- Node4&#45;&gt;Node6 -->
<g id="edge6" class="edge"><title>Node4&#45;&gt;Node6</title>
<path fill="none" stroke="midnightblue" d="M263.502,-614.619C300.39,-584.615 384.052,-521.154 466,-491 710.267,-401.117 795.905,-482.097 1046,-410 1070.15,-403.039 1096.27,-390.324 1112.86,-381.53"/>
<polygon fill="midnightblue" stroke="midnightblue" points="261.056,-612.1 255.557,-621.156 265.503,-617.505 261.056,-612.1"/>
</g>
<!-- Node5 -->
<g id="node5" class="node"><title>Node5</title>
<g id="a_node5"><a xlink:href="struct_urho3_d_1_1_ref_count.html" target="_top" xlink:title="Reference count structure. ">
<polygon fill="none" stroke="black" points="0,-681.5 0,-700.5 98,-700.5 98,-681.5 0,-681.5"/>
<text text-anchor="middle" x="49" y="-688.5" font-family="Helvetica,sans-Serif" font-size="10.00">Urho3D::RefCount</text>
</a>
</g>
</g>
<!-- Node5&#45;&gt;Node4 -->
<g id="edge4" class="edge"><title>Node5&#45;&gt;Node4</title>
<path fill="none" stroke="#9a32cd" stroke-dasharray="5,2" d="M90.1525,-678.452C126.274,-667.164 178.567,-650.823 211.402,-640.562"/>
<polygon fill="#9a32cd" stroke="#9a32cd" points="88.9238,-675.169 80.423,-681.493 91.0118,-681.851 88.9238,-675.169"/>
<text text-anchor="middle" x="139" y="-673" font-family="Helvetica,sans-Serif" font-size="10.00"> refCount_</text>
</g>
<!-- Node25 -->
<g id="node25" class="node"><title>Node25</title>
<g id="a_node25"><a xlink:href="class_urho3_d_1_1_shared_array_ptr.html" target="_top" xlink:title="Urho3D::SharedArrayPtr\l\&lt; char \&gt;">
<polygon fill="none" stroke="black" points="324.5,-812 324.5,-842 447.5,-842 447.5,-812 324.5,-812"/>
<text text-anchor="start" x="332.5" y="-830" font-family="Helvetica,sans-Serif" font-size="10.00">Urho3D::SharedArrayPtr</text>
<text text-anchor="middle" x="386" y="-819" font-family="Helvetica,sans-Serif" font-size="10.00">&lt; char &gt;</text>
</a>
</g>
</g>
<!-- Node5&#45;&gt;Node25 -->
<g id="edge40" class="edge"><title>Node5&#45;&gt;Node25</title>
<path fill="none" stroke="#9a32cd" stroke-dasharray="5,2" d="M82.9781,-704.388C145.75,-729.872 282.009,-785.189 347.874,-811.928"/>
<polygon fill="#9a32cd" stroke="#9a32cd" points="84.1387,-701.082 73.5565,-700.563 81.5056,-707.568 84.1387,-701.082"/>
<text text-anchor="middle" x="139" y="-740" font-family="Helvetica,sans-Serif" font-size="10.00"> refCount_</text>
</g>
<!-- Node6&#45;&gt;Node3 -->
<g id="edge5" class="edge"><title>Node6&#45;&gt;Node3</title>
<path fill="none" stroke="#9a32cd" stroke-dasharray="5,2" d="M1127,-392.113C1120.17,-430.124 1099.69,-512.167 1046,-551 979.98,-598.749 762.223,-580.758 682,-595 641.43,-602.202 595.489,-613.433 564.628,-621.434"/>
<polygon fill="#9a32cd" stroke="#9a32cd" points="1130.52,-392.264 1128.7,-381.827 1123.62,-391.122 1130.52,-392.264"/>
<text text-anchor="middle" x="799" y="-598" font-family="Helvetica,sans-Serif" font-size="10.00"> context_</text>
</g>
<!-- Node7 -->
<g id="node7" class="node"><title>Node7</title>
<g id="a_node7"><a xlink:href="class_urho3_d_1_1_hash_map.html" target="_top" xlink:title="Urho3D::HashMap\&lt; Urho3D\l::Object *, Urho3D::HashMap\l\&lt; Urho3D::StringHash, Urho3D\l::SharedPtr\&lt; Urho3D::EventReceiverGroup \&gt; \&gt; \&gt;">
<polygon fill="none" stroke="black" points="682.5,-132 682.5,-184 915.5,-184 915.5,-132 682.5,-132"/>
<text text-anchor="start" x="690.5" y="-172" font-family="Helvetica,sans-Serif" font-size="10.00">Urho3D::HashMap&lt; Urho3D</text>
<text text-anchor="start" x="690.5" y="-161" font-family="Helvetica,sans-Serif" font-size="10.00">::Object *, Urho3D::HashMap</text>
<text text-anchor="start" x="690.5" y="-150" font-family="Helvetica,sans-Serif" font-size="10.00">&lt; Urho3D::StringHash, Urho3D</text>
<text text-anchor="middle" x="799" y="-139" font-family="Helvetica,sans-Serif" font-size="10.00">::SharedPtr&lt; Urho3D::EventReceiverGroup &gt; &gt; &gt;</text>
</a>
</g>
</g>
<!-- Node7&#45;&gt;Node6 -->
<g id="edge7" class="edge"><title>Node7&#45;&gt;Node6</title>
<path fill="none" stroke="#9a32cd" stroke-dasharray="5,2" d="M925.704,-174.478C967.187,-184.687 1011.49,-201.222 1046,-228 1093.33,-264.731 1119.04,-336.212 1127.15,-362.23"/>
<polygon fill="#9a32cd" stroke="#9a32cd" points="926.324,-171.028 915.788,-172.142 924.719,-177.842 926.324,-171.028"/>
<text text-anchor="middle" x="990" y="-231" font-family="Helvetica,sans-Serif" font-size="10.00"> specificEventReceivers_</text>
</g>
<!-- Node8 -->
<g id="node8" class="node"><title>Node8</title>
<g id="a_node8"><a xlink:href="class_urho3_d_1_1_hash_base.html" target="_top" xlink:title="Hash set/map base class. ">
<polygon fill="none" stroke="red" points="477,-208.5 477,-227.5 579,-227.5 579,-208.5 477,-208.5"/>
<text text-anchor="middle" x="528" y="-215.5" font-family="Helvetica,sans-Serif" font-size="10.00">Urho3D::HashBase</text>
</a>
</g>
</g>
<!-- Node8&#45;&gt;Node7 -->
<g id="edge8" class="edge"><title>Node8&#45;&gt;Node7</title>
<path fill="none" stroke="midnightblue" d="M581.464,-206.298C610.289,-199.869 647.248,-191.625 682.441,-183.775"/>
<polygon fill="midnightblue" stroke="midnightblue" points="580.622,-202.9 571.624,-208.493 582.146,-209.732 580.622,-202.9"/>
</g>
<!-- Node10 -->
<g id="node10" class="node"><title>Node10</title>
<g id="a_node10"><a xlink:href="class_urho3_d_1_1_hash_map.html" target="_top" xlink:title="Urho3D::HashMap\&lt; Urho3D\l::StringHash, Urho3D::\lSharedPtr\&lt; Urho3D::EventReceiver\lGroup \&gt; \&gt;">
<polygon fill="none" stroke="black" points="712.5,-61 712.5,-113 885.5,-113 885.5,-61 712.5,-61"/>
<text text-anchor="start" x="720.5" y="-101" font-family="Helvetica,sans-Serif" font-size="10.00">Urho3D::HashMap&lt; Urho3D</text>
<text text-anchor="start" x="720.5" y="-90" font-family="Helvetica,sans-Serif" font-size="10.00">::StringHash, Urho3D::</text>
<text text-anchor="start" x="720.5" y="-79" font-family="Helvetica,sans-Serif" font-size="10.00">SharedPtr&lt; Urho3D::EventReceiver</text>
<text text-anchor="middle" x="799" y="-68" font-family="Helvetica,sans-Serif" font-size="10.00">Group &gt; &gt;</text>
</a>
</g>
</g>
<!-- Node8&#45;&gt;Node10 -->
<g id="edge12" class="edge"><title>Node8&#45;&gt;Node10</title>
<path fill="none" stroke="midnightblue" d="M550.228,-202.09C578.857,-181.256 632.028,-144.719 682,-122 691.67,-117.603 702.04,-113.58 712.456,-109.952"/>
<polygon fill="midnightblue" stroke="midnightblue" points="547.813,-199.521 541.831,-208.265 551.96,-205.161 547.813,-199.521"/>
</g>
<!-- Node16 -->
<g id="node16" class="node"><title>Node16</title>
<g id="a_node16"><a xlink:href="class_urho3_d_1_1_hash_map.html" target="_top" xlink:title="Urho3D::HashMap\&lt; StringHash,\l Variant \&gt;">
<polygon fill="none" stroke="black" points="719.5,-203 719.5,-233 878.5,-233 878.5,-203 719.5,-203"/>
<text text-anchor="start" x="727.5" y="-221" font-family="Helvetica,sans-Serif" font-size="10.00">Urho3D::HashMap&lt; StringHash,</text>
<text text-anchor="middle" x="799" y="-210" font-family="Helvetica,sans-Serif" font-size="10.00"> Variant &gt;</text>
</a>
</g>
</g>
<!-- Node8&#45;&gt;Node16 -->
<g id="edge22" class="edge"><title>Node8&#45;&gt;Node16</title>
<path fill="none" stroke="midnightblue" d="M589.285,-218C627.704,-218 677.885,-218 719.414,-218"/>
<polygon fill="midnightblue" stroke="midnightblue" points="589.281,-214.5 579.281,-218 589.281,-221.5 589.281,-214.5"/>
</g>
<!-- Node17 -->
<g id="node17" class="node"><title>Node17</title>
<g id="a_node17"><a xlink:href="class_urho3_d_1_1_hash_map.html" target="_top" xlink:title="Urho3D::HashMap\&lt; Urho3D\l::StringHash, Urho3D::\lSharedPtr\&lt; Urho3D::Object \&gt; \&gt;">
<polygon fill="none" stroke="black" points="721.5,-0.5 721.5,-41.5 876.5,-41.5 876.5,-0.5 721.5,-0.5"/>
<text text-anchor="start" x="729.5" y="-29.5" font-family="Helvetica,sans-Serif" font-size="10.00">Urho3D::HashMap&lt; Urho3D</text>
<text text-anchor="start" x="729.5" y="-18.5" font-family="Helvetica,sans-Serif" font-size="10.00">::StringHash, Urho3D::</text>
<text text-anchor="middle" x="799" y="-7.5" font-family="Helvetica,sans-Serif" font-size="10.00">SharedPtr&lt; Urho3D::Object &gt; &gt;</text>
</a>
</g>
</g>
<!-- Node8&#45;&gt;Node17 -->
<g id="edge24" class="edge"><title>Node8&#45;&gt;Node17</title>
<path fill="none" stroke="midnightblue" d="M540.404,-199.563C562.93,-164.775 616.658,-89.495 682,-51 694.008,-43.9256 707.676,-38.4994 721.313,-34.3431"/>
<polygon fill="midnightblue" stroke="midnightblue" points="537.302,-197.92 534.894,-208.238 543.21,-201.673 537.302,-197.92"/>
</g>
<!-- Node19 -->
<g id="node19" class="node"><title>Node19</title>
<g id="a_node19"><a xlink:href="class_urho3_d_1_1_hash_map.html" target="_top" xlink:title="Urho3D::HashMap\&lt; Urho3D\l::StringHash, Urho3D::\lSharedPtr\&lt; Urho3D::ObjectFactory \&gt; \&gt;">
<polygon fill="none" stroke="black" points="705,-311.5 705,-352.5 893,-352.5 893,-311.5 705,-311.5"/>
<text text-anchor="start" x="713" y="-340.5" font-family="Helvetica,sans-Serif" font-size="10.00">Urho3D::HashMap&lt; Urho3D</text>
<text text-anchor="start" x="713" y="-329.5" font-family="Helvetica,sans-Serif" font-size="10.00">::StringHash, Urho3D::</text>
<text text-anchor="middle" x="799" y="-318.5" font-family="Helvetica,sans-Serif" font-size="10.00">SharedPtr&lt; Urho3D::ObjectFactory &gt; &gt;</text>
</a>
</g>
</g>
<!-- Node8&#45;&gt;Node19 -->
<g id="edge28" class="edge"><title>Node8&#45;&gt;Node19</title>
<path fill="none" stroke="midnightblue" d="M552.76,-233.196C582.134,-251.431 634.122,-281.927 682,-301 691.586,-304.819 701.802,-308.32 712.046,-311.483"/>
<polygon fill="midnightblue" stroke="midnightblue" points="554.383,-230.083 544.051,-227.736 550.665,-236.014 554.383,-230.083"/>
</g>
<!-- Node20 -->
<g id="node20" class="node"><title>Node20</title>
<g id="a_node20"><a xlink:href="class_urho3_d_1_1_hash_map.html" target="_top" xlink:title="Urho3D::HashMap\&lt; Urho3D\l::String, Urho3D::Vector\l\&lt; Urho3D::StringHash \&gt; \&gt;">
<polygon fill="none" stroke="black" points="728.5,-251.5 728.5,-292.5 869.5,-292.5 869.5,-251.5 728.5,-251.5"/>
<text text-anchor="start" x="736.5" y="-280.5" font-family="Helvetica,sans-Serif" font-size="10.00">Urho3D::HashMap&lt; Urho3D</text>
<text text-anchor="start" x="736.5" y="-269.5" font-family="Helvetica,sans-Serif" font-size="10.00">::String, Urho3D::Vector</text>
<text text-anchor="middle" x="799" y="-258.5" font-family="Helvetica,sans-Serif" font-size="10.00">&lt; Urho3D::StringHash &gt; &gt;</text>
</a>
</g>
</g>
<!-- Node8&#45;&gt;Node20 -->
<g id="edge30" class="edge"><title>Node8&#45;&gt;Node20</title>
<path fill="none" stroke="midnightblue" d="M586.42,-229.527C627.916,-237.857 684.188,-249.153 728.268,-258.002"/>
<polygon fill="midnightblue" stroke="midnightblue" points="586.966,-226.067 576.473,-227.53 585.588,-232.93 586.966,-226.067"/>
</g>
<!-- Node21 -->
<g id="node21" class="node"><title>Node21</title>
<g id="a_node21"><a xlink:href="class_urho3_d_1_1_hash_map.html" target="_top" xlink:title="Urho3D::HashMap\&lt; Urho3D\l::StringHash, Urho3D::\lVector\&lt; Urho3D::AttributeInfo \&gt; \&gt;">
<polygon fill="none" stroke="black" points="716.5,-371.5 716.5,-412.5 881.5,-412.5 881.5,-371.5 716.5,-371.5"/>
<text text-anchor="start" x="724.5" y="-400.5" font-family="Helvetica,sans-Serif" font-size="10.00">Urho3D::HashMap&lt; Urho3D</text>
<text text-anchor="start" x="724.5" y="-389.5" font-family="Helvetica,sans-Serif" font-size="10.00">::StringHash, Urho3D::</text>
<text text-anchor="middle" x="799" y="-378.5" font-family="Helvetica,sans-Serif" font-size="10.00">Vector&lt; Urho3D::AttributeInfo &gt; &gt;</text>
</a>
</g>
</g>
<!-- Node8&#45;&gt;Node21 -->
<g id="edge32" class="edge"><title>Node8&#45;&gt;Node21</title>
<path fill="none" stroke="midnightblue" d="M542.81,-235.75C567.423,-266.137 621.957,-328.03 682,-361 692.689,-366.869 704.551,-371.675 716.49,-375.597"/>
<polygon fill="midnightblue" stroke="midnightblue" points="545.389,-233.369 536.42,-227.73 539.914,-237.732 545.389,-233.369"/>
</g>
<!-- Node9 -->
<g id="node9" class="node"><title>Node9</title>
<g id="a_node9"><a xlink:href="struct_urho3_d_1_1_hash_node_base.html" target="_top" xlink:title="Hash set/map node base class. ">
<polygon fill="none" stroke="black" points="180.5,-208.5 180.5,-227.5 305.5,-227.5 305.5,-208.5 180.5,-208.5"/>
<text text-anchor="middle" x="243" y="-215.5" font-family="Helvetica,sans-Serif" font-size="10.00">Urho3D::HashNodeBase</text>
</a>
</g>
</g>
<!-- Node9&#45;&gt;Node8 -->
<g id="edge9" class="edge"><title>Node9&#45;&gt;Node8</title>
<path fill="none" stroke="#9a32cd" stroke-dasharray="5,2" d="M315.908,-218C366.159,-218 432.002,-218 476.696,-218"/>
<polygon fill="#9a32cd" stroke="#9a32cd" points="315.756,-214.5 305.756,-218 315.756,-221.5 315.756,-214.5"/>
<text text-anchor="middle" x="386" y="-243" font-family="Helvetica,sans-Serif" font-size="10.00"> ptrs_</text>
<text text-anchor="middle" x="386" y="-232" font-family="Helvetica,sans-Serif" font-size="10.00">tail_</text>
<text text-anchor="middle" x="386" y="-221" font-family="Helvetica,sans-Serif" font-size="10.00">head_</text>
</g>
<!-- Node9&#45;&gt;Node9 -->
<g id="edge10" class="edge"><title>Node9&#45;&gt;Node9</title>
<path fill="none" stroke="#9a32cd" stroke-dasharray="5,2" d="M223.742,-237.4C225.028,-242.315 231.447,-246 243,-246 261.484,-246 266.828,-236.565 259.029,-227.757"/>
<polygon fill="#9a32cd" stroke="#9a32cd" points="227.114,-238.351 226.971,-227.757 220.476,-236.128 227.114,-238.351"/>
<text text-anchor="middle" x="243" y="-271" font-family="Helvetica,sans-Serif" font-size="10.00"> next_</text>
<text text-anchor="middle" x="243" y="-260" font-family="Helvetica,sans-Serif" font-size="10.00">prev_</text>
<text text-anchor="middle" x="243" y="-249" font-family="Helvetica,sans-Serif" font-size="10.00">down_</text>
</g>
<!-- Node10&#45;&gt;Node6 -->
<g id="edge11" class="edge"><title>Node10&#45;&gt;Node6</title>
<path fill="none" stroke="#9a32cd" stroke-dasharray="5,2" d="M895.539,-96.9807C945.747,-106.725 1005.16,-125.976 1046,-164 1107.28,-221.058 1124.88,-328.987 1128.94,-362.094"/>
<polygon fill="#9a32cd" stroke="#9a32cd" points="896.097,-93.5247 885.629,-95.1559 894.83,-100.409 896.097,-93.5247"/>
<text text-anchor="middle" x="990" y="-167" font-family="Helvetica,sans-Serif" font-size="10.00"> eventReceivers_</text>
</g>
<!-- Node11 -->
<g id="node11" class="node"><title>Node11</title>
<g id="a_node11"><a xlink:href="class_urho3_d_1_1_p_o_d_vector.html" target="_top" xlink:title="Urho3D::PODVector\&lt;\l Urho3D::Object * \&gt;">
<polygon fill="none" stroke="black" points="742.5,-470 742.5,-500 855.5,-500 855.5,-470 742.5,-470"/>
<text text-anchor="start" x="750.5" y="-488" font-family="Helvetica,sans-Serif" font-size="10.00">Urho3D::PODVector&lt;</text>
<text text-anchor="middle" x="799" y="-477" font-family="Helvetica,sans-Serif" font-size="10.00"> Urho3D::Object * &gt;</text>
</a>
</g>
</g>
<!-- Node11&#45;&gt;Node6 -->
<g id="edge13" class="edge"><title>Node11&#45;&gt;Node6</title>
<path fill="none" stroke="#9a32cd" stroke-dasharray="5,2" d="M865.637,-488.289C917.141,-488.277 989.351,-482.391 1046,-455 1081.44,-437.865 1110.97,-399.745 1123.52,-381.756"/>
<polygon fill="#9a32cd" stroke="#9a32cd" points="865.648,-484.789 855.624,-488.218 865.599,-491.789 865.648,-484.789"/>
<text text-anchor="middle" x="990" y="-488" font-family="Helvetica,sans-Serif" font-size="10.00"> eventSenders_</text>
</g>
<!-- Node12 -->
<g id="node12" class="node"><title>Node12</title>
<g id="a_node12"><a xlink:href="class_urho3_d_1_1_vector_base.html" target="_top" xlink:title="Vector base class. ">
<polygon fill="none" stroke="black" points="474.5,-500.5 474.5,-519.5 581.5,-519.5 581.5,-500.5 474.5,-500.5"/>
<text text-anchor="middle" x="528" y="-507.5" font-family="Helvetica,sans-Serif" font-size="10.00">Urho3D::VectorBase</text>
</a>
</g>
</g>
<!-- Node12&#45;&gt;Node11 -->
<g id="edge14" class="edge"><title>Node12&#45;&gt;Node11</title>
<path fill="none" stroke="midnightblue" d="M591.574,-504.185C637.2,-499.944 698.47,-494.25 742.387,-490.169"/>
<polygon fill="midnightblue" stroke="midnightblue" points="591.138,-500.71 581.504,-505.12 591.785,-507.68 591.138,-500.71"/>
</g>
<!-- Node18 -->
<g id="node18" class="node"><title>Node18</title>
<g id="a_node18"><a xlink:href="class_urho3_d_1_1_p_o_d_vector.html" target="_top" xlink:title="Urho3D::PODVector\&lt;\l Urho3D::HashMap * \&gt;">
<polygon fill="none" stroke="black" points="740.5,-519 740.5,-549 857.5,-549 857.5,-519 740.5,-519"/>
<text text-anchor="start" x="748.5" y="-537" font-family="Helvetica,sans-Serif" font-size="10.00">Urho3D::PODVector&lt;</text>
<text text-anchor="middle" x="799" y="-526" font-family="Helvetica,sans-Serif" font-size="10.00"> Urho3D::HashMap * &gt;</text>
</a>
</g>
</g>
<!-- Node12&#45;&gt;Node18 -->
<g id="edge26" class="edge"><title>Node12&#45;&gt;Node18</title>
<path fill="none" stroke="midnightblue" d="M591.686,-515.593C636.49,-519.59 696.337,-524.93 740.032,-528.828"/>
<polygon fill="midnightblue" stroke="midnightblue" points="591.776,-512.087 581.504,-514.684 591.154,-519.059 591.776,-512.087"/>
</g>
<!-- Node13&#45;&gt;Node6 -->
<g id="edge15" class="edge"><title>Node13&#45;&gt;Node6</title>
<path fill="none" stroke="#9a32cd" stroke-dasharray="5,2" d="M867.469,-622.638C930.619,-619.12 1019.15,-610.419 1046,-589 1114.53,-534.33 1127.24,-416.424 1129.52,-381.768"/>
<polygon fill="#9a32cd" stroke="#9a32cd" points="866.976,-619.159 857.173,-623.178 867.343,-626.149 866.976,-619.159"/>
<text text-anchor="middle" x="990" y="-620" font-family="Helvetica,sans-Serif" font-size="10.00"> eventHandler_</text>
</g>
<!-- Node22 -->
<g id="node22" class="node"><title>Node22</title>
<g id="a_node22"><a xlink:href="class_urho3_d_1_1_linked_list.html" target="_top" xlink:title="Urho3D::LinkedList\l\&lt; Urho3D::EventHandler \&gt;">
<polygon fill="none" stroke="black" points="1064,-643 1064,-673 1198,-673 1198,-643 1064,-643"/>
<text text-anchor="start" x="1072" y="-661" font-family="Helvetica,sans-Serif" font-size="10.00">Urho3D::LinkedList</text>
<text text-anchor="middle" x="1131" y="-650" font-family="Helvetica,sans-Serif" font-size="10.00">&lt; Urho3D::EventHandler &gt;</text>
</a>
</g>
</g>
<!-- Node13&#45;&gt;Node22 -->
<g id="edge34" class="edge"><title>Node13&#45;&gt;Node22</title>
<path fill="none" stroke="#9a32cd" stroke-dasharray="5,2" d="M867.511,-629.726C916.996,-633.443 985.764,-639.132 1046,-646 1051.71,-646.651 1057.63,-647.382 1063.56,-648.154"/>
<polygon fill="#9a32cd" stroke="#9a32cd" points="867.487,-626.215 857.254,-628.963 866.967,-633.196 867.487,-626.215"/>
<text text-anchor="middle" x="990" y="-649" font-family="Helvetica,sans-Serif" font-size="10.00"> head_</text>
</g>
<!-- Node14 -->
<g id="node14" class="node"><title>Node14</title>
<g id="a_node14"><a xlink:href="struct_urho3_d_1_1_linked_list_node.html" target="_top" xlink:title="Singly&#45;linked list node base class. ">
<polygon fill="none" stroke="black" points="466,-551.5 466,-570.5 590,-570.5 590,-551.5 466,-551.5"/>
<text text-anchor="middle" x="528" y="-558.5" font-family="Helvetica,sans-Serif" font-size="10.00">Urho3D::LinkedListNode</text>
</a>
</g>
</g>
<!-- Node14&#45;&gt;Node13 -->
<g id="edge16" class="edge"><title>Node14&#45;&gt;Node13</title>
<path fill="none" stroke="midnightblue" d="M573.397,-573.256C603.855,-581.504 645.252,-592.401 682,-601 703.927,-606.131 728.319,-611.263 749.056,-615.457"/>
<polygon fill="midnightblue" stroke="midnightblue" points="574.077,-569.814 563.509,-570.567 572.241,-576.568 574.077,-569.814"/>
</g>
<!-- Node14&#45;&gt;Node14 -->
<g id="edge17" class="edge"><title>Node14&#45;&gt;Node14</title>
<path fill="none" stroke="#9a32cd" stroke-dasharray="5,2" d="M508.001,-580.4C509.337,-585.315 516.003,-589 528,-589 547.195,-589 552.744,-579.565 544.646,-570.757"/>
<polygon fill="#9a32cd" stroke="#9a32cd" points="511.376,-581.352 511.354,-570.757 504.764,-579.053 511.376,-581.352"/>
<text text-anchor="middle" x="528" y="-592" font-family="Helvetica,sans-Serif" font-size="10.00"> next_</text>
</g>
<!-- Node15 -->
<g id="node15" class="node"><title>Node15</title>
<g id="a_node15"><a xlink:href="class_urho3_d_1_1_string_hash.html" target="_top" xlink:title="32&#45;bit hash value for a string. ">
<polygon fill="none" stroke="black" points="475.5,-698.5 475.5,-717.5 580.5,-717.5 580.5,-698.5 475.5,-698.5"/>
<text text-anchor="middle" x="528" y="-705.5" font-family="Helvetica,sans-Serif" font-size="10.00">Urho3D::StringHash</text>
</a>
</g>
</g>
<!-- Node15&#45;&gt;Node2 -->
<g id="edge38" class="edge"><title>Node15&#45;&gt;Node2</title>
<path fill="none" stroke="#9a32cd" stroke-dasharray="5,2" d="M569.217,-720.558C623.415,-737.483 718.708,-767.24 767.433,-782.455"/>
<polygon fill="#9a32cd" stroke="#9a32cd" points="570.185,-717.194 559.596,-717.554 568.098,-723.876 570.185,-717.194"/>
<text text-anchor="middle" x="636" y="-753" font-family="Helvetica,sans-Serif" font-size="10.00"> nameHash_</text>
</g>
<!-- Node15&#45;&gt;Node13 -->
<g id="edge19" class="edge"><title>Node15&#45;&gt;Node13</title>
<path fill="none" stroke="#9a32cd" stroke-dasharray="5,2" d="M563.379,-694.793C590.668,-684.301 629.788,-669.241 664,-656 672.005,-652.902 673.769,-651.434 682,-649 701.426,-643.257 723.076,-638.38 742.363,-634.553"/>
<polygon fill="#9a32cd" stroke="#9a32cd" points="561.969,-691.585 553.891,-698.44 564.481,-698.119 561.969,-691.585"/>
<text text-anchor="middle" x="636" y="-681" font-family="Helvetica,sans-Serif" font-size="10.00"> eventType_</text>
</g>
<!-- Node15&#45;&gt;Node15 -->
<g id="edge20" class="edge"><title>Node15&#45;&gt;Node15</title>
<path fill="none" stroke="#9a32cd" stroke-dasharray="5,2" d="M508.001,-727.4C509.337,-732.315 516.003,-736 528,-736 547.195,-736 552.744,-726.565 544.646,-717.757"/>
<polygon fill="#9a32cd" stroke="#9a32cd" points="511.376,-728.352 511.354,-717.757 504.764,-726.053 511.376,-728.352"/>
<text text-anchor="middle" x="528" y="-739" font-family="Helvetica,sans-Serif" font-size="10.00"> ZERO</text>
</g>
<!-- Node16&#45;&gt;Node6 -->
<g id="edge21" class="edge"><title>Node16&#45;&gt;Node6</title>
<path fill="none" stroke="#9a32cd" stroke-dasharray="5,2" d="M888.652,-230.602C937.836,-240.58 998.479,-258.024 1046,-288 1079.14,-308.906 1109.36,-345.05 1122.74,-362.298"/>
<polygon fill="#9a32cd" stroke="#9a32cd" points="889.144,-227.132 878.658,-228.644 887.799,-234.001 889.144,-227.132"/>
<text text-anchor="middle" x="990" y="-291" font-family="Helvetica,sans-Serif" font-size="10.00"> globalVars_</text>
</g>
<!-- Node17&#45;&gt;Node6 -->
<g id="edge23" class="edge"><title>Node17&#45;&gt;Node6</title>
<path fill="none" stroke="#9a32cd" stroke-dasharray="5,2" d="M886.571,-25.2022C939.321,-32.2776 1004.36,-49.7754 1046,-92 1124.93,-172.046 1130.16,-323.191 1130.13,-362.476"/>
<polygon fill="#9a32cd" stroke="#9a32cd" points="886.889,-21.7149 876.535,-23.9602 886.03,-28.6619 886.889,-21.7149"/>
<text text-anchor="middle" x="990" y="-95" font-family="Helvetica,sans-Serif" font-size="10.00"> subsystems_</text>
</g>
<!-- Node18&#45;&gt;Node6 -->
<g id="edge25" class="edge"><title>Node18&#45;&gt;Node6</title>
<path fill="none" stroke="#9a32cd" stroke-dasharray="5,2" d="M867.737,-539.191C920.246,-539.964 992.786,-533.637 1046,-500 1092.06,-470.886 1118.22,-406.32 1126.81,-381.75"/>
<polygon fill="#9a32cd" stroke="#9a32cd" points="867.595,-535.687 857.514,-538.948 867.428,-542.685 867.595,-535.687"/>
<text text-anchor="middle" x="990" y="-539" font-family="Helvetica,sans-Serif" font-size="10.00"> eventDataMaps_</text>
</g>
<!-- Node19&#45;&gt;Node6 -->
<g id="edge27" class="edge"><title>Node19&#45;&gt;Node6</title>
<path fill="none" stroke="#9a32cd" stroke-dasharray="5,2" d="M903.329,-344.525C964.507,-351.94 1038.9,-360.957 1085.36,-366.589"/>
<polygon fill="#9a32cd" stroke="#9a32cd" points="903.59,-341.031 893.242,-343.302 902.748,-347.98 903.59,-341.031"/>
<text text-anchor="middle" x="990" y="-365" font-family="Helvetica,sans-Serif" font-size="10.00"> factories_</text>
</g>
<!-- Node20&#45;&gt;Node6 -->
<g id="edge29" class="edge"><title>Node20&#45;&gt;Node6</title>
<path fill="none" stroke="#9a32cd" stroke-dasharray="5,2" d="M879.479,-288.257C928.184,-299.144 991.439,-314.953 1046,-334 1069.12,-342.071 1094.61,-354.068 1111.38,-362.415"/>
<polygon fill="#9a32cd" stroke="#9a32cd" points="880.148,-284.82 869.628,-286.077 878.636,-291.655 880.148,-284.82"/>
<text text-anchor="middle" x="990" y="-337" font-family="Helvetica,sans-Serif" font-size="10.00"> objectCategories_</text>
</g>
<!-- Node21&#45;&gt;Node6 -->
<g id="edge31" class="edge"><title>Node21&#45;&gt;Node6</title>
<path fill="none" stroke="#9a32cd" stroke-dasharray="5,2" d="M891.932,-386.428C955.001,-382.606 1035.92,-377.702 1085.32,-374.708"/>
<polygon fill="#9a32cd" stroke="#9a32cd" points="891.343,-382.958 881.573,-387.056 891.767,-389.945 891.343,-382.958"/>
<text text-anchor="middle" x="990" y="-398" font-family="Helvetica,sans-Serif" font-size="10.00"> attributes_</text>
<text text-anchor="middle" x="990" y="-387" font-family="Helvetica,sans-Serif" font-size="10.00">networkAttributes_</text>
</g>
<!-- Node22&#45;&gt;Node3 -->
<g id="edge33" class="edge"><title>Node22&#45;&gt;Node3</title>
<path fill="none" stroke="#9a32cd" stroke-dasharray="5,2" d="M1053.46,-663.112C951.328,-668.569 765.097,-673.75 608,-652 591.131,-649.664 572.718,-644.904 557.916,-640.506"/>
<polygon fill="#9a32cd" stroke="#9a32cd" points="1053.89,-666.594 1063.68,-662.55 1053.5,-659.604 1053.89,-666.594"/>
<text text-anchor="middle" x="799" y="-671" font-family="Helvetica,sans-Serif" font-size="10.00"> eventHandlers_</text>
</g>
<!-- Node23 -->
<g id="node23" class="node"><title>Node23</title>
<g id="a_node23"><a xlink:href="class_urho3_d_1_1_timer.html" target="_top" xlink:title="Low&#45;resolution operating system timer. ">
<polygon fill="none" stroke="black" points="487.5,-832.5 487.5,-851.5 568.5,-851.5 568.5,-832.5 487.5,-832.5"/>
<text text-anchor="middle" x="528" y="-839.5" font-family="Helvetica,sans-Serif" font-size="10.00">Urho3D::Timer</text>
</a>
</g>
</g>
<!-- Node23&#45;&gt;Node2 -->
<g id="edge35" class="edge"><title>Node23&#45;&gt;Node2</title>
<path fill="none" stroke="#9a32cd" stroke-dasharray="5,2" d="M578.719,-832.759C627.59,-823.675 701.673,-809.905 749.957,-800.93"/>
<polygon fill="#9a32cd" stroke="#9a32cd" points="577.884,-829.354 568.692,-834.622 579.163,-836.236 577.884,-829.354"/>
<text text-anchor="middle" x="636" y="-831" font-family="Helvetica,sans-Serif" font-size="10.00"> useTimer_</text>
</g>
<!-- Node24 -->
<g id="node24" class="node"><title>Node24</title>
<g id="a_node24"><a xlink:href="class_urho3_d_1_1_string.html" target="_top" xlink:title="String class. ">
<polygon fill="none" stroke="black" points="487,-765.5 487,-784.5 569,-784.5 569,-765.5 487,-765.5"/>
<text text-anchor="middle" x="528" y="-772.5" font-family="Helvetica,sans-Serif" font-size="10.00">Urho3D::String</text>
</a>
</g>
</g>
<!-- Node24&#45;&gt;Node2 -->
<g id="edge36" class="edge"><title>Node24&#45;&gt;Node2</title>
<path fill="none" stroke="#9a32cd" stroke-dasharray="5,2" d="M579.29,-778.178C628.081,-781.262 701.607,-785.908 749.708,-788.948"/>
<polygon fill="#9a32cd" stroke="#9a32cd" points="579.473,-774.683 569.272,-777.545 579.031,-781.669 579.473,-774.683"/>
<text text-anchor="middle" x="636" y="-787" font-family="Helvetica,sans-Serif" font-size="10.00"> name_</text>
</g>
<!-- Node24&#45;&gt;Node24 -->
<g id="edge37" class="edge"><title>Node24&#45;&gt;Node24</title>
<path fill="none" stroke="#9a32cd" stroke-dasharray="5,2" d="M508.001,-794.4C509.337,-799.315 516.003,-803 528,-803 547.195,-803 552.744,-793.565 544.646,-784.757"/>
<polygon fill="#9a32cd" stroke="#9a32cd" points="511.376,-795.352 511.354,-784.757 504.764,-793.053 511.376,-795.352"/>
<text text-anchor="middle" x="528" y="-806" font-family="Helvetica,sans-Serif" font-size="10.00"> EMPTY</text>
</g>
<!-- Node25&#45;&gt;Node1 -->
<g id="edge39" class="edge"><title>Node25&#45;&gt;Node1</title>
<path fill="none" stroke="#9a32cd" stroke-dasharray="5,2" d="M423.686,-846.461C436.68,-852.352 451.643,-858.042 466,-861 519.977,-872.122 534.891,-861.51 590,-861 774.946,-859.288 995.476,-854.277 1086.95,-852.068"/>
<polygon fill="#9a32cd" stroke="#9a32cd" points="425.147,-843.281 414.61,-842.173 422.156,-849.61 425.147,-843.281"/>
<text text-anchor="middle" x="636" y="-864" font-family="Helvetica,sans-Serif" font-size="10.00"> data_</text>
</g>
</g>
</svg>
