<?xml version="1.0" encoding="UTF-8" standalone="no"?>
<!DOCTYPE svg PUBLIC "-//W3C//DTD SVG 1.1//EN"
 "http://www.w3.org/Graphics/SVG/1.1/DTD/svg11.dtd">
<!-- Generated by graphviz version 2.36.0 (20140111.2315)
 -->
<!-- Title: Urho3D::ConstantBuffer Pages: 1 -->
<!--zoomable 923 -->
<svg id="main" version="1.1" xmlns="http://www.w3.org/2000/svg" xmlns:xlink="http://www.w3.org/1999/xlink" xml:space="preserve" onload="init(evt)">
<style type="text/css"><![CDATA[
.edge:hover path { stroke: red; }
.edge:hover polygon { stroke: red; fill: red; }
]]></style>
<script type="text/javascript"><![CDATA[
var edges = document.getElementsByTagName('g');
if (edges && edges.length) {
  for (var i=0;i<edges.length;i++) {
    if (edges[i].id.substr(0,4)=='edge') {
      edges[i].setAttribute('class','edge');
    }
  }
}
]]></script>
        <defs>
                <circle id="rim" cx="0" cy="0" r="7"/>
                <circle id="rim2" cx="0" cy="0" r="3.5"/>
                <g id="zoomPlus">
                        <use xlink:href="#rim" fill="#404040">
                                <set attributeName="fill" to="#808080" begin="zoomplus.mouseover" end="zoomplus.mouseout"/>
                        </use>
                        <path d="M-4,0h8M0,-4v8" fill="none" stroke="white" stroke-width="1.5" pointer-events="none"/>
                </g>
                <g id="zoomMin">
                        <use xlink:href="#rim" fill="#404040">
                                <set attributeName="fill" to="#808080" begin="zoomminus.mouseover" end="zoomminus.mouseout"/>
                        </use>
                        <path d="M-4,0h8" fill="none" stroke="white" stroke-width="1.5" pointer-events="none"/>
                </g>
                <g id="dirArrow">
                        <path fill="none" stroke="white" stroke-width="1.5" d="M0,-3.0v7 M-2.5,-0.5L0,-3.0L2.5,-0.5"/>
                </g>
               <g id="resetDef">
                       <use xlink:href="#rim2" fill="#404040">
                               <set attributeName="fill" to="#808080" begin="reset.mouseover" end="reset.mouseout"/>
                       </use>
               </g>
        </defs>

<script type="text/javascript">
var viewWidth = 1544;
var viewHeight = 923;
var sectionId = 'dynsection-1';
</script>
<script xlink:href="svgpan.js"/>
<svg id="graph" class="graph">
<g id="viewport">
<title>Urho3D::ConstantBuffer</title>
<!-- Node1 -->
<g id="node1" class="node"><title>Node1</title>
<polygon fill="#bfbfbf" stroke="black" points="1414,-825.368 1414,-844.368 1536,-844.368 1536,-825.368 1414,-825.368"/>
<text text-anchor="middle" x="1475" y="-832.368" font-family="Helvetica,sans-Serif" font-size="10.00">Urho3D::ConstantBuffer</text>
</g>
<!-- Node2 -->
<g id="node2" class="node"><title>Node2</title>
<g id="a_node2"><a xlink:href="class_urho3_d_1_1_object.html" target="_top" xlink:title="Base class for objects with type identification, subsystem access and event sending/receiving capabil...">
<polygon fill="none" stroke="black" points="469.5,-726.368 469.5,-745.368 554.5,-745.368 554.5,-726.368 469.5,-726.368"/>
<text text-anchor="middle" x="512" y="-733.368" font-family="Helvetica,sans-Serif" font-size="10.00">Urho3D::Object</text>
</a>
</g>
</g>
<!-- Node2&#45;&gt;Node1 -->
<g id="edge1" class="edge"><title>Node2&#45;&gt;Node1</title>
<path fill="none" stroke="midnightblue" d="M563.26,-747.571C617.063,-759.058 705.083,-774.868 782,-774.868 782,-774.868 782,-774.868 1323,-774.868 1376.88,-774.868 1434.42,-808.268 1460.16,-825.228"/>
<polygon fill="midnightblue" stroke="midnightblue" points="563.81,-744.109 553.296,-745.409 562.326,-750.949 563.81,-744.109"/>
</g>
<!-- Node11 -->
<g id="node11" class="node"><title>Node11</title>
<g id="a_node11"><a xlink:href="class_urho3_d_1_1_event_handler.html" target="_top" xlink:title="Internal helper class for invoking event handler functions. ">
<polygon fill="none" stroke="black" points="725,-633.368 725,-652.368 841,-652.368 841,-633.368 725,-633.368"/>
<text text-anchor="middle" x="783" y="-640.368" font-family="Helvetica,sans-Serif" font-size="10.00">Urho3D::EventHandler</text>
</a>
</g>
</g>
<!-- Node2&#45;&gt;Node11 -->
<g id="edge15" class="edge"><title>Node2&#45;&gt;Node11</title>
<path fill="none" stroke="#9a32cd" stroke-dasharray="5,2" d="M534.267,-720.144C546.732,-710.291 562.28,-696.842 574,-682.868 583.993,-670.955 578.675,-660.882 592,-652.868 634.177,-627.501 691.622,-628.275 732.274,-633.354"/>
<polygon fill="#9a32cd" stroke="#9a32cd" points="531.997,-717.476 526.215,-726.354 536.271,-723.019 531.997,-717.476"/>
<text text-anchor="middle" x="620" y="-666.868" font-family="Helvetica,sans-Serif" font-size="10.00"> sender_</text>
<text text-anchor="middle" x="620" y="-655.868" font-family="Helvetica,sans-Serif" font-size="10.00">receiver_</text>
</g>
<!-- Node23 -->
<g id="node23" class="node"><title>Node23</title>
<g id="a_node23"><a xlink:href="class_urho3_d_1_1_graphics.html" target="_top" xlink:title="Graphics subsystem. Manages the application window, rendering state and GPU resources. ">
<polygon fill="none" stroke="red" points="735.5,-806.368 735.5,-825.368 830.5,-825.368 830.5,-806.368 735.5,-806.368"/>
<text text-anchor="middle" x="783" y="-813.368" font-family="Helvetica,sans-Serif" font-size="10.00">Urho3D::Graphics</text>
</a>
</g>
</g>
<!-- Node2&#45;&gt;Node23 -->
<g id="edge35" class="edge"><title>Node2&#45;&gt;Node23</title>
<path fill="none" stroke="midnightblue" d="M531.923,-752.172C547.124,-764.333 569.569,-780.27 592,-788.868 638.665,-806.756 695.876,-812.951 735.253,-815.015"/>
<polygon fill="midnightblue" stroke="midnightblue" points="533.808,-749.19 523.864,-745.532 529.356,-754.592 533.808,-749.19"/>
</g>
<!-- Node3 -->
<g id="node3" class="node"><title>Node3</title>
<g id="a_node3"><a xlink:href="class_urho3_d_1_1_ref_counted.html" target="_top" xlink:title="Base class for intrusively reference&#45;counted objects. These are noncopyable and non&#45;assignable. ">
<polygon fill="none" stroke="black" points="180.5,-726.368 180.5,-745.368 289.5,-745.368 289.5,-726.368 180.5,-726.368"/>
<text text-anchor="middle" x="235" y="-733.368" font-family="Helvetica,sans-Serif" font-size="10.00">Urho3D::RefCounted</text>
</a>
</g>
</g>
<!-- Node3&#45;&gt;Node2 -->
<g id="edge2" class="edge"><title>Node3&#45;&gt;Node2</title>
<path fill="none" stroke="midnightblue" d="M299.818,-735.868C351.938,-735.868 424.102,-735.868 469.14,-735.868"/>
<polygon fill="midnightblue" stroke="midnightblue" points="299.676,-732.368 289.676,-735.868 299.676,-739.368 299.676,-732.368"/>
</g>
<!-- Node5 -->
<g id="node5" class="node"><title>Node5</title>
<g id="a_node5"><a xlink:href="class_urho3_d_1_1_context.html" target="_top" xlink:title="Urho3D execution context. Provides access to subsystems, object factories and attributes, and event receivers. ">
<polygon fill="none" stroke="black" points="1071.5,-383.368 1071.5,-402.368 1162.5,-402.368 1162.5,-383.368 1071.5,-383.368"/>
<text text-anchor="middle" x="1117" y="-390.368" font-family="Helvetica,sans-Serif" font-size="10.00">Urho3D::Context</text>
</a>
</g>
</g>
<!-- Node3&#45;&gt;Node5 -->
<g id="edge5" class="edge"><title>Node3&#45;&gt;Node5</title>
<path fill="none" stroke="midnightblue" d="M236.3,-716.039C238.743,-630.659 260.454,-291.511 450,-131.868 647.183,34.2068 839.695,50.0453 1030,-123.868 1109.99,-196.965 1115.96,-344.329 1116.1,-383.258"/>
<polygon fill="midnightblue" stroke="midnightblue" points="232.798,-716.085 236.071,-726.162 239.796,-716.243 232.798,-716.085"/>
</g>
<!-- Node4 -->
<g id="node4" class="node"><title>Node4</title>
<g id="a_node4"><a xlink:href="struct_urho3_d_1_1_ref_count.html" target="_top" xlink:title="Reference count structure. ">
<polygon fill="none" stroke="black" points="0,-847.368 0,-866.368 98,-866.368 98,-847.368 0,-847.368"/>
<text text-anchor="middle" x="49" y="-854.368" font-family="Helvetica,sans-Serif" font-size="10.00">Urho3D::RefCount</text>
</a>
</g>
</g>
<!-- Node4&#45;&gt;Node3 -->
<g id="edge3" class="edge"><title>Node4&#45;&gt;Node3</title>
<path fill="none" stroke="#9a32cd" stroke-dasharray="5,2" d="M73.2416,-841.584C111.737,-816.269 187.635,-766.358 219.439,-745.444"/>
<polygon fill="#9a32cd" stroke="#9a32cd" points="71.1787,-838.752 64.7465,-847.171 75.0248,-844.601 71.1787,-838.752"/>
<text text-anchor="middle" x="139" y="-813.868" font-family="Helvetica,sans-Serif" font-size="10.00"> refCount_</text>
</g>
<!-- Node22 -->
<g id="node22" class="node"><title>Node22</title>
<g id="a_node22"><a xlink:href="class_urho3_d_1_1_weak_ptr.html" target="_top" xlink:title="Urho3D::WeakPtr\&lt; Urho3D\l::Graphics \&gt;">
<polygon fill="none" stroke="black" points="1048.5,-841.868 1048.5,-871.868 1185.5,-871.868 1185.5,-841.868 1048.5,-841.868"/>
<text text-anchor="start" x="1056.5" y="-859.868" font-family="Helvetica,sans-Serif" font-size="10.00">Urho3D::WeakPtr&lt; Urho3D</text>
<text text-anchor="middle" x="1117" y="-848.868" font-family="Helvetica,sans-Serif" font-size="10.00">::Graphics &gt;</text>
</a>
</g>
</g>
<!-- Node4&#45;&gt;Node22 -->
<g id="edge36" class="edge"><title>Node4&#45;&gt;Node22</title>
<path fill="none" stroke="#9a32cd" stroke-dasharray="5,2" d="M108.407,-856.868C144.579,-856.868 191.987,-856.868 234,-856.868 234,-856.868 234,-856.868 784,-856.868 875.502,-856.868 981.189,-856.868 1048.28,-856.868"/>
<polygon fill="#9a32cd" stroke="#9a32cd" points="108.04,-853.368 98.0398,-856.868 108.04,-860.368 108.04,-853.368"/>
<text text-anchor="middle" x="512" y="-859.868" font-family="Helvetica,sans-Serif" font-size="10.00"> refCount_</text>
</g>
<!-- Node25 -->
<g id="node25" class="node"><title>Node25</title>
<g id="a_node25"><a xlink:href="class_urho3_d_1_1_shared_array_ptr.html" target="_top" xlink:title="Urho3D::SharedArrayPtr\l\&lt; unsigned char \&gt;">
<polygon fill="none" stroke="black" points="308.5,-883.868 308.5,-913.868 431.5,-913.868 431.5,-883.868 308.5,-883.868"/>
<text text-anchor="start" x="316.5" y="-901.868" font-family="Helvetica,sans-Serif" font-size="10.00">Urho3D::SharedArrayPtr</text>
<text text-anchor="middle" x="370" y="-890.868" font-family="Helvetica,sans-Serif" font-size="10.00">&lt; unsigned char &gt;</text>
</a>
</g>
</g>
<!-- Node4&#45;&gt;Node25 -->
<g id="edge39" class="edge"><title>Node4&#45;&gt;Node25</title>
<path fill="none" stroke="#9a32cd" stroke-dasharray="5,2" d="M101.655,-868.333C106.493,-869.254 111.331,-870.116 116,-870.868 181.445,-881.404 257.057,-889.206 308.453,-893.861"/>
<polygon fill="#9a32cd" stroke="#9a32cd" points="102.27,-864.887 91.7807,-866.381 100.912,-871.754 102.27,-864.887"/>
<text text-anchor="middle" x="139" y="-880.868" font-family="Helvetica,sans-Serif" font-size="10.00"> refCount_</text>
</g>
<!-- Node5&#45;&gt;Node2 -->
<g id="edge4" class="edge"><title>Node5&#45;&gt;Node2</title>
<path fill="none" stroke="#9a32cd" stroke-dasharray="5,2" d="M1112.95,-412.509C1103.45,-470.888 1072.49,-641.373 1030,-674.868 998.18,-699.952 706.033,-690.614 666,-696.868 622.802,-703.617 574.04,-717.095 543.416,-726.298"/>
<polygon fill="#9a32cd" stroke="#9a32cd" points="1116.44,-412.828 1114.56,-402.402 1109.53,-411.726 1116.44,-412.828"/>
<text text-anchor="middle" x="783" y="-699.868" font-family="Helvetica,sans-Serif" font-size="10.00"> context_</text>
</g>
<!-- Node6 -->
<g id="node6" class="node"><title>Node6</title>
<g id="a_node6"><a xlink:href="class_urho3_d_1_1_hash_map.html" target="_top" xlink:title="Urho3D::HashMap\&lt; Urho3D\l::Object *, Urho3D::HashMap\l\&lt; Urho3D::StringHash, Urho3D\l::SharedPtr\&lt; Urho3D::EventReceiverGroup \&gt; \&gt; \&gt;">
<polygon fill="none" stroke="black" points="666.5,-273.868 666.5,-325.868 899.5,-325.868 899.5,-273.868 666.5,-273.868"/>
<text text-anchor="start" x="674.5" y="-313.868" font-family="Helvetica,sans-Serif" font-size="10.00">Urho3D::HashMap&lt; Urho3D</text>
<text text-anchor="start" x="674.5" y="-302.868" font-family="Helvetica,sans-Serif" font-size="10.00">::Object *, Urho3D::HashMap</text>
<text text-anchor="start" x="674.5" y="-291.868" font-family="Helvetica,sans-Serif" font-size="10.00">&lt; Urho3D::StringHash, Urho3D</text>
<text text-anchor="middle" x="783" y="-280.868" font-family="Helvetica,sans-Serif" font-size="10.00">::SharedPtr&lt; Urho3D::EventReceiverGroup &gt; &gt; &gt;</text>
</a>
</g>
</g>
<!-- Node6&#45;&gt;Node5 -->
<g id="edge6" class="edge"><title>Node6&#45;&gt;Node5</title>
<path fill="none" stroke="#9a32cd" stroke-dasharray="5,2" d="M909.556,-326.377C948.476,-335.555 991.295,-346.643 1030,-358.868 1052.35,-365.928 1077.18,-375.994 1094.39,-383.341"/>
<polygon fill="#9a32cd" stroke="#9a32cd" points="910.285,-322.953 899.751,-324.085 908.692,-329.769 910.285,-322.953"/>
<text text-anchor="middle" x="974" y="-361.868" font-family="Helvetica,sans-Serif" font-size="10.00"> specificEventReceivers_</text>
</g>
<!-- Node7 -->
<g id="node7" class="node"><title>Node7</title>
<g id="a_node7"><a xlink:href="class_urho3_d_1_1_hash_base.html" target="_top" xlink:title="Hash set/map base class. ">
<polygon fill="none" stroke="red" points="461,-404.368 461,-423.368 563,-423.368 563,-404.368 461,-404.368"/>
<text text-anchor="middle" x="512" y="-411.368" font-family="Helvetica,sans-Serif" font-size="10.00">Urho3D::HashBase</text>
</a>
</g>
</g>
<!-- Node7&#45;&gt;Node6 -->
<g id="edge7" class="edge"><title>Node7&#45;&gt;Node6</title>
<path fill="none" stroke="midnightblue" d="M537.915,-399.19C567.654,-382.1 619.246,-353.805 666,-334.868 673.701,-331.749 681.788,-328.759 689.957,-325.933"/>
<polygon fill="midnightblue" stroke="midnightblue" points="535.96,-396.277 529.061,-404.318 539.468,-402.335 535.96,-396.277"/>
</g>
<!-- Node8 -->
<g id="node8" class="node"><title>Node8</title>
<g id="a_node8"><a xlink:href="class_urho3_d_1_1_hash_map.html" target="_top" xlink:title="Urho3D::HashMap\&lt; Urho3D\l::StringHash, Urho3D::\lSharedPtr\&lt; Urho3D::EventReceiver\lGroup \&gt; \&gt;">
<polygon fill="none" stroke="black" points="696.5,-202.868 696.5,-254.868 869.5,-254.868 869.5,-202.868 696.5,-202.868"/>
<text text-anchor="start" x="704.5" y="-242.868" font-family="Helvetica,sans-Serif" font-size="10.00">Urho3D::HashMap&lt; Urho3D</text>
<text text-anchor="start" x="704.5" y="-231.868" font-family="Helvetica,sans-Serif" font-size="10.00">::StringHash, Urho3D::</text>
<text text-anchor="start" x="704.5" y="-220.868" font-family="Helvetica,sans-Serif" font-size="10.00">SharedPtr&lt; Urho3D::EventReceiver</text>
<text text-anchor="middle" x="783" y="-209.868" font-family="Helvetica,sans-Serif" font-size="10.00">Group &gt; &gt;</text>
</a>
</g>
</g>
<!-- Node7&#45;&gt;Node8 -->
<g id="edge9" class="edge"><title>Node7&#45;&gt;Node8</title>
<path fill="none" stroke="midnightblue" d="M526.4,-395.935C550.754,-364.58 605.392,-299.728 666,-263.868 675.414,-258.298 685.79,-253.547 696.348,-249.512"/>
<polygon fill="midnightblue" stroke="midnightblue" points="523.389,-394.111 520.096,-404.181 528.95,-398.362 523.389,-394.111"/>
</g>
<!-- Node14 -->
<g id="node14" class="node"><title>Node14</title>
<g id="a_node14"><a xlink:href="class_urho3_d_1_1_hash_map.html" target="_top" xlink:title="Urho3D::HashMap\&lt; StringHash,\l Variant \&gt;">
<polygon fill="none" stroke="black" points="703.5,-344.868 703.5,-374.868 862.5,-374.868 862.5,-344.868 703.5,-344.868"/>
<text text-anchor="start" x="711.5" y="-362.868" font-family="Helvetica,sans-Serif" font-size="10.00">Urho3D::HashMap&lt; StringHash,</text>
<text text-anchor="middle" x="783" y="-351.868" font-family="Helvetica,sans-Serif" font-size="10.00"> Variant &gt;</text>
</a>
</g>
</g>
<!-- Node7&#45;&gt;Node14 -->
<g id="edge19" class="edge"><title>Node7&#45;&gt;Node14</title>
<path fill="none" stroke="midnightblue" d="M570.306,-402.364C610.204,-394.355 663.803,-383.596 707.084,-374.907"/>
<polygon fill="midnightblue" stroke="midnightblue" points="569.588,-398.939 560.473,-404.338 570.966,-405.802 569.588,-398.939"/>
</g>
<!-- Node15 -->
<g id="node15" class="node"><title>Node15</title>
<g id="a_node15"><a xlink:href="class_urho3_d_1_1_hash_map.html" target="_top" xlink:title="Urho3D::HashMap\&lt; Urho3D\l::StringHash, Urho3D::\lSharedPtr\&lt; Urho3D::Object \&gt; \&gt;">
<polygon fill="none" stroke="black" points="705.5,-573.368 705.5,-614.368 860.5,-614.368 860.5,-573.368 705.5,-573.368"/>
<text text-anchor="start" x="713.5" y="-602.368" font-family="Helvetica,sans-Serif" font-size="10.00">Urho3D::HashMap&lt; Urho3D</text>
<text text-anchor="start" x="713.5" y="-591.368" font-family="Helvetica,sans-Serif" font-size="10.00">::StringHash, Urho3D::</text>
<text text-anchor="middle" x="783" y="-580.368" font-family="Helvetica,sans-Serif" font-size="10.00">SharedPtr&lt; Urho3D::Object &gt; &gt;</text>
</a>
</g>
</g>
<!-- Node7&#45;&gt;Node15 -->
<g id="edge21" class="edge"><title>Node7&#45;&gt;Node15</title>
<path fill="none" stroke="midnightblue" d="M526.238,-432.01C550.339,-463.668 604.597,-528.86 666,-562.868 678.127,-569.585 691.781,-574.903 705.35,-579.097"/>
<polygon fill="midnightblue" stroke="midnightblue" points="528.797,-429.588 520.004,-423.678 523.192,-433.782 528.797,-429.588"/>
</g>
<!-- Node17 -->
<g id="node17" class="node"><title>Node17</title>
<g id="a_node17"><a xlink:href="class_urho3_d_1_1_hash_map.html" target="_top" xlink:title="Urho3D::HashMap\&lt; Urho3D\l::StringHash, Urho3D::\lSharedPtr\&lt; Urho3D::ObjectFactory \&gt; \&gt;">
<polygon fill="none" stroke="black" points="689,-453.368 689,-494.368 877,-494.368 877,-453.368 689,-453.368"/>
<text text-anchor="start" x="697" y="-482.368" font-family="Helvetica,sans-Serif" font-size="10.00">Urho3D::HashMap&lt; Urho3D</text>
<text text-anchor="start" x="697" y="-471.368" font-family="Helvetica,sans-Serif" font-size="10.00">::StringHash, Urho3D::</text>
<text text-anchor="middle" x="783" y="-460.368" font-family="Helvetica,sans-Serif" font-size="10.00">SharedPtr&lt; Urho3D::ObjectFactory &gt; &gt;</text>
</a>
</g>
</g>
<!-- Node7&#45;&gt;Node17 -->
<g id="edge25" class="edge"><title>Node7&#45;&gt;Node17</title>
<path fill="none" stroke="midnightblue" d="M565.717,-425.627C601.056,-433.509 648.537,-444.1 690.009,-453.35"/>
<polygon fill="midnightblue" stroke="midnightblue" points="566.146,-422.136 555.624,-423.375 564.622,-428.968 566.146,-422.136"/>
</g>
<!-- Node18 -->
<g id="node18" class="node"><title>Node18</title>
<g id="a_node18"><a xlink:href="class_urho3_d_1_1_hash_map.html" target="_top" xlink:title="Urho3D::HashMap\&lt; Urho3D\l::String, Urho3D::Vector\l\&lt; Urho3D::StringHash \&gt; \&gt;">
<polygon fill="none" stroke="black" points="712.5,-393.368 712.5,-434.368 853.5,-434.368 853.5,-393.368 712.5,-393.368"/>
<text text-anchor="start" x="720.5" y="-422.368" font-family="Helvetica,sans-Serif" font-size="10.00">Urho3D::HashMap&lt; Urho3D</text>
<text text-anchor="start" x="720.5" y="-411.368" font-family="Helvetica,sans-Serif" font-size="10.00">::String, Urho3D::Vector</text>
<text text-anchor="middle" x="783" y="-400.368" font-family="Helvetica,sans-Serif" font-size="10.00">&lt; Urho3D::StringHash &gt; &gt;</text>
</a>
</g>
</g>
<!-- Node7&#45;&gt;Node18 -->
<g id="edge27" class="edge"><title>Node7&#45;&gt;Node18</title>
<path fill="none" stroke="midnightblue" d="M573.457,-413.868C614.685,-413.868 669.396,-413.868 712.435,-413.868"/>
<polygon fill="midnightblue" stroke="midnightblue" points="573.281,-410.368 563.281,-413.868 573.281,-417.368 573.281,-410.368"/>
</g>
<!-- Node19 -->
<g id="node19" class="node"><title>Node19</title>
<g id="a_node19"><a xlink:href="class_urho3_d_1_1_hash_map.html" target="_top" xlink:title="Urho3D::HashMap\&lt; Urho3D\l::StringHash, Urho3D::\lVector\&lt; Urho3D::AttributeInfo \&gt; \&gt;">
<polygon fill="none" stroke="black" points="700.5,-513.368 700.5,-554.368 865.5,-554.368 865.5,-513.368 700.5,-513.368"/>
<text text-anchor="start" x="708.5" y="-542.368" font-family="Helvetica,sans-Serif" font-size="10.00">Urho3D::HashMap&lt; Urho3D</text>
<text text-anchor="start" x="708.5" y="-531.368" font-family="Helvetica,sans-Serif" font-size="10.00">::StringHash, Urho3D::</text>
<text text-anchor="middle" x="783" y="-520.368" font-family="Helvetica,sans-Serif" font-size="10.00">Vector&lt; Urho3D::AttributeInfo &gt; &gt;</text>
</a>
</g>
</g>
<!-- Node7&#45;&gt;Node19 -->
<g id="edge29" class="edge"><title>Node7&#45;&gt;Node19</title>
<path fill="none" stroke="midnightblue" d="M535.214,-429.348C564.145,-448.894 616.84,-482.431 666,-502.868 676.875,-507.389 688.601,-511.425 700.271,-514.969"/>
<polygon fill="midnightblue" stroke="midnightblue" points="536.923,-426.276 526.691,-423.528 532.976,-432.057 536.923,-426.276"/>
</g>
<!-- Node8&#45;&gt;Node5 -->
<g id="edge8" class="edge"><title>Node8&#45;&gt;Node5</title>
<path fill="none" stroke="#9a32cd" stroke-dasharray="5,2" d="M879.196,-251.586C926.722,-265.487 983.781,-286.196 1030,-314.868 1062.03,-334.739 1093.15,-367.199 1107.61,-383.254"/>
<polygon fill="#9a32cd" stroke="#9a32cd" points="880.093,-248.203 869.516,-248.81 878.163,-254.931 880.093,-248.203"/>
<text text-anchor="middle" x="974" y="-317.868" font-family="Helvetica,sans-Serif" font-size="10.00"> eventReceivers_</text>
</g>
<!-- Node9 -->
<g id="node9" class="node"><title>Node9</title>
<g id="a_node9"><a xlink:href="class_urho3_d_1_1_p_o_d_vector.html" target="_top" xlink:title="Urho3D::PODVector\&lt;\l Urho3D::Object * \&gt;">
<polygon fill="none" stroke="black" points="726.5,-153.868 726.5,-183.868 839.5,-183.868 839.5,-153.868 726.5,-153.868"/>
<text text-anchor="start" x="734.5" y="-171.868" font-family="Helvetica,sans-Serif" font-size="10.00">Urho3D::PODVector&lt;</text>
<text text-anchor="middle" x="783" y="-160.868" font-family="Helvetica,sans-Serif" font-size="10.00"> Urho3D::Object * &gt;</text>
</a>
</g>
</g>
<!-- Node9&#45;&gt;Node5 -->
<g id="edge10" class="edge"><title>Node9&#45;&gt;Node5</title>
<path fill="none" stroke="#9a32cd" stroke-dasharray="5,2" d="M849.72,-176.15C903.758,-185.218 979.404,-205.377 1030,-249.868 1074.82,-289.277 1103.19,-357.858 1112.57,-383.144"/>
<polygon fill="#9a32cd" stroke="#9a32cd" points="849.98,-172.648 839.554,-174.532 848.879,-179.561 849.98,-172.648"/>
<text text-anchor="middle" x="974" y="-252.868" font-family="Helvetica,sans-Serif" font-size="10.00"> eventSenders_</text>
</g>
<!-- Node10 -->
<g id="node10" class="node"><title>Node10</title>
<g id="a_node10"><a xlink:href="class_urho3_d_1_1_vector_base.html" target="_top" xlink:title="Vector base class. ">
<polygon fill="none" stroke="black" points="458.5,-141.368 458.5,-160.368 565.5,-160.368 565.5,-141.368 458.5,-141.368"/>
<text text-anchor="middle" x="512" y="-148.368" font-family="Helvetica,sans-Serif" font-size="10.00">Urho3D::VectorBase</text>
</a>
</g>
</g>
<!-- Node10&#45;&gt;Node9 -->
<g id="edge11" class="edge"><title>Node10&#45;&gt;Node9</title>
<path fill="none" stroke="midnightblue" d="M575.574,-155.055C621.2,-158.108 682.47,-162.208 726.387,-165.147"/>
<polygon fill="midnightblue" stroke="midnightblue" points="575.716,-151.557 565.504,-154.382 575.248,-158.541 575.716,-151.557"/>
</g>
<!-- Node16 -->
<g id="node16" class="node"><title>Node16</title>
<g id="a_node16"><a xlink:href="class_urho3_d_1_1_p_o_d_vector.html" target="_top" xlink:title="Urho3D::PODVector\&lt;\l Urho3D::HashMap * \&gt;">
<polygon fill="none" stroke="black" points="724.5,-104.868 724.5,-134.868 841.5,-134.868 841.5,-104.868 724.5,-104.868"/>
<text text-anchor="start" x="732.5" y="-122.868" font-family="Helvetica,sans-Serif" font-size="10.00">Urho3D::PODVector&lt;</text>
<text text-anchor="middle" x="783" y="-111.868" font-family="Helvetica,sans-Serif" font-size="10.00"> Urho3D::HashMap * &gt;</text>
</a>
</g>
</g>
<!-- Node10&#45;&gt;Node16 -->
<g id="edge23" class="edge"><title>Node10&#45;&gt;Node16</title>
<path fill="none" stroke="midnightblue" d="M575.686,-143.644C620.49,-138.481 680.337,-131.584 724.032,-126.549"/>
<polygon fill="midnightblue" stroke="midnightblue" points="575.038,-140.196 565.504,-144.817 575.839,-147.15 575.038,-140.196"/>
</g>
<!-- Node11&#45;&gt;Node5 -->
<g id="edge12" class="edge"><title>Node11&#45;&gt;Node5</title>
<path fill="none" stroke="#9a32cd" stroke-dasharray="5,2" d="M851.201,-646.061C905.27,-645.075 980.192,-635.228 1030,-593.868 1092.78,-541.735 1110.77,-435.397 1114.92,-402.672"/>
<polygon fill="#9a32cd" stroke="#9a32cd" points="850.989,-642.563 841.019,-646.148 851.049,-649.563 850.989,-642.563"/>
<text text-anchor="middle" x="974" y="-642.868" font-family="Helvetica,sans-Serif" font-size="10.00"> eventHandler_</text>
</g>
<!-- Node20 -->
<g id="node20" class="node"><title>Node20</title>
<g id="a_node20"><a xlink:href="class_urho3_d_1_1_linked_list.html" target="_top" xlink:title="Urho3D::LinkedList\l\&lt; Urho3D::EventHandler \&gt;">
<polygon fill="none" stroke="black" points="1050,-681.868 1050,-711.868 1184,-711.868 1184,-681.868 1050,-681.868"/>
<text text-anchor="start" x="1058" y="-699.868" font-family="Helvetica,sans-Serif" font-size="10.00">Urho3D::LinkedList</text>
<text text-anchor="middle" x="1117" y="-688.868" font-family="Helvetica,sans-Serif" font-size="10.00">&lt; Urho3D::EventHandler &gt;</text>
</a>
</g>
</g>
<!-- Node11&#45;&gt;Node20 -->
<g id="edge31" class="edge"><title>Node11&#45;&gt;Node20</title>
<path fill="none" stroke="#9a32cd" stroke-dasharray="5,2" d="M851.228,-653.803C909.186,-663.23 992.387,-676.762 1049.99,-686.131"/>
<polygon fill="#9a32cd" stroke="#9a32cd" points="851.505,-650.302 841.073,-652.151 850.381,-657.211 851.505,-650.302"/>
<text text-anchor="middle" x="974" y="-685.868" font-family="Helvetica,sans-Serif" font-size="10.00"> head_</text>
</g>
<!-- Node12 -->
<g id="node12" class="node"><title>Node12</title>
<g id="a_node12"><a xlink:href="struct_urho3_d_1_1_linked_list_node.html" target="_top" xlink:title="Singly&#45;linked list node base class. ">
<polygon fill="none" stroke="black" points="450,-558.368 450,-577.368 574,-577.368 574,-558.368 450,-558.368"/>
<text text-anchor="middle" x="512" y="-565.368" font-family="Helvetica,sans-Serif" font-size="10.00">Urho3D::LinkedListNode</text>
</a>
</g>
</g>
<!-- Node12&#45;&gt;Node11 -->
<g id="edge13" class="edge"><title>Node12&#45;&gt;Node11</title>
<path fill="none" stroke="midnightblue" d="M554.697,-580.467C581.656,-589.005 617.311,-601.037 648,-613.868 656.252,-617.318 657.502,-620.078 666,-622.868 684.737,-629.019 705.831,-633.375 724.842,-636.414"/>
<polygon fill="midnightblue" stroke="midnightblue" points="555.408,-577.022 544.819,-577.372 553.315,-583.702 555.408,-577.022"/>
</g>
<!-- Node12&#45;&gt;Node12 -->
<g id="edge14" class="edge"><title>Node12&#45;&gt;Node12</title>
<path fill="none" stroke="#9a32cd" stroke-dasharray="5,2" d="M492.001,-587.268C493.337,-592.183 500.003,-595.868 512,-595.868 531.195,-595.868 536.744,-586.433 528.646,-577.625"/>
<polygon fill="#9a32cd" stroke="#9a32cd" points="495.376,-588.22 495.354,-577.625 488.764,-585.921 495.376,-588.22"/>
<text text-anchor="middle" x="512" y="-598.868" font-family="Helvetica,sans-Serif" font-size="10.00"> next_</text>
</g>
<!-- Node13 -->
<g id="node13" class="node"><title>Node13</title>
<g id="a_node13"><a xlink:href="class_urho3_d_1_1_string_hash.html" target="_top" xlink:title="32&#45;bit hash value for a string. ">
<polygon fill="none" stroke="black" points="459.5,-625.368 459.5,-644.368 564.5,-644.368 564.5,-625.368 459.5,-625.368"/>
<text text-anchor="middle" x="512" y="-632.368" font-family="Helvetica,sans-Serif" font-size="10.00">Urho3D::StringHash</text>
</a>
</g>
</g>
<!-- Node13&#45;&gt;Node11 -->
<g id="edge16" class="edge"><title>Node13&#45;&gt;Node11</title>
<path fill="none" stroke="#9a32cd" stroke-dasharray="5,2" d="M562.173,-623.332C571.999,-621.473 582.286,-619.842 592,-618.868 616.765,-616.386 623.26,-616.152 648,-618.868 656.146,-619.762 657.96,-621.283 666,-622.868 685.148,-626.644 706.152,-630.386 724.964,-633.594"/>
<polygon fill="#9a32cd" stroke="#9a32cd" points="561.266,-619.943 552.144,-625.332 562.636,-626.808 561.266,-619.943"/>
<text text-anchor="middle" x="620" y="-621.868" font-family="Helvetica,sans-Serif" font-size="10.00"> eventType_</text>
</g>
<!-- Node13&#45;&gt;Node13 -->
<g id="edge17" class="edge"><title>Node13&#45;&gt;Node13</title>
<path fill="none" stroke="#9a32cd" stroke-dasharray="5,2" d="M492.001,-654.268C493.337,-659.183 500.003,-662.868 512,-662.868 531.195,-662.868 536.744,-653.433 528.646,-644.625"/>
<polygon fill="#9a32cd" stroke="#9a32cd" points="495.376,-655.22 495.354,-644.625 488.764,-652.921 495.376,-655.22"/>
<text text-anchor="middle" x="512" y="-665.868" font-family="Helvetica,sans-Serif" font-size="10.00"> ZERO</text>
</g>
<!-- Node14&#45;&gt;Node5 -->
<g id="edge18" class="edge"><title>Node14&#45;&gt;Node5</title>
<path fill="none" stroke="#9a32cd" stroke-dasharray="5,2" d="M872.778,-368.378C919.56,-372.9 977.895,-378.6 1030,-383.868 1043.44,-385.227 1058.06,-386.743 1071.37,-388.138"/>
<polygon fill="#9a32cd" stroke="#9a32cd" points="872.964,-364.88 862.673,-367.402 872.291,-371.847 872.964,-364.88"/>
<text text-anchor="middle" x="974" y="-386.868" font-family="Helvetica,sans-Serif" font-size="10.00"> globalVars_</text>
</g>
<!-- Node15&#45;&gt;Node5 -->
<g id="edge20" class="edge"><title>Node15&#45;&gt;Node5</title>
<path fill="none" stroke="#9a32cd" stroke-dasharray="5,2" d="M870.448,-588.183C921.006,-581.163 983.768,-565.705 1030,-531.868 1077.4,-497.175 1104.37,-427.706 1112.96,-402.383"/>
<polygon fill="#9a32cd" stroke="#9a32cd" points="869.972,-584.716 860.507,-589.478 870.876,-591.657 869.972,-584.716"/>
<text text-anchor="middle" x="974" y="-581.868" font-family="Helvetica,sans-Serif" font-size="10.00"> subsystems_</text>
</g>
<!-- Node16&#45;&gt;Node5 -->
<g id="edge22" class="edge"><title>Node16&#45;&gt;Node5</title>
<path fill="none" stroke="#9a32cd" stroke-dasharray="5,2" d="M851.931,-119.157C906.258,-122.153 981.165,-134.772 1030,-177.868 1095.11,-235.325 1111.57,-348.885 1115.13,-382.97"/>
<polygon fill="#9a32cd" stroke="#9a32cd" points="851.845,-115.649 841.696,-118.692 851.527,-122.642 851.845,-115.649"/>
<text text-anchor="middle" x="974" y="-180.868" font-family="Helvetica,sans-Serif" font-size="10.00"> eventDataMaps_</text>
</g>
<!-- Node17&#45;&gt;Node5 -->
<g id="edge24" class="edge"><title>Node17&#45;&gt;Node5</title>
<path fill="none" stroke="#9a32cd" stroke-dasharray="5,2" d="M887.018,-454.127C931.279,-445.014 983.432,-433.43 1030,-420.868 1050.01,-415.47 1072.25,-408.194 1089.1,-402.413"/>
<polygon fill="#9a32cd" stroke="#9a32cd" points="886.213,-450.719 877.117,-456.152 887.615,-457.577 886.213,-450.719"/>
<text text-anchor="middle" x="974" y="-449.868" font-family="Helvetica,sans-Serif" font-size="10.00"> factories_</text>
</g>
<!-- Node18&#45;&gt;Node5 -->
<g id="edge26" class="edge"><title>Node18&#45;&gt;Node5</title>
<path fill="none" stroke="#9a32cd" stroke-dasharray="5,2" d="M863.82,-408.819C928.877,-404.704 1018.37,-399.044 1071.4,-395.689"/>
<polygon fill="#9a32cd" stroke="#9a32cd" points="863.357,-405.342 853.598,-409.466 863.799,-412.328 863.357,-405.342"/>
<text text-anchor="middle" x="974" y="-408.868" font-family="Helvetica,sans-Serif" font-size="10.00"> objectCategories_</text>
</g>
<!-- Node19&#45;&gt;Node5 -->
<g id="edge28" class="edge"><title>Node19&#45;&gt;Node5</title>
<path fill="none" stroke="#9a32cd" stroke-dasharray="5,2" d="M875.66,-516.522C923.496,-505.164 981.91,-487.57 1030,-461.868 1060.89,-445.356 1091.57,-417.192 1106.55,-402.472"/>
<polygon fill="#9a32cd" stroke="#9a32cd" points="874.57,-513.182 865.62,-518.852 876.153,-520 874.57,-513.182"/>
<text text-anchor="middle" x="974" y="-519.868" font-family="Helvetica,sans-Serif" font-size="10.00"> attributes_</text>
<text text-anchor="middle" x="974" y="-508.868" font-family="Helvetica,sans-Serif" font-size="10.00">networkAttributes_</text>
</g>
<!-- Node20&#45;&gt;Node2 -->
<g id="edge30" class="edge"><title>Node20&#45;&gt;Node2</title>
<path fill="none" stroke="#9a32cd" stroke-dasharray="5,2" d="M1039.8,-702.208C1036.49,-702.433 1033.21,-702.654 1030,-702.868 853.213,-714.677 642.356,-727.853 554.554,-733.299"/>
<polygon fill="#9a32cd" stroke="#9a32cd" points="1040.06,-705.699 1049.8,-701.526 1039.59,-698.715 1040.06,-705.699"/>
<text text-anchor="middle" x="783" y="-729.868" font-family="Helvetica,sans-Serif" font-size="10.00"> eventHandlers_</text>
</g>
<!-- Node21 -->
<g id="node21" class="node"><title>Node21</title>
<g id="a_node21"><a xlink:href="class_urho3_d_1_1_g_p_u_object.html" target="_top" xlink:title="Base class for GPU resources. ">
<polygon fill="none" stroke="black" points="1268.5,-825.368 1268.5,-844.368 1375.5,-844.368 1375.5,-825.368 1268.5,-825.368"/>
<text text-anchor="middle" x="1322" y="-832.368" font-family="Helvetica,sans-Serif" font-size="10.00">Urho3D::GPUObject</text>
</a>
</g>
</g>
<!-- Node21&#45;&gt;Node1 -->
<g id="edge32" class="edge"><title>Node21&#45;&gt;Node1</title>
<path fill="none" stroke="midnightblue" d="M1386.1,-834.868C1395.33,-834.868 1404.82,-834.868 1413.99,-834.868"/>
<polygon fill="midnightblue" stroke="midnightblue" points="1385.81,-831.368 1375.81,-834.868 1385.81,-838.368 1385.81,-831.368"/>
</g>
<!-- Node22&#45;&gt;Node21 -->
<g id="edge33" class="edge"><title>Node22&#45;&gt;Node21</title>
<path fill="none" stroke="#9a32cd" stroke-dasharray="5,2" d="M1195.54,-848.464C1219.92,-845.823 1246.25,-842.969 1268.46,-840.562"/>
<polygon fill="#9a32cd" stroke="#9a32cd" points="1195.16,-844.985 1185.6,-849.543 1195.91,-851.945 1195.16,-844.985"/>
<text text-anchor="middle" x="1227" y="-850.868" font-family="Helvetica,sans-Serif" font-size="10.00"> graphics_</text>
</g>
<!-- Node23&#45;&gt;Node22 -->
<g id="edge34" class="edge"><title>Node23&#45;&gt;Node22</title>
<path fill="none" stroke="#9a32cd" stroke-dasharray="5,2" d="M840.914,-816.067C891.044,-817.073 965.854,-820.598 1030,-831.868 1043.48,-834.236 1057.85,-837.93 1070.91,-841.759"/>
<polygon fill="#9a32cd" stroke="#9a32cd" points="840.664,-812.563 830.605,-815.889 840.543,-819.561 840.664,-812.563"/>
<text text-anchor="middle" x="974" y="-834.868" font-family="Helvetica,sans-Serif" font-size="10.00"> ptr_</text>
</g>
<!-- Node24 -->
<g id="node24" class="node"><title>Node24</title>
<g id="a_node24"><a xlink:href="union_urho3_d_1_1_g_p_u_object_handle.html" target="_top" xlink:title="API&#45;specific GPU object representation. ">
<polygon fill="none" stroke="black" points="1048.5,-803.368 1048.5,-822.368 1185.5,-822.368 1185.5,-803.368 1048.5,-803.368"/>
<text text-anchor="middle" x="1117" y="-810.368" font-family="Helvetica,sans-Serif" font-size="10.00">Urho3D::GPUObjectHandle</text>
</a>
</g>
</g>
<!-- Node24&#45;&gt;Node21 -->
<g id="edge37" class="edge"><title>Node24&#45;&gt;Node21</title>
<path fill="none" stroke="#9a32cd" stroke-dasharray="5,2" d="M1195.54,-821.272C1219.92,-823.914 1246.25,-826.767 1268.46,-829.174"/>
<polygon fill="#9a32cd" stroke="#9a32cd" points="1195.91,-817.792 1185.6,-820.194 1195.16,-824.751 1195.91,-817.792"/>
<text text-anchor="middle" x="1227" y="-830.868" font-family="Helvetica,sans-Serif" font-size="10.00"> object_</text>
</g>
<!-- Node25&#45;&gt;Node1 -->
<g id="edge38" class="edge"><title>Node25&#45;&gt;Node1</title>
<path fill="none" stroke="#9a32cd" stroke-dasharray="5,2" d="M441.939,-899.744C491.533,-900.282 559.306,-900.868 619,-900.868 619,-900.868 619,-900.868 1323,-900.868 1378.5,-900.868 1436.6,-862.966 1461.49,-844.607"/>
<polygon fill="#9a32cd" stroke="#9a32cd" points="441.679,-896.241 431.641,-899.63 441.602,-903.24 441.679,-896.241"/>
<text text-anchor="middle" x="974" y="-903.868" font-family="Helvetica,sans-Serif" font-size="10.00"> shadowData_</text>
</g>
</g>
</svg>
        <g id="navigator" transform="translate(0 0)" fill="#404254">
                <rect fill="#f2f5e9" fill-opacity="0.5" stroke="#606060" stroke-width=".5" x="0" y="0" width="60" height="60"/>
                <use id="zoomplus" xlink:href="#zoomPlus" x="17" y="9" onmousedown="handleZoom(evt,'in')"/>
                <use id="zoomminus" xlink:href="#zoomMin" x="42" y="9" onmousedown="handleZoom(evt,'out')"/>
                <use id="reset" xlink:href="#resetDef" x="30" y="36" onmousedown="handleReset()"/>
                <g id="arrowUp" xlink:href="#dirArrow" transform="translate(30 24)" onmousedown="handlePan(0,-1)">
                  <use xlink:href="#rim" fill="#404040">
                        <set attributeName="fill" to="#808080" begin="arrowUp.mouseover" end="arrowUp.mouseout"/>
                  </use>
                  <path fill="none" stroke="white" stroke-width="1.5" d="M0,-3.0v7 M-2.5,-0.5L0,-3.0L2.5,-0.5"/>
                </g>
                <g id="arrowRight" xlink:href="#dirArrow" transform="rotate(90) translate(36 -43)" onmousedown="handlePan(1,0)">
                  <use xlink:href="#rim" fill="#404040">
                        <set attributeName="fill" to="#808080" begin="arrowRight.mouseover" end="arrowRight.mouseout"/>
                  </use>
                  <path fill="none" stroke="white" stroke-width="1.5" d="M0,-3.0v7 M-2.5,-0.5L0,-3.0L2.5,-0.5"/>
                </g>
                <g id="arrowDown" xlink:href="#dirArrow" transform="rotate(180) translate(-30 -48)" onmousedown="handlePan(0,1)">
                  <use xlink:href="#rim" fill="#404040">
                        <set attributeName="fill" to="#808080" begin="arrowDown.mouseover" end="arrowDown.mouseout"/>
                  </use>
                  <path fill="none" stroke="white" stroke-width="1.5" d="M0,-3.0v7 M-2.5,-0.5L0,-3.0L2.5,-0.5"/>
                </g>
                <g id="arrowLeft" xlink:href="#dirArrow" transform="rotate(270) translate(-36 17)" onmousedown="handlePan(-1,0)">
                  <use xlink:href="#rim" fill="#404040">
                        <set attributeName="fill" to="#808080" begin="arrowLeft.mouseover" end="arrowLeft.mouseout"/>
                  </use>
                  <path fill="none" stroke="white" stroke-width="1.5" d="M0,-3.0v7 M-2.5,-0.5L0,-3.0L2.5,-0.5"/>
                </g>
        </g>
        <svg viewBox="0 0 15 15" width="100%" height="30px" preserveAspectRatio="xMaxYMin meet">
         <g id="arrow_out" transform="scale(0.3 0.3)">
          <a xlink:href="class_urho3_d_1_1_constant_buffer__coll__graph_org.svg" target="_base">
           <rect id="button" ry="5" rx="5" y="6" x="6" height="38" width="38"
                fill="#f2f5e9" fill-opacity="0.5" stroke="#606060" stroke-width="1.0"/>
           <path id="arrow"
             d="M 11.500037,31.436501 C 11.940474,20.09759 22.043105,11.32322 32.158766,21.979434 L 37.068811,17.246167 C 37.068811,17.246167 37.088388,32 37.088388,32 L 22.160133,31.978069 C 22.160133,31.978069 26.997745,27.140456 26.997745,27.140456 C 18.528582,18.264221 13.291696,25.230495 11.500037,31.436501 z"
             style="fill:#404040;"/>
          </a>
         </g>
        </svg>
</svg>
