<?xml version="1.0" encoding="UTF-8" standalone="no"?>
<!DOCTYPE svg PUBLIC "-//W3C//DTD SVG 1.1//EN"
 "http://www.w3.org/Graphics/SVG/1.1/DTD/svg11.dtd">
<!-- Generated by graphviz version 2.36.0 (20140111.2315)
 -->
<!-- Title: Urho3D::Sound Pages: 1 -->
<!--zoomable 766 -->
<svg id="main" version="1.1" xmlns="http://www.w3.org/2000/svg" xmlns:xlink="http://www.w3.org/1999/xlink" xml:space="preserve" onload="init(evt)">
<style type="text/css"><![CDATA[
.edge:hover path { stroke: red; }
.edge:hover polygon { stroke: red; fill: red; }
]]></style>
<script type="text/javascript"><![CDATA[
var edges = document.getElementsByTagName('g');
if (edges && edges.length) {
  for (var i=0;i<edges.length;i++) {
    if (edges[i].id.substr(0,4)=='edge') {
      edges[i].setAttribute('class','edge');
    }
  }
}
]]></script>
        <defs>
                <circle id="rim" cx="0" cy="0" r="7"/>
                <circle id="rim2" cx="0" cy="0" r="3.5"/>
                <g id="zoomPlus">
                        <use xlink:href="#rim" fill="#404040">
                                <set attributeName="fill" to="#808080" begin="zoomplus.mouseover" end="zoomplus.mouseout"/>
                        </use>
                        <path d="M-4,0h8M0,-4v8" fill="none" stroke="white" stroke-width="1.5" pointer-events="none"/>
                </g>
                <g id="zoomMin">
                        <use xlink:href="#rim" fill="#404040">
                                <set attributeName="fill" to="#808080" begin="zoomminus.mouseover" end="zoomminus.mouseout"/>
                        </use>
                        <path d="M-4,0h8" fill="none" stroke="white" stroke-width="1.5" pointer-events="none"/>
                </g>
                <g id="dirArrow">
                        <path fill="none" stroke="white" stroke-width="1.5" d="M0,-3.0v7 M-2.5,-0.5L0,-3.0L2.5,-0.5"/>
                </g>
               <g id="resetDef">
                       <use xlink:href="#rim2" fill="#404040">
                               <set attributeName="fill" to="#808080" begin="reset.mouseover" end="reset.mouseout"/>
                       </use>
               </g>
        </defs>

<script type="text/javascript">
var viewWidth = 1338;
var viewHeight = 766;
var sectionId = 'dynsection-1';
</script>
<script xlink:href="svgpan.js"/>
<svg id="graph" class="graph">
<g id="viewport">
<title>Urho3D::Sound</title>
<!-- Node1 -->
<g id="node1" class="node"><title>Node1</title>
<polygon fill="#bfbfbf" stroke="black" points="1246,-49.5 1246,-68.5 1330,-68.5 1330,-49.5 1246,-49.5"/>
<text text-anchor="middle" x="1288" y="-56.5" font-family="Helvetica,sans-Serif" font-size="10.00">Urho3D::Sound</text>
</g>
<!-- Node2 -->
<g id="node2" class="node"><title>Node2</title>
<g id="a_node2"><a xlink:href="class_urho3_d_1_1_resource_with_metadata.html" target="_top" xlink:title="Base class for resources that support arbitrary metadata stored. Metadata serialization shall be impl...">
<polygon fill="none" stroke="black" points="1048.5,-203.5 1048.5,-222.5 1207.5,-222.5 1207.5,-203.5 1048.5,-203.5"/>
<text text-anchor="middle" x="1128" y="-210.5" font-family="Helvetica,sans-Serif" font-size="10.00">Urho3D::ResourceWithMetadata</text>
</a>
</g>
</g>
<!-- Node2&#45;&gt;Node1 -->
<g id="edge1" class="edge"><title>Node2&#45;&gt;Node1</title>
<path fill="none" stroke="midnightblue" d="M1185.49,-199.869C1193.53,-196.492 1201.32,-192.27 1208,-187 1249.83,-154.007 1275.16,-92.3152 1283.72,-68.6144"/>
<polygon fill="midnightblue" stroke="midnightblue" points="1184.11,-196.648 1175.99,-203.457 1186.58,-203.196 1184.11,-196.648"/>
</g>
<!-- Node3 -->
<g id="node3" class="node"><title>Node3</title>
<g id="a_node3"><a xlink:href="class_urho3_d_1_1_resource.html" target="_top" xlink:title="Base class for resources. ">
<polygon fill="none" stroke="black" points="734,-96.5 734,-115.5 832,-115.5 832,-96.5 734,-96.5"/>
<text text-anchor="middle" x="783" y="-103.5" font-family="Helvetica,sans-Serif" font-size="10.00">Urho3D::Resource</text>
</a>
</g>
</g>
<!-- Node3&#45;&gt;Node2 -->
<g id="edge2" class="edge"><title>Node3&#45;&gt;Node2</title>
<path fill="none" stroke="midnightblue" d="M833.36,-117.967C853.994,-123.066 878.198,-129.174 900,-135 958.036,-150.509 976.884,-143.94 1030,-172 1039.21,-176.864 1038.89,-181.95 1048,-187 1060.5,-193.933 1075.15,-199.392 1088.41,-203.48"/>
<polygon fill="midnightblue" stroke="midnightblue" points="834.091,-114.542 823.544,-115.55 832.417,-121.339 834.091,-114.542"/>
</g>
<!-- Node4 -->
<g id="node4" class="node"><title>Node4</title>
<g id="a_node4"><a xlink:href="class_urho3_d_1_1_object.html" target="_top" xlink:title="Base class for objects with type identification, subsystem access and event sending/receiving capabil...">
<polygon fill="none" stroke="black" points="477.5,-207.5 477.5,-226.5 562.5,-226.5 562.5,-207.5 477.5,-207.5"/>
<text text-anchor="middle" x="520" y="-214.5" font-family="Helvetica,sans-Serif" font-size="10.00">Urho3D::Object</text>
</a>
</g>
</g>
<!-- Node4&#45;&gt;Node3 -->
<g id="edge3" class="edge"><title>Node4&#45;&gt;Node3</title>
<path fill="none" stroke="midnightblue" d="M564.65,-202.572C568.063,-200.38 571.246,-197.87 574,-195 590.062,-178.259 574.453,-161.178 592,-146 612.842,-127.972 684.563,-116.656 733.671,-110.832"/>
<polygon fill="midnightblue" stroke="midnightblue" points="562.915,-199.532 555.81,-207.392 566.266,-205.678 562.915,-199.532"/>
</g>
<!-- Node15 -->
<g id="node15" class="node"><title>Node15</title>
<g id="a_node15"><a xlink:href="class_urho3_d_1_1_event_handler.html" target="_top" xlink:title="Internal helper class for invoking event handler functions. ">
<polygon fill="none" stroke="red" points="725,-196.5 725,-215.5 841,-215.5 841,-196.5 725,-196.5"/>
<text text-anchor="middle" x="783" y="-203.5" font-family="Helvetica,sans-Serif" font-size="10.00">Urho3D::EventHandler</text>
</a>
</g>
</g>
<!-- Node4&#45;&gt;Node15 -->
<g id="edge19" class="edge"><title>Node4&#45;&gt;Node15</title>
<path fill="none" stroke="#9a32cd" stroke-dasharray="5,2" d="M572.822,-214.816C616.735,-212.965 679.614,-210.315 724.952,-208.404"/>
<polygon fill="#9a32cd" stroke="#9a32cd" points="572.489,-211.327 562.645,-215.245 572.783,-218.321 572.489,-211.327"/>
<text text-anchor="middle" x="620" y="-228" font-family="Helvetica,sans-Serif" font-size="10.00"> sender_</text>
<text text-anchor="middle" x="620" y="-217" font-family="Helvetica,sans-Serif" font-size="10.00">receiver_</text>
</g>
<!-- Node5 -->
<g id="node5" class="node"><title>Node5</title>
<g id="a_node5"><a xlink:href="class_urho3_d_1_1_ref_counted.html" target="_top" xlink:title="Base class for intrusively reference&#45;counted objects. These are noncopyable and non&#45;assignable. ">
<polygon fill="none" stroke="black" points="188.5,-207.5 188.5,-226.5 297.5,-226.5 297.5,-207.5 188.5,-207.5"/>
<text text-anchor="middle" x="243" y="-214.5" font-family="Helvetica,sans-Serif" font-size="10.00">Urho3D::RefCounted</text>
</a>
</g>
</g>
<!-- Node5&#45;&gt;Node4 -->
<g id="edge4" class="edge"><title>Node5&#45;&gt;Node4</title>
<path fill="none" stroke="midnightblue" d="M307.818,-217C359.938,-217 432.102,-217 477.14,-217"/>
<polygon fill="midnightblue" stroke="midnightblue" points="307.676,-213.5 297.676,-217 307.676,-220.5 307.676,-213.5"/>
</g>
<!-- Node7 -->
<g id="node7" class="node"><title>Node7</title>
<g id="a_node7"><a xlink:href="class_urho3_d_1_1_context.html" target="_top" xlink:title="Urho3D execution context. Provides access to subsystems, object factories and attributes, and event receivers. ">
<polygon fill="none" stroke="red" points="1082.5,-446.5 1082.5,-465.5 1173.5,-465.5 1173.5,-446.5 1082.5,-446.5"/>
<text text-anchor="middle" x="1128" y="-453.5" font-family="Helvetica,sans-Serif" font-size="10.00">Urho3D::Context</text>
</a>
</g>
</g>
<!-- Node5&#45;&gt;Node7 -->
<g id="edge7" class="edge"><title>Node5&#45;&gt;Node7</title>
<path fill="none" stroke="midnightblue" d="M263.754,-233.169C301.058,-262.949 385.38,-326.734 466,-363 681.071,-459.749 971.899,-461.449 1082.14,-458.077"/>
<polygon fill="midnightblue" stroke="midnightblue" points="265.699,-230.241 255.715,-226.694 261.308,-235.692 265.699,-230.241"/>
</g>
<!-- Node6 -->
<g id="node6" class="node"><title>Node6</title>
<g id="a_node6"><a xlink:href="struct_urho3_d_1_1_ref_count.html" target="_top" xlink:title="Reference count structure. ">
<polygon fill="none" stroke="black" points="0,-153.5 0,-172.5 98,-172.5 98,-153.5 0,-153.5"/>
<text text-anchor="middle" x="49" y="-160.5" font-family="Helvetica,sans-Serif" font-size="10.00">Urho3D::RefCount</text>
</a>
</g>
</g>
<!-- Node6&#45;&gt;Node5 -->
<g id="edge5" class="edge"><title>Node6&#45;&gt;Node5</title>
<path fill="none" stroke="#9a32cd" stroke-dasharray="5,2" d="M93.7533,-175.306C128.469,-185.069 176.294,-198.52 208.133,-207.475"/>
<polygon fill="#9a32cd" stroke="#9a32cd" points="94.4579,-171.868 83.8838,-172.53 92.5627,-178.607 94.4579,-171.868"/>
<text text-anchor="middle" x="139" y="-197" font-family="Helvetica,sans-Serif" font-size="10.00"> refCount_</text>
</g>
<!-- Node25 -->
<g id="node25" class="node"><title>Node25</title>
<g id="a_node25"><a xlink:href="class_urho3_d_1_1_shared_array_ptr.html" target="_top" xlink:title="Urho3D::SharedArrayPtr\l\&lt; signed char \&gt;">
<polygon fill="none" stroke="black" points="324.5,-30 324.5,-60 447.5,-60 447.5,-30 324.5,-30"/>
<text text-anchor="start" x="332.5" y="-48" font-family="Helvetica,sans-Serif" font-size="10.00">Urho3D::SharedArrayPtr</text>
<text text-anchor="middle" x="386" y="-37" font-family="Helvetica,sans-Serif" font-size="10.00">&lt; signed char &gt;</text>
</a>
</g>
</g>
<!-- Node6&#45;&gt;Node25 -->
<g id="edge40" class="edge"><title>Node6&#45;&gt;Node25</title>
<path fill="none" stroke="#9a32cd" stroke-dasharray="5,2" d="M86.5855,-150.113C149.063,-128.106 275.993,-83.3966 342.375,-60.0141"/>
<polygon fill="#9a32cd" stroke="#9a32cd" points="85.3998,-146.82 77.1307,-153.444 87.7255,-153.422 85.3998,-146.82"/>
<text text-anchor="middle" x="139" y="-143" font-family="Helvetica,sans-Serif" font-size="10.00"> refCount_</text>
</g>
<!-- Node7&#45;&gt;Node4 -->
<g id="edge6" class="edge"><title>Node7&#45;&gt;Node4</title>
<path fill="none" stroke="#9a32cd" stroke-dasharray="5,2" d="M1114.84,-437.875C1098.18,-414.285 1066.19,-373.116 1030,-348 986.062,-317.508 957.884,-339.63 918,-304 905.249,-292.609 914.203,-279.52 900,-270 785.753,-193.423 726.652,-268.023 592,-240 576.397,-236.753 559.397,-231.316 545.945,-226.544"/>
<polygon fill="#9a32cd" stroke="#9a32cd" points="1112.07,-440.025 1120.63,-446.262 1117.83,-436.045 1112.07,-440.025"/>
<text text-anchor="middle" x="783" y="-273" font-family="Helvetica,sans-Serif" font-size="10.00"> context_</text>
</g>
<!-- Node8 -->
<g id="node8" class="node"><title>Node8</title>
<g id="a_node8"><a xlink:href="class_urho3_d_1_1_hash_map.html" target="_top" xlink:title="Urho3D::HashMap\&lt; Urho3D\l::Object *, Urho3D::HashMap\l\&lt; Urho3D::StringHash, Urho3D\l::SharedPtr\&lt; Urho3D::EventReceiverGroup \&gt; \&gt; \&gt;">
<polygon fill="none" stroke="black" points="666.5,-706 666.5,-758 899.5,-758 899.5,-706 666.5,-706"/>
<text text-anchor="start" x="674.5" y="-746" font-family="Helvetica,sans-Serif" font-size="10.00">Urho3D::HashMap&lt; Urho3D</text>
<text text-anchor="start" x="674.5" y="-735" font-family="Helvetica,sans-Serif" font-size="10.00">::Object *, Urho3D::HashMap</text>
<text text-anchor="start" x="674.5" y="-724" font-family="Helvetica,sans-Serif" font-size="10.00">&lt; Urho3D::StringHash, Urho3D</text>
<text text-anchor="middle" x="783" y="-713" font-family="Helvetica,sans-Serif" font-size="10.00">::SharedPtr&lt; Urho3D::EventReceiverGroup &gt; &gt; &gt;</text>
</a>
</g>
</g>
<!-- Node8&#45;&gt;Node7 -->
<g id="edge8" class="edge"><title>Node8&#45;&gt;Node7</title>
<path fill="none" stroke="#9a32cd" stroke-dasharray="5,2" d="M909.598,-708.735C951.725,-695.909 996.466,-676.19 1030,-646 1088.63,-593.218 1116.85,-496.736 1124.67,-465.813"/>
<polygon fill="#9a32cd" stroke="#9a32cd" points="908.418,-705.433 899.808,-711.608 910.389,-712.15 908.418,-705.433"/>
<text text-anchor="middle" x="974" y="-708" font-family="Helvetica,sans-Serif" font-size="10.00"> specificEventReceivers_</text>
</g>
<!-- Node9 -->
<g id="node9" class="node"><title>Node9</title>
<g id="a_node9"><a xlink:href="class_urho3_d_1_1_hash_base.html" target="_top" xlink:title="Hash set/map base class. ">
<polygon fill="none" stroke="black" points="469,-585.5 469,-604.5 571,-604.5 571,-585.5 469,-585.5"/>
<text text-anchor="middle" x="520" y="-592.5" font-family="Helvetica,sans-Serif" font-size="10.00">Urho3D::HashBase</text>
</a>
</g>
</g>
<!-- Node9&#45;&gt;Node8 -->
<g id="edge9" class="edge"><title>Node9&#45;&gt;Node8</title>
<path fill="none" stroke="midnightblue" d="M540.029,-611.158C566.655,-633.062 617.254,-672.172 666,-696 673.294,-699.565 681.017,-702.872 688.876,-705.918"/>
<polygon fill="midnightblue" stroke="midnightblue" points="542.185,-608.398 532.259,-604.692 537.707,-613.779 542.185,-608.398"/>
</g>
<!-- Node12 -->
<g id="node12" class="node"><title>Node12</title>
<g id="a_node12"><a xlink:href="class_urho3_d_1_1_hash_map.html" target="_top" xlink:title="Urho3D::HashMap\&lt; Urho3D\l::StringHash, Urho3D::\lSharedPtr\&lt; Urho3D::EventReceiver\lGroup \&gt; \&gt;">
<polygon fill="none" stroke="black" points="696.5,-635 696.5,-687 869.5,-687 869.5,-635 696.5,-635"/>
<text text-anchor="start" x="704.5" y="-675" font-family="Helvetica,sans-Serif" font-size="10.00">Urho3D::HashMap&lt; Urho3D</text>
<text text-anchor="start" x="704.5" y="-664" font-family="Helvetica,sans-Serif" font-size="10.00">::StringHash, Urho3D::</text>
<text text-anchor="start" x="704.5" y="-653" font-family="Helvetica,sans-Serif" font-size="10.00">SharedPtr&lt; Urho3D::EventReceiver</text>
<text text-anchor="middle" x="783" y="-642" font-family="Helvetica,sans-Serif" font-size="10.00">Group &gt; &gt;</text>
</a>
</g>
</g>
<!-- Node9&#45;&gt;Node12 -->
<g id="edge15" class="edge"><title>Node9&#45;&gt;Node12</title>
<path fill="none" stroke="midnightblue" d="M568.787,-607.084C604.386,-616.086 653.957,-628.621 696.343,-639.34"/>
<polygon fill="midnightblue" stroke="midnightblue" points="569.226,-603.585 558.673,-604.526 567.51,-610.371 569.226,-603.585"/>
</g>
<!-- Node17 -->
<g id="node17" class="node"><title>Node17</title>
<g id="a_node17"><a xlink:href="class_urho3_d_1_1_hash_map.html" target="_top" xlink:title="Urho3D::HashMap\&lt; StringHash,\l Variant \&gt;">
<polygon fill="none" stroke="black" points="703.5,-466 703.5,-496 862.5,-496 862.5,-466 703.5,-466"/>
<text text-anchor="start" x="711.5" y="-484" font-family="Helvetica,sans-Serif" font-size="10.00">Urho3D::HashMap&lt; StringHash,</text>
<text text-anchor="middle" x="783" y="-473" font-family="Helvetica,sans-Serif" font-size="10.00"> Variant &gt;</text>
</a>
</g>
</g>
<!-- Node9&#45;&gt;Node17 -->
<g id="edge23" class="edge"><title>Node9&#45;&gt;Node17</title>
<path fill="none" stroke="midnightblue" d="M541.225,-579.199C568.17,-558.939 618.038,-524.143 666,-505 677.747,-500.312 690.544,-496.491 703.209,-493.391"/>
<polygon fill="midnightblue" stroke="midnightblue" points="538.832,-576.623 533.002,-585.47 543.076,-582.189 538.832,-576.623"/>
</g>
<!-- Node18 -->
<g id="node18" class="node"><title>Node18</title>
<g id="a_node18"><a xlink:href="class_urho3_d_1_1_hash_map.html" target="_top" xlink:title="Urho3D::HashMap\&lt; Urho3D\l::StringHash, Urho3D::\lSharedPtr\&lt; Urho3D::Object \&gt; \&gt;">
<polygon fill="none" stroke="black" points="705.5,-574.5 705.5,-615.5 860.5,-615.5 860.5,-574.5 705.5,-574.5"/>
<text text-anchor="start" x="713.5" y="-603.5" font-family="Helvetica,sans-Serif" font-size="10.00">Urho3D::HashMap&lt; Urho3D</text>
<text text-anchor="start" x="713.5" y="-592.5" font-family="Helvetica,sans-Serif" font-size="10.00">::StringHash, Urho3D::</text>
<text text-anchor="middle" x="783" y="-581.5" font-family="Helvetica,sans-Serif" font-size="10.00">SharedPtr&lt; Urho3D::Object &gt; &gt;</text>
</a>
</g>
</g>
<!-- Node9&#45;&gt;Node18 -->
<g id="edge25" class="edge"><title>Node9&#45;&gt;Node18</title>
<path fill="none" stroke="midnightblue" d="M581.138,-595C618.095,-595 665.793,-595 705.434,-595"/>
<polygon fill="midnightblue" stroke="midnightblue" points="581.015,-591.5 571.015,-595 581.015,-598.5 581.015,-591.5"/>
</g>
<!-- Node20 -->
<g id="node20" class="node"><title>Node20</title>
<g id="a_node20"><a xlink:href="class_urho3_d_1_1_hash_map.html" target="_top" xlink:title="Urho3D::HashMap\&lt; Urho3D\l::StringHash, Urho3D::\lSharedPtr\&lt; Urho3D::ObjectFactory \&gt; \&gt;">
<polygon fill="none" stroke="black" points="689,-514.5 689,-555.5 877,-555.5 877,-514.5 689,-514.5"/>
<text text-anchor="start" x="697" y="-543.5" font-family="Helvetica,sans-Serif" font-size="10.00">Urho3D::HashMap&lt; Urho3D</text>
<text text-anchor="start" x="697" y="-532.5" font-family="Helvetica,sans-Serif" font-size="10.00">::StringHash, Urho3D::</text>
<text text-anchor="middle" x="783" y="-521.5" font-family="Helvetica,sans-Serif" font-size="10.00">SharedPtr&lt; Urho3D::ObjectFactory &gt; &gt;</text>
</a>
</g>
</g>
<!-- Node9&#45;&gt;Node20 -->
<g id="edge29" class="edge"><title>Node9&#45;&gt;Node20</title>
<path fill="none" stroke="midnightblue" d="M572.149,-583.242C606.437,-575.359 652.506,-564.769 692.745,-555.518"/>
<polygon fill="midnightblue" stroke="midnightblue" points="571.318,-579.841 562.356,-585.493 572.886,-586.663 571.318,-579.841"/>
</g>
<!-- Node10 -->
<g id="node10" class="node"><title>Node10</title>
<g id="a_node10"><a xlink:href="struct_urho3_d_1_1_hash_node_base.html" target="_top" xlink:title="Hash set/map node base class. ">
<polygon fill="none" stroke="black" points="180.5,-544.5 180.5,-563.5 305.5,-563.5 305.5,-544.5 180.5,-544.5"/>
<text text-anchor="middle" x="243" y="-551.5" font-family="Helvetica,sans-Serif" font-size="10.00">Urho3D::HashNodeBase</text>
</a>
</g>
</g>
<!-- Node10&#45;&gt;Node9 -->
<g id="edge10" class="edge"><title>Node10&#45;&gt;Node9</title>
<path fill="none" stroke="#9a32cd" stroke-dasharray="5,2" d="M315.705,-556.378C355.069,-558.669 404.571,-563.167 448,-572 463.617,-575.176 480.618,-580.61 494.067,-585.398"/>
<polygon fill="#9a32cd" stroke="#9a32cd" points="315.842,-552.88 305.666,-555.828 315.46,-559.869 315.842,-552.88"/>
<text text-anchor="middle" x="386" y="-597" font-family="Helvetica,sans-Serif" font-size="10.00"> ptrs_</text>
<text text-anchor="middle" x="386" y="-586" font-family="Helvetica,sans-Serif" font-size="10.00">tail_</text>
<text text-anchor="middle" x="386" y="-575" font-family="Helvetica,sans-Serif" font-size="10.00">head_</text>
</g>
<!-- Node10&#45;&gt;Node10 -->
<g id="edge11" class="edge"><title>Node10&#45;&gt;Node10</title>
<path fill="none" stroke="#9a32cd" stroke-dasharray="5,2" d="M223.742,-573.4C225.028,-578.315 231.447,-582 243,-582 261.484,-582 266.828,-572.565 259.029,-563.757"/>
<polygon fill="#9a32cd" stroke="#9a32cd" points="227.114,-574.351 226.971,-563.757 220.476,-572.128 227.114,-574.351"/>
<text text-anchor="middle" x="243" y="-607" font-family="Helvetica,sans-Serif" font-size="10.00"> next_</text>
<text text-anchor="middle" x="243" y="-596" font-family="Helvetica,sans-Serif" font-size="10.00">prev_</text>
<text text-anchor="middle" x="243" y="-585" font-family="Helvetica,sans-Serif" font-size="10.00">down_</text>
</g>
<!-- Node11 -->
<g id="node11" class="node"><title>Node11</title>
<g id="a_node11"><a xlink:href="struct_urho3_d_1_1_allocator_block.html" target="_top" xlink:title="Allocator memory block. ">
<polygon fill="none" stroke="red" points="183.5,-633.5 183.5,-652.5 302.5,-652.5 302.5,-633.5 183.5,-633.5"/>
<text text-anchor="middle" x="243" y="-640.5" font-family="Helvetica,sans-Serif" font-size="10.00">Urho3D::AllocatorBlock</text>
</a>
</g>
</g>
<!-- Node11&#45;&gt;Node9 -->
<g id="edge12" class="edge"><title>Node11&#45;&gt;Node9</title>
<path fill="none" stroke="#9a32cd" stroke-dasharray="5,2" d="M308.809,-631.688C357.657,-623.162 423.684,-611.637 468.613,-603.795"/>
<polygon fill="#9a32cd" stroke="#9a32cd" points="307.909,-628.292 298.66,-633.459 309.113,-635.188 307.909,-628.292"/>
<text text-anchor="middle" x="386" y="-631" font-family="Helvetica,sans-Serif" font-size="10.00"> allocator_</text>
</g>
<!-- Node11&#45;&gt;Node11 -->
<g id="edge13" class="edge"><title>Node11&#45;&gt;Node11</title>
<path fill="none" stroke="#9a32cd" stroke-dasharray="5,2" d="M223.742,-662.4C225.028,-667.315 231.447,-671 243,-671 261.484,-671 266.828,-661.565 259.029,-652.757"/>
<polygon fill="#9a32cd" stroke="#9a32cd" points="227.114,-663.351 226.971,-652.757 220.476,-661.128 227.114,-663.351"/>
<text text-anchor="middle" x="243" y="-674" font-family="Helvetica,sans-Serif" font-size="10.00"> next_</text>
</g>
<!-- Node12&#45;&gt;Node7 -->
<g id="edge14" class="edge"><title>Node12&#45;&gt;Node7</title>
<path fill="none" stroke="#9a32cd" stroke-dasharray="5,2" d="M879.588,-643.547C927.863,-631.407 985.473,-611.565 1030,-580 1075.26,-547.913 1109.74,-488.743 1122.07,-465.618"/>
<polygon fill="#9a32cd" stroke="#9a32cd" points="878.636,-640.177 869.751,-645.948 880.295,-646.977 878.636,-640.177"/>
<text text-anchor="middle" x="974" y="-634" font-family="Helvetica,sans-Serif" font-size="10.00"> eventReceivers_</text>
</g>
<!-- Node13 -->
<g id="node13" class="node"><title>Node13</title>
<g id="a_node13"><a xlink:href="class_urho3_d_1_1_p_o_d_vector.html" target="_top" xlink:title="Urho3D::PODVector\&lt;\l Urho3D::Object * \&gt;">
<polygon fill="none" stroke="black" points="726.5,-329 726.5,-359 839.5,-359 839.5,-329 726.5,-329"/>
<text text-anchor="start" x="734.5" y="-347" font-family="Helvetica,sans-Serif" font-size="10.00">Urho3D::PODVector&lt;</text>
<text text-anchor="middle" x="783" y="-336" font-family="Helvetica,sans-Serif" font-size="10.00"> Urho3D::Object * &gt;</text>
</a>
</g>
</g>
<!-- Node13&#45;&gt;Node7 -->
<g id="edge16" class="edge"><title>Node13&#45;&gt;Node7</title>
<path fill="none" stroke="#9a32cd" stroke-dasharray="5,2" d="M850.149,-344.96C901.129,-347.794 972.407,-356.396 1030,-381 1066.8,-396.722 1101.86,-429.8 1117.89,-446.264"/>
<polygon fill="#9a32cd" stroke="#9a32cd" points="850.074,-341.452 839.913,-344.453 849.727,-348.443 850.074,-341.452"/>
<text text-anchor="middle" x="974" y="-384" font-family="Helvetica,sans-Serif" font-size="10.00"> eventSenders_</text>
</g>
<!-- Node14 -->
<g id="node14" class="node"><title>Node14</title>
<g id="a_node14"><a xlink:href="class_urho3_d_1_1_vector_base.html" target="_top" xlink:title="Vector base class. ">
<polygon fill="none" stroke="black" points="466.5,-334.5 466.5,-353.5 573.5,-353.5 573.5,-334.5 466.5,-334.5"/>
<text text-anchor="middle" x="520" y="-341.5" font-family="Helvetica,sans-Serif" font-size="10.00">Urho3D::VectorBase</text>
</a>
</g>
</g>
<!-- Node14&#45;&gt;Node13 -->
<g id="edge17" class="edge"><title>Node14&#45;&gt;Node13</title>
<path fill="none" stroke="midnightblue" d="M583.679,-344C627.167,-344 684.571,-344 726.425,-344"/>
<polygon fill="midnightblue" stroke="midnightblue" points="583.503,-340.5 573.503,-344 583.503,-347.5 583.503,-340.5"/>
</g>
<!-- Node19 -->
<g id="node19" class="node"><title>Node19</title>
<g id="a_node19"><a xlink:href="class_urho3_d_1_1_p_o_d_vector.html" target="_top" xlink:title="Urho3D::PODVector\&lt;\l Urho3D::HashMap * \&gt;">
<polygon fill="none" stroke="black" points="724.5,-378 724.5,-408 841.5,-408 841.5,-378 724.5,-378"/>
<text text-anchor="start" x="732.5" y="-396" font-family="Helvetica,sans-Serif" font-size="10.00">Urho3D::PODVector&lt;</text>
<text text-anchor="middle" x="783" y="-385" font-family="Helvetica,sans-Serif" font-size="10.00"> Urho3D::HashMap * &gt;</text>
</a>
</g>
</g>
<!-- Node14&#45;&gt;Node19 -->
<g id="edge27" class="edge"><title>Node14&#45;&gt;Node19</title>
<path fill="none" stroke="midnightblue" d="M579.205,-355.538C583.534,-356.378 587.835,-357.206 592,-358 636.314,-366.45 686.511,-375.682 724.176,-382.542"/>
<polygon fill="midnightblue" stroke="midnightblue" points="579.591,-352.048 569.106,-353.57 578.252,-358.918 579.591,-352.048"/>
</g>
<!-- Node24 -->
<g id="node24" class="node"><title>Node24</title>
<g id="a_node24"><a xlink:href="class_urho3_d_1_1_vector.html" target="_top" xlink:title="Urho3D::Vector\&lt; String \&gt;">
<polygon fill="none" stroke="black" points="719,-290.5 719,-309.5 847,-309.5 847,-290.5 719,-290.5"/>
<text text-anchor="middle" x="783" y="-297.5" font-family="Helvetica,sans-Serif" font-size="10.00">Urho3D::Vector&lt; String &gt;</text>
</a>
</g>
</g>
<!-- Node14&#45;&gt;Node24 -->
<g id="edge38" class="edge"><title>Node14&#45;&gt;Node24</title>
<path fill="none" stroke="midnightblue" d="M583.601,-333.089C609.146,-328.667 638.979,-323.542 666,-319 684.616,-315.871 704.923,-312.522 723.27,-309.522"/>
<polygon fill="midnightblue" stroke="midnightblue" points="582.927,-329.653 573.671,-334.809 584.122,-336.55 582.927,-329.653"/>
</g>
<!-- Node15&#45;&gt;Node7 -->
<g id="edge18" class="edge"><title>Node15&#45;&gt;Node7</title>
<path fill="none" stroke="#9a32cd" stroke-dasharray="5,2" d="M835.563,-217.768C860.45,-223.39 890.753,-230.153 918,-236 967.685,-246.663 989.79,-227.928 1030,-259 1094.86,-309.117 1119.19,-414.005 1125.32,-446.316"/>
<polygon fill="#9a32cd" stroke="#9a32cd" points="836.132,-214.308 825.606,-215.514 834.587,-221.136 836.132,-214.308"/>
<text text-anchor="middle" x="974" y="-262" font-family="Helvetica,sans-Serif" font-size="10.00"> eventHandler_</text>
</g>
<!-- Node21 -->
<g id="node21" class="node"><title>Node21</title>
<g id="a_node21"><a xlink:href="class_urho3_d_1_1_linked_list.html" target="_top" xlink:title="Urho3D::LinkedList\l\&lt; Urho3D::EventHandler \&gt;">
<polygon fill="none" stroke="black" points="1061,-148 1061,-178 1195,-178 1195,-148 1061,-148"/>
<text text-anchor="start" x="1069" y="-166" font-family="Helvetica,sans-Serif" font-size="10.00">Urho3D::LinkedList</text>
<text text-anchor="middle" x="1128" y="-155" font-family="Helvetica,sans-Serif" font-size="10.00">&lt; Urho3D::EventHandler &gt;</text>
</a>
</g>
</g>
<!-- Node15&#45;&gt;Node21 -->
<g id="edge31" class="edge"><title>Node15&#45;&gt;Node21</title>
<path fill="none" stroke="#9a32cd" stroke-dasharray="5,2" d="M851.25,-197.569C911.851,-189.972 1000.44,-178.867 1060.73,-171.308"/>
<polygon fill="#9a32cd" stroke="#9a32cd" points="850.511,-194.134 841.025,-198.851 851.382,-201.08 850.511,-194.134"/>
<text text-anchor="middle" x="974" y="-192" font-family="Helvetica,sans-Serif" font-size="10.00"> head_</text>
</g>
<!-- Node16 -->
<g id="node16" class="node"><title>Node16</title>
<g id="a_node16"><a xlink:href="class_urho3_d_1_1_string_hash.html" target="_top" xlink:title="32&#45;bit hash value for a string. ">
<polygon fill="none" stroke="black" points="467.5,-137.5 467.5,-156.5 572.5,-156.5 572.5,-137.5 467.5,-137.5"/>
<text text-anchor="middle" x="520" y="-144.5" font-family="Helvetica,sans-Serif" font-size="10.00">Urho3D::StringHash</text>
</a>
</g>
</g>
<!-- Node16&#45;&gt;Node3 -->
<g id="edge35" class="edge"><title>Node16&#45;&gt;Node3</title>
<path fill="none" stroke="#9a32cd" stroke-dasharray="5,2" d="M556.956,-133.426C562.837,-130.64 568.725,-127.48 574,-124 583.185,-117.941 581.785,-111.092 592,-107 637.472,-88.7827 694.122,-91.3639 733.682,-96.7439"/>
<polygon fill="#9a32cd" stroke="#9a32cd" points="555.528,-130.231 547.811,-137.491 558.371,-136.628 555.528,-130.231"/>
<text text-anchor="middle" x="620" y="-110" font-family="Helvetica,sans-Serif" font-size="10.00"> nameHash_</text>
</g>
<!-- Node16&#45;&gt;Node15 -->
<g id="edge20" class="edge"><title>Node16&#45;&gt;Node15</title>
<path fill="none" stroke="#9a32cd" stroke-dasharray="5,2" d="M572.993,-158.753C621.952,-169.82 694.374,-186.192 739.836,-196.469"/>
<polygon fill="#9a32cd" stroke="#9a32cd" points="573.75,-155.336 563.224,-156.545 572.206,-162.164 573.75,-155.336"/>
<text text-anchor="middle" x="620" y="-178" font-family="Helvetica,sans-Serif" font-size="10.00"> eventType_</text>
</g>
<!-- Node16&#45;&gt;Node16 -->
<g id="edge21" class="edge"><title>Node16&#45;&gt;Node16</title>
<path fill="none" stroke="#9a32cd" stroke-dasharray="5,2" d="M501.482,-166.4C502.719,-171.315 508.892,-175 520,-175 537.773,-175 542.911,-165.565 535.413,-156.757"/>
<polygon fill="#9a32cd" stroke="#9a32cd" points="504.854,-167.349 504.587,-156.757 498.191,-165.203 504.854,-167.349"/>
<text text-anchor="middle" x="520" y="-178" font-family="Helvetica,sans-Serif" font-size="10.00"> ZERO</text>
</g>
<!-- Node17&#45;&gt;Node2 -->
<g id="edge36" class="edge"><title>Node17&#45;&gt;Node2</title>
<path fill="none" stroke="#9a32cd" stroke-dasharray="5,2" d="M839.706,-461.864C861.524,-451.728 884.896,-437.118 900,-417 921.88,-387.855 896.579,-366.484 918,-337 919.643,-334.739 1061.9,-251.185 1110.75,-222.53"/>
<polygon fill="#9a32cd" stroke="#9a32cd" points="838.214,-458.697 830.479,-465.937 841.04,-465.101 838.214,-458.697"/>
<text text-anchor="middle" x="974" y="-340" font-family="Helvetica,sans-Serif" font-size="10.00"> metadata_</text>
</g>
<!-- Node17&#45;&gt;Node7 -->
<g id="edge22" class="edge"><title>Node17&#45;&gt;Node7</title>
<path fill="none" stroke="#9a32cd" stroke-dasharray="5,2" d="M872.849,-474.524C940,-469.63 1029.37,-463.116 1082.28,-459.259"/>
<polygon fill="#9a32cd" stroke="#9a32cd" points="872.41,-471.047 862.691,-475.264 872.919,-478.028 872.41,-471.047"/>
<text text-anchor="middle" x="974" y="-474" font-family="Helvetica,sans-Serif" font-size="10.00"> globalVars_</text>
</g>
<!-- Node18&#45;&gt;Node7 -->
<g id="edge24" class="edge"><title>Node18&#45;&gt;Node7</title>
<path fill="none" stroke="#9a32cd" stroke-dasharray="5,2" d="M870.388,-578.339C918.851,-567.069 979.528,-549.685 1030,-525 1063.97,-508.384 1098.94,-480.265 1116.12,-465.579"/>
<polygon fill="#9a32cd" stroke="#9a32cd" points="869.524,-574.946 860.553,-580.581 871.081,-581.771 869.524,-574.946"/>
<text text-anchor="middle" x="974" y="-568" font-family="Helvetica,sans-Serif" font-size="10.00"> subsystems_</text>
</g>
<!-- Node19&#45;&gt;Node7 -->
<g id="edge26" class="edge"><title>Node19&#45;&gt;Node7</title>
<path fill="none" stroke="#9a32cd" stroke-dasharray="5,2" d="M851.638,-391.94C901.643,-392.662 971.002,-396.843 1030,-412 1059.73,-419.638 1091.69,-435.871 1110.49,-446.341"/>
<polygon fill="#9a32cd" stroke="#9a32cd" points="851.624,-388.44 841.588,-391.838 851.552,-395.44 851.624,-388.44"/>
<text text-anchor="middle" x="974" y="-415" font-family="Helvetica,sans-Serif" font-size="10.00"> eventDataMaps_</text>
</g>
<!-- Node20&#45;&gt;Node7 -->
<g id="edge28" class="edge"><title>Node20&#45;&gt;Node7</title>
<path fill="none" stroke="#9a32cd" stroke-dasharray="5,2" d="M886.984,-516.944C931.24,-508.552 983.398,-497.814 1030,-486 1053.41,-480.066 1079.54,-471.891 1098.78,-465.574"/>
<polygon fill="#9a32cd" stroke="#9a32cd" points="886.265,-513.518 877.085,-518.807 887.56,-520.397 886.265,-513.518"/>
<text text-anchor="middle" x="974" y="-513" font-family="Helvetica,sans-Serif" font-size="10.00"> factories_</text>
</g>
<!-- Node21&#45;&gt;Node4 -->
<g id="edge30" class="edge"><title>Node21&#45;&gt;Node4</title>
<path fill="none" stroke="#9a32cd" stroke-dasharray="5,2" d="M1050.6,-156.03C922.278,-145.654 669.87,-131.334 592,-171 580.119,-177.052 584.53,-186.821 574,-195 567.469,-200.072 559.602,-204.168 551.952,-207.387"/>
<polygon fill="#9a32cd" stroke="#9a32cd" points="1050.49,-159.533 1060.74,-156.863 1051.06,-152.556 1050.49,-159.533"/>
<text text-anchor="middle" x="783" y="-155" font-family="Helvetica,sans-Serif" font-size="10.00"> eventHandlers_</text>
</g>
<!-- Node22 -->
<g id="node22" class="node"><title>Node22</title>
<g id="a_node22"><a xlink:href="class_urho3_d_1_1_timer.html" target="_top" xlink:title="Low&#45;resolution operating system timer. ">
<polygon fill="none" stroke="black" points="479.5,-95.5 479.5,-114.5 560.5,-114.5 560.5,-95.5 479.5,-95.5"/>
<text text-anchor="middle" x="520" y="-102.5" font-family="Helvetica,sans-Serif" font-size="10.00">Urho3D::Timer</text>
</a>
</g>
</g>
<!-- Node22&#45;&gt;Node3 -->
<g id="edge32" class="edge"><title>Node22&#45;&gt;Node3</title>
<path fill="none" stroke="#9a32cd" stroke-dasharray="5,2" d="M561.543,-91.812C565.823,-90.0238 570.05,-88.0807 574,-86 582.731,-81.4006 582.61,-76.0362 592,-73 652.208,-53.5316 727.076,-80.7965 762.141,-96.4014"/>
<polygon fill="#9a32cd" stroke="#9a32cd" points="560.215,-88.5729 552.175,-95.4729 562.763,-95.0927 560.215,-88.5729"/>
<text text-anchor="middle" x="620" y="-76" font-family="Helvetica,sans-Serif" font-size="10.00"> useTimer_</text>
</g>
<!-- Node23 -->
<g id="node23" class="node"><title>Node23</title>
<g id="a_node23"><a xlink:href="class_urho3_d_1_1_string.html" target="_top" xlink:title="String class. ">
<polygon fill="none" stroke="black" points="479,-28.5 479,-47.5 561,-47.5 561,-28.5 479,-28.5"/>
<text text-anchor="middle" x="520" y="-35.5" font-family="Helvetica,sans-Serif" font-size="10.00">Urho3D::String</text>
</a>
</g>
</g>
<!-- Node23&#45;&gt;Node3 -->
<g id="edge33" class="edge"><title>Node23&#45;&gt;Node3</title>
<path fill="none" stroke="#9a32cd" stroke-dasharray="5,2" d="M571.369,-40.3783C594.915,-42.2946 623.171,-45.7543 648,-52 690.567,-62.7077 737.555,-84.0102 763.028,-96.4187"/>
<polygon fill="#9a32cd" stroke="#9a32cd" points="571.484,-36.8773 561.252,-39.625 570.964,-43.858 571.484,-36.8773"/>
<text text-anchor="middle" x="620" y="-55" font-family="Helvetica,sans-Serif" font-size="10.00"> name_</text>
</g>
<!-- Node23&#45;&gt;Node23 -->
<g id="edge34" class="edge"><title>Node23&#45;&gt;Node23</title>
<path fill="none" stroke="#9a32cd" stroke-dasharray="5,2" d="M501.482,-57.4C502.719,-62.3146 508.892,-66 520,-66 537.773,-66 542.911,-56.5653 535.413,-47.7571"/>
<polygon fill="#9a32cd" stroke="#9a32cd" points="504.854,-58.3485 504.587,-47.7571 498.191,-56.2032 504.854,-58.3485"/>
<text text-anchor="middle" x="520" y="-69" font-family="Helvetica,sans-Serif" font-size="10.00"> EMPTY</text>
</g>
<!-- Node24&#45;&gt;Node2 -->
<g id="edge37" class="edge"><title>Node24&#45;&gt;Node2</title>
<path fill="none" stroke="#9a32cd" stroke-dasharray="5,2" d="M857.268,-296.499C872.781,-292.754 888.055,-286.43 900,-276 918.107,-260.191 898.784,-239.44 918,-225 938.157,-209.853 997.859,-207.6 1048.32,-208.714"/>
<polygon fill="#9a32cd" stroke="#9a32cd" points="856.157,-293.155 847.072,-298.606 857.573,-300.01 856.157,-293.155"/>
<text text-anchor="middle" x="974" y="-228" font-family="Helvetica,sans-Serif" font-size="10.00"> metadataKeys_</text>
</g>
<!-- Node25&#45;&gt;Node1 -->
<g id="edge39" class="edge"><title>Node25&#45;&gt;Node1</title>
<path fill="none" stroke="#9a32cd" stroke-dasharray="5,2" d="M437.25,-26.8473C446.711,-23.8917 456.589,-21.1118 466,-19 532.86,-3.99629 550.478,-0 619,-0 619,-0 619,-0 1129,-0 1184.63,-0 1244.72,-32.4997 1272,-49.2573"/>
<polygon fill="#9a32cd" stroke="#9a32cd" points="436.019,-23.5667 427.579,-29.9703 438.17,-30.228 436.019,-23.5667"/>
<text text-anchor="middle" x="783" y="-3" font-family="Helvetica,sans-Serif" font-size="10.00"> data_</text>
</g>
</g>
</svg>
        <g id="navigator" transform="translate(0 0)" fill="#404254">
                <rect fill="#f2f5e9" fill-opacity="0.5" stroke="#606060" stroke-width=".5" x="0" y="0" width="60" height="60"/>
                <use id="zoomplus" xlink:href="#zoomPlus" x="17" y="9" onmousedown="handleZoom(evt,'in')"/>
                <use id="zoomminus" xlink:href="#zoomMin" x="42" y="9" onmousedown="handleZoom(evt,'out')"/>
                <use id="reset" xlink:href="#resetDef" x="30" y="36" onmousedown="handleReset()"/>
                <g id="arrowUp" xlink:href="#dirArrow" transform="translate(30 24)" onmousedown="handlePan(0,-1)">
                  <use xlink:href="#rim" fill="#404040">
                        <set attributeName="fill" to="#808080" begin="arrowUp.mouseover" end="arrowUp.mouseout"/>
                  </use>
                  <path fill="none" stroke="white" stroke-width="1.5" d="M0,-3.0v7 M-2.5,-0.5L0,-3.0L2.5,-0.5"/>
                </g>
                <g id="arrowRight" xlink:href="#dirArrow" transform="rotate(90) translate(36 -43)" onmousedown="handlePan(1,0)">
                  <use xlink:href="#rim" fill="#404040">
                        <set attributeName="fill" to="#808080" begin="arrowRight.mouseover" end="arrowRight.mouseout"/>
                  </use>
                  <path fill="none" stroke="white" stroke-width="1.5" d="M0,-3.0v7 M-2.5,-0.5L0,-3.0L2.5,-0.5"/>
                </g>
                <g id="arrowDown" xlink:href="#dirArrow" transform="rotate(180) translate(-30 -48)" onmousedown="handlePan(0,1)">
                  <use xlink:href="#rim" fill="#404040">
                        <set attributeName="fill" to="#808080" begin="arrowDown.mouseover" end="arrowDown.mouseout"/>
                  </use>
                  <path fill="none" stroke="white" stroke-width="1.5" d="M0,-3.0v7 M-2.5,-0.5L0,-3.0L2.5,-0.5"/>
                </g>
                <g id="arrowLeft" xlink:href="#dirArrow" transform="rotate(270) translate(-36 17)" onmousedown="handlePan(-1,0)">
                  <use xlink:href="#rim" fill="#404040">
                        <set attributeName="fill" to="#808080" begin="arrowLeft.mouseover" end="arrowLeft.mouseout"/>
                  </use>
                  <path fill="none" stroke="white" stroke-width="1.5" d="M0,-3.0v7 M-2.5,-0.5L0,-3.0L2.5,-0.5"/>
                </g>
        </g>
        <svg viewBox="0 0 15 15" width="100%" height="30px" preserveAspectRatio="xMaxYMin meet">
         <g id="arrow_out" transform="scale(0.3 0.3)">
          <a xlink:href="class_urho3_d_1_1_sound__coll__graph_org.svg" target="_base">
           <rect id="button" ry="5" rx="5" y="6" x="6" height="38" width="38"
                fill="#f2f5e9" fill-opacity="0.5" stroke="#606060" stroke-width="1.0"/>
           <path id="arrow"
             d="M 11.500037,31.436501 C 11.940474,20.09759 22.043105,11.32322 32.158766,21.979434 L 37.068811,17.246167 C 37.068811,17.246167 37.088388,32 37.088388,32 L 22.160133,31.978069 C 22.160133,31.978069 26.997745,27.140456 26.997745,27.140456 C 18.528582,18.264221 13.291696,25.230495 11.500037,31.436501 z"
             style="fill:#404040;"/>
          </a>
         </g>
        </svg>
</svg>
