<?xml version="1.0" encoding="UTF-8" standalone="no"?>
<!DOCTYPE svg PUBLIC "-//W3C//DTD SVG 1.1//EN"
 "http://www.w3.org/Graphics/SVG/1.1/DTD/svg11.dtd">
<!-- Generated by graphviz version 2.36.0 (20140111.2315)
 -->
<!-- Title: Urho3D::MemoryBuffer Pages: 1 -->
<svg width="231pt" height="140pt"
 viewBox="0.00 0.00 231.00 140.00" xmlns="http://www.w3.org/2000/svg" xmlns:xlink="http://www.w3.org/1999/xlink">
<g id="graph0" class="graph" transform="scale(1 1) rotate(0) translate(4 136)">
<title>Urho3D::MemoryBuffer</title>
<!-- Node1 -->
<g id="node1" class="node"><title>Node1</title>
<polygon fill="#bfbfbf" stroke="black" points="55,-0.5 55,-19.5 173,-19.5 173,-0.5 55,-0.5"/>
<text text-anchor="middle" x="114" y="-7.5" font-family="Helvetica,sans-Serif" font-size="10.00">Urho3D::MemoryBuffer</text>
</g>
<!-- Node2 -->
<g id="node2" class="node"><title>Node2</title>
<g id="a_node2"><a xlink:href="class_urho3_d_1_1_abstract_file.html" target="_top" xlink:title="A common root class for objects that implement both Serializer and Deserializer. ">
<polygon fill="none" stroke="black" points="59.5,-56.5 59.5,-75.5 168.5,-75.5 168.5,-56.5 59.5,-56.5"/>
<text text-anchor="middle" x="114" y="-63.5" font-family="Helvetica,sans-Serif" font-size="10.00">Urho3D::AbstractFile</text>
</a>
</g>
</g>
<!-- Node2&#45;&gt;Node1 -->
<g id="edge1" class="edge"><title>Node2&#45;&gt;Node1</title>
<path fill="none" stroke="midnightblue" d="M114,-45.8045C114,-36.9102 114,-26.7798 114,-19.7511"/>
<polygon fill="midnightblue" stroke="midnightblue" points="110.5,-46.083 114,-56.083 117.5,-46.083 110.5,-46.083"/>
</g>
<!-- Node3 -->
<g id="node3" class="node"><title>Node3</title>
<g id="a_node3"><a xlink:href="class_urho3_d_1_1_deserializer.html" target="_top" xlink:title="Abstract stream for reading. ">
<polygon fill="none" stroke="black" points="0,-112.5 0,-131.5 108,-131.5 108,-112.5 0,-112.5"/>
<text text-anchor="middle" x="54" y="-119.5" font-family="Helvetica,sans-Serif" font-size="10.00">Urho3D::Deserializer</text>
</a>
</g>
</g>
<!-- Node3&#45;&gt;Node2 -->
<g id="edge2" class="edge"><title>Node3&#45;&gt;Node2</title>
<path fill="none" stroke="midnightblue" d="M71.1809,-105.537C81.8792,-95.9087 95.2563,-83.8694 104.185,-75.8339"/>
<polygon fill="midnightblue" stroke="midnightblue" points="68.7316,-103.033 63.64,-112.324 73.4144,-108.236 68.7316,-103.033"/>
</g>
<!-- Node4 -->
<g id="node4" class="node"><title>Node4</title>
<g id="a_node4"><a xlink:href="class_urho3_d_1_1_serializer.html" target="_top" xlink:title="Abstract stream for writing. ">
<polygon fill="none" stroke="black" points="126.5,-112.5 126.5,-131.5 223.5,-131.5 223.5,-112.5 126.5,-112.5"/>
<text text-anchor="middle" x="175" y="-119.5" font-family="Helvetica,sans-Serif" font-size="10.00">Urho3D::Serializer</text>
</a>
</g>
</g>
<!-- Node4&#45;&gt;Node2 -->
<g id="edge3" class="edge"><title>Node4&#45;&gt;Node2</title>
<path fill="none" stroke="midnightblue" d="M157.533,-105.537C146.656,-95.9087 133.056,-83.8694 123.979,-75.8339"/>
<polygon fill="midnightblue" stroke="midnightblue" points="155.392,-108.316 165.199,-112.324 160.032,-103.075 155.392,-108.316"/>
</g>
</g>
</svg>
