<?xml version="1.0" encoding="UTF-8" standalone="no"?>
<!DOCTYPE svg PUBLIC "-//W3C//DTD SVG 1.1//EN"
 "http://www.w3.org/Graphics/SVG/1.1/DTD/svg11.dtd">
<!-- Generated by graphviz version 2.36.0 (20140111.2315)
 -->
<!-- Title: Urho3D::LineEdit Pages: 1 -->
<!--zoomable 1040 -->
<svg id="main" version="1.1" xmlns="http://www.w3.org/2000/svg" xmlns:xlink="http://www.w3.org/1999/xlink" xml:space="preserve" onload="init(evt)">
<style type="text/css"><![CDATA[
.edge:hover path { stroke: red; }
.edge:hover polygon { stroke: red; fill: red; }
]]></style>
<script type="text/javascript"><![CDATA[
var edges = document.getElementsByTagName('g');
if (edges && edges.length) {
  for (var i=0;i<edges.length;i++) {
    if (edges[i].id.substr(0,4)=='edge') {
      edges[i].setAttribute('class','edge');
    }
  }
}
]]></script>
        <defs>
                <circle id="rim" cx="0" cy="0" r="7"/>
                <circle id="rim2" cx="0" cy="0" r="3.5"/>
                <g id="zoomPlus">
                        <use xlink:href="#rim" fill="#404040">
                                <set attributeName="fill" to="#808080" begin="zoomplus.mouseover" end="zoomplus.mouseout"/>
                        </use>
                        <path d="M-4,0h8M0,-4v8" fill="none" stroke="white" stroke-width="1.5" pointer-events="none"/>
                </g>
                <g id="zoomMin">
                        <use xlink:href="#rim" fill="#404040">
                                <set attributeName="fill" to="#808080" begin="zoomminus.mouseover" end="zoomminus.mouseout"/>
                        </use>
                        <path d="M-4,0h8" fill="none" stroke="white" stroke-width="1.5" pointer-events="none"/>
                </g>
                <g id="dirArrow">
                        <path fill="none" stroke="white" stroke-width="1.5" d="M0,-3.0v7 M-2.5,-0.5L0,-3.0L2.5,-0.5"/>
                </g>
               <g id="resetDef">
                       <use xlink:href="#rim2" fill="#404040">
                               <set attributeName="fill" to="#808080" begin="reset.mouseover" end="reset.mouseout"/>
                       </use>
               </g>
        </defs>

<script type="text/javascript">
var viewWidth = 1226;
var viewHeight = 1040;
var sectionId = 'dynsection-1';
</script>
<script xlink:href="svgpan.js"/>
<svg id="graph" class="graph">
<g id="viewport">
<title>Urho3D::LineEdit</title>
<!-- Node1 -->
<g id="node1" class="node"><title>Node1</title>
<polygon fill="#bfbfbf" stroke="black" points="1126,-787.669 1126,-806.669 1218,-806.669 1218,-787.669 1126,-787.669"/>
<text text-anchor="middle" x="1172" y="-794.669" font-family="Helvetica,sans-Serif" font-size="10.00">Urho3D::LineEdit</text>
</g>
<!-- Node2 -->
<g id="node2" class="node"><title>Node2</title>
<g id="a_node2"><a xlink:href="class_urho3_d_1_1_border_image.html" target="_top" xlink:title="Image UI element with optional border. ">
<polygon fill="none" stroke="black" points="738,-504.669 738,-523.669 850,-523.669 850,-504.669 738,-504.669"/>
<text text-anchor="middle" x="794" y="-511.669" font-family="Helvetica,sans-Serif" font-size="10.00">Urho3D::BorderImage</text>
</a>
</g>
</g>
<!-- Node2&#45;&gt;Node1 -->
<g id="edge1" class="edge"><title>Node2&#45;&gt;Node1</title>
<path fill="none" stroke="midnightblue" d="M821.863,-528.52C845.74,-541.411 881.488,-561.044 912,-579.169 976.241,-617.328 996.735,-621.171 1054,-669.169 1100.38,-708.041 1146.06,-764.78 1163.54,-787.365"/>
<polygon fill="midnightblue" stroke="midnightblue" points="823.487,-525.419 813.022,-523.762 820.169,-531.583 823.487,-525.419"/>
</g>
<!-- Node21 -->
<g id="node21" class="node"><title>Node21</title>
<g id="a_node21"><a xlink:href="class_urho3_d_1_1_shared_ptr.html" target="_top" xlink:title="Urho3D::SharedPtr\&lt;\l Urho3D::BorderImage \&gt;">
<polygon fill="none" stroke="black" points="930,-679.169 930,-709.169 1054,-709.169 1054,-679.169 930,-679.169"/>
<text text-anchor="start" x="938" y="-697.169" font-family="Helvetica,sans-Serif" font-size="10.00">Urho3D::SharedPtr&lt;</text>
<text text-anchor="middle" x="992" y="-686.169" font-family="Helvetica,sans-Serif" font-size="10.00"> Urho3D::BorderImage &gt;</text>
</a>
</g>
</g>
<!-- Node2&#45;&gt;Node21 -->
<g id="edge36" class="edge"><title>Node2&#45;&gt;Node21</title>
<path fill="none" stroke="#9a32cd" stroke-dasharray="5,2" d="M813.275,-530.951C851.27,-565.845 938.271,-645.744 974.595,-679.103"/>
<polygon fill="#9a32cd" stroke="#9a32cd" points="815.271,-528.032 805.538,-523.846 810.536,-533.188 815.271,-528.032"/>
<text text-anchor="middle" x="890" y="-624.169" font-family="Helvetica,sans-Serif" font-size="10.00"> ptr_</text>
</g>
<!-- Node3 -->
<g id="node3" class="node"><title>Node3</title>
<g id="a_node3"><a xlink:href="class_urho3_d_1_1_u_i_element.html" target="_top" xlink:title="Base class for UI elements. ">
<polygon fill="none" stroke="black" points="533.5,-406.669 533.5,-425.669 636.5,-425.669 636.5,-406.669 533.5,-406.669"/>
<text text-anchor="middle" x="585" y="-413.669" font-family="Helvetica,sans-Serif" font-size="10.00">Urho3D::UIElement</text>
</a>
</g>
</g>
<!-- Node3&#45;&gt;Node2 -->
<g id="edge2" class="edge"><title>Node3&#45;&gt;Node2</title>
<path fill="none" stroke="midnightblue" d="M615.515,-430.142C658.161,-450.332 735.918,-487.144 772.693,-504.555"/>
<polygon fill="midnightblue" stroke="midnightblue" points="616.761,-426.859 606.225,-425.744 613.766,-433.186 616.761,-426.859"/>
</g>
<!-- Node3&#45;&gt;Node3 -->
<g id="edge11" class="edge"><title>Node3&#45;&gt;Node3</title>
<path fill="none" stroke="#9a32cd" stroke-dasharray="5,2" d="M564.631,-435.569C565.991,-440.483 572.781,-444.169 585,-444.169 604.551,-444.169 610.202,-434.734 601.954,-425.926"/>
<polygon fill="#9a32cd" stroke="#9a32cd" points="568.007,-436.52 568.046,-425.926 561.408,-434.183 568.007,-436.52"/>
<text text-anchor="middle" x="585" y="-447.169" font-family="Helvetica,sans-Serif" font-size="10.00"> parent_</text>
</g>
<!-- Node19 -->
<g id="node19" class="node"><title>Node19</title>
<g id="a_node19"><a xlink:href="class_urho3_d_1_1_text.html" target="_top" xlink:title="Text UI element. ">
<polygon fill="none" stroke="red" points="756,-787.669 756,-806.669 832,-806.669 832,-787.669 756,-787.669"/>
<text text-anchor="middle" x="794" y="-794.669" font-family="Helvetica,sans-Serif" font-size="10.00">Urho3D::Text</text>
</a>
</g>
</g>
<!-- Node3&#45;&gt;Node19 -->
<g id="edge30" class="edge"><title>Node3&#45;&gt;Node19</title>
<path fill="none" stroke="midnightblue" d="M596.1,-434.758C633.052,-502.772 760.171,-736.743 787.71,-787.432"/>
<polygon fill="midnightblue" stroke="midnightblue" points="599.174,-433.085 591.325,-425.969 593.024,-436.427 599.174,-433.085"/>
</g>
<!-- Node4 -->
<g id="node4" class="node"><title>Node4</title>
<g id="a_node4"><a xlink:href="class_urho3_d_1_1_animatable.html" target="_top" xlink:title="Base class for animatable object, an animatable object can be set animation on it&#39;s attributes...">
<polygon fill="none" stroke="red" points="253.5,-262.669 253.5,-281.669 358.5,-281.669 358.5,-262.669 253.5,-262.669"/>
<text text-anchor="middle" x="306" y="-269.669" font-family="Helvetica,sans-Serif" font-size="10.00">Urho3D::Animatable</text>
</a>
</g>
</g>
<!-- Node4&#45;&gt;Node3 -->
<g id="edge3" class="edge"><title>Node4&#45;&gt;Node3</title>
<path fill="none" stroke="midnightblue" d="M368.8,-271.202C408.279,-273.199 459.159,-280.834 498,-304.169 540.24,-329.545 569.166,-384.117 579.646,-406.395"/>
<polygon fill="midnightblue" stroke="midnightblue" points="368.897,-267.703 358.765,-270.801 368.618,-274.697 368.897,-267.703"/>
</g>
<!-- Node5 -->
<g id="node5" class="node"><title>Node5</title>
<g id="a_node5"><a xlink:href="class_urho3_d_1_1_weak_ptr.html" target="_top" xlink:title="Urho3D::WeakPtr\&lt; Urho3D\l::XMLFile \&gt;">
<polygon fill="none" stroke="red" points="237.5,-213.169 237.5,-243.169 374.5,-243.169 374.5,-213.169 237.5,-213.169"/>
<text text-anchor="start" x="245.5" y="-231.169" font-family="Helvetica,sans-Serif" font-size="10.00">Urho3D::WeakPtr&lt; Urho3D</text>
<text text-anchor="middle" x="306" y="-220.169" font-family="Helvetica,sans-Serif" font-size="10.00">::XMLFile &gt;</text>
</a>
</g>
</g>
<!-- Node5&#45;&gt;Node3 -->
<g id="edge4" class="edge"><title>Node5&#45;&gt;Node3</title>
<path fill="none" stroke="#9a32cd" stroke-dasharray="5,2" d="M385.097,-227.03C422.246,-230.032 465.525,-239.041 498,-262.169 550.382,-299.472 574.695,-379.203 581.742,-406.652"/>
<polygon fill="#9a32cd" stroke="#9a32cd" points="385.009,-223.516 374.796,-226.336 384.538,-230.5 385.009,-223.516"/>
<text text-anchor="middle" x="456" y="-265.169" font-family="Helvetica,sans-Serif" font-size="10.00"> appliedStyleFile_</text>
</g>
<!-- Node6 -->
<g id="node6" class="node"><title>Node6</title>
<g id="a_node6"><a xlink:href="class_urho3_d_1_1_int_rect.html" target="_top" xlink:title="Two&#45;dimensional bounding rectangle with integer values. ">
<polygon fill="none" stroke="black" points="261.5,-87.6685 261.5,-106.669 350.5,-106.669 350.5,-87.6685 261.5,-87.6685"/>
<text text-anchor="middle" x="306" y="-94.6685" font-family="Helvetica,sans-Serif" font-size="10.00">Urho3D::IntRect</text>
</a>
</g>
</g>
<!-- Node6&#45;&gt;Node2 -->
<g id="edge22" class="edge"><title>Node6&#45;&gt;Node2</title>
<path fill="none" stroke="#9a32cd" stroke-dasharray="5,2" d="M360.79,-92.3541C401.135,-91.2388 456.345,-95.2076 498,-119.169 667.157,-216.471 769.001,-453.773 789.256,-504.518"/>
<polygon fill="#9a32cd" stroke="#9a32cd" points="360.466,-88.864 350.61,-92.7511 360.739,-95.8587 360.466,-88.864"/>
<text text-anchor="middle" x="585" y="-284.169" font-family="Helvetica,sans-Serif" font-size="10.00"> imageRect_</text>
<text text-anchor="middle" x="585" y="-273.169" font-family="Helvetica,sans-Serif" font-size="10.00">border_</text>
<text text-anchor="middle" x="585" y="-262.169" font-family="Helvetica,sans-Serif" font-size="10.00">imageBorder_</text>
</g>
<!-- Node6&#45;&gt;Node3 -->
<g id="edge5" class="edge"><title>Node6&#45;&gt;Node3</title>
<path fill="none" stroke="#9a32cd" stroke-dasharray="5,2" d="M360.543,-107.571C415.228,-118.402 492.851,-134.438 498,-139.169 580.132,-214.631 584.519,-366.879 584.21,-406.544"/>
<polygon fill="#9a32cd" stroke="#9a32cd" points="361.11,-104.115 350.622,-105.613 359.755,-110.983 361.11,-104.115"/>
<text text-anchor="middle" x="456" y="-153.169" font-family="Helvetica,sans-Serif" font-size="10.00"> clipBorder_</text>
<text text-anchor="middle" x="456" y="-142.169" font-family="Helvetica,sans-Serif" font-size="10.00">layoutBorder_</text>
</g>
<!-- Node6&#45;&gt;Node6 -->
<g id="edge6" class="edge"><title>Node6&#45;&gt;Node6</title>
<path fill="none" stroke="#9a32cd" stroke-dasharray="5,2" d="M280.33,-116.198C281.731,-121.297 290.287,-125.169 306,-125.169 330.527,-125.169 337.617,-115.734 327.27,-106.926"/>
<polygon fill="#9a32cd" stroke="#9a32cd" points="283.605,-117.461 284.73,-106.926 277.281,-114.46 283.605,-117.461"/>
<text text-anchor="middle" x="306" y="-128.169" font-family="Helvetica,sans-Serif" font-size="10.00"> ZERO</text>
</g>
<!-- Node7 -->
<g id="node7" class="node"><title>Node7</title>
<g id="a_node7"><a xlink:href="class_urho3_d_1_1_vector.html" target="_top" xlink:title="Urho3D::Vector\&lt; Urho3D\l::SharedPtr\&lt; Urho3D::UIElement \&gt; \&gt;">
<polygon fill="none" stroke="red" points="216.5,-495.169 216.5,-525.169 395.5,-525.169 395.5,-495.169 216.5,-495.169"/>
<text text-anchor="start" x="224.5" y="-513.169" font-family="Helvetica,sans-Serif" font-size="10.00">Urho3D::Vector&lt; Urho3D</text>
<text text-anchor="middle" x="306" y="-502.169" font-family="Helvetica,sans-Serif" font-size="10.00">::SharedPtr&lt; Urho3D::UIElement &gt; &gt;</text>
</a>
</g>
</g>
<!-- Node7&#45;&gt;Node3 -->
<g id="edge7" class="edge"><title>Node7&#45;&gt;Node3</title>
<path fill="none" stroke="#9a32cd" stroke-dasharray="5,2" d="M383.585,-491.336C387.874,-489.46 392.044,-487.409 396,-485.169 405.575,-479.745 404.407,-473.56 414,-468.169 447.743,-449.203 460.979,-456.469 498,-445.169 517.893,-439.097 540.136,-431.576 557.017,-425.715"/>
<polygon fill="#9a32cd" stroke="#9a32cd" points="382.019,-488.193 374.044,-495.168 384.628,-494.688 382.019,-488.193"/>
<text text-anchor="middle" x="456" y="-471.169" font-family="Helvetica,sans-Serif" font-size="10.00"> children_</text>
</g>
<!-- Node8 -->
<g id="node8" class="node"><title>Node8</title>
<g id="a_node8"><a xlink:href="class_urho3_d_1_1_vector2.html" target="_top" xlink:title="Two&#45;dimensional vector. ">
<polygon fill="none" stroke="black" points="261,-582.669 261,-601.669 351,-601.669 351,-582.669 261,-582.669"/>
<text text-anchor="middle" x="306" y="-589.669" font-family="Helvetica,sans-Serif" font-size="10.00">Urho3D::Vector2</text>
</a>
</g>
</g>
<!-- Node8&#45;&gt;Node3 -->
<g id="edge8" class="edge"><title>Node8&#45;&gt;Node3</title>
<path fill="none" stroke="#9a32cd" stroke-dasharray="5,2" d="M361.02,-588.675C373.473,-585.795 385.987,-581.007 396,-573.169 410.4,-561.896 399.927,-547.846 414,-536.169 443.788,-511.451 465.13,-533.609 498,-513.169 535.459,-489.874 565.971,-445.389 578.215,-425.817"/>
<polygon fill="#9a32cd" stroke="#9a32cd" points="360.247,-585.26 351.096,-590.598 361.579,-592.132 360.247,-585.26"/>
<text text-anchor="middle" x="456" y="-572.169" font-family="Helvetica,sans-Serif" font-size="10.00"> layoutFlexScale_</text>
<text text-anchor="middle" x="456" y="-561.169" font-family="Helvetica,sans-Serif" font-size="10.00">anchorMax_</text>
<text text-anchor="middle" x="456" y="-550.169" font-family="Helvetica,sans-Serif" font-size="10.00">pivot_</text>
<text text-anchor="middle" x="456" y="-539.169" font-family="Helvetica,sans-Serif" font-size="10.00">anchorMin_</text>
</g>
<!-- Node8&#45;&gt;Node8 -->
<g id="edge9" class="edge"><title>Node8&#45;&gt;Node8</title>
<path fill="none" stroke="#9a32cd" stroke-dasharray="5,2" d="M280.33,-611.198C281.731,-616.297 290.287,-620.169 306,-620.169 330.527,-620.169 337.617,-610.734 327.27,-601.926"/>
<polygon fill="#9a32cd" stroke="#9a32cd" points="283.605,-612.461 284.73,-601.926 277.281,-609.46 283.605,-612.461"/>
<text text-anchor="middle" x="306" y="-678.169" font-family="Helvetica,sans-Serif" font-size="10.00"> ONE</text>
<text text-anchor="middle" x="306" y="-667.169" font-family="Helvetica,sans-Serif" font-size="10.00">DOWN</text>
<text text-anchor="middle" x="306" y="-656.169" font-family="Helvetica,sans-Serif" font-size="10.00">RIGHT</text>
<text text-anchor="middle" x="306" y="-645.169" font-family="Helvetica,sans-Serif" font-size="10.00">LEFT</text>
<text text-anchor="middle" x="306" y="-634.169" font-family="Helvetica,sans-Serif" font-size="10.00">ZERO</text>
<text text-anchor="middle" x="306" y="-623.169" font-family="Helvetica,sans-Serif" font-size="10.00">UP</text>
</g>
<!-- Node22 -->
<g id="node22" class="node"><title>Node22</title>
<g id="a_node22"><a xlink:href="class_urho3_d_1_1_font.html" target="_top" xlink:title="Font resource. ">
<polygon fill="none" stroke="black" points="547,-914.669 547,-933.669 623,-933.669 623,-914.669 547,-914.669"/>
<text text-anchor="middle" x="585" y="-921.669" font-family="Helvetica,sans-Serif" font-size="10.00">Urho3D::Font</text>
</a>
</g>
</g>
<!-- Node8&#45;&gt;Node22 -->
<g id="edge43" class="edge"><title>Node8&#45;&gt;Node22</title>
<path fill="none" stroke="#9a32cd" stroke-dasharray="5,2" d="M361.548,-586.999C411.152,-583.627 479.369,-582.764 498,-601.169 545.987,-648.571 474.005,-851.384 516,-904.169 523.508,-913.606 535.233,-918.748 546.846,-921.502"/>
<polygon fill="#9a32cd" stroke="#9a32cd" points="360.988,-583.53 351.27,-587.75 361.499,-590.511 360.988,-583.53"/>
<text text-anchor="middle" x="456" y="-604.169" font-family="Helvetica,sans-Serif" font-size="10.00"> scaledOffset_</text>
</g>
<!-- Node9 -->
<g id="node9" class="node"><title>Node9</title>
<g id="a_node9"><a xlink:href="class_urho3_d_1_1_hash_map.html" target="_top" xlink:title="Urho3D::HashMap\&lt; StringHash,\l Variant \&gt;">
<polygon fill="none" stroke="red" points="226.5,-446.169 226.5,-476.169 385.5,-476.169 385.5,-446.169 226.5,-446.169"/>
<text text-anchor="start" x="234.5" y="-464.169" font-family="Helvetica,sans-Serif" font-size="10.00">Urho3D::HashMap&lt; StringHash,</text>
<text text-anchor="middle" x="306" y="-453.169" font-family="Helvetica,sans-Serif" font-size="10.00"> Variant &gt;</text>
</a>
</g>
</g>
<!-- Node9&#45;&gt;Node3 -->
<g id="edge10" class="edge"><title>Node9&#45;&gt;Node3</title>
<path fill="none" stroke="#9a32cd" stroke-dasharray="5,2" d="M370.065,-443.678C384.424,-440.137 399.671,-436.722 414,-434.169 453.737,-427.088 499.232,-422.45 533.152,-419.659"/>
<polygon fill="#9a32cd" stroke="#9a32cd" points="369.131,-440.304 360.289,-446.141 370.841,-447.092 369.131,-440.304"/>
<text text-anchor="middle" x="456" y="-437.169" font-family="Helvetica,sans-Serif" font-size="10.00"> vars_</text>
</g>
<!-- Node10 -->
<g id="node10" class="node"><title>Node10</title>
<g id="a_node10"><a xlink:href="class_urho3_d_1_1_string.html" target="_top" xlink:title="String class. ">
<polygon fill="none" stroke="black" points="19,-826.669 19,-845.669 101,-845.669 101,-826.669 19,-826.669"/>
<text text-anchor="middle" x="60" y="-833.669" font-family="Helvetica,sans-Serif" font-size="10.00">Urho3D::String</text>
</a>
</g>
</g>
<!-- Node10&#45;&gt;Node1 -->
<g id="edge37" class="edge"><title>Node10&#45;&gt;Node1</title>
<path fill="none" stroke="#9a32cd" stroke-dasharray="5,2" d="M72.6205,-854.466C95.556,-888.976 150.174,-963.58 216,-1001.17 251.206,-1021.27 264.458,-1021.17 305,-1021.17 305,-1021.17 305,-1021.17 993,-1021.17 1104.27,-1021.17 1157.1,-849.669 1168.57,-806.794"/>
<polygon fill="#9a32cd" stroke="#9a32cd" points="75.4025,-852.324 67.0087,-845.859 69.5389,-856.148 75.4025,-852.324"/>
<text text-anchor="middle" x="696" y="-1024.17" font-family="Helvetica,sans-Serif" font-size="10.00"> line_</text>
</g>
<!-- Node10&#45;&gt;Node3 -->
<g id="edge12" class="edge"><title>Node10&#45;&gt;Node3</title>
<path fill="none" stroke="#9a32cd" stroke-dasharray="5,2" d="M63.8553,-816.573C76.8133,-730.634 133.065,-388.608 216,-327.169 332.46,-240.892 521.314,-369.268 571.451,-406.532"/>
<polygon fill="#9a32cd" stroke="#9a32cd" points="60.3805,-816.146 62.3733,-826.552 67.3046,-817.174 60.3805,-816.146"/>
<text text-anchor="middle" x="306" y="-341.169" font-family="Helvetica,sans-Serif" font-size="10.00"> appliedStyle_</text>
<text text-anchor="middle" x="306" y="-330.169" font-family="Helvetica,sans-Serif" font-size="10.00">name_</text>
</g>
<!-- Node10&#45;&gt;Node10 -->
<g id="edge13" class="edge"><title>Node10&#45;&gt;Node10</title>
<path fill="none" stroke="#9a32cd" stroke-dasharray="5,2" d="M40.001,-855.569C41.3366,-860.483 48.0029,-864.169 60,-864.169 79.1953,-864.169 84.744,-854.734 76.6459,-845.926"/>
<polygon fill="#9a32cd" stroke="#9a32cd" points="43.3755,-856.52 43.3541,-845.926 36.7638,-854.221 43.3755,-856.52"/>
<text text-anchor="middle" x="60" y="-867.169" font-family="Helvetica,sans-Serif" font-size="10.00"> EMPTY</text>
</g>
<!-- Node11 -->
<g id="node11" class="node"><title>Node11</title>
<g id="a_node11"><a xlink:href="class_urho3_d_1_1_x_path_query.html" target="_top" xlink:title="XPath query. ">
<polygon fill="none" stroke="red" points="251,-544.669 251,-563.669 361,-563.669 361,-544.669 251,-544.669"/>
<text text-anchor="middle" x="306" y="-551.669" font-family="Helvetica,sans-Serif" font-size="10.00">Urho3D::XPathQuery</text>
</a>
</g>
</g>
<!-- Node10&#45;&gt;Node11 -->
<g id="edge15" class="edge"><title>Node10&#45;&gt;Node11</title>
<path fill="none" stroke="#9a32cd" stroke-dasharray="5,2" d="M66.4072,-816.907C81.2733,-767.708 127.646,-636.818 216,-573.169 226.127,-565.873 238.48,-561.271 250.719,-558.394"/>
<polygon fill="#9a32cd" stroke="#9a32cd" points="63.0191,-816.023 63.5703,-826.604 69.7375,-817.989 63.0191,-816.023"/>
<text text-anchor="middle" x="168" y="-661.169" font-family="Helvetica,sans-Serif" font-size="10.00"> queryString_</text>
</g>
<!-- Node10&#45;&gt;Node19 -->
<g id="edge32" class="edge"><title>Node10&#45;&gt;Node19</title>
<path fill="none" stroke="#9a32cd" stroke-dasharray="5,2" d="M111.271,-835.524C260.139,-833.557 690.222,-827.452 720,-822.169 737.543,-819.056 756.561,-812.43 770.787,-806.781"/>
<polygon fill="#9a32cd" stroke="#9a32cd" points="111.001,-832.027 101.048,-835.658 111.093,-839.026 111.001,-832.027"/>
<text text-anchor="middle" x="456" y="-845.169" font-family="Helvetica,sans-Serif" font-size="10.00"> stringId_</text>
<text text-anchor="middle" x="456" y="-834.169" font-family="Helvetica,sans-Serif" font-size="10.00">text_</text>
</g>
<!-- Node23 -->
<g id="node23" class="node"><title>Node23</title>
<g id="a_node23"><a xlink:href="class_urho3_d_1_1_resource.html" target="_top" xlink:title="Base class for resources. ">
<polygon fill="none" stroke="red" points="257,-864.669 257,-883.669 355,-883.669 355,-864.669 257,-864.669"/>
<text text-anchor="middle" x="306" y="-871.669" font-family="Helvetica,sans-Serif" font-size="10.00">Urho3D::Resource</text>
</a>
</g>
</g>
<!-- Node10&#45;&gt;Node23 -->
<g id="edge40" class="edge"><title>Node10&#45;&gt;Node23</title>
<path fill="none" stroke="#9a32cd" stroke-dasharray="5,2" d="M111.21,-845.575C120.124,-847.166 129.328,-848.758 138,-850.169 177.897,-856.66 223.308,-863.127 256.695,-867.71"/>
<polygon fill="#9a32cd" stroke="#9a32cd" points="111.776,-842.121 101.313,-843.789 110.533,-849.01 111.776,-842.121"/>
<text text-anchor="middle" x="168" y="-863.169" font-family="Helvetica,sans-Serif" font-size="10.00"> name_</text>
</g>
<!-- Node11&#45;&gt;Node3 -->
<g id="edge14" class="edge"><title>Node11&#45;&gt;Node3</title>
<path fill="none" stroke="#9a32cd" stroke-dasharray="5,2" d="M371.133,-546.626C380.028,-543.679 388.629,-539.653 396,-534.169 409.091,-524.427 401.137,-512.21 414,-502.169 444.511,-478.35 463.142,-495.996 498,-479.169 528.002,-464.685 558.331,-439.423 573.694,-425.7"/>
<polygon fill="#9a32cd" stroke="#9a32cd" points="370.056,-543.294 361.41,-549.418 371.988,-550.022 370.056,-543.294"/>
<text text-anchor="middle" x="456" y="-505.169" font-family="Helvetica,sans-Serif" font-size="10.00"> styleXPathQuery_</text>
</g>
<!-- Node12 -->
<g id="node12" class="node"><title>Node12</title>
<g id="a_node12"><a xlink:href="class_urho3_d_1_1_shared_ptr.html" target="_top" xlink:title="Urho3D::SharedPtr\&lt;\l Urho3D::XMLFile \&gt;">
<polygon fill="none" stroke="red" points="253,-397.169 253,-427.169 359,-427.169 359,-397.169 253,-397.169"/>
<text text-anchor="start" x="261" y="-415.169" font-family="Helvetica,sans-Serif" font-size="10.00">Urho3D::SharedPtr&lt;</text>
<text text-anchor="middle" x="306" y="-404.169" font-family="Helvetica,sans-Serif" font-size="10.00"> Urho3D::XMLFile &gt;</text>
</a>
</g>
</g>
<!-- Node12&#45;&gt;Node3 -->
<g id="edge16" class="edge"><title>Node12&#45;&gt;Node3</title>
<path fill="none" stroke="#9a32cd" stroke-dasharray="5,2" d="M369.575,-403.364C406.901,-399.326 455.208,-396.222 498,-400.169 512.215,-401.48 527.586,-403.985 541.348,-406.631"/>
<polygon fill="#9a32cd" stroke="#9a32cd" points="368.894,-399.919 359.352,-404.523 369.683,-406.874 368.894,-399.919"/>
<text text-anchor="middle" x="456" y="-403.169" font-family="Helvetica,sans-Serif" font-size="10.00"> defaultStyle_</text>
</g>
<!-- Node13 -->
<g id="node13" class="node"><title>Node13</title>
<g id="a_node13"><a xlink:href="class_urho3_d_1_1_int_vector2.html" target="_top" xlink:title="Two&#45;dimensional vector with integer values. ">
<polygon fill="none" stroke="black" points="255.5,-704.669 255.5,-723.669 356.5,-723.669 356.5,-704.669 255.5,-704.669"/>
<text text-anchor="middle" x="306" y="-711.669" font-family="Helvetica,sans-Serif" font-size="10.00">Urho3D::IntVector2</text>
</a>
</g>
</g>
<!-- Node13&#45;&gt;Node2 -->
<g id="edge27" class="edge"><title>Node13&#45;&gt;Node2</title>
<path fill="none" stroke="#9a32cd" stroke-dasharray="5,2" d="M331.752,-728.709C368.691,-748.45 440.1,-779.011 498,-758.169 636.204,-708.419 755.64,-562.723 785.715,-523.814"/>
<polygon fill="#9a32cd" stroke="#9a32cd" points="333.155,-725.486 322.708,-723.72 329.774,-731.616 333.155,-725.486"/>
<text text-anchor="middle" x="585" y="-753.169" font-family="Helvetica,sans-Serif" font-size="10.00"> hoverOffset_</text>
</g>
<!-- Node13&#45;&gt;Node3 -->
<g id="edge17" class="edge"><title>Node13&#45;&gt;Node3</title>
<path fill="none" stroke="#9a32cd" stroke-dasharray="5,2" d="M366.542,-710.522C377.349,-707.487 387.782,-702.673 396,-695.169 415.93,-676.967 394.596,-655.93 414,-637.169 441.827,-610.263 468.751,-639.521 498,-614.169 558.888,-561.393 578.162,-457.607 582.774,-425.717"/>
<polygon fill="#9a32cd" stroke="#9a32cd" points="365.515,-707.167 356.564,-712.835 367.096,-713.986 365.515,-707.167"/>
<text text-anchor="middle" x="456" y="-750.169" font-family="Helvetica,sans-Serif" font-size="10.00"> maxSize_</text>
<text text-anchor="middle" x="456" y="-739.169" font-family="Helvetica,sans-Serif" font-size="10.00">childOffset_</text>
<text text-anchor="middle" x="456" y="-728.169" font-family="Helvetica,sans-Serif" font-size="10.00">minOffset_</text>
<text text-anchor="middle" x="456" y="-717.169" font-family="Helvetica,sans-Serif" font-size="10.00">size_</text>
<text text-anchor="middle" x="456" y="-706.169" font-family="Helvetica,sans-Serif" font-size="10.00">position_</text>
<text text-anchor="middle" x="456" y="-695.169" font-family="Helvetica,sans-Serif" font-size="10.00">maxOffset_</text>
<text text-anchor="start" x="423.5" y="-684.169" font-family="Helvetica,sans-Serif" font-size="10.00">screenPosition</text>
<text text-anchor="middle" x="456" y="-673.169" font-family="Helvetica,sans-Serif" font-size="10.00">_</text>
<text text-anchor="start" x="423.5" y="-662.169" font-family="Helvetica,sans-Serif" font-size="10.00">layoutMinSize</text>
<text text-anchor="middle" x="456" y="-651.169" font-family="Helvetica,sans-Serif" font-size="10.00">_</text>
<text text-anchor="middle" x="456" y="-640.169" font-family="Helvetica,sans-Serif" font-size="10.00">minSize_</text>
</g>
<!-- Node13&#45;&gt;Node13 -->
<g id="edge18" class="edge"><title>Node13&#45;&gt;Node13</title>
<path fill="none" stroke="#9a32cd" stroke-dasharray="5,2" d="M280.33,-733.198C281.731,-738.297 290.287,-742.169 306,-742.169 330.527,-742.169 337.617,-732.734 327.27,-723.926"/>
<polygon fill="#9a32cd" stroke="#9a32cd" points="283.605,-734.461 284.73,-723.926 277.281,-731.46 283.605,-734.461"/>
<text text-anchor="middle" x="306" y="-800.169" font-family="Helvetica,sans-Serif" font-size="10.00"> ONE</text>
<text text-anchor="middle" x="306" y="-789.169" font-family="Helvetica,sans-Serif" font-size="10.00">DOWN</text>
<text text-anchor="middle" x="306" y="-778.169" font-family="Helvetica,sans-Serif" font-size="10.00">RIGHT</text>
<text text-anchor="middle" x="306" y="-767.169" font-family="Helvetica,sans-Serif" font-size="10.00">LEFT</text>
<text text-anchor="middle" x="306" y="-756.169" font-family="Helvetica,sans-Serif" font-size="10.00">ZERO</text>
<text text-anchor="middle" x="306" y="-745.169" font-family="Helvetica,sans-Serif" font-size="10.00">UP</text>
</g>
<!-- Node13&#45;&gt;Node19 -->
<g id="edge33" class="edge"><title>Node13&#45;&gt;Node19</title>
<path fill="none" stroke="#9a32cd" stroke-dasharray="5,2" d="M325.265,-730.397C345.39,-747.146 379.5,-772.313 414,-783.169 534.277,-821.013 686.687,-810.073 755.852,-802.157"/>
<polygon fill="#9a32cd" stroke="#9a32cd" points="327.415,-727.63 317.536,-723.801 322.87,-732.955 327.415,-727.63"/>
<text text-anchor="middle" x="585" y="-813.169" font-family="Helvetica,sans-Serif" font-size="10.00"> shadowOffset_</text>
</g>
<!-- Node13&#45;&gt;Node22 -->
<g id="edge44" class="edge"><title>Node13&#45;&gt;Node22</title>
<path fill="none" stroke="#9a32cd" stroke-dasharray="5,2" d="M315.565,-733.06C330.747,-764.335 365.42,-826.64 414,-859.169 445.976,-880.579 465.941,-858.882 498,-880.169 509.108,-887.544 505.046,-896.567 516,-904.169 525.099,-910.483 536.204,-914.829 546.781,-917.811"/>
<polygon fill="#9a32cd" stroke="#9a32cd" points="318.599,-731.287 311.172,-723.731 312.266,-734.269 318.599,-731.287"/>
<text text-anchor="middle" x="456" y="-883.169" font-family="Helvetica,sans-Serif" font-size="10.00"> absoluteOffset_</text>
</g>
<!-- Node14 -->
<g id="node14" class="node"><title>Node14</title>
<g id="a_node14"><a xlink:href="class_urho3_d_1_1_vector.html" target="_top" xlink:title="Urho3D::Vector\&lt; String \&gt;">
<polygon fill="none" stroke="red" points="242,-358.669 242,-377.669 370,-377.669 370,-358.669 242,-358.669"/>
<text text-anchor="middle" x="306" y="-365.669" font-family="Helvetica,sans-Serif" font-size="10.00">Urho3D::Vector&lt; String &gt;</text>
</a>
</g>
</g>
<!-- Node14&#45;&gt;Node3 -->
<g id="edge19" class="edge"><title>Node14&#45;&gt;Node3</title>
<path fill="none" stroke="#9a32cd" stroke-dasharray="5,2" d="M380.385,-369.644C416.205,-371.544 459.724,-375.613 498,-384.169 521.01,-389.311 546.158,-399.203 563.282,-406.634"/>
<polygon fill="#9a32cd" stroke="#9a32cd" points="380.173,-366.13 370.015,-369.142 379.835,-373.122 380.173,-366.13"/>
<text text-anchor="middle" x="456" y="-387.169" font-family="Helvetica,sans-Serif" font-size="10.00"> tags_</text>
</g>
<!-- Node15 -->
<g id="node15" class="node"><title>Node15</title>
<g id="a_node15"><a xlink:href="class_urho3_d_1_1_color.html" target="_top" xlink:title="RGBA color. ">
<polygon fill="none" stroke="black" points="20,-47.6685 20,-66.6685 100,-66.6685 100,-47.6685 20,-47.6685"/>
<text text-anchor="middle" x="60" y="-54.6685" font-family="Helvetica,sans-Serif" font-size="10.00">Urho3D::Color</text>
</a>
</g>
</g>
<!-- Node15&#45;&gt;Node3 -->
<g id="edge20" class="edge"><title>Node15&#45;&gt;Node3</title>
<path fill="none" stroke="#9a32cd" stroke-dasharray="5,2" d="M82.9162,-72.6292C111.98,-92.4051 165.505,-126.342 216,-145.169 338.3,-190.767 405.55,-135.029 498,-227.169 552.387,-281.373 575.806,-376.218 582.139,-406.551"/>
<polygon fill="#9a32cd" stroke="#9a32cd" points="84.5945,-69.5352 74.3741,-66.7431 80.6226,-75.2992 84.5945,-69.5352"/>
<text text-anchor="middle" x="306" y="-186.169" font-family="Helvetica,sans-Serif" font-size="10.00"> derivedColor_</text>
<text text-anchor="middle" x="306" y="-175.169" font-family="Helvetica,sans-Serif" font-size="10.00">color_</text>
</g>
<!-- Node15&#45;&gt;Node15 -->
<g id="edge21" class="edge"><title>Node15&#45;&gt;Node15</title>
<path fill="none" stroke="#9a32cd" stroke-dasharray="5,2" d="M40.001,-76.5686C41.3366,-81.4831 48.0029,-85.1685 60,-85.1685 79.1953,-85.1685 84.744,-75.7338 76.6459,-66.9256"/>
<polygon fill="#9a32cd" stroke="#9a32cd" points="43.3755,-77.5204 43.3541,-66.9256 36.7638,-75.2213 43.3755,-77.5204"/>
<text text-anchor="middle" x="60" y="-198.169" font-family="Helvetica,sans-Serif" font-size="10.00"> CYAN</text>
<text text-anchor="middle" x="60" y="-187.169" font-family="Helvetica,sans-Serif" font-size="10.00">GRAY</text>
<text text-anchor="middle" x="60" y="-176.169" font-family="Helvetica,sans-Serif" font-size="10.00">YELLOW</text>
<text text-anchor="middle" x="60" y="-165.169" font-family="Helvetica,sans-Serif" font-size="10.00">MAGENTA</text>
<text text-anchor="middle" x="60" y="-154.169" font-family="Helvetica,sans-Serif" font-size="10.00">WHITE</text>
<text text-anchor="middle" x="60" y="-143.169" font-family="Helvetica,sans-Serif" font-size="10.00">TRANSPARENT</text>
<text text-anchor="middle" x="60" y="-132.169" font-family="Helvetica,sans-Serif" font-size="10.00">BLUE</text>
<text text-anchor="middle" x="60" y="-121.169" font-family="Helvetica,sans-Serif" font-size="10.00">BLACK</text>
<text text-anchor="middle" x="60" y="-110.169" font-family="Helvetica,sans-Serif" font-size="10.00">RED</text>
<text text-anchor="middle" x="60" y="-99.1685" font-family="Helvetica,sans-Serif" font-size="10.00">GREEN</text>
<text text-anchor="middle" x="60" y="-88.1685" font-family="Helvetica,sans-Serif" font-size="10.00">...</text>
</g>
<!-- Node17 -->
<g id="node17" class="node"><title>Node17</title>
<g id="a_node17"><a xlink:href="class_urho3_d_1_1_texture.html" target="_top" xlink:title="Base class for texture resources. ">
<polygon fill="none" stroke="red" points="261.5,-9.66852 261.5,-28.6685 350.5,-28.6685 350.5,-9.66852 261.5,-9.66852"/>
<text text-anchor="middle" x="306" y="-16.6685" font-family="Helvetica,sans-Serif" font-size="10.00">Urho3D::Texture</text>
</a>
</g>
</g>
<!-- Node15&#45;&gt;Node17 -->
<g id="edge26" class="edge"><title>Node15&#45;&gt;Node17</title>
<path fill="none" stroke="#9a32cd" stroke-dasharray="5,2" d="M95.1924,-44.1488C108.386,-39.6354 123.718,-35.0014 138,-32.1685 179.361,-23.9643 227.444,-20.8833 261.365,-19.754"/>
<polygon fill="#9a32cd" stroke="#9a32cd" points="93.8371,-40.9155 85.5728,-47.545 96.1676,-47.5162 93.8371,-40.9155"/>
<text text-anchor="middle" x="168" y="-35.1685" font-family="Helvetica,sans-Serif" font-size="10.00"> borderColor_</text>
</g>
<!-- Node15&#45;&gt;Node19 -->
<g id="edge34" class="edge"><title>Node15&#45;&gt;Node19</title>
<path fill="none" stroke="#9a32cd" stroke-dasharray="5,2" d="M110.427,-55.2099C239.403,-51.2552 581.21,-48.5605 654,-127.169 779.196,-262.372 700.542,-352.75 738,-533.169 758.652,-632.641 783.811,-753.166 790.997,-787.58"/>
<polygon fill="#9a32cd" stroke="#9a32cd" points="109.946,-51.7235 100.065,-55.5446 110.173,-58.7198 109.946,-51.7235"/>
<text text-anchor="middle" x="456" y="-96.1685" font-family="Helvetica,sans-Serif" font-size="10.00"> selectionColor_</text>
<text text-anchor="middle" x="456" y="-85.1685" font-family="Helvetica,sans-Serif" font-size="10.00">effectColor_</text>
<text text-anchor="middle" x="456" y="-74.1685" font-family="Helvetica,sans-Serif" font-size="10.00">hoverColor_</text>
</g>
<!-- Node16 -->
<g id="node16" class="node"><title>Node16</title>
<g id="a_node16"><a xlink:href="class_urho3_d_1_1_shared_ptr.html" target="_top" xlink:title="Urho3D::SharedPtr\&lt;\l Urho3D::Texture \&gt;">
<polygon fill="none" stroke="black" points="532,-0.168523 532,-30.1685 638,-30.1685 638,-0.168523 532,-0.168523"/>
<text text-anchor="start" x="540" y="-18.1685" font-family="Helvetica,sans-Serif" font-size="10.00">Urho3D::SharedPtr&lt;</text>
<text text-anchor="middle" x="585" y="-7.16852" font-family="Helvetica,sans-Serif" font-size="10.00"> Urho3D::Texture &gt;</text>
</a>
</g>
</g>
<!-- Node16&#45;&gt;Node2 -->
<g id="edge23" class="edge"><title>Node16&#45;&gt;Node2</title>
<path fill="none" stroke="#9a32cd" stroke-dasharray="5,2" d="M647.723,-30.7985C674.074,-40.6376 702.688,-56.1696 720,-80.1685 771.628,-151.739 789.522,-447.52 792.525,-504.608"/>
<polygon fill="#9a32cd" stroke="#9a32cd" points="648.737,-27.4451 638.143,-27.4261 646.413,-34.0479 648.737,-27.4451"/>
<text text-anchor="middle" x="696" y="-83.1685" font-family="Helvetica,sans-Serif" font-size="10.00"> texture_</text>
</g>
<!-- Node16&#45;&gt;Node17 -->
<g id="edge25" class="edge"><title>Node16&#45;&gt;Node17</title>
<path fill="none" stroke="#9a32cd" stroke-dasharray="5,2" d="M521.806,-4.64063C513.816,-3.61992 505.729,-2.74938 498,-2.16852 460.772,0.629354 451.218,0.769585 414,-2.16852 392.999,-3.82644 369.893,-7.28759 350.544,-10.6568"/>
<polygon fill="#9a32cd" stroke="#9a32cd" points="521.462,-8.1259 531.842,-6.00333 522.404,-1.18956 521.462,-8.1259"/>
<text text-anchor="middle" x="456" y="-5.16852" font-family="Helvetica,sans-Serif" font-size="10.00"> backupTexture_</text>
</g>
<!-- Node17&#45;&gt;Node16 -->
<g id="edge24" class="edge"><title>Node17&#45;&gt;Node16</title>
<path fill="none" stroke="#9a32cd" stroke-dasharray="5,2" d="M360.748,-18.3924C410.106,-17.6796 482.796,-16.63 531.694,-15.9238"/>
<polygon fill="#9a32cd" stroke="#9a32cd" points="360.534,-14.895 350.586,-18.5391 360.635,-21.8943 360.534,-14.895"/>
<text text-anchor="middle" x="456" y="-21.1685" font-family="Helvetica,sans-Serif" font-size="10.00"> ptr_</text>
</g>
<!-- Node18 -->
<g id="node18" class="node"><title>Node18</title>
<g id="a_node18"><a xlink:href="class_urho3_d_1_1_shared_ptr.html" target="_top" xlink:title="Urho3D::SharedPtr\&lt;\l Urho3D::Text \&gt;">
<polygon fill="none" stroke="black" points="939,-782.169 939,-812.169 1045,-812.169 1045,-782.169 939,-782.169"/>
<text text-anchor="start" x="947" y="-800.169" font-family="Helvetica,sans-Serif" font-size="10.00">Urho3D::SharedPtr&lt;</text>
<text text-anchor="middle" x="992" y="-789.169" font-family="Helvetica,sans-Serif" font-size="10.00"> Urho3D::Text &gt;</text>
</a>
</g>
</g>
<!-- Node18&#45;&gt;Node1 -->
<g id="edge28" class="edge"><title>Node18&#45;&gt;Node1</title>
<path fill="none" stroke="#9a32cd" stroke-dasharray="5,2" d="M1055.54,-797.169C1078.72,-797.169 1104.53,-797.169 1125.86,-797.169"/>
<polygon fill="#9a32cd" stroke="#9a32cd" points="1055.44,-793.669 1045.44,-797.169 1055.44,-800.669 1055.44,-793.669"/>
<text text-anchor="middle" x="1090" y="-800.169" font-family="Helvetica,sans-Serif" font-size="10.00"> text_</text>
</g>
<!-- Node19&#45;&gt;Node18 -->
<g id="edge29" class="edge"><title>Node19&#45;&gt;Node18</title>
<path fill="none" stroke="#9a32cd" stroke-dasharray="5,2" d="M842.627,-797.169C871.656,-797.169 908.783,-797.169 938.636,-797.169"/>
<polygon fill="#9a32cd" stroke="#9a32cd" points="842.327,-793.669 832.327,-797.169 842.327,-800.669 842.327,-793.669"/>
<text text-anchor="middle" x="890" y="-800.169" font-family="Helvetica,sans-Serif" font-size="10.00"> ptr_</text>
</g>
<!-- Node20 -->
<g id="node20" class="node"><title>Node20</title>
<g id="a_node20"><a xlink:href="class_urho3_d_1_1_weak_ptr.html" target="_top" xlink:title="Urho3D::WeakPtr\&lt; Urho3D\l::FontFace \&gt;">
<polygon fill="none" stroke="red" points="516.5,-865.169 516.5,-895.169 653.5,-895.169 653.5,-865.169 516.5,-865.169"/>
<text text-anchor="start" x="524.5" y="-883.169" font-family="Helvetica,sans-Serif" font-size="10.00">Urho3D::WeakPtr&lt; Urho3D</text>
<text text-anchor="middle" x="585" y="-872.169" font-family="Helvetica,sans-Serif" font-size="10.00">::FontFace &gt;</text>
</a>
</g>
</g>
<!-- Node20&#45;&gt;Node19 -->
<g id="edge31" class="edge"><title>Node20&#45;&gt;Node19</title>
<path fill="none" stroke="#9a32cd" stroke-dasharray="5,2" d="M663.344,-868.471C682.364,-864.084 702.33,-858.147 720,-850.169 744.551,-839.083 769.065,-818.969 782.509,-806.962"/>
<polygon fill="#9a32cd" stroke="#9a32cd" points="662.52,-865.068 653.501,-870.626 664.018,-871.906 662.52,-865.068"/>
<text text-anchor="middle" x="696" y="-869.169" font-family="Helvetica,sans-Serif" font-size="10.00"> fontFace_</text>
</g>
<!-- Node21&#45;&gt;Node1 -->
<g id="edge35" class="edge"><title>Node21&#45;&gt;Node1</title>
<path fill="none" stroke="#9a32cd" stroke-dasharray="5,2" d="M1028,-714.419C1066.12,-736.477 1125.49,-770.834 1154.25,-787.479"/>
<polygon fill="#9a32cd" stroke="#9a32cd" points="1029.67,-711.346 1019.26,-709.367 1026.17,-717.404 1029.67,-711.346"/>
<text text-anchor="middle" x="1090" y="-761.169" font-family="Helvetica,sans-Serif" font-size="10.00"> cursor_</text>
</g>
<!-- Node22&#45;&gt;Node1 -->
<g id="edge38" class="edge"><title>Node22&#45;&gt;Node1</title>
<path fill="none" stroke="#9a32cd" stroke-dasharray="5,2" d="M633.153,-914.421C724.786,-895.395 933.253,-851.713 1108,-812.169 1115.57,-810.456 1123.63,-808.577 1131.38,-806.746"/>
<polygon fill="#9a32cd" stroke="#9a32cd" points="632.168,-911.05 623.088,-916.509 633.59,-917.904 632.168,-911.05"/>
<text text-anchor="middle" x="890" y="-867.169" font-family="Helvetica,sans-Serif" font-size="10.00"> lastFont_</text>
</g>
<!-- Node23&#45;&gt;Node22 -->
<g id="edge39" class="edge"><title>Node23&#45;&gt;Node22</title>
<path fill="none" stroke="midnightblue" d="M365.167,-884.668C419.953,-894.557 500.369,-909.073 546.93,-917.477"/>
<polygon fill="midnightblue" stroke="midnightblue" points="365.712,-881.21 355.25,-882.878 364.469,-888.099 365.712,-881.21"/>
</g>
<!-- Node24 -->
<g id="node24" class="node"><title>Node24</title>
<g id="a_node24"><a xlink:href="class_urho3_d_1_1_hash_map.html" target="_top" xlink:title="Urho3D::HashMap\&lt; int,\l Urho3D::SharedPtr\&lt; Urho3D\l::FontFace \&gt; \&gt;">
<polygon fill="none" stroke="red" points="233,-902.669 233,-943.669 379,-943.669 379,-902.669 233,-902.669"/>
<text text-anchor="start" x="241" y="-931.669" font-family="Helvetica,sans-Serif" font-size="10.00">Urho3D::HashMap&lt; int,</text>
<text text-anchor="start" x="241" y="-920.669" font-family="Helvetica,sans-Serif" font-size="10.00"> Urho3D::SharedPtr&lt; Urho3D</text>
<text text-anchor="middle" x="306" y="-909.669" font-family="Helvetica,sans-Serif" font-size="10.00">::FontFace &gt; &gt;</text>
</a>
</g>
</g>
<!-- Node24&#45;&gt;Node22 -->
<g id="edge41" class="edge"><title>Node24&#45;&gt;Node22</title>
<path fill="none" stroke="#9a32cd" stroke-dasharray="5,2" d="M389.318,-923.466C441.541,-923.654 506.596,-923.889 546.709,-924.034"/>
<polygon fill="#9a32cd" stroke="#9a32cd" points="389.068,-919.965 379.055,-923.429 389.043,-926.965 389.068,-919.965"/>
<text text-anchor="middle" x="456" y="-927.169" font-family="Helvetica,sans-Serif" font-size="10.00"> faces_</text>
</g>
<!-- Node25 -->
<g id="node25" class="node"><title>Node25</title>
<g id="a_node25"><a xlink:href="class_urho3_d_1_1_shared_array_ptr.html" target="_top" xlink:title="Urho3D::SharedArrayPtr\l\&lt; unsigned char \&gt;">
<polygon fill="none" stroke="red" points="244.5,-962.169 244.5,-992.169 367.5,-992.169 367.5,-962.169 244.5,-962.169"/>
<text text-anchor="start" x="252.5" y="-980.169" font-family="Helvetica,sans-Serif" font-size="10.00">Urho3D::SharedArrayPtr</text>
<text text-anchor="middle" x="306" y="-969.169" font-family="Helvetica,sans-Serif" font-size="10.00">&lt; unsigned char &gt;</text>
</a>
</g>
</g>
<!-- Node25&#45;&gt;Node22 -->
<g id="edge42" class="edge"><title>Node25&#45;&gt;Node22</title>
<path fill="none" stroke="#9a32cd" stroke-dasharray="5,2" d="M377.625,-963.655C431.498,-953.348 503.571,-939.557 546.736,-931.298"/>
<polygon fill="#9a32cd" stroke="#9a32cd" points="376.953,-960.22 367.789,-965.537 378.268,-967.096 376.953,-960.22"/>
<text text-anchor="middle" x="456" y="-959.169" font-family="Helvetica,sans-Serif" font-size="10.00"> fontData_</text>
</g>
</g>
</svg>
        <g id="navigator" transform="translate(0 0)" fill="#404254">
                <rect fill="#f2f5e9" fill-opacity="0.5" stroke="#606060" stroke-width=".5" x="0" y="0" width="60" height="60"/>
                <use id="zoomplus" xlink:href="#zoomPlus" x="17" y="9" onmousedown="handleZoom(evt,'in')"/>
                <use id="zoomminus" xlink:href="#zoomMin" x="42" y="9" onmousedown="handleZoom(evt,'out')"/>
                <use id="reset" xlink:href="#resetDef" x="30" y="36" onmousedown="handleReset()"/>
                <g id="arrowUp" xlink:href="#dirArrow" transform="translate(30 24)" onmousedown="handlePan(0,-1)">
                  <use xlink:href="#rim" fill="#404040">
                        <set attributeName="fill" to="#808080" begin="arrowUp.mouseover" end="arrowUp.mouseout"/>
                  </use>
                  <path fill="none" stroke="white" stroke-width="1.5" d="M0,-3.0v7 M-2.5,-0.5L0,-3.0L2.5,-0.5"/>
                </g>
                <g id="arrowRight" xlink:href="#dirArrow" transform="rotate(90) translate(36 -43)" onmousedown="handlePan(1,0)">
                  <use xlink:href="#rim" fill="#404040">
                        <set attributeName="fill" to="#808080" begin="arrowRight.mouseover" end="arrowRight.mouseout"/>
                  </use>
                  <path fill="none" stroke="white" stroke-width="1.5" d="M0,-3.0v7 M-2.5,-0.5L0,-3.0L2.5,-0.5"/>
                </g>
                <g id="arrowDown" xlink:href="#dirArrow" transform="rotate(180) translate(-30 -48)" onmousedown="handlePan(0,1)">
                  <use xlink:href="#rim" fill="#404040">
                        <set attributeName="fill" to="#808080" begin="arrowDown.mouseover" end="arrowDown.mouseout"/>
                  </use>
                  <path fill="none" stroke="white" stroke-width="1.5" d="M0,-3.0v7 M-2.5,-0.5L0,-3.0L2.5,-0.5"/>
                </g>
                <g id="arrowLeft" xlink:href="#dirArrow" transform="rotate(270) translate(-36 17)" onmousedown="handlePan(-1,0)">
                  <use xlink:href="#rim" fill="#404040">
                        <set attributeName="fill" to="#808080" begin="arrowLeft.mouseover" end="arrowLeft.mouseout"/>
                  </use>
                  <path fill="none" stroke="white" stroke-width="1.5" d="M0,-3.0v7 M-2.5,-0.5L0,-3.0L2.5,-0.5"/>
                </g>
        </g>
        <svg viewBox="0 0 15 15" width="100%" height="30px" preserveAspectRatio="xMaxYMin meet">
         <g id="arrow_out" transform="scale(0.3 0.3)">
          <a xlink:href="class_urho3_d_1_1_line_edit__coll__graph_org.svg" target="_base">
           <rect id="button" ry="5" rx="5" y="6" x="6" height="38" width="38"
                fill="#f2f5e9" fill-opacity="0.5" stroke="#606060" stroke-width="1.0"/>
           <path id="arrow"
             d="M 11.500037,31.436501 C 11.940474,20.09759 22.043105,11.32322 32.158766,21.979434 L 37.068811,17.246167 C 37.068811,17.246167 37.088388,32 37.088388,32 L 22.160133,31.978069 C 22.160133,31.978069 26.997745,27.140456 26.997745,27.140456 C 18.528582,18.264221 13.291696,25.230495 11.500037,31.436501 z"
             style="fill:#404040;"/>
          </a>
         </g>
        </svg>
</svg>
