<?xml version="1.0" encoding="UTF-8" standalone="no"?>
<!DOCTYPE svg PUBLIC "-//W3C//DTD SVG 1.1//EN"
 "http://www.w3.org/Graphics/SVG/1.1/DTD/svg11.dtd">
<!-- Generated by graphviz version 2.36.0 (20140111.2315)
 -->
<!-- Title: Urho3D::Engine Pages: 1 -->
<svg width="1148pt" height="940pt"
 viewBox="0.00 0.00 1148.00 940.00" xmlns="http://www.w3.org/2000/svg" xmlns:xlink="http://www.w3.org/1999/xlink">
<g id="graph0" class="graph" transform="scale(1 1) rotate(0) translate(4 936)">
<title>Urho3D::Engine</title>
<!-- Node1 -->
<g id="node1" class="node"><title>Node1</title>
<polygon fill="#bfbfbf" stroke="black" points="1030,-659.5 1030,-678.5 1116,-678.5 1116,-659.5 1030,-659.5"/>
<text text-anchor="middle" x="1073" y="-666.5" font-family="Helvetica,sans-Serif" font-size="10.00">Urho3D::Engine</text>
</g>
<!-- Node2 -->
<g id="node2" class="node"><title>Node2</title>
<g id="a_node2"><a xlink:href="class_urho3_d_1_1_object.html" target="_top" xlink:title="Base class for objects with type identification, subsystem access and event sending/receiving capabil...">
<polygon fill="none" stroke="black" points="427.5,-703.5 427.5,-722.5 512.5,-722.5 512.5,-703.5 427.5,-703.5"/>
<text text-anchor="middle" x="470" y="-710.5" font-family="Helvetica,sans-Serif" font-size="10.00">Urho3D::Object</text>
</a>
</g>
</g>
<!-- Node2&#45;&gt;Node1 -->
<g id="edge1" class="edge"><title>Node2&#45;&gt;Node1</title>
<path fill="none" stroke="midnightblue" d="M522.744,-712.384C616.059,-710.765 818.588,-704.929 988,-684 1001.67,-682.311 1016.5,-679.869 1029.83,-677.445"/>
<polygon fill="midnightblue" stroke="midnightblue" points="522.659,-708.885 512.718,-712.549 522.774,-715.884 522.659,-708.885"/>
</g>
<!-- Node14 -->
<g id="node14" class="node"><title>Node14</title>
<g id="a_node14"><a xlink:href="class_urho3_d_1_1_event_handler.html" target="_top" xlink:title="Internal helper class for invoking event handler functions. ">
<polygon fill="none" stroke="black" points="683,-816.5 683,-835.5 799,-835.5 799,-816.5 683,-816.5"/>
<text text-anchor="middle" x="741" y="-823.5" font-family="Helvetica,sans-Serif" font-size="10.00">Urho3D::EventHandler</text>
</a>
</g>
</g>
<!-- Node2&#45;&gt;Node14 -->
<g id="edge21" class="edge"><title>Node2&#45;&gt;Node14</title>
<path fill="none" stroke="#9a32cd" stroke-dasharray="5,2" d="M489.424,-729.08C504.739,-741.733 527.577,-759.007 550,-770 595.699,-792.404 652.062,-807.62 691.485,-816.472"/>
<polygon fill="#9a32cd" stroke="#9a32cd" points="491.64,-726.37 481.74,-722.595 487.125,-731.72 491.64,-726.37"/>
<text text-anchor="middle" x="578" y="-806" font-family="Helvetica,sans-Serif" font-size="10.00"> sender_</text>
<text text-anchor="middle" x="578" y="-795" font-family="Helvetica,sans-Serif" font-size="10.00">receiver_</text>
</g>
<!-- Node3 -->
<g id="node3" class="node"><title>Node3</title>
<g id="a_node3"><a xlink:href="class_urho3_d_1_1_ref_counted.html" target="_top" xlink:title="Base class for intrusively reference&#45;counted objects. These are noncopyable and non&#45;assignable. ">
<polygon fill="none" stroke="black" points="208.5,-505.5 208.5,-524.5 317.5,-524.5 317.5,-505.5 208.5,-505.5"/>
<text text-anchor="middle" x="263" y="-512.5" font-family="Helvetica,sans-Serif" font-size="10.00">Urho3D::RefCounted</text>
</a>
</g>
</g>
<!-- Node3&#45;&gt;Node2 -->
<g id="edge2" class="edge"><title>Node3&#45;&gt;Node2</title>
<path fill="none" stroke="midnightblue" d="M281.271,-531.681C322.52,-571.522 425.784,-671.26 458.729,-703.079"/>
<polygon fill="midnightblue" stroke="midnightblue" points="283.512,-528.98 273.888,-524.55 278.649,-534.015 283.512,-528.98"/>
</g>
<!-- Node5 -->
<g id="node5" class="node"><title>Node5</title>
<g id="a_node5"><a xlink:href="class_urho3_d_1_1_context.html" target="_top" xlink:title="Urho3D execution context. Provides access to subsystems, object factories and attributes, and event receivers. ">
<polygon fill="none" stroke="black" points="1027.5,-352.5 1027.5,-371.5 1118.5,-371.5 1118.5,-352.5 1027.5,-352.5"/>
<text text-anchor="middle" x="1073" y="-359.5" font-family="Helvetica,sans-Serif" font-size="10.00">Urho3D::Context</text>
</a>
</g>
</g>
<!-- Node3&#45;&gt;Node5 -->
<g id="edge5" class="edge"><title>Node3&#45;&gt;Node5</title>
<path fill="none" stroke="midnightblue" d="M327.749,-505.246C459.238,-485.073 756.709,-439.136 858,-421 916,-410.615 931.469,-411.615 988,-395 1009.8,-388.594 1033.85,-378.857 1050.61,-371.619"/>
<polygon fill="midnightblue" stroke="midnightblue" points="327.17,-501.794 317.816,-506.77 328.231,-508.713 327.17,-501.794"/>
</g>
<!-- Node4 -->
<g id="node4" class="node"><title>Node4</title>
<g id="a_node4"><a xlink:href="struct_urho3_d_1_1_ref_count.html" target="_top" xlink:title="Reference count structure. ">
<polygon fill="none" stroke="black" points="10,-505.5 10,-524.5 108,-524.5 108,-505.5 10,-505.5"/>
<text text-anchor="middle" x="59" y="-512.5" font-family="Helvetica,sans-Serif" font-size="10.00">Urho3D::RefCount</text>
</a>
</g>
</g>
<!-- Node4&#45;&gt;Node3 -->
<g id="edge3" class="edge"><title>Node4&#45;&gt;Node3</title>
<path fill="none" stroke="#9a32cd" stroke-dasharray="5,2" d="M118.298,-515C146.638,-515 180.475,-515 208.194,-515"/>
<polygon fill="#9a32cd" stroke="#9a32cd" points="118.127,-511.5 108.127,-515 118.127,-518.5 118.127,-511.5"/>
<text text-anchor="middle" x="159" y="-518" font-family="Helvetica,sans-Serif" font-size="10.00"> refCount_</text>
</g>
<!-- Node5&#45;&gt;Node2 -->
<g id="edge4" class="edge"><title>Node5&#45;&gt;Node2</title>
<path fill="none" stroke="#9a32cd" stroke-dasharray="5,2" d="M1069.7,-381.436C1063.92,-420.848 1044.9,-509.986 988,-552 856.954,-648.769 774.839,-533.477 624,-595 560.947,-620.717 501.686,-679.847 479.851,-703.228"/>
<polygon fill="#9a32cd" stroke="#9a32cd" points="1073.17,-381.891 1071.03,-371.515 1066.23,-380.963 1073.17,-381.891"/>
<text text-anchor="middle" x="741" y="-598" font-family="Helvetica,sans-Serif" font-size="10.00"> context_</text>
</g>
<!-- Node6 -->
<g id="node6" class="node"><title>Node6</title>
<g id="a_node6"><a xlink:href="class_urho3_d_1_1_hash_map.html" target="_top" xlink:title="Urho3D::HashMap\&lt; Urho3D\l::Object *, Urho3D::HashMap\l\&lt; Urho3D::StringHash, Urho3D\l::SharedPtr\&lt; Urho3D::EventReceiverGroup \&gt; \&gt; \&gt;">
<polygon fill="none" stroke="black" points="624.5,-120 624.5,-172 857.5,-172 857.5,-120 624.5,-120"/>
<text text-anchor="start" x="632.5" y="-160" font-family="Helvetica,sans-Serif" font-size="10.00">Urho3D::HashMap&lt; Urho3D</text>
<text text-anchor="start" x="632.5" y="-149" font-family="Helvetica,sans-Serif" font-size="10.00">::Object *, Urho3D::HashMap</text>
<text text-anchor="start" x="632.5" y="-138" font-family="Helvetica,sans-Serif" font-size="10.00">&lt; Urho3D::StringHash, Urho3D</text>
<text text-anchor="middle" x="741" y="-127" font-family="Helvetica,sans-Serif" font-size="10.00">::SharedPtr&lt; Urho3D::EventReceiverGroup &gt; &gt; &gt;</text>
</a>
</g>
</g>
<!-- Node6&#45;&gt;Node5 -->
<g id="edge6" class="edge"><title>Node6&#45;&gt;Node5</title>
<path fill="none" stroke="#9a32cd" stroke-dasharray="5,2" d="M867.701,-164.228C909.184,-174.961 953.492,-191.992 988,-219 1034.93,-255.734 1060.89,-326.559 1069.1,-352.326"/>
<polygon fill="#9a32cd" stroke="#9a32cd" points="868.334,-160.779 857.785,-161.766 866.647,-167.573 868.334,-160.779"/>
<text text-anchor="middle" x="932" y="-222" font-family="Helvetica,sans-Serif" font-size="10.00"> specificEventReceivers_</text>
</g>
<!-- Node7 -->
<g id="node7" class="node"><title>Node7</title>
<g id="a_node7"><a xlink:href="class_urho3_d_1_1_hash_base.html" target="_top" xlink:title="Hash set/map base class. ">
<polygon fill="none" stroke="black" points="419,-202.5 419,-221.5 521,-221.5 521,-202.5 419,-202.5"/>
<text text-anchor="middle" x="470" y="-209.5" font-family="Helvetica,sans-Serif" font-size="10.00">Urho3D::HashBase</text>
</a>
</g>
</g>
<!-- Node7&#45;&gt;Node6 -->
<g id="edge7" class="edge"><title>Node7&#45;&gt;Node6</title>
<path fill="none" stroke="midnightblue" d="M519.756,-200.038C551.579,-192.23 594.385,-181.727 633.796,-172.057"/>
<polygon fill="midnightblue" stroke="midnightblue" points="518.706,-196.691 509.828,-202.474 520.374,-203.49 518.706,-196.691"/>
</g>
<!-- Node11 -->
<g id="node11" class="node"><title>Node11</title>
<g id="a_node11"><a xlink:href="class_urho3_d_1_1_hash_map.html" target="_top" xlink:title="Urho3D::HashMap\&lt; Urho3D\l::StringHash, Urho3D::\lSharedPtr\&lt; Urho3D::EventReceiver\lGroup \&gt; \&gt;">
<polygon fill="none" stroke="black" points="654.5,-49 654.5,-101 827.5,-101 827.5,-49 654.5,-49"/>
<text text-anchor="start" x="662.5" y="-89" font-family="Helvetica,sans-Serif" font-size="10.00">Urho3D::HashMap&lt; Urho3D</text>
<text text-anchor="start" x="662.5" y="-78" font-family="Helvetica,sans-Serif" font-size="10.00">::StringHash, Urho3D::</text>
<text text-anchor="start" x="662.5" y="-67" font-family="Helvetica,sans-Serif" font-size="10.00">SharedPtr&lt; Urho3D::EventReceiver</text>
<text text-anchor="middle" x="741" y="-56" font-family="Helvetica,sans-Serif" font-size="10.00">Group &gt; &gt;</text>
</a>
</g>
</g>
<!-- Node7&#45;&gt;Node11 -->
<g id="edge15" class="edge"><title>Node7&#45;&gt;Node11</title>
<path fill="none" stroke="midnightblue" d="M490.818,-195.972C518.936,-173.911 572.708,-134.18 624,-110 633.609,-105.47 643.941,-101.366 654.336,-97.6947"/>
<polygon fill="midnightblue" stroke="midnightblue" points="488.607,-193.258 482.947,-202.214 492.957,-198.743 488.607,-193.258"/>
</g>
<!-- Node17 -->
<g id="node17" class="node"><title>Node17</title>
<g id="a_node17"><a xlink:href="class_urho3_d_1_1_hash_map.html" target="_top" xlink:title="Urho3D::HashMap\&lt; StringHash,\l Variant \&gt;">
<polygon fill="none" stroke="black" points="661.5,-0 661.5,-30 820.5,-30 820.5,-0 661.5,-0"/>
<text text-anchor="start" x="669.5" y="-18" font-family="Helvetica,sans-Serif" font-size="10.00">Urho3D::HashMap&lt; StringHash,</text>
<text text-anchor="middle" x="741" y="-7" font-family="Helvetica,sans-Serif" font-size="10.00"> Variant &gt;</text>
</a>
</g>
</g>
<!-- Node7&#45;&gt;Node17 -->
<g id="edge25" class="edge"><title>Node7&#45;&gt;Node17</title>
<path fill="none" stroke="midnightblue" d="M481.71,-193.044C503.391,-156.598 556.229,-77.0008 624,-39 635.48,-32.5627 648.47,-27.8441 661.498,-24.3871"/>
<polygon fill="midnightblue" stroke="midnightblue" points="478.44,-191.706 476.435,-202.109 484.49,-195.227 478.44,-191.706"/>
</g>
<!-- Node18 -->
<g id="node18" class="node"><title>Node18</title>
<g id="a_node18"><a xlink:href="class_urho3_d_1_1_hash_map.html" target="_top" xlink:title="Urho3D::HashMap\&lt; Urho3D\l::StringHash, Urho3D::\lSharedPtr\&lt; Urho3D::Object \&gt; \&gt;">
<polygon fill="none" stroke="black" points="663.5,-371.5 663.5,-412.5 818.5,-412.5 818.5,-371.5 663.5,-371.5"/>
<text text-anchor="start" x="671.5" y="-400.5" font-family="Helvetica,sans-Serif" font-size="10.00">Urho3D::HashMap&lt; Urho3D</text>
<text text-anchor="start" x="671.5" y="-389.5" font-family="Helvetica,sans-Serif" font-size="10.00">::StringHash, Urho3D::</text>
<text text-anchor="middle" x="741" y="-378.5" font-family="Helvetica,sans-Serif" font-size="10.00">SharedPtr&lt; Urho3D::Object &gt; &gt;</text>
</a>
</g>
</g>
<!-- Node7&#45;&gt;Node18 -->
<g id="edge27" class="edge"><title>Node7&#45;&gt;Node18</title>
<path fill="none" stroke="midnightblue" d="M484.238,-230.142C508.339,-261.799 562.597,-326.992 624,-361 636.127,-367.716 649.781,-373.035 663.35,-377.229"/>
<polygon fill="midnightblue" stroke="midnightblue" points="486.797,-227.72 478.004,-221.81 481.192,-231.914 486.797,-227.72"/>
</g>
<!-- Node20 -->
<g id="node20" class="node"><title>Node20</title>
<g id="a_node20"><a xlink:href="class_urho3_d_1_1_hash_map.html" target="_top" xlink:title="Urho3D::HashMap\&lt; Urho3D\l::StringHash, Urho3D::\lSharedPtr\&lt; Urho3D::ObjectFactory \&gt; \&gt;">
<polygon fill="none" stroke="black" points="647,-311.5 647,-352.5 835,-352.5 835,-311.5 647,-311.5"/>
<text text-anchor="start" x="655" y="-340.5" font-family="Helvetica,sans-Serif" font-size="10.00">Urho3D::HashMap&lt; Urho3D</text>
<text text-anchor="start" x="655" y="-329.5" font-family="Helvetica,sans-Serif" font-size="10.00">::StringHash, Urho3D::</text>
<text text-anchor="middle" x="741" y="-318.5" font-family="Helvetica,sans-Serif" font-size="10.00">SharedPtr&lt; Urho3D::ObjectFactory &gt; &gt;</text>
</a>
</g>
</g>
<!-- Node7&#45;&gt;Node20 -->
<g id="edge31" class="edge"><title>Node7&#45;&gt;Node20</title>
<path fill="none" stroke="midnightblue" d="M493.214,-227.48C522.145,-247.025 574.84,-280.562 624,-301 633.239,-304.841 643.092,-308.332 653.003,-311.468"/>
<polygon fill="midnightblue" stroke="midnightblue" points="494.923,-224.408 484.691,-221.659 490.976,-230.189 494.923,-224.408"/>
</g>
<!-- Node21 -->
<g id="node21" class="node"><title>Node21</title>
<g id="a_node21"><a xlink:href="class_urho3_d_1_1_hash_map.html" target="_top" xlink:title="Urho3D::HashMap\&lt; Urho3D\l::String, Urho3D::Vector\l\&lt; Urho3D::StringHash \&gt; \&gt;">
<polygon fill="none" stroke="black" points="670.5,-251.5 670.5,-292.5 811.5,-292.5 811.5,-251.5 670.5,-251.5"/>
<text text-anchor="start" x="678.5" y="-280.5" font-family="Helvetica,sans-Serif" font-size="10.00">Urho3D::HashMap&lt; Urho3D</text>
<text text-anchor="start" x="678.5" y="-269.5" font-family="Helvetica,sans-Serif" font-size="10.00">::String, Urho3D::Vector</text>
<text text-anchor="middle" x="741" y="-258.5" font-family="Helvetica,sans-Serif" font-size="10.00">&lt; Urho3D::StringHash &gt; &gt;</text>
</a>
</g>
</g>
<!-- Node7&#45;&gt;Node21 -->
<g id="edge33" class="edge"><title>Node7&#45;&gt;Node21</title>
<path fill="none" stroke="midnightblue" d="M523.621,-223.737C565.517,-233.082 624.524,-246.243 670.338,-256.462"/>
<polygon fill="midnightblue" stroke="midnightblue" points="524.146,-220.268 513.624,-221.507 522.622,-227.1 524.146,-220.268"/>
</g>
<!-- Node22 -->
<g id="node22" class="node"><title>Node22</title>
<g id="a_node22"><a xlink:href="class_urho3_d_1_1_hash_map.html" target="_top" xlink:title="Urho3D::HashMap\&lt; Urho3D\l::StringHash, Urho3D::\lVector\&lt; Urho3D::AttributeInfo \&gt; \&gt;">
<polygon fill="none" stroke="black" points="658.5,-191.5 658.5,-232.5 823.5,-232.5 823.5,-191.5 658.5,-191.5"/>
<text text-anchor="start" x="666.5" y="-220.5" font-family="Helvetica,sans-Serif" font-size="10.00">Urho3D::HashMap&lt; Urho3D</text>
<text text-anchor="start" x="666.5" y="-209.5" font-family="Helvetica,sans-Serif" font-size="10.00">::StringHash, Urho3D::</text>
<text text-anchor="middle" x="741" y="-198.5" font-family="Helvetica,sans-Serif" font-size="10.00">Vector&lt; Urho3D::AttributeInfo &gt; &gt;</text>
</a>
</g>
</g>
<!-- Node7&#45;&gt;Node22 -->
<g id="edge35" class="edge"><title>Node7&#45;&gt;Node22</title>
<path fill="none" stroke="midnightblue" d="M531.525,-212C568.943,-212 617.447,-212 658.253,-212"/>
<polygon fill="midnightblue" stroke="midnightblue" points="531.281,-208.5 521.281,-212 531.281,-215.5 531.281,-208.5"/>
</g>
<!-- Node8 -->
<g id="node8" class="node"><title>Node8</title>
<g id="a_node8"><a xlink:href="struct_urho3_d_1_1_hash_node_base.html" target="_top" xlink:title="Hash set/map node base class. ">
<polygon fill="none" stroke="black" points="200.5,-236.5 200.5,-255.5 325.5,-255.5 325.5,-236.5 200.5,-236.5"/>
<text text-anchor="middle" x="263" y="-243.5" font-family="Helvetica,sans-Serif" font-size="10.00">Urho3D::HashNodeBase</text>
</a>
</g>
</g>
<!-- Node8&#45;&gt;Node7 -->
<g id="edge8" class="edge"><title>Node8&#45;&gt;Node7</title>
<path fill="none" stroke="#9a32cd" stroke-dasharray="5,2" d="M331.291,-234.84C359.859,-230.101 392.581,-224.674 418.958,-220.3"/>
<polygon fill="#9a32cd" stroke="#9a32cd" points="330.669,-231.395 321.377,-236.484 331.814,-238.3 330.669,-231.395"/>
<text text-anchor="middle" x="367" y="-258" font-family="Helvetica,sans-Serif" font-size="10.00"> ptrs_</text>
<text text-anchor="middle" x="367" y="-247" font-family="Helvetica,sans-Serif" font-size="10.00">tail_</text>
<text text-anchor="middle" x="367" y="-236" font-family="Helvetica,sans-Serif" font-size="10.00">head_</text>
</g>
<!-- Node8&#45;&gt;Node8 -->
<g id="edge9" class="edge"><title>Node8&#45;&gt;Node8</title>
<path fill="none" stroke="#9a32cd" stroke-dasharray="5,2" d="M243.742,-265.4C245.028,-270.315 251.447,-274 263,-274 281.484,-274 286.828,-264.565 279.029,-255.757"/>
<polygon fill="#9a32cd" stroke="#9a32cd" points="247.114,-266.351 246.971,-255.757 240.476,-264.128 247.114,-266.351"/>
<text text-anchor="middle" x="263" y="-299" font-family="Helvetica,sans-Serif" font-size="10.00"> next_</text>
<text text-anchor="middle" x="263" y="-288" font-family="Helvetica,sans-Serif" font-size="10.00">prev_</text>
<text text-anchor="middle" x="263" y="-277" font-family="Helvetica,sans-Serif" font-size="10.00">down_</text>
</g>
<!-- Node9 -->
<g id="node9" class="node"><title>Node9</title>
<g id="a_node9"><a xlink:href="struct_urho3_d_1_1_allocator_block.html" target="_top" xlink:title="Allocator memory block. ">
<polygon fill="none" stroke="black" points="203.5,-169.5 203.5,-188.5 322.5,-188.5 322.5,-169.5 203.5,-169.5"/>
<text text-anchor="middle" x="263" y="-176.5" font-family="Helvetica,sans-Serif" font-size="10.00">Urho3D::AllocatorBlock</text>
</a>
</g>
</g>
<!-- Node9&#45;&gt;Node7 -->
<g id="edge10" class="edge"><title>Node9&#45;&gt;Node7</title>
<path fill="none" stroke="#9a32cd" stroke-dasharray="5,2" d="M332.884,-188.26C351.453,-190.914 371.516,-193.927 390,-197 399.915,-198.649 410.502,-200.556 420.599,-202.447"/>
<polygon fill="#9a32cd" stroke="#9a32cd" points="333.134,-184.76 322.742,-186.824 332.153,-191.691 333.134,-184.76"/>
<text text-anchor="middle" x="367" y="-200" font-family="Helvetica,sans-Serif" font-size="10.00"> allocator_</text>
</g>
<!-- Node9&#45;&gt;Node9 -->
<g id="edge11" class="edge"><title>Node9&#45;&gt;Node9</title>
<path fill="none" stroke="#9a32cd" stroke-dasharray="5,2" d="M243.742,-198.4C245.028,-203.315 251.447,-207 263,-207 281.484,-207 286.828,-197.565 279.029,-188.757"/>
<polygon fill="#9a32cd" stroke="#9a32cd" points="247.114,-199.351 246.971,-188.757 240.476,-197.128 247.114,-199.351"/>
<text text-anchor="middle" x="263" y="-210" font-family="Helvetica,sans-Serif" font-size="10.00"> next_</text>
</g>
<!-- Node10 -->
<g id="node10" class="node"><title>Node10</title>
<g id="a_node10"><a xlink:href="struct_urho3_d_1_1_allocator_node.html" target="_top" xlink:title="Allocator node. ">
<polygon fill="none" stroke="black" points="0,-169.5 0,-188.5 118,-188.5 118,-169.5 0,-169.5"/>
<text text-anchor="middle" x="59" y="-176.5" font-family="Helvetica,sans-Serif" font-size="10.00">Urho3D::AllocatorNode</text>
</a>
</g>
</g>
<!-- Node10&#45;&gt;Node9 -->
<g id="edge12" class="edge"><title>Node10&#45;&gt;Node9</title>
<path fill="none" stroke="#9a32cd" stroke-dasharray="5,2" d="M128.375,-179C152.669,-179 179.783,-179 203.205,-179"/>
<polygon fill="#9a32cd" stroke="#9a32cd" points="128.156,-175.5 118.156,-179 128.156,-182.5 128.156,-175.5"/>
<text text-anchor="middle" x="159" y="-182" font-family="Helvetica,sans-Serif" font-size="10.00"> free_</text>
</g>
<!-- Node10&#45;&gt;Node10 -->
<g id="edge13" class="edge"><title>Node10&#45;&gt;Node10</title>
<path fill="none" stroke="#9a32cd" stroke-dasharray="5,2" d="M40.4824,-198.4C41.7191,-203.315 47.8916,-207 59,-207 76.7734,-207 81.9111,-197.565 74.4129,-188.757"/>
<polygon fill="#9a32cd" stroke="#9a32cd" points="43.8539,-199.349 43.5871,-188.757 37.1907,-197.203 43.8539,-199.349"/>
<text text-anchor="middle" x="59" y="-210" font-family="Helvetica,sans-Serif" font-size="10.00"> next_</text>
</g>
<!-- Node11&#45;&gt;Node5 -->
<g id="edge14" class="edge"><title>Node11&#45;&gt;Node5</title>
<path fill="none" stroke="#9a32cd" stroke-dasharray="5,2" d="M837.673,-85.7259C887.921,-95.8689 947.331,-115.604 988,-154 1048.88,-211.482 1066.75,-319.122 1070.91,-352.127"/>
<polygon fill="#9a32cd" stroke="#9a32cd" points="838.234,-82.2698 827.754,-83.8225 836.915,-89.1444 838.234,-82.2698"/>
<text text-anchor="middle" x="932" y="-157" font-family="Helvetica,sans-Serif" font-size="10.00"> eventReceivers_</text>
</g>
<!-- Node12 -->
<g id="node12" class="node"><title>Node12</title>
<g id="a_node12"><a xlink:href="class_urho3_d_1_1_p_o_d_vector.html" target="_top" xlink:title="Urho3D::PODVector\&lt;\l Urho3D::Object * \&gt;">
<polygon fill="none" stroke="black" points="684.5,-470 684.5,-500 797.5,-500 797.5,-470 684.5,-470"/>
<text text-anchor="start" x="692.5" y="-488" font-family="Helvetica,sans-Serif" font-size="10.00">Urho3D::PODVector&lt;</text>
<text text-anchor="middle" x="741" y="-477" font-family="Helvetica,sans-Serif" font-size="10.00"> Urho3D::Object * &gt;</text>
</a>
</g>
</g>
<!-- Node12&#45;&gt;Node5 -->
<g id="edge16" class="edge"><title>Node12&#45;&gt;Node5</title>
<path fill="none" stroke="#9a32cd" stroke-dasharray="5,2" d="M807.582,-489.165C859.363,-489.683 931.973,-484.081 988,-455 1025.85,-435.354 1054.98,-391.276 1066.56,-371.694"/>
<polygon fill="#9a32cd" stroke="#9a32cd" points="807.575,-485.665 797.514,-488.985 807.45,-492.663 807.575,-485.665"/>
<text text-anchor="middle" x="932" y="-489" font-family="Helvetica,sans-Serif" font-size="10.00"> eventSenders_</text>
</g>
<!-- Node13 -->
<g id="node13" class="node"><title>Node13</title>
<g id="a_node13"><a xlink:href="class_urho3_d_1_1_vector_base.html" target="_top" xlink:title="Vector base class. ">
<polygon fill="none" stroke="black" points="416.5,-524.5 416.5,-543.5 523.5,-543.5 523.5,-524.5 416.5,-524.5"/>
<text text-anchor="middle" x="470" y="-531.5" font-family="Helvetica,sans-Serif" font-size="10.00">Urho3D::VectorBase</text>
</a>
</g>
</g>
<!-- Node13&#45;&gt;Node12 -->
<g id="edge17" class="edge"><title>Node13&#45;&gt;Node12</title>
<path fill="none" stroke="midnightblue" d="M533.249,-522.661C578.863,-514.352 640.242,-503.171 684.253,-495.155"/>
<polygon fill="midnightblue" stroke="midnightblue" points="532.396,-519.259 523.185,-524.494 533.65,-526.145 532.396,-519.259"/>
</g>
<!-- Node19 -->
<g id="node19" class="node"><title>Node19</title>
<g id="a_node19"><a xlink:href="class_urho3_d_1_1_p_o_d_vector.html" target="_top" xlink:title="Urho3D::PODVector\&lt;\l Urho3D::HashMap * \&gt;">
<polygon fill="none" stroke="black" points="682.5,-519 682.5,-549 799.5,-549 799.5,-519 682.5,-519"/>
<text text-anchor="start" x="690.5" y="-537" font-family="Helvetica,sans-Serif" font-size="10.00">Urho3D::PODVector&lt;</text>
<text text-anchor="middle" x="741" y="-526" font-family="Helvetica,sans-Serif" font-size="10.00"> Urho3D::HashMap * &gt;</text>
</a>
</g>
</g>
<!-- Node13&#45;&gt;Node19 -->
<g id="edge29" class="edge"><title>Node13&#45;&gt;Node19</title>
<path fill="none" stroke="midnightblue" d="M533.686,-534C578.49,-534 638.337,-534 682.032,-534"/>
<polygon fill="midnightblue" stroke="midnightblue" points="533.505,-530.5 523.504,-534 533.504,-537.5 533.505,-530.5"/>
</g>
<!-- Node25 -->
<g id="node25" class="node"><title>Node25</title>
<g id="a_node25"><a xlink:href="class_urho3_d_1_1_p_o_d_vector.html" target="_top" xlink:title="Urho3D::PODVector\&lt;\l float \&gt;">
<polygon fill="none" stroke="black" points="684.5,-654 684.5,-684 797.5,-684 797.5,-654 684.5,-654"/>
<text text-anchor="start" x="692.5" y="-672" font-family="Helvetica,sans-Serif" font-size="10.00">Urho3D::PODVector&lt;</text>
<text text-anchor="middle" x="741" y="-661" font-family="Helvetica,sans-Serif" font-size="10.00"> float &gt;</text>
</a>
</g>
</g>
<!-- Node13&#45;&gt;Node25 -->
<g id="edge40" class="edge"><title>Node13&#45;&gt;Node25</title>
<path fill="none" stroke="midnightblue" d="M488.654,-550.505C515.656,-574.809 569.805,-619.941 624,-644 642.829,-652.359 664.648,-658.002 684.248,-661.776"/>
<polygon fill="midnightblue" stroke="midnightblue" points="490.921,-547.835 481.176,-543.677 486.201,-553.004 490.921,-547.835"/>
</g>
<!-- Node14&#45;&gt;Node5 -->
<g id="edge18" class="edge"><title>Node14&#45;&gt;Node5</title>
<path fill="none" stroke="#9a32cd" stroke-dasharray="5,2" d="M786.367,-813.286C842.8,-794.672 938.816,-754.339 988,-684 1025.49,-630.38 1062.4,-419.577 1070.4,-371.706"/>
<polygon fill="#9a32cd" stroke="#9a32cd" points="785.1,-810.016 776.649,-816.406 787.24,-816.681 785.1,-810.016"/>
<text text-anchor="middle" x="932" y="-779" font-family="Helvetica,sans-Serif" font-size="10.00"> eventHandler_</text>
</g>
<!-- Node23 -->
<g id="node23" class="node"><title>Node23</title>
<g id="a_node23"><a xlink:href="class_urho3_d_1_1_linked_list.html" target="_top" xlink:title="Urho3D::LinkedList\l\&lt; Urho3D::EventHandler \&gt;">
<polygon fill="none" stroke="black" points="1006,-777 1006,-807 1140,-807 1140,-777 1006,-777"/>
<text text-anchor="start" x="1014" y="-795" font-family="Helvetica,sans-Serif" font-size="10.00">Urho3D::LinkedList</text>
<text text-anchor="middle" x="1073" y="-784" font-family="Helvetica,sans-Serif" font-size="10.00">&lt; Urho3D::EventHandler &gt;</text>
</a>
</g>
</g>
<!-- Node14&#45;&gt;Node23 -->
<g id="edge37" class="edge"><title>Node14&#45;&gt;Node23</title>
<path fill="none" stroke="#9a32cd" stroke-dasharray="5,2" d="M809.507,-820.927C858.99,-816.973 927.757,-810.992 988,-804 993.707,-803.338 999.625,-802.599 1005.56,-801.822"/>
<polygon fill="#9a32cd" stroke="#9a32cd" points="808.943,-817.46 799.251,-821.739 809.496,-824.438 808.943,-817.46"/>
<text text-anchor="middle" x="932" y="-817" font-family="Helvetica,sans-Serif" font-size="10.00"> head_</text>
</g>
<!-- Node15 -->
<g id="node15" class="node"><title>Node15</title>
<g id="a_node15"><a xlink:href="struct_urho3_d_1_1_linked_list_node.html" target="_top" xlink:title="Singly&#45;linked list node base class. ">
<polygon fill="none" stroke="black" points="408,-883.5 408,-902.5 532,-902.5 532,-883.5 408,-883.5"/>
<text text-anchor="middle" x="470" y="-890.5" font-family="Helvetica,sans-Serif" font-size="10.00">Urho3D::LinkedListNode</text>
</a>
</g>
</g>
<!-- Node15&#45;&gt;Node14 -->
<g id="edge19" class="edge"><title>Node15&#45;&gt;Node14</title>
<path fill="none" stroke="midnightblue" d="M519.265,-880.979C571.402,-867.993 653.43,-847.562 701.441,-835.604"/>
<polygon fill="midnightblue" stroke="midnightblue" points="518.113,-877.659 509.255,-883.472 519.805,-884.451 518.113,-877.659"/>
</g>
<!-- Node15&#45;&gt;Node15 -->
<g id="edge20" class="edge"><title>Node15&#45;&gt;Node15</title>
<path fill="none" stroke="#9a32cd" stroke-dasharray="5,2" d="M451.112,-912.4C452.373,-917.315 458.669,-921 470,-921 488.129,-921 493.369,-911.565 485.721,-902.757"/>
<polygon fill="#9a32cd" stroke="#9a32cd" points="454.484,-913.35 454.279,-902.757 447.833,-911.166 454.484,-913.35"/>
<text text-anchor="middle" x="470" y="-924" font-family="Helvetica,sans-Serif" font-size="10.00"> next_</text>
</g>
<!-- Node16 -->
<g id="node16" class="node"><title>Node16</title>
<g id="a_node16"><a xlink:href="class_urho3_d_1_1_string_hash.html" target="_top" xlink:title="32&#45;bit hash value for a string. ">
<polygon fill="none" stroke="black" points="417.5,-816.5 417.5,-835.5 522.5,-835.5 522.5,-816.5 417.5,-816.5"/>
<text text-anchor="middle" x="470" y="-823.5" font-family="Helvetica,sans-Serif" font-size="10.00">Urho3D::StringHash</text>
</a>
</g>
</g>
<!-- Node16&#45;&gt;Node14 -->
<g id="edge22" class="edge"><title>Node16&#45;&gt;Node14</title>
<path fill="none" stroke="#9a32cd" stroke-dasharray="5,2" d="M532.784,-826C577.867,-826 638.535,-826 682.569,-826"/>
<polygon fill="#9a32cd" stroke="#9a32cd" points="532.548,-822.5 522.548,-826 532.548,-829.5 532.548,-822.5"/>
<text text-anchor="middle" x="578" y="-829" font-family="Helvetica,sans-Serif" font-size="10.00"> eventType_</text>
</g>
<!-- Node16&#45;&gt;Node16 -->
<g id="edge23" class="edge"><title>Node16&#45;&gt;Node16</title>
<path fill="none" stroke="#9a32cd" stroke-dasharray="5,2" d="M451.112,-845.4C452.373,-850.315 458.669,-854 470,-854 488.129,-854 493.369,-844.565 485.721,-835.757"/>
<polygon fill="#9a32cd" stroke="#9a32cd" points="454.484,-846.35 454.279,-835.757 447.833,-844.166 454.484,-846.35"/>
<text text-anchor="middle" x="470" y="-857" font-family="Helvetica,sans-Serif" font-size="10.00"> ZERO</text>
</g>
<!-- Node17&#45;&gt;Node5 -->
<g id="edge24" class="edge"><title>Node17&#45;&gt;Node5</title>
<path fill="none" stroke="#9a32cd" stroke-dasharray="5,2" d="M830.516,-17.0863C883.062,-23.0335 947.186,-39.2775 988,-81 1066.87,-161.623 1072.14,-313.095 1072.13,-352.458"/>
<polygon fill="#9a32cd" stroke="#9a32cd" points="830.814,-13.5987 820.51,-16.0607 830.101,-20.5622 830.814,-13.5987"/>
<text text-anchor="middle" x="932" y="-84" font-family="Helvetica,sans-Serif" font-size="10.00"> globalVars_</text>
</g>
<!-- Node18&#45;&gt;Node5 -->
<g id="edge26" class="edge"><title>Node18&#45;&gt;Node5</title>
<path fill="none" stroke="#9a32cd" stroke-dasharray="5,2" d="M828.592,-384.128C892.373,-378.33 976.522,-370.68 1027.32,-366.062"/>
<polygon fill="#9a32cd" stroke="#9a32cd" points="828.18,-380.651 818.538,-385.042 828.814,-387.622 828.18,-380.651"/>
<text text-anchor="middle" x="932" y="-383" font-family="Helvetica,sans-Serif" font-size="10.00"> subsystems_</text>
</g>
<!-- Node19&#45;&gt;Node5 -->
<g id="edge28" class="edge"><title>Node19&#45;&gt;Node5</title>
<path fill="none" stroke="#9a32cd" stroke-dasharray="5,2" d="M809.812,-540.056C862.523,-541.395 935.295,-535.551 988,-501 1036.81,-469 1061.61,-397.869 1069.31,-371.811"/>
<polygon fill="#9a32cd" stroke="#9a32cd" points="809.665,-536.549 799.55,-539.699 809.422,-543.544 809.665,-536.549"/>
<text text-anchor="middle" x="932" y="-540" font-family="Helvetica,sans-Serif" font-size="10.00"> eventDataMaps_</text>
</g>
<!-- Node20&#45;&gt;Node5 -->
<g id="edge30" class="edge"><title>Node20&#45;&gt;Node5</title>
<path fill="none" stroke="#9a32cd" stroke-dasharray="5,2" d="M845.329,-341.394C906.507,-346.955 980.898,-353.718 1027.36,-357.942"/>
<polygon fill="#9a32cd" stroke="#9a32cd" points="845.517,-337.896 835.242,-340.477 844.884,-344.868 845.517,-337.896"/>
<text text-anchor="middle" x="932" y="-357" font-family="Helvetica,sans-Serif" font-size="10.00"> factories_</text>
</g>
<!-- Node21&#45;&gt;Node5 -->
<g id="edge32" class="edge"><title>Node21&#45;&gt;Node5</title>
<path fill="none" stroke="#9a32cd" stroke-dasharray="5,2" d="M821.398,-287.924C869.941,-298.349 933.057,-313.139 988,-330 1009.18,-336.501 1032.71,-345.636 1049.47,-352.482"/>
<polygon fill="#9a32cd" stroke="#9a32cd" points="822.089,-284.493 811.579,-285.832 820.631,-291.339 822.089,-284.493"/>
<text text-anchor="middle" x="932" y="-333" font-family="Helvetica,sans-Serif" font-size="10.00"> objectCategories_</text>
</g>
<!-- Node22&#45;&gt;Node5 -->
<g id="edge34" class="edge"><title>Node22&#45;&gt;Node5</title>
<path fill="none" stroke="#9a32cd" stroke-dasharray="5,2" d="M833.35,-223.628C881.756,-232.698 940.794,-248.563 988,-276 1022.65,-296.136 1052.57,-334.443 1065.37,-352.338"/>
<polygon fill="#9a32cd" stroke="#9a32cd" points="833.967,-220.183 823.504,-221.848 832.722,-227.071 833.967,-220.183"/>
<text text-anchor="middle" x="932" y="-290" font-family="Helvetica,sans-Serif" font-size="10.00"> attributes_</text>
<text text-anchor="middle" x="932" y="-279" font-family="Helvetica,sans-Serif" font-size="10.00">networkAttributes_</text>
</g>
<!-- Node23&#45;&gt;Node2 -->
<g id="edge36" class="edge"><title>Node23&#45;&gt;Node2</title>
<path fill="none" stroke="#9a32cd" stroke-dasharray="5,2" d="M999.24,-775.002C995.446,-774.285 991.683,-773.612 988,-773 794.864,-740.905 744.003,-752.35 550,-726 537.88,-724.354 524.757,-722.303 512.753,-720.321"/>
<polygon fill="#9a32cd" stroke="#9a32cd" points="998.828,-778.488 1009.32,-776.99 1000.18,-771.621 998.828,-778.488"/>
<text text-anchor="middle" x="741" y="-758" font-family="Helvetica,sans-Serif" font-size="10.00"> eventHandlers_</text>
</g>
<!-- Node24 -->
<g id="node24" class="node"><title>Node24</title>
<g id="a_node24"><a xlink:href="class_urho3_d_1_1_hires_timer.html" target="_top" xlink:title="High&#45;resolution operating system timer used in profiling. ">
<polygon fill="none" stroke="black" points="689,-615.5 689,-634.5 793,-634.5 793,-615.5 689,-615.5"/>
<text text-anchor="middle" x="741" y="-622.5" font-family="Helvetica,sans-Serif" font-size="10.00">Urho3D::HiresTimer</text>
</a>
</g>
</g>
<!-- Node24&#45;&gt;Node1 -->
<g id="edge38" class="edge"><title>Node24&#45;&gt;Node1</title>
<path fill="none" stroke="#9a32cd" stroke-dasharray="5,2" d="M802.976,-631.171C852.837,-636.461 925.119,-644.688 988,-654 1001.63,-656.018 1016.44,-658.55 1029.78,-660.955"/>
<polygon fill="#9a32cd" stroke="#9a32cd" points="803.312,-627.687 793,-630.12 802.578,-634.648 803.312,-627.687"/>
<text text-anchor="middle" x="932" y="-657" font-family="Helvetica,sans-Serif" font-size="10.00"> frameTimer_</text>
</g>
<!-- Node25&#45;&gt;Node1 -->
<g id="edge39" class="edge"><title>Node25&#45;&gt;Node1</title>
<path fill="none" stroke="#9a32cd" stroke-dasharray="5,2" d="M807.91,-669C873.979,-669 973.716,-669 1029.81,-669"/>
<polygon fill="#9a32cd" stroke="#9a32cd" points="807.607,-665.5 797.607,-669 807.607,-672.5 807.607,-665.5"/>
<text text-anchor="middle" x="932" y="-672" font-family="Helvetica,sans-Serif" font-size="10.00"> lastTimeSteps_</text>
</g>
</g>
</svg>
