<?xml version="1.0" encoding="UTF-8" standalone="no"?>
<!DOCTYPE svg PUBLIC "-//W3C//DTD SVG 1.1//EN"
 "http://www.w3.org/Graphics/SVG/1.1/DTD/svg11.dtd">
<!-- Generated by graphviz version 2.36.0 (20140111.2315)
 -->
<!-- Title: Urho3D::IKSolver::SetAlgorithm Pages: 1 -->
<!--zoomable 550 -->
<svg id="main" version="1.1" xmlns="http://www.w3.org/2000/svg" xmlns:xlink="http://www.w3.org/1999/xlink" xml:space="preserve" onload="init(evt)">
<style type="text/css"><![CDATA[
.edge:hover path { stroke: red; }
.edge:hover polygon { stroke: red; fill: red; }
]]></style>
<script type="text/javascript"><![CDATA[
var edges = document.getElementsByTagName('g');
if (edges && edges.length) {
  for (var i=0;i<edges.length;i++) {
    if (edges[i].id.substr(0,4)=='edge') {
      edges[i].setAttribute('class','edge');
    }
  }
}
]]></script>
        <defs>
                <circle id="rim" cx="0" cy="0" r="7"/>
                <circle id="rim2" cx="0" cy="0" r="3.5"/>
                <g id="zoomPlus">
                        <use xlink:href="#rim" fill="#404040">
                                <set attributeName="fill" to="#808080" begin="zoomplus.mouseover" end="zoomplus.mouseout"/>
                        </use>
                        <path d="M-4,0h8M0,-4v8" fill="none" stroke="white" stroke-width="1.5" pointer-events="none"/>
                </g>
                <g id="zoomMin">
                        <use xlink:href="#rim" fill="#404040">
                                <set attributeName="fill" to="#808080" begin="zoomminus.mouseover" end="zoomminus.mouseout"/>
                        </use>
                        <path d="M-4,0h8" fill="none" stroke="white" stroke-width="1.5" pointer-events="none"/>
                </g>
                <g id="dirArrow">
                        <path fill="none" stroke="white" stroke-width="1.5" d="M0,-3.0v7 M-2.5,-0.5L0,-3.0L2.5,-0.5"/>
                </g>
               <g id="resetDef">
                       <use xlink:href="#rim2" fill="#404040">
                               <set attributeName="fill" to="#808080" begin="reset.mouseover" end="reset.mouseout"/>
                       </use>
               </g>
        </defs>

<script type="text/javascript">
var viewWidth = 942;
var viewHeight = 550;
var sectionId = 'dynsection-10';
</script>
<script xlink:href="svgpan.js"/>
<svg id="graph" class="graph">
<g id="viewport">
<title>Urho3D::IKSolver::SetAlgorithm</title>
<!-- Node1 -->
<g id="node1" class="node"><title>Node1</title>
<polygon fill="#bfbfbf" stroke="black" points="0,-370.5 0,-389.5 156,-389.5 156,-370.5 0,-370.5"/>
<text text-anchor="middle" x="78" y="-377.5" font-family="Helvetica,sans-Serif" font-size="10.00">Urho3D::IKSolver::SetAlgorithm</text>
</g>
<!-- Node2 -->
<g id="node2" class="node"><title>Node2</title>
<g id="a_node2"><a xlink:href="class_urho3_d_1_1_i_k_solver.html#afe4c1364201933e830b92ac7b6712f6a" target="_top" xlink:title="Urho3D::IKSolver::ApplyOriginal\lPoseToScene">
<polygon fill="none" stroke="black" points="192,-409 192,-439 350,-439 350,-409 192,-409"/>
<text text-anchor="start" x="200" y="-427" font-family="Helvetica,sans-Serif" font-size="10.00">Urho3D::IKSolver::ApplyOriginal</text>
<text text-anchor="middle" x="271" y="-416" font-family="Helvetica,sans-Serif" font-size="10.00">PoseToScene</text>
</a>
</g>
</g>
<!-- Node1&#45;&gt;Node2 -->
<g id="edge1" class="edge"><title>Node1&#45;&gt;Node2</title>
<path fill="none" stroke="midnightblue" d="M120.444,-389.547C142.141,-394.545 169.387,-400.822 194.66,-406.644"/>
<polygon fill="midnightblue" stroke="midnightblue" points="194.072,-410.1 204.603,-408.935 195.644,-403.279 194.072,-410.1"/>
</g>
<!-- Node3 -->
<g id="node3" class="node"><title>Node3</title>
<g id="a_node3"><a xlink:href="class_urho3_d_1_1_i_k_solver.html#aad4ab41a3accf0ff067ad591d0f7c67e" target="_top" xlink:title="Destroys the solver&#39;s tree. ">
<polygon fill="none" stroke="black" points="388,-398.5 388,-417.5 542,-417.5 542,-398.5 388,-398.5"/>
<text text-anchor="middle" x="465" y="-405.5" font-family="Helvetica,sans-Serif" font-size="10.00">Urho3D::IKSolver::DestroyTree</text>
</a>
</g>
</g>
<!-- Node1&#45;&gt;Node3 -->
<g id="edge2" class="edge"><title>Node1&#45;&gt;Node3</title>
<path fill="none" stroke="midnightblue" d="M156.447,-385.633C220.568,-390.296 311.588,-396.916 377.968,-401.743"/>
<polygon fill="midnightblue" stroke="midnightblue" points="377.762,-405.237 387.989,-402.472 378.27,-398.256 377.762,-405.237"/>
</g>
<!-- Node4 -->
<g id="node4" class="node"><title>Node4</title>
<g id="a_node4"><a xlink:href="class_urho3_d_1_1_i_k_solver.html#a215740ec5753a2347b9da9ec9d84cc07" target="_top" xlink:title="Builds the solver&#39;s tree to match the scene graph&#39;s tree. If a tree already exists, it is first destroyed. ">
<polygon fill="none" stroke="black" points="195,-305.5 195,-324.5 347,-324.5 347,-305.5 195,-305.5"/>
<text text-anchor="middle" x="271" y="-312.5" font-family="Helvetica,sans-Serif" font-size="10.00">Urho3D::IKSolver::RebuildTree</text>
</a>
</g>
</g>
<!-- Node1&#45;&gt;Node4 -->
<g id="edge3" class="edge"><title>Node1&#45;&gt;Node4</title>
<path fill="none" stroke="midnightblue" d="M107.183,-370.409C140.286,-359.144 195.345,-340.406 232.15,-327.881"/>
<polygon fill="midnightblue" stroke="midnightblue" points="233.674,-331.06 242.013,-324.524 231.418,-324.433 233.674,-331.06"/>
</g>
<!-- Node4&#45;&gt;Node3 -->
<g id="edge4" class="edge"><title>Node4&#45;&gt;Node3</title>
<path fill="none" stroke="midnightblue" d="M286.981,-324.772C316.7,-344.132 380.72,-385.703 386,-388 392.61,-390.875 399.722,-393.403 406.865,-395.608"/>
<polygon fill="midnightblue" stroke="midnightblue" points="406.002,-399.002 416.581,-398.416 407.945,-392.277 406.002,-399.002"/>
</g>
<!-- Node5 -->
<g id="node5" class="node"><title>Node5</title>
<g id="a_node5"><a xlink:href="class_urho3_d_1_1_i_k_solver.html#a47e782eedb4819ac1f24020a3cce5eaa" target="_top" xlink:title="Creates the ik library node and sets the current rotation/position and user data correctly. ">
<polygon fill="none" stroke="black" points="592.5,-169 592.5,-199 721.5,-199 721.5,-169 592.5,-169"/>
<text text-anchor="start" x="600.5" y="-187" font-family="Helvetica,sans-Serif" font-size="10.00">Urho3D::IKSolver::Create</text>
<text text-anchor="middle" x="657" y="-176" font-family="Helvetica,sans-Serif" font-size="10.00">IKNodeFromUrhoNode</text>
</a>
</g>
</g>
<!-- Node4&#45;&gt;Node5 -->
<g id="edge5" class="edge"><title>Node4&#45;&gt;Node5</title>
<path fill="none" stroke="midnightblue" d="M278.257,-305.226C293.465,-282.448 334.904,-226.027 386,-203 447.908,-175.1 525.956,-172.644 582.197,-175.797"/>
<polygon fill="midnightblue" stroke="midnightblue" points="582.234,-179.306 592.435,-176.446 582.677,-172.32 582.234,-179.306"/>
</g>
<!-- Node16 -->
<g id="node16" class="node"><title>Node16</title>
<g id="a_node16"><a xlink:href="class_urho3_d_1_1_node.html#a9f096d8f7c61f7be195c5f0e22a60404" target="_top" xlink:title="Return all components. ">
<polygon fill="none" stroke="black" points="386.5,-212.5 386.5,-231.5 543.5,-231.5 543.5,-212.5 386.5,-212.5"/>
<text text-anchor="middle" x="465" y="-219.5" font-family="Helvetica,sans-Serif" font-size="10.00">Urho3D::Node::GetComponents</text>
</a>
</g>
</g>
<!-- Node4&#45;&gt;Node16 -->
<g id="edge16" class="edge"><title>Node4&#45;&gt;Node16</title>
<path fill="none" stroke="midnightblue" d="M283.871,-305.327C303.783,-289.573 345.703,-258.387 386,-241 391.795,-238.5 397.98,-236.289 404.236,-234.345"/>
<polygon fill="midnightblue" stroke="midnightblue" points="405.442,-237.64 414.08,-231.504 403.501,-230.914 405.442,-237.64"/>
</g>
<!-- Node17 -->
<g id="node17" class="node"><title>Node17</title>
<g id="a_node17"><a xlink:href="class_urho3_d_1_1_i_k_solver.html#ae77ddb3022b6ed2a2a19bad8dc500f47" target="_top" xlink:title="Urho3D::IKSolver::Component\lIsInOurSubtree">
<polygon fill="none" stroke="black" points="390,-251 390,-281 540,-281 540,-251 390,-251"/>
<text text-anchor="start" x="398" y="-269" font-family="Helvetica,sans-Serif" font-size="10.00">Urho3D::IKSolver::Component</text>
<text text-anchor="middle" x="465" y="-258" font-family="Helvetica,sans-Serif" font-size="10.00">IsInOurSubtree</text>
</a>
</g>
</g>
<!-- Node4&#45;&gt;Node17 -->
<g id="edge17" class="edge"><title>Node4&#45;&gt;Node17</title>
<path fill="none" stroke="midnightblue" d="M309.475,-305.436C333.783,-299.232 366.186,-290.963 395.041,-283.599"/>
<polygon fill="midnightblue" stroke="midnightblue" points="396.256,-286.901 405.08,-281.037 394.525,-280.119 396.256,-286.901"/>
</g>
<!-- Node19 -->
<g id="node19" class="node"><title>Node19</title>
<g id="a_node19"><a xlink:href="class_urho3_d_1_1_i_k_solver.html#afaa45ef02d8aee5717b9eabece7ac883" target="_top" xlink:title="Builds a chain of nodes up to the node of the specified effector component. ">
<polygon fill="none" stroke="black" points="394.5,-349 394.5,-379 535.5,-379 535.5,-349 394.5,-349"/>
<text text-anchor="start" x="402.5" y="-367" font-family="Helvetica,sans-Serif" font-size="10.00">Urho3D::IKSolver::BuildTree</text>
<text text-anchor="middle" x="465" y="-356" font-family="Helvetica,sans-Serif" font-size="10.00">ToEffector</text>
</a>
</g>
</g>
<!-- Node4&#45;&gt;Node19 -->
<g id="edge21" class="edge"><title>Node4&#45;&gt;Node19</title>
<path fill="none" stroke="midnightblue" d="M309.475,-324.564C333.783,-330.768 366.186,-339.037 395.041,-346.401"/>
<polygon fill="midnightblue" stroke="midnightblue" points="394.525,-349.881 405.08,-348.963 396.256,-343.099 394.525,-349.881"/>
</g>
<!-- Node25 -->
<g id="node25" class="node"><title>Node25</title>
<g id="a_node25"><a xlink:href="class_urho3_d_1_1_i_k_solver.html#a33218dc2749da6a94ea2d6e6df62f8c8" target="_top" xlink:title="Indicates that the internal structures of the IK library need to be updated. See the documentation of...">
<polygon fill="none" stroke="black" points="389,-300 389,-330 541,-330 541,-300 389,-300"/>
<text text-anchor="start" x="397" y="-318" font-family="Helvetica,sans-Serif" font-size="10.00">Urho3D::IKSolver::MarkChains</text>
<text text-anchor="middle" x="465" y="-307" font-family="Helvetica,sans-Serif" font-size="10.00">NeedUpdating</text>
</a>
</g>
</g>
<!-- Node4&#45;&gt;Node25 -->
<g id="edge31" class="edge"><title>Node4&#45;&gt;Node25</title>
<path fill="none" stroke="midnightblue" d="M347.057,-315C357.498,-315 368.287,-315 378.896,-315"/>
<polygon fill="midnightblue" stroke="midnightblue" points="378.995,-318.5 388.995,-315 378.995,-311.5 378.995,-318.5"/>
</g>
<!-- Node6 -->
<g id="node6" class="node"><title>Node6</title>
<g id="a_node6"><a xlink:href="class_urho3_d_1_1_node.html#a72efea5341191c1951129467f5cb55f3" target="_top" xlink:title="Return ID. ">
<polygon fill="none" stroke="black" points="796,-416.5 796,-435.5 908,-435.5 908,-416.5 796,-416.5"/>
<text text-anchor="middle" x="852" y="-423.5" font-family="Helvetica,sans-Serif" font-size="10.00">Urho3D::Node::GetID</text>
</a>
</g>
</g>
<!-- Node5&#45;&gt;Node6 -->
<g id="edge6" class="edge"><title>Node5&#45;&gt;Node6</title>
<path fill="none" stroke="midnightblue" d="M683.365,-199.161C700.069,-210.389 721.15,-227.145 734,-247 766.574,-297.331 733.792,-329.217 770,-377 781.7,-392.44 799.797,-404.049 815.92,-412.083"/>
<polygon fill="midnightblue" stroke="midnightblue" points="814.582,-415.321 825.122,-416.401 817.556,-408.984 814.582,-415.321"/>
</g>
<!-- Node7 -->
<g id="node7" class="node"><title>Node7</title>
<g id="a_node7"><a xlink:href="class_urho3_d_1_1_node.html#a92372a305fa427e9ce58df7f37a684ba" target="_top" xlink:title="Return position in world space. ">
<polygon fill="none" stroke="black" points="771,-152.5 771,-171.5 933,-171.5 933,-152.5 771,-152.5"/>
<text text-anchor="middle" x="852" y="-159.5" font-family="Helvetica,sans-Serif" font-size="10.00">Urho3D::Node::GetWorldPosition</text>
</a>
</g>
</g>
<!-- Node5&#45;&gt;Node7 -->
<g id="edge7" class="edge"><title>Node5&#45;&gt;Node7</title>
<path fill="none" stroke="midnightblue" d="M721.73,-176.735C734.242,-175.309 747.588,-173.788 760.777,-172.285"/>
<polygon fill="midnightblue" stroke="midnightblue" points="761.276,-175.75 770.815,-171.14 760.483,-168.795 761.276,-175.75"/>
</g>
<!-- Node8 -->
<g id="node8" class="node"><title>Node8</title>
<g id="a_node8"><a xlink:href="class_urho3_d_1_1_node.html#aa0f97335ff8b25e10e0a89ee9a87a253" target="_top" xlink:title="Return rotation in world space. ">
<polygon fill="none" stroke="black" points="770,-114.5 770,-133.5 934,-133.5 934,-114.5 770,-114.5"/>
<text text-anchor="middle" x="852" y="-121.5" font-family="Helvetica,sans-Serif" font-size="10.00">Urho3D::Node::GetWorldRotation</text>
</a>
</g>
</g>
<!-- Node5&#45;&gt;Node8 -->
<g id="edge8" class="edge"><title>Node5&#45;&gt;Node8</title>
<path fill="none" stroke="midnightblue" d="M695.719,-168.902C717.263,-160.606 744.905,-150.507 770,-143 778.345,-140.504 787.253,-138.129 795.996,-135.958"/>
<polygon fill="midnightblue" stroke="midnightblue" points="796.862,-139.349 805.759,-133.596 795.216,-132.545 796.862,-139.349"/>
</g>
<!-- Node9 -->
<g id="node9" class="node"><title>Node9</title>
<g id="a_node9"><a xlink:href="class_urho3_d_1_1_node.html#a96978345db2ceb1a473bb43f0024dbe7" target="_top" xlink:title="Return component by type. If there are several, returns the first. ">
<polygon fill="none" stroke="red" points="776,-0.5 776,-19.5 928,-19.5 928,-0.5 776,-0.5"/>
<text text-anchor="middle" x="852" y="-7.5" font-family="Helvetica,sans-Serif" font-size="10.00">Urho3D::Node::GetComponent</text>
</a>
</g>
</g>
<!-- Node5&#45;&gt;Node9 -->
<g id="edge9" class="edge"><title>Node5&#45;&gt;Node9</title>
<path fill="none" stroke="midnightblue" d="M673.914,-168.959C690.309,-152.917 715.949,-126.252 734,-100 754.046,-70.8466 742.18,-50.8585 770,-29 772.289,-27.2013 774.72,-25.568 777.256,-24.0853"/>
<polygon fill="midnightblue" stroke="midnightblue" points="778.849,-27.2022 786.231,-19.6025 775.721,-20.9399 778.849,-27.2022"/>
</g>
<!-- Node10 -->
<g id="node10" class="node"><title>Node10</title>
<g id="a_node10"><a xlink:href="class_urho3_d_1_1_component.html#aaf7a7d9aea4ae4bcc527a5f0c33f3f1a" target="_top" xlink:title="Return scene node. ">
<polygon fill="none" stroke="black" points="795.5,-338 795.5,-368 908.5,-368 908.5,-338 795.5,-338"/>
<text text-anchor="start" x="803.5" y="-356" font-family="Helvetica,sans-Serif" font-size="10.00">Urho3D::Component::</text>
<text text-anchor="middle" x="852" y="-345" font-family="Helvetica,sans-Serif" font-size="10.00">GetNode</text>
</a>
</g>
</g>
<!-- Node5&#45;&gt;Node10 -->
<g id="edge10" class="edge"><title>Node5&#45;&gt;Node10</title>
<path fill="none" stroke="midnightblue" d="M713.612,-199.079C721.18,-202.985 728.293,-207.878 734,-214 770.231,-252.864 732.307,-290.552 770,-328 774.59,-332.561 779.994,-336.292 785.795,-339.345"/>
<polygon fill="midnightblue" stroke="midnightblue" points="784.626,-342.658 795.179,-343.605 787.52,-336.284 784.626,-342.658"/>
</g>
<!-- Node11 -->
<g id="node11" class="node"><title>Node11</title>
<g id="a_node11"><a xlink:href="class_urho3_d_1_1_node.html#a3c19eb87f2855894c1757659ede5a509" target="_top" xlink:title="Return name. ">
<polygon fill="none" stroke="black" points="788,-76.5 788,-95.5 916,-95.5 916,-76.5 788,-76.5"/>
<text text-anchor="middle" x="852" y="-83.5" font-family="Helvetica,sans-Serif" font-size="10.00">Urho3D::Node::GetName</text>
</a>
</g>
</g>
<!-- Node5&#45;&gt;Node11 -->
<g id="edge11" class="edge"><title>Node5&#45;&gt;Node11</title>
<path fill="none" stroke="midnightblue" d="M674.935,-168.858C695.82,-150.978 733.103,-121.581 770,-105 775.62,-102.474 781.616,-100.263 787.707,-98.331"/>
<polygon fill="midnightblue" stroke="midnightblue" points="788.7,-101.687 797.315,-95.5204 786.735,-94.9687 788.7,-101.687"/>
</g>
<!-- Node12 -->
<g id="node12" class="node"><title>Node12</title>
<g id="a_node12"><a xlink:href="class_urho3_d_1_1_string.html#a6b405eba451da6c0f216a8649adf79aa" target="_top" xlink:title="Return the C string. ">
<polygon fill="none" stroke="black" points="791.5,-38.5 791.5,-57.5 912.5,-57.5 912.5,-38.5 791.5,-38.5"/>
<text text-anchor="middle" x="852" y="-45.5" font-family="Helvetica,sans-Serif" font-size="10.00">Urho3D::String::CString</text>
</a>
</g>
</g>
<!-- Node5&#45;&gt;Node12 -->
<g id="edge12" class="edge"><title>Node5&#45;&gt;Node12</title>
<path fill="none" stroke="midnightblue" d="M671.601,-168.858C698.739,-138.786 758.035,-73.832 770,-67 773.916,-64.7641 778.081,-62.7909 782.377,-61.0497"/>
<polygon fill="midnightblue" stroke="midnightblue" points="783.726,-64.2839 791.944,-57.5964 781.349,-57.6997 783.726,-64.2839"/>
</g>
<!-- Node13 -->
<g id="node13" class="node"><title>Node13</title>
<g id="a_node13"><a xlink:href="class_urho3_d_1_1_i_k_effector.html#ac0dd6e86c446116462d1732946952825" target="_top" xlink:title="Intended to be used only by IKSolver. ">
<polygon fill="none" stroke="black" points="801.5,-289 801.5,-319 902.5,-319 902.5,-289 801.5,-289"/>
<text text-anchor="start" x="809.5" y="-307" font-family="Helvetica,sans-Serif" font-size="10.00">Urho3D::IKEffector</text>
<text text-anchor="middle" x="852" y="-296" font-family="Helvetica,sans-Serif" font-size="10.00">::SetIKSolver</text>
</a>
</g>
</g>
<!-- Node5&#45;&gt;Node13 -->
<g id="edge13" class="edge"><title>Node5&#45;&gt;Node13</title>
<path fill="none" stroke="midnightblue" d="M710.218,-199.021C718.761,-202.989 727.071,-207.917 734,-214 758.817,-235.787 744.367,-258.179 770,-279 776.416,-284.211 783.915,-288.34 791.714,-291.609"/>
<polygon fill="midnightblue" stroke="midnightblue" points="790.73,-294.977 801.322,-295.186 793.172,-288.417 790.73,-294.977"/>
</g>
<!-- Node14 -->
<g id="node14" class="node"><title>Node14</title>
<g id="a_node14"><a xlink:href="class_urho3_d_1_1_i_k_effector.html#a09db0f188e5400c909d922a73c969116" target="_top" xlink:title="Intended to be used only by IKSolver. ">
<polygon fill="none" stroke="black" points="799.5,-240 799.5,-270 904.5,-270 904.5,-240 799.5,-240"/>
<text text-anchor="start" x="807.5" y="-258" font-family="Helvetica,sans-Serif" font-size="10.00">Urho3D::IKEffector</text>
<text text-anchor="middle" x="852" y="-247" font-family="Helvetica,sans-Serif" font-size="10.00">::SetIKEffectorNode</text>
</a>
</g>
</g>
<!-- Node5&#45;&gt;Node14 -->
<g id="edge14" class="edge"><title>Node5&#45;&gt;Node14</title>
<path fill="none" stroke="midnightblue" d="M697.182,-199.101C709.052,-203.774 722.096,-209.008 734,-214 750.147,-220.771 753.606,-223.852 770,-230 776.296,-232.361 782.924,-234.676 789.566,-236.885"/>
<polygon fill="midnightblue" stroke="midnightblue" points="788.677,-240.276 799.27,-240.04 790.842,-233.62 788.677,-240.276"/>
</g>
<!-- Node15 -->
<g id="node15" class="node"><title>Node15</title>
<g id="a_node15"><a xlink:href="class_urho3_d_1_1_i_k_constraint.html#a46f02fc8f472d9675e60bd01a1ac4344" target="_top" xlink:title="Intended to be used only by IKSolver. ">
<polygon fill="none" stroke="black" points="794,-191 794,-221 910,-221 910,-191 794,-191"/>
<text text-anchor="start" x="802" y="-209" font-family="Helvetica,sans-Serif" font-size="10.00">Urho3D::IKConstraint</text>
<text text-anchor="middle" x="852" y="-198" font-family="Helvetica,sans-Serif" font-size="10.00">::SetIKConstraintNode</text>
</a>
</g>
</g>
<!-- Node5&#45;&gt;Node15 -->
<g id="edge15" class="edge"><title>Node5&#45;&gt;Node15</title>
<path fill="none" stroke="midnightblue" d="M721.73,-191.265C741.643,-193.534 763.669,-196.045 783.811,-198.341"/>
<polygon fill="midnightblue" stroke="midnightblue" points="783.508,-201.829 793.84,-199.484 784.301,-194.874 783.508,-201.829"/>
</g>
<!-- Node17&#45;&gt;Node9 -->
<g id="edge19" class="edge"><title>Node17&#45;&gt;Node9</title>
<path fill="none" stroke="midnightblue" d="M529.476,-250.979C534.726,-248.198 539.67,-244.904 544,-241 573.563,-214.35 554.597,-189.641 580,-159 645.305,-80.2317 676.376,-70.2751 770,-29 775.725,-26.4763 781.831,-24.2627 788.025,-22.3265"/>
<polygon fill="midnightblue" stroke="midnightblue" points="789.154,-25.6437 797.791,-19.5075 787.212,-18.9183 789.154,-25.6437"/>
</g>
<!-- Node17&#45;&gt;Node10 -->
<g id="edge18" class="edge"><title>Node17&#45;&gt;Node10</title>
<path fill="none" stroke="midnightblue" d="M540.169,-250.951C608.257,-238.864 703.102,-226.92 734,-247 767.033,-268.467 740.538,-301.847 770,-328 774.767,-332.232 780.24,-335.747 786.043,-338.667"/>
<polygon fill="midnightblue" stroke="midnightblue" points="784.818,-341.952 795.38,-342.784 787.642,-335.547 784.818,-341.952"/>
</g>
<!-- Node18 -->
<g id="node18" class="node"><title>Node18</title>
<g id="a_node18"><a xlink:href="class_urho3_d_1_1_node.html#ae2f6e5318815bc21dd93febb3dc5b95e" target="_top" xlink:title="Return parent scene node. ">
<polygon fill="none" stroke="black" points="592,-256.5 592,-275.5 722,-275.5 722,-256.5 592,-256.5"/>
<text text-anchor="middle" x="657" y="-263.5" font-family="Helvetica,sans-Serif" font-size="10.00">Urho3D::Node::GetParent</text>
</a>
</g>
</g>
<!-- Node17&#45;&gt;Node18 -->
<g id="edge20" class="edge"><title>Node17&#45;&gt;Node18</title>
<path fill="none" stroke="midnightblue" d="M540.003,-266C553.62,-266 567.843,-266 581.476,-266"/>
<polygon fill="midnightblue" stroke="midnightblue" points="581.766,-269.5 591.766,-266 581.766,-262.5 581.766,-269.5"/>
</g>
<!-- Node19&#45;&gt;Node5 -->
<g id="edge30" class="edge"><title>Node19&#45;&gt;Node5</title>
<path fill="none" stroke="midnightblue" d="M530.027,-348.956C535.099,-346.181 539.854,-342.894 544,-339 576.007,-308.943 554.28,-282.587 580,-247 591.749,-230.744 608.639,-216.185 623.514,-205.168"/>
<polygon fill="midnightblue" stroke="midnightblue" points="625.89,-207.771 631.985,-199.105 621.816,-202.079 625.89,-207.771"/>
</g>
<!-- Node19&#45;&gt;Node6 -->
<g id="edge23" class="edge"><title>Node19&#45;&gt;Node6</title>
<path fill="none" stroke="midnightblue" d="M526.191,-379.03C532.481,-381.828 538.556,-385.124 544,-389 565.723,-404.467 556.149,-425.074 580,-437 655.729,-474.864 758.771,-454.112 813.398,-438.405"/>
<polygon fill="midnightblue" stroke="midnightblue" points="814.429,-441.75 823.017,-435.546 812.434,-435.04 814.429,-441.75"/>
</g>
<!-- Node19&#45;&gt;Node10 -->
<g id="edge22" class="edge"><title>Node19&#45;&gt;Node10</title>
<path fill="none" stroke="midnightblue" d="M515.795,-348.927C525.226,-345.823 534.964,-342.444 544,-339 560.361,-332.763 562.872,-326.635 580,-323 646.953,-308.792 666.094,-314.433 734,-323 753.842,-325.503 775.14,-330.305 794.053,-335.346"/>
<polygon fill="midnightblue" stroke="midnightblue" points="793.137,-338.724 803.706,-337.993 794.988,-331.973 793.137,-338.724"/>
</g>
<!-- Node19&#45;&gt;Node18 -->
<g id="edge25" class="edge"><title>Node19&#45;&gt;Node18</title>
<path fill="none" stroke="midnightblue" d="M526.631,-348.844C532.77,-346.075 538.69,-342.82 544,-339 565.936,-323.218 558.03,-305.735 580,-290 586.032,-285.68 592.872,-282.116 599.917,-279.182"/>
<polygon fill="midnightblue" stroke="midnightblue" points="601.455,-282.343 609.593,-275.559 599.001,-275.788 601.455,-282.343"/>
</g>
<!-- Node20 -->
<g id="node20" class="node"><title>Node20</title>
<g id="a_node20"><a xlink:href="class_urho3_d_1_1_p_o_d_vector.html#a3eb78093c096ab9e9d68595facc56470" target="_top" xlink:title="Add an element at the end. ">
<polygon fill="none" stroke="black" points="589.5,-408.5 589.5,-427.5 724.5,-427.5 724.5,-408.5 589.5,-408.5"/>
<text text-anchor="middle" x="657" y="-415.5" font-family="Helvetica,sans-Serif" font-size="10.00">Urho3D::PODVector::Push</text>
</a>
</g>
</g>
<!-- Node19&#45;&gt;Node20 -->
<g id="edge24" class="edge"><title>Node19&#45;&gt;Node20</title>
<path fill="none" stroke="midnightblue" d="M512.981,-379.036C533.488,-385.44 557.861,-392.839 580,-399 588.473,-401.358 597.514,-403.737 606.296,-405.976"/>
<polygon fill="midnightblue" stroke="midnightblue" points="605.506,-409.386 616.058,-408.436 607.216,-402.598 605.506,-409.386"/>
</g>
<!-- Node21 -->
<g id="node21" class="node"><title>Node21</title>
<g id="a_node21"><a xlink:href="class_urho3_d_1_1_node.html#a4afbcf5a6fce4ab11ed2a6ba1c9b90cd" target="_top" xlink:title="Return whether has a specific component. ">
<polygon fill="none" stroke="black" points="580,-370.5 580,-389.5 734,-389.5 734,-370.5 580,-370.5"/>
<text text-anchor="middle" x="657" y="-377.5" font-family="Helvetica,sans-Serif" font-size="10.00">Urho3D::Node::HasComponent</text>
</a>
</g>
</g>
<!-- Node19&#45;&gt;Node21 -->
<g id="edge26" class="edge"><title>Node19&#45;&gt;Node21</title>
<path fill="none" stroke="midnightblue" d="M535.67,-369.867C546.811,-370.805 558.452,-371.785 569.919,-372.751"/>
<polygon fill="midnightblue" stroke="midnightblue" points="569.676,-376.243 579.934,-373.594 570.263,-369.268 569.676,-376.243"/>
</g>
<!-- Node22 -->
<g id="node22" class="node"><title>Node22</title>
<g id="a_node22"><a xlink:href="class_urho3_d_1_1_p_o_d_vector.html#a4fe0251ca70afca844721a4a44717c83" target="_top" xlink:title="Return number of elements. ">
<polygon fill="none" stroke="black" points="591,-332.5 591,-351.5 723,-351.5 723,-332.5 591,-332.5"/>
<text text-anchor="middle" x="657" y="-339.5" font-family="Helvetica,sans-Serif" font-size="10.00">Urho3D::PODVector::Size</text>
</a>
</g>
</g>
<!-- Node19&#45;&gt;Node22 -->
<g id="edge27" class="edge"><title>Node19&#45;&gt;Node22</title>
<path fill="none" stroke="midnightblue" d="M535.67,-355.933C550.299,-354.239 565.792,-352.445 580.619,-350.728"/>
<polygon fill="midnightblue" stroke="midnightblue" points="581.227,-354.181 590.758,-349.554 580.422,-347.228 581.227,-354.181"/>
</g>
<!-- Node23 -->
<g id="node23" class="node"><title>Node23</title>
<g id="a_node23"><a xlink:href="class_urho3_d_1_1_p_o_d_vector.html#ae5b2d81c68a5669b4d05820082bca924" target="_top" xlink:title="Return last element. ">
<polygon fill="none" stroke="black" points="589.5,-522.5 589.5,-541.5 724.5,-541.5 724.5,-522.5 589.5,-522.5"/>
<text text-anchor="middle" x="657" y="-529.5" font-family="Helvetica,sans-Serif" font-size="10.00">Urho3D::PODVector::Back</text>
</a>
</g>
</g>
<!-- Node19&#45;&gt;Node23 -->
<g id="edge28" class="edge"><title>Node19&#45;&gt;Node23</title>
<path fill="none" stroke="midnightblue" d="M531.157,-379.085C535.864,-381.852 540.232,-385.127 544,-389 584.014,-430.135 538.666,-473.191 580,-513 581.506,-514.451 583.105,-515.795 584.781,-517.042"/>
<polygon fill="midnightblue" stroke="midnightblue" points="583.362,-520.276 593.722,-522.491 587.005,-514.298 583.362,-520.276"/>
</g>
<!-- Node24 -->
<g id="node24" class="node"><title>Node24</title>
<g id="a_node24"><a xlink:href="class_urho3_d_1_1_p_o_d_vector.html#a76e8bca181c0ab7e7ebbe5b325c35aa2" target="_top" xlink:title="Remove the last element. ">
<polygon fill="none" stroke="black" points="592,-484.5 592,-503.5 722,-503.5 722,-484.5 592,-484.5"/>
<text text-anchor="middle" x="657" y="-491.5" font-family="Helvetica,sans-Serif" font-size="10.00">Urho3D::PODVector::Pop</text>
</a>
</g>
</g>
<!-- Node19&#45;&gt;Node24 -->
<g id="edge29" class="edge"><title>Node19&#45;&gt;Node24</title>
<path fill="none" stroke="midnightblue" d="M529.457,-379.042C534.711,-381.818 539.661,-385.106 544,-389 573.32,-415.312 550.623,-443.751 580,-470 584.672,-474.175 590.069,-477.623 595.789,-480.472"/>
<polygon fill="midnightblue" stroke="midnightblue" points="594.418,-483.693 604.984,-484.474 597.211,-477.274 594.418,-483.693"/>
</g>
</g>
</svg>
        <g id="navigator" transform="translate(0 0)" fill="#404254">
                <rect fill="#f2f5e9" fill-opacity="0.5" stroke="#606060" stroke-width=".5" x="0" y="0" width="60" height="60"/>
                <use id="zoomplus" xlink:href="#zoomPlus" x="17" y="9" onmousedown="handleZoom(evt,'in')"/>
                <use id="zoomminus" xlink:href="#zoomMin" x="42" y="9" onmousedown="handleZoom(evt,'out')"/>
                <use id="reset" xlink:href="#resetDef" x="30" y="36" onmousedown="handleReset()"/>
                <g id="arrowUp" xlink:href="#dirArrow" transform="translate(30 24)" onmousedown="handlePan(0,-1)">
                  <use xlink:href="#rim" fill="#404040">
                        <set attributeName="fill" to="#808080" begin="arrowUp.mouseover" end="arrowUp.mouseout"/>
                  </use>
                  <path fill="none" stroke="white" stroke-width="1.5" d="M0,-3.0v7 M-2.5,-0.5L0,-3.0L2.5,-0.5"/>
                </g>
                <g id="arrowRight" xlink:href="#dirArrow" transform="rotate(90) translate(36 -43)" onmousedown="handlePan(1,0)">
                  <use xlink:href="#rim" fill="#404040">
                        <set attributeName="fill" to="#808080" begin="arrowRight.mouseover" end="arrowRight.mouseout"/>
                  </use>
                  <path fill="none" stroke="white" stroke-width="1.5" d="M0,-3.0v7 M-2.5,-0.5L0,-3.0L2.5,-0.5"/>
                </g>
                <g id="arrowDown" xlink:href="#dirArrow" transform="rotate(180) translate(-30 -48)" onmousedown="handlePan(0,1)">
                  <use xlink:href="#rim" fill="#404040">
                        <set attributeName="fill" to="#808080" begin="arrowDown.mouseover" end="arrowDown.mouseout"/>
                  </use>
                  <path fill="none" stroke="white" stroke-width="1.5" d="M0,-3.0v7 M-2.5,-0.5L0,-3.0L2.5,-0.5"/>
                </g>
                <g id="arrowLeft" xlink:href="#dirArrow" transform="rotate(270) translate(-36 17)" onmousedown="handlePan(-1,0)">
                  <use xlink:href="#rim" fill="#404040">
                        <set attributeName="fill" to="#808080" begin="arrowLeft.mouseover" end="arrowLeft.mouseout"/>
                  </use>
                  <path fill="none" stroke="white" stroke-width="1.5" d="M0,-3.0v7 M-2.5,-0.5L0,-3.0L2.5,-0.5"/>
                </g>
        </g>
        <svg viewBox="0 0 15 15" width="100%" height="30px" preserveAspectRatio="xMaxYMin meet">
         <g id="arrow_out" transform="scale(0.3 0.3)">
          <a xlink:href="class_urho3_d_1_1_i_k_solver_a78158a230b7e123b9ca73f82d51824d5_cgraph_org.svg" target="_base">
           <rect id="button" ry="5" rx="5" y="6" x="6" height="38" width="38"
                fill="#f2f5e9" fill-opacity="0.5" stroke="#606060" stroke-width="1.0"/>
           <path id="arrow"
             d="M 11.500037,31.436501 C 11.940474,20.09759 22.043105,11.32322 32.158766,21.979434 L 37.068811,17.246167 C 37.068811,17.246167 37.088388,32 37.088388,32 L 22.160133,31.978069 C 22.160133,31.978069 26.997745,27.140456 26.997745,27.140456 C 18.528582,18.264221 13.291696,25.230495 11.500037,31.436501 z"
             style="fill:#404040;"/>
          </a>
         </g>
        </svg>
</svg>
