<?xml version="1.0" encoding="UTF-8" standalone="no"?>
<!DOCTYPE svg PUBLIC "-//W3C//DTD SVG 1.1//EN"
 "http://www.w3.org/Graphics/SVG/1.1/DTD/svg11.dtd">
<!-- Generated by graphviz version 2.40.1 (20161225.0304)
 -->
<!-- Title: Source/Urho3D/UI/UI.h Pages: 1 -->
<svg width="141pt" height="364pt"
 viewBox="0.00 0.00 141.00 364.00" xmlns="http://www.w3.org/2000/svg" xmlns:xlink="http://www.w3.org/1999/xlink">
<g id="graph0" class="graph" transform="scale(1 1) rotate(0) translate(4 360)">
<title>Source/Urho3D/UI/UI.h</title>
<!-- Node0 -->
<g id="node1" class="node">
<title>Node0</title>
<polygon fill="#bfbfbf" stroke="#000000" points="4,-336.5 4,-355.5 129,-355.5 129,-336.5 4,-336.5"/>
<text text-anchor="middle" x="66.5" y="-343.5" font-family="Helvetica,sans-Serif" font-size="10.00" fill="#000000">Source/Urho3D/UI/UI.h</text>
</g>
<!-- Node1 -->
<g id="node2" class="node">
<title>Node1</title>
<g id="a_node2"><a xlink:href="_cursor_8h.html" target="_top" xlink:title="../UI/Cursor.h">
<polygon fill="none" stroke="#000000" points="27,-280.5 27,-299.5 106,-299.5 106,-280.5 27,-280.5"/>
<text text-anchor="middle" x="66.5" y="-287.5" font-family="Helvetica,sans-Serif" font-size="10.00" fill="#000000">../UI/Cursor.h</text>
</a>
</g>
</g>
<!-- Node0&#45;&gt;Node1 -->
<g id="edge1" class="edge">
<title>Node0&#45;&gt;Node1</title>
<path fill="none" stroke="#191970" d="M66.5,-336.2455C66.5,-328.9382 66.5,-318.6944 66.5,-309.7046"/>
<polygon fill="#191970" stroke="#191970" points="70.0001,-309.6426 66.5,-299.6427 63.0001,-309.6427 70.0001,-309.6426"/>
</g>
<!-- Node2 -->
<g id="node3" class="node">
<title>Node2</title>
<g id="a_node3"><a xlink:href="_image_8h.html" target="_top" xlink:title="../Resource/Image.h">
<polygon fill="none" stroke="#000000" points="10,-224.5 10,-243.5 123,-243.5 123,-224.5 10,-224.5"/>
<text text-anchor="middle" x="66.5" y="-231.5" font-family="Helvetica,sans-Serif" font-size="10.00" fill="#000000">../Resource/Image.h</text>
</a>
</g>
</g>
<!-- Node1&#45;&gt;Node2 -->
<g id="edge2" class="edge">
<title>Node1&#45;&gt;Node2</title>
<path fill="none" stroke="#191970" d="M66.5,-280.2455C66.5,-272.9382 66.5,-262.6944 66.5,-253.7046"/>
<polygon fill="#191970" stroke="#191970" points="70.0001,-253.6426 66.5,-243.6427 63.0001,-253.6427 70.0001,-253.6426"/>
</g>
<!-- Node3 -->
<g id="node4" class="node">
<title>Node3</title>
<g id="a_node4"><a xlink:href="_resource_8h.html" target="_top" xlink:title="../Resource/Resource.h">
<polygon fill="none" stroke="#000000" points="3.5,-168.5 3.5,-187.5 129.5,-187.5 129.5,-168.5 3.5,-168.5"/>
<text text-anchor="middle" x="66.5" y="-175.5" font-family="Helvetica,sans-Serif" font-size="10.00" fill="#000000">../Resource/Resource.h</text>
</a>
</g>
</g>
<!-- Node2&#45;&gt;Node3 -->
<g id="edge3" class="edge">
<title>Node2&#45;&gt;Node3</title>
<path fill="none" stroke="#191970" d="M66.5,-224.2455C66.5,-216.9382 66.5,-206.6944 66.5,-197.7046"/>
<polygon fill="#191970" stroke="#191970" points="70.0001,-197.6426 66.5,-187.6427 63.0001,-197.6427 70.0001,-197.6426"/>
</g>
<!-- Node4 -->
<g id="node5" class="node">
<title>Node4</title>
<g id="a_node5"><a xlink:href="_j_s_o_n_value_8h.html" target="_top" xlink:title="../Resource/JSONValue.h">
<polygon fill="none" stroke="#000000" points="0,-112.5 0,-131.5 133,-131.5 133,-112.5 0,-112.5"/>
<text text-anchor="middle" x="66.5" y="-119.5" font-family="Helvetica,sans-Serif" font-size="10.00" fill="#000000">../Resource/JSONValue.h</text>
</a>
</g>
</g>
<!-- Node3&#45;&gt;Node4 -->
<g id="edge4" class="edge">
<title>Node3&#45;&gt;Node4</title>
<path fill="none" stroke="#191970" d="M66.5,-168.2455C66.5,-160.9382 66.5,-150.6944 66.5,-141.7046"/>
<polygon fill="#191970" stroke="#191970" points="70.0001,-141.6426 66.5,-131.6427 63.0001,-141.6427 70.0001,-141.6426"/>
</g>
<!-- Node5 -->
<g id="node6" class="node">
<title>Node5</title>
<g id="a_node6"><a xlink:href="_variant_8h.html" target="_top" xlink:title="../Core/Variant.h">
<polygon fill="none" stroke="#000000" points="19,-56.5 19,-75.5 114,-75.5 114,-56.5 19,-56.5"/>
<text text-anchor="middle" x="66.5" y="-63.5" font-family="Helvetica,sans-Serif" font-size="10.00" fill="#000000">../Core/Variant.h</text>
</a>
</g>
</g>
<!-- Node4&#45;&gt;Node5 -->
<g id="edge5" class="edge">
<title>Node4&#45;&gt;Node5</title>
<path fill="none" stroke="#191970" d="M66.5,-112.2455C66.5,-104.9382 66.5,-94.6944 66.5,-85.7046"/>
<polygon fill="#191970" stroke="#191970" points="70.0001,-85.6426 66.5,-75.6427 63.0001,-85.6427 70.0001,-85.6426"/>
</g>
<!-- Node6 -->
<g id="node7" class="node">
<title>Node6</title>
<polygon fill="none" stroke="#bfbfbf" points="38,-.5 38,-19.5 95,-19.5 95,-.5 38,-.5"/>
<text text-anchor="middle" x="66.5" y="-7.5" font-family="Helvetica,sans-Serif" font-size="10.00" fill="#000000">typeinfo</text>
</g>
<!-- Node5&#45;&gt;Node6 -->
<g id="edge6" class="edge">
<title>Node5&#45;&gt;Node6</title>
<path fill="none" stroke="#191970" d="M66.5,-56.2455C66.5,-48.9382 66.5,-38.6944 66.5,-29.7046"/>
<polygon fill="#191970" stroke="#191970" points="70.0001,-29.6426 66.5,-19.6427 63.0001,-29.6427 70.0001,-29.6426"/>
</g>
</g>
</svg>
