<?xml version="1.0" encoding="UTF-8" standalone="no"?>
<!DOCTYPE svg PUBLIC "-//W3C//DTD SVG 1.1//EN"
 "http://www.w3.org/Graphics/SVG/1.1/DTD/svg11.dtd">
<!-- Generated by graphviz version 2.36.0 (20140111.2315)
 -->
<!-- Title: Urho3D::ConstraintMotor2D Pages: 1 -->
<!--zoomable 640 -->
<svg id="main" version="1.1" xmlns="http://www.w3.org/2000/svg" xmlns:xlink="http://www.w3.org/1999/xlink" xml:space="preserve" onload="init(evt)">
<style type="text/css"><![CDATA[
.edge:hover path { stroke: red; }
.edge:hover polygon { stroke: red; fill: red; }
]]></style>
<script type="text/javascript"><![CDATA[
var edges = document.getElementsByTagName('g');
if (edges && edges.length) {
  for (var i=0;i<edges.length;i++) {
    if (edges[i].id.substr(0,4)=='edge') {
      edges[i].setAttribute('class','edge');
    }
  }
}
]]></script>
        <defs>
                <circle id="rim" cx="0" cy="0" r="7"/>
                <circle id="rim2" cx="0" cy="0" r="3.5"/>
                <g id="zoomPlus">
                        <use xlink:href="#rim" fill="#404040">
                                <set attributeName="fill" to="#808080" begin="zoomplus.mouseover" end="zoomplus.mouseout"/>
                        </use>
                        <path d="M-4,0h8M0,-4v8" fill="none" stroke="white" stroke-width="1.5" pointer-events="none"/>
                </g>
                <g id="zoomMin">
                        <use xlink:href="#rim" fill="#404040">
                                <set attributeName="fill" to="#808080" begin="zoomminus.mouseover" end="zoomminus.mouseout"/>
                        </use>
                        <path d="M-4,0h8" fill="none" stroke="white" stroke-width="1.5" pointer-events="none"/>
                </g>
                <g id="dirArrow">
                        <path fill="none" stroke="white" stroke-width="1.5" d="M0,-3.0v7 M-2.5,-0.5L0,-3.0L2.5,-0.5"/>
                </g>
               <g id="resetDef">
                       <use xlink:href="#rim2" fill="#404040">
                               <set attributeName="fill" to="#808080" begin="reset.mouseover" end="reset.mouseout"/>
                       </use>
               </g>
        </defs>

<script type="text/javascript">
var viewWidth = 2412;
var viewHeight = 640;
var sectionId = 'dynsection-1';
</script>
<script xlink:href="svgpan.js"/>
<svg id="graph" class="graph">
<g id="viewport">
<title>Urho3D::ConstraintMotor2D</title>
<!-- Node1 -->
<g id="node1" class="node"><title>Node1</title>
<polygon fill="#bfbfbf" stroke="black" points="2254,-367.5 2254,-386.5 2404,-386.5 2404,-367.5 2254,-367.5"/>
<text text-anchor="middle" x="2329" y="-374.5" font-family="FreeSans" font-size="10.00">Urho3D::ConstraintMotor2D</text>
</g>
<!-- Node2 -->
<g id="node2" class="node"><title>Node2</title>
<g id="a_node2"><a xlink:href="class_urho3_d_1_1_constraint2_d.html" target="_top" xlink:title="2D physics constraint component. ">
<polygon fill="none" stroke="black" points="1994,-422.5 1994,-441.5 2116,-441.5 2116,-422.5 1994,-422.5"/>
<text text-anchor="middle" x="2055" y="-429.5" font-family="FreeSans" font-size="10.00">Urho3D::Constraint2D</text>
</a>
</g>
</g>
<!-- Node2&#45;&gt;Node1 -->
<g id="edge1" class="edge"><title>Node2&#45;&gt;Node1</title>
<path fill="none" stroke="midnightblue" d="M2113.02,-420.47C2162.72,-410.42 2233.96,-396.015 2280.6,-386.585"/>
<polygon fill="midnightblue" stroke="midnightblue" points="2112.18,-417.07 2103.07,-422.483 2113.56,-423.931 2112.18,-417.07"/>
</g>
<!-- Node25 -->
<g id="node25" class="node"><title>Node25</title>
<g id="a_node25"><a xlink:href="class_urho3_d_1_1_weak_ptr.html" target="_top" xlink:title="Urho3D::WeakPtr\&lt; Urho3D\l::Constraint2D \&gt;">
<polygon fill="none" stroke="black" points="2256,-451 2256,-481 2402,-481 2402,-451 2256,-451"/>
<text text-anchor="start" x="2264" y="-469" font-family="FreeSans" font-size="10.00">Urho3D::WeakPtr&lt; Urho3D</text>
<text text-anchor="middle" x="2329" y="-458" font-family="FreeSans" font-size="10.00">::Constraint2D &gt;</text>
</a>
</g>
</g>
<!-- Node2&#45;&gt;Node25 -->
<g id="edge37" class="edge"><title>Node2&#45;&gt;Node25</title>
<path fill="none" stroke="#9a32cd" stroke-dasharray="5,2" d="M2125.94,-442.897C2128.66,-443.277 2131.35,-443.647 2134,-444 2174.15,-449.363 2219.09,-454.513 2255.6,-458.48"/>
<polygon fill="#9a32cd" stroke="#9a32cd" points="2126.4,-439.428 2116.01,-441.478 2125.41,-446.358 2126.4,-439.428"/>
<text text-anchor="middle" x="2185" y="-460" font-family="FreeSans" font-size="10.00"> ptr_</text>
</g>
<!-- Node3 -->
<g id="node3" class="node"><title>Node3</title>
<g id="a_node3"><a xlink:href="class_urho3_d_1_1_component.html" target="_top" xlink:title="Base class for components. Components can be created to scene nodes. ">
<polygon fill="none" stroke="black" points="862,-467.5 862,-486.5 978,-486.5 978,-467.5 862,-467.5"/>
<text text-anchor="middle" x="920" y="-474.5" font-family="FreeSans" font-size="10.00">Urho3D::Component</text>
</a>
</g>
</g>
<!-- Node3&#45;&gt;Node2 -->
<g id="edge2" class="edge"><title>Node3&#45;&gt;Node2</title>
<path fill="none" stroke="midnightblue" d="M973.237,-462.023C974.92,-460.786 976.517,-459.448 978,-458 994.898,-441.499 977.457,-422.629 996,-408 1040.24,-373.101 1065.66,-394 1122,-394 1122,-394 1122,-394 1828,-394 1896.43,-394 1974.93,-411.154 2019.07,-422.411"/>
<polygon fill="midnightblue" stroke="midnightblue" points="971.022,-459.268 964.221,-467.392 974.603,-465.282 971.022,-459.268"/>
</g>
<!-- Node20 -->
<g id="node20" class="node"><title>Node20</title>
<g id="a_node20"><a xlink:href="class_urho3_d_1_1_rigid_body2_d.html" target="_top" xlink:title="2D rigid body component. ">
<polygon fill="none" stroke="red" points="1528.5,-475.5 1528.5,-494.5 1647.5,-494.5 1647.5,-475.5 1528.5,-475.5"/>
<text text-anchor="middle" x="1588" y="-482.5" font-family="FreeSans" font-size="10.00">Urho3D::RigidBody2D</text>
</a>
</g>
</g>
<!-- Node3&#45;&gt;Node20 -->
<g id="edge27" class="edge"><title>Node3&#45;&gt;Node20</title>
<path fill="none" stroke="midnightblue" d="M988.33,-477.809C1118.89,-479.377 1404.46,-482.807 1528.05,-484.292"/>
<polygon fill="midnightblue" stroke="midnightblue" points="988.112,-474.306 978.071,-477.686 988.028,-481.305 988.112,-474.306"/>
</g>
<!-- Node22 -->
<g id="node22" class="node"><title>Node22</title>
<g id="a_node22"><a xlink:href="class_urho3_d_1_1_physics_world2_d.html" target="_top" xlink:title="2D physics simulation world component. Should be added only to the root scene node. ">
<polygon fill="none" stroke="red" points="1056,-422.5 1056,-441.5 1190,-441.5 1190,-422.5 1056,-422.5"/>
<text text-anchor="middle" x="1123" y="-429.5" font-family="FreeSans" font-size="10.00">Urho3D::PhysicsWorld2D</text>
</a>
</g>
</g>
<!-- Node3&#45;&gt;Node22 -->
<g id="edge30" class="edge"><title>Node3&#45;&gt;Node22</title>
<path fill="none" stroke="midnightblue" d="M973.554,-465.234C1006.54,-457.848 1048.54,-448.447 1079.43,-441.53"/>
<polygon fill="midnightblue" stroke="midnightblue" points="972.621,-461.856 963.627,-467.457 974.15,-468.687 972.621,-461.856"/>
</g>
<!-- Node4 -->
<g id="node4" class="node"><title>Node4</title>
<g id="a_node4"><a xlink:href="class_urho3_d_1_1_animatable.html" target="_top" xlink:title="Base class for animatable object, an animatable object can be set animation on it&#39;s attributes...">
<polygon fill="none" stroke="black" points="425,-536.5 425,-555.5 539,-555.5 539,-536.5 425,-536.5"/>
<text text-anchor="middle" x="482" y="-543.5" font-family="FreeSans" font-size="10.00">Urho3D::Animatable</text>
</a>
</g>
</g>
<!-- Node4&#45;&gt;Node3 -->
<g id="edge3" class="edge"><title>Node4&#45;&gt;Node3</title>
<path fill="none" stroke="midnightblue" d="M549.32,-536.379C588.519,-530.623 639.114,-523.074 684,-516 745.279,-506.343 815.427,-494.613 863.013,-486.555"/>
<polygon fill="midnightblue" stroke="midnightblue" points="548.74,-532.926 539.354,-537.84 549.756,-539.852 548.74,-532.926"/>
</g>
<!-- Node9 -->
<g id="node9" class="node"><title>Node9</title>
<g id="a_node9"><a xlink:href="class_urho3_d_1_1_node.html" target="_top" xlink:title="Scene node that may contain components and child nodes. ">
<polygon fill="none" stroke="black" points="702.5,-249.5 702.5,-268.5 787.5,-268.5 787.5,-249.5 702.5,-249.5"/>
<text text-anchor="middle" x="745" y="-256.5" font-family="FreeSans" font-size="10.00">Urho3D::Node</text>
</a>
</g>
</g>
<!-- Node4&#45;&gt;Node9 -->
<g id="edge9" class="edge"><title>Node4&#45;&gt;Node9</title>
<path fill="none" stroke="midnightblue" d="M549.242,-540.502C594.167,-533.119 651.152,-515.926 684,-476 737.393,-411.104 743.423,-302.155 743.985,-268.922"/>
<polygon fill="midnightblue" stroke="midnightblue" points="548.634,-537.054 539.272,-542.014 549.684,-543.975 548.634,-537.054"/>
</g>
<!-- Node5 -->
<g id="node5" class="node"><title>Node5</title>
<g id="a_node5"><a xlink:href="class_urho3_d_1_1_serializable.html" target="_top" xlink:title="Base class for objects with automatic serialization through attributes. ">
<polygon fill="none" stroke="red" points="44,-612.5 44,-631.5 158,-631.5 158,-612.5 44,-612.5"/>
<text text-anchor="middle" x="101" y="-619.5" font-family="FreeSans" font-size="10.00">Urho3D::Serializable</text>
</a>
</g>
</g>
<!-- Node5&#45;&gt;Node4 -->
<g id="edge4" class="edge"><title>Node5&#45;&gt;Node4</title>
<path fill="none" stroke="midnightblue" d="M168.067,-613.525C220.864,-606.225 296.593,-594.573 362,-580 392.829,-573.131 427.49,-562.94 451.418,-555.507"/>
<polygon fill="midnightblue" stroke="midnightblue" points="167.587,-610.058 158.154,-614.882 168.536,-616.993 167.587,-610.058"/>
</g>
<!-- Node6 -->
<g id="node6" class="node"><title>Node6</title>
<g id="a_node6"><a xlink:href="class_urho3_d_1_1_hash_map.html" target="_top" xlink:title="Urho3D::HashMap\&lt; Urho3D\l::String, Urho3D::SharedPtr\l\&lt; Urho3D::AttributeAnimationInfo \&gt; \&gt;">
<polygon fill="none" stroke="red" points="0.5,-552.5 0.5,-593.5 201.5,-593.5 201.5,-552.5 0.5,-552.5"/>
<text text-anchor="start" x="8.5" y="-581.5" font-family="FreeSans" font-size="10.00">Urho3D::HashMap&lt; Urho3D</text>
<text text-anchor="start" x="8.5" y="-570.5" font-family="FreeSans" font-size="10.00">::String, Urho3D::SharedPtr</text>
<text text-anchor="middle" x="101" y="-559.5" font-family="FreeSans" font-size="10.00">&lt; Urho3D::AttributeAnimationInfo &gt; &gt;</text>
</a>
</g>
</g>
<!-- Node6&#45;&gt;Node4 -->
<g id="edge5" class="edge"><title>Node6&#45;&gt;Node4</title>
<path fill="none" stroke="#9a32cd" stroke-dasharray="5,2" d="M211.741,-565.182C281.534,-560.21 368.983,-553.98 424.931,-549.994"/>
<polygon fill="#9a32cd" stroke="#9a32cd" points="211.304,-561.704 201.578,-565.906 211.801,-568.687 211.304,-561.704"/>
<text text-anchor="middle" x="291" y="-568" font-family="FreeSans" font-size="10.00"> attributeAnimationInfos_</text>
</g>
<!-- Node7 -->
<g id="node7" class="node"><title>Node7</title>
<g id="a_node7"><a xlink:href="class_urho3_d_1_1_shared_ptr.html" target="_top" xlink:title="Urho3D::SharedPtr\&lt;\l Urho3D::ObjectAnimation \&gt;">
<polygon fill="none" stroke="red" points="24.5,-504 24.5,-534 177.5,-534 177.5,-504 24.5,-504"/>
<text text-anchor="start" x="32.5" y="-522" font-family="FreeSans" font-size="10.00">Urho3D::SharedPtr&lt;</text>
<text text-anchor="middle" x="101" y="-511" font-family="FreeSans" font-size="10.00"> Urho3D::ObjectAnimation &gt;</text>
</a>
</g>
</g>
<!-- Node7&#45;&gt;Node4 -->
<g id="edge6" class="edge"><title>Node7&#45;&gt;Node4</title>
<path fill="none" stroke="#9a32cd" stroke-dasharray="5,2" d="M187.819,-525.114C260.357,-530.281 362.177,-537.535 424.751,-541.993"/>
<polygon fill="#9a32cd" stroke="#9a32cd" points="188.009,-521.619 177.785,-524.399 187.511,-528.601 188.009,-521.619"/>
<text text-anchor="middle" x="291" y="-541" font-family="FreeSans" font-size="10.00"> objectAnimation_</text>
</g>
<!-- Node8 -->
<g id="node8" class="node"><title>Node8</title>
<g id="a_node8"><a xlink:href="class_urho3_d_1_1_hash_set.html" target="_top" xlink:title="Urho3D::HashSet\&lt; const\l Urho3D::AttributeInfo * \&gt;">
<polygon fill="none" stroke="red" points="30.5,-455 30.5,-485 171.5,-485 171.5,-455 30.5,-455"/>
<text text-anchor="start" x="38.5" y="-473" font-family="FreeSans" font-size="10.00">Urho3D::HashSet&lt; const</text>
<text text-anchor="middle" x="101" y="-462" font-family="FreeSans" font-size="10.00"> Urho3D::AttributeInfo * &gt;</text>
</a>
</g>
</g>
<!-- Node8&#45;&gt;Node4 -->
<g id="edge7" class="edge"><title>Node8&#45;&gt;Node4</title>
<path fill="none" stroke="#9a32cd" stroke-dasharray="5,2" d="M181.709,-473.692C234.546,-478.399 304.468,-489.035 362,-513 371.11,-516.795 370.952,-522.062 380,-526 394.014,-532.099 409.933,-536.355 424.921,-539.319"/>
<polygon fill="#9a32cd" stroke="#9a32cd" points="181.971,-470.202 171.714,-472.854 181.386,-477.178 181.971,-470.202"/>
<text text-anchor="middle" x="291" y="-516" font-family="FreeSans" font-size="10.00"> animatedNetworkAttributes_</text>
</g>
<!-- Node9&#45;&gt;Node3 -->
<g id="edge8" class="edge"><title>Node9&#45;&gt;Node3</title>
<path fill="none" stroke="#9a32cd" stroke-dasharray="5,2" d="M751.998,-278.208C765.299,-317.696 801.01,-408.438 862,-458 866.776,-461.881 872.378,-464.983 878.172,-467.458"/>
<polygon fill="#9a32cd" stroke="#9a32cd" points="755.263,-276.93 748.839,-268.506 748.607,-279.098 755.263,-276.93"/>
<text text-anchor="middle" x="825" y="-445" font-family="FreeSans" font-size="10.00"> node_</text>
</g>
<!-- Node9&#45;&gt;Node9 -->
<g id="edge21" class="edge"><title>Node9&#45;&gt;Node9</title>
<path fill="none" stroke="#9a32cd" stroke-dasharray="5,2" d="M730.268,-278.766C731.425,-283.497 736.335,-287 745,-287 759.219,-287 763.329,-277.565 757.33,-268.757"/>
<polygon fill="#9a32cd" stroke="#9a32cd" points="733.739,-279.298 732.67,-268.757 726.933,-277.664 733.739,-279.298"/>
<text text-anchor="middle" x="745" y="-290" font-family="FreeSans" font-size="10.00"> parent_</text>
</g>
<!-- Node10 -->
<g id="node10" class="node"><title>Node10</title>
<g id="a_node10"><a xlink:href="class_urho3_d_1_1_scene.html" target="_top" xlink:title="Root scene node, represents the whole scene. ">
<polygon fill="none" stroke="red" points="875.5,-216.5 875.5,-235.5 964.5,-235.5 964.5,-216.5 875.5,-216.5"/>
<text text-anchor="middle" x="920" y="-223.5" font-family="FreeSans" font-size="10.00">Urho3D::Scene</text>
</a>
</g>
</g>
<!-- Node9&#45;&gt;Node10 -->
<g id="edge11" class="edge"><title>Node9&#45;&gt;Node10</title>
<path fill="none" stroke="midnightblue" d="M782.16,-246.374C789.952,-243.985 798.194,-241.704 806,-240 828.693,-235.045 854.36,-231.689 875.49,-229.509"/>
<polygon fill="midnightblue" stroke="midnightblue" points="781.061,-243.051 772.597,-249.423 783.188,-249.72 781.061,-243.051"/>
</g>
<!-- Node10&#45;&gt;Node9 -->
<g id="edge10" class="edge"><title>Node10&#45;&gt;Node9</title>
<path fill="none" stroke="#9a32cd" stroke-dasharray="5,2" d="M865.355,-236.233C840.404,-240.992 811.169,-246.569 787.878,-251.012"/>
<polygon fill="#9a32cd" stroke="#9a32cd" points="866.23,-239.629 875.397,-234.317 864.918,-232.753 866.23,-239.629"/>
<text text-anchor="middle" x="825" y="-251" font-family="FreeSans" font-size="10.00"> scene_</text>
</g>
<!-- Node11 -->
<g id="node11" class="node"><title>Node11</title>
<g id="a_node11"><a xlink:href="class_urho3_d_1_1_hash_map.html" target="_top" xlink:title="Urho3D::HashMap\&lt; StringHash,\l Variant \&gt;">
<polygon fill="none" stroke="red" points="396,-0 396,-30 568,-30 568,-0 396,-0"/>
<text text-anchor="start" x="404" y="-18" font-family="FreeSans" font-size="10.00">Urho3D::HashMap&lt; StringHash,</text>
<text text-anchor="middle" x="482" y="-7" font-family="FreeSans" font-size="10.00"> Variant &gt;</text>
</a>
</g>
</g>
<!-- Node11&#45;&gt;Node9 -->
<g id="edge20" class="edge"><title>Node11&#45;&gt;Node9</title>
<path fill="none" stroke="#9a32cd" stroke-dasharray="5,2" d="M578.164,-22.0293C615.581,-29.4255 656.157,-43.926 684,-72 735.14,-123.564 742.716,-218.778 743.819,-249.309"/>
<polygon fill="#9a32cd" stroke="#9a32cd" points="578.687,-18.5668 568.22,-20.212 577.428,-25.4528 578.687,-18.5668"/>
<text text-anchor="middle" x="643" y="-75" font-family="FreeSans" font-size="10.00"> vars_</text>
</g>
<!-- Node11&#45;&gt;Node10 -->
<g id="edge12" class="edge"><title>Node11&#45;&gt;Node10</title>
<path fill="none" stroke="#9a32cd" stroke-dasharray="5,2" d="M578.305,-9.62345C612.675,-10.7617 651.081,-15.7141 684,-29 790.636,-72.0377 884.624,-182.696 911.391,-216.226"/>
<polygon fill="#9a32cd" stroke="#9a32cd" points="578.332,-6.12324 568.254,-9.39354 578.172,-13.1214 578.332,-6.12324"/>
<text text-anchor="middle" x="745" y="-95" font-family="FreeSans" font-size="10.00"> smoothingData_</text>
</g>
<!-- Node12 -->
<g id="node12" class="node"><title>Node12</title>
<g id="a_node12"><a xlink:href="class_urho3_d_1_1_quaternion.html" target="_top" xlink:title="Rotation represented as a four&#45;dimensional normalized vector. ">
<polygon fill="none" stroke="black" points="425.5,-98.5 425.5,-117.5 538.5,-117.5 538.5,-98.5 425.5,-98.5"/>
<text text-anchor="middle" x="482" y="-105.5" font-family="FreeSans" font-size="10.00">Urho3D::Quaternion</text>
</a>
</g>
</g>
<!-- Node12&#45;&gt;Node9 -->
<g id="edge13" class="edge"><title>Node12&#45;&gt;Node9</title>
<path fill="none" stroke="#9a32cd" stroke-dasharray="5,2" d="M531.269,-120.35C574.133,-132.897 637.074,-155.313 684,-189 707.665,-205.988 728.007,-234.202 737.79,-249.093"/>
<polygon fill="#9a32cd" stroke="#9a32cd" points="532.211,-116.98 521.634,-117.597 530.288,-123.71 532.211,-116.98"/>
<text text-anchor="middle" x="643" y="-203" font-family="FreeSans" font-size="10.00"> worldRotation_</text>
<text text-anchor="middle" x="643" y="-192" font-family="FreeSans" font-size="10.00">rotation_</text>
</g>
<!-- Node12&#45;&gt;Node12 -->
<g id="edge14" class="edge"><title>Node12&#45;&gt;Node12</title>
<path fill="none" stroke="#9a32cd" stroke-dasharray="5,2" d="M452.06,-126.275C452.914,-131.741 462.894,-136 482,-136 510.438,-136 518.658,-126.565 506.661,-117.757"/>
<polygon fill="#9a32cd" stroke="#9a32cd" points="455.046,-128.101 457.339,-117.757 449.096,-124.413 455.046,-128.101"/>
<text text-anchor="middle" x="482" y="-139" font-family="FreeSans" font-size="10.00"> IDENTITY</text>
</g>
<!-- Node13 -->
<g id="node13" class="node"><title>Node13</title>
<g id="a_node13"><a xlink:href="class_urho3_d_1_1_vector.html" target="_top" xlink:title="Urho3D::Vector\&lt; Urho3D\l::WeakPtr\&lt; Urho3D::Component \&gt; \&gt;">
<polygon fill="none" stroke="red" points="385,-49 385,-79 579,-79 579,-49 385,-49"/>
<text text-anchor="start" x="393" y="-67" font-family="FreeSans" font-size="10.00">Urho3D::Vector&lt; Urho3D</text>
<text text-anchor="middle" x="482" y="-56" font-family="FreeSans" font-size="10.00">::WeakPtr&lt; Urho3D::Component &gt; &gt;</text>
</a>
</g>
</g>
<!-- Node13&#45;&gt;Node9 -->
<g id="edge15" class="edge"><title>Node13&#45;&gt;Node9</title>
<path fill="none" stroke="#9a32cd" stroke-dasharray="5,2" d="M589.141,-81.2692C622.927,-91.2829 658.189,-107.083 684,-132 719.615,-166.381 736.475,-226.093 741.929,-249.344"/>
<polygon fill="#9a32cd" stroke="#9a32cd" points="589.764,-77.8086 579.189,-78.4698 587.868,-84.547 589.764,-77.8086"/>
<text text-anchor="middle" x="643" y="-135" font-family="FreeSans" font-size="10.00"> listeners_</text>
</g>
<!-- Node14 -->
<g id="node14" class="node"><title>Node14</title>
<g id="a_node14"><a xlink:href="class_urho3_d_1_1_vector.html" target="_top" xlink:title="Urho3D::Vector\&lt; Urho3D\l::SharedPtr\&lt; Urho3D::Component \&gt; \&gt;">
<polygon fill="none" stroke="red" points="380.5,-487 380.5,-517 583.5,-517 583.5,-487 380.5,-487"/>
<text text-anchor="start" x="388.5" y="-505" font-family="FreeSans" font-size="10.00">Urho3D::Vector&lt; Urho3D</text>
<text text-anchor="middle" x="482" y="-494" font-family="FreeSans" font-size="10.00">::SharedPtr&lt; Urho3D::Component &gt; &gt;</text>
</a>
</g>
</g>
<!-- Node14&#45;&gt;Node9 -->
<g id="edge16" class="edge"><title>Node14&#45;&gt;Node9</title>
<path fill="none" stroke="#9a32cd" stroke-dasharray="5,2" d="M573.215,-482.874C576.944,-481.088 580.558,-479.135 584,-477 670.572,-423.299 725.341,-304 740.019,-268.898"/>
<polygon fill="#9a32cd" stroke="#9a32cd" points="571.525,-479.792 563.74,-486.979 574.308,-486.215 571.525,-479.792"/>
<text text-anchor="middle" x="643" y="-464" font-family="FreeSans" font-size="10.00"> components_</text>
</g>
<!-- Node15 -->
<g id="node15" class="node"><title>Node15</title>
<g id="a_node15"><a xlink:href="class_urho3_d_1_1_vector3.html" target="_top" xlink:title="Three&#45;dimensional vector. ">
<polygon fill="none" stroke="black" points="434,-342.5 434,-361.5 530,-361.5 530,-342.5 434,-342.5"/>
<text text-anchor="middle" x="482" y="-349.5" font-family="FreeSans" font-size="10.00">Urho3D::Vector3</text>
</a>
</g>
</g>
<!-- Node15&#45;&gt;Node9 -->
<g id="edge17" class="edge"><title>Node15&#45;&gt;Node9</title>
<path fill="none" stroke="#9a32cd" stroke-dasharray="5,2" d="M540.066,-345.303C581.619,-338.808 638.373,-326.507 684,-304 703.151,-294.553 722.389,-278.742 733.743,-268.598"/>
<polygon fill="#9a32cd" stroke="#9a32cd" points="539.483,-341.851 530.112,-346.794 540.52,-348.774 539.483,-341.851"/>
<text text-anchor="middle" x="643" y="-347" font-family="FreeSans" font-size="10.00"> scale_</text>
<text text-anchor="middle" x="643" y="-336" font-family="FreeSans" font-size="10.00">position_</text>
</g>
<!-- Node15&#45;&gt;Node15 -->
<g id="edge18" class="edge"><title>Node15&#45;&gt;Node15</title>
<path fill="none" stroke="#9a32cd" stroke-dasharray="5,2" d="M452.06,-370.275C452.914,-375.741 462.894,-380 482,-380 510.438,-380 518.658,-370.565 506.661,-361.757"/>
<polygon fill="#9a32cd" stroke="#9a32cd" points="455.046,-372.101 457.339,-361.757 449.096,-368.413 455.046,-372.101"/>
<text text-anchor="middle" x="482" y="-460" font-family="FreeSans" font-size="10.00"> ONE</text>
<text text-anchor="middle" x="482" y="-449" font-family="FreeSans" font-size="10.00">DOWN</text>
<text text-anchor="middle" x="482" y="-438" font-family="FreeSans" font-size="10.00">BACK</text>
<text text-anchor="middle" x="482" y="-427" font-family="FreeSans" font-size="10.00">RIGHT</text>
<text text-anchor="middle" x="482" y="-416" font-family="FreeSans" font-size="10.00">LEFT</text>
<text text-anchor="middle" x="482" y="-405" font-family="FreeSans" font-size="10.00">ZERO</text>
<text text-anchor="middle" x="482" y="-394" font-family="FreeSans" font-size="10.00">FORWARD</text>
<text text-anchor="middle" x="482" y="-383" font-family="FreeSans" font-size="10.00">UP</text>
</g>
<!-- Node16 -->
<g id="node16" class="node"><title>Node16</title>
<g id="a_node16"><a xlink:href="class_urho3_d_1_1_unique_ptr.html" target="_top" xlink:title="Urho3D::UniquePtr\&lt;\l Urho3D::NodeImpl \&gt;">
<polygon fill="none" stroke="red" points="422.5,-293 422.5,-323 541.5,-323 541.5,-293 422.5,-293"/>
<text text-anchor="start" x="430.5" y="-311" font-family="FreeSans" font-size="10.00">Urho3D::UniquePtr&lt;</text>
<text text-anchor="middle" x="482" y="-300" font-family="FreeSans" font-size="10.00"> Urho3D::NodeImpl &gt;</text>
</a>
</g>
</g>
<!-- Node16&#45;&gt;Node9 -->
<g id="edge19" class="edge"><title>Node16&#45;&gt;Node9</title>
<path fill="none" stroke="#9a32cd" stroke-dasharray="5,2" d="M551.884,-297.7C590.805,-291.542 640.276,-283.149 684,-274 691.672,-272.395 699.847,-270.485 707.615,-268.575"/>
<polygon fill="#9a32cd" stroke="#9a32cd" points="551.051,-294.288 541.714,-299.296 552.136,-301.203 551.051,-294.288"/>
<text text-anchor="middle" x="643" y="-292" font-family="FreeSans" font-size="10.00"> impl_</text>
</g>
<!-- Node17 -->
<g id="node17" class="node"><title>Node17</title>
<g id="a_node17"><a xlink:href="class_urho3_d_1_1_vector.html" target="_top" xlink:title="Urho3D::Vector\&lt; Urho3D\l::SharedPtr\&lt; Urho3D::Node \&gt; \&gt;">
<polygon fill="none" stroke="red" points="395.5,-244 395.5,-274 568.5,-274 568.5,-244 395.5,-244"/>
<text text-anchor="start" x="403.5" y="-262" font-family="FreeSans" font-size="10.00">Urho3D::Vector&lt; Urho3D</text>
<text text-anchor="middle" x="482" y="-251" font-family="FreeSans" font-size="10.00">::SharedPtr&lt; Urho3D::Node &gt; &gt;</text>
</a>
</g>
</g>
<!-- Node17&#45;&gt;Node9 -->
<g id="edge22" class="edge"><title>Node17&#45;&gt;Node9</title>
<path fill="none" stroke="#9a32cd" stroke-dasharray="5,2" d="M578.935,-259C621.449,-259 669.237,-259 702.41,-259"/>
<polygon fill="#9a32cd" stroke="#9a32cd" points="578.823,-255.5 568.823,-259 578.823,-262.5 578.823,-255.5"/>
<text text-anchor="middle" x="643" y="-262" font-family="FreeSans" font-size="10.00"> children_</text>
</g>
<!-- Node18 -->
<g id="node18" class="node"><title>Node18</title>
<g id="a_node18"><a xlink:href="class_urho3_d_1_1_matrix3x4.html" target="_top" xlink:title="3x4 matrix for scene node transform calculations. ">
<polygon fill="none" stroke="black" points="429,-165.5 429,-184.5 535,-184.5 535,-165.5 429,-165.5"/>
<text text-anchor="middle" x="482" y="-172.5" font-family="FreeSans" font-size="10.00">Urho3D::Matrix3x4</text>
</a>
</g>
</g>
<!-- Node18&#45;&gt;Node9 -->
<g id="edge23" class="edge"><title>Node18&#45;&gt;Node9</title>
<path fill="none" stroke="#9a32cd" stroke-dasharray="5,2" d="M522.349,-187.664C574.991,-204.606 667.164,-234.271 714.342,-249.455"/>
<polygon fill="#9a32cd" stroke="#9a32cd" points="523.277,-184.286 512.686,-184.554 521.133,-190.949 523.277,-184.286"/>
<text text-anchor="middle" x="643" y="-242" font-family="FreeSans" font-size="10.00"> worldTransform_</text>
</g>
<!-- Node18&#45;&gt;Node18 -->
<g id="edge24" class="edge"><title>Node18&#45;&gt;Node18</title>
<path fill="none" stroke="#9a32cd" stroke-dasharray="5,2" d="M452.06,-193.275C452.914,-198.741 462.894,-203 482,-203 510.438,-203 518.658,-193.565 506.661,-184.757"/>
<polygon fill="#9a32cd" stroke="#9a32cd" points="455.046,-195.101 457.339,-184.757 449.096,-191.413 455.046,-195.101"/>
<text text-anchor="middle" x="482" y="-217" font-family="FreeSans" font-size="10.00"> IDENTITY</text>
<text text-anchor="middle" x="482" y="-206" font-family="FreeSans" font-size="10.00">ZERO</text>
</g>
<!-- Node19 -->
<g id="node19" class="node"><title>Node19</title>
<g id="a_node19"><a xlink:href="class_urho3_d_1_1_weak_ptr.html" target="_top" xlink:title="Urho3D::WeakPtr\&lt; Urho3D\l::RigidBody2D \&gt;">
<polygon fill="none" stroke="black" points="1754,-470 1754,-500 1900,-500 1900,-470 1754,-470"/>
<text text-anchor="start" x="1762" y="-488" font-family="FreeSans" font-size="10.00">Urho3D::WeakPtr&lt; Urho3D</text>
<text text-anchor="middle" x="1827" y="-477" font-family="FreeSans" font-size="10.00">::RigidBody2D &gt;</text>
</a>
</g>
</g>
<!-- Node19&#45;&gt;Node2 -->
<g id="edge25" class="edge"><title>Node19&#45;&gt;Node2</title>
<path fill="none" stroke="#9a32cd" stroke-dasharray="5,2" d="M1901.91,-467.668C1938.9,-458.994 1982.26,-448.825 2013.2,-441.569"/>
<polygon fill="#9a32cd" stroke="#9a32cd" points="1901.09,-464.263 1892.16,-469.954 1902.69,-471.078 1901.09,-464.263"/>
<text text-anchor="middle" x="1947" y="-478" font-family="FreeSans" font-size="10.00"> otherBody_</text>
<text text-anchor="middle" x="1947" y="-467" font-family="FreeSans" font-size="10.00">ownerBody_</text>
</g>
<!-- Node20&#45;&gt;Node19 -->
<g id="edge26" class="edge"><title>Node20&#45;&gt;Node19</title>
<path fill="none" stroke="#9a32cd" stroke-dasharray="5,2" d="M1657.59,-485C1687.73,-485 1723.14,-485 1753.69,-485"/>
<polygon fill="#9a32cd" stroke="#9a32cd" points="1657.58,-481.5 1647.58,-485 1657.58,-488.5 1657.58,-481.5"/>
<text text-anchor="middle" x="1701" y="-488" font-family="FreeSans" font-size="10.00"> ptr_</text>
</g>
<!-- Node21 -->
<g id="node21" class="node"><title>Node21</title>
<g id="a_node21"><a xlink:href="class_urho3_d_1_1_weak_ptr.html" target="_top" xlink:title="Urho3D::WeakPtr\&lt; Urho3D\l::PhysicsWorld2D \&gt;">
<polygon fill="none" stroke="black" points="1276,-428 1276,-458 1422,-458 1422,-428 1276,-428"/>
<text text-anchor="start" x="1284" y="-446" font-family="FreeSans" font-size="10.00">Urho3D::WeakPtr&lt; Urho3D</text>
<text text-anchor="middle" x="1349" y="-435" font-family="FreeSans" font-size="10.00">::PhysicsWorld2D &gt;</text>
</a>
</g>
</g>
<!-- Node21&#45;&gt;Node2 -->
<g id="edge35" class="edge"><title>Node21&#45;&gt;Node2</title>
<path fill="none" stroke="#9a32cd" stroke-dasharray="5,2" d="M1432.08,-441.717C1575.28,-439.48 1867.52,-434.914 1993.73,-432.942"/>
<polygon fill="#9a32cd" stroke="#9a32cd" points="1431.98,-438.219 1422.03,-441.875 1432.09,-445.218 1431.98,-438.219"/>
<text text-anchor="middle" x="1701" y="-442" font-family="FreeSans" font-size="10.00"> physicsWorld_</text>
</g>
<!-- Node21&#45;&gt;Node20 -->
<g id="edge28" class="edge"><title>Node21&#45;&gt;Node20</title>
<path fill="none" stroke="#9a32cd" stroke-dasharray="5,2" d="M1432.51,-453.267C1457.49,-456.804 1484.94,-461.12 1510,-466 1523.65,-468.658 1538.52,-472.177 1551.51,-475.462"/>
<polygon fill="#9a32cd" stroke="#9a32cd" points="1432.72,-449.764 1422.34,-451.85 1431.76,-456.697 1432.72,-449.764"/>
<text text-anchor="middle" x="1475" y="-469" font-family="FreeSans" font-size="10.00"> physicsWorld_</text>
</g>
<!-- Node22&#45;&gt;Node21 -->
<g id="edge29" class="edge"><title>Node22&#45;&gt;Node21</title>
<path fill="none" stroke="#9a32cd" stroke-dasharray="5,2" d="M1200.21,-430.395C1219.11,-430.439 1239.3,-430.862 1258,-432 1263.81,-432.354 1269.83,-432.835 1275.86,-433.4"/>
<polygon fill="#9a32cd" stroke="#9a32cd" points="1200.16,-426.895 1190.16,-430.406 1200.16,-433.895 1200.16,-426.895"/>
<text text-anchor="middle" x="1233" y="-435" font-family="FreeSans" font-size="10.00"> ptr_</text>
</g>
<!-- Node23 -->
<g id="node23" class="node"><title>Node23</title>
<g id="a_node23"><a xlink:href="class_urho3_d_1_1_vector2.html" target="_top" xlink:title="Two&#45;dimensional vector. ">
<polygon fill="none" stroke="black" points="872,-345.5 872,-364.5 968,-364.5 968,-345.5 872,-345.5"/>
<text text-anchor="middle" x="920" y="-352.5" font-family="FreeSans" font-size="10.00">Urho3D::Vector2</text>
</a>
</g>
</g>
<!-- Node23&#45;&gt;Node1 -->
<g id="edge39" class="edge"><title>Node23&#45;&gt;Node1</title>
<path fill="none" stroke="#9a32cd" stroke-dasharray="5,2" d="M978.262,-355C1018.48,-355 1073.53,-355 1122,-355 1122,-355 1122,-355 2056,-355 2123.16,-355 2199.34,-361.745 2253.96,-367.766"/>
<polygon fill="#9a32cd" stroke="#9a32cd" points="978.11,-351.5 968.11,-355 978.11,-358.5 978.11,-351.5"/>
<text text-anchor="middle" x="1588" y="-358" font-family="FreeSans" font-size="10.00"> linearOffset_</text>
</g>
<!-- Node23&#45;&gt;Node22 -->
<g id="edge31" class="edge"><title>Node23&#45;&gt;Node22</title>
<path fill="none" stroke="#9a32cd" stroke-dasharray="5,2" d="M955.455,-368.199C995.69,-383.613 1061.27,-408.736 1096.95,-422.404"/>
<polygon fill="#9a32cd" stroke="#9a32cd" points="956.641,-364.905 946.05,-364.596 954.137,-371.442 956.641,-364.905"/>
<text text-anchor="middle" x="1017" y="-402" font-family="FreeSans" font-size="10.00"> gravity_</text>
</g>
<!-- Node23&#45;&gt;Node23 -->
<g id="edge32" class="edge"><title>Node23&#45;&gt;Node23</title>
<path fill="none" stroke="#9a32cd" stroke-dasharray="5,2" d="M902.593,-374.4C903.756,-379.315 909.558,-383 920,-383 936.707,-383 941.536,-373.565 934.488,-364.757"/>
<polygon fill="#9a32cd" stroke="#9a32cd" points="905.965,-375.342 905.512,-364.757 899.265,-373.314 905.965,-375.342"/>
<text text-anchor="middle" x="920" y="-441" font-family="FreeSans" font-size="10.00"> ONE</text>
<text text-anchor="middle" x="920" y="-430" font-family="FreeSans" font-size="10.00">DOWN</text>
<text text-anchor="middle" x="920" y="-419" font-family="FreeSans" font-size="10.00">RIGHT</text>
<text text-anchor="middle" x="920" y="-408" font-family="FreeSans" font-size="10.00">LEFT</text>
<text text-anchor="middle" x="920" y="-397" font-family="FreeSans" font-size="10.00">ZERO</text>
<text text-anchor="middle" x="920" y="-386" font-family="FreeSans" font-size="10.00">UP</text>
</g>
<!-- Node24 -->
<g id="node24" class="node"><title>Node24</title>
<g id="a_node24"><a xlink:href="struct_urho3_d_1_1_ref_count.html" target="_top" xlink:title="Reference count structure. ">
<polygon fill="none" stroke="black" points="1072,-519.5 1072,-538.5 1174,-538.5 1174,-519.5 1072,-519.5"/>
<text text-anchor="middle" x="1123" y="-526.5" font-family="FreeSans" font-size="10.00">Urho3D::RefCount</text>
</a>
</g>
</g>
<!-- Node24&#45;&gt;Node19 -->
<g id="edge34" class="edge"><title>Node24&#45;&gt;Node19</title>
<path fill="none" stroke="#9a32cd" stroke-dasharray="5,2" d="M1184.36,-528.493C1294.36,-527.047 1534.66,-521.473 1736,-500 1741.83,-499.378 1747.85,-498.623 1753.89,-497.786"/>
<polygon fill="#9a32cd" stroke="#9a32cd" points="1184.09,-524.996 1174.13,-528.621 1184.17,-531.996 1184.09,-524.996"/>
<text text-anchor="middle" x="1475" y="-525" font-family="FreeSans" font-size="10.00"> refCount_</text>
</g>
<!-- Node24&#45;&gt;Node21 -->
<g id="edge33" class="edge"><title>Node24&#45;&gt;Node21</title>
<path fill="none" stroke="#9a32cd" stroke-dasharray="5,2" d="M1158.28,-515.838C1198.83,-500.27 1266.19,-474.409 1308.78,-458.057"/>
<polygon fill="#9a32cd" stroke="#9a32cd" points="1156.91,-512.616 1148.83,-519.468 1159.42,-519.151 1156.91,-512.616"/>
<text text-anchor="middle" x="1233" y="-500" font-family="FreeSans" font-size="10.00"> refCount_</text>
</g>
<!-- Node24&#45;&gt;Node25 -->
<g id="edge38" class="edge"><title>Node24&#45;&gt;Node25</title>
<path fill="none" stroke="#9a32cd" stroke-dasharray="5,2" d="M1168.33,-541.043C1213.25,-552.174 1284.93,-567 1348,-567 1348,-567 1348,-567 2056,-567 2153.47,-567 2258.99,-509.296 2304.71,-481.121"/>
<polygon fill="#9a32cd" stroke="#9a32cd" points="1169.16,-537.644 1158.61,-538.589 1167.45,-544.431 1169.16,-537.644"/>
<text text-anchor="middle" x="1701" y="-570" font-family="FreeSans" font-size="10.00"> refCount_</text>
</g>
<!-- Node25&#45;&gt;Node2 -->
<g id="edge36" class="edge"><title>Node25&#45;&gt;Node2</title>
<path fill="none" stroke="#9a32cd" stroke-dasharray="5,2" d="M2285.04,-447.19C2269.85,-441.459 2252.45,-435.908 2236,-433 2196.46,-426.009 2151.26,-425.785 2116.05,-427.295"/>
<polygon fill="#9a32cd" stroke="#9a32cd" points="2284.08,-450.574 2294.67,-450.956 2286.63,-444.054 2284.08,-450.574"/>
<text text-anchor="middle" x="2185" y="-436" font-family="FreeSans" font-size="10.00"> attachedConstraint_</text>
</g>
</g>
</svg>
        <g id="navigator" transform="translate(0 0)" fill="#404254">
                <rect fill="#f2f5e9" fill-opacity="0.5" stroke="#606060" stroke-width=".5" x="0" y="0" width="60" height="60"/>
                <use id="zoomplus" xlink:href="#zoomPlus" x="17" y="9" onmousedown="handleZoom(evt,'in')"/>
                <use id="zoomminus" xlink:href="#zoomMin" x="42" y="9" onmousedown="handleZoom(evt,'out')"/>
                <use id="reset" xlink:href="#resetDef" x="30" y="36" onmousedown="handleReset()"/>
                <g id="arrowUp" xlink:href="#dirArrow" transform="translate(30 24)" onmousedown="handlePan(0,-1)">
                  <use xlink:href="#rim" fill="#404040">
                        <set attributeName="fill" to="#808080" begin="arrowUp.mouseover" end="arrowUp.mouseout"/>
                  </use>
                  <path fill="none" stroke="white" stroke-width="1.5" d="M0,-3.0v7 M-2.5,-0.5L0,-3.0L2.5,-0.5"/>
                </g>
                <g id="arrowRight" xlink:href="#dirArrow" transform="rotate(90) translate(36 -43)" onmousedown="handlePan(1,0)">
                  <use xlink:href="#rim" fill="#404040">
                        <set attributeName="fill" to="#808080" begin="arrowRight.mouseover" end="arrowRight.mouseout"/>
                  </use>
                  <path fill="none" stroke="white" stroke-width="1.5" d="M0,-3.0v7 M-2.5,-0.5L0,-3.0L2.5,-0.5"/>
                </g>
                <g id="arrowDown" xlink:href="#dirArrow" transform="rotate(180) translate(-30 -48)" onmousedown="handlePan(0,1)">
                  <use xlink:href="#rim" fill="#404040">
                        <set attributeName="fill" to="#808080" begin="arrowDown.mouseover" end="arrowDown.mouseout"/>
                  </use>
                  <path fill="none" stroke="white" stroke-width="1.5" d="M0,-3.0v7 M-2.5,-0.5L0,-3.0L2.5,-0.5"/>
                </g>
                <g id="arrowLeft" xlink:href="#dirArrow" transform="rotate(270) translate(-36 17)" onmousedown="handlePan(-1,0)">
                  <use xlink:href="#rim" fill="#404040">
                        <set attributeName="fill" to="#808080" begin="arrowLeft.mouseover" end="arrowLeft.mouseout"/>
                  </use>
                  <path fill="none" stroke="white" stroke-width="1.5" d="M0,-3.0v7 M-2.5,-0.5L0,-3.0L2.5,-0.5"/>
                </g>
        </g>
        <svg viewBox="0 0 15 15" width="100%" height="30px" preserveAspectRatio="xMaxYMin meet">
         <g id="arrow_out" transform="scale(0.3 0.3)">
          <a xlink:href="class_urho3_d_1_1_constraint_motor2_d__coll__graph_org.svg" target="_base">
           <rect id="button" ry="5" rx="5" y="6" x="6" height="38" width="38"
                fill="#f2f5e9" fill-opacity="0.5" stroke="#606060" stroke-width="1.0"/>
           <path id="arrow"
             d="M 11.500037,31.436501 C 11.940474,20.09759 22.043105,11.32322 32.158766,21.979434 L 37.068811,17.246167 C 37.068811,17.246167 37.088388,32 37.088388,32 L 22.160133,31.978069 C 22.160133,31.978069 26.997745,27.140456 26.997745,27.140456 C 18.528582,18.264221 13.291696,25.230495 11.500037,31.436501 z"
             style="fill:#404040;"/>
          </a>
         </g>
        </svg>
</svg>
