<?xml version="1.0" encoding="UTF-8" standalone="no"?>
<!DOCTYPE svg PUBLIC "-//W3C//DTD SVG 1.1//EN"
 "http://www.w3.org/Graphics/SVG/1.1/DTD/svg11.dtd">
<!-- Generated by graphviz version 2.26.3 (20100126.1600)
 -->
<!-- Title: Urho3D::ListView Pages: 1 -->
<svg width="1794pt" height="933pt"
 viewBox="0.00 0.00 1794.00 933.00" xmlns="http://www.w3.org/2000/svg" xmlns:xlink="http://www.w3.org/1999/xlink">
<g id="graph1" class="graph" transform="scale(1 1) rotate(0) translate(4 929)">
<title>Urho3D::ListView</title>
<!-- Node1 -->
<g id="node1" class="node"><title>Node1</title>
<polygon fill="#bfbfbf" stroke="black" points="1688,-537.5 1688,-558.5 1786,-558.5 1786,-537.5 1688,-537.5"/>
<text text-anchor="middle" x="1737" y="-545.5" font-family="FreeSans" font-size="10.00">Urho3D::ListView</text>
</g>
<!-- Node2 -->
<g id="node2" class="node"><title>Node2</title>
<a xlink:href="class_urho3_d_1_1_scroll_view.html" target="_top" xlink:title="Scrollable UI element for showing a (possibly large) child element.">
<polygon fill="none" stroke="black" points="1542.5,-537.5 1542.5,-558.5 1649.5,-558.5 1649.5,-537.5 1542.5,-537.5"/>
<text text-anchor="middle" x="1596" y="-545.5" font-family="FreeSans" font-size="10.00">Urho3D::ScrollView</text>
</a>
</g>
<!-- Node2&#45;&gt;Node1 -->
<g id="edge2" class="edge"><title>Node2&#45;&gt;Node1</title>
<path fill="none" stroke="midnightblue" d="M1659.76,-548C1669.1,-548 1678.61,-548 1687.61,-548"/>
<polygon fill="midnightblue" stroke="midnightblue" points="1659.71,-544.5 1649.71,-548 1659.71,-551.5 1659.71,-544.5"/>
</g>
<!-- Node3 -->
<g id="node4" class="node"><title>Node3</title>
<a xlink:href="class_urho3_d_1_1_u_i_element.html" target="_top" xlink:title="Base class for UI elements.">
<polygon fill="none" stroke="black" points="910.5,-494.5 910.5,-515.5 1019.5,-515.5 1019.5,-494.5 910.5,-494.5"/>
<text text-anchor="middle" x="965" y="-502.5" font-family="FreeSans" font-size="10.00">Urho3D::UIElement</text>
</a>
</g>
<!-- Node3&#45;&gt;Node2 -->
<g id="edge4" class="edge"><title>Node3&#45;&gt;Node2</title>
<path fill="none" stroke="midnightblue" d="M993.577,-520.216C1011.53,-528.948 1035.48,-539.119 1058,-544 1231.67,-581.635 1444.34,-565.541 1542.13,-554.792"/>
<polygon fill="midnightblue" stroke="midnightblue" points="994.775,-516.902 984.266,-515.556 991.642,-523.162 994.775,-516.902"/>
</g>
<!-- Node3&#45;&gt;Node3 -->
<g id="edge36" class="edge"><title>Node3&#45;&gt;Node3</title>
<path fill="none" stroke="#9a32cd" stroke-dasharray="5,2" d="M951.448,-525.793C952.644,-530.529 957.161,-534 965,-534 977.863,-534 981.783,-524.653 976.758,-515.708"/>
<polygon fill="#9a32cd" stroke="#9a32cd" points="954.937,-526.166 953.242,-515.708 948.045,-524.94 954.937,-526.166"/>
<text text-anchor="middle" x="965" y="-538" font-family="FreeSans" font-size="10.00"> parent_</text>
</g>
<!-- Node21 -->
<g id="node50" class="node"><title>Node21</title>
<a xlink:href="class_urho3_d_1_1_scroll_bar.html" target="_top" xlink:title="Scroll bar UI element with forward and back buttons.">
<polygon fill="none" stroke="red" points="1068,-513.5 1068,-534.5 1170,-534.5 1170,-513.5 1068,-513.5"/>
<text text-anchor="middle" x="1119" y="-521.5" font-family="FreeSans" font-size="10.00">Urho3D::ScrollBar</text>
</a>
</g>
<!-- Node3&#45;&gt;Node21 -->
<g id="edge62" class="edge"><title>Node3&#45;&gt;Node21</title>
<path fill="none" stroke="midnightblue" d="M1029.78,-512.993C1042.47,-514.559 1055.62,-516.181 1067.8,-517.683"/>
<polygon fill="midnightblue" stroke="midnightblue" points="1030.08,-509.503 1019.73,-511.752 1029.22,-516.45 1030.08,-509.503"/>
</g>
<!-- Node22 -->
<g id="node54" class="node"><title>Node22</title>
<a xlink:href="class_urho3_d_1_1_shared_ptr.html" target="_top" xlink:title="Urho3D::SharedPtr\&lt;\l Urho3D::UIElement \&gt;">
<polygon fill="none" stroke="black" points="1280.5,-455 1280.5,-489 1403.5,-489 1403.5,-455 1280.5,-455"/>
<text text-anchor="start" x="1288.5" y="-476" font-family="FreeSans" font-size="10.00">Urho3D::SharedPtr&lt;</text>
<text text-anchor="middle" x="1342" y="-463" font-family="FreeSans" font-size="10.00"> Urho3D::UIElement &gt;</text>
</a>
</g>
<!-- Node3&#45;&gt;Node22 -->
<g id="edge68" class="edge"><title>Node3&#45;&gt;Node22</title>
<path fill="none" stroke="#9a32cd" stroke-dasharray="5,2" d="M1030.05,-494.51C1039.41,-493.203 1048.94,-491.983 1058,-491 1134.39,-482.709 1222.77,-477.48 1280.38,-474.652"/>
<polygon fill="#9a32cd" stroke="#9a32cd" points="1029.38,-491.069 1019.98,-495.955 1030.38,-497.998 1029.38,-491.069"/>
<text text-anchor="middle" x="1119" y="-495" font-family="FreeSans" font-size="10.00"> ptr_</text>
</g>
<!-- Node24 -->
<g id="node59" class="node"><title>Node24</title>
<a xlink:href="class_urho3_d_1_1_border_image.html" target="_top" xlink:title="Image UI element with optional border.">
<polygon fill="none" stroke="red" points="1058,-684.5 1058,-705.5 1180,-705.5 1180,-684.5 1058,-684.5"/>
<text text-anchor="middle" x="1119" y="-692.5" font-family="FreeSans" font-size="10.00">Urho3D::BorderImage</text>
</a>
</g>
<!-- Node3&#45;&gt;Node24 -->
<g id="edge74" class="edge"><title>Node3&#45;&gt;Node24</title>
<path fill="none" stroke="midnightblue" d="M980.223,-523.781C1012.16,-563.189 1085.3,-653.418 1110.37,-684.358"/>
<polygon fill="midnightblue" stroke="midnightblue" points="982.737,-521.324 973.721,-515.76 977.299,-525.732 982.737,-521.324"/>
</g>
<!-- Node4 -->
<g id="node6" class="node"><title>Node4</title>
<a xlink:href="class_urho3_d_1_1_animatable.html" target="_top" xlink:title="Base class for animatable object, an animatable object can be set animation on it&#39;s attributes...">
<polygon fill="none" stroke="black" points="598,-386.5 598,-407.5 712,-407.5 712,-386.5 598,-386.5"/>
<text text-anchor="middle" x="655" y="-394.5" font-family="FreeSans" font-size="10.00">Urho3D::Animatable</text>
</a>
</g>
<!-- Node4&#45;&gt;Node3 -->
<g id="edge6" class="edge"><title>Node4&#45;&gt;Node3</title>
<path fill="none" stroke="midnightblue" d="M722.275,-396.74C771.61,-399.04 838.957,-407.509 892,-434 920.944,-448.456 945.81,-478.525 957.638,-494.499"/>
<polygon fill="midnightblue" stroke="midnightblue" points="722.162,-393.233 712.032,-396.339 721.888,-400.228 722.162,-393.233"/>
</g>
<!-- Node5 -->
<g id="node8" class="node"><title>Node5</title>
<a xlink:href="class_urho3_d_1_1_serializable.html" target="_top" xlink:title="Base class for objects with automatic serialization through attributes.">
<polygon fill="none" stroke="red" points="190,-424.5 190,-445.5 304,-445.5 304,-424.5 190,-424.5"/>
<text text-anchor="middle" x="247" y="-432.5" font-family="FreeSans" font-size="10.00">Urho3D::Serializable</text>
</a>
</g>
<!-- Node5&#45;&gt;Node4 -->
<g id="edge8" class="edge"><title>Node5&#45;&gt;Node4</title>
<path fill="none" stroke="midnightblue" d="M314.474,-429.224C373.468,-424.113 461.434,-416.347 538,-409 557.513,-407.128 578.844,-404.972 597.886,-403.009"/>
<polygon fill="midnightblue" stroke="midnightblue" points="313.831,-425.766 304.17,-430.115 314.434,-432.74 313.831,-425.766"/>
</g>
<!-- Node6 -->
<g id="node10" class="node"><title>Node6</title>
<a xlink:href="class_urho3_d_1_1_hash_map.html" target="_top" xlink:title="Urho3D::HashMap\&lt; Urho3D\l::String, Urho3D::SharedPtr\l\&lt; Urho3D::AttributeAnimationInfo \&gt; \&gt;">
<polygon fill="none" stroke="black" points="146.5,-358.5 146.5,-405.5 347.5,-405.5 347.5,-358.5 146.5,-358.5"/>
<text text-anchor="start" x="154.5" y="-392.5" font-family="FreeSans" font-size="10.00">Urho3D::HashMap&lt; Urho3D</text>
<text text-anchor="start" x="154.5" y="-379.5" font-family="FreeSans" font-size="10.00">::String, Urho3D::SharedPtr</text>
<text text-anchor="middle" x="247" y="-366.5" font-family="FreeSans" font-size="10.00">&lt; Urho3D::AttributeAnimationInfo &gt; &gt;</text>
</a>
</g>
<!-- Node6&#45;&gt;Node4 -->
<g id="edge10" class="edge"><title>Node6&#45;&gt;Node4</title>
<path fill="none" stroke="#9a32cd" stroke-dasharray="5,2" d="M357.901,-386.077C435.505,-388.93 535.991,-392.625 597.946,-394.902"/>
<polygon fill="#9a32cd" stroke="#9a32cd" points="357.714,-382.568 347.592,-385.698 357.457,-389.563 357.714,-382.568"/>
<text text-anchor="middle" x="452" y="-396" font-family="FreeSans" font-size="10.00"> attributeAnimationInfos_</text>
</g>
<!-- Node7 -->
<g id="node12" class="node"><title>Node7</title>
<a xlink:href="class_urho3_d_1_1_hash_base.html" target="_top" xlink:title="Hash set/map base class.">
<polygon fill="none" stroke="red" points="0,-312.5 0,-333.5 108,-333.5 108,-312.5 0,-312.5"/>
<text text-anchor="middle" x="54" y="-320.5" font-family="FreeSans" font-size="10.00">Urho3D::HashBase</text>
</a>
</g>
<!-- Node7&#45;&gt;Node6 -->
<g id="edge12" class="edge"><title>Node7&#45;&gt;Node6</title>
<path fill="none" stroke="midnightblue" d="M98.2164,-336.517C119.481,-343.018 145.598,-351.001 169.982,-358.456"/>
<polygon fill="midnightblue" stroke="midnightblue" points="99.0909,-333.124 88.5045,-333.548 97.0444,-339.819 99.0909,-333.124"/>
</g>
<!-- Node9 -->
<g id="node16" class="node"><title>Node9</title>
<a xlink:href="class_urho3_d_1_1_hash_set.html" target="_top" xlink:title="Urho3D::HashSet\&lt; const\l Urho3D::AttributeInfo * \&gt;">
<polygon fill="none" stroke="black" points="176.5,-306 176.5,-340 317.5,-340 317.5,-306 176.5,-306"/>
<text text-anchor="start" x="184.5" y="-327" font-family="FreeSans" font-size="10.00">Urho3D::HashSet&lt; const</text>
<text text-anchor="middle" x="247" y="-314" font-family="FreeSans" font-size="10.00"> Urho3D::AttributeInfo * &gt;</text>
</a>
</g>
<!-- Node7&#45;&gt;Node9 -->
<g id="edge18" class="edge"><title>Node7&#45;&gt;Node9</title>
<path fill="none" stroke="midnightblue" d="M118.179,-323C136.844,-323 157.333,-323 176.372,-323"/>
<polygon fill="midnightblue" stroke="midnightblue" points="118.018,-319.5 108.018,-323 118.018,-326.5 118.018,-319.5"/>
</g>
<!-- Node14 -->
<g id="node29" class="node"><title>Node14</title>
<a xlink:href="class_urho3_d_1_1_hash_map.html" target="_top" xlink:title="Urho3D::HashMap\&lt; StringHash,\l Variant \&gt;">
<polygon fill="none" stroke="black" points="366,-263 366,-297 538,-297 538,-263 366,-263"/>
<text text-anchor="start" x="374" y="-284" font-family="FreeSans" font-size="10.00">Urho3D::HashMap&lt; StringHash,</text>
<text text-anchor="middle" x="452" y="-271" font-family="FreeSans" font-size="10.00"> Variant &gt;</text>
</a>
</g>
<!-- Node7&#45;&gt;Node14 -->
<g id="edge34" class="edge"><title>Node7&#45;&gt;Node14</title>
<path fill="none" stroke="midnightblue" d="M94.697,-309.418C110.535,-304.684 128.945,-299.848 146,-297 219.472,-284.731 304.1,-280.797 365.709,-279.751"/>
<polygon fill="midnightblue" stroke="midnightblue" points="93.2302,-306.207 84.701,-312.492 95.288,-312.898 93.2302,-306.207"/>
</g>
<!-- Node8 -->
<g id="node14" class="node"><title>Node8</title>
<a xlink:href="class_urho3_d_1_1_shared_ptr.html" target="_top" xlink:title="Urho3D::SharedPtr\&lt;\l Urho3D::ObjectAnimation \&gt;">
<polygon fill="none" stroke="red" points="170.5,-464 170.5,-498 323.5,-498 323.5,-464 170.5,-464"/>
<text text-anchor="start" x="178.5" y="-485" font-family="FreeSans" font-size="10.00">Urho3D::SharedPtr&lt;</text>
<text text-anchor="middle" x="247" y="-472" font-family="FreeSans" font-size="10.00"> Urho3D::ObjectAnimation &gt;</text>
</a>
</g>
<!-- Node8&#45;&gt;Node4 -->
<g id="edge14" class="edge"><title>Node8&#45;&gt;Node4</title>
<path fill="none" stroke="#9a32cd" stroke-dasharray="5,2" d="M333.802,-470.159C405.81,-460.365 502.009,-445.195 538,-430 547.091,-426.162 546.959,-420.955 556,-417 569.093,-411.272 583.883,-407.164 597.963,-404.225"/>
<polygon fill="#9a32cd" stroke="#9a32cd" points="333.254,-466.701 323.81,-471.505 334.188,-473.639 333.254,-466.701"/>
<text text-anchor="middle" x="452" y="-469" font-family="FreeSans" font-size="10.00"> objectAnimation_</text>
</g>
<!-- Node9&#45;&gt;Node4 -->
<g id="edge16" class="edge"><title>Node9&#45;&gt;Node4</title>
<path fill="none" stroke="#9a32cd" stroke-dasharray="5,2" d="M327.475,-333.997C386.065,-342.422 467.216,-354.958 538,-369 563.609,-374.08 592.104,-380.875 614.561,-386.499"/>
<polygon fill="#9a32cd" stroke="#9a32cd" points="327.934,-330.527 317.539,-332.576 326.943,-337.456 327.934,-330.527"/>
<text text-anchor="middle" x="452" y="-373" font-family="FreeSans" font-size="10.00"> animatedNetworkAttributes_</text>
</g>
<!-- Node10 -->
<g id="node19" class="node"><title>Node10</title>
<a xlink:href="class_urho3_d_1_1_int_rect.html" target="_top" xlink:title="Two&#45;dimensional bounding rectangle with integer values.">
<polygon fill="none" stroke="black" points="609,-632.5 609,-653.5 701,-653.5 701,-632.5 609,-632.5"/>
<text text-anchor="middle" x="655" y="-640.5" font-family="FreeSans" font-size="10.00">Urho3D::IntRect</text>
</a>
</g>
<!-- Node10&#45;&gt;Node3 -->
<g id="edge20" class="edge"><title>Node10&#45;&gt;Node3</title>
<path fill="none" stroke="#9a32cd" stroke-dasharray="5,2" d="M711.45,-640.191C726.377,-637.256 741.731,-632.047 754,-623 767.446,-613.085 758.505,-599.848 772,-590 815.866,-557.989 843.025,-590.461 892,-567 918.393,-554.357 942.999,-529.793 955.801,-515.676"/>
<polygon fill="#9a32cd" stroke="#9a32cd" points="710.523,-636.796 701.226,-641.878 711.662,-643.703 710.523,-636.796"/>
<text text-anchor="middle" x="832" y="-607" font-family="FreeSans" font-size="10.00"> clipBorder_</text>
<text text-anchor="middle" x="832" y="-594" font-family="FreeSans" font-size="10.00">layoutBorder_</text>
</g>
<!-- Node10&#45;&gt;Node10 -->
<g id="edge22" class="edge"><title>Node10&#45;&gt;Node10</title>
<path fill="none" stroke="#9a32cd" stroke-dasharray="5,2" d="M622.252,-662.679C624.007,-667.975 634.923,-672 655,-672 685.594,-672 694.915,-662.653 682.965,-653.708"/>
<polygon fill="#9a32cd" stroke="#9a32cd" points="625.419,-664.179 627.035,-653.708 619.242,-660.885 625.419,-664.179"/>
<text text-anchor="middle" x="655" y="-676" font-family="FreeSans" font-size="10.00"> ZERO</text>
</g>
<!-- Node10&#45;&gt;Node21 -->
<g id="edge64" class="edge"><title>Node10&#45;&gt;Node21</title>
<path fill="none" stroke="#9a32cd" stroke-dasharray="5,2" d="M711.087,-640.898C759.604,-638.068 831.303,-631.45 892,-616 971.122,-595.86 1059.25,-554.18 1098.37,-534.599"/>
<polygon fill="#9a32cd" stroke="#9a32cd" points="710.892,-637.403 701.099,-641.446 711.275,-644.393 710.892,-637.403"/>
<text text-anchor="middle" x="965" y="-653" font-family="FreeSans" font-size="10.00"> rightRect_</text>
<text text-anchor="middle" x="965" y="-640" font-family="FreeSans" font-size="10.00">leftRect_</text>
<text text-anchor="middle" x="965" y="-627" font-family="FreeSans" font-size="10.00">downRect_</text>
<text text-anchor="middle" x="965" y="-614" font-family="FreeSans" font-size="10.00">upRect_</text>
</g>
<!-- Node10&#45;&gt;Node24 -->
<g id="edge76" class="edge"><title>Node10&#45;&gt;Node24</title>
<path fill="none" stroke="#9a32cd" stroke-dasharray="5,2" d="M711.61,-645.823C759.969,-649.038 831.161,-655.682 892,-669 900.238,-670.803 901.75,-673.254 910,-675 959.033,-685.378 1015.69,-690.378 1057.63,-692.782"/>
<polygon fill="#9a32cd" stroke="#9a32cd" points="711.548,-642.312 701.346,-645.169 711.104,-649.298 711.548,-642.312"/>
<text text-anchor="middle" x="965" y="-720" font-family="FreeSans" font-size="10.00"> imageRect_</text>
<text text-anchor="middle" x="965" y="-707" font-family="FreeSans" font-size="10.00">border_</text>
<text text-anchor="middle" x="965" y="-694" font-family="FreeSans" font-size="10.00">imageBorder_</text>
</g>
<!-- Node11 -->
<g id="node22" class="node"><title>Node11</title>
<a xlink:href="class_urho3_d_1_1_vector.html" target="_top" xlink:title="Urho3D::Vector\&lt; Urho3D\l::SharedPtr\&lt; Urho3D::UIElement \&gt; \&gt;">
<polygon fill="none" stroke="black" points="556.5,-580 556.5,-614 753.5,-614 753.5,-580 556.5,-580"/>
<text text-anchor="start" x="564.5" y="-601" font-family="FreeSans" font-size="10.00">Urho3D::Vector&lt; Urho3D</text>
<text text-anchor="middle" x="655" y="-588" font-family="FreeSans" font-size="10.00">::SharedPtr&lt; Urho3D::UIElement &gt; &gt;</text>
</a>
</g>
<!-- Node11&#45;&gt;Node3 -->
<g id="edge24" class="edge"><title>Node11&#45;&gt;Node3</title>
<path fill="none" stroke="#9a32cd" stroke-dasharray="5,2" d="M743.871,-576.072C747.349,-574.498 750.74,-572.81 754,-571 763.621,-565.659 762.205,-559.014 772,-554 820.339,-529.256 839.602,-545.263 892,-531 907.577,-526.76 924.591,-520.782 938.272,-515.627"/>
<polygon fill="#9a32cd" stroke="#9a32cd" points="742.376,-572.903 734.489,-579.977 745.066,-579.365 742.376,-572.903"/>
<text text-anchor="middle" x="832" y="-558" font-family="FreeSans" font-size="10.00"> children_</text>
</g>
<!-- Node12 -->
<g id="node24" class="node"><title>Node12</title>
<a xlink:href="class_urho3_d_1_1_vector_base.html" target="_top" xlink:title="Vector base class.">
<polygon fill="none" stroke="black" points="190,-741.5 190,-762.5 304,-762.5 304,-741.5 190,-741.5"/>
<text text-anchor="middle" x="247" y="-749.5" font-family="FreeSans" font-size="10.00">Urho3D::VectorBase</text>
</a>
</g>
<!-- Node12&#45;&gt;Node11 -->
<g id="edge26" class="edge"><title>Node12&#45;&gt;Node11</title>
<path fill="none" stroke="midnightblue" d="M278.733,-737.024C334.103,-711.286 452.361,-658.054 556,-623 565.343,-619.84 575.287,-616.828 585.134,-614.049"/>
<polygon fill="midnightblue" stroke="midnightblue" points="277.038,-733.953 269.456,-741.353 279.998,-740.296 277.038,-733.953"/>
</g>
<!-- Node25 -->
<g id="node66" class="node"><title>Node25</title>
<a xlink:href="class_urho3_d_1_1_p_o_d_vector.html" target="_top" xlink:title="Urho3D::PODVector\&lt;\l unsigned \&gt;">
<polygon fill="none" stroke="black" points="772.5,-890 772.5,-924 891.5,-924 891.5,-890 772.5,-890"/>
<text text-anchor="start" x="780.5" y="-911" font-family="FreeSans" font-size="10.00">Urho3D::PODVector&lt;</text>
<text text-anchor="middle" x="832" y="-898" font-family="FreeSans" font-size="10.00"> unsigned &gt;</text>
</a>
</g>
<!-- Node12&#45;&gt;Node25 -->
<g id="edge86" class="edge"><title>Node12&#45;&gt;Node25</title>
<path fill="none" stroke="midnightblue" d="M278.063,-766.825C332.865,-792.323 450.875,-844.308 556,-871 629.182,-889.582 715.848,-898.892 772.276,-903.326"/>
<polygon fill="midnightblue" stroke="midnightblue" points="279.433,-763.602 268.892,-762.53 276.464,-769.941 279.433,-763.602"/>
</g>
<!-- Node13 -->
<g id="node26" class="node"><title>Node13</title>
<a xlink:href="class_urho3_d_1_1_vector2.html" target="_top" xlink:title="Two&#45;dimensional vector.">
<polygon fill="none" stroke="black" points="607,-0.5 607,-21.5 703,-21.5 703,-0.5 607,-0.5"/>
<text text-anchor="middle" x="655" y="-8.5" font-family="FreeSans" font-size="10.00">Urho3D::Vector2</text>
</a>
</g>
<!-- Node13&#45;&gt;Node2 -->
<g id="edge56" class="edge"><title>Node13&#45;&gt;Node2</title>
<path fill="none" stroke="#9a32cd" stroke-dasharray="5,2" d="M713.098,-22.4157C775.195,-33.6077 876.656,-49 965,-49 965,-49 965,-49 1342,-49 1548.71,-49 1451.34,-283.484 1524,-477 1533.04,-501.079 1523.56,-514.072 1542,-532 1544.1,-534.045 1546.46,-535.83 1548.97,-537.388"/>
<polygon fill="#9a32cd" stroke="#9a32cd" points="713.569,-18.9438 703.103,-20.589 712.31,-25.8298 713.569,-18.9438"/>
<text text-anchor="start" x="1065.5" y="-79" font-family="FreeSans" font-size="10.00"> touchScrollSpeedMax</text>
<text text-anchor="middle" x="1119" y="-66" font-family="FreeSans" font-size="10.00">_</text>
<text text-anchor="middle" x="1119" y="-53" font-family="FreeSans" font-size="10.00">touchScrollSpeed_</text>
</g>
<!-- Node13&#45;&gt;Node3 -->
<g id="edge28" class="edge"><title>Node13&#45;&gt;Node3</title>
<path fill="none" stroke="#9a32cd" stroke-dasharray="5,2" d="M686.005,-26.0892C737.306,-52.7239 839.394,-113.098 892,-195 925.542,-247.221 956.395,-446.256 963.48,-494.446"/>
<polygon fill="#9a32cd" stroke="#9a32cd" points="687.539,-22.9422 677.041,-21.5109 684.355,-29.1763 687.539,-22.9422"/>
<text text-anchor="middle" x="832" y="-199" font-family="FreeSans" font-size="10.00"> layoutFlexScale_</text>
</g>
<!-- Node13&#45;&gt;Node13 -->
<g id="edge30" class="edge"><title>Node13&#45;&gt;Node13</title>
<path fill="none" stroke="#9a32cd" stroke-dasharray="5,2" d="M622.252,-30.6791C624.007,-35.9746 634.923,-40 655,-40 685.594,-40 694.915,-30.6531 682.965,-21.7079"/>
<polygon fill="#9a32cd" stroke="#9a32cd" points="625.419,-32.1787 627.035,-21.7079 619.242,-28.8852 625.419,-32.1787"/>
<text text-anchor="middle" x="655" y="-109" font-family="FreeSans" font-size="10.00"> ONE</text>
<text text-anchor="middle" x="655" y="-96" font-family="FreeSans" font-size="10.00">DOWN</text>
<text text-anchor="middle" x="655" y="-83" font-family="FreeSans" font-size="10.00">RIGHT</text>
<text text-anchor="middle" x="655" y="-70" font-family="FreeSans" font-size="10.00">LEFT</text>
<text text-anchor="middle" x="655" y="-57" font-family="FreeSans" font-size="10.00">ZERO</text>
<text text-anchor="middle" x="655" y="-44" font-family="FreeSans" font-size="10.00">UP</text>
</g>
<!-- Node14&#45;&gt;Node3 -->
<g id="edge32" class="edge"><title>Node14&#45;&gt;Node3</title>
<path fill="none" stroke="#9a32cd" stroke-dasharray="5,2" d="M492.656,-301.67C511.486,-310.942 534.426,-321.181 556,-328 701.362,-373.944 766.659,-310.221 892,-397 928.656,-422.378 952.125,-472.653 960.996,-494.479"/>
<polygon fill="#9a32cd" stroke="#9a32cd" points="493.998,-298.428 483.49,-297.074 490.86,-304.685 493.998,-298.428"/>
<text text-anchor="middle" x="655" y="-351" font-family="FreeSans" font-size="10.00"> vars_</text>
</g>
<!-- Node15 -->
<g id="node33" class="node"><title>Node15</title>
<a xlink:href="class_urho3_d_1_1_string.html" target="_top" xlink:title="String class.">
<polygon fill="none" stroke="black" points="203,-522.5 203,-543.5 291,-543.5 291,-522.5 203,-522.5"/>
<text text-anchor="middle" x="247" y="-530.5" font-family="FreeSans" font-size="10.00">Urho3D::String</text>
</a>
</g>
<!-- Node15&#45;&gt;Node3 -->
<g id="edge38" class="edge"><title>Node15&#45;&gt;Node3</title>
<path fill="none" stroke="#9a32cd" stroke-dasharray="5,2" d="M301.469,-527.025C363.14,-520.502 466.664,-510.283 556,-505 651.87,-499.33 675.972,-500.333 772,-499 825.328,-498.259 838.711,-496.814 892,-499 897.972,-499.245 904.211,-499.602 910.419,-500.022"/>
<polygon fill="#9a32cd" stroke="#9a32cd" points="300.77,-523.579 291.197,-528.118 301.511,-530.54 300.77,-523.579"/>
<text text-anchor="middle" x="655" y="-522" font-family="FreeSans" font-size="10.00"> appliedStyle_</text>
<text text-anchor="middle" x="655" y="-509" font-family="FreeSans" font-size="10.00">name_</text>
</g>
<!-- Node15&#45;&gt;Node15 -->
<g id="edge40" class="edge"><title>Node15&#45;&gt;Node15</title>
<path fill="none" stroke="#9a32cd" stroke-dasharray="5,2" d="M224.885,-553.427C226.591,-558.349 233.963,-562 247,-562 267.859,-562 274.215,-552.653 266.067,-543.708"/>
<polygon fill="#9a32cd" stroke="#9a32cd" points="228.28,-554.297 227.933,-543.708 221.601,-552.202 228.28,-554.297"/>
<text text-anchor="middle" x="247" y="-566" font-family="FreeSans" font-size="10.00"> EMPTY</text>
</g>
<!-- Node16 -->
<g id="node36" class="node"><title>Node16</title>
<a xlink:href="class_urho3_d_1_1_x_path_query.html" target="_top" xlink:title="XPath query.">
<polygon fill="none" stroke="black" points="597.5,-540.5 597.5,-561.5 712.5,-561.5 712.5,-540.5 597.5,-540.5"/>
<text text-anchor="middle" x="655" y="-548.5" font-family="FreeSans" font-size="10.00">Urho3D::XPathQuery</text>
</a>
</g>
<!-- Node15&#45;&gt;Node16 -->
<g id="edge44" class="edge"><title>Node15&#45;&gt;Node16</title>
<path fill="none" stroke="#9a32cd" stroke-dasharray="5,2" d="M301.492,-535.404C378.553,-538.804 518.728,-544.988 597.429,-548.46"/>
<polygon fill="#9a32cd" stroke="#9a32cd" points="301.195,-531.888 291.051,-534.943 300.887,-538.881 301.195,-531.888"/>
<text text-anchor="middle" x="452" y="-549" font-family="FreeSans" font-size="10.00"> queryString_</text>
</g>
<!-- Node16&#45;&gt;Node3 -->
<g id="edge42" class="edge"><title>Node16&#45;&gt;Node3</title>
<path fill="none" stroke="#9a32cd" stroke-dasharray="5,2" d="M713.649,-537.951C727.04,-534.487 741.116,-530.453 754,-526 762.274,-523.14 763.502,-520.104 772,-518 817.638,-506.699 871.08,-503.871 910.142,-503.628"/>
<polygon fill="#9a32cd" stroke="#9a32cd" points="712.418,-534.652 703.575,-540.487 714.127,-541.44 712.418,-534.652"/>
<text text-anchor="middle" x="832" y="-522" font-family="FreeSans" font-size="10.00"> styleXPathQuery_</text>
</g>
<!-- Node17 -->
<g id="node39" class="node"><title>Node17</title>
<a xlink:href="class_urho3_d_1_1_shared_ptr.html" target="_top" xlink:title="Urho3D::SharedPtr\&lt;\l Urho3D::XMLFile \&gt;">
<polygon fill="none" stroke="red" points="597,-426 597,-460 713,-460 713,-426 597,-426"/>
<text text-anchor="start" x="605" y="-447" font-family="FreeSans" font-size="10.00">Urho3D::SharedPtr&lt;</text>
<text text-anchor="middle" x="655" y="-434" font-family="FreeSans" font-size="10.00"> Urho3D::XMLFile &gt;</text>
</a>
</g>
<!-- Node17&#45;&gt;Node3 -->
<g id="edge46" class="edge"><title>Node17&#45;&gt;Node3</title>
<path fill="none" stroke="#9a32cd" stroke-dasharray="5,2" d="M723.108,-437.828C771.449,-436.345 837.215,-438.825 892,-457 915.898,-464.928 939.498,-482.757 953.137,-494.313"/>
<polygon fill="#9a32cd" stroke="#9a32cd" points="722.931,-434.332 713.068,-438.2 723.191,-441.327 722.931,-434.332"/>
<text text-anchor="middle" x="832" y="-461" font-family="FreeSans" font-size="10.00"> defaultStyle_</text>
</g>
<!-- Node18 -->
<g id="node41" class="node"><title>Node18</title>
<a xlink:href="class_urho3_d_1_1_int_vector2.html" target="_top" xlink:title="Two&#45;dimensional vector with integer values.">
<polygon fill="none" stroke="black" points="601,-809.5 601,-830.5 709,-830.5 709,-809.5 601,-809.5"/>
<text text-anchor="middle" x="655" y="-817.5" font-family="FreeSans" font-size="10.00">Urho3D::IntVector2</text>
</a>
</g>
<!-- Node18&#45;&gt;Node2 -->
<g id="edge80" class="edge"><title>Node18&#45;&gt;Node2</title>
<path fill="none" stroke="#9a32cd" stroke-dasharray="5,2" d="M719.333,-828.225C781.947,-835.511 879.841,-845 965,-845 965,-845 965,-845 1342,-845 1496.01,-845 1576.61,-611.478 1592.89,-558.57"/>
<polygon fill="#9a32cd" stroke="#9a32cd" points="719.554,-824.727 709.213,-827.03 718.733,-831.678 719.554,-824.727"/>
<text text-anchor="middle" x="1119" y="-875" font-family="FreeSans" font-size="10.00"> viewPositionAttr_</text>
<text text-anchor="middle" x="1119" y="-862" font-family="FreeSans" font-size="10.00">viewSize_</text>
<text text-anchor="middle" x="1119" y="-849" font-family="FreeSans" font-size="10.00">viewPosition_</text>
</g>
<!-- Node18&#45;&gt;Node3 -->
<g id="edge48" class="edge"><title>Node18&#45;&gt;Node3</title>
<path fill="none" stroke="#9a32cd" stroke-dasharray="5,2" d="M668.651,-801.223C688.994,-774.126 729.457,-723.53 772,-689 819.767,-650.229 847.556,-662.54 892,-620 900.755,-611.62 942.3,-542.917 958.505,-515.876"/>
<polygon fill="#9a32cd" stroke="#9a32cd" points="665.692,-799.336 662.549,-809.454 671.316,-803.505 665.692,-799.336"/>
<text text-anchor="middle" x="832" y="-797" font-family="FreeSans" font-size="10.00"> maxSize_</text>
<text text-anchor="middle" x="832" y="-784" font-family="FreeSans" font-size="10.00">childOffset_</text>
<text text-anchor="middle" x="832" y="-771" font-family="FreeSans" font-size="10.00">size_</text>
<text text-anchor="middle" x="832" y="-758" font-family="FreeSans" font-size="10.00">position_</text>
<text text-anchor="start" x="797" y="-745" font-family="FreeSans" font-size="10.00">screenPosition</text>
<text text-anchor="middle" x="832" y="-732" font-family="FreeSans" font-size="10.00">_</text>
<text text-anchor="start" x="797" y="-719" font-family="FreeSans" font-size="10.00">layoutMinSize</text>
<text text-anchor="middle" x="832" y="-706" font-family="FreeSans" font-size="10.00">_</text>
<text text-anchor="middle" x="832" y="-693" font-family="FreeSans" font-size="10.00">minSize_</text>
</g>
<!-- Node18&#45;&gt;Node18 -->
<g id="edge50" class="edge"><title>Node18&#45;&gt;Node18</title>
<path fill="none" stroke="#9a32cd" stroke-dasharray="5,2" d="M622.252,-839.679C624.007,-844.975 634.923,-849 655,-849 685.594,-849 694.915,-839.653 682.965,-830.708"/>
<polygon fill="#9a32cd" stroke="#9a32cd" points="625.419,-841.179 627.035,-830.708 619.242,-837.885 625.419,-841.179"/>
<text text-anchor="middle" x="655" y="-853" font-family="FreeSans" font-size="10.00"> ZERO</text>
</g>
<!-- Node18&#45;&gt;Node24 -->
<g id="edge78" class="edge"><title>Node18&#45;&gt;Node24</title>
<path fill="none" stroke="#9a32cd" stroke-dasharray="5,2" d="M719.133,-822.975C767.435,-823.601 834.871,-821.008 892,-806 976.647,-783.763 1067.22,-728.774 1103.08,-705.584"/>
<polygon fill="#9a32cd" stroke="#9a32cd" points="719.189,-819.475 709.127,-822.796 719.063,-826.474 719.189,-819.475"/>
<text text-anchor="middle" x="965" y="-804" font-family="FreeSans" font-size="10.00"> hoverOffset_</text>
</g>
<!-- Node19 -->
<g id="node44" class="node"><title>Node19</title>
<a xlink:href="class_urho3_d_1_1_color.html" target="_top" xlink:title="RGBA color.">
<polygon fill="none" stroke="black" points="613,-136.5 613,-157.5 697,-157.5 697,-136.5 613,-136.5"/>
<text text-anchor="middle" x="655" y="-144.5" font-family="FreeSans" font-size="10.00">Urho3D::Color</text>
</a>
</g>
<!-- Node19&#45;&gt;Node3 -->
<g id="edge52" class="edge"><title>Node19&#45;&gt;Node3</title>
<path fill="none" stroke="#9a32cd" stroke-dasharray="5,2" d="M687.463,-162.139C737.898,-187.189 835.171,-241.85 892,-315 937.526,-373.601 957.484,-463.913 963.186,-494.477"/>
<polygon fill="#9a32cd" stroke="#9a32cd" points="688.839,-158.916 678.318,-157.668 685.764,-165.205 688.839,-158.916"/>
<text text-anchor="middle" x="832" y="-332" font-family="FreeSans" font-size="10.00"> derivedColor_</text>
<text text-anchor="middle" x="832" y="-319" font-family="FreeSans" font-size="10.00">color_</text>
</g>
<!-- Node19&#45;&gt;Node19 -->
<g id="edge54" class="edge"><title>Node19&#45;&gt;Node19</title>
<path fill="none" stroke="#9a32cd" stroke-dasharray="5,2" d="M622.252,-166.679C624.007,-171.975 634.923,-176 655,-176 685.594,-176 694.915,-166.653 682.965,-157.708"/>
<polygon fill="#9a32cd" stroke="#9a32cd" points="625.419,-168.179 627.035,-157.708 619.242,-164.885 625.419,-168.179"/>
<text text-anchor="middle" x="655" y="-310" font-family="FreeSans" font-size="10.00"> CYAN</text>
<text text-anchor="middle" x="655" y="-297" font-family="FreeSans" font-size="10.00">GRAY</text>
<text text-anchor="middle" x="655" y="-284" font-family="FreeSans" font-size="10.00">YELLOW</text>
<text text-anchor="middle" x="655" y="-271" font-family="FreeSans" font-size="10.00">MAGENTA</text>
<text text-anchor="middle" x="655" y="-258" font-family="FreeSans" font-size="10.00">WHITE</text>
<text text-anchor="middle" x="655" y="-245" font-family="FreeSans" font-size="10.00">TRANSPARENT</text>
<text text-anchor="middle" x="655" y="-232" font-family="FreeSans" font-size="10.00">BLUE</text>
<text text-anchor="middle" x="655" y="-219" font-family="FreeSans" font-size="10.00">BLACK</text>
<text text-anchor="middle" x="655" y="-206" font-family="FreeSans" font-size="10.00">RED</text>
<text text-anchor="middle" x="655" y="-193" font-family="FreeSans" font-size="10.00">GREEN</text>
<text text-anchor="middle" x="655" y="-180" font-family="FreeSans" font-size="10.00">...</text>
</g>
<!-- Node20 -->
<g id="node48" class="node"><title>Node20</title>
<a xlink:href="class_urho3_d_1_1_shared_ptr.html" target="_top" xlink:title="Urho3D::SharedPtr\&lt;\l Urho3D::ScrollBar \&gt;">
<polygon fill="none" stroke="black" points="1284,-507 1284,-541 1400,-541 1400,-507 1284,-507"/>
<text text-anchor="start" x="1292" y="-528" font-family="FreeSans" font-size="10.00">Urho3D::SharedPtr&lt;</text>
<text text-anchor="middle" x="1342" y="-515" font-family="FreeSans" font-size="10.00"> Urho3D::ScrollBar &gt;</text>
</a>
</g>
<!-- Node20&#45;&gt;Node2 -->
<g id="edge58" class="edge"><title>Node20&#45;&gt;Node2</title>
<path fill="none" stroke="#9a32cd" stroke-dasharray="5,2" d="M1410.44,-522.166C1444.7,-522.188 1486.71,-523.641 1524,-529 1536.8,-530.839 1550.58,-534.14 1562.63,-537.481"/>
<polygon fill="#9a32cd" stroke="#9a32cd" points="1410.06,-518.667 1400.08,-522.202 1410.09,-525.667 1410.06,-518.667"/>
<text text-anchor="middle" x="1476" y="-546" font-family="FreeSans" font-size="10.00"> verticalScrollBar_</text>
<text text-anchor="middle" x="1476" y="-533" font-family="FreeSans" font-size="10.00">horizontalScrollBar_</text>
</g>
<!-- Node21&#45;&gt;Node20 -->
<g id="edge60" class="edge"><title>Node21&#45;&gt;Node20</title>
<path fill="none" stroke="#9a32cd" stroke-dasharray="5,2" d="M1180.35,-524C1212.57,-524 1251.83,-524 1283.6,-524"/>
<polygon fill="#9a32cd" stroke="#9a32cd" points="1180.16,-520.5 1170.16,-524 1180.16,-527.5 1180.16,-520.5"/>
<text text-anchor="middle" x="1227" y="-528" font-family="FreeSans" font-size="10.00"> ptr_</text>
</g>
<!-- Node22&#45;&gt;Node1 -->
<g id="edge82" class="edge"><title>Node22&#45;&gt;Node1</title>
<path fill="none" stroke="#9a32cd" stroke-dasharray="5,2" d="M1414.08,-469.603C1447.68,-469.601 1488.09,-471.197 1524,-477 1581.74,-486.33 1594.62,-496.172 1650,-515 1670.49,-521.968 1693.37,-530.683 1710.52,-537.407"/>
<polygon fill="#9a32cd" stroke="#9a32cd" points="1413.86,-466.104 1403.88,-469.652 1413.89,-473.104 1413.86,-466.104"/>
<text text-anchor="middle" x="1596" y="-519" font-family="FreeSans" font-size="10.00"> overlayContainer_</text>
</g>
<!-- Node22&#45;&gt;Node2 -->
<g id="edge66" class="edge"><title>Node22&#45;&gt;Node2</title>
<path fill="none" stroke="#9a32cd" stroke-dasharray="5,2" d="M1413.63,-478.956C1447.81,-483.783 1488.84,-491.809 1524,-505 1545.54,-513.079 1567.92,-527.565 1581.89,-537.472"/>
<polygon fill="#9a32cd" stroke="#9a32cd" points="1414.09,-475.488 1403.72,-477.618 1413.16,-482.425 1414.09,-475.488"/>
<text text-anchor="middle" x="1476" y="-509" font-family="FreeSans" font-size="10.00"> contentElement_</text>
</g>
<!-- Node23 -->
<g id="node57" class="node"><title>Node23</title>
<a xlink:href="class_urho3_d_1_1_shared_ptr.html" target="_top" xlink:title="Urho3D::SharedPtr\&lt;\l Urho3D::BorderImage \&gt;">
<polygon fill="none" stroke="black" points="1274,-609 1274,-643 1410,-643 1410,-609 1274,-609"/>
<text text-anchor="start" x="1282" y="-630" font-family="FreeSans" font-size="10.00">Urho3D::SharedPtr&lt;</text>
<text text-anchor="middle" x="1342" y="-617" font-family="FreeSans" font-size="10.00"> Urho3D::BorderImage &gt;</text>
</a>
</g>
<!-- Node23&#45;&gt;Node2 -->
<g id="edge70" class="edge"><title>Node23&#45;&gt;Node2</title>
<path fill="none" stroke="#9a32cd" stroke-dasharray="5,2" d="M1419.95,-611.536C1452.58,-604.471 1490.6,-594.899 1524,-583 1542.72,-576.33 1562.99,-566.191 1577.24,-558.539"/>
<polygon fill="#9a32cd" stroke="#9a32cd" points="1419.07,-608.146 1410.01,-613.648 1420.52,-614.993 1419.07,-608.146"/>
<text text-anchor="middle" x="1476" y="-613" font-family="FreeSans" font-size="10.00"> scrollPanel_</text>
</g>
<!-- Node24&#45;&gt;Node23 -->
<g id="edge72" class="edge"><title>Node24&#45;&gt;Node23</title>
<path fill="none" stroke="#9a32cd" stroke-dasharray="5,2" d="M1162.95,-681.4C1198.44,-670.42 1248.58,-654.907 1286.77,-643.088"/>
<polygon fill="#9a32cd" stroke="#9a32cd" points="1161.87,-678.07 1153.36,-684.37 1163.94,-684.758 1161.87,-678.07"/>
<text text-anchor="middle" x="1227" y="-672" font-family="FreeSans" font-size="10.00"> ptr_</text>
</g>
<!-- Node25&#45;&gt;Node1 -->
<g id="edge84" class="edge"><title>Node25&#45;&gt;Node1</title>
<path fill="none" stroke="#9a32cd" stroke-dasharray="5,2" d="M901.983,-909.531C942.086,-910.77 993.364,-912 1039,-912 1039,-912 1039,-912 1596,-912 1673.94,-912 1725.64,-618.183 1735.34,-558.501"/>
<polygon fill="#9a32cd" stroke="#9a32cd" points="901.882,-906.026 891.776,-909.208 901.66,-913.022 901.882,-906.026"/>
<text text-anchor="middle" x="1227" y="-916" font-family="FreeSans" font-size="10.00"> selections_</text>
</g>
</g>
</svg>
