<?xml version="1.0" encoding="UTF-8" standalone="no"?>
<!DOCTYPE svg PUBLIC "-//W3C//DTD SVG 1.1//EN"
 "http://www.w3.org/Graphics/SVG/1.1/DTD/svg11.dtd">
<!-- Generated by graphviz version 2.26.3 (20100126.1600)
 -->
<!-- Title: Urho3D::FontFaceFreeType Pages: 1 -->
<!--zoomable 683 -->
<svg id="main" version="1.1" xmlns="http://www.w3.org/2000/svg" xmlns:xlink="http://www.w3.org/1999/xlink" xml:space="preserve" onload="init(evt)">
        <defs>
                <circle id="rim" cx="0" cy="0" r="7"/>
                <circle id="rim2" cx="0" cy="0" r="3.5"/>
                <g id="zoomPlus">
                        <use xlink:href="#rim" fill="#404040">
                                <set attributeName="fill" to="#808080" begin="zoomplus.mouseover" end="zoomplus.mouseout"/>
                        </use>
                        <path d="M-4,0h8M0,-4v8" fill="none" stroke="white" stroke-width="1.5" pointer-events="none"/>
                </g>
                <g id="zoomMin">
                        <use xlink:href="#rim" fill="#404040">
                                <set attributeName="fill" to="#808080" begin="zoomminus.mouseover" end="zoomminus.mouseout"/>
                        </use>
                        <path d="M-4,0h8" fill="none" stroke="white" stroke-width="1.5" pointer-events="none"/>
                </g>
                <g id="dirArrow">
                        <path fill="none" stroke="white" stroke-width="1.5" d="M0,-3.0v7 M-2.5,-0.5L0,-3.0L2.5,-0.5"/>
                </g>
               <g id="resetDef">
                       <use xlink:href="#rim2" fill="#404040">
                               <set attributeName="fill" to="#808080" begin="reset.mouseover" end="reset.mouseout"/>
                       </use>
               </g>
        </defs>

<script type="text/javascript">
var viewWidth = 1770;
var viewHeight = 683;
var sectionId = 'dynsection-1';
</script>
<script xlink:href="svgpan.js"/>
<svg id="graph" class="graph">
<g id="viewport">
<title>Urho3D::FontFaceFreeType</title>
<!-- Node1 -->
<g id="node1" class="node"><title>Node1</title>
<polygon fill="#bfbfbf" stroke="black" points="1618.5,-288.5 1618.5,-309.5 1761.5,-309.5 1761.5,-288.5 1618.5,-288.5"/>
<text text-anchor="middle" x="1690" y="-296.5" font-family="FreeSans" font-size="10.00">Urho3D::FontFaceFreeType</text>
</g>
<!-- Node2 -->
<g id="node2" class="node"><title>Node2</title>
<a xlink:href="class_urho3_d_1_1_font_face.html" target="_top" xlink:title="Font face description.">
<polygon fill="none" stroke="black" points="1419,-480.5 1419,-501.5 1521,-501.5 1521,-480.5 1419,-480.5"/>
<text text-anchor="middle" x="1470" y="-488.5" font-family="FreeSans" font-size="10.00">Urho3D::FontFace</text>
</a>
</g>
<!-- Node2&#45;&gt;Node1 -->
<g id="edge2" class="edge"><title>Node2&#45;&gt;Node1</title>
<path fill="none" stroke="midnightblue" d="M1489.7,-473.808C1534.26,-434.918 1641.74,-341.122 1677.9,-309.563"/>
<polygon fill="midnightblue" stroke="midnightblue" points="1487.37,-471.191 1482.14,-480.404 1491.98,-476.465 1487.37,-471.191"/>
</g>
<!-- Node3 -->
<g id="node4" class="node"><title>Node3</title>
<a xlink:href="class_urho3_d_1_1_ref_counted.html" target="_top" xlink:title="Base class for intrusively reference&#45;counted objects. These are noncopyable and non&#45;assignable.">
<polygon fill="none" stroke="black" points="198,-207.5 198,-228.5 312,-228.5 312,-207.5 198,-207.5"/>
<text text-anchor="middle" x="255" y="-215.5" font-family="FreeSans" font-size="10.00">Urho3D::RefCounted</text>
</a>
</g>
<!-- Node3&#45;&gt;Node2 -->
<g id="edge4" class="edge"><title>Node3&#45;&gt;Node2</title>
<path fill="none" stroke="midnightblue" d="M263.388,-237.797C292.426,-302.866 395.382,-506 549,-506 549,-506 549,-506 1158,-506 1250.05,-506 1357.21,-499.405 1418.97,-494.961"/>
<polygon fill="midnightblue" stroke="midnightblue" points="266.576,-236.354 259.365,-228.592 260.162,-239.156 266.576,-236.354"/>
</g>
<!-- Node14 -->
<g id="node29" class="node"><title>Node14</title>
<a xlink:href="class_urho3_d_1_1_object.html" target="_top" xlink:title="Base class for objects with type identification, subsystem access and event sending/receiving capabil...">
<polygon fill="none" stroke="red" points="504,-207.5 504,-228.5 594,-228.5 594,-207.5 504,-207.5"/>
<text text-anchor="middle" x="549" y="-215.5" font-family="FreeSans" font-size="10.00">Urho3D::Object</text>
</a>
</g>
<!-- Node3&#45;&gt;Node14 -->
<g id="edge34" class="edge"><title>Node3&#45;&gt;Node14</title>
<path fill="none" stroke="midnightblue" d="M322.147,-218C377.728,-218 455.177,-218 503.677,-218"/>
<polygon fill="midnightblue" stroke="midnightblue" points="322.035,-214.5 312.035,-218 322.035,-221.5 322.035,-214.5"/>
</g>
<!-- Node4 -->
<g id="node6" class="node"><title>Node4</title>
<a xlink:href="struct_urho3_d_1_1_ref_count.html" target="_top" xlink:title="Reference count structure.">
<polygon fill="none" stroke="black" points="0,-186.5 0,-207.5 102,-207.5 102,-186.5 0,-186.5"/>
<text text-anchor="middle" x="51" y="-194.5" font-family="FreeSans" font-size="10.00">Urho3D::RefCount</text>
</a>
</g>
<!-- Node4&#45;&gt;Node3 -->
<g id="edge6" class="edge"><title>Node4&#45;&gt;Node3</title>
<path fill="none" stroke="#9a32cd" stroke-dasharray="5,2" d="M112.345,-203.315C139.414,-206.101 171.051,-209.358 197.643,-212.096"/>
<polygon fill="#9a32cd" stroke="#9a32cd" points="112.52,-199.815 102.214,-202.272 111.803,-206.778 112.52,-199.815"/>
<text text-anchor="middle" x="145" y="-213" font-family="FreeSans" font-size="10.00"> refCount_</text>
</g>
<!-- Node19 -->
<g id="node43" class="node"><title>Node19</title>
<a xlink:href="class_urho3_d_1_1_shared_array_ptr.html" target="_top" xlink:title="Urho3D::SharedArrayPtr\l\&lt; unsigned char \&gt;">
<polygon fill="none" stroke="black" points="340.5,-162 340.5,-196 473.5,-196 473.5,-162 340.5,-162"/>
<text text-anchor="start" x="348.5" y="-183" font-family="FreeSans" font-size="10.00">Urho3D::SharedArrayPtr</text>
<text text-anchor="middle" x="407" y="-170" font-family="FreeSans" font-size="10.00">&lt; unsigned char &gt;</text>
</a>
</g>
<!-- Node4&#45;&gt;Node19 -->
<g id="edge52" class="edge"><title>Node4&#45;&gt;Node19</title>
<path fill="none" stroke="#9a32cd" stroke-dasharray="5,2" d="M112.291,-188.688C114.893,-188.435 117.471,-188.204 120,-188 195.404,-181.915 282.259,-179.882 340.494,-179.235"/>
<polygon fill="#9a32cd" stroke="#9a32cd" points="111.763,-185.224 102.185,-189.754 112.498,-192.185 111.763,-185.224"/>
<text text-anchor="middle" x="145" y="-192" font-family="FreeSans" font-size="10.00"> refCount_</text>
</g>
<!-- Node5 -->
<g id="node8" class="node"><title>Node5</title>
<a xlink:href="class_urho3_d_1_1_hash_map.html" target="_top" xlink:title="Urho3D::HashMap\&lt; unsigned,\l short \&gt;">
<polygon fill="none" stroke="black" points="880,-535 880,-569 1042,-569 1042,-535 880,-535"/>
<text text-anchor="start" x="888" y="-556" font-family="FreeSans" font-size="10.00">Urho3D::HashMap&lt; unsigned,</text>
<text text-anchor="middle" x="961" y="-543" font-family="FreeSans" font-size="10.00"> short &gt;</text>
</a>
</g>
<!-- Node5&#45;&gt;Node2 -->
<g id="edge8" class="edge"><title>Node5&#45;&gt;Node2</title>
<path fill="none" stroke="#9a32cd" stroke-dasharray="5,2" d="M1052.36,-552.369C1139.91,-551.042 1275.32,-544.576 1390,-520 1409.5,-515.821 1430.68,-507.985 1446.35,-501.511"/>
<polygon fill="#9a32cd" stroke="#9a32cd" points="1052.14,-548.872 1042.19,-552.503 1052.23,-555.871 1052.14,-548.872"/>
<text text-anchor="middle" x="1158" y="-556" font-family="FreeSans" font-size="10.00"> kerningMapping_</text>
</g>
<!-- Node6 -->
<g id="node10" class="node"><title>Node6</title>
<a xlink:href="class_urho3_d_1_1_hash_base.html" target="_top" xlink:title="Hash set/map base class.">
<polygon fill="none" stroke="black" points="495,-541.5 495,-562.5 603,-562.5 603,-541.5 495,-541.5"/>
<text text-anchor="middle" x="549" y="-549.5" font-family="FreeSans" font-size="10.00">Urho3D::HashBase</text>
</a>
</g>
<!-- Node6&#45;&gt;Node5 -->
<g id="edge10" class="edge"><title>Node6&#45;&gt;Node5</title>
<path fill="none" stroke="midnightblue" d="M613.569,-552C685.52,-552 801.977,-552 879.987,-552"/>
<polygon fill="midnightblue" stroke="midnightblue" points="613.286,-548.5 603.285,-552 613.285,-555.5 613.286,-548.5"/>
</g>
<!-- Node11 -->
<g id="node22" class="node"><title>Node11</title>
<a xlink:href="class_urho3_d_1_1_hash_map.html" target="_top" xlink:title="Urho3D::HashMap\&lt; unsigned,\l Urho3D::FontGlyph \&gt;">
<polygon fill="none" stroke="black" points="880,-579 880,-613 1042,-613 1042,-579 880,-579"/>
<text text-anchor="start" x="888" y="-600" font-family="FreeSans" font-size="10.00">Urho3D::HashMap&lt; unsigned,</text>
<text text-anchor="middle" x="961" y="-587" font-family="FreeSans" font-size="10.00"> Urho3D::FontGlyph &gt;</text>
</a>
</g>
<!-- Node6&#45;&gt;Node11 -->
<g id="edge26" class="edge"><title>Node6&#45;&gt;Node11</title>
<path fill="none" stroke="midnightblue" d="M611.915,-564.197C615.998,-564.849 620.053,-565.457 624,-566 710.995,-577.964 811.312,-586.185 879.723,-590.955"/>
<polygon fill="midnightblue" stroke="midnightblue" points="612.194,-560.696 601.754,-562.503 611.043,-567.6 612.194,-560.696"/>
</g>
<!-- Node18 -->
<g id="node40" class="node"><title>Node18</title>
<a xlink:href="class_urho3_d_1_1_hash_map.html" target="_top" xlink:title="Urho3D::HashMap\&lt; int,\l Urho3D::SharedPtr\&lt; Urho3D\l::FontFace \&gt; \&gt;">
<polygon fill="none" stroke="black" points="704,-390.5 704,-437.5 862,-437.5 862,-390.5 704,-390.5"/>
<text text-anchor="start" x="712" y="-424.5" font-family="FreeSans" font-size="10.00">Urho3D::HashMap&lt; int,</text>
<text text-anchor="start" x="712" y="-411.5" font-family="FreeSans" font-size="10.00"> Urho3D::SharedPtr&lt; Urho3D</text>
<text text-anchor="middle" x="783" y="-398.5" font-family="FreeSans" font-size="10.00">::FontFace &gt; &gt;</text>
</a>
</g>
<!-- Node6&#45;&gt;Node18 -->
<g id="edge48" class="edge"><title>Node6&#45;&gt;Node18</title>
<path fill="none" stroke="midnightblue" d="M570.752,-535.204C599.962,-513.14 653.989,-474.033 704,-447 710.015,-443.749 716.419,-440.6 722.878,-437.623"/>
<polygon fill="midnightblue" stroke="midnightblue" points="568.353,-532.631 562.515,-541.472 572.592,-538.202 568.353,-532.631"/>
</g>
<!-- Node7 -->
<g id="node12" class="node"><title>Node7</title>
<a xlink:href="struct_urho3_d_1_1_hash_node_base.html" target="_top" xlink:title="Hash set/map node base class.">
<polygon fill="none" stroke="black" points="188,-525.5 188,-546.5 322,-546.5 322,-525.5 188,-525.5"/>
<text text-anchor="middle" x="255" y="-533.5" font-family="FreeSans" font-size="10.00">Urho3D::HashNodeBase</text>
</a>
</g>
<!-- Node7&#45;&gt;Node6 -->
<g id="edge12" class="edge"><title>Node7&#45;&gt;Node6</title>
<path fill="none" stroke="#9a32cd" stroke-dasharray="5,2" d="M332.117,-540.197C383.335,-542.984 449.302,-546.574 494.968,-549.059"/>
<polygon fill="#9a32cd" stroke="#9a32cd" points="332.256,-536.699 322.081,-539.651 331.876,-543.689 332.256,-536.699"/>
<text text-anchor="middle" x="407" y="-577" font-family="FreeSans" font-size="10.00"> ptrs_</text>
<text text-anchor="middle" x="407" y="-564" font-family="FreeSans" font-size="10.00">tail_</text>
<text text-anchor="middle" x="407" y="-551" font-family="FreeSans" font-size="10.00">head_</text>
</g>
<!-- Node7&#45;&gt;Node7 -->
<g id="edge14" class="edge"><title>Node7&#45;&gt;Node7</title>
<path fill="none" stroke="#9a32cd" stroke-dasharray="5,2" d="M234.728,-556.427C236.292,-561.349 243.049,-565 255,-565 274.121,-565 279.947,-555.653 272.478,-546.708"/>
<polygon fill="#9a32cd" stroke="#9a32cd" points="238.123,-557.286 237.522,-546.708 231.395,-555.352 238.123,-557.286"/>
<text text-anchor="middle" x="255" y="-595" font-family="FreeSans" font-size="10.00"> next_</text>
<text text-anchor="middle" x="255" y="-582" font-family="FreeSans" font-size="10.00">prev_</text>
<text text-anchor="middle" x="255" y="-569" font-family="FreeSans" font-size="10.00">down_</text>
</g>
<!-- Node8 -->
<g id="node15" class="node"><title>Node8</title>
<a xlink:href="struct_urho3_d_1_1_allocator_block.html" target="_top" xlink:title="Allocator memory block.">
<polygon fill="none" stroke="red" points="191.5,-622.5 191.5,-643.5 318.5,-643.5 318.5,-622.5 191.5,-622.5"/>
<text text-anchor="middle" x="255" y="-630.5" font-family="FreeSans" font-size="10.00">Urho3D::AllocatorBlock</text>
</a>
</g>
<!-- Node8&#45;&gt;Node6 -->
<g id="edge16" class="edge"><title>Node8&#45;&gt;Node6</title>
<path fill="none" stroke="#9a32cd" stroke-dasharray="5,2" d="M328.639,-623.711C371.768,-617.003 426.853,-606.224 474,-590 494.566,-582.923 516.599,-571.211 531.424,-562.657"/>
<polygon fill="#9a32cd" stroke="#9a32cd" points="327.87,-620.287 318.507,-625.246 328.919,-627.208 327.87,-620.287"/>
<text text-anchor="middle" x="407" y="-625" font-family="FreeSans" font-size="10.00"> allocator_</text>
</g>
<!-- Node8&#45;&gt;Node8 -->
<g id="edge18" class="edge"><title>Node8&#45;&gt;Node8</title>
<path fill="none" stroke="#9a32cd" stroke-dasharray="5,2" d="M234.728,-653.427C236.292,-658.349 243.049,-662 255,-662 274.121,-662 279.947,-652.653 272.478,-643.708"/>
<polygon fill="#9a32cd" stroke="#9a32cd" points="238.123,-654.286 237.522,-643.708 231.395,-652.352 238.123,-654.286"/>
<text text-anchor="middle" x="255" y="-666" font-family="FreeSans" font-size="10.00"> next_</text>
</g>
<!-- Node9 -->
<g id="node18" class="node"><title>Node9</title>
<a xlink:href="class_urho3_d_1_1_vector.html" target="_top" xlink:title="Urho3D::Vector\&lt; Urho3D\l::SharedPtr\&lt; Urho3D::Texture2D \&gt; \&gt;">
<polygon fill="none" stroke="black" points="1060.5,-444 1060.5,-478 1255.5,-478 1255.5,-444 1060.5,-444"/>
<text text-anchor="start" x="1068.5" y="-465" font-family="FreeSans" font-size="10.00">Urho3D::Vector&lt; Urho3D</text>
<text text-anchor="middle" x="1158" y="-452" font-family="FreeSans" font-size="10.00">::SharedPtr&lt; Urho3D::Texture2D &gt; &gt;</text>
</a>
</g>
<!-- Node9&#45;&gt;Node2 -->
<g id="edge20" class="edge"><title>Node9&#45;&gt;Node2</title>
<path fill="none" stroke="#9a32cd" stroke-dasharray="5,2" d="M1265.62,-467.742C1304.83,-470.622 1349.47,-474.394 1390,-479 1399.35,-480.063 1409.28,-481.391 1418.86,-482.773"/>
<polygon fill="#9a32cd" stroke="#9a32cd" points="1265.73,-464.241 1255.51,-467.01 1265.23,-471.223 1265.73,-464.241"/>
<text text-anchor="middle" x="1332" y="-483" font-family="FreeSans" font-size="10.00"> textures_</text>
</g>
<!-- Node10 -->
<g id="node20" class="node"><title>Node10</title>
<a xlink:href="class_urho3_d_1_1_vector_base.html" target="_top" xlink:title="Vector base class.">
<polygon fill="none" stroke="black" points="726,-456.5 726,-477.5 840,-477.5 840,-456.5 726,-456.5"/>
<text text-anchor="middle" x="783" y="-464.5" font-family="FreeSans" font-size="10.00">Urho3D::VectorBase</text>
</a>
</g>
<!-- Node10&#45;&gt;Node9 -->
<g id="edge22" class="edge"><title>Node10&#45;&gt;Node9</title>
<path fill="none" stroke="midnightblue" d="M850.591,-465.919C909.039,-464.983 994.267,-463.62 1060.17,-462.565"/>
<polygon fill="midnightblue" stroke="midnightblue" points="850.305,-462.423 840.363,-466.082 850.417,-469.422 850.305,-462.423"/>
</g>
<!-- Node25 -->
<g id="node59" class="node"><title>Node25</title>
<a xlink:href="class_urho3_d_1_1_p_o_d_vector.html" target="_top" xlink:title="Urho3D::PODVector\&lt;\l Urho3D::IntRect \&gt;">
<polygon fill="none" stroke="black" points="1098.5,-382 1098.5,-416 1217.5,-416 1217.5,-382 1098.5,-382"/>
<text text-anchor="start" x="1106.5" y="-403" font-family="FreeSans" font-size="10.00">Urho3D::PODVector&lt;</text>
<text text-anchor="middle" x="1158" y="-390" font-family="FreeSans" font-size="10.00"> Urho3D::IntRect &gt;</text>
</a>
</g>
<!-- Node10&#45;&gt;Node25 -->
<g id="edge72" class="edge"><title>Node10&#45;&gt;Node25</title>
<path fill="none" stroke="midnightblue" d="M850.491,-454.762C921.13,-441.952 1030.97,-422.035 1098.47,-409.794"/>
<polygon fill="midnightblue" stroke="midnightblue" points="849.578,-451.37 840.363,-456.598 850.827,-458.258 849.578,-451.37"/>
</g>
<!-- Node11&#45;&gt;Node2 -->
<g id="edge24" class="edge"><title>Node11&#45;&gt;Node2</title>
<path fill="none" stroke="#9a32cd" stroke-dasharray="5,2" d="M1052.44,-597.823C1141.67,-596.571 1279.72,-586.455 1390,-542 1415.36,-531.777 1441.47,-513.368 1456.69,-501.688"/>
<polygon fill="#9a32cd" stroke="#9a32cd" points="1052.31,-594.324 1042.34,-597.93 1052.38,-601.324 1052.31,-594.324"/>
<text text-anchor="middle" x="1158" y="-601" font-family="FreeSans" font-size="10.00"> glyphMapping_</text>
</g>
<!-- Node12 -->
<g id="node25" class="node"><title>Node12</title>
<a xlink:href="class_urho3_d_1_1_font.html" target="_top" xlink:title="Font resource.">
<polygon fill="none" stroke="black" points="1118,-234.5 1118,-255.5 1198,-255.5 1198,-234.5 1118,-234.5"/>
<text text-anchor="middle" x="1158" y="-242.5" font-family="FreeSans" font-size="10.00">Urho3D::Font</text>
</a>
</g>
<!-- Node12&#45;&gt;Node2 -->
<g id="edge28" class="edge"><title>Node12&#45;&gt;Node2</title>
<path fill="none" stroke="#9a32cd" stroke-dasharray="5,2" d="M1208.32,-245.059C1259.68,-247.722 1338.9,-259.367 1390,-303 1446.92,-351.6 1464.36,-447.801 1468.73,-480.12"/>
<polygon fill="#9a32cd" stroke="#9a32cd" points="1208.26,-241.554 1198.12,-244.629 1207.97,-248.547 1208.26,-241.554"/>
<text text-anchor="middle" x="1332" y="-307" font-family="FreeSans" font-size="10.00"> font_</text>
</g>
<!-- Node13 -->
<g id="node27" class="node"><title>Node13</title>
<a xlink:href="class_urho3_d_1_1_resource.html" target="_top" xlink:title="Base class for resources.">
<polygon fill="none" stroke="black" points="731.5,-214.5 731.5,-235.5 834.5,-235.5 834.5,-214.5 731.5,-214.5"/>
<text text-anchor="middle" x="783" y="-222.5" font-family="FreeSans" font-size="10.00">Urho3D::Resource</text>
</a>
</g>
<!-- Node13&#45;&gt;Node12 -->
<g id="edge30" class="edge"><title>Node13&#45;&gt;Node12</title>
<path fill="none" stroke="midnightblue" d="M844.841,-228.298C922.227,-232.425 1052.52,-239.375 1117.96,-242.864"/>
<polygon fill="midnightblue" stroke="midnightblue" points="844.921,-224.798 834.748,-227.76 844.548,-231.788 844.921,-224.798"/>
</g>
<!-- Node14&#45;&gt;Node13 -->
<g id="edge32" class="edge"><title>Node14&#45;&gt;Node13</title>
<path fill="none" stroke="midnightblue" d="M604.586,-219.663C642.932,-220.81 693.56,-222.324 731.086,-223.447"/>
<polygon fill="midnightblue" stroke="midnightblue" points="604.218,-216.15 594.118,-219.35 604.008,-223.147 604.218,-216.15"/>
</g>
<!-- Node23 -->
<g id="node54" class="node"><title>Node23</title>
<a xlink:title="FreeType library subsystem.">
<polygon fill="none" stroke="#bfbfbf" points="716.5,-0.5 716.5,-21.5 849.5,-21.5 849.5,-0.5 716.5,-0.5"/>
<text text-anchor="middle" x="783" y="-8.5" font-family="FreeSans" font-size="10.00">Urho3D::FreeTypeLibrary</text>
</a>
</g>
<!-- Node14&#45;&gt;Node23 -->
<g id="edge66" class="edge"><title>Node14&#45;&gt;Node23</title>
<path fill="none" stroke="midnightblue" d="M604.236,-222.408C632.644,-221.503 665.514,-214.969 686,-193 735.405,-140.018 656.409,-85.6181 704,-31 707.532,-26.9466 711.756,-23.6559 716.389,-20.9908"/>
<polygon fill="midnightblue" stroke="midnightblue" points="603.969,-218.91 594.003,-222.505 604.035,-225.91 603.969,-218.91"/>
</g>
<!-- Node15 -->
<g id="node32" class="node"><title>Node15</title>
<a xlink:href="class_urho3_d_1_1_timer.html" target="_top" xlink:title="Low&#45;resolution operating system timer.">
<polygon fill="none" stroke="black" points="506,-389.5 506,-410.5 592,-410.5 592,-389.5 506,-389.5"/>
<text text-anchor="middle" x="549" y="-397.5" font-family="FreeSans" font-size="10.00">Urho3D::Timer</text>
</a>
</g>
<!-- Node15&#45;&gt;Node13 -->
<g id="edge36" class="edge"><title>Node15&#45;&gt;Node13</title>
<path fill="none" stroke="#9a32cd" stroke-dasharray="5,2" d="M594.257,-385.69C598.306,-383.943 602.277,-382.045 606,-380 645.668,-358.213 661.412,-354.995 686,-317 703.92,-289.308 680.711,-268.358 704,-245 711.392,-237.586 721.112,-232.787 731.195,-229.711"/>
<polygon fill="#9a32cd" stroke="#9a32cd" points="592.739,-382.528 584.753,-389.49 595.338,-389.028 592.739,-382.528"/>
<text text-anchor="middle" x="655" y="-373" font-family="FreeSans" font-size="10.00"> useTimer_</text>
</g>
<!-- Node16 -->
<g id="node34" class="node"><title>Node16</title>
<a xlink:href="class_urho3_d_1_1_string.html" target="_top" xlink:title="String class.">
<polygon fill="none" stroke="black" points="505,-318.5 505,-339.5 593,-339.5 593,-318.5 505,-318.5"/>
<text text-anchor="middle" x="549" y="-326.5" font-family="FreeSans" font-size="10.00">Urho3D::String</text>
</a>
</g>
<!-- Node16&#45;&gt;Node13 -->
<g id="edge38" class="edge"><title>Node16&#45;&gt;Node13</title>
<path fill="none" stroke="#9a32cd" stroke-dasharray="5,2" d="M591.991,-314.827C596.765,-312.984 601.518,-311.028 606,-309 643.167,-292.182 653.833,-289.089 686,-264 695.172,-256.846 693.965,-250.882 704,-245 712.3,-240.135 721.764,-236.443 731.189,-233.645"/>
<polygon fill="#9a32cd" stroke="#9a32cd" points="590.404,-311.682 582.241,-318.437 592.834,-318.247 590.404,-311.682"/>
<text text-anchor="middle" x="655" y="-304" font-family="FreeSans" font-size="10.00"> name_</text>
</g>
<!-- Node16&#45;&gt;Node16 -->
<g id="edge40" class="edge"><title>Node16&#45;&gt;Node16</title>
<path fill="none" stroke="#9a32cd" stroke-dasharray="5,2" d="M529.465,-349.427C530.972,-354.349 537.484,-358 549,-358 567.426,-358 573.04,-348.653 565.842,-339.708"/>
<polygon fill="#9a32cd" stroke="#9a32cd" points="532.861,-350.279 532.158,-339.708 526.115,-348.41 532.861,-350.279"/>
<text text-anchor="middle" x="549" y="-362" font-family="FreeSans" font-size="10.00"> EMPTY</text>
</g>
<!-- Node17 -->
<g id="node37" class="node"><title>Node17</title>
<a xlink:href="class_urho3_d_1_1_string_hash.html" target="_top" xlink:title="32&#45;bit hash value for a string.">
<polygon fill="none" stroke="black" points="492.5,-247.5 492.5,-268.5 605.5,-268.5 605.5,-247.5 492.5,-247.5"/>
<text text-anchor="middle" x="549" y="-255.5" font-family="FreeSans" font-size="10.00">Urho3D::StringHash</text>
</a>
</g>
<!-- Node17&#45;&gt;Node13 -->
<g id="edge42" class="edge"><title>Node17&#45;&gt;Node13</title>
<path fill="none" stroke="#9a32cd" stroke-dasharray="5,2" d="M615.761,-248.585C652.447,-243.411 697.268,-237.09 731.272,-232.295"/>
<polygon fill="#9a32cd" stroke="#9a32cd" points="615.058,-245.149 605.645,-250.012 616.036,-252.081 615.058,-245.149"/>
<text text-anchor="middle" x="655" y="-251" font-family="FreeSans" font-size="10.00"> nameHash_</text>
</g>
<!-- Node17&#45;&gt;Node17 -->
<g id="edge44" class="edge"><title>Node17&#45;&gt;Node17</title>
<path fill="none" stroke="#9a32cd" stroke-dasharray="5,2" d="M529.465,-278.427C530.972,-283.349 537.484,-287 549,-287 567.426,-287 573.04,-277.653 565.842,-268.708"/>
<polygon fill="#9a32cd" stroke="#9a32cd" points="532.861,-279.279 532.158,-268.708 526.115,-277.41 532.861,-279.279"/>
<text text-anchor="middle" x="549" y="-291" font-family="FreeSans" font-size="10.00"> ZERO</text>
</g>
<!-- Node18&#45;&gt;Node12 -->
<g id="edge46" class="edge"><title>Node18&#45;&gt;Node12</title>
<path fill="none" stroke="#9a32cd" stroke-dasharray="5,2" d="M849.425,-386.451C853.687,-384.622 857.908,-382.794 862,-381 965.071,-335.811 1086.76,-278.697 1135.84,-255.504"/>
<polygon fill="#9a32cd" stroke="#9a32cd" points="847.886,-383.302 840.06,-390.444 850.632,-389.741 847.886,-383.302"/>
<text text-anchor="middle" x="961" y="-374" font-family="FreeSans" font-size="10.00"> faces_</text>
</g>
<!-- Node19&#45;&gt;Node12 -->
<g id="edge50" class="edge"><title>Node19&#45;&gt;Node12</title>
<path fill="none" stroke="#9a32cd" stroke-dasharray="5,2" d="M483.969,-181.882C574.539,-185.625 729.396,-193.12 862,-205 942.274,-212.192 962.168,-215.931 1042,-227 1067.23,-230.499 1095.48,-234.872 1117.78,-238.432"/>
<polygon fill="#9a32cd" stroke="#9a32cd" points="483.924,-178.378 473.789,-181.466 483.638,-185.372 483.924,-178.378"/>
<text text-anchor="middle" x="655" y="-197" font-family="FreeSans" font-size="10.00"> fontData_</text>
</g>
<!-- Node20 -->
<g id="node46" class="node"><title>Node20</title>
<a xlink:href="class_urho3_d_1_1_vector2.html" target="_top" xlink:title="Two&#45;dimensional vector.">
<polygon fill="none" stroke="black" points="735,-254.5 735,-275.5 831,-275.5 831,-254.5 735,-254.5"/>
<text text-anchor="middle" x="783" y="-262.5" font-family="FreeSans" font-size="10.00">Urho3D::Vector2</text>
</a>
</g>
<!-- Node20&#45;&gt;Node12 -->
<g id="edge54" class="edge"><title>Node20&#45;&gt;Node12</title>
<path fill="none" stroke="#9a32cd" stroke-dasharray="5,2" d="M841.26,-261.893C918.139,-257.793 1051.47,-250.681 1117.94,-247.137"/>
<polygon fill="#9a32cd" stroke="#9a32cd" points="841.056,-258.399 831.257,-262.426 841.429,-265.389 841.056,-258.399"/>
<text text-anchor="middle" x="961" y="-263" font-family="FreeSans" font-size="10.00"> scaledOffset_</text>
</g>
<!-- Node20&#45;&gt;Node20 -->
<g id="edge56" class="edge"><title>Node20&#45;&gt;Node20</title>
<path fill="none" stroke="#9a32cd" stroke-dasharray="5,2" d="M759.411,-285.427C761.231,-290.349 769.094,-294 783,-294 805.25,-294 812.029,-284.653 803.338,-275.708"/>
<polygon fill="#9a32cd" stroke="#9a32cd" points="762.809,-286.302 762.662,-275.708 756.17,-284.081 762.809,-286.302"/>
<text text-anchor="middle" x="783" y="-363" font-family="FreeSans" font-size="10.00"> ONE</text>
<text text-anchor="middle" x="783" y="-350" font-family="FreeSans" font-size="10.00">DOWN</text>
<text text-anchor="middle" x="783" y="-337" font-family="FreeSans" font-size="10.00">RIGHT</text>
<text text-anchor="middle" x="783" y="-324" font-family="FreeSans" font-size="10.00">LEFT</text>
<text text-anchor="middle" x="783" y="-311" font-family="FreeSans" font-size="10.00">ZERO</text>
<text text-anchor="middle" x="783" y="-298" font-family="FreeSans" font-size="10.00">UP</text>
</g>
<!-- Node21 -->
<g id="node49" class="node"><title>Node21</title>
<a xlink:href="class_urho3_d_1_1_int_vector2.html" target="_top" xlink:title="Two&#45;dimensional vector with integer values.">
<polygon fill="none" stroke="black" points="729,-40.5 729,-61.5 837,-61.5 837,-40.5 729,-40.5"/>
<text text-anchor="middle" x="783" y="-48.5" font-family="FreeSans" font-size="10.00">Urho3D::IntVector2</text>
</a>
</g>
<!-- Node21&#45;&gt;Node12 -->
<g id="edge58" class="edge"><title>Node21&#45;&gt;Node12</title>
<path fill="none" stroke="#9a32cd" stroke-dasharray="5,2" d="M804.589,-67.792C823.548,-81.8407 852.343,-101.534 880,-114 948.125,-144.708 974.858,-126.197 1042,-159 1084.35,-179.689 1127.06,-216.372 1146.76,-234.399"/>
<polygon fill="#9a32cd" stroke="#9a32cd" points="806.458,-64.8175 796.366,-61.5931 802.244,-70.4074 806.458,-64.8175"/>
<text text-anchor="middle" x="961" y="-163" font-family="FreeSans" font-size="10.00"> absoluteOffset_</text>
</g>
<!-- Node21&#45;&gt;Node21 -->
<g id="edge60" class="edge"><title>Node21&#45;&gt;Node21</title>
<path fill="none" stroke="#9a32cd" stroke-dasharray="5,2" d="M759.411,-71.4266C761.231,-76.3489 769.094,-80 783,-80 805.25,-80 812.029,-70.6531 803.338,-61.7079"/>
<polygon fill="#9a32cd" stroke="#9a32cd" points="762.809,-72.3017 762.662,-61.7079 756.17,-70.0809 762.809,-72.3017"/>
<text text-anchor="middle" x="783" y="-149" font-family="FreeSans" font-size="10.00"> ONE</text>
<text text-anchor="middle" x="783" y="-136" font-family="FreeSans" font-size="10.00">DOWN</text>
<text text-anchor="middle" x="783" y="-123" font-family="FreeSans" font-size="10.00">RIGHT</text>
<text text-anchor="middle" x="783" y="-110" font-family="FreeSans" font-size="10.00">LEFT</text>
<text text-anchor="middle" x="783" y="-97" font-family="FreeSans" font-size="10.00">ZERO</text>
<text text-anchor="middle" x="783" y="-84" font-family="FreeSans" font-size="10.00">UP</text>
</g>
<!-- Node24 -->
<g id="node57" class="node"><title>Node24</title>
<a xlink:href="class_urho3_d_1_1_area_allocator.html" target="_top" xlink:title="Rectangular area allocator.">
<polygon fill="none" stroke="black" points="1408,-241.5 1408,-262.5 1532,-262.5 1532,-241.5 1408,-241.5"/>
<text text-anchor="middle" x="1470" y="-249.5" font-family="FreeSans" font-size="10.00">Urho3D::AreaAllocator</text>
</a>
</g>
<!-- Node21&#45;&gt;Node24 -->
<g id="edge74" class="edge"><title>Node21&#45;&gt;Node24</title>
<path fill="none" stroke="#9a32cd" stroke-dasharray="5,2" d="M847.18,-48.3143C963.474,-46.3152 1213.34,-55.4053 1390,-157 1426.07,-177.746 1453.23,-221.206 1464.4,-241.341"/>
<polygon fill="#9a32cd" stroke="#9a32cd" points="846.947,-44.8183 837.021,-48.5234 847.091,-51.8168 846.947,-44.8183"/>
<text text-anchor="middle" x="1158" y="-116" font-family="FreeSans" font-size="10.00"> maxSize_</text>
<text text-anchor="middle" x="1158" y="-103" font-family="FreeSans" font-size="10.00">size_</text>
</g>
<!-- Node22 -->
<g id="node52" class="node"><title>Node22</title>
<a xlink:href="class_urho3_d_1_1_shared_ptr.html" target="_top" xlink:title="Urho3D::SharedPtr\&lt;\l FreeTypeLibrary \&gt;">
<polygon fill="none" stroke="black" points="1274,-166 1274,-200 1390,-200 1390,-166 1274,-166"/>
<text text-anchor="start" x="1282" y="-187" font-family="FreeSans" font-size="10.00">Urho3D::SharedPtr&lt;</text>
<text text-anchor="middle" x="1332" y="-174" font-family="FreeSans" font-size="10.00"> FreeTypeLibrary &gt;</text>
</a>
</g>
<!-- Node22&#45;&gt;Node1 -->
<g id="edge62" class="edge"><title>Node22&#45;&gt;Node1</title>
<path fill="none" stroke="#9a32cd" stroke-dasharray="5,2" d="M1354.34,-207.743C1365.26,-220.01 1378.5,-235.132 1390,-249 1398.29,-258.99 1396.62,-265.764 1408,-272 1472.7,-307.44 1558.4,-310.619 1618.27,-307.175"/>
<polygon fill="#9a32cd" stroke="#9a32cd" points="1356.81,-205.259 1347.54,-200.137 1351.59,-209.925 1356.81,-205.259"/>
<text text-anchor="middle" x="1470" y="-309" font-family="FreeSans" font-size="10.00"> freeType_</text>
</g>
<!-- Node23&#45;&gt;Node22 -->
<g id="edge64" class="edge"><title>Node23&#45;&gt;Node22</title>
<path fill="none" stroke="#9a32cd" stroke-dasharray="5,2" d="M859.718,-4.27346C958.614,0.674059 1132.52,-3.56128 1256,-78 1290.5,-98.7958 1313.91,-141.845 1324.87,-165.861"/>
<polygon fill="#9a32cd" stroke="#9a32cd" points="859.3,-0.790953 849.506,-4.83053 859.682,-7.78056 859.3,-0.790953"/>
<text text-anchor="middle" x="961" y="-14" font-family="FreeSans" font-size="10.00"> ptr_</text>
</g>
<!-- Node24&#45;&gt;Node1 -->
<g id="edge68" class="edge"><title>Node24&#45;&gt;Node1</title>
<path fill="none" stroke="#9a32cd" stroke-dasharray="5,2" d="M1542.2,-261.285C1561.11,-264.214 1581.4,-267.801 1600,-272 1619.73,-276.455 1641.46,-282.929 1658.63,-288.421"/>
<polygon fill="#9a32cd" stroke="#9a32cd" points="1542.57,-257.802 1532.16,-259.771 1541.52,-264.723 1542.57,-257.802"/>
<text text-anchor="middle" x="1575" y="-276" font-family="FreeSans" font-size="10.00"> allocator_</text>
</g>
<!-- Node25&#45;&gt;Node24 -->
<g id="edge70" class="edge"><title>Node25&#45;&gt;Node24</title>
<path fill="none" stroke="#9a32cd" stroke-dasharray="5,2" d="M1227.5,-390.727C1278.16,-381.37 1345.47,-361.59 1390,-320 1405.14,-305.858 1393.25,-291.553 1408,-277 1414.28,-270.804 1422.29,-266.084 1430.46,-262.509"/>
<polygon fill="#9a32cd" stroke="#9a32cd" points="1226.84,-387.288 1217.6,-392.463 1228.05,-394.183 1226.84,-387.288"/>
<text text-anchor="middle" x="1332" y="-382" font-family="FreeSans" font-size="10.00"> freeAreas_</text>
</g>
</g>
</svg>
        <g id="navigator" transform="translate(0 0)" fill="#404254">
                <rect fill="#f2f5e9" fill-opacity="0.5" stroke="#606060" stroke-width=".5" x="0" y="0" width="60" height="60"/>
                <use id="zoomplus" xlink:href="#zoomPlus" x="17" y="9" onmousedown="handleZoom(evt,'in')"/>
                <use id="zoomminus" xlink:href="#zoomMin" x="42" y="9" onmousedown="handleZoom(evt,'out')"/>
                <use id="reset" xlink:href="#resetDef" x="30" y="36" onmousedown="handleReset()"/>
                <g id="arrowUp" xlink:href="#dirArrow" transform="translate(30 24)" onmousedown="handlePan(0,-1)">
                  <use xlink:href="#rim" fill="#404040">
                        <set attributeName="fill" to="#808080" begin="arrowUp.mouseover" end="arrowUp.mouseout"/>
                  </use>
                  <path fill="none" stroke="white" stroke-width="1.5" d="M0,-3.0v7 M-2.5,-0.5L0,-3.0L2.5,-0.5"/>
                </g>
                <g id="arrowRight" xlink:href="#dirArrow" transform="rotate(90) translate(36 -43)" onmousedown="handlePan(1,0)">
                  <use xlink:href="#rim" fill="#404040">
                        <set attributeName="fill" to="#808080" begin="arrowRight.mouseover" end="arrowRight.mouseout"/>
                  </use>
                  <path fill="none" stroke="white" stroke-width="1.5" d="M0,-3.0v7 M-2.5,-0.5L0,-3.0L2.5,-0.5"/>
                </g>
                <g id="arrowDown" xlink:href="#dirArrow" transform="rotate(180) translate(-30 -48)" onmousedown="handlePan(0,1)">
                  <use xlink:href="#rim" fill="#404040">
                        <set attributeName="fill" to="#808080" begin="arrowDown.mouseover" end="arrowDown.mouseout"/>
                  </use>
                  <path fill="none" stroke="white" stroke-width="1.5" d="M0,-3.0v7 M-2.5,-0.5L0,-3.0L2.5,-0.5"/>
                </g>
                <g id="arrowLeft" xlink:href="#dirArrow" transform="rotate(270) translate(-36 17)" onmousedown="handlePan(-1,0)">
                  <use xlink:href="#rim" fill="#404040">
                        <set attributeName="fill" to="#808080" begin="arrowLeft.mouseover" end="arrowLeft.mouseout"/>
                  </use>
                  <path fill="none" stroke="white" stroke-width="1.5" d="M0,-3.0v7 M-2.5,-0.5L0,-3.0L2.5,-0.5"/>
                </g>
        </g>
        <svg viewBox="0 0 15 15" width="100%" height="30px" preserveAspectRatio="xMaxYMin meet">
         <g id="arrow_out" transform="scale(0.3 0.3)">
          <a xlink:href="class_urho3_d_1_1_font_face_free_type__coll__graph_org.svg" target="_base">
           <rect id="button" ry="5" rx="5" y="6" x="6" height="38" width="38"
                fill="#f2f5e9" fill-opacity="0.5" stroke="#606060" stroke-width="1.0"/>
           <path id="arrow"
             d="M 11.500037,31.436501 C 11.940474,20.09759 22.043105,11.32322 32.158766,21.979434 L 37.068811,17.246167 C 37.068811,17.246167 37.088388,32 37.088388,32 L 22.160133,31.978069 C 22.160133,31.978069 26.997745,27.140456 26.997745,27.140456 C 18.528582,18.264221 13.291696,25.230495 11.500037,31.436501 z"
             style="fill:#404040;"/>
          </a>
         </g>
        </svg>
</svg>
