<?xml version="1.0" encoding="UTF-8" standalone="no"?>
<!DOCTYPE svg PUBLIC "-//W3C//DTD SVG 1.1//EN"
 "http://www.w3.org/Graphics/SVG/1.1/DTD/svg11.dtd">
<!-- Generated by graphviz version 2.26.3 (20100126.1600)
 -->
<!-- Title: Urho3D::RigidBody2D Pages: 1 -->
<!--zoomable 806 -->
<svg id="main" version="1.1" xmlns="http://www.w3.org/2000/svg" xmlns:xlink="http://www.w3.org/1999/xlink" xml:space="preserve" onload="init(evt)">
        <defs>
                <circle id="rim" cx="0" cy="0" r="7"/>
                <circle id="rim2" cx="0" cy="0" r="3.5"/>
                <g id="zoomPlus">
                        <use xlink:href="#rim" fill="#404040">
                                <set attributeName="fill" to="#808080" begin="zoomplus.mouseover" end="zoomplus.mouseout"/>
                        </use>
                        <path d="M-4,0h8M0,-4v8" fill="none" stroke="white" stroke-width="1.5" pointer-events="none"/>
                </g>
                <g id="zoomMin">
                        <use xlink:href="#rim" fill="#404040">
                                <set attributeName="fill" to="#808080" begin="zoomminus.mouseover" end="zoomminus.mouseout"/>
                        </use>
                        <path d="M-4,0h8" fill="none" stroke="white" stroke-width="1.5" pointer-events="none"/>
                </g>
                <g id="dirArrow">
                        <path fill="none" stroke="white" stroke-width="1.5" d="M0,-3.0v7 M-2.5,-0.5L0,-3.0L2.5,-0.5"/>
                </g>
               <g id="resetDef">
                       <use xlink:href="#rim2" fill="#404040">
                               <set attributeName="fill" to="#808080" begin="reset.mouseover" end="reset.mouseout"/>
                       </use>
               </g>
        </defs>

<script type="text/javascript">
var viewWidth = 1930;
var viewHeight = 806;
var sectionId = 'dynsection-1';
</script>
<script xlink:href="svgpan.js"/>
<svg id="graph" class="graph">
<g id="viewport">
<title>Urho3D::RigidBody2D</title>
<!-- Node1 -->
<g id="node1" class="node"><title>Node1</title>
<polygon fill="#bfbfbf" stroke="black" points="1802.5,-164.225 1802.5,-185.225 1921.5,-185.225 1921.5,-164.225 1802.5,-164.225"/>
<text text-anchor="middle" x="1862" y="-172.225" font-family="FreeSans" font-size="10.00">Urho3D::RigidBody2D</text>
</g>
<!-- Node2 -->
<g id="node2" class="node"><title>Node2</title>
<a xlink:href="class_urho3_d_1_1_component.html" target="_top" xlink:title="Base class for components. Components can be created to scene nodes.">
<polygon fill="none" stroke="black" points="1096,-451.225 1096,-472.225 1212,-472.225 1212,-451.225 1096,-451.225"/>
<text text-anchor="middle" x="1154" y="-459.225" font-family="FreeSans" font-size="10.00">Urho3D::Component</text>
</a>
</g>
<!-- Node2&#45;&gt;Node1 -->
<g id="edge2" class="edge"><title>Node2&#45;&gt;Node1</title>
<path fill="none" stroke="midnightblue" d="M1203.66,-448.513C1312.64,-418.462 1579.34,-339.114 1784,-230.725 1808.75,-217.618 1834.61,-197.596 1849.46,-185.381"/>
<polygon fill="midnightblue" stroke="midnightblue" points="1202.64,-445.163 1193.92,-451.182 1204.49,-451.914 1202.64,-445.163"/>
</g>
<!-- Node22 -->
<g id="node54" class="node"><title>Node22</title>
<a xlink:href="class_urho3_d_1_1_physics_world2_d.html" target="_top" xlink:title="2D physics simulation world component. Should be added only to the root scene node.">
<polygon fill="none" stroke="red" points="1330,-226.225 1330,-247.225 1464,-247.225 1464,-226.225 1330,-226.225"/>
<text text-anchor="middle" x="1397" y="-234.225" font-family="FreeSans" font-size="10.00">Urho3D::PhysicsWorld2D</text>
</a>
</g>
<!-- Node2&#45;&gt;Node22 -->
<g id="edge68" class="edge"><title>Node2&#45;&gt;Node22</title>
<path fill="none" stroke="midnightblue" d="M1186.78,-446.206C1195.58,-441.094 1204.68,-434.861 1212,-427.725 1222.86,-417.135 1221.63,-411.376 1230,-398.725 1272.59,-334.351 1267.34,-301.805 1330,-256.725 1335.32,-252.897 1341.38,-249.794 1347.62,-247.28"/>
<polygon fill="midnightblue" stroke="midnightblue" points="1184.89,-443.25 1177.79,-451.119 1188.25,-449.391 1184.89,-443.25"/>
</g>
<!-- Node3 -->
<g id="node4" class="node"><title>Node3</title>
<a xlink:href="class_urho3_d_1_1_animatable.html" target="_top" xlink:title="Base class for animatable object, an animatable object can be set animation on it&#39;s attributes...">
<polygon fill="none" stroke="black" points="425,-705.225 425,-726.225 539,-726.225 539,-705.225 425,-705.225"/>
<text text-anchor="middle" x="482" y="-713.225" font-family="FreeSans" font-size="10.00">Urho3D::Animatable</text>
</a>
</g>
<!-- Node3&#45;&gt;Node2 -->
<g id="edge4" class="edge"><title>Node3&#45;&gt;Node2</title>
<path fill="none" stroke="midnightblue" d="M549.325,-708.894C617.739,-701.461 718.779,-688.991 756,-676.725 916.366,-623.877 1088.09,-508.15 1138.98,-472.436"/>
<polygon fill="midnightblue" stroke="midnightblue" points="548.629,-705.448 539.06,-709.998 549.377,-712.408 548.629,-705.448"/>
</g>
<!-- Node8 -->
<g id="node14" class="node"><title>Node8</title>
<a xlink:href="class_urho3_d_1_1_node.html" target="_top" xlink:title="Scene node that may contain components and child nodes.">
<polygon fill="none" stroke="red" points="774.5,-441.225 774.5,-462.225 859.5,-462.225 859.5,-441.225 774.5,-441.225"/>
<text text-anchor="middle" x="817" y="-449.225" font-family="FreeSans" font-size="10.00">Urho3D::Node</text>
</a>
</g>
<!-- Node3&#45;&gt;Node8 -->
<g id="edge16" class="edge"><title>Node3&#45;&gt;Node8</title>
<path fill="none" stroke="midnightblue" d="M549.148,-708.438C561.19,-705.512 573.299,-701.426 584,-695.725 593.985,-690.406 591.995,-683.007 602,-677.725 663.59,-645.208 704.023,-695.084 756,-648.725 784.991,-622.868 808.663,-499.298 815.203,-462.248"/>
<polygon fill="midnightblue" stroke="midnightblue" points="548.106,-705.083 539.081,-710.633 549.597,-711.922 548.106,-705.083"/>
</g>
<!-- Node4 -->
<g id="node6" class="node"><title>Node4</title>
<a xlink:href="class_urho3_d_1_1_serializable.html" target="_top" xlink:title="Base class for objects with automatic serialization through attributes.">
<polygon fill="none" stroke="red" points="44,-669.225 44,-690.225 158,-690.225 158,-669.225 44,-669.225"/>
<text text-anchor="middle" x="101" y="-677.225" font-family="FreeSans" font-size="10.00">Urho3D::Serializable</text>
</a>
</g>
<!-- Node4&#45;&gt;Node3 -->
<g id="edge6" class="edge"><title>Node4&#45;&gt;Node3</title>
<path fill="none" stroke="midnightblue" d="M168.033,-686.059C240.913,-692.945 356.148,-703.834 424.882,-710.328"/>
<polygon fill="midnightblue" stroke="midnightblue" points="168.324,-682.571 158.04,-685.115 167.666,-689.54 168.324,-682.571"/>
</g>
<!-- Node5 -->
<g id="node8" class="node"><title>Node5</title>
<a xlink:href="class_urho3_d_1_1_hash_map.html" target="_top" xlink:title="Urho3D::HashMap\&lt; Urho3D\l::String, Urho3D::SharedPtr\l\&lt; Urho3D::AttributeAnimationInfo \&gt; \&gt;">
<polygon fill="none" stroke="red" points="0.5,-603.225 0.5,-650.225 201.5,-650.225 201.5,-603.225 0.5,-603.225"/>
<text text-anchor="start" x="8.5" y="-637.225" font-family="FreeSans" font-size="10.00">Urho3D::HashMap&lt; Urho3D</text>
<text text-anchor="start" x="8.5" y="-624.225" font-family="FreeSans" font-size="10.00">::String, Urho3D::SharedPtr</text>
<text text-anchor="middle" x="101" y="-611.225" font-family="FreeSans" font-size="10.00">&lt; Urho3D::AttributeAnimationInfo &gt; &gt;</text>
</a>
</g>
<!-- Node5&#45;&gt;Node3 -->
<g id="edge8" class="edge"><title>Node5&#45;&gt;Node3</title>
<path fill="none" stroke="#9a32cd" stroke-dasharray="5,2" d="M211.491,-629.553C260.38,-634.959 316.888,-647.195 362,-673.725 372.89,-680.129 369.16,-689.237 380,-695.725 393.471,-703.788 409.566,-708.681 424.946,-711.626"/>
<polygon fill="#9a32cd" stroke="#9a32cd" points="211.805,-626.067 201.501,-628.531 211.092,-633.031 211.805,-626.067"/>
<text text-anchor="middle" x="291" y="-677.725" font-family="FreeSans" font-size="10.00"> attributeAnimationInfos_</text>
</g>
<!-- Node6 -->
<g id="node10" class="node"><title>Node6</title>
<a xlink:href="class_urho3_d_1_1_shared_ptr.html" target="_top" xlink:title="Urho3D::SharedPtr\&lt;\l Urho3D::ObjectAnimation \&gt;">
<polygon fill="none" stroke="red" points="24.5,-760.725 24.5,-794.725 177.5,-794.725 177.5,-760.725 24.5,-760.725"/>
<text text-anchor="start" x="32.5" y="-781.725" font-family="FreeSans" font-size="10.00">Urho3D::SharedPtr&lt;</text>
<text text-anchor="middle" x="101" y="-768.725" font-family="FreeSans" font-size="10.00"> Urho3D::ObjectAnimation &gt;</text>
</a>
</g>
<!-- Node6&#45;&gt;Node3 -->
<g id="edge10" class="edge"><title>Node6&#45;&gt;Node3</title>
<path fill="none" stroke="#9a32cd" stroke-dasharray="5,2" d="M187.622,-765.691C238.494,-758.397 303.992,-748.614 362,-738.725 384.166,-734.947 408.549,-730.354 429.513,-726.269"/>
<polygon fill="#9a32cd" stroke="#9a32cd" points="187.054,-762.237 177.649,-767.116 188.044,-769.166 187.054,-762.237"/>
<text text-anchor="middle" x="291" y="-764.725" font-family="FreeSans" font-size="10.00"> objectAnimation_</text>
</g>
<!-- Node7 -->
<g id="node12" class="node"><title>Node7</title>
<a xlink:href="class_urho3_d_1_1_hash_set.html" target="_top" xlink:title="Urho3D::HashSet\&lt; const\l Urho3D::AttributeInfo * \&gt;">
<polygon fill="none" stroke="red" points="30.5,-708.725 30.5,-742.725 171.5,-742.725 171.5,-708.725 30.5,-708.725"/>
<text text-anchor="start" x="38.5" y="-729.725" font-family="FreeSans" font-size="10.00">Urho3D::HashSet&lt; const</text>
<text text-anchor="middle" x="101" y="-716.725" font-family="FreeSans" font-size="10.00"> Urho3D::AttributeInfo * &gt;</text>
</a>
</g>
<!-- Node7&#45;&gt;Node3 -->
<g id="edge12" class="edge"><title>Node7&#45;&gt;Node3</title>
<path fill="none" stroke="#9a32cd" stroke-dasharray="5,2" d="M181.848,-723.603C254.854,-721.687 360.438,-718.916 424.964,-717.222"/>
<polygon fill="#9a32cd" stroke="#9a32cd" points="181.675,-720.106 171.77,-723.868 181.859,-727.104 181.675,-720.106"/>
<text text-anchor="middle" x="291" y="-725.725" font-family="FreeSans" font-size="10.00"> animatedNetworkAttributes_</text>
</g>
<!-- Node8&#45;&gt;Node2 -->
<g id="edge14" class="edge"><title>Node8&#45;&gt;Node2</title>
<path fill="none" stroke="#9a32cd" stroke-dasharray="5,2" d="M869.93,-453.296C931.352,-455.118 1032.31,-458.114 1095.87,-460"/>
<polygon fill="#9a32cd" stroke="#9a32cd" points="869.781,-449.79 859.681,-452.992 869.573,-456.787 869.781,-449.79"/>
<text text-anchor="middle" x="978" y="-463.725" font-family="FreeSans" font-size="10.00"> node_</text>
</g>
<!-- Node8&#45;&gt;Node8 -->
<g id="edge54" class="edge"><title>Node8&#45;&gt;Node8</title>
<path fill="none" stroke="#9a32cd" stroke-dasharray="5,2" d="M791.433,-471.78C793.11,-476.889 801.633,-480.725 817,-480.725 840.988,-480.725 848.297,-471.378 838.927,-462.433"/>
<polygon fill="#9a32cd" stroke="#9a32cd" points="794.706,-473.021 795.073,-462.433 788.183,-470.481 794.706,-473.021"/>
<text text-anchor="middle" x="817" y="-484.725" font-family="FreeSans" font-size="10.00"> parent_</text>
</g>
<!-- Node11 -->
<g id="node21" class="node"><title>Node11</title>
<a xlink:href="class_urho3_d_1_1_scene.html" target="_top" xlink:title="Root scene node, represents the whole scene.">
<polygon fill="none" stroke="red" points="1109.5,-397.225 1109.5,-418.225 1198.5,-418.225 1198.5,-397.225 1109.5,-397.225"/>
<text text-anchor="middle" x="1154" y="-405.225" font-family="FreeSans" font-size="10.00">Urho3D::Scene</text>
</a>
</g>
<!-- Node8&#45;&gt;Node11 -->
<g id="edge24" class="edge"><title>Node8&#45;&gt;Node11</title>
<path fill="none" stroke="midnightblue" d="M838.297,-435.023C849.458,-427.291 863.745,-418.906 878,-414.725 956.881,-391.59 1053.94,-396.311 1109.42,-401.948"/>
<polygon fill="midnightblue" stroke="midnightblue" points="836.113,-432.283 830.078,-440.991 840.226,-437.948 836.113,-432.283"/>
</g>
<!-- Node9 -->
<g id="node17" class="node"><title>Node9</title>
<a xlink:href="class_urho3_d_1_1_p_o_d_vector.html" target="_top" xlink:title="Urho3D::PODVector\&lt;\l Urho3D::Node * \&gt;">
<polygon fill="none" stroke="black" points="422.5,-581.725 422.5,-615.725 541.5,-615.725 541.5,-581.725 422.5,-581.725"/>
<text text-anchor="start" x="430.5" y="-602.725" font-family="FreeSans" font-size="10.00">Urho3D::PODVector&lt;</text>
<text text-anchor="middle" x="482" y="-589.725" font-family="FreeSans" font-size="10.00"> Urho3D::Node * &gt;</text>
</a>
</g>
<!-- Node9&#45;&gt;Node8 -->
<g id="edge18" class="edge"><title>Node9&#45;&gt;Node8</title>
<path fill="none" stroke="#9a32cd" stroke-dasharray="5,2" d="M551.652,-593.341C621.591,-586.793 723.508,-573.786 756,-551.725 788.808,-529.45 807.028,-483.088 813.849,-462.258"/>
<polygon fill="#9a32cd" stroke="#9a32cd" points="551.217,-589.866 541.577,-594.261 551.854,-596.837 551.217,-589.866"/>
<text text-anchor="middle" x="679" y="-590.725" font-family="FreeSans" font-size="10.00"> dependencyNodes_</text>
</g>
<!-- Node10 -->
<g id="node19" class="node"><title>Node10</title>
<a xlink:href="class_urho3_d_1_1_vector_base.html" target="_top" xlink:title="Vector base class.">
<polygon fill="none" stroke="black" points="44,-395.225 44,-416.225 158,-416.225 158,-395.225 44,-395.225"/>
<text text-anchor="middle" x="101" y="-403.225" font-family="FreeSans" font-size="10.00">Urho3D::VectorBase</text>
</a>
</g>
<!-- Node10&#45;&gt;Node9 -->
<g id="edge20" class="edge"><title>Node10&#45;&gt;Node9</title>
<path fill="none" stroke="midnightblue" d="M119.537,-423.271C142.014,-443.908 181.665,-478.315 220,-501.725 286.396,-542.272 306.491,-547.249 380,-572.725 393.555,-577.423 408.387,-581.684 422.44,-585.335"/>
<polygon fill="midnightblue" stroke="midnightblue" points="121.778,-420.575 112.068,-416.336 117.015,-425.705 121.778,-420.575"/>
</g>
<!-- Node15 -->
<g id="node32" class="node"><title>Node15</title>
<a xlink:href="class_urho3_d_1_1_vector.html" target="_top" xlink:title="Urho3D::Vector\&lt; Urho3D\l::WeakPtr\&lt; Urho3D::Component \&gt; \&gt;">
<polygon fill="none" stroke="black" points="385,-406.725 385,-440.725 579,-440.725 579,-406.725 385,-406.725"/>
<text text-anchor="start" x="393" y="-427.725" font-family="FreeSans" font-size="10.00">Urho3D::Vector&lt; Urho3D</text>
<text text-anchor="middle" x="482" y="-414.725" font-family="FreeSans" font-size="10.00">::WeakPtr&lt; Urho3D::Component &gt; &gt;</text>
</a>
</g>
<!-- Node10&#45;&gt;Node15 -->
<g id="edge38" class="edge"><title>Node10&#45;&gt;Node15</title>
<path fill="none" stroke="midnightblue" d="M168.173,-408.899C228.278,-411.738 317.109,-415.935 384.936,-419.139"/>
<polygon fill="midnightblue" stroke="midnightblue" points="168.194,-405.396 158.04,-408.42 167.863,-412.388 168.194,-405.396"/>
</g>
<!-- Node17 -->
<g id="node37" class="node"><title>Node17</title>
<a xlink:href="class_urho3_d_1_1_vector.html" target="_top" xlink:title="Urho3D::Vector\&lt; Urho3D\l::SharedPtr\&lt; Urho3D::Component \&gt; \&gt;">
<polygon fill="none" stroke="black" points="380.5,-529.725 380.5,-563.725 583.5,-563.725 583.5,-529.725 380.5,-529.725"/>
<text text-anchor="start" x="388.5" y="-550.725" font-family="FreeSans" font-size="10.00">Urho3D::Vector&lt; Urho3D</text>
<text text-anchor="middle" x="482" y="-537.725" font-family="FreeSans" font-size="10.00">::SharedPtr&lt; Urho3D::Component &gt; &gt;</text>
</a>
</g>
<!-- Node10&#45;&gt;Node17 -->
<g id="edge44" class="edge"><title>Node10&#45;&gt;Node17</title>
<path fill="none" stroke="midnightblue" d="M132.97,-420.645C184.251,-444.178 288.437,-490.354 380,-520.725 389.54,-523.89 399.689,-526.894 409.744,-529.662"/>
<polygon fill="midnightblue" stroke="midnightblue" points="134.279,-417.395 123.732,-416.388 131.349,-423.752 134.279,-417.395"/>
</g>
<!-- Node20 -->
<g id="node49" class="node"><title>Node20</title>
<a xlink:href="class_urho3_d_1_1_vector.html" target="_top" xlink:title="Urho3D::Vector\&lt; String \&gt;">
<polygon fill="none" stroke="black" points="411.5,-367.225 411.5,-388.225 552.5,-388.225 552.5,-367.225 411.5,-367.225"/>
<text text-anchor="middle" x="482" y="-375.225" font-family="FreeSans" font-size="10.00">Urho3D::Vector&lt; String &gt;</text>
</a>
</g>
<!-- Node10&#45;&gt;Node20 -->
<g id="edge62" class="edge"><title>Node10&#45;&gt;Node20</title>
<path fill="none" stroke="midnightblue" d="M168.25,-400.783C236.511,-395.766 341.768,-388.031 411.258,-382.924"/>
<polygon fill="midnightblue" stroke="midnightblue" points="167.756,-397.31 158.04,-401.533 168.269,-404.291 167.756,-397.31"/>
</g>
<!-- Node24 -->
<g id="node59" class="node"><title>Node24</title>
<a xlink:href="class_urho3_d_1_1_vector.html" target="_top" xlink:title="Urho3D::Vector\&lt; Urho3D\l::WeakPtr\&lt; Urho3D::Collision\lShape2D \&gt; \&gt;">
<polygon fill="none" stroke="black" points="602,-91.2252 602,-138.225 756,-138.225 756,-91.2252 602,-91.2252"/>
<text text-anchor="start" x="610" y="-125.225" font-family="FreeSans" font-size="10.00">Urho3D::Vector&lt; Urho3D</text>
<text text-anchor="start" x="610" y="-112.225" font-family="FreeSans" font-size="10.00">::WeakPtr&lt; Urho3D::Collision</text>
<text text-anchor="middle" x="679" y="-99.2252" font-family="FreeSans" font-size="10.00">Shape2D &gt; &gt;</text>
</a>
</g>
<!-- Node10&#45;&gt;Node24 -->
<g id="edge74" class="edge"><title>Node10&#45;&gt;Node24</title>
<path fill="none" stroke="midnightblue" d="M111.32,-386.098C142.555,-329.12 242.432,-163.923 380,-103.725 450.43,-72.9058 539.36,-81.3979 601.859,-94.0482"/>
<polygon fill="midnightblue" stroke="midnightblue" points="108.108,-384.682 106.443,-395.145 114.27,-388.004 108.108,-384.682"/>
</g>
<!-- Node25 -->
<g id="node62" class="node"><title>Node25</title>
<a xlink:href="class_urho3_d_1_1_vector.html" target="_top" xlink:title="Urho3D::Vector\&lt; Urho3D\l::WeakPtr\&lt; Urho3D::Constraint2D \&gt; \&gt;">
<polygon fill="none" stroke="black" points="878,-43.7252 878,-77.7252 1078,-77.7252 1078,-43.7252 878,-43.7252"/>
<text text-anchor="start" x="886" y="-64.7252" font-family="FreeSans" font-size="10.00">Urho3D::Vector&lt; Urho3D</text>
<text text-anchor="middle" x="978" y="-51.7252" font-family="FreeSans" font-size="10.00">::WeakPtr&lt; Urho3D::Constraint2D &gt; &gt;</text>
</a>
</g>
<!-- Node10&#45;&gt;Node25 -->
<g id="edge78" class="edge"><title>Node10&#45;&gt;Node25</title>
<path fill="none" stroke="midnightblue" d="M102.796,-384.929C108.665,-330.575 132.295,-183.463 220,-110.725 424.931,59.2349 778.017,-7.76483 918.16,-43.6931"/>
<polygon fill="midnightblue" stroke="midnightblue" points="99.2955,-384.764 101.797,-395.06 106.262,-385.451 99.2955,-384.764"/>
</g>
<!-- Node11&#45;&gt;Node8 -->
<g id="edge22" class="edge"><title>Node11&#45;&gt;Node8</title>
<path fill="none" stroke="#9a32cd" stroke-dasharray="5,2" d="M1099.24,-411.266C1043.33,-415.399 954.181,-423.42 878,-436.725 871.017,-437.945 863.647,-439.512 856.538,-441.172"/>
<polygon fill="#9a32cd" stroke="#9a32cd" points="1099.56,-414.752 1109.28,-410.539 1099.06,-407.771 1099.56,-414.752"/>
<text text-anchor="middle" x="978" y="-440.725" font-family="FreeSans" font-size="10.00"> scene_</text>
</g>
<!-- Node12 -->
<g id="node24" class="node"><title>Node12</title>
<a xlink:href="class_urho3_d_1_1_hash_map.html" target="_top" xlink:title="Urho3D::HashMap\&lt; StringHash,\l Variant \&gt;">
<polygon fill="none" stroke="red" points="396,-274.725 396,-308.725 568,-308.725 568,-274.725 396,-274.725"/>
<text text-anchor="start" x="404" y="-295.725" font-family="FreeSans" font-size="10.00">Urho3D::HashMap&lt; StringHash,</text>
<text text-anchor="middle" x="482" y="-282.725" font-family="FreeSans" font-size="10.00"> Variant &gt;</text>
</a>
</g>
<!-- Node12&#45;&gt;Node8 -->
<g id="edge50" class="edge"><title>Node12&#45;&gt;Node8</title>
<path fill="none" stroke="#9a32cd" stroke-dasharray="5,2" d="M578.44,-302.226C654.371,-310.839 748.631,-322.44 756,-327.725 795.188,-355.828 810.443,-416.243 815.189,-440.905"/>
<polygon fill="#9a32cd" stroke="#9a32cd" points="578.662,-298.729 568.333,-301.085 577.877,-305.685 578.662,-298.729"/>
<text text-anchor="middle" x="679" y="-331.725" font-family="FreeSans" font-size="10.00"> vars_</text>
</g>
<!-- Node12&#45;&gt;Node11 -->
<g id="edge26" class="edge"><title>Node12&#45;&gt;Node11</title>
<path fill="none" stroke="#9a32cd" stroke-dasharray="5,2" d="M564.775,-271.891C571.32,-269.939 577.794,-267.878 584,-265.725 592.271,-262.856 593.436,-259.543 602,-257.725 668.953,-243.517 688.664,-245.457 756,-257.725 907.83,-285.387 1077.02,-367.86 1134.03,-397.211"/>
<polygon fill="#9a32cd" stroke="#9a32cd" points="563.793,-268.532 555.159,-274.672 565.738,-275.256 563.793,-268.532"/>
<text text-anchor="middle" x="817" y="-286.725" font-family="FreeSans" font-size="10.00"> smoothingData_</text>
</g>
<!-- Node13 -->
<g id="node26" class="node"><title>Node13</title>
<a xlink:href="class_urho3_d_1_1_string.html" target="_top" xlink:title="String class.">
<polygon fill="none" stroke="black" points="438,-745.225 438,-766.225 526,-766.225 526,-745.225 438,-745.225"/>
<text text-anchor="middle" x="482" y="-753.225" font-family="FreeSans" font-size="10.00">Urho3D::String</text>
</a>
</g>
<!-- Node13&#45;&gt;Node8 -->
<g id="edge52" class="edge"><title>Node13&#45;&gt;Node8</title>
<path fill="none" stroke="#9a32cd" stroke-dasharray="5,2" d="M536.25,-747.43C551.846,-744.418 568.755,-740.54 584,-735.725 592.348,-733.089 593.835,-730.883 602,-727.725 669.247,-701.719 706.44,-729.092 756,-676.725 786.463,-644.537 809.447,-502.76 815.455,-462.45"/>
<polygon fill="#9a32cd" stroke="#9a32cd" points="535.418,-744.025 526.222,-749.286 536.692,-750.908 535.418,-744.025"/>
<text text-anchor="middle" x="679" y="-731.725" font-family="FreeSans" font-size="10.00"> name_</text>
</g>
<!-- Node13&#45;&gt;Node11 -->
<g id="edge28" class="edge"><title>Node13&#45;&gt;Node11</title>
<path fill="none" stroke="#9a32cd" stroke-dasharray="5,2" d="M536.684,-762.46C593.536,-767.267 684.1,-768.672 756,-740.725 928.49,-673.68 961.702,-620.679 1078,-476.725 1088.99,-463.119 1083.98,-454.431 1096,-441.725 1105.31,-431.891 1118.09,-423.988 1129.28,-418.285"/>
<polygon fill="#9a32cd" stroke="#9a32cd" points="536.749,-758.951 526.473,-761.529 536.114,-765.922 536.749,-758.951"/>
<text text-anchor="middle" x="817" y="-735.725" font-family="FreeSans" font-size="10.00"> fileName_</text>
</g>
<!-- Node13&#45;&gt;Node13 -->
<g id="edge30" class="edge"><title>Node13&#45;&gt;Node13</title>
<path fill="none" stroke="#9a32cd" stroke-dasharray="5,2" d="M446.529,-775.024C447.986,-780.506 459.81,-784.725 482,-784.725 515.027,-784.725 525.09,-775.378 512.189,-766.433"/>
<polygon fill="#9a32cd" stroke="#9a32cd" points="449.555,-776.785 451.811,-766.433 443.592,-773.118 449.555,-776.785"/>
<text text-anchor="middle" x="482" y="-788.725" font-family="FreeSans" font-size="10.00"> EMPTY</text>
</g>
<!-- Node14 -->
<g id="node29" class="node"><title>Node14</title>
<a xlink:href="class_urho3_d_1_1_quaternion.html" target="_top" xlink:title="Rotation represented as a four&#45;dimensional normalized vector.">
<polygon fill="none" stroke="black" points="425.5,-459.225 425.5,-480.225 538.5,-480.225 538.5,-459.225 425.5,-459.225"/>
<text text-anchor="middle" x="482" y="-467.225" font-family="FreeSans" font-size="10.00">Urho3D::Quaternion</text>
</a>
</g>
<!-- Node14&#45;&gt;Node8 -->
<g id="edge32" class="edge"><title>Node14&#45;&gt;Node8</title>
<path fill="none" stroke="#9a32cd" stroke-dasharray="5,2" d="M548.882,-466.131C615.993,-462.526 717.342,-457.08 774.277,-454.021"/>
<polygon fill="#9a32cd" stroke="#9a32cd" points="548.626,-462.64 538.828,-466.672 549.002,-469.63 548.626,-462.64"/>
<text text-anchor="middle" x="679" y="-480.725" font-family="FreeSans" font-size="10.00"> worldRotation_</text>
<text text-anchor="middle" x="679" y="-467.725" font-family="FreeSans" font-size="10.00">rotation_</text>
</g>
<!-- Node14&#45;&gt;Node14 -->
<g id="edge34" class="edge"><title>Node14&#45;&gt;Node14</title>
<path fill="none" stroke="#9a32cd" stroke-dasharray="5,2" d="M446.529,-489.024C447.986,-494.506 459.81,-498.725 482,-498.725 515.027,-498.725 525.09,-489.378 512.189,-480.433"/>
<polygon fill="#9a32cd" stroke="#9a32cd" points="449.555,-490.785 451.811,-480.433 443.592,-487.118 449.555,-490.785"/>
<text text-anchor="middle" x="482" y="-502.725" font-family="FreeSans" font-size="10.00"> IDENTITY</text>
</g>
<!-- Node15&#45;&gt;Node8 -->
<g id="edge36" class="edge"><title>Node15&#45;&gt;Node8</title>
<path fill="none" stroke="#9a32cd" stroke-dasharray="5,2" d="M589.039,-425.734C639.81,-427.669 701.213,-431.432 756,-438.725 762.011,-439.525 768.311,-440.597 774.486,-441.784"/>
<polygon fill="#9a32cd" stroke="#9a32cd" points="589.152,-422.236 579.032,-425.371 588.898,-429.231 589.152,-422.236"/>
<text text-anchor="middle" x="679" y="-442.725" font-family="FreeSans" font-size="10.00"> listeners_</text>
</g>
<!-- Node16 -->
<g id="node35" class="node"><title>Node16</title>
<a xlink:href="class_urho3_d_1_1_vector_buffer.html" target="_top" xlink:title="Dynamically sized buffer that can be read and written to as a stream.">
<polygon fill="none" stroke="red" points="422.5,-327.225 422.5,-348.225 541.5,-348.225 541.5,-327.225 422.5,-327.225"/>
<text text-anchor="middle" x="482" y="-335.225" font-family="FreeSans" font-size="10.00">Urho3D::VectorBuffer</text>
</a>
</g>
<!-- Node16&#45;&gt;Node8 -->
<g id="edge40" class="edge"><title>Node16&#45;&gt;Node8</title>
<path fill="none" stroke="#9a32cd" stroke-dasharray="5,2" d="M551.899,-341.021C627.253,-345.058 738.784,-352.627 756,-362.725 786.862,-380.827 805.628,-421.46 813.168,-440.927"/>
<polygon fill="#9a32cd" stroke="#9a32cd" points="551.69,-337.505 541.52,-340.474 551.322,-344.495 551.69,-337.505"/>
<text text-anchor="middle" x="679" y="-366.725" font-family="FreeSans" font-size="10.00"> attrBuffer_</text>
</g>
<!-- Node17&#45;&gt;Node8 -->
<g id="edge42" class="edge"><title>Node17&#45;&gt;Node8</title>
<path fill="none" stroke="#9a32cd" stroke-dasharray="5,2" d="M593.869,-535.685C644.761,-528.014 704.895,-515.153 756,-493.725 774.498,-485.969 793.103,-472.07 804.816,-462.394"/>
<polygon fill="#9a32cd" stroke="#9a32cd" points="593.209,-532.244 583.819,-537.151 594.219,-539.17 593.209,-532.244"/>
<text text-anchor="middle" x="679" y="-538.725" font-family="FreeSans" font-size="10.00"> components_</text>
</g>
<!-- Node18 -->
<g id="node40" class="node"><title>Node18</title>
<a xlink:href="class_urho3_d_1_1_vector3.html" target="_top" xlink:title="Three&#45;dimensional vector.">
<polygon fill="none" stroke="black" points="434,-113.225 434,-134.225 530,-134.225 530,-113.225 434,-113.225"/>
<text text-anchor="middle" x="482" y="-121.225" font-family="FreeSans" font-size="10.00">Urho3D::Vector3</text>
</a>
</g>
<!-- Node18&#45;&gt;Node8 -->
<g id="edge46" class="edge"><title>Node18&#45;&gt;Node8</title>
<path fill="none" stroke="#9a32cd" stroke-dasharray="5,2" d="M527.305,-137.44C587.758,-157.978 694.329,-202.355 756,-275.725 799.28,-327.216 812.5,-411.222 815.935,-440.914"/>
<polygon fill="#9a32cd" stroke="#9a32cd" points="528.246,-134.065 517.653,-134.231 526.038,-140.707 528.246,-134.065"/>
<text text-anchor="middle" x="679" y="-292.725" font-family="FreeSans" font-size="10.00"> scale_</text>
<text text-anchor="middle" x="679" y="-279.725" font-family="FreeSans" font-size="10.00">position_</text>
</g>
<!-- Node18&#45;&gt;Node18 -->
<g id="edge48" class="edge"><title>Node18&#45;&gt;Node18</title>
<path fill="none" stroke="#9a32cd" stroke-dasharray="5,2" d="M446.529,-143.024C447.986,-148.506 459.81,-152.725 482,-152.725 515.027,-152.725 525.09,-143.378 512.189,-134.433"/>
<polygon fill="#9a32cd" stroke="#9a32cd" points="449.555,-144.785 451.811,-134.433 443.592,-141.118 449.555,-144.785"/>
<text text-anchor="middle" x="482" y="-247.725" font-family="FreeSans" font-size="10.00"> ONE</text>
<text text-anchor="middle" x="482" y="-234.725" font-family="FreeSans" font-size="10.00">DOWN</text>
<text text-anchor="middle" x="482" y="-221.725" font-family="FreeSans" font-size="10.00">BACK</text>
<text text-anchor="middle" x="482" y="-208.725" font-family="FreeSans" font-size="10.00">RIGHT</text>
<text text-anchor="middle" x="482" y="-195.725" font-family="FreeSans" font-size="10.00">LEFT</text>
<text text-anchor="middle" x="482" y="-182.725" font-family="FreeSans" font-size="10.00">ZERO</text>
<text text-anchor="middle" x="482" y="-169.725" font-family="FreeSans" font-size="10.00">FORWARD</text>
<text text-anchor="middle" x="482" y="-156.725" font-family="FreeSans" font-size="10.00">UP</text>
</g>
<!-- Node19 -->
<g id="node46" class="node"><title>Node19</title>
<a xlink:href="class_urho3_d_1_1_string_hash.html" target="_top" xlink:title="32&#45;bit hash value for a string.">
<polygon fill="none" stroke="black" points="425.5,-634.225 425.5,-655.225 538.5,-655.225 538.5,-634.225 425.5,-634.225"/>
<text text-anchor="middle" x="482" y="-642.225" font-family="FreeSans" font-size="10.00">Urho3D::StringHash</text>
</a>
</g>
<!-- Node19&#45;&gt;Node8 -->
<g id="edge56" class="edge"><title>Node19&#45;&gt;Node8</title>
<path fill="none" stroke="#9a32cd" stroke-dasharray="5,2" d="M548.731,-638.227C624.569,-630.301 739.974,-616.391 756,-603.725 802.178,-567.227 813.561,-490.372 816.226,-462.288"/>
<polygon fill="#9a32cd" stroke="#9a32cd" points="548.354,-634.747 538.767,-639.257 549.074,-641.71 548.354,-634.747"/>
<text text-anchor="middle" x="679" y="-635.725" font-family="FreeSans" font-size="10.00"> nameHash_</text>
</g>
<!-- Node19&#45;&gt;Node19 -->
<g id="edge58" class="edge"><title>Node19&#45;&gt;Node19</title>
<path fill="none" stroke="#9a32cd" stroke-dasharray="5,2" d="M446.529,-664.024C447.986,-669.506 459.81,-673.725 482,-673.725 515.027,-673.725 525.09,-664.378 512.189,-655.433"/>
<polygon fill="#9a32cd" stroke="#9a32cd" points="449.555,-665.785 451.811,-655.433 443.592,-662.118 449.555,-665.785"/>
<text text-anchor="middle" x="482" y="-677.725" font-family="FreeSans" font-size="10.00"> ZERO</text>
</g>
<!-- Node20&#45;&gt;Node8 -->
<g id="edge60" class="edge"><title>Node20&#45;&gt;Node8</title>
<path fill="none" stroke="#9a32cd" stroke-dasharray="5,2" d="M562.793,-377.003C618.673,-378.917 693.857,-386.361 756,-409.725 775.016,-416.875 793.795,-431.198 805.386,-441.116"/>
<polygon fill="#9a32cd" stroke="#9a32cd" points="562.688,-373.498 552.591,-376.707 562.485,-380.495 562.688,-373.498"/>
<text text-anchor="middle" x="679" y="-413.725" font-family="FreeSans" font-size="10.00"> tags_</text>
</g>
<!-- Node21 -->
<g id="node52" class="node"><title>Node21</title>
<a xlink:href="class_urho3_d_1_1_weak_ptr.html" target="_top" xlink:title="Urho3D::WeakPtr\&lt; Urho3D\l::PhysicsWorld2D \&gt;">
<polygon fill="none" stroke="black" points="1550,-219.725 1550,-253.725 1696,-253.725 1696,-219.725 1550,-219.725"/>
<text text-anchor="start" x="1558" y="-240.725" font-family="FreeSans" font-size="10.00">Urho3D::WeakPtr&lt; Urho3D</text>
<text text-anchor="middle" x="1623" y="-227.725" font-family="FreeSans" font-size="10.00">::PhysicsWorld2D &gt;</text>
</a>
</g>
<!-- Node21&#45;&gt;Node1 -->
<g id="edge64" class="edge"><title>Node21&#45;&gt;Node1</title>
<path fill="none" stroke="#9a32cd" stroke-dasharray="5,2" d="M1698.51,-217.138C1739.16,-206.593 1787.7,-194 1821.28,-185.289"/>
<polygon fill="#9a32cd" stroke="#9a32cd" points="1697.42,-213.802 1688.62,-219.701 1699.18,-220.578 1697.42,-213.802"/>
<text text-anchor="middle" x="1749" y="-217.725" font-family="FreeSans" font-size="10.00"> physicsWorld_</text>
</g>
<!-- Node22&#45;&gt;Node21 -->
<g id="edge66" class="edge"><title>Node22&#45;&gt;Node21</title>
<path fill="none" stroke="#9a32cd" stroke-dasharray="5,2" d="M1474.48,-236.725C1498.85,-236.725 1525.68,-236.725 1549.75,-236.725"/>
<polygon fill="#9a32cd" stroke="#9a32cd" points="1474.2,-233.225 1464.2,-236.725 1474.2,-240.225 1474.2,-233.225"/>
<text text-anchor="middle" x="1507" y="-240.725" font-family="FreeSans" font-size="10.00"> ptr_</text>
</g>
<!-- Node23 -->
<g id="node57" class="node"><title>Node23</title>
<a xlink:href="struct_urho3_d_1_1_ref_count.html" target="_top" xlink:title="Reference count structure.">
<polygon fill="none" stroke="black" points="1346,-266.225 1346,-287.225 1448,-287.225 1448,-266.225 1346,-266.225"/>
<text text-anchor="middle" x="1397" y="-274.225" font-family="FreeSans" font-size="10.00">Urho3D::RefCount</text>
</a>
</g>
<!-- Node23&#45;&gt;Node21 -->
<g id="edge70" class="edge"><title>Node23&#45;&gt;Node21</title>
<path fill="none" stroke="#9a32cd" stroke-dasharray="5,2" d="M1458.33,-266.488C1481.44,-262.576 1507.94,-258.021 1532,-253.725 1537.7,-252.708 1543.59,-251.641 1549.51,-250.558"/>
<polygon fill="#9a32cd" stroke="#9a32cd" points="1457.6,-263.063 1448.32,-268.18 1458.76,-269.965 1457.6,-263.063"/>
<text text-anchor="middle" x="1507" y="-266.725" font-family="FreeSans" font-size="10.00"> refCount_</text>
</g>
<!-- Node24&#45;&gt;Node1 -->
<g id="edge72" class="edge"><title>Node24&#45;&gt;Node1</title>
<path fill="none" stroke="#9a32cd" stroke-dasharray="5,2" d="M766.365,-127.24C825.881,-134.698 906.536,-142.725 978,-142.725 978,-142.725 978,-142.725 1623,-142.725 1688.93,-142.725 1764.2,-154.838 1812.36,-164.158"/>
<polygon fill="#9a32cd" stroke="#9a32cd" points="766.616,-123.743 756.254,-125.953 765.732,-130.687 766.616,-123.743"/>
<text text-anchor="middle" x="1271" y="-146.725" font-family="FreeSans" font-size="10.00"> collisionShapes_</text>
</g>
<!-- Node25&#45;&gt;Node1 -->
<g id="edge76" class="edge"><title>Node25&#45;&gt;Node1</title>
<path fill="none" stroke="#9a32cd" stroke-dasharray="5,2" d="M1088.23,-75.7069C1143.06,-81.9285 1210.41,-87.7252 1271,-87.7252 1271,-87.7252 1271,-87.7252 1623,-87.7252 1696.84,-87.7252 1715.74,-100.577 1784,-128.725 1807.25,-138.314 1831.91,-153.886 1847.13,-164.216"/>
<polygon fill="#9a32cd" stroke="#9a32cd" points="1088.47,-72.2123 1078.14,-74.5416 1087.67,-79.166 1088.47,-72.2123"/>
<text text-anchor="middle" x="1397" y="-91.7252" font-family="FreeSans" font-size="10.00"> constraints_</text>
</g>
</g>
</svg>
        <g id="navigator" transform="translate(0 0)" fill="#404254">
                <rect fill="#f2f5e9" fill-opacity="0.5" stroke="#606060" stroke-width=".5" x="0" y="0" width="60" height="60"/>
                <use id="zoomplus" xlink:href="#zoomPlus" x="17" y="9" onmousedown="handleZoom(evt,'in')"/>
                <use id="zoomminus" xlink:href="#zoomMin" x="42" y="9" onmousedown="handleZoom(evt,'out')"/>
                <use id="reset" xlink:href="#resetDef" x="30" y="36" onmousedown="handleReset()"/>
                <g id="arrowUp" xlink:href="#dirArrow" transform="translate(30 24)" onmousedown="handlePan(0,-1)">
                  <use xlink:href="#rim" fill="#404040">
                        <set attributeName="fill" to="#808080" begin="arrowUp.mouseover" end="arrowUp.mouseout"/>
                  </use>
                  <path fill="none" stroke="white" stroke-width="1.5" d="M0,-3.0v7 M-2.5,-0.5L0,-3.0L2.5,-0.5"/>
                </g>
                <g id="arrowRight" xlink:href="#dirArrow" transform="rotate(90) translate(36 -43)" onmousedown="handlePan(1,0)">
                  <use xlink:href="#rim" fill="#404040">
                        <set attributeName="fill" to="#808080" begin="arrowRight.mouseover" end="arrowRight.mouseout"/>
                  </use>
                  <path fill="none" stroke="white" stroke-width="1.5" d="M0,-3.0v7 M-2.5,-0.5L0,-3.0L2.5,-0.5"/>
                </g>
                <g id="arrowDown" xlink:href="#dirArrow" transform="rotate(180) translate(-30 -48)" onmousedown="handlePan(0,1)">
                  <use xlink:href="#rim" fill="#404040">
                        <set attributeName="fill" to="#808080" begin="arrowDown.mouseover" end="arrowDown.mouseout"/>
                  </use>
                  <path fill="none" stroke="white" stroke-width="1.5" d="M0,-3.0v7 M-2.5,-0.5L0,-3.0L2.5,-0.5"/>
                </g>
                <g id="arrowLeft" xlink:href="#dirArrow" transform="rotate(270) translate(-36 17)" onmousedown="handlePan(-1,0)">
                  <use xlink:href="#rim" fill="#404040">
                        <set attributeName="fill" to="#808080" begin="arrowLeft.mouseover" end="arrowLeft.mouseout"/>
                  </use>
                  <path fill="none" stroke="white" stroke-width="1.5" d="M0,-3.0v7 M-2.5,-0.5L0,-3.0L2.5,-0.5"/>
                </g>
        </g>
        <svg viewBox="0 0 15 15" width="100%" height="30px" preserveAspectRatio="xMaxYMin meet">
         <g id="arrow_out" transform="scale(0.3 0.3)">
          <a xlink:href="class_urho3_d_1_1_rigid_body2_d__coll__graph_org.svg" target="_base">
           <rect id="button" ry="5" rx="5" y="6" x="6" height="38" width="38"
                fill="#f2f5e9" fill-opacity="0.5" stroke="#606060" stroke-width="1.0"/>
           <path id="arrow"
             d="M 11.500037,31.436501 C 11.940474,20.09759 22.043105,11.32322 32.158766,21.979434 L 37.068811,17.246167 C 37.068811,17.246167 37.088388,32 37.088388,32 L 22.160133,31.978069 C 22.160133,31.978069 26.997745,27.140456 26.997745,27.140456 C 18.528582,18.264221 13.291696,25.230495 11.500037,31.436501 z"
             style="fill:#404040;"/>
          </a>
         </g>
        </svg>
</svg>
