<?xml version="1.0" encoding="UTF-8" standalone="no"?>
<!DOCTYPE svg PUBLIC "-//W3C//DTD SVG 1.1//EN"
 "http://www.w3.org/Graphics/SVG/1.1/DTD/svg11.dtd">
<!-- Generated by graphviz version 2.26.3 (20100126.1600)
 -->
<!-- Title: Urho3D::AttributeAccessor Pages: 1 -->
<!--zoomable 198 -->
<svg id="main" version="1.1" xmlns="http://www.w3.org/2000/svg" xmlns:xlink="http://www.w3.org/1999/xlink" xml:space="preserve" onload="init(evt)">
        <defs>
                <circle id="rim" cx="0" cy="0" r="7"/>
                <circle id="rim2" cx="0" cy="0" r="3.5"/>
                <g id="zoomPlus">
                        <use xlink:href="#rim" fill="#404040">
                                <set attributeName="fill" to="#808080" begin="zoomplus.mouseover" end="zoomplus.mouseout"/>
                        </use>
                        <path d="M-4,0h8M0,-4v8" fill="none" stroke="white" stroke-width="1.5" pointer-events="none"/>
                </g>
                <g id="zoomMin">
                        <use xlink:href="#rim" fill="#404040">
                                <set attributeName="fill" to="#808080" begin="zoomminus.mouseover" end="zoomminus.mouseout"/>
                        </use>
                        <path d="M-4,0h8" fill="none" stroke="white" stroke-width="1.5" pointer-events="none"/>
                </g>
                <g id="dirArrow">
                        <path fill="none" stroke="white" stroke-width="1.5" d="M0,-3.0v7 M-2.5,-0.5L0,-3.0L2.5,-0.5"/>
                </g>
               <g id="resetDef">
                       <use xlink:href="#rim2" fill="#404040">
                               <set attributeName="fill" to="#808080" begin="reset.mouseover" end="reset.mouseout"/>
                       </use>
               </g>
        </defs>

<script type="text/javascript">
var viewWidth = 514;
var viewHeight = 198;
var sectionId = 'dynsection-0';
</script>
<script xlink:href="svgpan.js"/>
<svg id="graph" class="graph">
<g id="viewport">
<title>Urho3D::AttributeAccessor</title>
<!-- Node1 -->
<g id="node1" class="node"><title>Node1</title>
<polygon fill="#bfbfbf" stroke="black" points="150.5,-84.5 150.5,-105.5 295.5,-105.5 295.5,-84.5 150.5,-84.5"/>
<text text-anchor="middle" x="223" y="-92.5" font-family="FreeSans" font-size="10.00">Urho3D::AttributeAccessor</text>
</g>
<!-- Node3 -->
<g id="node5" class="node"><title>Node3</title>
<a xlink:href="class_urho3_d_1_1_attribute_accessor_free_impl.html" target="_top" xlink:title="Template implementation of the attribute accessor that uses free functions invoke helper class...">
<polygon fill="none" stroke="black" points="346.5,-156 346.5,-190 491.5,-190 491.5,-156 346.5,-156"/>
<text text-anchor="start" x="354.5" y="-177" font-family="FreeSans" font-size="10.00">Urho3D::AttributeAccessor</text>
<text text-anchor="middle" x="419" y="-164" font-family="FreeSans" font-size="10.00">FreeImpl&lt; T, U, Trait &gt;</text>
</a>
</g>
<!-- Node1&#45;&gt;Node3 -->
<g id="edge4" class="edge"><title>Node1&#45;&gt;Node3</title>
<path fill="none" stroke="midnightblue" d="M251.674,-110.182C273.351,-121.288 304.05,-136.231 332,-147 340.238,-150.174 349.034,-153.203 357.752,-156"/>
<polygon fill="midnightblue" stroke="midnightblue" points="253.172,-107.017 242.682,-105.531 249.956,-113.234 253.172,-107.017"/>
</g>
<!-- Node4 -->
<g id="node7" class="node"><title>Node4</title>
<a xlink:href="class_urho3_d_1_1_attribute_accessor_impl.html" target="_top" xlink:title="Template implementation of the attribute accessor invoke helper class.">
<polygon fill="none" stroke="black" points="346.5,-104 346.5,-138 491.5,-138 491.5,-104 346.5,-104"/>
<text text-anchor="start" x="354.5" y="-125" font-family="FreeSans" font-size="10.00">Urho3D::AttributeAccessor</text>
<text text-anchor="middle" x="419" y="-112" font-family="FreeSans" font-size="10.00">Impl&lt; T, U, Trait &gt;</text>
</a>
</g>
<!-- Node1&#45;&gt;Node4 -->
<g id="edge6" class="edge"><title>Node1&#45;&gt;Node4</title>
<path fill="none" stroke="midnightblue" d="M305.906,-105.998C319.369,-107.784 333.221,-109.621 346.413,-111.371"/>
<polygon fill="midnightblue" stroke="midnightblue" points="306.078,-102.49 295.705,-104.644 305.158,-109.429 306.078,-102.49"/>
</g>
<!-- Node5 -->
<g id="node9" class="node"><title>Node5</title>
<a xlink:href="class_urho3_d_1_1_enum_attribute_accessor_free_impl.html" target="_top" xlink:title="Template implementation of the enum attribute accessor that uses free functions invoke helper class...">
<polygon fill="none" stroke="black" points="332.5,-52 332.5,-86 505.5,-86 505.5,-52 332.5,-52"/>
<text text-anchor="start" x="340.5" y="-73" font-family="FreeSans" font-size="10.00">Urho3D::EnumAttributeAccessor</text>
<text text-anchor="middle" x="419" y="-60" font-family="FreeSans" font-size="10.00">FreeImpl&lt; T, U &gt;</text>
</a>
</g>
<!-- Node1&#45;&gt;Node5 -->
<g id="edge8" class="edge"><title>Node1&#45;&gt;Node5</title>
<path fill="none" stroke="midnightblue" d="M305.641,-84.0375C314.52,-82.8596 323.572,-81.6588 332.496,-80.4751"/>
<polygon fill="midnightblue" stroke="midnightblue" points="305.158,-80.5708 295.705,-85.3555 306.078,-87.51 305.158,-80.5708"/>
</g>
<!-- Node6 -->
<g id="node11" class="node"><title>Node6</title>
<a xlink:href="class_urho3_d_1_1_enum_attribute_accessor_impl.html" target="_top" xlink:title="Template implementation of the enum attribute accessor invoke helper class.">
<polygon fill="none" stroke="black" points="332.5,-0 332.5,-34 505.5,-34 505.5,-0 332.5,-0"/>
<text text-anchor="start" x="340.5" y="-21" font-family="FreeSans" font-size="10.00">Urho3D::EnumAttributeAccessor</text>
<text text-anchor="middle" x="419" y="-8" font-family="FreeSans" font-size="10.00">Impl&lt; T, U &gt;</text>
</a>
</g>
<!-- Node1&#45;&gt;Node6 -->
<g id="edge10" class="edge"><title>Node1&#45;&gt;Node6</title>
<path fill="none" stroke="midnightblue" d="M251.674,-79.8175C273.351,-68.7124 304.05,-53.769 332,-43 340.238,-39.8261 349.034,-36.7966 357.752,-34.0002"/>
<polygon fill="midnightblue" stroke="midnightblue" points="249.956,-76.7659 242.682,-84.4695 253.172,-82.9832 249.956,-76.7659"/>
</g>
<!-- Node2 -->
<g id="node2" class="node"><title>Node2</title>
<a xlink:href="class_urho3_d_1_1_ref_counted.html" target="_top" xlink:title="Base class for intrusively reference&#45;counted objects. These are noncopyable and non&#45;assignable.">
<polygon fill="none" stroke="black" points="0,-84.5 0,-105.5 114,-105.5 114,-84.5 0,-84.5"/>
<text text-anchor="middle" x="57" y="-92.5" font-family="FreeSans" font-size="10.00">Urho3D::RefCounted</text>
</a>
</g>
<!-- Node2&#45;&gt;Node1 -->
<g id="edge2" class="edge"><title>Node2&#45;&gt;Node1</title>
<path fill="none" stroke="midnightblue" d="M124.376,-95C132.891,-95 141.634,-95 150.228,-95"/>
<polygon fill="midnightblue" stroke="midnightblue" points="124.128,-91.5001 114.128,-95 124.128,-98.5001 124.128,-91.5001"/>
</g>
</g>
</svg>
        <g id="navigator" transform="translate(0 0)" fill="#404254">
                <rect fill="#f2f5e9" fill-opacity="0.5" stroke="#606060" stroke-width=".5" x="0" y="0" width="60" height="60"/>
                <use id="zoomplus" xlink:href="#zoomPlus" x="17" y="9" onmousedown="handleZoom(evt,'in')"/>
                <use id="zoomminus" xlink:href="#zoomMin" x="42" y="9" onmousedown="handleZoom(evt,'out')"/>
                <use id="reset" xlink:href="#resetDef" x="30" y="36" onmousedown="handleReset()"/>
                <g id="arrowUp" xlink:href="#dirArrow" transform="translate(30 24)" onmousedown="handlePan(0,-1)">
                  <use xlink:href="#rim" fill="#404040">
                        <set attributeName="fill" to="#808080" begin="arrowUp.mouseover" end="arrowUp.mouseout"/>
                  </use>
                  <path fill="none" stroke="white" stroke-width="1.5" d="M0,-3.0v7 M-2.5,-0.5L0,-3.0L2.5,-0.5"/>
                </g>
                <g id="arrowRight" xlink:href="#dirArrow" transform="rotate(90) translate(36 -43)" onmousedown="handlePan(1,0)">
                  <use xlink:href="#rim" fill="#404040">
                        <set attributeName="fill" to="#808080" begin="arrowRight.mouseover" end="arrowRight.mouseout"/>
                  </use>
                  <path fill="none" stroke="white" stroke-width="1.5" d="M0,-3.0v7 M-2.5,-0.5L0,-3.0L2.5,-0.5"/>
                </g>
                <g id="arrowDown" xlink:href="#dirArrow" transform="rotate(180) translate(-30 -48)" onmousedown="handlePan(0,1)">
                  <use xlink:href="#rim" fill="#404040">
                        <set attributeName="fill" to="#808080" begin="arrowDown.mouseover" end="arrowDown.mouseout"/>
                  </use>
                  <path fill="none" stroke="white" stroke-width="1.5" d="M0,-3.0v7 M-2.5,-0.5L0,-3.0L2.5,-0.5"/>
                </g>
                <g id="arrowLeft" xlink:href="#dirArrow" transform="rotate(270) translate(-36 17)" onmousedown="handlePan(-1,0)">
                  <use xlink:href="#rim" fill="#404040">
                        <set attributeName="fill" to="#808080" begin="arrowLeft.mouseover" end="arrowLeft.mouseout"/>
                  </use>
                  <path fill="none" stroke="white" stroke-width="1.5" d="M0,-3.0v7 M-2.5,-0.5L0,-3.0L2.5,-0.5"/>
                </g>
        </g>
        <svg viewBox="0 0 15 15" width="100%" height="30px" preserveAspectRatio="xMaxYMin meet">
         <g id="arrow_out" transform="scale(0.3 0.3)">
          <a xlink:href="class_urho3_d_1_1_attribute_accessor__inherit__graph_org.svg" target="_base">
           <rect id="button" ry="5" rx="5" y="6" x="6" height="38" width="38"
                fill="#f2f5e9" fill-opacity="0.5" stroke="#606060" stroke-width="1.0"/>
           <path id="arrow"
             d="M 11.500037,31.436501 C 11.940474,20.09759 22.043105,11.32322 32.158766,21.979434 L 37.068811,17.246167 C 37.068811,17.246167 37.088388,32 37.088388,32 L 22.160133,31.978069 C 22.160133,31.978069 26.997745,27.140456 26.997745,27.140456 C 18.528582,18.264221 13.291696,25.230495 11.500037,31.436501 z"
             style="fill:#404040;"/>
          </a>
         </g>
        </svg>
</svg>
