<?xml version="1.0" encoding="UTF-8" standalone="no"?>
<!DOCTYPE svg PUBLIC "-//W3C//DTD SVG 1.1//EN"
 "http://www.w3.org/Graphics/SVG/1.1/DTD/svg11.dtd">
<!-- Generated by graphviz version 2.43.0 (0)
 -->
<!-- Title: Urho3D::Input::AddScreenJoystick Pages: 1 -->
<!--zoomable 531 -->
<svg id="main" version="1.1" xmlns="http://www.w3.org/2000/svg" xmlns:xlink="http://www.w3.org/1999/xlink" xml:space="preserve" onload="init(evt)">
<style type="text/css"><![CDATA[
.edge:hover path { stroke: red; }
.edge:hover polygon { stroke: red; fill: red; }
]]></style>
<script type="text/javascript"><![CDATA[
var edges = document.getElementsByTagName('g');
if (edges && edges.length) {
  for (var i=0;i<edges.length;i++) {
    if (edges[i].id.substr(0,4)=='edge') {
      edges[i].setAttribute('class','edge');
    }
  }
}
]]></script>
        <defs>
                <circle id="rim" cx="0" cy="0" r="7"/>
                <circle id="rim2" cx="0" cy="0" r="3.5"/>
                <g id="zoomPlus">
                        <use xlink:href="#rim" fill="#404040">
                                <set attributeName="fill" to="#808080" begin="zoomplus.mouseover" end="zoomplus.mouseout"/>
                        </use>
                        <path d="M-4,0h8M0,-4v8" fill="none" stroke="white" stroke-width="1.5" pointer-events="none"/>
                </g>
                <g id="zoomMin">
                        <use xlink:href="#rim" fill="#404040">
                                <set attributeName="fill" to="#808080" begin="zoomminus.mouseover" end="zoomminus.mouseout"/>
                        </use>
                        <path d="M-4,0h8" fill="none" stroke="white" stroke-width="1.5" pointer-events="none"/>
                </g>
                <g id="dirArrow">
                        <path fill="none" stroke="white" stroke-width="1.5" d="M0,-3.0v7 M-2.5,-0.5L0,-3.0L2.5,-0.5"/>
                </g>
               <g id="resetDef">
                       <use xlink:href="#rim2" fill="#404040">
                               <set attributeName="fill" to="#808080" begin="reset.mouseover" end="reset.mouseout"/>
                       </use>
               </g>
        </defs>

<script type="text/javascript">
var viewWidth = 853;
var viewHeight = 531;
var sectionId = 'dynsection-2';
</script>
<script xlink:href="svgpan.js"/>
<svg id="graph" class="graph">
<g id="viewport">
<title>Urho3D::Input::AddScreenJoystick</title>
<!-- Node1 -->
<g id="node1" class="node">
<title>Node1</title>
<g id="a_node1"><a xlink:title="Add screen joystick.">
<polygon fill="#bfbfbf" stroke="black" points="0,-302 0,-332 142,-332 142,-302 0,-302"/>
<text text-anchor="start" x="8" y="-320" font-family="Helvetica,sans-Serif" font-size="10.00">Urho3D::Input::AddScreen</text>
<text text-anchor="middle" x="71" y="-309" font-family="Helvetica,sans-Serif" font-size="10.00">Joystick</text>
</a>
</g>
</g>
<!-- Node2 -->
<g id="node2" class="node">
<title>Node2</title>
<g id="a_node2"><a xlink:href="class_urho3_d_1_1_vector.html#aa20f23bae4cf1d7cda06f6c3b47c7504" target="_top" xlink:title="Return iterator to the beginning.">
<polygon fill="none" stroke="black" points="188.5,-503.5 188.5,-522.5 312.5,-522.5 312.5,-503.5 188.5,-503.5"/>
<text text-anchor="middle" x="250.5" y="-510.5" font-family="Helvetica,sans-Serif" font-size="10.00">Urho3D::Vector::Begin</text>
</a>
</g>
</g>
<!-- Node1&#45;&gt;Node2 -->
<g id="edge1" class="edge">
<title>Node1&#45;&gt;Node2</title>
<path fill="none" stroke="midnightblue" d="M76.61,-332C87.94,-366.27 120.49,-450.69 178,-494 180.48,-495.87 183.14,-497.56 185.91,-499.08"/>
<polygon fill="midnightblue" stroke="midnightblue" points="184.54,-502.31 195.08,-503.4 187.52,-495.97 184.54,-502.31"/>
</g>
<!-- Node3 -->
<g id="node3" class="node">
<title>Node3</title>
<g id="a_node3"><a xlink:href="class_urho3_d_1_1_string.html#aff53945d0c649c973851c0605810a3f9" target="_top" xlink:title="Return the C string.">
<polygon fill="none" stroke="black" points="186,-465.5 186,-484.5 315,-484.5 315,-465.5 186,-465.5"/>
<text text-anchor="middle" x="250.5" y="-472.5" font-family="Helvetica,sans-Serif" font-size="10.00">Urho3D::String::CString</text>
</a>
</g>
</g>
<!-- Node1&#45;&gt;Node3 -->
<g id="edge2" class="edge">
<title>Node1&#45;&gt;Node3</title>
<path fill="none" stroke="midnightblue" d="M79.25,-332.19C93.79,-360.97 129.31,-423.44 178,-456 181.06,-458.05 184.34,-459.88 187.74,-461.51"/>
<polygon fill="midnightblue" stroke="midnightblue" points="186.39,-464.74 196.97,-465.38 189.1,-458.29 186.39,-464.74"/>
</g>
<!-- Node4 -->
<g id="node4" class="node">
<title>Node4</title>
<g id="a_node4"><a xlink:href="class_urho3_d_1_1_vector.html#af79ffb0683568b08fe130ee028bfd1ef" target="_top" xlink:title="Return iterator to the end.">
<polygon fill="none" stroke="black" points="193.5,-427.5 193.5,-446.5 307.5,-446.5 307.5,-427.5 193.5,-427.5"/>
<text text-anchor="middle" x="250.5" y="-434.5" font-family="Helvetica,sans-Serif" font-size="10.00">Urho3D::Vector::End</text>
</a>
</g>
</g>
<!-- Node1&#45;&gt;Node4 -->
<g id="edge3" class="edge">
<title>Node1&#45;&gt;Node4</title>
<path fill="none" stroke="midnightblue" d="M83.63,-332.14C101.49,-354.34 137.86,-395.52 178,-418 181.95,-420.21 186.17,-422.18 190.51,-423.92"/>
<polygon fill="midnightblue" stroke="midnightblue" points="189.55,-427.29 200.14,-427.39 191.92,-420.71 189.55,-427.29"/>
</g>
<!-- Node5 -->
<g id="node5" class="node">
<title>Node5</title>
<g id="a_node5"><a xlink:href="class_urho3_d_1_1_hash_map.html#a47eb201d8441d4e4be8626e615cb562d" target="_top" xlink:title="Return iterator to the end.">
<polygon fill="none" stroke="black" points="186,-389.5 186,-408.5 315,-408.5 315,-389.5 186,-389.5"/>
<text text-anchor="middle" x="250.5" y="-396.5" font-family="Helvetica,sans-Serif" font-size="10.00">Urho3D::HashMap::End</text>
</a>
</g>
</g>
<!-- Node1&#45;&gt;Node5 -->
<g id="edge4" class="edge">
<title>Node1&#45;&gt;Node5</title>
<path fill="none" stroke="midnightblue" d="M93.4,-332.13C114.17,-346.23 147.02,-366.97 178,-380 183.75,-382.42 189.89,-384.6 196.07,-386.55"/>
<polygon fill="midnightblue" stroke="midnightblue" points="195.17,-389.94 205.75,-389.43 197.16,-383.23 195.17,-389.94"/>
</g>
<!-- Node6 -->
<g id="node6" class="node">
<title>Node6</title>
<g id="a_node6"><a xlink:href="class_urho3_d_1_1_hash_map.html#a9dc4e5c0ad1feb3eec2d2f1f1714698d" target="_top" xlink:title="Return iterator to the pair with key, or end iterator if not found.">
<polygon fill="none" stroke="black" points="185,-351.5 185,-370.5 316,-370.5 316,-351.5 185,-351.5"/>
<text text-anchor="middle" x="250.5" y="-358.5" font-family="Helvetica,sans-Serif" font-size="10.00">Urho3D::HashMap::Find</text>
</a>
</g>
</g>
<!-- Node1&#45;&gt;Node6 -->
<g id="edge5" class="edge">
<title>Node1&#45;&gt;Node6</title>
<path fill="none" stroke="midnightblue" d="M132.59,-332.02C155.04,-337.59 180.18,-343.82 201.38,-349.07"/>
<polygon fill="midnightblue" stroke="midnightblue" points="200.58,-352.48 211.13,-351.49 202.26,-345.68 200.58,-352.48"/>
</g>
<!-- Node7 -->
<g id="node7" class="node">
<title>Node7</title>
<g id="a_node7"><a xlink:href="class_urho3_d_1_1_u_i_element.html#a83bc1b2d8a2587e7ffe1d7d381a4c6d3" target="_top" xlink:title="Template version of returning child element by index using dynamic cast. May return 0 when casting fa...">
<polygon fill="none" stroke="black" points="188.5,-302 188.5,-332 312.5,-332 312.5,-302 188.5,-302"/>
<text text-anchor="start" x="196.5" y="-320" font-family="Helvetica,sans-Serif" font-size="10.00">Urho3D::UIElement::</text>
<text text-anchor="middle" x="250.5" y="-309" font-family="Helvetica,sans-Serif" font-size="10.00">GetChildDynamicCast</text>
</a>
</g>
</g>
<!-- Node1&#45;&gt;Node7 -->
<g id="edge6" class="edge">
<title>Node1&#45;&gt;Node7</title>
<path fill="none" stroke="midnightblue" d="M142.15,-317C153.99,-317 166.3,-317 178.17,-317"/>
<polygon fill="midnightblue" stroke="midnightblue" points="178.47,-320.5 188.47,-317 178.47,-313.5 178.47,-320.5"/>
</g>
<!-- Node9 -->
<g id="node9" class="node">
<title>Node9</title>
<g id="a_node9"><a xlink:href="class_urho3_d_1_1_u_i_element.html#adab0b5a022929bf19da6f0af601fd68e" target="_top" xlink:title="Return immediate child elements.">
<polygon fill="none" stroke="black" points="192.5,-253 192.5,-283 308.5,-283 308.5,-253 192.5,-253"/>
<text text-anchor="start" x="200.5" y="-271" font-family="Helvetica,sans-Serif" font-size="10.00">Urho3D::UIElement::</text>
<text text-anchor="middle" x="250.5" y="-260" font-family="Helvetica,sans-Serif" font-size="10.00">GetChildren</text>
</a>
</g>
</g>
<!-- Node1&#45;&gt;Node9 -->
<g id="edge8" class="edge">
<title>Node1&#45;&gt;Node9</title>
<path fill="none" stroke="midnightblue" d="M126.7,-301.9C145.18,-296.8 165.98,-291.06 185.13,-285.77"/>
<polygon fill="midnightblue" stroke="midnightblue" points="186.27,-289.09 194.98,-283.05 184.41,-282.34 186.27,-289.09"/>
</g>
<!-- Node10 -->
<g id="node10" class="node">
<title>Node10</title>
<g id="a_node10"><a xlink:href="class_urho3_d_1_1_u_i_element.html#aebae8a4835f38958ed6dbfa02fe77cb6" target="_top" xlink:title=" ">
<polygon fill="none" stroke="black" points="192.5,-204 192.5,-234 308.5,-234 308.5,-204 192.5,-204"/>
<text text-anchor="start" x="200.5" y="-222" font-family="Helvetica,sans-Serif" font-size="10.00">Urho3D::UIElement::</text>
<text text-anchor="middle" x="250.5" y="-211" font-family="Helvetica,sans-Serif" font-size="10.00">GetName</text>
</a>
</g>
</g>
<!-- Node1&#45;&gt;Node10 -->
<g id="edge9" class="edge">
<title>Node1&#45;&gt;Node10</title>
<path fill="none" stroke="midnightblue" d="M90.57,-301.92C111.01,-285.88 145.32,-260.59 178,-244 182.25,-241.84 186.72,-239.8 191.28,-237.87"/>
<polygon fill="midnightblue" stroke="midnightblue" points="192.72,-241.07 200.69,-234.1 190.11,-234.57 192.72,-241.07"/>
</g>
<!-- Node11 -->
<g id="node11" class="node">
<title>Node11</title>
<g id="a_node11"><a xlink:href="class_urho3_d_1_1_string.html#a0a988cc147946dd80bf73cea2c1ac04c" target="_top" xlink:title=" ">
<polygon fill="none" stroke="black" points="187,-165.5 187,-184.5 314,-184.5 314,-165.5 187,-165.5"/>
<text text-anchor="middle" x="250.5" y="-172.5" font-family="Helvetica,sans-Serif" font-size="10.00">Urho3D::String::Length</text>
</a>
</g>
</g>
<!-- Node1&#45;&gt;Node11 -->
<g id="edge10" class="edge">
<title>Node1&#45;&gt;Node11</title>
<path fill="none" stroke="midnightblue" d="M81.03,-301.72C97.15,-275.78 133.42,-223.2 178,-195 182.07,-192.42 186.48,-190.17 191.05,-188.21"/>
<polygon fill="midnightblue" stroke="midnightblue" points="192.47,-191.41 200.56,-184.56 189.97,-184.87 192.47,-191.41"/>
</g>
<!-- Node12 -->
<g id="node12" class="node">
<title>Node12</title>
<g id="a_node12"><a xlink:href="class_urho3_d_1_1_u_i_element.html#a8a0131dfc7f06ce10cdb77418ec830a9" target="_top" xlink:title=" ">
<polygon fill="none" stroke="black" points="192.5,-116 192.5,-146 308.5,-146 308.5,-116 192.5,-116"/>
<text text-anchor="start" x="200.5" y="-134" font-family="Helvetica,sans-Serif" font-size="10.00">Urho3D::UIElement::</text>
<text text-anchor="middle" x="250.5" y="-123" font-family="Helvetica,sans-Serif" font-size="10.00">SetVisible</text>
</a>
</g>
</g>
<!-- Node1&#45;&gt;Node12 -->
<g id="edge11" class="edge">
<title>Node1&#45;&gt;Node12</title>
<path fill="none" stroke="midnightblue" d="M78.01,-301.75C91.27,-270.03 126.02,-196.55 178,-156 180.41,-154.12 182.97,-152.37 185.64,-150.76"/>
<polygon fill="midnightblue" stroke="midnightblue" points="187.31,-153.83 194.46,-146 183.99,-147.67 187.31,-153.83"/>
</g>
<!-- Node44 -->
<g id="node24" class="node">
<title>Node44</title>
<g id="a_node24"><a xlink:href="class_urho3_d_1_1_string.html#afa8a3643a9866f6846520794d3b45b47" target="_top" xlink:title="Return whether starts with a string.">
<polygon fill="none" stroke="black" points="178,-53.5 178,-72.5 323,-72.5 323,-53.5 178,-53.5"/>
<text text-anchor="middle" x="250.5" y="-60.5" font-family="Helvetica,sans-Serif" font-size="10.00">Urho3D::String::StartsWith</text>
</a>
</g>
</g>
<!-- Node1&#45;&gt;Node44 -->
<g id="edge26" class="edge">
<title>Node1&#45;&gt;Node44</title>
<path fill="none" stroke="midnightblue" d="M76.45,-301.85C87.95,-264.8 121.76,-168.19 178,-107 189.22,-94.79 204.59,-84.75 218.2,-77.35"/>
<polygon fill="midnightblue" stroke="midnightblue" points="219.99,-80.36 227.27,-72.66 216.78,-74.15 219.99,-80.36"/>
</g>
<!-- Node8 -->
<g id="node8" class="node">
<title>Node8</title>
<g id="a_node8"><a xlink:href="class_urho3_d_1_1_u_i_element.html#a4273bc9c9436696282a4bf5b29feba1e" target="_top" xlink:title=" ">
<polygon fill="none" stroke="black" points="359,-302 359,-332 475,-332 475,-302 359,-302"/>
<text text-anchor="start" x="367" y="-320" font-family="Helvetica,sans-Serif" font-size="10.00">Urho3D::UIElement::</text>
<text text-anchor="middle" x="417" y="-309" font-family="Helvetica,sans-Serif" font-size="10.00">GetChild</text>
</a>
</g>
</g>
<!-- Node7&#45;&gt;Node8 -->
<g id="edge7" class="edge">
<title>Node7&#45;&gt;Node8</title>
<path fill="none" stroke="midnightblue" d="M312.75,-317C324.41,-317 336.67,-317 348.51,-317"/>
<polygon fill="midnightblue" stroke="midnightblue" points="348.78,-320.5 358.78,-317 348.78,-313.5 348.78,-320.5"/>
</g>
<!-- Node13 -->
<g id="node13" class="node">
<title>Node13</title>
<g id="a_node13"><a xlink:href="class_urho3_d_1_1_object.html#a69af51cfa67f9626273b35a6d501e03e" target="_top" xlink:title="Return a preallocated map for event data. Used for optimization to avoid constant re&#45;allocation of ev...">
<polygon fill="none" stroke="black" points="514.5,-88 514.5,-118 656.5,-118 656.5,-88 514.5,-88"/>
<text text-anchor="start" x="522.5" y="-106" font-family="Helvetica,sans-Serif" font-size="10.00">Urho3D::Object::GetEvent</text>
<text text-anchor="middle" x="585.5" y="-95" font-family="Helvetica,sans-Serif" font-size="10.00">DataMap</text>
</a>
</g>
</g>
<!-- Node12&#45;&gt;Node13 -->
<g id="edge12" class="edge">
<title>Node12&#45;&gt;Node13</title>
<path fill="none" stroke="midnightblue" d="M308.74,-126.19C362.62,-121.66 443.83,-114.83 504.18,-109.75"/>
<polygon fill="midnightblue" stroke="midnightblue" points="504.76,-113.22 514.44,-108.89 504.18,-106.24 504.76,-113.22"/>
</g>
<!-- Node16 -->
<g id="node15" class="node">
<title>Node16</title>
<g id="a_node15"><a xlink:href="class_urho3_d_1_1_u_i_element.html#af9a9765c18b3bca48e83c761f1367e11" target="_top" xlink:title=" ">
<polygon fill="none" stroke="black" points="527.5,-39 527.5,-69 643.5,-69 643.5,-39 527.5,-39"/>
<text text-anchor="start" x="535.5" y="-57" font-family="Helvetica,sans-Serif" font-size="10.00">Urho3D::UIElement::</text>
<text text-anchor="middle" x="585.5" y="-46" font-family="Helvetica,sans-Serif" font-size="10.00">IsVisibleEffective</text>
</a>
</g>
</g>
<!-- Node12&#45;&gt;Node16 -->
<g id="edge14" class="edge">
<title>Node12&#45;&gt;Node16</title>
<path fill="none" stroke="midnightblue" d="M308.74,-117.76C366.7,-104.36 456.27,-83.65 517.49,-69.49"/>
<polygon fill="midnightblue" stroke="midnightblue" points="518.49,-72.86 527.45,-67.19 516.91,-66.04 518.49,-72.86"/>
</g>
<!-- Node17 -->
<g id="node16" class="node">
<title>Node17</title>
<g id="a_node16"><a xlink:href="class_urho3_d_1_1_object.html#a32020dbf77c196b9777eca479e8abb36" target="_top" xlink:title="Send event to all subscribers.">
<polygon fill="none" stroke="black" points="511,-382.5 511,-401.5 660,-401.5 660,-382.5 511,-382.5"/>
<text text-anchor="middle" x="585.5" y="-389.5" font-family="Helvetica,sans-Serif" font-size="10.00">Urho3D::Object::SendEvent</text>
</a>
</g>
</g>
<!-- Node12&#45;&gt;Node17 -->
<g id="edge15" class="edge">
<title>Node12&#45;&gt;Node17</title>
<path fill="none" stroke="midnightblue" d="M308.5,-146.12C313.73,-148.89 318.68,-152.15 323,-156 350.32,-180.31 333.72,-203.57 359,-230 399.55,-272.4 435.09,-250 475,-293 501.52,-321.58 481.19,-347.87 511,-373 512.98,-374.67 515.1,-376.2 517.31,-377.6"/>
<polygon fill="midnightblue" stroke="midnightblue" points="515.78,-380.75 526.26,-382.35 519.07,-374.57 515.78,-380.75"/>
</g>
<!-- Node18 -->
<g id="node17" class="node">
<title>Node18</title>
<g id="a_node17"><a xlink:href="class_urho3_d_1_1_u_i_element.html#a915c7ab3e9cafc17b6e36eb7bc1b58c8" target="_top" xlink:title=" ">
<polygon fill="none" stroke="black" points="359,-39 359,-69 475,-69 475,-39 359,-39"/>
<text text-anchor="start" x="367" y="-57" font-family="Helvetica,sans-Serif" font-size="10.00">Urho3D::UIElement::</text>
<text text-anchor="middle" x="417" y="-46" font-family="Helvetica,sans-Serif" font-size="10.00">SetFocus</text>
</a>
</g>
</g>
<!-- Node12&#45;&gt;Node18 -->
<g id="edge16" class="edge">
<title>Node12&#45;&gt;Node18</title>
<path fill="none" stroke="midnightblue" d="M283.61,-115.97C309.57,-103.82 346.3,-86.63 374.49,-73.43"/>
<polygon fill="midnightblue" stroke="midnightblue" points="376.12,-76.53 383.69,-69.12 373.15,-70.19 376.12,-76.53"/>
</g>
<!-- Node19 -->
<g id="node18" class="node">
<title>Node19</title>
<g id="a_node18"><a xlink:href="class_urho3_d_1_1_u_i_element.html#a7cba78373c23a734a1ccd2d4a27d8cb0" target="_top" xlink:title="Manually update layout. Should not be necessary in most cases, but is provided for completeness.">
<polygon fill="none" stroke="red" points="359,-190 359,-220 475,-220 475,-190 359,-190"/>
<text text-anchor="start" x="367" y="-208" font-family="Helvetica,sans-Serif" font-size="10.00">Urho3D::UIElement::</text>
<text text-anchor="middle" x="417" y="-197" font-family="Helvetica,sans-Serif" font-size="10.00">UpdateLayout</text>
</a>
</g>
</g>
<!-- Node12&#45;&gt;Node19 -->
<g id="edge18" class="edge">
<title>Node12&#45;&gt;Node19</title>
<path fill="none" stroke="midnightblue" d="M297.66,-146.01C306.17,-149.09 314.92,-152.48 323,-156 342.62,-164.54 363.79,-175.54 380.96,-184.96"/>
<polygon fill="midnightblue" stroke="midnightblue" points="379.61,-188.21 390.05,-190 383,-182.09 379.61,-188.21"/>
</g>
<!-- Node14 -->
<g id="node14" class="node">
<title>Node14</title>
<g id="a_node14"><a xlink:href="class_urho3_d_1_1_context.html#acb628095602a49ade116c4761ab44004" target="_top" xlink:title="Return a preallocated map for event data. Used for optimization to avoid constant re&#45;allocation of ev...">
<polygon fill="none" stroke="red" points="696,-88 696,-118 845,-118 845,-88 696,-88"/>
<text text-anchor="start" x="704" y="-106" font-family="Helvetica,sans-Serif" font-size="10.00">Urho3D::Context::GetEvent</text>
<text text-anchor="middle" x="770.5" y="-95" font-family="Helvetica,sans-Serif" font-size="10.00">DataMap</text>
</a>
</g>
</g>
<!-- Node13&#45;&gt;Node14 -->
<g id="edge13" class="edge">
<title>Node13&#45;&gt;Node14</title>
<path fill="none" stroke="midnightblue" d="M656.73,-103C666.23,-103 676.05,-103 685.76,-103"/>
<polygon fill="midnightblue" stroke="midnightblue" points="685.82,-106.5 695.82,-103 685.82,-99.5 685.82,-106.5"/>
</g>
<!-- Node18&#45;&gt;Node16 -->
<g id="edge17" class="edge">
<title>Node18&#45;&gt;Node16</title>
<path fill="none" stroke="midnightblue" d="M475.3,-54C488.85,-54 503.42,-54 517.36,-54"/>
<polygon fill="midnightblue" stroke="midnightblue" points="517.38,-57.5 527.38,-54 517.38,-50.5 517.38,-57.5"/>
</g>
<!-- Node19&#45;&gt;Node13 -->
<g id="edge24" class="edge">
<title>Node19&#45;&gt;Node13</title>
<path fill="none" stroke="midnightblue" d="M432.83,-189.74C450.18,-172.64 480.44,-145.08 511,-128 514.88,-125.83 518.97,-123.81 523.17,-121.93"/>
<polygon fill="midnightblue" stroke="midnightblue" points="524.59,-125.13 532.47,-118.04 521.89,-118.67 524.59,-125.13"/>
</g>
<!-- Node19&#45;&gt;Node17 -->
<g id="edge25" class="edge">
<title>Node19&#45;&gt;Node17</title>
<path fill="none" stroke="midnightblue" d="M442.85,-220.02C454.11,-227.96 466.73,-238.63 475,-251 506.42,-298 470.35,-333.71 511,-373 512.49,-374.44 514.08,-375.78 515.74,-377.02"/>
<polygon fill="midnightblue" stroke="midnightblue" points="514.27,-380.22 524.63,-382.43 517.91,-374.24 514.27,-380.22"/>
</g>
<!-- Node20 -->
<g id="node19" class="node">
<title>Node20</title>
<g id="a_node19"><a xlink:href="class_urho3_d_1_1_u_i_element.html#a2c26825089539496dc3c05f2701e9bff" target="_top" xlink:title="Calculate child widths/positions in the layout.">
<polygon fill="none" stroke="red" points="527.5,-186 527.5,-216 643.5,-216 643.5,-186 527.5,-186"/>
<text text-anchor="start" x="535.5" y="-204" font-family="Helvetica,sans-Serif" font-size="10.00">Urho3D::UIElement::</text>
<text text-anchor="middle" x="585.5" y="-193" font-family="Helvetica,sans-Serif" font-size="10.00">CalculateLayout</text>
</a>
</g>
</g>
<!-- Node19&#45;&gt;Node20 -->
<g id="edge19" class="edge">
<title>Node19&#45;&gt;Node20</title>
<path fill="none" stroke="midnightblue" d="M475.3,-203.62C488.85,-203.3 503.42,-202.95 517.36,-202.61"/>
<polygon fill="midnightblue" stroke="midnightblue" points="517.46,-206.11 527.38,-202.37 517.3,-199.11 517.46,-206.11"/>
</g>
<!-- Node25 -->
<g id="node20" class="node">
<title>Node25</title>
<g id="a_node20"><a xlink:href="class_urho3_d_1_1_u_i_element.html#aa8ec3dcc9f57f4c5b7d13f60dcb76f38" target="_top" xlink:title="Calculate layout width for resizing the parent element.">
<polygon fill="none" stroke="red" points="512.5,-137 512.5,-167 658.5,-167 658.5,-137 512.5,-137"/>
<text text-anchor="start" x="520.5" y="-155" font-family="Helvetica,sans-Serif" font-size="10.00">Urho3D::UIElement::</text>
<text text-anchor="middle" x="585.5" y="-144" font-family="Helvetica,sans-Serif" font-size="10.00">CalculateLayoutParentSize</text>
</a>
</g>
</g>
<!-- Node19&#45;&gt;Node25 -->
<g id="edge20" class="edge">
<title>Node19&#45;&gt;Node25</title>
<path fill="none" stroke="midnightblue" d="M465.27,-189.95C484.6,-183.8 507.14,-176.63 527.38,-170.18"/>
<polygon fill="midnightblue" stroke="midnightblue" points="528.65,-173.45 537.11,-167.08 526.52,-166.78 528.65,-173.45"/>
</g>
<!-- Node26 -->
<g id="node21" class="node">
<title>Node26</title>
<g id="a_node21"><a xlink:href="class_urho3_d_1_1_u_i_element.html#a7e286d16e39b54282ca0d64666d26b67" target="_top" xlink:title="Disable automatic layout update. Should only be used if there are performance problems.">
<polygon fill="none" stroke="black" points="524.5,-333 524.5,-363 646.5,-363 646.5,-333 524.5,-333"/>
<text text-anchor="start" x="532.5" y="-351" font-family="Helvetica,sans-Serif" font-size="10.00">Urho3D::UIElement::</text>
<text text-anchor="middle" x="585.5" y="-340" font-family="Helvetica,sans-Serif" font-size="10.00">DisableLayoutUpdate</text>
</a>
</g>
</g>
<!-- Node19&#45;&gt;Node26 -->
<g id="edge21" class="edge">
<title>Node19&#45;&gt;Node26</title>
<path fill="none" stroke="midnightblue" d="M441.09,-220.07C452.34,-228.23 465.46,-239.09 475,-251 497.6,-279.24 483.66,-300.31 511,-324 512.52,-325.32 514.12,-326.57 515.77,-327.74"/>
<polygon fill="midnightblue" stroke="midnightblue" points="514.13,-330.84 524.49,-333.09 517.79,-324.88 514.13,-330.84"/>
</g>
<!-- Node27 -->
<g id="node22" class="node">
<title>Node27</title>
<g id="a_node22"><a xlink:href="class_urho3_d_1_1_u_i_element.html#a952c4e37f3ee8fe5615791389d03f813" target="_top" xlink:title="Enable automatic layout update.">
<polygon fill="none" stroke="black" points="526.5,-284 526.5,-314 644.5,-314 644.5,-284 526.5,-284"/>
<text text-anchor="start" x="534.5" y="-302" font-family="Helvetica,sans-Serif" font-size="10.00">Urho3D::UIElement::</text>
<text text-anchor="middle" x="585.5" y="-291" font-family="Helvetica,sans-Serif" font-size="10.00">EnableLayoutUpdate</text>
</a>
</g>
</g>
<!-- Node19&#45;&gt;Node27 -->
<g id="edge22" class="edge">
<title>Node19&#45;&gt;Node27</title>
<path fill="none" stroke="midnightblue" d="M436.49,-220.07C458.9,-238.13 495.59,-266.97 511,-275 514.45,-276.8 518.06,-278.5 521.75,-280.1"/>
<polygon fill="midnightblue" stroke="midnightblue" points="520.47,-283.35 531.05,-283.86 523.09,-276.86 520.47,-283.35"/>
</g>
<!-- Node28 -->
<g id="node23" class="node">
<title>Node28</title>
<g id="a_node23"><a xlink:href="class_urho3_d_1_1_u_i_element.html#a6eca4b74842f82376a1d9a7f889aa174" target="_top" xlink:title="Return effective minimum size, also considering layout. Used internally.">
<polygon fill="none" stroke="red" points="527.5,-235 527.5,-265 643.5,-265 643.5,-235 527.5,-235"/>
<text text-anchor="start" x="535.5" y="-253" font-family="Helvetica,sans-Serif" font-size="10.00">Urho3D::UIElement::</text>
<text text-anchor="middle" x="585.5" y="-242" font-family="Helvetica,sans-Serif" font-size="10.00">GetEffectiveMinSize</text>
</a>
</g>
</g>
<!-- Node19&#45;&gt;Node28 -->
<g id="edge23" class="edge">
<title>Node19&#45;&gt;Node28</title>
<path fill="none" stroke="midnightblue" d="M473.91,-220.11C488.4,-224.03 504.13,-228.28 519.07,-232.32"/>
<polygon fill="midnightblue" stroke="midnightblue" points="518.18,-235.7 528.74,-234.93 520,-228.94 518.18,-235.7"/>
</g>
<!-- Node45 -->
<g id="node25" class="node">
<title>Node45</title>
<g id="a_node25"><a xlink:href="class_urho3_d_1_1_string.html#aa9fe9030164a42e2d73dd57f2db7c991" target="_top" xlink:title="Return index to the first occurrence of a string, or NPOS if not found.">
<polygon fill="none" stroke="black" points="360,-0.5 360,-19.5 474,-19.5 474,-0.5 360,-0.5"/>
<text text-anchor="middle" x="417" y="-7.5" font-family="Helvetica,sans-Serif" font-size="10.00">Urho3D::String::Find</text>
</a>
</g>
</g>
<!-- Node44&#45;&gt;Node45 -->
<g id="edge27" class="edge">
<title>Node44&#45;&gt;Node45</title>
<path fill="none" stroke="midnightblue" d="M281.29,-53.4C307.96,-44.81 347.26,-32.15 376.53,-22.72"/>
<polygon fill="midnightblue" stroke="midnightblue" points="377.99,-25.92 386.43,-19.53 375.84,-19.26 377.99,-25.92"/>
</g>
</g>
</svg>
        <g id="navigator" transform="translate(0 0)" fill="#404254">
                <rect fill="#f2f5e9" fill-opacity="0.5" stroke="#606060" stroke-width=".5" x="0" y="0" width="60" height="60"/>
                <use id="zoomplus" xlink:href="#zoomPlus" x="17" y="9" onmousedown="handleZoom(evt,'in')"/>
                <use id="zoomminus" xlink:href="#zoomMin" x="42" y="9" onmousedown="handleZoom(evt,'out')"/>
                <use id="reset" xlink:href="#resetDef" x="30" y="36" onmousedown="handleReset()"/>
                <g id="arrowUp" xlink:href="#dirArrow" transform="translate(30 24)" onmousedown="handlePan(0,-1)">
                  <use xlink:href="#rim" fill="#404040">
                        <set attributeName="fill" to="#808080" begin="arrowUp.mouseover" end="arrowUp.mouseout"/>
                  </use>
                  <path fill="none" stroke="white" stroke-width="1.5" d="M0,-3.0v7 M-2.5,-0.5L0,-3.0L2.5,-0.5"/>
                </g>
                <g id="arrowRight" xlink:href="#dirArrow" transform="rotate(90) translate(36 -43)" onmousedown="handlePan(1,0)">
                  <use xlink:href="#rim" fill="#404040">
                        <set attributeName="fill" to="#808080" begin="arrowRight.mouseover" end="arrowRight.mouseout"/>
                  </use>
                  <path fill="none" stroke="white" stroke-width="1.5" d="M0,-3.0v7 M-2.5,-0.5L0,-3.0L2.5,-0.5"/>
                </g>
                <g id="arrowDown" xlink:href="#dirArrow" transform="rotate(180) translate(-30 -48)" onmousedown="handlePan(0,1)">
                  <use xlink:href="#rim" fill="#404040">
                        <set attributeName="fill" to="#808080" begin="arrowDown.mouseover" end="arrowDown.mouseout"/>
                  </use>
                  <path fill="none" stroke="white" stroke-width="1.5" d="M0,-3.0v7 M-2.5,-0.5L0,-3.0L2.5,-0.5"/>
                </g>
                <g id="arrowLeft" xlink:href="#dirArrow" transform="rotate(270) translate(-36 17)" onmousedown="handlePan(-1,0)">
                  <use xlink:href="#rim" fill="#404040">
                        <set attributeName="fill" to="#808080" begin="arrowLeft.mouseover" end="arrowLeft.mouseout"/>
                  </use>
                  <path fill="none" stroke="white" stroke-width="1.5" d="M0,-3.0v7 M-2.5,-0.5L0,-3.0L2.5,-0.5"/>
                </g>
        </g>
        <svg viewBox="0 0 15 15" width="100%" height="30px" preserveAspectRatio="xMaxYMin meet">
         <g id="arrow_out" transform="scale(0.3 0.3)">
          <a xlink:href="class_urho3_d_1_1_input_ae6e2a0dd7db2be45379d5551187afb7b_cgraph_org.svg" target="_base">
           <rect id="button" ry="5" rx="5" y="6" x="6" height="38" width="38"
                fill="#f2f5e9" fill-opacity="0.5" stroke="#606060" stroke-width="1.0"/>
           <path id="arrow"
             d="M 11.500037,31.436501 C 11.940474,20.09759 22.043105,11.32322 32.158766,21.979434 L 37.068811,17.246167 C 37.068811,17.246167 37.088388,32 37.088388,32 L 22.160133,31.978069 C 22.160133,31.978069 26.997745,27.140456 26.997745,27.140456 C 18.528582,18.264221 13.291696,25.230495 11.500037,31.436501 z"
             style="fill:#404040;"/>
          </a>
         </g>
        </svg>
</svg>
