<?xml version="1.0" encoding="UTF-8" standalone="no"?>
<!DOCTYPE svg PUBLIC "-//W3C//DTD SVG 1.1//EN"
 "http://www.w3.org/Graphics/SVG/1.1/DTD/svg11.dtd">
<!-- Generated by graphviz version 2.40.1 (20161225.0304)
 -->
<!-- Title: Urho3D::AnimationSet2D Pages: 1 -->
<svg width="147pt" height="196pt"
 viewBox="0.00 0.00 147.00 196.00" xmlns="http://www.w3.org/2000/svg" xmlns:xlink="http://www.w3.org/1999/xlink">
<g id="graph0" class="graph" transform="scale(1 1) rotate(0) translate(4 192)">
<title>Urho3D::AnimationSet2D</title>
<!-- Node0 -->
<g id="node1" class="node">
<title>Node0</title>
<polygon fill="#bfbfbf" stroke="#000000" points="0,-.5 0,-19.5 139,-19.5 139,-.5 0,-.5"/>
<text text-anchor="middle" x="69.5" y="-7.5" font-family="Helvetica,sans-Serif" font-size="10.00" fill="#000000">Urho3D::AnimationSet2D</text>
</g>
<!-- Node1 -->
<g id="node2" class="node">
<title>Node1</title>
<g id="a_node2"><a xlink:href="class_urho3_d_1_1_resource.html" target="_top" xlink:title="Base class for resources. ">
<polygon fill="none" stroke="#000000" points="17.5,-56.5 17.5,-75.5 121.5,-75.5 121.5,-56.5 17.5,-56.5"/>
<text text-anchor="middle" x="69.5" y="-63.5" font-family="Helvetica,sans-Serif" font-size="10.00" fill="#000000">Urho3D::Resource</text>
</a>
</g>
</g>
<!-- Node1&#45;&gt;Node0 -->
<g id="edge1" class="edge">
<title>Node1&#45;&gt;Node0</title>
<path fill="none" stroke="#191970" d="M69.5,-46.1575C69.5,-37.155 69.5,-26.9199 69.5,-19.6427"/>
<polygon fill="#191970" stroke="#191970" points="66.0001,-46.2455 69.5,-56.2455 73.0001,-46.2456 66.0001,-46.2455"/>
</g>
<!-- Node2 -->
<g id="node3" class="node">
<title>Node2</title>
<g id="a_node3"><a xlink:href="class_urho3_d_1_1_object.html" target="_top" xlink:title="Base class for objects with type identification, subsystem access and event sending/receiving capabil...">
<polygon fill="none" stroke="#000000" points="24,-112.5 24,-131.5 115,-131.5 115,-112.5 24,-112.5"/>
<text text-anchor="middle" x="69.5" y="-119.5" font-family="Helvetica,sans-Serif" font-size="10.00" fill="#000000">Urho3D::Object</text>
</a>
</g>
</g>
<!-- Node2&#45;&gt;Node1 -->
<g id="edge2" class="edge">
<title>Node2&#45;&gt;Node1</title>
<path fill="none" stroke="#191970" d="M69.5,-102.1575C69.5,-93.155 69.5,-82.9199 69.5,-75.6427"/>
<polygon fill="#191970" stroke="#191970" points="66.0001,-102.2455 69.5,-112.2455 73.0001,-102.2456 66.0001,-102.2455"/>
</g>
<!-- Node3 -->
<g id="node4" class="node">
<title>Node3</title>
<g id="a_node4"><a xlink:href="class_urho3_d_1_1_ref_counted.html" target="_top" xlink:title="Base class for intrusively reference&#45;counted objects. These are noncopyable and non&#45;assignable. ">
<polygon fill="none" stroke="#000000" points="11.5,-168.5 11.5,-187.5 127.5,-187.5 127.5,-168.5 11.5,-168.5"/>
<text text-anchor="middle" x="69.5" y="-175.5" font-family="Helvetica,sans-Serif" font-size="10.00" fill="#000000">Urho3D::RefCounted</text>
</a>
</g>
</g>
<!-- Node3&#45;&gt;Node2 -->
<g id="edge3" class="edge">
<title>Node3&#45;&gt;Node2</title>
<path fill="none" stroke="#191970" d="M69.5,-158.1575C69.5,-149.155 69.5,-138.9199 69.5,-131.6427"/>
<polygon fill="#191970" stroke="#191970" points="66.0001,-158.2455 69.5,-168.2455 73.0001,-158.2456 66.0001,-158.2455"/>
</g>
</g>
</svg>
