<?xml version="1.0" encoding="UTF-8" standalone="no"?>
<!DOCTYPE svg PUBLIC "-//W3C//DTD SVG 1.1//EN"
 "http://www.w3.org/Graphics/SVG/1.1/DTD/svg11.dtd">
<!-- Generated by graphviz version 2.26.3 (20100126.1600)
 -->
<!-- Title: Urho3D::RigidBody Pages: 1 -->
<svg width="1758pt" height="620pt"
 viewBox="0.00 0.00 1758.00 620.28" xmlns="http://www.w3.org/2000/svg" xmlns:xlink="http://www.w3.org/1999/xlink">
<g id="graph1" class="graph" transform="scale(1 1) rotate(0) translate(4 616.28)">
<title>Urho3D::RigidBody</title>
<!-- Node1 -->
<g id="node1" class="node"><title>Node1</title>
<polygon fill="#bfbfbf" stroke="black" points="1644,-236.78 1644,-257.78 1750,-257.78 1750,-236.78 1644,-236.78"/>
<text text-anchor="middle" x="1697" y="-244.78" font-family="FreeSans" font-size="10.00">Urho3D::RigidBody</text>
</g>
<!-- Node2 -->
<g id="node2" class="node"><title>Node2</title>
<a xlink:href="class_urho3_d_1_1_component.html" target="_top" xlink:title="Base class for components. Components can be created to scene nodes.">
<polygon fill="none" stroke="black" points="846,-285.78 846,-306.78 962,-306.78 962,-285.78 846,-285.78"/>
<text text-anchor="middle" x="904" y="-293.78" font-family="FreeSans" font-size="10.00">Urho3D::Component</text>
</a>
</g>
<!-- Node2&#45;&gt;Node1 -->
<g id="edge2" class="edge"><title>Node2&#45;&gt;Node1</title>
<path fill="none" stroke="midnightblue" d="M972.184,-293.884C1100.41,-289.05 1386.15,-276.723 1626,-255.28 1631.81,-254.761 1637.87,-254.162 1643.91,-253.532"/>
<polygon fill="midnightblue" stroke="midnightblue" points="971.979,-290.389 962.117,-294.26 972.241,-297.384 971.979,-290.389"/>
</g>
<!-- Node20 -->
<g id="node44" class="node"><title>Node20</title>
<a xlink:href="class_urho3_d_1_1_physics_world.html" target="_top" xlink:title="Physics simulation world component. Should be added only to the root scene node.">
<polygon fill="none" stroke="red" points="1105,-241.78 1105,-262.78 1225,-262.78 1225,-241.78 1105,-241.78"/>
<text text-anchor="middle" x="1165" y="-249.78" font-family="FreeSans" font-size="10.00">Urho3D::PhysicsWorld</text>
</a>
</g>
<!-- Node2&#45;&gt;Node20 -->
<g id="edge52" class="edge"><title>Node2&#45;&gt;Node20</title>
<path fill="none" stroke="midnightblue" d="M972.176,-284.787C1013.25,-277.863 1065.08,-269.124 1104.66,-262.451"/>
<polygon fill="midnightblue" stroke="midnightblue" points="971.528,-281.346 962.249,-286.46 972.691,-288.249 971.528,-281.346"/>
</g>
<!-- Node24 -->
<g id="node57" class="node"><title>Node24</title>
<a xlink:href="class_urho3_d_1_1_smoothed_transform.html" target="_top" xlink:title="Transform smoothing component for network updates.">
<polygon fill="none" stroke="black" points="1086.5,-390.78 1086.5,-411.78 1243.5,-411.78 1243.5,-390.78 1086.5,-390.78"/>
<text text-anchor="middle" x="1165" y="-398.78" font-family="FreeSans" font-size="10.00">Urho3D::SmoothedTransform</text>
</a>
</g>
<!-- Node2&#45;&gt;Node24 -->
<g id="edge70" class="edge"><title>Node2&#45;&gt;Node24</title>
<path fill="none" stroke="midnightblue" d="M939.293,-310.779C975.923,-325.792 1034.9,-349.865 1086,-370.28 1103.24,-377.167 1122.65,-384.784 1137.91,-390.744"/>
<polygon fill="midnightblue" stroke="midnightblue" points="940.16,-307.351 929.58,-306.795 937.504,-313.828 940.16,-307.351"/>
</g>
<!-- Node3 -->
<g id="node4" class="node"><title>Node3</title>
<a xlink:href="class_urho3_d_1_1_animatable.html" target="_top" xlink:title="Base class for animatable object, an animatable object can be set animation on it&#39;s attributes...">
<polygon fill="none" stroke="black" points="380,-264.78 380,-285.78 494,-285.78 494,-264.78 380,-264.78"/>
<text text-anchor="middle" x="437" y="-272.78" font-family="FreeSans" font-size="10.00">Urho3D::Animatable</text>
</a>
</g>
<!-- Node3&#45;&gt;Node2 -->
<g id="edge4" class="edge"><title>Node3&#45;&gt;Node2</title>
<path fill="none" stroke="midnightblue" d="M504.282,-278.305C596.102,-282.434 759.135,-289.766 845.901,-293.667"/>
<polygon fill="midnightblue" stroke="midnightblue" points="504.411,-274.808 494.263,-277.855 504.096,-281.801 504.411,-274.808"/>
</g>
<!-- Node8 -->
<g id="node14" class="node"><title>Node8</title>
<a xlink:href="class_urho3_d_1_1_node.html" target="_top" xlink:title="Scene node that may contain components and child nodes.">
<polygon fill="none" stroke="red" points="621.5,-317.78 621.5,-338.78 706.5,-338.78 706.5,-317.78 621.5,-317.78"/>
<text text-anchor="middle" x="664" y="-325.78" font-family="FreeSans" font-size="10.00">Urho3D::Node</text>
</a>
</g>
<!-- Node3&#45;&gt;Node8 -->
<g id="edge16" class="edge"><title>Node3&#45;&gt;Node8</title>
<path fill="none" stroke="midnightblue" d="M504.066,-285.342C529.858,-289.756 559.469,-295.491 586,-302.28 602.594,-306.526 620.77,-312.504 635.399,-317.658"/>
<polygon fill="midnightblue" stroke="midnightblue" points="504.455,-281.858 494.013,-283.655 503.296,-288.762 504.455,-281.858"/>
</g>
<!-- Node4 -->
<g id="node6" class="node"><title>Node4</title>
<a xlink:href="class_urho3_d_1_1_serializable.html" target="_top" xlink:title="Base class for objects with automatic serialization through attributes.">
<polygon fill="none" stroke="red" points="44,-347.78 44,-368.78 158,-368.78 158,-347.78 44,-347.78"/>
<text text-anchor="middle" x="101" y="-355.78" font-family="FreeSans" font-size="10.00">Urho3D::Serializable</text>
</a>
</g>
<!-- Node4&#45;&gt;Node3 -->
<g id="edge6" class="edge"><title>Node4&#45;&gt;Node3</title>
<path fill="none" stroke="midnightblue" d="M168.184,-351.749C221.667,-345.294 297.916,-333.259 362,-312.28 382.422,-305.594 404.298,-294.272 419.121,-285.909"/>
<polygon fill="midnightblue" stroke="midnightblue" points="167.66,-348.287 158.137,-352.929 168.476,-355.239 167.66,-348.287"/>
</g>
<!-- Node5 -->
<g id="node8" class="node"><title>Node5</title>
<a xlink:href="class_urho3_d_1_1_hash_map.html" target="_top" xlink:title="Urho3D::HashMap\&lt; Urho3D\l::String, Urho3D::SharedPtr\l\&lt; Urho3D::AttributeAnimationInfo \&gt; \&gt;">
<polygon fill="none" stroke="red" points="0.5,-281.78 0.5,-328.78 201.5,-328.78 201.5,-281.78 0.5,-281.78"/>
<text text-anchor="start" x="8.5" y="-315.78" font-family="FreeSans" font-size="10.00">Urho3D::HashMap&lt; Urho3D</text>
<text text-anchor="start" x="8.5" y="-302.78" font-family="FreeSans" font-size="10.00">::String, Urho3D::SharedPtr</text>
<text text-anchor="middle" x="101" y="-289.78" font-family="FreeSans" font-size="10.00">&lt; Urho3D::AttributeAnimationInfo &gt; &gt;</text>
</a>
</g>
<!-- Node5&#45;&gt;Node3 -->
<g id="edge8" class="edge"><title>Node5&#45;&gt;Node3</title>
<path fill="none" stroke="#9a32cd" stroke-dasharray="5,2" d="M211.831,-296.484C258.249,-292.658 312.763,-287.98 362,-283.28 367.736,-282.732 373.715,-282.137 379.685,-281.526"/>
<polygon fill="#9a32cd" stroke="#9a32cd" points="211.429,-293.005 201.749,-297.312 212.002,-299.981 211.429,-293.005"/>
<text text-anchor="middle" x="291" y="-299.28" font-family="FreeSans" font-size="10.00"> attributeAnimationInfos_</text>
</g>
<!-- Node6 -->
<g id="node10" class="node"><title>Node6</title>
<a xlink:href="class_urho3_d_1_1_shared_ptr.html" target="_top" xlink:title="Urho3D::SharedPtr\&lt;\l Urho3D::ObjectAnimation \&gt;">
<polygon fill="none" stroke="red" points="24.5,-229.28 24.5,-263.28 177.5,-263.28 177.5,-229.28 24.5,-229.28"/>
<text text-anchor="start" x="32.5" y="-250.28" font-family="FreeSans" font-size="10.00">Urho3D::SharedPtr&lt;</text>
<text text-anchor="middle" x="101" y="-237.28" font-family="FreeSans" font-size="10.00"> Urho3D::ObjectAnimation &gt;</text>
</a>
</g>
<!-- Node6&#45;&gt;Node3 -->
<g id="edge10" class="edge"><title>Node6&#45;&gt;Node3</title>
<path fill="none" stroke="#9a32cd" stroke-dasharray="5,2" d="M187.955,-253.785C248.363,-258.999 327.157,-265.799 379.782,-270.341"/>
<polygon fill="#9a32cd" stroke="#9a32cd" points="187.928,-250.27 177.664,-252.897 187.326,-257.244 187.928,-250.27"/>
<text text-anchor="middle" x="291" y="-271.28" font-family="FreeSans" font-size="10.00"> objectAnimation_</text>
</g>
<!-- Node7 -->
<g id="node12" class="node"><title>Node7</title>
<a xlink:href="class_urho3_d_1_1_hash_set.html" target="_top" xlink:title="Urho3D::HashSet\&lt; const\l Urho3D::AttributeInfo * \&gt;">
<polygon fill="none" stroke="red" points="30.5,-177.28 30.5,-211.28 171.5,-211.28 171.5,-177.28 30.5,-177.28"/>
<text text-anchor="start" x="38.5" y="-198.28" font-family="FreeSans" font-size="10.00">Urho3D::HashSet&lt; const</text>
<text text-anchor="middle" x="101" y="-185.28" font-family="FreeSans" font-size="10.00"> Urho3D::AttributeInfo * &gt;</text>
</a>
</g>
<!-- Node7&#45;&gt;Node3 -->
<g id="edge12" class="edge"><title>Node7&#45;&gt;Node3</title>
<path fill="none" stroke="#9a32cd" stroke-dasharray="5,2" d="M181.923,-202.981C234.142,-209.948 303.071,-221.692 362,-240.28 381.733,-246.504 402.997,-256.8 417.826,-264.618"/>
<polygon fill="#9a32cd" stroke="#9a32cd" points="182.078,-199.472 171.709,-201.651 181.174,-206.413 182.078,-199.472"/>
<text text-anchor="middle" x="291" y="-244.28" font-family="FreeSans" font-size="10.00"> animatedNetworkAttributes_</text>
</g>
<!-- Node8&#45;&gt;Node2 -->
<g id="edge14" class="edge"><title>Node8&#45;&gt;Node2</title>
<path fill="none" stroke="#9a32cd" stroke-dasharray="5,2" d="M716.545,-315.911C725.023,-314.18 733.731,-312.559 742,-311.28 776.194,-305.991 814.757,-302.329 845.679,-299.948"/>
<polygon fill="#9a32cd" stroke="#9a32cd" points="715.799,-312.491 706.736,-317.98 717.243,-319.341 715.799,-312.491"/>
<text text-anchor="middle" x="781" y="-315.28" font-family="FreeSans" font-size="10.00"> node_</text>
</g>
<!-- Node8&#45;&gt;Node8 -->
<g id="edge30" class="edge"><title>Node8&#45;&gt;Node8</title>
<path fill="none" stroke="#9a32cd" stroke-dasharray="5,2" d="M642.991,-348.706C644.612,-353.629 651.615,-357.28 664,-357.28 683.816,-357.28 689.854,-347.933 682.113,-338.988"/>
<polygon fill="#9a32cd" stroke="#9a32cd" points="646.385,-349.571 645.887,-338.988 639.677,-347.572 646.385,-349.571"/>
<text text-anchor="middle" x="664" y="-361.28" font-family="FreeSans" font-size="10.00"> parent_</text>
</g>
<!-- Node9 -->
<g id="node17" class="node"><title>Node9</title>
<a xlink:href="class_urho3_d_1_1_scene.html" target="_top" xlink:title="Root scene node, represents the whole scene.">
<polygon fill="none" stroke="red" points="859.5,-336.78 859.5,-357.78 948.5,-357.78 948.5,-336.78 859.5,-336.78"/>
<text text-anchor="middle" x="904" y="-344.78" font-family="FreeSans" font-size="10.00">Urho3D::Scene</text>
</a>
</g>
<!-- Node8&#45;&gt;Node9 -->
<g id="edge20" class="edge"><title>Node8&#45;&gt;Node9</title>
<path fill="none" stroke="midnightblue" d="M712.18,-341.142C721.979,-343.264 732.268,-345.141 742,-346.28 781.528,-350.905 826.852,-350.723 859.489,-349.634"/>
<polygon fill="midnightblue" stroke="midnightblue" points="712.716,-337.674 702.188,-338.862 711.159,-344.499 712.716,-337.674"/>
</g>
<!-- Node9&#45;&gt;Node8 -->
<g id="edge18" class="edge"><title>Node9&#45;&gt;Node8</title>
<path fill="none" stroke="#9a32cd" stroke-dasharray="5,2" d="M849.272,-337.079C839.552,-335.576 829.5,-334.22 820,-333.28 781.844,-329.506 738.208,-328.376 706.807,-328.121"/>
<polygon fill="#9a32cd" stroke="#9a32cd" points="848.816,-340.55 859.245,-338.687 849.93,-333.64 848.816,-340.55"/>
<text text-anchor="middle" x="781" y="-337.28" font-family="FreeSans" font-size="10.00"> scene_</text>
</g>
<!-- Node10 -->
<g id="node20" class="node"><title>Node10</title>
<a xlink:href="class_urho3_d_1_1_quaternion.html" target="_top" xlink:title="Rotation represented as a four&#45;dimensional normalized vector.">
<polygon fill="none" stroke="black" points="380.5,-397.78 380.5,-418.78 493.5,-418.78 493.5,-397.78 380.5,-397.78"/>
<text text-anchor="middle" x="437" y="-405.78" font-family="FreeSans" font-size="10.00">Urho3D::Quaternion</text>
</a>
</g>
<!-- Node10&#45;&gt;Node1 -->
<g id="edge36" class="edge"><title>Node10&#45;&gt;Node1</title>
<path fill="none" stroke="#9a32cd" stroke-dasharray="5,2" d="M503.877,-419.149C506.619,-419.541 509.335,-419.92 512,-420.28 648.48,-438.72 683.113,-439.156 820,-454.28 912.445,-464.493 934.992,-477.28 1028,-477.28 1028,-477.28 1028,-477.28 1415,-477.28 1515.77,-477.28 1552.12,-462.808 1626,-394.28 1668.39,-354.962 1688.31,-284.961 1694.65,-258.145"/>
<polygon fill="#9a32cd" stroke="#9a32cd" points="504.281,-415.67 493.878,-417.679 503.262,-422.596 504.281,-415.67"/>
<text text-anchor="middle" x="1028" y="-481.28" font-family="FreeSans" font-size="10.00"> lastRotation_</text>
</g>
<!-- Node10&#45;&gt;Node8 -->
<g id="edge22" class="edge"><title>Node10&#45;&gt;Node8</title>
<path fill="none" stroke="#9a32cd" stroke-dasharray="5,2" d="M447.439,-388.491C459.72,-367.582 482.265,-335.802 512,-322.28 548.301,-305.772 594.661,-310.825 626.584,-317.748"/>
<polygon fill="#9a32cd" stroke="#9a32cd" points="444.23,-387.058 442.388,-397.492 450.334,-390.484 444.23,-387.058"/>
<text text-anchor="middle" x="549" y="-339.28" font-family="FreeSans" font-size="10.00"> worldRotation_</text>
<text text-anchor="middle" x="549" y="-326.28" font-family="FreeSans" font-size="10.00">rotation_</text>
</g>
<!-- Node10&#45;&gt;Node10 -->
<g id="edge24" class="edge"><title>Node10&#45;&gt;Node10</title>
<path fill="none" stroke="#9a32cd" stroke-dasharray="5,2" d="M416.36,-428.706C417.952,-433.629 424.832,-437.28 437,-437.28 456.469,-437.28 462.401,-427.933 454.796,-418.988"/>
<polygon fill="#9a32cd" stroke="#9a32cd" points="419.754,-429.568 419.204,-418.988 413.036,-427.602 419.754,-429.568"/>
<text text-anchor="middle" x="437" y="-441.28" font-family="FreeSans" font-size="10.00"> IDENTITY</text>
</g>
<!-- Node10&#45;&gt;Node24 -->
<g id="edge72" class="edge"><title>Node10&#45;&gt;Node24</title>
<path fill="none" stroke="#9a32cd" stroke-dasharray="5,2" d="M503.698,-407.638C638.419,-406.343 942.394,-403.42 1086.45,-402.035"/>
<polygon fill="#9a32cd" stroke="#9a32cd" points="503.485,-404.14 493.519,-407.736 503.552,-411.14 503.485,-404.14"/>
<text text-anchor="middle" x="781" y="-409.28" font-family="FreeSans" font-size="10.00"> targetRotation_</text>
</g>
<!-- Node11 -->
<g id="node23" class="node"><title>Node11</title>
<a xlink:href="class_urho3_d_1_1_vector3.html" target="_top" xlink:title="Three&#45;dimensional vector.">
<polygon fill="none" stroke="black" points="389,-468.78 389,-489.78 485,-489.78 485,-468.78 389,-468.78"/>
<text text-anchor="middle" x="437" y="-476.78" font-family="FreeSans" font-size="10.00">Urho3D::Vector3</text>
</a>
</g>
<!-- Node11&#45;&gt;Node1 -->
<g id="edge62" class="edge"><title>Node11&#45;&gt;Node1</title>
<path fill="none" stroke="#9a32cd" stroke-dasharray="5,2" d="M488.082,-492.087C533.851,-502.432 602.976,-515.28 664,-515.28 664,-515.28 664,-515.28 1415,-515.28 1445.03,-515.28 1598.73,-471.945 1626,-445.28 1681.36,-391.157 1693.72,-290.889 1696.33,-258.02"/>
<polygon fill="#9a32cd" stroke="#9a32cd" points="488.642,-488.624 478.112,-489.789 487.07,-495.446 488.642,-488.624"/>
<text text-anchor="middle" x="1028" y="-545.28" font-family="FreeSans" font-size="10.00"> centerOfMass_</text>
<text text-anchor="middle" x="1028" y="-532.28" font-family="FreeSans" font-size="10.00">gravityOverride_</text>
<text text-anchor="middle" x="1028" y="-519.28" font-family="FreeSans" font-size="10.00">lastPosition_</text>
</g>
<!-- Node11&#45;&gt;Node8 -->
<g id="edge26" class="edge"><title>Node11&#45;&gt;Node8</title>
<path fill="none" stroke="#9a32cd" stroke-dasharray="5,2" d="M485.525,-464.412C488.484,-462.853 491.338,-461.146 494,-459.28 504.346,-452.029 502.787,-445.924 512,-437.28 556.045,-395.951 616.327,-357.138 646,-339.002"/>
<polygon fill="#9a32cd" stroke="#9a32cd" points="484,-461.262 476.416,-468.66 486.958,-467.606 484,-461.262"/>
<text text-anchor="middle" x="549" y="-454.28" font-family="FreeSans" font-size="10.00"> scale_</text>
<text text-anchor="middle" x="549" y="-441.28" font-family="FreeSans" font-size="10.00">position_</text>
</g>
<!-- Node11&#45;&gt;Node11 -->
<g id="edge28" class="edge"><title>Node11&#45;&gt;Node11</title>
<path fill="none" stroke="#9a32cd" stroke-dasharray="5,2" d="M416.36,-499.706C417.952,-504.629 424.832,-508.28 437,-508.28 456.469,-508.28 462.401,-498.933 454.796,-489.988"/>
<polygon fill="#9a32cd" stroke="#9a32cd" points="419.754,-500.568 419.204,-489.988 413.036,-498.602 419.754,-500.568"/>
<text text-anchor="middle" x="437" y="-603.28" font-family="FreeSans" font-size="10.00"> ONE</text>
<text text-anchor="middle" x="437" y="-590.28" font-family="FreeSans" font-size="10.00">DOWN</text>
<text text-anchor="middle" x="437" y="-577.28" font-family="FreeSans" font-size="10.00">BACK</text>
<text text-anchor="middle" x="437" y="-564.28" font-family="FreeSans" font-size="10.00">RIGHT</text>
<text text-anchor="middle" x="437" y="-551.28" font-family="FreeSans" font-size="10.00">LEFT</text>
<text text-anchor="middle" x="437" y="-538.28" font-family="FreeSans" font-size="10.00">ZERO</text>
<text text-anchor="middle" x="437" y="-525.28" font-family="FreeSans" font-size="10.00">FORWARD</text>
<text text-anchor="middle" x="437" y="-512.28" font-family="FreeSans" font-size="10.00">UP</text>
</g>
<!-- Node11&#45;&gt;Node24 -->
<g id="edge74" class="edge"><title>Node11&#45;&gt;Node24</title>
<path fill="none" stroke="#9a32cd" stroke-dasharray="5,2" d="M495.421,-474.507C606.938,-465.161 857.773,-443.009 1068,-416.28 1078.4,-414.958 1089.4,-413.406 1100.11,-411.81"/>
<polygon fill="#9a32cd" stroke="#9a32cd" points="495.064,-471.024 485.39,-475.344 495.646,-478 495.064,-471.024"/>
<text text-anchor="middle" x="781" y="-455.28" font-family="FreeSans" font-size="10.00"> targetPosition_</text>
</g>
<!-- Node12 -->
<g id="node27" class="node"><title>Node12</title>
<polygon fill="none" stroke="#bfbfbf" points="1372.5,-112.78 1372.5,-133.78 1457.5,-133.78 1457.5,-112.78 1372.5,-112.78"/>
<text text-anchor="middle" x="1415" y="-120.78" font-family="FreeSans" font-size="10.00">btMotionState</text>
</g>
<!-- Node12&#45;&gt;Node1 -->
<g id="edge32" class="edge"><title>Node12&#45;&gt;Node1</title>
<path fill="none" stroke="midnightblue" d="M1467.96,-118.164C1513.05,-116.343 1577.96,-119.922 1626,-148.28 1661.52,-169.247 1684.12,-215.713 1692.88,-236.667"/>
<polygon fill="midnightblue" stroke="midnightblue" points="1467.62,-114.677 1457.81,-118.679 1467.97,-121.668 1467.62,-114.677"/>
</g>
<!-- Node13 -->
<g id="node29" class="node"><title>Node13</title>
<a xlink:href="class_urho3_d_1_1_unique_ptr.html" target="_top" xlink:title="Urho3D::UniquePtr\&lt;\l btRigidBody \&gt;">
<polygon fill="none" stroke="black" points="1357.5,-60.2798 1357.5,-94.2798 1472.5,-94.2798 1472.5,-60.2798 1357.5,-60.2798"/>
<text text-anchor="start" x="1365.5" y="-81.2798" font-family="FreeSans" font-size="10.00">Urho3D::UniquePtr&lt;</text>
<text text-anchor="middle" x="1415" y="-68.2798" font-family="FreeSans" font-size="10.00"> btRigidBody &gt;</text>
</a>
</g>
<!-- Node13&#45;&gt;Node1 -->
<g id="edge34" class="edge"><title>Node13&#45;&gt;Node1</title>
<path fill="none" stroke="#9a32cd" stroke-dasharray="5,2" d="M1482.82,-69.5117C1527.38,-67.9594 1584.82,-73.0862 1626,-102.28 1673.1,-135.674 1690.37,-209.215 1695.32,-236.668"/>
<polygon fill="#9a32cd" stroke="#9a32cd" points="1482.48,-66.0236 1472.66,-69.9878 1482.81,-73.0159 1482.48,-66.0236"/>
<text text-anchor="middle" x="1566" y="-106.28" font-family="FreeSans" font-size="10.00"> body_</text>
</g>
<!-- Node14 -->
<g id="node32" class="node"><title>Node14</title>
<a xlink:href="class_urho3_d_1_1_vector_buffer.html" target="_top" xlink:title="Dynamically sized buffer that can be read and written to as a stream.">
<polygon fill="none" stroke="black" points="844.5,-200.78 844.5,-221.78 963.5,-221.78 963.5,-200.78 844.5,-200.78"/>
<text text-anchor="middle" x="904" y="-208.78" font-family="FreeSans" font-size="10.00">Urho3D::VectorBuffer</text>
</a>
</g>
<!-- Node14&#45;&gt;Node1 -->
<g id="edge38" class="edge"><title>Node14&#45;&gt;Node1</title>
<path fill="none" stroke="#9a32cd" stroke-dasharray="5,2" d="M974.027,-214.459C1130.33,-221.554 1504.8,-238.554 1643.84,-244.867"/>
<polygon fill="#9a32cd" stroke="#9a32cd" points="973.752,-210.943 963.604,-213.986 973.435,-217.936 973.752,-210.943"/>
<text text-anchor="middle" x="1293" y="-233.28" font-family="FreeSans" font-size="10.00"> attrBuffer_</text>
</g>
<!-- Node14&#45;&gt;Node20 -->
<g id="edge54" class="edge"><title>Node14&#45;&gt;Node20</title>
<path fill="none" stroke="#9a32cd" stroke-dasharray="5,2" d="M973.448,-222.189C1014.36,-228.616 1065.61,-236.667 1104.8,-242.823"/>
<polygon fill="#9a32cd" stroke="#9a32cd" points="973.974,-218.729 963.552,-220.635 972.887,-225.644 973.974,-218.729"/>
<text text-anchor="middle" x="1028" y="-240.28" font-family="FreeSans" font-size="10.00"> contacts_</text>
</g>
<!-- Node15 -->
<g id="node34" class="node"><title>Node15</title>
<a xlink:href="class_urho3_d_1_1_deserializer.html" target="_top" xlink:title="Abstract stream for reading.">
<polygon fill="none" stroke="black" points="606,-213.78 606,-234.78 722,-234.78 722,-213.78 606,-213.78"/>
<text text-anchor="middle" x="664" y="-221.78" font-family="FreeSans" font-size="10.00">Urho3D::Deserializer</text>
</a>
</g>
<!-- Node15&#45;&gt;Node14 -->
<g id="edge40" class="edge"><title>Node15&#45;&gt;Node14</title>
<path fill="none" stroke="midnightblue" d="M732.328,-220.579C767.655,-218.665 810.368,-216.352 844.351,-214.511"/>
<polygon fill="midnightblue" stroke="midnightblue" points="731.893,-217.097 722.097,-221.133 732.272,-224.087 731.893,-217.097"/>
</g>
<!-- Node16 -->
<g id="node36" class="node"><title>Node16</title>
<a xlink:href="class_urho3_d_1_1_serializer.html" target="_top" xlink:title="Abstract stream for writing.">
<polygon fill="none" stroke="black" points="612,-173.78 612,-194.78 716,-194.78 716,-173.78 612,-173.78"/>
<text text-anchor="middle" x="664" y="-181.78" font-family="FreeSans" font-size="10.00">Urho3D::Serializer</text>
</a>
</g>
<!-- Node16&#45;&gt;Node14 -->
<g id="edge42" class="edge"><title>Node16&#45;&gt;Node14</title>
<path fill="none" stroke="midnightblue" d="M726.096,-191.266C762.558,-195.368 808.401,-200.525 844.419,-204.577"/>
<polygon fill="midnightblue" stroke="midnightblue" points="726.405,-187.778 716.076,-190.138 725.622,-194.734 726.405,-187.778"/>
</g>
<!-- Node17 -->
<g id="node38" class="node"><title>Node17</title>
<a xlink:href="class_urho3_d_1_1_p_o_d_vector.html" target="_top" xlink:title="Urho3D::PODVector\&lt;\l unsigned char \&gt;">
<polygon fill="none" stroke="black" points="604.5,-121.28 604.5,-155.28 723.5,-155.28 723.5,-121.28 604.5,-121.28"/>
<text text-anchor="start" x="612.5" y="-142.28" font-family="FreeSans" font-size="10.00">Urho3D::PODVector&lt;</text>
<text text-anchor="middle" x="664" y="-129.28" font-family="FreeSans" font-size="10.00"> unsigned char &gt;</text>
</a>
</g>
<!-- Node17&#45;&gt;Node14 -->
<g id="edge44" class="edge"><title>Node17&#45;&gt;Node14</title>
<path fill="none" stroke="#9a32cd" stroke-dasharray="5,2" d="M733.35,-152.73C760.626,-159.046 792.045,-167.113 820,-176.28 841.167,-183.221 864.5,-193.133 881.191,-200.639"/>
<polygon fill="#9a32cd" stroke="#9a32cd" points="734.031,-149.295 723.503,-150.483 732.474,-156.12 734.031,-149.295"/>
<text text-anchor="middle" x="781" y="-180.28" font-family="FreeSans" font-size="10.00"> buffer_</text>
</g>
<!-- Node18 -->
<g id="node40" class="node"><title>Node18</title>
<a xlink:href="class_urho3_d_1_1_vector_base.html" target="_top" xlink:title="Vector base class.">
<polygon fill="none" stroke="black" points="380,-100.78 380,-121.78 494,-121.78 494,-100.78 380,-100.78"/>
<text text-anchor="middle" x="437" y="-108.78" font-family="FreeSans" font-size="10.00">Urho3D::VectorBase</text>
</a>
</g>
<!-- Node18&#45;&gt;Node17 -->
<g id="edge46" class="edge"><title>Node18&#45;&gt;Node17</title>
<path fill="none" stroke="midnightblue" d="M504.368,-119.293C536.112,-123.068 573.657,-127.534 604.358,-131.186"/>
<polygon fill="midnightblue" stroke="midnightblue" points="504.625,-115.799 494.282,-118.093 503.798,-122.75 504.625,-115.799"/>
</g>
<!-- Node21 -->
<g id="node48" class="node"><title>Node21</title>
<a xlink:href="class_urho3_d_1_1_p_o_d_vector.html" target="_top" xlink:title="Urho3D::PODVector\&lt;\l Urho3D::Constraint * \&gt;">
<polygon fill="none" stroke="black" points="838.5,-133.28 838.5,-167.28 969.5,-167.28 969.5,-133.28 838.5,-133.28"/>
<text text-anchor="start" x="846.5" y="-154.28" font-family="FreeSans" font-size="10.00">Urho3D::PODVector&lt;</text>
<text text-anchor="middle" x="904" y="-141.28" font-family="FreeSans" font-size="10.00"> Urho3D::Constraint * &gt;</text>
</a>
</g>
<!-- Node18&#45;&gt;Node21 -->
<g id="edge58" class="edge"><title>Node18&#45;&gt;Node21</title>
<path fill="none" stroke="midnightblue" d="M504.278,-107.645C562.576,-105.419 649.096,-104.328 724,-112.28 762.589,-116.377 805.094,-125.144 839.106,-133.226"/>
<polygon fill="midnightblue" stroke="midnightblue" points="503.942,-104.156 494.092,-108.057 504.225,-111.15 503.942,-104.156"/>
</g>
<!-- Node19 -->
<g id="node42" class="node"><title>Node19</title>
<a xlink:href="class_urho3_d_1_1_weak_ptr.html" target="_top" xlink:title="Urho3D::WeakPtr\&lt; Urho3D\l::PhysicsWorld \&gt;">
<polygon fill="none" stroke="black" points="1342,-312.28 1342,-346.28 1488,-346.28 1488,-312.28 1342,-312.28"/>
<text text-anchor="start" x="1350" y="-333.28" font-family="FreeSans" font-size="10.00">Urho3D::WeakPtr&lt; Urho3D</text>
<text text-anchor="middle" x="1415" y="-320.28" font-family="FreeSans" font-size="10.00">::PhysicsWorld &gt;</text>
</a>
</g>
<!-- Node19&#45;&gt;Node1 -->
<g id="edge48" class="edge"><title>Node19&#45;&gt;Node1</title>
<path fill="none" stroke="#9a32cd" stroke-dasharray="5,2" d="M1498.25,-326.182C1538.08,-322.435 1585.74,-314.565 1626,-298.28 1649.64,-288.719 1672.83,-269.743 1685.98,-257.826"/>
<polygon fill="#9a32cd" stroke="#9a32cd" points="1497.7,-322.717 1488.04,-327.07 1498.31,-329.691 1497.7,-322.717"/>
<text text-anchor="middle" x="1566" y="-328.28" font-family="FreeSans" font-size="10.00"> physicsWorld_</text>
</g>
<!-- Node20&#45;&gt;Node19 -->
<g id="edge50" class="edge"><title>Node20&#45;&gt;Node19</title>
<path fill="none" stroke="#9a32cd" stroke-dasharray="5,2" d="M1208.89,-265.799C1250.84,-278.718 1314.23,-298.243 1359.63,-312.226"/>
<polygon fill="#9a32cd" stroke="#9a32cd" points="1209.82,-262.424 1199.24,-262.825 1207.76,-269.113 1209.82,-262.424"/>
<text text-anchor="middle" x="1293" y="-303.28" font-family="FreeSans" font-size="10.00"> ptr_</text>
</g>
<!-- Node21&#45;&gt;Node1 -->
<g id="edge64" class="edge"><title>Node21&#45;&gt;Node1</title>
<path fill="none" stroke="#9a32cd" stroke-dasharray="5,2" d="M979.889,-157.463C1111.68,-170.305 1391.24,-199.17 1626,-234.28 1631.82,-235.151 1637.9,-236.14 1643.95,-237.175"/>
<polygon fill="#9a32cd" stroke="#9a32cd" points="980.184,-153.976 969.893,-156.492 979.508,-160.943 980.184,-153.976"/>
<text text-anchor="middle" x="1293" y="-197.28" font-family="FreeSans" font-size="10.00"> constraints_</text>
</g>
<!-- Node21&#45;&gt;Node20 -->
<g id="edge56" class="edge"><title>Node21&#45;&gt;Node20</title>
<path fill="none" stroke="#9a32cd" stroke-dasharray="5,2" d="M967.037,-170.548C997.762,-180.842 1035.1,-193.968 1068,-207.28 1094.5,-218.002 1124.22,-232.108 1143.7,-241.647"/>
<polygon fill="#9a32cd" stroke="#9a32cd" points="967.9,-167.147 957.307,-167.309 965.689,-173.788 967.9,-167.147"/>
<text text-anchor="middle" x="1028" y="-211.28" font-family="FreeSans" font-size="10.00"> constraints_</text>
</g>
<!-- Node22 -->
<g id="node51" class="node"><title>Node22</title>
<a xlink:href="struct_urho3_d_1_1_ref_count.html" target="_top" xlink:title="Reference count structure.">
<polygon fill="none" stroke="black" points="1114,-339.78 1114,-360.78 1216,-360.78 1216,-339.78 1114,-339.78"/>
<text text-anchor="middle" x="1165" y="-347.78" font-family="FreeSans" font-size="10.00">Urho3D::RefCount</text>
</a>
</g>
<!-- Node22&#45;&gt;Node19 -->
<g id="edge60" class="edge"><title>Node22&#45;&gt;Node19</title>
<path fill="none" stroke="#9a32cd" stroke-dasharray="5,2" d="M1217,-337.597C1231.48,-334.602 1247.27,-331.831 1262,-330.28 1287.89,-327.553 1316.38,-326.768 1341.68,-326.836"/>
<polygon fill="#9a32cd" stroke="#9a32cd" points="1216.26,-334.176 1207.21,-339.693 1217.72,-341.02 1216.26,-334.176"/>
<text text-anchor="middle" x="1293" y="-334.28" font-family="FreeSans" font-size="10.00"> refCount_</text>
</g>
<!-- Node23 -->
<g id="node55" class="node"><title>Node23</title>
<a xlink:href="class_urho3_d_1_1_weak_ptr.html" target="_top" xlink:title="Urho3D::WeakPtr\&lt; Urho3D\l::SmoothedTransform \&gt;">
<polygon fill="none" stroke="black" points="1342,-364.28 1342,-398.28 1488,-398.28 1488,-364.28 1342,-364.28"/>
<text text-anchor="start" x="1350" y="-385.28" font-family="FreeSans" font-size="10.00">Urho3D::WeakPtr&lt; Urho3D</text>
<text text-anchor="middle" x="1415" y="-372.28" font-family="FreeSans" font-size="10.00">::SmoothedTransform &gt;</text>
</a>
</g>
<!-- Node22&#45;&gt;Node23 -->
<g id="edge76" class="edge"><title>Node22&#45;&gt;Node23</title>
<path fill="none" stroke="#9a32cd" stroke-dasharray="5,2" d="M1226.23,-357.872C1261.07,-362.192 1304.92,-367.63 1341.6,-372.178"/>
<polygon fill="#9a32cd" stroke="#9a32cd" points="1226.55,-354.385 1216.19,-356.628 1225.69,-361.332 1226.55,-354.385"/>
<text text-anchor="middle" x="1293" y="-373.28" font-family="FreeSans" font-size="10.00"> refCount_</text>
</g>
<!-- Node23&#45;&gt;Node1 -->
<g id="edge66" class="edge"><title>Node23&#45;&gt;Node1</title>
<path fill="none" stroke="#9a32cd" stroke-dasharray="5,2" d="M1498.09,-379.399C1539.17,-375.16 1587.96,-364.899 1626,-341.28 1659.36,-320.568 1682.62,-278.049 1692.16,-258.084"/>
<polygon fill="#9a32cd" stroke="#9a32cd" points="1497.73,-375.917 1488.1,-380.329 1498.38,-382.887 1497.73,-375.917"/>
<text text-anchor="middle" x="1566" y="-381.28" font-family="FreeSans" font-size="10.00"> smoothedTransform_</text>
</g>
<!-- Node24&#45;&gt;Node23 -->
<g id="edge68" class="edge"><title>Node24&#45;&gt;Node23</title>
<path fill="none" stroke="#9a32cd" stroke-dasharray="5,2" d="M1253.82,-394.175C1282.61,-391.871 1314.21,-389.343 1341.74,-387.141"/>
<polygon fill="#9a32cd" stroke="#9a32cd" points="1253.45,-390.693 1243.76,-394.979 1254.01,-397.67 1253.45,-390.693"/>
<text text-anchor="middle" x="1293" y="-396.28" font-family="FreeSans" font-size="10.00"> ptr_</text>
</g>
<!-- Node25 -->
<g id="node63" class="node"><title>Node25</title>
<a xlink:href="class_urho3_d_1_1_unique_ptr.html" target="_top" xlink:title="Urho3D::UniquePtr\&lt;\l btCompoundShape \&gt;">
<polygon fill="none" stroke="black" points="1353,-3.2798 1353,-37.2798 1477,-37.2798 1477,-3.2798 1353,-3.2798"/>
<text text-anchor="start" x="1361" y="-24.2798" font-family="FreeSans" font-size="10.00">Urho3D::UniquePtr&lt;</text>
<text text-anchor="middle" x="1415" y="-11.2798" font-family="FreeSans" font-size="10.00"> btCompoundShape &gt;</text>
</a>
</g>
<!-- Node25&#45;&gt;Node1 -->
<g id="edge78" class="edge"><title>Node25&#45;&gt;Node1</title>
<path fill="none" stroke="#9a32cd" stroke-dasharray="5,2" d="M1487.23,-3.2721C1531.53,2.8064 1587.03,2.09039 1626,-27.2798 1661.17,-53.7924 1688.23,-196.578 1695.23,-236.755"/>
<polygon fill="#9a32cd" stroke="#9a32cd" points="1486.46,0.151063 1477.1,-4.80589 1487.51,-6.77013 1486.46,0.151063"/>
<text text-anchor="start" x="1506.5" y="-57.2798" font-family="FreeSans" font-size="10.00"> shiftedCompoundShape</text>
<text text-anchor="middle" x="1566" y="-44.2798" font-family="FreeSans" font-size="10.00">_</text>
<text text-anchor="middle" x="1566" y="-31.2798" font-family="FreeSans" font-size="10.00">compoundShape_</text>
</g>
</g>
</svg>
