<?xml version="1.0" encoding="UTF-8" standalone="no"?>
<!DOCTYPE svg PUBLIC "-//W3C//DTD SVG 1.1//EN"
 "http://www.w3.org/Graphics/SVG/1.1/DTD/svg11.dtd">
<!-- Generated by graphviz version 2.36.0 (20140111.2315)
 -->
<!-- Title: Urho3D::Spline::BezierInterpolation Pages: 1 -->
<svg width="534pt" height="104pt"
 viewBox="0.00 0.00 534.00 104.00" xmlns="http://www.w3.org/2000/svg" xmlns:xlink="http://www.w3.org/1999/xlink">
<g id="graph0" class="graph" transform="scale(1 1) rotate(0) translate(4 100)">
<title>Urho3D::Spline::BezierInterpolation</title>
<!-- Node1 -->
<g id="node1" class="node"><title>Node1</title>
<polygon fill="#bfbfbf" stroke="black" points="0,-38.5 0,-57.5 170,-57.5 170,-38.5 0,-38.5"/>
<text text-anchor="middle" x="85" y="-45.5" font-family="Helvetica,sans-Serif" font-size="10.00">Urho3D::Spline::BezierInterpolation</text>
</g>
<!-- Node2 -->
<g id="node2" class="node"><title>Node2</title>
<g id="a_node2"><a xlink:href="class_urho3_d_1_1_vector.html#a06762e9e70b9851f54a845555f28cd4b" target="_top" xlink:title="Return size of vector. ">
<polygon fill="none" stroke="black" points="414,-76.5 414,-95.5 524,-95.5 524,-76.5 414,-76.5"/>
<text text-anchor="middle" x="469" y="-83.5" font-family="Helvetica,sans-Serif" font-size="10.00">Urho3D::Vector::Size</text>
</a>
</g>
</g>
<!-- Node1&#45;&gt;Node2 -->
<g id="edge1" class="edge"><title>Node1&#45;&gt;Node2</title>
<path fill="none" stroke="midnightblue" d="M139.928,-57.5341C160.547,-60.9173 184.312,-64.5012 206,-67 273.215,-74.7444 350.518,-79.8938 403.642,-82.855"/>
<polygon fill="midnightblue" stroke="midnightblue" points="403.757,-86.3665 413.934,-83.4182 404.14,-79.3769 403.757,-86.3665"/>
</g>
<!-- Node3 -->
<g id="node3" class="node"><title>Node3</title>
<g id="a_node3"><a xlink:href="class_urho3_d_1_1_spline.html#aeecb9658c0ef3f5c6b31adfacefc8e97" target="_top" xlink:title="Perform linear interpolation on the spline. ">
<polygon fill="none" stroke="black" points="206.5,-38.5 206.5,-57.5 375.5,-57.5 375.5,-38.5 206.5,-38.5"/>
<text text-anchor="middle" x="291" y="-45.5" font-family="Helvetica,sans-Serif" font-size="10.00">Urho3D::Spline::LinearInterpolation</text>
</a>
</g>
</g>
<!-- Node1&#45;&gt;Node3 -->
<g id="edge2" class="edge"><title>Node1&#45;&gt;Node3</title>
<path fill="none" stroke="midnightblue" d="M170.152,-48C178.751,-48 187.524,-48 196.217,-48"/>
<polygon fill="midnightblue" stroke="midnightblue" points="196.37,-51.5001 206.37,-48 196.37,-44.5001 196.37,-51.5001"/>
</g>
<!-- Node5 -->
<g id="node5" class="node"><title>Node5</title>
<g id="a_node5"><a xlink:href="class_urho3_d_1_1_vector.html#a083b39861b996df82f811a9a4ebff109" target="_top" xlink:title="Add an element at the end. ">
<polygon fill="none" stroke="black" points="234.5,-0.5 234.5,-19.5 347.5,-19.5 347.5,-0.5 234.5,-0.5"/>
<text text-anchor="middle" x="291" y="-7.5" font-family="Helvetica,sans-Serif" font-size="10.00">Urho3D::Vector::Push</text>
</a>
</g>
</g>
<!-- Node1&#45;&gt;Node5 -->
<g id="edge5" class="edge"><title>Node1&#45;&gt;Node5</title>
<path fill="none" stroke="midnightblue" d="M137.214,-38.46C164.981,-33.2878 199.489,-26.8599 228.681,-21.4222"/>
<polygon fill="midnightblue" stroke="midnightblue" points="229.574,-24.816 238.764,-19.5439 228.293,-17.9344 229.574,-24.816"/>
</g>
<!-- Node3&#45;&gt;Node2 -->
<g id="edge3" class="edge"><title>Node3&#45;&gt;Node2</title>
<path fill="none" stroke="midnightblue" d="M336.412,-57.589C359.951,-62.6713 389.057,-68.9554 413.905,-74.3203"/>
<polygon fill="midnightblue" stroke="midnightblue" points="413.394,-77.7906 423.907,-76.4799 414.871,-70.9482 413.394,-77.7906"/>
</g>
<!-- Node4 -->
<g id="node4" class="node"><title>Node4</title>
<g id="a_node4"><a xlink:href="class_urho3_d_1_1_vector.html#a0d42dd722113dc655b16878841abe0f6" target="_top" xlink:title="Return last element. ">
<polygon fill="none" stroke="black" points="412.5,-38.5 412.5,-57.5 525.5,-57.5 525.5,-38.5 412.5,-38.5"/>
<text text-anchor="middle" x="469" y="-45.5" font-family="Helvetica,sans-Serif" font-size="10.00">Urho3D::Vector::Back</text>
</a>
</g>
</g>
<!-- Node3&#45;&gt;Node4 -->
<g id="edge4" class="edge"><title>Node3&#45;&gt;Node4</title>
<path fill="none" stroke="midnightblue" d="M375.619,-48C384.544,-48 393.529,-48 402.205,-48"/>
<polygon fill="midnightblue" stroke="midnightblue" points="402.228,-51.5001 412.228,-48 402.227,-44.5001 402.228,-51.5001"/>
</g>
</g>
</svg>
