<?xml version="1.0" encoding="UTF-8" standalone="no"?>
<!DOCTYPE svg PUBLIC "-//W3C//DTD SVG 1.1//EN"
 "http://www.w3.org/Graphics/SVG/1.1/DTD/svg11.dtd">
<!-- Generated by graphviz version 2.26.3 (20100126.1600)
 -->
<!-- Title: Urho3D::XPathResultSet Pages: 1 -->
<!--zoomable 923 -->
<svg id="main" version="1.1" xmlns="http://www.w3.org/2000/svg" xmlns:xlink="http://www.w3.org/1999/xlink" xml:space="preserve" onload="init(evt)">
        <defs>
                <circle id="rim" cx="0" cy="0" r="7"/>
                <circle id="rim2" cx="0" cy="0" r="3.5"/>
                <g id="zoomPlus">
                        <use xlink:href="#rim" fill="#404040">
                                <set attributeName="fill" to="#808080" begin="zoomplus.mouseover" end="zoomplus.mouseout"/>
                        </use>
                        <path d="M-4,0h8M0,-4v8" fill="none" stroke="white" stroke-width="1.5" pointer-events="none"/>
                </g>
                <g id="zoomMin">
                        <use xlink:href="#rim" fill="#404040">
                                <set attributeName="fill" to="#808080" begin="zoomminus.mouseover" end="zoomminus.mouseout"/>
                        </use>
                        <path d="M-4,0h8" fill="none" stroke="white" stroke-width="1.5" pointer-events="none"/>
                </g>
                <g id="dirArrow">
                        <path fill="none" stroke="white" stroke-width="1.5" d="M0,-3.0v7 M-2.5,-0.5L0,-3.0L2.5,-0.5"/>
                </g>
               <g id="resetDef">
                       <use xlink:href="#rim2" fill="#404040">
                               <set attributeName="fill" to="#808080" begin="reset.mouseover" end="reset.mouseout"/>
                       </use>
               </g>
        </defs>

<script type="text/javascript">
var viewWidth = 1476;
var viewHeight = 923;
var sectionId = 'dynsection-0';
</script>
<script xlink:href="svgpan.js"/>
<svg id="graph" class="graph">
<g id="viewport">
<title>Urho3D::XPathResultSet</title>
<!-- Node1 -->
<g id="node1" class="node"><title>Node1</title>
<polygon fill="#bfbfbf" stroke="black" points="1336.5,-690.5 1336.5,-711.5 1467.5,-711.5 1467.5,-690.5 1336.5,-690.5"/>
<text text-anchor="middle" x="1402" y="-698.5" font-family="FreeSans" font-size="10.00">Urho3D::XPathResultSet</text>
</g>
<!-- Node2 -->
<g id="node2" class="node"><title>Node2</title>
<a xlink:href="class_urho3_d_1_1_weak_ptr.html" target="_top" xlink:title="Urho3D::WeakPtr\&lt; Urho3D\l::XMLFile \&gt;">
<polygon fill="none" stroke="black" points="1132,-684 1132,-718 1278,-718 1278,-684 1132,-684"/>
<text text-anchor="start" x="1140" y="-705" font-family="FreeSans" font-size="10.00">Urho3D::WeakPtr&lt; Urho3D</text>
<text text-anchor="middle" x="1205" y="-692" font-family="FreeSans" font-size="10.00">::XMLFile &gt;</text>
</a>
</g>
<!-- Node2&#45;&gt;Node1 -->
<g id="edge2" class="edge"><title>Node2&#45;&gt;Node1</title>
<path fill="none" stroke="#9a32cd" stroke-dasharray="5,2" d="M1288.46,-701C1304.41,-701 1320.9,-701 1336.2,-701"/>
<polygon fill="#9a32cd" stroke="#9a32cd" points="1288.08,-697.5 1278.08,-701 1288.08,-704.5 1288.08,-697.5"/>
<text text-anchor="middle" x="1307" y="-705" font-family="FreeSans" font-size="10.00"> file_</text>
</g>
<!-- Node3 -->
<g id="node4" class="node"><title>Node3</title>
<a xlink:href="class_urho3_d_1_1_x_m_l_file.html" target="_top" xlink:title="XML document resource.">
<polygon fill="none" stroke="black" points="954,-115.5 954,-136.5 1048,-136.5 1048,-115.5 954,-115.5"/>
<text text-anchor="middle" x="1001" y="-123.5" font-family="FreeSans" font-size="10.00">Urho3D::XMLFile</text>
</a>
</g>
<!-- Node3&#45;&gt;Node2 -->
<g id="edge4" class="edge"><title>Node3&#45;&gt;Node2</title>
<path fill="none" stroke="#9a32cd" stroke-dasharray="5,2" d="M1041.15,-141.082C1053.28,-147.413 1065.59,-155.933 1074,-167 1139.19,-252.788 1191.28,-602.531 1202.68,-683.987"/>
<polygon fill="#9a32cd" stroke="#9a32cd" points="1042.51,-137.851 1031.98,-136.661 1039.47,-144.157 1042.51,-137.851"/>
<text text-anchor="middle" x="1103" y="-251" font-family="FreeSans" font-size="10.00"> ptr_</text>
</g>
<!-- Node4 -->
<g id="node6" class="node"><title>Node4</title>
<a xlink:href="class_urho3_d_1_1_resource.html" target="_top" xlink:title="Base class for resources.">
<polygon fill="none" stroke="black" points="621.5,-74.5 621.5,-95.5 724.5,-95.5 724.5,-74.5 621.5,-74.5"/>
<text text-anchor="middle" x="673" y="-82.5" font-family="FreeSans" font-size="10.00">Urho3D::Resource</text>
</a>
</g>
<!-- Node4&#45;&gt;Node3 -->
<g id="edge6" class="edge"><title>Node4&#45;&gt;Node3</title>
<path fill="none" stroke="midnightblue" d="M734.914,-92.7393C798.581,-100.698 896.328,-112.916 953.942,-120.118"/>
<polygon fill="midnightblue" stroke="midnightblue" points="734.968,-89.2188 724.611,-91.4514 734.099,-96.1648 734.968,-89.2188"/>
</g>
<!-- Node5 -->
<g id="node8" class="node"><title>Node5</title>
<a xlink:href="class_urho3_d_1_1_object.html" target="_top" xlink:title="Base class for objects with type identification, subsystem access and event sending/receiving capabil...">
<polygon fill="none" stroke="black" points="361,-201.5 361,-222.5 451,-222.5 451,-201.5 361,-201.5"/>
<text text-anchor="middle" x="406" y="-209.5" font-family="FreeSans" font-size="10.00">Urho3D::Object</text>
</a>
</g>
<!-- Node5&#45;&gt;Node4 -->
<g id="edge8" class="edge"><title>Node5&#45;&gt;Node4</title>
<path fill="none" stroke="midnightblue" d="M448.107,-197.378C456.48,-193.431 464.876,-188.651 472,-183 482.446,-174.713 479.432,-167.13 490,-159 531.829,-126.818 589.556,-106.576 628.917,-95.5549"/>
<polygon fill="midnightblue" stroke="midnightblue" points="446.489,-194.266 438.732,-201.483 449.297,-200.678 446.489,-194.266"/>
</g>
<!-- Node11 -->
<g id="node21" class="node"><title>Node11</title>
<a xlink:href="class_urho3_d_1_1_event_handler.html" target="_top" xlink:title="Internal helper class for invoking event handler functions.">
<polygon fill="none" stroke="black" points="611,-201.5 611,-222.5 735,-222.5 735,-201.5 611,-201.5"/>
<text text-anchor="middle" x="673" y="-209.5" font-family="FreeSans" font-size="10.00">Urho3D::EventHandler</text>
</a>
</g>
<!-- Node5&#45;&gt;Node11 -->
<g id="edge28" class="edge"><title>Node5&#45;&gt;Node11</title>
<path fill="none" stroke="#9a32cd" stroke-dasharray="5,2" d="M461.429,-212C505.017,-212 565.723,-212 610.935,-212"/>
<polygon fill="#9a32cd" stroke="#9a32cd" points="461.293,-208.5 451.293,-212 461.293,-215.5 461.293,-208.5"/>
<text text-anchor="middle" x="521" y="-229" font-family="FreeSans" font-size="10.00"> sender_</text>
<text text-anchor="middle" x="521" y="-216" font-family="FreeSans" font-size="10.00">receiver_</text>
</g>
<!-- Node6 -->
<g id="node10" class="node"><title>Node6</title>
<a xlink:href="class_urho3_d_1_1_ref_counted.html" target="_top" xlink:title="Base class for intrusively reference&#45;counted objects. These are noncopyable and non&#45;assignable.">
<polygon fill="none" stroke="black" points="188,-852.5 188,-873.5 302,-873.5 302,-852.5 188,-852.5"/>
<text text-anchor="middle" x="245" y="-860.5" font-family="FreeSans" font-size="10.00">Urho3D::RefCounted</text>
</a>
</g>
<!-- Node6&#45;&gt;Node5 -->
<g id="edge10" class="edge"><title>Node6&#45;&gt;Node5</title>
<path fill="none" stroke="midnightblue" d="M246.273,-842.22C252.314,-748.556 280.304,-365.794 340,-264 350.7,-245.754 370.453,-231.495 385.571,-222.56"/>
<polygon fill="midnightblue" stroke="midnightblue" points="242.769,-842.189 245.631,-852.389 249.755,-842.63 242.769,-842.189"/>
</g>
<!-- Node8 -->
<g id="node14" class="node"><title>Node8</title>
<a xlink:href="class_urho3_d_1_1_context.html" target="_top" xlink:title="Urho3D execution context. Provides access to subsystems, object factories and attributes, and event receivers.">
<polygon fill="none" stroke="black" points="952.5,-538.5 952.5,-559.5 1049.5,-559.5 1049.5,-538.5 952.5,-538.5"/>
<text text-anchor="middle" x="1001" y="-546.5" font-family="FreeSans" font-size="10.00">Urho3D::Context</text>
</a>
</g>
<!-- Node6&#45;&gt;Node8 -->
<g id="edge16" class="edge"><title>Node6&#45;&gt;Node8</title>
<path fill="none" stroke="midnightblue" d="M312.461,-864.199C472.349,-866.418 864.402,-867.977 910,-831 954.652,-794.79 990.699,-606.863 999.131,-559.73"/>
<polygon fill="midnightblue" stroke="midnightblue" points="312.32,-860.696 302.271,-864.052 312.219,-867.696 312.32,-860.696"/>
</g>
<!-- Node7 -->
<g id="node12" class="node"><title>Node7</title>
<a xlink:href="struct_urho3_d_1_1_ref_count.html" target="_top" xlink:title="Reference count structure.">
<polygon fill="none" stroke="black" points="0,-874.5 0,-895.5 102,-895.5 102,-874.5 0,-874.5"/>
<text text-anchor="middle" x="51" y="-882.5" font-family="FreeSans" font-size="10.00">Urho3D::RefCount</text>
</a>
</g>
<!-- Node7&#45;&gt;Node2 -->
<g id="edge78" class="edge"><title>Node7&#45;&gt;Node2</title>
<path fill="none" stroke="#9a32cd" stroke-dasharray="5,2" d="M112.765,-893.185C150.82,-897.537 200.653,-902 245,-902 245,-902 245,-902 1001,-902 1105.41,-902 1175.8,-766.745 1197.72,-718.137"/>
<polygon fill="#9a32cd" stroke="#9a32cd" points="112.698,-889.653 102.358,-891.964 111.882,-896.605 112.698,-889.653"/>
<text text-anchor="middle" x="521" y="-906" font-family="FreeSans" font-size="10.00"> refCount_</text>
</g>
<!-- Node7&#45;&gt;Node6 -->
<g id="edge12" class="edge"><title>Node7&#45;&gt;Node6</title>
<path fill="none" stroke="#9a32cd" stroke-dasharray="5,2" d="M112.303,-875.959C114.902,-875.625 117.476,-875.304 120,-875 142.186,-872.329 166.645,-869.873 188,-867.888"/>
<polygon fill="#9a32cd" stroke="#9a32cd" points="111.661,-872.513 102.208,-877.298 112.582,-879.453 111.661,-872.513"/>
<text text-anchor="middle" x="145" y="-879" font-family="FreeSans" font-size="10.00"> refCount_</text>
</g>
<!-- Node8&#45;&gt;Node5 -->
<g id="edge14" class="edge"><title>Node8&#45;&gt;Node5</title>
<path fill="none" stroke="#9a32cd" stroke-dasharray="5,2" d="M997.953,-528.093C990.588,-484.679 967.953,-383.906 910,-325 776.555,-189.362 675.821,-282.937 490,-242 469.433,-237.469 447.011,-229.285 430.51,-222.609"/>
<polygon fill="#9a32cd" stroke="#9a32cd" points="994.511,-528.737 999.543,-538.061 1001.42,-527.635 994.511,-528.737"/>
<text text-anchor="middle" x="673" y="-257" font-family="FreeSans" font-size="10.00"> context_</text>
</g>
<!-- Node9 -->
<g id="node17" class="node"><title>Node9</title>
<a xlink:href="class_urho3_d_1_1_p_o_d_vector.html" target="_top" xlink:title="Urho3D::PODVector\&lt;\l Urho3D::Object * \&gt;">
<polygon fill="none" stroke="black" points="613.5,-802 613.5,-836 732.5,-836 732.5,-802 613.5,-802"/>
<text text-anchor="start" x="621.5" y="-823" font-family="FreeSans" font-size="10.00">Urho3D::PODVector&lt;</text>
<text text-anchor="middle" x="673" y="-810" font-family="FreeSans" font-size="10.00"> Urho3D::Object * &gt;</text>
</a>
</g>
<!-- Node9&#45;&gt;Node8 -->
<g id="edge18" class="edge"><title>Node9&#45;&gt;Node8</title>
<path fill="none" stroke="#9a32cd" stroke-dasharray="5,2" d="M742.757,-820.524C794.353,-818.06 863.461,-806.761 910,-768 978.019,-711.349 995.973,-595.385 999.979,-559.693"/>
<polygon fill="#9a32cd" stroke="#9a32cd" points="742.543,-817.029 732.683,-820.904 742.808,-824.024 742.543,-817.029"/>
<text text-anchor="middle" x="852" y="-818" font-family="FreeSans" font-size="10.00"> eventSenders_</text>
</g>
<!-- Node10 -->
<g id="node19" class="node"><title>Node10</title>
<a xlink:href="class_urho3_d_1_1_vector_base.html" target="_top" xlink:title="Vector base class.">
<polygon fill="none" stroke="black" points="349,-782.5 349,-803.5 463,-803.5 463,-782.5 349,-782.5"/>
<text text-anchor="middle" x="406" y="-790.5" font-family="FreeSans" font-size="10.00">Urho3D::VectorBase</text>
</a>
</g>
<!-- Node10&#45;&gt;Node9 -->
<g id="edge20" class="edge"><title>Node10&#45;&gt;Node9</title>
<path fill="none" stroke="midnightblue" d="M473.367,-799.56C516.351,-803.746 571.573,-809.123 613.038,-813.161"/>
<polygon fill="midnightblue" stroke="midnightblue" points="473.57,-796.063 463.278,-798.578 472.892,-803.03 473.57,-796.063"/>
</g>
<!-- Node19 -->
<g id="node43" class="node"><title>Node19</title>
<a xlink:href="class_urho3_d_1_1_p_o_d_vector.html" target="_top" xlink:title="Urho3D::PODVector\&lt;\l Urho3D::HashMap * \&gt;">
<polygon fill="none" stroke="black" points="609.5,-750 609.5,-784 736.5,-784 736.5,-750 609.5,-750"/>
<text text-anchor="start" x="617.5" y="-771" font-family="FreeSans" font-size="10.00">Urho3D::PODVector&lt;</text>
<text text-anchor="middle" x="673" y="-758" font-family="FreeSans" font-size="10.00"> Urho3D::HashMap * &gt;</text>
</a>
</g>
<!-- Node10&#45;&gt;Node19 -->
<g id="edge52" class="edge"><title>Node10&#45;&gt;Node19</title>
<path fill="none" stroke="midnightblue" d="M473.344,-786.442C515.042,-782.382 568.263,-777.199 609.27,-773.206"/>
<polygon fill="midnightblue" stroke="midnightblue" points="472.892,-782.97 463.278,-787.422 473.57,-789.937 472.892,-782.97"/>
</g>
<!-- Node11&#45;&gt;Node8 -->
<g id="edge22" class="edge"><title>Node11&#45;&gt;Node8</title>
<path fill="none" stroke="#9a32cd" stroke-dasharray="5,2" d="M745.342,-216.545C810.359,-221.273 897.509,-229.457 910,-240 958.079,-280.578 991.939,-488.523 999.435,-538.289"/>
<polygon fill="#9a32cd" stroke="#9a32cd" points="745.335,-213.036 735.112,-215.816 744.838,-220.018 745.335,-213.036"/>
<text text-anchor="middle" x="852" y="-244" font-family="FreeSans" font-size="10.00"> eventHandler_</text>
</g>
<!-- Node23 -->
<g id="node55" class="node"><title>Node23</title>
<a xlink:href="class_urho3_d_1_1_linked_list.html" target="_top" xlink:title="Urho3D::LinkedList\l\&lt; Urho3D::EventHandler \&gt;">
<polygon fill="none" stroke="black" points="928,-176 928,-210 1074,-210 1074,-176 928,-176"/>
<text text-anchor="start" x="936" y="-197" font-family="FreeSans" font-size="10.00">Urho3D::LinkedList</text>
<text text-anchor="middle" x="1001" y="-184" font-family="FreeSans" font-size="10.00">&lt; Urho3D::EventHandler &gt;</text>
</a>
</g>
<!-- Node11&#45;&gt;Node23 -->
<g id="edge68" class="edge"><title>Node11&#45;&gt;Node23</title>
<path fill="none" stroke="#9a32cd" stroke-dasharray="5,2" d="M745.517,-207.052C761.485,-206.005 778.312,-204.935 794,-204 838.367,-201.355 888.102,-198.702 927.7,-196.664"/>
<polygon fill="#9a32cd" stroke="#9a32cd" points="744.916,-203.584 735.168,-207.735 745.377,-210.569 744.916,-203.584"/>
<text text-anchor="middle" x="852" y="-208" font-family="FreeSans" font-size="10.00"> head_</text>
</g>
<!-- Node12 -->
<g id="node23" class="node"><title>Node12</title>
<a xlink:href="struct_urho3_d_1_1_linked_list_node.html" target="_top" xlink:title="Singly&#45;linked list node base class.">
<polygon fill="none" stroke="black" points="340,-273.5 340,-294.5 472,-294.5 472,-273.5 340,-273.5"/>
<text text-anchor="middle" x="406" y="-281.5" font-family="FreeSans" font-size="10.00">Urho3D::LinkedListNode</text>
</a>
</g>
<!-- Node12&#45;&gt;Node11 -->
<g id="edge24" class="edge"><title>Node12&#45;&gt;Node11</title>
<path fill="none" stroke="midnightblue" d="M452.366,-270.607C496.707,-257.816 558.487,-240.046 570,-237 588.857,-232.012 609.757,-226.868 627.775,-222.553"/>
<polygon fill="midnightblue" stroke="midnightblue" points="451.272,-267.28 442.634,-273.415 453.212,-274.005 451.272,-267.28"/>
</g>
<!-- Node12&#45;&gt;Node12 -->
<g id="edge26" class="edge"><title>Node12&#45;&gt;Node12</title>
<path fill="none" stroke="#9a32cd" stroke-dasharray="5,2" d="M390.617,-304.793C391.974,-309.529 397.102,-313 406,-313 420.602,-313 425.05,-303.653 419.347,-294.708"/>
<polygon fill="#9a32cd" stroke="#9a32cd" points="394.105,-305.203 392.653,-294.708 387.243,-303.817 394.105,-305.203"/>
<text text-anchor="middle" x="406" y="-317" font-family="FreeSans" font-size="10.00"> next_</text>
</g>
<!-- Node13 -->
<g id="node27" class="node"><title>Node13</title>
<a xlink:href="class_urho3_d_1_1_string_hash.html" target="_top" xlink:title="32&#45;bit hash value for a string.">
<polygon fill="none" stroke="black" points="349.5,-121.5 349.5,-142.5 462.5,-142.5 462.5,-121.5 349.5,-121.5"/>
<text text-anchor="middle" x="406" y="-129.5" font-family="FreeSans" font-size="10.00">Urho3D::StringHash</text>
</a>
</g>
<!-- Node13&#45;&gt;Node4 -->
<g id="edge76" class="edge"><title>Node13&#45;&gt;Node4</title>
<path fill="none" stroke="#9a32cd" stroke-dasharray="5,2" d="M443.343,-117.377C452.984,-112.976 463.137,-107.764 472,-102 480.973,-96.1643 480.006,-89.8312 490,-86 531.978,-69.9086 583.46,-71.3002 621.115,-75.7641"/>
<polygon fill="#9a32cd" stroke="#9a32cd" points="441.692,-114.278 433.938,-121.498 444.502,-120.69 441.692,-114.278"/>
<text text-anchor="middle" x="521" y="-90" font-family="FreeSans" font-size="10.00"> nameHash_</text>
</g>
<!-- Node13&#45;&gt;Node11 -->
<g id="edge30" class="edge"><title>Node13&#45;&gt;Node11</title>
<path fill="none" stroke="#9a32cd" stroke-dasharray="5,2" d="M444.816,-146.062C477.863,-157.781 526.723,-174.516 570,-187 588.122,-192.228 608.245,-197.277 625.86,-201.453"/>
<polygon fill="#9a32cd" stroke="#9a32cd" points="445.687,-142.656 435.092,-142.596 443.337,-149.25 445.687,-142.656"/>
<text text-anchor="middle" x="521" y="-185" font-family="FreeSans" font-size="10.00"> eventType_</text>
</g>
<!-- Node13&#45;&gt;Node13 -->
<g id="edge32" class="edge"><title>Node13&#45;&gt;Node13</title>
<path fill="none" stroke="#9a32cd" stroke-dasharray="5,2" d="M390.617,-152.793C391.974,-157.529 397.102,-161 406,-161 420.602,-161 425.05,-151.653 419.347,-142.708"/>
<polygon fill="#9a32cd" stroke="#9a32cd" points="394.105,-153.203 392.653,-142.708 387.243,-151.817 394.105,-153.203"/>
<text text-anchor="middle" x="406" y="-165" font-family="FreeSans" font-size="10.00"> ZERO</text>
</g>
<!-- Node14 -->
<g id="node30" class="node"><title>Node14</title>
<a xlink:href="class_urho3_d_1_1_hash_map.html" target="_top" xlink:title="Urho3D::HashMap\&lt; Urho3D\l::StringHash, Urho3D::\lHashSet\&lt; Urho3D::Object * \&gt; \&gt;">
<polygon fill="none" stroke="black" points="586.5,-290.5 586.5,-337.5 759.5,-337.5 759.5,-290.5 586.5,-290.5"/>
<text text-anchor="start" x="594.5" y="-324.5" font-family="FreeSans" font-size="10.00">Urho3D::HashMap&lt; Urho3D</text>
<text text-anchor="start" x="594.5" y="-311.5" font-family="FreeSans" font-size="10.00">::StringHash, Urho3D::</text>
<text text-anchor="middle" x="673" y="-298.5" font-family="FreeSans" font-size="10.00">HashSet&lt; Urho3D::Object * &gt; &gt;</text>
</a>
</g>
<!-- Node14&#45;&gt;Node8 -->
<g id="edge34" class="edge"><title>Node14&#45;&gt;Node8</title>
<path fill="none" stroke="#9a32cd" stroke-dasharray="5,2" d="M769.807,-324.205C816.231,-333.205 870.246,-350.138 910,-382 963.59,-424.951 990.17,-508.353 998.254,-538.118"/>
<polygon fill="#9a32cd" stroke="#9a32cd" points="770.187,-320.716 759.719,-322.35 768.921,-327.601 770.187,-320.716"/>
<text text-anchor="middle" x="852" y="-386" font-family="FreeSans" font-size="10.00"> eventReceivers_</text>
</g>
<!-- Node15 -->
<g id="node32" class="node"><title>Node15</title>
<a xlink:href="class_urho3_d_1_1_hash_base.html" target="_top" xlink:title="Hash set/map base class.">
<polygon fill="none" stroke="red" points="352,-501.5 352,-522.5 460,-522.5 460,-501.5 352,-501.5"/>
<text text-anchor="middle" x="406" y="-509.5" font-family="FreeSans" font-size="10.00">Urho3D::HashBase</text>
</a>
</g>
<!-- Node15&#45;&gt;Node14 -->
<g id="edge36" class="edge"><title>Node15&#45;&gt;Node14</title>
<path fill="none" stroke="midnightblue" d="M419.386,-492.797C444.643,-458.076 502.864,-384.946 570,-347 576.13,-343.535 582.674,-340.377 589.38,-337.511"/>
<polygon fill="midnightblue" stroke="midnightblue" points="416.394,-490.963 413.421,-501.133 422.087,-495.037 416.394,-490.963"/>
</g>
<!-- Node16 -->
<g id="node34" class="node"><title>Node16</title>
<a xlink:href="class_urho3_d_1_1_hash_map.html" target="_top" xlink:title="Urho3D::HashMap\&lt; StringHash,\l Variant \&gt;">
<polygon fill="none" stroke="black" points="587,-698 587,-732 759,-732 759,-698 587,-698"/>
<text text-anchor="start" x="595" y="-719" font-family="FreeSans" font-size="10.00">Urho3D::HashMap&lt; StringHash,</text>
<text text-anchor="middle" x="673" y="-706" font-family="FreeSans" font-size="10.00"> Variant &gt;</text>
</a>
</g>
<!-- Node15&#45;&gt;Node16 -->
<g id="edge40" class="edge"><title>Node15&#45;&gt;Node16</title>
<path fill="none" stroke="midnightblue" d="M418.36,-531.518C442.697,-568.283 500.543,-647.8 570,-689 575.71,-692.387 581.852,-695.336 588.19,-697.903"/>
<polygon fill="midnightblue" stroke="midnightblue" points="421.039,-529.219 412.654,-522.744 415.171,-533.035 421.039,-529.219"/>
</g>
<!-- Node17 -->
<g id="node37" class="node"><title>Node17</title>
<a xlink:href="class_urho3_d_1_1_hash_map.html" target="_top" xlink:title="Urho3D::HashMap\&lt; Urho3D\l::Object *, Urho3D::HashMap\l\&lt; Urho3D::StringHash, Urho3D\l::HashSet\&lt; Urho3D::Object * \&gt; \&gt; \&gt;">
<polygon fill="none" stroke="black" points="577.5,-620 577.5,-680 768.5,-680 768.5,-620 577.5,-620"/>
<text text-anchor="start" x="585.5" y="-667" font-family="FreeSans" font-size="10.00">Urho3D::HashMap&lt; Urho3D</text>
<text text-anchor="start" x="585.5" y="-654" font-family="FreeSans" font-size="10.00">::Object *, Urho3D::HashMap</text>
<text text-anchor="start" x="585.5" y="-641" font-family="FreeSans" font-size="10.00">&lt; Urho3D::StringHash, Urho3D</text>
<text text-anchor="middle" x="673" y="-628" font-family="FreeSans" font-size="10.00">::HashSet&lt; Urho3D::Object * &gt; &gt; &gt;</text>
</a>
</g>
<!-- Node15&#45;&gt;Node17 -->
<g id="edge44" class="edge"><title>Node15&#45;&gt;Node17</title>
<path fill="none" stroke="midnightblue" d="M429.767,-528.235C461.001,-549.122 518.004,-585.721 570,-611 576.277,-614.052 582.857,-617.026 589.528,-619.883"/>
<polygon fill="midnightblue" stroke="midnightblue" points="431.55,-525.216 421.301,-522.534 427.641,-531.023 431.55,-525.216"/>
</g>
<!-- Node18 -->
<g id="node40" class="node"><title>Node18</title>
<a xlink:href="class_urho3_d_1_1_hash_map.html" target="_top" xlink:title="Urho3D::HashMap\&lt; Urho3D\l::StringHash, Urho3D::\lSharedPtr\&lt; Urho3D::Object \&gt; \&gt;">
<polygon fill="none" stroke="black" points="587,-554.5 587,-601.5 759,-601.5 759,-554.5 587,-554.5"/>
<text text-anchor="start" x="595" y="-588.5" font-family="FreeSans" font-size="10.00">Urho3D::HashMap&lt; Urho3D</text>
<text text-anchor="start" x="595" y="-575.5" font-family="FreeSans" font-size="10.00">::StringHash, Urho3D::</text>
<text text-anchor="middle" x="673" y="-562.5" font-family="FreeSans" font-size="10.00">SharedPtr&lt; Urho3D::Object &gt; &gt;</text>
</a>
</g>
<!-- Node15&#45;&gt;Node18 -->
<g id="edge48" class="edge"><title>Node15&#45;&gt;Node18</title>
<path fill="none" stroke="midnightblue" d="M458.546,-524.989C495.082,-534.02 544.617,-546.265 586.874,-556.711"/>
<polygon fill="midnightblue" stroke="midnightblue" points="459.15,-521.533 448.602,-522.531 457.47,-528.328 459.15,-521.533"/>
</g>
<!-- Node20 -->
<g id="node46" class="node"><title>Node20</title>
<a xlink:href="class_urho3_d_1_1_hash_map.html" target="_top" xlink:title="Urho3D::HashMap\&lt; Urho3D\l::StringHash, Urho3D::\lSharedPtr\&lt; Urho3D::ObjectFactory \&gt; \&gt;">
<polygon fill="none" stroke="black" points="570,-488.5 570,-535.5 776,-535.5 776,-488.5 570,-488.5"/>
<text text-anchor="start" x="578" y="-522.5" font-family="FreeSans" font-size="10.00">Urho3D::HashMap&lt; Urho3D</text>
<text text-anchor="start" x="578" y="-509.5" font-family="FreeSans" font-size="10.00">::StringHash, Urho3D::</text>
<text text-anchor="middle" x="673" y="-496.5" font-family="FreeSans" font-size="10.00">SharedPtr&lt; Urho3D::ObjectFactory &gt; &gt;</text>
</a>
</g>
<!-- Node15&#45;&gt;Node20 -->
<g id="edge56" class="edge"><title>Node15&#45;&gt;Node20</title>
<path fill="none" stroke="midnightblue" d="M470.307,-512C500.153,-512 536.375,-512 569.896,-512"/>
<polygon fill="midnightblue" stroke="midnightblue" points="470.031,-508.5 460.031,-512 470.031,-515.5 470.031,-508.5"/>
</g>
<!-- Node21 -->
<g id="node49" class="node"><title>Node21</title>
<a xlink:href="class_urho3_d_1_1_hash_map.html" target="_top" xlink:title="Urho3D::HashMap\&lt; Urho3D\l::String, Urho3D::Vector\l\&lt; Urho3D::StringHash \&gt; \&gt;">
<polygon fill="none" stroke="black" points="597,-422.5 597,-469.5 749,-469.5 749,-422.5 597,-422.5"/>
<text text-anchor="start" x="605" y="-456.5" font-family="FreeSans" font-size="10.00">Urho3D::HashMap&lt; Urho3D</text>
<text text-anchor="start" x="605" y="-443.5" font-family="FreeSans" font-size="10.00">::String, Urho3D::Vector</text>
<text text-anchor="middle" x="673" y="-430.5" font-family="FreeSans" font-size="10.00">&lt; Urho3D::StringHash &gt; &gt;</text>
</a>
</g>
<!-- Node15&#45;&gt;Node21 -->
<g id="edge60" class="edge"><title>Node15&#45;&gt;Node21</title>
<path fill="none" stroke="midnightblue" d="M458.548,-499.011C498.019,-489.254 552.658,-475.747 596.905,-464.81"/>
<polygon fill="midnightblue" stroke="midnightblue" points="457.47,-495.672 448.602,-501.469 459.15,-502.467 457.47,-495.672"/>
</g>
<!-- Node22 -->
<g id="node52" class="node"><title>Node22</title>
<a xlink:href="class_urho3_d_1_1_hash_map.html" target="_top" xlink:title="Urho3D::HashMap\&lt; Urho3D\l::StringHash, Urho3D::\lVector\&lt; Urho3D::AttributeInfo \&gt; \&gt;">
<polygon fill="none" stroke="black" points="581.5,-356.5 581.5,-403.5 764.5,-403.5 764.5,-356.5 581.5,-356.5"/>
<text text-anchor="start" x="589.5" y="-390.5" font-family="FreeSans" font-size="10.00">Urho3D::HashMap&lt; Urho3D</text>
<text text-anchor="start" x="589.5" y="-377.5" font-family="FreeSans" font-size="10.00">::StringHash, Urho3D::</text>
<text text-anchor="middle" x="673" y="-364.5" font-family="FreeSans" font-size="10.00">Vector&lt; Urho3D::AttributeInfo &gt; &gt;</text>
</a>
</g>
<!-- Node15&#45;&gt;Node22 -->
<g id="edge64" class="edge"><title>Node15&#45;&gt;Node22</title>
<path fill="none" stroke="midnightblue" d="M429.085,-495.68C459.996,-474.395 517.09,-437.047 570,-413 577.351,-409.659 585.138,-406.51 593.008,-403.581"/>
<polygon fill="midnightblue" stroke="midnightblue" points="426.942,-492.906 420.725,-501.485 430.935,-498.656 426.942,-492.906"/>
</g>
<!-- Node16&#45;&gt;Node8 -->
<g id="edge38" class="edge"><title>Node16&#45;&gt;Node8</title>
<path fill="none" stroke="#9a32cd" stroke-dasharray="5,2" d="M760.888,-695.319C807.601,-682.292 864.59,-662.147 910,-633 943.655,-611.398 976.443,-576.844 991.858,-559.562"/>
<polygon fill="#9a32cd" stroke="#9a32cd" points="759.811,-691.984 751.084,-697.991 761.652,-698.738 759.811,-691.984"/>
<text text-anchor="middle" x="852" y="-687" font-family="FreeSans" font-size="10.00"> globalVars_</text>
</g>
<!-- Node17&#45;&gt;Node8 -->
<g id="edge42" class="edge"><title>Node17&#45;&gt;Node8</title>
<path fill="none" stroke="#9a32cd" stroke-dasharray="5,2" d="M778.474,-622.179C819.729,-610.778 867.303,-596.985 910,-583 931.958,-575.808 956.475,-566.576 974.525,-559.548"/>
<polygon fill="#9a32cd" stroke="#9a32cd" points="777.392,-618.847 768.679,-624.874 779.249,-625.596 777.392,-618.847"/>
<text text-anchor="middle" x="852" y="-620" font-family="FreeSans" font-size="10.00"> specificEventReceivers_</text>
</g>
<!-- Node18&#45;&gt;Node8 -->
<g id="edge46" class="edge"><title>Node18&#45;&gt;Node8</title>
<path fill="none" stroke="#9a32cd" stroke-dasharray="5,2" d="M769.462,-569.471C829.614,-564.153 904.453,-557.536 952.476,-553.29"/>
<polygon fill="#9a32cd" stroke="#9a32cd" points="768.831,-566.013 759.178,-570.381 769.448,-572.986 768.831,-566.013"/>
<text text-anchor="middle" x="852" y="-570" font-family="FreeSans" font-size="10.00"> subsystems_</text>
</g>
<!-- Node19&#45;&gt;Node8 -->
<g id="edge50" class="edge"><title>Node19&#45;&gt;Node8</title>
<path fill="none" stroke="#9a32cd" stroke-dasharray="5,2" d="M746.725,-760.747C797.147,-753.215 863.09,-736.608 910,-700 959.707,-661.208 988.341,-587.071 997.63,-559.591"/>
<polygon fill="#9a32cd" stroke="#9a32cd" points="745.952,-757.322 736.536,-762.179 746.925,-764.254 745.952,-757.322"/>
<text text-anchor="middle" x="852" y="-755" font-family="FreeSans" font-size="10.00"> eventDataMaps_</text>
</g>
<!-- Node20&#45;&gt;Node8 -->
<g id="edge54" class="edge"><title>Node20&#45;&gt;Node8</title>
<path fill="none" stroke="#9a32cd" stroke-dasharray="5,2" d="M786.428,-524.795C843.056,-531.183 908.601,-538.577 952.2,-543.495"/>
<polygon fill="#9a32cd" stroke="#9a32cd" points="786.66,-521.299 776.331,-523.656 785.876,-528.255 786.66,-521.299"/>
<text text-anchor="middle" x="852" y="-542" font-family="FreeSans" font-size="10.00"> factories_</text>
</g>
<!-- Node21&#45;&gt;Node8 -->
<g id="edge58" class="edge"><title>Node21&#45;&gt;Node8</title>
<path fill="none" stroke="#9a32cd" stroke-dasharray="5,2" d="M758.965,-465.458C804.387,-476.587 860.775,-491.755 910,-509 934.268,-517.502 961.113,-529.657 979.315,-538.333"/>
<polygon fill="#9a32cd" stroke="#9a32cd" points="759.694,-462.033 749.151,-463.074 758.042,-468.836 759.694,-462.033"/>
<text text-anchor="middle" x="852" y="-513" font-family="FreeSans" font-size="10.00"> objectCategories_</text>
</g>
<!-- Node22&#45;&gt;Node8 -->
<g id="edge62" class="edge"><title>Node22&#45;&gt;Node8</title>
<path fill="none" stroke="#9a32cd" stroke-dasharray="5,2" d="M774.641,-393.769C818.702,-403.079 869.385,-418.524 910,-444 949.848,-468.996 981.79,-516.835 994.749,-538.214"/>
<polygon fill="#9a32cd" stroke="#9a32cd" points="775.261,-390.324 764.764,-391.761 773.866,-397.184 775.261,-390.324"/>
<text text-anchor="middle" x="852" y="-461" font-family="FreeSans" font-size="10.00"> attributes_</text>
<text text-anchor="middle" x="852" y="-448" font-family="FreeSans" font-size="10.00">networkAttributes_</text>
</g>
<!-- Node23&#45;&gt;Node5 -->
<g id="edge66" class="edge"><title>Node23&#45;&gt;Node5</title>
<path fill="none" stroke="#9a32cd" stroke-dasharray="5,2" d="M917.904,-183.837C830.949,-175.761 690.568,-166.99 570,-179 527.517,-183.232 479.748,-193.485 446.771,-201.448"/>
<polygon fill="#9a32cd" stroke="#9a32cd" points="917.691,-187.333 927.977,-184.792 918.352,-180.364 917.691,-187.333"/>
<text text-anchor="middle" x="673" y="-183" font-family="FreeSans" font-size="10.00"> eventHandlers_</text>
</g>
<!-- Node24 -->
<g id="node58" class="node"><title>Node24</title>
<a xlink:href="class_urho3_d_1_1_timer.html" target="_top" xlink:title="Low&#45;resolution operating system timer.">
<polygon fill="none" stroke="black" points="363,-0.5 363,-21.5 449,-21.5 449,-0.5 363,-0.5"/>
<text text-anchor="middle" x="406" y="-8.5" font-family="FreeSans" font-size="10.00">Urho3D::Timer</text>
</a>
</g>
<!-- Node24&#45;&gt;Node4 -->
<g id="edge70" class="edge"><title>Node24&#45;&gt;Node4</title>
<path fill="none" stroke="#9a32cd" stroke-dasharray="5,2" d="M459.118,-15.1595C487.128,-18.2207 521.843,-23.3983 552,-32 589.272,-42.6309 630.066,-62.3234 653.488,-74.4804"/>
<polygon fill="#9a32cd" stroke="#9a32cd" points="459.429,-11.6731 449.122,-14.125 458.709,-18.6359 459.429,-11.6731"/>
<text text-anchor="middle" x="521" y="-36" font-family="FreeSans" font-size="10.00"> useTimer_</text>
</g>
<!-- Node25 -->
<g id="node60" class="node"><title>Node25</title>
<a xlink:href="class_urho3_d_1_1_string.html" target="_top" xlink:title="String class.">
<polygon fill="none" stroke="black" points="362,-40.5 362,-61.5 450,-61.5 450,-40.5 362,-40.5"/>
<text text-anchor="middle" x="406" y="-48.5" font-family="FreeSans" font-size="10.00">Urho3D::String</text>
</a>
</g>
<!-- Node25&#45;&gt;Node4 -->
<g id="edge72" class="edge"><title>Node25&#45;&gt;Node4</title>
<path fill="none" stroke="#9a32cd" stroke-dasharray="5,2" d="M460.198,-50.2601C470.112,-50.1517 480.367,-50.0573 490,-50 517.555,-49.836 524.717,-46.1334 552,-50 584.478,-54.6028 620.438,-65.828 644.649,-74.3347"/>
<polygon fill="#9a32cd" stroke="#9a32cd" points="459.989,-46.7621 450.03,-50.3772 460.07,-53.7617 459.989,-46.7621"/>
<text text-anchor="middle" x="521" y="-54" font-family="FreeSans" font-size="10.00"> name_</text>
</g>
<!-- Node25&#45;&gt;Node25 -->
<g id="edge74" class="edge"><title>Node25&#45;&gt;Node25</title>
<path fill="none" stroke="#9a32cd" stroke-dasharray="5,2" d="M390.617,-71.7934C391.974,-76.5291 397.102,-80 406,-80 420.602,-80 425.05,-70.6531 419.347,-61.7079"/>
<polygon fill="#9a32cd" stroke="#9a32cd" points="394.105,-72.2028 392.653,-61.7079 387.243,-70.8172 394.105,-72.2028"/>
<text text-anchor="middle" x="406" y="-84" font-family="FreeSans" font-size="10.00"> EMPTY</text>
</g>
</g>
</svg>
        <g id="navigator" transform="translate(0 0)" fill="#404254">
                <rect fill="#f2f5e9" fill-opacity="0.5" stroke="#606060" stroke-width=".5" x="0" y="0" width="60" height="60"/>
                <use id="zoomplus" xlink:href="#zoomPlus" x="17" y="9" onmousedown="handleZoom(evt,'in')"/>
                <use id="zoomminus" xlink:href="#zoomMin" x="42" y="9" onmousedown="handleZoom(evt,'out')"/>
                <use id="reset" xlink:href="#resetDef" x="30" y="36" onmousedown="handleReset()"/>
                <g id="arrowUp" xlink:href="#dirArrow" transform="translate(30 24)" onmousedown="handlePan(0,-1)">
                  <use xlink:href="#rim" fill="#404040">
                        <set attributeName="fill" to="#808080" begin="arrowUp.mouseover" end="arrowUp.mouseout"/>
                  </use>
                  <path fill="none" stroke="white" stroke-width="1.5" d="M0,-3.0v7 M-2.5,-0.5L0,-3.0L2.5,-0.5"/>
                </g>
                <g id="arrowRight" xlink:href="#dirArrow" transform="rotate(90) translate(36 -43)" onmousedown="handlePan(1,0)">
                  <use xlink:href="#rim" fill="#404040">
                        <set attributeName="fill" to="#808080" begin="arrowRight.mouseover" end="arrowRight.mouseout"/>
                  </use>
                  <path fill="none" stroke="white" stroke-width="1.5" d="M0,-3.0v7 M-2.5,-0.5L0,-3.0L2.5,-0.5"/>
                </g>
                <g id="arrowDown" xlink:href="#dirArrow" transform="rotate(180) translate(-30 -48)" onmousedown="handlePan(0,1)">
                  <use xlink:href="#rim" fill="#404040">
                        <set attributeName="fill" to="#808080" begin="arrowDown.mouseover" end="arrowDown.mouseout"/>
                  </use>
                  <path fill="none" stroke="white" stroke-width="1.5" d="M0,-3.0v7 M-2.5,-0.5L0,-3.0L2.5,-0.5"/>
                </g>
                <g id="arrowLeft" xlink:href="#dirArrow" transform="rotate(270) translate(-36 17)" onmousedown="handlePan(-1,0)">
                  <use xlink:href="#rim" fill="#404040">
                        <set attributeName="fill" to="#808080" begin="arrowLeft.mouseover" end="arrowLeft.mouseout"/>
                  </use>
                  <path fill="none" stroke="white" stroke-width="1.5" d="M0,-3.0v7 M-2.5,-0.5L0,-3.0L2.5,-0.5"/>
                </g>
        </g>
        <svg viewBox="0 0 15 15" width="100%" height="30px" preserveAspectRatio="xMaxYMin meet">
         <g id="arrow_out" transform="scale(0.3 0.3)">
          <a xlink:href="class_urho3_d_1_1_x_path_result_set__coll__graph_org.svg" target="_base">
           <rect id="button" ry="5" rx="5" y="6" x="6" height="38" width="38"
                fill="#f2f5e9" fill-opacity="0.5" stroke="#606060" stroke-width="1.0"/>
           <path id="arrow"
             d="M 11.500037,31.436501 C 11.940474,20.09759 22.043105,11.32322 32.158766,21.979434 L 37.068811,17.246167 C 37.068811,17.246167 37.088388,32 37.088388,32 L 22.160133,31.978069 C 22.160133,31.978069 26.997745,27.140456 26.997745,27.140456 C 18.528582,18.264221 13.291696,25.230495 11.500037,31.436501 z"
             style="fill:#404040;"/>
          </a>
         </g>
        </svg>
</svg>
