<?xml version="1.0" encoding="UTF-8" standalone="no"?>
<!DOCTYPE svg PUBLIC "-//W3C//DTD SVG 1.1//EN"
 "http://www.w3.org/Graphics/SVG/1.1/DTD/svg11.dtd">
<!-- Generated by graphviz version 2.40.1 (20161225.0304)
 -->
<!-- Title: Urho3D::Window Pages: 1 -->
<svg width="1376pt" height="887pt"
 viewBox="0.00 0.00 1376.00 886.50" xmlns="http://www.w3.org/2000/svg" xmlns:xlink="http://www.w3.org/1999/xlink">
<g id="graph0" class="graph" transform="scale(1 1) rotate(0) translate(4 882.5)">
<title>Urho3D::Window</title>
<!-- Node8 -->
<g id="node1" class="node">
<title>Node8</title>
<polygon fill="#bfbfbf" stroke="#000000" points="1270,-111.5 1270,-130.5 1368,-130.5 1368,-111.5 1270,-111.5"/>
<text text-anchor="middle" x="1319" y="-118.5" font-family="Helvetica,sans-Serif" font-size="10.00" fill="#000000">Urho3D::Window</text>
</g>
<!-- Node9 -->
<g id="node2" class="node">
<title>Node9</title>
<g id="a_node2"><a xlink:href="class_urho3_d_1_1_border_image.html" target="_top" xlink:title="Image UI element with optional border. ">
<polygon fill="none" stroke="#000000" points="1111,-185.5 1111,-204.5 1233,-204.5 1233,-185.5 1111,-185.5"/>
<text text-anchor="middle" x="1172" y="-192.5" font-family="Helvetica,sans-Serif" font-size="10.00" fill="#000000">Urho3D::BorderImage</text>
</a>
</g>
</g>
<!-- Node9&#45;&gt;Node8 -->
<g id="edge1" class="edge">
<title>Node9&#45;&gt;Node8</title>
<path fill="none" stroke="#191970" d="M1200.1718,-180.8183C1229.3836,-166.113 1274.2663,-143.519 1299.6891,-130.7211"/>
<polygon fill="#191970" stroke="#191970" points="1198.2751,-177.8546 1190.9167,-185.4773 1201.4226,-184.107 1198.2751,-177.8546"/>
</g>
<!-- Node10 -->
<g id="node3" class="node">
<title>Node10</title>
<g id="a_node3"><a xlink:href="class_urho3_d_1_1_u_i_element.html" target="_top" xlink:title="Base class for UI elements. ">
<polygon fill="none" stroke="#000000" points="865.5,-481.5 865.5,-500.5 975.5,-500.5 975.5,-481.5 865.5,-481.5"/>
<text text-anchor="middle" x="920.5" y="-488.5" font-family="Helvetica,sans-Serif" font-size="10.00" fill="#000000">Urho3D::UIElement</text>
</a>
</g>
</g>
<!-- Node10&#45;&gt;Node9 -->
<g id="edge2" class="edge">
<title>Node10&#45;&gt;Node9</title>
<path fill="none" stroke="#191970" d="M935.2553,-473.6339C982.2905,-418.2764 1127.7118,-247.1245 1163.8207,-204.6265"/>
<polygon fill="#191970" stroke="#191970" points="932.3908,-471.5999 928.583,-481.4868 937.7253,-476.1324 932.3908,-471.5999"/>
</g>
<!-- Node10&#45;&gt;Node10 -->
<g id="edge17" class="edge">
<title>Node10&#45;&gt;Node10</title>
<path fill="none" stroke="#9a32cd" stroke-dasharray="5,2" d="M898.1787,-510.0292C899.3962,-515.128 906.8367,-519 920.5,-519 941.8281,-519 947.9933,-509.5653 938.9955,-500.7571"/>
<polygon fill="#9a32cd" stroke="#9a32cd" points="901.4256,-511.3361 902.0045,-500.7571 894.9548,-508.6661 901.4256,-511.3361"/>
<text text-anchor="middle" x="920.5" y="-522" font-family="Helvetica,sans-Serif" font-size="10.00" fill="#000000"> parent_</text>
</g>
<!-- Node11 -->
<g id="node4" class="node">
<title>Node11</title>
<g id="a_node4"><a xlink:href="class_urho3_d_1_1_animatable.html" target="_top" xlink:title="Base class for animatable object, an animatable object can be set animation on it&#39;s attributes...">
<polygon fill="none" stroke="#000000" points="580.5,-785.5 580.5,-804.5 696.5,-804.5 696.5,-785.5 580.5,-785.5"/>
<text text-anchor="middle" x="638.5" y="-792.5" font-family="Helvetica,sans-Serif" font-size="10.00" fill="#000000">Urho3D::Animatable</text>
</a>
</g>
</g>
<!-- Node11&#45;&gt;Node10 -->
<g id="edge3" class="edge">
<title>Node11&#45;&gt;Node10</title>
<path fill="none" stroke="#191970" d="M706.5175,-791.8262C717.6993,-788.6633 728.4195,-783.6822 737,-776 757.1089,-757.9965 735.9214,-737.0919 755,-718 784.6111,-688.3682 814.489,-718.7044 845,-690 902.5946,-635.8158 916.657,-533.1613 919.721,-500.9362"/>
<polygon fill="#191970" stroke="#191970" points="705.5449,-788.4594 696.6143,-794.1599 707.1505,-795.2728 705.5449,-788.4594"/>
</g>
<!-- Node12 -->
<g id="node5" class="node">
<title>Node12</title>
<g id="a_node5"><a xlink:href="class_urho3_d_1_1_serializable.html" target="_top" xlink:title="Base class for objects with automatic serialization through attributes. ">
<polygon fill="none" stroke="#ff0000" points="198.5,-809.5 198.5,-828.5 314.5,-828.5 314.5,-809.5 198.5,-809.5"/>
<text text-anchor="middle" x="256.5" y="-816.5" font-family="Helvetica,sans-Serif" font-size="10.00" fill="#000000">Urho3D::Serializable</text>
</a>
</g>
</g>
<!-- Node12&#45;&gt;Node11 -->
<g id="edge4" class="edge">
<title>Node12&#45;&gt;Node11</title>
<path fill="none" stroke="#191970" d="M324.5008,-814.7277C397.2649,-810.1561 511.4747,-802.9806 580.2503,-798.6597"/>
<polygon fill="#191970" stroke="#191970" points="324.2784,-811.2347 314.5176,-815.3549 324.7174,-818.2209 324.2784,-811.2347"/>
</g>
<!-- Node42 -->
<g id="node6" class="node">
<title>Node42</title>
<g id="a_node6"><a xlink:href="class_urho3_d_1_1_hash_map.html" target="_top" xlink:title="Urho3D::HashMap\&lt; Urho3D\l::String, Urho3D::SharedPtr\l\&lt; Urho3D::AttributeAnimationInfo \&gt; \&gt;">
<polygon fill="none" stroke="#ff0000" points="154,-749.5 154,-790.5 359,-790.5 359,-749.5 154,-749.5"/>
<text text-anchor="start" x="162" y="-778.5" font-family="Helvetica,sans-Serif" font-size="10.00" fill="#000000">Urho3D::HashMap&lt; Urho3D</text>
<text text-anchor="start" x="162" y="-767.5" font-family="Helvetica,sans-Serif" font-size="10.00" fill="#000000">::String, Urho3D::SharedPtr</text>
<text text-anchor="middle" x="256.5" y="-756.5" font-family="Helvetica,sans-Serif" font-size="10.00" fill="#000000">&lt; Urho3D::AttributeAnimationInfo &gt; &gt;</text>
</a>
</g>
</g>
<!-- Node42&#45;&gt;Node11 -->
<g id="edge5" class="edge">
<title>Node42&#45;&gt;Node11</title>
<path fill="none" stroke="#9a32cd" stroke-dasharray="5,2" d="M369.5034,-777.1201C416.6493,-780.1207 471.9792,-783.6811 522,-787 541.0151,-788.2616 561.7733,-789.6754 580.4308,-790.9594"/>
<polygon fill="#9a32cd" stroke="#9a32cd" points="369.4649,-773.6107 359.2629,-776.469 369.0206,-780.5966 369.4649,-773.6107"/>
<text text-anchor="middle" x="449.5" y="-790" font-family="Helvetica,sans-Serif" font-size="10.00" fill="#000000"> attributeAnimationInfos_</text>
</g>
<!-- Node43 -->
<g id="node7" class="node">
<title>Node43</title>
<g id="a_node7"><a xlink:href="class_urho3_d_1_1_hash_set.html" target="_top" xlink:title="Urho3D::HashSet\&lt; const\l Urho3D::AttributeInfo *\&gt;">
<polygon fill="none" stroke="#ff0000" points="186.5,-700 186.5,-730 326.5,-730 326.5,-700 186.5,-700"/>
<text text-anchor="start" x="194.5" y="-718" font-family="Helvetica,sans-Serif" font-size="10.00" fill="#000000">Urho3D::HashSet&lt; const</text>
<text text-anchor="middle" x="256.5" y="-707" font-family="Helvetica,sans-Serif" font-size="10.00" fill="#000000"> Urho3D::AttributeInfo *&gt;</text>
</a>
</g>
</g>
<!-- Node43&#45;&gt;Node11 -->
<g id="edge6" class="edge">
<title>Node43&#45;&gt;Node11</title>
<path fill="none" stroke="#9a32cd" stroke-dasharray="5,2" d="M336.8133,-719.1007C391.0632,-724.2635 463.2255,-735.8849 522,-762 531.2618,-766.1153 530.7701,-771.8138 540,-776 552.5301,-781.683 566.7069,-785.6678 580.3209,-788.4615"/>
<polygon fill="#9a32cd" stroke="#9a32cd" points="336.8285,-715.5881 326.5559,-718.1808 336.2032,-722.5601 336.8285,-715.5881"/>
<text text-anchor="middle" x="449.5" y="-765" font-family="Helvetica,sans-Serif" font-size="10.00" fill="#000000"> animatedNetworkAttributes_</text>
</g>
<!-- Node44 -->
<g id="node8" class="node">
<title>Node44</title>
<g id="a_node8"><a xlink:href="class_urho3_d_1_1_shared_ptr.html" target="_top" xlink:title="Urho3D::SharedPtr\&lt;\l Urho3D::ObjectAnimation \&gt;">
<polygon fill="none" stroke="#ff0000" points="179,-848 179,-878 334,-878 334,-848 179,-848"/>
<text text-anchor="start" x="187" y="-866" font-family="Helvetica,sans-Serif" font-size="10.00" fill="#000000">Urho3D::SharedPtr&lt;</text>
<text text-anchor="middle" x="256.5" y="-855" font-family="Helvetica,sans-Serif" font-size="10.00" fill="#000000"> Urho3D::ObjectAnimation &gt;</text>
</a>
</g>
</g>
<!-- Node44&#45;&gt;Node11 -->
<g id="edge7" class="edge">
<title>Node44&#45;&gt;Node11</title>
<path fill="none" stroke="#9a32cd" stroke-dasharray="5,2" d="M344.3312,-853.8972C396.5321,-847.3059 463.7147,-836.7483 522,-821 530.2865,-818.761 531.7524,-816.3781 540,-814 552.8853,-810.2847 566.9306,-807.0855 580.2722,-804.428"/>
<polygon fill="#9a32cd" stroke="#9a32cd" points="343.5926,-850.4618 334.0979,-855.1629 344.4519,-857.4088 343.5926,-850.4618"/>
<text text-anchor="middle" x="449.5" y="-852" font-family="Helvetica,sans-Serif" font-size="10.00" fill="#000000"> objectAnimation_</text>
</g>
<!-- Node50 -->
<g id="node9" class="node">
<title>Node50</title>
<g id="a_node9"><a xlink:href="class_urho3_d_1_1_weak_ptr.html" target="_top" xlink:title="Urho3D::WeakPtr\&lt; Urho3D\l::XMLFile \&gt;">
<polygon fill="none" stroke="#000000" points="564.5,-476 564.5,-506 712.5,-506 712.5,-476 564.5,-476"/>
<text text-anchor="start" x="572.5" y="-494" font-family="Helvetica,sans-Serif" font-size="10.00" fill="#000000">Urho3D::WeakPtr&lt; Urho3D</text>
<text text-anchor="middle" x="638.5" y="-483" font-family="Helvetica,sans-Serif" font-size="10.00" fill="#000000">::XMLFile &gt;</text>
</a>
</g>
</g>
<!-- Node50&#45;&gt;Node10 -->
<g id="edge8" class="edge">
<title>Node50&#45;&gt;Node10</title>
<path fill="none" stroke="#9a32cd" stroke-dasharray="5,2" d="M722.8653,-491C768.922,-491 824.6474,-491 865.1696,-491"/>
<polygon fill="#9a32cd" stroke="#9a32cd" points="722.5922,-487.5001 712.5922,-491 722.5921,-494.5001 722.5922,-487.5001"/>
<text text-anchor="middle" x="800" y="-494" font-family="Helvetica,sans-Serif" font-size="10.00" fill="#000000"> appliedStyleFile_</text>
</g>
<!-- Node51 -->
<g id="node10" class="node">
<title>Node51</title>
<g id="a_node10"><a xlink:href="class_urho3_d_1_1_x_m_l_file.html" target="_top" xlink:title="XML document resource. ">
<polygon fill="none" stroke="#ff0000" points="0,-475.5 0,-494.5 96,-494.5 96,-475.5 0,-475.5"/>
<text text-anchor="middle" x="48" y="-482.5" font-family="Helvetica,sans-Serif" font-size="10.00" fill="#000000">Urho3D::XMLFile</text>
</a>
</g>
</g>
<!-- Node51&#45;&gt;Node50 -->
<g id="edge9" class="edge">
<title>Node51&#45;&gt;Node50</title>
<path fill="none" stroke="#9a32cd" stroke-dasharray="5,2" d="M104.2372,-496.3586C120.2465,-499.0989 137.7502,-501.6301 154,-503 316.9775,-516.7394 358.6598,-511.3902 522,-503 535.7065,-502.2959 550.2844,-501.1289 564.3212,-499.792"/>
<polygon fill="#9a32cd" stroke="#9a32cd" points="104.4181,-492.8362 93.9608,-494.5377 103.1968,-499.7288 104.4181,-492.8362"/>
<text text-anchor="middle" x="256.5" y="-514" font-family="Helvetica,sans-Serif" font-size="10.00" fill="#000000"> ptr_</text>
</g>
<!-- Node59 -->
<g id="node18" class="node">
<title>Node59</title>
<g id="a_node18"><a xlink:href="class_urho3_d_1_1_shared_ptr.html" target="_top" xlink:title="Urho3D::SharedPtr\&lt;\l Urho3D::XMLFile \&gt;">
<polygon fill="none" stroke="#000000" points="199,-425 199,-455 314,-455 314,-425 199,-425"/>
<text text-anchor="start" x="207" y="-443" font-family="Helvetica,sans-Serif" font-size="10.00" fill="#000000">Urho3D::SharedPtr&lt;</text>
<text text-anchor="middle" x="256.5" y="-432" font-family="Helvetica,sans-Serif" font-size="10.00" fill="#000000"> Urho3D::XMLFile &gt;</text>
</a>
</g>
</g>
<!-- Node51&#45;&gt;Node59 -->
<g id="edge23" class="edge">
<title>Node51&#45;&gt;Node59</title>
<path fill="none" stroke="#9a32cd" stroke-dasharray="5,2" d="M102.0014,-473.345C131.7194,-466.9311 168.5979,-458.9717 198.8709,-452.4379"/>
<polygon fill="#9a32cd" stroke="#9a32cd" points="101.254,-469.9257 92.2175,-475.4567 102.7308,-476.7681 101.254,-469.9257"/>
<text text-anchor="middle" x="125" y="-473" font-family="Helvetica,sans-Serif" font-size="10.00" fill="#000000"> ptr_</text>
</g>
<!-- Node15 -->
<g id="node11" class="node">
<title>Node15</title>
<g id="a_node11"><a xlink:href="struct_urho3_d_1_1_ref_count.html" target="_top" xlink:title="Reference count structure. ">
<polygon fill="none" stroke="#000000" points="204.5,-474.5 204.5,-493.5 308.5,-493.5 308.5,-474.5 204.5,-474.5"/>
<text text-anchor="middle" x="256.5" y="-481.5" font-family="Helvetica,sans-Serif" font-size="10.00" fill="#000000">Urho3D::RefCount</text>
</a>
</g>
</g>
<!-- Node15&#45;&gt;Node50 -->
<g id="edge10" class="edge">
<title>Node15&#45;&gt;Node50</title>
<path fill="none" stroke="#9a32cd" stroke-dasharray="5,2" d="M318.8313,-485.1422C385.9752,-486.3726 492.7717,-488.3296 564.2226,-489.6389"/>
<polygon fill="#9a32cd" stroke="#9a32cd" points="318.877,-481.6425 308.8145,-484.9586 318.7487,-488.6414 318.877,-481.6425"/>
<text text-anchor="middle" x="449.5" y="-491" font-family="Helvetica,sans-Serif" font-size="10.00" fill="#000000"> refCount_</text>
</g>
<!-- Node53 -->
<g id="node12" class="node">
<title>Node53</title>
<g id="a_node12"><a xlink:href="class_urho3_d_1_1_int_rect.html" target="_top" xlink:title="Two&#45;dimensional bounding rectangle with integer values. ">
<polygon fill="none" stroke="#000000" points="592,-823.5 592,-842.5 685,-842.5 685,-823.5 592,-823.5"/>
<text text-anchor="middle" x="638.5" y="-830.5" font-family="Helvetica,sans-Serif" font-size="10.00" fill="#000000">Urho3D::IntRect</text>
</a>
</g>
</g>
<!-- Node53&#45;&gt;Node8 -->
<g id="edge39" class="edge">
<title>Node53&#45;&gt;Node8</title>
<path fill="none" stroke="#9a32cd" stroke-dasharray="5,2" d="M695.4578,-838.0545C768.045,-841.4774 894.1403,-836.9598 978,-776 1220.6565,-599.6067 1304.6156,-198.4232 1317.254,-130.7725"/>
<polygon fill="#9a32cd" stroke="#9a32cd" points="695.3221,-834.5421 685.1478,-837.4976 694.9445,-841.5319 695.3221,-834.5421"/>
<text text-anchor="middle" x="1044.5" y="-765" font-family="Helvetica,sans-Serif" font-size="10.00" fill="#000000"> resizeBorder_</text>
</g>
<!-- Node53&#45;&gt;Node9 -->
<g id="edge29" class="edge">
<title>Node53&#45;&gt;Node9</title>
<path fill="none" stroke="#9a32cd" stroke-dasharray="5,2" d="M695.3242,-825.328C740.7203,-816.5362 803.4143,-798.0779 845,-760 1038.504,-582.818 1149.4431,-264.0559 1168.9052,-204.6657"/>
<polygon fill="#9a32cd" stroke="#9a32cd" points="694.5414,-821.9131 685.3377,-827.1612 695.8054,-828.7981 694.5414,-821.9131"/>
<text text-anchor="middle" x="920.5" y="-764" font-family="Helvetica,sans-Serif" font-size="10.00" fill="#000000"> imageRect_</text>
<text text-anchor="middle" x="920.5" y="-753" font-family="Helvetica,sans-Serif" font-size="10.00" fill="#000000">border_</text>
<text text-anchor="middle" x="920.5" y="-742" font-family="Helvetica,sans-Serif" font-size="10.00" fill="#000000">imageBorder_</text>
</g>
<!-- Node53&#45;&gt;Node10 -->
<g id="edge11" class="edge">
<title>Node53&#45;&gt;Node10</title>
<path fill="none" stroke="#9a32cd" stroke-dasharray="5,2" d="M695.0666,-833.0256C710.3553,-830.3444 725.7599,-824.7776 737,-814 762.0553,-789.9756 730.6722,-762.7608 755,-738 783.9346,-708.5503 814.7342,-743.0799 845,-715 878.2435,-684.1574 910.3567,-539.6295 918.5163,-500.6866"/>
<polygon fill="#9a32cd" stroke="#9a32cd" points="694.5123,-829.5688 685.0813,-834.3966 695.4645,-836.5037 694.5123,-829.5688"/>
<text text-anchor="middle" x="800" y="-752" font-family="Helvetica,sans-Serif" font-size="10.00" fill="#000000"> clipBorder_</text>
<text text-anchor="middle" x="800" y="-741" font-family="Helvetica,sans-Serif" font-size="10.00" fill="#000000">layoutBorder_</text>
</g>
<!-- Node53&#45;&gt;Node53 -->
<g id="edge12" class="edge">
<title>Node53&#45;&gt;Node53</title>
<path fill="none" stroke="#9a32cd" stroke-dasharray="5,2" d="M608.5599,-851.2746C609.4135,-856.741 619.3936,-861 638.5,-861 666.9375,-861 675.1577,-851.5653 663.1606,-842.7571"/>
<polygon fill="#9a32cd" stroke="#9a32cd" points="611.5458,-853.1007 613.8394,-842.7571 605.596,-849.4128 611.5458,-853.1007"/>
<text text-anchor="middle" x="638.5" y="-864" font-family="Helvetica,sans-Serif" font-size="10.00" fill="#000000"> ZERO</text>
</g>
<!-- Node54 -->
<g id="node13" class="node">
<title>Node54</title>
<g id="a_node13"><a xlink:href="class_urho3_d_1_1_vector.html" target="_top" xlink:title="Urho3D::Vector\&lt; Urho3D\l::SharedPtr\&lt; Urho3D::UIElement \&gt; \&gt;">
<polygon fill="none" stroke="#ff0000" points="540,-736 540,-766 737,-766 737,-736 540,-736"/>
<text text-anchor="start" x="548" y="-754" font-family="Helvetica,sans-Serif" font-size="10.00" fill="#000000">Urho3D::Vector&lt; Urho3D</text>
<text text-anchor="middle" x="638.5" y="-743" font-family="Helvetica,sans-Serif" font-size="10.00" fill="#000000">::SharedPtr&lt; Urho3D::UIElement &gt; &gt;</text>
</a>
</g>
</g>
<!-- Node54&#45;&gt;Node10 -->
<g id="edge13" class="edge">
<title>Node54&#45;&gt;Node10</title>
<path fill="none" stroke="#9a32cd" stroke-dasharray="5,2" d="M731.4561,-730.4326C733.3799,-729.0473 735.2324,-727.5717 737,-726 753.716,-711.1365 738.3739,-693.9639 755,-679 785.7704,-651.306 813.3367,-681.6685 845,-655 895.3454,-612.5964 913.8978,-529.4035 918.9395,-500.8752"/>
<polygon fill="#9a32cd" stroke="#9a32cd" points="729.2437,-727.6872 722.6072,-735.946 732.9455,-733.6284 729.2437,-727.6872"/>
<text text-anchor="middle" x="800" y="-682" font-family="Helvetica,sans-Serif" font-size="10.00" fill="#000000"> children_</text>
</g>
<!-- Node55 -->
<g id="node14" class="node">
<title>Node55</title>
<g id="a_node14"><a xlink:href="class_urho3_d_1_1_vector2.html" target="_top" xlink:title="Two&#45;dimensional vector. ">
<polygon fill="none" stroke="#000000" points="590.5,-613.5 590.5,-632.5 686.5,-632.5 686.5,-613.5 590.5,-613.5"/>
<text text-anchor="middle" x="638.5" y="-620.5" font-family="Helvetica,sans-Serif" font-size="10.00" fill="#000000">Urho3D::Vector2</text>
</a>
</g>
</g>
<!-- Node55&#45;&gt;Node10 -->
<g id="edge14" class="edge">
<title>Node55&#45;&gt;Node10</title>
<path fill="none" stroke="#9a32cd" stroke-dasharray="5,2" d="M697.0045,-618.9869C740.5443,-613.7577 799.9748,-601.7177 845,-574 876.6835,-554.4955 903.1168,-517.8929 914.4974,-500.5631"/>
<polygon fill="#9a32cd" stroke="#9a32cd" points="696.4057,-615.5318 686.8549,-620.1178 697.181,-622.4888 696.4057,-615.5318"/>
<text text-anchor="middle" x="800" y="-643" font-family="Helvetica,sans-Serif" font-size="10.00" fill="#000000"> layoutFlexScale_</text>
<text text-anchor="middle" x="800" y="-632" font-family="Helvetica,sans-Serif" font-size="10.00" fill="#000000">anchorMax_</text>
<text text-anchor="middle" x="800" y="-621" font-family="Helvetica,sans-Serif" font-size="10.00" fill="#000000">pivot_</text>
<text text-anchor="middle" x="800" y="-610" font-family="Helvetica,sans-Serif" font-size="10.00" fill="#000000">anchorMin_</text>
</g>
<!-- Node55&#45;&gt;Node55 -->
<g id="edge15" class="edge">
<title>Node55&#45;&gt;Node55</title>
<path fill="none" stroke="#9a32cd" stroke-dasharray="5,2" d="M608.5599,-641.2746C609.4135,-646.741 619.3936,-651 638.5,-651 666.9375,-651 675.1577,-641.5653 663.1606,-632.7571"/>
<polygon fill="#9a32cd" stroke="#9a32cd" points="611.5458,-643.1007 613.8394,-632.7571 605.596,-639.4128 611.5458,-643.1007"/>
<text text-anchor="middle" x="638.5" y="-709" font-family="Helvetica,sans-Serif" font-size="10.00" fill="#000000"> ONE</text>
<text text-anchor="middle" x="638.5" y="-698" font-family="Helvetica,sans-Serif" font-size="10.00" fill="#000000">DOWN</text>
<text text-anchor="middle" x="638.5" y="-687" font-family="Helvetica,sans-Serif" font-size="10.00" fill="#000000">RIGHT</text>
<text text-anchor="middle" x="638.5" y="-676" font-family="Helvetica,sans-Serif" font-size="10.00" fill="#000000">LEFT</text>
<text text-anchor="middle" x="638.5" y="-665" font-family="Helvetica,sans-Serif" font-size="10.00" fill="#000000">ZERO</text>
<text text-anchor="middle" x="638.5" y="-654" font-family="Helvetica,sans-Serif" font-size="10.00" fill="#000000">UP</text>
</g>
<!-- Node28 -->
<g id="node15" class="node">
<title>Node28</title>
<g id="a_node15"><a xlink:href="class_urho3_d_1_1_hash_map.html" target="_top" xlink:title="Urho3D::HashMap\&lt; StringHash,\l Variant \&gt;">
<polygon fill="none" stroke="#ff0000" points="552.5,-564 552.5,-594 724.5,-594 724.5,-564 552.5,-564"/>
<text text-anchor="start" x="560.5" y="-582" font-family="Helvetica,sans-Serif" font-size="10.00" fill="#000000">Urho3D::HashMap&lt; StringHash,</text>
<text text-anchor="middle" x="638.5" y="-571" font-family="Helvetica,sans-Serif" font-size="10.00" fill="#000000"> Variant &gt;</text>
</a>
</g>
</g>
<!-- Node28&#45;&gt;Node10 -->
<g id="edge16" class="edge">
<title>Node28&#45;&gt;Node10</title>
<path fill="none" stroke="#9a32cd" stroke-dasharray="5,2" d="M734.4492,-564.3626C769.8809,-557.3371 809.9264,-547.4483 845,-534 867.817,-525.2513 891.9904,-510.3557 906.6663,-500.5964"/>
<polygon fill="#9a32cd" stroke="#9a32cd" points="733.7401,-560.9347 724.5859,-566.2688 735.0684,-567.8076 733.7401,-560.9347"/>
<text text-anchor="middle" x="800" y="-562" font-family="Helvetica,sans-Serif" font-size="10.00" fill="#000000"> vars_</text>
</g>
<!-- Node48 -->
<g id="node16" class="node">
<title>Node48</title>
<g id="a_node16"><a xlink:href="class_urho3_d_1_1_string.html" target="_top" xlink:title="String class. ">
<polygon fill="none" stroke="#000000" points="212.5,-352.5 212.5,-371.5 300.5,-371.5 300.5,-352.5 212.5,-352.5"/>
<text text-anchor="middle" x="256.5" y="-359.5" font-family="Helvetica,sans-Serif" font-size="10.00" fill="#000000">Urho3D::String</text>
</a>
</g>
</g>
<!-- Node48&#45;&gt;Node10 -->
<g id="edge18" class="edge">
<title>Node48&#45;&gt;Node10</title>
<path fill="none" stroke="#9a32cd" stroke-dasharray="5,2" d="M310.6124,-366.5266C418.5123,-375.808 656.9373,-397.6656 737,-416 800.5724,-430.5581 870.5761,-464.6594 902.6555,-481.3937"/>
<polygon fill="#9a32cd" stroke="#9a32cd" points="310.8498,-363.0342 300.5876,-365.6682 310.2525,-370.0087 310.8498,-363.0342"/>
<text text-anchor="middle" x="638.5" y="-430" font-family="Helvetica,sans-Serif" font-size="10.00" fill="#000000"> appliedStyle_</text>
<text text-anchor="middle" x="638.5" y="-419" font-family="Helvetica,sans-Serif" font-size="10.00" fill="#000000">name_</text>
</g>
<!-- Node48&#45;&gt;Node48 -->
<g id="edge19" class="edge">
<title>Node48&#45;&gt;Node48</title>
<path fill="none" stroke="#9a32cd" stroke-dasharray="5,2" d="M232.3186,-381.0292C233.6376,-386.128 241.6981,-390 256.5,-390 279.6055,-390 286.2844,-380.5653 276.5368,-371.7571"/>
<polygon fill="#9a32cd" stroke="#9a32cd" points="235.5776,-382.3148 236.4632,-371.7571 229.187,-379.4582 235.5776,-382.3148"/>
<text text-anchor="middle" x="256.5" y="-393" font-family="Helvetica,sans-Serif" font-size="10.00" fill="#000000"> EMPTY</text>
</g>
<!-- Node56 -->
<g id="node17" class="node">
<title>Node56</title>
<g id="a_node17"><a xlink:href="class_urho3_d_1_1_x_path_query.html" target="_top" xlink:title="XPath query. ">
<polygon fill="none" stroke="#ff0000" points="580.5,-332.5 580.5,-351.5 696.5,-351.5 696.5,-332.5 580.5,-332.5"/>
<text text-anchor="middle" x="638.5" y="-339.5" font-family="Helvetica,sans-Serif" font-size="10.00" fill="#000000">Urho3D::XPathQuery</text>
</a>
</g>
</g>
<!-- Node48&#45;&gt;Node56 -->
<g id="edge21" class="edge">
<title>Node48&#45;&gt;Node56</title>
<path fill="none" stroke="#9a32cd" stroke-dasharray="5,2" d="M310.8284,-359.1556C382.2378,-355.4169 507.1685,-348.876 580.4045,-345.0416"/>
<polygon fill="#9a32cd" stroke="#9a32cd" points="310.4967,-355.6681 300.6934,-359.6862 310.8628,-362.6585 310.4967,-355.6681"/>
<text text-anchor="middle" x="449.5" y="-358" font-family="Helvetica,sans-Serif" font-size="10.00" fill="#000000"> queryString_</text>
</g>
<!-- Node107 -->
<g id="node25" class="node">
<title>Node107</title>
<g id="a_node25"><a xlink:href="class_urho3_d_1_1_material.html" target="_top" xlink:title="Describes how to render 3D geometries. ">
<polygon fill="none" stroke="#ff0000" points="589,-294.5 589,-313.5 688,-313.5 688,-294.5 589,-294.5"/>
<text text-anchor="middle" x="638.5" y="-301.5" font-family="Helvetica,sans-Serif" font-size="10.00" fill="#000000">Urho3D::Material</text>
</a>
</g>
</g>
<!-- Node48&#45;&gt;Node107 -->
<g id="edge36" class="edge">
<title>Node48&#45;&gt;Node107</title>
<path fill="none" stroke="#9a32cd" stroke-dasharray="5,2" d="M272.2329,-345.0211C293.5358,-323.4155 333.8777,-287.1984 377,-273 438.2118,-252.8455 458.6605,-261.1174 522,-273 530.4365,-274.5827 531.8124,-277.4228 540,-280 557.4605,-285.4959 576.9907,-290.4873 594.0273,-294.4771"/>
<polygon fill="#9a32cd" stroke="#9a32cd" points="269.6869,-342.6191 265.276,-352.2521 274.7314,-347.4724 269.6869,-342.6191"/>
<text text-anchor="start" x="396.5" y="-298" font-family="Helvetica,sans-Serif" font-size="10.00" fill="#000000"> vertexShaderDefines</text>
<text text-anchor="middle" x="449.5" y="-287" font-family="Helvetica,sans-Serif" font-size="10.00" fill="#000000">_</text>
<text text-anchor="middle" x="449.5" y="-276" font-family="Helvetica,sans-Serif" font-size="10.00" fill="#000000">pixelShaderDefines_</text>
</g>
<!-- Node56&#45;&gt;Node10 -->
<g id="edge20" class="edge">
<title>Node56&#45;&gt;Node10</title>
<path fill="none" stroke="#9a32cd" stroke-dasharray="5,2" d="M707.0057,-334.0111C749.8475,-332.4404 804.4046,-337.0018 845,-363 889.5391,-391.5238 911.1605,-456.445 918.0076,-481.18"/>
<polygon fill="#9a32cd" stroke="#9a32cd" points="706.7598,-330.5188 696.9411,-334.4992 707.0989,-337.5106 706.7598,-330.5188"/>
<text text-anchor="middle" x="800" y="-366" font-family="Helvetica,sans-Serif" font-size="10.00" fill="#000000"> styleXPathQuery_</text>
</g>
<!-- Node59&#45;&gt;Node10 -->
<g id="edge22" class="edge">
<title>Node59&#45;&gt;Node10</title>
<path fill="none" stroke="#9a32cd" stroke-dasharray="5,2" d="M324.1725,-438.956C417.4078,-438.2679 590.4798,-439.6871 737,-456 786.7997,-461.5445 843.326,-473.1447 880.3211,-481.4717"/>
<polygon fill="#9a32cd" stroke="#9a32cd" points="323.9993,-435.4573 314.0292,-439.0416 324.0584,-442.457 323.9993,-435.4573"/>
<text text-anchor="middle" x="638.5" y="-459" font-family="Helvetica,sans-Serif" font-size="10.00" fill="#000000"> defaultStyle_</text>
</g>
<!-- Node59&#45;&gt;Node107 -->
<g id="edge37" class="edge">
<title>Node59&#45;&gt;Node107</title>
<path fill="none" stroke="#9a32cd" stroke-dasharray="5,2" d="M323.7273,-431.2607C336.8783,-426.7551 349.5135,-420.024 359,-410 383.1573,-384.4739 350.7128,-356.3268 377,-333 392.5026,-319.2433 517.4683,-310.4161 588.8893,-306.4434"/>
<polygon fill="#9a32cd" stroke="#9a32cd" points="322.6621,-427.9262 314.0978,-434.1635 324.6825,-434.6283 322.6621,-427.9262"/>
<text text-anchor="middle" x="449.5" y="-336" font-family="Helvetica,sans-Serif" font-size="10.00" fill="#000000"> loadXMLFile_</text>
</g>
<!-- Node60 -->
<g id="node19" class="node">
<title>Node60</title>
<g id="a_node19"><a xlink:href="class_urho3_d_1_1_int_vector2.html" target="_top" xlink:title="Two&#45;dimensional vector with integer values. ">
<polygon fill="none" stroke="#000000" points="584,-114.5 584,-133.5 693,-133.5 693,-114.5 584,-114.5"/>
<text text-anchor="middle" x="638.5" y="-121.5" font-family="Helvetica,sans-Serif" font-size="10.00" fill="#000000">Urho3D::IntVector2</text>
</a>
</g>
</g>
<!-- Node60&#45;&gt;Node8 -->
<g id="edge40" class="edge">
<title>Node60&#45;&gt;Node8</title>
<path fill="none" stroke="#9a32cd" stroke-dasharray="5,2" d="M703.1773,-121.0525C791.3143,-117.3844 954.0841,-111.8492 1093,-114 1153.8378,-114.942 1223.8547,-117.3094 1269.6327,-119.0309"/>
<polygon fill="#9a32cd" stroke="#9a32cd" points="702.909,-117.5606 693.0654,-121.4789 703.204,-124.5544 702.909,-117.5606"/>
<text text-anchor="middle" x="1044.5" y="-150" font-family="Helvetica,sans-Serif" font-size="10.00" fill="#000000"> dragBeginPosition_</text>
<text text-anchor="middle" x="1044.5" y="-139" font-family="Helvetica,sans-Serif" font-size="10.00" fill="#000000">modalFrameSize_</text>
<text text-anchor="middle" x="1044.5" y="-128" font-family="Helvetica,sans-Serif" font-size="10.00" fill="#000000">dragBeginCursor_</text>
<text text-anchor="middle" x="1044.5" y="-117" font-family="Helvetica,sans-Serif" font-size="10.00" fill="#000000">dragBeginSize_</text>
</g>
<!-- Node60&#45;&gt;Node9 -->
<g id="edge38" class="edge">
<title>Node60&#45;&gt;Node9</title>
<path fill="none" stroke="#9a32cd" stroke-dasharray="5,2" d="M703.4925,-127.1001C744.2355,-129.4444 797.7965,-133.2575 845,-139 945.3435,-151.2073 1061.7883,-172.9958 1125.0991,-185.4917"/>
<polygon fill="#9a32cd" stroke="#9a32cd" points="703.6023,-123.6008 693.422,-126.5354 703.2104,-130.5898 703.6023,-123.6008"/>
<text text-anchor="middle" x="920.5" y="-172" font-family="Helvetica,sans-Serif" font-size="10.00" fill="#000000"> disabledOffset_</text>
<text text-anchor="middle" x="920.5" y="-161" font-family="Helvetica,sans-Serif" font-size="10.00" fill="#000000">hoverOffset_</text>
</g>
<!-- Node60&#45;&gt;Node10 -->
<g id="edge24" class="edge">
<title>Node60&#45;&gt;Node10</title>
<path fill="none" stroke="#9a32cd" stroke-dasharray="5,2" d="M703.2563,-131.0959C760.0599,-137.9421 835.1232,-148.7482 845,-159 866.3043,-181.1132 856.6383,-265.9601 863,-296 878.3562,-368.5119 907.2111,-453.2769 917.085,-481.3981"/>
<polygon fill="#9a32cd" stroke="#9a32cd" points="703.5831,-127.6102 693.2402,-129.9065 702.7577,-134.5613 703.5831,-127.6102"/>
<text text-anchor="middle" x="800" y="-272" font-family="Helvetica,sans-Serif" font-size="10.00" fill="#000000"> maxSize_</text>
<text text-anchor="middle" x="800" y="-261" font-family="Helvetica,sans-Serif" font-size="10.00" fill="#000000">childOffset_</text>
<text text-anchor="middle" x="800" y="-250" font-family="Helvetica,sans-Serif" font-size="10.00" fill="#000000">minOffset_</text>
<text text-anchor="middle" x="800" y="-239" font-family="Helvetica,sans-Serif" font-size="10.00" fill="#000000">size_</text>
<text text-anchor="middle" x="800" y="-228" font-family="Helvetica,sans-Serif" font-size="10.00" fill="#000000">position_</text>
<text text-anchor="middle" x="800" y="-217" font-family="Helvetica,sans-Serif" font-size="10.00" fill="#000000">maxOffset_</text>
<text text-anchor="start" x="764" y="-206" font-family="Helvetica,sans-Serif" font-size="10.00" fill="#000000">screenPosition</text>
<text text-anchor="middle" x="800" y="-195" font-family="Helvetica,sans-Serif" font-size="10.00" fill="#000000">_</text>
<text text-anchor="start" x="764" y="-184" font-family="Helvetica,sans-Serif" font-size="10.00" fill="#000000">layoutMinSize</text>
<text text-anchor="middle" x="800" y="-173" font-family="Helvetica,sans-Serif" font-size="10.00" fill="#000000">_</text>
<text text-anchor="middle" x="800" y="-162" font-family="Helvetica,sans-Serif" font-size="10.00" fill="#000000">minSize_</text>
</g>
<!-- Node60&#45;&gt;Node60 -->
<g id="edge25" class="edge">
<title>Node60&#45;&gt;Node60</title>
<path fill="none" stroke="#9a32cd" stroke-dasharray="5,2" d="M608.5599,-142.2746C609.4135,-147.741 619.3936,-152 638.5,-152 666.9375,-152 675.1577,-142.5653 663.1606,-133.7571"/>
<polygon fill="#9a32cd" stroke="#9a32cd" points="611.5458,-144.1007 613.8394,-133.7571 605.596,-140.4128 611.5458,-144.1007"/>
<text text-anchor="middle" x="638.5" y="-210" font-family="Helvetica,sans-Serif" font-size="10.00" fill="#000000"> ONE</text>
<text text-anchor="middle" x="638.5" y="-199" font-family="Helvetica,sans-Serif" font-size="10.00" fill="#000000">DOWN</text>
<text text-anchor="middle" x="638.5" y="-188" font-family="Helvetica,sans-Serif" font-size="10.00" fill="#000000">RIGHT</text>
<text text-anchor="middle" x="638.5" y="-177" font-family="Helvetica,sans-Serif" font-size="10.00" fill="#000000">LEFT</text>
<text text-anchor="middle" x="638.5" y="-166" font-family="Helvetica,sans-Serif" font-size="10.00" fill="#000000">ZERO</text>
<text text-anchor="middle" x="638.5" y="-155" font-family="Helvetica,sans-Serif" font-size="10.00" fill="#000000">UP</text>
</g>
<!-- Node61 -->
<g id="node20" class="node">
<title>Node61</title>
<g id="a_node20"><a xlink:href="class_urho3_d_1_1_vector.html" target="_top" xlink:title="Urho3D::Vector\&lt; String \&gt;">
<polygon fill="none" stroke="#ff0000" points="568,-525.5 568,-544.5 709,-544.5 709,-525.5 568,-525.5"/>
<text text-anchor="middle" x="638.5" y="-532.5" font-family="Helvetica,sans-Serif" font-size="10.00" fill="#000000">Urho3D::Vector&lt; String &gt;</text>
</a>
</g>
</g>
<!-- Node61&#45;&gt;Node10 -->
<g id="edge26" class="edge">
<title>Node61&#45;&gt;Node10</title>
<path fill="none" stroke="#9a32cd" stroke-dasharray="5,2" d="M719.4102,-524.7159C757.5824,-519.5883 803.715,-512.9943 845,-506 854.6185,-504.3705 864.8907,-502.4506 874.6616,-500.5384"/>
<polygon fill="#9a32cd" stroke="#9a32cd" points="718.8259,-521.2628 709.3767,-526.0547 719.7518,-528.2013 718.8259,-521.2628"/>
<text text-anchor="middle" x="800" y="-522" font-family="Helvetica,sans-Serif" font-size="10.00" fill="#000000"> tags_</text>
</g>
<!-- Node62 -->
<g id="node21" class="node">
<title>Node62</title>
<g id="a_node21"><a xlink:href="class_urho3_d_1_1_color.html" target="_top" xlink:title="RGBA color. ">
<polygon fill="none" stroke="#000000" points="214,-45.5 214,-64.5 299,-64.5 299,-45.5 214,-45.5"/>
<text text-anchor="middle" x="256.5" y="-52.5" font-family="Helvetica,sans-Serif" font-size="10.00" fill="#000000">Urho3D::Color</text>
</a>
</g>
</g>
<!-- Node62&#45;&gt;Node8 -->
<g id="edge41" class="edge">
<title>Node62&#45;&gt;Node8</title>
<path fill="none" stroke="#9a32cd" stroke-dasharray="5,2" d="M305.8732,-43.2803C378.3562,-27.1288 518.0324,0 638.5,0 638.5,0 638.5,0 1172,0 1241.7451,0 1296.3822,-82.1997 1313.4355,-111.0981"/>
<polygon fill="#9a32cd" stroke="#9a32cd" points="305.0864,-39.8697 296.1004,-45.4825 306.6253,-46.6985 305.0864,-39.8697"/>
<text text-anchor="middle" x="920.5" y="-14" font-family="Helvetica,sans-Serif" font-size="10.00" fill="#000000"> modalShadeColor_</text>
<text text-anchor="middle" x="920.5" y="-3" font-family="Helvetica,sans-Serif" font-size="10.00" fill="#000000">modalFrameColor_</text>
</g>
<!-- Node62&#45;&gt;Node10 -->
<g id="edge27" class="edge">
<title>Node62&#45;&gt;Node10</title>
<path fill="none" stroke="#9a32cd" stroke-dasharray="5,2" d="M276.6456,-70.8624C321.2818,-105.1545 433.0395,-186.3681 540,-227 623.2042,-258.6074 657.5968,-222.7866 737,-263 746.8168,-267.9717 745.5014,-274.4445 755,-280 791.1603,-301.1494 814.0806,-279.736 845,-308 899.0319,-357.3915 915.4182,-451.279 919.3985,-481.4258"/>
<polygon fill="#9a32cd" stroke="#9a32cd" points="278.6833,-68.0136 268.6347,-64.6556 274.396,-73.547 278.6833,-68.0136"/>
<text text-anchor="middle" x="638.5" y="-277" font-family="Helvetica,sans-Serif" font-size="10.00" fill="#000000"> derivedColor_</text>
<text text-anchor="middle" x="638.5" y="-266" font-family="Helvetica,sans-Serif" font-size="10.00" fill="#000000">colors_</text>
</g>
<!-- Node62&#45;&gt;Node62 -->
<g id="edge28" class="edge">
<title>Node62&#45;&gt;Node62</title>
<path fill="none" stroke="#9a32cd" stroke-dasharray="5,2" d="M232.3186,-74.0292C233.6376,-79.128 241.6981,-83 256.5,-83 279.6055,-83 286.2844,-73.5653 276.5368,-64.7571"/>
<polygon fill="#9a32cd" stroke="#9a32cd" points="235.5776,-75.3148 236.4632,-64.7571 229.187,-72.4582 235.5776,-75.3148"/>
<text text-anchor="middle" x="256.5" y="-196" font-family="Helvetica,sans-Serif" font-size="10.00" fill="#000000"> TRANSPARENT_BLACK</text>
<text text-anchor="middle" x="256.5" y="-185" font-family="Helvetica,sans-Serif" font-size="10.00" fill="#000000">CYAN</text>
<text text-anchor="middle" x="256.5" y="-174" font-family="Helvetica,sans-Serif" font-size="10.00" fill="#000000">GRAY</text>
<text text-anchor="middle" x="256.5" y="-163" font-family="Helvetica,sans-Serif" font-size="10.00" fill="#000000">YELLOW</text>
<text text-anchor="middle" x="256.5" y="-152" font-family="Helvetica,sans-Serif" font-size="10.00" fill="#000000">MAGENTA</text>
<text text-anchor="middle" x="256.5" y="-141" font-family="Helvetica,sans-Serif" font-size="10.00" fill="#000000">WHITE</text>
<text text-anchor="middle" x="256.5" y="-130" font-family="Helvetica,sans-Serif" font-size="10.00" fill="#000000">BLUE</text>
<text text-anchor="middle" x="256.5" y="-119" font-family="Helvetica,sans-Serif" font-size="10.00" fill="#000000">BLACK</text>
<text text-anchor="middle" x="256.5" y="-108" font-family="Helvetica,sans-Serif" font-size="10.00" fill="#000000">RED</text>
<text text-anchor="middle" x="256.5" y="-97" font-family="Helvetica,sans-Serif" font-size="10.00" fill="#000000">GREEN</text>
<text text-anchor="middle" x="256.5" y="-86" font-family="Helvetica,sans-Serif" font-size="10.00" fill="#000000">...</text>
</g>
<!-- Node64 -->
<g id="node23" class="node">
<title>Node64</title>
<g id="a_node23"><a xlink:href="class_urho3_d_1_1_texture.html" target="_top" xlink:title="Base class for texture resources. ">
<polygon fill="none" stroke="#ff0000" points="591,-45.5 591,-64.5 686,-64.5 686,-45.5 591,-45.5"/>
<text text-anchor="middle" x="638.5" y="-52.5" font-family="Helvetica,sans-Serif" font-size="10.00" fill="#000000">Urho3D::Texture</text>
</a>
</g>
</g>
<!-- Node62&#45;&gt;Node64 -->
<g id="edge33" class="edge">
<title>Node62&#45;&gt;Node64</title>
<path fill="none" stroke="#9a32cd" stroke-dasharray="5,2" d="M309.3171,-55C383.8934,-55 518.9454,-55 590.6954,-55"/>
<polygon fill="#9a32cd" stroke="#9a32cd" points="309.2084,-51.5001 299.2083,-55 309.2083,-58.5001 309.2084,-51.5001"/>
<text text-anchor="middle" x="449.5" y="-58" font-family="Helvetica,sans-Serif" font-size="10.00" fill="#000000"> borderColor_</text>
</g>
<!-- Node63 -->
<g id="node22" class="node">
<title>Node63</title>
<g id="a_node22"><a xlink:href="class_urho3_d_1_1_shared_ptr.html" target="_top" xlink:title="Urho3D::SharedPtr\&lt;\l Urho3D::Texture \&gt;">
<polygon fill="none" stroke="#000000" points="863,-41 863,-71 978,-71 978,-41 863,-41"/>
<text text-anchor="start" x="871" y="-59" font-family="Helvetica,sans-Serif" font-size="10.00" fill="#000000">Urho3D::SharedPtr&lt;</text>
<text text-anchor="middle" x="920.5" y="-48" font-family="Helvetica,sans-Serif" font-size="10.00" fill="#000000"> Urho3D::Texture &gt;</text>
</a>
</g>
</g>
<!-- Node63&#45;&gt;Node9 -->
<g id="edge30" class="edge">
<title>Node63&#45;&gt;Node9</title>
<path fill="none" stroke="#9a32cd" stroke-dasharray="5,2" d="M988.2403,-46.3388C1021.9423,-44.8553 1061.9909,-48.3802 1093,-67 1139.1191,-94.6927 1162.1695,-160.7003 1169.4143,-185.4281"/>
<polygon fill="#9a32cd" stroke="#9a32cd" points="987.776,-42.8601 978.0019,-46.9488 988.1924,-49.8478 987.776,-42.8601"/>
<text text-anchor="middle" x="1044.5" y="-70" font-family="Helvetica,sans-Serif" font-size="10.00" fill="#000000"> texture_</text>
</g>
<!-- Node63&#45;&gt;Node64 -->
<g id="edge32" class="edge">
<title>Node63&#45;&gt;Node64</title>
<path fill="none" stroke="#9a32cd" stroke-dasharray="5,2" d="M853.0798,-40.9863C850.3578,-40.6105 847.6568,-40.2784 845,-40 790.6609,-34.3055 728.0502,-40.6613 686.147,-46.7652"/>
<polygon fill="#9a32cd" stroke="#9a32cd" points="852.5697,-44.4489 862.9874,-42.5197 853.6404,-37.5313 852.5697,-44.4489"/>
<text text-anchor="middle" x="800" y="-43" font-family="Helvetica,sans-Serif" font-size="10.00" fill="#000000"> backupTexture_</text>
</g>
<!-- Node64&#45;&gt;Node63 -->
<g id="edge31" class="edge">
<title>Node64&#45;&gt;Node63</title>
<path fill="none" stroke="#9a32cd" stroke-dasharray="5,2" d="M696.0722,-55.2042C744.728,-55.3767 814.0817,-55.6226 862.7796,-55.7953"/>
<polygon fill="#9a32cd" stroke="#9a32cd" points="696.031,-51.7041 686.0186,-55.1685 696.0061,-58.704 696.031,-51.7041"/>
<text text-anchor="middle" x="800" y="-58" font-family="Helvetica,sans-Serif" font-size="10.00" fill="#000000"> ptr_</text>
</g>
<!-- Node106 -->
<g id="node24" class="node">
<title>Node106</title>
<g id="a_node24"><a xlink:href="class_urho3_d_1_1_shared_ptr.html" target="_top" xlink:title="Urho3D::SharedPtr\&lt;\l Urho3D::Material \&gt;">
<polygon fill="none" stroke="#000000" points="863,-256 863,-286 978,-286 978,-256 863,-256"/>
<text text-anchor="start" x="871" y="-274" font-family="Helvetica,sans-Serif" font-size="10.00" fill="#000000">Urho3D::SharedPtr&lt;</text>
<text text-anchor="middle" x="920.5" y="-263" font-family="Helvetica,sans-Serif" font-size="10.00" fill="#000000"> Urho3D::Material &gt;</text>
</a>
</g>
</g>
<!-- Node106&#45;&gt;Node9 -->
<g id="edge34" class="edge">
<title>Node106&#45;&gt;Node9</title>
<path fill="none" stroke="#9a32cd" stroke-dasharray="5,2" d="M979.9562,-253.0331C1030.1868,-237.8541 1100.1805,-216.7029 1140.3205,-204.5731"/>
<polygon fill="#9a32cd" stroke="#9a32cd" points="978.7483,-249.7417 970.1883,-255.9848 980.7733,-256.4425 978.7483,-249.7417"/>
<text text-anchor="middle" x="1044.5" y="-249" font-family="Helvetica,sans-Serif" font-size="10.00" fill="#000000"> material_</text>
</g>
<!-- Node107&#45;&gt;Node106 -->
<g id="edge35" class="edge">
<title>Node107&#45;&gt;Node106</title>
<path fill="none" stroke="#9a32cd" stroke-dasharray="5,2" d="M698.4049,-298.8059C739.6795,-295.0073 795.7514,-289.4128 845,-283 850.7909,-282.246 856.8215,-281.3966 862.8383,-280.507"/>
<polygon fill="#9a32cd" stroke="#9a32cd" points="697.8842,-295.3388 688.2433,-299.7324 698.5198,-302.3099 697.8842,-295.3388"/>
<text text-anchor="middle" x="800" y="-295" font-family="Helvetica,sans-Serif" font-size="10.00" fill="#000000"> ptr_</text>
</g>
</g>
</svg>
