<?xml version="1.0" encoding="UTF-8" standalone="no"?>
<!DOCTYPE svg PUBLIC "-//W3C//DTD SVG 1.1//EN"
 "http://www.w3.org/Graphics/SVG/1.1/DTD/svg11.dtd">
<!-- Generated by graphviz version 2.36.0 (20140111.2315)
 -->
<!-- Title: Urho3D::OcclusionBuffer Pages: 1 -->
<svg width="1052pt" height="1099pt"
 viewBox="0.00 0.00 1052.00 1099.00" xmlns="http://www.w3.org/2000/svg" xmlns:xlink="http://www.w3.org/1999/xlink">
<g id="graph0" class="graph" transform="scale(1 1) rotate(0) translate(4 1095)">
<title>Urho3D::OcclusionBuffer</title>
<!-- Node1 -->
<g id="node1" class="node"><title>Node1</title>
<polygon fill="#bfbfbf" stroke="black" points="914,-866.5 914,-885.5 1040,-885.5 1040,-866.5 914,-866.5"/>
<text text-anchor="middle" x="977" y="-873.5" font-family="Helvetica,sans-Serif" font-size="10.00">Urho3D::OcclusionBuffer</text>
</g>
<!-- Node2 -->
<g id="node2" class="node"><title>Node2</title>
<g id="a_node2"><a xlink:href="class_urho3_d_1_1_object.html" target="_top" xlink:title="Base class for objects with type identification, subsystem access and event sending/receiving capabil...">
<polygon fill="none" stroke="black" points="347.5,-537.5 347.5,-556.5 432.5,-556.5 432.5,-537.5 347.5,-537.5"/>
<text text-anchor="middle" x="390" y="-544.5" font-family="Helvetica,sans-Serif" font-size="10.00">Urho3D::Object</text>
</a>
</g>
</g>
<!-- Node2&#45;&gt;Node1 -->
<g id="edge1" class="edge"><title>Node2&#45;&gt;Node1</title>
<path fill="none" stroke="midnightblue" d="M402.492,-565.604C423.232,-597.398 470.182,-661.686 528,-692 677.23,-770.242 749.041,-708.814 892,-798 923.574,-817.698 953.842,-850.238 967.864,-866.348"/>
<polygon fill="midnightblue" stroke="midnightblue" points="405.241,-563.405 396.914,-556.853 399.338,-567.167 405.241,-563.405"/>
</g>
<!-- Node11 -->
<g id="node11" class="node"><title>Node11</title>
<g id="a_node11"><a xlink:href="class_urho3_d_1_1_event_handler.html" target="_top" xlink:title="Internal helper class for invoking event handler functions. ">
<polygon fill="none" stroke="red" points="587,-470.5 587,-489.5 703,-489.5 703,-470.5 587,-470.5"/>
<text text-anchor="middle" x="645" y="-477.5" font-family="Helvetica,sans-Serif" font-size="10.00">Urho3D::EventHandler</text>
</a>
</g>
</g>
<!-- Node2&#45;&gt;Node11 -->
<g id="edge15" class="edge"><title>Node2&#45;&gt;Node11</title>
<path fill="none" stroke="#9a32cd" stroke-dasharray="5,2" d="M441.775,-534.252C445.387,-532.435 448.843,-530.362 452,-528 463.548,-519.36 457.716,-508.556 470,-501 504.729,-479.638 550.775,-474.886 586.775,-475.208"/>
<polygon fill="#9a32cd" stroke="#9a32cd" points="440.33,-531.064 432.559,-538.266 443.125,-537.482 440.33,-531.064"/>
<text text-anchor="middle" x="490" y="-515" font-family="Helvetica,sans-Serif" font-size="10.00"> sender_</text>
<text text-anchor="middle" x="490" y="-504" font-family="Helvetica,sans-Serif" font-size="10.00">receiver_</text>
</g>
<!-- Node3 -->
<g id="node3" class="node"><title>Node3</title>
<g id="a_node3"><a xlink:href="class_urho3_d_1_1_ref_counted.html" target="_top" xlink:title="Base class for intrusively reference&#45;counted objects. These are noncopyable and non&#45;assignable. ">
<polygon fill="none" stroke="black" points="180.5,-464.5 180.5,-483.5 289.5,-483.5 289.5,-464.5 180.5,-464.5"/>
<text text-anchor="middle" x="235" y="-471.5" font-family="Helvetica,sans-Serif" font-size="10.00">Urho3D::RefCounted</text>
</a>
</g>
</g>
<!-- Node3&#45;&gt;Node2 -->
<g id="edge2" class="edge"><title>Node3&#45;&gt;Node2</title>
<path fill="none" stroke="midnightblue" d="M258.806,-489.377C276.963,-501.122 303.335,-517.093 328,-528 336.116,-531.589 345.116,-534.79 353.656,-537.496"/>
<polygon fill="midnightblue" stroke="midnightblue" points="260.393,-486.232 250.113,-483.67 256.552,-492.084 260.393,-486.232"/>
</g>
<!-- Node5 -->
<g id="node5" class="node"><title>Node5</title>
<g id="a_node5"><a xlink:href="class_urho3_d_1_1_context.html" target="_top" xlink:title="Urho3D execution context. Provides access to subsystems, object factories and attributes, and event receivers. ">
<polygon fill="none" stroke="black" points="931.5,-361.5 931.5,-380.5 1022.5,-380.5 1022.5,-361.5 931.5,-361.5"/>
<text text-anchor="middle" x="977" y="-368.5" font-family="Helvetica,sans-Serif" font-size="10.00">Urho3D::Context</text>
</a>
</g>
</g>
<!-- Node3&#45;&gt;Node5 -->
<g id="edge5" class="edge"><title>Node3&#45;&gt;Node5</title>
<path fill="none" stroke="midnightblue" d="M300.016,-464.529C309.392,-463.265 318.939,-462.047 328,-461 520.387,-438.778 569.753,-445.402 762,-422 820.029,-414.936 835.405,-416.638 892,-402 913.521,-396.434 937.209,-387.413 953.928,-380.534"/>
<polygon fill="midnightblue" stroke="midnightblue" points="299.371,-461.084 289.94,-465.911 300.323,-468.019 299.371,-461.084"/>
</g>
<!-- Node4 -->
<g id="node4" class="node"><title>Node4</title>
<g id="a_node4"><a xlink:href="struct_urho3_d_1_1_ref_count.html" target="_top" xlink:title="Reference count structure. ">
<polygon fill="none" stroke="black" points="0,-464.5 0,-483.5 98,-483.5 98,-464.5 0,-464.5"/>
<text text-anchor="middle" x="49" y="-471.5" font-family="Helvetica,sans-Serif" font-size="10.00">Urho3D::RefCount</text>
</a>
</g>
</g>
<!-- Node4&#45;&gt;Node3 -->
<g id="edge3" class="edge"><title>Node4&#45;&gt;Node3</title>
<path fill="none" stroke="#9a32cd" stroke-dasharray="5,2" d="M108.364,-474C131.473,-474 157.864,-474 180.474,-474"/>
<polygon fill="#9a32cd" stroke="#9a32cd" points="108.344,-470.5 98.3438,-474 108.344,-477.5 108.344,-470.5"/>
<text text-anchor="middle" x="139" y="-477" font-family="Helvetica,sans-Serif" font-size="10.00"> refCount_</text>
</g>
<!-- Node5&#45;&gt;Node2 -->
<g id="edge4" class="edge"><title>Node5&#45;&gt;Node2</title>
<path fill="none" stroke="#9a32cd" stroke-dasharray="5,2" d="M969.438,-390.204C958.444,-419.121 933.348,-473.104 892,-498 887.081,-500.962 552.309,-532.11 432.812,-543.148"/>
<polygon fill="#9a32cd" stroke="#9a32cd" points="972.735,-391.379 972.855,-380.785 966.155,-388.992 972.735,-391.379"/>
<text text-anchor="middle" x="645" y="-537" font-family="Helvetica,sans-Serif" font-size="10.00"> context_</text>
</g>
<!-- Node6 -->
<g id="node6" class="node"><title>Node6</title>
<g id="a_node6"><a xlink:href="class_urho3_d_1_1_hash_map.html" target="_top" xlink:title="Urho3D::HashMap\&lt; Urho3D\l::Object *, Urho3D::HashMap\l\&lt; Urho3D::StringHash, Urho3D\l::SharedPtr\&lt; Urho3D::EventReceiverGroup \&gt; \&gt; \&gt;">
<polygon fill="none" stroke="black" points="528.5,-252 528.5,-304 761.5,-304 761.5,-252 528.5,-252"/>
<text text-anchor="start" x="536.5" y="-292" font-family="Helvetica,sans-Serif" font-size="10.00">Urho3D::HashMap&lt; Urho3D</text>
<text text-anchor="start" x="536.5" y="-281" font-family="Helvetica,sans-Serif" font-size="10.00">::Object *, Urho3D::HashMap</text>
<text text-anchor="start" x="536.5" y="-270" font-family="Helvetica,sans-Serif" font-size="10.00">&lt; Urho3D::StringHash, Urho3D</text>
<text text-anchor="middle" x="645" y="-259" font-family="Helvetica,sans-Serif" font-size="10.00">::SharedPtr&lt; Urho3D::EventReceiverGroup &gt; &gt; &gt;</text>
</a>
</g>
</g>
<!-- Node6&#45;&gt;Node5 -->
<g id="edge6" class="edge"><title>Node6&#45;&gt;Node5</title>
<path fill="none" stroke="#9a32cd" stroke-dasharray="5,2" d="M766.638,-306.533C806.744,-316.645 851.495,-328.609 892,-341 912.139,-347.161 934.587,-355.242 951.208,-361.465"/>
<polygon fill="#9a32cd" stroke="#9a32cd" points="767.369,-303.108 756.818,-304.07 765.666,-309.898 767.369,-303.108"/>
<text text-anchor="middle" x="836" y="-344" font-family="Helvetica,sans-Serif" font-size="10.00"> specificEventReceivers_</text>
</g>
<!-- Node7 -->
<g id="node7" class="node"><title>Node7</title>
<g id="a_node7"><a xlink:href="class_urho3_d_1_1_hash_base.html" target="_top" xlink:title="Hash set/map base class. ">
<polygon fill="none" stroke="red" points="339,-197.5 339,-216.5 441,-216.5 441,-197.5 339,-197.5"/>
<text text-anchor="middle" x="390" y="-204.5" font-family="Helvetica,sans-Serif" font-size="10.00">Urho3D::HashBase</text>
</a>
</g>
</g>
<!-- Node7&#45;&gt;Node6 -->
<g id="edge7" class="edge"><title>Node7&#45;&gt;Node6</title>
<path fill="none" stroke="midnightblue" d="M434.793,-219.29C466.822,-228.278 511.444,-240.801 551.255,-251.973"/>
<polygon fill="midnightblue" stroke="midnightblue" points="435.432,-215.834 424.858,-216.502 433.541,-222.574 435.432,-215.834"/>
</g>
<!-- Node8 -->
<g id="node8" class="node"><title>Node8</title>
<g id="a_node8"><a xlink:href="class_urho3_d_1_1_hash_map.html" target="_top" xlink:title="Urho3D::HashMap\&lt; Urho3D\l::StringHash, Urho3D::\lSharedPtr\&lt; Urho3D::EventReceiver\lGroup \&gt; \&gt;">
<polygon fill="none" stroke="black" points="558.5,-181 558.5,-233 731.5,-233 731.5,-181 558.5,-181"/>
<text text-anchor="start" x="566.5" y="-221" font-family="Helvetica,sans-Serif" font-size="10.00">Urho3D::HashMap&lt; Urho3D</text>
<text text-anchor="start" x="566.5" y="-210" font-family="Helvetica,sans-Serif" font-size="10.00">::StringHash, Urho3D::</text>
<text text-anchor="start" x="566.5" y="-199" font-family="Helvetica,sans-Serif" font-size="10.00">SharedPtr&lt; Urho3D::EventReceiver</text>
<text text-anchor="middle" x="645" y="-188" font-family="Helvetica,sans-Serif" font-size="10.00">Group &gt; &gt;</text>
</a>
</g>
</g>
<!-- Node7&#45;&gt;Node8 -->
<g id="edge9" class="edge"><title>Node7&#45;&gt;Node8</title>
<path fill="none" stroke="midnightblue" d="M451.39,-207C483.406,-207 523.28,-207 558.428,-207"/>
<polygon fill="midnightblue" stroke="midnightblue" points="451.287,-203.5 441.287,-207 451.287,-210.5 451.287,-203.5"/>
</g>
<!-- Node13 -->
<g id="node13" class="node"><title>Node13</title>
<g id="a_node13"><a xlink:href="class_urho3_d_1_1_hash_map.html" target="_top" xlink:title="Urho3D::HashMap\&lt; StringHash,\l Variant \&gt;">
<polygon fill="none" stroke="black" points="565.5,-383 565.5,-413 724.5,-413 724.5,-383 565.5,-383"/>
<text text-anchor="start" x="573.5" y="-401" font-family="Helvetica,sans-Serif" font-size="10.00">Urho3D::HashMap&lt; StringHash,</text>
<text text-anchor="middle" x="645" y="-390" font-family="Helvetica,sans-Serif" font-size="10.00"> Variant &gt;</text>
</a>
</g>
</g>
<!-- Node7&#45;&gt;Node13 -->
<g id="edge17" class="edge"><title>Node7&#45;&gt;Node13</title>
<path fill="none" stroke="midnightblue" d="M400.869,-225.974C420.187,-261.086 466.526,-335.98 528,-373 539.383,-379.855 552.394,-384.843 565.49,-388.469"/>
<polygon fill="midnightblue" stroke="midnightblue" points="403.765,-223.968 395.95,-216.814 397.598,-227.28 403.765,-223.968"/>
</g>
<!-- Node14 -->
<g id="node14" class="node"><title>Node14</title>
<g id="a_node14"><a xlink:href="class_urho3_d_1_1_hash_map.html" target="_top" xlink:title="Urho3D::HashMap\&lt; Urho3D\l::StringHash, Urho3D::\lSharedPtr\&lt; Urho3D::Object \&gt; \&gt;">
<polygon fill="none" stroke="black" points="567.5,-323.5 567.5,-364.5 722.5,-364.5 722.5,-323.5 567.5,-323.5"/>
<text text-anchor="start" x="575.5" y="-352.5" font-family="Helvetica,sans-Serif" font-size="10.00">Urho3D::HashMap&lt; Urho3D</text>
<text text-anchor="start" x="575.5" y="-341.5" font-family="Helvetica,sans-Serif" font-size="10.00">::StringHash, Urho3D::</text>
<text text-anchor="middle" x="645" y="-330.5" font-family="Helvetica,sans-Serif" font-size="10.00">SharedPtr&lt; Urho3D::Object &gt; &gt;</text>
</a>
</g>
</g>
<!-- Node7&#45;&gt;Node14 -->
<g id="edge19" class="edge"><title>Node7&#45;&gt;Node14</title>
<path fill="none" stroke="midnightblue" d="M408.09,-223.952C432.593,-247.329 480.06,-289.259 528,-313 540.236,-319.059 553.804,-324.048 567.222,-328.116"/>
<polygon fill="midnightblue" stroke="midnightblue" points="410.312,-221.231 400.693,-216.788 405.442,-226.259 410.312,-221.231"/>
</g>
<!-- Node16 -->
<g id="node16" class="node"><title>Node16</title>
<g id="a_node16"><a xlink:href="class_urho3_d_1_1_hash_map.html" target="_top" xlink:title="Urho3D::HashMap\&lt; Urho3D\l::StringHash, Urho3D::\lSharedPtr\&lt; Urho3D::ObjectFactory \&gt; \&gt;">
<polygon fill="none" stroke="black" points="551,-60.5 551,-101.5 739,-101.5 739,-60.5 551,-60.5"/>
<text text-anchor="start" x="559" y="-89.5" font-family="Helvetica,sans-Serif" font-size="10.00">Urho3D::HashMap&lt; Urho3D</text>
<text text-anchor="start" x="559" y="-78.5" font-family="Helvetica,sans-Serif" font-size="10.00">::StringHash, Urho3D::</text>
<text text-anchor="middle" x="645" y="-67.5" font-family="Helvetica,sans-Serif" font-size="10.00">SharedPtr&lt; Urho3D::ObjectFactory &gt; &gt;</text>
</a>
</g>
</g>
<!-- Node7&#45;&gt;Node16 -->
<g id="edge23" class="edge"><title>Node7&#45;&gt;Node16</title>
<path fill="none" stroke="midnightblue" d="M409.521,-190.714C434.669,-169.414 481.796,-132.31 528,-111 535.556,-107.515 543.582,-104.387 551.748,-101.589"/>
<polygon fill="midnightblue" stroke="midnightblue" points="407.175,-188.115 401.869,-197.286 411.736,-193.426 407.175,-188.115"/>
</g>
<!-- Node17 -->
<g id="node17" class="node"><title>Node17</title>
<g id="a_node17"><a xlink:href="class_urho3_d_1_1_hash_map.html" target="_top" xlink:title="Urho3D::HashMap\&lt; Urho3D\l::String, Urho3D::Vector\l\&lt; Urho3D::StringHash \&gt; \&gt;">
<polygon fill="none" stroke="black" points="574.5,-0.5 574.5,-41.5 715.5,-41.5 715.5,-0.5 574.5,-0.5"/>
<text text-anchor="start" x="582.5" y="-29.5" font-family="Helvetica,sans-Serif" font-size="10.00">Urho3D::HashMap&lt; Urho3D</text>
<text text-anchor="start" x="582.5" y="-18.5" font-family="Helvetica,sans-Serif" font-size="10.00">::String, Urho3D::Vector</text>
<text text-anchor="middle" x="645" y="-7.5" font-family="Helvetica,sans-Serif" font-size="10.00">&lt; Urho3D::StringHash &gt; &gt;</text>
</a>
</g>
</g>
<!-- Node7&#45;&gt;Node17 -->
<g id="edge25" class="edge"><title>Node7&#45;&gt;Node17</title>
<path fill="none" stroke="midnightblue" d="M401.92,-188.512C422.349,-155.598 469.604,-86.9325 528,-51 541.996,-42.388 558.4,-36.2343 574.394,-31.8418"/>
<polygon fill="midnightblue" stroke="midnightblue" points="398.874,-186.785 396.67,-197.148 404.856,-190.422 398.874,-186.785"/>
</g>
<!-- Node18 -->
<g id="node18" class="node"><title>Node18</title>
<g id="a_node18"><a xlink:href="class_urho3_d_1_1_hash_map.html" target="_top" xlink:title="Urho3D::HashMap\&lt; Urho3D\l::StringHash, Urho3D::\lVector\&lt; Urho3D::AttributeInfo \&gt; \&gt;">
<polygon fill="none" stroke="black" points="562.5,-120.5 562.5,-161.5 727.5,-161.5 727.5,-120.5 562.5,-120.5"/>
<text text-anchor="start" x="570.5" y="-149.5" font-family="Helvetica,sans-Serif" font-size="10.00">Urho3D::HashMap&lt; Urho3D</text>
<text text-anchor="start" x="570.5" y="-138.5" font-family="Helvetica,sans-Serif" font-size="10.00">::StringHash, Urho3D::</text>
<text text-anchor="middle" x="645" y="-127.5" font-family="Helvetica,sans-Serif" font-size="10.00">Vector&lt; Urho3D::AttributeInfo &gt; &gt;</text>
</a>
</g>
</g>
<!-- Node7&#45;&gt;Node18 -->
<g id="edge27" class="edge"><title>Node7&#45;&gt;Node18</title>
<path fill="none" stroke="midnightblue" d="M436.85,-194.904C463.457,-187.897 497.614,-178.921 528,-171 539.775,-167.93 552.226,-164.697 564.429,-161.535"/>
<polygon fill="midnightblue" stroke="midnightblue" points="435.824,-191.555 427.046,-197.487 437.608,-198.324 435.824,-191.555"/>
</g>
<!-- Node8&#45;&gt;Node5 -->
<g id="edge8" class="edge"><title>Node8&#45;&gt;Node5</title>
<path fill="none" stroke="#9a32cd" stroke-dasharray="5,2" d="M741.418,-231.628C788.874,-246.371 845.805,-267.96 892,-297 922.275,-316.032 952.424,-345.934 966.988,-361.249"/>
<polygon fill="#9a32cd" stroke="#9a32cd" points="742.337,-228.249 731.751,-228.678 740.294,-234.945 742.337,-228.249"/>
<text text-anchor="middle" x="836" y="-300" font-family="Helvetica,sans-Serif" font-size="10.00"> eventReceivers_</text>
</g>
<!-- Node9 -->
<g id="node9" class="node"><title>Node9</title>
<g id="a_node9"><a xlink:href="class_urho3_d_1_1_p_o_d_vector.html" target="_top" xlink:title="Urho3D::PODVector\&lt;\l Urho3D::Object * \&gt;">
<polygon fill="none" stroke="black" points="588.5,-605 588.5,-635 701.5,-635 701.5,-605 588.5,-605"/>
<text text-anchor="start" x="596.5" y="-623" font-family="Helvetica,sans-Serif" font-size="10.00">Urho3D::PODVector&lt;</text>
<text text-anchor="middle" x="645" y="-612" font-family="Helvetica,sans-Serif" font-size="10.00"> Urho3D::Object * &gt;</text>
</a>
</g>
</g>
<!-- Node9&#45;&gt;Node5 -->
<g id="edge10" class="edge"><title>Node9&#45;&gt;Node5</title>
<path fill="none" stroke="#9a32cd" stroke-dasharray="5,2" d="M711.924,-610.362C782.37,-599.821 884.95,-583.669 892,-578 957.287,-525.507 972.203,-414.23 975.27,-380.737"/>
<polygon fill="#9a32cd" stroke="#9a32cd" points="711.154,-606.938 701.779,-611.875 712.186,-613.862 711.154,-606.938"/>
<text text-anchor="middle" x="836" y="-602" font-family="Helvetica,sans-Serif" font-size="10.00"> eventSenders_</text>
</g>
<!-- Node10 -->
<g id="node10" class="node"><title>Node10</title>
<g id="a_node10"><a xlink:href="class_urho3_d_1_1_vector_base.html" target="_top" xlink:title="Vector base class. ">
<polygon fill="none" stroke="black" points="336.5,-768.5 336.5,-787.5 443.5,-787.5 443.5,-768.5 336.5,-768.5"/>
<text text-anchor="middle" x="390" y="-775.5" font-family="Helvetica,sans-Serif" font-size="10.00">Urho3D::VectorBase</text>
</a>
</g>
</g>
<!-- Node10&#45;&gt;Node9 -->
<g id="edge11" class="edge"><title>Node10&#45;&gt;Node9</title>
<path fill="none" stroke="midnightblue" d="M418.151,-763.437C444.551,-748.126 484.323,-721.853 510,-690 522.235,-674.822 513.096,-662.567 528,-650 544.778,-635.854 567.428,-628.272 588.26,-624.247"/>
<polygon fill="midnightblue" stroke="midnightblue" points="416.391,-760.412 409.416,-768.387 419.842,-766.502 416.391,-760.412"/>
</g>
<!-- Node15 -->
<g id="node15" class="node"><title>Node15</title>
<g id="a_node15"><a xlink:href="class_urho3_d_1_1_p_o_d_vector.html" target="_top" xlink:title="Urho3D::PODVector\&lt;\l Urho3D::HashMap * \&gt;">
<polygon fill="none" stroke="black" points="586.5,-556 586.5,-586 703.5,-586 703.5,-556 586.5,-556"/>
<text text-anchor="start" x="594.5" y="-574" font-family="Helvetica,sans-Serif" font-size="10.00">Urho3D::PODVector&lt;</text>
<text text-anchor="middle" x="645" y="-563" font-family="Helvetica,sans-Serif" font-size="10.00"> Urho3D::HashMap * &gt;</text>
</a>
</g>
</g>
<!-- Node10&#45;&gt;Node15 -->
<g id="edge21" class="edge"><title>Node10&#45;&gt;Node15</title>
<path fill="none" stroke="midnightblue" d="M399.587,-758.673C417.524,-720.697 462.784,-636.443 528,-595 545.27,-584.025 566.639,-577.956 586.312,-574.637"/>
<polygon fill="midnightblue" stroke="midnightblue" points="396.258,-757.535 395.258,-768.083 402.617,-760.461 396.258,-757.535"/>
</g>
<!-- Node20 -->
<g id="node20" class="node"><title>Node20</title>
<g id="a_node20"><a xlink:href="class_urho3_d_1_1_p_o_d_vector.html" target="_top" xlink:title="Urho3D::PODVector\&lt;\l Urho3D::OcclusionBatch \&gt;">
<polygon fill="none" stroke="black" points="576.5,-1061 576.5,-1091 713.5,-1091 713.5,-1061 576.5,-1061"/>
<text text-anchor="start" x="584.5" y="-1079" font-family="Helvetica,sans-Serif" font-size="10.00">Urho3D::PODVector&lt;</text>
<text text-anchor="middle" x="645" y="-1068" font-family="Helvetica,sans-Serif" font-size="10.00"> Urho3D::OcclusionBatch &gt;</text>
</a>
</g>
</g>
<!-- Node10&#45;&gt;Node20 -->
<g id="edge31" class="edge"><title>Node10&#45;&gt;Node20</title>
<path fill="none" stroke="midnightblue" d="M394.765,-797.574C405.578,-848.196 441.664,-984.136 528,-1051 541.845,-1061.72 559.284,-1068.08 576.405,-1071.79"/>
<polygon fill="midnightblue" stroke="midnightblue" points="398.162,-796.718 392.734,-787.619 391.303,-798.117 398.162,-796.718"/>
</g>
<!-- Node22 -->
<g id="node22" class="node"><title>Node22</title>
<g id="a_node22"><a xlink:href="class_urho3_d_1_1_vector.html" target="_top" xlink:title="Urho3D::Vector\&lt; Urho3D\l::OcclusionBufferData \&gt;">
<polygon fill="none" stroke="black" points="581,-817 581,-847 709,-847 709,-817 581,-817"/>
<text text-anchor="start" x="589" y="-835" font-family="Helvetica,sans-Serif" font-size="10.00">Urho3D::Vector&lt; Urho3D</text>
<text text-anchor="middle" x="645" y="-824" font-family="Helvetica,sans-Serif" font-size="10.00">::OcclusionBufferData &gt;</text>
</a>
</g>
</g>
<!-- Node10&#45;&gt;Node22 -->
<g id="edge34" class="edge"><title>Node10&#45;&gt;Node22</title>
<path fill="none" stroke="midnightblue" d="M445.431,-789.618C485.176,-798.101 539.165,-809.624 580.815,-818.514"/>
<polygon fill="midnightblue" stroke="midnightblue" points="446.159,-786.194 435.649,-787.53 444.698,-793.04 446.159,-786.194"/>
</g>
<!-- Node25 -->
<g id="node25" class="node"><title>Node25</title>
<g id="a_node25"><a xlink:href="class_urho3_d_1_1_vector.html" target="_top" xlink:title="Urho3D::Vector\&lt; Urho3D\l::SharedArrayPtr\&lt; Urho3D\l::DepthValue \&gt; \&gt;">
<polygon fill="none" stroke="black" points="579,-757.5 579,-798.5 711,-798.5 711,-757.5 579,-757.5"/>
<text text-anchor="start" x="587" y="-786.5" font-family="Helvetica,sans-Serif" font-size="10.00">Urho3D::Vector&lt; Urho3D</text>
<text text-anchor="start" x="587" y="-775.5" font-family="Helvetica,sans-Serif" font-size="10.00">::SharedArrayPtr&lt; Urho3D</text>
<text text-anchor="middle" x="645" y="-764.5" font-family="Helvetica,sans-Serif" font-size="10.00">::DepthValue &gt; &gt;</text>
</a>
</g>
</g>
<!-- Node10&#45;&gt;Node25 -->
<g id="edge40" class="edge"><title>Node10&#45;&gt;Node25</title>
<path fill="none" stroke="midnightblue" d="M454.153,-778C492.136,-778 540.388,-778 578.742,-778"/>
<polygon fill="midnightblue" stroke="midnightblue" points="453.729,-774.5 443.729,-778 453.729,-781.5 453.729,-774.5"/>
</g>
<!-- Node11&#45;&gt;Node5 -->
<g id="edge12" class="edge"><title>Node11&#45;&gt;Node5</title>
<path fill="none" stroke="#9a32cd" stroke-dasharray="5,2" d="M713.093,-485.039C764.473,-486.165 835.832,-481.672 892,-455 927.956,-437.926 957.441,-398.853 969.775,-380.656"/>
<polygon fill="#9a32cd" stroke="#9a32cd" points="713.193,-481.54 703.094,-484.744 712.986,-488.537 713.193,-481.54"/>
<text text-anchor="middle" x="836" y="-486" font-family="Helvetica,sans-Serif" font-size="10.00"> eventHandler_</text>
</g>
<!-- Node19 -->
<g id="node19" class="node"><title>Node19</title>
<g id="a_node19"><a xlink:href="class_urho3_d_1_1_linked_list.html" target="_top" xlink:title="Urho3D::LinkedList\l\&lt; Urho3D::EventHandler \&gt;">
<polygon fill="none" stroke="black" points="910,-639 910,-669 1044,-669 1044,-639 910,-639"/>
<text text-anchor="start" x="918" y="-657" font-family="Helvetica,sans-Serif" font-size="10.00">Urho3D::LinkedList</text>
<text text-anchor="middle" x="977" y="-646" font-family="Helvetica,sans-Serif" font-size="10.00">&lt; Urho3D::EventHandler &gt;</text>
</a>
</g>
</g>
<!-- Node11&#45;&gt;Node19 -->
<g id="edge29" class="edge"><title>Node11&#45;&gt;Node19</title>
<path fill="none" stroke="#9a32cd" stroke-dasharray="5,2" d="M713.261,-480.388C731.287,-483.784 749.278,-490.716 762,-504 796.567,-540.096 745.296,-579.036 780,-615 797.768,-633.413 860.128,-643.555 909.796,-648.844"/>
<polygon fill="#9a32cd" stroke="#9a32cd" points="713.693,-476.914 703.277,-478.847 712.626,-483.832 713.693,-476.914"/>
<text text-anchor="middle" x="836" y="-650" font-family="Helvetica,sans-Serif" font-size="10.00"> head_</text>
</g>
<!-- Node12 -->
<g id="node12" class="node"><title>Node12</title>
<g id="a_node12"><a xlink:href="struct_urho3_d_1_1_linked_list_node.html" target="_top" xlink:title="Singly&#45;linked list node base class. ">
<polygon fill="none" stroke="black" points="328,-470.5 328,-489.5 452,-489.5 452,-470.5 328,-470.5"/>
<text text-anchor="middle" x="390" y="-477.5" font-family="Helvetica,sans-Serif" font-size="10.00">Urho3D::LinkedListNode</text>
</a>
</g>
</g>
<!-- Node12&#45;&gt;Node11 -->
<g id="edge13" class="edge"><title>Node12&#45;&gt;Node11</title>
<path fill="none" stroke="midnightblue" d="M462.31,-480C501.676,-480 549.912,-480 586.788,-480"/>
<polygon fill="midnightblue" stroke="midnightblue" points="462.244,-476.5 452.244,-480 462.244,-483.5 462.244,-476.5"/>
</g>
<!-- Node12&#45;&gt;Node12 -->
<g id="edge14" class="edge"><title>Node12&#45;&gt;Node12</title>
<path fill="none" stroke="#9a32cd" stroke-dasharray="5,2" d="M375.268,-499.766C376.425,-504.497 381.335,-508 390,-508 404.219,-508 408.329,-498.565 402.33,-489.757"/>
<polygon fill="#9a32cd" stroke="#9a32cd" points="378.739,-500.298 377.67,-489.757 371.933,-498.664 378.739,-500.298"/>
<text text-anchor="middle" x="390" y="-511" font-family="Helvetica,sans-Serif" font-size="10.00"> next_</text>
</g>
<!-- Node13&#45;&gt;Node5 -->
<g id="edge16" class="edge"><title>Node13&#45;&gt;Node5</title>
<path fill="none" stroke="#9a32cd" stroke-dasharray="5,2" d="M734.652,-390.747C798.221,-385.546 881.186,-378.758 931.431,-374.647"/>
<polygon fill="#9a32cd" stroke="#9a32cd" points="734.305,-387.263 724.624,-391.567 734.876,-394.24 734.305,-387.263"/>
<text text-anchor="middle" x="836" y="-390" font-family="Helvetica,sans-Serif" font-size="10.00"> globalVars_</text>
</g>
<!-- Node14&#45;&gt;Node5 -->
<g id="edge18" class="edge"><title>Node14&#45;&gt;Node5</title>
<path fill="none" stroke="#9a32cd" stroke-dasharray="5,2" d="M732.898,-351.022C779.986,-354.838 839.185,-359.652 892,-364 904.689,-365.044 918.454,-366.188 931.1,-367.241"/>
<polygon fill="#9a32cd" stroke="#9a32cd" points="732.986,-347.518 722.736,-350.199 732.42,-354.495 732.986,-347.518"/>
<text text-anchor="middle" x="836" y="-367" font-family="Helvetica,sans-Serif" font-size="10.00"> subsystems_</text>
</g>
<!-- Node15&#45;&gt;Node5 -->
<g id="edge20" class="edge"><title>Node15&#45;&gt;Node5</title>
<path fill="none" stroke="#9a32cd" stroke-dasharray="5,2" d="M713.849,-569.216C776.591,-566.329 864.199,-558.774 892,-539 948.335,-498.93 968.972,-410.013 974.401,-380.632"/>
<polygon fill="#9a32cd" stroke="#9a32cd" points="713.456,-565.729 703.616,-569.655 713.757,-572.723 713.456,-565.729"/>
<text text-anchor="middle" x="836" y="-568" font-family="Helvetica,sans-Serif" font-size="10.00"> eventDataMaps_</text>
</g>
<!-- Node16&#45;&gt;Node5 -->
<g id="edge22" class="edge"><title>Node16&#45;&gt;Node5</title>
<path fill="none" stroke="#9a32cd" stroke-dasharray="5,2" d="M749.218,-87.8948C797.818,-96.0943 853.438,-113.311 892,-149 957.628,-209.739 972.352,-327.018 975.315,-361.342"/>
<polygon fill="#9a32cd" stroke="#9a32cd" points="749.704,-84.4284 739.281,-86.3255 748.612,-91.3427 749.704,-84.4284"/>
<text text-anchor="middle" x="836" y="-152" font-family="Helvetica,sans-Serif" font-size="10.00"> factories_</text>
</g>
<!-- Node17&#45;&gt;Node5 -->
<g id="edge24" class="edge"><title>Node17&#45;&gt;Node5</title>
<path fill="none" stroke="#9a32cd" stroke-dasharray="5,2" d="M725.75,-20.2966C779.321,-24.0974 847.921,-37.8879 892,-80 976.406,-160.64 977.59,-320.256 976.415,-361.232"/>
<polygon fill="#9a32cd" stroke="#9a32cd" points="725.783,-16.7923 715.59,-19.6813 725.36,-23.7795 725.783,-16.7923"/>
<text text-anchor="middle" x="836" y="-83" font-family="Helvetica,sans-Serif" font-size="10.00"> objectCategories_</text>
</g>
<!-- Node18&#45;&gt;Node5 -->
<g id="edge26" class="edge"><title>Node18&#45;&gt;Node5</title>
<path fill="none" stroke="#9a32cd" stroke-dasharray="5,2" d="M737.545,-152.609C787.955,-163.046 848.854,-182.78 892,-220 939.246,-260.757 965.171,-334.968 973.231,-361.364"/>
<polygon fill="#9a32cd" stroke="#9a32cd" points="738.101,-149.151 727.611,-150.643 736.742,-156.018 738.101,-149.151"/>
<text text-anchor="middle" x="836" y="-234" font-family="Helvetica,sans-Serif" font-size="10.00"> attributes_</text>
<text text-anchor="middle" x="836" y="-223" font-family="Helvetica,sans-Serif" font-size="10.00">networkAttributes_</text>
</g>
<!-- Node19&#45;&gt;Node2 -->
<g id="edge28" class="edge"><title>Node19&#45;&gt;Node2</title>
<path fill="none" stroke="#9a32cd" stroke-dasharray="5,2" d="M899.99,-666.201C808.793,-677.732 652.604,-687.489 528,-644 473.52,-624.986 421.36,-577.358 400.521,-556.753"/>
<polygon fill="#9a32cd" stroke="#9a32cd" points="900.504,-669.663 909.967,-664.899 899.599,-662.722 900.504,-669.663"/>
<text text-anchor="middle" x="645" y="-680" font-family="Helvetica,sans-Serif" font-size="10.00"> eventHandlers_</text>
</g>
<!-- Node20&#45;&gt;Node1 -->
<g id="edge30" class="edge"><title>Node20&#45;&gt;Node1</title>
<path fill="none" stroke="#9a32cd" stroke-dasharray="5,2" d="M723.843,-1074.93C775.886,-1070.61 843.455,-1057.7 892,-1022 941.002,-985.964 965.829,-912.104 973.416,-885.673"/>
<polygon fill="#9a32cd" stroke="#9a32cd" points="723.367,-1071.45 713.652,-1075.68 723.883,-1078.43 723.367,-1071.45"/>
<text text-anchor="middle" x="836" y="-1068" font-family="Helvetica,sans-Serif" font-size="10.00"> batches_</text>
</g>
<!-- Node21 -->
<g id="node21" class="node"><title>Node21</title>
<g id="a_node21"><a xlink:href="class_urho3_d_1_1_timer.html" target="_top" xlink:title="Low&#45;resolution operating system timer. ">
<polygon fill="none" stroke="black" points="604.5,-1022.5 604.5,-1041.5 685.5,-1041.5 685.5,-1022.5 604.5,-1022.5"/>
<text text-anchor="middle" x="645" y="-1029.5" font-family="Helvetica,sans-Serif" font-size="10.00">Urho3D::Timer</text>
</a>
</g>
</g>
<!-- Node21&#45;&gt;Node1 -->
<g id="edge32" class="edge"><title>Node21&#45;&gt;Node1</title>
<path fill="none" stroke="#9a32cd" stroke-dasharray="5,2" d="M695.924,-1026.62C716.633,-1023.67 740.74,-1019.29 762,-1013 822.493,-995.094 839.477,-990.948 892,-956 923.353,-935.138 953.723,-902.067 967.816,-885.756"/>
<polygon fill="#9a32cd" stroke="#9a32cd" points="695.19,-1023.18 685.749,-1027.99 696.128,-1030.12 695.19,-1023.18"/>
<text text-anchor="middle" x="836" y="-1010" font-family="Helvetica,sans-Serif" font-size="10.00"> useTimer_</text>
</g>
<!-- Node22&#45;&gt;Node1 -->
<g id="edge33" class="edge"><title>Node22&#45;&gt;Node1</title>
<path fill="none" stroke="#9a32cd" stroke-dasharray="5,2" d="M719.27,-839.486C768.265,-844.775 834.115,-852.428 892,-861 902.844,-862.606 914.438,-864.537 925.442,-866.471"/>
<polygon fill="#9a32cd" stroke="#9a32cd" points="719.396,-835.98 709.08,-838.394 718.65,-842.94 719.396,-835.98"/>
<text text-anchor="middle" x="836" y="-864" font-family="Helvetica,sans-Serif" font-size="10.00"> buffers_</text>
</g>
<!-- Node23 -->
<g id="node23" class="node"><title>Node23</title>
<g id="a_node23"><a xlink:href="class_urho3_d_1_1_matrix4.html" target="_top" xlink:title="4x4 matrix for arbitrary linear transforms including projection. ">
<polygon fill="none" stroke="black" points="600.5,-944.5 600.5,-963.5 689.5,-963.5 689.5,-944.5 600.5,-944.5"/>
<text text-anchor="middle" x="645" y="-951.5" font-family="Helvetica,sans-Serif" font-size="10.00">Urho3D::Matrix4</text>
</a>
</g>
</g>
<!-- Node23&#45;&gt;Node1 -->
<g id="edge35" class="edge"><title>Node23&#45;&gt;Node1</title>
<path fill="none" stroke="#9a32cd" stroke-dasharray="5,2" d="M699.741,-946.421C719.415,-943.325 741.799,-939.426 762,-935 828.069,-920.525 904.126,-898.168 945.425,-885.539"/>
<polygon fill="#9a32cd" stroke="#9a32cd" points="699.076,-942.982 689.726,-947.965 700.142,-949.9 699.076,-942.982"/>
<text text-anchor="middle" x="836" y="-944" font-family="Helvetica,sans-Serif" font-size="10.00"> projection_</text>
<text text-anchor="middle" x="836" y="-933" font-family="Helvetica,sans-Serif" font-size="10.00">viewProj_</text>
</g>
<!-- Node23&#45;&gt;Node23 -->
<g id="edge36" class="edge"><title>Node23&#45;&gt;Node23</title>
<path fill="none" stroke="#9a32cd" stroke-dasharray="5,2" d="M616.254,-972.654C617.456,-977.937 627.038,-982 645,-982 672.371,-982 680.283,-972.565 668.736,-963.757"/>
<polygon fill="#9a32cd" stroke="#9a32cd" points="619.407,-974.188 621.264,-963.757 613.308,-970.753 619.407,-974.188"/>
<text text-anchor="middle" x="645" y="-996" font-family="Helvetica,sans-Serif" font-size="10.00"> IDENTITY</text>
<text text-anchor="middle" x="645" y="-985" font-family="Helvetica,sans-Serif" font-size="10.00">ZERO</text>
</g>
<!-- Node24 -->
<g id="node24" class="node"><title>Node24</title>
<g id="a_node24"><a xlink:href="class_urho3_d_1_1_matrix3x4.html" target="_top" xlink:title="3x4 matrix for scene node transform calculations. ">
<polygon fill="none" stroke="black" points="595.5,-866.5 595.5,-885.5 694.5,-885.5 694.5,-866.5 595.5,-866.5"/>
<text text-anchor="middle" x="645" y="-873.5" font-family="Helvetica,sans-Serif" font-size="10.00">Urho3D::Matrix3x4</text>
</a>
</g>
</g>
<!-- Node24&#45;&gt;Node1 -->
<g id="edge37" class="edge"><title>Node24&#45;&gt;Node1</title>
<path fill="none" stroke="#9a32cd" stroke-dasharray="5,2" d="M704.943,-876C763.8,-876 853.902,-876 913.86,-876"/>
<polygon fill="#9a32cd" stroke="#9a32cd" points="704.693,-872.5 694.693,-876 704.693,-879.5 704.693,-872.5"/>
<text text-anchor="middle" x="836" y="-879" font-family="Helvetica,sans-Serif" font-size="10.00"> view_</text>
</g>
<!-- Node24&#45;&gt;Node24 -->
<g id="edge38" class="edge"><title>Node24&#45;&gt;Node24</title>
<path fill="none" stroke="#9a32cd" stroke-dasharray="5,2" d="M616.254,-894.654C617.456,-899.937 627.038,-904 645,-904 672.371,-904 680.283,-894.565 668.736,-885.757"/>
<polygon fill="#9a32cd" stroke="#9a32cd" points="619.407,-896.188 621.264,-885.757 613.308,-892.753 619.407,-896.188"/>
<text text-anchor="middle" x="645" y="-918" font-family="Helvetica,sans-Serif" font-size="10.00"> IDENTITY</text>
<text text-anchor="middle" x="645" y="-907" font-family="Helvetica,sans-Serif" font-size="10.00">ZERO</text>
</g>
<!-- Node25&#45;&gt;Node1 -->
<g id="edge39" class="edge"><title>Node25&#45;&gt;Node1</title>
<path fill="none" stroke="#9a32cd" stroke-dasharray="5,2" d="M721.03,-789.122C770.524,-797.751 836.267,-811.7 892,-832 917.214,-841.184 944.374,-856.511 960.78,-866.435"/>
<polygon fill="#9a32cd" stroke="#9a32cd" points="721.487,-785.65 711.04,-787.415 720.308,-792.55 721.487,-785.65"/>
<text text-anchor="middle" x="836" y="-835" font-family="Helvetica,sans-Serif" font-size="10.00"> mipBuffers_</text>
</g>
</g>
</svg>
