<?xml version="1.0" encoding="UTF-8" standalone="no"?>
<!DOCTYPE svg PUBLIC "-//W3C//DTD SVG 1.1//EN"
 "http://www.w3.org/Graphics/SVG/1.1/DTD/svg11.dtd">
<!-- Generated by graphviz version 2.36.0 (20140111.2315)
 -->
<!-- Title: Urho3D::Serializer Pages: 1 -->
<svg width="497pt" height="140pt"
 viewBox="0.00 0.00 497.00 140.00" xmlns="http://www.w3.org/2000/svg" xmlns:xlink="http://www.w3.org/1999/xlink">
<g id="graph0" class="graph" transform="scale(1 1) rotate(0) translate(4 136)">
<title>Urho3D::Serializer</title>
<!-- Node1 -->
<g id="node1" class="node"><title>Node1</title>
<polygon fill="#bfbfbf" stroke="black" points="173,-112.5 173,-131.5 277,-131.5 277,-112.5 173,-112.5"/>
<text text-anchor="middle" x="225" y="-119.5" font-family="FreeSans" font-size="10.00">Urho3D::Serializer</text>
</g>
<!-- Node2 -->
<g id="node2" class="node"><title>Node2</title>
<g id="a_node2"><a xlink:href="class_urho3_d_1_1_abstract_file.html" target="_top" xlink:title="A common root class for objects that implement both Serializer and Deserializer. ">
<polygon fill="none" stroke="black" points="167.5,-56.5 167.5,-75.5 282.5,-75.5 282.5,-56.5 167.5,-56.5"/>
<text text-anchor="middle" x="225" y="-63.5" font-family="FreeSans" font-size="10.00">Urho3D::AbstractFile</text>
</a>
</g>
</g>
<!-- Node1&#45;&gt;Node2 -->
<g id="edge1" class="edge"><title>Node1&#45;&gt;Node2</title>
<path fill="none" stroke="midnightblue" d="M225,-101.805C225,-92.9102 225,-82.7798 225,-75.7511"/>
<polygon fill="midnightblue" stroke="midnightblue" points="221.5,-102.083 225,-112.083 228.5,-102.083 221.5,-102.083"/>
</g>
<!-- Node3 -->
<g id="node3" class="node"><title>Node3</title>
<g id="a_node3"><a xlink:href="class_urho3_d_1_1_file.html" target="_top" xlink:title="File opened either through the filesystem or from within a package file. ">
<polygon fill="none" stroke="black" points="0,-0.5 0,-19.5 74,-19.5 74,-0.5 0,-0.5"/>
<text text-anchor="middle" x="37" y="-7.5" font-family="FreeSans" font-size="10.00">Urho3D::File</text>
</a>
</g>
</g>
<!-- Node2&#45;&gt;Node3 -->
<g id="edge2" class="edge"><title>Node2&#45;&gt;Node3</title>
<path fill="none" stroke="midnightblue" d="M185.199,-53.5677C149.734,-43.381 98.6342,-28.7034 66.6498,-19.5164"/>
<polygon fill="midnightblue" stroke="midnightblue" points="184.633,-57.0467 195.211,-56.4435 186.566,-50.3188 184.633,-57.0467"/>
</g>
<!-- Node4 -->
<g id="node4" class="node"><title>Node4</title>
<g id="a_node4"><a xlink:href="class_urho3_d_1_1_memory_buffer.html" target="_top" xlink:title="Memory area that can be read and written to as a stream. ">
<polygon fill="none" stroke="black" points="92.5,-0.5 92.5,-19.5 219.5,-19.5 219.5,-0.5 92.5,-0.5"/>
<text text-anchor="middle" x="156" y="-7.5" font-family="FreeSans" font-size="10.00">Urho3D::MemoryBuffer</text>
</a>
</g>
</g>
<!-- Node2&#45;&gt;Node4 -->
<g id="edge3" class="edge"><title>Node2&#45;&gt;Node4</title>
<path fill="none" stroke="midnightblue" d="M205.962,-50.1008C193.544,-40.3824 177.757,-28.0269 167.288,-19.8339"/>
<polygon fill="midnightblue" stroke="midnightblue" points="203.882,-52.9171 213.914,-56.324 208.196,-47.4046 203.882,-52.9171"/>
</g>
<!-- Node5 -->
<g id="node5" class="node"><title>Node5</title>
<g id="a_node5"><a xlink:href="class_urho3_d_1_1_named_pipe.html" target="_top" xlink:title="Named pipe for interprocess communication. ">
<polygon fill="none" stroke="black" points="237.5,-0.5 237.5,-19.5 352.5,-19.5 352.5,-0.5 237.5,-0.5"/>
<text text-anchor="middle" x="295" y="-7.5" font-family="FreeSans" font-size="10.00">Urho3D::NamedPipe</text>
</a>
</g>
</g>
<!-- Node2&#45;&gt;Node5 -->
<g id="edge4" class="edge"><title>Node2&#45;&gt;Node5</title>
<path fill="none" stroke="midnightblue" d="M244.314,-50.1008C256.912,-40.3824 272.928,-28.0269 283.549,-19.8339"/>
<polygon fill="midnightblue" stroke="midnightblue" points="242.027,-47.4446 236.247,-56.324 246.302,-52.9871 242.027,-47.4446"/>
</g>
<!-- Node6 -->
<g id="node6" class="node"><title>Node6</title>
<g id="a_node6"><a xlink:href="class_urho3_d_1_1_vector_buffer.html" target="_top" xlink:title="Dynamically sized buffer that can be read and written to as a stream. ">
<polygon fill="none" stroke="black" points="370.5,-0.5 370.5,-19.5 489.5,-19.5 489.5,-0.5 370.5,-0.5"/>
<text text-anchor="middle" x="430" y="-7.5" font-family="FreeSans" font-size="10.00">Urho3D::VectorBuffer</text>
</a>
</g>
</g>
<!-- Node2&#45;&gt;Node6 -->
<g id="edge5" class="edge"><title>Node2&#45;&gt;Node6</title>
<path fill="none" stroke="midnightblue" d="M267.408,-53.8291C306.114,-43.6333 362.493,-28.7823 397.669,-19.5164"/>
<polygon fill="midnightblue" stroke="midnightblue" points="266.261,-50.5117 257.483,-56.4435 268.045,-57.2808 266.261,-50.5117"/>
</g>
</g>
</svg>
