<?xml version="1.0" encoding="UTF-8" standalone="no"?>
<!DOCTYPE svg PUBLIC "-//W3C//DTD SVG 1.1//EN"
 "http://www.w3.org/Graphics/SVG/1.1/DTD/svg11.dtd">
<!-- Generated by graphviz version 2.26.3 (20100126.1600)
 -->
<!-- Title: Urho3D::Font Pages: 1 -->
<svg width="1216pt" height="951pt"
 viewBox="0.00 0.00 1216.00 950.51" xmlns="http://www.w3.org/2000/svg" xmlns:xlink="http://www.w3.org/1999/xlink">
<g id="graph1" class="graph" transform="scale(1 1) rotate(0) translate(4 946.512)">
<title>Urho3D::Font</title>
<!-- Node1 -->
<g id="node1" class="node"><title>Node1</title>
<polygon fill="#bfbfbf" stroke="black" points="1095,-812.012 1095,-833.012 1175,-833.012 1175,-812.012 1095,-812.012"/>
<text text-anchor="middle" x="1135" y="-820.012" font-family="FreeSans" font-size="10.00">Urho3D::Font</text>
</g>
<!-- Node2 -->
<g id="node2" class="node"><title>Node2</title>
<a xlink:href="class_urho3_d_1_1_resource.html" target="_top" xlink:title="Base class for resources.">
<polygon fill="none" stroke="black" points="755.5,-812.012 755.5,-833.012 858.5,-833.012 858.5,-812.012 755.5,-812.012"/>
<text text-anchor="middle" x="807" y="-820.012" font-family="FreeSans" font-size="10.00">Urho3D::Resource</text>
</a>
</g>
<!-- Node2&#45;&gt;Node1 -->
<g id="edge2" class="edge"><title>Node2&#45;&gt;Node1</title>
<path fill="none" stroke="midnightblue" d="M868.902,-822.512C935.072,-822.512 1038.06,-822.512 1094.55,-822.512"/>
<polygon fill="midnightblue" stroke="midnightblue" points="868.611,-819.013 858.611,-822.512 868.611,-826.013 868.611,-819.013"/>
</g>
<!-- Node3 -->
<g id="node4" class="node"><title>Node3</title>
<a xlink:href="class_urho3_d_1_1_object.html" target="_top" xlink:title="Base class for objects with type identification, subsystem access and event sending/receiving capabil...">
<polygon fill="none" stroke="black" points="504,-528.012 504,-549.012 594,-549.012 594,-528.012 504,-528.012"/>
<text text-anchor="middle" x="549" y="-536.012" font-family="FreeSans" font-size="10.00">Urho3D::Object</text>
</a>
</g>
<!-- Node3&#45;&gt;Node2 -->
<g id="edge4" class="edge"><title>Node3&#45;&gt;Node2</title>
<path fill="none" stroke="midnightblue" d="M560.921,-557.949C574.202,-578.276 597.346,-610.017 624,-630.512 647.968,-648.943 668.053,-634.179 686,-658.512 724.284,-710.42 659.956,-755.394 704,-802.512 717.061,-816.485 736.735,-822.361 755.401,-824.43"/>
<polygon fill="midnightblue" stroke="midnightblue" points="563.7,-555.797 555.378,-549.24 557.795,-559.556 563.7,-555.797"/>
</g>
<!-- Node12 -->
<g id="node25" class="node"><title>Node12</title>
<a xlink:href="class_urho3_d_1_1_event_handler.html" target="_top" xlink:title="Internal helper class for invoking event handler functions.">
<polygon fill="none" stroke="red" points="745,-570.012 745,-591.012 869,-591.012 869,-570.012 745,-570.012"/>
<text text-anchor="middle" x="807" y="-578.012" font-family="FreeSans" font-size="10.00">Urho3D::EventHandler</text>
</a>
</g>
<!-- Node3&#45;&gt;Node12 -->
<g id="edge30" class="edge"><title>Node3&#45;&gt;Node12</title>
<path fill="none" stroke="#9a32cd" stroke-dasharray="5,2" d="M604.123,-547.486C645.415,-554.208 701.943,-563.41 744.843,-570.394"/>
<polygon fill="#9a32cd" stroke="#9a32cd" points="604.668,-544.029 594.235,-545.876 603.543,-550.938 604.668,-544.029"/>
<text text-anchor="middle" x="655" y="-577.512" font-family="FreeSans" font-size="10.00"> sender_</text>
<text text-anchor="middle" x="655" y="-564.512" font-family="FreeSans" font-size="10.00">receiver_</text>
</g>
<!-- Node4 -->
<g id="node6" class="node"><title>Node4</title>
<a xlink:href="class_urho3_d_1_1_ref_counted.html" target="_top" xlink:title="Base class for intrusively reference&#45;counted objects. These are noncopyable and non&#45;assignable.">
<polygon fill="none" stroke="black" points="198,-275.012 198,-296.012 312,-296.012 312,-275.012 198,-275.012"/>
<text text-anchor="middle" x="255" y="-283.012" font-family="FreeSans" font-size="10.00">Urho3D::RefCounted</text>
</a>
</g>
<!-- Node4&#45;&gt;Node3 -->
<g id="edge6" class="edge"><title>Node4&#45;&gt;Node3</title>
<path fill="none" stroke="midnightblue" d="M315.673,-300.873C317.895,-302.285 320.016,-303.828 322,-305.512 335.939,-317.35 325.576,-331.271 340,-342.512 387.99,-379.912 426.632,-332.329 474,-370.512 525.973,-412.408 543.073,-497.871 547.6,-527.84"/>
<polygon fill="midnightblue" stroke="midnightblue" points="317.148,-297.692 306.683,-296.042 313.836,-303.858 317.148,-297.692"/>
</g>
<!-- Node6 -->
<g id="node10" class="node"><title>Node6</title>
<a xlink:href="class_urho3_d_1_1_context.html" target="_top" xlink:title="Urho3D execution context. Provides access to subsystems, object factories and attributes, and event receivers.">
<polygon fill="none" stroke="red" points="1086.5,-282.012 1086.5,-303.012 1183.5,-303.012 1183.5,-282.012 1086.5,-282.012"/>
<text text-anchor="middle" x="1135" y="-290.012" font-family="FreeSans" font-size="10.00">Urho3D::Context</text>
</a>
</g>
<!-- Node4&#45;&gt;Node6 -->
<g id="edge12" class="edge"><title>Node4&#45;&gt;Node6</title>
<path fill="none" stroke="midnightblue" d="M275.923,-268.209C337.004,-218.965 522.258,-78.5197 704,-30.5124 851.609,8.47867 933.212,25.5343 1044,-79.5124 1106.45,-138.723 1128.08,-247.783 1133.5,-281.975"/>
<polygon fill="midnightblue" stroke="midnightblue" points="273.379,-265.767 267.828,-274.791 277.795,-271.198 273.379,-265.767"/>
</g>
<!-- Node5 -->
<g id="node8" class="node"><title>Node5</title>
<a xlink:href="struct_urho3_d_1_1_ref_count.html" target="_top" xlink:title="Reference count structure.">
<polygon fill="none" stroke="black" points="0,-490.012 0,-511.012 102,-511.012 102,-490.012 0,-490.012"/>
<text text-anchor="middle" x="51" y="-498.012" font-family="FreeSans" font-size="10.00">Urho3D::RefCount</text>
</a>
</g>
<!-- Node5&#45;&gt;Node4 -->
<g id="edge8" class="edge"><title>Node5&#45;&gt;Node4</title>
<path fill="none" stroke="#9a32cd" stroke-dasharray="5,2" d="M59.5854,-480.368C77.4936,-440.772 122.666,-352.572 188,-305.512 193.319,-301.681 199.375,-298.576 205.621,-296.062"/>
<polygon fill="#9a32cd" stroke="#9a32cd" points="56.2784,-479.193 55.4427,-489.754 62.6824,-482.019 56.2784,-479.193"/>
<text text-anchor="middle" x="145" y="-378.512" font-family="FreeSans" font-size="10.00"> refCount_</text>
</g>
<!-- Node23 -->
<g id="node57" class="node"><title>Node23</title>
<a xlink:href="class_urho3_d_1_1_shared_array_ptr.html" target="_top" xlink:title="Urho3D::SharedArrayPtr\l\&lt; unsigned char \&gt;">
<polygon fill="none" stroke="black" points="340.5,-751.512 340.5,-785.512 473.5,-785.512 473.5,-751.512 340.5,-751.512"/>
<text text-anchor="start" x="348.5" y="-772.512" font-family="FreeSans" font-size="10.00">Urho3D::SharedArrayPtr</text>
<text text-anchor="middle" x="407" y="-759.512" font-family="FreeSans" font-size="10.00">&lt; unsigned char &gt;</text>
</a>
</g>
<!-- Node5&#45;&gt;Node23 -->
<g id="edge72" class="edge"><title>Node5&#45;&gt;Node23</title>
<path fill="none" stroke="#9a32cd" stroke-dasharray="5,2" d="M73.1072,-517.155C136.66,-564.998 319.43,-702.589 384.038,-751.226"/>
<polygon fill="#9a32cd" stroke="#9a32cd" points="75.0499,-514.237 64.9556,-511.018 70.8398,-519.829 75.0499,-514.237"/>
<text text-anchor="middle" x="145" y="-592.512" font-family="FreeSans" font-size="10.00"> refCount_</text>
</g>
<!-- Node6&#45;&gt;Node3 -->
<g id="edge10" class="edge"><title>Node6&#45;&gt;Node3</title>
<path fill="none" stroke="#9a32cd" stroke-dasharray="5,2" d="M1128.06,-312.688C1116.12,-344.207 1088.59,-404.704 1044,-435.512 1006.81,-461.209 708.949,-512.245 594.016,-531.201"/>
<polygon fill="#9a32cd" stroke="#9a32cd" points="1131.38,-313.789 1131.51,-303.194 1124.81,-311.396 1131.38,-313.789"/>
<text text-anchor="middle" x="807" y="-514.512" font-family="FreeSans" font-size="10.00"> context_</text>
</g>
<!-- Node7 -->
<g id="node13" class="node"><title>Node7</title>
<a xlink:href="class_urho3_d_1_1_p_o_d_vector.html" target="_top" xlink:title="Urho3D::PODVector\&lt;\l Urho3D::Object * \&gt;">
<polygon fill="none" stroke="red" points="747.5,-105.512 747.5,-139.512 866.5,-139.512 866.5,-105.512 747.5,-105.512"/>
<text text-anchor="start" x="755.5" y="-126.512" font-family="FreeSans" font-size="10.00">Urho3D::PODVector&lt;</text>
<text text-anchor="middle" x="807" y="-113.512" font-family="FreeSans" font-size="10.00"> Urho3D::Object * &gt;</text>
</a>
</g>
<!-- Node7&#45;&gt;Node6 -->
<g id="edge14" class="edge"><title>Node7&#45;&gt;Node6</title>
<path fill="none" stroke="#9a32cd" stroke-dasharray="5,2" d="M876.712,-136.516C926.275,-148.726 992.852,-169.864 1044,-203.512 1078.71,-226.346 1111.52,-263.641 1126.5,-281.843"/>
<polygon fill="#9a32cd" stroke="#9a32cd" points="877.262,-133.049 866.721,-134.119 875.629,-139.856 877.262,-133.049"/>
<text text-anchor="middle" x="986" y="-207.512" font-family="FreeSans" font-size="10.00"> eventSenders_</text>
</g>
<!-- Node8 -->
<g id="node15" class="node"><title>Node8</title>
<a xlink:href="class_urho3_d_1_1_hash_map.html" target="_top" xlink:title="Urho3D::HashMap\&lt; Urho3D\l::Object *, Urho3D::HashMap\l\&lt; Urho3D::StringHash, Urho3D\l::EventReceiverGroup \&gt; \&gt;">
<polygon fill="none" stroke="black" points="723.5,-157.512 723.5,-217.512 890.5,-217.512 890.5,-157.512 723.5,-157.512"/>
<text text-anchor="start" x="731.5" y="-204.512" font-family="FreeSans" font-size="10.00">Urho3D::HashMap&lt; Urho3D</text>
<text text-anchor="start" x="731.5" y="-191.512" font-family="FreeSans" font-size="10.00">::Object *, Urho3D::HashMap</text>
<text text-anchor="start" x="731.5" y="-178.512" font-family="FreeSans" font-size="10.00">&lt; Urho3D::StringHash, Urho3D</text>
<text text-anchor="middle" x="807" y="-165.512" font-family="FreeSans" font-size="10.00">::EventReceiverGroup &gt; &gt;</text>
</a>
</g>
<!-- Node8&#45;&gt;Node6 -->
<g id="edge16" class="edge"><title>Node8&#45;&gt;Node6</title>
<path fill="none" stroke="#9a32cd" stroke-dasharray="5,2" d="M900.562,-211.878C944.453,-223.938 997.266,-239.359 1044,-255.512 1067.05,-263.48 1092.74,-274.091 1110.93,-281.907"/>
<polygon fill="#9a32cd" stroke="#9a32cd" points="901.332,-208.46 890.763,-209.2 899.487,-215.212 901.332,-208.46"/>
<text text-anchor="middle" x="986" y="-259.512" font-family="FreeSans" font-size="10.00"> specificEventReceivers_</text>
</g>
<!-- Node9 -->
<g id="node17" class="node"><title>Node9</title>
<a xlink:href="class_urho3_d_1_1_hash_base.html" target="_top" xlink:title="Hash set/map base class.">
<polygon fill="none" stroke="black" points="495,-315.012 495,-336.012 603,-336.012 603,-315.012 495,-315.012"/>
<text text-anchor="middle" x="549" y="-323.012" font-family="FreeSans" font-size="10.00">Urho3D::HashBase</text>
</a>
</g>
<!-- Node9&#45;&gt;Node8 -->
<g id="edge18" class="edge"><title>Node9&#45;&gt;Node8</title>
<path fill="none" stroke="midnightblue" d="M571.698,-308.889C601.143,-287.831 654.603,-251.305 704,-226.512 710.238,-223.382 716.79,-220.351 723.441,-217.455"/>
<polygon fill="midnightblue" stroke="midnightblue" points="569.428,-306.211 563.362,-314.897 573.521,-311.89 569.428,-306.211"/>
</g>
<!-- Node14 -->
<g id="node31" class="node"><title>Node14</title>
<a xlink:href="class_urho3_d_1_1_hash_map.html" target="_top" xlink:title="Urho3D::HashMap\&lt; Urho3D\l::StringHash, Urho3D::\lEventReceiverGroup \&gt;">
<polygon fill="none" stroke="black" points="731,-236.012 731,-283.012 883,-283.012 883,-236.012 731,-236.012"/>
<text text-anchor="start" x="739" y="-270.012" font-family="FreeSans" font-size="10.00">Urho3D::HashMap&lt; Urho3D</text>
<text text-anchor="start" x="739" y="-257.012" font-family="FreeSans" font-size="10.00">::StringHash, Urho3D::</text>
<text text-anchor="middle" x="807" y="-244.012" font-family="FreeSans" font-size="10.00">EventReceiverGroup &gt;</text>
</a>
</g>
<!-- Node9&#45;&gt;Node14 -->
<g id="edge38" class="edge"><title>Node9&#45;&gt;Node14</title>
<path fill="none" stroke="midnightblue" d="M600.309,-312.387C637.638,-302.838 688.799,-289.75 730.881,-278.985"/>
<polygon fill="midnightblue" stroke="midnightblue" points="598.987,-309.112 590.166,-314.982 600.722,-315.894 598.987,-309.112"/>
</g>
<!-- Node15 -->
<g id="node34" class="node"><title>Node15</title>
<a xlink:href="class_urho3_d_1_1_hash_map.html" target="_top" xlink:title="Urho3D::HashMap\&lt; StringHash,\l Variant \&gt;">
<polygon fill="none" stroke="black" points="721,-419.512 721,-453.512 893,-453.512 893,-419.512 721,-419.512"/>
<text text-anchor="start" x="729" y="-440.512" font-family="FreeSans" font-size="10.00">Urho3D::HashMap&lt; StringHash,</text>
<text text-anchor="middle" x="807" y="-427.512" font-family="FreeSans" font-size="10.00"> Variant &gt;</text>
</a>
</g>
<!-- Node9&#45;&gt;Node15 -->
<g id="edge42" class="edge"><title>Node9&#45;&gt;Node15</title>
<path fill="none" stroke="midnightblue" d="M573.564,-341.561C603.35,-360.403 655.593,-391.49 704,-410.512 712.411,-413.818 721.376,-416.81 730.374,-419.489"/>
<polygon fill="midnightblue" stroke="midnightblue" points="575.381,-338.569 565.07,-336.134 571.612,-344.468 575.381,-338.569"/>
</g>
<!-- Node16 -->
<g id="node37" class="node"><title>Node16</title>
<a xlink:href="class_urho3_d_1_1_hash_map.html" target="_top" xlink:title="Urho3D::HashMap\&lt; Urho3D\l::StringHash, Urho3D::\lSharedPtr\&lt; Urho3D::Object \&gt; \&gt;">
<polygon fill="none" stroke="black" points="721,-302.012 721,-349.012 893,-349.012 893,-302.012 721,-302.012"/>
<text text-anchor="start" x="729" y="-336.012" font-family="FreeSans" font-size="10.00">Urho3D::HashMap&lt; Urho3D</text>
<text text-anchor="start" x="729" y="-323.012" font-family="FreeSans" font-size="10.00">::StringHash, Urho3D::</text>
<text text-anchor="middle" x="807" y="-310.012" font-family="FreeSans" font-size="10.00">SharedPtr&lt; Urho3D::Object &gt; &gt;</text>
</a>
</g>
<!-- Node9&#45;&gt;Node16 -->
<g id="edge46" class="edge"><title>Node9&#45;&gt;Node16</title>
<path fill="none" stroke="midnightblue" d="M613.376,-325.512C645.92,-325.512 685.862,-325.512 720.999,-325.512"/>
<polygon fill="midnightblue" stroke="midnightblue" points="613.085,-322.013 603.085,-325.512 613.085,-329.013 613.085,-322.013"/>
</g>
<!-- Node18 -->
<g id="node42" class="node"><title>Node18</title>
<a xlink:href="class_urho3_d_1_1_hash_map.html" target="_top" xlink:title="Urho3D::HashMap\&lt; Urho3D\l::StringHash, Urho3D::\lSharedPtr\&lt; Urho3D::ObjectFactory \&gt; \&gt;">
<polygon fill="none" stroke="black" points="704,-40.0124 704,-87.0124 910,-87.0124 910,-40.0124 704,-40.0124"/>
<text text-anchor="start" x="712" y="-74.0124" font-family="FreeSans" font-size="10.00">Urho3D::HashMap&lt; Urho3D</text>
<text text-anchor="start" x="712" y="-61.0124" font-family="FreeSans" font-size="10.00">::StringHash, Urho3D::</text>
<text text-anchor="middle" x="807" y="-48.0124" font-family="FreeSans" font-size="10.00">SharedPtr&lt; Urho3D::ObjectFactory &gt; &gt;</text>
</a>
</g>
<!-- Node9&#45;&gt;Node18 -->
<g id="edge52" class="edge"><title>Node9&#45;&gt;Node18</title>
<path fill="none" stroke="midnightblue" d="M557.114,-305.367C576.029,-260.937 627.344,-153.934 704,-96.5124 708.659,-93.0226 713.7,-89.894 718.962,-87.0905"/>
<polygon fill="midnightblue" stroke="midnightblue" points="553.804,-304.211 553.194,-314.789 560.267,-306.901 553.804,-304.211"/>
</g>
<!-- Node22 -->
<g id="node54" class="node"><title>Node22</title>
<a xlink:href="class_urho3_d_1_1_hash_map.html" target="_top" xlink:title="Urho3D::HashMap\&lt; int,\l Urho3D::SharedPtr\&lt; Urho3D\l::FontFace \&gt; \&gt;">
<polygon fill="none" stroke="black" points="728,-610.012 728,-657.012 886,-657.012 886,-610.012 728,-610.012"/>
<text text-anchor="start" x="736" y="-644.012" font-family="FreeSans" font-size="10.00">Urho3D::HashMap&lt; int,</text>
<text text-anchor="start" x="736" y="-631.012" font-family="FreeSans" font-size="10.00"> Urho3D::SharedPtr&lt; Urho3D</text>
<text text-anchor="middle" x="807" y="-618.012" font-family="FreeSans" font-size="10.00">::FontFace &gt; &gt;</text>
</a>
</g>
<!-- Node9&#45;&gt;Node22 -->
<g id="edge68" class="edge"><title>Node9&#45;&gt;Node22</title>
<path fill="none" stroke="midnightblue" d="M555.343,-345.944C566.182,-381.082 588.766,-455.278 606,-518.512 614.673,-550.337 600.511,-567.355 624,-590.512 651.191,-617.321 691.753,-628.606 727.783,-632.958"/>
<polygon fill="midnightblue" stroke="midnightblue" points="558.674,-344.868 552.375,-336.349 551.987,-346.937 558.674,-344.868"/>
</g>
<!-- Node10 -->
<g id="node19" class="node"><title>Node10</title>
<a xlink:href="struct_urho3_d_1_1_hash_node_base.html" target="_top" xlink:title="Hash set/map node base class.">
<polygon fill="none" stroke="black" points="188,-386.012 188,-407.012 322,-407.012 322,-386.012 188,-386.012"/>
<text text-anchor="middle" x="255" y="-394.012" font-family="FreeSans" font-size="10.00">Urho3D::HashNodeBase</text>
</a>
</g>
<!-- Node10&#45;&gt;Node9 -->
<g id="edge20" class="edge"><title>Node10&#45;&gt;Node9</title>
<path fill="none" stroke="#9a32cd" stroke-dasharray="5,2" d="M308.497,-383.593C364.865,-369.98 452.593,-348.794 505.063,-336.123"/>
<polygon fill="#9a32cd" stroke="#9a32cd" points="307.596,-380.21 298.697,-385.96 309.24,-387.014 307.596,-380.21"/>
<text text-anchor="middle" x="407" y="-405.512" font-family="FreeSans" font-size="10.00"> ptrs_</text>
<text text-anchor="middle" x="407" y="-392.512" font-family="FreeSans" font-size="10.00">tail_</text>
<text text-anchor="middle" x="407" y="-379.512" font-family="FreeSans" font-size="10.00">head_</text>
</g>
<!-- Node10&#45;&gt;Node10 -->
<g id="edge22" class="edge"><title>Node10&#45;&gt;Node10</title>
<path fill="none" stroke="#9a32cd" stroke-dasharray="5,2" d="M234.728,-416.939C236.292,-421.861 243.049,-425.512 255,-425.512 274.121,-425.512 279.947,-416.166 272.478,-407.22"/>
<polygon fill="#9a32cd" stroke="#9a32cd" points="238.123,-417.798 237.522,-407.22 231.395,-415.864 238.123,-417.798"/>
<text text-anchor="middle" x="255" y="-455.512" font-family="FreeSans" font-size="10.00"> next_</text>
<text text-anchor="middle" x="255" y="-442.512" font-family="FreeSans" font-size="10.00">prev_</text>
<text text-anchor="middle" x="255" y="-429.512" font-family="FreeSans" font-size="10.00">down_</text>
</g>
<!-- Node11 -->
<g id="node22" class="node"><title>Node11</title>
<a xlink:href="struct_urho3_d_1_1_allocator_block.html" target="_top" xlink:title="Allocator memory block.">
<polygon fill="none" stroke="red" points="191.5,-315.012 191.5,-336.012 318.5,-336.012 318.5,-315.012 191.5,-315.012"/>
<text text-anchor="middle" x="255" y="-323.012" font-family="FreeSans" font-size="10.00">Urho3D::AllocatorBlock</text>
</a>
</g>
<!-- Node11&#45;&gt;Node9 -->
<g id="edge24" class="edge"><title>Node11&#45;&gt;Node9</title>
<path fill="none" stroke="#9a32cd" stroke-dasharray="5,2" d="M328.878,-325.512C380.429,-325.512 448.078,-325.512 494.704,-325.512"/>
<polygon fill="#9a32cd" stroke="#9a32cd" points="328.794,-322.013 318.794,-325.512 328.794,-329.013 328.794,-322.013"/>
<text text-anchor="middle" x="407" y="-329.512" font-family="FreeSans" font-size="10.00"> allocator_</text>
</g>
<!-- Node11&#45;&gt;Node11 -->
<g id="edge26" class="edge"><title>Node11&#45;&gt;Node11</title>
<path fill="none" stroke="#9a32cd" stroke-dasharray="5,2" d="M234.728,-345.939C236.292,-350.861 243.049,-354.512 255,-354.512 274.121,-354.512 279.947,-345.166 272.478,-336.22"/>
<polygon fill="#9a32cd" stroke="#9a32cd" points="238.123,-346.798 237.522,-336.22 231.395,-344.864 238.123,-346.798"/>
<text text-anchor="middle" x="255" y="-358.512" font-family="FreeSans" font-size="10.00"> next_</text>
</g>
<!-- Node12&#45;&gt;Node6 -->
<g id="edge28" class="edge"><title>Node12&#45;&gt;Node6</title>
<path fill="none" stroke="#9a32cd" stroke-dasharray="5,2" d="M879.272,-573.753C931.203,-565.304 999.608,-546.291 1044,-503.512 1105.19,-444.549 1127.55,-337.634 1133.34,-303.381"/>
<polygon fill="#9a32cd" stroke="#9a32cd" points="878.474,-570.335 869.118,-575.306 879.532,-577.254 878.474,-570.335"/>
<text text-anchor="middle" x="986" y="-565.512" font-family="FreeSans" font-size="10.00"> eventHandler_</text>
</g>
<!-- Node19 -->
<g id="node45" class="node"><title>Node19</title>
<a xlink:href="class_urho3_d_1_1_linked_list.html" target="_top" xlink:title="Urho3D::LinkedList\l\&lt; Urho3D::EventHandler \&gt;">
<polygon fill="none" stroke="black" points="1062,-555.512 1062,-589.512 1208,-589.512 1208,-555.512 1062,-555.512"/>
<text text-anchor="start" x="1070" y="-576.512" font-family="FreeSans" font-size="10.00">Urho3D::LinkedList</text>
<text text-anchor="middle" x="1135" y="-563.512" font-family="FreeSans" font-size="10.00">&lt; Urho3D::EventHandler &gt;</text>
</a>
</g>
<!-- Node12&#45;&gt;Node19 -->
<g id="edge56" class="edge"><title>Node12&#45;&gt;Node19</title>
<path fill="none" stroke="#9a32cd" stroke-dasharray="5,2" d="M879.53,-585.492C926.489,-587.865 988.927,-589.426 1044,-585.512 1049.73,-585.105 1055.65,-584.555 1061.59,-583.911"/>
<polygon fill="#9a32cd" stroke="#9a32cd" points="879.624,-581.992 869.453,-584.958 879.253,-588.982 879.624,-581.992"/>
<text text-anchor="middle" x="986" y="-591.512" font-family="FreeSans" font-size="10.00"> head_</text>
</g>
<!-- Node13 -->
<g id="node28" class="node"><title>Node13</title>
<a xlink:href="class_urho3_d_1_1_string_hash.html" target="_top" xlink:title="32&#45;bit hash value for a string.">
<polygon fill="none" stroke="black" points="492.5,-669.012 492.5,-690.012 605.5,-690.012 605.5,-669.012 492.5,-669.012"/>
<text text-anchor="middle" x="549" y="-677.012" font-family="FreeSans" font-size="10.00">Urho3D::StringHash</text>
</a>
</g>
<!-- Node13&#45;&gt;Node2 -->
<g id="edge64" class="edge"><title>Node13&#45;&gt;Node2</title>
<path fill="none" stroke="#9a32cd" stroke-dasharray="5,2" d="M603.153,-693.221C631.433,-702.947 664.524,-718.775 686,-743.512 703.973,-764.215 683.63,-784.164 704,-802.512 717.873,-815.009 737.149,-820.704 755.277,-823.042"/>
<polygon fill="#9a32cd" stroke="#9a32cd" points="603.97,-689.806 593.377,-690.03 601.798,-696.46 603.97,-689.806"/>
<text text-anchor="middle" x="655" y="-747.512" font-family="FreeSans" font-size="10.00"> nameHash_</text>
</g>
<!-- Node13&#45;&gt;Node12 -->
<g id="edge32" class="edge"><title>Node13&#45;&gt;Node12</title>
<path fill="none" stroke="#9a32cd" stroke-dasharray="5,2" d="M574.531,-663.671C604.474,-645.773 656.12,-616.997 704,-600.512 717.004,-596.035 731.296,-592.46 744.986,-589.643"/>
<polygon fill="#9a32cd" stroke="#9a32cd" points="572.71,-660.682 565.963,-668.851 576.331,-666.672 572.71,-660.682"/>
<text text-anchor="middle" x="655" y="-638.512" font-family="FreeSans" font-size="10.00"> eventType_</text>
</g>
<!-- Node13&#45;&gt;Node13 -->
<g id="edge34" class="edge"><title>Node13&#45;&gt;Node13</title>
<path fill="none" stroke="#9a32cd" stroke-dasharray="5,2" d="M529.465,-699.939C530.972,-704.861 537.484,-708.512 549,-708.512 567.426,-708.512 573.04,-699.166 565.842,-690.22"/>
<polygon fill="#9a32cd" stroke="#9a32cd" points="532.861,-700.792 532.158,-690.22 526.115,-698.923 532.861,-700.792"/>
<text text-anchor="middle" x="549" y="-712.512" font-family="FreeSans" font-size="10.00"> ZERO</text>
</g>
<!-- Node14&#45;&gt;Node6 -->
<g id="edge36" class="edge"><title>Node14&#45;&gt;Node6</title>
<path fill="none" stroke="#9a32cd" stroke-dasharray="5,2" d="M893.178,-268.183C954.792,-274.382 1035.48,-282.5 1086.29,-287.612"/>
<polygon fill="#9a32cd" stroke="#9a32cd" points="893.374,-264.685 883.074,-267.166 892.674,-271.65 893.374,-264.685"/>
<text text-anchor="middle" x="986" y="-287.512" font-family="FreeSans" font-size="10.00"> eventReceivers_</text>
</g>
<!-- Node15&#45;&gt;Node6 -->
<g id="edge40" class="edge"><title>Node15&#45;&gt;Node6</title>
<path fill="none" stroke="#9a32cd" stroke-dasharray="5,2" d="M903.151,-424.574C947.945,-416.172 1000.77,-402.052 1044,-378.512 1080.08,-358.867 1112.49,-321.354 1126.98,-303.064"/>
<polygon fill="#9a32cd" stroke="#9a32cd" points="902.352,-421.161 893.133,-426.383 903.596,-428.05 902.352,-421.161"/>
<text text-anchor="middle" x="986" y="-422.512" font-family="FreeSans" font-size="10.00"> globalVars_</text>
</g>
<!-- Node16&#45;&gt;Node6 -->
<g id="edge44" class="edge"><title>Node16&#45;&gt;Node6</title>
<path fill="none" stroke="#9a32cd" stroke-dasharray="5,2" d="M903.462,-315.807C963.614,-309.756 1038.45,-302.226 1086.48,-297.394"/>
<polygon fill="#9a32cd" stroke="#9a32cd" points="902.778,-312.359 893.178,-316.842 903.478,-319.323 902.778,-312.359"/>
<text text-anchor="middle" x="986" y="-317.512" font-family="FreeSans" font-size="10.00"> subsystems_</text>
</g>
<!-- Node17 -->
<g id="node40" class="node"><title>Node17</title>
<a xlink:href="class_urho3_d_1_1_p_o_d_vector.html" target="_top" xlink:title="Urho3D::PODVector\&lt;\l Urho3D::HashMap * \&gt;">
<polygon fill="none" stroke="red" points="743.5,-367.512 743.5,-401.512 870.5,-401.512 870.5,-367.512 743.5,-367.512"/>
<text text-anchor="start" x="751.5" y="-388.512" font-family="FreeSans" font-size="10.00">Urho3D::PODVector&lt;</text>
<text text-anchor="middle" x="807" y="-375.512" font-family="FreeSans" font-size="10.00"> Urho3D::HashMap * &gt;</text>
</a>
</g>
<!-- Node17&#45;&gt;Node6 -->
<g id="edge48" class="edge"><title>Node17&#45;&gt;Node6</title>
<path fill="none" stroke="#9a32cd" stroke-dasharray="5,2" d="M880.511,-371.149C927.76,-361.733 990.155,-347.748 1044,-330.512 1067.97,-322.84 1094.42,-311.449 1112.59,-303.14"/>
<polygon fill="#9a32cd" stroke="#9a32cd" points="879.801,-367.722 870.667,-373.089 881.155,-374.59 879.801,-367.722"/>
<text text-anchor="middle" x="986" y="-365.512" font-family="FreeSans" font-size="10.00"> eventDataMaps_</text>
</g>
<!-- Node18&#45;&gt;Node6 -->
<g id="edge50" class="edge"><title>Node18&#45;&gt;Node6</title>
<path fill="none" stroke="#9a32cd" stroke-dasharray="5,2" d="M920.055,-80.3959C962.297,-91.0617 1008.57,-108.396 1044,-136.512 1094.84,-176.855 1122.96,-253.953 1131.86,-281.989"/>
<polygon fill="#9a32cd" stroke="#9a32cd" points="920.807,-76.9769 910.264,-78.0229 919.158,-83.7799 920.807,-76.9769"/>
<text text-anchor="middle" x="986" y="-140.512" font-family="FreeSans" font-size="10.00"> factories_</text>
</g>
<!-- Node19&#45;&gt;Node3 -->
<g id="edge54" class="edge"><title>Node19&#45;&gt;Node3</title>
<path fill="none" stroke="#9a32cd" stroke-dasharray="5,2" d="M1053.21,-553.818C1050.11,-553.337 1047.03,-552.899 1044,-552.512 879.407,-531.526 681.644,-534.226 594.275,-536.826"/>
<polygon fill="#9a32cd" stroke="#9a32cd" points="1052.74,-557.287 1063.18,-555.483 1053.9,-550.383 1052.74,-557.287"/>
<text text-anchor="middle" x="807" y="-543.512" font-family="FreeSans" font-size="10.00"> eventHandlers_</text>
</g>
<!-- Node20 -->
<g id="node48" class="node"><title>Node20</title>
<a xlink:href="class_urho3_d_1_1_timer.html" target="_top" xlink:title="Low&#45;resolution operating system timer.">
<polygon fill="none" stroke="black" points="506,-741.012 506,-762.012 592,-762.012 592,-741.012 506,-741.012"/>
<text text-anchor="middle" x="549" y="-749.012" font-family="FreeSans" font-size="10.00">Urho3D::Timer</text>
</a>
</g>
<!-- Node20&#45;&gt;Node2 -->
<g id="edge58" class="edge"><title>Node20&#45;&gt;Node2</title>
<path fill="none" stroke="#9a32cd" stroke-dasharray="5,2" d="M601.996,-756.596C628.573,-760.904 660.452,-768.853 686,-783.512 696.089,-789.302 693.804,-796.914 704,-802.512 719.568,-811.06 738.219,-815.998 755.345,-818.836"/>
<polygon fill="#9a32cd" stroke="#9a32cd" points="602.502,-753.132 592.094,-755.117 601.468,-760.056 602.502,-753.132"/>
<text text-anchor="middle" x="655" y="-787.512" font-family="FreeSans" font-size="10.00"> useTimer_</text>
</g>
<!-- Node21 -->
<g id="node50" class="node"><title>Node21</title>
<a xlink:href="class_urho3_d_1_1_string.html" target="_top" xlink:title="String class.">
<polygon fill="none" stroke="black" points="505,-781.012 505,-802.012 593,-802.012 593,-781.012 505,-781.012"/>
<text text-anchor="middle" x="549" y="-789.012" font-family="FreeSans" font-size="10.00">Urho3D::String</text>
</a>
</g>
<!-- Node21&#45;&gt;Node2 -->
<g id="edge60" class="edge"><title>Node21&#45;&gt;Node2</title>
<path fill="none" stroke="#9a32cd" stroke-dasharray="5,2" d="M603.163,-798.02C647.909,-803.397 711.02,-810.98 755.124,-816.279"/>
<polygon fill="#9a32cd" stroke="#9a32cd" points="603.405,-794.524 593.059,-796.806 602.57,-801.474 603.405,-794.524"/>
<text text-anchor="middle" x="655" y="-811.512" font-family="FreeSans" font-size="10.00"> name_</text>
</g>
<!-- Node21&#45;&gt;Node21 -->
<g id="edge62" class="edge"><title>Node21&#45;&gt;Node21</title>
<path fill="none" stroke="#9a32cd" stroke-dasharray="5,2" d="M529.465,-811.939C530.972,-816.861 537.484,-820.512 549,-820.512 567.426,-820.512 573.04,-811.166 565.842,-802.22"/>
<polygon fill="#9a32cd" stroke="#9a32cd" points="532.861,-812.792 532.158,-802.22 526.115,-810.923 532.861,-812.792"/>
<text text-anchor="middle" x="549" y="-824.512" font-family="FreeSans" font-size="10.00"> EMPTY</text>
</g>
<!-- Node22&#45;&gt;Node1 -->
<g id="edge66" class="edge"><title>Node22&#45;&gt;Node1</title>
<path fill="none" stroke="#9a32cd" stroke-dasharray="5,2" d="M895.928,-654.221C942.817,-667.971 999.644,-689.332 1044,-720.512 1081.47,-746.852 1114.16,-791.451 1127.99,-811.806"/>
<polygon fill="#9a32cd" stroke="#9a32cd" points="896.659,-650.789 886.082,-651.401 894.732,-657.519 896.659,-650.789"/>
<text text-anchor="middle" x="986" y="-724.512" font-family="FreeSans" font-size="10.00"> faces_</text>
</g>
<!-- Node23&#45;&gt;Node1 -->
<g id="edge70" class="edge"><title>Node23&#45;&gt;Node1</title>
<path fill="none" stroke="#9a32cd" stroke-dasharray="5,2" d="M426.719,-793.274C442.317,-810.737 465.781,-832.698 492,-842.512 606.889,-885.516 921.923,-848.6 1044,-836.512 1060.7,-834.859 1079.01,-832.206 1094.8,-829.653"/>
<polygon fill="#9a32cd" stroke="#9a32cd" points="429.305,-790.914 420.124,-785.626 424.004,-795.485 429.305,-790.914"/>
<text text-anchor="middle" x="655" y="-866.512" font-family="FreeSans" font-size="10.00"> fontData_</text>
</g>
<!-- Node24 -->
<g id="node60" class="node"><title>Node24</title>
<a xlink:href="class_urho3_d_1_1_vector2.html" target="_top" xlink:title="Two&#45;dimensional vector.">
<polygon fill="none" stroke="black" points="759,-676.012 759,-697.012 855,-697.012 855,-676.012 759,-676.012"/>
<text text-anchor="middle" x="807" y="-684.012" font-family="FreeSans" font-size="10.00">Urho3D::Vector2</text>
</a>
</g>
<!-- Node24&#45;&gt;Node1 -->
<g id="edge74" class="edge"><title>Node24&#45;&gt;Node1</title>
<path fill="none" stroke="#9a32cd" stroke-dasharray="5,2" d="M842.062,-701.05C908.434,-728.57 1051,-787.682 1109.33,-811.867"/>
<polygon fill="#9a32cd" stroke="#9a32cd" points="843.043,-697.668 832.465,-697.071 840.362,-704.134 843.043,-697.668"/>
<text text-anchor="middle" x="986" y="-785.512" font-family="FreeSans" font-size="10.00"> scaledOffset_</text>
</g>
<!-- Node24&#45;&gt;Node24 -->
<g id="edge76" class="edge"><title>Node24&#45;&gt;Node24</title>
<path fill="none" stroke="#9a32cd" stroke-dasharray="5,2" d="M778.839,-706.568C780.687,-711.676 790.073,-715.512 807,-715.512 833.422,-715.512 841.472,-706.166 831.151,-697.22"/>
<polygon fill="#9a32cd" stroke="#9a32cd" points="782.123,-707.79 782.849,-697.22 775.69,-705.031 782.123,-707.79"/>
<text text-anchor="middle" x="807" y="-784.512" font-family="FreeSans" font-size="10.00"> ONE</text>
<text text-anchor="middle" x="807" y="-771.512" font-family="FreeSans" font-size="10.00">DOWN</text>
<text text-anchor="middle" x="807" y="-758.512" font-family="FreeSans" font-size="10.00">RIGHT</text>
<text text-anchor="middle" x="807" y="-745.512" font-family="FreeSans" font-size="10.00">LEFT</text>
<text text-anchor="middle" x="807" y="-732.512" font-family="FreeSans" font-size="10.00">ZERO</text>
<text text-anchor="middle" x="807" y="-719.512" font-family="FreeSans" font-size="10.00">UP</text>
</g>
<!-- Node25 -->
<g id="node63" class="node"><title>Node25</title>
<a xlink:href="class_urho3_d_1_1_int_vector2.html" target="_top" xlink:title="Two&#45;dimensional vector with integer values.">
<polygon fill="none" stroke="black" points="753,-890.012 753,-911.012 861,-911.012 861,-890.012 753,-890.012"/>
<text text-anchor="middle" x="807" y="-898.012" font-family="FreeSans" font-size="10.00">Urho3D::IntVector2</text>
</a>
</g>
<!-- Node25&#45;&gt;Node1 -->
<g id="edge78" class="edge"><title>Node25&#45;&gt;Node1</title>
<path fill="none" stroke="#9a32cd" stroke-dasharray="5,2" d="M871.112,-900.977C919.679,-899.618 987.465,-894.012 1044,-875.512 1073.54,-865.846 1103.98,-845.646 1121.09,-833.165"/>
<polygon fill="#9a32cd" stroke="#9a32cd" points="870.968,-897.479 861.051,-901.206 871.128,-904.478 870.968,-897.479"/>
<text text-anchor="middle" x="986" y="-900.512" font-family="FreeSans" font-size="10.00"> absoluteOffset_</text>
</g>
<!-- Node25&#45;&gt;Node25 -->
<g id="edge80" class="edge"><title>Node25&#45;&gt;Node25</title>
<path fill="none" stroke="#9a32cd" stroke-dasharray="5,2" d="M778.839,-920.568C780.687,-925.676 790.073,-929.512 807,-929.512 833.422,-929.512 841.472,-920.166 831.151,-911.22"/>
<polygon fill="#9a32cd" stroke="#9a32cd" points="782.123,-921.79 782.849,-911.22 775.69,-919.031 782.123,-921.79"/>
<text text-anchor="middle" x="807" y="-933.512" font-family="FreeSans" font-size="10.00"> ZERO</text>
</g>
</g>
</svg>
