<?xml version="1.0" encoding="UTF-8" standalone="no"?>
<!DOCTYPE svg PUBLIC "-//W3C//DTD SVG 1.1//EN"
 "http://www.w3.org/Graphics/SVG/1.1/DTD/svg11.dtd">
<!-- Generated by graphviz version 2.40.1 (20161225.0304)
 -->
<!-- Title: Urho3D::Object Pages: 1 -->
<!--zoomable 692 -->
<svg id="main" version="1.1" xmlns="http://www.w3.org/2000/svg" xmlns:xlink="http://www.w3.org/1999/xlink" xml:space="preserve" onload="init(evt)">
<style type="text/css"><![CDATA[
.edge:hover path { stroke: red; }
.edge:hover polygon { stroke: red; fill: red; }
]]></style>
<script type="text/javascript"><![CDATA[
var edges = document.getElementsByTagName('g');
if (edges && edges.length) {
  for (var i=0;i<edges.length;i++) {
    if (edges[i].id.substr(0,4)=='edge') {
      edges[i].setAttribute('class','edge');
    }
  }
}
]]></script>
        <defs>
                <circle id="rim" cx="0" cy="0" r="7"/>
                <circle id="rim2" cx="0" cy="0" r="3.5"/>
                <g id="zoomPlus">
                        <use xlink:href="#rim" fill="#404040">
                                <set attributeName="fill" to="#808080" begin="zoomplus.mouseover" end="zoomplus.mouseout"/>
                        </use>
                        <path d="M-4,0h8M0,-4v8" fill="none" stroke="white" stroke-width="1.5" pointer-events="none"/>
                </g>
                <g id="zoomMin">
                        <use xlink:href="#rim" fill="#404040">
                                <set attributeName="fill" to="#808080" begin="zoomminus.mouseover" end="zoomminus.mouseout"/>
                        </use>
                        <path d="M-4,0h8" fill="none" stroke="white" stroke-width="1.5" pointer-events="none"/>
                </g>
                <g id="dirArrow">
                        <path fill="none" stroke="white" stroke-width="1.5" d="M0,-3.0v7 M-2.5,-0.5L0,-3.0L2.5,-0.5"/>
                </g>
               <g id="resetDef">
                       <use xlink:href="#rim2" fill="#404040">
                               <set attributeName="fill" to="#808080" begin="reset.mouseover" end="reset.mouseout"/>
                       </use>
               </g>
        </defs>

<script type="text/javascript">
var viewWidth = 1236;
var viewHeight = 692;
var sectionId = 'dynsection-0';
</script>
<script xlink:href="svgpan.js"/>
<svg id="graph" class="graph">
<g id="viewport">
<title>Urho3D::Object</title>
<!-- Node172 -->
<g id="node1" class="node">
<title>Node172</title>
<polygon fill="#bfbfbf" stroke="#000000" points="458.5,-646 458.5,-665 549.5,-665 549.5,-646 458.5,-646"/>
<text text-anchor="middle" x="504" y="-653" font-family="Helvetica,sans-Serif" font-size="10.00" fill="#000000">Urho3D::Object</text>
</g>
<!-- Node182 -->
<g id="node11" class="node">
<title>Node182</title>
<g id="a_node11"><a xlink:href="class_urho3_d_1_1_event_handler.html" target="_top" xlink:title="Internal helper class for invoking event handler functions. ">
<polygon fill="none" stroke="#000000" points="732,-570 732,-589 857,-589 857,-570 732,-570"/>
<text text-anchor="middle" x="794.5" y="-577" font-family="Helvetica,sans-Serif" font-size="10.00" fill="#000000">Urho3D::EventHandler</text>
</a>
</g>
</g>
<!-- Node172&#45;&gt;Node182 -->
<g id="edge18" class="edge">
<title>Node172&#45;&gt;Node182</title>
<path fill="none" stroke="#9a32cd" stroke-dasharray="5,2" d="M559.1098,-643.1363C563.2912,-641.2301 567.3124,-639.0326 571,-636.5 581.9908,-628.9515 577.5863,-619.3924 589,-612.5 612.5082,-598.3041 680.5472,-589.332 731.9491,-584.3851"/>
<polygon fill="#9a32cd" stroke="#9a32cd" points="557.7601,-639.9064 549.7675,-646.8613 560.3527,-646.4086 557.7601,-639.9064"/>
<text text-anchor="middle" x="618.5" y="-626.5" font-family="Helvetica,sans-Serif" font-size="10.00" fill="#000000"> sender_</text>
<text text-anchor="middle" x="618.5" y="-615.5" font-family="Helvetica,sans-Serif" font-size="10.00" fill="#000000">receiver_</text>
</g>
<!-- Node173 -->
<g id="node2" class="node">
<title>Node173</title>
<g id="a_node2"><a xlink:href="class_urho3_d_1_1_ref_counted.html" target="_top" xlink:title="Base class for intrusively reference&#45;counted objects. These are noncopyable and non&#45;assignable. ">
<polygon fill="none" stroke="#000000" points="224,-491 224,-510 340,-510 340,-491 224,-491"/>
<text text-anchor="middle" x="282" y="-498" font-family="Helvetica,sans-Serif" font-size="10.00" fill="#000000">Urho3D::RefCounted</text>
</a>
</g>
</g>
<!-- Node173&#45;&gt;Node172 -->
<g id="edge1" class="edge">
<title>Node173&#45;&gt;Node172</title>
<path fill="none" stroke="#191970" d="M296.6924,-517.6143C322.3017,-546.3816 378.0394,-604.4226 437,-636.5 444.0096,-640.3136 451.8581,-643.4236 459.6472,-645.9395"/>
<polygon fill="#191970" stroke="#191970" points="299.2413,-515.2125 290.0151,-510.0041 293.9796,-519.8292 299.2413,-515.2125"/>
</g>
<!-- Node175 -->
<g id="node4" class="node">
<title>Node175</title>
<g id="a_node4"><a xlink:href="class_urho3_d_1_1_context.html" target="_top" xlink:title="Urho3D execution context. Provides access to subsystems, object factories and attributes, and event receivers. ">
<polygon fill="none" stroke="#000000" points="1105,-370 1105,-389 1203,-389 1203,-370 1105,-370"/>
<text text-anchor="middle" x="1154" y="-377" font-family="Helvetica,sans-Serif" font-size="10.00" fill="#000000">Urho3D::Context</text>
</a>
</g>
</g>
<!-- Node173&#45;&gt;Node175 -->
<g id="edge4" class="edge">
<title>Node173&#45;&gt;Node175</title>
<path fill="none" stroke="#191970" d="M326.7979,-488.3163C357.5756,-480.3856 399.4933,-470.4454 437,-464.5 651.1315,-430.5566 707.2868,-444.2317 923,-422.5 984.8725,-416.2668 1001.0543,-418.8564 1062,-406.5 1083.8607,-402.0679 1108.0427,-394.878 1126.1265,-389.0317"/>
<polygon fill="#191970" stroke="#191970" points="325.6034,-485.0106 316.8098,-490.9201 327.3693,-491.7842 325.6034,-485.0106"/>
</g>
<!-- Node174 -->
<g id="node3" class="node">
<title>Node174</title>
<g id="a_node3"><a xlink:href="struct_urho3_d_1_1_ref_count.html" target="_top" xlink:title="Reference count structure. ">
<polygon fill="none" stroke="#000000" points="12,-491 12,-510 116,-510 116,-491 12,-491"/>
<text text-anchor="middle" x="64" y="-498" font-family="Helvetica,sans-Serif" font-size="10.00" fill="#000000">Urho3D::RefCount</text>
</a>
</g>
</g>
<!-- Node174&#45;&gt;Node173 -->
<g id="edge2" class="edge">
<title>Node174&#45;&gt;Node173</title>
<path fill="none" stroke="#9a32cd" stroke-dasharray="5,2" d="M126.3486,-500.5C156.9635,-500.5 193.6303,-500.5 223.6841,-500.5"/>
<polygon fill="#9a32cd" stroke="#9a32cd" points="126.2165,-497.0001 116.2164,-500.5 126.2164,-504.0001 126.2165,-497.0001"/>
<text text-anchor="middle" x="171.5" y="-503.5" font-family="Helvetica,sans-Serif" font-size="10.00" fill="#000000"> refCount_</text>
</g>
<!-- Node175&#45;&gt;Node172 -->
<g id="edge3" class="edge">
<title>Node175&#45;&gt;Node172</title>
<path fill="none" stroke="#9a32cd" stroke-dasharray="5,2" d="M1149.8757,-399.1018C1137.9558,-453.7177 1101.7657,-605.5097 1062,-634.5 1044.2115,-647.4683 687.9968,-647.6359 666,-648.5 626.7593,-650.0414 582.1806,-651.9815 549.7336,-653.4281"/>
<polygon fill="#9a32cd" stroke="#9a32cd" points="1153.367,-399.5133 1152.0435,-389.0015 1146.5229,-398.0443 1153.367,-399.5133"/>
<text text-anchor="middle" x="794.5" y="-651.5" font-family="Helvetica,sans-Serif" font-size="10.00" fill="#000000"> context_</text>
</g>
<!-- Node176 -->
<g id="node5" class="node">
<title>Node176</title>
<g id="a_node5"><a xlink:href="class_urho3_d_1_1_hash_map.html" target="_top" xlink:title="Urho3D::HashMap\&lt; Urho3D\l::Object *, Urho3D::HashMap\l\&lt; Urho3D::StringHash, Urho3D\l::SharedPtr\&lt; Urho3D::EventReceiverGroup \&gt; \&gt; \&gt;">
<polygon fill="none" stroke="#000000" points="666,-71.5 666,-123.5 923,-123.5 923,-71.5 666,-71.5"/>
<text text-anchor="start" x="674" y="-111.5" font-family="Helvetica,sans-Serif" font-size="10.00" fill="#000000">Urho3D::HashMap&lt; Urho3D</text>
<text text-anchor="start" x="674" y="-100.5" font-family="Helvetica,sans-Serif" font-size="10.00" fill="#000000">::Object *, Urho3D::HashMap</text>
<text text-anchor="start" x="674" y="-89.5" font-family="Helvetica,sans-Serif" font-size="10.00" fill="#000000">&lt; Urho3D::StringHash, Urho3D</text>
<text text-anchor="middle" x="794.5" y="-78.5" font-family="Helvetica,sans-Serif" font-size="10.00" fill="#000000">::SharedPtr&lt; Urho3D::EventReceiverGroup &gt; &gt; &gt;</text>
</a>
</g>
</g>
<!-- Node176&#45;&gt;Node175 -->
<g id="edge5" class="edge">
<title>Node176&#45;&gt;Node175</title>
<path fill="none" stroke="#9a32cd" stroke-dasharray="5,2" d="M933.2173,-106.4901C978.4535,-115.4518 1026.1962,-132.0918 1062,-162.5 1129.6802,-219.9808 1148.7252,-335.9328 1152.9573,-369.9278"/>
<polygon fill="#9a32cd" stroke="#9a32cd" points="933.7785,-103.0345 923.3059,-104.639 932.4933,-109.9155 933.7785,-103.0345"/>
<text text-anchor="middle" x="1001.5" y="-165.5" font-family="Helvetica,sans-Serif" font-size="10.00" fill="#000000"> specificEventReceivers_</text>
</g>
<!-- Node177 -->
<g id="node6" class="node">
<title>Node177</title>
<g id="a_node6"><a xlink:href="class_urho3_d_1_1_hash_base.html" target="_top" xlink:title="Hash set/map base class. ">
<polygon fill="none" stroke="#000000" points="450,-214 450,-233 558,-233 558,-214 450,-214"/>
<text text-anchor="middle" x="504" y="-221" font-family="Helvetica,sans-Serif" font-size="10.00" fill="#000000">Urho3D::HashBase</text>
</a>
</g>
</g>
<!-- Node177&#45;&gt;Node176 -->
<g id="edge6" class="edge">
<title>Node177&#45;&gt;Node176</title>
<path fill="none" stroke="#191970" d="M527.279,-208.2667C557.991,-188.7169 614.224,-154.7904 666,-133.5 674.5709,-129.9756 683.6005,-126.6737 692.7364,-123.6108"/>
<polygon fill="#191970" stroke="#191970" points="525.1217,-205.4925 518.6002,-213.8424 528.9054,-211.3819 525.1217,-205.4925"/>
</g>
<!-- Node181 -->
<g id="node10" class="node">
<title>Node181</title>
<g id="a_node10"><a xlink:href="class_urho3_d_1_1_hash_map.html" target="_top" xlink:title="Urho3D::HashMap\&lt; Urho3D\l::StringHash, Urho3D::\lSharedPtr\&lt; Urho3D::EventReceiver\lGroup \&gt; \&gt;">
<polygon fill="none" stroke="#000000" points="700.5,-.5 700.5,-52.5 888.5,-52.5 888.5,-.5 700.5,-.5"/>
<text text-anchor="start" x="708.5" y="-40.5" font-family="Helvetica,sans-Serif" font-size="10.00" fill="#000000">Urho3D::HashMap&lt; Urho3D</text>
<text text-anchor="start" x="708.5" y="-29.5" font-family="Helvetica,sans-Serif" font-size="10.00" fill="#000000">::StringHash, Urho3D::</text>
<text text-anchor="start" x="708.5" y="-18.5" font-family="Helvetica,sans-Serif" font-size="10.00" fill="#000000">SharedPtr&lt; Urho3D::EventReceiver</text>
<text text-anchor="middle" x="794.5" y="-7.5" font-family="Helvetica,sans-Serif" font-size="10.00" fill="#000000">Group &gt; &gt;</text>
</a>
</g>
</g>
<!-- Node177&#45;&gt;Node181 -->
<g id="edge14" class="edge">
<title>Node177&#45;&gt;Node181</title>
<path fill="none" stroke="#191970" d="M516.9216,-205.3073C541.8122,-171.6418 599.8339,-99.5947 666,-61.5 676.6201,-55.3855 688.3506,-50.3027 700.2765,-46.0864"/>
<polygon fill="#191970" stroke="#191970" points="513.8511,-203.5787 510.8004,-213.7248 519.5124,-207.6956 513.8511,-203.5787"/>
</g>
<!-- Node187 -->
<g id="node16" class="node">
<title>Node187</title>
<g id="a_node16"><a xlink:href="class_urho3_d_1_1_hash_map.html" target="_top" xlink:title="Urho3D::HashMap\&lt; StringHash,\l Variant \&gt;">
<polygon fill="none" stroke="#000000" points="708.5,-383.5 708.5,-413.5 880.5,-413.5 880.5,-383.5 708.5,-383.5"/>
<text text-anchor="start" x="716.5" y="-401.5" font-family="Helvetica,sans-Serif" font-size="10.00" fill="#000000">Urho3D::HashMap&lt; StringHash,</text>
<text text-anchor="middle" x="794.5" y="-390.5" font-family="Helvetica,sans-Serif" font-size="10.00" fill="#000000"> Variant &gt;</text>
</a>
</g>
</g>
<!-- Node177&#45;&gt;Node187 -->
<g id="edge24" class="edge">
<title>Node177&#45;&gt;Node187</title>
<path fill="none" stroke="#191970" d="M517.2885,-241.3692C542.3889,-273.6658 600.196,-341.379 666,-373.5 679.1735,-379.9304 693.8659,-384.7075 708.4758,-388.2562"/>
<polygon fill="#191970" stroke="#191970" points="519.9466,-239.083 511.0967,-233.258 514.3825,-243.3305 519.9466,-239.083"/>
</g>
<!-- Node188 -->
<g id="node17" class="node">
<title>Node188</title>
<g id="a_node17"><a xlink:href="class_urho3_d_1_1_hash_map.html" target="_top" xlink:title="Urho3D::HashMap\&lt; Urho3D\l::StringHash, Urho3D::\lSharedPtr\&lt; Urho3D::Object \&gt; \&gt;">
<polygon fill="none" stroke="#000000" points="708.5,-323 708.5,-364 880.5,-364 880.5,-323 708.5,-323"/>
<text text-anchor="start" x="716.5" y="-352" font-family="Helvetica,sans-Serif" font-size="10.00" fill="#000000">Urho3D::HashMap&lt; Urho3D</text>
<text text-anchor="start" x="716.5" y="-341" font-family="Helvetica,sans-Serif" font-size="10.00" fill="#000000">::StringHash, Urho3D::</text>
<text text-anchor="middle" x="794.5" y="-330" font-family="Helvetica,sans-Serif" font-size="10.00" fill="#000000">SharedPtr&lt; Urho3D::Object &gt; &gt;</text>
</a>
</g>
</g>
<!-- Node177&#45;&gt;Node188 -->
<g id="edge26" class="edge">
<title>Node177&#45;&gt;Node188</title>
<path fill="none" stroke="#191970" d="M526.6639,-238.7736C557.1161,-258.6546 613.4981,-293.2435 666,-313.5 679.4652,-318.6952 694.0852,-323.1502 708.4762,-326.9148"/>
<polygon fill="#191970" stroke="#191970" points="528.3529,-235.6948 518.0787,-233.108 524.4972,-241.5373 528.3529,-235.6948"/>
</g>
<!-- Node190 -->
<g id="node19" class="node">
<title>Node190</title>
<g id="a_node19"><a xlink:href="class_urho3_d_1_1_hash_map.html" target="_top" xlink:title="Urho3D::HashMap\&lt; Urho3D\l::StringHash, Urho3D::\lSharedPtr\&lt; Urho3D::ObjectFactory \&gt; \&gt;">
<polygon fill="none" stroke="#000000" points="691,-263 691,-304 898,-304 898,-263 691,-263"/>
<text text-anchor="start" x="699" y="-292" font-family="Helvetica,sans-Serif" font-size="10.00" fill="#000000">Urho3D::HashMap&lt; Urho3D</text>
<text text-anchor="start" x="699" y="-281" font-family="Helvetica,sans-Serif" font-size="10.00" fill="#000000">::StringHash, Urho3D::</text>
<text text-anchor="middle" x="794.5" y="-270" font-family="Helvetica,sans-Serif" font-size="10.00" fill="#000000">SharedPtr&lt; Urho3D::ObjectFactory &gt; &gt;</text>
</a>
</g>
</g>
<!-- Node177&#45;&gt;Node190 -->
<g id="edge30" class="edge">
<title>Node177&#45;&gt;Node190</title>
<path fill="none" stroke="#191970" d="M559.9503,-235.056C598.213,-242.9588 649.9858,-253.652 695.1565,-262.9816"/>
<polygon fill="#191970" stroke="#191970" points="560.5319,-231.6023 550.0306,-233.0072 559.1159,-238.4576 560.5319,-231.6023"/>
</g>
<!-- Node191 -->
<g id="node20" class="node">
<title>Node191</title>
<g id="a_node20"><a xlink:href="class_urho3_d_1_1_hash_map.html" target="_top" xlink:title="Urho3D::HashMap\&lt; Urho3D\l::String, Urho3D::Vector\l\&lt; Urho3D::StringHash \&gt; \&gt;">
<polygon fill="none" stroke="#000000" points="718.5,-203 718.5,-244 870.5,-244 870.5,-203 718.5,-203"/>
<text text-anchor="start" x="726.5" y="-232" font-family="Helvetica,sans-Serif" font-size="10.00" fill="#000000">Urho3D::HashMap&lt; Urho3D</text>
<text text-anchor="start" x="726.5" y="-221" font-family="Helvetica,sans-Serif" font-size="10.00" fill="#000000">::String, Urho3D::Vector</text>
<text text-anchor="middle" x="794.5" y="-210" font-family="Helvetica,sans-Serif" font-size="10.00" fill="#000000">&lt; Urho3D::StringHash &gt; &gt;</text>
</a>
</g>
</g>
<!-- Node177&#45;&gt;Node191 -->
<g id="edge32" class="edge">
<title>Node177&#45;&gt;Node191</title>
<path fill="none" stroke="#191970" d="M568.3666,-223.5C612.6455,-223.5 671.6465,-223.5 718.2787,-223.5"/>
<polygon fill="#191970" stroke="#191970" points="568.3001,-220.0001 558.3,-223.5 568.3,-227.0001 568.3001,-220.0001"/>
</g>
<!-- Node192 -->
<g id="node21" class="node">
<title>Node192</title>
<g id="a_node21"><a xlink:href="class_urho3_d_1_1_hash_map.html" target="_top" xlink:title="Urho3D::HashMap\&lt; Urho3D\l::StringHash, Urho3D::\lVector\&lt; Urho3D::AttributeInfo \&gt; \&gt;">
<polygon fill="none" stroke="#000000" points="702,-143 702,-184 887,-184 887,-143 702,-143"/>
<text text-anchor="start" x="710" y="-172" font-family="Helvetica,sans-Serif" font-size="10.00" fill="#000000">Urho3D::HashMap&lt; Urho3D</text>
<text text-anchor="start" x="710" y="-161" font-family="Helvetica,sans-Serif" font-size="10.00" fill="#000000">::StringHash, Urho3D::</text>
<text text-anchor="middle" x="794.5" y="-150" font-family="Helvetica,sans-Serif" font-size="10.00" fill="#000000">Vector&lt; Urho3D::AttributeInfo &gt; &gt;</text>
</a>
</g>
</g>
<!-- Node177&#45;&gt;Node192 -->
<g id="edge34" class="edge">
<title>Node177&#45;&gt;Node192</title>
<path fill="none" stroke="#191970" d="M559.904,-211.9536C600.0576,-203.6602 655.1068,-192.2903 701.7884,-182.6487"/>
<polygon fill="#191970" stroke="#191970" points="559.1159,-208.5424 550.0306,-213.9928 560.5319,-215.3977 559.1159,-208.5424"/>
</g>
<!-- Node178 -->
<g id="node7" class="node">
<title>Node178</title>
<g id="a_node7"><a xlink:href="struct_urho3_d_1_1_hash_node_base.html" target="_top" xlink:title="Hash set/map node base class. ">
<polygon fill="none" stroke="#000000" points="215,-232 215,-251 349,-251 349,-232 215,-232"/>
<text text-anchor="middle" x="282" y="-239" font-family="Helvetica,sans-Serif" font-size="10.00" fill="#000000">Urho3D::HashNodeBase</text>
</a>
</g>
</g>
<!-- Node178&#45;&gt;Node177 -->
<g id="edge7" class="edge">
<title>Node178&#45;&gt;Node177</title>
<path fill="none" stroke="#9a32cd" stroke-dasharray="5,2" d="M359.5643,-235.211C389.2995,-232.8 422.5655,-230.1028 449.6705,-227.9051"/>
<polygon fill="#9a32cd" stroke="#9a32cd" points="358.8942,-231.7538 349.2098,-236.0506 359.46,-238.7309 358.8942,-231.7538"/>
<text text-anchor="middle" x="393" y="-259.5" font-family="Helvetica,sans-Serif" font-size="10.00" fill="#000000"> ptrs_</text>
<text text-anchor="middle" x="393" y="-248.5" font-family="Helvetica,sans-Serif" font-size="10.00" fill="#000000">tail_</text>
<text text-anchor="middle" x="393" y="-237.5" font-family="Helvetica,sans-Serif" font-size="10.00" fill="#000000">head_</text>
</g>
<!-- Node178&#45;&gt;Node178 -->
<g id="edge8" class="edge">
<title>Node178&#45;&gt;Node178</title>
<path fill="none" stroke="#9a32cd" stroke-dasharray="5,2" d="M261.6306,-260.9C262.991,-265.8146 269.7808,-269.5 282,-269.5 301.5508,-269.5 307.2022,-260.0653 298.9542,-251.2571"/>
<polygon fill="#9a32cd" stroke="#9a32cd" points="265.0065,-261.8518 265.0458,-251.2571 258.4081,-259.5149 265.0065,-261.8518"/>
<text text-anchor="middle" x="282" y="-294.5" font-family="Helvetica,sans-Serif" font-size="10.00" fill="#000000"> next_</text>
<text text-anchor="middle" x="282" y="-283.5" font-family="Helvetica,sans-Serif" font-size="10.00" fill="#000000">prev_</text>
<text text-anchor="middle" x="282" y="-272.5" font-family="Helvetica,sans-Serif" font-size="10.00" fill="#000000">down_</text>
</g>
<!-- Node179 -->
<g id="node8" class="node">
<title>Node179</title>
<g id="a_node8"><a xlink:href="struct_urho3_d_1_1_allocator_block.html" target="_top" xlink:title="Allocator memory block. ">
<polygon fill="none" stroke="#000000" points="217,-165 217,-184 347,-184 347,-165 217,-165"/>
<text text-anchor="middle" x="282" y="-172" font-family="Helvetica,sans-Serif" font-size="10.00" fill="#000000">Urho3D::AllocatorBlock</text>
</a>
</g>
</g>
<!-- Node179&#45;&gt;Node177 -->
<g id="edge9" class="edge">
<title>Node179&#45;&gt;Node177</title>
<path fill="none" stroke="#9a32cd" stroke-dasharray="5,2" d="M335.035,-186.2059C373.4421,-194.6832 424.7187,-206.001 460.6743,-213.9371"/>
<polygon fill="#9a32cd" stroke="#9a32cd" points="335.5864,-182.7435 325.0671,-184.0058 334.0776,-189.5789 335.5864,-182.7435"/>
<text text-anchor="middle" x="393" y="-206.5" font-family="Helvetica,sans-Serif" font-size="10.00" fill="#000000"> allocator_</text>
</g>
<!-- Node179&#45;&gt;Node179 -->
<g id="edge10" class="edge">
<title>Node179&#45;&gt;Node179</title>
<path fill="none" stroke="#9a32cd" stroke-dasharray="5,2" d="M261.6306,-193.9C262.991,-198.8146 269.7808,-202.5 282,-202.5 301.5508,-202.5 307.2022,-193.0653 298.9542,-184.2571"/>
<polygon fill="#9a32cd" stroke="#9a32cd" points="265.0065,-194.8518 265.0458,-184.2571 258.4081,-192.5149 265.0065,-194.8518"/>
<text text-anchor="middle" x="282" y="-205.5" font-family="Helvetica,sans-Serif" font-size="10.00" fill="#000000"> next_</text>
</g>
<!-- Node180 -->
<g id="node9" class="node">
<title>Node180</title>
<g id="a_node9"><a xlink:href="struct_urho3_d_1_1_allocator_node.html" target="_top" xlink:title="Allocator node. ">
<polygon fill="none" stroke="#000000" points="0,-165 0,-184 128,-184 128,-165 0,-165"/>
<text text-anchor="middle" x="64" y="-172" font-family="Helvetica,sans-Serif" font-size="10.00" fill="#000000">Urho3D::AllocatorNode</text>
</a>
</g>
</g>
<!-- Node180&#45;&gt;Node179 -->
<g id="edge11" class="edge">
<title>Node180&#45;&gt;Node179</title>
<path fill="none" stroke="#9a32cd" stroke-dasharray="5,2" d="M138.5487,-174.5C163.9409,-174.5 192.1134,-174.5 216.722,-174.5"/>
<polygon fill="#9a32cd" stroke="#9a32cd" points="138.2281,-171.0001 128.2281,-174.5 138.2281,-178.0001 138.2281,-171.0001"/>
<text text-anchor="middle" x="171.5" y="-177.5" font-family="Helvetica,sans-Serif" font-size="10.00" fill="#000000"> free_</text>
</g>
<!-- Node180&#45;&gt;Node180 -->
<g id="edge12" class="edge">
<title>Node180&#45;&gt;Node180</title>
<path fill="none" stroke="#9a32cd" stroke-dasharray="5,2" d="M44.3713,-193.9C45.6822,-198.8146 52.2251,-202.5 64,-202.5 82.8398,-202.5 88.2857,-193.0653 80.3377,-184.2571"/>
<polygon fill="#9a32cd" stroke="#9a32cd" points="47.7447,-194.8516 47.6623,-184.2571 41.1199,-192.5906 47.7447,-194.8516"/>
<text text-anchor="middle" x="64" y="-205.5" font-family="Helvetica,sans-Serif" font-size="10.00" fill="#000000"> next_</text>
</g>
<!-- Node181&#45;&gt;Node175 -->
<g id="edge13" class="edge">
<title>Node181&#45;&gt;Node175</title>
<path fill="none" stroke="#9a32cd" stroke-dasharray="5,2" d="M898.6706,-29.0512C953.5429,-35.6736 1018.3243,-52.6079 1062,-93.5 1104.8343,-133.6044 1143.4418,-324.141 1152.1639,-369.6985"/>
<polygon fill="#9a32cd" stroke="#9a32cd" points="898.8716,-25.5522 888.5474,-27.9312 898.1018,-32.5097 898.8716,-25.5522"/>
<text text-anchor="middle" x="1001.5" y="-96.5" font-family="Helvetica,sans-Serif" font-size="10.00" fill="#000000"> eventReceivers_</text>
</g>
<!-- Node182&#45;&gt;Node175 -->
<g id="edge15" class="edge">
<title>Node182&#45;&gt;Node175</title>
<path fill="none" stroke="#9a32cd" stroke-dasharray="5,2" d="M867.4233,-581.5683C925.1466,-579.6911 1005.2241,-568.9076 1062,-528.5 1113.5198,-491.8331 1142.0543,-416.3866 1150.9435,-389.3833"/>
<polygon fill="#9a32cd" stroke="#9a32cd" points="867.1896,-578.0729 857.2776,-581.8146 867.3596,-585.0708 867.1896,-578.0729"/>
<text text-anchor="middle" x="1001.5" y="-576.5" font-family="Helvetica,sans-Serif" font-size="10.00" fill="#000000"> eventHandler_</text>
</g>
<!-- Node193 -->
<g id="node22" class="node">
<title>Node193</title>
<g id="a_node22"><a xlink:href="class_urho3_d_1_1_linked_list.html" target="_top" xlink:title="Urho3D::LinkedList\l\&lt; Urho3D::EventHandler \&gt;">
<polygon fill="none" stroke="#000000" points="1080,-624.5 1080,-654.5 1228,-654.5 1228,-624.5 1080,-624.5"/>
<text text-anchor="start" x="1088" y="-642.5" font-family="Helvetica,sans-Serif" font-size="10.00" fill="#000000">Urho3D::LinkedList</text>
<text text-anchor="middle" x="1154" y="-631.5" font-family="Helvetica,sans-Serif" font-size="10.00" fill="#000000">&lt; Urho3D::EventHandler &gt;</text>
</a>
</g>
</g>
<!-- Node182&#45;&gt;Node193 -->
<g id="edge36" class="edge">
<title>Node182&#45;&gt;Node193</title>
<path fill="none" stroke="#9a32cd" stroke-dasharray="5,2" d="M861.5355,-590.6881C923.5729,-601.0421 1015.6409,-616.4081 1079.852,-627.1248"/>
<polygon fill="#9a32cd" stroke="#9a32cd" points="861.9036,-587.2012 851.4638,-589.0072 860.7512,-594.1057 861.9036,-587.2012"/>
<text text-anchor="middle" x="1001.5" y="-626.5" font-family="Helvetica,sans-Serif" font-size="10.00" fill="#000000"> head_</text>
</g>
<!-- Node183 -->
<g id="node12" class="node">
<title>Node183</title>
<g id="a_node12"><a xlink:href="struct_urho3_d_1_1_linked_list_node.html" target="_top" xlink:title="Singly&#45;linked list node base class. ">
<polygon fill="none" stroke="#000000" points="437,-579 437,-598 571,-598 571,-579 437,-579"/>
<text text-anchor="middle" x="504" y="-586" font-family="Helvetica,sans-Serif" font-size="10.00" fill="#000000">Urho3D::LinkedListNode</text>
</a>
</g>
</g>
<!-- Node183&#45;&gt;Node182 -->
<g id="edge16" class="edge">
<title>Node183&#45;&gt;Node182</title>
<path fill="none" stroke="#191970" d="M581.1633,-586.1094C628.2363,-584.651 687.6399,-582.8106 731.8018,-581.4425"/>
<polygon fill="#191970" stroke="#191970" points="580.8981,-582.6158 571.0113,-586.4239 581.1149,-589.6125 580.8981,-582.6158"/>
</g>
<!-- Node183&#45;&gt;Node183 -->
<g id="edge17" class="edge">
<title>Node183&#45;&gt;Node183</title>
<path fill="none" stroke="#9a32cd" stroke-dasharray="5,2" d="M483.6306,-607.9C484.991,-612.8146 491.7808,-616.5 504,-616.5 523.5508,-616.5 529.2022,-607.0653 520.9542,-598.2571"/>
<polygon fill="#9a32cd" stroke="#9a32cd" points="487.0065,-608.8518 487.0458,-598.2571 480.4081,-606.5149 487.0065,-608.8518"/>
<text text-anchor="middle" x="504" y="-619.5" font-family="Helvetica,sans-Serif" font-size="10.00" fill="#000000"> next_</text>
</g>
<!-- Node184 -->
<g id="node13" class="node">
<title>Node184</title>
<g id="a_node13"><a xlink:href="class_urho3_d_1_1_string_hash.html" target="_top" xlink:title="32&#45;bit hash value for a string. ">
<polygon fill="none" stroke="#000000" points="447.5,-512 447.5,-531 560.5,-531 560.5,-512 447.5,-512"/>
<text text-anchor="middle" x="504" y="-519" font-family="Helvetica,sans-Serif" font-size="10.00" fill="#000000">Urho3D::StringHash</text>
</a>
</g>
</g>
<!-- Node184&#45;&gt;Node182 -->
<g id="edge19" class="edge">
<title>Node184&#45;&gt;Node182</title>
<path fill="none" stroke="#9a32cd" stroke-dasharray="5,2" d="M551.179,-533.5663C583.3895,-541.5577 627.1089,-551.9235 666,-559.5 687.3854,-563.6661 710.9072,-567.5333 731.9161,-570.7348"/>
<polygon fill="#9a32cd" stroke="#9a32cd" points="551.6961,-530.0881 541.1461,-531.0616 550.0006,-536.8796 551.6961,-530.0881"/>
<text text-anchor="middle" x="618.5" y="-558.5" font-family="Helvetica,sans-Serif" font-size="10.00" fill="#000000"> eventType_</text>
</g>
<!-- Node184&#45;&gt;Node184 -->
<g id="edge20" class="edge">
<title>Node184&#45;&gt;Node184</title>
<path fill="none" stroke="#9a32cd" stroke-dasharray="5,2" d="M483.6306,-540.9C484.991,-545.8146 491.7808,-549.5 504,-549.5 523.5508,-549.5 529.2022,-540.0653 520.9542,-531.2571"/>
<polygon fill="#9a32cd" stroke="#9a32cd" points="487.0065,-541.8518 487.0458,-531.2571 480.4081,-539.5149 487.0065,-541.8518"/>
<text text-anchor="middle" x="504" y="-552.5" font-family="Helvetica,sans-Serif" font-size="10.00" fill="#000000"> ZERO</text>
</g>
<!-- Node185 -->
<g id="node14" class="node">
<title>Node185</title>
<g id="a_node14"><a xlink:href="class_urho3_d_1_1_p_o_d_vector.html" target="_top" xlink:title="Urho3D::PODVector\&lt;\l Urho3D::Object *\&gt;">
<polygon fill="none" stroke="#000000" points="735,-471.5 735,-501.5 854,-501.5 854,-471.5 735,-471.5"/>
<text text-anchor="start" x="743" y="-489.5" font-family="Helvetica,sans-Serif" font-size="10.00" fill="#000000">Urho3D::PODVector&lt;</text>
<text text-anchor="middle" x="794.5" y="-478.5" font-family="Helvetica,sans-Serif" font-size="10.00" fill="#000000"> Urho3D::Object *&gt;</text>
</a>
</g>
</g>
<!-- Node185&#45;&gt;Node175 -->
<g id="edge21" class="edge">
<title>Node185&#45;&gt;Node175</title>
<path fill="none" stroke="#9a32cd" stroke-dasharray="5,2" d="M864.2955,-483.2321C931.4021,-479.2755 1027.5696,-471.2309 1062,-456.5 1098.3835,-440.9335 1131.4378,-406.0587 1146.063,-389.111"/>
<polygon fill="#9a32cd" stroke="#9a32cd" points="863.9866,-479.7439 854.2029,-483.8094 864.3865,-486.7325 863.9866,-479.7439"/>
<text text-anchor="middle" x="1001.5" y="-480.5" font-family="Helvetica,sans-Serif" font-size="10.00" fill="#000000"> eventSenders_</text>
</g>
<!-- Node186 -->
<g id="node15" class="node">
<title>Node186</title>
<g id="a_node15"><a xlink:href="class_urho3_d_1_1_vector_base.html" target="_top" xlink:title="Vector base class. ">
<polygon fill="none" stroke="#000000" points="447,-474 447,-493 561,-493 561,-474 447,-474"/>
<text text-anchor="middle" x="504" y="-481" font-family="Helvetica,sans-Serif" font-size="10.00" fill="#000000">Urho3D::VectorBase</text>
</a>
</g>
</g>
<!-- Node186&#45;&gt;Node185 -->
<g id="edge22" class="edge">
<title>Node186&#45;&gt;Node185</title>
<path fill="none" stroke="#191970" d="M571.3232,-484.1952C620.759,-484.7058 687.3031,-485.393 734.8373,-485.8839"/>
<polygon fill="#191970" stroke="#191970" points="571.0825,-480.6927 561.0468,-484.0891 571.0101,-487.6923 571.0825,-480.6927"/>
</g>
<!-- Node189 -->
<g id="node18" class="node">
<title>Node189</title>
<g id="a_node18"><a xlink:href="class_urho3_d_1_1_p_o_d_vector.html" target="_top" xlink:title="Urho3D::PODVector\&lt;\l Urho3D::HashMap *\&gt;">
<polygon fill="none" stroke="#000000" points="732.5,-520.5 732.5,-550.5 856.5,-550.5 856.5,-520.5 732.5,-520.5"/>
<text text-anchor="start" x="740.5" y="-538.5" font-family="Helvetica,sans-Serif" font-size="10.00" fill="#000000">Urho3D::PODVector&lt;</text>
<text text-anchor="middle" x="794.5" y="-527.5" font-family="Helvetica,sans-Serif" font-size="10.00" fill="#000000"> Urho3D::HashMap *&gt;</text>
</a>
</g>
</g>
<!-- Node186&#45;&gt;Node189 -->
<g id="edge28" class="edge">
<title>Node186&#45;&gt;Node189</title>
<path fill="none" stroke="#191970" d="M567.1362,-494.8015C616.1529,-503.5756 683.7498,-515.6755 732.4811,-524.3985"/>
<polygon fill="#191970" stroke="#191970" points="567.7425,-491.3545 557.2822,-493.0376 566.509,-498.2449 567.7425,-491.3545"/>
</g>
<!-- Node187&#45;&gt;Node175 -->
<g id="edge23" class="edge">
<title>Node187&#45;&gt;Node175</title>
<path fill="none" stroke="#9a32cd" stroke-dasharray="5,2" d="M890.6351,-393.4191C959.6752,-389.7703 1049.891,-385.0023 1104.8072,-382.0999"/>
<polygon fill="#9a32cd" stroke="#9a32cd" points="890.4105,-389.926 880.6092,-393.949 890.78,-396.9163 890.4105,-389.926"/>
<text text-anchor="middle" x="1001.5" y="-394.5" font-family="Helvetica,sans-Serif" font-size="10.00" fill="#000000"> globalVars_</text>
</g>
<!-- Node188&#45;&gt;Node175 -->
<g id="edge25" class="edge">
<title>Node188&#45;&gt;Node175</title>
<path fill="none" stroke="#9a32cd" stroke-dasharray="5,2" d="M890.6351,-353.1269C959.6752,-360.0405 1049.891,-369.0746 1104.8072,-374.5739"/>
<polygon fill="#9a32cd" stroke="#9a32cd" points="890.9082,-349.6368 880.6092,-352.1229 890.2107,-356.602 890.9082,-349.6368"/>
<text text-anchor="middle" x="1001.5" y="-373.5" font-family="Helvetica,sans-Serif" font-size="10.00" fill="#000000"> subsystems_</text>
</g>
<!-- Node189&#45;&gt;Node175 -->
<g id="edge27" class="edge">
<title>Node189&#45;&gt;Node175</title>
<path fill="none" stroke="#9a32cd" stroke-dasharray="5,2" d="M866.7938,-526.5721C940.1681,-517.0822 1045.2934,-502.1419 1062,-492.5 1106.2595,-466.9565 1137.953,-411.3678 1149.3544,-389.0529"/>
<polygon fill="#9a32cd" stroke="#9a32cd" points="866.136,-523.1278 856.6636,-527.8739 867.0282,-530.0707 866.136,-523.1278"/>
<text text-anchor="middle" x="1001.5" y="-519.5" font-family="Helvetica,sans-Serif" font-size="10.00" fill="#000000"> eventDataMaps_</text>
</g>
<!-- Node190&#45;&gt;Node175 -->
<g id="edge29" class="edge">
<title>Node190&#45;&gt;Node175</title>
<path fill="none" stroke="#9a32cd" stroke-dasharray="5,2" d="M907.828,-304.9297C955.8208,-315.0302 1012.0748,-328.2302 1062,-343.5 1086.6023,-351.0247 1113.9594,-362.091 1132.3966,-369.9652"/>
<polygon fill="#9a32cd" stroke="#9a32cd" points="908.5351,-301.502 898.0312,-302.8866 907.106,-308.3545 908.5351,-301.502"/>
<text text-anchor="middle" x="1001.5" y="-346.5" font-family="Helvetica,sans-Serif" font-size="10.00" fill="#000000"> factories_</text>
</g>
<!-- Node191&#45;&gt;Node175 -->
<g id="edge31" class="edge">
<title>Node191&#45;&gt;Node175</title>
<path fill="none" stroke="#9a32cd" stroke-dasharray="5,2" d="M880.6873,-236.6015C935.2631,-247.5008 1005.8677,-266.5471 1062,-298.5 1096.954,-318.3973 1130.4417,-353.0648 1145.5762,-369.8481"/>
<polygon fill="#9a32cd" stroke="#9a32cd" points="881.1743,-233.1308 870.6904,-234.6599 879.8396,-240.0024 881.1743,-233.1308"/>
<text text-anchor="middle" x="1001.5" y="-301.5" font-family="Helvetica,sans-Serif" font-size="10.00" fill="#000000"> objectCategories_</text>
</g>
<!-- Node192&#45;&gt;Node175 -->
<g id="edge33" class="edge">
<title>Node192&#45;&gt;Node175</title>
<path fill="none" stroke="#9a32cd" stroke-dasharray="5,2" d="M897.3241,-168.2906C950.7039,-175.2142 1014.5039,-190.8683 1062,-225.5 1114.594,-263.8488 1142.6316,-342.2251 1151.1539,-369.7114"/>
<polygon fill="#9a32cd" stroke="#9a32cd" points="897.4884,-164.7851 887.1403,-167.058 896.6473,-171.7343 897.4884,-164.7851"/>
<text text-anchor="middle" x="1001.5" y="-239.5" font-family="Helvetica,sans-Serif" font-size="10.00" fill="#000000"> attributes_</text>
<text text-anchor="middle" x="1001.5" y="-228.5" font-family="Helvetica,sans-Serif" font-size="10.00" fill="#000000">networkAttributes_</text>
</g>
<!-- Node193&#45;&gt;Node172 -->
<g id="edge35" class="edge">
<title>Node193&#45;&gt;Node172</title>
<path fill="none" stroke="#9a32cd" stroke-dasharray="5,2" d="M1093.0912,-656.8791C1082.7924,-659.1963 1072.1495,-661.2135 1062,-662.5 887.3966,-684.6325 841.9969,-664.6428 666,-663.5 631.7756,-663.2778 623.1864,-664.1277 589,-662.5 576.2805,-661.8944 562.5143,-660.9057 549.8401,-659.8596"/>
<polygon fill="#9a32cd" stroke="#9a32cd" points="1093.9042,-660.2834 1102.8325,-654.5795 1092.2959,-653.4707 1093.9042,-660.2834"/>
<text text-anchor="middle" x="794.5" y="-675.5" font-family="Helvetica,sans-Serif" font-size="10.00" fill="#000000"> eventHandlers_</text>
</g>
</g>
</svg>
        <g id="navigator" transform="translate(0 0)" fill="#404254">
                <rect fill="#f2f5e9" fill-opacity="0.5" stroke="#606060" stroke-width=".5" x="0" y="0" width="60" height="60"/>
                <use id="zoomplus" xlink:href="#zoomPlus" x="17" y="9" onmousedown="handleZoom(evt,'in')"/>
                <use id="zoomminus" xlink:href="#zoomMin" x="42" y="9" onmousedown="handleZoom(evt,'out')"/>
                <use id="reset" xlink:href="#resetDef" x="30" y="36" onmousedown="handleReset()"/>
                <g id="arrowUp" xlink:href="#dirArrow" transform="translate(30 24)" onmousedown="handlePan(0,-1)">
                  <use xlink:href="#rim" fill="#404040">
                        <set attributeName="fill" to="#808080" begin="arrowUp.mouseover" end="arrowUp.mouseout"/>
                  </use>
                  <path fill="none" stroke="white" stroke-width="1.5" d="M0,-3.0v7 M-2.5,-0.5L0,-3.0L2.5,-0.5"/>
                </g>
                <g id="arrowRight" xlink:href="#dirArrow" transform="rotate(90) translate(36 -43)" onmousedown="handlePan(1,0)">
                  <use xlink:href="#rim" fill="#404040">
                        <set attributeName="fill" to="#808080" begin="arrowRight.mouseover" end="arrowRight.mouseout"/>
                  </use>
                  <path fill="none" stroke="white" stroke-width="1.5" d="M0,-3.0v7 M-2.5,-0.5L0,-3.0L2.5,-0.5"/>
                </g>
                <g id="arrowDown" xlink:href="#dirArrow" transform="rotate(180) translate(-30 -48)" onmousedown="handlePan(0,1)">
                  <use xlink:href="#rim" fill="#404040">
                        <set attributeName="fill" to="#808080" begin="arrowDown.mouseover" end="arrowDown.mouseout"/>
                  </use>
                  <path fill="none" stroke="white" stroke-width="1.5" d="M0,-3.0v7 M-2.5,-0.5L0,-3.0L2.5,-0.5"/>
                </g>
                <g id="arrowLeft" xlink:href="#dirArrow" transform="rotate(270) translate(-36 17)" onmousedown="handlePan(-1,0)">
                  <use xlink:href="#rim" fill="#404040">
                        <set attributeName="fill" to="#808080" begin="arrowLeft.mouseover" end="arrowLeft.mouseout"/>
                  </use>
                  <path fill="none" stroke="white" stroke-width="1.5" d="M0,-3.0v7 M-2.5,-0.5L0,-3.0L2.5,-0.5"/>
                </g>
        </g>
        <svg viewBox="0 0 15 15" width="100%" height="30px" preserveAspectRatio="xMaxYMin meet">
         <g id="arrow_out" transform="scale(0.3 0.3)">
          <a xlink:href="class_urho3_d_1_1_object__coll__graph_org.svg" target="_base">
           <rect id="button" ry="5" rx="5" y="6" x="6" height="38" width="38"
                fill="#f2f5e9" fill-opacity="0.5" stroke="#606060" stroke-width="1.0"/>
           <path id="arrow"
             d="M 11.500037,31.436501 C 11.940474,20.09759 22.043105,11.32322 32.158766,21.979434 L 37.068811,17.246167 C 37.068811,17.246167 37.088388,32 37.088388,32 L 22.160133,31.978069 C 22.160133,31.978069 26.997745,27.140456 26.997745,27.140456 C 18.528582,18.264221 13.291696,25.230495 11.500037,31.436501 z"
             style="fill:#404040;"/>
          </a>
         </g>
        </svg>
</svg>
