<?xml version="1.0" encoding="UTF-8" standalone="no"?>
<!DOCTYPE svg PUBLIC "-//W3C//DTD SVG 1.1//EN"
 "http://www.w3.org/Graphics/SVG/1.1/DTD/svg11.dtd">
<!-- Generated by graphviz version 2.40.1 (20161225.0304)
 -->
<!-- Title: Urho3D::ListBase Pages: 1 -->
<svg width="380pt" height="175pt"
 viewBox="0.00 0.00 380.00 175.00" xmlns="http://www.w3.org/2000/svg" xmlns:xlink="http://www.w3.org/1999/xlink">
<g id="graph0" class="graph" transform="scale(1 1) rotate(0) translate(4 171)">
<title>Urho3D::ListBase</title>
<!-- Node9 -->
<g id="node1" class="node">
<title>Node9</title>
<polygon fill="#bfbfbf" stroke="#000000" points="111.5,-.5 111.5,-19.5 212.5,-19.5 212.5,-.5 111.5,-.5"/>
<text text-anchor="middle" x="162" y="-7.5" font-family="Helvetica,sans-Serif" font-size="10.00" fill="#000000">Urho3D::ListBase</text>
</g>
<!-- Node10 -->
<g id="node2" class="node">
<title>Node10</title>
<g id="a_node2"><a xlink:href="struct_urho3_d_1_1_allocator_block.html" target="_top" xlink:title="Allocator memory block. ">
<polygon fill="none" stroke="#000000" points="0,-79.5 0,-98.5 130,-98.5 130,-79.5 0,-79.5"/>
<text text-anchor="middle" x="65" y="-86.5" font-family="Helvetica,sans-Serif" font-size="10.00" fill="#000000">Urho3D::AllocatorBlock</text>
</a>
</g>
</g>
<!-- Node10&#45;&gt;Node9 -->
<g id="edge1" class="edge">
<title>Node10&#45;&gt;Node9</title>
<path fill="none" stroke="#9a32cd" stroke-dasharray="5,2" d="M84.6604,-72.9879C104.3659,-56.9391 134.0455,-32.767 150.3116,-19.5194"/>
<polygon fill="#9a32cd" stroke="#9a32cd" points="82.4377,-70.2842 76.8941,-79.313 86.8582,-75.7119 82.4377,-70.2842"/>
<text text-anchor="middle" x="152" y="-46.5" font-family="Helvetica,sans-Serif" font-size="10.00" fill="#000000"> allocator_</text>
</g>
<!-- Node10&#45;&gt;Node10 -->
<g id="edge2" class="edge">
<title>Node10&#45;&gt;Node10</title>
<path fill="none" stroke="#9a32cd" stroke-dasharray="5,2" d="M140.0553,-93.5534C145.003,-92.496 148,-90.9782 148,-89 148,-85.9121 140.6975,-83.946 130.0717,-83.1016"/>
<polygon fill="#9a32cd" stroke="#9a32cd" points="139.5149,-90.0945 130.0717,-94.8984 140.4495,-97.0318 139.5149,-90.0945"/>
<text text-anchor="middle" x="163.5" y="-86.5" font-family="Helvetica,sans-Serif" font-size="10.00" fill="#000000"> next_</text>
</g>
<!-- Node11 -->
<g id="node3" class="node">
<title>Node11</title>
<g id="a_node3"><a xlink:href="struct_urho3_d_1_1_allocator_node.html" target="_top" xlink:title="Allocator node. ">
<polygon fill="none" stroke="#000000" points="1,-147.5 1,-166.5 129,-166.5 129,-147.5 1,-147.5"/>
<text text-anchor="middle" x="65" y="-154.5" font-family="Helvetica,sans-Serif" font-size="10.00" fill="#000000">Urho3D::AllocatorNode</text>
</a>
</g>
</g>
<!-- Node11&#45;&gt;Node10 -->
<g id="edge3" class="edge">
<title>Node11&#45;&gt;Node10</title>
<path fill="none" stroke="#9a32cd" stroke-dasharray="5,2" d="M65,-137.1951C65,-124.5514 65,-108.7157 65,-98.7247"/>
<polygon fill="#9a32cd" stroke="#9a32cd" points="61.5001,-137.2572 65,-147.2573 68.5001,-137.2573 61.5001,-137.2572"/>
<text text-anchor="middle" x="79" y="-121" font-family="Helvetica,sans-Serif" font-size="10.00" fill="#000000"> free_</text>
</g>
<!-- Node11&#45;&gt;Node11 -->
<g id="edge4" class="edge">
<title>Node11&#45;&gt;Node11</title>
<path fill="none" stroke="#9a32cd" stroke-dasharray="5,2" d="M139.5053,-161.212C144.1818,-160.2204 147,-158.8164 147,-157 147,-154.0938 139.7855,-152.2433 129.2877,-151.4486"/>
<polygon fill="#9a32cd" stroke="#9a32cd" points="138.748,-157.7812 129.2877,-162.5514 139.6579,-164.7218 138.748,-157.7812"/>
<text text-anchor="middle" x="162.5" y="-154.5" font-family="Helvetica,sans-Serif" font-size="10.00" fill="#000000"> next_</text>
</g>
<!-- Node12 -->
<g id="node4" class="node">
<title>Node12</title>
<g id="a_node4"><a xlink:href="struct_urho3_d_1_1_list_node_base.html" target="_top" xlink:title="Doubly&#45;linked list node base class. ">
<polygon fill="none" stroke="#000000" points="197,-79.5 197,-98.5 323,-98.5 323,-79.5 197,-79.5"/>
<text text-anchor="middle" x="260" y="-86.5" font-family="Helvetica,sans-Serif" font-size="10.00" fill="#000000">Urho3D::ListNodeBase</text>
</a>
</g>
</g>
<!-- Node12&#45;&gt;Node9 -->
<g id="edge5" class="edge">
<title>Node12&#45;&gt;Node9</title>
<path fill="none" stroke="#9a32cd" stroke-dasharray="5,2" d="M240.1369,-72.9879C220.2283,-56.9391 190.2426,-32.767 173.8089,-19.5194"/>
<polygon fill="#9a32cd" stroke="#9a32cd" points="238.0013,-75.7619 247.9833,-79.313 242.3945,-70.3121 238.0013,-75.7619"/>
<text text-anchor="middle" x="237" y="-52" font-family="Helvetica,sans-Serif" font-size="10.00" fill="#000000"> tail_</text>
<text text-anchor="middle" x="237" y="-41" font-family="Helvetica,sans-Serif" font-size="10.00" fill="#000000">head_</text>
</g>
<!-- Node12&#45;&gt;Node12 -->
<g id="edge6" class="edge">
<title>Node12&#45;&gt;Node12</title>
<path fill="none" stroke="#9a32cd" stroke-dasharray="5,2" d="M333.0904,-93.5874C338.012,-92.5286 341,-90.9995 341,-89 341,-85.8789 333.7194,-83.9038 323.1681,-83.0748"/>
<polygon fill="#9a32cd" stroke="#9a32cd" points="332.6107,-90.1203 323.1681,-94.9252 333.5462,-97.0575 332.6107,-90.1203"/>
<text text-anchor="middle" x="356.5" y="-92" font-family="Helvetica,sans-Serif" font-size="10.00" fill="#000000"> next_</text>
<text text-anchor="middle" x="356.5" y="-81" font-family="Helvetica,sans-Serif" font-size="10.00" fill="#000000">prev_</text>
</g>
</g>
</svg>
