<?xml version="1.0" encoding="UTF-8" standalone="no"?>
<!DOCTYPE svg PUBLIC "-//W3C//DTD SVG 1.1//EN"
 "http://www.w3.org/Graphics/SVG/1.1/DTD/svg11.dtd">
<!-- Generated by graphviz version 2.40.1 (20161225.0304)
 -->
<!-- Title: Urho3D::Image::Resize Pages: 1 -->
<svg width="681pt" height="142pt"
 viewBox="0.00 0.00 681.00 142.00" xmlns="http://www.w3.org/2000/svg" xmlns:xlink="http://www.w3.org/1999/xlink">
<g id="graph0" class="graph" transform="scale(1 1) rotate(0) translate(4 138)">
<title>Urho3D::Image::Resize</title>
<!-- Node0 -->
<g id="node1" class="node">
<title>Node0</title>
<polygon fill="#bfbfbf" stroke="#000000" points="0,-57.5 0,-76.5 128,-76.5 128,-57.5 0,-57.5"/>
<text text-anchor="middle" x="64" y="-64.5" font-family="Helvetica,sans-Serif" font-size="10.00" fill="#000000">Urho3D::Image::Resize</text>
</g>
<!-- Node1 -->
<g id="node2" class="node">
<title>Node1</title>
<g id="a_node2"><a xlink:href="class_urho3_d_1_1_image.html#a7f857b190bc10a60737469481fb407af" target="_top" xlink:title="Return whether is compressed. ">
<polygon fill="none" stroke="#000000" points="173.5,-114.5 173.5,-133.5 338.5,-133.5 338.5,-114.5 173.5,-114.5"/>
<text text-anchor="middle" x="256" y="-121.5" font-family="Helvetica,sans-Serif" font-size="10.00" fill="#000000">Urho3D::Image::IsCompressed</text>
</a>
</g>
</g>
<!-- Node0&#45;&gt;Node1 -->
<g id="edge1" class="edge">
<title>Node0&#45;&gt;Node1</title>
<path fill="none" stroke="#191970" d="M86.2885,-76.6456C106.3271,-85.0329 136.7178,-97.0543 164,-105 173.1811,-107.6739 182.9827,-110.1197 192.6389,-112.3015"/>
<polygon fill="#191970" stroke="#191970" points="192.1007,-115.7664 202.6169,-114.4782 193.5927,-108.9272 192.1007,-115.7664"/>
</g>
<!-- Node2 -->
<g id="node3" class="node">
<title>Node2</title>
<g id="a_node3"><a xlink:href="class_urho3_d_1_1_image.html#ac9d130ef2a03c14d26f13cb8788edb31" target="_top" xlink:title="Return a bilinearly sampled 2D pixel color. X and Y have the range 0&#45;1. ">
<polygon fill="none" stroke="#000000" points="168.5,-76.5 168.5,-95.5 343.5,-95.5 343.5,-76.5 168.5,-76.5"/>
<text text-anchor="middle" x="256" y="-83.5" font-family="Helvetica,sans-Serif" font-size="10.00" fill="#000000">Urho3D::Image::GetPixelBilinear</text>
</a>
</g>
</g>
<!-- Node0&#45;&gt;Node2 -->
<g id="edge2" class="edge">
<title>Node0&#45;&gt;Node2</title>
<path fill="none" stroke="#191970" d="M128.2002,-73.3531C137.848,-74.3079 147.9789,-75.3104 158.1376,-76.3157"/>
<polygon fill="#191970" stroke="#191970" points="157.9927,-79.8184 168.2888,-77.3202 158.6821,-72.8524 157.9927,-79.8184"/>
</g>
<!-- Node6 -->
<g id="node7" class="node">
<title>Node6</title>
<g id="a_node7"><a xlink:href="class_urho3_d_1_1_color.html#a06623b98b5524439f8a243d103b214dd" target="_top" xlink:title="Return color packed to a 32&#45;bit integer, with R component in the lowest 8 bits. Components are clampe...">
<polygon fill="none" stroke="#000000" points="195,-38.5 195,-57.5 317,-57.5 317,-38.5 195,-38.5"/>
<text text-anchor="middle" x="256" y="-45.5" font-family="Helvetica,sans-Serif" font-size="10.00" fill="#000000">Urho3D::Color::ToUInt</text>
</a>
</g>
</g>
<!-- Node0&#45;&gt;Node6 -->
<g id="edge6" class="edge">
<title>Node0&#45;&gt;Node6</title>
<path fill="none" stroke="#191970" d="M128.2002,-60.6469C146.3205,-58.8537 166.1449,-56.8919 184.6572,-55.06"/>
<polygon fill="#191970" stroke="#191970" points="185.1809,-58.5253 194.7876,-54.0575 184.4915,-51.5593 185.1809,-58.5253"/>
</g>
<!-- Node7 -->
<g id="node8" class="node">
<title>Node7</title>
<g id="a_node8"><a xlink:href="class_urho3_d_1_1_resource.html#a965ad58111e131f7725edec44358c75e" target="_top" xlink:title="Set memory use in bytes, possibly approximate. ">
<polygon fill="none" stroke="#000000" points="164,-.5 164,-19.5 348,-19.5 348,-.5 164,-.5"/>
<text text-anchor="middle" x="256" y="-7.5" font-family="Helvetica,sans-Serif" font-size="10.00" fill="#000000">Urho3D::Resource::SetMemoryUse</text>
</a>
</g>
</g>
<!-- Node0&#45;&gt;Node7 -->
<g id="edge7" class="edge">
<title>Node0&#45;&gt;Node7</title>
<path fill="none" stroke="#191970" d="M86.2885,-57.3544C106.3271,-48.9671 136.7178,-36.9457 164,-29 173.1811,-26.3261 182.9827,-23.8803 192.6389,-21.6985"/>
<polygon fill="#191970" stroke="#191970" points="193.5927,-25.0728 202.6169,-19.5218 192.1007,-18.2336 193.5927,-25.0728"/>
</g>
<!-- Node3 -->
<g id="node4" class="node">
<title>Node3</title>
<g id="a_node4"><a xlink:href="class_urho3_d_1_1_image.html#a6e1aa46e83a8a6b673daa57fb78fba1e" target="_top" xlink:title="Return a 2D pixel color. ">
<polygon fill="none" stroke="#000000" points="384,-95.5 384,-114.5 521,-114.5 521,-95.5 384,-95.5"/>
<text text-anchor="middle" x="452.5" y="-102.5" font-family="Helvetica,sans-Serif" font-size="10.00" fill="#000000">Urho3D::Image::GetPixel</text>
</a>
</g>
</g>
<!-- Node2&#45;&gt;Node3 -->
<g id="edge3" class="edge">
<title>Node2&#45;&gt;Node3</title>
<path fill="none" stroke="#191970" d="M343.6184,-94.472C353.6449,-95.4415 363.8208,-96.4254 373.7219,-97.3828"/>
<polygon fill="#191970" stroke="#191970" points="373.6321,-100.8903 383.9226,-98.3691 374.3059,-93.9228 373.6321,-100.8903"/>
</g>
<!-- Node4 -->
<g id="node5" class="node">
<title>Node4</title>
<g id="a_node5"><a xlink:href="class_urho3_d_1_1_color.html#a1995ca7720e249153efbb386dac4c4be" target="_top" xlink:title="Return linear interpolation of this color with another color. ">
<polygon fill="none" stroke="#000000" points="396.5,-57.5 396.5,-76.5 508.5,-76.5 508.5,-57.5 396.5,-57.5"/>
<text text-anchor="middle" x="452.5" y="-64.5" font-family="Helvetica,sans-Serif" font-size="10.00" fill="#000000">Urho3D::Color::Lerp</text>
</a>
</g>
</g>
<!-- Node2&#45;&gt;Node4 -->
<g id="edge4" class="edge">
<title>Node2&#45;&gt;Node4</title>
<path fill="none" stroke="#191970" d="M343.6184,-77.528C357.8905,-76.148 372.4655,-74.7387 386.1195,-73.4185"/>
<polygon fill="#191970" stroke="#191970" points="386.7443,-76.8745 396.361,-72.4282 386.0706,-69.907 386.7443,-76.8745"/>
</g>
<!-- Node5 -->
<g id="node6" class="node">
<title>Node5</title>
<g id="a_node6"><a xlink:href="class_urho3_d_1_1_color.html#ace09055245d79e6a4c7ad8c32ab702c4" target="_top" xlink:title="Construct with default values (opaque white.) ">
<polygon fill="none" stroke="#000000" points="557,-57.5 557,-76.5 673,-76.5 673,-57.5 557,-57.5"/>
<text text-anchor="middle" x="615" y="-64.5" font-family="Helvetica,sans-Serif" font-size="10.00" fill="#000000">Urho3D::Color::Color</text>
</a>
</g>
</g>
<!-- Node4&#45;&gt;Node5 -->
<g id="edge5" class="edge">
<title>Node4&#45;&gt;Node5</title>
<path fill="none" stroke="#191970" d="M508.8786,-67C521.1026,-67 534.1579,-67 546.7822,-67"/>
<polygon fill="#191970" stroke="#191970" points="546.7901,-70.5001 556.7901,-67 546.79,-63.5001 546.7901,-70.5001"/>
</g>
</g>
</svg>
