<?xml version="1.0" encoding="UTF-8" standalone="no"?>
<!DOCTYPE svg PUBLIC "-//W3C//DTD SVG 1.1//EN"
 "http://www.w3.org/Graphics/SVG/1.1/DTD/svg11.dtd">
<!-- Generated by graphviz version 2.26.3 (20100126.1600)
 -->
<!-- Title: Urho3D::NamedPipe Pages: 1 -->
<!--zoomable 908 -->
<svg id="main" version="1.1" xmlns="http://www.w3.org/2000/svg" xmlns:xlink="http://www.w3.org/1999/xlink" xml:space="preserve" onload="init(evt)">
        <defs>
                <circle id="rim" cx="0" cy="0" r="7"/>
                <circle id="rim2" cx="0" cy="0" r="3.5"/>
                <g id="zoomPlus">
                        <use xlink:href="#rim" fill="#404040">
                                <set attributeName="fill" to="#808080" begin="zoomplus.mouseover" end="zoomplus.mouseout"/>
                        </use>
                        <path d="M-4,0h8M0,-4v8" fill="none" stroke="white" stroke-width="1.5" pointer-events="none"/>
                </g>
                <g id="zoomMin">
                        <use xlink:href="#rim" fill="#404040">
                                <set attributeName="fill" to="#808080" begin="zoomminus.mouseover" end="zoomminus.mouseout"/>
                        </use>
                        <path d="M-4,0h8" fill="none" stroke="white" stroke-width="1.5" pointer-events="none"/>
                </g>
                <g id="dirArrow">
                        <path fill="none" stroke="white" stroke-width="1.5" d="M0,-3.0v7 M-2.5,-0.5L0,-3.0L2.5,-0.5"/>
                </g>
               <g id="resetDef">
                       <use xlink:href="#rim2" fill="#404040">
                               <set attributeName="fill" to="#808080" begin="reset.mouseover" end="reset.mouseout"/>
                       </use>
               </g>
        </defs>

<script type="text/javascript">
var viewWidth = 1174;
var viewHeight = 908;
var sectionId = 'dynsection-1';
</script>
<script xlink:href="svgpan.js"/>
<svg id="graph" class="graph">
<g id="viewport">
<title>Urho3D::NamedPipe</title>
<!-- Node1 -->
<g id="node1" class="node"><title>Node1</title>
<polygon fill="#bfbfbf" stroke="black" points="683.5,-809.5 683.5,-830.5 798.5,-830.5 798.5,-809.5 683.5,-809.5"/>
<text text-anchor="middle" x="741" y="-817.5" font-family="FreeSans" font-size="10.00">Urho3D::NamedPipe</text>
</g>
<!-- Node2 -->
<g id="node2" class="node"><title>Node2</title>
<a xlink:href="class_urho3_d_1_1_object.html" target="_top" xlink:title="Base class for objects with type identification, subsystem access and event sending/receiving capabil...">
<polygon fill="none" stroke="black" points="409,-756.5 409,-777.5 499,-777.5 499,-756.5 409,-756.5"/>
<text text-anchor="middle" x="454" y="-764.5" font-family="FreeSans" font-size="10.00">Urho3D::Object</text>
</a>
</g>
<!-- Node2&#45;&gt;Node1 -->
<g id="edge2" class="edge"><title>Node2&#45;&gt;Node1</title>
<path fill="none" stroke="midnightblue" d="M509.187,-777.191C559.403,-786.465 633.226,-800.097 684,-809.474"/>
<polygon fill="midnightblue" stroke="midnightblue" points="509.629,-773.714 499.159,-775.34 508.358,-780.597 509.629,-773.714"/>
</g>
<!-- Node12 -->
<g id="node25" class="node"><title>Node12</title>
<a xlink:href="class_urho3_d_1_1_event_handler.html" target="_top" xlink:title="Internal helper class for invoking event handler functions.">
<polygon fill="none" stroke="black" points="679,-639.5 679,-660.5 803,-660.5 803,-639.5 679,-639.5"/>
<text text-anchor="middle" x="741" y="-647.5" font-family="FreeSans" font-size="10.00">Urho3D::EventHandler</text>
</a>
</g>
<!-- Node2&#45;&gt;Node12 -->
<g id="edge34" class="edge"><title>Node2&#45;&gt;Node12</title>
<path fill="none" stroke="#9a32cd" stroke-dasharray="5,2" d="M508.376,-755.668C512.646,-753.301 516.609,-750.445 520,-747 540.427,-726.245 516.285,-703.403 538,-684 558.385,-665.786 626.913,-657.199 678.758,-653.237"/>
<polygon fill="#9a32cd" stroke="#9a32cd" points="506.878,-752.505 499.264,-759.872 509.81,-758.861 506.878,-752.505"/>
<text text-anchor="middle" x="567" y="-701" font-family="FreeSans" font-size="10.00"> sender_</text>
<text text-anchor="middle" x="567" y="-688" font-family="FreeSans" font-size="10.00">receiver_</text>
</g>
<!-- Node3 -->
<g id="node4" class="node"><title>Node3</title>
<a xlink:href="class_urho3_d_1_1_ref_counted.html" target="_top" xlink:title="Base class for intrusively reference&#45;counted objects. These are noncopyable and non&#45;assignable.">
<polygon fill="none" stroke="black" points="198,-659.5 198,-680.5 312,-680.5 312,-659.5 198,-659.5"/>
<text text-anchor="middle" x="255" y="-667.5" font-family="FreeSans" font-size="10.00">Urho3D::RefCounted</text>
</a>
</g>
<!-- Node3&#45;&gt;Node2 -->
<g id="edge4" class="edge"><title>Node3&#45;&gt;Node2</title>
<path fill="none" stroke="midnightblue" d="M279.203,-686.308C305.198,-703.266 348.154,-729.705 388,-747 396.127,-750.528 405.071,-753.687 413.68,-756.396"/>
<polygon fill="midnightblue" stroke="midnightblue" points="281.024,-683.316 270.749,-680.735 277.172,-689.161 281.024,-683.316"/>
</g>
<!-- Node5 -->
<g id="node8" class="node"><title>Node5</title>
<a xlink:href="class_urho3_d_1_1_context.html" target="_top" xlink:title="Urho3D execution context. Provides access to subsystems, object factories and attributes, and event receivers.">
<polygon fill="none" stroke="black" points="1044.5,-398.5 1044.5,-419.5 1141.5,-419.5 1141.5,-398.5 1044.5,-398.5"/>
<text text-anchor="middle" x="1093" y="-406.5" font-family="FreeSans" font-size="10.00">Urho3D::Context</text>
</a>
</g>
<!-- Node3&#45;&gt;Node5 -->
<g id="edge10" class="edge"><title>Node3&#45;&gt;Node5</title>
<path fill="none" stroke="midnightblue" d="M280.196,-654.098C306.133,-638.61 348.257,-615.862 388,-605 652.488,-532.713 771.444,-693.402 1002,-545 1050.73,-513.633 1079.58,-445.896 1089.29,-419.672"/>
<polygon fill="midnightblue" stroke="midnightblue" points="278.135,-651.255 271.407,-659.44 281.77,-657.237 278.135,-651.255"/>
</g>
<!-- Node4 -->
<g id="node6" class="node"><title>Node4</title>
<a xlink:href="struct_urho3_d_1_1_ref_count.html" target="_top" xlink:title="Reference count structure.">
<polygon fill="none" stroke="black" points="0,-659.5 0,-680.5 102,-680.5 102,-659.5 0,-659.5"/>
<text text-anchor="middle" x="51" y="-667.5" font-family="FreeSans" font-size="10.00">Urho3D::RefCount</text>
</a>
</g>
<!-- Node4&#45;&gt;Node3 -->
<g id="edge6" class="edge"><title>Node4&#45;&gt;Node3</title>
<path fill="none" stroke="#9a32cd" stroke-dasharray="5,2" d="M112.345,-670C139.414,-670 171.051,-670 197.643,-670"/>
<polygon fill="#9a32cd" stroke="#9a32cd" points="112.215,-666.5 102.214,-670 112.214,-673.5 112.215,-666.5"/>
<text text-anchor="middle" x="145" y="-674" font-family="FreeSans" font-size="10.00"> refCount_</text>
</g>
<!-- Node5&#45;&gt;Node2 -->
<g id="edge8" class="edge"><title>Node5&#45;&gt;Node2</title>
<path fill="none" stroke="#9a32cd" stroke-dasharray="5,2" d="M1089.76,-429.816C1079.71,-491.58 1046.96,-671.703 1002,-707 968.035,-733.663 656.728,-722.765 614,-729 570.917,-735.287 522.385,-747.569 490.185,-756.472"/>
<polygon fill="#9a32cd" stroke="#9a32cd" points="1093.25,-430.149 1091.38,-419.722 1086.34,-429.045 1093.25,-430.149"/>
<text text-anchor="middle" x="741" y="-733" font-family="FreeSans" font-size="10.00"> context_</text>
</g>
<!-- Node6 -->
<g id="node11" class="node"><title>Node6</title>
<a xlink:href="class_urho3_d_1_1_hash_map.html" target="_top" xlink:title="Urho3D::HashMap\&lt; Urho3D\l::Object *, Urho3D::HashMap\l\&lt; Urho3D::StringHash, Urho3D\l::SharedPtr\&lt; Urho3D::EventReceiverGroup \&gt; \&gt; \&gt;">
<polygon fill="none" stroke="black" points="614,-144 614,-204 868,-204 868,-144 614,-144"/>
<text text-anchor="start" x="622" y="-191" font-family="FreeSans" font-size="10.00">Urho3D::HashMap&lt; Urho3D</text>
<text text-anchor="start" x="622" y="-178" font-family="FreeSans" font-size="10.00">::Object *, Urho3D::HashMap</text>
<text text-anchor="start" x="622" y="-165" font-family="FreeSans" font-size="10.00">&lt; Urho3D::StringHash, Urho3D</text>
<text text-anchor="middle" x="741" y="-152" font-family="FreeSans" font-size="10.00">::SharedPtr&lt; Urho3D::EventReceiverGroup &gt; &gt; &gt;</text>
</a>
</g>
<!-- Node6&#45;&gt;Node5 -->
<g id="edge12" class="edge"><title>Node6&#45;&gt;Node5</title>
<path fill="none" stroke="#9a32cd" stroke-dasharray="5,2" d="M877.751,-192.472C920.847,-203.469 966.436,-221.012 1002,-249 1053.98,-289.909 1081.4,-369.272 1089.99,-398.155"/>
<polygon fill="#9a32cd" stroke="#9a32cd" points="878.566,-189.068 868.021,-190.087 876.9,-195.867 878.566,-189.068"/>
<text text-anchor="middle" x="944" y="-253" font-family="FreeSans" font-size="10.00"> specificEventReceivers_</text>
</g>
<!-- Node7 -->
<g id="node13" class="node"><title>Node7</title>
<a xlink:href="class_urho3_d_1_1_hash_base.html" target="_top" xlink:title="Hash set/map base class.">
<polygon fill="none" stroke="red" points="400,-228.5 400,-249.5 508,-249.5 508,-228.5 400,-228.5"/>
<text text-anchor="middle" x="454" y="-236.5" font-family="FreeSans" font-size="10.00">Urho3D::HashBase</text>
</a>
</g>
<!-- Node7&#45;&gt;Node6 -->
<g id="edge14" class="edge"><title>Node7&#45;&gt;Node6</title>
<path fill="none" stroke="midnightblue" d="M510.555,-226.191C540.155,-219.488 577.676,-210.99 613.802,-202.808"/>
<polygon fill="midnightblue" stroke="midnightblue" points="509.41,-222.862 500.43,-228.484 510.957,-229.689 509.41,-222.862"/>
</g>
<!-- Node9 -->
<g id="node18" class="node"><title>Node9</title>
<a xlink:href="class_urho3_d_1_1_hash_map.html" target="_top" xlink:title="Urho3D::HashMap\&lt; Urho3D\l::StringHash, Urho3D::\lSharedPtr\&lt; Urho3D::EventReceiver\lGroup \&gt; \&gt;">
<polygon fill="none" stroke="black" points="648.5,-66 648.5,-126 833.5,-126 833.5,-66 648.5,-66"/>
<text text-anchor="start" x="656.5" y="-113" font-family="FreeSans" font-size="10.00">Urho3D::HashMap&lt; Urho3D</text>
<text text-anchor="start" x="656.5" y="-100" font-family="FreeSans" font-size="10.00">::StringHash, Urho3D::</text>
<text text-anchor="start" x="656.5" y="-87" font-family="FreeSans" font-size="10.00">SharedPtr&lt; Urho3D::EventReceiver</text>
<text text-anchor="middle" x="741" y="-74" font-family="FreeSans" font-size="10.00">Group &gt; &gt;</text>
</a>
</g>
<!-- Node7&#45;&gt;Node9 -->
<g id="edge22" class="edge"><title>Node7&#45;&gt;Node9</title>
<path fill="none" stroke="midnightblue" d="M475.345,-222.33C504.997,-199.844 561.003,-159.766 614,-135 624.866,-129.922 636.557,-125.298 648.291,-121.153"/>
<polygon fill="midnightblue" stroke="midnightblue" points="473.174,-219.584 467.362,-228.443 477.43,-225.141 473.174,-219.584"/>
</g>
<!-- Node15 -->
<g id="node34" class="node"><title>Node15</title>
<a xlink:href="class_urho3_d_1_1_hash_map.html" target="_top" xlink:title="Urho3D::HashMap\&lt; StringHash,\l Variant \&gt;">
<polygon fill="none" stroke="black" points="655,-222 655,-256 827,-256 827,-222 655,-222"/>
<text text-anchor="start" x="663" y="-243" font-family="FreeSans" font-size="10.00">Urho3D::HashMap&lt; StringHash,</text>
<text text-anchor="middle" x="741" y="-230" font-family="FreeSans" font-size="10.00"> Variant &gt;</text>
</a>
</g>
<!-- Node7&#45;&gt;Node15 -->
<g id="edge42" class="edge"><title>Node7&#45;&gt;Node15</title>
<path fill="none" stroke="midnightblue" d="M518.536,-239C558.756,-239 610.992,-239 654.74,-239"/>
<polygon fill="midnightblue" stroke="midnightblue" points="518.32,-235.5 508.32,-239 518.32,-242.5 518.32,-235.5"/>
</g>
<!-- Node16 -->
<g id="node37" class="node"><title>Node16</title>
<a xlink:href="class_urho3_d_1_1_hash_map.html" target="_top" xlink:title="Urho3D::HashMap\&lt; Urho3D\l::StringHash, Urho3D::\lSharedPtr\&lt; Urho3D::Object \&gt; \&gt;">
<polygon fill="none" stroke="black" points="655,-0.5 655,-47.5 827,-47.5 827,-0.5 655,-0.5"/>
<text text-anchor="start" x="663" y="-34.5" font-family="FreeSans" font-size="10.00">Urho3D::HashMap&lt; Urho3D</text>
<text text-anchor="start" x="663" y="-21.5" font-family="FreeSans" font-size="10.00">::StringHash, Urho3D::</text>
<text text-anchor="middle" x="741" y="-8.5" font-family="FreeSans" font-size="10.00">SharedPtr&lt; Urho3D::Object &gt; &gt;</text>
</a>
</g>
<!-- Node7&#45;&gt;Node16 -->
<g id="edge46" class="edge"><title>Node7&#45;&gt;Node16</title>
<path fill="none" stroke="midnightblue" d="M465.436,-219.408C488.482,-181.744 544.308,-99.2303 614,-57 626.469,-49.4443 640.641,-43.6039 654.885,-39.0934"/>
<polygon fill="midnightblue" stroke="midnightblue" points="462.202,-217.995 460.056,-228.371 468.204,-221.598 462.202,-217.995"/>
</g>
<!-- Node18 -->
<g id="node43" class="node"><title>Node18</title>
<a xlink:href="class_urho3_d_1_1_hash_map.html" target="_top" xlink:title="Urho3D::HashMap\&lt; Urho3D\l::StringHash, Urho3D::\lSharedPtr\&lt; Urho3D::ObjectFactory \&gt; \&gt;">
<polygon fill="none" stroke="black" points="638,-340.5 638,-387.5 844,-387.5 844,-340.5 638,-340.5"/>
<text text-anchor="start" x="646" y="-374.5" font-family="FreeSans" font-size="10.00">Urho3D::HashMap&lt; Urho3D</text>
<text text-anchor="start" x="646" y="-361.5" font-family="FreeSans" font-size="10.00">::StringHash, Urho3D::</text>
<text text-anchor="middle" x="741" y="-348.5" font-family="FreeSans" font-size="10.00">SharedPtr&lt; Urho3D::ObjectFactory &gt; &gt;</text>
</a>
</g>
<!-- Node7&#45;&gt;Node18 -->
<g id="edge54" class="edge"><title>Node7&#45;&gt;Node18</title>
<path fill="none" stroke="midnightblue" d="M477.797,-255.414C508.175,-275.71 562.929,-310.125 614,-331 622.329,-334.405 631.112,-337.544 640.01,-340.42"/>
<polygon fill="midnightblue" stroke="midnightblue" points="479.43,-252.293 469.184,-249.599 475.513,-258.095 479.43,-252.293"/>
</g>
<!-- Node19 -->
<g id="node46" class="node"><title>Node19</title>
<a xlink:href="class_urho3_d_1_1_hash_map.html" target="_top" xlink:title="Urho3D::HashMap\&lt; Urho3D\l::String, Urho3D::Vector\l\&lt; Urho3D::StringHash \&gt; \&gt;">
<polygon fill="none" stroke="black" points="665,-274.5 665,-321.5 817,-321.5 817,-274.5 665,-274.5"/>
<text text-anchor="start" x="673" y="-308.5" font-family="FreeSans" font-size="10.00">Urho3D::HashMap&lt; Urho3D</text>
<text text-anchor="start" x="673" y="-295.5" font-family="FreeSans" font-size="10.00">::String, Urho3D::Vector</text>
<text text-anchor="middle" x="741" y="-282.5" font-family="FreeSans" font-size="10.00">&lt; Urho3D::StringHash &gt; &gt;</text>
</a>
</g>
<!-- Node7&#45;&gt;Node19 -->
<g id="edge58" class="edge"><title>Node7&#45;&gt;Node19</title>
<path fill="none" stroke="midnightblue" d="M515.228,-251.587C558.926,-260.57 617.994,-272.713 664.752,-282.325"/>
<polygon fill="midnightblue" stroke="midnightblue" points="515.81,-248.133 505.31,-249.548 514.4,-254.99 515.81,-248.133"/>
</g>
<!-- Node20 -->
<g id="node49" class="node"><title>Node20</title>
<a xlink:href="class_urho3_d_1_1_hash_map.html" target="_top" xlink:title="Urho3D::HashMap\&lt; Urho3D\l::StringHash, Urho3D::\lVector\&lt; Urho3D::AttributeInfo \&gt; \&gt;">
<polygon fill="none" stroke="black" points="649.5,-406.5 649.5,-453.5 832.5,-453.5 832.5,-406.5 649.5,-406.5"/>
<text text-anchor="start" x="657.5" y="-440.5" font-family="FreeSans" font-size="10.00">Urho3D::HashMap&lt; Urho3D</text>
<text text-anchor="start" x="657.5" y="-427.5" font-family="FreeSans" font-size="10.00">::StringHash, Urho3D::</text>
<text text-anchor="middle" x="741" y="-414.5" font-family="FreeSans" font-size="10.00">Vector&lt; Urho3D::AttributeInfo &gt; &gt;</text>
</a>
</g>
<!-- Node7&#45;&gt;Node20 -->
<g id="edge62" class="edge"><title>Node7&#45;&gt;Node20</title>
<path fill="none" stroke="midnightblue" d="M467.823,-258.292C492.953,-291.881 549.525,-360.957 614,-397 624.937,-403.114 637.036,-408.124 649.293,-412.222"/>
<polygon fill="midnightblue" stroke="midnightblue" points="470.334,-255.797 461.589,-249.816 464.695,-259.945 470.334,-255.797"/>
</g>
<!-- Node8 -->
<g id="node15" class="node"><title>Node8</title>
<a xlink:href="struct_urho3_d_1_1_hash_node_base.html" target="_top" xlink:title="Hash set/map node base class.">
<polygon fill="none" stroke="black" points="188,-228.5 188,-249.5 322,-249.5 322,-228.5 188,-228.5"/>
<text text-anchor="middle" x="255" y="-236.5" font-family="FreeSans" font-size="10.00">Urho3D::HashNodeBase</text>
</a>
</g>
<!-- Node8&#45;&gt;Node7 -->
<g id="edge16" class="edge"><title>Node8&#45;&gt;Node7</title>
<path fill="none" stroke="#9a32cd" stroke-dasharray="5,2" d="M332.313,-239C354.837,-239 378.959,-239 399.737,-239"/>
<polygon fill="#9a32cd" stroke="#9a32cd" points="332.095,-235.5 322.095,-239 332.095,-242.5 332.095,-235.5"/>
<text text-anchor="middle" x="355" y="-269" font-family="FreeSans" font-size="10.00"> ptrs_</text>
<text text-anchor="middle" x="355" y="-256" font-family="FreeSans" font-size="10.00">tail_</text>
<text text-anchor="middle" x="355" y="-243" font-family="FreeSans" font-size="10.00">head_</text>
</g>
<!-- Node8&#45;&gt;Node8 -->
<g id="edge18" class="edge"><title>Node8&#45;&gt;Node8</title>
<path fill="none" stroke="#9a32cd" stroke-dasharray="5,2" d="M236.571,-259.427C237.993,-264.349 244.136,-268 255,-268 272.383,-268 277.679,-258.653 270.889,-249.708"/>
<polygon fill="#9a32cd" stroke="#9a32cd" points="239.969,-260.268 239.111,-249.708 233.196,-258.498 239.969,-260.268"/>
<text text-anchor="middle" x="255" y="-298" font-family="FreeSans" font-size="10.00"> next_</text>
<text text-anchor="middle" x="255" y="-285" font-family="FreeSans" font-size="10.00">prev_</text>
<text text-anchor="middle" x="255" y="-272" font-family="FreeSans" font-size="10.00">down_</text>
</g>
<!-- Node9&#45;&gt;Node5 -->
<g id="edge20" class="edge"><title>Node9&#45;&gt;Node5</title>
<path fill="none" stroke="#9a32cd" stroke-dasharray="5,2" d="M843.68,-107.254C896.74,-117.906 959.166,-138.641 1002,-179 1069.35,-242.461 1087.8,-362.063 1091.95,-398.317"/>
<polygon fill="#9a32cd" stroke="#9a32cd" points="844.024,-103.756 833.545,-105.317 842.711,-110.632 844.024,-103.756"/>
<text text-anchor="middle" x="944" y="-183" font-family="FreeSans" font-size="10.00"> eventReceivers_</text>
</g>
<!-- Node10 -->
<g id="node21" class="node"><title>Node10</title>
<a xlink:href="class_urho3_d_1_1_p_o_d_vector.html" target="_top" xlink:title="Urho3D::PODVector\&lt;\l Urho3D::Object * \&gt;">
<polygon fill="none" stroke="black" points="681.5,-524 681.5,-558 800.5,-558 800.5,-524 681.5,-524"/>
<text text-anchor="start" x="689.5" y="-545" font-family="FreeSans" font-size="10.00">Urho3D::PODVector&lt;</text>
<text text-anchor="middle" x="741" y="-532" font-family="FreeSans" font-size="10.00"> Urho3D::Object * &gt;</text>
</a>
</g>
<!-- Node10&#45;&gt;Node5 -->
<g id="edge24" class="edge"><title>Node10&#45;&gt;Node5</title>
<path fill="none" stroke="#9a32cd" stroke-dasharray="5,2" d="M810.956,-538.256C865.496,-533.725 941.822,-522.004 1002,-492 1037.98,-474.063 1070.19,-437.708 1084.76,-419.661"/>
<polygon fill="#9a32cd" stroke="#9a32cd" points="810.394,-534.789 800.692,-539.046 810.931,-541.768 810.394,-534.789"/>
<text text-anchor="middle" x="944" y="-532" font-family="FreeSans" font-size="10.00"> eventSenders_</text>
</g>
<!-- Node11 -->
<g id="node23" class="node"><title>Node11</title>
<a xlink:href="class_urho3_d_1_1_vector_base.html" target="_top" xlink:title="Vector base class.">
<polygon fill="none" stroke="black" points="397,-498.5 397,-519.5 511,-519.5 511,-498.5 397,-498.5"/>
<text text-anchor="middle" x="454" y="-506.5" font-family="FreeSans" font-size="10.00">Urho3D::VectorBase</text>
</a>
</g>
<!-- Node11&#45;&gt;Node10 -->
<g id="edge26" class="edge"><title>Node11&#45;&gt;Node10</title>
<path fill="none" stroke="midnightblue" d="M521.121,-516.484C569.565,-521.885 634.399,-529.114 681.097,-534.321"/>
<polygon fill="midnightblue" stroke="midnightblue" points="521.371,-512.99 511.045,-515.36 520.596,-519.947 521.371,-512.99"/>
</g>
<!-- Node17 -->
<g id="node40" class="node"><title>Node17</title>
<a xlink:href="class_urho3_d_1_1_p_o_d_vector.html" target="_top" xlink:title="Urho3D::PODVector\&lt;\l Urho3D::HashMap * \&gt;">
<polygon fill="none" stroke="black" points="677.5,-472 677.5,-506 804.5,-506 804.5,-472 677.5,-472"/>
<text text-anchor="start" x="685.5" y="-493" font-family="FreeSans" font-size="10.00">Urho3D::PODVector&lt;</text>
<text text-anchor="middle" x="741" y="-480" font-family="FreeSans" font-size="10.00"> Urho3D::HashMap * &gt;</text>
</a>
</g>
<!-- Node11&#45;&gt;Node17 -->
<g id="edge50" class="edge"><title>Node11&#45;&gt;Node17</title>
<path fill="none" stroke="midnightblue" d="M521.16,-504.32C568.307,-501.034 630.962,-496.668 677.32,-493.438"/>
<polygon fill="midnightblue" stroke="midnightblue" points="520.778,-500.838 511.045,-505.025 521.264,-507.821 520.778,-500.838"/>
</g>
<!-- Node12&#45;&gt;Node5 -->
<g id="edge28" class="edge"><title>Node12&#45;&gt;Node5</title>
<path fill="none" stroke="#9a32cd" stroke-dasharray="5,2" d="M813.356,-653.077C870.135,-651.805 948.293,-641.487 1002,-600 1063.62,-552.397 1085.59,-452.65 1091.32,-419.769"/>
<polygon fill="#9a32cd" stroke="#9a32cd" points="812.967,-649.582 803.014,-653.214 813.06,-656.581 812.967,-649.582"/>
<text text-anchor="middle" x="944" y="-649" font-family="FreeSans" font-size="10.00"> eventHandler_</text>
</g>
<!-- Node21 -->
<g id="node52" class="node"><title>Node21</title>
<a xlink:href="class_urho3_d_1_1_linked_list.html" target="_top" xlink:title="Urho3D::LinkedList\l\&lt; Urho3D::EventHandler \&gt;">
<polygon fill="none" stroke="black" points="1020,-706 1020,-740 1166,-740 1166,-706 1020,-706"/>
<text text-anchor="start" x="1028" y="-727" font-family="FreeSans" font-size="10.00">Urho3D::LinkedList</text>
<text text-anchor="middle" x="1093" y="-714" font-family="FreeSans" font-size="10.00">&lt; Urho3D::EventHandler &gt;</text>
</a>
</g>
<!-- Node12&#45;&gt;Node21 -->
<g id="edge66" class="edge"><title>Node12&#45;&gt;Node21</title>
<path fill="none" stroke="#9a32cd" stroke-dasharray="5,2" d="M801.605,-662.569C862.14,-675.123 955.243,-694.431 1019.85,-707.831"/>
<polygon fill="#9a32cd" stroke="#9a32cd" points="802.31,-659.141 791.808,-660.537 800.889,-665.995 802.31,-659.141"/>
<text text-anchor="middle" x="944" y="-707" font-family="FreeSans" font-size="10.00"> head_</text>
</g>
<!-- Node13 -->
<g id="node27" class="node"><title>Node13</title>
<a xlink:href="struct_urho3_d_1_1_linked_list_node.html" target="_top" xlink:title="Singly&#45;linked list node base class.">
<polygon fill="none" stroke="black" points="388,-685.5 388,-706.5 520,-706.5 520,-685.5 388,-685.5"/>
<text text-anchor="middle" x="454" y="-693.5" font-family="FreeSans" font-size="10.00">Urho3D::LinkedListNode</text>
</a>
</g>
<!-- Node13&#45;&gt;Node12 -->
<g id="edge30" class="edge"><title>Node13&#45;&gt;Node12</title>
<path fill="none" stroke="midnightblue" d="M505.278,-682.102C510.33,-680.247 515.316,-678.212 520,-676 528.694,-671.895 528.899,-667.101 538,-664 583.476,-648.503 637.926,-645.52 678.98,-646.129"/>
<polygon fill="midnightblue" stroke="midnightblue" points="503.862,-678.888 495.543,-685.448 506.137,-685.508 503.862,-678.888"/>
</g>
<!-- Node13&#45;&gt;Node13 -->
<g id="edge32" class="edge"><title>Node13&#45;&gt;Node13</title>
<path fill="none" stroke="#9a32cd" stroke-dasharray="5,2" d="M435.94,-716.427C437.333,-721.349 443.353,-725 454,-725 471.035,-725 476.226,-715.653 469.571,-706.708"/>
<polygon fill="#9a32cd" stroke="#9a32cd" points="439.338,-717.264 438.429,-706.708 432.557,-715.527 439.338,-717.264"/>
<text text-anchor="middle" x="454" y="-729" font-family="FreeSans" font-size="10.00"> next_</text>
</g>
<!-- Node14 -->
<g id="node31" class="node"><title>Node14</title>
<a xlink:href="class_urho3_d_1_1_string_hash.html" target="_top" xlink:title="32&#45;bit hash value for a string.">
<polygon fill="none" stroke="black" points="397.5,-614.5 397.5,-635.5 510.5,-635.5 510.5,-614.5 397.5,-614.5"/>
<text text-anchor="middle" x="454" y="-622.5" font-family="FreeSans" font-size="10.00">Urho3D::StringHash</text>
</a>
</g>
<!-- Node14&#45;&gt;Node12 -->
<g id="edge36" class="edge"><title>Node14&#45;&gt;Node12</title>
<path fill="none" stroke="#9a32cd" stroke-dasharray="5,2" d="M521.166,-623.258C526.86,-623.154 532.53,-623.065 538,-623 563.776,-622.693 570.331,-620.631 596,-623 629.912,-626.13 667.725,-633.296 696.232,-639.459"/>
<polygon fill="#9a32cd" stroke="#9a32cd" points="520.858,-619.764 510.93,-623.461 520.997,-626.762 520.858,-619.764"/>
<text text-anchor="middle" x="567" y="-627" font-family="FreeSans" font-size="10.00"> eventType_</text>
</g>
<!-- Node14&#45;&gt;Node14 -->
<g id="edge38" class="edge"><title>Node14&#45;&gt;Node14</title>
<path fill="none" stroke="#9a32cd" stroke-dasharray="5,2" d="M435.94,-645.427C437.333,-650.349 443.353,-654 454,-654 471.035,-654 476.226,-644.653 469.571,-635.708"/>
<polygon fill="#9a32cd" stroke="#9a32cd" points="439.338,-646.264 438.429,-635.708 432.557,-644.527 439.338,-646.264"/>
<text text-anchor="middle" x="454" y="-658" font-family="FreeSans" font-size="10.00"> ZERO</text>
</g>
<!-- Node15&#45;&gt;Node5 -->
<g id="edge40" class="edge"><title>Node15&#45;&gt;Node5</title>
<path fill="none" stroke="#9a32cd" stroke-dasharray="5,2" d="M837.055,-253.383C889.033,-264.466 952.53,-283.591 1002,-316 1037.9,-339.52 1070.64,-379.356 1085.13,-398.333"/>
<polygon fill="#9a32cd" stroke="#9a32cd" points="837.657,-249.933 827.156,-251.339 836.241,-256.789 837.657,-249.933"/>
<text text-anchor="middle" x="944" y="-320" font-family="FreeSans" font-size="10.00"> globalVars_</text>
</g>
<!-- Node16&#45;&gt;Node5 -->
<g id="edge44" class="edge"><title>Node16&#45;&gt;Node5</title>
<path fill="none" stroke="#9a32cd" stroke-dasharray="5,2" d="M837.289,-30.2659C892.603,-38.8613 959.347,-58.5335 1002,-103 1045.07,-147.898 1082.58,-349.377 1091.16,-398.28"/>
<polygon fill="#9a32cd" stroke="#9a32cd" points="837.501,-26.7601 827.102,-28.7864 836.495,-33.6874 837.501,-26.7601"/>
<text text-anchor="middle" x="944" y="-107" font-family="FreeSans" font-size="10.00"> subsystems_</text>
</g>
<!-- Node17&#45;&gt;Node5 -->
<g id="edge48" class="edge"><title>Node17&#45;&gt;Node5</title>
<path fill="none" stroke="#9a32cd" stroke-dasharray="5,2" d="M814.574,-483.971C867.541,-478.988 940.243,-469.328 1002,-451 1028.02,-443.277 1056.12,-429.37 1074.1,-419.684"/>
<polygon fill="#9a32cd" stroke="#9a32cd" points="814.229,-480.488 804.587,-484.878 814.862,-487.46 814.229,-480.488"/>
<text text-anchor="middle" x="944" y="-479" font-family="FreeSans" font-size="10.00"> eventDataMaps_</text>
</g>
<!-- Node18&#45;&gt;Node5 -->
<g id="edge52" class="edge"><title>Node18&#45;&gt;Node5</title>
<path fill="none" stroke="#9a32cd" stroke-dasharray="5,2" d="M854.399,-378.497C918.459,-386.686 995.24,-396.502 1044.07,-402.745"/>
<polygon fill="#9a32cd" stroke="#9a32cd" points="854.596,-374.994 844.233,-377.197 853.709,-381.937 854.596,-374.994"/>
<text text-anchor="middle" x="944" y="-401" font-family="FreeSans" font-size="10.00"> factories_</text>
</g>
<!-- Node19&#45;&gt;Node5 -->
<g id="edge56" class="edge"><title>Node19&#45;&gt;Node5</title>
<path fill="none" stroke="#9a32cd" stroke-dasharray="5,2" d="M826.95,-316.648C878.424,-328.817 944.764,-346.273 1002,-367 1027.03,-376.064 1054.65,-389.296 1072.82,-398.476"/>
<polygon fill="#9a32cd" stroke="#9a32cd" points="827.724,-313.235 817.19,-314.362 826.128,-320.051 827.724,-313.235"/>
<text text-anchor="middle" x="944" y="-371" font-family="FreeSans" font-size="10.00"> objectCategories_</text>
</g>
<!-- Node20&#45;&gt;Node5 -->
<g id="edge60" class="edge"><title>Node20&#45;&gt;Node5</title>
<path fill="none" stroke="#9a32cd" stroke-dasharray="5,2" d="M842.621,-423.937C908.844,-419.987 992.284,-415.009 1044.14,-411.915"/>
<polygon fill="#9a32cd" stroke="#9a32cd" points="842.339,-420.448 832.565,-424.537 842.756,-427.435 842.339,-420.448"/>
<text text-anchor="middle" x="944" y="-438" font-family="FreeSans" font-size="10.00"> attributes_</text>
<text text-anchor="middle" x="944" y="-425" font-family="FreeSans" font-size="10.00">networkAttributes_</text>
</g>
<!-- Node21&#45;&gt;Node2 -->
<g id="edge64" class="edge"><title>Node21&#45;&gt;Node2</title>
<path fill="none" stroke="#9a32cd" stroke-dasharray="5,2" d="M1009.59,-734.242C1007.03,-734.509 1004.5,-734.763 1002,-735 815.81,-752.689 593.04,-762.063 499.194,-765.475"/>
<polygon fill="#9a32cd" stroke="#9a32cd" points="1009.99,-737.72 1019.55,-733.153 1009.22,-730.762 1009.99,-737.72"/>
<text text-anchor="middle" x="741" y="-764" font-family="FreeSans" font-size="10.00"> eventHandlers_</text>
</g>
<!-- Node22 -->
<g id="node55" class="node"><title>Node22</title>
<a xlink:href="class_urho3_d_1_1_abstract_file.html" target="_top" xlink:title="A common root class for objects that implement both Serializer and Deserializer.">
<polygon fill="none" stroke="black" points="396.5,-807.5 396.5,-828.5 511.5,-828.5 511.5,-807.5 396.5,-807.5"/>
<text text-anchor="middle" x="454" y="-815.5" font-family="FreeSans" font-size="10.00">Urho3D::AbstractFile</text>
</a>
</g>
<!-- Node22&#45;&gt;Node1 -->
<g id="edge68" class="edge"><title>Node22&#45;&gt;Node1</title>
<path fill="none" stroke="midnightblue" d="M521.956,-818.474C571.098,-818.816 636.774,-819.274 683.359,-819.598"/>
<polygon fill="midnightblue" stroke="midnightblue" points="521.758,-814.972 511.733,-818.402 521.709,-821.972 521.758,-814.972"/>
</g>
<!-- Node23 -->
<g id="node57" class="node"><title>Node23</title>
<a xlink:href="class_urho3_d_1_1_deserializer.html" target="_top" xlink:title="Abstract stream for reading.">
<polygon fill="none" stroke="black" points="197,-819.5 197,-840.5 313,-840.5 313,-819.5 197,-819.5"/>
<text text-anchor="middle" x="255" y="-827.5" font-family="FreeSans" font-size="10.00">Urho3D::Deserializer</text>
</a>
</g>
<!-- Node23&#45;&gt;Node22 -->
<g id="edge70" class="edge"><title>Node23&#45;&gt;Node22</title>
<path fill="none" stroke="midnightblue" d="M323.102,-825.893C346.878,-824.46 373.319,-822.865 396.178,-821.487"/>
<polygon fill="midnightblue" stroke="midnightblue" points="322.865,-822.401 313.094,-826.497 323.287,-829.388 322.865,-822.401"/>
</g>
<!-- Node24 -->
<g id="node59" class="node"><title>Node24</title>
<a xlink:href="class_urho3_d_1_1_serializer.html" target="_top" xlink:title="Abstract stream for writing.">
<polygon fill="none" stroke="black" points="203,-779.5 203,-800.5 307,-800.5 307,-779.5 203,-779.5"/>
<text text-anchor="middle" x="255" y="-787.5" font-family="FreeSans" font-size="10.00">Urho3D::Serializer</text>
</a>
</g>
<!-- Node24&#45;&gt;Node22 -->
<g id="edge72" class="edge"><title>Node24&#45;&gt;Node22</title>
<path fill="none" stroke="midnightblue" d="M317.237,-798.757C342.511,-802.313 371.534,-806.397 396.323,-809.885"/>
<polygon fill="midnightblue" stroke="midnightblue" points="317.415,-795.248 307.025,-797.32 316.44,-802.179 317.415,-795.248"/>
</g>
<!-- Node25 -->
<g id="node61" class="node"><title>Node25</title>
<a xlink:href="class_urho3_d_1_1_string.html" target="_top" xlink:title="String class.">
<polygon fill="none" stroke="black" points="410,-847.5 410,-868.5 498,-868.5 498,-847.5 410,-847.5"/>
<text text-anchor="middle" x="454" y="-855.5" font-family="FreeSans" font-size="10.00">Urho3D::String</text>
</a>
</g>
<!-- Node25&#45;&gt;Node1 -->
<g id="edge74" class="edge"><title>Node25&#45;&gt;Node1</title>
<path fill="none" stroke="#9a32cd" stroke-dasharray="5,2" d="M508.195,-850.824C558.213,-844.202 632.258,-834.398 683.347,-827.633"/>
<polygon fill="#9a32cd" stroke="#9a32cd" points="507.669,-847.363 498.215,-852.146 508.588,-854.303 507.669,-847.363"/>
<text text-anchor="middle" x="567" y="-850" font-family="FreeSans" font-size="10.00"> pipeName_</text>
</g>
<!-- Node25&#45;&gt;Node25 -->
<g id="edge76" class="edge"><title>Node25&#45;&gt;Node25</title>
<path fill="none" stroke="#9a32cd" stroke-dasharray="5,2" d="M435.94,-878.427C437.333,-883.349 443.353,-887 454,-887 471.035,-887 476.226,-877.653 469.571,-868.708"/>
<polygon fill="#9a32cd" stroke="#9a32cd" points="439.338,-879.264 438.429,-868.708 432.557,-877.527 439.338,-879.264"/>
<text text-anchor="middle" x="454" y="-891" font-family="FreeSans" font-size="10.00"> EMPTY</text>
</g>
</g>
</svg>
        <g id="navigator" transform="translate(0 0)" fill="#404254">
                <rect fill="#f2f5e9" fill-opacity="0.5" stroke="#606060" stroke-width=".5" x="0" y="0" width="60" height="60"/>
                <use id="zoomplus" xlink:href="#zoomPlus" x="17" y="9" onmousedown="handleZoom(evt,'in')"/>
                <use id="zoomminus" xlink:href="#zoomMin" x="42" y="9" onmousedown="handleZoom(evt,'out')"/>
                <use id="reset" xlink:href="#resetDef" x="30" y="36" onmousedown="handleReset()"/>
                <g id="arrowUp" xlink:href="#dirArrow" transform="translate(30 24)" onmousedown="handlePan(0,-1)">
                  <use xlink:href="#rim" fill="#404040">
                        <set attributeName="fill" to="#808080" begin="arrowUp.mouseover" end="arrowUp.mouseout"/>
                  </use>
                  <path fill="none" stroke="white" stroke-width="1.5" d="M0,-3.0v7 M-2.5,-0.5L0,-3.0L2.5,-0.5"/>
                </g>
                <g id="arrowRight" xlink:href="#dirArrow" transform="rotate(90) translate(36 -43)" onmousedown="handlePan(1,0)">
                  <use xlink:href="#rim" fill="#404040">
                        <set attributeName="fill" to="#808080" begin="arrowRight.mouseover" end="arrowRight.mouseout"/>
                  </use>
                  <path fill="none" stroke="white" stroke-width="1.5" d="M0,-3.0v7 M-2.5,-0.5L0,-3.0L2.5,-0.5"/>
                </g>
                <g id="arrowDown" xlink:href="#dirArrow" transform="rotate(180) translate(-30 -48)" onmousedown="handlePan(0,1)">
                  <use xlink:href="#rim" fill="#404040">
                        <set attributeName="fill" to="#808080" begin="arrowDown.mouseover" end="arrowDown.mouseout"/>
                  </use>
                  <path fill="none" stroke="white" stroke-width="1.5" d="M0,-3.0v7 M-2.5,-0.5L0,-3.0L2.5,-0.5"/>
                </g>
                <g id="arrowLeft" xlink:href="#dirArrow" transform="rotate(270) translate(-36 17)" onmousedown="handlePan(-1,0)">
                  <use xlink:href="#rim" fill="#404040">
                        <set attributeName="fill" to="#808080" begin="arrowLeft.mouseover" end="arrowLeft.mouseout"/>
                  </use>
                  <path fill="none" stroke="white" stroke-width="1.5" d="M0,-3.0v7 M-2.5,-0.5L0,-3.0L2.5,-0.5"/>
                </g>
        </g>
        <svg viewBox="0 0 15 15" width="100%" height="30px" preserveAspectRatio="xMaxYMin meet">
         <g id="arrow_out" transform="scale(0.3 0.3)">
          <a xlink:href="class_urho3_d_1_1_named_pipe__coll__graph_org.svg" target="_base">
           <rect id="button" ry="5" rx="5" y="6" x="6" height="38" width="38"
                fill="#f2f5e9" fill-opacity="0.5" stroke="#606060" stroke-width="1.0"/>
           <path id="arrow"
             d="M 11.500037,31.436501 C 11.940474,20.09759 22.043105,11.32322 32.158766,21.979434 L 37.068811,17.246167 C 37.068811,17.246167 37.088388,32 37.088388,32 L 22.160133,31.978069 C 22.160133,31.978069 26.997745,27.140456 26.997745,27.140456 C 18.528582,18.264221 13.291696,25.230495 11.500037,31.436501 z"
             style="fill:#404040;"/>
          </a>
         </g>
        </svg>
</svg>
