<?xml version="1.0" encoding="UTF-8" standalone="no"?>
<!DOCTYPE svg PUBLIC "-//W3C//DTD SVG 1.1//EN"
 "http://www.w3.org/Graphics/SVG/1.1/DTD/svg11.dtd">
<!-- Generated by graphviz version 2.40.1 (20161225.0304)
 -->
<!-- Title: Urho3D::FrustumOctreeQuery Pages: 1 -->
<svg width="537pt" height="137pt"
 viewBox="0.00 0.00 537.00 137.00" xmlns="http://www.w3.org/2000/svg" xmlns:xlink="http://www.w3.org/1999/xlink">
<g id="graph0" class="graph" transform="scale(1 1) rotate(0) translate(4 133)">
<title>Urho3D::FrustumOctreeQuery</title>
<!-- Node0 -->
<g id="node1" class="node">
<title>Node0</title>
<polygon fill="#bfbfbf" stroke="#000000" points="157,-55 157,-74 317,-74 317,-55 157,-55"/>
<text text-anchor="middle" x="237" y="-62" font-family="Helvetica,sans-Serif" font-size="10.00" fill="#000000">Urho3D::FrustumOctreeQuery</text>
</g>
<!-- Node2 -->
<g id="node3" class="node">
<title>Node2</title>
<g id="a_node3"><a xlink:title="Frustum octree query with occlusion. ">
<polygon fill="none" stroke="#bfbfbf" points="353,-98.5 353,-128.5 529,-128.5 529,-98.5 353,-98.5"/>
<text text-anchor="start" x="361" y="-116.5" font-family="Helvetica,sans-Serif" font-size="10.00" fill="#000000">Urho3D::OccludedFrustumOctree</text>
<text text-anchor="middle" x="441" y="-105.5" font-family="Helvetica,sans-Serif" font-size="10.00" fill="#000000">Query</text>
</a>
</g>
</g>
<!-- Node0&#45;&gt;Node2 -->
<g id="edge2" class="edge">
<title>Node0&#45;&gt;Node2</title>
<path fill="none" stroke="#191970" d="M286.6544,-76.4268C314.2787,-83.062 348.9296,-91.3851 378.3971,-98.463"/>
<polygon fill="#191970" stroke="#191970" points="287.3584,-72.9964 276.8175,-74.064 285.7235,-79.8028 287.3584,-72.9964"/>
</g>
<!-- Node3 -->
<g id="node4" class="node">
<title>Node3</title>
<g id="a_node4"><a xlink:title="Frustum octree query for shadowcasters. ">
<polygon fill="none" stroke="#bfbfbf" points="360.5,-49.5 360.5,-79.5 521.5,-79.5 521.5,-49.5 360.5,-49.5"/>
<text text-anchor="start" x="368.5" y="-67.5" font-family="Helvetica,sans-Serif" font-size="10.00" fill="#000000">Urho3D::ShadowCasterOctree</text>
<text text-anchor="middle" x="441" y="-56.5" font-family="Helvetica,sans-Serif" font-size="10.00" fill="#000000">Query</text>
</a>
</g>
</g>
<!-- Node0&#45;&gt;Node3 -->
<g id="edge3" class="edge">
<title>Node0&#45;&gt;Node3</title>
<path fill="none" stroke="#191970" d="M327.0913,-64.5C338.1092,-64.5 349.315,-64.5 360.185,-64.5"/>
<polygon fill="#191970" stroke="#191970" points="327.0407,-61.0001 317.0407,-64.5 327.0407,-68.0001 327.0407,-61.0001"/>
</g>
<!-- Node4 -->
<g id="node5" class="node">
<title>Node4</title>
<g id="a_node5"><a xlink:title="Frustum octree query for zones and occluders. ">
<polygon fill="none" stroke="#bfbfbf" points="361.5,-.5 361.5,-30.5 520.5,-30.5 520.5,-.5 361.5,-.5"/>
<text text-anchor="start" x="369.5" y="-18.5" font-family="Helvetica,sans-Serif" font-size="10.00" fill="#000000">Urho3D::ZoneOccluderOctree</text>
<text text-anchor="middle" x="441" y="-7.5" font-family="Helvetica,sans-Serif" font-size="10.00" fill="#000000">Query</text>
</a>
</g>
</g>
<!-- Node0&#45;&gt;Node4 -->
<g id="edge4" class="edge">
<title>Node0&#45;&gt;Node4</title>
<path fill="none" stroke="#191970" d="M286.6544,-52.5732C314.2787,-45.938 348.9296,-37.6149 378.3971,-30.537"/>
<polygon fill="#191970" stroke="#191970" points="285.7235,-49.1972 276.8175,-54.936 287.3584,-56.0036 285.7235,-49.1972"/>
</g>
<!-- Node1 -->
<g id="node2" class="node">
<title>Node1</title>
<g id="a_node2"><a xlink:href="class_urho3_d_1_1_octree_query.html" target="_top" xlink:title="Base class for octree queries. ">
<polygon fill="none" stroke="#000000" points="0,-55 0,-74 121,-74 121,-55 0,-55"/>
<text text-anchor="middle" x="60.5" y="-62" font-family="Helvetica,sans-Serif" font-size="10.00" fill="#000000">Urho3D::OctreeQuery</text>
</a>
</g>
</g>
<!-- Node1&#45;&gt;Node0 -->
<g id="edge1" class="edge">
<title>Node1&#45;&gt;Node0</title>
<path fill="none" stroke="#191970" d="M131.3369,-64.5C139.7198,-64.5 148.321,-64.5 156.8215,-64.5"/>
<polygon fill="#191970" stroke="#191970" points="131.2413,-61.0001 121.2413,-64.5 131.2413,-68.0001 131.2413,-61.0001"/>
</g>
</g>
</svg>
