<?xml version="1.0" encoding="UTF-8" standalone="no"?>
<!DOCTYPE svg PUBLIC "-//W3C//DTD SVG 1.1//EN"
 "http://www.w3.org/Graphics/SVG/1.1/DTD/svg11.dtd">
<!-- Generated by graphviz version 2.26.3 (20100126.1600)
 -->
<!-- Title: Urho3D::Texture2D::SetSize Pages: 1 -->
<!--zoomable 800 -->
<svg id="main" version="1.1" xmlns="http://www.w3.org/2000/svg" xmlns:xlink="http://www.w3.org/1999/xlink" xml:space="preserve" onload="init(evt)">
        <defs>
                <circle id="rim" cx="0" cy="0" r="7"/>
                <circle id="rim2" cx="0" cy="0" r="3.5"/>
                <g id="zoomPlus">
                        <use xlink:href="#rim" fill="#404040">
                                <set attributeName="fill" to="#808080" begin="zoomplus.mouseover" end="zoomplus.mouseout"/>
                        </use>
                        <path d="M-4,0h8M0,-4v8" fill="none" stroke="white" stroke-width="1.5" pointer-events="none"/>
                </g>
                <g id="zoomMin">
                        <use xlink:href="#rim" fill="#404040">
                                <set attributeName="fill" to="#808080" begin="zoomminus.mouseover" end="zoomminus.mouseout"/>
                        </use>
                        <path d="M-4,0h8" fill="none" stroke="white" stroke-width="1.5" pointer-events="none"/>
                </g>
                <g id="dirArrow">
                        <path fill="none" stroke="white" stroke-width="1.5" d="M0,-3.0v7 M-2.5,-0.5L0,-3.0L2.5,-0.5"/>
                </g>
               <g id="resetDef">
                       <use xlink:href="#rim2" fill="#404040">
                               <set attributeName="fill" to="#808080" begin="reset.mouseover" end="reset.mouseout"/>
                       </use>
               </g>
        </defs>

<script type="text/javascript">
var viewWidth = 760;
var viewHeight = 800;
var sectionId = 'dynsection-2';
</script>
<script xlink:href="svgpan.js"/>
<svg id="graph" class="graph">
<g id="viewport">
<title>Urho3D::Texture2D::SetSize</title>
<!-- Node1 -->
<g id="node1" class="node"><title>Node1</title>
<polygon fill="#bfbfbf" stroke="black" points="0.5,-512 0.5,-546 113.5,-546 113.5,-512 0.5,-512"/>
<text text-anchor="start" x="8.5" y="-533" font-family="FreeSans" font-size="10.00">Urho3D::Texture2D::</text>
<text text-anchor="middle" x="57" y="-520" font-family="FreeSans" font-size="10.00">SetSize</text>
</g>
<!-- Node2 -->
<g id="node3" class="node"><title>Node2</title>
<a xlink:href="class_urho3_d_1_1_object.html#a7d9d061f4cf32f5fd5531e11a72834b6" target="_top" xlink:title="Subscribe to an event that can be sent by any sender.">
<polygon fill="none" stroke="black" points="156.5,-680 156.5,-714 299.5,-714 299.5,-680 156.5,-680"/>
<text text-anchor="start" x="164.5" y="-701" font-family="FreeSans" font-size="10.00">Urho3D::Object::Subscribe</text>
<text text-anchor="middle" x="228" y="-688" font-family="FreeSans" font-size="10.00">ToEvent</text>
</a>
</g>
<!-- Node1&#45;&gt;Node2 -->
<g id="edge2" class="edge"><title>Node1&#45;&gt;Node2</title>
<path fill="none" stroke="midnightblue" d="M74.3374,-546.033C104.808,-575.969 168.053,-638.104 203.16,-672.596"/>
<polygon fill="midnightblue" stroke="midnightblue" points="201.03,-675.41 210.617,-679.922 205.936,-670.417 201.03,-675.41"/>
</g>
<!-- Node7 -->
<g id="node13" class="node"><title>Node7</title>
<a xlink:href="class_urho3_d_1_1_texture2_d.html#a024726411f9f3414a4833e2b290abf05" target="_top" xlink:title="Handle render surface update event.">
<polygon fill="none" stroke="black" points="150.5,-473 150.5,-507 305.5,-507 305.5,-473 150.5,-473"/>
<text text-anchor="start" x="158.5" y="-494" font-family="FreeSans" font-size="10.00">Urho3D::Texture2D::</text>
<text text-anchor="middle" x="228" y="-481" font-family="FreeSans" font-size="10.00">HandleRenderSurfaceUpdate</text>
</a>
</g>
<!-- Node1&#45;&gt;Node7 -->
<g id="edge12" class="edge"><title>Node1&#45;&gt;Node7</title>
<path fill="none" stroke="midnightblue" d="M113.941,-516.014C123.413,-513.853 133.414,-511.572 143.399,-509.295"/>
<polygon fill="midnightblue" stroke="midnightblue" points="144.387,-512.66 153.358,-507.024 142.83,-505.835 144.387,-512.66"/>
</g>
<!-- Node12 -->
<g id="node23" class="node"><title>Node12</title>
<a xlink:href="class_urho3_d_1_1_object.html#a153b96c4397e045b2ca2b2d5471d097c" target="_top" xlink:title="Unsubscribe from an event.">
<polygon fill="none" stroke="black" points="150.5,-551 150.5,-585 305.5,-585 305.5,-551 150.5,-551"/>
<text text-anchor="start" x="158.5" y="-572" font-family="FreeSans" font-size="10.00">Urho3D::Object::Unsubscribe</text>
<text text-anchor="middle" x="228" y="-559" font-family="FreeSans" font-size="10.00">FromEvent</text>
</a>
</g>
<!-- Node1&#45;&gt;Node12 -->
<g id="edge22" class="edge"><title>Node1&#45;&gt;Node12</title>
<path fill="none" stroke="midnightblue" d="M113.941,-541.986C123.413,-544.147 133.414,-546.428 143.399,-548.705"/>
<polygon fill="midnightblue" stroke="midnightblue" points="142.83,-552.165 153.358,-550.976 144.387,-545.34 142.83,-552.165"/>
</g>
<!-- Node15 -->
<g id="node30" class="node"><title>Node15</title>
<a xlink:href="class_urho3_d_1_1_texture2_d.html#a337afef5ad75a9fdac1e63373954a2cf" target="_top" xlink:title="Create the GPU texture.">
<polygon fill="none" stroke="black" points="171.5,-218 171.5,-252 284.5,-252 284.5,-218 171.5,-218"/>
<text text-anchor="start" x="179.5" y="-239" font-family="FreeSans" font-size="10.00">Urho3D::Texture2D::</text>
<text text-anchor="middle" x="228" y="-226" font-family="FreeSans" font-size="10.00">Create</text>
</a>
</g>
<!-- Node1&#45;&gt;Node15 -->
<g id="edge30" class="edge"><title>Node1&#45;&gt;Node15</title>
<path fill="none" stroke="midnightblue" d="M66.9328,-511.923C95.621,-462.599 178.732,-319.706 212.979,-260.826"/>
<polygon fill="midnightblue" stroke="midnightblue" points="216.037,-262.529 218.04,-252.125 209.987,-259.009 216.037,-262.529"/>
</g>
<!-- Node3 -->
<g id="node5" class="node"><title>Node3</title>
<a xlink:href="class_urho3_d_1_1_event_handler.html#abe76f0245895dadac146b7a4b7d78713" target="_top" xlink:title="Set sender and event type.">
<polygon fill="none" stroke="black" points="368,-706 368,-740 508,-740 508,-706 368,-706"/>
<text text-anchor="start" x="376" y="-727" font-family="FreeSans" font-size="10.00">Urho3D::EventHandler</text>
<text text-anchor="middle" x="438" y="-714" font-family="FreeSans" font-size="10.00">::SetSenderAndEventType</text>
</a>
</g>
<!-- Node2&#45;&gt;Node3 -->
<g id="edge4" class="edge"><title>Node2&#45;&gt;Node3</title>
<path fill="none" stroke="midnightblue" d="M299.683,-705.875C318.316,-708.182 338.51,-710.682 357.561,-713.041"/>
<polygon fill="midnightblue" stroke="midnightblue" points="357.353,-716.542 367.707,-714.297 358.213,-709.595 357.353,-716.542"/>
</g>
<!-- Node4 -->
<g id="node7" class="node"><title>Node4</title>
<a xlink:href="class_urho3_d_1_1_object.html#a8114b82012a47b70b1ca6473c20997f5" target="_top" xlink:title="Find the first event handler with specific sender.">
<polygon fill="none" stroke="black" points="362,-654 362,-688 514,-688 514,-654 362,-654"/>
<text text-anchor="start" x="370" y="-675" font-family="FreeSans" font-size="10.00">Urho3D::Object::FindSpecific</text>
<text text-anchor="middle" x="438" y="-662" font-family="FreeSans" font-size="10.00">EventHandler</text>
</a>
</g>
<!-- Node2&#45;&gt;Node4 -->
<g id="edge6" class="edge"><title>Node2&#45;&gt;Node4</title>
<path fill="none" stroke="midnightblue" d="M299.683,-688.125C316.469,-686.047 334.522,-683.812 351.865,-681.664"/>
<polygon fill="midnightblue" stroke="midnightblue" points="352.486,-685.114 361.98,-680.412 351.626,-678.167 352.486,-685.114"/>
</g>
<!-- Node6 -->
<g id="node11" class="node"><title>Node6</title>
<a xlink:href="class_urho3_d_1_1_context.html#ae3e0c5db85e2395f3d34941003c816ad" target="_top" xlink:title="Add event receiver.">
<polygon fill="none" stroke="black" points="363.5,-758 363.5,-792 512.5,-792 512.5,-758 363.5,-758"/>
<text text-anchor="start" x="371.5" y="-779" font-family="FreeSans" font-size="10.00">Urho3D::Context::AddEvent</text>
<text text-anchor="middle" x="438" y="-766" font-family="FreeSans" font-size="10.00">Receiver</text>
</a>
</g>
<!-- Node2&#45;&gt;Node6 -->
<g id="edge10" class="edge"><title>Node2&#45;&gt;Node6</title>
<path fill="none" stroke="midnightblue" d="M261.815,-714.19C284.184,-725.119 314.375,-739.034 342,-749 347.809,-751.096 353.869,-753.113 359.996,-755.034"/>
<polygon fill="midnightblue" stroke="midnightblue" points="359.067,-758.409 369.653,-757.969 361.103,-751.712 359.067,-758.409"/>
</g>
<!-- Node5 -->
<g id="node9" class="node"><title>Node5</title>
<a xlink:href="class_urho3_d_1_1_event_handler.html#a133e5cd8d70e86d7ca2d7a9adfcd37ea" target="_top" xlink:title="Return event sender. Null if the handler is non&#45;specific.">
<polygon fill="none" stroke="black" points="599,-631 599,-665 723,-665 723,-631 599,-631"/>
<text text-anchor="start" x="607" y="-652" font-family="FreeSans" font-size="10.00">Urho3D::EventHandler</text>
<text text-anchor="middle" x="661" y="-639" font-family="FreeSans" font-size="10.00">::GetSender</text>
</a>
</g>
<!-- Node4&#45;&gt;Node5 -->
<g id="edge8" class="edge"><title>Node4&#45;&gt;Node5</title>
<path fill="none" stroke="midnightblue" d="M514.12,-663.149C538.298,-660.655 564.953,-657.906 588.843,-655.442"/>
<polygon fill="midnightblue" stroke="midnightblue" points="589.309,-658.913 598.897,-654.405 588.591,-651.95 589.309,-658.913"/>
</g>
<!-- Node8 -->
<g id="node15" class="node"><title>Node8</title>
<a xlink:href="class_urho3_d_1_1_renderer.html#afeb454d44341ed3f84ab04880a7553f5" target="_top" xlink:title="Queue a render surface&#39;s viewports for rendering. Called by the surface, or by View.">
<polygon fill="none" stroke="black" points="351.5,-460 351.5,-494 524.5,-494 524.5,-460 351.5,-460"/>
<text text-anchor="start" x="359.5" y="-481" font-family="FreeSans" font-size="10.00">Urho3D::Renderer::QueueRender</text>
<text text-anchor="middle" x="438" y="-468" font-family="FreeSans" font-size="10.00">Surface</text>
</a>
</g>
<!-- Node7&#45;&gt;Node8 -->
<g id="edge14" class="edge"><title>Node7&#45;&gt;Node8</title>
<path fill="none" stroke="midnightblue" d="M305.6,-485.196C317.076,-484.486 329.022,-483.746 340.836,-483.015"/>
<polygon fill="midnightblue" stroke="midnightblue" points="341.403,-486.487 351.167,-482.375 340.97,-479.5 341.403,-486.487"/>
</g>
<!-- Node9 -->
<g id="node17" class="node"><title>Node9</title>
<a xlink:href="class_urho3_d_1_1_render_surface.html#a9ca6e6bf4a7d85b09474795a261c7e89" target="_top" xlink:title="Return number of viewports.">
<polygon fill="none" stroke="black" points="596.5,-460 596.5,-494 725.5,-494 725.5,-460 596.5,-460"/>
<text text-anchor="start" x="604.5" y="-481" font-family="FreeSans" font-size="10.00">Urho3D::RenderSurface</text>
<text text-anchor="middle" x="661" y="-468" font-family="FreeSans" font-size="10.00">::GetNumViewports</text>
</a>
</g>
<!-- Node8&#45;&gt;Node9 -->
<g id="edge16" class="edge"><title>Node8&#45;&gt;Node9</title>
<path fill="none" stroke="midnightblue" d="M524.537,-477C544.867,-477 566.364,-477 586.132,-477"/>
<polygon fill="midnightblue" stroke="midnightblue" points="586.297,-480.5 596.297,-477 586.297,-473.5 586.297,-480.5"/>
</g>
<!-- Node10 -->
<g id="node19" class="node"><title>Node10</title>
<a xlink:href="class_urho3_d_1_1_renderer.html#a8faee04d4f315f7bb12e54965d79c4f4" target="_top" xlink:title="Queue a viewport for rendering. Null surface means backbuffer.">
<polygon fill="none" stroke="black" points="570.5,-420.5 570.5,-441.5 751.5,-441.5 751.5,-420.5 570.5,-420.5"/>
<text text-anchor="middle" x="661" y="-428.5" font-family="FreeSans" font-size="10.00">Urho3D::Renderer::QueueViewport</text>
</a>
</g>
<!-- Node8&#45;&gt;Node10 -->
<g id="edge18" class="edge"><title>Node8&#45;&gt;Node10</title>
<path fill="none" stroke="midnightblue" d="M520.72,-459.937C546.975,-454.521 575.516,-448.634 599.957,-443.592"/>
<polygon fill="midnightblue" stroke="midnightblue" points="600.723,-447.008 609.809,-441.56 599.308,-440.152 600.723,-447.008"/>
</g>
<!-- Node11 -->
<g id="node21" class="node"><title>Node11</title>
<a xlink:href="class_urho3_d_1_1_render_surface.html#ac408d83d3b08609abd5028460555495a" target="_top" xlink:title="Return viewport by index.">
<polygon fill="none" stroke="black" points="596.5,-512 596.5,-546 725.5,-546 725.5,-512 596.5,-512"/>
<text text-anchor="start" x="604.5" y="-533" font-family="FreeSans" font-size="10.00">Urho3D::RenderSurface</text>
<text text-anchor="middle" x="661" y="-520" font-family="FreeSans" font-size="10.00">::GetViewport</text>
</a>
</g>
<!-- Node8&#45;&gt;Node11 -->
<g id="edge20" class="edge"><title>Node8&#45;&gt;Node11</title>
<path fill="none" stroke="midnightblue" d="M511.019,-494.027C535.245,-499.676 562.234,-505.969 586.565,-511.643"/>
<polygon fill="midnightblue" stroke="midnightblue" points="585.923,-515.087 596.457,-513.95 587.513,-508.27 585.923,-515.087"/>
</g>
<!-- Node12&#45;&gt;Node5 -->
<g id="edge26" class="edge"><title>Node12&#45;&gt;Node5</title>
<path fill="none" stroke="midnightblue" d="M270.978,-585.001C292.082,-592.754 318.062,-601.427 342,-607 425.498,-626.438 523.585,-637.308 588.726,-642.895"/>
<polygon fill="midnightblue" stroke="midnightblue" points="588.634,-646.4 598.891,-643.747 589.218,-639.424 588.634,-646.4"/>
</g>
<!-- Node13 -->
<g id="node25" class="node"><title>Node13</title>
<a xlink:href="class_urho3_d_1_1_object.html#a1c9bb9f6c78ee5b859de8557bfdef7e0" target="_top" xlink:title="Find the first event handler with no specific sender.">
<polygon fill="none" stroke="red" points="367,-564 367,-598 509,-598 509,-564 367,-564"/>
<text text-anchor="start" x="375" y="-585" font-family="FreeSans" font-size="10.00">Urho3D::Object::FindEvent</text>
<text text-anchor="middle" x="438" y="-572" font-family="FreeSans" font-size="10.00">Handler</text>
</a>
</g>
<!-- Node12&#45;&gt;Node13 -->
<g id="edge24" class="edge"><title>Node12&#45;&gt;Node13</title>
<path fill="none" stroke="midnightblue" d="M305.6,-572.804C322.242,-573.834 339.871,-574.925 356.651,-575.964"/>
<polygon fill="midnightblue" stroke="midnightblue" points="356.775,-579.478 366.972,-576.603 357.208,-572.492 356.775,-579.478"/>
</g>
<!-- Node14 -->
<g id="node28" class="node"><title>Node14</title>
<a xlink:href="class_urho3_d_1_1_context.html#a7b5bd076e695054df7930255c3eee18b" target="_top" xlink:title="Remove event receiver from specific events.">
<polygon fill="none" stroke="red" points="354,-512 354,-546 522,-546 522,-512 354,-512"/>
<text text-anchor="start" x="362" y="-533" font-family="FreeSans" font-size="10.00">Urho3D::Context::RemoveEvent</text>
<text text-anchor="middle" x="438" y="-520" font-family="FreeSans" font-size="10.00">Receiver</text>
</a>
</g>
<!-- Node12&#45;&gt;Node14 -->
<g id="edge28" class="edge"><title>Node12&#45;&gt;Node14</title>
<path fill="none" stroke="midnightblue" d="M305.6,-553.589C317.953,-551.294 330.851,-548.899 343.542,-546.542"/>
<polygon fill="midnightblue" stroke="midnightblue" points="344.468,-549.93 353.66,-544.663 343.189,-543.048 344.468,-549.93"/>
</g>
<!-- Node16 -->
<g id="node32" class="node"><title>Node16</title>
<a xlink:href="class_urho3_d_1_1_texture2_d.html#ad83473aadefa975808ef87993e0f696f" target="_top" xlink:title="Release the texture.">
<polygon fill="none" stroke="black" points="381.5,-80 381.5,-114 494.5,-114 494.5,-80 381.5,-80"/>
<text text-anchor="start" x="389.5" y="-101" font-family="FreeSans" font-size="10.00">Urho3D::Texture2D::</text>
<text text-anchor="middle" x="438" y="-88" font-family="FreeSans" font-size="10.00">Release</text>
</a>
</g>
<!-- Node15&#45;&gt;Node16 -->
<g id="edge32" class="edge"><title>Node15&#45;&gt;Node16</title>
<path fill="none" stroke="midnightblue" d="M240.721,-217.815C259.915,-193.118 298.673,-147.837 342,-123 351.082,-117.794 361.246,-113.595 371.471,-110.219"/>
<polygon fill="midnightblue" stroke="midnightblue" points="372.718,-113.498 381.259,-107.228 370.673,-106.803 372.718,-113.498"/>
</g>
<!-- Node17 -->
<g id="node34" class="node"><title>Node17</title>
<a xlink:href="class_urho3_d_1_1_texture.html#af0adf78530abb05a692b52c0df297c9f" target="_top" xlink:title="Return whether is using sRGB sampling and writing.">
<polygon fill="none" stroke="black" points="366,-40.5 366,-61.5 510,-61.5 510,-40.5 366,-40.5"/>
<text text-anchor="middle" x="438" y="-48.5" font-family="FreeSans" font-size="10.00">Urho3D::Texture::GetSRGB</text>
</a>
</g>
<!-- Node15&#45;&gt;Node17 -->
<g id="edge34" class="edge"><title>Node15&#45;&gt;Node17</title>
<path fill="none" stroke="midnightblue" d="M234.727,-217.857C248.979,-183.932 285.604,-108.303 342,-71 346.413,-68.0811 351.169,-65.5762 356.12,-63.4277"/>
<polygon fill="midnightblue" stroke="midnightblue" points="357.747,-66.5536 365.843,-59.7203 355.253,-60.0129 357.747,-66.5536"/>
</g>
<!-- Node18 -->
<g id="node36" class="node"><title>Node18</title>
<a xlink:href="class_urho3_d_1_1_texture.html#af633d70298690db00993d6c89b2f0a50" target="_top" xlink:title="Convert format to sRGB. Not used on Direct3D9.">
<polygon fill="none" stroke="black" points="348.5,-0.5 348.5,-21.5 527.5,-21.5 527.5,-0.5 348.5,-0.5"/>
<text text-anchor="middle" x="438" y="-8.5" font-family="FreeSans" font-size="10.00">Urho3D::Texture::GetSRGBFormat</text>
</a>
</g>
<!-- Node15&#45;&gt;Node18 -->
<g id="edge36" class="edge"><title>Node15&#45;&gt;Node18</title>
<path fill="none" stroke="midnightblue" d="M232.34,-217.778C243.314,-177.986 276.102,-79.3813 342,-31 344.38,-29.2526 346.878,-27.6501 349.468,-26.181"/>
<polygon fill="midnightblue" stroke="midnightblue" points="351.165,-29.2465 358.584,-21.683 348.068,-22.9691 351.165,-29.2465"/>
</g>
<!-- Node19 -->
<g id="node38" class="node"><title>Node19</title>
<a xlink:href="class_urho3_d_1_1_texture.html#a09c2fc9bd5347131e3a0126b109d07ab" target="_top" xlink:title="Return the non&#45;internal texture format corresponding to an OpenGL internal format.">
<polygon fill="none" stroke="black" points="360,-408 360,-442 516,-442 516,-408 360,-408"/>
<text text-anchor="start" x="368" y="-429" font-family="FreeSans" font-size="10.00">Urho3D::Texture::GetExternal</text>
<text text-anchor="middle" x="438" y="-416" font-family="FreeSans" font-size="10.00">Format</text>
</a>
</g>
<!-- Node15&#45;&gt;Node19 -->
<g id="edge38" class="edge"><title>Node15&#45;&gt;Node19</title>
<path fill="none" stroke="midnightblue" d="M235.032,-252.12C249.707,-285.665 286.872,-360.147 342,-399 344.752,-400.94 347.642,-402.735 350.633,-404.396"/>
<polygon fill="midnightblue" stroke="midnightblue" points="349.358,-407.671 359.87,-408.989 352.474,-401.403 349.358,-407.671"/>
</g>
<!-- Node20 -->
<g id="node40" class="node"><title>Node20</title>
<a xlink:href="class_urho3_d_1_1_texture.html#a60c268d6f819bd4fdc219ba8f5f3820c" target="_top" xlink:title="Return the data type corresponding to an OpenGL internal format.">
<polygon fill="none" stroke="black" points="357.5,-368.5 357.5,-389.5 518.5,-389.5 518.5,-368.5 357.5,-368.5"/>
<text text-anchor="middle" x="438" y="-376.5" font-family="FreeSans" font-size="10.00">Urho3D::Texture::GetDataType</text>
</a>
</g>
<!-- Node15&#45;&gt;Node20 -->
<g id="edge40" class="edge"><title>Node15&#45;&gt;Node20</title>
<path fill="none" stroke="midnightblue" d="M238.586,-252.16C256.37,-279.427 294.955,-332.288 342,-359 345.747,-361.128 349.692,-363.03 353.759,-364.731"/>
<polygon fill="midnightblue" stroke="midnightblue" points="352.841,-368.124 363.433,-368.346 355.291,-361.567 352.841,-368.124"/>
</g>
<!-- Node21 -->
<g id="node42" class="node"><title>Node21</title>
<a xlink:href="class_urho3_d_1_1_graphics.html#a609ba19c78432946e8334cc3a7bcb92e" target="_top" xlink:title="Return the API&#45;specific hardware depth&#45;stencil texture format.">
<polygon fill="none" stroke="black" points="361,-316 361,-350 515,-350 515,-316 361,-316"/>
<text text-anchor="start" x="369" y="-337" font-family="FreeSans" font-size="10.00">Urho3D::Graphics::GetDepth</text>
<text text-anchor="middle" x="438" y="-324" font-family="FreeSans" font-size="10.00">StencilFormat</text>
</a>
</g>
<!-- Node15&#45;&gt;Node21 -->
<g id="edge42" class="edge"><title>Node15&#45;&gt;Node21</title>
<path fill="none" stroke="midnightblue" d="M250.441,-252.036C272.649,-268.185 308.138,-292.125 342,-307 346.459,-308.959 351.1,-310.801 355.83,-312.53"/>
<polygon fill="midnightblue" stroke="midnightblue" points="355.037,-315.959 365.632,-315.918 357.324,-309.343 355.037,-315.959"/>
</g>
<!-- Node22 -->
<g id="node44" class="node"><title>Node22</title>
<a xlink:href="class_urho3_d_1_1_graphics.html#af39a9a2972752ace04fa2aac273ecc9e" target="_top" xlink:title="Return whether is using an OpenGL 3 context. Return always false on Direct3D9 &amp; Direct3D11.">
<polygon fill="none" stroke="black" points="366.5,-264 366.5,-298 509.5,-298 509.5,-264 366.5,-264"/>
<text text-anchor="start" x="374.5" y="-285" font-family="FreeSans" font-size="10.00">Urho3D::Graphics::GetGL3</text>
<text text-anchor="middle" x="438" y="-272" font-family="FreeSans" font-size="10.00">Support</text>
</a>
</g>
<!-- Node15&#45;&gt;Node22 -->
<g id="edge44" class="edge"><title>Node15&#45;&gt;Node22</title>
<path fill="none" stroke="midnightblue" d="M284.552,-247.388C306.654,-252.229 332.424,-257.874 356.464,-263.14"/>
<polygon fill="midnightblue" stroke="midnightblue" points="355.771,-266.571 366.288,-265.292 357.269,-259.733 355.771,-266.571"/>
</g>
<!-- Node23 -->
<g id="node46" class="node"><title>Node23</title>
<a xlink:href="class_urho3_d_1_1_texture.html#a14478383cb81ad270fbc540e698a899b" target="_top" xlink:title="Return whether the texture format is compressed.">
<polygon fill="none" stroke="black" points="354,-224.5 354,-245.5 522,-245.5 522,-224.5 354,-224.5"/>
<text text-anchor="middle" x="438" y="-232.5" font-family="FreeSans" font-size="10.00">Urho3D::Texture::IsCompressed</text>
</a>
</g>
<!-- Node15&#45;&gt;Node23 -->
<g id="edge46" class="edge"><title>Node15&#45;&gt;Node23</title>
<path fill="none" stroke="midnightblue" d="M284.552,-235C302.739,-235 323.409,-235 343.556,-235"/>
<polygon fill="midnightblue" stroke="midnightblue" points="343.708,-238.5 353.708,-235 343.708,-231.5 343.708,-238.5"/>
</g>
<!-- Node24 -->
<g id="node48" class="node"><title>Node24</title>
<a xlink:href="class_urho3_d_1_1_texture.html#a0dc9b5632a502d45cf001c0cdaebd8e5" target="_top" xlink:title="Check maximum allowed mip levels for a specific texture size.">
<polygon fill="none" stroke="black" points="363.5,-172 363.5,-206 512.5,-206 512.5,-172 363.5,-172"/>
<text text-anchor="start" x="371.5" y="-193" font-family="FreeSans" font-size="10.00">Urho3D::Texture::CheckMax</text>
<text text-anchor="middle" x="438" y="-180" font-family="FreeSans" font-size="10.00">Levels</text>
</a>
</g>
<!-- Node15&#45;&gt;Node24 -->
<g id="edge48" class="edge"><title>Node15&#45;&gt;Node24</title>
<path fill="none" stroke="midnightblue" d="M284.552,-222.612C305.705,-217.979 330.218,-212.609 353.359,-207.54"/>
<polygon fill="midnightblue" stroke="midnightblue" points="354.16,-210.948 363.179,-205.389 352.662,-204.11 354.16,-210.948"/>
</g>
<!-- Node25 -->
<g id="node50" class="node"><title>Node25</title>
<a xlink:href="class_urho3_d_1_1_texture.html#a7eaf51cf81ac775bdc87e00ec1a47979" target="_top" xlink:title="Update dirty parameters to the texture object. Called by Graphics when assigning the texture...">
<polygon fill="none" stroke="red" points="342.5,-132.5 342.5,-153.5 533.5,-153.5 533.5,-132.5 342.5,-132.5"/>
<text text-anchor="middle" x="438" y="-140.5" font-family="FreeSans" font-size="10.00">Urho3D::Texture::UpdateParameters</text>
</a>
</g>
<!-- Node15&#45;&gt;Node25 -->
<g id="edge50" class="edge"><title>Node15&#45;&gt;Node25</title>
<path fill="none" stroke="midnightblue" d="M249.837,-217.833C271.876,-201.351 307.496,-176.956 342,-163 348.309,-160.448 354.989,-158.205 361.77,-156.238"/>
<polygon fill="midnightblue" stroke="midnightblue" points="363.001,-159.531 371.745,-153.548 361.179,-152.772 363.001,-159.531"/>
</g>
</g>
</svg>
        <g id="navigator" transform="translate(0 0)" fill="#404254">
                <rect fill="#f2f5e9" fill-opacity="0.5" stroke="#606060" stroke-width=".5" x="0" y="0" width="60" height="60"/>
                <use id="zoomplus" xlink:href="#zoomPlus" x="17" y="9" onmousedown="handleZoom(evt,'in')"/>
                <use id="zoomminus" xlink:href="#zoomMin" x="42" y="9" onmousedown="handleZoom(evt,'out')"/>
                <use id="reset" xlink:href="#resetDef" x="30" y="36" onmousedown="handleReset()"/>
                <g id="arrowUp" xlink:href="#dirArrow" transform="translate(30 24)" onmousedown="handlePan(0,-1)">
                  <use xlink:href="#rim" fill="#404040">
                        <set attributeName="fill" to="#808080" begin="arrowUp.mouseover" end="arrowUp.mouseout"/>
                  </use>
                  <path fill="none" stroke="white" stroke-width="1.5" d="M0,-3.0v7 M-2.5,-0.5L0,-3.0L2.5,-0.5"/>
                </g>
                <g id="arrowRight" xlink:href="#dirArrow" transform="rotate(90) translate(36 -43)" onmousedown="handlePan(1,0)">
                  <use xlink:href="#rim" fill="#404040">
                        <set attributeName="fill" to="#808080" begin="arrowRight.mouseover" end="arrowRight.mouseout"/>
                  </use>
                  <path fill="none" stroke="white" stroke-width="1.5" d="M0,-3.0v7 M-2.5,-0.5L0,-3.0L2.5,-0.5"/>
                </g>
                <g id="arrowDown" xlink:href="#dirArrow" transform="rotate(180) translate(-30 -48)" onmousedown="handlePan(0,1)">
                  <use xlink:href="#rim" fill="#404040">
                        <set attributeName="fill" to="#808080" begin="arrowDown.mouseover" end="arrowDown.mouseout"/>
                  </use>
                  <path fill="none" stroke="white" stroke-width="1.5" d="M0,-3.0v7 M-2.5,-0.5L0,-3.0L2.5,-0.5"/>
                </g>
                <g id="arrowLeft" xlink:href="#dirArrow" transform="rotate(270) translate(-36 17)" onmousedown="handlePan(-1,0)">
                  <use xlink:href="#rim" fill="#404040">
                        <set attributeName="fill" to="#808080" begin="arrowLeft.mouseover" end="arrowLeft.mouseout"/>
                  </use>
                  <path fill="none" stroke="white" stroke-width="1.5" d="M0,-3.0v7 M-2.5,-0.5L0,-3.0L2.5,-0.5"/>
                </g>
        </g>
        <svg viewBox="0 0 15 15" width="100%" height="30px" preserveAspectRatio="xMaxYMin meet">
         <g id="arrow_out" transform="scale(0.3 0.3)">
          <a xlink:href="class_urho3_d_1_1_texture2_d_ac23d2cf909c7fd12140d57dff1decb57_cgraph_org.svg" target="_base">
           <rect id="button" ry="5" rx="5" y="6" x="6" height="38" width="38"
                fill="#f2f5e9" fill-opacity="0.5" stroke="#606060" stroke-width="1.0"/>
           <path id="arrow"
             d="M 11.500037,31.436501 C 11.940474,20.09759 22.043105,11.32322 32.158766,21.979434 L 37.068811,17.246167 C 37.068811,17.246167 37.088388,32 37.088388,32 L 22.160133,31.978069 C 22.160133,31.978069 26.997745,27.140456 26.997745,27.140456 C 18.528582,18.264221 13.291696,25.230495 11.500037,31.436501 z"
             style="fill:#404040;"/>
          </a>
         </g>
        </svg>
</svg>
