<?xml version="1.0" encoding="UTF-8" standalone="no"?>
<!DOCTYPE svg PUBLIC "-//W3C//DTD SVG 1.1//EN"
 "http://www.w3.org/Graphics/SVG/1.1/DTD/svg11.dtd">
<!-- Generated by graphviz version 2.36.0 (20140111.2315)
 -->
<!-- Title: Urho3D::RibbonTrail Pages: 1 -->
<svg width="1126pt" height="827pt"
 viewBox="0.00 0.00 1126.00 826.69" xmlns="http://www.w3.org/2000/svg" xmlns:xlink="http://www.w3.org/1999/xlink">
<g id="graph0" class="graph" transform="scale(1 1) rotate(0) translate(4 822.694)">
<title>Urho3D::RibbonTrail</title>
<!-- Node1 -->
<g id="node1" class="node"><title>Node1</title>
<polygon fill="#bfbfbf" stroke="black" points="1012,-241.194 1012,-260.194 1118,-260.194 1118,-241.194 1012,-241.194"/>
<text text-anchor="middle" x="1065" y="-248.194" font-family="Helvetica,sans-Serif" font-size="10.00">Urho3D::RibbonTrail</text>
</g>
<!-- Node2 -->
<g id="node2" class="node"><title>Node2</title>
<g id="a_node2"><a xlink:href="class_urho3_d_1_1_drawable.html" target="_top" xlink:title="Base class for visible components. ">
<polygon fill="none" stroke="black" points="779,-610.194 779,-629.194 877,-629.194 877,-610.194 779,-610.194"/>
<text text-anchor="middle" x="828" y="-617.194" font-family="Helvetica,sans-Serif" font-size="10.00">Urho3D::Drawable</text>
</a>
</g>
</g>
<!-- Node2&#45;&gt;Node1 -->
<g id="edge1" class="edge"><title>Node2&#45;&gt;Node1</title>
<path fill="none" stroke="midnightblue" d="M885.636,-605.103C887.206,-603.758 888.669,-602.292 890,-600.694 932.692,-549.442 872.51,-508.173 908,-451.694 932.139,-413.279 963.932,-430.671 994,-396.694 1032.38,-353.33 1054.32,-285.217 1061.42,-260.264"/>
<polygon fill="midnightblue" stroke="midnightblue" points="883.395,-602.391 877.033,-610.863 887.289,-608.208 883.395,-602.391"/>
</g>
<!-- Node8 -->
<g id="node8" class="node"><title>Node8</title>
<g id="a_node8"><a xlink:href="class_urho3_d_1_1_zone.html" target="_top" xlink:title="Component that describes global rendering properties. ">
<polygon fill="none" stroke="red" points="1026,-644.194 1026,-663.194 1104,-663.194 1104,-644.194 1026,-644.194"/>
<text text-anchor="middle" x="1065" y="-651.194" font-family="Helvetica,sans-Serif" font-size="10.00">Urho3D::Zone</text>
</a>
</g>
</g>
<!-- Node2&#45;&gt;Node8 -->
<g id="edge12" class="edge"><title>Node2&#45;&gt;Node8</title>
<path fill="none" stroke="midnightblue" d="M887.311,-622.509C919.04,-624.663 958.875,-628.381 994,-634.694 1007.01,-637.034 1021.13,-640.65 1033.25,-644.103"/>
<polygon fill="midnightblue" stroke="midnightblue" points="887.515,-619.015 877.31,-621.863 887.064,-626 887.515,-619.015"/>
</g>
<!-- Node15 -->
<g id="node15" class="node"><title>Node15</title>
<g id="a_node15"><a xlink:href="class_urho3_d_1_1_light.html" target="_top" xlink:title="Light component. ">
<polygon fill="none" stroke="red" points="1026.5,-476.194 1026.5,-495.194 1103.5,-495.194 1103.5,-476.194 1026.5,-476.194"/>
<text text-anchor="middle" x="1065" y="-483.194" font-family="Helvetica,sans-Serif" font-size="10.00">Urho3D::Light</text>
</a>
</g>
</g>
<!-- Node2&#45;&gt;Node15 -->
<g id="edge25" class="edge"><title>Node2&#45;&gt;Node15</title>
<path fill="none" stroke="midnightblue" d="M885.379,-604.701C887.012,-603.469 888.56,-602.136 890,-600.694 909.075,-581.599 889.047,-561.911 908,-542.694 936.226,-514.075 956.292,-528.62 994,-514.694 1010.29,-508.679 1028.39,-501.157 1042.1,-495.281"/>
<polygon fill="midnightblue" stroke="midnightblue" points="883.323,-601.856 876.617,-610.058 886.974,-607.828 883.323,-601.856"/>
</g>
<!-- Node3 -->
<g id="node3" class="node"><title>Node3</title>
<g id="a_node3"><a xlink:href="class_urho3_d_1_1_component.html" target="_top" xlink:title="Base class for components. Components can be created to scene nodes. ">
<polygon fill="none" stroke="black" points="484.5,-752.194 484.5,-771.194 591.5,-771.194 591.5,-752.194 484.5,-752.194"/>
<text text-anchor="middle" x="538" y="-759.194" font-family="Helvetica,sans-Serif" font-size="10.00">Urho3D::Component</text>
</a>
</g>
</g>
<!-- Node3&#45;&gt;Node2 -->
<g id="edge2" class="edge"><title>Node3&#45;&gt;Node2</title>
<path fill="none" stroke="midnightblue" d="M557.488,-745.42C573.113,-732.507 596.625,-714.973 620,-704.694 673.308,-681.253 694.832,-700.45 748,-676.694 775.177,-664.552 802.325,-642.164 816.639,-629.357"/>
<polygon fill="midnightblue" stroke="midnightblue" points="555.038,-742.909 549.67,-752.043 559.563,-748.25 555.038,-742.909"/>
</g>
<!-- Node4 -->
<g id="node4" class="node"><title>Node4</title>
<g id="a_node4"><a xlink:href="class_urho3_d_1_1_animatable.html" target="_top" xlink:title="Base class for animatable object, an animatable object can be set animation on it&#39;s attributes...">
<polygon fill="none" stroke="red" points="1.5,-725.194 1.5,-744.194 106.5,-744.194 106.5,-725.194 1.5,-725.194"/>
<text text-anchor="middle" x="54" y="-732.194" font-family="Helvetica,sans-Serif" font-size="10.00">Urho3D::Animatable</text>
</a>
</g>
</g>
<!-- Node4&#45;&gt;Node3 -->
<g id="edge3" class="edge"><title>Node4&#45;&gt;Node3</title>
<path fill="none" stroke="midnightblue" d="M116.965,-739.639C178.178,-744.37 274.492,-751.402 358,-755.694 400.387,-757.873 448.463,-759.434 484.11,-760.417"/>
<polygon fill="midnightblue" stroke="midnightblue" points="116.944,-736.127 106.703,-738.842 116.402,-743.106 116.944,-736.127"/>
</g>
<!-- Node5 -->
<g id="node5" class="node"><title>Node5</title>
<g id="a_node5"><a xlink:href="class_urho3_d_1_1_node.html" target="_top" xlink:title="Scene node that may contain components and child nodes. ">
<polygon fill="none" stroke="red" points="240,-672.194 240,-691.194 320,-691.194 320,-672.194 240,-672.194"/>
<text text-anchor="middle" x="280" y="-679.194" font-family="Helvetica,sans-Serif" font-size="10.00">Urho3D::Node</text>
</a>
</g>
</g>
<!-- Node4&#45;&gt;Node5 -->
<g id="edge5" class="edge"><title>Node4&#45;&gt;Node5</title>
<path fill="none" stroke="midnightblue" d="M105.282,-722.797C145.946,-713.176 202.392,-699.82 239.769,-690.977"/>
<polygon fill="midnightblue" stroke="midnightblue" points="104.231,-719.449 95.3054,-725.158 105.843,-726.261 104.231,-719.449"/>
</g>
<!-- Node5&#45;&gt;Node3 -->
<g id="edge4" class="edge"><title>Node5&#45;&gt;Node3</title>
<path fill="none" stroke="#9a32cd" stroke-dasharray="5,2" d="M305.359,-696.428C320.149,-704.84 339.656,-715.009 358,-721.694 370.453,-726.233 442.426,-741.788 491.229,-752.11"/>
<polygon fill="#9a32cd" stroke="#9a32cd" points="306.786,-693.209 296.381,-691.209 303.267,-699.261 306.786,-693.209"/>
<text text-anchor="middle" x="407" y="-746.694" font-family="Helvetica,sans-Serif" font-size="10.00"> node_</text>
</g>
<!-- Node5&#45;&gt;Node5 -->
<g id="edge8" class="edge"><title>Node5&#45;&gt;Node5</title>
<path fill="none" stroke="#9a32cd" stroke-dasharray="5,2" d="M258.52,-701.094C259.954,-706.009 267.114,-709.694 280,-709.694 300.617,-709.694 306.577,-700.26 297.879,-691.451"/>
<polygon fill="#9a32cd" stroke="#9a32cd" points="261.901,-702.044 262.121,-691.451 255.343,-699.595 261.901,-702.044"/>
<text text-anchor="middle" x="280" y="-712.694" font-family="Helvetica,sans-Serif" font-size="10.00"> parent_</text>
</g>
<!-- Node6 -->
<g id="node6" class="node"><title>Node6</title>
<g id="a_node6"><a xlink:href="class_urho3_d_1_1_vector3.html" target="_top" xlink:title="Three&#45;dimensional vector. ">
<polygon fill="none" stroke="black" points="9,-227.194 9,-246.194 99,-246.194 99,-227.194 9,-227.194"/>
<text text-anchor="middle" x="54" y="-234.194" font-family="Helvetica,sans-Serif" font-size="10.00">Urho3D::Vector3</text>
</a>
</g>
</g>
<!-- Node6&#45;&gt;Node1 -->
<g id="edge38" class="edge"><title>Node6&#45;&gt;Node1</title>
<path fill="none" stroke="#9a32cd" stroke-dasharray="5,2" d="M69.994,-219.333C83.2703,-205.106 103.924,-185.601 126,-174.694 188.204,-143.963 209.618,-143.694 279,-143.694 279,-143.694 279,-143.694 829,-143.694 904.783,-143.694 927.414,-150.509 994,-186.694 1020.04,-200.847 1044.07,-226.738 1056.04,-240.864"/>
<polygon fill="#9a32cd" stroke="#9a32cd" points="67.1792,-217.228 63.0746,-226.995 72.3744,-221.92 67.1792,-217.228"/>
<text text-anchor="middle" x="538" y="-157.694" font-family="Helvetica,sans-Serif" font-size="10.00"> previousOffset_</text>
<text text-anchor="middle" x="538" y="-146.694" font-family="Helvetica,sans-Serif" font-size="10.00">previousPosition_</text>
</g>
<!-- Node6&#45;&gt;Node5 -->
<g id="edge6" class="edge"><title>Node6&#45;&gt;Node5</title>
<path fill="none" stroke="#9a32cd" stroke-dasharray="5,2" d="M58.9159,-256.476C67.3258,-296.388 89.3778,-388.714 126,-458.694 151.72,-507.841 177.253,-508.05 202,-557.694 215.373,-584.522 204.904,-596.797 220,-622.694 231.818,-642.968 252.306,-661.21 265.758,-671.872"/>
<polygon fill="#9a32cd" stroke="#9a32cd" points="62.3007,-255.558 56.864,-246.465 55.4433,-256.964 62.3007,-255.558"/>
<text text-anchor="middle" x="164" y="-571.694" font-family="Helvetica,sans-Serif" font-size="10.00"> scale_</text>
<text text-anchor="middle" x="164" y="-560.694" font-family="Helvetica,sans-Serif" font-size="10.00">position_</text>
</g>
<!-- Node6&#45;&gt;Node6 -->
<g id="edge7" class="edge"><title>Node6&#45;&gt;Node6</title>
<path fill="none" stroke="#9a32cd" stroke-dasharray="5,2" d="M33.6306,-256.094C34.991,-261.009 41.7808,-264.694 54,-264.694 73.5508,-264.694 79.2022,-255.26 70.9542,-246.451"/>
<polygon fill="#9a32cd" stroke="#9a32cd" points="37.0065,-257.046 37.0458,-246.451 30.4081,-254.709 37.0065,-257.046"/>
<text text-anchor="middle" x="54" y="-344.694" font-family="Helvetica,sans-Serif" font-size="10.00"> ONE</text>
<text text-anchor="middle" x="54" y="-333.694" font-family="Helvetica,sans-Serif" font-size="10.00">DOWN</text>
<text text-anchor="middle" x="54" y="-322.694" font-family="Helvetica,sans-Serif" font-size="10.00">BACK</text>
<text text-anchor="middle" x="54" y="-311.694" font-family="Helvetica,sans-Serif" font-size="10.00">RIGHT</text>
<text text-anchor="middle" x="54" y="-300.694" font-family="Helvetica,sans-Serif" font-size="10.00">LEFT</text>
<text text-anchor="middle" x="54" y="-289.694" font-family="Helvetica,sans-Serif" font-size="10.00">ZERO</text>
<text text-anchor="middle" x="54" y="-278.694" font-family="Helvetica,sans-Serif" font-size="10.00">FORWARD</text>
<text text-anchor="middle" x="54" y="-267.694" font-family="Helvetica,sans-Serif" font-size="10.00">UP</text>
</g>
<!-- Node9 -->
<g id="node9" class="node"><title>Node9</title>
<g id="a_node9"><a xlink:href="class_urho3_d_1_1_bounding_box.html" target="_top" xlink:title="Three&#45;dimensional axis&#45;aligned bounding box. ">
<polygon fill="none" stroke="black" points="223,-594.194 223,-613.194 337,-613.194 337,-594.194 223,-594.194"/>
<text text-anchor="middle" x="280" y="-601.194" font-family="Helvetica,sans-Serif" font-size="10.00">Urho3D::BoundingBox</text>
</a>
</g>
</g>
<!-- Node6&#45;&gt;Node9 -->
<g id="edge14" class="edge"><title>Node6&#45;&gt;Node9</title>
<path fill="none" stroke="#9a32cd" stroke-dasharray="5,2" d="M72.0353,-253.789C103.337,-286.302 169.745,-360.62 202,-436.694 220.653,-480.689 198.424,-500.057 220,-542.694 230.91,-564.254 252.055,-583.225 265.844,-594.075"/>
<polygon fill="#9a32cd" stroke="#9a32cd" points="74.3635,-251.163 64.8757,-246.448 69.3523,-256.051 74.3635,-251.163"/>
<text text-anchor="middle" x="164" y="-450.694" font-family="Helvetica,sans-Serif" font-size="10.00"> max_</text>
<text text-anchor="middle" x="164" y="-439.694" font-family="Helvetica,sans-Serif" font-size="10.00">min_</text>
</g>
<!-- Node16 -->
<g id="node16" class="node"><title>Node16</title>
<g id="a_node16"><a xlink:href="class_urho3_d_1_1_octant.html" target="_top" xlink:title="Octree octant ">
<polygon fill="none" stroke="red" points="495,-430.194 495,-449.194 581,-449.194 581,-430.194 495,-430.194"/>
<text text-anchor="middle" x="538" y="-437.194" font-family="Helvetica,sans-Serif" font-size="10.00">Urho3D::Octant</text>
</a>
</g>
</g>
<!-- Node6&#45;&gt;Node16 -->
<g id="edge30" class="edge"><title>Node6&#45;&gt;Node16</title>
<path fill="none" stroke="#9a32cd" stroke-dasharray="5,2" d="M86.8315,-250.101C177.53,-288.299 435.788,-397.068 514.168,-430.078"/>
<polygon fill="#9a32cd" stroke="#9a32cd" points="88.1759,-246.869 77.6014,-246.213 85.4589,-253.32 88.1759,-246.869"/>
<text text-anchor="middle" x="280" y="-369.694" font-family="Helvetica,sans-Serif" font-size="10.00"> center_</text>
<text text-anchor="middle" x="280" y="-358.694" font-family="Helvetica,sans-Serif" font-size="10.00">halfSize_</text>
</g>
<!-- Node18 -->
<g id="node18" class="node"><title>Node18</title>
<g id="a_node18"><a xlink:href="struct_urho3_d_1_1_trail_point.html" target="_top" xlink:title="Trail is consisting of series of tails. Two connected points make a tail. ">
<polygon fill="none" stroke="black" points="358,-202.194 358,-221.194 456,-221.194 456,-202.194 358,-202.194"/>
<text text-anchor="middle" x="407" y="-209.194" font-family="Helvetica,sans-Serif" font-size="10.00">Urho3D::TrailPoint</text>
</a>
</g>
</g>
<!-- Node6&#45;&gt;Node18 -->
<g id="edge37" class="edge"><title>Node6&#45;&gt;Node18</title>
<path fill="none" stroke="#9a32cd" stroke-dasharray="5,2" d="M73.4741,-220.034C86.9579,-209.051 106.26,-195.636 126,-189.694 213.547,-163.343 323.055,-187.394 375.391,-202.152"/>
<polygon fill="#9a32cd" stroke="#9a32cd" points="70.8655,-217.658 65.5074,-226.798 75.3958,-222.994 70.8655,-217.658"/>
<text text-anchor="middle" x="164" y="-214.694" font-family="Helvetica,sans-Serif" font-size="10.00"> position_</text>
<text text-anchor="middle" x="164" y="-203.694" font-family="Helvetica,sans-Serif" font-size="10.00">forward_</text>
<text text-anchor="middle" x="164" y="-192.694" font-family="Helvetica,sans-Serif" font-size="10.00">parentPos_</text>
</g>
<!-- Node7 -->
<g id="node7" class="node"><title>Node7</title>
<g id="a_node7"><a xlink:href="class_urho3_d_1_1_matrix3x4.html" target="_top" xlink:title="3x4 matrix for scene node transform calculations. ">
<polygon fill="none" stroke="black" points="4.5,-526.194 4.5,-545.194 103.5,-545.194 103.5,-526.194 4.5,-526.194"/>
<text text-anchor="middle" x="54" y="-533.194" font-family="Helvetica,sans-Serif" font-size="10.00">Urho3D::Matrix3x4</text>
</a>
</g>
</g>
<!-- Node7&#45;&gt;Node1 -->
<g id="edge49" class="edge"><title>Node7&#45;&gt;Node1</title>
<path fill="none" stroke="#9a32cd" stroke-dasharray="5,2" d="M57.6274,-516.062C63.4934,-479.44 80.8778,-400.136 126,-352.694 157.536,-319.538 175.793,-322.507 220,-310.694 343.526,-277.688 892.108,-262.174 994,-255.694 999.715,-255.331 1005.69,-254.932 1011.64,-254.524"/>
<polygon fill="#9a32cd" stroke="#9a32cd" points="54.1622,-515.569 56.1587,-525.974 61.0866,-516.595 54.1622,-515.569"/>
<text text-anchor="middle" x="538" y="-284.694" font-family="Helvetica,sans-Serif" font-size="10.00"> transforms_</text>
</g>
<!-- Node7&#45;&gt;Node5 -->
<g id="edge9" class="edge"><title>Node7&#45;&gt;Node5</title>
<path fill="none" stroke="#9a32cd" stroke-dasharray="5,2" d="M78.1242,-550.766C124.165,-580.775 226.137,-647.239 264.249,-672.08"/>
<polygon fill="#9a32cd" stroke="#9a32cd" points="79.986,-547.802 69.6973,-545.274 76.1637,-553.666 79.986,-547.802"/>
<text text-anchor="middle" x="164" y="-633.694" font-family="Helvetica,sans-Serif" font-size="10.00"> worldTransform_</text>
</g>
<!-- Node7&#45;&gt;Node7 -->
<g id="edge10" class="edge"><title>Node7&#45;&gt;Node7</title>
<path fill="none" stroke="#9a32cd" stroke-dasharray="5,2" d="M33.6306,-555.094C34.991,-560.009 41.7808,-563.694 54,-563.694 73.5508,-563.694 79.2022,-554.26 70.9542,-545.451"/>
<polygon fill="#9a32cd" stroke="#9a32cd" points="37.0065,-556.046 37.0458,-545.451 30.4081,-553.709 37.0065,-556.046"/>
<text text-anchor="middle" x="54" y="-577.694" font-family="Helvetica,sans-Serif" font-size="10.00"> IDENTITY</text>
<text text-anchor="middle" x="54" y="-566.694" font-family="Helvetica,sans-Serif" font-size="10.00">ZERO</text>
</g>
<!-- Node7&#45;&gt;Node8 -->
<g id="edge17" class="edge"><title>Node7&#45;&gt;Node8</title>
<path fill="none" stroke="#9a32cd" stroke-dasharray="5,2" d="M64.9897,-554.357C77.6208,-577.117 100.782,-616.197 126,-645.694 219.426,-754.974 262.228,-807.694 406,-807.694 406,-807.694 406,-807.694 829,-807.694 934.849,-807.694 1030.1,-697.042 1056.67,-663.328"/>
<polygon fill="#9a32cd" stroke="#9a32cd" points="67.9672,-552.507 60.1015,-545.409 61.8241,-555.863 67.9672,-552.507"/>
<text text-anchor="middle" x="538" y="-810.694" font-family="Helvetica,sans-Serif" font-size="10.00"> inverseWorld_</text>
</g>
<!-- Node7&#45;&gt;Node15 -->
<g id="edge27" class="edge"><title>Node7&#45;&gt;Node15</title>
<path fill="none" stroke="#9a32cd" stroke-dasharray="5,2" d="M64.1268,-517.145C85.1019,-476.907 141.075,-382.284 220,-345.694 326.455,-296.342 651.556,-273.859 748,-340.694 766.727,-353.672 749.187,-373.318 766,-388.694 768.424,-390.912 990.926,-450.534 994,-451.694 1012.45,-458.659 1032.63,-468.738 1046.56,-476.114"/>
<polygon fill="#9a32cd" stroke="#9a32cd" points="60.9683,-515.635 59.5556,-526.135 67.208,-518.807 60.9683,-515.635"/>
<text text-anchor="middle" x="538" y="-305.694" font-family="Helvetica,sans-Serif" font-size="10.00"> volumeTransform_</text>
</g>
<!-- Node8&#45;&gt;Node2 -->
<g id="edge11" class="edge"><title>Node8&#45;&gt;Node2</title>
<path fill="none" stroke="#9a32cd" stroke-dasharray="5,2" d="M1015.79,-647.03C984.95,-642.734 944.106,-636.982 908,-631.694 897.98,-630.227 887.251,-628.62 877.031,-627.074"/>
<polygon fill="#9a32cd" stroke="#9a32cd" points="1015.45,-650.517 1025.84,-648.428 1016.42,-643.584 1015.45,-650.517"/>
<text text-anchor="middle" x="951" y="-647.694" font-family="Helvetica,sans-Serif" font-size="10.00"> zone_</text>
</g>
<!-- Node9&#45;&gt;Node2 -->
<g id="edge28" class="edge"><title>Node9&#45;&gt;Node2</title>
<path fill="none" stroke="#9a32cd" stroke-dasharray="5,2" d="M312.627,-617.046C326.352,-622.354 342.748,-628.052 358,-631.694 526.606,-671.963 576.271,-660.328 748,-636.694 761.203,-634.877 775.486,-632.068 788.23,-629.253"/>
<polygon fill="#9a32cd" stroke="#9a32cd" points="313.745,-613.724 303.159,-613.286 311.161,-620.23 313.745,-613.724"/>
<text text-anchor="middle" x="538" y="-671.694" font-family="Helvetica,sans-Serif" font-size="10.00"> worldBoundingBox_</text>
<text text-anchor="middle" x="538" y="-660.694" font-family="Helvetica,sans-Serif" font-size="10.00">boundingBox_</text>
</g>
<!-- Node9&#45;&gt;Node8 -->
<g id="edge13" class="edge"><title>Node9&#45;&gt;Node8</title>
<path fill="none" stroke="#9a32cd" stroke-dasharray="5,2" d="M300.183,-619.515C315.106,-631.085 336.779,-646.334 358,-655.694 406.526,-677.098 421.335,-677.428 474,-683.694 681.254,-708.354 931.828,-674.851 1025.89,-660.073"/>
<polygon fill="#9a32cd" stroke="#9a32cd" points="302.239,-616.678 292.231,-613.2 297.885,-622.159 302.239,-616.678"/>
<text text-anchor="middle" x="684" y="-694.694" font-family="Helvetica,sans-Serif" font-size="10.00"> lastWorldBoundingBox_</text>
</g>
<!-- Node9&#45;&gt;Node16 -->
<g id="edge31" class="edge"><title>Node9&#45;&gt;Node16</title>
<path fill="none" stroke="#9a32cd" stroke-dasharray="5,2" d="M304.396,-588.706C356.195,-555.522 479.354,-476.624 522.089,-449.247"/>
<polygon fill="#9a32cd" stroke="#9a32cd" points="302.402,-585.827 295.87,-594.168 306.179,-591.721 302.402,-585.827"/>
<text text-anchor="middle" x="407" y="-564.694" font-family="Helvetica,sans-Serif" font-size="10.00"> cullingBox_</text>
<text text-anchor="middle" x="407" y="-553.694" font-family="Helvetica,sans-Serif" font-size="10.00">worldBoundingBox_</text>
</g>
<!-- Node10 -->
<g id="node10" class="node"><title>Node10</title>
<g id="a_node10"><a xlink:href="class_urho3_d_1_1_color.html" target="_top" xlink:title="RGBA color. ">
<polygon fill="none" stroke="black" points="788,-433.194 788,-452.194 868,-452.194 868,-433.194 788,-433.194"/>
<text text-anchor="middle" x="828" y="-440.194" font-family="Helvetica,sans-Serif" font-size="10.00">Urho3D::Color</text>
</a>
</g>
</g>
<!-- Node10&#45;&gt;Node1 -->
<g id="edge48" class="edge"><title>Node10&#45;&gt;Node1</title>
<path fill="none" stroke="#9a32cd" stroke-dasharray="5,2" d="M844.61,-425.406C859.474,-409.957 883.201,-387.795 908,-374.694 942.984,-356.213 961.639,-374.458 994,-351.694 1028.38,-327.513 1051.3,-280.738 1060.04,-260.462"/>
<polygon fill="#9a32cd" stroke="#9a32cd" points="841.974,-423.101 837.687,-432.79 847.08,-427.889 841.974,-423.101"/>
<text text-anchor="middle" x="951" y="-388.694" font-family="Helvetica,sans-Serif" font-size="10.00"> endColor_</text>
<text text-anchor="middle" x="951" y="-377.694" font-family="Helvetica,sans-Serif" font-size="10.00">startColor_</text>
</g>
<!-- Node10&#45;&gt;Node8 -->
<g id="edge15" class="edge"><title>Node10&#45;&gt;Node8</title>
<path fill="none" stroke="#9a32cd" stroke-dasharray="5,2" d="M845.224,-459.932C860.675,-475.944 884.933,-500.052 908,-518.694 943.857,-547.672 959.133,-546.533 994,-576.694 1019.14,-598.442 1044.3,-628.706 1056.47,-644.009"/>
<polygon fill="#9a32cd" stroke="#9a32cd" points="847.438,-457.183 838,-452.369 842.376,-462.018 847.438,-457.183"/>
<text text-anchor="middle" x="951" y="-612.694" font-family="Helvetica,sans-Serif" font-size="10.00"> ambientEndColor_</text>
<text text-anchor="middle" x="951" y="-601.694" font-family="Helvetica,sans-Serif" font-size="10.00">fogColor_</text>
<text text-anchor="middle" x="951" y="-590.694" font-family="Helvetica,sans-Serif" font-size="10.00">ambientColor_</text>
<text text-anchor="middle" x="951" y="-579.694" font-family="Helvetica,sans-Serif" font-size="10.00">ambientStartColor_</text>
</g>
<!-- Node10&#45;&gt;Node10 -->
<g id="edge16" class="edge"><title>Node10&#45;&gt;Node10</title>
<path fill="none" stroke="#9a32cd" stroke-dasharray="5,2" d="M805.307,-461.723C806.544,-466.822 814.109,-470.694 828,-470.694 849.684,-470.694 855.952,-461.26 846.804,-452.451"/>
<polygon fill="#9a32cd" stroke="#9a32cd" points="808.555,-463.027 809.196,-452.451 802.1,-460.319 808.555,-463.027"/>
<text text-anchor="middle" x="828" y="-583.694" font-family="Helvetica,sans-Serif" font-size="10.00"> CYAN</text>
<text text-anchor="middle" x="828" y="-572.694" font-family="Helvetica,sans-Serif" font-size="10.00">GRAY</text>
<text text-anchor="middle" x="828" y="-561.694" font-family="Helvetica,sans-Serif" font-size="10.00">YELLOW</text>
<text text-anchor="middle" x="828" y="-550.694" font-family="Helvetica,sans-Serif" font-size="10.00">MAGENTA</text>
<text text-anchor="middle" x="828" y="-539.694" font-family="Helvetica,sans-Serif" font-size="10.00">WHITE</text>
<text text-anchor="middle" x="828" y="-528.694" font-family="Helvetica,sans-Serif" font-size="10.00">TRANSPARENT</text>
<text text-anchor="middle" x="828" y="-517.694" font-family="Helvetica,sans-Serif" font-size="10.00">BLUE</text>
<text text-anchor="middle" x="828" y="-506.694" font-family="Helvetica,sans-Serif" font-size="10.00">BLACK</text>
<text text-anchor="middle" x="828" y="-495.694" font-family="Helvetica,sans-Serif" font-size="10.00">RED</text>
<text text-anchor="middle" x="828" y="-484.694" font-family="Helvetica,sans-Serif" font-size="10.00">GREEN</text>
<text text-anchor="middle" x="828" y="-473.694" font-family="Helvetica,sans-Serif" font-size="10.00">...</text>
</g>
<!-- Node10&#45;&gt;Node15 -->
<g id="edge26" class="edge"><title>Node10&#45;&gt;Node15</title>
<path fill="none" stroke="#9a32cd" stroke-dasharray="5,2" d="M878.382,-449.949C911.242,-454.98 955.316,-462.116 994,-469.694 1004.52,-471.755 1015.87,-474.237 1026.31,-476.625"/>
<polygon fill="#9a32cd" stroke="#9a32cd" points="878.541,-446.434 868.129,-448.392 877.49,-453.354 878.541,-446.434"/>
<text text-anchor="middle" x="951" y="-472.694" font-family="Helvetica,sans-Serif" font-size="10.00"> color_</text>
</g>
<!-- Node11 -->
<g id="node11" class="node"><title>Node11</title>
<g id="a_node11"><a xlink:href="class_urho3_d_1_1_p_o_d_vector.html" target="_top" xlink:title="Urho3D::PODVector\&lt;\l Urho3D::Light * \&gt;">
<polygon fill="none" stroke="black" points="481.5,-508.694 481.5,-538.694 594.5,-538.694 594.5,-508.694 481.5,-508.694"/>
<text text-anchor="start" x="489.5" y="-526.694" font-family="Helvetica,sans-Serif" font-size="10.00">Urho3D::PODVector&lt;</text>
<text text-anchor="middle" x="538" y="-515.694" font-family="Helvetica,sans-Serif" font-size="10.00"> Urho3D::Light * &gt;</text>
</a>
</g>
</g>
<!-- Node11&#45;&gt;Node2 -->
<g id="edge18" class="edge"><title>Node11&#45;&gt;Node2</title>
<path fill="none" stroke="#9a32cd" stroke-dasharray="5,2" d="M605.031,-520.103C649.697,-521.059 707.675,-529.295 748,-560.694 763.382,-572.671 751.407,-587.767 766,-600.694 770.4,-604.593 775.593,-607.691 781.062,-610.154"/>
<polygon fill="#9a32cd" stroke="#9a32cd" points="604.884,-516.601 594.85,-520.005 604.816,-523.601 604.884,-516.601"/>
<text text-anchor="middle" x="684" y="-574.694" font-family="Helvetica,sans-Serif" font-size="10.00"> vertexLights_</text>
<text text-anchor="middle" x="684" y="-563.694" font-family="Helvetica,sans-Serif" font-size="10.00">lights_</text>
</g>
<!-- Node12 -->
<g id="node12" class="node"><title>Node12</title>
<g id="a_node12"><a xlink:href="class_urho3_d_1_1_vector_base.html" target="_top" xlink:title="Vector base class. ">
<polygon fill="none" stroke="black" points="226.5,-514.194 226.5,-533.194 333.5,-533.194 333.5,-514.194 226.5,-514.194"/>
<text text-anchor="middle" x="280" y="-521.194" font-family="Helvetica,sans-Serif" font-size="10.00">Urho3D::VectorBase</text>
</a>
</g>
</g>
<!-- Node12&#45;&gt;Node11 -->
<g id="edge19" class="edge"><title>Node12&#45;&gt;Node11</title>
<path fill="none" stroke="midnightblue" d="M343.858,-523.694C385.905,-523.694 440.739,-523.694 481.234,-523.694"/>
<polygon fill="midnightblue" stroke="midnightblue" points="343.733,-520.194 333.733,-523.694 343.733,-527.194 343.733,-520.194"/>
</g>
<!-- Node13 -->
<g id="node13" class="node"><title>Node13</title>
<g id="a_node13"><a xlink:href="class_urho3_d_1_1_p_o_d_vector.html" target="_top" xlink:title="Urho3D::PODVector\&lt;\l Urho3D::Camera * \&gt;">
<polygon fill="none" stroke="black" points="481.5,-606.694 481.5,-636.694 594.5,-636.694 594.5,-606.694 481.5,-606.694"/>
<text text-anchor="start" x="489.5" y="-624.694" font-family="Helvetica,sans-Serif" font-size="10.00">Urho3D::PODVector&lt;</text>
<text text-anchor="middle" x="538" y="-613.694" font-family="Helvetica,sans-Serif" font-size="10.00"> Urho3D::Camera * &gt;</text>
</a>
</g>
</g>
<!-- Node12&#45;&gt;Node13 -->
<g id="edge21" class="edge"><title>Node12&#45;&gt;Node13</title>
<path fill="none" stroke="midnightblue" d="M298.058,-540.568C310.055,-552.618 326.341,-569.346 340,-584.694 348.399,-594.132 346.82,-600.812 358,-606.694 395.81,-626.587 444.416,-629.485 481.434,-627.88"/>
<polygon fill="midnightblue" stroke="midnightblue" points="300.414,-537.975 290.864,-533.387 295.469,-542.929 300.414,-537.975"/>
</g>
<!-- Node14 -->
<g id="node14" class="node"><title>Node14</title>
<g id="a_node14"><a xlink:href="class_urho3_d_1_1_vector.html" target="_top" xlink:title="Urho3D::Vector\&lt; Urho3D\l::SourceBatch \&gt;">
<polygon fill="none" stroke="black" points="474,-557.694 474,-587.694 602,-587.694 602,-557.694 474,-557.694"/>
<text text-anchor="start" x="482" y="-575.694" font-family="Helvetica,sans-Serif" font-size="10.00">Urho3D::Vector&lt; Urho3D</text>
<text text-anchor="middle" x="538" y="-564.694" font-family="Helvetica,sans-Serif" font-size="10.00">::SourceBatch &gt;</text>
</a>
</g>
</g>
<!-- Node12&#45;&gt;Node14 -->
<g id="edge23" class="edge"><title>Node12&#45;&gt;Node14</title>
<path fill="none" stroke="midnightblue" d="M340.541,-535.091C380.523,-542.744 433.133,-552.813 473.847,-560.606"/>
<polygon fill="midnightblue" stroke="midnightblue" points="341.143,-531.643 330.663,-533.2 339.827,-538.518 341.143,-531.643"/>
</g>
<!-- Node17 -->
<g id="node17" class="node"><title>Node17</title>
<g id="a_node17"><a xlink:href="class_urho3_d_1_1_p_o_d_vector.html" target="_top" xlink:title="Urho3D::PODVector\&lt;\l Urho3D::TrailPoint \&gt;">
<polygon fill="none" stroke="black" points="627.5,-384.694 627.5,-414.694 740.5,-414.694 740.5,-384.694 627.5,-384.694"/>
<text text-anchor="start" x="635.5" y="-402.694" font-family="Helvetica,sans-Serif" font-size="10.00">Urho3D::PODVector&lt;</text>
<text text-anchor="middle" x="684" y="-391.694" font-family="Helvetica,sans-Serif" font-size="10.00"> Urho3D::TrailPoint &gt;</text>
</a>
</g>
</g>
<!-- Node12&#45;&gt;Node17 -->
<g id="edge34" class="edge"><title>Node12&#45;&gt;Node17</title>
<path fill="none" stroke="midnightblue" d="M303.093,-508.153C337.701,-484.703 407.621,-440.878 474,-420.694 524.416,-405.364 584.506,-400.65 627.286,-399.451"/>
<polygon fill="midnightblue" stroke="midnightblue" points="300.954,-505.376 294.689,-513.919 304.915,-511.147 300.954,-505.376"/>
</g>
<!-- Node21 -->
<g id="node21" class="node"><title>Node21</title>
<g id="a_node21"><a xlink:href="class_urho3_d_1_1_vector.html" target="_top" xlink:title="Urho3D::Vector\&lt; Urho3D\l::TrailPoint * \&gt;">
<polygon fill="none" stroke="black" points="620,-344.694 620,-374.694 748,-374.694 748,-344.694 620,-344.694"/>
<text text-anchor="start" x="628" y="-362.694" font-family="Helvetica,sans-Serif" font-size="10.00">Urho3D::Vector&lt; Urho3D</text>
<text text-anchor="middle" x="684" y="-351.694" font-family="Helvetica,sans-Serif" font-size="10.00">::TrailPoint * &gt;</text>
</a>
</g>
</g>
<!-- Node12&#45;&gt;Node21 -->
<g id="edge42" class="edge"><title>Node12&#45;&gt;Node21</title>
<path fill="none" stroke="midnightblue" d="M290.277,-504.889C302.55,-482.042 326.377,-444.037 358,-423.694 438.042,-372.203 550.424,-360.54 619.878,-358.729"/>
<polygon fill="midnightblue" stroke="midnightblue" points="287.086,-503.439 285.6,-513.929 293.304,-506.656 287.086,-503.439"/>
</g>
<!-- Node13&#45;&gt;Node2 -->
<g id="edge20" class="edge"><title>Node13&#45;&gt;Node2</title>
<path fill="none" stroke="#9a32cd" stroke-dasharray="5,2" d="M604.849,-621.237C657.866,-620.869 731.158,-620.36 778.816,-620.029"/>
<polygon fill="#9a32cd" stroke="#9a32cd" points="604.505,-617.739 594.529,-621.309 604.553,-624.739 604.505,-617.739"/>
<text text-anchor="middle" x="684" y="-624.694" font-family="Helvetica,sans-Serif" font-size="10.00"> viewCameras_</text>
</g>
<!-- Node14&#45;&gt;Node2 -->
<g id="edge22" class="edge"><title>Node14&#45;&gt;Node2</title>
<path fill="none" stroke="#9a32cd" stroke-dasharray="5,2" d="M612.126,-583.896C652.268,-590.132 702.912,-598.14 748,-605.694 758.028,-607.374 768.761,-609.235 778.981,-611.036"/>
<polygon fill="#9a32cd" stroke="#9a32cd" points="612.575,-580.424 602.157,-582.35 611.502,-587.341 612.575,-580.424"/>
<text text-anchor="middle" x="684" y="-608.694" font-family="Helvetica,sans-Serif" font-size="10.00"> batches_</text>
</g>
<!-- Node15&#45;&gt;Node2 -->
<g id="edge24" class="edge"><title>Node15&#45;&gt;Node2</title>
<path fill="none" stroke="#9a32cd" stroke-dasharray="5,2" d="M1016.1,-485.177C976.104,-485.804 923.261,-489.446 908,-503.694 875.95,-533.617 919.115,-567.909 890,-600.694 886.391,-604.758 881.929,-607.963 877.072,-610.488"/>
<polygon fill="#9a32cd" stroke="#9a32cd" points="1016.25,-488.676 1026.21,-485.077 1016.18,-481.676 1016.25,-488.676"/>
<text text-anchor="middle" x="951" y="-506.694" font-family="Helvetica,sans-Serif" font-size="10.00"> firstLight_</text>
</g>
<!-- Node16&#45;&gt;Node2 -->
<g id="edge29" class="edge"><title>Node16&#45;&gt;Node2</title>
<path fill="none" stroke="#9a32cd" stroke-dasharray="5,2" d="M591.242,-441.959C639.143,-446.952 708.457,-462.051 748,-506.694 776.204,-538.536 737.664,-568.969 766,-600.694 769.621,-604.748 774.09,-607.946 778.951,-610.467"/>
<polygon fill="#9a32cd" stroke="#9a32cd" points="591.344,-438.453 581.064,-441.015 590.698,-445.424 591.344,-438.453"/>
<text text-anchor="middle" x="684" y="-509.694" font-family="Helvetica,sans-Serif" font-size="10.00"> octant_</text>
</g>
<!-- Node16&#45;&gt;Node16 -->
<g id="edge32" class="edge"><title>Node16&#45;&gt;Node16</title>
<path fill="none" stroke="#9a32cd" stroke-dasharray="5,2" d="M513.819,-458.723C515.138,-463.822 523.198,-467.694 538,-467.694 561.105,-467.694 567.784,-458.26 558.037,-449.451"/>
<polygon fill="#9a32cd" stroke="#9a32cd" points="517.078,-460.009 517.963,-449.451 510.687,-457.152 517.078,-460.009"/>
<text text-anchor="middle" x="538" y="-481.694" font-family="Helvetica,sans-Serif" font-size="10.00"> parent_</text>
<text text-anchor="middle" x="538" y="-470.694" font-family="Helvetica,sans-Serif" font-size="10.00">children_</text>
</g>
<!-- Node17&#45;&gt;Node1 -->
<g id="edge33" class="edge"><title>Node17&#45;&gt;Node1</title>
<path fill="none" stroke="#9a32cd" stroke-dasharray="5,2" d="M750.78,-388.599C815.519,-375.818 915.766,-350.948 994,-308.694 1018.44,-295.494 1042.36,-273.03 1054.92,-260.279"/>
<polygon fill="#9a32cd" stroke="#9a32cd" points="749.857,-385.212 740.704,-390.547 751.186,-392.085 749.857,-385.212"/>
<text text-anchor="middle" x="828" y="-388.694" font-family="Helvetica,sans-Serif" font-size="10.00"> points_</text>
</g>
<!-- Node18&#45;&gt;Node1 -->
<g id="edge35" class="edge"><title>Node18&#45;&gt;Node1</title>
<path fill="none" stroke="#9a32cd" stroke-dasharray="5,2" d="M466.501,-215.172C593.097,-222.699 890.77,-240.396 1011.62,-247.581"/>
<polygon fill="#9a32cd" stroke="#9a32cd" points="466.427,-211.662 456.237,-214.562 466.012,-218.649 466.427,-211.662"/>
<text text-anchor="middle" x="684" y="-235.694" font-family="Helvetica,sans-Serif" font-size="10.00"> endTail_</text>
</g>
<!-- Node18&#45;&gt;Node18 -->
<g id="edge36" class="edge"><title>Node18&#45;&gt;Node18</title>
<path fill="none" stroke="#9a32cd" stroke-dasharray="5,2" d="M383.563,-230.723C384.841,-235.822 392.654,-239.694 407,-239.694 429.395,-239.694 435.868,-230.26 426.42,-221.451"/>
<polygon fill="#9a32cd" stroke="#9a32cd" points="386.816,-232.019 387.58,-221.451 380.393,-229.236 386.816,-232.019"/>
<text text-anchor="middle" x="407" y="-242.694" font-family="Helvetica,sans-Serif" font-size="10.00"> next_</text>
</g>
<!-- Node19 -->
<g id="node19" class="node"><title>Node19</title>
<g id="a_node19"><a xlink:href="class_urho3_d_1_1_shared_ptr.html" target="_top" xlink:title="Urho3D::SharedPtr\&lt;\l Urho3D::IndexBuffer \&gt;">
<polygon fill="none" stroke="black" points="220.5,-59.6943 220.5,-89.6943 339.5,-89.6943 339.5,-59.6943 220.5,-59.6943"/>
<text text-anchor="start" x="228.5" y="-77.6943" font-family="Helvetica,sans-Serif" font-size="10.00">Urho3D::SharedPtr&lt;</text>
<text text-anchor="middle" x="280" y="-66.6943" font-family="Helvetica,sans-Serif" font-size="10.00"> Urho3D::IndexBuffer &gt;</text>
</a>
</g>
</g>
<!-- Node19&#45;&gt;Node1 -->
<g id="edge39" class="edge"><title>Node19&#45;&gt;Node1</title>
<path fill="none" stroke="#9a32cd" stroke-dasharray="5,2" d="M334.943,-56.602C464.082,-16.9733 795.026,62.3065 994,-90.6943 1044.47,-129.507 1059.24,-212.309 1062.92,-240.812"/>
<polygon fill="#9a32cd" stroke="#9a32cd" points="333.775,-53.2999 325.267,-59.6137 335.855,-59.9836 333.775,-53.2999"/>
<text text-anchor="middle" x="684" y="-6.69431" font-family="Helvetica,sans-Serif" font-size="10.00"> indexBuffer_</text>
</g>
<!-- Node23 -->
<g id="node23" class="node"><title>Node23</title>
<g id="a_node23"><a xlink:href="class_urho3_d_1_1_geometry.html" target="_top" xlink:title="Defines one or more vertex buffers, an index buffer and a draw range. ">
<polygon fill="none" stroke="red" points="488.5,-86.1943 488.5,-105.194 587.5,-105.194 587.5,-86.1943 488.5,-86.1943"/>
<text text-anchor="middle" x="538" y="-93.1943" font-family="Helvetica,sans-Serif" font-size="10.00">Urho3D::Geometry</text>
</a>
</g>
</g>
<!-- Node19&#45;&gt;Node23 -->
<g id="edge45" class="edge"><title>Node19&#45;&gt;Node23</title>
<path fill="none" stroke="#9a32cd" stroke-dasharray="5,2" d="M349.735,-80.3328C393.527,-83.9251 449.195,-88.4916 488.417,-91.709"/>
<polygon fill="#9a32cd" stroke="#9a32cd" points="349.984,-76.8415 339.732,-79.5121 349.412,-83.8181 349.984,-76.8415"/>
<text text-anchor="middle" x="407" y="-92.6943" font-family="Helvetica,sans-Serif" font-size="10.00"> indexBuffer_</text>
</g>
<!-- Node20 -->
<g id="node20" class="node"><title>Node20</title>
<g id="a_node20"><a xlink:href="class_urho3_d_1_1_index_buffer.html" target="_top" xlink:title="Hardware index buffer. ">
<polygon fill="none" stroke="red" points="0.5,-65.1943 0.5,-84.1943 107.5,-84.1943 107.5,-65.1943 0.5,-65.1943"/>
<text text-anchor="middle" x="54" y="-72.1943" font-family="Helvetica,sans-Serif" font-size="10.00">Urho3D::IndexBuffer</text>
</a>
</g>
</g>
<!-- Node20&#45;&gt;Node19 -->
<g id="edge40" class="edge"><title>Node20&#45;&gt;Node19</title>
<path fill="none" stroke="#9a32cd" stroke-dasharray="5,2" d="M117.678,-74.6943C149.758,-74.6943 188.582,-74.6943 220.104,-74.6943"/>
<polygon fill="#9a32cd" stroke="#9a32cd" points="117.518,-71.1944 107.518,-74.6943 117.518,-78.1944 117.518,-71.1944"/>
<text text-anchor="middle" x="164" y="-77.6943" font-family="Helvetica,sans-Serif" font-size="10.00"> ptr_</text>
</g>
<!-- Node21&#45;&gt;Node1 -->
<g id="edge41" class="edge"><title>Node21&#45;&gt;Node1</title>
<path fill="none" stroke="#9a32cd" stroke-dasharray="5,2" d="M731.655,-341.008C742.798,-336.938 754.732,-332.897 766,-329.694 865.438,-301.435 895.866,-316.194 994,-283.694 1012.62,-277.527 1032.77,-267.661 1046.65,-260.321"/>
<polygon fill="#9a32cd" stroke="#9a32cd" points="730.248,-337.798 722.102,-344.572 732.694,-344.356 730.248,-337.798"/>
<text text-anchor="middle" x="828" y="-332.694" font-family="Helvetica,sans-Serif" font-size="10.00"> sortedPoints_</text>
</g>
<!-- Node22 -->
<g id="node22" class="node"><title>Node22</title>
<g id="a_node22"><a xlink:href="class_urho3_d_1_1_shared_ptr.html" target="_top" xlink:title="Urho3D::SharedPtr\&lt;\l Urho3D::Geometry \&gt;">
<polygon fill="none" stroke="black" points="772.5,-84.6943 772.5,-114.694 883.5,-114.694 883.5,-84.6943 772.5,-84.6943"/>
<text text-anchor="start" x="780.5" y="-102.694" font-family="Helvetica,sans-Serif" font-size="10.00">Urho3D::SharedPtr&lt;</text>
<text text-anchor="middle" x="828" y="-91.6943" font-family="Helvetica,sans-Serif" font-size="10.00"> Urho3D::Geometry &gt;</text>
</a>
</g>
</g>
<!-- Node22&#45;&gt;Node1 -->
<g id="edge43" class="edge"><title>Node22&#45;&gt;Node1</title>
<path fill="none" stroke="#9a32cd" stroke-dasharray="5,2" d="M893.925,-93.5618C926.513,-93.6723 965.095,-98.9653 994,-118.694 1038.13,-148.819 1056.57,-215.935 1062.08,-241.003"/>
<polygon fill="#9a32cd" stroke="#9a32cd" points="893.528,-90.0666 883.575,-93.6963 893.619,-97.066 893.528,-90.0666"/>
<text text-anchor="middle" x="951" y="-121.694" font-family="Helvetica,sans-Serif" font-size="10.00"> geometry_</text>
</g>
<!-- Node23&#45;&gt;Node22 -->
<g id="edge44" class="edge"><title>Node23&#45;&gt;Node22</title>
<path fill="none" stroke="#9a32cd" stroke-dasharray="5,2" d="M597.767,-96.5105C648.916,-97.2209 722.48,-98.2426 772.371,-98.9356"/>
<polygon fill="#9a32cd" stroke="#9a32cd" points="597.577,-93.0076 587.53,-96.3683 597.48,-100.007 597.577,-93.0076"/>
<text text-anchor="middle" x="684" y="-101.694" font-family="Helvetica,sans-Serif" font-size="10.00"> ptr_</text>
</g>
<!-- Node24 -->
<g id="node24" class="node"><title>Node24</title>
<g id="a_node24"><a xlink:href="class_urho3_d_1_1_shared_ptr.html" target="_top" xlink:title="Urho3D::SharedPtr\&lt;\l Urho3D::VertexBuffer \&gt;">
<polygon fill="none" stroke="black" points="766.5,-172.694 766.5,-202.694 889.5,-202.694 889.5,-172.694 766.5,-172.694"/>
<text text-anchor="start" x="774.5" y="-190.694" font-family="Helvetica,sans-Serif" font-size="10.00">Urho3D::SharedPtr&lt;</text>
<text text-anchor="middle" x="828" y="-179.694" font-family="Helvetica,sans-Serif" font-size="10.00"> Urho3D::VertexBuffer &gt;</text>
</a>
</g>
</g>
<!-- Node24&#45;&gt;Node1 -->
<g id="edge46" class="edge"><title>Node24&#45;&gt;Node1</title>
<path fill="none" stroke="#9a32cd" stroke-dasharray="5,2" d="M899.929,-188.951C929.667,-191.231 964.189,-196.219 994,-206.694 1016.48,-214.594 1039.24,-230.749 1052.46,-241.132"/>
<polygon fill="#9a32cd" stroke="#9a32cd" points="899.84,-185.437 889.626,-188.253 899.366,-192.421 899.84,-185.437"/>
<text text-anchor="middle" x="951" y="-209.694" font-family="Helvetica,sans-Serif" font-size="10.00"> vertexBuffer_</text>
</g>
<!-- Node25 -->
<g id="node25" class="node"><title>Node25</title>
<g id="a_node25"><a xlink:href="class_urho3_d_1_1_vertex_buffer.html" target="_top" xlink:title="Hardware vertex buffer. ">
<polygon fill="none" stroke="red" points="482.5,-184.194 482.5,-203.194 593.5,-203.194 593.5,-184.194 482.5,-184.194"/>
<text text-anchor="middle" x="538" y="-191.194" font-family="Helvetica,sans-Serif" font-size="10.00">Urho3D::VertexBuffer</text>
</a>
</g>
</g>
<!-- Node25&#45;&gt;Node24 -->
<g id="edge47" class="edge"><title>Node25&#45;&gt;Node24</title>
<path fill="none" stroke="#9a32cd" stroke-dasharray="5,2" d="M603.631,-192.348C652.379,-191.332 718.777,-189.949 766.491,-188.955"/>
<polygon fill="#9a32cd" stroke="#9a32cd" points="603.434,-188.851 593.509,-192.559 603.58,-195.85 603.434,-188.851"/>
<text text-anchor="middle" x="684" y="-195.694" font-family="Helvetica,sans-Serif" font-size="10.00"> ptr_</text>
</g>
</g>
</svg>
