<?xml version="1.0" encoding="UTF-8" standalone="no"?>
<!DOCTYPE svg PUBLIC "-//W3C//DTD SVG 1.1//EN"
 "http://www.w3.org/Graphics/SVG/1.1/DTD/svg11.dtd">
<!-- Generated by graphviz version 2.36.0 (20140111.2315)
 -->
<!-- Title: Urho3D::Resource Pages: 1 -->
<svg width="706pt" height="712pt"
 viewBox="0.00 0.00 706.00 712.00" xmlns="http://www.w3.org/2000/svg" xmlns:xlink="http://www.w3.org/1999/xlink">
<g id="graph0" class="graph" transform="scale(1 1) rotate(0) translate(4 708)">
<title>Urho3D::Resource</title>
<!-- Node1 -->
<g id="node1" class="node"><title>Node1</title>
<polygon fill="#bfbfbf" stroke="black" points="268,-342.5 268,-361.5 366,-361.5 366,-342.5 268,-342.5"/>
<text text-anchor="middle" x="317" y="-349.5" font-family="Helvetica,sans-Serif" font-size="10.00">Urho3D::Resource</text>
</g>
<!-- Node4 -->
<g id="node4" class="node"><title>Node4</title>
<g id="a_node4"><a xlink:href="class_urho3_d_1_1_animation_set2_d.html" target="_top" xlink:title="Spriter animation set, it includes one or more animations, for more information please refer to http:...">
<polygon fill="none" stroke="black" points="418,-684.5 418,-703.5 546,-703.5 546,-684.5 418,-684.5"/>
<text text-anchor="middle" x="482" y="-691.5" font-family="Helvetica,sans-Serif" font-size="10.00">Urho3D::AnimationSet2D</text>
</a>
</g>
</g>
<!-- Node1&#45;&gt;Node4 -->
<g id="edge3" class="edge"><title>Node1&#45;&gt;Node4</title>
<path fill="none" stroke="midnightblue" d="M320.504,-371.99C328.867,-435.591 357.822,-631.627 402,-675 406.53,-679.447 411.908,-682.918 417.697,-685.618"/>
<polygon fill="midnightblue" stroke="midnightblue" points="323.93,-371.194 319.183,-361.722 316.988,-372.087 323.93,-371.194"/>
</g>
<!-- Node5 -->
<g id="node5" class="node"><title>Node5</title>
<g id="a_node5"><a xlink:href="class_urho3_d_1_1_font.html" target="_top" xlink:title="Font resource. ">
<polygon fill="none" stroke="black" points="444,-646.5 444,-665.5 520,-665.5 520,-646.5 444,-646.5"/>
<text text-anchor="middle" x="482" y="-653.5" font-family="Helvetica,sans-Serif" font-size="10.00">Urho3D::Font</text>
</a>
</g>
</g>
<!-- Node1&#45;&gt;Node5 -->
<g id="edge4" class="edge"><title>Node1&#45;&gt;Node5</title>
<path fill="none" stroke="midnightblue" d="M317.548,-371.696C317.496,-423.326 324.839,-563.647 402,-637 413.144,-647.594 429.12,-652.611 443.793,-654.88"/>
<polygon fill="midnightblue" stroke="midnightblue" points="321.049,-371.609 317.659,-361.571 314.049,-371.532 321.049,-371.609"/>
</g>
<!-- Node6 -->
<g id="node6" class="node"><title>Node6</title>
<g id="a_node6"><a xlink:href="class_urho3_d_1_1_image.html" target="_top" xlink:title="Image resource. ">
<polygon fill="none" stroke="black" points="440.5,-608.5 440.5,-627.5 523.5,-627.5 523.5,-608.5 440.5,-608.5"/>
<text text-anchor="middle" x="482" y="-615.5" font-family="Helvetica,sans-Serif" font-size="10.00">Urho3D::Image</text>
</a>
</g>
</g>
<!-- Node1&#45;&gt;Node6 -->
<g id="edge5" class="edge"><title>Node1&#45;&gt;Node6</title>
<path fill="none" stroke="midnightblue" d="M318.584,-371.561C321.082,-418.287 334.143,-537.102 402,-599 412.422,-608.507 426.756,-613.485 440.356,-616.023"/>
<polygon fill="midnightblue" stroke="midnightblue" points="322.079,-371.387 318.156,-361.546 315.086,-371.686 322.079,-371.387"/>
</g>
<!-- Node7 -->
<g id="node7" class="node"><title>Node7</title>
<g id="a_node7"><a xlink:href="class_urho3_d_1_1_j_s_o_n_file.html" target="_top" xlink:title="JSON document resource. ">
<polygon fill="none" stroke="black" points="432.5,-570.5 432.5,-589.5 531.5,-589.5 531.5,-570.5 432.5,-570.5"/>
<text text-anchor="middle" x="482" y="-577.5" font-family="Helvetica,sans-Serif" font-size="10.00">Urho3D::JSONFile</text>
</a>
</g>
</g>
<!-- Node1&#45;&gt;Node7 -->
<g id="edge6" class="edge"><title>Node1&#45;&gt;Node7</title>
<path fill="none" stroke="midnightblue" d="M319.969,-371.618C325.223,-413.182 343.44,-510.428 402,-561 410.541,-568.376 421.459,-572.997 432.434,-575.866"/>
<polygon fill="midnightblue" stroke="midnightblue" points="323.444,-371.206 318.829,-361.669 316.49,-372.003 323.444,-371.206"/>
</g>
<!-- Node8 -->
<g id="node8" class="node"><title>Node8</title>
<g id="a_node8"><a xlink:href="class_urho3_d_1_1_lua_file.html" target="_top" xlink:title="Lua file. ">
<polygon fill="none" stroke="black" points="438,-532.5 438,-551.5 526,-551.5 526,-532.5 438,-532.5"/>
<text text-anchor="middle" x="482" y="-539.5" font-family="Helvetica,sans-Serif" font-size="10.00">Urho3D::LuaFile</text>
</a>
</g>
</g>
<!-- Node1&#45;&gt;Node8 -->
<g id="edge7" class="edge"><title>Node1&#45;&gt;Node8</title>
<path fill="none" stroke="midnightblue" d="M321.92,-371.671C330.127,-407.526 352.606,-483.455 402,-523 412.131,-531.111 425.183,-535.846 437.749,-538.584"/>
<polygon fill="midnightblue" stroke="midnightblue" points="325.264,-370.575 319.74,-361.534 318.42,-372.047 325.264,-370.575"/>
</g>
<!-- Node9 -->
<g id="node9" class="node"><title>Node9</title>
<g id="a_node9"><a xlink:href="class_urho3_d_1_1_material.html" target="_top" xlink:title="Describes how to render 3D geometries. ">
<polygon fill="none" stroke="black" points="436.5,-494.5 436.5,-513.5 527.5,-513.5 527.5,-494.5 436.5,-494.5"/>
<text text-anchor="middle" x="482" y="-501.5" font-family="Helvetica,sans-Serif" font-size="10.00">Urho3D::Material</text>
</a>
</g>
</g>
<!-- Node1&#45;&gt;Node9 -->
<g id="edge8" class="edge"><title>Node1&#45;&gt;Node9</title>
<path fill="none" stroke="midnightblue" d="M324.764,-371.378C336.025,-400.691 361.469,-455.957 402,-485 411.976,-492.148 424.295,-496.632 436.213,-499.437"/>
<polygon fill="midnightblue" stroke="midnightblue" points="327.995,-370.024 321.255,-361.85 321.426,-372.443 327.995,-370.024"/>
</g>
<!-- Node10 -->
<g id="node10" class="node"><title>Node10</title>
<g id="a_node10"><a xlink:href="class_urho3_d_1_1_object_animation.html" target="_top" xlink:title="Object animation class, an object animation include one or more attribute animations and theirs wrap ...">
<polygon fill="none" stroke="black" points="418,-456.5 418,-475.5 546,-475.5 546,-456.5 418,-456.5"/>
<text text-anchor="middle" x="482" y="-463.5" font-family="Helvetica,sans-Serif" font-size="10.00">Urho3D::ObjectAnimation</text>
</a>
</g>
</g>
<!-- Node1&#45;&gt;Node10 -->
<g id="edge9" class="edge"><title>Node1&#45;&gt;Node10</title>
<path fill="none" stroke="midnightblue" d="M329.028,-370.149C343.179,-391.841 369.787,-427.629 402,-447 408.407,-450.853 415.547,-453.925 422.843,-456.374"/>
<polygon fill="midnightblue" stroke="midnightblue" points="331.889,-368.126 323.586,-361.545 325.973,-371.867 331.889,-368.126"/>
</g>
<!-- Node11 -->
<g id="node11" class="node"><title>Node11</title>
<g id="a_node11"><a xlink:href="class_urho3_d_1_1_particle_effect.html" target="_top" xlink:title="Particle effect definition. ">
<polygon fill="none" stroke="black" points="424,-418.5 424,-437.5 540,-437.5 540,-418.5 424,-418.5"/>
<text text-anchor="middle" x="482" y="-425.5" font-family="Helvetica,sans-Serif" font-size="10.00">Urho3D::ParticleEffect</text>
</a>
</g>
</g>
<!-- Node1&#45;&gt;Node11 -->
<g id="edge10" class="edge"><title>Node1&#45;&gt;Node11</title>
<path fill="none" stroke="midnightblue" d="M337.333,-368.116C353.63,-380.936 378.062,-398.421 402,-409 410.645,-412.82 420.176,-415.942 429.537,-418.47"/>
<polygon fill="midnightblue" stroke="midnightblue" points="339.156,-365.09 329.171,-361.547 334.767,-370.543 339.156,-365.09"/>
</g>
<!-- Node12 -->
<g id="node12" class="node"><title>Node12</title>
<g id="a_node12"><a xlink:href="class_urho3_d_1_1_particle_effect2_d.html" target="_top" xlink:title="2D particle effect resource. ">
<polygon fill="none" stroke="black" points="418,-380.5 418,-399.5 546,-399.5 546,-380.5 418,-380.5"/>
<text text-anchor="middle" x="482" y="-387.5" font-family="Helvetica,sans-Serif" font-size="10.00">Urho3D::ParticleEffect2D</text>
</a>
</g>
</g>
<!-- Node1&#45;&gt;Node12 -->
<g id="edge11" class="edge"><title>Node1&#45;&gt;Node12</title>
<path fill="none" stroke="midnightblue" d="M369.028,-363.896C391.939,-369.237 418.604,-375.454 440.164,-380.48"/>
<polygon fill="midnightblue" stroke="midnightblue" points="369.665,-360.451 359.132,-361.589 368.076,-367.268 369.665,-360.451"/>
</g>
<!-- Node13 -->
<g id="node13" class="node"><title>Node13</title>
<g id="a_node13"><a xlink:href="class_urho3_d_1_1_p_list_file.html" target="_top" xlink:title="Property list (plist). ">
<polygon fill="none" stroke="black" points="434.5,-342.5 434.5,-361.5 529.5,-361.5 529.5,-342.5 434.5,-342.5"/>
<text text-anchor="middle" x="482" y="-349.5" font-family="Helvetica,sans-Serif" font-size="10.00">Urho3D::PListFile</text>
</a>
</g>
</g>
<!-- Node1&#45;&gt;Node13 -->
<g id="edge12" class="edge"><title>Node1&#45;&gt;Node13</title>
<path fill="none" stroke="midnightblue" d="M376.132,-352C395.268,-352 416.282,-352 434.441,-352"/>
<polygon fill="midnightblue" stroke="midnightblue" points="376.024,-348.5 366.024,-352 376.024,-355.5 376.024,-348.5"/>
</g>
<!-- Node14 -->
<g id="node14" class="node"><title>Node14</title>
<g id="a_node14"><a xlink:href="class_urho3_d_1_1_resource_with_metadata.html" target="_top" xlink:title="Base class for resources that support arbitrary metadata stored. Metadata serialization shall be impl...">
<polygon fill="none" stroke="red" points="402.5,-304.5 402.5,-323.5 561.5,-323.5 561.5,-304.5 402.5,-304.5"/>
<text text-anchor="middle" x="482" y="-311.5" font-family="Helvetica,sans-Serif" font-size="10.00">Urho3D::ResourceWithMetadata</text>
</a>
</g>
</g>
<!-- Node1&#45;&gt;Node14 -->
<g id="edge13" class="edge"><title>Node1&#45;&gt;Node14</title>
<path fill="none" stroke="midnightblue" d="M369.028,-340.104C391.939,-334.763 418.604,-328.546 440.164,-323.52"/>
<polygon fill="midnightblue" stroke="midnightblue" points="368.076,-336.732 359.132,-342.411 369.665,-343.549 368.076,-336.732"/>
</g>
<!-- Node17 -->
<g id="node17" class="node"><title>Node17</title>
<g id="a_node17"><a xlink:href="class_urho3_d_1_1_script_file.html" target="_top" xlink:title="Script file resource. ">
<polygon fill="none" stroke="black" points="433,-266.5 433,-285.5 531,-285.5 531,-266.5 433,-266.5"/>
<text text-anchor="middle" x="482" y="-273.5" font-family="Helvetica,sans-Serif" font-size="10.00">Urho3D::ScriptFile</text>
</a>
</g>
</g>
<!-- Node1&#45;&gt;Node17 -->
<g id="edge16" class="edge"><title>Node1&#45;&gt;Node17</title>
<path fill="none" stroke="midnightblue" d="M337.333,-335.884C353.63,-323.064 378.062,-305.579 402,-295 411.677,-290.724 422.464,-287.322 432.881,-284.65"/>
<polygon fill="midnightblue" stroke="midnightblue" points="334.767,-333.457 329.171,-342.453 339.156,-338.91 334.767,-333.457"/>
</g>
<!-- Node18 -->
<g id="node18" class="node"><title>Node18</title>
<g id="a_node18"><a xlink:href="class_urho3_d_1_1_shader.html" target="_top" xlink:title="Shader resource consisting of several shader variations. ">
<polygon fill="none" stroke="black" points="438.5,-228.5 438.5,-247.5 525.5,-247.5 525.5,-228.5 438.5,-228.5"/>
<text text-anchor="middle" x="482" y="-235.5" font-family="Helvetica,sans-Serif" font-size="10.00">Urho3D::Shader</text>
</a>
</g>
</g>
<!-- Node1&#45;&gt;Node18 -->
<g id="edge17" class="edge"><title>Node1&#45;&gt;Node18</title>
<path fill="none" stroke="midnightblue" d="M329.028,-333.851C343.179,-312.159 369.787,-276.371 402,-257 412.88,-250.457 425.874,-246.167 438.151,-243.353"/>
<polygon fill="midnightblue" stroke="midnightblue" points="325.973,-332.133 323.586,-342.455 331.889,-335.874 325.973,-332.133"/>
</g>
<!-- Node19 -->
<g id="node19" class="node"><title>Node19</title>
<g id="a_node19"><a xlink:href="class_urho3_d_1_1_sprite2_d.html" target="_top" xlink:title="Sprite. ">
<polygon fill="none" stroke="black" points="434.5,-190.5 434.5,-209.5 529.5,-209.5 529.5,-190.5 434.5,-190.5"/>
<text text-anchor="middle" x="482" y="-197.5" font-family="Helvetica,sans-Serif" font-size="10.00">Urho3D::Sprite2D</text>
</a>
</g>
</g>
<!-- Node1&#45;&gt;Node19 -->
<g id="edge18" class="edge"><title>Node1&#45;&gt;Node19</title>
<path fill="none" stroke="midnightblue" d="M324.764,-332.622C336.025,-303.309 361.469,-248.043 402,-219 411.403,-212.263 422.887,-207.892 434.155,-205.063"/>
<polygon fill="midnightblue" stroke="midnightblue" points="321.426,-331.557 321.255,-342.15 327.995,-333.976 321.426,-331.557"/>
</g>
<!-- Node20 -->
<g id="node20" class="node"><title>Node20</title>
<g id="a_node20"><a xlink:href="class_urho3_d_1_1_sprite_sheet2_d.html" target="_top" xlink:title="Sprite sheet. ">
<polygon fill="none" stroke="black" points="422,-152.5 422,-171.5 542,-171.5 542,-152.5 422,-152.5"/>
<text text-anchor="middle" x="482" y="-159.5" font-family="Helvetica,sans-Serif" font-size="10.00">Urho3D::SpriteSheet2D</text>
</a>
</g>
</g>
<!-- Node1&#45;&gt;Node20 -->
<g id="edge19" class="edge"><title>Node1&#45;&gt;Node20</title>
<path fill="none" stroke="midnightblue" d="M321.92,-332.329C330.127,-296.474 352.606,-220.545 402,-181 407.836,-176.327 414.642,-172.775 421.766,-170.08"/>
<polygon fill="midnightblue" stroke="midnightblue" points="318.42,-331.953 319.74,-342.466 325.264,-333.425 318.42,-331.953"/>
</g>
<!-- Node21 -->
<g id="node21" class="node"><title>Node21</title>
<g id="a_node21"><a xlink:href="class_urho3_d_1_1_technique.html" target="_top" xlink:title="Material technique. Consists of several passes. ">
<polygon fill="none" stroke="black" points="431.5,-114.5 431.5,-133.5 532.5,-133.5 532.5,-114.5 431.5,-114.5"/>
<text text-anchor="middle" x="482" y="-121.5" font-family="Helvetica,sans-Serif" font-size="10.00">Urho3D::Technique</text>
</a>
</g>
</g>
<!-- Node1&#45;&gt;Node21 -->
<g id="edge20" class="edge"><title>Node1&#45;&gt;Node21</title>
<path fill="none" stroke="midnightblue" d="M319.969,-332.382C325.223,-290.818 343.44,-193.572 402,-143 410.221,-135.901 420.643,-131.353 431.199,-128.465"/>
<polygon fill="midnightblue" stroke="midnightblue" points="316.49,-331.997 318.829,-342.331 323.444,-332.794 316.49,-331.997"/>
</g>
<!-- Node22 -->
<g id="node22" class="node"><title>Node22</title>
<g id="a_node22"><a xlink:href="class_urho3_d_1_1_tmx_file2_d.html" target="_top" xlink:title="Tile map file. ">
<polygon fill="none" stroke="black" points="430,-76.5 430,-95.5 534,-95.5 534,-76.5 430,-76.5"/>
<text text-anchor="middle" x="482" y="-83.5" font-family="Helvetica,sans-Serif" font-size="10.00">Urho3D::TmxFile2D</text>
</a>
</g>
</g>
<!-- Node1&#45;&gt;Node22 -->
<g id="edge21" class="edge"><title>Node1&#45;&gt;Node22</title>
<path fill="none" stroke="midnightblue" d="M318.584,-332.439C321.082,-285.713 334.143,-166.898 402,-105 409.712,-97.9651 419.567,-93.4097 429.681,-90.4881"/>
<polygon fill="midnightblue" stroke="midnightblue" points="315.086,-332.314 318.156,-342.454 322.079,-332.613 315.086,-332.314"/>
</g>
<!-- Node23 -->
<g id="node23" class="node"><title>Node23</title>
<g id="a_node23"><a xlink:href="class_urho3_d_1_1_value_animation.html" target="_top" xlink:title="Value animation class. ">
<polygon fill="none" stroke="black" points="419.5,-38.5 419.5,-57.5 544.5,-57.5 544.5,-38.5 419.5,-38.5"/>
<text text-anchor="middle" x="482" y="-45.5" font-family="Helvetica,sans-Serif" font-size="10.00">Urho3D::ValueAnimation</text>
</a>
</g>
</g>
<!-- Node1&#45;&gt;Node23 -->
<g id="edge22" class="edge"><title>Node1&#45;&gt;Node23</title>
<path fill="none" stroke="midnightblue" d="M317.548,-332.304C317.496,-280.674 324.839,-140.353 402,-67 407.01,-62.2376 412.996,-58.6022 419.401,-55.8369"/>
<polygon fill="midnightblue" stroke="midnightblue" points="314.049,-332.468 317.659,-342.429 321.049,-332.391 314.049,-332.468"/>
</g>
<!-- Node24 -->
<g id="node24" class="node"><title>Node24</title>
<g id="a_node24"><a xlink:href="class_urho3_d_1_1_x_m_l_file.html" target="_top" xlink:title="XML document resource. ">
<polygon fill="none" stroke="black" points="436,-0.5 436,-19.5 528,-19.5 528,-0.5 436,-0.5"/>
<text text-anchor="middle" x="482" y="-7.5" font-family="Helvetica,sans-Serif" font-size="10.00">Urho3D::XMLFile</text>
</a>
</g>
</g>
<!-- Node1&#45;&gt;Node24 -->
<g id="edge23" class="edge"><title>Node1&#45;&gt;Node24</title>
<path fill="none" stroke="midnightblue" d="M320.504,-332.01C328.867,-268.409 357.822,-72.3726 402,-29 411.059,-20.1057 423.513,-15.1169 435.855,-12.3868"/>
<polygon fill="midnightblue" stroke="midnightblue" points="316.988,-331.913 319.183,-342.278 323.93,-332.806 316.988,-331.913"/>
</g>
<!-- Node2 -->
<g id="node2" class="node"><title>Node2</title>
<g id="a_node2"><a xlink:href="class_urho3_d_1_1_object.html" target="_top" xlink:title="Base class for objects with type identification, subsystem access and event sending/receiving capabil...">
<polygon fill="none" stroke="black" points="146.5,-342.5 146.5,-361.5 231.5,-361.5 231.5,-342.5 146.5,-342.5"/>
<text text-anchor="middle" x="189" y="-349.5" font-family="Helvetica,sans-Serif" font-size="10.00">Urho3D::Object</text>
</a>
</g>
</g>
<!-- Node2&#45;&gt;Node1 -->
<g id="edge1" class="edge"><title>Node2&#45;&gt;Node1</title>
<path fill="none" stroke="midnightblue" d="M241.624,-352C250.31,-352 259.294,-352 267.886,-352"/>
<polygon fill="midnightblue" stroke="midnightblue" points="241.606,-348.5 231.606,-352 241.606,-355.5 241.606,-348.5"/>
</g>
<!-- Node3 -->
<g id="node3" class="node"><title>Node3</title>
<g id="a_node3"><a xlink:href="class_urho3_d_1_1_ref_counted.html" target="_top" xlink:title="Base class for intrusively reference&#45;counted objects. These are noncopyable and non&#45;assignable. ">
<polygon fill="none" stroke="black" points="0.5,-342.5 0.5,-361.5 109.5,-361.5 109.5,-342.5 0.5,-342.5"/>
<text text-anchor="middle" x="55" y="-349.5" font-family="Helvetica,sans-Serif" font-size="10.00">Urho3D::RefCounted</text>
</a>
</g>
</g>
<!-- Node3&#45;&gt;Node2 -->
<g id="edge2" class="edge"><title>Node3&#45;&gt;Node2</title>
<path fill="none" stroke="midnightblue" d="M119.737,-352C128.689,-352 137.695,-352 146.098,-352"/>
<polygon fill="midnightblue" stroke="midnightblue" points="119.689,-348.5 109.689,-352 119.689,-355.5 119.689,-348.5"/>
</g>
<!-- Node15 -->
<g id="node15" class="node"><title>Node15</title>
<g id="a_node15"><a xlink:href="class_urho3_d_1_1_animation.html" target="_top" xlink:title="Skeletal animation resource. ">
<polygon fill="none" stroke="black" points="598,-323.5 598,-342.5 698,-342.5 698,-323.5 598,-323.5"/>
<text text-anchor="middle" x="648" y="-330.5" font-family="Helvetica,sans-Serif" font-size="10.00">Urho3D::Animation</text>
</a>
</g>
</g>
<!-- Node14&#45;&gt;Node15 -->
<g id="edge14" class="edge"><title>Node14&#45;&gt;Node15</title>
<path fill="none" stroke="midnightblue" d="M571.753,-324.282C580.692,-325.318 589.523,-326.341 597.817,-327.302"/>
<polygon fill="midnightblue" stroke="midnightblue" points="571.974,-320.785 561.638,-323.11 571.168,-327.738 571.974,-320.785"/>
</g>
<!-- Node16 -->
<g id="node16" class="node"><title>Node16</title>
<g id="a_node16"><a xlink:href="class_urho3_d_1_1_model.html" target="_top" xlink:title="3D model resource. ">
<polygon fill="none" stroke="black" points="606.5,-285.5 606.5,-304.5 689.5,-304.5 689.5,-285.5 606.5,-285.5"/>
<text text-anchor="middle" x="648" y="-292.5" font-family="Helvetica,sans-Serif" font-size="10.00">Urho3D::Model</text>
</a>
</g>
</g>
<!-- Node14&#45;&gt;Node16 -->
<g id="edge15" class="edge"><title>Node14&#45;&gt;Node16</title>
<path fill="none" stroke="midnightblue" d="M571.78,-303.715C583.826,-302.319 595.676,-300.946 606.28,-299.718"/>
<polygon fill="midnightblue" stroke="midnightblue" points="571.168,-300.262 561.638,-304.89 571.974,-307.215 571.168,-300.262"/>
</g>
</g>
</svg>
