<?xml version="1.0" encoding="UTF-8" standalone="no"?>
<!DOCTYPE svg PUBLIC "-//W3C//DTD SVG 1.1//EN"
 "http://www.w3.org/Graphics/SVG/1.1/DTD/svg11.dtd">
<!-- Generated by graphviz version 2.40.1 (20161225.0304)
 -->
<!-- Title: Urho3D::IKSolver::Solve Pages: 1 -->
<!--zoomable 505 -->
<svg id="main" version="1.1" xmlns="http://www.w3.org/2000/svg" xmlns:xlink="http://www.w3.org/1999/xlink" xml:space="preserve" onload="init(evt)">
<style type="text/css"><![CDATA[
.edge:hover path { stroke: red; }
.edge:hover polygon { stroke: red; fill: red; }
]]></style>
<script type="text/javascript"><![CDATA[
var edges = document.getElementsByTagName('g');
if (edges && edges.length) {
  for (var i=0;i<edges.length;i++) {
    if (edges[i].id.substr(0,4)=='edge') {
      edges[i].setAttribute('class','edge');
    }
  }
}
]]></script>
        <defs>
                <circle id="rim" cx="0" cy="0" r="7"/>
                <circle id="rim2" cx="0" cy="0" r="3.5"/>
                <g id="zoomPlus">
                        <use xlink:href="#rim" fill="#404040">
                                <set attributeName="fill" to="#808080" begin="zoomplus.mouseover" end="zoomplus.mouseout"/>
                        </use>
                        <path d="M-4,0h8M0,-4v8" fill="none" stroke="white" stroke-width="1.5" pointer-events="none"/>
                </g>
                <g id="zoomMin">
                        <use xlink:href="#rim" fill="#404040">
                                <set attributeName="fill" to="#808080" begin="zoomminus.mouseover" end="zoomminus.mouseout"/>
                        </use>
                        <path d="M-4,0h8" fill="none" stroke="white" stroke-width="1.5" pointer-events="none"/>
                </g>
                <g id="dirArrow">
                        <path fill="none" stroke="white" stroke-width="1.5" d="M0,-3.0v7 M-2.5,-0.5L0,-3.0L2.5,-0.5"/>
                </g>
               <g id="resetDef">
                       <use xlink:href="#rim2" fill="#404040">
                               <set attributeName="fill" to="#808080" begin="reset.mouseover" end="reset.mouseout"/>
                       </use>
               </g>
        </defs>

<script type="text/javascript">
var viewWidth = 969;
var viewHeight = 505;
var sectionId = 'dynsection-14';
</script>
<script xlink:href="svgpan.js"/>
<svg id="graph" class="graph">
<g id="viewport">
<title>Urho3D::IKSolver::Solve</title>
<!-- Node83 -->
<g id="node1" class="node">
<title>Node83</title>
<polygon fill="#bfbfbf" stroke="#000000" points="0,-153 0,-172 133,-172 133,-153 0,-153"/>
<text text-anchor="middle" x="66.5" y="-160" font-family="Helvetica,sans-Serif" font-size="10.00" fill="#000000">Urho3D::IKSolver::Solve</text>
</g>
<!-- Node84 -->
<g id="node2" class="node">
<title>Node84</title>
<g id="a_node2"><a xlink:href="class_urho3_d_1_1_i_k_solver.html#a215740ec5753a2347b9da9ec9d84cc07" target="_top" xlink:title="Builds the solver&#39;s tree to match the scene graph&#39;s tree. If a tree already exists, it is first destroyed. ">
<polygon fill="none" stroke="#000000" points="174,-295 174,-314 336,-314 336,-295 174,-295"/>
<text text-anchor="middle" x="255" y="-302" font-family="Helvetica,sans-Serif" font-size="10.00" fill="#000000">Urho3D::IKSolver::RebuildTree</text>
</a>
</g>
</g>
<!-- Node83&#45;&gt;Node84 -->
<g id="edge1" class="edge">
<title>Node83&#45;&gt;Node84</title>
<path fill="none" stroke="#191970" d="M71.7058,-172.2463C84.7278,-195.6273 121.1323,-255.1344 169,-284.5 173.1893,-287.0701 177.6783,-289.3101 182.3261,-291.2624"/>
<polygon fill="#191970" stroke="#191970" points="181.4516,-294.6714 192.0444,-294.8793 183.8933,-288.111 181.4516,-294.6714"/>
</g>
<!-- Node103 -->
<g id="node20" class="node">
<title>Node103</title>
<g id="a_node20"><a xlink:href="class_urho3_d_1_1_i_k_solver.html#a75ebc853336630a79e4b6ec7857cd78d" target="_top" xlink:title="Updates the solver&#39;s internal data structures, which is required whenever the tree is modified in any...">
<polygon fill="none" stroke="#000000" points="184,-245.5 184,-275.5 326,-275.5 326,-245.5 184,-245.5"/>
<text text-anchor="start" x="192" y="-263.5" font-family="Helvetica,sans-Serif" font-size="10.00" fill="#000000">Urho3D::IKSolver::Rebuild</text>
<text text-anchor="middle" x="255" y="-252.5" font-family="Helvetica,sans-Serif" font-size="10.00" fill="#000000">ChainTrees</text>
</a>
</g>
</g>
<!-- Node83&#45;&gt;Node103 -->
<g id="edge24" class="edge">
<title>Node83&#45;&gt;Node103</title>
<path fill="none" stroke="#191970" d="M77.385,-172.1666C95.293,-187.6079 132.6224,-217.888 169,-235.5 173.6904,-237.7708 178.6268,-239.8756 183.6642,-241.8188"/>
<polygon fill="#191970" stroke="#191970" points="182.8439,-245.2441 193.4382,-245.3578 185.2272,-238.6623 182.8439,-245.2441"/>
</g>
<!-- Node104 -->
<g id="node21" class="node">
<title>Node104</title>
<g id="a_node21"><a xlink:href="class_urho3_d_1_1_i_k_solver.html#a715202e1b01b8ad6add31441c8460ee8" target="_top" xlink:title="Returns false if calling Solve() would cause the IK library to abort. Urho3D&#39;s error handling philoso...">
<polygon fill="none" stroke="#000000" points="182.5,-196.5 182.5,-226.5 327.5,-226.5 327.5,-196.5 182.5,-196.5"/>
<text text-anchor="start" x="190.5" y="-214.5" font-family="Helvetica,sans-Serif" font-size="10.00" fill="#000000">Urho3D::IKSolver::IsSolver</text>
<text text-anchor="middle" x="255" y="-203.5" font-family="Helvetica,sans-Serif" font-size="10.00" fill="#000000">TreeValid</text>
</a>
</g>
</g>
<!-- Node83&#45;&gt;Node104 -->
<g id="edge25" class="edge">
<title>Node83&#45;&gt;Node104</title>
<path fill="none" stroke="#191970" d="M103.2922,-172.064C127.1569,-178.2676 158.9692,-186.5371 187.2977,-193.901"/>
<polygon fill="#191970" stroke="#191970" points="186.5948,-197.3345 197.1537,-196.463 188.3559,-190.5597 186.5948,-197.3345"/>
</g>
<!-- Node105 -->
<g id="node22" class="node">
<title>Node105</title>
<g id="a_node22"><a xlink:href="class_urho3_d_1_1_i_k_solver.html#afff682e8ed5f30b4f9f87ef5d1ba6740" target="_top" xlink:title="Urho3D::IKSolver::ApplyScene\lToOriginalPose">
<polygon fill="none" stroke="#000000" points="173.5,-147.5 173.5,-177.5 336.5,-177.5 336.5,-147.5 173.5,-147.5"/>
<text text-anchor="start" x="181.5" y="-165.5" font-family="Helvetica,sans-Serif" font-size="10.00" fill="#000000">Urho3D::IKSolver::ApplyScene</text>
<text text-anchor="middle" x="255" y="-154.5" font-family="Helvetica,sans-Serif" font-size="10.00" fill="#000000">ToOriginalPose</text>
</a>
</g>
</g>
<!-- Node83&#45;&gt;Node105 -->
<g id="edge26" class="edge">
<title>Node83&#45;&gt;Node105</title>
<path fill="none" stroke="#191970" d="M133.2233,-162.5C142.9935,-162.5 153.1962,-162.5 163.3584,-162.5"/>
<polygon fill="#191970" stroke="#191970" points="163.4897,-166.0001 173.4897,-162.5 163.4897,-159.0001 163.4897,-166.0001"/>
</g>
<!-- Node106 -->
<g id="node23" class="node">
<title>Node106</title>
<g id="a_node23"><a xlink:href="class_urho3_d_1_1_i_k_solver.html#a4b857cf9c23cd910eb4b08f2952b28b7" target="_top" xlink:title="Urho3D::IKSolver::ApplyScene\lToActivePose">
<polygon fill="none" stroke="#000000" points="173.5,-98.5 173.5,-128.5 336.5,-128.5 336.5,-98.5 173.5,-98.5"/>
<text text-anchor="start" x="181.5" y="-116.5" font-family="Helvetica,sans-Serif" font-size="10.00" fill="#000000">Urho3D::IKSolver::ApplyScene</text>
<text text-anchor="middle" x="255" y="-105.5" font-family="Helvetica,sans-Serif" font-size="10.00" fill="#000000">ToActivePose</text>
</a>
</g>
</g>
<!-- Node83&#45;&gt;Node106 -->
<g id="edge27" class="edge">
<title>Node83&#45;&gt;Node106</title>
<path fill="none" stroke="#191970" d="M103.2922,-152.936C127.1569,-146.7324 158.9692,-138.4629 187.2977,-131.099"/>
<polygon fill="#191970" stroke="#191970" points="188.3559,-134.4403 197.1537,-128.537 186.5948,-127.6655 188.3559,-134.4403"/>
</g>
<!-- Node107 -->
<g id="node24" class="node">
<title>Node107</title>
<g id="a_node24"><a xlink:href="class_urho3_d_1_1_i_k_solver.html#a36875cec883b9efb373f6b87f5bbf210" target="_top" xlink:title="Urho3D::IKSolver::ApplyOriginal\lPoseToActivePose">
<polygon fill="none" stroke="#000000" points="169,-49.5 169,-79.5 341,-79.5 341,-49.5 169,-49.5"/>
<text text-anchor="start" x="177" y="-67.5" font-family="Helvetica,sans-Serif" font-size="10.00" fill="#000000">Urho3D::IKSolver::ApplyOriginal</text>
<text text-anchor="middle" x="255" y="-56.5" font-family="Helvetica,sans-Serif" font-size="10.00" fill="#000000">PoseToActivePose</text>
</a>
</g>
</g>
<!-- Node83&#45;&gt;Node107 -->
<g id="edge28" class="edge">
<title>Node83&#45;&gt;Node107</title>
<path fill="none" stroke="#191970" d="M77.0497,-152.8997C94.7758,-137.2492 132.2181,-106.21 169,-88.5 173.0372,-86.5562 177.2591,-84.7453 181.5726,-83.0622"/>
<polygon fill="#191970" stroke="#191970" points="182.9294,-86.2929 191.1258,-79.5795 180.5318,-79.7163 182.9294,-86.2929"/>
</g>
<!-- Node108 -->
<g id="node25" class="node">
<title>Node108</title>
<g id="a_node25"><a xlink:href="class_urho3_d_1_1_i_k_solver.html#af540808afa75e025e732014817ff4b4a" target="_top" xlink:title="Urho3D::IKSolver::ApplyActive\lPoseToScene">
<polygon fill="none" stroke="#000000" points="173,-.5 173,-30.5 337,-30.5 337,-.5 173,-.5"/>
<text text-anchor="start" x="181" y="-18.5" font-family="Helvetica,sans-Serif" font-size="10.00" fill="#000000">Urho3D::IKSolver::ApplyActive</text>
<text text-anchor="middle" x="255" y="-7.5" font-family="Helvetica,sans-Serif" font-size="10.00" fill="#000000">PoseToScene</text>
</a>
</g>
</g>
<!-- Node83&#45;&gt;Node108 -->
<g id="edge29" class="edge">
<title>Node83&#45;&gt;Node108</title>
<path fill="none" stroke="#191970" d="M71.7684,-152.8074C84.9293,-129.5312 121.6188,-70.1448 169,-39.5 171.5849,-37.8282 174.2863,-36.2713 177.0705,-34.8216"/>
<polygon fill="#191970" stroke="#191970" points="178.63,-37.9561 186.2033,-30.5469 175.6625,-31.6162 178.63,-37.9561"/>
</g>
<!-- Node85 -->
<g id="node3" class="node">
<title>Node85</title>
<g id="a_node3"><a xlink:href="class_urho3_d_1_1_i_k_solver.html#aad4ab41a3accf0ff067ad591d0f7c67e" target="_top" xlink:title="Destroys the solver&#39;s tree. ">
<polygon fill="none" stroke="#000000" points="380,-402 380,-421 544,-421 544,-402 380,-402"/>
<text text-anchor="middle" x="462" y="-409" font-family="Helvetica,sans-Serif" font-size="10.00" fill="#000000">Urho3D::IKSolver::DestroyTree</text>
</a>
</g>
</g>
<!-- Node84&#45;&gt;Node85 -->
<g id="edge2" class="edge">
<title>Node84&#45;&gt;Node85</title>
<path fill="none" stroke="#191970" d="M266.3495,-314.1044C287.0511,-331.1744 332.8863,-366.9314 377,-387.5 386.6891,-392.0177 397.4051,-395.8547 407.8701,-399.0468"/>
<polygon fill="#191970" stroke="#191970" points="407.2063,-402.4981 417.7848,-401.9108 409.1489,-395.773 407.2063,-402.4981"/>
</g>
<!-- Node86 -->
<g id="node4" class="node">
<title>Node86</title>
<g id="a_node4"><a xlink:href="class_urho3_d_1_1_i_k_solver.html#a47e782eedb4819ac1f24020a3cce5eaa" target="_top" xlink:title="Creates the ik library node and sets the current rotation/position and user data correctly. ">
<polygon fill="none" stroke="#000000" points="597,-435.5 597,-465.5 735,-465.5 735,-435.5 597,-435.5"/>
<text text-anchor="start" x="605" y="-453.5" font-family="Helvetica,sans-Serif" font-size="10.00" fill="#000000">Urho3D::IKSolver::Create</text>
<text text-anchor="middle" x="666" y="-442.5" font-family="Helvetica,sans-Serif" font-size="10.00" fill="#000000">IKNodeFromUrhoNode</text>
</a>
</g>
</g>
<!-- Node84&#45;&gt;Node86 -->
<g id="edge3" class="edge">
<title>Node84&#45;&gt;Node86</title>
<path fill="none" stroke="#191970" d="M275.3316,-314.0764C299.2364,-325.0418 340.3126,-342.9727 377,-354.5 450.8601,-377.7071 475.2248,-363.4793 547,-392.5 564.3839,-399.5288 566.3583,-405.8595 583,-414.5 594.4394,-420.4394 607.0736,-426.2703 618.9612,-431.4518"/>
<polygon fill="#191970" stroke="#191970" points="617.7277,-434.7311 628.2976,-435.4577 620.4879,-428.2982 617.7277,-434.7311"/>
</g>
<!-- Node92 -->
<g id="node9" class="node">
<title>Node92</title>
<g id="a_node9"><a xlink:href="class_urho3_d_1_1_node.html#a1529e0de87db45bbb1e7cf8dc9e12f53" target="_top" xlink:title="Return all components. ">
<polygon fill="none" stroke="#000000" points="377,-227 377,-246 547,-246 547,-227 377,-227"/>
<text text-anchor="middle" x="462" y="-234" font-family="Helvetica,sans-Serif" font-size="10.00" fill="#000000">Urho3D::Node::GetComponents</text>
</a>
</g>
</g>
<!-- Node84&#45;&gt;Node92 -->
<g id="edge8" class="edge">
<title>Node84&#45;&gt;Node92</title>
<path fill="none" stroke="#191970" d="M312.6792,-294.8753C322.3954,-292.1947 332.1803,-288.7965 341,-284.5 359.4706,-275.5022 358.491,-264.4185 377,-255.5 382.0232,-253.0796 387.3629,-250.9623 392.8237,-249.1109"/>
<polygon fill="#191970" stroke="#191970" points="394.2141,-252.3451 402.7417,-246.0577 392.1545,-245.6549 394.2141,-252.3451"/>
</g>
<!-- Node93 -->
<g id="node10" class="node">
<title>Node93</title>
<g id="a_node10"><a xlink:href="class_urho3_d_1_1_i_k_solver.html#ac31967b5c4363bddf59ff0c2e4cfd5e0" target="_top" xlink:title="Urho3D::IKSolver::Component\lIsInOurSubtree">
<polygon fill="none" stroke="#000000" points="381,-314.5 381,-344.5 543,-344.5 543,-314.5 381,-314.5"/>
<text text-anchor="start" x="389" y="-332.5" font-family="Helvetica,sans-Serif" font-size="10.00" fill="#000000">Urho3D::IKSolver::Component</text>
<text text-anchor="middle" x="462" y="-321.5" font-family="Helvetica,sans-Serif" font-size="10.00" fill="#000000">IsInOurSubtree</text>
</a>
</g>
</g>
<!-- Node84&#45;&gt;Node93 -->
<g id="edge9" class="edge">
<title>Node84&#45;&gt;Node93</title>
<path fill="none" stroke="#191970" d="M333.8483,-314.0227C345.8986,-315.4781 358.4222,-316.9906 370.7128,-318.475"/>
<polygon fill="#191970" stroke="#191970" points="370.6191,-321.989 380.9666,-319.7134 371.4584,-315.0395 370.6191,-321.989"/>
</g>
<!-- Node96 -->
<g id="node13" class="node">
<title>Node96</title>
<g id="a_node13"><a xlink:href="class_urho3_d_1_1_i_k_solver.html#afaa45ef02d8aee5717b9eabece7ac883" target="_top" xlink:title="Builds a chain of nodes up to the node of the specified effector component. ">
<polygon fill="none" stroke="#000000" points="386.5,-265.5 386.5,-295.5 537.5,-295.5 537.5,-265.5 386.5,-265.5"/>
<text text-anchor="start" x="394.5" y="-283.5" font-family="Helvetica,sans-Serif" font-size="10.00" fill="#000000">Urho3D::IKSolver::BuildTree</text>
<text text-anchor="middle" x="462" y="-272.5" font-family="Helvetica,sans-Serif" font-size="10.00" fill="#000000">ToEffector</text>
</a>
</g>
</g>
<!-- Node84&#45;&gt;Node96 -->
<g id="edge13" class="edge">
<title>Node84&#45;&gt;Node96</title>
<path fill="none" stroke="#191970" d="M336.2178,-295.0834C349.3956,-293.5556 363.0793,-291.9691 376.3585,-290.4294"/>
<polygon fill="#191970" stroke="#191970" points="376.889,-293.8915 386.4194,-289.263 376.0828,-286.9381 376.889,-293.8915"/>
</g>
<!-- Node102 -->
<g id="node19" class="node">
<title>Node102</title>
<g id="a_node19"><a xlink:href="class_urho3_d_1_1_i_k_solver.html#a33218dc2749da6a94ea2d6e6df62f8c8" target="_top" xlink:title="Indicates that the internal structures of the IK library need to be updated. See the documentation of...">
<polygon fill="none" stroke="#000000" points="380.5,-177.5 380.5,-207.5 543.5,-207.5 543.5,-177.5 380.5,-177.5"/>
<text text-anchor="start" x="388.5" y="-195.5" font-family="Helvetica,sans-Serif" font-size="10.00" fill="#000000">Urho3D::IKSolver::MarkChains</text>
<text text-anchor="middle" x="462" y="-184.5" font-family="Helvetica,sans-Serif" font-size="10.00" fill="#000000">NeedUpdating</text>
</a>
</g>
</g>
<!-- Node84&#45;&gt;Node102 -->
<g id="edge23" class="edge">
<title>Node84&#45;&gt;Node102</title>
<path fill="none" stroke="#191970" d="M322.3625,-294.8552C329.0356,-292.1756 335.3999,-288.7849 341,-284.5 367.8469,-263.9583 350.7553,-238.8056 377,-217.5 379.0899,-215.8034 381.2913,-214.222 383.5791,-212.7478"/>
<polygon fill="#191970" stroke="#191970" points="385.7763,-215.5279 392.7793,-207.5775 382.3469,-209.4255 385.7763,-215.5279"/>
</g>
<!-- Node87 -->
<g id="node5" class="node">
<title>Node87</title>
<g id="a_node5"><a xlink:href="class_urho3_d_1_1_node.html#a1ce16fa386bfc7b728711030eb941723" target="_top" xlink:title="Return ID. ">
<polygon fill="none" stroke="#000000" points="813.5,-278 813.5,-297 932.5,-297 932.5,-278 813.5,-278"/>
<text text-anchor="middle" x="873" y="-285" font-family="Helvetica,sans-Serif" font-size="10.00" fill="#000000">Urho3D::Node::GetID</text>
</a>
</g>
</g>
<!-- Node86&#45;&gt;Node87 -->
<g id="edge4" class="edge">
<title>Node86&#45;&gt;Node87</title>
<path fill="none" stroke="#191970" d="M686.253,-435.388C703.1371,-422.7275 727.7714,-404.1108 749,-387.5 786.2135,-358.3815 828.9872,-323.5878 853.3234,-303.6644"/>
<polygon fill="#191970" stroke="#191970" points="855.608,-306.3173 861.1231,-297.2711 851.1704,-300.9036 855.608,-306.3173"/>
</g>
<!-- Node88 -->
<g id="node6" class="node">
<title>Node88</title>
<g id="a_node6"><a xlink:href="class_urho3_d_1_1_node.html#a8f3fe7808b7af4975ddb21be8a269ece" target="_top" xlink:title="Return position in world space. ">
<polygon fill="none" stroke="#000000" points="785.5,-477 785.5,-496 960.5,-496 960.5,-477 785.5,-477"/>
<text text-anchor="middle" x="873" y="-484" font-family="Helvetica,sans-Serif" font-size="10.00" fill="#000000">Urho3D::Node::GetWorldPosition</text>
</a>
</g>
</g>
<!-- Node86&#45;&gt;Node88 -->
<g id="edge5" class="edge">
<title>Node86&#45;&gt;Node88</title>
<path fill="none" stroke="#191970" d="M735.2158,-462.5375C758.7635,-466.6328 784.9804,-471.1922 808.1718,-475.2255"/>
<polygon fill="#191970" stroke="#191970" points="807.7985,-478.7131 818.2503,-476.9783 808.9979,-471.8166 807.7985,-478.7131"/>
</g>
<!-- Node89 -->
<g id="node7" class="node">
<title>Node89</title>
<g id="a_node7"><a xlink:href="class_urho3_d_1_1_node.html#ad74175e15dfaa86263299e355a2d49ed" target="_top" xlink:title="Return rotation in world space. ">
<polygon fill="none" stroke="#000000" points="785,-439 785,-458 961,-458 961,-439 785,-439"/>
<text text-anchor="middle" x="873" y="-446" font-family="Helvetica,sans-Serif" font-size="10.00" fill="#000000">Urho3D::Node::GetWorldRotation</text>
</a>
</g>
</g>
<!-- Node86&#45;&gt;Node89 -->
<g id="edge6" class="edge">
<title>Node86&#45;&gt;Node89</title>
<path fill="none" stroke="#191970" d="M735.2158,-449.8312C747.8597,-449.7091 761.2731,-449.5795 774.5745,-449.451"/>
<polygon fill="#191970" stroke="#191970" points="774.744,-452.9496 784.7097,-449.353 774.6763,-445.9499 774.744,-452.9496"/>
</g>
<!-- Node90 -->
<g id="node8" class="node">
<title>Node90</title>
<g id="a_node8"><a xlink:href="class_urho3_d_1_1_node.html#a34f6d23128c61664a11ceb275604e013" target="_top" xlink:title="Return component by type. If there are several, returns the first. ">
<polygon fill="none" stroke="#ff0000" points="791,-398 791,-417 955,-417 955,-398 791,-398"/>
<text text-anchor="middle" x="873" y="-405" font-family="Helvetica,sans-Serif" font-size="10.00" fill="#000000">Urho3D::Node::GetComponent</text>
</a>
</g>
</g>
<!-- Node86&#45;&gt;Node90 -->
<g id="edge7" class="edge">
<title>Node86&#45;&gt;Node90</title>
<path fill="none" stroke="#191970" d="M735.2158,-436.1218C761.7638,-430.607 791.7045,-424.3875 816.8773,-419.1583"/>
<polygon fill="#191970" stroke="#191970" points="817.9101,-422.5186 826.9892,-417.0578 816.4863,-415.6649 817.9101,-422.5186"/>
</g>
<!-- Node93&#45;&gt;Node90 -->
<g id="edge11" class="edge">
<title>Node93&#45;&gt;Node90</title>
<path fill="none" stroke="#191970" d="M513.0476,-344.5146C524.5234,-348.7047 536.4263,-353.7212 547,-359.5 564.7868,-369.2208 564.0651,-380.2657 583,-387.5 645.9292,-411.543 722.0794,-415.9504 780.5535,-414.6623"/>
<polygon fill="#191970" stroke="#191970" points="780.9906,-418.1515 790.8882,-414.3717 780.7938,-411.1542 780.9906,-418.1515"/>
</g>
<!-- Node94 -->
<g id="node11" class="node">
<title>Node94</title>
<g id="a_node11"><a xlink:href="class_urho3_d_1_1_component.html#a4df57b33f219fa7401bd72079198debf" target="_top" xlink:title="Return scene node. ">
<polygon fill="none" stroke="#000000" points="605,-347.5 605,-377.5 727,-377.5 727,-347.5 605,-347.5"/>
<text text-anchor="start" x="613" y="-365.5" font-family="Helvetica,sans-Serif" font-size="10.00" fill="#000000">Urho3D::Component::</text>
<text text-anchor="middle" x="666" y="-354.5" font-family="Helvetica,sans-Serif" font-size="10.00" fill="#000000">GetNode</text>
</a>
</g>
</g>
<!-- Node93&#45;&gt;Node94 -->
<g id="edge10" class="edge">
<title>Node93&#45;&gt;Node94</title>
<path fill="none" stroke="#191970" d="M543.2124,-342.6373C560.235,-345.391 578.0643,-348.2751 594.6933,-350.9651"/>
<polygon fill="#191970" stroke="#191970" points="594.4436,-354.4701 604.8743,-352.612 595.5615,-347.56 594.4436,-354.4701"/>
</g>
<!-- Node95 -->
<g id="node12" class="node">
<title>Node95</title>
<g id="a_node12"><a xlink:href="class_urho3_d_1_1_node.html#a7103948cd164a9d44525946e0c5537cc" target="_top" xlink:title="Return parent scene node. ">
<polygon fill="none" stroke="#000000" points="596.5,-309 596.5,-328 735.5,-328 735.5,-309 596.5,-309"/>
<text text-anchor="middle" x="666" y="-316" font-family="Helvetica,sans-Serif" font-size="10.00" fill="#000000">Urho3D::Node::GetParent</text>
</a>
</g>
</g>
<!-- Node93&#45;&gt;Node95 -->
<g id="edge12" class="edge">
<title>Node93&#45;&gt;Node95</title>
<path fill="none" stroke="#191970" d="M543.2124,-325.1209C557.3391,-324.3592 572.0215,-323.5675 586.1123,-322.8077"/>
<polygon fill="#191970" stroke="#191970" points="586.4547,-326.2944 596.2518,-322.2609 586.0778,-319.3045 586.4547,-326.2944"/>
</g>
<!-- Node96&#45;&gt;Node86 -->
<g id="edge22" class="edge">
<title>Node96&#45;&gt;Node86</title>
<path fill="none" stroke="#191970" d="M532.3907,-295.6112C537.6533,-298.3732 542.6117,-301.6389 547,-305.5 576.8819,-331.792 558.3581,-356.2434 583,-387.5 596.1356,-404.1616 614.6559,-418.7795 630.8701,-429.7292"/>
<polygon fill="#191970" stroke="#191970" points="629.3054,-432.8876 639.592,-435.4247 633.1328,-427.0266 629.3054,-432.8876"/>
</g>
<!-- Node96&#45;&gt;Node87 -->
<g id="edge15" class="edge">
<title>Node96&#45;&gt;Node87</title>
<path fill="none" stroke="#191970" d="M525.0258,-265.4004C532.6391,-262.5855 540.1395,-259.3046 547,-255.5 565.7211,-245.1178 562.9902,-231.1077 583,-223.5 651.9617,-197.2808 677.306,-206.0894 749,-223.5 787.6187,-232.8784 827.6606,-256.517 851.4442,-272.2892"/>
<polygon fill="#191970" stroke="#191970" points="849.4851,-275.1895 859.7266,-277.9027 853.4125,-269.395 849.4851,-275.1895"/>
</g>
<!-- Node96&#45;&gt;Node94 -->
<g id="edge14" class="edge">
<title>Node96&#45;&gt;Node94</title>
<path fill="none" stroke="#191970" d="M525.0258,-295.5996C532.6391,-298.4145 540.1395,-301.6954 547,-305.5 565.7211,-315.8822 564.3128,-327.0569 583,-337.5 586.9493,-339.707 591.1157,-341.7404 595.3936,-343.6106"/>
<polygon fill="#191970" stroke="#191970" points="594.3131,-346.9488 604.8962,-347.448 596.9343,-340.4581 594.3131,-346.9488"/>
</g>
<!-- Node96&#45;&gt;Node95 -->
<g id="edge17" class="edge">
<title>Node96&#45;&gt;Node95</title>
<path fill="none" stroke="#191970" d="M537.6722,-294.5958C559.7923,-298.7162 583.6858,-303.167 604.79,-307.0981"/>
<polygon fill="#191970" stroke="#191970" points="604.4344,-310.592 614.9062,-308.9825 605.7163,-303.7104 604.4344,-310.592"/>
</g>
<!-- Node97 -->
<g id="node14" class="node">
<title>Node97</title>
<g id="a_node14"><a xlink:href="class_urho3_d_1_1_p_o_d_vector.html#a3eb78093c096ab9e9d68595facc56470" target="_top" xlink:title="Add an element at the end. ">
<polygon fill="none" stroke="#000000" points="596,-233 596,-252 736,-252 736,-233 596,-233"/>
<text text-anchor="middle" x="666" y="-240" font-family="Helvetica,sans-Serif" font-size="10.00" fill="#000000">Urho3D::PODVector::Push</text>
</a>
</g>
</g>
<!-- Node96&#45;&gt;Node97 -->
<g id="edge16" class="edge">
<title>Node96&#45;&gt;Node97</title>
<path fill="none" stroke="#191970" d="M537.6722,-266.4042C559.7923,-262.2838 583.6858,-257.833 604.79,-253.9019"/>
<polygon fill="#191970" stroke="#191970" points="605.7163,-257.2896 614.9062,-252.0175 604.4344,-250.408 605.7163,-257.2896"/>
</g>
<!-- Node98 -->
<g id="node15" class="node">
<title>Node98</title>
<g id="a_node15"><a xlink:href="class_urho3_d_1_1_node.html#a01570d66b89fd1fa1ee8305cf00e9a3b" target="_top" xlink:title="Return whether has a specific component. ">
<polygon fill="none" stroke="#000000" points="583,-157 583,-176 749,-176 749,-157 583,-157"/>
<text text-anchor="middle" x="666" y="-164" font-family="Helvetica,sans-Serif" font-size="10.00" fill="#000000">Urho3D::Node::HasComponent</text>
</a>
</g>
</g>
<!-- Node96&#45;&gt;Node98 -->
<g id="edge18" class="edge">
<title>Node96&#45;&gt;Node98</title>
<path fill="none" stroke="#191970" d="M531.1682,-265.3574C536.8223,-262.6028 542.1985,-259.3474 547,-255.5 572.771,-234.8499 557.1819,-211.0911 583,-190.5 588.3578,-186.2269 594.4468,-182.7146 600.8354,-179.8277"/>
<polygon fill="#191970" stroke="#191970" points="602.3673,-182.9849 610.3595,-176.0296 599.7743,-176.4828 602.3673,-182.9849"/>
</g>
<!-- Node99 -->
<g id="node16" class="node">
<title>Node99</title>
<g id="a_node16"><a xlink:href="class_urho3_d_1_1_p_o_d_vector.html#ab1ba347a0118ed7d9ef79f3026153c88" target="_top" xlink:title="Return number of elements. ">
<polygon fill="none" stroke="#000000" points="597.5,-119 597.5,-138 734.5,-138 734.5,-119 597.5,-119"/>
<text text-anchor="middle" x="666" y="-126" font-family="Helvetica,sans-Serif" font-size="10.00" fill="#000000">Urho3D::PODVector::Size</text>
</a>
</g>
</g>
<!-- Node96&#45;&gt;Node99 -->
<g id="edge19" class="edge">
<title>Node96&#45;&gt;Node99</title>
<path fill="none" stroke="#191970" d="M533.6012,-265.3632C538.4701,-262.6032 543.0151,-259.3451 547,-255.5 583.41,-220.3672 545.5354,-181.5059 583,-147.5 584.7342,-145.9259 586.5717,-144.4738 588.493,-143.1348"/>
<polygon fill="#191970" stroke="#191970" points="590.5084,-146.0116 597.3938,-137.9592 586.9897,-139.9602 590.5084,-146.0116"/>
</g>
<!-- Node100 -->
<g id="node17" class="node">
<title>Node100</title>
<g id="a_node17"><a xlink:href="class_urho3_d_1_1_p_o_d_vector.html#ae5b2d81c68a5669b4d05820082bca924" target="_top" xlink:title="Return last element. ">
<polygon fill="none" stroke="#000000" points="595.5,-81 595.5,-100 736.5,-100 736.5,-81 595.5,-81"/>
<text text-anchor="middle" x="666" y="-88" font-family="Helvetica,sans-Serif" font-size="10.00" fill="#000000">Urho3D::PODVector::Back</text>
</a>
</g>
</g>
<!-- Node96&#45;&gt;Node100 -->
<g id="edge20" class="edge">
<title>Node96&#45;&gt;Node100</title>
<path fill="none" stroke="#191970" d="M534.3474,-265.4717C538.9856,-262.684 543.2784,-259.3902 547,-255.5 593.1994,-207.2073 535.3491,-156.361 583,-109.5 584.4624,-108.0618 586.0101,-106.7238 587.6295,-105.4792"/>
<polygon fill="#191970" stroke="#191970" points="589.6918,-108.3158 596.262,-100.0042 585.9426,-102.4045 589.6918,-108.3158"/>
</g>
<!-- Node101 -->
<g id="node18" class="node">
<title>Node101</title>
<g id="a_node18"><a xlink:href="class_urho3_d_1_1_p_o_d_vector.html#a76e8bca181c0ab7e7ebbe5b325c35aa2" target="_top" xlink:title="Remove the last element. ">
<polygon fill="none" stroke="#000000" points="598.5,-271 598.5,-290 733.5,-290 733.5,-271 598.5,-271"/>
<text text-anchor="middle" x="666" y="-278" font-family="Helvetica,sans-Serif" font-size="10.00" fill="#000000">Urho3D::PODVector::Pop</text>
</a>
</g>
</g>
<!-- Node96&#45;&gt;Node101 -->
<g id="edge21" class="edge">
<title>Node96&#45;&gt;Node101</title>
<path fill="none" stroke="#191970" d="M537.6722,-280.5C554.105,-280.5 571.5166,-280.5 588.0362,-280.5"/>
<polygon fill="#191970" stroke="#191970" points="588.19,-284.0001 598.19,-280.5 588.1899,-277.0001 588.19,-284.0001"/>
</g>
</g>
</svg>
        <g id="navigator" transform="translate(0 0)" fill="#404254">
                <rect fill="#f2f5e9" fill-opacity="0.5" stroke="#606060" stroke-width=".5" x="0" y="0" width="60" height="60"/>
                <use id="zoomplus" xlink:href="#zoomPlus" x="17" y="9" onmousedown="handleZoom(evt,'in')"/>
                <use id="zoomminus" xlink:href="#zoomMin" x="42" y="9" onmousedown="handleZoom(evt,'out')"/>
                <use id="reset" xlink:href="#resetDef" x="30" y="36" onmousedown="handleReset()"/>
                <g id="arrowUp" xlink:href="#dirArrow" transform="translate(30 24)" onmousedown="handlePan(0,-1)">
                  <use xlink:href="#rim" fill="#404040">
                        <set attributeName="fill" to="#808080" begin="arrowUp.mouseover" end="arrowUp.mouseout"/>
                  </use>
                  <path fill="none" stroke="white" stroke-width="1.5" d="M0,-3.0v7 M-2.5,-0.5L0,-3.0L2.5,-0.5"/>
                </g>
                <g id="arrowRight" xlink:href="#dirArrow" transform="rotate(90) translate(36 -43)" onmousedown="handlePan(1,0)">
                  <use xlink:href="#rim" fill="#404040">
                        <set attributeName="fill" to="#808080" begin="arrowRight.mouseover" end="arrowRight.mouseout"/>
                  </use>
                  <path fill="none" stroke="white" stroke-width="1.5" d="M0,-3.0v7 M-2.5,-0.5L0,-3.0L2.5,-0.5"/>
                </g>
                <g id="arrowDown" xlink:href="#dirArrow" transform="rotate(180) translate(-30 -48)" onmousedown="handlePan(0,1)">
                  <use xlink:href="#rim" fill="#404040">
                        <set attributeName="fill" to="#808080" begin="arrowDown.mouseover" end="arrowDown.mouseout"/>
                  </use>
                  <path fill="none" stroke="white" stroke-width="1.5" d="M0,-3.0v7 M-2.5,-0.5L0,-3.0L2.5,-0.5"/>
                </g>
                <g id="arrowLeft" xlink:href="#dirArrow" transform="rotate(270) translate(-36 17)" onmousedown="handlePan(-1,0)">
                  <use xlink:href="#rim" fill="#404040">
                        <set attributeName="fill" to="#808080" begin="arrowLeft.mouseover" end="arrowLeft.mouseout"/>
                  </use>
                  <path fill="none" stroke="white" stroke-width="1.5" d="M0,-3.0v7 M-2.5,-0.5L0,-3.0L2.5,-0.5"/>
                </g>
        </g>
        <svg viewBox="0 0 15 15" width="100%" height="30px" preserveAspectRatio="xMaxYMin meet">
         <g id="arrow_out" transform="scale(0.3 0.3)">
          <a xlink:href="class_urho3_d_1_1_i_k_solver_ad37fe0e1e1a31fff36b3f3f923853373_cgraph_org.svg" target="_base">
           <rect id="button" ry="5" rx="5" y="6" x="6" height="38" width="38"
                fill="#f2f5e9" fill-opacity="0.5" stroke="#606060" stroke-width="1.0"/>
           <path id="arrow"
             d="M 11.500037,31.436501 C 11.940474,20.09759 22.043105,11.32322 32.158766,21.979434 L 37.068811,17.246167 C 37.068811,17.246167 37.088388,32 37.088388,32 L 22.160133,31.978069 C 22.160133,31.978069 26.997745,27.140456 26.997745,27.140456 C 18.528582,18.264221 13.291696,25.230495 11.500037,31.436501 z"
             style="fill:#404040;"/>
          </a>
         </g>
        </svg>
</svg>
