<?xml version="1.0" encoding="UTF-8" standalone="no"?>
<!DOCTYPE svg PUBLIC "-//W3C//DTD SVG 1.1//EN"
 "http://www.w3.org/Graphics/SVG/1.1/DTD/svg11.dtd">
<!-- Generated by graphviz version 2.40.1 (20161225.0304)
 -->
<!-- Title: Urho3D::RenderSurface Pages: 1 -->
<!--zoomable 537 -->
<svg id="main" version="1.1" xmlns="http://www.w3.org/2000/svg" xmlns:xlink="http://www.w3.org/1999/xlink" xml:space="preserve" onload="init(evt)">
<style type="text/css"><![CDATA[
.edge:hover path { stroke: red; }
.edge:hover polygon { stroke: red; fill: red; }
]]></style>
<script type="text/javascript"><![CDATA[
var edges = document.getElementsByTagName('g');
if (edges && edges.length) {
  for (var i=0;i<edges.length;i++) {
    if (edges[i].id.substr(0,4)=='edge') {
      edges[i].setAttribute('class','edge');
    }
  }
}
]]></script>
        <defs>
                <circle id="rim" cx="0" cy="0" r="7"/>
                <circle id="rim2" cx="0" cy="0" r="3.5"/>
                <g id="zoomPlus">
                        <use xlink:href="#rim" fill="#404040">
                                <set attributeName="fill" to="#808080" begin="zoomplus.mouseover" end="zoomplus.mouseout"/>
                        </use>
                        <path d="M-4,0h8M0,-4v8" fill="none" stroke="white" stroke-width="1.5" pointer-events="none"/>
                </g>
                <g id="zoomMin">
                        <use xlink:href="#rim" fill="#404040">
                                <set attributeName="fill" to="#808080" begin="zoomminus.mouseover" end="zoomminus.mouseout"/>
                        </use>
                        <path d="M-4,0h8" fill="none" stroke="white" stroke-width="1.5" pointer-events="none"/>
                </g>
                <g id="dirArrow">
                        <path fill="none" stroke="white" stroke-width="1.5" d="M0,-3.0v7 M-2.5,-0.5L0,-3.0L2.5,-0.5"/>
                </g>
               <g id="resetDef">
                       <use xlink:href="#rim2" fill="#404040">
                               <set attributeName="fill" to="#808080" begin="reset.mouseover" end="reset.mouseout"/>
                       </use>
               </g>
        </defs>

<script type="text/javascript">
var viewWidth = 2317;
var viewHeight = 537;
var sectionId = 'dynsection-1';
</script>
<script xlink:href="svgpan.js"/>
<svg id="graph" class="graph">
<g id="viewport">
<title>Urho3D::RenderSurface</title>
<!-- Node2 -->
<g id="node1" class="node">
<title>Node2</title>
<polygon fill="#bfbfbf" stroke="#000000" points="1030,-373.5 1030,-392.5 1160,-392.5 1160,-373.5 1030,-373.5"/>
<text text-anchor="middle" x="1095" y="-380.5" font-family="Helvetica,sans-Serif" font-size="10.00" fill="#000000">Urho3D::RenderSurface</text>
</g>
<!-- Node5 -->
<g id="node4" class="node">
<title>Node5</title>
<g id="a_node4"><a xlink:href="class_urho3_d_1_1_weak_ptr.html" target="_top" xlink:title="Urho3D::WeakPtr\&lt; Urho3D\l::RenderSurface \&gt;">
<polygon fill="none" stroke="#000000" points="1296,-409 1296,-439 1444,-439 1444,-409 1296,-409"/>
<text text-anchor="start" x="1304" y="-427" font-family="Helvetica,sans-Serif" font-size="10.00" fill="#000000">Urho3D::WeakPtr&lt; Urho3D</text>
<text text-anchor="middle" x="1370" y="-416" font-family="Helvetica,sans-Serif" font-size="10.00" fill="#000000">::RenderSurface &gt;</text>
</a>
</g>
</g>
<!-- Node2&#45;&gt;Node5 -->
<g id="edge4" class="edge">
<title>Node2&#45;&gt;Node5</title>
<path fill="none" stroke="#9a32cd" stroke-dasharray="5,2" d="M1120.3703,-397.4952C1136.3516,-405.8067 1157.7277,-415.4649 1178,-420 1216.2302,-428.5525 1259.8143,-430.0967 1295.7837,-429.2643"/>
<polygon fill="#9a32cd" stroke="#9a32cd" points="1121.6401,-394.2042 1111.1749,-392.552 1118.3256,-400.3697 1121.6401,-394.2042"/>
<text text-anchor="middle" x="1228" y="-432" font-family="Helvetica,sans-Serif" font-size="10.00" fill="#000000"> ptr_</text>
</g>
<!-- Node34 -->
<g id="node21" class="node">
<title>Node34</title>
<g id="a_node21"><a xlink:href="class_urho3_d_1_1_graphics.html" target="_top" xlink:title="Graphics subsystem. Manages the application window, rendering state and GPU resources. ">
<polygon fill="none" stroke="#ff0000" points="1319,-280.5 1319,-299.5 1421,-299.5 1421,-280.5 1319,-280.5"/>
<text text-anchor="middle" x="1370" y="-287.5" font-family="Helvetica,sans-Serif" font-size="10.00" fill="#000000">Urho3D::Graphics</text>
</a>
</g>
</g>
<!-- Node2&#45;&gt;Node34 -->
<g id="edge30" class="edge">
<title>Node2&#45;&gt;Node34</title>
<path fill="none" stroke="#9a32cd" stroke-dasharray="5,2" d="M1128.9723,-369.9171C1143.9487,-364.2518 1161.7928,-357.6402 1178,-352 1208.3529,-341.437 1293.8412,-314.1616 1339.8279,-299.5598"/>
<polygon fill="#9a32cd" stroke="#9a32cd" points="1127.6944,-366.6584 1119.5908,-373.4835 1130.1819,-373.2015 1127.6944,-366.6584"/>
<text text-anchor="middle" x="1228" y="-366" font-family="Helvetica,sans-Serif" font-size="10.00" fill="#000000"> depthStencil_</text>
<text text-anchor="middle" x="1228" y="-355" font-family="Helvetica,sans-Serif" font-size="10.00" fill="#000000">renderTargets_</text>
</g>
<!-- Node3 -->
<g id="node2" class="node">
<title>Node3</title>
<g id="a_node2"><a xlink:href="class_urho3_d_1_1_ref_counted.html" target="_top" xlink:title="Base class for intrusively reference&#45;counted objects. These are noncopyable and non&#45;assignable. ">
<polygon fill="none" stroke="#000000" points="423,-230.5 423,-249.5 539,-249.5 539,-230.5 423,-230.5"/>
<text text-anchor="middle" x="481" y="-237.5" font-family="Helvetica,sans-Serif" font-size="10.00" fill="#000000">Urho3D::RefCounted</text>
</a>
</g>
</g>
<!-- Node3&#45;&gt;Node2 -->
<g id="edge1" class="edge">
<title>Node3&#45;&gt;Node2</title>
<path fill="none" stroke="#191970" d="M548.9836,-247.965C560.9808,-249.3362 573.3547,-250.7282 585,-252 774.655,-272.7123 840.6947,-212.0207 1012,-296 1048.3635,-313.8265 1077.2788,-354.5971 1089.1517,-373.2997"/>
<polygon fill="#191970" stroke="#191970" points="549.3525,-244.4845 539.0186,-246.8213 548.5543,-251.4388 549.3525,-244.4845"/>
</g>
<!-- Node9 -->
<g id="node8" class="node">
<title>Node9</title>
<g id="a_node8"><a xlink:href="class_urho3_d_1_1_object.html" target="_top" xlink:title="Base class for objects with type identification, subsystem access and event sending/receiving capabil...">
<polygon fill="none" stroke="#000000" points="1049.5,-134.5 1049.5,-153.5 1140.5,-153.5 1140.5,-134.5 1049.5,-134.5"/>
<text text-anchor="middle" x="1095" y="-141.5" font-family="Helvetica,sans-Serif" font-size="10.00" fill="#000000">Urho3D::Object</text>
</a>
</g>
</g>
<!-- Node3&#45;&gt;Node9 -->
<g id="edge10" class="edge">
<title>Node3&#45;&gt;Node9</title>
<path fill="none" stroke="#191970" d="M549.1021,-242.4762C652.753,-243.9209 854.6581,-237.5194 1012,-176 1021.1907,-172.4065 1021.1354,-167.3362 1030,-163 1037.604,-159.2804 1046.0724,-156.1502 1054.3174,-153.572"/>
<polygon fill="#191970" stroke="#191970" points="549.1371,-238.9764 539.0796,-242.3075 549.0192,-245.9754 549.1371,-238.9764"/>
</g>
<!-- Node10 -->
<g id="node9" class="node">
<title>Node10</title>
<g id="a_node9"><a xlink:href="class_urho3_d_1_1_context.html" target="_top" xlink:title="Urho3D execution context. Provides access to subsystems, object factories and attributes, and event receivers. ">
<polygon fill="none" stroke="#ff0000" points="709,-159.5 709,-178.5 807,-178.5 807,-159.5 709,-159.5"/>
<text text-anchor="middle" x="758" y="-166.5" font-family="Helvetica,sans-Serif" font-size="10.00" fill="#000000">Urho3D::Context</text>
</a>
</g>
</g>
<!-- Node3&#45;&gt;Node10 -->
<g id="edge12" class="edge">
<title>Node3&#45;&gt;Node10</title>
<path fill="none" stroke="#191970" d="M518.1442,-227.3091C537.8767,-220.7973 562.6162,-212.9963 585,-207 626.4363,-195.8999 674.0841,-185.6134 708.8697,-178.55"/>
<polygon fill="#191970" stroke="#191970" points="516.9894,-224.0046 508.607,-230.4842 519.2006,-230.6462 516.9894,-224.0046"/>
</g>
<!-- Node4 -->
<g id="node3" class="node">
<title>Node4</title>
<g id="a_node3"><a xlink:href="struct_urho3_d_1_1_ref_count.html" target="_top" xlink:title="Reference count structure. ">
<polygon fill="none" stroke="#000000" points="202,-469.5 202,-488.5 306,-488.5 306,-469.5 202,-469.5"/>
<text text-anchor="middle" x="254" y="-476.5" font-family="Helvetica,sans-Serif" font-size="10.00" fill="#000000">Urho3D::RefCount</text>
</a>
</g>
</g>
<!-- Node4&#45;&gt;Node3 -->
<g id="edge2" class="edge">
<title>Node4&#45;&gt;Node3</title>
<path fill="none" stroke="#9a32cd" stroke-dasharray="5,2" d="M268.5054,-461.5674C293.5018,-431.7764 346.6716,-369.4925 395,-320 420.9287,-293.4468 453.4572,-264.2143 470.0962,-249.5331"/>
<polygon fill="#9a32cd" stroke="#9a32cd" points="265.6887,-459.4798 261.9584,-469.3962 271.0585,-463.9704 265.6887,-459.4798"/>
<text text-anchor="middle" x="351.5" y="-395" font-family="Helvetica,sans-Serif" font-size="10.00" fill="#000000"> refCount_</text>
</g>
<!-- Node4&#45;&gt;Node5 -->
<g id="edge5" class="edge">
<title>Node4&#45;&gt;Node5</title>
<path fill="none" stroke="#9a32cd" stroke-dasharray="5,2" d="M316.3607,-480.7546C476.6642,-484.4248 915.9336,-489.1695 1278,-444 1287.7317,-442.7859 1297.9554,-441.0423 1307.9059,-439.0841"/>
<polygon fill="#9a32cd" stroke="#9a32cd" points="316.2888,-477.252 306.209,-480.5149 316.1235,-484.2501 316.2888,-477.252"/>
<text text-anchor="middle" x="758" y="-484" font-family="Helvetica,sans-Serif" font-size="10.00" fill="#000000"> refCount_</text>
</g>
<!-- Node33 -->
<g id="node20" class="node">
<title>Node33</title>
<g id="a_node20"><a xlink:href="class_urho3_d_1_1_weak_ptr.html" target="_top" xlink:title="Urho3D::WeakPtr\&lt; Urho3D\l::Graphics \&gt;">
<polygon fill="none" stroke="#000000" points="1514,-357 1514,-387 1662,-387 1662,-357 1514,-357"/>
<text text-anchor="start" x="1522" y="-375" font-family="Helvetica,sans-Serif" font-size="10.00" fill="#000000">Urho3D::WeakPtr&lt; Urho3D</text>
<text text-anchor="middle" x="1588" y="-364" font-family="Helvetica,sans-Serif" font-size="10.00" fill="#000000">::Graphics &gt;</text>
</a>
</g>
</g>
<!-- Node4&#45;&gt;Node33 -->
<g id="edge33" class="edge">
<title>Node4&#45;&gt;Node33</title>
<path fill="none" stroke="#9a32cd" stroke-dasharray="5,2" d="M297.7283,-491.0619C343.1613,-502.5169 416.5005,-518 481,-518 481,-518 481,-518 1095,-518 1253.1136,-518 1295.1026,-502.1928 1444,-449 1489.1183,-432.8817 1537.4225,-404.4875 1565.0433,-387.0499"/>
<polygon fill="#9a32cd" stroke="#9a32cd" points="298.4712,-487.6392 287.9148,-488.5405 296.7292,-494.419 298.4712,-487.6392"/>
<text text-anchor="middle" x="941.5" y="-521" font-family="Helvetica,sans-Serif" font-size="10.00" fill="#000000"> refCount_</text>
</g>
<!-- Node5&#45;&gt;Node2 -->
<g id="edge3" class="edge">
<title>Node5&#45;&gt;Node2</title>
<path fill="none" stroke="#9a32cd" stroke-dasharray="5,2" d="M1330.6701,-404.5505C1314.7228,-397.6364 1295.877,-390.6633 1278,-387 1239.5526,-379.1216 1195.6111,-377.9137 1160.4245,-378.7738"/>
<polygon fill="#9a32cd" stroke="#9a32cd" points="1329.6336,-407.9213 1340.1905,-408.8177 1332.4968,-401.5336 1329.6336,-407.9213"/>
<text text-anchor="start" x="1178" y="-412" font-family="Helvetica,sans-Serif" font-size="10.00" fill="#000000"> linkedDepthStencil</text>
<text text-anchor="middle" x="1228" y="-401" font-family="Helvetica,sans-Serif" font-size="10.00" fill="#000000">_</text>
<text text-anchor="middle" x="1228" y="-390" font-family="Helvetica,sans-Serif" font-size="10.00" fill="#000000">linkedRenderTarget_</text>
</g>
<!-- Node6 -->
<g id="node5" class="node">
<title>Node6</title>
<g id="a_node5"><a xlink:href="class_urho3_d_1_1_texture.html" target="_top" xlink:title="Base class for texture resources. ">
<polygon fill="none" stroke="#000000" points="1983,-280.5 1983,-299.5 2078,-299.5 2078,-280.5 1983,-280.5"/>
<text text-anchor="middle" x="2030.5" y="-287.5" font-family="Helvetica,sans-Serif" font-size="10.00" fill="#000000">Urho3D::Texture</text>
</a>
</g>
</g>
<!-- Node6&#45;&gt;Node2 -->
<g id="edge6" class="edge">
<title>Node6&#45;&gt;Node2</title>
<path fill="none" stroke="#9a32cd" stroke-dasharray="5,2" d="M2020.4677,-308.4047C1994.1711,-353.9009 1918.4574,-468 1820.5,-468 1370,-468 1370,-468 1370,-468 1284.0026,-468 1257.8923,-475.8242 1178,-444 1148.0962,-432.0881 1119.2107,-406.7699 1104.6955,-392.787"/>
<polygon fill="#9a32cd" stroke="#9a32cd" points="2023.5861,-310.0001 2025.4473,-299.5701 2017.4881,-306.5629 2023.5861,-310.0001"/>
<text text-anchor="middle" x="1588" y="-471" font-family="Helvetica,sans-Serif" font-size="10.00" fill="#000000"> parentTexture_</text>
</g>
<!-- Node6&#45;&gt;Node34 -->
<g id="edge31" class="edge">
<title>Node6&#45;&gt;Node34</title>
<path fill="none" stroke="#9a32cd" stroke-dasharray="5,2" d="M1972.4464,-290C1844.864,-290 1541.8218,-290 1421.0048,-290"/>
<polygon fill="#9a32cd" stroke="#9a32cd" points="1972.7824,-293.5001 1982.7824,-290 1972.7823,-286.5001 1972.7824,-293.5001"/>
<text text-anchor="middle" x="1717" y="-293" font-family="Helvetica,sans-Serif" font-size="10.00" fill="#000000"> textures_</text>
</g>
<!-- Node74 -->
<g id="node23" class="node">
<title>Node74</title>
<g id="a_node23"><a xlink:href="class_urho3_d_1_1_shared_ptr.html" target="_top" xlink:title="Urho3D::SharedPtr\&lt;\l Urho3D::Texture \&gt;">
<polygon fill="none" stroke="#000000" points="2194,-275 2194,-305 2309,-305 2309,-275 2194,-275"/>
<text text-anchor="start" x="2202" y="-293" font-family="Helvetica,sans-Serif" font-size="10.00" fill="#000000">Urho3D::SharedPtr&lt;</text>
<text text-anchor="middle" x="2251.5" y="-282" font-family="Helvetica,sans-Serif" font-size="10.00" fill="#000000"> Urho3D::Texture &gt;</text>
</a>
</g>
</g>
<!-- Node6&#45;&gt;Node74 -->
<g id="edge36" class="edge">
<title>Node6&#45;&gt;Node74</title>
<path fill="none" stroke="#9a32cd" stroke-dasharray="5,2" d="M2088.4248,-290C2120.8901,-290 2161.2503,-290 2193.6959,-290"/>
<polygon fill="#9a32cd" stroke="#9a32cd" points="2088.1817,-286.5001 2078.1816,-290 2088.1816,-293.5001 2088.1817,-286.5001"/>
<text text-anchor="middle" x="2136" y="-293" font-family="Helvetica,sans-Serif" font-size="10.00" fill="#000000"> ptr_</text>
</g>
<!-- Node7 -->
<g id="node6" class="node">
<title>Node7</title>
<g id="a_node6"><a xlink:href="class_urho3_d_1_1_resource_with_metadata.html" target="_top" xlink:title="Base class for resources that support arbitrary metadata stored. Metadata serialization shall be impl...">
<polygon fill="none" stroke="#000000" points="1502,-185.5 1502,-204.5 1674,-204.5 1674,-185.5 1502,-185.5"/>
<text text-anchor="middle" x="1588" y="-192.5" font-family="Helvetica,sans-Serif" font-size="10.00" fill="#000000">Urho3D::ResourceWithMetadata</text>
</a>
</g>
</g>
<!-- Node7&#45;&gt;Node6 -->
<g id="edge7" class="edge">
<title>Node7&#45;&gt;Node6</title>
<path fill="none" stroke="#191970" d="M1640.9131,-206.8432C1674.9131,-214.4154 1720.0376,-224.3946 1760,-233 1851.0078,-252.5973 1873.9255,-256.7152 1965,-276 1971.8257,-277.4453 1979.0499,-278.9822 1986.1108,-280.4883"/>
<polygon fill="#191970" stroke="#191970" points="1641.2585,-203.3344 1630.7365,-204.5747 1639.7354,-210.1667 1641.2585,-203.3344"/>
</g>
<!-- Node8 -->
<g id="node7" class="node">
<title>Node8</title>
<g id="a_node7"><a xlink:href="class_urho3_d_1_1_resource.html" target="_top" xlink:title="Base class for resources. ">
<polygon fill="none" stroke="#000000" points="1318,-105.5 1318,-124.5 1422,-124.5 1422,-105.5 1318,-105.5"/>
<text text-anchor="middle" x="1370" y="-112.5" font-family="Helvetica,sans-Serif" font-size="10.00" fill="#000000">Urho3D::Resource</text>
</a>
</g>
</g>
<!-- Node8&#45;&gt;Node7 -->
<g id="edge8" class="edge">
<title>Node8&#45;&gt;Node7</title>
<path fill="none" stroke="#191970" d="M1405.7203,-128.1084C1449.613,-144.2158 1523.0354,-171.1598 1561.9502,-185.4404"/>
<polygon fill="#191970" stroke="#191970" points="1406.8895,-124.8093 1396.2959,-124.6499 1404.4779,-131.3808 1406.8895,-124.8093"/>
</g>
<!-- Node9&#45;&gt;Node8 -->
<g id="edge9" class="edge">
<title>Node9&#45;&gt;Node8</title>
<path fill="none" stroke="#191970" d="M1150.669,-133.1021C1159.7775,-131.5604 1169.1337,-130.1212 1178,-129 1225.084,-123.0458 1279.0084,-119.3896 1317.6979,-117.314"/>
<polygon fill="#191970" stroke="#191970" points="1149.7773,-129.7049 1140.5296,-134.875 1150.983,-136.6002 1149.7773,-129.7049"/>
</g>
<!-- Node9&#45;&gt;Node34 -->
<g id="edge29" class="edge">
<title>Node9&#45;&gt;Node34</title>
<path fill="none" stroke="#191970" d="M1151.0483,-134.6594C1189.2506,-131.1376 1239.6599,-132.2859 1278,-154 1329.3447,-183.0794 1357.8072,-254.052 1366.8219,-280.1558"/>
<polygon fill="#191970" stroke="#191970" points="1150.1933,-131.2303 1140.6172,-135.7633 1150.93,-138.1914 1150.1933,-131.2303"/>
</g>
<!-- Node10&#45;&gt;Node9 -->
<g id="edge11" class="edge">
<title>Node10&#45;&gt;Node9</title>
<path fill="none" stroke="#9a32cd" stroke-dasharray="5,2" d="M817.2831,-164.6021C883.5372,-159.6872 989.3737,-151.8358 1049.4501,-147.3791"/>
<polygon fill="#9a32cd" stroke="#9a32cd" points="816.7163,-161.1345 807.0027,-165.3648 817.2343,-168.1153 816.7163,-161.1345"/>
<text text-anchor="middle" x="941.5" y="-164" font-family="Helvetica,sans-Serif" font-size="10.00" fill="#000000"> context_</text>
</g>
<!-- Node22 -->
<g id="node10" class="node">
<title>Node22</title>
<g id="a_node10"><a xlink:href="class_urho3_d_1_1_hash_map.html" target="_top" xlink:title="Urho3D::HashMap\&lt; StringHash,\l Variant \&gt;">
<polygon fill="none" stroke="#000000" points="395,-22 395,-52 567,-52 567,-22 395,-22"/>
<text text-anchor="start" x="403" y="-40" font-family="Helvetica,sans-Serif" font-size="10.00" fill="#000000">Urho3D::HashMap&lt; StringHash,</text>
<text text-anchor="middle" x="481" y="-29" font-family="Helvetica,sans-Serif" font-size="10.00" fill="#000000"> Variant &gt;</text>
</a>
</g>
</g>
<!-- Node22&#45;&gt;Node7 -->
<g id="edge23" class="edge">
<title>Node22&#45;&gt;Node7</title>
<path fill="none" stroke="#9a32cd" stroke-dasharray="5,2" d="M563.5681,-20.1376C618.4399,-10.3753 692.2286,0 758,0 758,0 758,0 1370,0 1482.4757,0 1563.5172,-145.983 1583.3176,-185.3299"/>
<polygon fill="#9a32cd" stroke="#9a32cd" points="562.7656,-16.7259 553.5487,-21.9507 564.0121,-23.614 562.7656,-16.7259"/>
<text text-anchor="middle" x="1095" y="-3" font-family="Helvetica,sans-Serif" font-size="10.00" fill="#000000"> metadata_</text>
</g>
<!-- Node22&#45;&gt;Node10 -->
<g id="edge13" class="edge">
<title>Node22&#45;&gt;Node10</title>
<path fill="none" stroke="#9a32cd" stroke-dasharray="5,2" d="M508.3757,-58.0647C542.6582,-83.4136 604.0706,-125.4918 663,-149 677.4025,-154.7455 693.7225,-158.9444 708.7217,-161.9663"/>
<polygon fill="#9a32cd" stroke="#9a32cd" points="510.3681,-55.1843 500.2624,-52.002 506.1779,-60.7917 510.3681,-55.1843"/>
<text text-anchor="middle" x="615" y="-143" font-family="Helvetica,sans-Serif" font-size="10.00" fill="#000000"> globalVars_</text>
</g>
<!-- Node12 -->
<g id="node11" class="node">
<title>Node12</title>
<g id="a_node11"><a xlink:href="class_urho3_d_1_1_hash_base.html" target="_top" xlink:title="Hash set/map base class. ">
<polygon fill="none" stroke="#ff0000" points="200,-27.5 200,-46.5 308,-46.5 308,-27.5 200,-27.5"/>
<text text-anchor="middle" x="254" y="-34.5" font-family="Helvetica,sans-Serif" font-size="10.00" fill="#000000">Urho3D::HashBase</text>
</a>
</g>
</g>
<!-- Node12&#45;&gt;Node22 -->
<g id="edge14" class="edge">
<title>Node12&#45;&gt;Node22</title>
<path fill="none" stroke="#191970" d="M318.395,-37C342.1896,-37 369.5514,-37 394.9598,-37"/>
<polygon fill="#191970" stroke="#191970" points="318.0838,-33.5001 308.0838,-37 318.0837,-40.5001 318.0838,-33.5001"/>
</g>
<!-- Node13 -->
<g id="node12" class="node">
<title>Node13</title>
<g id="a_node12"><a xlink:href="struct_urho3_d_1_1_hash_node_base.html" target="_top" xlink:title="Hash set/map node base class. ">
<polygon fill="none" stroke="#000000" points="0,-27.5 0,-46.5 134,-46.5 134,-27.5 0,-27.5"/>
<text text-anchor="middle" x="67" y="-34.5" font-family="Helvetica,sans-Serif" font-size="10.00" fill="#000000">Urho3D::HashNodeBase</text>
</a>
</g>
</g>
<!-- Node13&#45;&gt;Node12 -->
<g id="edge15" class="edge">
<title>Node13&#45;&gt;Node12</title>
<path fill="none" stroke="#9a32cd" stroke-dasharray="5,2" d="M144.4871,-37C163.1161,-37 182.6193,-37 199.9187,-37"/>
<polygon fill="#9a32cd" stroke="#9a32cd" points="144.2471,-33.5001 134.2471,-37 144.2471,-40.5001 144.2471,-33.5001"/>
<text text-anchor="middle" x="167" y="-62" font-family="Helvetica,sans-Serif" font-size="10.00" fill="#000000"> ptrs_</text>
<text text-anchor="middle" x="167" y="-51" font-family="Helvetica,sans-Serif" font-size="10.00" fill="#000000">tail_</text>
<text text-anchor="middle" x="167" y="-40" font-family="Helvetica,sans-Serif" font-size="10.00" fill="#000000">head_</text>
</g>
<!-- Node13&#45;&gt;Node13 -->
<g id="edge16" class="edge">
<title>Node13&#45;&gt;Node13</title>
<path fill="none" stroke="#9a32cd" stroke-dasharray="5,2" d="M48.4824,-56.4C49.7191,-61.3146 55.8916,-65 67,-65 84.7734,-65 89.9111,-55.5653 82.4129,-46.7571"/>
<polygon fill="#9a32cd" stroke="#9a32cd" points="51.8539,-57.3485 51.5871,-46.7571 45.1907,-55.2032 51.8539,-57.3485"/>
<text text-anchor="middle" x="67" y="-90" font-family="Helvetica,sans-Serif" font-size="10.00" fill="#000000"> next_</text>
<text text-anchor="middle" x="67" y="-79" font-family="Helvetica,sans-Serif" font-size="10.00" fill="#000000">prev_</text>
<text text-anchor="middle" x="67" y="-68" font-family="Helvetica,sans-Serif" font-size="10.00" fill="#000000">down_</text>
</g>
<!-- Node28 -->
<g id="node13" class="node">
<title>Node28</title>
<g id="a_node13"><a xlink:href="class_urho3_d_1_1_linked_list.html" target="_top" xlink:title="Urho3D::LinkedList\l\&lt; Urho3D::EventHandler \&gt;">
<polygon fill="none" stroke="#ff0000" points="684,-110 684,-140 832,-140 832,-110 684,-110"/>
<text text-anchor="start" x="692" y="-128" font-family="Helvetica,sans-Serif" font-size="10.00" fill="#000000">Urho3D::LinkedList</text>
<text text-anchor="middle" x="758" y="-117" font-family="Helvetica,sans-Serif" font-size="10.00" fill="#000000">&lt; Urho3D::EventHandler &gt;</text>
</a>
</g>
</g>
<!-- Node28&#45;&gt;Node9 -->
<g id="edge17" class="edge">
<title>Node28&#45;&gt;Node9</title>
<path fill="none" stroke="#9a32cd" stroke-dasharray="5,2" d="M842.0864,-124.2121C891.6328,-124.4392 955.4856,-125.9289 1012,-131 1024.2027,-132.095 1037.3337,-133.871 1049.4699,-135.7633"/>
<polygon fill="#9a32cd" stroke="#9a32cd" points="842.0673,-120.7121 832.0569,-124.1824 842.0465,-127.7121 842.0673,-120.7121"/>
<text text-anchor="middle" x="941.5" y="-134" font-family="Helvetica,sans-Serif" font-size="10.00" fill="#000000"> eventHandlers_</text>
</g>
<!-- Node29 -->
<g id="node14" class="node">
<title>Node29</title>
<g id="a_node14"><a xlink:href="class_urho3_d_1_1_timer.html" target="_top" xlink:title="Low&#45;resolution operating system timer. ">
<polygon fill="none" stroke="#000000" points="1051,-29.5 1051,-48.5 1139,-48.5 1139,-29.5 1051,-29.5"/>
<text text-anchor="middle" x="1095" y="-36.5" font-family="Helvetica,sans-Serif" font-size="10.00" fill="#000000">Urho3D::Timer</text>
</a>
</g>
</g>
<!-- Node29&#45;&gt;Node8 -->
<g id="edge18" class="edge">
<title>Node29&#45;&gt;Node8</title>
<path fill="none" stroke="#9a32cd" stroke-dasharray="5,2" d="M1149.3243,-46.5327C1186.1388,-52.4013 1235.6159,-61.7876 1278,-75 1304.105,-83.1377 1332.7931,-96.3386 1351.0775,-105.3316"/>
<polygon fill="#9a32cd" stroke="#9a32cd" points="1149.7124,-43.051 1139.2929,-44.9704 1148.6352,-49.9676 1149.7124,-43.051"/>
<text text-anchor="middle" x="1228" y="-78" font-family="Helvetica,sans-Serif" font-size="10.00" fill="#000000"> useTimer_</text>
</g>
<!-- Node30 -->
<g id="node15" class="node">
<title>Node30</title>
<g id="a_node15"><a xlink:href="class_urho3_d_1_1_string.html" target="_top" xlink:title="String class. ">
<polygon fill="none" stroke="#000000" points="1051,-172.5 1051,-191.5 1139,-191.5 1139,-172.5 1051,-172.5"/>
<text text-anchor="middle" x="1095" y="-179.5" font-family="Helvetica,sans-Serif" font-size="10.00" fill="#000000">Urho3D::String</text>
</a>
</g>
</g>
<!-- Node30&#45;&gt;Node8 -->
<g id="edge19" class="edge">
<title>Node30&#45;&gt;Node8</title>
<path fill="none" stroke="#9a32cd" stroke-dasharray="5,2" d="M1146.8307,-170.176C1183.5164,-161.7204 1233.8434,-149.9456 1278,-139 1296.5854,-134.393 1317.2174,-129.0334 1334.2253,-124.5491"/>
<polygon fill="#9a32cd" stroke="#9a32cd" points="1145.8223,-166.8165 1136.8616,-172.4695 1147.3918,-173.6383 1145.8223,-166.8165"/>
<text text-anchor="middle" x="1228" y="-166" font-family="Helvetica,sans-Serif" font-size="10.00" fill="#000000"> name_</text>
</g>
<!-- Node30&#45;&gt;Node30 -->
<g id="edge20" class="edge">
<title>Node30&#45;&gt;Node30</title>
<path fill="none" stroke="#9a32cd" stroke-dasharray="5,2" d="M1070.4465,-201.0292C1071.7858,-206.128 1079.9703,-210 1095,-210 1118.4609,-210 1125.2426,-200.5653 1115.345,-191.7571"/>
<polygon fill="#9a32cd" stroke="#9a32cd" points="1073.709,-202.3096 1074.655,-191.7571 1067.3348,-199.4164 1073.709,-202.3096"/>
<text text-anchor="middle" x="1095" y="-213" font-family="Helvetica,sans-Serif" font-size="10.00" fill="#000000"> EMPTY</text>
</g>
<!-- Node30&#45;&gt;Node34 -->
<g id="edge32" class="edge">
<title>Node30&#45;&gt;Node34</title>
<path fill="none" stroke="#9a32cd" stroke-dasharray="5,2" d="M1122.5548,-196.1383C1138.4288,-203.8081 1158.9534,-212.9331 1178,-219 1221.1867,-232.7562 1235.4511,-223.3823 1278,-239 1307.3159,-249.7605 1338.5164,-268.9009 1356.0035,-280.4251"/>
<polygon fill="#9a32cd" stroke="#9a32cd" points="1123.844,-192.8717 1113.3268,-191.5911 1120.7499,-199.1508 1123.844,-192.8717"/>
<text text-anchor="middle" x="1228" y="-308" font-family="Helvetica,sans-Serif" font-size="10.00" fill="#000000"> lastShaderName_</text>
<text text-anchor="middle" x="1228" y="-297" font-family="Helvetica,sans-Serif" font-size="10.00" fill="#000000">windowTitle_</text>
<text text-anchor="middle" x="1228" y="-286" font-family="Helvetica,sans-Serif" font-size="10.00" fill="#000000">shaderCacheDir_</text>
<text text-anchor="middle" x="1228" y="-275" font-family="Helvetica,sans-Serif" font-size="10.00" fill="#000000">apiName_</text>
<text text-anchor="middle" x="1228" y="-264" font-family="Helvetica,sans-Serif" font-size="10.00" fill="#000000">shaderPath_</text>
<text text-anchor="middle" x="1228" y="-253" font-family="Helvetica,sans-Serif" font-size="10.00" fill="#000000">orientations_</text>
<text text-anchor="middle" x="1228" y="-242" font-family="Helvetica,sans-Serif" font-size="10.00" fill="#000000">shaderExtension_</text>
</g>
<!-- Node19 -->
<g id="node16" class="node">
<title>Node19</title>
<g id="a_node16"><a xlink:href="class_urho3_d_1_1_string_hash.html" target="_top" xlink:title="32&#45;bit hash value for a string. ">
<polygon fill="none" stroke="#000000" points="1038.5,-67.5 1038.5,-86.5 1151.5,-86.5 1151.5,-67.5 1038.5,-67.5"/>
<text text-anchor="middle" x="1095" y="-74.5" font-family="Helvetica,sans-Serif" font-size="10.00" fill="#000000">Urho3D::StringHash</text>
</a>
</g>
</g>
<!-- Node19&#45;&gt;Node8 -->
<g id="edge21" class="edge">
<title>Node19&#45;&gt;Node8</title>
<path fill="none" stroke="#9a32cd" stroke-dasharray="5,2" d="M1161.6225,-86.206C1209.5559,-92.8295 1273.3055,-101.6386 1317.6159,-107.7615"/>
<polygon fill="#9a32cd" stroke="#9a32cd" points="1162.0317,-82.7294 1151.6467,-84.8275 1161.0735,-89.6635 1162.0317,-82.7294"/>
<text text-anchor="middle" x="1228" y="-105" font-family="Helvetica,sans-Serif" font-size="10.00" fill="#000000"> nameHash_</text>
</g>
<!-- Node19&#45;&gt;Node19 -->
<g id="edge22" class="edge">
<title>Node19&#45;&gt;Node19</title>
<path fill="none" stroke="#9a32cd" stroke-dasharray="5,2" d="M1070.4465,-96.0292C1071.7858,-101.128 1079.9703,-105 1095,-105 1118.4609,-105 1125.2426,-95.5653 1115.345,-86.7571"/>
<polygon fill="#9a32cd" stroke="#9a32cd" points="1073.709,-97.3096 1074.655,-86.7571 1067.3348,-94.4164 1073.709,-97.3096"/>
<text text-anchor="middle" x="1095" y="-108" font-family="Helvetica,sans-Serif" font-size="10.00" fill="#000000"> ZERO</text>
</g>
<!-- Node31 -->
<g id="node17" class="node">
<title>Node31</title>
<g id="a_node17"><a xlink:href="class_urho3_d_1_1_vector.html" target="_top" xlink:title="Urho3D::Vector\&lt; String \&gt;">
<polygon fill="none" stroke="#000000" points="871,-305.5 871,-324.5 1012,-324.5 1012,-305.5 871,-305.5"/>
<text text-anchor="middle" x="941.5" y="-312.5" font-family="Helvetica,sans-Serif" font-size="10.00" fill="#000000">Urho3D::Vector&lt; String &gt;</text>
</a>
</g>
</g>
<!-- Node31&#45;&gt;Node7 -->
<g id="edge24" class="edge">
<title>Node31&#45;&gt;Node7</title>
<path fill="none" stroke="#9a32cd" stroke-dasharray="5,2" d="M995.3875,-302.9883C1042.3529,-290.5474 1110.5069,-267.5584 1160,-230 1170.6213,-221.9399 1166.1553,-212.1222 1178,-206 1232.321,-177.9226 1398.2972,-182.5682 1501.6599,-188.667"/>
<polygon fill="#9a32cd" stroke="#9a32cd" points="994.5118,-299.5995 985.7016,-305.4844 996.2587,-306.3781 994.5118,-299.5995"/>
<text text-anchor="middle" x="1228" y="-209" font-family="Helvetica,sans-Serif" font-size="10.00" fill="#000000"> metadataKeys_</text>
</g>
<!-- Node21 -->
<g id="node18" class="node">
<title>Node21</title>
<g id="a_node18"><a xlink:href="class_urho3_d_1_1_vector_base.html" target="_top" xlink:title="Vector base class. ">
<polygon fill="none" stroke="#000000" points="424,-329.5 424,-348.5 538,-348.5 538,-329.5 424,-329.5"/>
<text text-anchor="middle" x="481" y="-336.5" font-family="Helvetica,sans-Serif" font-size="10.00" fill="#000000">Urho3D::VectorBase</text>
</a>
</g>
</g>
<!-- Node21&#45;&gt;Node31 -->
<g id="edge25" class="edge">
<title>Node21&#45;&gt;Node31</title>
<path fill="none" stroke="#191970" d="M548.5914,-335.4773C634.827,-330.983 783.2783,-323.2461 870.9224,-318.6783"/>
<polygon fill="#191970" stroke="#191970" points="548.1958,-331.9931 538.3915,-336.0089 548.5602,-338.9836 548.1958,-331.9931"/>
</g>
<!-- Node76 -->
<g id="node25" class="node">
<title>Node76</title>
<g id="a_node25"><a xlink:href="class_urho3_d_1_1_vector.html" target="_top" xlink:title="Urho3D::Vector\&lt; Urho3D\l::SharedPtr\&lt; Urho3D::Viewport \&gt; \&gt;">
<polygon fill="none" stroke="#000000" points="663,-353 663,-383 853,-383 853,-353 663,-353"/>
<text text-anchor="start" x="671" y="-371" font-family="Helvetica,sans-Serif" font-size="10.00" fill="#000000">Urho3D::Vector&lt; Urho3D</text>
<text text-anchor="middle" x="758" y="-360" font-family="Helvetica,sans-Serif" font-size="10.00" fill="#000000">::SharedPtr&lt; Urho3D::Viewport &gt; &gt;</text>
</a>
</g>
</g>
<!-- Node21&#45;&gt;Node76 -->
<g id="edge40" class="edge">
<title>Node21&#45;&gt;Node76</title>
<path fill="none" stroke="#191970" d="M548.0112,-346.0156C582.4635,-349.6225 625.0466,-354.0807 662.8411,-358.0375"/>
<polygon fill="#191970" stroke="#191970" points="548.3688,-342.534 538.0587,-344.9737 547.6399,-349.496 548.3688,-342.534"/>
</g>
<!-- Node32 -->
<g id="node19" class="node">
<title>Node32</title>
<g id="a_node19"><a xlink:href="class_urho3_d_1_1_g_p_u_object.html" target="_top" xlink:title="Base class for GPU resources. ">
<polygon fill="none" stroke="#000000" points="1764.5,-318.5 1764.5,-337.5 1876.5,-337.5 1876.5,-318.5 1764.5,-318.5"/>
<text text-anchor="middle" x="1820.5" y="-325.5" font-family="Helvetica,sans-Serif" font-size="10.00" fill="#000000">Urho3D::GPUObject</text>
</a>
</g>
</g>
<!-- Node32&#45;&gt;Node6 -->
<g id="edge26" class="edge">
<title>Node32&#45;&gt;Node6</title>
<path fill="none" stroke="#191970" d="M1886.5106,-317.6917C1911.1833,-313.6667 1939.4178,-308.8558 1965,-304 1972.1974,-302.6339 1979.8191,-301.0922 1987.2205,-299.5443"/>
<polygon fill="#191970" stroke="#191970" points="1885.8431,-314.2542 1876.5317,-319.3088 1886.9628,-321.164 1885.8431,-314.2542"/>
</g>
<!-- Node33&#45;&gt;Node32 -->
<g id="edge27" class="edge">
<title>Node33&#45;&gt;Node32</title>
<path fill="none" stroke="#9a32cd" stroke-dasharray="5,2" d="M1671.9843,-356.2269C1694.7095,-351.9474 1719.2983,-347.3064 1742,-343 1751.2697,-341.2416 1761.1536,-339.3589 1770.6713,-337.5422"/>
<polygon fill="#9a32cd" stroke="#9a32cd" points="1671.21,-352.8111 1662.0302,-358.1008 1672.5051,-359.6903 1671.21,-352.8111"/>
<text text-anchor="middle" x="1717" y="-354" font-family="Helvetica,sans-Serif" font-size="10.00" fill="#000000"> graphics_</text>
</g>
<!-- Node34&#45;&gt;Node33 -->
<g id="edge28" class="edge">
<title>Node34&#45;&gt;Node33</title>
<path fill="none" stroke="#9a32cd" stroke-dasharray="5,2" d="M1399.3597,-303.9342C1425.8333,-316.1949 1466.018,-334.0582 1502,-347 1511.6565,-350.4732 1522.05,-353.8172 1532.1587,-356.8678"/>
<polygon fill="#9a32cd" stroke="#9a32cd" points="1400.802,-300.7449 1390.2598,-299.69 1397.8431,-307.0889 1400.802,-300.7449"/>
<text text-anchor="middle" x="1473" y="-343" font-family="Helvetica,sans-Serif" font-size="10.00" fill="#000000"> ptr_</text>
</g>
<!-- Node73 -->
<g id="node22" class="node">
<title>Node73</title>
<g id="a_node22"><a xlink:href="union_urho3_d_1_1_g_p_u_object_handle.html" target="_top" xlink:title="API&#45;specific GPU object representation. ">
<polygon fill="none" stroke="#000000" points="1515,-318.5 1515,-337.5 1661,-337.5 1661,-318.5 1515,-318.5"/>
<text text-anchor="middle" x="1588" y="-325.5" font-family="Helvetica,sans-Serif" font-size="10.00" fill="#000000">Urho3D::GPUObjectHandle</text>
</a>
</g>
</g>
<!-- Node73&#45;&gt;Node32 -->
<g id="edge34" class="edge">
<title>Node73&#45;&gt;Node32</title>
<path fill="none" stroke="#9a32cd" stroke-dasharray="5,2" d="M1671.5397,-328C1702.3123,-328 1736.4138,-328 1764.2148,-328"/>
<polygon fill="#9a32cd" stroke="#9a32cd" points="1671.2454,-324.5001 1661.2453,-328 1671.2453,-331.5001 1671.2454,-324.5001"/>
<text text-anchor="middle" x="1717" y="-331" font-family="Helvetica,sans-Serif" font-size="10.00" fill="#000000"> object_</text>
</g>
<!-- Node74&#45;&gt;Node6 -->
<g id="edge35" class="edge">
<title>Node74&#45;&gt;Node6</title>
<path fill="none" stroke="#9a32cd" stroke-dasharray="5,2" d="M2184.0798,-274.9863C2181.3578,-274.6105 2178.6568,-274.2784 2176,-274 2140.6381,-270.2942 2131.3007,-269.7509 2096,-274 2085.0753,-275.315 2073.3423,-277.8215 2062.8675,-280.4672"/>
<polygon fill="#9a32cd" stroke="#9a32cd" points="2183.5697,-278.4489 2193.9874,-276.5197 2184.6404,-271.5313 2183.5697,-278.4489"/>
<text text-anchor="middle" x="2136" y="-277" font-family="Helvetica,sans-Serif" font-size="10.00" fill="#000000"> backupTexture_</text>
</g>
<!-- Node75 -->
<g id="node24" class="node">
<title>Node75</title>
<g id="a_node24"><a xlink:href="class_urho3_d_1_1_color.html" target="_top" xlink:title="RGBA color. ">
<polygon fill="none" stroke="#000000" points="1778,-65.5 1778,-84.5 1863,-84.5 1863,-65.5 1778,-65.5"/>
<text text-anchor="middle" x="1820.5" y="-72.5" font-family="Helvetica,sans-Serif" font-size="10.00" fill="#000000">Urho3D::Color</text>
</a>
</g>
</g>
<!-- Node75&#45;&gt;Node6 -->
<g id="edge37" class="edge">
<title>Node75&#45;&gt;Node6</title>
<path fill="none" stroke="#9a32cd" stroke-dasharray="5,2" d="M1836.9948,-91.8876C1878.7655,-134.6528 1987.7448,-246.2268 2020.8337,-280.1035"/>
<polygon fill="#9a32cd" stroke="#9a32cd" points="1839.2857,-89.2239 1829.7944,-84.5157 1834.278,-94.1151 1839.2857,-89.2239"/>
<text text-anchor="middle" x="1932" y="-224" font-family="Helvetica,sans-Serif" font-size="10.00" fill="#000000"> borderColor_</text>
</g>
<!-- Node75&#45;&gt;Node75 -->
<g id="edge38" class="edge">
<title>Node75&#45;&gt;Node75</title>
<path fill="none" stroke="#9a32cd" stroke-dasharray="5,2" d="M1801.612,-94.4C1802.8734,-99.3146 1809.1694,-103 1820.5,-103 1838.6289,-103 1843.8693,-93.5653 1836.2212,-84.7571"/>
<polygon fill="#9a32cd" stroke="#9a32cd" points="1804.9839,-95.3499 1804.7788,-84.7571 1798.3334,-93.1658 1804.9839,-95.3499"/>
<text text-anchor="middle" x="1820.5" y="-216" font-family="Helvetica,sans-Serif" font-size="10.00" fill="#000000"> TRANSPARENT_BLACK</text>
<text text-anchor="middle" x="1820.5" y="-205" font-family="Helvetica,sans-Serif" font-size="10.00" fill="#000000">CYAN</text>
<text text-anchor="middle" x="1820.5" y="-194" font-family="Helvetica,sans-Serif" font-size="10.00" fill="#000000">GRAY</text>
<text text-anchor="middle" x="1820.5" y="-183" font-family="Helvetica,sans-Serif" font-size="10.00" fill="#000000">YELLOW</text>
<text text-anchor="middle" x="1820.5" y="-172" font-family="Helvetica,sans-Serif" font-size="10.00" fill="#000000">MAGENTA</text>
<text text-anchor="middle" x="1820.5" y="-161" font-family="Helvetica,sans-Serif" font-size="10.00" fill="#000000">WHITE</text>
<text text-anchor="middle" x="1820.5" y="-150" font-family="Helvetica,sans-Serif" font-size="10.00" fill="#000000">BLUE</text>
<text text-anchor="middle" x="1820.5" y="-139" font-family="Helvetica,sans-Serif" font-size="10.00" fill="#000000">BLACK</text>
<text text-anchor="middle" x="1820.5" y="-128" font-family="Helvetica,sans-Serif" font-size="10.00" fill="#000000">RED</text>
<text text-anchor="middle" x="1820.5" y="-117" font-family="Helvetica,sans-Serif" font-size="10.00" fill="#000000">GREEN</text>
<text text-anchor="middle" x="1820.5" y="-106" font-family="Helvetica,sans-Serif" font-size="10.00" fill="#000000">...</text>
</g>
<!-- Node76&#45;&gt;Node2 -->
<g id="edge39" class="edge">
<title>Node76&#45;&gt;Node2</title>
<path fill="none" stroke="#9a32cd" stroke-dasharray="5,2" d="M863.275,-372.6858C917.8074,-375.1131 982.6735,-378.0003 1029.8873,-380.1018"/>
<polygon fill="#9a32cd" stroke="#9a32cd" points="863.3652,-369.1865 853.2194,-372.2383 863.0538,-376.1795 863.3652,-369.1865"/>
<text text-anchor="middle" x="941.5" y="-381" font-family="Helvetica,sans-Serif" font-size="10.00" fill="#000000"> viewports_</text>
</g>
</g>
</svg>
        <g id="navigator" transform="translate(0 0)" fill="#404254">
                <rect fill="#f2f5e9" fill-opacity="0.5" stroke="#606060" stroke-width=".5" x="0" y="0" width="60" height="60"/>
                <use id="zoomplus" xlink:href="#zoomPlus" x="17" y="9" onmousedown="handleZoom(evt,'in')"/>
                <use id="zoomminus" xlink:href="#zoomMin" x="42" y="9" onmousedown="handleZoom(evt,'out')"/>
                <use id="reset" xlink:href="#resetDef" x="30" y="36" onmousedown="handleReset()"/>
                <g id="arrowUp" xlink:href="#dirArrow" transform="translate(30 24)" onmousedown="handlePan(0,-1)">
                  <use xlink:href="#rim" fill="#404040">
                        <set attributeName="fill" to="#808080" begin="arrowUp.mouseover" end="arrowUp.mouseout"/>
                  </use>
                  <path fill="none" stroke="white" stroke-width="1.5" d="M0,-3.0v7 M-2.5,-0.5L0,-3.0L2.5,-0.5"/>
                </g>
                <g id="arrowRight" xlink:href="#dirArrow" transform="rotate(90) translate(36 -43)" onmousedown="handlePan(1,0)">
                  <use xlink:href="#rim" fill="#404040">
                        <set attributeName="fill" to="#808080" begin="arrowRight.mouseover" end="arrowRight.mouseout"/>
                  </use>
                  <path fill="none" stroke="white" stroke-width="1.5" d="M0,-3.0v7 M-2.5,-0.5L0,-3.0L2.5,-0.5"/>
                </g>
                <g id="arrowDown" xlink:href="#dirArrow" transform="rotate(180) translate(-30 -48)" onmousedown="handlePan(0,1)">
                  <use xlink:href="#rim" fill="#404040">
                        <set attributeName="fill" to="#808080" begin="arrowDown.mouseover" end="arrowDown.mouseout"/>
                  </use>
                  <path fill="none" stroke="white" stroke-width="1.5" d="M0,-3.0v7 M-2.5,-0.5L0,-3.0L2.5,-0.5"/>
                </g>
                <g id="arrowLeft" xlink:href="#dirArrow" transform="rotate(270) translate(-36 17)" onmousedown="handlePan(-1,0)">
                  <use xlink:href="#rim" fill="#404040">
                        <set attributeName="fill" to="#808080" begin="arrowLeft.mouseover" end="arrowLeft.mouseout"/>
                  </use>
                  <path fill="none" stroke="white" stroke-width="1.5" d="M0,-3.0v7 M-2.5,-0.5L0,-3.0L2.5,-0.5"/>
                </g>
        </g>
        <svg viewBox="0 0 15 15" width="100%" height="30px" preserveAspectRatio="xMaxYMin meet">
         <g id="arrow_out" transform="scale(0.3 0.3)">
          <a xlink:href="class_urho3_d_1_1_render_surface__coll__graph_org.svg" target="_base">
           <rect id="button" ry="5" rx="5" y="6" x="6" height="38" width="38"
                fill="#f2f5e9" fill-opacity="0.5" stroke="#606060" stroke-width="1.0"/>
           <path id="arrow"
             d="M 11.500037,31.436501 C 11.940474,20.09759 22.043105,11.32322 32.158766,21.979434 L 37.068811,17.246167 C 37.068811,17.246167 37.088388,32 37.088388,32 L 22.160133,31.978069 C 22.160133,31.978069 26.997745,27.140456 26.997745,27.140456 C 18.528582,18.264221 13.291696,25.230495 11.500037,31.436501 z"
             style="fill:#404040;"/>
          </a>
         </g>
        </svg>
</svg>
