<?xml version="1.0" encoding="UTF-8" standalone="no"?>
<!DOCTYPE svg PUBLIC "-//W3C//DTD SVG 1.1//EN"
 "http://www.w3.org/Graphics/SVG/1.1/DTD/svg11.dtd">
<!-- Generated by graphviz version 2.26.3 (20100126.1600)
 -->
<!-- Title: Urho3D::Animation Pages: 1 -->
<!--zoomable 1044 -->
<svg id="main" version="1.1" xmlns="http://www.w3.org/2000/svg" xmlns:xlink="http://www.w3.org/1999/xlink" xml:space="preserve" onload="init(evt)">
        <defs>
                <circle id="rim" cx="0" cy="0" r="7"/>
                <circle id="rim2" cx="0" cy="0" r="3.5"/>
                <g id="zoomPlus">
                        <use xlink:href="#rim" fill="#404040">
                                <set attributeName="fill" to="#808080" begin="zoomplus.mouseover" end="zoomplus.mouseout"/>
                        </use>
                        <path d="M-4,0h8M0,-4v8" fill="none" stroke="white" stroke-width="1.5" pointer-events="none"/>
                </g>
                <g id="zoomMin">
                        <use xlink:href="#rim" fill="#404040">
                                <set attributeName="fill" to="#808080" begin="zoomminus.mouseover" end="zoomminus.mouseout"/>
                        </use>
                        <path d="M-4,0h8" fill="none" stroke="white" stroke-width="1.5" pointer-events="none"/>
                </g>
                <g id="dirArrow">
                        <path fill="none" stroke="white" stroke-width="1.5" d="M0,-3.0v7 M-2.5,-0.5L0,-3.0L2.5,-0.5"/>
                </g>
               <g id="resetDef">
                       <use xlink:href="#rim2" fill="#404040">
                               <set attributeName="fill" to="#808080" begin="reset.mouseover" end="reset.mouseout"/>
                       </use>
               </g>
        </defs>

<script type="text/javascript">
var viewWidth = 1132;
var viewHeight = 1044;
var sectionId = 'dynsection-1';
</script>
<script xlink:href="svgpan.js"/>
<svg id="graph" class="graph">
<g id="viewport">
<title>Urho3D::Animation</title>
<!-- Node1 -->
<g id="node1" class="node"><title>Node1</title>
<polygon fill="#bfbfbf" stroke="black" points="997,-884.5 997,-905.5 1105,-905.5 1105,-884.5 997,-884.5"/>
<text text-anchor="middle" x="1051" y="-892.5" font-family="FreeSans" font-size="10.00">Urho3D::Animation</text>
</g>
<!-- Node2 -->
<g id="node2" class="node"><title>Node2</title>
<a xlink:href="class_urho3_d_1_1_resource.html" target="_top" xlink:title="Base class for resources.">
<polygon fill="none" stroke="black" points="671.5,-884.5 671.5,-905.5 774.5,-905.5 774.5,-884.5 671.5,-884.5"/>
<text text-anchor="middle" x="723" y="-892.5" font-family="FreeSans" font-size="10.00">Urho3D::Resource</text>
</a>
</g>
<!-- Node2&#45;&gt;Node1 -->
<g id="edge2" class="edge"><title>Node2&#45;&gt;Node1</title>
<path fill="none" stroke="midnightblue" d="M784.897,-895C846.06,-895 938.688,-895 996.964,-895"/>
<polygon fill="midnightblue" stroke="midnightblue" points="784.611,-891.5 774.611,-895 784.611,-898.5 784.611,-891.5"/>
</g>
<!-- Node3 -->
<g id="node4" class="node"><title>Node3</title>
<a xlink:href="class_urho3_d_1_1_object.html" target="_top" xlink:title="Base class for objects with type identification, subsystem access and event sending/receiving capabil...">
<polygon fill="none" stroke="black" points="420,-710.5 420,-731.5 510,-731.5 510,-710.5 420,-710.5"/>
<text text-anchor="middle" x="465" y="-718.5" font-family="FreeSans" font-size="10.00">Urho3D::Object</text>
</a>
</g>
<!-- Node3&#45;&gt;Node2 -->
<g id="edge4" class="edge"><title>Node3&#45;&gt;Node2</title>
<path fill="none" stroke="midnightblue" d="M476.055,-740.462C488.994,-761.743 512.224,-795.653 540,-817 583.677,-850.567 643.967,-872.585 683.213,-884.415"/>
<polygon fill="midnightblue" stroke="midnightblue" points="478.956,-738.491 470.855,-731.663 472.93,-742.053 478.956,-738.491"/>
</g>
<!-- Node9 -->
<g id="node17" class="node"><title>Node9</title>
<a xlink:href="class_urho3_d_1_1_event_handler.html" target="_top" xlink:title="Internal helper class for invoking event handler functions.">
<polygon fill="none" stroke="red" points="661,-803.5 661,-824.5 785,-824.5 785,-803.5 661,-803.5"/>
<text text-anchor="middle" x="723" y="-811.5" font-family="FreeSans" font-size="10.00">Urho3D::EventHandler</text>
</a>
</g>
<!-- Node3&#45;&gt;Node9 -->
<g id="edge20" class="edge"><title>Node3&#45;&gt;Node9</title>
<path fill="none" stroke="#9a32cd" stroke-dasharray="5,2" d="M504.164,-735.117C556.27,-753.9 647.214,-786.682 693.749,-803.456"/>
<polygon fill="#9a32cd" stroke="#9a32cd" points="505.19,-731.767 494.596,-731.668 502.816,-738.352 505.19,-731.767"/>
<text text-anchor="middle" x="571" y="-788" font-family="FreeSans" font-size="10.00"> sender_</text>
<text text-anchor="middle" x="571" y="-775" font-family="FreeSans" font-size="10.00">receiver_</text>
</g>
<!-- Node4 -->
<g id="node6" class="node"><title>Node4</title>
<a xlink:href="class_urho3_d_1_1_ref_counted.html" target="_top" xlink:title="Base class for intrusively reference&#45;counted objects. These are noncopyable and non&#45;assignable.">
<polygon fill="none" stroke="black" points="198,-593.5 198,-614.5 312,-614.5 312,-593.5 198,-593.5"/>
<text text-anchor="middle" x="255" y="-601.5" font-family="FreeSans" font-size="10.00">Urho3D::RefCounted</text>
</a>
</g>
<!-- Node4&#45;&gt;Node3 -->
<g id="edge6" class="edge"><title>Node4&#45;&gt;Node3</title>
<path fill="none" stroke="midnightblue" d="M282.883,-619.535C326.225,-643.683 408.643,-689.601 445.885,-710.35"/>
<polygon fill="midnightblue" stroke="midnightblue" points="284.446,-616.399 274.006,-614.589 281.039,-622.514 284.446,-616.399"/>
</g>
<!-- Node6 -->
<g id="node10" class="node"><title>Node6</title>
<a xlink:href="class_urho3_d_1_1_context.html" target="_top" xlink:title="Urho3D execution context. Provides access to subsystems, object factories and attributes, and event receivers.">
<polygon fill="none" stroke="red" points="1002.5,-341.5 1002.5,-362.5 1099.5,-362.5 1099.5,-341.5 1002.5,-341.5"/>
<text text-anchor="middle" x="1051" y="-349.5" font-family="FreeSans" font-size="10.00">Urho3D::Context</text>
</a>
</g>
<!-- Node4&#45;&gt;Node6 -->
<g id="edge12" class="edge"><title>Node4&#45;&gt;Node6</title>
<path fill="none" stroke="midnightblue" d="M322.661,-598.743C452.404,-588.338 731.667,-564.281 826,-543 887.565,-529.111 910.62,-535.305 960,-496 1007.2,-458.428 1036.96,-389.295 1047.1,-362.76"/>
<polygon fill="midnightblue" stroke="midnightblue" points="322.145,-595.273 312.456,-599.558 322.703,-602.251 322.145,-595.273"/>
</g>
<!-- Node5 -->
<g id="node8" class="node"><title>Node5</title>
<a xlink:href="struct_urho3_d_1_1_ref_count.html" target="_top" xlink:title="Reference count structure.">
<polygon fill="none" stroke="black" points="0,-593.5 0,-614.5 102,-614.5 102,-593.5 0,-593.5"/>
<text text-anchor="middle" x="51" y="-601.5" font-family="FreeSans" font-size="10.00">Urho3D::RefCount</text>
</a>
</g>
<!-- Node5&#45;&gt;Node4 -->
<g id="edge8" class="edge"><title>Node5&#45;&gt;Node4</title>
<path fill="none" stroke="#9a32cd" stroke-dasharray="5,2" d="M112.345,-604C139.414,-604 171.051,-604 197.643,-604"/>
<polygon fill="#9a32cd" stroke="#9a32cd" points="112.215,-600.5 102.214,-604 112.214,-607.5 112.215,-600.5"/>
<text text-anchor="middle" x="145" y="-608" font-family="FreeSans" font-size="10.00"> refCount_</text>
</g>
<!-- Node6&#45;&gt;Node3 -->
<g id="edge10" class="edge"><title>Node6&#45;&gt;Node3</title>
<path fill="none" stroke="#9a32cd" stroke-dasharray="5,2" d="M1039.34,-371.297C1024.02,-395.067 994.914,-435.102 960,-458 827.751,-544.733 755.055,-480.706 620,-563 552.075,-604.39 492.655,-682.149 472.396,-710.399"/>
<polygon fill="#9a32cd" stroke="#9a32cd" points="1042.35,-373.099 1044.7,-362.769 1036.42,-369.377 1042.35,-373.099"/>
<text text-anchor="middle" x="723" y="-567" font-family="FreeSans" font-size="10.00"> context_</text>
</g>
<!-- Node7 -->
<g id="node13" class="node"><title>Node7</title>
<a xlink:href="class_urho3_d_1_1_p_o_d_vector.html" target="_top" xlink:title="Urho3D::PODVector\&lt;\l Urho3D::Object * \&gt;">
<polygon fill="none" stroke="black" points="663.5,-394 663.5,-428 782.5,-428 782.5,-394 663.5,-394"/>
<text text-anchor="start" x="671.5" y="-415" font-family="FreeSans" font-size="10.00">Urho3D::PODVector&lt;</text>
<text text-anchor="middle" x="723" y="-402" font-family="FreeSans" font-size="10.00"> Urho3D::Object * &gt;</text>
</a>
</g>
<!-- Node7&#45;&gt;Node6 -->
<g id="edge14" class="edge"><title>Node7&#45;&gt;Node6</title>
<path fill="none" stroke="#9a32cd" stroke-dasharray="5,2" d="M793.045,-398.763C840.243,-390.474 903.889,-379.213 960,-369 973.757,-366.496 988.673,-363.731 1002.37,-361.171"/>
<polygon fill="#9a32cd" stroke="#9a32cd" points="792.175,-395.362 782.931,-400.538 793.385,-402.257 792.175,-395.362"/>
<text text-anchor="middle" x="902" y="-393" font-family="FreeSans" font-size="10.00"> eventSenders_</text>
</g>
<!-- Node8 -->
<g id="node15" class="node"><title>Node8</title>
<a xlink:href="class_urho3_d_1_1_vector_base.html" target="_top" xlink:title="Vector base class.">
<polygon fill="none" stroke="black" points="408,-452.5 408,-473.5 522,-473.5 522,-452.5 408,-452.5"/>
<text text-anchor="middle" x="465" y="-460.5" font-family="FreeSans" font-size="10.00">Urho3D::VectorBase</text>
</a>
</g>
<!-- Node8&#45;&gt;Node7 -->
<g id="edge16" class="edge"><title>Node8&#45;&gt;Node7</title>
<path fill="none" stroke="midnightblue" d="M527.153,-450.473C568.451,-442.149 622.378,-431.28 663.187,-423.055"/>
<polygon fill="midnightblue" stroke="midnightblue" points="526.321,-447.07 517.21,-452.477 527.705,-453.932 526.321,-447.07"/>
</g>
<!-- Node18 -->
<g id="node42" class="node"><title>Node18</title>
<a xlink:href="class_urho3_d_1_1_p_o_d_vector.html" target="_top" xlink:title="Urho3D::PODVector\&lt;\l Urho3D::HashMap * \&gt;">
<polygon fill="none" stroke="black" points="659.5,-446 659.5,-480 786.5,-480 786.5,-446 659.5,-446"/>
<text text-anchor="start" x="667.5" y="-467" font-family="FreeSans" font-size="10.00">Urho3D::PODVector&lt;</text>
<text text-anchor="middle" x="723" y="-454" font-family="FreeSans" font-size="10.00"> Urho3D::HashMap * &gt;</text>
</a>
</g>
<!-- Node8&#45;&gt;Node18 -->
<g id="edge52" class="edge"><title>Node8&#45;&gt;Node18</title>
<path fill="none" stroke="midnightblue" d="M532.497,-463C571.625,-463 620.608,-463 659.106,-463"/>
<polygon fill="midnightblue" stroke="midnightblue" points="532.259,-459.5 522.259,-463 532.259,-466.5 532.259,-459.5"/>
</g>
<!-- Node24 -->
<g id="node60" class="node"><title>Node24</title>
<a xlink:href="class_urho3_d_1_1_vector.html" target="_top" xlink:title="Urho3D::Vector\&lt; Urho3D\l::AnimationTriggerPoint \&gt;">
<polygon fill="none" stroke="black" points="654,-651 654,-685 792,-685 792,-651 654,-651"/>
<text text-anchor="start" x="662" y="-672" font-family="FreeSans" font-size="10.00">Urho3D::Vector&lt; Urho3D</text>
<text text-anchor="middle" x="723" y="-659" font-family="FreeSans" font-size="10.00">::AnimationTriggerPoint &gt;</text>
</a>
</g>
<!-- Node8&#45;&gt;Node24 -->
<g id="edge76" class="edge"><title>Node8&#45;&gt;Node24</title>
<path fill="none" stroke="midnightblue" d="M470.449,-483.686C479.711,-515.063 501.382,-574.756 540,-610 571.141,-638.421 616.19,-652.916 653.798,-660.308"/>
<polygon fill="midnightblue" stroke="midnightblue" points="473.76,-482.533 467.683,-473.855 467.022,-484.429 473.76,-482.533"/>
</g>
<!-- Node9&#45;&gt;Node6 -->
<g id="edge18" class="edge"><title>Node9&#45;&gt;Node6</title>
<path fill="none" stroke="#9a32cd" stroke-dasharray="5,2" d="M795.427,-820.376C855.926,-824.041 936.028,-824.486 960,-804 977.647,-788.919 1038.05,-429.95 1049.22,-362.775"/>
<polygon fill="#9a32cd" stroke="#9a32cd" points="795.343,-816.863 785.138,-819.711 794.892,-823.849 795.343,-816.863"/>
<text text-anchor="middle" x="902" y="-827" font-family="FreeSans" font-size="10.00"> eventHandler_</text>
</g>
<!-- Node21 -->
<g id="node51" class="node"><title>Node21</title>
<a xlink:href="class_urho3_d_1_1_linked_list.html" target="_top" xlink:title="Urho3D::LinkedList\l\&lt; Urho3D::EventHandler \&gt;">
<polygon fill="none" stroke="black" points="978,-771 978,-805 1124,-805 1124,-771 978,-771"/>
<text text-anchor="start" x="986" y="-792" font-family="FreeSans" font-size="10.00">Urho3D::LinkedList</text>
<text text-anchor="middle" x="1051" y="-779" font-family="FreeSans" font-size="10.00">&lt; Urho3D::EventHandler &gt;</text>
</a>
</g>
<!-- Node9&#45;&gt;Node21 -->
<g id="edge64" class="edge"><title>Node9&#45;&gt;Node21</title>
<path fill="none" stroke="#9a32cd" stroke-dasharray="5,2" d="M763.896,-827.42C811.68,-841.064 892.771,-857.854 960,-840 985.5,-833.228 1011.31,-817.445 1028.89,-805.031"/>
<polygon fill="#9a32cd" stroke="#9a32cd" points="764.803,-824.039 754.222,-824.57 762.825,-830.754 764.803,-824.039"/>
<text text-anchor="middle" x="902" y="-852" font-family="FreeSans" font-size="10.00"> head_</text>
</g>
<!-- Node10 -->
<g id="node20" class="node"><title>Node10</title>
<a xlink:href="class_urho3_d_1_1_string_hash.html" target="_top" xlink:title="32&#45;bit hash value for a string.">
<polygon fill="none" stroke="black" points="408.5,-893.5 408.5,-914.5 521.5,-914.5 521.5,-893.5 408.5,-893.5"/>
<text text-anchor="middle" x="465" y="-901.5" font-family="FreeSans" font-size="10.00">Urho3D::StringHash</text>
</a>
</g>
<!-- Node10&#45;&gt;Node1 -->
<g id="edge84" class="edge"><title>Node10&#45;&gt;Node1</title>
<path fill="none" stroke="#9a32cd" stroke-dasharray="5,2" d="M485.349,-920.784C499.66,-931.454 519.791,-944.296 540,-950 566.52,-957.485 574.489,-951.57 602,-950 745.288,-941.822 912.812,-917.291 996.949,-903.923"/>
<polygon fill="#9a32cd" stroke="#9a32cd" points="487.292,-917.862 477.243,-914.505 483.005,-923.396 487.292,-917.862"/>
<text text-anchor="middle" x="723" y="-953" font-family="FreeSans" font-size="10.00"> animationNameHash_</text>
</g>
<!-- Node10&#45;&gt;Node2 -->
<g id="edge72" class="edge"><title>Node10&#45;&gt;Node2</title>
<path fill="none" stroke="#9a32cd" stroke-dasharray="5,2" d="M531.718,-901.306C534.516,-901.201 537.286,-901.099 540,-901 584.315,-899.387 634.673,-897.751 671.33,-896.595"/>
<polygon fill="#9a32cd" stroke="#9a32cd" points="531.372,-897.817 521.512,-901.696 531.639,-904.812 531.372,-897.817"/>
<text text-anchor="middle" x="571" y="-905" font-family="FreeSans" font-size="10.00"> nameHash_</text>
</g>
<!-- Node10&#45;&gt;Node9 -->
<g id="edge22" class="edge"><title>Node10&#45;&gt;Node9</title>
<path fill="none" stroke="#9a32cd" stroke-dasharray="5,2" d="M514.68,-888.895C517.248,-887.406 519.709,-885.779 522,-884 533.392,-875.156 528.152,-865.224 540,-857 575.389,-832.435 622.937,-821.77 660.697,-817.202"/>
<polygon fill="#9a32cd" stroke="#9a32cd" points="512.997,-885.824 505.63,-893.438 516.137,-892.08 512.997,-885.824"/>
<text text-anchor="middle" x="571" y="-861" font-family="FreeSans" font-size="10.00"> eventType_</text>
</g>
<!-- Node10&#45;&gt;Node10 -->
<g id="edge24" class="edge"><title>Node10&#45;&gt;Node10</title>
<path fill="none" stroke="#9a32cd" stroke-dasharray="5,2" d="M446.571,-924.427C447.993,-929.349 454.136,-933 465,-933 482.383,-933 487.679,-923.653 480.889,-914.708"/>
<polygon fill="#9a32cd" stroke="#9a32cd" points="449.969,-925.268 449.111,-914.708 443.196,-923.498 449.969,-925.268"/>
<text text-anchor="middle" x="465" y="-937" font-family="FreeSans" font-size="10.00"> ZERO</text>
</g>
<!-- Node11 -->
<g id="node23" class="node"><title>Node11</title>
<a xlink:href="class_urho3_d_1_1_hash_map.html" target="_top" xlink:title="Urho3D::HashMap\&lt; Urho3D\l::StringHash, Urho3D::\lHashSet\&lt; Urho3D::Object * \&gt; \&gt;">
<polygon fill="none" stroke="black" points="636.5,-262.5 636.5,-309.5 809.5,-309.5 809.5,-262.5 636.5,-262.5"/>
<text text-anchor="start" x="644.5" y="-296.5" font-family="FreeSans" font-size="10.00">Urho3D::HashMap&lt; Urho3D</text>
<text text-anchor="start" x="644.5" y="-283.5" font-family="FreeSans" font-size="10.00">::StringHash, Urho3D::</text>
<text text-anchor="middle" x="723" y="-270.5" font-family="FreeSans" font-size="10.00">HashSet&lt; Urho3D::Object * &gt; &gt;</text>
</a>
</g>
<!-- Node11&#45;&gt;Node6 -->
<g id="edge26" class="edge"><title>Node11&#45;&gt;Node6</title>
<path fill="none" stroke="#9a32cd" stroke-dasharray="5,2" d="M819.486,-305.415C879.492,-317.489 954.107,-332.503 1002.14,-342.168"/>
<polygon fill="#9a32cd" stroke="#9a32cd" points="820.101,-301.969 809.607,-303.427 818.72,-308.831 820.101,-301.969"/>
<text text-anchor="middle" x="902" y="-337" font-family="FreeSans" font-size="10.00"> eventReceivers_</text>
</g>
<!-- Node12 -->
<g id="node25" class="node"><title>Node12</title>
<a xlink:href="class_urho3_d_1_1_hash_base.html" target="_top" xlink:title="Hash set/map base class.">
<polygon fill="none" stroke="black" points="411,-216.5 411,-237.5 519,-237.5 519,-216.5 411,-216.5"/>
<text text-anchor="middle" x="465" y="-224.5" font-family="FreeSans" font-size="10.00">Urho3D::HashBase</text>
</a>
</g>
<!-- Node12&#45;&gt;Node11 -->
<g id="edge28" class="edge"><title>Node12&#45;&gt;Node11</title>
<path fill="none" stroke="midnightblue" d="M521.238,-239.861C554.892,-247.557 598.365,-257.498 636.334,-266.181"/>
<polygon fill="midnightblue" stroke="midnightblue" points="521.654,-236.365 511.125,-237.548 520.093,-243.189 521.654,-236.365"/>
</g>
<!-- Node15 -->
<g id="node33" class="node"><title>Node15</title>
<a xlink:href="class_urho3_d_1_1_hash_map.html" target="_top" xlink:title="Urho3D::HashMap\&lt; StringHash,\l Variant \&gt;">
<polygon fill="none" stroke="black" points="637,-210 637,-244 809,-244 809,-210 637,-210"/>
<text text-anchor="start" x="645" y="-231" font-family="FreeSans" font-size="10.00">Urho3D::HashMap&lt; StringHash,</text>
<text text-anchor="middle" x="723" y="-218" font-family="FreeSans" font-size="10.00"> Variant &gt;</text>
</a>
</g>
<!-- Node12&#45;&gt;Node15 -->
<g id="edge40" class="edge"><title>Node12&#45;&gt;Node15</title>
<path fill="none" stroke="midnightblue" d="M529.376,-227C561.92,-227 601.862,-227 636.999,-227"/>
<polygon fill="midnightblue" stroke="midnightblue" points="529.085,-223.5 519.085,-227 529.085,-230.5 529.085,-223.5"/>
</g>
<!-- Node16 -->
<g id="node36" class="node"><title>Node16</title>
<a xlink:href="class_urho3_d_1_1_hash_map.html" target="_top" xlink:title="Urho3D::HashMap\&lt; Urho3D\l::Object *, Urho3D::HashMap\l\&lt; Urho3D::StringHash, Urho3D\l::HashSet\&lt; Urho3D::Object * \&gt; \&gt; \&gt;">
<polygon fill="none" stroke="black" points="627.5,-132 627.5,-192 818.5,-192 818.5,-132 627.5,-132"/>
<text text-anchor="start" x="635.5" y="-179" font-family="FreeSans" font-size="10.00">Urho3D::HashMap&lt; Urho3D</text>
<text text-anchor="start" x="635.5" y="-166" font-family="FreeSans" font-size="10.00">::Object *, Urho3D::HashMap</text>
<text text-anchor="start" x="635.5" y="-153" font-family="FreeSans" font-size="10.00">&lt; Urho3D::StringHash, Urho3D</text>
<text text-anchor="middle" x="723" y="-140" font-family="FreeSans" font-size="10.00">::HashSet&lt; Urho3D::Object * &gt; &gt; &gt;</text>
</a>
</g>
<!-- Node12&#45;&gt;Node16 -->
<g id="edge44" class="edge"><title>Node12&#45;&gt;Node16</title>
<path fill="none" stroke="midnightblue" d="M516.669,-213.983C548.376,-205.994 589.962,-195.517 627.487,-186.063"/>
<polygon fill="midnightblue" stroke="midnightblue" points="515.581,-210.647 506.739,-216.484 517.291,-217.435 515.581,-210.647"/>
</g>
<!-- Node17 -->
<g id="node39" class="node"><title>Node17</title>
<a xlink:href="class_urho3_d_1_1_hash_map.html" target="_top" xlink:title="Urho3D::HashMap\&lt; Urho3D\l::StringHash, Urho3D::\lSharedPtr\&lt; Urho3D::Object \&gt; \&gt;">
<polygon fill="none" stroke="black" points="637,-66.5 637,-113.5 809,-113.5 809,-66.5 637,-66.5"/>
<text text-anchor="start" x="645" y="-100.5" font-family="FreeSans" font-size="10.00">Urho3D::HashMap&lt; Urho3D</text>
<text text-anchor="start" x="645" y="-87.5" font-family="FreeSans" font-size="10.00">::StringHash, Urho3D::</text>
<text text-anchor="middle" x="723" y="-74.5" font-family="FreeSans" font-size="10.00">SharedPtr&lt; Urho3D::Object &gt; &gt;</text>
</a>
</g>
<!-- Node12&#45;&gt;Node17 -->
<g id="edge48" class="edge"><title>Node12&#45;&gt;Node17</title>
<path fill="none" stroke="midnightblue" d="M486,-210.083C514.764,-187.593 568.711,-147.808 620,-123 627.015,-119.607 634.462,-116.447 642.018,-113.533"/>
<polygon fill="midnightblue" stroke="midnightblue" points="483.59,-207.526 477.912,-216.471 487.929,-213.019 483.59,-207.526"/>
</g>
<!-- Node19 -->
<g id="node45" class="node"><title>Node19</title>
<a xlink:href="class_urho3_d_1_1_hash_map.html" target="_top" xlink:title="Urho3D::HashMap\&lt; Urho3D\l::StringHash, Urho3D::\lSharedPtr\&lt; Urho3D::ObjectFactory \&gt; \&gt;">
<polygon fill="none" stroke="black" points="620,-328.5 620,-375.5 826,-375.5 826,-328.5 620,-328.5"/>
<text text-anchor="start" x="628" y="-362.5" font-family="FreeSans" font-size="10.00">Urho3D::HashMap&lt; Urho3D</text>
<text text-anchor="start" x="628" y="-349.5" font-family="FreeSans" font-size="10.00">::StringHash, Urho3D::</text>
<text text-anchor="middle" x="723" y="-336.5" font-family="FreeSans" font-size="10.00">SharedPtr&lt; Urho3D::ObjectFactory &gt; &gt;</text>
</a>
</g>
<!-- Node12&#45;&gt;Node19 -->
<g id="edge56" class="edge"><title>Node12&#45;&gt;Node19</title>
<path fill="none" stroke="midnightblue" d="M488.631,-243.331C518.264,-263.258 571.122,-297.005 620,-319 627.449,-322.352 635.34,-325.518 643.308,-328.463"/>
<polygon fill="midnightblue" stroke="midnightblue" points="490.451,-240.337 480.211,-237.619 486.521,-246.13 490.451,-240.337"/>
</g>
<!-- Node20 -->
<g id="node48" class="node"><title>Node20</title>
<a xlink:href="class_urho3_d_1_1_hash_map.html" target="_top" xlink:title="Urho3D::HashMap\&lt; Urho3D\l::String, Urho3D::Vector\l\&lt; Urho3D::StringHash \&gt; \&gt;">
<polygon fill="none" stroke="black" points="647,-0.5 647,-47.5 799,-47.5 799,-0.5 647,-0.5"/>
<text text-anchor="start" x="655" y="-34.5" font-family="FreeSans" font-size="10.00">Urho3D::HashMap&lt; Urho3D</text>
<text text-anchor="start" x="655" y="-21.5" font-family="FreeSans" font-size="10.00">::String, Urho3D::Vector</text>
<text text-anchor="middle" x="723" y="-8.5" font-family="FreeSans" font-size="10.00">&lt; Urho3D::StringHash &gt; &gt;</text>
</a>
</g>
<!-- Node12&#45;&gt;Node20 -->
<g id="edge60" class="edge"><title>Node12&#45;&gt;Node20</title>
<path fill="none" stroke="midnightblue" d="M476.852,-207.604C499.778,-171.836 553.818,-95.6222 620,-57 628.352,-52.1259 637.512,-47.8773 646.817,-44.1999"/>
<polygon fill="midnightblue" stroke="midnightblue" points="473.827,-205.84 471.465,-216.168 479.752,-209.567 473.827,-205.84"/>
</g>
<!-- Node25 -->
<g id="node63" class="node"><title>Node25</title>
<a xlink:href="class_urho3_d_1_1_hash_map.html" target="_top" xlink:title="Urho3D::HashMap\&lt; Urho3D\l::StringHash, Urho3D::\lAnimationTrack \&gt;">
<polygon fill="none" stroke="black" points="647,-585.5 647,-632.5 799,-632.5 799,-585.5 647,-585.5"/>
<text text-anchor="start" x="655" y="-619.5" font-family="FreeSans" font-size="10.00">Urho3D::HashMap&lt; Urho3D</text>
<text text-anchor="start" x="655" y="-606.5" font-family="FreeSans" font-size="10.00">::StringHash, Urho3D::</text>
<text text-anchor="middle" x="723" y="-593.5" font-family="FreeSans" font-size="10.00">AnimationTrack &gt;</text>
</a>
</g>
<!-- Node12&#45;&gt;Node25 -->
<g id="edge80" class="edge"><title>Node12&#45;&gt;Node25</title>
<path fill="none" stroke="midnightblue" d="M471.518,-247.199C488.999,-299.102 541.018,-439.606 620,-533 637.507,-553.702 661.72,-571.933 682.272,-585.346"/>
<polygon fill="midnightblue" stroke="midnightblue" points="474.778,-245.912 468.314,-237.517 468.133,-248.11 474.778,-245.912"/>
</g>
<!-- Node13 -->
<g id="node27" class="node"><title>Node13</title>
<a xlink:href="struct_urho3_d_1_1_hash_node_base.html" target="_top" xlink:title="Hash set/map node base class.">
<polygon fill="none" stroke="black" points="188,-251.5 188,-272.5 322,-272.5 322,-251.5 188,-251.5"/>
<text text-anchor="middle" x="255" y="-259.5" font-family="FreeSans" font-size="10.00">Urho3D::HashNodeBase</text>
</a>
</g>
<!-- Node13&#45;&gt;Node12 -->
<g id="edge30" class="edge"><title>Node13&#45;&gt;Node12</title>
<path fill="none" stroke="#9a32cd" stroke-dasharray="5,2" d="M327.895,-249.851C355.169,-245.305 385.641,-240.227 410.918,-236.014"/>
<polygon fill="#9a32cd" stroke="#9a32cd" points="327.295,-246.402 318.007,-251.499 328.446,-253.307 327.295,-246.402"/>
<text text-anchor="middle" x="365" y="-278" font-family="FreeSans" font-size="10.00"> ptrs_</text>
<text text-anchor="middle" x="365" y="-265" font-family="FreeSans" font-size="10.00">tail_</text>
<text text-anchor="middle" x="365" y="-252" font-family="FreeSans" font-size="10.00">head_</text>
</g>
<!-- Node13&#45;&gt;Node13 -->
<g id="edge32" class="edge"><title>Node13&#45;&gt;Node13</title>
<path fill="none" stroke="#9a32cd" stroke-dasharray="5,2" d="M234.728,-282.427C236.292,-287.349 243.049,-291 255,-291 274.121,-291 279.947,-281.653 272.478,-272.708"/>
<polygon fill="#9a32cd" stroke="#9a32cd" points="238.123,-283.286 237.522,-272.708 231.395,-281.352 238.123,-283.286"/>
<text text-anchor="middle" x="255" y="-321" font-family="FreeSans" font-size="10.00"> next_</text>
<text text-anchor="middle" x="255" y="-308" font-family="FreeSans" font-size="10.00">prev_</text>
<text text-anchor="middle" x="255" y="-295" font-family="FreeSans" font-size="10.00">down_</text>
</g>
<!-- Node14 -->
<g id="node30" class="node"><title>Node14</title>
<a xlink:href="struct_urho3_d_1_1_allocator_block.html" target="_top" xlink:title="Allocator memory block.">
<polygon fill="none" stroke="red" points="191.5,-180.5 191.5,-201.5 318.5,-201.5 318.5,-180.5 191.5,-180.5"/>
<text text-anchor="middle" x="255" y="-188.5" font-family="FreeSans" font-size="10.00">Urho3D::AllocatorBlock</text>
</a>
</g>
<!-- Node14&#45;&gt;Node12 -->
<g id="edge34" class="edge"><title>Node14&#45;&gt;Node12</title>
<path fill="none" stroke="#9a32cd" stroke-dasharray="5,2" d="M326.307,-203.224C353.927,-207.959 385.026,-213.29 410.765,-217.703"/>
<polygon fill="#9a32cd" stroke="#9a32cd" points="326.753,-199.75 316.305,-201.509 325.57,-206.649 326.753,-199.75"/>
<text text-anchor="middle" x="365" y="-218" font-family="FreeSans" font-size="10.00"> allocator_</text>
</g>
<!-- Node14&#45;&gt;Node14 -->
<g id="edge36" class="edge"><title>Node14&#45;&gt;Node14</title>
<path fill="none" stroke="#9a32cd" stroke-dasharray="5,2" d="M234.728,-211.427C236.292,-216.349 243.049,-220 255,-220 274.121,-220 279.947,-210.653 272.478,-201.708"/>
<polygon fill="#9a32cd" stroke="#9a32cd" points="238.123,-212.286 237.522,-201.708 231.395,-210.352 238.123,-212.286"/>
<text text-anchor="middle" x="255" y="-224" font-family="FreeSans" font-size="10.00"> next_</text>
</g>
<!-- Node15&#45;&gt;Node6 -->
<g id="edge38" class="edge"><title>Node15&#45;&gt;Node6</title>
<path fill="none" stroke="#9a32cd" stroke-dasharray="5,2" d="M814.736,-246.397C859.68,-257.618 913.908,-273.768 960,-295 988.615,-308.181 1019.11,-328.8 1036.53,-341.292"/>
<polygon fill="#9a32cd" stroke="#9a32cd" points="815.546,-242.991 805,-244.006 813.877,-249.79 815.546,-242.991"/>
<text text-anchor="middle" x="902" y="-299" font-family="FreeSans" font-size="10.00"> globalVars_</text>
</g>
<!-- Node16&#45;&gt;Node6 -->
<g id="edge42" class="edge"><title>Node16&#45;&gt;Node6</title>
<path fill="none" stroke="#9a32cd" stroke-dasharray="5,2" d="M828.503,-181.727C871.877,-193.286 920.977,-211.089 960,-238 1001.28,-266.466 1033.14,-319.094 1045.46,-341.48"/>
<polygon fill="#9a32cd" stroke="#9a32cd" points="829.324,-178.324 818.767,-179.21 827.572,-185.101 829.324,-178.324"/>
<text text-anchor="middle" x="902" y="-242" font-family="FreeSans" font-size="10.00"> specificEventReceivers_</text>
</g>
<!-- Node17&#45;&gt;Node6 -->
<g id="edge46" class="edge"><title>Node17&#45;&gt;Node6</title>
<path fill="none" stroke="#9a32cd" stroke-dasharray="5,2" d="M819.003,-104.89C866.014,-116.316 920.784,-136.295 960,-171 1015.31,-219.949 1041.11,-310.388 1048.6,-341.309"/>
<polygon fill="#9a32cd" stroke="#9a32cd" points="819.631,-101.442 809.098,-102.579 818.041,-108.259 819.631,-101.442"/>
<text text-anchor="middle" x="902" y="-175" font-family="FreeSans" font-size="10.00"> subsystems_</text>
</g>
<!-- Node18&#45;&gt;Node6 -->
<g id="edge50" class="edge"><title>Node18&#45;&gt;Node6</title>
<path fill="none" stroke="#9a32cd" stroke-dasharray="5,2" d="M796.663,-451.177C844.362,-442.102 907.197,-427.445 960,-406 988.595,-394.387 1018.85,-374.76 1036.27,-362.639"/>
<polygon fill="#9a32cd" stroke="#9a32cd" points="795.913,-447.757 786.723,-453.03 797.195,-454.638 795.913,-447.757"/>
<text text-anchor="middle" x="902" y="-445" font-family="FreeSans" font-size="10.00"> eventDataMaps_</text>
</g>
<!-- Node19&#45;&gt;Node6 -->
<g id="edge54" class="edge"><title>Node19&#45;&gt;Node6</title>
<path fill="none" stroke="#9a32cd" stroke-dasharray="5,2" d="M836.428,-352C893.056,-352 958.601,-352 1002.2,-352"/>
<polygon fill="#9a32cd" stroke="#9a32cd" points="836.331,-348.5 826.331,-352 836.331,-355.5 836.331,-348.5"/>
<text text-anchor="middle" x="902" y="-356" font-family="FreeSans" font-size="10.00"> factories_</text>
</g>
<!-- Node20&#45;&gt;Node6 -->
<g id="edge58" class="edge"><title>Node20&#45;&gt;Node6</title>
<path fill="none" stroke="#9a32cd" stroke-dasharray="5,2" d="M809.286,-31.0975C859.038,-39.4269 919.547,-57.3898 960,-96 1034.38,-166.997 1048.07,-302.718 1050.5,-341.446"/>
<polygon fill="#9a32cd" stroke="#9a32cd" points="809.589,-27.6022 799.167,-29.5096 808.503,-34.5176 809.589,-27.6022"/>
<text text-anchor="middle" x="902" y="-100" font-family="FreeSans" font-size="10.00"> objectCategories_</text>
</g>
<!-- Node21&#45;&gt;Node3 -->
<g id="edge62" class="edge"><title>Node21&#45;&gt;Node3</title>
<path fill="none" stroke="#9a32cd" stroke-dasharray="5,2" d="M1020.54,-765.074C1003.65,-753.741 981.709,-741.192 960,-735 799.817,-689.314 598.562,-704.763 510.158,-714.977"/>
<polygon fill="#9a32cd" stroke="#9a32cd" points="1018.67,-768.038 1028.89,-770.849 1022.66,-762.281 1018.67,-768.038"/>
<text text-anchor="middle" x="723" y="-714" font-family="FreeSans" font-size="10.00"> eventHandlers_</text>
</g>
<!-- Node22 -->
<g id="node54" class="node"><title>Node22</title>
<a xlink:href="class_urho3_d_1_1_timer.html" target="_top" xlink:title="Low&#45;resolution operating system timer.">
<polygon fill="none" stroke="black" points="422,-853.5 422,-874.5 508,-874.5 508,-853.5 422,-853.5"/>
<text text-anchor="middle" x="465" y="-861.5" font-family="FreeSans" font-size="10.00">Urho3D::Timer</text>
</a>
</g>
<!-- Node22&#45;&gt;Node2 -->
<g id="edge66" class="edge"><title>Node22&#45;&gt;Node2</title>
<path fill="none" stroke="#9a32cd" stroke-dasharray="5,2" d="M518.297,-870.404C563.124,-875.79 626.826,-883.444 671.22,-888.778"/>
<polygon fill="#9a32cd" stroke="#9a32cd" points="518.53,-866.907 508.183,-869.189 517.694,-873.857 518.53,-866.907"/>
<text text-anchor="middle" x="571" y="-885" font-family="FreeSans" font-size="10.00"> useTimer_</text>
</g>
<!-- Node23 -->
<g id="node56" class="node"><title>Node23</title>
<a xlink:href="class_urho3_d_1_1_string.html" target="_top" xlink:title="String class.">
<polygon fill="none" stroke="black" points="421,-983.5 421,-1004.5 509,-1004.5 509,-983.5 421,-983.5"/>
<text text-anchor="middle" x="465" y="-991.5" font-family="FreeSans" font-size="10.00">Urho3D::String</text>
</a>
</g>
<!-- Node23&#45;&gt;Node1 -->
<g id="edge82" class="edge"><title>Node23&#45;&gt;Node1</title>
<path fill="none" stroke="#9a32cd" stroke-dasharray="5,2" d="M519.234,-992.681C590.164,-990.299 718.103,-983.739 826,-966 886.629,-956.032 901.625,-951.172 960,-932 983.332,-924.337 1009.21,-913.588 1027.38,-905.649"/>
<polygon fill="#9a32cd" stroke="#9a32cd" points="519.074,-989.185 509.191,-993.004 519.299,-996.181 519.074,-989.185"/>
<text text-anchor="middle" x="723" y="-991" font-family="FreeSans" font-size="10.00"> animationName_</text>
</g>
<!-- Node23&#45;&gt;Node2 -->
<g id="edge68" class="edge"><title>Node23&#45;&gt;Node2</title>
<path fill="none" stroke="#9a32cd" stroke-dasharray="5,2" d="M502.202,-979.725C554.64,-959.603 649.073,-923.367 695.588,-905.519"/>
<polygon fill="#9a32cd" stroke="#9a32cd" points="500.693,-976.555 492.611,-983.405 503.201,-983.09 500.693,-976.555"/>
<text text-anchor="middle" x="571" y="-969" font-family="FreeSans" font-size="10.00"> name_</text>
</g>
<!-- Node23&#45;&gt;Node23 -->
<g id="edge70" class="edge"><title>Node23&#45;&gt;Node23</title>
<path fill="none" stroke="#9a32cd" stroke-dasharray="5,2" d="M446.571,-1014.43C447.993,-1019.35 454.136,-1023 465,-1023 482.383,-1023 487.679,-1013.65 480.889,-1004.71"/>
<polygon fill="#9a32cd" stroke="#9a32cd" points="449.969,-1015.27 449.111,-1004.71 443.196,-1013.5 449.969,-1015.27"/>
<text text-anchor="middle" x="465" y="-1027" font-family="FreeSans" font-size="10.00"> EMPTY</text>
</g>
<!-- Node24&#45;&gt;Node1 -->
<g id="edge74" class="edge"><title>Node24&#45;&gt;Node1</title>
<path fill="none" stroke="#9a32cd" stroke-dasharray="5,2" d="M801.501,-682.059C810.615,-686.316 819.1,-691.839 826,-699 847.99,-721.823 820.934,-746.266 844,-768 882.253,-804.044 915.226,-763.472 960,-791 971.058,-797.799 969.65,-804.062 978,-814 999.798,-839.944 1026.8,-869.209 1041.08,-884.466"/>
<polygon fill="#9a32cd" stroke="#9a32cd" points="802.792,-678.805 792.214,-678.21 800.112,-685.272 802.792,-678.805"/>
<text text-anchor="middle" x="902" y="-795" font-family="FreeSans" font-size="10.00"> triggers_</text>
</g>
<!-- Node25&#45;&gt;Node1 -->
<g id="edge78" class="edge"><title>Node25&#45;&gt;Node1</title>
<path fill="none" stroke="#9a32cd" stroke-dasharray="5,2" d="M808.653,-633.67C814.633,-636.232 820.474,-639.007 826,-642 893.502,-678.568 917.728,-686.915 960,-751 976.034,-775.308 963.888,-788.527 978,-814 993.962,-842.814 1021.95,-869.879 1038.24,-884.261"/>
<polygon fill="#9a32cd" stroke="#9a32cd" points="809.749,-630.337 799.167,-629.818 807.115,-636.823 809.749,-630.337"/>
<text text-anchor="middle" x="902" y="-755" font-family="FreeSans" font-size="10.00"> tracks_</text>
</g>
</g>
</svg>
        <g id="navigator" transform="translate(0 0)" fill="#404254">
                <rect fill="#f2f5e9" fill-opacity="0.5" stroke="#606060" stroke-width=".5" x="0" y="0" width="60" height="60"/>
                <use id="zoomplus" xlink:href="#zoomPlus" x="17" y="9" onmousedown="handleZoom(evt,'in')"/>
                <use id="zoomminus" xlink:href="#zoomMin" x="42" y="9" onmousedown="handleZoom(evt,'out')"/>
                <use id="reset" xlink:href="#resetDef" x="30" y="36" onmousedown="handleReset()"/>
                <g id="arrowUp" xlink:href="#dirArrow" transform="translate(30 24)" onmousedown="handlePan(0,-1)">
                  <use xlink:href="#rim" fill="#404040">
                        <set attributeName="fill" to="#808080" begin="arrowUp.mouseover" end="arrowUp.mouseout"/>
                  </use>
                  <path fill="none" stroke="white" stroke-width="1.5" d="M0,-3.0v7 M-2.5,-0.5L0,-3.0L2.5,-0.5"/>
                </g>
                <g id="arrowRight" xlink:href="#dirArrow" transform="rotate(90) translate(36 -43)" onmousedown="handlePan(1,0)">
                  <use xlink:href="#rim" fill="#404040">
                        <set attributeName="fill" to="#808080" begin="arrowRight.mouseover" end="arrowRight.mouseout"/>
                  </use>
                  <path fill="none" stroke="white" stroke-width="1.5" d="M0,-3.0v7 M-2.5,-0.5L0,-3.0L2.5,-0.5"/>
                </g>
                <g id="arrowDown" xlink:href="#dirArrow" transform="rotate(180) translate(-30 -48)" onmousedown="handlePan(0,1)">
                  <use xlink:href="#rim" fill="#404040">
                        <set attributeName="fill" to="#808080" begin="arrowDown.mouseover" end="arrowDown.mouseout"/>
                  </use>
                  <path fill="none" stroke="white" stroke-width="1.5" d="M0,-3.0v7 M-2.5,-0.5L0,-3.0L2.5,-0.5"/>
                </g>
                <g id="arrowLeft" xlink:href="#dirArrow" transform="rotate(270) translate(-36 17)" onmousedown="handlePan(-1,0)">
                  <use xlink:href="#rim" fill="#404040">
                        <set attributeName="fill" to="#808080" begin="arrowLeft.mouseover" end="arrowLeft.mouseout"/>
                  </use>
                  <path fill="none" stroke="white" stroke-width="1.5" d="M0,-3.0v7 M-2.5,-0.5L0,-3.0L2.5,-0.5"/>
                </g>
        </g>
        <svg viewBox="0 0 15 15" width="100%" height="30px" preserveAspectRatio="xMaxYMin meet">
         <g id="arrow_out" transform="scale(0.3 0.3)">
          <a xlink:href="class_urho3_d_1_1_animation__coll__graph_org.svg" target="_base">
           <rect id="button" ry="5" rx="5" y="6" x="6" height="38" width="38"
                fill="#f2f5e9" fill-opacity="0.5" stroke="#606060" stroke-width="1.0"/>
           <path id="arrow"
             d="M 11.500037,31.436501 C 11.940474,20.09759 22.043105,11.32322 32.158766,21.979434 L 37.068811,17.246167 C 37.068811,17.246167 37.088388,32 37.088388,32 L 22.160133,31.978069 C 22.160133,31.978069 26.997745,27.140456 26.997745,27.140456 C 18.528582,18.264221 13.291696,25.230495 11.500037,31.436501 z"
             style="fill:#404040;"/>
          </a>
         </g>
        </svg>
</svg>
