<?xml version="1.0" encoding="UTF-8" standalone="no"?>
<!DOCTYPE svg PUBLIC "-//W3C//DTD SVG 1.1//EN"
 "http://www.w3.org/Graphics/SVG/1.1/DTD/svg11.dtd">
<!-- Generated by graphviz version 2.36.0 (20140111.2315)
 -->
<!-- Title: Urho3D::LuaScriptInstance Pages: 1 -->
<!--zoomable 579 -->
<svg id="main" version="1.1" xmlns="http://www.w3.org/2000/svg" xmlns:xlink="http://www.w3.org/1999/xlink" xml:space="preserve" onload="init(evt)">
<style type="text/css"><![CDATA[
.edge:hover path { stroke: red; }
.edge:hover polygon { stroke: red; fill: red; }
]]></style>
<script type="text/javascript"><![CDATA[
var edges = document.getElementsByTagName('g');
if (edges && edges.length) {
  for (var i=0;i<edges.length;i++) {
    if (edges[i].id.substr(0,4)=='edge') {
      edges[i].setAttribute('class','edge');
    }
  }
}
]]></script>
        <defs>
                <circle id="rim" cx="0" cy="0" r="7"/>
                <circle id="rim2" cx="0" cy="0" r="3.5"/>
                <g id="zoomPlus">
                        <use xlink:href="#rim" fill="#404040">
                                <set attributeName="fill" to="#808080" begin="zoomplus.mouseover" end="zoomplus.mouseout"/>
                        </use>
                        <path d="M-4,0h8M0,-4v8" fill="none" stroke="white" stroke-width="1.5" pointer-events="none"/>
                </g>
                <g id="zoomMin">
                        <use xlink:href="#rim" fill="#404040">
                                <set attributeName="fill" to="#808080" begin="zoomminus.mouseover" end="zoomminus.mouseout"/>
                        </use>
                        <path d="M-4,0h8" fill="none" stroke="white" stroke-width="1.5" pointer-events="none"/>
                </g>
                <g id="dirArrow">
                        <path fill="none" stroke="white" stroke-width="1.5" d="M0,-3.0v7 M-2.5,-0.5L0,-3.0L2.5,-0.5"/>
                </g>
               <g id="resetDef">
                       <use xlink:href="#rim2" fill="#404040">
                               <set attributeName="fill" to="#808080" begin="reset.mouseover" end="reset.mouseout"/>
                       </use>
               </g>
        </defs>

<script type="text/javascript">
var viewWidth = 1778;
var viewHeight = 579;
var sectionId = 'dynsection-1';
</script>
<script xlink:href="svgpan.js"/>
<svg id="graph" class="graph">
<g id="viewport">
<title>Urho3D::LuaScriptInstance</title>
<!-- Node1 -->
<g id="node1" class="node"><title>Node1</title>
<polygon fill="#bfbfbf" stroke="black" points="1624.5,-293.5 1624.5,-312.5 1769.5,-312.5 1769.5,-293.5 1624.5,-293.5"/>
<text text-anchor="middle" x="1697" y="-300.5" font-family="FreeSans" font-size="10.00">Urho3D::LuaScriptInstance</text>
</g>
<!-- Node2 -->
<g id="node2" class="node"><title>Node2</title>
<g id="a_node2"><a xlink:href="class_urho3_d_1_1_component.html" target="_top" xlink:title="Base class for components. Components can be created to scene nodes. ">
<polygon fill="none" stroke="black" points="1420,-351.5 1420,-370.5 1536,-370.5 1536,-351.5 1420,-351.5"/>
<text text-anchor="middle" x="1478" y="-358.5" font-family="FreeSans" font-size="10.00">Urho3D::Component</text>
</a>
</g>
</g>
<!-- Node2&#45;&gt;Node1 -->
<g id="edge1" class="edge"><title>Node2&#45;&gt;Node1</title>
<path fill="none" stroke="midnightblue" d="M1546.09,-350.582C1565.57,-346.949 1586.78,-342.403 1606,-337 1629.64,-330.357 1655.8,-320.132 1673.8,-312.629"/>
<polygon fill="midnightblue" stroke="midnightblue" points="1545.29,-347.17 1536.07,-352.398 1546.54,-354.058 1545.29,-347.17"/>
</g>
<!-- Node3 -->
<g id="node3" class="node"><title>Node3</title>
<g id="a_node3"><a xlink:href="class_urho3_d_1_1_animatable.html" target="_top" xlink:title="Base class for animatable object, an animatable object can be set animation on it&#39;s attributes...">
<polygon fill="none" stroke="black" points="724,-353.5 724,-372.5 838,-372.5 838,-353.5 724,-353.5"/>
<text text-anchor="middle" x="781" y="-360.5" font-family="FreeSans" font-size="10.00">Urho3D::Animatable</text>
</a>
</g>
</g>
<!-- Node3&#45;&gt;Node2 -->
<g id="edge2" class="edge"><title>Node3&#45;&gt;Node2</title>
<path fill="none" stroke="midnightblue" d="M848.555,-362.808C984.499,-362.417 1291.98,-361.532 1419.7,-361.165"/>
<polygon fill="midnightblue" stroke="midnightblue" points="848.276,-359.309 838.286,-362.838 848.296,-366.309 848.276,-359.309"/>
</g>
<!-- Node10 -->
<g id="node10" class="node"><title>Node10</title>
<g id="a_node10"><a xlink:href="class_urho3_d_1_1_node.html" target="_top" xlink:title="Scene node that may contain components and child nodes. ">
<polygon fill="none" stroke="red" points="1099.5,-397.5 1099.5,-416.5 1184.5,-416.5 1184.5,-397.5 1099.5,-397.5"/>
<text text-anchor="middle" x="1142" y="-404.5" font-family="FreeSans" font-size="10.00">Urho3D::Node</text>
</a>
</g>
</g>
<!-- Node3&#45;&gt;Node10 -->
<g id="edge10" class="edge"><title>Node3&#45;&gt;Node10</title>
<path fill="none" stroke="midnightblue" d="M848.151,-371.108C921.511,-380.099 1037.62,-394.329 1099.29,-401.888"/>
<polygon fill="midnightblue" stroke="midnightblue" points="848.445,-367.618 838.094,-369.875 847.594,-374.566 848.445,-367.618"/>
</g>
<!-- Node4 -->
<g id="node4" class="node"><title>Node4</title>
<g id="a_node4"><a xlink:href="class_urho3_d_1_1_serializable.html" target="_top" xlink:title="Base class for objects with automatic serialization through attributes. ">
<polygon fill="none" stroke="red" points="324,-396.5 324,-415.5 438,-415.5 438,-396.5 324,-396.5"/>
<text text-anchor="middle" x="381" y="-403.5" font-family="FreeSans" font-size="10.00">Urho3D::Serializable</text>
</a>
</g>
</g>
<!-- Node4&#45;&gt;Node3 -->
<g id="edge3" class="edge"><title>Node4&#45;&gt;Node3</title>
<path fill="none" stroke="midnightblue" d="M448.138,-399.632C505.722,-393.996 591.429,-385.385 666,-377 684.825,-374.883 705.377,-372.41 723.782,-370.135"/>
<polygon fill="midnightblue" stroke="midnightblue" points="447.69,-396.159 438.078,-400.615 448.371,-403.126 447.69,-396.159"/>
</g>
<!-- Node5 -->
<g id="node5" class="node"><title>Node5</title>
<g id="a_node5"><a xlink:href="class_urho3_d_1_1_object.html" target="_top" xlink:title="Base class for objects with type identification, subsystem access and event sending/receiving capabil...">
<polygon fill="none" stroke="red" points="152,-230.5 152,-249.5 242,-249.5 242,-230.5 152,-230.5"/>
<text text-anchor="middle" x="197" y="-237.5" font-family="FreeSans" font-size="10.00">Urho3D::Object</text>
</a>
</g>
</g>
<!-- Node5&#45;&gt;Node4 -->
<g id="edge4" class="edge"><title>Node5&#45;&gt;Node4</title>
<path fill="none" stroke="midnightblue" d="M203.217,-259.618C212.772,-291.506 236.237,-354.21 280,-386 292.677,-395.209 308.54,-400.441 323.872,-403.345"/>
<polygon fill="midnightblue" stroke="midnightblue" points="206.507,-258.389 200.407,-249.725 199.773,-260.301 206.507,-258.389"/>
</g>
<!-- Node17 -->
<g id="node17" class="node"><title>Node17</title>
<g id="a_node17"><a xlink:href="class_urho3_d_1_1_lua_script.html" target="_top" xlink:title="Lua script subsystem. ">
<polygon fill="none" stroke="black" points="1426,-190.5 1426,-209.5 1530,-209.5 1530,-190.5 1426,-190.5"/>
<text text-anchor="middle" x="1478" y="-197.5" font-family="FreeSans" font-size="10.00">Urho3D::LuaScript</text>
</a>
</g>
</g>
<!-- Node5&#45;&gt;Node17 -->
<g id="edge22" class="edge"><title>Node5&#45;&gt;Node17</title>
<path fill="none" stroke="midnightblue" d="M252.672,-231.296C288.732,-226.296 337.062,-221 380,-221 380,-221 380,-221 966,-221 1134.48,-221 1333.94,-209.463 1425.9,-203.491"/>
<polygon fill="midnightblue" stroke="midnightblue" points="251.776,-227.888 242.369,-232.763 252.762,-234.818 251.776,-227.888"/>
</g>
<!-- Node19 -->
<g id="node19" class="node"><title>Node19</title>
<g id="a_node19"><a xlink:href="class_urho3_d_1_1_lua_script_event_invoker.html" target="_top" xlink:title="Lua script event invoker. ">
<polygon fill="none" stroke="red" points="500,-253.5 500,-272.5 666,-272.5 666,-253.5 500,-253.5"/>
<text text-anchor="middle" x="583" y="-260.5" font-family="FreeSans" font-size="10.00">Urho3D::LuaScriptEventInvoker</text>
</a>
</g>
</g>
<!-- Node5&#45;&gt;Node19 -->
<g id="edge26" class="edge"><title>Node5&#45;&gt;Node19</title>
<path fill="none" stroke="midnightblue" d="M252.409,-243.259C316.949,-247.125 425.187,-253.608 499.921,-258.084"/>
<polygon fill="midnightblue" stroke="midnightblue" points="252.241,-239.743 242.05,-242.638 251.823,-246.73 252.241,-239.743"/>
</g>
<!-- Node6 -->
<g id="node6" class="node"><title>Node6</title>
<g id="a_node6"><a xlink:href="class_urho3_d_1_1_ref_counted.html" target="_top" xlink:title="Base class for intrusively reference&#45;counted objects. These are noncopyable and non&#45;assignable. ">
<polygon fill="none" stroke="red" points="0,-148.5 0,-167.5 114,-167.5 114,-148.5 0,-148.5"/>
<text text-anchor="middle" x="57" y="-155.5" font-family="FreeSans" font-size="10.00">Urho3D::RefCounted</text>
</a>
</g>
</g>
<!-- Node6&#45;&gt;Node5 -->
<g id="edge5" class="edge"><title>Node6&#45;&gt;Node5</title>
<path fill="none" stroke="midnightblue" d="M82.9581,-172.83C111.143,-189.578 156.172,-216.334 180.002,-230.494"/>
<polygon fill="midnightblue" stroke="midnightblue" points="84.4852,-169.666 74.1004,-167.567 80.9094,-175.684 84.4852,-169.666"/>
</g>
<!-- Node21 -->
<g id="node21" class="node"><title>Node21</title>
<g id="a_node21"><a xlink:href="class_urho3_d_1_1_lua_function.html" target="_top" xlink:title="C++ representation of Lua function object. ">
<polygon fill="none" stroke="black" points="1084,-53.5 1084,-72.5 1200,-72.5 1200,-53.5 1084,-53.5"/>
<text text-anchor="middle" x="1142" y="-60.5" font-family="FreeSans" font-size="10.00">Urho3D::LuaFunction</text>
</a>
</g>
</g>
<!-- Node6&#45;&gt;Node21 -->
<g id="edge29" class="edge"><title>Node6&#45;&gt;Node21</title>
<path fill="none" stroke="midnightblue" d="M90.5239,-144.893C118.123,-134.956 159.017,-123 196,-123 196,-123 196,-123 782,-123 842.505,-123 1013.38,-89.4256 1095.64,-72.5072"/>
<polygon fill="midnightblue" stroke="midnightblue" points="89.1434,-141.672 80.989,-148.436 91.5819,-148.233 89.1434,-141.672"/>
</g>
<!-- Node7 -->
<g id="node7" class="node"><title>Node7</title>
<g id="a_node7"><a xlink:href="class_urho3_d_1_1_hash_map.html" target="_top" xlink:title="Urho3D::HashMap\&lt; Urho3D\l::String, Urho3D::SharedPtr\l\&lt; Urho3D::AttributeAnimationInfo \&gt; \&gt;">
<polygon fill="none" stroke="red" points="280.5,-336.5 280.5,-377.5 481.5,-377.5 481.5,-336.5 280.5,-336.5"/>
<text text-anchor="start" x="288.5" y="-365.5" font-family="FreeSans" font-size="10.00">Urho3D::HashMap&lt; Urho3D</text>
<text text-anchor="start" x="288.5" y="-354.5" font-family="FreeSans" font-size="10.00">::String, Urho3D::SharedPtr</text>
<text text-anchor="middle" x="381" y="-343.5" font-family="FreeSans" font-size="10.00">&lt; Urho3D::AttributeAnimationInfo &gt; &gt;</text>
</a>
</g>
</g>
<!-- Node7&#45;&gt;Node3 -->
<g id="edge6" class="edge"><title>Node7&#45;&gt;Node3</title>
<path fill="none" stroke="#9a32cd" stroke-dasharray="5,2" d="M491.672,-358.653C566.994,-359.789 663.861,-361.249 723.934,-362.155"/>
<polygon fill="#9a32cd" stroke="#9a32cd" points="491.714,-355.154 481.662,-358.502 491.608,-362.153 491.714,-355.154"/>
<text text-anchor="middle" x="583" y="-365" font-family="FreeSans" font-size="10.00"> attributeAnimationInfos_</text>
</g>
<!-- Node8 -->
<g id="node8" class="node"><title>Node8</title>
<g id="a_node8"><a xlink:href="class_urho3_d_1_1_shared_ptr.html" target="_top" xlink:title="Urho3D::SharedPtr\&lt;\l Urho3D::ObjectAnimation \&gt;">
<polygon fill="none" stroke="red" points="304.5,-288 304.5,-318 457.5,-318 457.5,-288 304.5,-288"/>
<text text-anchor="start" x="312.5" y="-306" font-family="FreeSans" font-size="10.00">Urho3D::SharedPtr&lt;</text>
<text text-anchor="middle" x="381" y="-295" font-family="FreeSans" font-size="10.00"> Urho3D::ObjectAnimation &gt;</text>
</a>
</g>
</g>
<!-- Node8&#45;&gt;Node3 -->
<g id="edge7" class="edge"><title>Node8&#45;&gt;Node3</title>
<path fill="none" stroke="#9a32cd" stroke-dasharray="5,2" d="M467.654,-314.87C524.05,-322.808 599.479,-333.656 666,-344 685.033,-346.96 705.823,-350.371 724.375,-353.48"/>
<polygon fill="#9a32cd" stroke="#9a32cd" points="468.098,-311.398 457.708,-313.473 467.124,-318.33 468.098,-311.398"/>
<text text-anchor="middle" x="583" y="-347" font-family="FreeSans" font-size="10.00"> objectAnimation_</text>
</g>
<!-- Node9 -->
<g id="node9" class="node"><title>Node9</title>
<g id="a_node9"><a xlink:href="class_urho3_d_1_1_hash_set.html" target="_top" xlink:title="Urho3D::HashSet\&lt; const\l Urho3D::AttributeInfo * \&gt;">
<polygon fill="none" stroke="red" points="310.5,-435 310.5,-465 451.5,-465 451.5,-435 310.5,-435"/>
<text text-anchor="start" x="318.5" y="-453" font-family="FreeSans" font-size="10.00">Urho3D::HashSet&lt; const</text>
<text text-anchor="middle" x="381" y="-442" font-family="FreeSans" font-size="10.00"> Urho3D::AttributeInfo * &gt;</text>
</a>
</g>
</g>
<!-- Node9&#45;&gt;Node3 -->
<g id="edge8" class="edge"><title>Node9&#45;&gt;Node3</title>
<path fill="none" stroke="#9a32cd" stroke-dasharray="5,2" d="M461.859,-444.785C520.141,-438.89 600.132,-426.396 666,-400 674.925,-396.424 675.226,-391.933 684,-388 698.616,-381.449 715.282,-376.358 730.579,-372.531"/>
<polygon fill="#9a32cd" stroke="#9a32cd" points="461.22,-441.33 451.604,-445.777 461.894,-448.297 461.22,-441.33"/>
<text text-anchor="middle" x="583" y="-444" font-family="FreeSans" font-size="10.00"> animatedNetworkAttributes_</text>
</g>
<!-- Node10&#45;&gt;Node2 -->
<g id="edge9" class="edge"><title>Node10&#45;&gt;Node2</title>
<path fill="none" stroke="#9a32cd" stroke-dasharray="5,2" d="M1194.65,-397.841C1212.19,-394.855 1231.92,-391.634 1250,-389 1307.56,-380.612 1373.58,-372.655 1419.53,-367.382"/>
<polygon fill="#9a32cd" stroke="#9a32cd" points="1193.86,-394.424 1184.6,-399.565 1195.05,-401.323 1193.86,-394.424"/>
<text text-anchor="middle" x="1326" y="-392" font-family="FreeSans" font-size="10.00"> node_</text>
</g>
<!-- Node10&#45;&gt;Node10 -->
<g id="edge19" class="edge"><title>Node10&#45;&gt;Node10</title>
<path fill="none" stroke="#9a32cd" stroke-dasharray="5,2" d="M1109.02,-424.891C1109.5,-430.541 1120.49,-435 1142,-435 1173.28,-435 1182.32,-425.565 1169.13,-416.757"/>
<polygon fill="#9a32cd" stroke="#9a32cd" points="1111.87,-426.917 1114.87,-416.757 1106.19,-422.827 1111.87,-426.917"/>
<text text-anchor="middle" x="1142" y="-438" font-family="FreeSans" font-size="10.00"> parent_</text>
</g>
<!-- Node11 -->
<g id="node11" class="node"><title>Node11</title>
<g id="a_node11"><a xlink:href="class_urho3_d_1_1_scene.html" target="_top" xlink:title="Root scene node, represents the whole scene. ">
<polygon fill="none" stroke="red" points="1433.5,-431.5 1433.5,-450.5 1522.5,-450.5 1522.5,-431.5 1433.5,-431.5"/>
<text text-anchor="middle" x="1478" y="-438.5" font-family="FreeSans" font-size="10.00">Urho3D::Scene</text>
</a>
</g>
</g>
<!-- Node10&#45;&gt;Node11 -->
<g id="edge12" class="edge"><title>Node10&#45;&gt;Node11</title>
<path fill="none" stroke="midnightblue" d="M1194.75,-418.002C1212.22,-421.362 1231.89,-424.758 1250,-427 1313.48,-434.86 1387.52,-438.378 1433.34,-439.903"/>
<polygon fill="midnightblue" stroke="midnightblue" points="1195.22,-414.529 1184.74,-416.037 1193.88,-421.398 1195.22,-414.529"/>
</g>
<!-- Node11&#45;&gt;Node10 -->
<g id="edge11" class="edge"><title>Node11&#45;&gt;Node10</title>
<path fill="none" stroke="#9a32cd" stroke-dasharray="5,2" d="M1444.67,-427.964C1431.63,-423.308 1416.32,-418.579 1402,-416 1326.28,-402.359 1236.16,-402.926 1184.66,-404.806"/>
<polygon fill="#9a32cd" stroke="#9a32cd" points="1443.54,-431.28 1454.14,-431.474 1445.98,-424.716 1443.54,-431.28"/>
<text text-anchor="middle" x="1326" y="-419" font-family="FreeSans" font-size="10.00"> scene_</text>
</g>
<!-- Node12 -->
<g id="node12" class="node"><title>Node12</title>
<g id="a_node12"><a xlink:href="class_urho3_d_1_1_string.html" target="_top" xlink:title="String class. ">
<polygon fill="none" stroke="black" points="1098,-464.5 1098,-483.5 1186,-483.5 1186,-464.5 1098,-464.5"/>
<text text-anchor="middle" x="1142" y="-471.5" font-family="FreeSans" font-size="10.00">Urho3D::String</text>
</a>
</g>
</g>
<!-- Node12&#45;&gt;Node1 -->
<g id="edge37" class="edge"><title>Node12&#45;&gt;Node1</title>
<path fill="none" stroke="#9a32cd" stroke-dasharray="5,2" d="M1195.58,-485.406C1274.37,-499.683 1425.57,-516.001 1536,-460 1608.89,-423.036 1669.86,-341.069 1689.42,-312.805"/>
<polygon fill="#9a32cd" stroke="#9a32cd" points="1195.89,-481.903 1185.42,-483.502 1194.61,-488.784 1195.89,-481.903"/>
<text text-anchor="middle" x="1478" y="-496" font-family="FreeSans" font-size="10.00"> scriptObjectType_</text>
</g>
<!-- Node12&#45;&gt;Node11 -->
<g id="edge13" class="edge"><title>Node12&#45;&gt;Node11</title>
<path fill="none" stroke="#9a32cd" stroke-dasharray="5,2" d="M1196.23,-470.43C1248.66,-466.69 1330.98,-460.217 1402,-452 1412.2,-450.82 1423.14,-449.338 1433.43,-447.848"/>
<polygon fill="#9a32cd" stroke="#9a32cd" points="1195.89,-466.946 1186.16,-471.141 1196.38,-473.928 1195.89,-466.946"/>
<text text-anchor="middle" x="1326" y="-470" font-family="FreeSans" font-size="10.00"> fileName_</text>
</g>
<!-- Node12&#45;&gt;Node12 -->
<g id="edge14" class="edge"><title>Node12&#45;&gt;Node12</title>
<path fill="none" stroke="#9a32cd" stroke-dasharray="5,2" d="M1109.02,-491.891C1109.5,-497.541 1120.49,-502 1142,-502 1173.28,-502 1182.32,-492.565 1169.13,-483.757"/>
<polygon fill="#9a32cd" stroke="#9a32cd" points="1111.87,-493.917 1114.87,-483.757 1106.19,-489.827 1111.87,-493.917"/>
<text text-anchor="middle" x="1142" y="-505" font-family="FreeSans" font-size="10.00"> EMPTY</text>
</g>
<!-- Node13 -->
<g id="node13" class="node"><title>Node13</title>
<g id="a_node13"><a xlink:href="class_urho3_d_1_1_quaternion.html" target="_top" xlink:title="Rotation represented as a four&#45;dimensional normalized vector. ">
<polygon fill="none" stroke="black" points="724.5,-397.5 724.5,-416.5 837.5,-416.5 837.5,-397.5 724.5,-397.5"/>
<text text-anchor="middle" x="781" y="-404.5" font-family="FreeSans" font-size="10.00">Urho3D::Quaternion</text>
</a>
</g>
</g>
<!-- Node13&#45;&gt;Node10 -->
<g id="edge15" class="edge"><title>Node13&#45;&gt;Node10</title>
<path fill="none" stroke="#9a32cd" stroke-dasharray="5,2" d="M847.761,-407C921.163,-407 1037.72,-407 1099.46,-407"/>
<polygon fill="#9a32cd" stroke="#9a32cd" points="847.7,-403.5 837.7,-407 847.7,-410.5 847.7,-403.5"/>
<text text-anchor="middle" x="965" y="-421" font-family="FreeSans" font-size="10.00"> worldRotation_</text>
<text text-anchor="middle" x="965" y="-410" font-family="FreeSans" font-size="10.00">rotation_</text>
</g>
<!-- Node13&#45;&gt;Node13 -->
<g id="edge16" class="edge"><title>Node13&#45;&gt;Node13</title>
<path fill="none" stroke="#9a32cd" stroke-dasharray="5,2" d="M746.517,-424.891C747.022,-430.541 758.517,-435 781,-435 813.703,-435 823.156,-425.565 809.36,-416.757"/>
<polygon fill="#9a32cd" stroke="#9a32cd" points="749.423,-426.851 752.64,-416.757 743.83,-422.642 749.423,-426.851"/>
<text text-anchor="middle" x="781" y="-438" font-family="FreeSans" font-size="10.00"> IDENTITY</text>
</g>
<!-- Node14 -->
<g id="node14" class="node"><title>Node14</title>
<g id="a_node14"><a xlink:href="class_urho3_d_1_1_vector.html" target="_top" xlink:title="Urho3D::Vector\&lt; Urho3D\l::WeakPtr\&lt; Urho3D::Component \&gt; \&gt;">
<polygon fill="none" stroke="black" points="684,-468 684,-498 878,-498 878,-468 684,-468"/>
<text text-anchor="start" x="692" y="-486" font-family="FreeSans" font-size="10.00">Urho3D::Vector&lt; Urho3D</text>
<text text-anchor="middle" x="781" y="-475" font-family="FreeSans" font-size="10.00">::WeakPtr&lt; Urho3D::Component &gt; &gt;</text>
</a>
</g>
</g>
<!-- Node14&#45;&gt;Node10 -->
<g id="edge17" class="edge"><title>Node14&#45;&gt;Node10</title>
<path fill="none" stroke="#9a32cd" stroke-dasharray="5,2" d="M872.272,-466.053C920.387,-456.777 980.528,-444.796 1034,-433 1057.15,-427.894 1082.98,-421.634 1103.46,-416.536"/>
<polygon fill="#9a32cd" stroke="#9a32cd" points="871.353,-462.665 862.194,-467.99 872.675,-469.539 871.353,-462.665"/>
<text text-anchor="middle" x="965" y="-465" font-family="FreeSans" font-size="10.00"> listeners_</text>
</g>
<!-- Node15 -->
<g id="node15" class="node"><title>Node15</title>
<g id="a_node15"><a xlink:href="class_urho3_d_1_1_vector_base.html" target="_top" xlink:title="Vector base class. ">
<polygon fill="none" stroke="black" points="324,-493.5 324,-512.5 438,-512.5 438,-493.5 324,-493.5"/>
<text text-anchor="middle" x="381" y="-500.5" font-family="FreeSans" font-size="10.00">Urho3D::VectorBase</text>
</a>
</g>
</g>
<!-- Node15&#45;&gt;Node14 -->
<g id="edge18" class="edge"><title>Node15&#45;&gt;Node14</title>
<path fill="none" stroke="midnightblue" d="M448.202,-499.673C512.525,-496.441 610.902,-491.497 683.851,-487.832"/>
<polygon fill="midnightblue" stroke="midnightblue" points="447.991,-496.179 438.18,-500.177 448.343,-503.171 447.991,-496.179"/>
</g>
<!-- Node25 -->
<g id="node25" class="node"><title>Node25</title>
<g id="a_node25"><a xlink:href="class_urho3_d_1_1_vector.html" target="_top" xlink:title="Urho3D::Vector\&lt; Urho3D\l::AttributeInfo \&gt;">
<polygon fill="none" stroke="black" points="896,-523 896,-553 1034,-553 1034,-523 896,-523"/>
<text text-anchor="start" x="904" y="-541" font-family="FreeSans" font-size="10.00">Urho3D::Vector&lt; Urho3D</text>
<text text-anchor="middle" x="965" y="-530" font-family="FreeSans" font-size="10.00">::AttributeInfo &gt;</text>
</a>
</g>
</g>
<!-- Node15&#45;&gt;Node25 -->
<g id="edge35" class="edge"><title>Node15&#45;&gt;Node25</title>
<path fill="none" stroke="midnightblue" d="M448.166,-506.979C559.556,-513.678 783.373,-527.138 895.99,-533.91"/>
<polygon fill="midnightblue" stroke="midnightblue" points="448.261,-503.479 438.069,-506.372 447.841,-510.466 448.261,-503.479"/>
</g>
<!-- Node16 -->
<g id="node16" class="node"><title>Node16</title>
<g id="a_node16"><a xlink:href="class_urho3_d_1_1_lua_script_event_listener.html" target="_top" xlink:title="Lua script event listener. ">
<polygon fill="none" stroke="black" points="1057,-300.5 1057,-319.5 1227,-319.5 1227,-300.5 1057,-300.5"/>
<text text-anchor="middle" x="1142" y="-307.5" font-family="FreeSans" font-size="10.00">Urho3D::LuaScriptEventListener</text>
</a>
</g>
</g>
<!-- Node16&#45;&gt;Node1 -->
<g id="edge20" class="edge"><title>Node16&#45;&gt;Node1</title>
<path fill="none" stroke="midnightblue" d="M1237.34,-308.806C1346.89,-307.419 1525.17,-305.162 1624.1,-303.91"/>
<polygon fill="midnightblue" stroke="midnightblue" points="1237.24,-305.307 1227.29,-308.933 1237.33,-312.306 1237.24,-305.307"/>
</g>
<!-- Node16&#45;&gt;Node17 -->
<g id="edge23" class="edge"><title>Node16&#45;&gt;Node17</title>
<path fill="none" stroke="midnightblue" d="M1212.28,-298.618C1265.54,-288.454 1340.21,-271.094 1402,-245 1424.94,-235.312 1449.27,-219.568 1463.79,-209.504"/>
<polygon fill="midnightblue" stroke="midnightblue" points="1211.45,-295.214 1202.26,-300.494 1212.74,-302.095 1211.45,-295.214"/>
</g>
<!-- Node17&#45;&gt;Node1 -->
<g id="edge21" class="edge"><title>Node17&#45;&gt;Node1</title>
<path fill="none" stroke="#9a32cd" stroke-dasharray="5,2" d="M1509.43,-213.933C1535.21,-225.783 1573.11,-243.324 1606,-259 1630.49,-270.675 1658.55,-284.46 1676.74,-293.448"/>
<polygon fill="#9a32cd" stroke="#9a32cd" points="1510.73,-210.678 1500.18,-209.685 1507.81,-217.039 1510.73,-210.678"/>
<text text-anchor="middle" x="1580" y="-262" font-family="FreeSans" font-size="10.00"> luaScript_</text>
</g>
<!-- Node18 -->
<g id="node18" class="node"><title>Node18</title>
<g id="a_node18"><a xlink:href="class_urho3_d_1_1_shared_ptr.html" target="_top" xlink:title="Urho3D::SharedPtr\&lt;\l Urho3D::LuaScriptEventInvoker \&gt;">
<polygon fill="none" stroke="black" points="1052,-251 1052,-281 1232,-281 1232,-251 1052,-251"/>
<text text-anchor="start" x="1060" y="-269" font-family="FreeSans" font-size="10.00">Urho3D::SharedPtr&lt;</text>
<text text-anchor="middle" x="1142" y="-258" font-family="FreeSans" font-size="10.00"> Urho3D::LuaScriptEventInvoker &gt;</text>
</a>
</g>
</g>
<!-- Node18&#45;&gt;Node1 -->
<g id="edge31" class="edge"><title>Node18&#45;&gt;Node1</title>
<path fill="none" stroke="#9a32cd" stroke-dasharray="5,2" d="M1242.38,-272.01C1321.84,-276.89 1436.09,-284.076 1536,-291 1564.9,-293.003 1596.73,-295.359 1624.33,-297.451"/>
<polygon fill="#9a32cd" stroke="#9a32cd" points="1242.57,-268.515 1232.38,-271.396 1242.14,-275.502 1242.57,-268.515"/>
<text text-anchor="middle" x="1478" y="-294" font-family="FreeSans" font-size="10.00"> eventInvoker_</text>
</g>
<!-- Node18&#45;&gt;Node17 -->
<g id="edge24" class="edge"><title>Node18&#45;&gt;Node17</title>
<path fill="none" stroke="#9a32cd" stroke-dasharray="5,2" d="M1197.76,-247.997C1214.4,-242.965 1232.84,-237.832 1250,-234 1254.28,-233.044 1360.27,-217.288 1425.88,-207.565"/>
<polygon fill="#9a32cd" stroke="#9a32cd" points="1196.71,-244.655 1188.18,-250.937 1198.77,-251.346 1196.71,-244.655"/>
<text text-anchor="middle" x="1326" y="-237" font-family="FreeSans" font-size="10.00"> eventInvoker_</text>
</g>
<!-- Node19&#45;&gt;Node18 -->
<g id="edge25" class="edge"><title>Node19&#45;&gt;Node18</title>
<path fill="none" stroke="#9a32cd" stroke-dasharray="5,2" d="M676.372,-263.498C780.498,-264.058 948.642,-264.964 1051.55,-265.518"/>
<polygon fill="#9a32cd" stroke="#9a32cd" points="676.206,-259.997 666.187,-263.443 676.168,-266.997 676.206,-259.997"/>
<text text-anchor="middle" x="781" y="-268" font-family="FreeSans" font-size="10.00"> ptr_</text>
</g>
<!-- Node20 -->
<g id="node20" class="node"><title>Node20</title>
<g id="a_node20"><a xlink:href="class_urho3_d_1_1_hash_map.html" target="_top" xlink:title="Urho3D::HashMap\&lt; Urho3D\l::String, Urho3D::SharedPtr\l\&lt; Urho3D::LuaFunction \&gt; \&gt;">
<polygon fill="none" stroke="red" points="1066,-151.5 1066,-192.5 1218,-192.5 1218,-151.5 1066,-151.5"/>
<text text-anchor="start" x="1074" y="-180.5" font-family="FreeSans" font-size="10.00">Urho3D::HashMap&lt; Urho3D</text>
<text text-anchor="start" x="1074" y="-169.5" font-family="FreeSans" font-size="10.00">::String, Urho3D::SharedPtr</text>
<text text-anchor="middle" x="1142" y="-158.5" font-family="FreeSans" font-size="10.00">&lt; Urho3D::LuaFunction &gt; &gt;</text>
</a>
</g>
</g>
<!-- Node20&#45;&gt;Node17 -->
<g id="edge27" class="edge"><title>Node20&#45;&gt;Node17</title>
<path fill="none" stroke="#9a32cd" stroke-dasharray="5,2" d="M1228.35,-166.391C1279.13,-164.686 1344.64,-165.351 1402,-175 1420.14,-178.051 1439.84,-184.758 1454.49,-190.457"/>
<polygon fill="#9a32cd" stroke="#9a32cd" points="1227.93,-162.904 1218.07,-166.774 1228.19,-169.899 1227.93,-162.904"/>
<text text-anchor="middle" x="1326" y="-178" font-family="FreeSans" font-size="10.00"> functionNameToFunctionMap_</text>
</g>
<!-- Node21&#45;&gt;Node1 -->
<g id="edge36" class="edge"><title>Node21&#45;&gt;Node1</title>
<path fill="none" stroke="#9a32cd" stroke-dasharray="5,2" d="M1210.25,-58.3939C1263.64,-56.9141 1339.46,-59.73 1402,-81 1534.61,-126.101 1655.49,-256.503 1687.66,-293.255"/>
<polygon fill="#9a32cd" stroke="#9a32cd" points="1210.09,-54.8972 1200.21,-58.7298 1210.32,-61.8933 1210.09,-54.8972"/>
<text text-anchor="middle" x="1478" y="-156" font-family="FreeSans" font-size="10.00"> scriptObjectMethods_</text>
</g>
<!-- Node21&#45;&gt;Node17 -->
<g id="edge28" class="edge"><title>Node21&#45;&gt;Node17</title>
<path fill="none" stroke="#9a32cd" stroke-dasharray="5,2" d="M1210.13,-72.7494C1285.47,-83.7832 1397.85,-100.549 1402,-103 1438.12,-124.305 1463.06,-170.262 1472.64,-190.313"/>
<polygon fill="#9a32cd" stroke="#9a32cd" points="1210.62,-69.2838 1200.22,-71.2997 1209.6,-76.2101 1210.62,-69.2838"/>
<text text-anchor="middle" x="1326" y="-106" font-family="FreeSans" font-size="10.00"> coroutineUpdate_</text>
</g>
<!-- Node22 -->
<g id="node22" class="node"><title>Node22</title>
<g id="a_node22"><a xlink:href="class_urho3_d_1_1_hash_map.html" target="_top" xlink:title="Urho3D::HashMap\&lt; const\l void *, Urho3D::SharedPtr\l\&lt; Urho3D::LuaFunction \&gt; \&gt;">
<polygon fill="none" stroke="red" points="1067,-91.5 1067,-132.5 1217,-132.5 1217,-91.5 1067,-91.5"/>
<text text-anchor="start" x="1075" y="-120.5" font-family="FreeSans" font-size="10.00">Urho3D::HashMap&lt; const</text>
<text text-anchor="start" x="1075" y="-109.5" font-family="FreeSans" font-size="10.00"> void *, Urho3D::SharedPtr</text>
<text text-anchor="middle" x="1142" y="-98.5" font-family="FreeSans" font-size="10.00">&lt; Urho3D::LuaFunction &gt; &gt;</text>
</a>
</g>
</g>
<!-- Node22&#45;&gt;Node17 -->
<g id="edge30" class="edge"><title>Node22&#45;&gt;Node17</title>
<path fill="none" stroke="#9a32cd" stroke-dasharray="5,2" d="M1227.28,-115.57C1279.09,-119.966 1346.03,-129.672 1402,-151 1426.71,-160.415 1451.67,-178.934 1465.66,-190.314"/>
<polygon fill="#9a32cd" stroke="#9a32cd" points="1227.38,-112.067 1217.13,-114.76 1226.82,-119.044 1227.38,-112.067"/>
<text text-anchor="middle" x="1326" y="-154" font-family="FreeSans" font-size="10.00"> functionPointerToFunctionMap_</text>
</g>
<!-- Node23 -->
<g id="node23" class="node"><title>Node23</title>
<g id="a_node23"><a xlink:href="class_urho3_d_1_1_shared_ptr.html" target="_top" xlink:title="Urho3D::SharedPtr\&lt;\l Urho3D::LuaFile \&gt;">
<polygon fill="none" stroke="black" points="1420,-0 1420,-30 1536,-30 1536,-0 1420,-0"/>
<text text-anchor="start" x="1428" y="-18" font-family="FreeSans" font-size="10.00">Urho3D::SharedPtr&lt;</text>
<text text-anchor="middle" x="1478" y="-7" font-family="FreeSans" font-size="10.00"> Urho3D::LuaFile &gt;</text>
</a>
</g>
</g>
<!-- Node23&#45;&gt;Node1 -->
<g id="edge32" class="edge"><title>Node23&#45;&gt;Node1</title>
<path fill="none" stroke="#9a32cd" stroke-dasharray="5,2" d="M1546.08,-16.5322C1567.37,-20.1125 1589.6,-27.4973 1606,-42 1685.17,-112.015 1694.73,-255.05 1695.86,-293.374"/>
<polygon fill="#9a32cd" stroke="#9a32cd" points="1546.47,-13.0512 1536.07,-15.1043 1545.48,-19.9811 1546.47,-13.0512"/>
<text text-anchor="middle" x="1580" y="-45" font-family="FreeSans" font-size="10.00"> scriptFile_</text>
</g>
<!-- Node24 -->
<g id="node24" class="node"><title>Node24</title>
<g id="a_node24"><a xlink:href="class_urho3_d_1_1_lua_file.html" target="_top" xlink:title="Lua file. ">
<polygon fill="none" stroke="red" points="1096,-5.5 1096,-24.5 1188,-24.5 1188,-5.5 1096,-5.5"/>
<text text-anchor="middle" x="1142" y="-12.5" font-family="FreeSans" font-size="10.00">Urho3D::LuaFile</text>
</a>
</g>
</g>
<!-- Node24&#45;&gt;Node23 -->
<g id="edge33" class="edge"><title>Node24&#45;&gt;Node23</title>
<path fill="none" stroke="#9a32cd" stroke-dasharray="5,2" d="M1198.29,-15C1259.55,-15 1357.84,-15 1419.84,-15"/>
<polygon fill="#9a32cd" stroke="#9a32cd" points="1198.04,-11.5001 1188.04,-15 1198.04,-18.5001 1198.04,-11.5001"/>
<text text-anchor="middle" x="1326" y="-18" font-family="FreeSans" font-size="10.00"> ptr_</text>
</g>
<!-- Node25&#45;&gt;Node1 -->
<g id="edge34" class="edge"><title>Node25&#45;&gt;Node1</title>
<path fill="none" stroke="#9a32cd" stroke-dasharray="5,2" d="M1044.17,-549.954C1157.52,-563.805 1371.86,-576.744 1536,-508 1626.78,-469.98 1678.98,-348.055 1692.47,-312.697"/>
<polygon fill="#9a32cd" stroke="#9a32cd" points="1044.55,-546.474 1034.19,-548.699 1043.68,-553.419 1044.55,-546.474"/>
<text text-anchor="middle" x="1326" y="-563" font-family="FreeSans" font-size="10.00"> attributeInfos_</text>
</g>
</g>
</svg>
        <g id="navigator" transform="translate(0 0)" fill="#404254">
                <rect fill="#f2f5e9" fill-opacity="0.5" stroke="#606060" stroke-width=".5" x="0" y="0" width="60" height="60"/>
                <use id="zoomplus" xlink:href="#zoomPlus" x="17" y="9" onmousedown="handleZoom(evt,'in')"/>
                <use id="zoomminus" xlink:href="#zoomMin" x="42" y="9" onmousedown="handleZoom(evt,'out')"/>
                <use id="reset" xlink:href="#resetDef" x="30" y="36" onmousedown="handleReset()"/>
                <g id="arrowUp" xlink:href="#dirArrow" transform="translate(30 24)" onmousedown="handlePan(0,-1)">
                  <use xlink:href="#rim" fill="#404040">
                        <set attributeName="fill" to="#808080" begin="arrowUp.mouseover" end="arrowUp.mouseout"/>
                  </use>
                  <path fill="none" stroke="white" stroke-width="1.5" d="M0,-3.0v7 M-2.5,-0.5L0,-3.0L2.5,-0.5"/>
                </g>
                <g id="arrowRight" xlink:href="#dirArrow" transform="rotate(90) translate(36 -43)" onmousedown="handlePan(1,0)">
                  <use xlink:href="#rim" fill="#404040">
                        <set attributeName="fill" to="#808080" begin="arrowRight.mouseover" end="arrowRight.mouseout"/>
                  </use>
                  <path fill="none" stroke="white" stroke-width="1.5" d="M0,-3.0v7 M-2.5,-0.5L0,-3.0L2.5,-0.5"/>
                </g>
                <g id="arrowDown" xlink:href="#dirArrow" transform="rotate(180) translate(-30 -48)" onmousedown="handlePan(0,1)">
                  <use xlink:href="#rim" fill="#404040">
                        <set attributeName="fill" to="#808080" begin="arrowDown.mouseover" end="arrowDown.mouseout"/>
                  </use>
                  <path fill="none" stroke="white" stroke-width="1.5" d="M0,-3.0v7 M-2.5,-0.5L0,-3.0L2.5,-0.5"/>
                </g>
                <g id="arrowLeft" xlink:href="#dirArrow" transform="rotate(270) translate(-36 17)" onmousedown="handlePan(-1,0)">
                  <use xlink:href="#rim" fill="#404040">
                        <set attributeName="fill" to="#808080" begin="arrowLeft.mouseover" end="arrowLeft.mouseout"/>
                  </use>
                  <path fill="none" stroke="white" stroke-width="1.5" d="M0,-3.0v7 M-2.5,-0.5L0,-3.0L2.5,-0.5"/>
                </g>
        </g>
        <svg viewBox="0 0 15 15" width="100%" height="30px" preserveAspectRatio="xMaxYMin meet">
         <g id="arrow_out" transform="scale(0.3 0.3)">
          <a xlink:href="class_urho3_d_1_1_lua_script_instance__coll__graph_org.svg" target="_base">
           <rect id="button" ry="5" rx="5" y="6" x="6" height="38" width="38"
                fill="#f2f5e9" fill-opacity="0.5" stroke="#606060" stroke-width="1.0"/>
           <path id="arrow"
             d="M 11.500037,31.436501 C 11.940474,20.09759 22.043105,11.32322 32.158766,21.979434 L 37.068811,17.246167 C 37.068811,17.246167 37.088388,32 37.088388,32 L 22.160133,31.978069 C 22.160133,31.978069 26.997745,27.140456 26.997745,27.140456 C 18.528582,18.264221 13.291696,25.230495 11.500037,31.436501 z"
             style="fill:#404040;"/>
          </a>
         </g>
        </svg>
</svg>
