<?xml version="1.0" encoding="UTF-8" standalone="no"?>
<!DOCTYPE svg PUBLIC "-//W3C//DTD SVG 1.1//EN"
 "http://www.w3.org/Graphics/SVG/1.1/DTD/svg11.dtd">
<!-- Generated by graphviz version 2.43.0 (0)
 -->
<!-- Title: Urho3D::TmxLayer2D Pages: 1 -->
<svg width="492pt" height="140pt"
 viewBox="0.00 0.00 492.00 140.00" xmlns="http://www.w3.org/2000/svg" xmlns:xlink="http://www.w3.org/1999/xlink">
<g id="graph0" class="graph" transform="scale(1 1) rotate(0) translate(4 136)">
<title>Urho3D::TmxLayer2D</title>
<!-- Node1 -->
<g id="node1" class="node">
<title>Node1</title>
<g id="a_node1"><a xlink:title="Tmx layer.">
<polygon fill="#bfbfbf" stroke="black" points="187,-56.5 187,-75.5 309,-75.5 309,-56.5 187,-56.5"/>
<text text-anchor="middle" x="248" y="-63.5" font-family="Helvetica,sans-Serif" font-size="10.00">Urho3D::TmxLayer2D</text>
</a>
</g>
</g>
<!-- Node3 -->
<g id="node3" class="node">
<title>Node3</title>
<g id="a_node3"><a xlink:href="class_urho3_d_1_1_tmx_image_layer2_d.html" target="_top" xlink:title="Tmx image layer.">
<polygon fill="none" stroke="black" points="0,-0.5 0,-19.5 152,-19.5 152,-0.5 0,-0.5"/>
<text text-anchor="middle" x="76" y="-7.5" font-family="Helvetica,sans-Serif" font-size="10.00">Urho3D::TmxImageLayer2D</text>
</a>
</g>
</g>
<!-- Node1&#45;&gt;Node3 -->
<g id="edge2" class="edge">
<title>Node1&#45;&gt;Node3</title>
<path fill="none" stroke="midnightblue" d="M211.17,-53.44C178.74,-43.26 132.26,-28.66 103.13,-19.52"/>
<polygon fill="midnightblue" stroke="midnightblue" points="210.16,-56.79 220.75,-56.44 212.25,-50.11 210.16,-56.79"/>
</g>
<!-- Node4 -->
<g id="node4" class="node">
<title>Node4</title>
<g id="a_node4"><a xlink:href="class_urho3_d_1_1_tmx_object_group2_d.html" target="_top" xlink:title="Tmx objects layer.">
<polygon fill="none" stroke="black" points="170.5,-0.5 170.5,-19.5 325.5,-19.5 325.5,-0.5 170.5,-0.5"/>
<text text-anchor="middle" x="248" y="-7.5" font-family="Helvetica,sans-Serif" font-size="10.00">Urho3D::TmxObjectGroup2D</text>
</a>
</g>
</g>
<!-- Node1&#45;&gt;Node4 -->
<g id="edge3" class="edge">
<title>Node1&#45;&gt;Node4</title>
<path fill="none" stroke="midnightblue" d="M248,-45.8C248,-36.91 248,-26.78 248,-19.75"/>
<polygon fill="midnightblue" stroke="midnightblue" points="244.5,-46.08 248,-56.08 251.5,-46.08 244.5,-46.08"/>
</g>
<!-- Node5 -->
<g id="node5" class="node">
<title>Node5</title>
<g id="a_node5"><a xlink:href="class_urho3_d_1_1_tmx_tile_layer2_d.html" target="_top" xlink:title="Tmx tile layer.">
<polygon fill="none" stroke="black" points="344,-0.5 344,-19.5 484,-19.5 484,-0.5 344,-0.5"/>
<text text-anchor="middle" x="414" y="-7.5" font-family="Helvetica,sans-Serif" font-size="10.00">Urho3D::TmxTileLayer2D</text>
</a>
</g>
</g>
<!-- Node1&#45;&gt;Node5 -->
<g id="edge4" class="edge">
<title>Node1&#45;&gt;Node5</title>
<path fill="none" stroke="midnightblue" d="M283.95,-53.3C315.23,-43.13 359.82,-28.62 387.82,-19.52"/>
<polygon fill="midnightblue" stroke="midnightblue" points="282.73,-50.02 274.3,-56.44 284.9,-56.68 282.73,-50.02"/>
</g>
<!-- Node2 -->
<g id="node2" class="node">
<title>Node2</title>
<g id="a_node2"><a xlink:href="class_urho3_d_1_1_ref_counted.html" target="_top" xlink:title="Base class for intrusively reference&#45;counted objects. These are noncopyable and non&#45;assignable.">
<polygon fill="none" stroke="black" points="190,-112.5 190,-131.5 306,-131.5 306,-112.5 190,-112.5"/>
<text text-anchor="middle" x="248" y="-119.5" font-family="Helvetica,sans-Serif" font-size="10.00">Urho3D::RefCounted</text>
</a>
</g>
</g>
<!-- Node2&#45;&gt;Node1 -->
<g id="edge1" class="edge">
<title>Node2&#45;&gt;Node1</title>
<path fill="none" stroke="midnightblue" d="M248,-101.8C248,-92.91 248,-82.78 248,-75.75"/>
<polygon fill="midnightblue" stroke="midnightblue" points="244.5,-102.08 248,-112.08 251.5,-102.08 244.5,-102.08"/>
</g>
</g>
</svg>
