<?xml version="1.0" encoding="UTF-8" standalone="no"?>
<!DOCTYPE svg PUBLIC "-//W3C//DTD SVG 1.1//EN"
 "http://www.w3.org/Graphics/SVG/1.1/DTD/svg11.dtd">
<!-- Generated by graphviz version 2.43.0 (0)
 -->
<!-- Title: Urho3D::RigidBody::GetAngularVelocity Pages: 1 -->
<svg width="454pt" height="61pt"
 viewBox="0.00 0.00 454.00 61.00" xmlns="http://www.w3.org/2000/svg" xmlns:xlink="http://www.w3.org/1999/xlink">
<g id="graph0" class="graph" transform="scale(1 1) rotate(0) translate(4 57)">
<title>Urho3D::RigidBody::GetAngularVelocity</title>
<!-- Node1 -->
<g id="node1" class="node">
<title>Node1</title>
<g id="a_node1"><a xlink:title=" ">
<polygon fill="#bfbfbf" stroke="black" points="332,-0.5 332,-30.5 446,-30.5 446,-0.5 332,-0.5"/>
<text text-anchor="start" x="340" y="-18.5" font-family="Helvetica,sans-Serif" font-size="10.00">Urho3D::RigidBody::</text>
<text text-anchor="middle" x="389" y="-7.5" font-family="Helvetica,sans-Serif" font-size="10.00">GetAngularVelocity</text>
</a>
</g>
</g>
<!-- Node2 -->
<g id="node2" class="node">
<title>Node2</title>
<g id="a_node2"><a xlink:href="class_urho3_d_1_1_rigid_body.html#ad784c198ca9787b55555c8e93d7ef07a" target="_top" xlink:title="Return network angular velocity attribute.">
<polygon fill="none" stroke="black" points="150,-22.5 150,-52.5 296,-52.5 296,-22.5 150,-22.5"/>
<text text-anchor="start" x="158" y="-40.5" font-family="Helvetica,sans-Serif" font-size="10.00">Urho3D::RigidBody::</text>
<text text-anchor="middle" x="223" y="-29.5" font-family="Helvetica,sans-Serif" font-size="10.00">GetNetAngularVelocityAttr</text>
</a>
</g>
</g>
<!-- Node1&#45;&gt;Node2 -->
<g id="edge1" class="edge">
<title>Node1&#45;&gt;Node2</title>
<path fill="none" stroke="midnightblue" d="M321.52,-24.42C313.18,-25.54 304.61,-26.69 296.18,-27.82"/>
<polygon fill="midnightblue" stroke="midnightblue" points="322.11,-27.87 331.56,-23.07 321.18,-20.93 322.11,-27.87"/>
</g>
<!-- Node3 -->
<g id="node3" class="node">
<title>Node3</title>
<g id="a_node3"><a xlink:href="class_urho3_d_1_1_rigid_body.html#a290f1f44cc003d8c7c5c419b3bfd4c3a" target="_top" xlink:title="Register object factory.">
<polygon fill="none" stroke="black" points="0,-0.5 0,-30.5 114,-30.5 114,-0.5 0,-0.5"/>
<text text-anchor="start" x="8" y="-18.5" font-family="Helvetica,sans-Serif" font-size="10.00">Urho3D::RigidBody::</text>
<text text-anchor="middle" x="57" y="-7.5" font-family="Helvetica,sans-Serif" font-size="10.00">RegisterObject</text>
</a>
</g>
</g>
<!-- Node1&#45;&gt;Node3 -->
<g id="edge3" class="edge">
<title>Node1&#45;&gt;Node3</title>
<path fill="none" stroke="midnightblue" d="M321.55,-13.88C312.95,-13.73 304.27,-13.59 296,-13.5 231.11,-12.79 214.89,-12.79 150,-13.5 138.5,-13.63 126.19,-13.84 114.44,-14.08"/>
<polygon fill="midnightblue" stroke="midnightblue" points="321.5,-17.38 331.56,-14.08 321.63,-10.38 321.5,-17.38"/>
</g>
<!-- Node2&#45;&gt;Node3 -->
<g id="edge2" class="edge">
<title>Node2&#45;&gt;Node3</title>
<path fill="none" stroke="midnightblue" d="M139.56,-26.44C130.99,-25.29 122.44,-24.14 114.26,-23.05"/>
<polygon fill="midnightblue" stroke="midnightblue" points="139.21,-29.93 149.59,-27.79 140.14,-22.99 139.21,-29.93"/>
</g>
</g>
</svg>
