<?xml version="1.0" encoding="UTF-8" standalone="no"?>
<!DOCTYPE svg PUBLIC "-//W3C//DTD SVG 1.1//EN"
 "http://www.w3.org/Graphics/SVG/1.1/DTD/svg11.dtd">
<!-- Generated by graphviz version 2.43.0 (0)
 -->
<!-- Title: Urho3D::Variant::GetTypeName Pages: 1 -->
<svg width="970pt" height="568pt"
 viewBox="0.00 0.00 970.00 568.00" xmlns="http://www.w3.org/2000/svg" xmlns:xlink="http://www.w3.org/1999/xlink">
<g id="graph0" class="graph" transform="scale(1 1) rotate(0) translate(4 564)">
<title>Urho3D::Variant::GetTypeName</title>
<!-- Node1 -->
<g id="node1" class="node">
<title>Node1</title>
<g id="a_node1"><a xlink:title=" ">
<polygon fill="#bfbfbf" stroke="black" points="793,-290 793,-309 962,-309 962,-290 793,-290"/>
<text text-anchor="middle" x="877.5" y="-297" font-family="Helvetica,sans-Serif" font-size="10.00">Urho3D::Variant::GetTypeName</text>
</a>
</g>
</g>
<!-- Node2 -->
<g id="node2" class="node">
<title>Node2</title>
<g id="a_node2"><a xlink:href="class_urho3_d_1_1_spline.html#aa77a744c301a9c7475d635d00b4df2e7" target="_top" xlink:title="Add a knot to the end of the spline.">
<polygon fill="none" stroke="black" points="620,-461 620,-480 757,-480 757,-461 620,-461"/>
<text text-anchor="middle" x="688.5" y="-468" font-family="Helvetica,sans-Serif" font-size="10.00">Urho3D::Spline::AddKnot</text>
</a>
</g>
</g>
<!-- Node1&#45;&gt;Node2 -->
<g id="edge1" class="edge">
<title>Node1&#45;&gt;Node2</title>
<path fill="none" stroke="midnightblue" d="M858.5,-315.96C819.98,-351.19 730.55,-432.96 699.97,-460.92"/>
<polygon fill="midnightblue" stroke="midnightblue" points="860.89,-318.51 865.91,-309.18 856.17,-313.35 860.89,-318.51"/>
</g>
<!-- Node6 -->
<g id="node6" class="node">
<title>Node6</title>
<g id="a_node6"><a xlink:href="class_urho3_d_1_1_serializable.html#a52c377ff65bd3198a3c460c6a43dc008" target="_top" xlink:title=" ">
<polygon fill="none" stroke="black" points="630.5,-333.5 630.5,-363.5 746.5,-363.5 746.5,-333.5 630.5,-333.5"/>
<text text-anchor="start" x="638.5" y="-351.5" font-family="Helvetica,sans-Serif" font-size="10.00">Urho3D::Serializable</text>
<text text-anchor="middle" x="688.5" y="-340.5" font-family="Helvetica,sans-Serif" font-size="10.00">::SetAttribute</text>
</a>
</g>
</g>
<!-- Node1&#45;&gt;Node6 -->
<g id="edge5" class="edge">
<title>Node1&#45;&gt;Node6</title>
<path fill="none" stroke="midnightblue" d="M830.28,-311.61C804.96,-318.25 773.36,-326.53 746.52,-333.56"/>
<polygon fill="midnightblue" stroke="midnightblue" points="831.21,-314.98 840,-309.06 829.44,-308.21 831.21,-314.98"/>
</g>
<!-- Node32 -->
<g id="node16" class="node">
<title>Node32</title>
<g id="a_node16"><a xlink:href="class_urho3_d_1_1_spline.html#ad5a5477e8dd8bd471c6a00e508cfc399" target="_top" xlink:title="Set the value of an existing knot.">
<polygon fill="none" stroke="black" points="621.5,-290 621.5,-309 755.5,-309 755.5,-290 621.5,-290"/>
<text text-anchor="middle" x="688.5" y="-297" font-family="Helvetica,sans-Serif" font-size="10.00">Urho3D::Spline::SetKnot</text>
</a>
</g>
</g>
<!-- Node1&#45;&gt;Node32 -->
<g id="edge17" class="edge">
<title>Node1&#45;&gt;Node32</title>
<path fill="none" stroke="midnightblue" d="M782.6,-299.5C773.51,-299.5 764.43,-299.5 755.69,-299.5"/>
<polygon fill="midnightblue" stroke="midnightblue" points="782.85,-303 792.85,-299.5 782.85,-296 782.85,-303"/>
</g>
<!-- Node34 -->
<g id="node18" class="node">
<title>Node34</title>
<g id="a_node18"><a xlink:href="class_urho3_d_1_1_x_m_l_element.html#ad1c6f524bcba2da8d00f55d169caac19" target="_top" xlink:title="Set a variant attribute.">
<polygon fill="none" stroke="black" points="628,-191.5 628,-221.5 749,-221.5 749,-191.5 628,-191.5"/>
<text text-anchor="start" x="636" y="-209.5" font-family="Helvetica,sans-Serif" font-size="10.00">Urho3D::XMLElement</text>
<text text-anchor="middle" x="688.5" y="-198.5" font-family="Helvetica,sans-Serif" font-size="10.00">::SetVariant</text>
</a>
</g>
</g>
<!-- Node1&#45;&gt;Node34 -->
<g id="edge19" class="edge">
<title>Node1&#45;&gt;Node34</title>
<path fill="none" stroke="midnightblue" d="M848.09,-285.37C813.47,-268.15 755.21,-239.18 719.76,-221.55"/>
<polygon fill="midnightblue" stroke="midnightblue" points="846.68,-288.58 857.19,-289.9 849.8,-282.31 846.68,-288.58"/>
</g>
<!-- Node48 -->
<g id="node23" class="node">
<title>Node48</title>
<g id="a_node23"><a xlink:href="class_urho3_d_1_1_j_s_o_n_value.html#a80c79eecad170464d49770972271564e" target="_top" xlink:title="Set variant, context must provide for resource ref.">
<polygon fill="none" stroke="black" points="630.5,-49.5 630.5,-79.5 746.5,-79.5 746.5,-49.5 630.5,-49.5"/>
<text text-anchor="start" x="638.5" y="-67.5" font-family="Helvetica,sans-Serif" font-size="10.00">Urho3D::JSONValue::</text>
<text text-anchor="middle" x="688.5" y="-56.5" font-family="Helvetica,sans-Serif" font-size="10.00">SetVariant</text>
</a>
</g>
</g>
<!-- Node1&#45;&gt;Node48 -->
<g id="edge25" class="edge">
<title>Node1&#45;&gt;Node48</title>
<path fill="none" stroke="midnightblue" d="M862.69,-282.15C827.47,-237.88 734.69,-121.29 701.51,-79.59"/>
<polygon fill="midnightblue" stroke="midnightblue" points="859.97,-284.35 868.94,-290 865.45,-279.99 859.97,-284.35"/>
</g>
<!-- Node3 -->
<g id="node3" class="node">
<title>Node3</title>
<g id="a_node3"><a xlink:href="class_urho3_d_1_1_spline_path.html#aeda8d385fe734579f66408158582ada0" target="_top" xlink:title="Add a Node to the SplinePath as a Control Point.">
<polygon fill="none" stroke="black" points="442.5,-529.5 442.5,-559.5 552.5,-559.5 552.5,-529.5 442.5,-529.5"/>
<text text-anchor="start" x="450.5" y="-547.5" font-family="Helvetica,sans-Serif" font-size="10.00">Urho3D::SplinePath</text>
<text text-anchor="middle" x="497.5" y="-536.5" font-family="Helvetica,sans-Serif" font-size="10.00">::AddControlPoint</text>
</a>
</g>
</g>
<!-- Node2&#45;&gt;Node3 -->
<g id="edge2" class="edge">
<title>Node2&#45;&gt;Node3</title>
<path fill="none" stroke="midnightblue" d="M660.91,-484.96C640.33,-495.74 610.91,-510.32 584,-520.5 574.05,-524.27 563.25,-527.75 552.79,-530.82"/>
<polygon fill="midnightblue" stroke="midnightblue" points="662.78,-487.93 669.97,-480.15 659.5,-481.74 662.78,-487.93"/>
</g>
<!-- Node4 -->
<g id="node4" class="node">
<title>Node4</title>
<g id="a_node4"><a xlink:href="class_urho3_d_1_1_spline_path.html#a050f0c34ef856d7794b007bb1bc6d5db" target="_top" xlink:title="Apply Attributes to the SplinePath.">
<polygon fill="none" stroke="black" points="442.5,-480.5 442.5,-510.5 552.5,-510.5 552.5,-480.5 442.5,-480.5"/>
<text text-anchor="start" x="450.5" y="-498.5" font-family="Helvetica,sans-Serif" font-size="10.00">Urho3D::SplinePath</text>
<text text-anchor="middle" x="497.5" y="-487.5" font-family="Helvetica,sans-Serif" font-size="10.00">::ApplyAttributes</text>
</a>
</g>
</g>
<!-- Node2&#45;&gt;Node4 -->
<g id="edge3" class="edge">
<title>Node2&#45;&gt;Node4</title>
<path fill="none" stroke="midnightblue" d="M609.87,-480.77C590.67,-483.31 570.51,-485.97 552.71,-488.33"/>
<polygon fill="midnightblue" stroke="midnightblue" points="610.35,-484.24 619.8,-479.45 609.43,-477.3 610.35,-484.24"/>
</g>
<!-- Node5 -->
<g id="node5" class="node">
<title>Node5</title>
<g id="a_node5"><a xlink:href="class_urho3_d_1_1_spline_path.html#a70332b257f6b5adc371291208dd7e430" target="_top" xlink:title="Listener to manage Control Point enabling.">
<polygon fill="none" stroke="black" points="439.5,-431.5 439.5,-461.5 555.5,-461.5 555.5,-431.5 439.5,-431.5"/>
<text text-anchor="start" x="447.5" y="-449.5" font-family="Helvetica,sans-Serif" font-size="10.00">Urho3D::SplinePath</text>
<text text-anchor="middle" x="497.5" y="-438.5" font-family="Helvetica,sans-Serif" font-size="10.00">::OnNodeSetEnabled</text>
</a>
</g>
</g>
<!-- Node2&#45;&gt;Node5 -->
<g id="edge4" class="edge">
<title>Node2&#45;&gt;Node5</title>
<path fill="none" stroke="midnightblue" d="M609.85,-460.64C591.74,-458.34 572.78,-455.93 555.75,-453.77"/>
<polygon fill="midnightblue" stroke="midnightblue" points="609.44,-464.12 619.8,-461.9 610.32,-457.17 609.44,-464.12"/>
</g>
<!-- Node7 -->
<g id="node7" class="node">
<title>Node7</title>
<g id="a_node7"><a xlink:href="class_urho3_d_1_1_scene_resolver.html#a4322ce210921b372aa621462408597cc" target="_top" xlink:title="Resolve component and node ID attributes and reset.">
<polygon fill="none" stroke="red" points="432,-382.5 432,-412.5 563,-412.5 563,-382.5 432,-382.5"/>
<text text-anchor="start" x="440" y="-400.5" font-family="Helvetica,sans-Serif" font-size="10.00">Urho3D::SceneResolver</text>
<text text-anchor="middle" x="497.5" y="-389.5" font-family="Helvetica,sans-Serif" font-size="10.00">::Resolve</text>
</a>
</g>
</g>
<!-- Node6&#45;&gt;Node7 -->
<g id="edge6" class="edge">
<title>Node6&#45;&gt;Node7</title>
<path fill="none" stroke="midnightblue" d="M620.52,-365.87C599.61,-371.29 576.74,-377.22 556.5,-382.46"/>
<polygon fill="midnightblue" stroke="midnightblue" points="621.48,-369.23 630.28,-363.33 619.72,-362.46 621.48,-369.23"/>
</g>
<!-- Node27 -->
<g id="node15" class="node">
<title>Node27</title>
<g id="a_node15"><a xlink:href="class_urho3_d_1_1_script_instance.html#aa535e7691f379c6e5cf1bf10f485d5ad" target="_top" xlink:title="Restore values of script attributes after hot reload is complete.">
<polygon fill="none" stroke="red" points="429.5,-333.5 429.5,-363.5 565.5,-363.5 565.5,-333.5 429.5,-333.5"/>
<text text-anchor="start" x="437.5" y="-351.5" font-family="Helvetica,sans-Serif" font-size="10.00">Urho3D::ScriptInstance</text>
<text text-anchor="middle" x="497.5" y="-340.5" font-family="Helvetica,sans-Serif" font-size="10.00">::RestoreScriptAttributes</text>
</a>
</g>
</g>
<!-- Node6&#45;&gt;Node27 -->
<g id="edge16" class="edge">
<title>Node6&#45;&gt;Node27</title>
<path fill="none" stroke="midnightblue" d="M620.08,-348.5C602.45,-348.5 583.45,-348.5 565.83,-348.5"/>
<polygon fill="midnightblue" stroke="midnightblue" points="620.28,-352 630.28,-348.5 620.28,-345 620.28,-352"/>
</g>
<!-- Node8 -->
<g id="node8" class="node">
<title>Node8</title>
<g id="a_node8"><a xlink:href="class_urho3_d_1_1_node.html#a2005276776f4ecca887f34438e161c68" target="_top" xlink:title="Clone scene node, components and child nodes. Return the clone.">
<polygon fill="none" stroke="black" points="231.5,-476 231.5,-495 350.5,-495 350.5,-476 231.5,-476"/>
<text text-anchor="middle" x="291" y="-483" font-family="Helvetica,sans-Serif" font-size="10.00">Urho3D::Node::Clone</text>
</a>
</g>
</g>
<!-- Node7&#45;&gt;Node8 -->
<g id="edge7" class="edge">
<title>Node7&#45;&gt;Node8</title>
<path fill="none" stroke="midnightblue" d="M422.25,-416.07C418.33,-418.01 414.55,-420.15 411,-422.5 389.93,-436.45 396.47,-453.18 375,-466.5 367.59,-471.1 359.18,-474.58 350.64,-477.23"/>
<polygon fill="midnightblue" stroke="midnightblue" points="423.89,-419.17 431.59,-411.9 421.03,-412.78 423.89,-419.17"/>
</g>
<!-- Node9 -->
<g id="node9" class="node">
<title>Node9</title>
<g id="a_node9"><a xlink:href="class_urho3_d_1_1_scene.html#a019a062421bf4e2d4f5f213245008f28" target="_top" xlink:title="Finish asynchronous loading.">
<polygon fill="none" stroke="red" points="215,-426.5 215,-456.5 367,-456.5 367,-426.5 215,-426.5"/>
<text text-anchor="start" x="223" y="-444.5" font-family="Helvetica,sans-Serif" font-size="10.00">Urho3D::Scene::FinishAsync</text>
<text text-anchor="middle" x="291" y="-433.5" font-family="Helvetica,sans-Serif" font-size="10.00">Loading</text>
</a>
</g>
</g>
<!-- Node7&#45;&gt;Node9 -->
<g id="edge8" class="edge">
<title>Node7&#45;&gt;Node9</title>
<path fill="none" stroke="midnightblue" d="M422,-413.53C402.39,-417.75 381.31,-422.28 361.95,-426.45"/>
<polygon fill="midnightblue" stroke="midnightblue" points="422.75,-416.95 431.79,-411.42 421.28,-410.1 422.75,-416.95"/>
</g>
<!-- Node13 -->
<g id="node10" class="node">
<title>Node13</title>
<g id="a_node10"><a xlink:href="class_urho3_d_1_1_scene.html#a1cca9113f43ff1b7517cf036f569ee52" target="_top" xlink:title="Instantiate scene content from binary data. Return root node if successful.">
<polygon fill="none" stroke="black" points="12,-331 12,-350 159,-350 159,-331 12,-331"/>
<text text-anchor="middle" x="85.5" y="-338" font-family="Helvetica,sans-Serif" font-size="10.00">Urho3D::Scene::Instantiate</text>
</a>
</g>
</g>
<!-- Node7&#45;&gt;Node13 -->
<g id="edge9" class="edge">
<title>Node7&#45;&gt;Node13</title>
<path fill="none" stroke="midnightblue" d="M422,-387.14C345.96,-376.57 228.91,-360.3 155.08,-350.03"/>
<polygon fill="midnightblue" stroke="midnightblue" points="421.6,-390.62 431.99,-388.53 422.56,-383.69 421.6,-390.62"/>
</g>
<!-- Node14 -->
<g id="node11" class="node">
<title>Node14</title>
<g id="a_node11"><a xlink:href="class_urho3_d_1_1_scene.html#a03f80f9703e4d92e89b0de7fd930d239" target="_top" xlink:title="Instantiate scene content from JSON data. Return root node if successful.">
<polygon fill="none" stroke="red" points="0,-407 0,-426 171,-426 171,-407 0,-407"/>
<text text-anchor="middle" x="85.5" y="-414" font-family="Helvetica,sans-Serif" font-size="10.00">Urho3D::Scene::InstantiateJSON</text>
</a>
</g>
</g>
<!-- Node7&#45;&gt;Node14 -->
<g id="edge10" class="edge">
<title>Node7&#45;&gt;Node14</title>
<path fill="none" stroke="midnightblue" d="M421.82,-400.96C351.12,-404.24 245.09,-409.15 171.26,-412.57"/>
<polygon fill="midnightblue" stroke="midnightblue" points="422.16,-404.45 431.99,-400.49 421.84,-397.46 422.16,-404.45"/>
</g>
<!-- Node16 -->
<g id="node12" class="node">
<title>Node16</title>
<g id="a_node12"><a xlink:href="class_urho3_d_1_1_scene.html#a16c9193018c0cfadaae69961b9132762" target="_top" xlink:title="Instantiate scene content from XML data. Return root node if successful.">
<polygon fill="none" stroke="red" points="207,-312 207,-331 375,-331 375,-312 207,-312"/>
<text text-anchor="middle" x="291" y="-319" font-family="Helvetica,sans-Serif" font-size="10.00">Urho3D::Scene::InstantiateXML</text>
</a>
</g>
</g>
<!-- Node7&#45;&gt;Node16 -->
<g id="edge11" class="edge">
<title>Node7&#45;&gt;Node16</title>
<path fill="none" stroke="midnightblue" d="M422.82,-378.85C418.76,-377.19 414.79,-375.41 411,-373.5 392.9,-364.37 393.06,-354.7 375,-345.5 363.11,-339.44 349.45,-334.69 336.69,-331.08"/>
<polygon fill="midnightblue" stroke="midnightblue" points="421.84,-382.22 432.43,-382.48 424.31,-375.67 421.84,-382.22"/>
</g>
<!-- Node18 -->
<g id="node13" class="node">
<title>Node18</title>
<g id="a_node13"><a xlink:href="class_urho3_d_1_1_node.html#abff724992139c3007e51c4f61541cd5c" target="_top" xlink:title="Load from binary data. Return true if successful.">
<polygon fill="none" stroke="red" points="234,-274 234,-293 348,-293 348,-274 234,-274"/>
<text text-anchor="middle" x="291" y="-281" font-family="Helvetica,sans-Serif" font-size="10.00">Urho3D::Node::Load</text>
</a>
</g>
</g>
<!-- Node7&#45;&gt;Node18 -->
<g id="edge12" class="edge">
<title>Node7&#45;&gt;Node18</title>
<path fill="none" stroke="midnightblue" d="M422.63,-381.29C418.5,-379.02 414.58,-376.44 411,-373.5 383.66,-351.04 402.88,-324.28 375,-302.5 367.2,-296.4 357.79,-292.19 348.16,-289.31"/>
<polygon fill="midnightblue" stroke="midnightblue" points="421.42,-384.59 431.95,-385.76 424.45,-378.28 421.42,-384.59"/>
</g>
<!-- Node21 -->
<g id="node14" class="node">
<title>Node21</title>
<g id="a_node14"><a xlink:href="class_urho3_d_1_1_node.html#a4d35bd54bbd8692b4d6f87e87cd40df9" target="_top" xlink:title="Load from JSON data. Return true if successful.">
<polygon fill="none" stroke="red" points="222,-514 222,-533 360,-533 360,-514 222,-514"/>
<text text-anchor="middle" x="291" y="-521" font-family="Helvetica,sans-Serif" font-size="10.00">Urho3D::Node::LoadJSON</text>
</a>
</g>
</g>
<!-- Node7&#45;&gt;Node21 -->
<g id="edge14" class="edge">
<title>Node7&#45;&gt;Node21</title>
<path fill="none" stroke="midnightblue" d="M422.42,-414.38C418.34,-416.74 414.49,-419.43 411,-422.5 381.1,-448.77 405.67,-479.13 375,-504.5 370.33,-508.36 365.03,-511.48 359.41,-513.98"/>
<polygon fill="midnightblue" stroke="midnightblue" points="424.31,-417.34 431.66,-409.71 421.16,-411.1 424.31,-417.34"/>
</g>
<!-- Node18&#45;&gt;Node13 -->
<g id="edge13" class="edge">
<title>Node18&#45;&gt;Node13</title>
<path fill="none" stroke="midnightblue" d="M235.63,-295.29C226.06,-297.55 216.21,-300 207,-302.5 175.04,-311.18 138.86,-322.84 114.55,-330.95"/>
<polygon fill="midnightblue" stroke="midnightblue" points="236.52,-298.67 245.47,-293 234.94,-291.85 236.52,-298.67"/>
</g>
<!-- Node21&#45;&gt;Node14 -->
<g id="edge15" class="edge">
<title>Node21&#45;&gt;Node14</title>
<path fill="none" stroke="midnightblue" d="M224.09,-511.04C218.21,-509.14 212.43,-506.98 207,-504.5 161.51,-483.75 116.12,-444.27 96.54,-426.1"/>
<polygon fill="midnightblue" stroke="midnightblue" points="223.47,-514.5 234.05,-513.98 225.45,-507.79 223.47,-514.5"/>
</g>
<!-- Node33 -->
<g id="node17" class="node">
<title>Node33</title>
<g id="a_node17"><a xlink:href="class_urho3_d_1_1_spline_path.html#a52f7ac7452d9c538da76d297030d8841" target="_top" xlink:title="Listener to manage Control Point movement.">
<polygon fill="none" stroke="black" points="442.5,-284.5 442.5,-314.5 552.5,-314.5 552.5,-284.5 442.5,-284.5"/>
<text text-anchor="start" x="450.5" y="-302.5" font-family="Helvetica,sans-Serif" font-size="10.00">Urho3D::SplinePath</text>
<text text-anchor="middle" x="497.5" y="-291.5" font-family="Helvetica,sans-Serif" font-size="10.00">::OnMarkedDirty</text>
</a>
</g>
</g>
<!-- Node32&#45;&gt;Node33 -->
<g id="edge18" class="edge">
<title>Node32&#45;&gt;Node33</title>
<path fill="none" stroke="midnightblue" d="M611.26,-299.5C591.64,-299.5 570.94,-299.5 552.7,-299.5"/>
<polygon fill="midnightblue" stroke="midnightblue" points="611.4,-303 621.4,-299.5 611.4,-296 611.4,-303"/>
</g>
<!-- Node35 -->
<g id="node19" class="node">
<title>Node35</title>
<g id="a_node19"><a xlink:href="class_urho3_d_1_1_resource_with_metadata.html#a5d03bdec155fe2a32f1931ba40b2dbd6" target="_top" xlink:title="Save as &lt;metadata&gt; children of XML element.">
<polygon fill="none" stroke="black" points="411,-235.5 411,-265.5 584,-265.5 584,-235.5 411,-235.5"/>
<text text-anchor="start" x="419" y="-253.5" font-family="Helvetica,sans-Serif" font-size="10.00">Urho3D::ResourceWithMetadata</text>
<text text-anchor="middle" x="497.5" y="-242.5" font-family="Helvetica,sans-Serif" font-size="10.00">::SaveMetadataToXML</text>
</a>
</g>
</g>
<!-- Node34&#45;&gt;Node35 -->
<g id="edge20" class="edge">
<title>Node34&#45;&gt;Node35</title>
<path fill="none" stroke="midnightblue" d="M618.1,-222.66C600.08,-226.85 580.74,-231.35 562.98,-235.49"/>
<polygon fill="midnightblue" stroke="midnightblue" points="619.01,-226.04 627.96,-220.36 617.43,-219.22 619.01,-226.04"/>
</g>
<!-- Node36 -->
<g id="node20" class="node">
<title>Node36</title>
<g id="a_node20"><a xlink:href="class_urho3_d_1_1_value_animation.html#af54548bd2522a3b8eee6d47e56c42b64" target="_top" xlink:title="Save as XML data. Return true if successful.">
<polygon fill="none" stroke="red" points="222.5,-169.5 222.5,-199.5 359.5,-199.5 359.5,-169.5 222.5,-169.5"/>
<text text-anchor="start" x="230.5" y="-187.5" font-family="Helvetica,sans-Serif" font-size="10.00">Urho3D::ValueAnimation</text>
<text text-anchor="middle" x="291" y="-176.5" font-family="Helvetica,sans-Serif" font-size="10.00">::SaveXML</text>
</a>
</g>
</g>
<!-- Node34&#45;&gt;Node36 -->
<g id="edge21" class="edge">
<title>Node34&#45;&gt;Node36</title>
<path fill="none" stroke="midnightblue" d="M617.88,-202.63C545.14,-198.58 431.79,-192.28 359.76,-188.27"/>
<polygon fill="midnightblue" stroke="midnightblue" points="617.68,-206.12 627.86,-203.18 618.07,-199.13 617.68,-206.12"/>
</g>
<!-- Node46 -->
<g id="node21" class="node">
<title>Node46</title>
<g id="a_node21"><a xlink:href="class_urho3_d_1_1_x_m_l_element.html#a46558fc4621b551bf9f8d48369c4250f" target="_top" xlink:title="Set a variant map attribute. Creates child elements as necessary.">
<polygon fill="none" stroke="black" points="437,-147.5 437,-177.5 558,-177.5 558,-147.5 437,-147.5"/>
<text text-anchor="start" x="445" y="-165.5" font-family="Helvetica,sans-Serif" font-size="10.00">Urho3D::XMLElement</text>
<text text-anchor="middle" x="497.5" y="-154.5" font-family="Helvetica,sans-Serif" font-size="10.00">::SetVariantMap</text>
</a>
</g>
</g>
<!-- Node34&#45;&gt;Node46 -->
<g id="edge22" class="edge">
<title>Node34&#45;&gt;Node46</title>
<path fill="none" stroke="midnightblue" d="M618.12,-190.35C598.42,-185.76 577.14,-180.81 558.07,-176.37"/>
<polygon fill="midnightblue" stroke="midnightblue" points="617.43,-193.78 627.96,-192.64 619.01,-186.96 617.43,-193.78"/>
</g>
<!-- Node47 -->
<g id="node22" class="node">
<title>Node47</title>
<g id="a_node22"><a xlink:href="class_urho3_d_1_1_x_m_l_element.html#aa9a4b14072f37b4e6eaf07b071eb296f" target="_top" xlink:title="Set a variant vector attribute. Creates child elements as necessary.">
<polygon fill="none" stroke="black" points="437,-98.5 437,-128.5 558,-128.5 558,-98.5 437,-98.5"/>
<text text-anchor="start" x="445" y="-116.5" font-family="Helvetica,sans-Serif" font-size="10.00">Urho3D::XMLElement</text>
<text text-anchor="middle" x="497.5" y="-105.5" font-family="Helvetica,sans-Serif" font-size="10.00">::SetVariantVector</text>
</a>
</g>
</g>
<!-- Node34&#45;&gt;Node47 -->
<g id="edge24" class="edge">
<title>Node34&#45;&gt;Node47</title>
<path fill="none" stroke="midnightblue" d="M660.21,-185.32C640.07,-170.52 611.49,-151.21 584,-138.5 575.86,-134.74 567.02,-131.4 558.21,-128.48"/>
<polygon fill="midnightblue" stroke="midnightblue" points="658.19,-188.18 668.3,-191.36 662.38,-182.57 658.19,-188.18"/>
</g>
<!-- Node46&#45;&gt;Node36 -->
<g id="edge23" class="edge">
<title>Node46&#45;&gt;Node36</title>
<path fill="none" stroke="midnightblue" d="M426.69,-170.01C405.03,-172.34 381.2,-174.9 359.68,-177.22"/>
<polygon fill="midnightblue" stroke="midnightblue" points="427.23,-173.47 436.8,-168.92 426.48,-166.51 427.23,-173.47"/>
</g>
<!-- Node49 -->
<g id="node24" class="node">
<title>Node49</title>
<g id="a_node24"><a xlink:href="class_urho3_d_1_1_value_animation.html#a8669b6494851ffe6004350c5618b5f75" target="_top" xlink:title="Save as XML data. Return true if successful.">
<polygon fill="none" stroke="red" points="429,-49.5 429,-79.5 566,-79.5 566,-49.5 429,-49.5"/>
<text text-anchor="start" x="437" y="-67.5" font-family="Helvetica,sans-Serif" font-size="10.00">Urho3D::ValueAnimation</text>
<text text-anchor="middle" x="497.5" y="-56.5" font-family="Helvetica,sans-Serif" font-size="10.00">::SaveJSON</text>
</a>
</g>
</g>
<!-- Node48&#45;&gt;Node49 -->
<g id="edge26" class="edge">
<title>Node48&#45;&gt;Node49</title>
<path fill="none" stroke="midnightblue" d="M620.14,-64.5C602.6,-64.5 583.71,-64.5 566.16,-64.5"/>
<polygon fill="midnightblue" stroke="midnightblue" points="620.28,-68 630.28,-64.5 620.28,-61 620.28,-68"/>
</g>
<!-- Node54 -->
<g id="node25" class="node">
<title>Node54</title>
<g id="a_node25"><a xlink:href="class_urho3_d_1_1_j_s_o_n_value.html#a5dc37275712c849350731daeb15bf6d7" target="_top" xlink:title="Set variant vector, context must provide for resource ref.">
<polygon fill="none" stroke="black" points="439.5,-0.5 439.5,-30.5 555.5,-30.5 555.5,-0.5 439.5,-0.5"/>
<text text-anchor="start" x="447.5" y="-18.5" font-family="Helvetica,sans-Serif" font-size="10.00">Urho3D::JSONValue::</text>
<text text-anchor="middle" x="497.5" y="-7.5" font-family="Helvetica,sans-Serif" font-size="10.00">SetVariantVector</text>
</a>
</g>
</g>
<!-- Node48&#45;&gt;Node54 -->
<g id="edge27" class="edge">
<title>Node48&#45;&gt;Node54</title>
<path fill="none" stroke="midnightblue" d="M620.38,-47.1C599.17,-41.6 575.95,-35.58 555.52,-30.28"/>
<polygon fill="midnightblue" stroke="midnightblue" points="619.72,-50.54 630.28,-49.67 621.48,-43.77 619.72,-50.54"/>
</g>
</g>
</svg>
