<?xml version="1.0" encoding="UTF-8" standalone="no"?>
<!DOCTYPE svg PUBLIC "-//W3C//DTD SVG 1.1//EN"
 "http://www.w3.org/Graphics/SVG/1.1/DTD/svg11.dtd">
<!-- Generated by graphviz version 2.43.0 (0)
 -->
<!-- Title: Urho3D::BoundingBox::Center Pages: 1 -->
<!--zoomable 573 -->
<svg id="main" version="1.1" xmlns="http://www.w3.org/2000/svg" xmlns:xlink="http://www.w3.org/1999/xlink" xml:space="preserve" onload="init(evt)">
<style type="text/css"><![CDATA[
.edge:hover path { stroke: red; }
.edge:hover polygon { stroke: red; fill: red; }
]]></style>
<script type="text/javascript"><![CDATA[
var edges = document.getElementsByTagName('g');
if (edges && edges.length) {
  for (var i=0;i<edges.length;i++) {
    if (edges[i].id.substr(0,4)=='edge') {
      edges[i].setAttribute('class','edge');
    }
  }
}
]]></script>
        <defs>
                <circle id="rim" cx="0" cy="0" r="7"/>
                <circle id="rim2" cx="0" cy="0" r="3.5"/>
                <g id="zoomPlus">
                        <use xlink:href="#rim" fill="#404040">
                                <set attributeName="fill" to="#808080" begin="zoomplus.mouseover" end="zoomplus.mouseout"/>
                        </use>
                        <path d="M-4,0h8M0,-4v8" fill="none" stroke="white" stroke-width="1.5" pointer-events="none"/>
                </g>
                <g id="zoomMin">
                        <use xlink:href="#rim" fill="#404040">
                                <set attributeName="fill" to="#808080" begin="zoomminus.mouseover" end="zoomminus.mouseout"/>
                        </use>
                        <path d="M-4,0h8" fill="none" stroke="white" stroke-width="1.5" pointer-events="none"/>
                </g>
                <g id="dirArrow">
                        <path fill="none" stroke="white" stroke-width="1.5" d="M0,-3.0v7 M-2.5,-0.5L0,-3.0L2.5,-0.5"/>
                </g>
               <g id="resetDef">
                       <use xlink:href="#rim2" fill="#404040">
                               <set attributeName="fill" to="#808080" begin="reset.mouseover" end="reset.mouseout"/>
                       </use>
               </g>
        </defs>

<script type="text/javascript">
var viewWidth = 737;
var viewHeight = 573;
var sectionId = 'dynsection-1';
</script>
<script xlink:href="svgpan.js"/>
<svg id="graph" class="graph">
<g id="viewport">
<title>Urho3D::BoundingBox::Center</title>
<!-- Node1 -->
<g id="node1" class="node">
<title>Node1</title>
<g id="a_node1"><a xlink:title=" ">
<polygon fill="#bfbfbf" stroke="black" points="605,-294.5 605,-324.5 729,-324.5 729,-294.5 605,-294.5"/>
<text text-anchor="start" x="613" y="-312.5" font-family="Helvetica,sans-Serif" font-size="10.00">Urho3D::BoundingBox</text>
<text text-anchor="middle" x="667" y="-301.5" font-family="Helvetica,sans-Serif" font-size="10.00">::Center</text>
</a>
</g>
</g>
<!-- Node2 -->
<g id="node2" class="node">
<title>Node2</title>
<g id="a_node2"><a xlink:href="class_urho3_d_1_1_bounding_box.html#a1eaac173d1df592326f91ea174a74a43" target="_top" xlink:title="Return distance to point.">
<polygon fill="none" stroke="black" points="423.5,-534.5 423.5,-564.5 547.5,-564.5 547.5,-534.5 423.5,-534.5"/>
<text text-anchor="start" x="431.5" y="-552.5" font-family="Helvetica,sans-Serif" font-size="10.00">Urho3D::BoundingBox</text>
<text text-anchor="middle" x="485.5" y="-541.5" font-family="Helvetica,sans-Serif" font-size="10.00">::DistanceToPoint</text>
</a>
</g>
</g>
<!-- Node1&#45;&gt;Node2 -->
<g id="edge1" class="edge">
<title>Node1&#45;&gt;Node2</title>
<path fill="none" stroke="midnightblue" d="M661.68,-334.55C652.66,-379.29 627.56,-473.08 569,-524.5 562.81,-529.93 555.48,-534.18 547.77,-537.51"/>
<polygon fill="midnightblue" stroke="midnightblue" points="665.16,-335.01 663.6,-324.53 658.28,-333.7 665.16,-335.01"/>
</g>
<!-- Node4 -->
<g id="node4" class="node">
<title>Node4</title>
<g id="a_node4"><a xlink:href="class_urho3_d_1_1_view.html#ae6b753dabd0921ef05ce5d73b75c6209" target="_top" xlink:title="Find and set a new zone for a drawable when it has moved.">
<polygon fill="none" stroke="black" points="418.5,-496 418.5,-515 552.5,-515 552.5,-496 418.5,-496"/>
<text text-anchor="middle" x="485.5" y="-503" font-family="Helvetica,sans-Serif" font-size="10.00">Urho3D::View::FindZone</text>
</a>
</g>
</g>
<!-- Node1&#45;&gt;Node4 -->
<g id="edge3" class="edge">
<title>Node1&#45;&gt;Node4</title>
<path fill="none" stroke="midnightblue" d="M658.7,-334.37C646.41,-371.88 617.99,-442.67 569,-481.5 561.05,-487.8 551.5,-492.45 541.77,-495.87"/>
<polygon fill="midnightblue" stroke="midnightblue" points="662.07,-335.32 661.74,-324.73 655.4,-333.21 662.07,-335.32"/>
</g>
<!-- Node5 -->
<g id="node5" class="node">
<title>Node5</title>
<g id="a_node5"><a xlink:href="class_urho3_d_1_1_octant.html#af6b16c407e941cff6bf54e509abf25a8" target="_top" xlink:title="Return or create a child octant.">
<polygon fill="none" stroke="black" points="0,-433.5 0,-463.5 158,-463.5 158,-433.5 0,-433.5"/>
<text text-anchor="start" x="8" y="-451.5" font-family="Helvetica,sans-Serif" font-size="10.00">Urho3D::Octant::GetOrCreate</text>
<text text-anchor="middle" x="79" y="-440.5" font-family="Helvetica,sans-Serif" font-size="10.00">Child</text>
</a>
</g>
</g>
<!-- Node1&#45;&gt;Node5 -->
<g id="edge4" class="edge">
<title>Node1&#45;&gt;Node5</title>
<path fill="none" stroke="midnightblue" d="M657.12,-334.32C643.78,-367.37 615.11,-424.45 569,-448.5 499.84,-484.57 278.03,-468.86 158.34,-457.12"/>
<polygon fill="midnightblue" stroke="midnightblue" points="660.42,-335.48 660.77,-324.9 653.89,-332.96 660.42,-335.48"/>
</g>
<!-- Node6 -->
<g id="node6" class="node">
<title>Node6</title>
<g id="a_node6"><a xlink:href="class_urho3_d_1_1_octant.html#a6304500141e75a6b6537a334d3922cec" target="_top" xlink:title="Initialize bounding box.">
<polygon fill="none" stroke="black" points="415.5,-420 415.5,-439 555.5,-439 555.5,-420 415.5,-420"/>
<text text-anchor="middle" x="485.5" y="-427" font-family="Helvetica,sans-Serif" font-size="10.00">Urho3D::Octant::Initialize</text>
</a>
</g>
</g>
<!-- Node1&#45;&gt;Node6 -->
<g id="edge5" class="edge">
<title>Node1&#45;&gt;Node6</title>
<path fill="none" stroke="midnightblue" d="M649.74,-333.14C632.45,-356.44 602.94,-391.25 569,-410.5 562.1,-414.42 554.43,-417.53 546.64,-419.99"/>
<polygon fill="midnightblue" stroke="midnightblue" points="652.73,-334.99 655.76,-324.84 647.06,-330.88 652.73,-334.99"/>
</g>
<!-- Node9 -->
<g id="node9" class="node">
<title>Node9</title>
<g id="a_node9"><a xlink:href="class_urho3_d_1_1_frustum.html#ae0de3431d6acbb6dcc47f668d98dd469" target="_top" xlink:title="Test if a bounding box is inside, outside or intersects.">
<polygon fill="none" stroke="black" points="414,-382 414,-401 557,-401 557,-382 414,-382"/>
<text text-anchor="middle" x="485.5" y="-389" font-family="Helvetica,sans-Serif" font-size="10.00">Urho3D::Frustum::IsInside</text>
</a>
</g>
</g>
<!-- Node1&#45;&gt;Node9 -->
<g id="edge9" class="edge">
<title>Node1&#45;&gt;Node9</title>
<path fill="none" stroke="midnightblue" d="M639.03,-330.71C620.33,-344.47 594.33,-361.76 569,-372.5 560.07,-376.29 550.26,-379.39 540.62,-381.9"/>
<polygon fill="midnightblue" stroke="midnightblue" points="641.18,-333.48 647.08,-324.68 636.98,-327.88 641.18,-333.48"/>
</g>
<!-- Node10 -->
<g id="node10" class="node">
<title>Node10</title>
<g id="a_node10"><a xlink:href="class_urho3_d_1_1_frustum.html#a14dc2400d17d695892ce4edfcc9b724e" target="_top" xlink:title="Test if a bounding box is (partially) inside or outside.">
<polygon fill="none" stroke="black" points="404.5,-344 404.5,-363 566.5,-363 566.5,-344 404.5,-344"/>
<text text-anchor="middle" x="485.5" y="-351" font-family="Helvetica,sans-Serif" font-size="10.00">Urho3D::Frustum::IsInsideFast</text>
</a>
</g>
</g>
<!-- Node1&#45;&gt;Node10 -->
<g id="edge10" class="edge">
<title>Node1&#45;&gt;Node10</title>
<path fill="none" stroke="midnightblue" d="M598.74,-327.07C588.78,-329.61 578.63,-332.15 569,-334.5 556.01,-337.67 541.83,-340.99 528.94,-343.95"/>
<polygon fill="midnightblue" stroke="midnightblue" points="599.79,-330.42 608.62,-324.55 598.06,-323.64 599.79,-330.42"/>
</g>
<!-- Node11 -->
<g id="node11" class="node">
<title>Node11</title>
<g id="a_node11"><a xlink:href="class_urho3_d_1_1_bounding_box.html#a5ba8b6f96c6587ad5c70e8d01521ca28" target="_top" xlink:title="Return transformed by a 3x4 matrix.">
<polygon fill="none" stroke="black" points="423.5,-294.5 423.5,-324.5 547.5,-324.5 547.5,-294.5 423.5,-294.5"/>
<text text-anchor="start" x="431.5" y="-312.5" font-family="Helvetica,sans-Serif" font-size="10.00">Urho3D::BoundingBox</text>
<text text-anchor="middle" x="485.5" y="-301.5" font-family="Helvetica,sans-Serif" font-size="10.00">::Transformed</text>
</a>
</g>
</g>
<!-- Node1&#45;&gt;Node11 -->
<g id="edge11" class="edge">
<title>Node1&#45;&gt;Node11</title>
<path fill="none" stroke="midnightblue" d="M594.85,-309.5C579.24,-309.5 562.84,-309.5 547.66,-309.5"/>
<polygon fill="midnightblue" stroke="midnightblue" points="594.98,-313 604.98,-309.5 594.98,-306 594.98,-313"/>
</g>
<!-- Node12 -->
<g id="node12" class="node">
<title>Node12</title>
<g id="a_node12"><a xlink:href="class_urho3_d_1_1_zone.html#adef9612f3087baa6b90b52e6582722dd" target="_top" xlink:title="Recalculate the ambient gradient colors from neighbor zones. Not safe to call from worker threads due...">
<polygon fill="none" stroke="black" points="402,-245.5 402,-275.5 569,-275.5 569,-245.5 402,-245.5"/>
<text text-anchor="start" x="410" y="-263.5" font-family="Helvetica,sans-Serif" font-size="10.00">Urho3D::Zone::UpdateAmbient</text>
<text text-anchor="middle" x="485.5" y="-252.5" font-family="Helvetica,sans-Serif" font-size="10.00">Gradient</text>
</a>
</g>
</g>
<!-- Node1&#45;&gt;Node12 -->
<g id="edge12" class="edge">
<title>Node1&#45;&gt;Node12</title>
<path fill="none" stroke="midnightblue" d="M600.98,-291.75C581.53,-286.44 560.39,-280.67 541.64,-275.55"/>
<polygon fill="midnightblue" stroke="midnightblue" points="600.11,-295.14 610.68,-294.4 601.95,-288.39 600.11,-295.14"/>
</g>
<!-- Node15 -->
<g id="node15" class="node">
<title>Node15</title>
<g id="a_node15"><a xlink:href="class_urho3_d_1_1_static_model_group.html#a91aa25c17c0160a3673bb985190479af" target="_top" xlink:title="Calculate distance and prepare batches for rendering. May be called from worker thread(s),...">
<polygon fill="none" stroke="black" points="412.5,-196.5 412.5,-226.5 558.5,-226.5 558.5,-196.5 412.5,-196.5"/>
<text text-anchor="start" x="420.5" y="-214.5" font-family="Helvetica,sans-Serif" font-size="10.00">Urho3D::StaticModelGroup</text>
<text text-anchor="middle" x="485.5" y="-203.5" font-family="Helvetica,sans-Serif" font-size="10.00">::UpdateBatches</text>
</a>
</g>
</g>
<!-- Node1&#45;&gt;Node15 -->
<g id="edge15" class="edge">
<title>Node1&#45;&gt;Node15</title>
<path fill="none" stroke="midnightblue" d="M641.98,-287.61C623.27,-271.54 596.01,-250.21 569,-236.5 561.66,-232.77 553.67,-229.5 545.64,-226.64"/>
<polygon fill="midnightblue" stroke="midnightblue" points="639.87,-290.41 649.7,-294.35 644.47,-285.14 639.87,-290.41"/>
</g>
<!-- Node16 -->
<g id="node16" class="node">
<title>Node16</title>
<g id="a_node16"><a xlink:href="class_urho3_d_1_1_static_model.html#ac59f46b979f0e586501f3b4e7689c284" target="_top" xlink:title="Calculate distance and prepare batches for rendering. May be called from worker thread(s),...">
<polygon fill="none" stroke="black" points="427,-147.5 427,-177.5 544,-177.5 544,-147.5 427,-147.5"/>
<text text-anchor="start" x="435" y="-165.5" font-family="Helvetica,sans-Serif" font-size="10.00">Urho3D::StaticModel</text>
<text text-anchor="middle" x="485.5" y="-154.5" font-family="Helvetica,sans-Serif" font-size="10.00">::UpdateBatches</text>
</a>
</g>
</g>
<!-- Node1&#45;&gt;Node16 -->
<g id="edge16" class="edge">
<title>Node1&#45;&gt;Node16</title>
<path fill="none" stroke="midnightblue" d="M652.87,-285.3C636.69,-257.69 606.64,-213.07 569,-187.5 561.45,-182.37 552.81,-178.27 544.03,-174.99"/>
<polygon fill="midnightblue" stroke="midnightblue" points="650.01,-287.35 658.01,-294.3 656.09,-283.88 650.01,-287.35"/>
</g>
<!-- Node17 -->
<g id="node17" class="node">
<title>Node17</title>
<g id="a_node17"><a xlink:href="class_urho3_d_1_1_animated_model.html#a59fb5fdb95f5e8bfa3c3fbf1012eaf60" target="_top" xlink:title="Calculate distance and prepare batches for rendering. May be called from worker thread(s),...">
<polygon fill="none" stroke="black" points="417,-98.5 417,-128.5 554,-128.5 554,-98.5 417,-98.5"/>
<text text-anchor="start" x="425" y="-116.5" font-family="Helvetica,sans-Serif" font-size="10.00">Urho3D::AnimatedModel</text>
<text text-anchor="middle" x="485.5" y="-105.5" font-family="Helvetica,sans-Serif" font-size="10.00">::UpdateBatches</text>
</a>
</g>
</g>
<!-- Node1&#45;&gt;Node17 -->
<g id="edge17" class="edge">
<title>Node1&#45;&gt;Node17</title>
<path fill="none" stroke="midnightblue" d="M658.6,-284.84C646.19,-247.63 617.61,-177.37 569,-138.5 564.21,-134.67 558.83,-131.42 553.19,-128.67"/>
<polygon fill="midnightblue" stroke="midnightblue" points="655.29,-285.96 661.68,-294.4 661.95,-283.81 655.29,-285.96"/>
</g>
<!-- Node18 -->
<g id="node18" class="node">
<title>Node18</title>
<g id="a_node18"><a xlink:href="class_urho3_d_1_1_decal_set.html#a738073327526ae29261d31019889bcb3" target="_top" xlink:title="Calculate distance and prepare batches for rendering. May be called from worker thread(s),...">
<polygon fill="none" stroke="black" points="413.5,-49.5 413.5,-79.5 557.5,-79.5 557.5,-49.5 413.5,-49.5"/>
<text text-anchor="start" x="421.5" y="-67.5" font-family="Helvetica,sans-Serif" font-size="10.00">Urho3D::DecalSet::Update</text>
<text text-anchor="middle" x="485.5" y="-56.5" font-family="Helvetica,sans-Serif" font-size="10.00">Batches</text>
</a>
</g>
</g>
<!-- Node1&#45;&gt;Node18 -->
<g id="edge18" class="edge">
<title>Node1&#45;&gt;Node18</title>
<path fill="none" stroke="midnightblue" d="M661.98,-284.5C653.35,-238.98 628.74,-142.41 569,-89.5 564.63,-85.63 559.68,-82.36 554.42,-79.59"/>
<polygon fill="midnightblue" stroke="midnightblue" points="658.55,-285.19 663.76,-294.42 665.44,-283.95 658.55,-285.19"/>
</g>
<!-- Node19 -->
<g id="node19" class="node">
<title>Node19</title>
<g id="a_node19"><a xlink:href="class_urho3_d_1_1_drawable.html#a4f1798df7e5a110d9c29ddd2e68df80b" target="_top" xlink:title="Calculate distance and prepare batches for rendering. May be called from worker thread(s),...">
<polygon fill="none" stroke="black" points="412,-0.5 412,-30.5 559,-30.5 559,-0.5 412,-0.5"/>
<text text-anchor="start" x="420" y="-18.5" font-family="Helvetica,sans-Serif" font-size="10.00">Urho3D::Drawable::Update</text>
<text text-anchor="middle" x="485.5" y="-7.5" font-family="Helvetica,sans-Serif" font-size="10.00">Batches</text>
</a>
</g>
</g>
<!-- Node1&#45;&gt;Node19 -->
<g id="edge19" class="edge">
<title>Node1&#45;&gt;Node19</title>
<path fill="none" stroke="midnightblue" d="M664.34,-284.16C659.48,-230.94 640.66,-106.86 569,-39.5 565.3,-36.03 561.14,-33.05 556.68,-30.51"/>
<polygon fill="midnightblue" stroke="midnightblue" points="660.88,-284.72 665.18,-294.4 667.85,-284.15 660.88,-284.72"/>
</g>
<!-- Node3 -->
<g id="node3" class="node">
<title>Node3</title>
<g id="a_node3"><a xlink:href="class_urho3_d_1_1_dynamic_navigation_mesh.html#a2a4d9936b66f8f056928dd48b07ef9a2" target="_top" xlink:title="Return whether the Obstacle is touching the given tile.">
<polygon fill="none" stroke="black" points="202,-534.5 202,-564.5 358,-564.5 358,-534.5 202,-534.5"/>
<text text-anchor="start" x="210" y="-552.5" font-family="Helvetica,sans-Serif" font-size="10.00">Urho3D::DynamicNavigation</text>
<text text-anchor="middle" x="280" y="-541.5" font-family="Helvetica,sans-Serif" font-size="10.00">Mesh::IsObstacleInTile</text>
</a>
</g>
</g>
<!-- Node2&#45;&gt;Node3 -->
<g id="edge2" class="edge">
<title>Node2&#45;&gt;Node3</title>
<path fill="none" stroke="midnightblue" d="M413.17,-549.5C395.41,-549.5 376.29,-549.5 358.27,-549.5"/>
<polygon fill="midnightblue" stroke="midnightblue" points="413.44,-553 423.44,-549.5 413.44,-546 413.44,-553"/>
</g>
<!-- Node7 -->
<g id="node7" class="node">
<title>Node7</title>
<g id="a_node7"><a xlink:href="class_urho3_d_1_1_octant.html#a45c74cdea87783c7b5e65e1d5559eaaa" target="_top" xlink:title="Construct.">
<polygon fill="none" stroke="black" points="215,-420 215,-439 345,-439 345,-420 215,-420"/>
<text text-anchor="middle" x="280" y="-427" font-family="Helvetica,sans-Serif" font-size="10.00">Urho3D::Octant::Octant</text>
</a>
</g>
</g>
<!-- Node6&#45;&gt;Node7 -->
<g id="edge6" class="edge">
<title>Node6&#45;&gt;Node7</title>
<path fill="none" stroke="midnightblue" d="M405.07,-429.5C385.23,-429.5 364.19,-429.5 345.19,-429.5"/>
<polygon fill="midnightblue" stroke="midnightblue" points="405.32,-433 415.32,-429.5 405.32,-426 405.32,-433"/>
</g>
<!-- Node8 -->
<g id="node8" class="node">
<title>Node8</title>
<g id="a_node8"><a xlink:href="class_urho3_d_1_1_octree.html#af2145144805c864820bbdca1c637ca34" target="_top" xlink:title="Set size and maximum subdivision levels. If octree is not empty, drawable objects will be temporarily...">
<polygon fill="none" stroke="black" points="213,-382 213,-401 347,-401 347,-382 213,-382"/>
<text text-anchor="middle" x="280" y="-389" font-family="Helvetica,sans-Serif" font-size="10.00">Urho3D::Octree::SetSize</text>
</a>
</g>
</g>
<!-- Node6&#45;&gt;Node8 -->
<g id="edge8" class="edge">
<title>Node6&#45;&gt;Node8</title>
<path fill="none" stroke="midnightblue" d="M423.35,-418.08C394.24,-412.64 359.81,-406.22 332.11,-401.04"/>
<polygon fill="midnightblue" stroke="midnightblue" points="422.94,-421.56 433.41,-419.96 424.22,-414.68 422.94,-421.56"/>
</g>
<!-- Node7&#45;&gt;Node5 -->
<g id="edge7" class="edge">
<title>Node7&#45;&gt;Node5</title>
<path fill="none" stroke="midnightblue" d="M204.61,-436.6C189.46,-438.05 173.49,-439.57 158.22,-441.03"/>
<polygon fill="midnightblue" stroke="midnightblue" points="205.32,-440.05 214.94,-435.62 204.65,-433.08 205.32,-440.05"/>
</g>
<!-- Node13 -->
<g id="node13" class="node">
<title>Node13</title>
<g id="a_node13"><a xlink:href="class_urho3_d_1_1_zone.html#a6c92c15c40080776d405946a08529b21" target="_top" xlink:title=" ">
<polygon fill="none" stroke="black" points="205.5,-269.5 205.5,-299.5 354.5,-299.5 354.5,-269.5 205.5,-269.5"/>
<text text-anchor="start" x="213.5" y="-287.5" font-family="Helvetica,sans-Serif" font-size="10.00">Urho3D::Zone::GetAmbient</text>
<text text-anchor="middle" x="280" y="-276.5" font-family="Helvetica,sans-Serif" font-size="10.00">EndColor</text>
</a>
</g>
</g>
<!-- Node12&#45;&gt;Node13 -->
<g id="edge13" class="edge">
<title>Node12&#45;&gt;Node13</title>
<path fill="none" stroke="midnightblue" d="M391.77,-271.44C379.29,-272.91 366.63,-274.4 354.54,-275.83"/>
<polygon fill="midnightblue" stroke="midnightblue" points="392.21,-274.91 401.73,-270.26 391.39,-267.96 392.21,-274.91"/>
</g>
<!-- Node14 -->
<g id="node14" class="node">
<title>Node14</title>
<g id="a_node14"><a xlink:href="class_urho3_d_1_1_zone.html#ad7727166f310855a172c56910ade518c" target="_top" xlink:title=" ">
<polygon fill="none" stroke="black" points="205.5,-220.5 205.5,-250.5 354.5,-250.5 354.5,-220.5 205.5,-220.5"/>
<text text-anchor="start" x="213.5" y="-238.5" font-family="Helvetica,sans-Serif" font-size="10.00">Urho3D::Zone::GetAmbient</text>
<text text-anchor="middle" x="280" y="-227.5" font-family="Helvetica,sans-Serif" font-size="10.00">StartColor</text>
</a>
</g>
</g>
<!-- Node12&#45;&gt;Node14 -->
<g id="edge14" class="edge">
<title>Node12&#45;&gt;Node14</title>
<path fill="none" stroke="midnightblue" d="M391.77,-249.11C379.29,-247.58 366.63,-246.02 354.54,-244.53"/>
<polygon fill="midnightblue" stroke="midnightblue" points="391.38,-252.59 401.73,-250.33 392.23,-245.64 391.38,-252.59"/>
</g>
<!-- Node20 -->
<g id="node20" class="node">
<title>Node20</title>
<g id="a_node20"><a xlink:href="class_urho3_d_1_1_view.html#a97f9dbaf8b51572832e0890af3e53e4b" target="_top" xlink:title="Query for occluders as seen from a camera.">
<polygon fill="none" stroke="black" points="194,-6 194,-25 366,-25 366,-6 194,-6"/>
<text text-anchor="middle" x="280" y="-13" font-family="Helvetica,sans-Serif" font-size="10.00">Urho3D::View::UpdateOccluders</text>
</a>
</g>
</g>
<!-- Node19&#45;&gt;Node20 -->
<g id="edge20" class="edge">
<title>Node19&#45;&gt;Node20</title>
<path fill="none" stroke="midnightblue" d="M401.69,-15.5C389.95,-15.5 377.86,-15.5 366.08,-15.5"/>
<polygon fill="midnightblue" stroke="midnightblue" points="401.89,-19 411.89,-15.5 401.89,-12 401.89,-19"/>
</g>
</g>
</svg>
        <g id="navigator" transform="translate(0 0)" fill="#404254">
                <rect fill="#f2f5e9" fill-opacity="0.5" stroke="#606060" stroke-width=".5" x="0" y="0" width="60" height="60"/>
                <use id="zoomplus" xlink:href="#zoomPlus" x="17" y="9" onmousedown="handleZoom(evt,'in')"/>
                <use id="zoomminus" xlink:href="#zoomMin" x="42" y="9" onmousedown="handleZoom(evt,'out')"/>
                <use id="reset" xlink:href="#resetDef" x="30" y="36" onmousedown="handleReset()"/>
                <g id="arrowUp" xlink:href="#dirArrow" transform="translate(30 24)" onmousedown="handlePan(0,-1)">
                  <use xlink:href="#rim" fill="#404040">
                        <set attributeName="fill" to="#808080" begin="arrowUp.mouseover" end="arrowUp.mouseout"/>
                  </use>
                  <path fill="none" stroke="white" stroke-width="1.5" d="M0,-3.0v7 M-2.5,-0.5L0,-3.0L2.5,-0.5"/>
                </g>
                <g id="arrowRight" xlink:href="#dirArrow" transform="rotate(90) translate(36 -43)" onmousedown="handlePan(1,0)">
                  <use xlink:href="#rim" fill="#404040">
                        <set attributeName="fill" to="#808080" begin="arrowRight.mouseover" end="arrowRight.mouseout"/>
                  </use>
                  <path fill="none" stroke="white" stroke-width="1.5" d="M0,-3.0v7 M-2.5,-0.5L0,-3.0L2.5,-0.5"/>
                </g>
                <g id="arrowDown" xlink:href="#dirArrow" transform="rotate(180) translate(-30 -48)" onmousedown="handlePan(0,1)">
                  <use xlink:href="#rim" fill="#404040">
                        <set attributeName="fill" to="#808080" begin="arrowDown.mouseover" end="arrowDown.mouseout"/>
                  </use>
                  <path fill="none" stroke="white" stroke-width="1.5" d="M0,-3.0v7 M-2.5,-0.5L0,-3.0L2.5,-0.5"/>
                </g>
                <g id="arrowLeft" xlink:href="#dirArrow" transform="rotate(270) translate(-36 17)" onmousedown="handlePan(-1,0)">
                  <use xlink:href="#rim" fill="#404040">
                        <set attributeName="fill" to="#808080" begin="arrowLeft.mouseover" end="arrowLeft.mouseout"/>
                  </use>
                  <path fill="none" stroke="white" stroke-width="1.5" d="M0,-3.0v7 M-2.5,-0.5L0,-3.0L2.5,-0.5"/>
                </g>
        </g>
        <svg viewBox="0 0 15 15" width="100%" height="30px" preserveAspectRatio="xMaxYMin meet">
         <g id="arrow_out" transform="scale(0.3 0.3)">
          <a xlink:href="class_urho3_d_1_1_bounding_box_aeae6990922162d49a54d9360b4c1bd04_icgraph_org.svg" target="_base">
           <rect id="button" ry="5" rx="5" y="6" x="6" height="38" width="38"
                fill="#f2f5e9" fill-opacity="0.5" stroke="#606060" stroke-width="1.0"/>
           <path id="arrow"
             d="M 11.500037,31.436501 C 11.940474,20.09759 22.043105,11.32322 32.158766,21.979434 L 37.068811,17.246167 C 37.068811,17.246167 37.088388,32 37.088388,32 L 22.160133,31.978069 C 22.160133,31.978069 26.997745,27.140456 26.997745,27.140456 C 18.528582,18.264221 13.291696,25.230495 11.500037,31.436501 z"
             style="fill:#404040;"/>
          </a>
         </g>
        </svg>
</svg>
