<?xml version="1.0" encoding="UTF-8" standalone="no"?>
<!DOCTYPE svg PUBLIC "-//W3C//DTD SVG 1.1//EN"
 "http://www.w3.org/Graphics/SVG/1.1/DTD/svg11.dtd">
<!-- Generated by graphviz version 2.40.1 (20161225.0304)
 -->
<!-- Title: Urho3D::Polyhedron Pages: 1 -->
<svg width="580pt" height="88pt"
 viewBox="0.00 0.00 580.00 88.00" xmlns="http://www.w3.org/2000/svg" xmlns:xlink="http://www.w3.org/1999/xlink">
<g id="graph0" class="graph" transform="scale(1 1) rotate(0) translate(4 84)">
<title>Urho3D::Polyhedron</title>
<!-- Node1 -->
<g id="node1" class="node">
<title>Node1</title>
<polygon fill="#bfbfbf" stroke="#000000" points="458,-31 458,-50 572,-50 572,-31 458,-31"/>
<text text-anchor="middle" x="515" y="-38" font-family="Helvetica,sans-Serif" font-size="10.00" fill="#000000">Urho3D::Polyhedron</text>
</g>
<!-- Node2 -->
<g id="node2" class="node">
<title>Node2</title>
<g id="a_node2"><a xlink:href="class_urho3_d_1_1_vector.html" target="_top" xlink:title="Urho3D::Vector\&lt; Urho3D\l::PODVector\&lt; Urho3D::Vector3 \&gt; \&gt;">
<polygon fill="none" stroke="#000000" points="151,-49.5 151,-79.5 339,-79.5 339,-49.5 151,-49.5"/>
<text text-anchor="start" x="159" y="-67.5" font-family="Helvetica,sans-Serif" font-size="10.00" fill="#000000">Urho3D::Vector&lt; Urho3D</text>
<text text-anchor="middle" x="245" y="-56.5" font-family="Helvetica,sans-Serif" font-size="10.00" fill="#000000">::PODVector&lt; Urho3D::Vector3 &gt; &gt;</text>
</a>
</g>
</g>
<!-- Node2&#45;&gt;Node1 -->
<g id="edge1" class="edge">
<title>Node2&#45;&gt;Node1</title>
<path fill="none" stroke="#9a32cd" stroke-dasharray="5,2" d="M349.3604,-55.2235C386.2396,-51.9454 426.3392,-48.381 457.8457,-45.5804"/>
<polygon fill="#9a32cd" stroke="#9a32cd" points="348.7047,-51.7679 339.0539,-56.1397 349.3245,-58.7404 348.7047,-51.7679"/>
<text text-anchor="middle" x="398.5" y="-56.5" font-family="Helvetica,sans-Serif" font-size="10.00" fill="#000000"> faces_</text>
</g>
<!-- Node3 -->
<g id="node3" class="node">
<title>Node3</title>
<g id="a_node3"><a xlink:href="class_urho3_d_1_1_vector_base.html" target="_top" xlink:title="Vector base class. ">
<polygon fill="none" stroke="#000000" points="0,-30 0,-49 114,-49 114,-30 0,-30"/>
<text text-anchor="middle" x="57" y="-37" font-family="Helvetica,sans-Serif" font-size="10.00" fill="#000000">Urho3D::VectorBase</text>
</a>
</g>
</g>
<!-- Node3&#45;&gt;Node2 -->
<g id="edge2" class="edge">
<title>Node3&#45;&gt;Node2</title>
<path fill="none" stroke="#191970" d="M124.2094,-48.4374C132.9075,-49.5941 141.9396,-50.7952 150.972,-51.9963"/>
<polygon fill="#191970" stroke="#191970" points="124.546,-44.9515 114.1719,-47.1026 123.6233,-51.8904 124.546,-44.9515"/>
</g>
<!-- Node4 -->
<g id="node4" class="node">
<title>Node4</title>
<g id="a_node4"><a xlink:href="class_urho3_d_1_1_p_o_d_vector.html" target="_top" xlink:title="Urho3D::PODVector\&lt;\l Urho3D::Vector3 \&gt;">
<polygon fill="none" stroke="#000000" points="185.5,-.5 185.5,-30.5 304.5,-30.5 304.5,-.5 185.5,-.5"/>
<text text-anchor="start" x="193.5" y="-18.5" font-family="Helvetica,sans-Serif" font-size="10.00" fill="#000000">Urho3D::PODVector&lt;</text>
<text text-anchor="middle" x="245" y="-7.5" font-family="Helvetica,sans-Serif" font-size="10.00" fill="#000000"> Urho3D::Vector3 &gt;</text>
</a>
</g>
</g>
<!-- Node3&#45;&gt;Node4 -->
<g id="edge4" class="edge">
<title>Node3&#45;&gt;Node4</title>
<path fill="none" stroke="#191970" d="M124.1529,-30.9273C144.1839,-28.3701 165.9904,-25.5863 185.496,-23.0963"/>
<polygon fill="#191970" stroke="#191970" points="123.6482,-27.4632 114.1719,-32.2015 124.5347,-34.4069 123.6482,-27.4632"/>
</g>
<!-- Node4&#45;&gt;Node1 -->
<g id="edge3" class="edge">
<title>Node4&#45;&gt;Node1</title>
<path fill="none" stroke="#9a32cd" stroke-dasharray="5,2" d="M314.8568,-13.9873C352.1611,-14.1001 398.7637,-15.7126 440,-21.5 454.499,-23.5349 470.2479,-27.2814 483.5538,-30.9132"/>
<polygon fill="#9a32cd" stroke="#9a32cd" points="314.5918,-10.4874 304.5938,-13.9931 314.5958,-17.4874 314.5918,-10.4874"/>
<text text-anchor="middle" x="398.5" y="-35.5" font-family="Helvetica,sans-Serif" font-size="10.00" fill="#000000"> clippedVertices_</text>
<text text-anchor="middle" x="398.5" y="-24.5" font-family="Helvetica,sans-Serif" font-size="10.00" fill="#000000">outFace_</text>
</g>
</g>
</svg>
