<?xml version="1.0" encoding="UTF-8" standalone="no"?>
<!DOCTYPE svg PUBLIC "-//W3C//DTD SVG 1.1//EN"
 "http://www.w3.org/Graphics/SVG/1.1/DTD/svg11.dtd">
<!-- Generated by graphviz version 2.36.0 (20140111.2315)
 -->
<!-- Title: Urho3D::OggVorbisSoundStream Pages: 1 -->
<svg width="235pt" height="242pt"
 viewBox="0.00 0.00 235.00 242.00" xmlns="http://www.w3.org/2000/svg" xmlns:xlink="http://www.w3.org/1999/xlink">
<g id="graph0" class="graph" transform="scale(1 1) rotate(0) translate(4 238)">
<title>Urho3D::OggVorbisSoundStream</title>
<!-- Node1 -->
<g id="node1" class="node"><title>Node1</title>
<polygon fill="#bfbfbf" stroke="black" points="49.5,-0.5 49.5,-19.5 224.5,-19.5 224.5,-0.5 49.5,-0.5"/>
<text text-anchor="middle" x="137" y="-7.5" font-family="FreeSans" font-size="10.00">Urho3D::OggVorbisSoundStream</text>
</g>
<!-- Node2 -->
<g id="node2" class="node"><title>Node2</title>
<g id="a_node2"><a xlink:href="class_urho3_d_1_1_sound_stream.html" target="_top" xlink:title="Base class for sound streams. ">
<polygon fill="none" stroke="black" points="0,-58.5 0,-77.5 126,-77.5 126,-58.5 0,-58.5"/>
<text text-anchor="middle" x="63" y="-65.5" font-family="FreeSans" font-size="10.00">Urho3D::SoundStream</text>
</a>
</g>
</g>
<!-- Node2&#45;&gt;Node1 -->
<g id="edge1" class="edge"><title>Node2&#45;&gt;Node1</title>
<path fill="none" stroke="midnightblue" d="M82.559,-52.1986C96.3013,-41.799 114.206,-28.2496 125.655,-19.5852"/>
<polygon fill="midnightblue" stroke="midnightblue" points="80.101,-49.6694 74.239,-58.4948 84.3252,-55.2513 80.101,-49.6694"/>
</g>
<!-- Node3 -->
<g id="node3" class="node"><title>Node3</title>
<g id="a_node3"><a xlink:href="class_urho3_d_1_1_ref_counted.html" target="_top" xlink:title="Base class for intrusively reference&#45;counted objects. These are noncopyable and non&#45;assignable. ">
<polygon fill="none" stroke="black" points="15,-146.5 15,-165.5 129,-165.5 129,-146.5 15,-146.5"/>
<text text-anchor="middle" x="72" y="-153.5" font-family="FreeSans" font-size="10.00">Urho3D::RefCounted</text>
</a>
</g>
</g>
<!-- Node3&#45;&gt;Node2 -->
<g id="edge2" class="edge"><title>Node3&#45;&gt;Node2</title>
<path fill="none" stroke="midnightblue" d="M70.0546,-136.411C68.1453,-118.166 65.3185,-91.1544 63.8922,-77.5258"/>
<polygon fill="midnightblue" stroke="midnightblue" points="66.5822,-136.858 71.1041,-146.44 73.5442,-136.13 66.5822,-136.858"/>
</g>
<!-- Node4 -->
<g id="node4" class="node"><title>Node4</title>
<g id="a_node4"><a xlink:href="struct_urho3_d_1_1_ref_count.html" target="_top" xlink:title="Reference count structure. ">
<polygon fill="none" stroke="black" points="67,-214.5 67,-233.5 169,-233.5 169,-214.5 67,-214.5"/>
<text text-anchor="middle" x="118" y="-221.5" font-family="FreeSans" font-size="10.00">Urho3D::RefCount</text>
</a>
</g>
</g>
<!-- Node4&#45;&gt;Node3 -->
<g id="edge3" class="edge"><title>Node4&#45;&gt;Node3</title>
<path fill="none" stroke="#9a32cd" stroke-dasharray="5,2" d="M96.6743,-207.755C92.7445,-204.23 88.9554,-200.253 86,-196 79.5138,-186.666 75.7011,-173.998 73.7326,-165.667"/>
<polygon fill="#9a32cd" stroke="#9a32cd" points="94.7511,-210.703 104.716,-214.301 99.1699,-205.274 94.7511,-210.703"/>
<text text-anchor="middle" x="111" y="-187.5" font-family="FreeSans" font-size="10.00"> refCount_</text>
</g>
<!-- Node5 -->
<g id="node5" class="node"><title>Node5</title>
<g id="a_node5"><a xlink:href="class_urho3_d_1_1_shared_array_ptr.html" target="_top" xlink:title="Urho3D::SharedArrayPtr\l\&lt; signed char \&gt;">
<polygon fill="none" stroke="black" points="94.5,-97 94.5,-127 227.5,-127 227.5,-97 94.5,-97"/>
<text text-anchor="start" x="102.5" y="-115" font-family="FreeSans" font-size="10.00">Urho3D::SharedArrayPtr</text>
<text text-anchor="middle" x="161" y="-104" font-family="FreeSans" font-size="10.00">&lt; signed char &gt;</text>
</a>
</g>
</g>
<!-- Node4&#45;&gt;Node5 -->
<g id="edge5" class="edge"><title>Node4&#45;&gt;Node5</title>
<path fill="none" stroke="#9a32cd" stroke-dasharray="5,2" d="M130.409,-206.017C132.451,-202.787 134.415,-199.364 136,-196 146.839,-172.992 154.263,-144.19 158.056,-127.271"/>
<polygon fill="#9a32cd" stroke="#9a32cd" points="127.439,-204.159 124.695,-214.393 133.222,-208.104 127.439,-204.159"/>
<text text-anchor="middle" x="166" y="-187.5" font-family="FreeSans" font-size="10.00"> refCount_</text>
</g>
<!-- Node5&#45;&gt;Node1 -->
<g id="edge4" class="edge"><title>Node5&#45;&gt;Node1</title>
<path fill="none" stroke="#9a32cd" stroke-dasharray="5,2" d="M155.204,-86.85C149.997,-65.1545 142.641,-34.5022 139.085,-19.6872"/>
<polygon fill="#9a32cd" stroke="#9a32cd" points="151.824,-87.7654 157.561,-96.6724 158.631,-86.1317 151.824,-87.7654"/>
<text text-anchor="middle" x="169.5" y="-65.5" font-family="FreeSans" font-size="10.00"> data_</text>
</g>
</g>
</svg>
