<?xml version="1.0" encoding="UTF-8" standalone="no"?>
<!DOCTYPE svg PUBLIC "-//W3C//DTD SVG 1.1//EN"
 "http://www.w3.org/Graphics/SVG/1.1/DTD/svg11.dtd">
<!-- Generated by graphviz version 2.26.3 (20100126.1600)
 -->
<!-- Title: Urho3D::Sprite2D Pages: 1 -->
<svg width="2590pt" height="718pt"
 viewBox="0.00 0.00 2590.00 718.00" xmlns="http://www.w3.org/2000/svg" xmlns:xlink="http://www.w3.org/1999/xlink">
<g id="graph1" class="graph" transform="scale(1 1) rotate(0) translate(4 714)">
<title>Urho3D::Sprite2D</title>
<!-- Node1 -->
<g id="node1" class="node"><title>Node1</title>
<polygon fill="#bfbfbf" stroke="black" points="2480.5,-252.5 2480.5,-273.5 2581.5,-273.5 2581.5,-252.5 2480.5,-252.5"/>
<text text-anchor="middle" x="2531" y="-260.5" font-family="FreeSans" font-size="10.00">Urho3D::Sprite2D</text>
</g>
<!-- Node2 -->
<g id="node2" class="node"><title>Node2</title>
<a xlink:href="class_urho3_d_1_1_resource.html" target="_top" xlink:title="Base class for resources.">
<polygon fill="none" stroke="black" points="1068.5,-341.5 1068.5,-362.5 1171.5,-362.5 1171.5,-341.5 1068.5,-341.5"/>
<text text-anchor="middle" x="1120" y="-349.5" font-family="FreeSans" font-size="10.00">Urho3D::Resource</text>
</a>
</g>
<!-- Node2&#45;&gt;Node1 -->
<g id="edge2" class="edge"><title>Node2&#45;&gt;Node1</title>
<path fill="none" stroke="midnightblue" d="M1149.37,-337.004C1189.21,-318.088 1263.1,-288 1330,-288 1330,-288 1330,-288 2307,-288 2366.87,-288 2435.19,-279.07 2480.47,-271.884"/>
<polygon fill="midnightblue" stroke="midnightblue" points="1147.71,-333.921 1140.24,-341.432 1150.76,-340.22 1147.71,-333.921"/>
</g>
<!-- Node15 -->
<g id="node33" class="node"><title>Node15</title>
<a xlink:href="class_urho3_d_1_1_sprite_sheet2_d.html" target="_top" xlink:title="Sprite sheet.">
<polygon fill="none" stroke="black" points="2004,-457.5 2004,-478.5 2134,-478.5 2134,-457.5 2004,-457.5"/>
<text text-anchor="middle" x="2069" y="-465.5" font-family="FreeSans" font-size="10.00">Urho3D::SpriteSheet2D</text>
</a>
</g>
<!-- Node2&#45;&gt;Node15 -->
<g id="edge40" class="edge"><title>Node2&#45;&gt;Node15</title>
<path fill="none" stroke="midnightblue" d="M1181.57,-340.327C1223.29,-333.417 1279.77,-326 1330,-326 1330,-326 1330,-326 1816,-326 1895.83,-326 1919.77,-339.43 1986,-384 2017.64,-405.29 2047.12,-439.986 2060.87,-457.368"/>
<polygon fill="midnightblue" stroke="midnightblue" points="1180.84,-336.902 1171.56,-342.022 1182,-343.803 1180.84,-336.902"/>
</g>
<!-- Node21 -->
<g id="node47" class="node"><title>Node21</title>
<a xlink:href="class_urho3_d_1_1_texture.html" target="_top" xlink:title="Base class for texture resources.">
<polygon fill="none" stroke="red" points="1283,-647.5 1283,-668.5 1377,-668.5 1377,-647.5 1283,-647.5"/>
<text text-anchor="middle" x="1330" y="-655.5" font-family="FreeSans" font-size="10.00">Urho3D::Texture</text>
</a>
</g>
<!-- Node2&#45;&gt;Node21 -->
<g id="edge56" class="edge"><title>Node2&#45;&gt;Node21</title>
<path fill="none" stroke="midnightblue" d="M1123.86,-372.6C1134.81,-425.195 1171.11,-565.392 1258,-638 1265.17,-643.99 1274,-648.192 1282.99,-651.139"/>
<polygon fill="midnightblue" stroke="midnightblue" points="1127.29,-371.885 1121.9,-362.763 1120.42,-373.254 1127.29,-371.885"/>
</g>
<!-- Node3 -->
<g id="node4" class="node"><title>Node3</title>
<a xlink:href="class_urho3_d_1_1_object.html" target="_top" xlink:title="Base class for objects with type identification, subsystem access and event sending/receiving capabil...">
<polygon fill="none" stroke="black" points="868,-301.5 868,-322.5 958,-322.5 958,-301.5 868,-301.5"/>
<text text-anchor="middle" x="913" y="-309.5" font-family="FreeSans" font-size="10.00">Urho3D::Object</text>
</a>
</g>
<!-- Node3&#45;&gt;Node2 -->
<g id="edge4" class="edge"><title>Node3&#45;&gt;Node2</title>
<path fill="none" stroke="midnightblue" d="M967.991,-322.626C999.117,-328.641 1037.81,-336.117 1068.36,-342.022"/>
<polygon fill="midnightblue" stroke="midnightblue" points="968.654,-319.19 958.171,-320.729 967.326,-326.063 968.654,-319.19"/>
</g>
<!-- Node4 -->
<g id="node6" class="node"><title>Node4</title>
<a xlink:href="class_urho3_d_1_1_ref_counted.html" target="_top" xlink:title="Base class for intrusively reference&#45;counted objects. These are noncopyable and non&#45;assignable.">
<polygon fill="none" stroke="black" points="258,-318.5 258,-339.5 372,-339.5 372,-318.5 258,-318.5"/>
<text text-anchor="middle" x="315" y="-326.5" font-family="FreeSans" font-size="10.00">Urho3D::RefCounted</text>
</a>
</g>
<!-- Node4&#45;&gt;Node3 -->
<g id="edge6" class="edge"><title>Node4&#45;&gt;Node3</title>
<path fill="none" stroke="midnightblue" d="M382.113,-327.092C505.102,-323.596 763.55,-316.249 867.889,-313.282"/>
<polygon fill="midnightblue" stroke="midnightblue" points="381.964,-323.595 372.068,-327.378 382.163,-330.592 381.964,-323.595"/>
</g>
<!-- Node6 -->
<g id="node10" class="node"><title>Node6</title>
<a xlink:href="class_urho3_d_1_1_context.html" target="_top" xlink:title="Urho3D execution context. Provides access to subsystems, object factories and attributes, and event receivers.">
<polygon fill="none" stroke="red" points="618.5,-277.5 618.5,-298.5 715.5,-298.5 715.5,-277.5 618.5,-277.5"/>
<text text-anchor="middle" x="667" y="-285.5" font-family="FreeSans" font-size="10.00">Urho3D::Context</text>
</a>
</g>
<!-- Node4&#45;&gt;Node6 -->
<g id="edge12" class="edge"><title>Node4&#45;&gt;Node6</title>
<path fill="none" stroke="midnightblue" d="M382.679,-321.117C451.765,-313.07 557.289,-300.779 618.474,-293.652"/>
<polygon fill="midnightblue" stroke="midnightblue" points="381.866,-317.688 372.338,-322.321 382.676,-324.641 381.866,-317.688"/>
</g>
<!-- Node5 -->
<g id="node8" class="node"><title>Node5</title>
<a xlink:href="struct_urho3_d_1_1_ref_count.html" target="_top" xlink:title="Reference count structure.">
<polygon fill="none" stroke="black" points="0,-587.5 0,-608.5 102,-608.5 102,-587.5 0,-587.5"/>
<text text-anchor="middle" x="51" y="-595.5" font-family="FreeSans" font-size="10.00">Urho3D::RefCount</text>
</a>
</g>
<!-- Node5&#45;&gt;Node4 -->
<g id="edge8" class="edge"><title>Node5&#45;&gt;Node4</title>
<path fill="none" stroke="#9a32cd" stroke-dasharray="5,2" d="M68.6375,-580.028C119.276,-528.431 264.065,-380.9 304.436,-339.765"/>
<polygon fill="#9a32cd" stroke="#9a32cd" points="65.8556,-577.866 61.3491,-587.455 70.8516,-582.769 65.8556,-577.866"/>
<text text-anchor="middle" x="145" y="-529" font-family="FreeSans" font-size="10.00"> refCount_</text>
</g>
<!-- Node14 -->
<g id="node31" class="node"><title>Node14</title>
<a xlink:href="class_urho3_d_1_1_weak_ptr.html" target="_top" xlink:title="Urho3D::WeakPtr\&lt; Urho3D\l::SpriteSheet2D \&gt;">
<polygon fill="none" stroke="black" points="2234,-451 2234,-485 2380,-485 2380,-451 2234,-451"/>
<text text-anchor="start" x="2242" y="-472" font-family="FreeSans" font-size="10.00">Urho3D::WeakPtr&lt; Urho3D</text>
<text text-anchor="middle" x="2307" y="-459" font-family="FreeSans" font-size="10.00">::SpriteSheet2D &gt;</text>
</a>
</g>
<!-- Node5&#45;&gt;Node14 -->
<g id="edge66" class="edge"><title>Node5&#45;&gt;Node14</title>
<path fill="none" stroke="#9a32cd" stroke-dasharray="5,2" d="M75.4394,-613.971C120.722,-641.977 221.578,-697 315,-697 315,-697 315,-697 1816,-697 2023.31,-697 2041.19,-566.175 2234,-490 2238.31,-488.298 2242.8,-486.65 2247.35,-485.073"/>
<polygon fill="#9a32cd" stroke="#9a32cd" points="77.2204,-610.957 66.8923,-608.595 73.4932,-616.882 77.2204,-610.957"/>
<text text-anchor="middle" x="1215" y="-701" font-family="FreeSans" font-size="10.00"> refCount_</text>
</g>
<!-- Node6&#45;&gt;Node3 -->
<g id="edge10" class="edge"><title>Node6&#45;&gt;Node3</title>
<path fill="none" stroke="#9a32cd" stroke-dasharray="5,2" d="M726.136,-290.857C759.123,-292.774 800.916,-295.741 838,-300 847.694,-301.113 858.051,-302.586 867.877,-304.117"/>
<polygon fill="#9a32cd" stroke="#9a32cd" points="725.934,-287.34 715.753,-290.271 725.54,-294.329 725.934,-287.34"/>
<text text-anchor="middle" x="798" y="-304" font-family="FreeSans" font-size="10.00"> context_</text>
</g>
<!-- Node7 -->
<g id="node13" class="node"><title>Node7</title>
<a xlink:href="class_urho3_d_1_1_hash_map.html" target="_top" xlink:title="Urho3D::HashMap\&lt; Urho3D\l::Object *, Urho3D::HashMap\l\&lt; Urho3D::StringHash, Urho3D\l::SharedPtr\&lt; Urho3D::EventReceiverGroup \&gt; \&gt; \&gt;">
<polygon fill="none" stroke="red" points="188,-240 188,-300 442,-300 442,-240 188,-240"/>
<text text-anchor="start" x="196" y="-287" font-family="FreeSans" font-size="10.00">Urho3D::HashMap&lt; Urho3D</text>
<text text-anchor="start" x="196" y="-274" font-family="FreeSans" font-size="10.00">::Object *, Urho3D::HashMap</text>
<text text-anchor="start" x="196" y="-261" font-family="FreeSans" font-size="10.00">&lt; Urho3D::StringHash, Urho3D</text>
<text text-anchor="middle" x="315" y="-248" font-family="FreeSans" font-size="10.00">::SharedPtr&lt; Urho3D::EventReceiverGroup &gt; &gt; &gt;</text>
</a>
</g>
<!-- Node7&#45;&gt;Node6 -->
<g id="edge14" class="edge"><title>Node7&#45;&gt;Node6</title>
<path fill="none" stroke="#9a32cd" stroke-dasharray="5,2" d="M452.351,-268.571C492.283,-269.111 535.931,-270.627 576,-274 589.698,-275.153 604.463,-277.112 618.031,-279.204"/>
<polygon fill="#9a32cd" stroke="#9a32cd" points="452.323,-265.071 442.283,-268.454 452.242,-272.07 452.323,-265.071"/>
<text text-anchor="middle" x="518" y="-278" font-family="FreeSans" font-size="10.00"> specificEventReceivers_</text>
</g>
<!-- Node8 -->
<g id="node15" class="node"><title>Node8</title>
<a xlink:href="class_urho3_d_1_1_linked_list.html" target="_top" xlink:title="Urho3D::LinkedList\l\&lt; Urho3D::EventHandler \&gt;">
<polygon fill="none" stroke="red" points="594,-355 594,-389 740,-389 740,-355 594,-355"/>
<text text-anchor="start" x="602" y="-376" font-family="FreeSans" font-size="10.00">Urho3D::LinkedList</text>
<text text-anchor="middle" x="667" y="-363" font-family="FreeSans" font-size="10.00">&lt; Urho3D::EventHandler &gt;</text>
</a>
</g>
<!-- Node8&#45;&gt;Node3 -->
<g id="edge16" class="edge"><title>Node8&#45;&gt;Node3</title>
<path fill="none" stroke="#9a32cd" stroke-dasharray="5,2" d="M749.993,-361.82C778.344,-357.069 809.961,-350.338 838,-341 846.486,-338.174 847.764,-335.488 856,-332 863.919,-328.647 872.613,-325.39 880.773,-322.511"/>
<polygon fill="#9a32cd" stroke="#9a32cd" points="749.424,-358.367 740.112,-363.419 750.542,-365.277 749.424,-358.367"/>
<text text-anchor="middle" x="798" y="-364" font-family="FreeSans" font-size="10.00"> eventHandlers_</text>
</g>
<!-- Node9 -->
<g id="node17" class="node"><title>Node9</title>
<a xlink:href="class_urho3_d_1_1_timer.html" target="_top" xlink:title="Low&#45;resolution operating system timer.">
<polygon fill="none" stroke="black" points="870,-341.5 870,-362.5 956,-362.5 956,-341.5 870,-341.5"/>
<text text-anchor="middle" x="913" y="-349.5" font-family="FreeSans" font-size="10.00">Urho3D::Timer</text>
</a>
</g>
<!-- Node9&#45;&gt;Node2 -->
<g id="edge18" class="edge"><title>Node9&#45;&gt;Node2</title>
<path fill="none" stroke="#9a32cd" stroke-dasharray="5,2" d="M966.465,-352C997.89,-352 1037.42,-352 1068.5,-352"/>
<polygon fill="#9a32cd" stroke="#9a32cd" points="966.142,-348.5 956.142,-352 966.142,-355.5 966.142,-348.5"/>
<text text-anchor="middle" x="1019" y="-356" font-family="FreeSans" font-size="10.00"> useTimer_</text>
</g>
<!-- Node10 -->
<g id="node19" class="node"><title>Node10</title>
<a xlink:href="class_urho3_d_1_1_string.html" target="_top" xlink:title="String class.">
<polygon fill="none" stroke="black" points="869,-452.5 869,-473.5 957,-473.5 957,-452.5 869,-452.5"/>
<text text-anchor="middle" x="913" y="-460.5" font-family="FreeSans" font-size="10.00">Urho3D::String</text>
</a>
</g>
<!-- Node10&#45;&gt;Node2 -->
<g id="edge20" class="edge"><title>Node10&#45;&gt;Node2</title>
<path fill="none" stroke="#9a32cd" stroke-dasharray="5,2" d="M956.21,-448.84C960.917,-447.003 965.594,-445.044 970,-443 1021.95,-418.904 1078.49,-381.122 1104.87,-362.751"/>
<polygon fill="#9a32cd" stroke="#9a32cd" points="954.733,-445.656 946.587,-452.431 957.18,-452.214 954.733,-445.656"/>
<text text-anchor="middle" x="1019" y="-436" font-family="FreeSans" font-size="10.00"> name_</text>
</g>
<!-- Node10&#45;&gt;Node10 -->
<g id="edge22" class="edge"><title>Node10&#45;&gt;Node10</title>
<path fill="none" stroke="#9a32cd" stroke-dasharray="5,2" d="M893.465,-483.427C894.972,-488.349 901.484,-492 913,-492 931.426,-492 937.04,-482.653 929.842,-473.708"/>
<polygon fill="#9a32cd" stroke="#9a32cd" points="896.861,-484.279 896.158,-473.708 890.115,-482.41 896.861,-484.279"/>
<text text-anchor="middle" x="913" y="-496" font-family="FreeSans" font-size="10.00"> EMPTY</text>
</g>
<!-- Node10&#45;&gt;Node15 -->
<g id="edge46" class="edge"><title>Node10&#45;&gt;Node15</title>
<path fill="none" stroke="#9a32cd" stroke-dasharray="5,2" d="M967.324,-463.235C1158.06,-464.06 1796.8,-466.823 2003.71,-467.718"/>
<polygon fill="#9a32cd" stroke="#9a32cd" points="967.271,-459.735 957.256,-463.191 967.241,-466.735 967.271,-459.735"/>
<text text-anchor="middle" x="1467" y="-469" font-family="FreeSans" font-size="10.00"> loadTextureName_</text>
</g>
<!-- Node11 -->
<g id="node22" class="node"><title>Node11</title>
<a xlink:href="class_urho3_d_1_1_string_hash.html" target="_top" xlink:title="32&#45;bit hash value for a string.">
<polygon fill="none" stroke="black" points="856.5,-381.5 856.5,-402.5 969.5,-402.5 969.5,-381.5 856.5,-381.5"/>
<text text-anchor="middle" x="913" y="-389.5" font-family="FreeSans" font-size="10.00">Urho3D::StringHash</text>
</a>
</g>
<!-- Node11&#45;&gt;Node2 -->
<g id="edge24" class="edge"><title>Node11&#45;&gt;Node2</title>
<path fill="none" stroke="#9a32cd" stroke-dasharray="5,2" d="M979.844,-380.997C1002.2,-377.129 1027.22,-372.596 1050,-368 1058.31,-366.324 1067.14,-364.409 1075.64,-362.501"/>
<polygon fill="#9a32cd" stroke="#9a32cd" points="979.043,-377.583 969.779,-382.725 980.227,-384.482 979.043,-377.583"/>
<text text-anchor="middle" x="1019" y="-383" font-family="FreeSans" font-size="10.00"> nameHash_</text>
</g>
<!-- Node11&#45;&gt;Node11 -->
<g id="edge26" class="edge"><title>Node11&#45;&gt;Node11</title>
<path fill="none" stroke="#9a32cd" stroke-dasharray="5,2" d="M893.465,-412.427C894.972,-417.349 901.484,-421 913,-421 931.426,-421 937.04,-411.653 929.842,-402.708"/>
<polygon fill="#9a32cd" stroke="#9a32cd" points="896.861,-413.279 896.158,-402.708 890.115,-411.41 896.861,-413.279"/>
<text text-anchor="middle" x="913" y="-425" font-family="FreeSans" font-size="10.00"> ZERO</text>
</g>
<!-- Node12 -->
<g id="node25" class="node"><title>Node12</title>
<a xlink:href="class_urho3_d_1_1_int_rect.html" target="_top" xlink:title="Two&#45;dimensional bounding rectangle with integer values.">
<polygon fill="none" stroke="black" points="2261,-207.5 2261,-228.5 2353,-228.5 2353,-207.5 2261,-207.5"/>
<text text-anchor="middle" x="2307" y="-215.5" font-family="FreeSans" font-size="10.00">Urho3D::IntRect</text>
</a>
</g>
<!-- Node12&#45;&gt;Node1 -->
<g id="edge28" class="edge"><title>Node12&#45;&gt;Node1</title>
<path fill="none" stroke="#9a32cd" stroke-dasharray="5,2" d="M2363,-229.249C2398.97,-236.477 2445.33,-245.79 2480.23,-252.802"/>
<polygon fill="#9a32cd" stroke="#9a32cd" points="2363.63,-225.808 2353.14,-227.269 2362.26,-232.671 2363.63,-225.808"/>
<text text-anchor="middle" x="2430" y="-253" font-family="FreeSans" font-size="10.00"> rectangle_</text>
</g>
<!-- Node12&#45;&gt;Node12 -->
<g id="edge30" class="edge"><title>Node12&#45;&gt;Node12</title>
<path fill="none" stroke="#9a32cd" stroke-dasharray="5,2" d="M2284.52,-238.427C2286.25,-243.349 2293.75,-247 2307,-247 2328.21,-247 2334.67,-237.653 2326.38,-228.708"/>
<polygon fill="#9a32cd" stroke="#9a32cd" points="2287.91,-239.299 2287.62,-228.708 2281.24,-237.172 2287.91,-239.299"/>
<text text-anchor="middle" x="2307" y="-251" font-family="FreeSans" font-size="10.00"> ZERO</text>
</g>
<!-- Node13 -->
<g id="node28" class="node"><title>Node13</title>
<a xlink:href="class_urho3_d_1_1_vector2.html" target="_top" xlink:title="Two&#45;dimensional vector.">
<polygon fill="none" stroke="black" points="2259,-71.5 2259,-92.5 2355,-92.5 2355,-71.5 2259,-71.5"/>
<text text-anchor="middle" x="2307" y="-79.5" font-family="FreeSans" font-size="10.00">Urho3D::Vector2</text>
</a>
</g>
<!-- Node13&#45;&gt;Node1 -->
<g id="edge32" class="edge"><title>Node13&#45;&gt;Node1</title>
<path fill="none" stroke="#9a32cd" stroke-dasharray="5,2" d="M2328.04,-98.9992C2373.69,-135.886 2480.71,-222.368 2517.95,-252.457"/>
<polygon fill="#9a32cd" stroke="#9a32cd" points="2329.99,-96.0764 2320.01,-92.5137 2325.59,-101.521 2329.99,-96.0764"/>
<text text-anchor="middle" x="2430" y="-209" font-family="FreeSans" font-size="10.00"> hotSpot_</text>
</g>
<!-- Node13&#45;&gt;Node13 -->
<g id="edge34" class="edge"><title>Node13&#45;&gt;Node13</title>
<path fill="none" stroke="#9a32cd" stroke-dasharray="5,2" d="M2284.52,-102.427C2286.25,-107.349 2293.75,-111 2307,-111 2328.21,-111 2334.67,-101.653 2326.38,-92.7079"/>
<polygon fill="#9a32cd" stroke="#9a32cd" points="2287.91,-103.299 2287.62,-92.7079 2281.24,-101.172 2287.91,-103.299"/>
<text text-anchor="middle" x="2307" y="-180" font-family="FreeSans" font-size="10.00"> ONE</text>
<text text-anchor="middle" x="2307" y="-167" font-family="FreeSans" font-size="10.00">DOWN</text>
<text text-anchor="middle" x="2307" y="-154" font-family="FreeSans" font-size="10.00">RIGHT</text>
<text text-anchor="middle" x="2307" y="-141" font-family="FreeSans" font-size="10.00">LEFT</text>
<text text-anchor="middle" x="2307" y="-128" font-family="FreeSans" font-size="10.00">ZERO</text>
<text text-anchor="middle" x="2307" y="-115" font-family="FreeSans" font-size="10.00">UP</text>
</g>
<!-- Node14&#45;&gt;Node1 -->
<g id="edge36" class="edge"><title>Node14&#45;&gt;Node1</title>
<path fill="none" stroke="#9a32cd" stroke-dasharray="5,2" d="M2333.34,-443.892C2382.15,-399.227 2484.8,-305.281 2519.36,-273.651"/>
<polygon fill="#9a32cd" stroke="#9a32cd" points="2330.73,-441.541 2325.71,-450.874 2335.45,-446.705 2330.73,-441.541"/>
<text text-anchor="middle" x="2430" y="-387" font-family="FreeSans" font-size="10.00"> spriteSheet_</text>
</g>
<!-- Node15&#45;&gt;Node14 -->
<g id="edge38" class="edge"><title>Node15&#45;&gt;Node14</title>
<path fill="none" stroke="#9a32cd" stroke-dasharray="5,2" d="M2144.36,-468C2172.89,-468 2205.31,-468 2233.65,-468"/>
<polygon fill="#9a32cd" stroke="#9a32cd" points="2144.03,-464.5 2134.03,-468 2144.03,-471.5 2144.03,-464.5"/>
<text text-anchor="middle" x="2184" y="-472" font-family="FreeSans" font-size="10.00"> ptr_</text>
</g>
<!-- Node16 -->
<g id="node36" class="node"><title>Node16</title>
<a xlink:href="class_urho3_d_1_1_hash_map.html" target="_top" xlink:title="Urho3D::HashMap\&lt; Urho3D\l::String, Urho3D::SharedPtr\l\&lt; Urho3D::Sprite2D \&gt; \&gt;">
<polygon fill="none" stroke="red" points="1740,-534.5 1740,-581.5 1892,-581.5 1892,-534.5 1740,-534.5"/>
<text text-anchor="start" x="1748" y="-568.5" font-family="FreeSans" font-size="10.00">Urho3D::HashMap&lt; Urho3D</text>
<text text-anchor="start" x="1748" y="-555.5" font-family="FreeSans" font-size="10.00">::String, Urho3D::SharedPtr</text>
<text text-anchor="middle" x="1816" y="-542.5" font-family="FreeSans" font-size="10.00">&lt; Urho3D::Sprite2D &gt; &gt;</text>
</a>
</g>
<!-- Node16&#45;&gt;Node15 -->
<g id="edge42" class="edge"><title>Node16&#45;&gt;Node15</title>
<path fill="none" stroke="#9a32cd" stroke-dasharray="5,2" d="M1902.13,-544.66C1929.54,-538.864 1959.59,-530.849 1986,-520 2012.27,-509.209 2039.58,-490.368 2055.4,-478.572"/>
<polygon fill="#9a32cd" stroke="#9a32cd" points="1901.25,-541.266 1892.16,-546.696 1902.66,-548.125 1901.25,-541.266"/>
<text text-anchor="middle" x="1948" y="-546" font-family="FreeSans" font-size="10.00"> spriteMapping_</text>
</g>
<!-- Node17 -->
<g id="node38" class="node"><title>Node17</title>
<a xlink:href="class_urho3_d_1_1_shared_ptr.html" target="_top" xlink:title="Urho3D::SharedPtr\&lt;\l Urho3D::JSONFile \&gt;">
<polygon fill="none" stroke="red" points="1758,-406 1758,-440 1874,-440 1874,-406 1758,-406"/>
<text text-anchor="start" x="1766" y="-427" font-family="FreeSans" font-size="10.00">Urho3D::SharedPtr&lt;</text>
<text text-anchor="middle" x="1816" y="-414" font-family="FreeSans" font-size="10.00"> Urho3D::JSONFile &gt;</text>
</a>
</g>
<!-- Node17&#45;&gt;Node15 -->
<g id="edge44" class="edge"><title>Node17&#45;&gt;Node15</title>
<path fill="none" stroke="#9a32cd" stroke-dasharray="5,2" d="M1884.63,-426.985C1915.81,-429.633 1953.01,-433.969 1986,-441 2004.82,-445.012 2025.4,-451.688 2041.35,-457.398"/>
<polygon fill="#9a32cd" stroke="#9a32cd" points="1884.56,-423.467 1874.31,-426.15 1883.99,-430.445 1884.56,-423.467"/>
<text text-anchor="middle" x="1948" y="-445" font-family="FreeSans" font-size="10.00"> loadJSONFile_</text>
</g>
<!-- Node18 -->
<g id="node41" class="node"><title>Node18</title>
<a xlink:href="class_urho3_d_1_1_shared_ptr.html" target="_top" xlink:title="Urho3D::SharedPtr\&lt;\l Urho3D::XMLFile \&gt;">
<polygon fill="none" stroke="red" points="1272,-491 1272,-525 1388,-525 1388,-491 1272,-491"/>
<text text-anchor="start" x="1280" y="-512" font-family="FreeSans" font-size="10.00">Urho3D::SharedPtr&lt;</text>
<text text-anchor="middle" x="1330" y="-499" font-family="FreeSans" font-size="10.00"> Urho3D::XMLFile &gt;</text>
</a>
</g>
<!-- Node18&#45;&gt;Node15 -->
<g id="edge48" class="edge"><title>Node18&#45;&gt;Node15</title>
<path fill="none" stroke="#9a32cd" stroke-dasharray="5,2" d="M1398.19,-508.154C1517.62,-507.786 1772.29,-504.167 1986,-482 1994.58,-481.11 2003.61,-479.887 2012.43,-478.532"/>
<polygon fill="#9a32cd" stroke="#9a32cd" points="1398.09,-504.654 1388.09,-508.178 1398.1,-511.654 1398.09,-504.654"/>
<text text-anchor="middle" x="1690" y="-507" font-family="FreeSans" font-size="10.00"> loadXMLFile_</text>
</g>
<!-- Node20 -->
<g id="node45" class="node"><title>Node20</title>
<a xlink:href="class_urho3_d_1_1_texture2_d.html" target="_top" xlink:title="2D texture resource.">
<polygon fill="none" stroke="black" points="1532.5,-601.5 1532.5,-622.5 1639.5,-622.5 1639.5,-601.5 1532.5,-601.5"/>
<text text-anchor="middle" x="1586" y="-609.5" font-family="FreeSans" font-size="10.00">Urho3D::Texture2D</text>
</a>
</g>
<!-- Node18&#45;&gt;Node20 -->
<g id="edge62" class="edge"><title>Node18&#45;&gt;Node20</title>
<path fill="none" stroke="#9a32cd" stroke-dasharray="5,2" d="M1398.14,-520.662C1433.79,-528.809 1477.48,-541.249 1514,-559 1537.17,-570.264 1560.57,-589.205 1574.15,-601.131"/>
<polygon fill="#9a32cd" stroke="#9a32cd" points="1398.84,-517.231 1388.32,-518.477 1397.32,-524.064 1398.84,-517.231"/>
<text text-anchor="middle" x="1467" y="-563" font-family="FreeSans" font-size="10.00"> loadParameters_</text>
</g>
<!-- Node19 -->
<g id="node43" class="node"><title>Node19</title>
<a xlink:href="class_urho3_d_1_1_shared_ptr.html" target="_top" xlink:title="Urho3D::SharedPtr\&lt;\l Urho3D::Texture2D \&gt;">
<polygon fill="none" stroke="black" points="1755,-600 1755,-634 1877,-634 1877,-600 1755,-600"/>
<text text-anchor="start" x="1763" y="-621" font-family="FreeSans" font-size="10.00">Urho3D::SharedPtr&lt;</text>
<text text-anchor="middle" x="1816" y="-608" font-family="FreeSans" font-size="10.00"> Urho3D::Texture2D &gt;</text>
</a>
</g>
<!-- Node19&#45;&gt;Node1 -->
<g id="edge72" class="edge"><title>Node19&#45;&gt;Node1</title>
<path fill="none" stroke="#9a32cd" stroke-dasharray="5,2" d="M1887.44,-616.908C2000.7,-613.561 2224.53,-593.628 2380,-494 2467.54,-437.903 2515.17,-310.93 2527.65,-273.544"/>
<polygon fill="#9a32cd" stroke="#9a32cd" points="1887.07,-613.417 1877.16,-617.175 1887.25,-620.414 1887.07,-613.417"/>
<text text-anchor="middle" x="2184" y="-600" font-family="FreeSans" font-size="10.00"> loadTexture_</text>
<text text-anchor="middle" x="2184" y="-587" font-family="FreeSans" font-size="10.00">texture_</text>
</g>
<!-- Node19&#45;&gt;Node15 -->
<g id="edge50" class="edge"><title>Node19&#45;&gt;Node15</title>
<path fill="none" stroke="#9a32cd" stroke-dasharray="5,2" d="M1886.91,-601.399C1918.89,-592.27 1956.1,-578.594 1986,-559 2019.98,-536.733 2049.24,-497.392 2062.07,-478.587"/>
<polygon fill="#9a32cd" stroke="#9a32cd" points="1885.87,-598.054 1877.16,-604.088 1887.73,-604.802 1885.87,-598.054"/>
<text text-anchor="middle" x="1948" y="-597" font-family="FreeSans" font-size="10.00"> texture_</text>
</g>
<!-- Node20&#45;&gt;Node19 -->
<g id="edge52" class="edge"><title>Node20&#45;&gt;Node19</title>
<path fill="none" stroke="#9a32cd" stroke-dasharray="5,2" d="M1650.03,-613.392C1682.84,-614.105 1722.59,-614.969 1754.97,-615.673"/>
<polygon fill="#9a32cd" stroke="#9a32cd" points="1649.71,-609.884 1639.63,-613.166 1649.56,-616.883 1649.71,-609.884"/>
<text text-anchor="middle" x="1690" y="-618" font-family="FreeSans" font-size="10.00"> ptr_</text>
</g>
<!-- Node21&#45;&gt;Node20 -->
<g id="edge54" class="edge"><title>Node21&#45;&gt;Node20</title>
<path fill="none" stroke="midnightblue" d="M1387.01,-650.148C1423.45,-644.85 1471.65,-637.324 1514,-629 1523.7,-627.093 1534.08,-624.795 1543.86,-622.513"/>
<polygon fill="midnightblue" stroke="midnightblue" points="1386.46,-646.692 1377.06,-651.583 1387.46,-653.62 1386.46,-646.692"/>
</g>
<!-- Node22 -->
<g id="node50" class="node"><title>Node22</title>
<a xlink:href="class_urho3_d_1_1_shared_ptr.html" target="_top" xlink:title="Urho3D::SharedPtr\&lt;\l Urho3D::Image \&gt;">
<polygon fill="none" stroke="red" points="1272,-543 1272,-577 1388,-577 1388,-543 1272,-543"/>
<text text-anchor="start" x="1280" y="-564" font-family="FreeSans" font-size="10.00">Urho3D::SharedPtr&lt;</text>
<text text-anchor="middle" x="1330" y="-551" font-family="FreeSans" font-size="10.00"> Urho3D::Image &gt;</text>
</a>
</g>
<!-- Node22&#45;&gt;Node20 -->
<g id="edge58" class="edge"><title>Node22&#45;&gt;Node20</title>
<path fill="none" stroke="#9a32cd" stroke-dasharray="5,2" d="M1398.18,-572.231C1432.92,-578.651 1475.79,-586.859 1514,-595 1523.3,-596.981 1533.23,-599.237 1542.67,-601.443"/>
<polygon fill="#9a32cd" stroke="#9a32cd" points="1398.61,-568.752 1388.14,-570.384 1397.34,-575.636 1398.61,-568.752"/>
<text text-anchor="middle" x="1467" y="-599" font-family="FreeSans" font-size="10.00"> loadImage_</text>
</g>
<!-- Node23 -->
<g id="node52" class="node"><title>Node23</title>
<a xlink:href="class_urho3_d_1_1_shared_ptr.html" target="_top" xlink:title="Urho3D::SharedPtr\&lt;\l Urho3D::RenderSurface \&gt;">
<polygon fill="none" stroke="red" points="1258.5,-595 1258.5,-629 1401.5,-629 1401.5,-595 1258.5,-595"/>
<text text-anchor="start" x="1266.5" y="-616" font-family="FreeSans" font-size="10.00">Urho3D::SharedPtr&lt;</text>
<text text-anchor="middle" x="1330" y="-603" font-family="FreeSans" font-size="10.00"> Urho3D::RenderSurface &gt;</text>
</a>
</g>
<!-- Node23&#45;&gt;Node20 -->
<g id="edge60" class="edge"><title>Node23&#45;&gt;Node20</title>
<path fill="none" stroke="#9a32cd" stroke-dasharray="5,2" d="M1411.78,-612C1451.19,-612 1497.36,-612 1532.26,-612"/>
<polygon fill="#9a32cd" stroke="#9a32cd" points="1411.65,-608.5 1401.65,-612 1411.65,-615.5 1411.65,-608.5"/>
<text text-anchor="middle" x="1467" y="-616" font-family="FreeSans" font-size="10.00"> renderSurface_</text>
</g>
<!-- Node24 -->
<g id="node55" class="node"><title>Node24</title>
<a xlink:href="class_urho3_d_1_1_shared_ptr.html" target="_top" xlink:title="Urho3D::SharedPtr\&lt;\l Urho3D::PListFile \&gt;">
<polygon fill="none" stroke="red" points="1758,-354 1758,-388 1874,-388 1874,-354 1758,-354"/>
<text text-anchor="start" x="1766" y="-375" font-family="FreeSans" font-size="10.00">Urho3D::SharedPtr&lt;</text>
<text text-anchor="middle" x="1816" y="-362" font-family="FreeSans" font-size="10.00"> Urho3D::PListFile &gt;</text>
</a>
</g>
<!-- Node24&#45;&gt;Node15 -->
<g id="edge64" class="edge"><title>Node24&#45;&gt;Node15</title>
<path fill="none" stroke="#9a32cd" stroke-dasharray="5,2" d="M1884.42,-381.715C1916.17,-388.132 1953.91,-397.859 1986,-412 2013.04,-423.917 2040.77,-444.702 2056.35,-457.321"/>
<polygon fill="#9a32cd" stroke="#9a32cd" points="1884.81,-378.227 1874.33,-379.746 1883.47,-385.097 1884.81,-378.227"/>
<text text-anchor="middle" x="1948" y="-416" font-family="FreeSans" font-size="10.00"> loadPListFile_</text>
</g>
<!-- Node25 -->
<g id="node58" class="node"><title>Node25</title>
<a xlink:href="class_urho3_d_1_1_int_vector2.html" target="_top" xlink:title="Two&#45;dimensional vector with integer values.">
<polygon fill="none" stroke="black" points="2253,-0.5 2253,-21.5 2361,-21.5 2361,-0.5 2253,-0.5"/>
<text text-anchor="middle" x="2307" y="-8.5" font-family="FreeSans" font-size="10.00">Urho3D::IntVector2</text>
</a>
</g>
<!-- Node25&#45;&gt;Node1 -->
<g id="edge68" class="edge"><title>Node25&#45;&gt;Node1</title>
<path fill="none" stroke="#9a32cd" stroke-dasharray="5,2" d="M2332.17,-27.2146C2346.56,-36.8218 2364.73,-49.5243 2380,-62 2418.95,-93.8268 2431.13,-100.289 2462,-140 2491.6,-178.081 2516.51,-230.391 2526.41,-252.48"/>
<polygon fill="#9a32cd" stroke="#9a32cd" points="2334.03,-24.2487 2323.75,-21.6625 2330.17,-30.0914 2334.03,-24.2487"/>
<text text-anchor="middle" x="2430" y="-144" font-family="FreeSans" font-size="10.00"> offset_</text>
</g>
<!-- Node25&#45;&gt;Node25 -->
<g id="edge70" class="edge"><title>Node25&#45;&gt;Node25</title>
<path fill="none" stroke="#9a32cd" stroke-dasharray="5,2" d="M2284.52,-31.4266C2286.25,-36.3489 2293.75,-40 2307,-40 2328.21,-40 2334.67,-30.6531 2326.38,-21.7079"/>
<polygon fill="#9a32cd" stroke="#9a32cd" points="2287.91,-32.2985 2287.62,-21.7079 2281.24,-30.1721 2287.91,-32.2985"/>
<text text-anchor="middle" x="2307" y="-44" font-family="FreeSans" font-size="10.00"> ZERO</text>
</g>
</g>
</svg>
