<?xml version="1.0" encoding="UTF-8" standalone="no"?>
<!DOCTYPE svg PUBLIC "-//W3C//DTD SVG 1.1//EN"
 "http://www.w3.org/Graphics/SVG/1.1/DTD/svg11.dtd">
<!-- Generated by graphviz version 2.36.0 (20140111.2315)
 -->
<!-- Title: Urho3D::Model Pages: 1 -->
<!--zoomable 797 -->
<svg id="main" version="1.1" xmlns="http://www.w3.org/2000/svg" xmlns:xlink="http://www.w3.org/1999/xlink" xml:space="preserve" onload="init(evt)">
<style type="text/css"><![CDATA[
.edge:hover path { stroke: red; }
.edge:hover polygon { stroke: red; fill: red; }
]]></style>
<script type="text/javascript"><![CDATA[
var edges = document.getElementsByTagName('g');
if (edges && edges.length) {
  for (var i=0;i<edges.length;i++) {
    if (edges[i].id.substr(0,4)=='edge') {
      edges[i].setAttribute('class','edge');
    }
  }
}
]]></script>
        <defs>
                <circle id="rim" cx="0" cy="0" r="7"/>
                <circle id="rim2" cx="0" cy="0" r="3.5"/>
                <g id="zoomPlus">
                        <use xlink:href="#rim" fill="#404040">
                                <set attributeName="fill" to="#808080" begin="zoomplus.mouseover" end="zoomplus.mouseout"/>
                        </use>
                        <path d="M-4,0h8M0,-4v8" fill="none" stroke="white" stroke-width="1.5" pointer-events="none"/>
                </g>
                <g id="zoomMin">
                        <use xlink:href="#rim" fill="#404040">
                                <set attributeName="fill" to="#808080" begin="zoomminus.mouseover" end="zoomminus.mouseout"/>
                        </use>
                        <path d="M-4,0h8" fill="none" stroke="white" stroke-width="1.5" pointer-events="none"/>
                </g>
                <g id="dirArrow">
                        <path fill="none" stroke="white" stroke-width="1.5" d="M0,-3.0v7 M-2.5,-0.5L0,-3.0L2.5,-0.5"/>
                </g>
               <g id="resetDef">
                       <use xlink:href="#rim2" fill="#404040">
                               <set attributeName="fill" to="#808080" begin="reset.mouseover" end="reset.mouseout"/>
                       </use>
               </g>
        </defs>

<script type="text/javascript">
var viewWidth = 1310;
var viewHeight = 797;
var sectionId = 'dynsection-1';
</script>
<script xlink:href="svgpan.js"/>
<svg id="graph" class="graph">
<g id="viewport">
<title>Urho3D::Model</title>
<!-- Node1 -->
<g id="node1" class="node"><title>Node1</title>
<polygon fill="#bfbfbf" stroke="black" points="1218.5,-334.5 1218.5,-353.5 1301.5,-353.5 1301.5,-334.5 1218.5,-334.5"/>
<text text-anchor="middle" x="1260" y="-341.5" font-family="Helvetica,sans-Serif" font-size="10.00">Urho3D::Model</text>
</g>
<!-- Node2 -->
<g id="node2" class="node"><title>Node2</title>
<g id="a_node2"><a xlink:href="class_urho3_d_1_1_resource.html" target="_top" xlink:title="Base class for resources. ">
<polygon fill="none" stroke="black" points="955,-641.5 955,-660.5 1053,-660.5 1053,-641.5 955,-641.5"/>
<text text-anchor="middle" x="1004" y="-648.5" font-family="Helvetica,sans-Serif" font-size="10.00">Urho3D::Resource</text>
</a>
</g>
</g>
<!-- Node2&#45;&gt;Node1 -->
<g id="edge1" class="edge"><title>Node2&#45;&gt;Node1</title>
<path fill="none" stroke="midnightblue" d="M1063.37,-650.736C1106.9,-647.33 1164.71,-635.487 1200,-599 1235.31,-562.502 1253.93,-395.369 1258.1,-353.521"/>
<polygon fill="midnightblue" stroke="midnightblue" points="1062.95,-647.257 1053.2,-651.401 1063.4,-654.242 1062.95,-647.257"/>
</g>
<!-- Node3 -->
<g id="node3" class="node"><title>Node3</title>
<g id="a_node3"><a xlink:href="class_urho3_d_1_1_object.html" target="_top" xlink:title="Base class for objects with type identification, subsystem access and event sending/receiving capabil...">
<polygon fill="none" stroke="black" points="591.5,-746.5 591.5,-765.5 676.5,-765.5 676.5,-746.5 591.5,-746.5"/>
<text text-anchor="middle" x="634" y="-753.5" font-family="Helvetica,sans-Serif" font-size="10.00">Urho3D::Object</text>
</a>
</g>
</g>
<!-- Node3&#45;&gt;Node2 -->
<g id="edge2" class="edge"><title>Node3&#45;&gt;Node2</title>
<path fill="none" stroke="midnightblue" d="M687.243,-754.855C742.703,-752.139 832.092,-743.42 904,-716 939.157,-702.594 974.64,-675.139 992.017,-660.572"/>
<polygon fill="midnightblue" stroke="midnightblue" points="686.793,-751.371 676.957,-755.308 687.102,-758.364 686.793,-751.371"/>
</g>
<!-- Node4 -->
<g id="node4" class="node"><title>Node4</title>
<g id="a_node4"><a xlink:href="class_urho3_d_1_1_ref_counted.html" target="_top" xlink:title="Base class for intrusively reference&#45;counted objects. These are noncopyable and non&#45;assignable. ">
<polygon fill="none" stroke="black" points="180.5,-768.5 180.5,-787.5 289.5,-787.5 289.5,-768.5 180.5,-768.5"/>
<text text-anchor="middle" x="235" y="-775.5" font-family="Helvetica,sans-Serif" font-size="10.00">Urho3D::RefCounted</text>
</a>
</g>
</g>
<!-- Node4&#45;&gt;Node3 -->
<g id="edge3" class="edge"><title>Node4&#45;&gt;Node3</title>
<path fill="none" stroke="midnightblue" d="M299.932,-780.004C363.929,-781.207 465.108,-780.928 552,-771 564.788,-769.539 578.596,-767.251 591.126,-764.899"/>
<polygon fill="midnightblue" stroke="midnightblue" points="299.668,-776.498 289.598,-779.791 299.524,-783.496 299.668,-776.498"/>
</g>
<!-- Node6 -->
<g id="node6" class="node"><title>Node6</title>
<g id="a_node6"><a xlink:href="class_urho3_d_1_1_context.html" target="_top" xlink:title="Urho3D execution context. Provides access to subsystems, object factories and attributes, and event receivers. ">
<polygon fill="none" stroke="red" points="349.5,-746.5 349.5,-765.5 440.5,-765.5 440.5,-746.5 349.5,-746.5"/>
<text text-anchor="middle" x="395" y="-753.5" font-family="Helvetica,sans-Serif" font-size="10.00">Urho3D::Context</text>
</a>
</g>
</g>
<!-- Node4&#45;&gt;Node6 -->
<g id="edge6" class="edge"><title>Node4&#45;&gt;Node6</title>
<path fill="none" stroke="midnightblue" d="M300.107,-769.074C316.681,-766.766 334.162,-764.332 349.488,-762.198"/>
<polygon fill="midnightblue" stroke="midnightblue" points="299.354,-765.645 289.933,-770.49 300.32,-772.578 299.354,-765.645"/>
</g>
<!-- Node5 -->
<g id="node5" class="node"><title>Node5</title>
<g id="a_node5"><a xlink:href="struct_urho3_d_1_1_ref_count.html" target="_top" xlink:title="Reference count structure. ">
<polygon fill="none" stroke="black" points="0,-768.5 0,-787.5 98,-787.5 98,-768.5 0,-768.5"/>
<text text-anchor="middle" x="49" y="-775.5" font-family="Helvetica,sans-Serif" font-size="10.00">Urho3D::RefCount</text>
</a>
</g>
</g>
<!-- Node5&#45;&gt;Node4 -->
<g id="edge4" class="edge"><title>Node5&#45;&gt;Node4</title>
<path fill="none" stroke="#9a32cd" stroke-dasharray="5,2" d="M108.364,-778C131.473,-778 157.864,-778 180.474,-778"/>
<polygon fill="#9a32cd" stroke="#9a32cd" points="108.344,-774.5 98.3438,-778 108.344,-781.5 108.344,-774.5"/>
<text text-anchor="middle" x="139" y="-781" font-family="Helvetica,sans-Serif" font-size="10.00"> refCount_</text>
</g>
<!-- Node6&#45;&gt;Node3 -->
<g id="edge5" class="edge"><title>Node6&#45;&gt;Node3</title>
<path fill="none" stroke="#9a32cd" stroke-dasharray="5,2" d="M450.837,-756C493.695,-756 552.354,-756 591.402,-756"/>
<polygon fill="#9a32cd" stroke="#9a32cd" points="450.578,-752.5 440.578,-756 450.578,-759.5 450.578,-752.5"/>
<text text-anchor="middle" x="516" y="-759" font-family="Helvetica,sans-Serif" font-size="10.00"> context_</text>
</g>
<!-- Node7 -->
<g id="node7" class="node"><title>Node7</title>
<g id="a_node7"><a xlink:href="class_urho3_d_1_1_linked_list.html" target="_top" xlink:title="Urho3D::LinkedList\l\&lt; Urho3D::EventHandler \&gt;">
<polygon fill="none" stroke="red" points="328,-697 328,-727 462,-727 462,-697 328,-697"/>
<text text-anchor="start" x="336" y="-715" font-family="Helvetica,sans-Serif" font-size="10.00">Urho3D::LinkedList</text>
<text text-anchor="middle" x="395" y="-704" font-family="Helvetica,sans-Serif" font-size="10.00">&lt; Urho3D::EventHandler &gt;</text>
</a>
</g>
</g>
<!-- Node7&#45;&gt;Node3 -->
<g id="edge7" class="edge"><title>Node7&#45;&gt;Node3</title>
<path fill="none" stroke="#9a32cd" stroke-dasharray="5,2" d="M471.895,-726.09C511.415,-733.427 558.229,-742.118 591.179,-748.236"/>
<polygon fill="#9a32cd" stroke="#9a32cd" points="472.489,-722.641 462.018,-724.256 471.211,-729.523 472.489,-722.641"/>
<text text-anchor="middle" x="516" y="-743" font-family="Helvetica,sans-Serif" font-size="10.00"> eventHandlers_</text>
</g>
<!-- Node8 -->
<g id="node8" class="node"><title>Node8</title>
<g id="a_node8"><a xlink:href="class_urho3_d_1_1_timer.html" target="_top" xlink:title="Low&#45;resolution operating system timer. ">
<polygon fill="none" stroke="black" points="593.5,-708.5 593.5,-727.5 674.5,-727.5 674.5,-708.5 593.5,-708.5"/>
<text text-anchor="middle" x="634" y="-715.5" font-family="Helvetica,sans-Serif" font-size="10.00">Urho3D::Timer</text>
</a>
</g>
</g>
<!-- Node8&#45;&gt;Node2 -->
<g id="edge8" class="edge"><title>Node8&#45;&gt;Node2</title>
<path fill="none" stroke="#9a32cd" stroke-dasharray="5,2" d="M684.748,-708.943C755.597,-696.043 884.715,-672.536 954.738,-659.787"/>
<polygon fill="#9a32cd" stroke="#9a32cd" points="683.943,-705.531 674.732,-710.766 685.197,-712.418 683.943,-705.531"/>
<text text-anchor="middle" x="810" y="-704" font-family="Helvetica,sans-Serif" font-size="10.00"> useTimer_</text>
</g>
<!-- Node9 -->
<g id="node9" class="node"><title>Node9</title>
<g id="a_node9"><a xlink:href="class_urho3_d_1_1_string.html" target="_top" xlink:title="String class. ">
<polygon fill="none" stroke="black" points="593,-641.5 593,-660.5 675,-660.5 675,-641.5 593,-641.5"/>
<text text-anchor="middle" x="634" y="-648.5" font-family="Helvetica,sans-Serif" font-size="10.00">Urho3D::String</text>
</a>
</g>
</g>
<!-- Node9&#45;&gt;Node2 -->
<g id="edge9" class="edge"><title>Node9&#45;&gt;Node2</title>
<path fill="none" stroke="#9a32cd" stroke-dasharray="5,2" d="M685.119,-651C756.083,-651 884.97,-651 954.846,-651"/>
<polygon fill="#9a32cd" stroke="#9a32cd" points="685.083,-647.5 675.083,-651 685.083,-654.5 685.083,-647.5"/>
<text text-anchor="middle" x="810" y="-654" font-family="Helvetica,sans-Serif" font-size="10.00"> name_</text>
</g>
<!-- Node9&#45;&gt;Node9 -->
<g id="edge10" class="edge"><title>Node9&#45;&gt;Node9</title>
<path fill="none" stroke="#9a32cd" stroke-dasharray="5,2" d="M612.051,-670.029C613.248,-675.128 620.564,-679 634,-679 654.973,-679 661.035,-669.565 652.187,-660.757"/>
<polygon fill="#9a32cd" stroke="#9a32cd" points="615.296,-671.339 615.813,-660.757 608.81,-668.707 615.296,-671.339"/>
<text text-anchor="middle" x="634" y="-682" font-family="Helvetica,sans-Serif" font-size="10.00"> EMPTY</text>
</g>
<!-- Node10 -->
<g id="node10" class="node"><title>Node10</title>
<g id="a_node10"><a xlink:href="class_urho3_d_1_1_string_hash.html" target="_top" xlink:title="32&#45;bit hash value for a string. ">
<polygon fill="none" stroke="black" points="581.5,-574.5 581.5,-593.5 686.5,-593.5 686.5,-574.5 581.5,-574.5"/>
<text text-anchor="middle" x="634" y="-581.5" font-family="Helvetica,sans-Serif" font-size="10.00">Urho3D::StringHash</text>
</a>
</g>
</g>
<!-- Node10&#45;&gt;Node2 -->
<g id="edge11" class="edge"><title>Node10&#45;&gt;Node2</title>
<path fill="none" stroke="#9a32cd" stroke-dasharray="5,2" d="M696.484,-595.194C769.107,-608.416 888.402,-630.136 954.719,-642.21"/>
<polygon fill="#9a32cd" stroke="#9a32cd" points="697.022,-591.735 686.556,-593.387 695.768,-598.621 697.022,-591.735"/>
<text text-anchor="middle" x="810" y="-634" font-family="Helvetica,sans-Serif" font-size="10.00"> nameHash_</text>
</g>
<!-- Node10&#45;&gt;Node10 -->
<g id="edge12" class="edge"><title>Node10&#45;&gt;Node10</title>
<path fill="none" stroke="#9a32cd" stroke-dasharray="5,2" d="M612.051,-603.029C613.248,-608.128 620.564,-612 634,-612 654.973,-612 661.035,-602.565 652.187,-593.757"/>
<polygon fill="#9a32cd" stroke="#9a32cd" points="615.296,-604.339 615.813,-593.757 608.81,-601.707 615.296,-604.339"/>
<text text-anchor="middle" x="634" y="-615" font-family="Helvetica,sans-Serif" font-size="10.00"> ZERO</text>
</g>
<!-- Node11 -->
<g id="node11" class="node"><title>Node11</title>
<g id="a_node11"><a xlink:href="class_urho3_d_1_1_skeleton.html" target="_top" xlink:title="Hierarchical collection of bones. ">
<polygon fill="none" stroke="black" points="956.5,-566.5 956.5,-585.5 1051.5,-585.5 1051.5,-566.5 956.5,-566.5"/>
<text text-anchor="middle" x="1004" y="-573.5" font-family="Helvetica,sans-Serif" font-size="10.00">Urho3D::Skeleton</text>
</a>
</g>
</g>
<!-- Node11&#45;&gt;Node1 -->
<g id="edge13" class="edge"><title>Node11&#45;&gt;Node1</title>
<path fill="none" stroke="#9a32cd" stroke-dasharray="5,2" d="M1061.72,-584.157C1104.63,-587.024 1162.39,-583.349 1200,-551 1261.2,-498.367 1261.13,-387.186 1259.61,-353.727"/>
<polygon fill="#9a32cd" stroke="#9a32cd" points="1061.95,-580.664 1051.7,-583.352 1061.39,-587.642 1061.95,-580.664"/>
<text text-anchor="middle" x="1152" y="-587" font-family="Helvetica,sans-Serif" font-size="10.00"> skeleton_</text>
</g>
<!-- Node12 -->
<g id="node12" class="node"><title>Node12</title>
<g id="a_node12"><a xlink:href="class_urho3_d_1_1_vector.html" target="_top" xlink:title="Urho3D::Vector\&lt; Urho3D\l::Bone \&gt;">
<polygon fill="none" stroke="black" points="570,-525 570,-555 698,-555 698,-525 570,-525"/>
<text text-anchor="start" x="578" y="-543" font-family="Helvetica,sans-Serif" font-size="10.00">Urho3D::Vector&lt; Urho3D</text>
<text text-anchor="middle" x="634" y="-532" font-family="Helvetica,sans-Serif" font-size="10.00">::Bone &gt;</text>
</a>
</g>
</g>
<!-- Node12&#45;&gt;Node11 -->
<g id="edge14" class="edge"><title>Node12&#45;&gt;Node11</title>
<path fill="none" stroke="#9a32cd" stroke-dasharray="5,2" d="M708.417,-547.182C782.227,-554.403 893.779,-565.315 956.295,-571.431"/>
<polygon fill="#9a32cd" stroke="#9a32cd" points="708.555,-543.679 698.261,-546.189 707.873,-550.646 708.555,-543.679"/>
<text text-anchor="middle" x="810" y="-568" font-family="Helvetica,sans-Serif" font-size="10.00"> bones_</text>
</g>
<!-- Node13 -->
<g id="node13" class="node"><title>Node13</title>
<g id="a_node13"><a xlink:href="class_urho3_d_1_1_vector_base.html" target="_top" xlink:title="Vector base class. ">
<polygon fill="none" stroke="black" points="341.5,-334.5 341.5,-353.5 448.5,-353.5 448.5,-334.5 341.5,-334.5"/>
<text text-anchor="middle" x="395" y="-341.5" font-family="Helvetica,sans-Serif" font-size="10.00">Urho3D::VectorBase</text>
</a>
</g>
</g>
<!-- Node13&#45;&gt;Node12 -->
<g id="edge15" class="edge"><title>Node13&#45;&gt;Node12</title>
<path fill="none" stroke="midnightblue" d="M400.062,-363.805C408.406,-399.156 430.969,-472.882 480,-510 505.466,-529.279 539.963,-537.159 569.754,-540.052"/>
<polygon fill="midnightblue" stroke="midnightblue" points="403.419,-362.776 397.837,-353.771 396.585,-364.292 403.419,-362.776"/>
</g>
<!-- Node14 -->
<g id="node14" class="node"><title>Node14</title>
<g id="a_node14"><a xlink:href="class_urho3_d_1_1_vector.html" target="_top" xlink:title="Urho3D::Vector\&lt; Urho3D\l::SharedPtr\&lt; Urho3D::IndexBuffer \&gt; \&gt;">
<polygon fill="none" stroke="black" points="718.5,-490 718.5,-520 901.5,-520 901.5,-490 718.5,-490"/>
<text text-anchor="start" x="726.5" y="-508" font-family="Helvetica,sans-Serif" font-size="10.00">Urho3D::Vector&lt; Urho3D</text>
<text text-anchor="middle" x="810" y="-497" font-family="Helvetica,sans-Serif" font-size="10.00">::SharedPtr&lt; Urho3D::IndexBuffer &gt; &gt;</text>
</a>
</g>
</g>
<!-- Node13&#45;&gt;Node14 -->
<g id="edge17" class="edge"><title>Node13&#45;&gt;Node14</title>
<path fill="none" stroke="midnightblue" d="M410.263,-361.441C425.754,-379.372 452.052,-407.004 480,-424 552.877,-468.318 648.747,-488.418 718.182,-497.517"/>
<polygon fill="midnightblue" stroke="midnightblue" points="412.691,-358.891 403.567,-353.507 407.342,-363.406 412.691,-358.891"/>
</g>
<!-- Node15 -->
<g id="node15" class="node"><title>Node15</title>
<g id="a_node15"><a xlink:href="class_urho3_d_1_1_vector.html" target="_top" xlink:title="Urho3D::Vector\&lt; Urho3D\l::PODVector\&lt; unsigned \&gt; \&gt;">
<polygon fill="none" stroke="black" points="740.5,-448 740.5,-478 879.5,-478 879.5,-448 740.5,-448"/>
<text text-anchor="start" x="748.5" y="-466" font-family="Helvetica,sans-Serif" font-size="10.00">Urho3D::Vector&lt; Urho3D</text>
<text text-anchor="middle" x="810" y="-455" font-family="Helvetica,sans-Serif" font-size="10.00">::PODVector&lt; unsigned &gt; &gt;</text>
</a>
</g>
</g>
<!-- Node13&#45;&gt;Node15 -->
<g id="edge19" class="edge"><title>Node13&#45;&gt;Node15</title>
<path fill="none" stroke="midnightblue" d="M416.298,-359.887C432.656,-371.967 456.694,-388.139 480,-398 565.523,-434.187 672.19,-450.514 740.455,-457.681"/>
<polygon fill="midnightblue" stroke="midnightblue" points="418.143,-356.895 408.053,-353.663 413.926,-362.481 418.143,-356.895"/>
</g>
<!-- Node16 -->
<g id="node16" class="node"><title>Node16</title>
<g id="a_node16"><a xlink:href="class_urho3_d_1_1_vector.html" target="_top" xlink:title="Urho3D::Vector\&lt; Urho3D\l::SharedPtr\&lt; Urho3D::VertexBuffer \&gt; \&gt;">
<polygon fill="none" stroke="black" points="716,-408 716,-438 904,-438 904,-408 716,-408"/>
<text text-anchor="start" x="724" y="-426" font-family="Helvetica,sans-Serif" font-size="10.00">Urho3D::Vector&lt; Urho3D</text>
<text text-anchor="middle" x="810" y="-415" font-family="Helvetica,sans-Serif" font-size="10.00">::SharedPtr&lt; Urho3D::VertexBuffer &gt; &gt;</text>
</a>
</g>
</g>
<!-- Node13&#45;&gt;Node16 -->
<g id="edge21" class="edge"><title>Node13&#45;&gt;Node16</title>
<path fill="none" stroke="midnightblue" d="M426.551,-357.518C442.253,-363.98 461.857,-371.311 480,-376 558.207,-396.214 649.27,-408.376 715.738,-415.246"/>
<polygon fill="midnightblue" stroke="midnightblue" points="427.9,-354.288 417.326,-353.637 425.186,-360.741 427.9,-354.288"/>
</g>
<!-- Node17 -->
<g id="node17" class="node"><title>Node17</title>
<g id="a_node17"><a xlink:href="class_urho3_d_1_1_vector.html" target="_top" xlink:title="Urho3D::Vector\&lt; Urho3D\l::IndexBufferDesc \&gt;">
<polygon fill="none" stroke="black" points="746,-369 746,-399 874,-399 874,-369 746,-369"/>
<text text-anchor="start" x="754" y="-387" font-family="Helvetica,sans-Serif" font-size="10.00">Urho3D::Vector&lt; Urho3D</text>
<text text-anchor="middle" x="810" y="-376" font-family="Helvetica,sans-Serif" font-size="10.00">::IndexBufferDesc &gt;</text>
</a>
</g>
</g>
<!-- Node13&#45;&gt;Node17 -->
<g id="edge23" class="edge"><title>Node13&#45;&gt;Node17</title>
<path fill="none" stroke="midnightblue" d="M459.047,-355.111C466.103,-356.175 473.197,-357.166 480,-358 572.13,-369.296 679.406,-376.708 745.766,-380.627"/>
<polygon fill="midnightblue" stroke="midnightblue" points="459.194,-351.591 448.774,-353.51 458.116,-358.508 459.194,-351.591"/>
</g>
<!-- Node18 -->
<g id="node18" class="node"><title>Node18</title>
<g id="a_node18"><a xlink:href="class_urho3_d_1_1_p_o_d_vector.html" target="_top" xlink:title="Urho3D::PODVector\&lt;\l Urho3D::Vector3 \&gt;">
<polygon fill="none" stroke="black" points="947.5,-329 947.5,-359 1060.5,-359 1060.5,-329 947.5,-329"/>
<text text-anchor="start" x="955.5" y="-347" font-family="Helvetica,sans-Serif" font-size="10.00">Urho3D::PODVector&lt;</text>
<text text-anchor="middle" x="1004" y="-336" font-family="Helvetica,sans-Serif" font-size="10.00"> Urho3D::Vector3 &gt;</text>
</a>
</g>
</g>
<!-- Node13&#45;&gt;Node18 -->
<g id="edge25" class="edge"><title>Node13&#45;&gt;Node18</title>
<path fill="none" stroke="midnightblue" d="M458.571,-344C577.375,-344 833.845,-344 947.194,-344"/>
<polygon fill="midnightblue" stroke="midnightblue" points="458.541,-340.5 448.541,-344 458.541,-347.5 458.541,-340.5"/>
</g>
<!-- Node19 -->
<g id="node19" class="node"><title>Node19</title>
<g id="a_node19"><a xlink:href="class_urho3_d_1_1_vector.html" target="_top" xlink:title="Urho3D::Vector\&lt; Urho3D\l::Vector\&lt; Urho3D::SharedPtr\l\&lt; Urho3D::Geometry \&gt; \&gt; \&gt;">
<polygon fill="none" stroke="black" points="738.5,-284.5 738.5,-325.5 881.5,-325.5 881.5,-284.5 738.5,-284.5"/>
<text text-anchor="start" x="746.5" y="-313.5" font-family="Helvetica,sans-Serif" font-size="10.00">Urho3D::Vector&lt; Urho3D</text>
<text text-anchor="start" x="746.5" y="-302.5" font-family="Helvetica,sans-Serif" font-size="10.00">::Vector&lt; Urho3D::SharedPtr</text>
<text text-anchor="middle" x="810" y="-291.5" font-family="Helvetica,sans-Serif" font-size="10.00">&lt; Urho3D::Geometry &gt; &gt; &gt;</text>
</a>
</g>
</g>
<!-- Node13&#45;&gt;Node19 -->
<g id="edge27" class="edge"><title>Node13&#45;&gt;Node19</title>
<path fill="none" stroke="midnightblue" d="M459.044,-332.869C466.101,-331.808 473.196,-330.824 480,-330 568.713,-319.258 671.477,-312.325 738.225,-308.547"/>
<polygon fill="midnightblue" stroke="midnightblue" points="458.115,-329.471 448.771,-334.466 459.19,-336.388 458.115,-329.471"/>
</g>
<!-- Node22 -->
<g id="node22" class="node"><title>Node22</title>
<g id="a_node22"><a xlink:href="class_urho3_d_1_1_p_o_d_vector.html" target="_top" xlink:title="Urho3D::PODVector\&lt;\l unsigned \&gt;">
<polygon fill="none" stroke="black" points="947.5,-232 947.5,-262 1060.5,-262 1060.5,-232 947.5,-232"/>
<text text-anchor="start" x="955.5" y="-250" font-family="Helvetica,sans-Serif" font-size="10.00">Urho3D::PODVector&lt;</text>
<text text-anchor="middle" x="1004" y="-239" font-family="Helvetica,sans-Serif" font-size="10.00"> unsigned &gt;</text>
</a>
</g>
</g>
<!-- Node13&#45;&gt;Node22 -->
<g id="edge32" class="edge"><title>Node13&#45;&gt;Node22</title>
<path fill="none" stroke="midnightblue" d="M434.443,-331.382C448.648,-327.032 464.953,-322.403 480,-319 648.068,-280.994 851.343,-259.979 947.475,-251.497"/>
<polygon fill="midnightblue" stroke="midnightblue" points="433.022,-328.159 424.518,-334.478 435.107,-334.841 433.022,-328.159"/>
</g>
<!-- Node23 -->
<g id="node23" class="node"><title>Node23</title>
<g id="a_node23"><a xlink:href="class_urho3_d_1_1_vector.html" target="_top" xlink:title="Urho3D::Vector\&lt; Urho3D\l::ModelMorph \&gt;">
<polygon fill="none" stroke="black" points="746,-212 746,-242 874,-242 874,-212 746,-212"/>
<text text-anchor="start" x="754" y="-230" font-family="Helvetica,sans-Serif" font-size="10.00">Urho3D::Vector&lt; Urho3D</text>
<text text-anchor="middle" x="810" y="-219" font-family="Helvetica,sans-Serif" font-size="10.00">::ModelMorph &gt;</text>
</a>
</g>
</g>
<!-- Node13&#45;&gt;Node23 -->
<g id="edge34" class="edge"><title>Node13&#45;&gt;Node23</title>
<path fill="none" stroke="midnightblue" d="M406.817,-325.99C420.758,-304.624 447.155,-269.901 480,-254 564.983,-212.857 676.843,-213.487 745.79,-219.164"/>
<polygon fill="midnightblue" stroke="midnightblue" points="403.83,-324.166 401.466,-334.494 409.754,-327.894 403.83,-324.166"/>
</g>
<!-- Node24 -->
<g id="node24" class="node"><title>Node24</title>
<g id="a_node24"><a xlink:href="class_urho3_d_1_1_vector.html" target="_top" xlink:title="Urho3D::Vector\&lt; Urho3D\l::PODVector\&lt; Urho3D::Geometry\lDesc \&gt; \&gt;">
<polygon fill="none" stroke="black" points="922,-124.5 922,-165.5 1086,-165.5 1086,-124.5 922,-124.5"/>
<text text-anchor="start" x="930" y="-153.5" font-family="Helvetica,sans-Serif" font-size="10.00">Urho3D::Vector&lt; Urho3D</text>
<text text-anchor="start" x="930" y="-142.5" font-family="Helvetica,sans-Serif" font-size="10.00">::PODVector&lt; Urho3D::Geometry</text>
<text text-anchor="middle" x="1004" y="-131.5" font-family="Helvetica,sans-Serif" font-size="10.00">Desc &gt; &gt;</text>
</a>
</g>
</g>
<!-- Node13&#45;&gt;Node24 -->
<g id="edge36" class="edge"><title>Node13&#45;&gt;Node24</title>
<path fill="none" stroke="midnightblue" d="M403.839,-325.075C415.942,-298.431 441.839,-250.493 480,-227 552.494,-182.372 793.936,-159.393 921.852,-150.101"/>
<polygon fill="midnightblue" stroke="midnightblue" points="400.539,-323.888 399.752,-334.454 406.956,-326.685 400.539,-323.888"/>
</g>
<!-- Node25 -->
<g id="node25" class="node"><title>Node25</title>
<g id="a_node25"><a xlink:href="class_urho3_d_1_1_vector.html" target="_top" xlink:title="Urho3D::Vector\&lt; Urho3D\l::VertexBufferDesc \&gt;">
<polygon fill="none" stroke="black" points="746,-110 746,-140 874,-140 874,-110 746,-110"/>
<text text-anchor="start" x="754" y="-128" font-family="Helvetica,sans-Serif" font-size="10.00">Urho3D::Vector&lt; Urho3D</text>
<text text-anchor="middle" x="810" y="-117" font-family="Helvetica,sans-Serif" font-size="10.00">::VertexBufferDesc &gt;</text>
</a>
</g>
</g>
<!-- Node13&#45;&gt;Node25 -->
<g id="edge38" class="edge"><title>Node13&#45;&gt;Node25</title>
<path fill="none" stroke="midnightblue" d="M399.94,-324.03C408.088,-288.416 430.347,-214.281 480,-178 501.108,-162.576 656.42,-142.511 745.903,-132.048"/>
<polygon fill="midnightblue" stroke="midnightblue" points="396.446,-323.631 397.773,-334.143 403.29,-325.098 396.446,-323.631"/>
</g>
<!-- Node14&#45;&gt;Node1 -->
<g id="edge16" class="edge"><title>Node14&#45;&gt;Node1</title>
<path fill="none" stroke="#9a32cd" stroke-dasharray="5,2" d="M911.951,-514.934C998.042,-517.777 1120.2,-507.721 1200,-441 1229.49,-416.347 1248.29,-372.97 1255.57,-353.698"/>
<polygon fill="#9a32cd" stroke="#9a32cd" points="912.029,-511.434 901.899,-514.538 911.754,-518.429 912.029,-511.434"/>
<text text-anchor="middle" x="1004" y="-519" font-family="Helvetica,sans-Serif" font-size="10.00"> indexBuffers_</text>
</g>
<!-- Node15&#45;&gt;Node1 -->
<g id="edge18" class="edge"><title>Node15&#45;&gt;Node1</title>
<path fill="none" stroke="#9a32cd" stroke-dasharray="5,2" d="M889.877,-469.203C973.093,-471.953 1105.07,-465.198 1200,-407 1223,-392.902 1242.82,-367.483 1252.57,-353.633"/>
<polygon fill="#9a32cd" stroke="#9a32cd" points="889.853,-465.699 879.725,-468.812 889.583,-472.694 889.853,-465.699"/>
<text text-anchor="middle" x="1004" y="-473" font-family="Helvetica,sans-Serif" font-size="10.00"> geometryBoneMappings_</text>
</g>
<!-- Node16&#45;&gt;Node1 -->
<g id="edge20" class="edge"><title>Node16&#45;&gt;Node1</title>
<path fill="none" stroke="#9a32cd" stroke-dasharray="5,2" d="M914.298,-424.443C994.487,-422.481 1107.25,-412.886 1200,-379 1217,-372.788 1234.62,-361.614 1246.12,-353.56"/>
<polygon fill="#9a32cd" stroke="#9a32cd" points="914.116,-420.946 904.192,-424.654 914.263,-427.944 914.116,-420.946"/>
<text text-anchor="middle" x="1004" y="-428" font-family="Helvetica,sans-Serif" font-size="10.00"> vertexBuffers_</text>
</g>
<!-- Node17&#45;&gt;Node1 -->
<g id="edge22" class="edge"><title>Node17&#45;&gt;Node1</title>
<path fill="none" stroke="#9a32cd" stroke-dasharray="5,2" d="M884.373,-383.629C962.95,-382.221 1091.05,-377.015 1200,-359 1208.34,-357.621 1217.23,-355.639 1225.51,-353.565"/>
<polygon fill="#9a32cd" stroke="#9a32cd" points="884.037,-380.134 874.095,-383.796 884.151,-387.133 884.037,-380.134"/>
<text text-anchor="middle" x="1004" y="-386" font-family="Helvetica,sans-Serif" font-size="10.00"> loadIBData_</text>
</g>
<!-- Node18&#45;&gt;Node1 -->
<g id="edge24" class="edge"><title>Node18&#45;&gt;Node1</title>
<path fill="none" stroke="#9a32cd" stroke-dasharray="5,2" d="M1070.77,-344C1117.44,-344 1178.62,-344 1218.36,-344"/>
<polygon fill="#9a32cd" stroke="#9a32cd" points="1070.74,-340.5 1060.74,-344 1070.74,-347.5 1070.74,-340.5"/>
<text text-anchor="middle" x="1152" y="-347" font-family="Helvetica,sans-Serif" font-size="10.00"> geometryCenters_</text>
</g>
<!-- Node19&#45;&gt;Node1 -->
<g id="edge26" class="edge"><title>Node19&#45;&gt;Node1</title>
<path fill="none" stroke="#9a32cd" stroke-dasharray="5,2" d="M891.614,-301.775C946.557,-300.583 1020.87,-300.936 1086,-308 1134.04,-313.21 1188.45,-325.636 1223.21,-334.426"/>
<polygon fill="#9a32cd" stroke="#9a32cd" points="891.501,-298.277 881.587,-302.015 891.668,-305.275 891.501,-298.277"/>
<text text-anchor="middle" x="1004" y="-311" font-family="Helvetica,sans-Serif" font-size="10.00"> geometries_</text>
</g>
<!-- Node20 -->
<g id="node20" class="node"><title>Node20</title>
<g id="a_node20"><a xlink:href="class_urho3_d_1_1_bounding_box.html" target="_top" xlink:title="Three&#45;dimensional axis&#45;aligned bounding box. ">
<polygon fill="none" stroke="black" points="947,-29.5 947,-48.5 1061,-48.5 1061,-29.5 947,-29.5"/>
<text text-anchor="middle" x="1004" y="-36.5" font-family="Helvetica,sans-Serif" font-size="10.00">Urho3D::BoundingBox</text>
</a>
</g>
</g>
<!-- Node20&#45;&gt;Node1 -->
<g id="edge28" class="edge"><title>Node20&#45;&gt;Node1</title>
<path fill="none" stroke="#9a32cd" stroke-dasharray="5,2" d="M1071.24,-31.9151C1113.38,-31.2182 1166.2,-37.9906 1200,-70 1239.66,-107.557 1255.13,-289.961 1258.34,-334.281"/>
<polygon fill="#9a32cd" stroke="#9a32cd" points="1070.94,-28.4227 1061.05,-32.2299 1071.15,-35.4194 1070.94,-28.4227"/>
<text text-anchor="middle" x="1152" y="-73" font-family="Helvetica,sans-Serif" font-size="10.00"> boundingBox_</text>
</g>
<!-- Node21 -->
<g id="node21" class="node"><title>Node21</title>
<g id="a_node21"><a xlink:href="class_urho3_d_1_1_vector3.html" target="_top" xlink:title="Three&#45;dimensional vector. ">
<polygon fill="none" stroke="black" points="589,-0.5 589,-19.5 679,-19.5 679,-0.5 589,-0.5"/>
<text text-anchor="middle" x="634" y="-7.5" font-family="Helvetica,sans-Serif" font-size="10.00">Urho3D::Vector3</text>
</a>
</g>
</g>
<!-- Node21&#45;&gt;Node20 -->
<g id="edge29" class="edge"><title>Node21&#45;&gt;Node20</title>
<path fill="none" stroke="#9a32cd" stroke-dasharray="5,2" d="M689.252,-14.2753C758.301,-19.7167 876.987,-29.0697 946.906,-34.5796"/>
<polygon fill="#9a32cd" stroke="#9a32cd" points="689.268,-10.7658 679.024,-13.4693 688.718,-17.7442 689.268,-10.7658"/>
<text text-anchor="middle" x="810" y="-45" font-family="Helvetica,sans-Serif" font-size="10.00"> max_</text>
<text text-anchor="middle" x="810" y="-34" font-family="Helvetica,sans-Serif" font-size="10.00">min_</text>
</g>
<!-- Node21&#45;&gt;Node21 -->
<g id="edge30" class="edge"><title>Node21&#45;&gt;Node21</title>
<path fill="none" stroke="#9a32cd" stroke-dasharray="5,2" d="M612.051,-29.0292C613.248,-34.128 620.564,-38 634,-38 654.973,-38 661.035,-28.5653 652.187,-19.7571"/>
<polygon fill="#9a32cd" stroke="#9a32cd" points="615.296,-30.3393 615.813,-19.7571 608.81,-27.7074 615.296,-30.3393"/>
<text text-anchor="middle" x="634" y="-118" font-family="Helvetica,sans-Serif" font-size="10.00"> ONE</text>
<text text-anchor="middle" x="634" y="-107" font-family="Helvetica,sans-Serif" font-size="10.00">DOWN</text>
<text text-anchor="middle" x="634" y="-96" font-family="Helvetica,sans-Serif" font-size="10.00">BACK</text>
<text text-anchor="middle" x="634" y="-85" font-family="Helvetica,sans-Serif" font-size="10.00">RIGHT</text>
<text text-anchor="middle" x="634" y="-74" font-family="Helvetica,sans-Serif" font-size="10.00">LEFT</text>
<text text-anchor="middle" x="634" y="-63" font-family="Helvetica,sans-Serif" font-size="10.00">ZERO</text>
<text text-anchor="middle" x="634" y="-52" font-family="Helvetica,sans-Serif" font-size="10.00">FORWARD</text>
<text text-anchor="middle" x="634" y="-41" font-family="Helvetica,sans-Serif" font-size="10.00">UP</text>
</g>
<!-- Node22&#45;&gt;Node1 -->
<g id="edge31" class="edge"><title>Node22&#45;&gt;Node1</title>
<path fill="none" stroke="#9a32cd" stroke-dasharray="5,2" d="M1070.82,-239.158C1110.63,-237.507 1161.04,-241.125 1200,-263 1229.13,-279.352 1247.75,-316.739 1255.24,-334.41"/>
<polygon fill="#9a32cd" stroke="#9a32cd" points="1070.48,-235.671 1060.68,-239.701 1070.85,-242.661 1070.48,-235.671"/>
<text text-anchor="middle" x="1152" y="-277" font-family="Helvetica,sans-Serif" font-size="10.00"> morphRangeCounts_</text>
<text text-anchor="middle" x="1152" y="-266" font-family="Helvetica,sans-Serif" font-size="10.00">morphRangeStarts_</text>
</g>
<!-- Node23&#45;&gt;Node1 -->
<g id="edge33" class="edge"><title>Node23&#45;&gt;Node1</title>
<path fill="none" stroke="#9a32cd" stroke-dasharray="5,2" d="M884.205,-214.936C896.779,-213.297 909.741,-211.879 922,-211 1045.74,-202.128 1100.74,-161.583 1200,-236 1234.19,-261.633 1250.97,-313.132 1256.67,-334.437"/>
<polygon fill="#9a32cd" stroke="#9a32cd" points="883.664,-211.477 874.226,-216.291 884.606,-218.413 883.664,-211.477"/>
<text text-anchor="middle" x="1004" y="-214" font-family="Helvetica,sans-Serif" font-size="10.00"> morphs_</text>
</g>
<!-- Node24&#45;&gt;Node1 -->
<g id="edge35" class="edge"><title>Node24&#45;&gt;Node1</title>
<path fill="none" stroke="#9a32cd" stroke-dasharray="5,2" d="M1096.36,-140.848C1132.21,-143.752 1171.5,-153.148 1200,-177 1249.75,-218.645 1257.57,-305.09 1258.78,-334.194"/>
<polygon fill="#9a32cd" stroke="#9a32cd" points="1096.56,-137.354 1086.35,-140.195 1096.11,-144.339 1096.56,-137.354"/>
<text text-anchor="middle" x="1152" y="-180" font-family="Helvetica,sans-Serif" font-size="10.00"> loadGeometries_</text>
</g>
<!-- Node25&#45;&gt;Node1 -->
<g id="edge37" class="edge"><title>Node25&#45;&gt;Node1</title>
<path fill="none" stroke="#9a32cd" stroke-dasharray="5,2" d="M863.652,-107.005C947.79,-81.9727 1112.01,-49.0437 1200,-138 1256.25,-194.865 1259.63,-301.514 1259.27,-334.217"/>
<polygon fill="#9a32cd" stroke="#9a32cd" points="862.589,-103.67 854.044,-109.933 864.63,-110.365 862.589,-103.67"/>
<text text-anchor="middle" x="1004" y="-95" font-family="Helvetica,sans-Serif" font-size="10.00"> loadVBData_</text>
</g>
</g>
</svg>
        <g id="navigator" transform="translate(0 0)" fill="#404254">
                <rect fill="#f2f5e9" fill-opacity="0.5" stroke="#606060" stroke-width=".5" x="0" y="0" width="60" height="60"/>
                <use id="zoomplus" xlink:href="#zoomPlus" x="17" y="9" onmousedown="handleZoom(evt,'in')"/>
                <use id="zoomminus" xlink:href="#zoomMin" x="42" y="9" onmousedown="handleZoom(evt,'out')"/>
                <use id="reset" xlink:href="#resetDef" x="30" y="36" onmousedown="handleReset()"/>
                <g id="arrowUp" xlink:href="#dirArrow" transform="translate(30 24)" onmousedown="handlePan(0,-1)">
                  <use xlink:href="#rim" fill="#404040">
                        <set attributeName="fill" to="#808080" begin="arrowUp.mouseover" end="arrowUp.mouseout"/>
                  </use>
                  <path fill="none" stroke="white" stroke-width="1.5" d="M0,-3.0v7 M-2.5,-0.5L0,-3.0L2.5,-0.5"/>
                </g>
                <g id="arrowRight" xlink:href="#dirArrow" transform="rotate(90) translate(36 -43)" onmousedown="handlePan(1,0)">
                  <use xlink:href="#rim" fill="#404040">
                        <set attributeName="fill" to="#808080" begin="arrowRight.mouseover" end="arrowRight.mouseout"/>
                  </use>
                  <path fill="none" stroke="white" stroke-width="1.5" d="M0,-3.0v7 M-2.5,-0.5L0,-3.0L2.5,-0.5"/>
                </g>
                <g id="arrowDown" xlink:href="#dirArrow" transform="rotate(180) translate(-30 -48)" onmousedown="handlePan(0,1)">
                  <use xlink:href="#rim" fill="#404040">
                        <set attributeName="fill" to="#808080" begin="arrowDown.mouseover" end="arrowDown.mouseout"/>
                  </use>
                  <path fill="none" stroke="white" stroke-width="1.5" d="M0,-3.0v7 M-2.5,-0.5L0,-3.0L2.5,-0.5"/>
                </g>
                <g id="arrowLeft" xlink:href="#dirArrow" transform="rotate(270) translate(-36 17)" onmousedown="handlePan(-1,0)">
                  <use xlink:href="#rim" fill="#404040">
                        <set attributeName="fill" to="#808080" begin="arrowLeft.mouseover" end="arrowLeft.mouseout"/>
                  </use>
                  <path fill="none" stroke="white" stroke-width="1.5" d="M0,-3.0v7 M-2.5,-0.5L0,-3.0L2.5,-0.5"/>
                </g>
        </g>
        <svg viewBox="0 0 15 15" width="100%" height="30px" preserveAspectRatio="xMaxYMin meet">
         <g id="arrow_out" transform="scale(0.3 0.3)">
          <a xlink:href="class_urho3_d_1_1_model__coll__graph_org.svg" target="_base">
           <rect id="button" ry="5" rx="5" y="6" x="6" height="38" width="38"
                fill="#f2f5e9" fill-opacity="0.5" stroke="#606060" stroke-width="1.0"/>
           <path id="arrow"
             d="M 11.500037,31.436501 C 11.940474,20.09759 22.043105,11.32322 32.158766,21.979434 L 37.068811,17.246167 C 37.068811,17.246167 37.088388,32 37.088388,32 L 22.160133,31.978069 C 22.160133,31.978069 26.997745,27.140456 26.997745,27.140456 C 18.528582,18.264221 13.291696,25.230495 11.500037,31.436501 z"
             style="fill:#404040;"/>
          </a>
         </g>
        </svg>
</svg>
