<?xml version="1.0" encoding="UTF-8" standalone="no"?>
<!DOCTYPE svg PUBLIC "-//W3C//DTD SVG 1.1//EN"
 "http://www.w3.org/Graphics/SVG/1.1/DTD/svg11.dtd">
<!-- Generated by graphviz version 2.43.0 (0)
 -->
<!-- Title: Urho3D::LuaScript Pages: 1 -->
<svg width="1620pt" height="947pt"
 viewBox="0.00 0.00 1620.00 947.00" xmlns="http://www.w3.org/2000/svg" xmlns:xlink="http://www.w3.org/1999/xlink">
<g id="graph0" class="graph" transform="scale(1 1) rotate(0) translate(4 943)">
<title>Urho3D::LuaScript</title>
<!-- Node1 -->
<g id="node1" class="node">
<title>Node1</title>
<g id="a_node1"><a xlink:title="Lua script subsystem.">
<polygon fill="#bfbfbf" stroke="black" points="1508,-809.5 1508,-828.5 1612,-828.5 1612,-809.5 1508,-809.5"/>
<text text-anchor="middle" x="1560" y="-816.5" font-family="Helvetica,sans-Serif" font-size="10.00">Urho3D::LuaScript</text>
</a>
</g>
</g>
<!-- Node2 -->
<g id="node2" class="node">
<title>Node2</title>
<g id="a_node2"><a xlink:href="class_urho3_d_1_1_object.html" target="_top" xlink:title="Base class for objects with type identification, subsystem access and event sending/receiving capabil...">
<polygon fill="none" stroke="black" points="517.5,-750.5 517.5,-769.5 608.5,-769.5 608.5,-750.5 517.5,-750.5"/>
<text text-anchor="middle" x="563" y="-757.5" font-family="Helvetica,sans-Serif" font-size="10.00">Urho3D::Object</text>
</a>
</g>
</g>
<!-- Node2&#45;&gt;Node1 -->
<g id="edge1" class="edge">
<title>Node2&#45;&gt;Node1</title>
<path fill="none" stroke="midnightblue" d="M618.53,-769.02C624.09,-769.77 629.65,-770.45 635,-771 966.55,-805.21 1367.68,-815.5 1507.77,-818.17"/>
<polygon fill="midnightblue" stroke="midnightblue" points="618.99,-765.55 608.6,-767.62 618.01,-772.48 618.99,-765.55"/>
</g>
<!-- Node14 -->
<g id="node11" class="node">
<title>Node14</title>
<g id="a_node11"><a xlink:href="class_urho3_d_1_1_event_handler.html" target="_top" xlink:title="Internal helper class for invoking event handler functions.">
<polygon fill="none" stroke="red" points="837,-702.5 837,-721.5 962,-721.5 962,-702.5 837,-702.5"/>
<text text-anchor="middle" x="899.5" y="-709.5" font-family="Helvetica,sans-Serif" font-size="10.00">Urho3D::EventHandler</text>
</a>
</g>
</g>
<!-- Node2&#45;&gt;Node14 -->
<g id="edge14" class="edge">
<title>Node2&#45;&gt;Node14</title>
<path fill="none" stroke="#9a32cd" stroke-dasharray="5,2" d="M585.92,-744.9C599.42,-736.48 617.46,-726.75 635,-722 702.27,-703.77 782.73,-703.68 836.89,-706.61"/>
<polygon fill="#9a32cd" stroke="#9a32cd" points="583.85,-742.07 577.36,-750.45 587.65,-747.95 583.85,-742.07"/>
<text text-anchor="middle" x="694" y="-736" font-family="Helvetica,sans-Serif" font-size="10.00"> sender_</text>
<text text-anchor="middle" x="694" y="-725" font-family="Helvetica,sans-Serif" font-size="10.00">receiver_</text>
</g>
<!-- Node26 -->
<g id="node21" class="node">
<title>Node26</title>
<g id="a_node21"><a xlink:href="class_urho3_d_1_1_lua_script_event_invoker.html" target="_top" xlink:title="Lua script event invoker.">
<polygon fill="none" stroke="black" points="815.5,-831.5 815.5,-850.5 983.5,-850.5 983.5,-831.5 815.5,-831.5"/>
<text text-anchor="middle" x="899.5" y="-838.5" font-family="Helvetica,sans-Serif" font-size="10.00">Urho3D::LuaScriptEventInvoker</text>
</a>
</g>
</g>
<!-- Node2&#45;&gt;Node26 -->
<g id="edge31" class="edge">
<title>Node2&#45;&gt;Node26</title>
<path fill="none" stroke="midnightblue" d="M598.41,-774.19C604.89,-777.59 611.39,-781.55 617,-786 626.9,-793.85 623.94,-801.89 635,-808 665.16,-824.67 749.96,-833.12 815.29,-837.27"/>
<polygon fill="midnightblue" stroke="midnightblue" points="599.56,-770.85 589.03,-769.61 596.48,-777.14 599.56,-770.85"/>
</g>
<!-- Node3 -->
<g id="node3" class="node">
<title>Node3</title>
<g id="a_node3"><a xlink:href="class_urho3_d_1_1_ref_counted.html" target="_top" xlink:title="Base class for intrusively reference&#45;counted objects. These are noncopyable and non&#45;assignable.">
<polygon fill="none" stroke="black" points="200,-763.5 200,-782.5 316,-782.5 316,-763.5 200,-763.5"/>
<text text-anchor="middle" x="258" y="-770.5" font-family="Helvetica,sans-Serif" font-size="10.00">Urho3D::RefCounted</text>
</a>
</g>
</g>
<!-- Node3&#45;&gt;Node2 -->
<g id="edge2" class="edge">
<title>Node3&#45;&gt;Node2</title>
<path fill="none" stroke="midnightblue" d="M326.55,-770.1C384.67,-767.61 466.89,-764.08 517.21,-761.92"/>
<polygon fill="midnightblue" stroke="midnightblue" points="326.19,-766.61 316.35,-770.54 326.49,-773.61 326.19,-766.61"/>
</g>
<!-- Node5 -->
<g id="node5" class="node">
<title>Node5</title>
<g id="a_node5"><a xlink:href="class_urho3_d_1_1_context.html" target="_top" xlink:title="Urho3D execution context. Provides access to subsystems, object factories and attributes,...">
<polygon fill="none" stroke="black" points="1259,-417.5 1259,-436.5 1357,-436.5 1357,-417.5 1259,-417.5"/>
<text text-anchor="middle" x="1308" y="-424.5" font-family="Helvetica,sans-Serif" font-size="10.00">Urho3D::Context</text>
</a>
</g>
</g>
<!-- Node3&#45;&gt;Node5 -->
<g id="edge5" class="edge">
<title>Node3&#45;&gt;Node5</title>
<path fill="none" stroke="midnightblue" d="M290.55,-759.33C354.45,-732.1 504.26,-670.55 635,-634 881.47,-565.11 970.26,-632.75 1199,-518 1241.52,-496.67 1281.62,-455.41 1298.55,-436.67"/>
<polygon fill="midnightblue" stroke="midnightblue" points="288.86,-756.25 281.04,-763.4 291.61,-762.68 288.86,-756.25"/>
</g>
<!-- Node105 -->
<g id="node24" class="node">
<title>Node105</title>
<g id="a_node24"><a xlink:href="class_urho3_d_1_1_lua_function.html" target="_top" xlink:title="C++ representation of Lua function object.">
<polygon fill="none" stroke="black" points="635,-887.5 635,-906.5 753,-906.5 753,-887.5 635,-887.5"/>
<text text-anchor="middle" x="694" y="-894.5" font-family="Helvetica,sans-Serif" font-size="10.00">Urho3D::LuaFunction</text>
</a>
</g>
</g>
<!-- Node3&#45;&gt;Node105 -->
<g id="edge37" class="edge">
<title>Node3&#45;&gt;Node105</title>
<path fill="none" stroke="midnightblue" d="M326.22,-780.24C415.09,-790.54 566.38,-810.76 617,-834 645.03,-846.87 671.22,-872.79 684.29,-887.04"/>
<polygon fill="midnightblue" stroke="midnightblue" points="326.56,-776.76 316.23,-779.1 325.76,-783.72 326.56,-776.76"/>
</g>
<!-- Node4 -->
<g id="node4" class="node">
<title>Node4</title>
<g id="a_node4"><a xlink:href="struct_urho3_d_1_1_ref_count.html" target="_top" xlink:title="Reference count structure.">
<polygon fill="none" stroke="black" points="0,-787.5 0,-806.5 104,-806.5 104,-787.5 0,-787.5"/>
<text text-anchor="middle" x="52" y="-794.5" font-family="Helvetica,sans-Serif" font-size="10.00">Urho3D::RefCount</text>
</a>
</g>
</g>
<!-- Node4&#45;&gt;Node3 -->
<g id="edge3" class="edge">
<title>Node4&#45;&gt;Node3</title>
<path fill="none" stroke="#9a32cd" stroke-dasharray="5,2" d="M114.31,-787.98C116.9,-787.64 119.48,-787.31 122,-787 147.49,-783.83 175.75,-780.82 199.79,-778.41"/>
<polygon fill="#9a32cd" stroke="#9a32cd" points="113.66,-784.54 104.21,-789.34 114.59,-791.48 113.66,-784.54"/>
<text text-anchor="middle" x="147.5" y="-790" font-family="Helvetica,sans-Serif" font-size="10.00"> refCount_</text>
</g>
<!-- Node27 -->
<g id="node22" class="node">
<title>Node27</title>
<g id="a_node22"><a xlink:href="class_urho3_d_1_1_weak_ptr.html" target="_top" xlink:title=" ">
<polygon fill="none" stroke="red" points="343,-823 343,-853 491,-853 491,-823 343,-823"/>
<text text-anchor="start" x="351" y="-841" font-family="Helvetica,sans-Serif" font-size="10.00">Urho3D::WeakPtr&lt; Urho3D</text>
<text text-anchor="middle" x="417" y="-830" font-family="Helvetica,sans-Serif" font-size="10.00">::LuaScriptInstance &gt;</text>
</a>
</g>
</g>
<!-- Node4&#45;&gt;Node27 -->
<g id="edge33" class="edge">
<title>Node4&#45;&gt;Node27</title>
<path fill="none" stroke="#9a32cd" stroke-dasharray="5,2" d="M114.44,-803.94C177.51,-811.06 275.66,-822.15 342.74,-829.73"/>
<polygon fill="#9a32cd" stroke="#9a32cd" points="114.57,-800.43 104.24,-802.79 113.78,-807.39 114.57,-800.43"/>
<text text-anchor="middle" x="147.5" y="-812" font-family="Helvetica,sans-Serif" font-size="10.00"> refCount_</text>
</g>
<!-- Node5&#45;&gt;Node2 -->
<g id="edge4" class="edge">
<title>Node5&#45;&gt;Node2</title>
<path fill="none" stroke="#9a32cd" stroke-dasharray="5,2" d="M1300.66,-446.22C1287.83,-481.77 1255.11,-557.21 1199,-591 1117.15,-640.29 862.68,-605.1 771,-632 705.77,-651.14 691.86,-664.74 635,-702 612.1,-717.01 587.92,-738.03 574.52,-750.21"/>
<polygon fill="#9a32cd" stroke="#9a32cd" points="1304.04,-447.16 1304.01,-436.56 1297.43,-444.87 1304.04,-447.16"/>
<text text-anchor="middle" x="899.5" y="-635" font-family="Helvetica,sans-Serif" font-size="10.00"> context_</text>
</g>
<!-- Node6 -->
<g id="node6" class="node">
<title>Node6</title>
<g id="a_node6"><a xlink:href="class_urho3_d_1_1_hash_map.html" target="_top" xlink:title=" ">
<polygon fill="none" stroke="black" points="771,-376 771,-428 1028,-428 1028,-376 771,-376"/>
<text text-anchor="start" x="779" y="-416" font-family="Helvetica,sans-Serif" font-size="10.00">Urho3D::HashMap&lt; Urho3D</text>
<text text-anchor="start" x="779" y="-405" font-family="Helvetica,sans-Serif" font-size="10.00">::Object *, Urho3D::HashMap</text>
<text text-anchor="start" x="779" y="-394" font-family="Helvetica,sans-Serif" font-size="10.00">&lt; Urho3D::StringHash, Urho3D</text>
<text text-anchor="middle" x="899.5" y="-383" font-family="Helvetica,sans-Serif" font-size="10.00">::SharedPtr&lt; Urho3D::EventReceiverGroup &gt; &gt; &gt;</text>
</a>
</g>
</g>
<!-- Node6&#45;&gt;Node5 -->
<g id="edge6" class="edge">
<title>Node6&#45;&gt;Node5</title>
<path fill="none" stroke="#9a32cd" stroke-dasharray="5,2" d="M1038.37,-409.36C1088.9,-412.19 1146.56,-415.56 1199,-419 1218.61,-420.28 1240.2,-421.85 1258.89,-423.26"/>
<polygon fill="#9a32cd" stroke="#9a32cd" points="1038.54,-405.86 1028.36,-408.8 1038.15,-412.85 1038.54,-405.86"/>
<text text-anchor="middle" x="1122.5" y="-422" font-family="Helvetica,sans-Serif" font-size="10.00"> specificEventReceivers_</text>
</g>
<!-- Node7 -->
<g id="node7" class="node">
<title>Node7</title>
<g id="a_node7"><a xlink:href="class_urho3_d_1_1_hash_base.html" target="_top" xlink:title="Hash set/map base class.">
<polygon fill="none" stroke="red" points="509,-206.5 509,-225.5 617,-225.5 617,-206.5 509,-206.5"/>
<text text-anchor="middle" x="563" y="-213.5" font-family="Helvetica,sans-Serif" font-size="10.00">Urho3D::HashBase</text>
</a>
</g>
</g>
<!-- Node7&#45;&gt;Node6 -->
<g id="edge7" class="edge">
<title>Node7&#45;&gt;Node6</title>
<path fill="none" stroke="midnightblue" d="M582.1,-232.59C616.42,-263.22 694.41,-328.9 771,-366 778.45,-369.61 786.33,-372.92 794.37,-375.93"/>
<polygon fill="midnightblue" stroke="midnightblue" points="584.11,-229.69 574.34,-225.6 579.43,-234.89 584.11,-229.69"/>
</g>
<!-- Node11 -->
<g id="node9" class="node">
<title>Node11</title>
<g id="a_node9"><a xlink:href="class_urho3_d_1_1_hash_map.html" target="_top" xlink:title=" ">
<polygon fill="none" stroke="black" points="805.5,-256 805.5,-308 993.5,-308 993.5,-256 805.5,-256"/>
<text text-anchor="start" x="813.5" y="-296" font-family="Helvetica,sans-Serif" font-size="10.00">Urho3D::HashMap&lt; Urho3D</text>
<text text-anchor="start" x="813.5" y="-285" font-family="Helvetica,sans-Serif" font-size="10.00">::StringHash, Urho3D::</text>
<text text-anchor="start" x="813.5" y="-274" font-family="Helvetica,sans-Serif" font-size="10.00">SharedPtr&lt; Urho3D::EventReceiver</text>
<text text-anchor="middle" x="899.5" y="-263" font-family="Helvetica,sans-Serif" font-size="10.00">Group &gt; &gt;</text>
</a>
</g>
</g>
<!-- Node7&#45;&gt;Node11 -->
<g id="edge11" class="edge">
<title>Node7&#45;&gt;Node11</title>
<path fill="none" stroke="midnightblue" d="M622.37,-227.52C672.83,-237.47 746.68,-252.04 805.31,-263.61"/>
<polygon fill="midnightblue" stroke="midnightblue" points="622.77,-224.03 612.28,-225.53 621.42,-230.9 622.77,-224.03"/>
</g>
<!-- Node17 -->
<g id="node12" class="node">
<title>Node17</title>
<g id="a_node12"><a xlink:href="class_urho3_d_1_1_hash_map.html" target="_top" xlink:title=" ">
<polygon fill="none" stroke="black" points="813,-146 813,-176 986,-176 986,-146 813,-146"/>
<text text-anchor="start" x="821" y="-164" font-family="Helvetica,sans-Serif" font-size="10.00">Urho3D::HashMap&lt; StringHash,</text>
<text text-anchor="middle" x="899.5" y="-153" font-family="Helvetica,sans-Serif" font-size="10.00"> Variant &gt;</text>
</a>
</g>
</g>
<!-- Node7&#45;&gt;Node17 -->
<g id="edge16" class="edge">
<title>Node7&#45;&gt;Node17</title>
<path fill="none" stroke="midnightblue" d="M627.19,-205.61C679.7,-196.98 754.93,-184.61 812.85,-175.08"/>
<polygon fill="midnightblue" stroke="midnightblue" points="626.3,-202.21 617,-207.29 627.44,-209.12 626.3,-202.21"/>
</g>
<!-- Node18 -->
<g id="node13" class="node">
<title>Node18</title>
<g id="a_node13"><a xlink:href="class_urho3_d_1_1_hash_map.html" target="_top" xlink:title=" ">
<polygon fill="none" stroke="black" points="813.5,-85.5 813.5,-126.5 985.5,-126.5 985.5,-85.5 813.5,-85.5"/>
<text text-anchor="start" x="821.5" y="-114.5" font-family="Helvetica,sans-Serif" font-size="10.00">Urho3D::HashMap&lt; Urho3D</text>
<text text-anchor="start" x="821.5" y="-103.5" font-family="Helvetica,sans-Serif" font-size="10.00">::StringHash, Urho3D::</text>
<text text-anchor="middle" x="899.5" y="-92.5" font-family="Helvetica,sans-Serif" font-size="10.00">SharedPtr&lt; Urho3D::Object &gt; &gt;</text>
</a>
</g>
</g>
<!-- Node7&#45;&gt;Node18 -->
<g id="edge18" class="edge">
<title>Node7&#45;&gt;Node18</title>
<path fill="none" stroke="midnightblue" d="M591.73,-201.77C604.7,-195.35 620.47,-187.91 635,-182 694.1,-157.95 709.65,-153.55 771,-136 784.56,-132.12 799.02,-128.36 813.17,-124.89"/>
<polygon fill="midnightblue" stroke="midnightblue" points="589.79,-198.82 582.41,-206.43 592.92,-205.08 589.79,-198.82"/>
</g>
<!-- Node20 -->
<g id="node15" class="node">
<title>Node20</title>
<g id="a_node15"><a xlink:href="class_urho3_d_1_1_hash_map.html" target="_top" xlink:title=" ">
<polygon fill="none" stroke="black" points="796,-507.5 796,-548.5 1003,-548.5 1003,-507.5 796,-507.5"/>
<text text-anchor="start" x="804" y="-536.5" font-family="Helvetica,sans-Serif" font-size="10.00">Urho3D::HashMap&lt; Urho3D</text>
<text text-anchor="start" x="804" y="-525.5" font-family="Helvetica,sans-Serif" font-size="10.00">::StringHash, Urho3D::</text>
<text text-anchor="middle" x="899.5" y="-514.5" font-family="Helvetica,sans-Serif" font-size="10.00">SharedPtr&lt; Urho3D::ObjectFactory &gt; &gt;</text>
</a>
</g>
</g>
<!-- Node7&#45;&gt;Node20 -->
<g id="edge21" class="edge">
<title>Node7&#45;&gt;Node20</title>
<path fill="none" stroke="midnightblue" d="M568.12,-235.76C576.18,-270.72 596.66,-344.57 635,-395 680.89,-455.36 702.39,-465.73 771,-498 778.92,-501.73 787.35,-505.01 795.94,-507.9"/>
<polygon fill="midnightblue" stroke="midnightblue" points="571.51,-234.86 565.94,-225.85 564.67,-236.37 571.51,-234.86"/>
</g>
<!-- Node21 -->
<g id="node16" class="node">
<title>Node21</title>
<g id="a_node16"><a xlink:href="class_urho3_d_1_1_hash_map.html" target="_top" xlink:title=" ">
<polygon fill="none" stroke="black" points="823,-447.5 823,-488.5 976,-488.5 976,-447.5 823,-447.5"/>
<text text-anchor="start" x="831" y="-476.5" font-family="Helvetica,sans-Serif" font-size="10.00">Urho3D::HashMap&lt; Urho3D</text>
<text text-anchor="start" x="831" y="-465.5" font-family="Helvetica,sans-Serif" font-size="10.00">::String, Urho3D::Vector</text>
<text text-anchor="middle" x="899.5" y="-454.5" font-family="Helvetica,sans-Serif" font-size="10.00">&lt; Urho3D::StringHash &gt; &gt;</text>
</a>
</g>
</g>
<!-- Node7&#45;&gt;Node21 -->
<g id="edge23" class="edge">
<title>Node7&#45;&gt;Node21</title>
<path fill="none" stroke="midnightblue" d="M572.66,-234.8C584.47,-259.18 607.36,-302.22 635,-333 685.84,-389.62 702.34,-404.2 771,-437 787.14,-444.71 805.36,-450.6 822.89,-455.07"/>
<polygon fill="midnightblue" stroke="midnightblue" points="575.74,-233.12 568.29,-225.59 569.41,-236.12 575.74,-233.12"/>
</g>
<!-- Node22 -->
<g id="node17" class="node">
<title>Node22</title>
<g id="a_node17"><a xlink:href="class_urho3_d_1_1_hash_map.html" target="_top" xlink:title=" ">
<polygon fill="none" stroke="black" points="807,-195.5 807,-236.5 992,-236.5 992,-195.5 807,-195.5"/>
<text text-anchor="start" x="815" y="-224.5" font-family="Helvetica,sans-Serif" font-size="10.00">Urho3D::HashMap&lt; Urho3D</text>
<text text-anchor="start" x="815" y="-213.5" font-family="Helvetica,sans-Serif" font-size="10.00">::StringHash, Urho3D::</text>
<text text-anchor="middle" x="899.5" y="-202.5" font-family="Helvetica,sans-Serif" font-size="10.00">Vector&lt; Urho3D::AttributeInfo &gt; &gt;</text>
</a>
</g>
</g>
<!-- Node7&#45;&gt;Node22 -->
<g id="edge25" class="edge">
<title>Node7&#45;&gt;Node22</title>
<path fill="none" stroke="midnightblue" d="M627.18,-216C677.93,-216 749.89,-216 806.95,-216"/>
<polygon fill="midnightblue" stroke="midnightblue" points="627,-212.5 617,-216 627,-219.5 627,-212.5"/>
</g>
<!-- Node106 -->
<g id="node23" class="node">
<title>Node106</title>
<g id="a_node23"><a xlink:href="class_urho3_d_1_1_hash_map.html" target="_top" xlink:title=" ">
<polygon fill="none" stroke="black" points="1046,-89.5 1046,-130.5 1199,-130.5 1199,-89.5 1046,-89.5"/>
<text text-anchor="start" x="1054" y="-118.5" font-family="Helvetica,sans-Serif" font-size="10.00">Urho3D::HashMap&lt; Urho3D</text>
<text text-anchor="start" x="1054" y="-107.5" font-family="Helvetica,sans-Serif" font-size="10.00">::String, Urho3D::SharedPtr</text>
<text text-anchor="middle" x="1122.5" y="-96.5" font-family="Helvetica,sans-Serif" font-size="10.00">&lt; Urho3D::LuaFunction &gt; &gt;</text>
</a>
</g>
</g>
<!-- Node7&#45;&gt;Node106 -->
<g id="edge35" class="edge">
<title>Node7&#45;&gt;Node106</title>
<path fill="none" stroke="midnightblue" d="M576.66,-198.36C589.72,-181.17 611.44,-155.18 635,-138 688.68,-98.86 706.08,-90.1 771,-76 882.62,-51.76 915.51,-56.18 1028,-76 1043.65,-78.76 1060.13,-83.92 1074.82,-89.41"/>
<polygon fill="midnightblue" stroke="midnightblue" points="573.81,-196.33 570.66,-206.45 579.43,-200.5 573.81,-196.33"/>
</g>
<!-- Node107 -->
<g id="node25" class="node">
<title>Node107</title>
<g id="a_node25"><a xlink:href="class_urho3_d_1_1_hash_map.html" target="_top" xlink:title=" ">
<polygon fill="none" stroke="black" points="1046.5,-0.5 1046.5,-41.5 1198.5,-41.5 1198.5,-0.5 1046.5,-0.5"/>
<text text-anchor="start" x="1054.5" y="-29.5" font-family="Helvetica,sans-Serif" font-size="10.00">Urho3D::HashMap&lt; const</text>
<text text-anchor="start" x="1054.5" y="-18.5" font-family="Helvetica,sans-Serif" font-size="10.00"> void *, Urho3D::SharedPtr</text>
<text text-anchor="middle" x="1122.5" y="-7.5" font-family="Helvetica,sans-Serif" font-size="10.00">&lt; Urho3D::LuaFunction &gt; &gt;</text>
</a>
</g>
</g>
<!-- Node7&#45;&gt;Node107 -->
<g id="edge39" class="edge">
<title>Node7&#45;&gt;Node107</title>
<path fill="none" stroke="midnightblue" d="M568.06,-196.31C575.52,-165.47 594.51,-106.27 635,-77 757.13,11.28 943.37,4.16 1046.38,-8.58"/>
<polygon fill="midnightblue" stroke="midnightblue" points="564.59,-195.76 565.81,-206.28 571.42,-197.3 564.59,-195.76"/>
</g>
<!-- Node8 -->
<g id="node8" class="node">
<title>Node8</title>
<g id="a_node8"><a xlink:href="struct_urho3_d_1_1_hash_node_base.html" target="_top" xlink:title="Hash set/map node base class.">
<polygon fill="none" stroke="black" points="191,-206.5 191,-225.5 325,-225.5 325,-206.5 191,-206.5"/>
<text text-anchor="middle" x="258" y="-213.5" font-family="Helvetica,sans-Serif" font-size="10.00">Urho3D::HashNodeBase</text>
</a>
</g>
</g>
<!-- Node8&#45;&gt;Node7 -->
<g id="edge8" class="edge">
<title>Node8&#45;&gt;Node7</title>
<path fill="none" stroke="#9a32cd" stroke-dasharray="5,2" d="M335.35,-216C389.41,-216 460.58,-216 508.63,-216"/>
<polygon fill="#9a32cd" stroke="#9a32cd" points="335.12,-212.5 325.12,-216 335.12,-219.5 335.12,-212.5"/>
<text text-anchor="middle" x="417" y="-241" font-family="Helvetica,sans-Serif" font-size="10.00"> ptrs_</text>
<text text-anchor="middle" x="417" y="-230" font-family="Helvetica,sans-Serif" font-size="10.00">tail_</text>
<text text-anchor="middle" x="417" y="-219" font-family="Helvetica,sans-Serif" font-size="10.00">head_</text>
</g>
<!-- Node8&#45;&gt;Node8 -->
<g id="edge9" class="edge">
<title>Node8&#45;&gt;Node8</title>
<path fill="none" stroke="#9a32cd" stroke-dasharray="5,2" d="M237.63,-235.4C238.99,-240.31 245.78,-244 258,-244 277.55,-244 283.2,-234.57 274.95,-225.76"/>
<polygon fill="#9a32cd" stroke="#9a32cd" points="241.01,-236.35 241.05,-225.76 234.41,-234.01 241.01,-236.35"/>
<text text-anchor="middle" x="258" y="-269" font-family="Helvetica,sans-Serif" font-size="10.00"> next_</text>
<text text-anchor="middle" x="258" y="-258" font-family="Helvetica,sans-Serif" font-size="10.00">prev_</text>
<text text-anchor="middle" x="258" y="-247" font-family="Helvetica,sans-Serif" font-size="10.00">down_</text>
</g>
<!-- Node11&#45;&gt;Node5 -->
<g id="edge10" class="edge">
<title>Node11&#45;&gt;Node5</title>
<path fill="none" stroke="#9a32cd" stroke-dasharray="5,2" d="M1003.59,-296.32C1062.57,-306.91 1136.94,-324.38 1199,-352 1238,-369.35 1277.65,-401.37 1296.19,-417.37"/>
<polygon fill="#9a32cd" stroke="#9a32cd" points="1003.97,-292.83 993.52,-294.55 1002.76,-299.73 1003.97,-292.83"/>
<text text-anchor="middle" x="1122.5" y="-355" font-family="Helvetica,sans-Serif" font-size="10.00"> eventReceivers_</text>
</g>
<!-- Node12 -->
<g id="node10" class="node">
<title>Node12</title>
<g id="a_node10"><a xlink:href="class_urho3_d_1_1_p_o_d_vector.html" target="_top" xlink:title=" ">
<polygon fill="none" stroke="red" points="840,-327 840,-357 959,-357 959,-327 840,-327"/>
<text text-anchor="start" x="848" y="-345" font-family="Helvetica,sans-Serif" font-size="10.00">Urho3D::PODVector&lt;</text>
<text text-anchor="middle" x="899.5" y="-334" font-family="Helvetica,sans-Serif" font-size="10.00"> Urho3D::Object * &gt;</text>
</a>
</g>
</g>
<!-- Node12&#45;&gt;Node5 -->
<g id="edge12" class="edge">
<title>Node12&#45;&gt;Node5</title>
<path fill="none" stroke="#9a32cd" stroke-dasharray="5,2" d="M969.43,-352.45C1030.2,-362.14 1120.94,-377.79 1199,-396 1225.6,-402.21 1255.4,-410.9 1276.95,-417.5"/>
<polygon fill="#9a32cd" stroke="#9a32cd" points="969.62,-348.94 959.2,-350.83 968.53,-355.85 969.62,-348.94"/>
<text text-anchor="middle" x="1122.5" y="-399" font-family="Helvetica,sans-Serif" font-size="10.00"> eventSenders_</text>
</g>
<!-- Node14&#45;&gt;Node5 -->
<g id="edge13" class="edge">
<title>Node14&#45;&gt;Node5</title>
<path fill="none" stroke="#9a32cd" stroke-dasharray="5,2" d="M972.31,-710.85C1049.02,-708.25 1164.28,-699.99 1199,-674 1281.43,-612.29 1301.94,-474.23 1306.08,-436.62"/>
<polygon fill="#9a32cd" stroke="#9a32cd" points="972.1,-707.35 962.22,-711.17 972.32,-714.35 972.1,-707.35"/>
<text text-anchor="middle" x="1122.5" y="-710" font-family="Helvetica,sans-Serif" font-size="10.00"> eventHandler_</text>
</g>
<!-- Node23 -->
<g id="node18" class="node">
<title>Node23</title>
<g id="a_node18"><a xlink:href="class_urho3_d_1_1_linked_list.html" target="_top" xlink:title=" ">
<polygon fill="none" stroke="black" points="1234,-727 1234,-757 1382,-757 1382,-727 1234,-727"/>
<text text-anchor="start" x="1242" y="-745" font-family="Helvetica,sans-Serif" font-size="10.00">Urho3D::LinkedList</text>
<text text-anchor="middle" x="1308" y="-734" font-family="Helvetica,sans-Serif" font-size="10.00">&lt; Urho3D::EventHandler &gt;</text>
</a>
</g>
</g>
<!-- Node14&#45;&gt;Node23 -->
<g id="edge27" class="edge">
<title>Node14&#45;&gt;Node23</title>
<path fill="none" stroke="#9a32cd" stroke-dasharray="5,2" d="M972.46,-716.8C1032.94,-720.9 1121.63,-727.06 1199,-733 1210.26,-733.86 1222.17,-734.82 1233.81,-735.77"/>
<polygon fill="#9a32cd" stroke="#9a32cd" points="972.47,-713.29 962.26,-716.11 972,-720.28 972.47,-713.29"/>
<text text-anchor="middle" x="1122.5" y="-736" font-family="Helvetica,sans-Serif" font-size="10.00"> head_</text>
</g>
<!-- Node17&#45;&gt;Node5 -->
<g id="edge15" class="edge">
<title>Node17&#45;&gt;Node5</title>
<path fill="none" stroke="#9a32cd" stroke-dasharray="5,2" d="M990.02,-178.06C1002.79,-180.64 1015.74,-183.33 1028,-186 1032.77,-187.04 1195.61,-223.48 1199,-227 1227.29,-256.39 1199.57,-280.12 1217,-317 1237.04,-359.39 1276.91,-399.45 1296.13,-417.29"/>
<polygon fill="#9a32cd" stroke="#9a32cd" points="990.33,-174.56 979.84,-176.02 988.96,-181.42 990.33,-174.56"/>
<text text-anchor="middle" x="1122.5" y="-230" font-family="Helvetica,sans-Serif" font-size="10.00"> globalVars_</text>
</g>
<!-- Node18&#45;&gt;Node5 -->
<g id="edge17" class="edge">
<title>Node18&#45;&gt;Node5</title>
<path fill="none" stroke="#9a32cd" stroke-dasharray="5,2" d="M995.51,-128.2C1082.81,-148.61 1198.78,-175.75 1199,-176 1241.3,-222.92 1192.03,-258.97 1217,-317 1235.53,-360.06 1276.13,-399.8 1295.83,-417.42"/>
<polygon fill="#9a32cd" stroke="#9a32cd" points="996.09,-124.74 985.55,-125.87 994.49,-131.55 996.09,-124.74"/>
<text text-anchor="middle" x="1122.5" y="-179" font-family="Helvetica,sans-Serif" font-size="10.00"> subsystems_</text>
</g>
<!-- Node19 -->
<g id="node14" class="node">
<title>Node19</title>
<g id="a_node14"><a xlink:href="class_urho3_d_1_1_p_o_d_vector.html" target="_top" xlink:title=" ">
<polygon fill="none" stroke="red" points="835.5,-653 835.5,-683 963.5,-683 963.5,-653 835.5,-653"/>
<text text-anchor="start" x="843.5" y="-671" font-family="Helvetica,sans-Serif" font-size="10.00">Urho3D::PODVector&lt;</text>
<text text-anchor="middle" x="899.5" y="-660" font-family="Helvetica,sans-Serif" font-size="10.00"> Urho3D::HashMap * &gt;</text>
</a>
</g>
</g>
<!-- Node19&#45;&gt;Node5 -->
<g id="edge19" class="edge">
<title>Node19&#45;&gt;Node5</title>
<path fill="none" stroke="#9a32cd" stroke-dasharray="5,2" d="M973.91,-664.01C1056.28,-658.98 1180.81,-649.44 1199,-637 1272.44,-586.79 1298.98,-470.81 1305.36,-436.64"/>
<polygon fill="#9a32cd" stroke="#9a32cd" points="973.61,-660.53 963.84,-664.62 974.03,-667.51 973.61,-660.53"/>
<text text-anchor="middle" x="1122.5" y="-662" font-family="Helvetica,sans-Serif" font-size="10.00"> eventDataMaps_</text>
</g>
<!-- Node20&#45;&gt;Node5 -->
<g id="edge20" class="edge">
<title>Node20&#45;&gt;Node5</title>
<path fill="none" stroke="#9a32cd" stroke-dasharray="5,2" d="M1013.06,-509.89C1069.42,-499.69 1138.39,-485.47 1199,-468 1229.45,-459.22 1263.45,-445.66 1285.02,-436.57"/>
<polygon fill="#9a32cd" stroke="#9a32cd" points="1012.27,-506.48 1003.05,-511.69 1013.51,-513.37 1012.27,-506.48"/>
<text text-anchor="middle" x="1122.5" y="-506" font-family="Helvetica,sans-Serif" font-size="10.00"> factories_</text>
</g>
<!-- Node21&#45;&gt;Node5 -->
<g id="edge22" class="edge">
<title>Node21&#45;&gt;Node5</title>
<path fill="none" stroke="#9a32cd" stroke-dasharray="5,2" d="M986.17,-459.36C1069.12,-450.99 1191.88,-438.61 1258.95,-431.85"/>
<polygon fill="#9a32cd" stroke="#9a32cd" points="985.61,-455.9 976.01,-460.38 986.31,-462.86 985.61,-455.9"/>
<text text-anchor="middle" x="1122.5" y="-456" font-family="Helvetica,sans-Serif" font-size="10.00"> objectCategories_</text>
</g>
<!-- Node22&#45;&gt;Node5 -->
<g id="edge24" class="edge">
<title>Node22&#45;&gt;Node5</title>
<path fill="none" stroke="#9a32cd" stroke-dasharray="5,2" d="M1002.33,-233.3C1082.49,-247.66 1183.27,-267.68 1199,-280 1213.39,-291.28 1207.14,-301.6 1217,-317 1242.54,-356.9 1280.39,-398.83 1297.73,-417.29"/>
<polygon fill="#9a32cd" stroke="#9a32cd" points="1002.62,-229.79 992.16,-231.49 1001.39,-236.69 1002.62,-229.79"/>
<text text-anchor="middle" x="1122.5" y="-294" font-family="Helvetica,sans-Serif" font-size="10.00"> attributes_</text>
<text text-anchor="middle" x="1122.5" y="-283" font-family="Helvetica,sans-Serif" font-size="10.00">networkAttributes_</text>
</g>
<!-- Node23&#45;&gt;Node2 -->
<g id="edge26" class="edge">
<title>Node23&#45;&gt;Node2</title>
<path fill="none" stroke="#9a32cd" stroke-dasharray="5,2" d="M1223.8,-744.02C1066.32,-747.83 729.61,-755.99 608.53,-758.92"/>
<polygon fill="#9a32cd" stroke="#9a32cd" points="1224,-747.51 1233.91,-743.77 1223.83,-740.51 1224,-747.51"/>
<text text-anchor="middle" x="899.5" y="-758" font-family="Helvetica,sans-Serif" font-size="10.00"> eventHandlers_</text>
</g>
<!-- Node24 -->
<g id="node19" class="node">
<title>Node24</title>
<g id="a_node19"><a xlink:href="class_urho3_d_1_1_lua_script_event_listener.html" target="_top" xlink:title="Lua script event listener.">
<polygon fill="none" stroke="black" points="1222.5,-875.5 1222.5,-894.5 1393.5,-894.5 1393.5,-875.5 1222.5,-875.5"/>
<text text-anchor="middle" x="1308" y="-882.5" font-family="Helvetica,sans-Serif" font-size="10.00">Urho3D::LuaScriptEventListener</text>
</a>
</g>
</g>
<!-- Node24&#45;&gt;Node1 -->
<g id="edge28" class="edge">
<title>Node24&#45;&gt;Node1</title>
<path fill="none" stroke="midnightblue" d="M1374.66,-873.56C1409.31,-866.84 1452.35,-857.43 1490,-846 1506.13,-841.11 1523.82,-834.15 1537.25,-828.53"/>
<polygon fill="midnightblue" stroke="midnightblue" points="1373.82,-870.16 1364.66,-875.47 1375.13,-877.03 1373.82,-870.16"/>
</g>
<!-- Node25 -->
<g id="node20" class="node">
<title>Node25</title>
<g id="a_node20"><a xlink:href="class_urho3_d_1_1_shared_ptr.html" target="_top" xlink:title=" ">
<polygon fill="none" stroke="black" points="1217,-826 1217,-856 1399,-856 1399,-826 1217,-826"/>
<text text-anchor="start" x="1225" y="-844" font-family="Helvetica,sans-Serif" font-size="10.00">Urho3D::SharedPtr&lt;</text>
<text text-anchor="middle" x="1308" y="-833" font-family="Helvetica,sans-Serif" font-size="10.00"> Urho3D::LuaScriptEventInvoker &gt;</text>
</a>
</g>
</g>
<!-- Node25&#45;&gt;Node1 -->
<g id="edge29" class="edge">
<title>Node25&#45;&gt;Node1</title>
<path fill="none" stroke="#9a32cd" stroke-dasharray="5,2" d="M1409.62,-832.15C1443.33,-829.18 1479.49,-826 1507.79,-823.51"/>
<polygon fill="#9a32cd" stroke="#9a32cd" points="1408.91,-828.69 1399.26,-833.06 1409.52,-835.67 1408.91,-828.69"/>
<text text-anchor="middle" x="1453.5" y="-834" font-family="Helvetica,sans-Serif" font-size="10.00"> eventInvoker_</text>
</g>
<!-- Node26&#45;&gt;Node25 -->
<g id="edge30" class="edge">
<title>Node26&#45;&gt;Node25</title>
<path fill="none" stroke="#9a32cd" stroke-dasharray="5,2" d="M993.87,-841C1060.84,-841 1150.57,-841 1216.81,-841"/>
<polygon fill="#9a32cd" stroke="#9a32cd" points="993.74,-837.5 983.74,-841 993.74,-844.5 993.74,-837.5"/>
<text text-anchor="middle" x="1122.5" y="-844" font-family="Helvetica,sans-Serif" font-size="10.00"> ptr_</text>
</g>
<!-- Node27&#45;&gt;Node26 -->
<g id="edge32" class="edge">
<title>Node27&#45;&gt;Node26</title>
<path fill="none" stroke="#9a32cd" stroke-dasharray="5,2" d="M501.45,-838.52C589.45,-839.07 727.29,-839.93 815.23,-840.48"/>
<polygon fill="#9a32cd" stroke="#9a32cd" points="501.26,-835.02 491.24,-838.46 501.22,-842.02 501.26,-835.02"/>
<text text-anchor="middle" x="563" y="-842" font-family="Helvetica,sans-Serif" font-size="10.00"> instance_</text>
</g>
<!-- Node106&#45;&gt;Node1 -->
<g id="edge34" class="edge">
<title>Node106&#45;&gt;Node1</title>
<path fill="none" stroke="#9a32cd" stroke-dasharray="5,2" d="M1197.51,-135.94C1198.01,-136.29 1198.51,-136.64 1199,-137 1316.86,-222.8 1327.95,-269.7 1399,-397 1485.3,-551.63 1543.92,-762.13 1556.48,-809.34"/>
<polygon fill="#9a32cd" stroke="#9a32cd" points="1199.33,-132.95 1188.99,-130.64 1195.63,-138.89 1199.33,-132.95"/>
<text text-anchor="middle" x="1308" y="-400" font-family="Helvetica,sans-Serif" font-size="10.00"> functionNameToFunctionMap_</text>
</g>
<!-- Node105&#45;&gt;Node1 -->
<g id="edge36" class="edge">
<title>Node105&#45;&gt;Node1</title>
<path fill="none" stroke="#9a32cd" stroke-dasharray="5,2" d="M763.12,-906.5C889.73,-922.22 1169.29,-947.79 1399,-904 1441.73,-895.86 1451.77,-888.74 1490,-868 1511.44,-856.37 1534.09,-839.22 1547.36,-828.6"/>
<polygon fill="#9a32cd" stroke="#9a32cd" points="763.54,-903.02 753.18,-905.25 762.66,-909.97 763.54,-903.02"/>
<text text-anchor="middle" x="1122.5" y="-931" font-family="Helvetica,sans-Serif" font-size="10.00"> coroutineUpdate_</text>
</g>
<!-- Node107&#45;&gt;Node1 -->
<g id="edge38" class="edge">
<title>Node107&#45;&gt;Node1</title>
<path fill="none" stroke="#9a32cd" stroke-dasharray="5,2" d="M1208.59,-36.84C1269.56,-52.42 1349.35,-82.15 1399,-137 1495.31,-243.39 1550.03,-733.22 1557.99,-809.11"/>
<polygon fill="#9a32cd" stroke="#9a32cd" points="1209.14,-33.37 1198.6,-34.36 1207.46,-40.16 1209.14,-33.37"/>
<text text-anchor="middle" x="1308" y="-140" font-family="Helvetica,sans-Serif" font-size="10.00"> functionPointerToFunctionMap_</text>
</g>
</g>
</svg>
