<?xml version="1.0" encoding="UTF-8" standalone="no"?>
<!DOCTYPE svg PUBLIC "-//W3C//DTD SVG 1.1//EN"
 "http://www.w3.org/Graphics/SVG/1.1/DTD/svg11.dtd">
<!-- Generated by graphviz version 2.36.0 (20140111.2315)
 -->
<!-- Title: Urho3D::IKSolver::ApplySceneToOriginalPose Pages: 1 -->
<svg width="704pt" height="38pt"
 viewBox="0.00 0.00 704.00 38.00" xmlns="http://www.w3.org/2000/svg" xmlns:xlink="http://www.w3.org/1999/xlink">
<g id="graph0" class="graph" transform="scale(1 1) rotate(0) translate(4 34)">
<title>Urho3D::IKSolver::ApplySceneToOriginalPose</title>
<!-- Node1 -->
<g id="node1" class="node"><title>Node1</title>
<polygon fill="#bfbfbf" stroke="black" points="0,-0 0,-30 152,-30 152,-0 0,-0"/>
<text text-anchor="start" x="8" y="-18" font-family="Helvetica,sans-Serif" font-size="10.00">Urho3D::IKSolver::ApplyScene</text>
<text text-anchor="middle" x="76" y="-7" font-family="Helvetica,sans-Serif" font-size="10.00">ToOriginalPose</text>
</g>
<!-- Node2 -->
<g id="node2" class="node"><title>Node2</title>
<g id="a_node2"><a xlink:href="class_urho3_d_1_1_i_k_solver.html#ad37fe0e1e1a31fff36b3f3f923853373" target="_top" xlink:title="Invokes the solver. The solution is applied back to the scene graph automatically. ">
<polygon fill="none" stroke="black" points="188.5,-5.5 188.5,-24.5 313.5,-24.5 313.5,-5.5 188.5,-5.5"/>
<text text-anchor="middle" x="251" y="-12.5" font-family="Helvetica,sans-Serif" font-size="10.00">Urho3D::IKSolver::Solve</text>
</a>
</g>
</g>
<!-- Node1&#45;&gt;Node2 -->
<g id="edge1" class="edge"><title>Node1&#45;&gt;Node2</title>
<path fill="none" stroke="midnightblue" d="M162.409,-15C171.193,-15 179.992,-15 188.444,-15"/>
<polygon fill="midnightblue" stroke="midnightblue" points="162.126,-11.5001 152.126,-15 162.126,-18.5001 162.126,-11.5001"/>
</g>
<!-- Node3 -->
<g id="node3" class="node"><title>Node3</title>
<g id="a_node3"><a xlink:href="class_urho3_d_1_1_i_k_solver.html#a33f6db3304063adb8c43f713c5be3b7a" target="_top" xlink:title="Invokes the IK solver. ">
<polygon fill="none" stroke="black" points="350,-0 350,-30 504,-30 504,-0 350,-0"/>
<text text-anchor="start" x="358" y="-18" font-family="Helvetica,sans-Serif" font-size="10.00">Urho3D::IKSolver::Handle</text>
<text text-anchor="middle" x="427" y="-7" font-family="Helvetica,sans-Serif" font-size="10.00">SceneDrawableUpdateFinished</text>
</a>
</g>
</g>
<!-- Node2&#45;&gt;Node3 -->
<g id="edge2" class="edge"><title>Node2&#45;&gt;Node3</title>
<path fill="none" stroke="midnightblue" d="M324.058,-15C332.536,-15 341.209,-15 349.742,-15"/>
<polygon fill="midnightblue" stroke="midnightblue" points="323.836,-11.5001 313.836,-15 323.836,-18.5001 323.836,-11.5001"/>
</g>
<!-- Node4 -->
<g id="node4" class="node"><title>Node4</title>
<g id="a_node4"><a xlink:href="class_urho3_d_1_1_i_k_solver.html#abc49219593786fcc85bf7f1037e7bba2" target="_top" xlink:title="Subscribe to drawable update finished event here. ">
<polygon fill="none" stroke="black" points="540.5,-5.5 540.5,-24.5 695.5,-24.5 695.5,-5.5 540.5,-5.5"/>
<text text-anchor="middle" x="618" y="-12.5" font-family="Helvetica,sans-Serif" font-size="10.00">Urho3D::IKSolver::OnSceneSet</text>
</a>
</g>
</g>
<!-- Node3&#45;&gt;Node4 -->
<g id="edge3" class="edge"><title>Node3&#45;&gt;Node4</title>
<path fill="none" stroke="midnightblue" d="M514.262,-15C523.009,-15 531.85,-15 540.484,-15"/>
<polygon fill="midnightblue" stroke="midnightblue" points="514.057,-11.5001 504.057,-15 514.057,-18.5001 514.057,-11.5001"/>
</g>
</g>
</svg>
