<?xml version="1.0" encoding="UTF-8" standalone="no"?>
<!DOCTYPE svg PUBLIC "-//W3C//DTD SVG 1.1//EN"
 "http://www.w3.org/Graphics/SVG/1.1/DTD/svg11.dtd">
<!-- Generated by graphviz version 2.26.3 (20100126.1600)
 -->
<!-- Title: Urho3D::ConstantBuffer Pages: 1 -->
<!--zoomable 987 -->
<svg id="main" version="1.1" xmlns="http://www.w3.org/2000/svg" xmlns:xlink="http://www.w3.org/1999/xlink" xml:space="preserve" onload="init(evt)">
        <defs>
                <circle id="rim" cx="0" cy="0" r="7"/>
                <circle id="rim2" cx="0" cy="0" r="3.5"/>
                <g id="zoomPlus">
                        <use xlink:href="#rim" fill="#404040">
                                <set attributeName="fill" to="#808080" begin="zoomplus.mouseover" end="zoomplus.mouseout"/>
                        </use>
                        <path d="M-4,0h8M0,-4v8" fill="none" stroke="white" stroke-width="1.5" pointer-events="none"/>
                </g>
                <g id="zoomMin">
                        <use xlink:href="#rim" fill="#404040">
                                <set attributeName="fill" to="#808080" begin="zoomminus.mouseover" end="zoomminus.mouseout"/>
                        </use>
                        <path d="M-4,0h8" fill="none" stroke="white" stroke-width="1.5" pointer-events="none"/>
                </g>
                <g id="dirArrow">
                        <path fill="none" stroke="white" stroke-width="1.5" d="M0,-3.0v7 M-2.5,-0.5L0,-3.0L2.5,-0.5"/>
                </g>
               <g id="resetDef">
                       <use xlink:href="#rim2" fill="#404040">
                               <set attributeName="fill" to="#808080" begin="reset.mouseover" end="reset.mouseout"/>
                       </use>
               </g>
        </defs>

<script type="text/javascript">
var viewWidth = 1626;
var viewHeight = 987;
var sectionId = 'dynsection-1';
</script>
<script xlink:href="svgpan.js"/>
<svg id="graph" class="graph">
<g id="viewport">
<title>Urho3D::ConstantBuffer</title>
<!-- Node1 -->
<g id="node1" class="node"><title>Node1</title>
<polygon fill="#bfbfbf" stroke="black" points="1486.5,-885.119 1486.5,-906.119 1617.5,-906.119 1617.5,-885.119 1486.5,-885.119"/>
<text text-anchor="middle" x="1552" y="-893.119" font-family="FreeSans" font-size="10.00">Urho3D::ConstantBuffer</text>
</g>
<!-- Node2 -->
<g id="node2" class="node"><title>Node2</title>
<a xlink:href="class_urho3_d_1_1_object.html" target="_top" xlink:title="Base class for objects with type identification, subsystem access and event sending/receiving capabil...">
<polygon fill="none" stroke="black" points="493,-782.119 493,-803.119 583,-803.119 583,-782.119 493,-782.119"/>
<text text-anchor="middle" x="538" y="-790.119" font-family="FreeSans" font-size="10.00">Urho3D::Object</text>
</a>
</g>
<!-- Node2&#45;&gt;Node1 -->
<g id="edge2" class="edge"><title>Node2&#45;&gt;Node1</title>
<path fill="none" stroke="midnightblue" d="M593.42,-805.296C650.98,-817.339 743.807,-833.619 825,-833.619 825,-833.619 825,-833.619 1392,-833.619 1448.3,-833.619 1508.68,-867.412 1536.43,-885.101"/>
<polygon fill="midnightblue" stroke="midnightblue" points="593.953,-801.831 583.444,-803.177 592.499,-808.678 593.953,-801.831"/>
</g>
<!-- Node11 -->
<g id="node22" class="node"><title>Node11</title>
<a xlink:href="class_urho3_d_1_1_event_handler.html" target="_top" xlink:title="Internal helper class for invoking event handler functions.">
<polygon fill="none" stroke="black" points="763,-686.119 763,-707.119 887,-707.119 887,-686.119 763,-686.119"/>
<text text-anchor="middle" x="825" y="-694.119" font-family="FreeSans" font-size="10.00">Urho3D::EventHandler</text>
</a>
</g>
<!-- Node2&#45;&gt;Node11 -->
<g id="edge30" class="edge"><title>Node2&#45;&gt;Node11</title>
<path fill="none" stroke="#9a32cd" stroke-dasharray="5,2" d="M561.295,-775.765C574.817,-765.229 591.579,-750.81 604,-735.619 614.329,-722.986 608.058,-712.098 622,-703.619 669.453,-674.757 735.355,-678.759 779.043,-686.112"/>
<polygon fill="#9a32cd" stroke="#9a32cd" points="558.803,-773.262 552.954,-782.096 563.035,-778.838 558.803,-773.262"/>
<text text-anchor="middle" x="651" y="-720.619" font-family="FreeSans" font-size="10.00"> sender_</text>
<text text-anchor="middle" x="651" y="-707.619" font-family="FreeSans" font-size="10.00">receiver_</text>
</g>
<!-- Node23 -->
<g id="node56" class="node"><title>Node23</title>
<a xlink:href="class_urho3_d_1_1_graphics.html" target="_top" xlink:title="Graphics subsystem. Manages the application window, rendering state and GPU resources.">
<polygon fill="none" stroke="red" points="774.5,-866.119 774.5,-887.119 875.5,-887.119 875.5,-866.119 774.5,-866.119"/>
<text text-anchor="middle" x="825" y="-874.119" font-family="FreeSans" font-size="10.00">Urho3D::Graphics</text>
</a>
</g>
<!-- Node2&#45;&gt;Node23 -->
<g id="edge70" class="edge"><title>Node2&#45;&gt;Node23</title>
<path fill="none" stroke="midnightblue" d="M558.586,-809.827C574.78,-822.399 598.469,-838.74 622,-847.619 671.63,-866.345 732.256,-873.097 774.265,-875.469"/>
<polygon fill="midnightblue" stroke="midnightblue" points="560.408,-806.804 550.408,-803.302 556.042,-812.275 560.408,-806.804"/>
</g>
<!-- Node3 -->
<g id="node4" class="node"><title>Node3</title>
<a xlink:href="class_urho3_d_1_1_ref_counted.html" target="_top" xlink:title="Base class for intrusively reference&#45;counted objects. These are noncopyable and non&#45;assignable.">
<polygon fill="none" stroke="black" points="188,-782.119 188,-803.119 302,-803.119 302,-782.119 188,-782.119"/>
<text text-anchor="middle" x="245" y="-790.119" font-family="FreeSans" font-size="10.00">Urho3D::RefCounted</text>
</a>
</g>
<!-- Node3&#45;&gt;Node2 -->
<g id="edge4" class="edge"><title>Node3&#45;&gt;Node2</title>
<path fill="none" stroke="midnightblue" d="M312.272,-792.619C367.681,-792.619 444.716,-792.619 492.942,-792.619"/>
<polygon fill="midnightblue" stroke="midnightblue" points="312.189,-789.119 302.189,-792.619 312.189,-796.119 312.189,-789.119"/>
</g>
<!-- Node5 -->
<g id="node8" class="node"><title>Node5</title>
<a xlink:href="class_urho3_d_1_1_context.html" target="_top" xlink:title="Urho3D execution context. Provides access to subsystems, object factories and attributes, and event receivers.">
<polygon fill="none" stroke="black" points="1128.5,-413.119 1128.5,-434.119 1225.5,-434.119 1225.5,-413.119 1128.5,-413.119"/>
<text text-anchor="middle" x="1177" y="-421.119" font-family="FreeSans" font-size="10.00">Urho3D::Context</text>
</a>
</g>
<!-- Node3&#45;&gt;Node5 -->
<g id="edge10" class="edge"><title>Node3&#45;&gt;Node5</title>
<path fill="none" stroke="midnightblue" d="M249.217,-772.118C270.407,-671.094 368.347,-227.557 472,-139.619 680.1,36.9317 887.085,53.2188 1086,-133.619 1129.08,-174.08 1166.44,-365.765 1175.11,-413.054"/>
<polygon fill="midnightblue" stroke="midnightblue" points="245.771,-771.496 247.161,-781.999 252.625,-772.922 245.771,-771.496"/>
</g>
<!-- Node4 -->
<g id="node6" class="node"><title>Node4</title>
<a xlink:href="struct_urho3_d_1_1_ref_count.html" target="_top" xlink:title="Reference count structure.">
<polygon fill="none" stroke="black" points="0,-908.119 0,-929.119 102,-929.119 102,-908.119 0,-908.119"/>
<text text-anchor="middle" x="51" y="-916.119" font-family="FreeSans" font-size="10.00">Urho3D::RefCount</text>
</a>
</g>
<!-- Node4&#45;&gt;Node3 -->
<g id="edge6" class="edge"><title>Node4&#45;&gt;Node3</title>
<path fill="none" stroke="#9a32cd" stroke-dasharray="5,2" d="M75.6427,-902.614C115.896,-876.47 194.674,-825.305 228.703,-803.203"/>
<polygon fill="#9a32cd" stroke="#9a32cd" points="73.6867,-899.711 67.2067,-908.093 77.4995,-905.581 73.6867,-899.711"/>
<text text-anchor="middle" x="145" y="-873.619" font-family="FreeSans" font-size="10.00"> refCount_</text>
</g>
<!-- Node22 -->
<g id="node54" class="node"><title>Node22</title>
<a xlink:href="class_urho3_d_1_1_weak_ptr.html" target="_top" xlink:title="Urho3D::WeakPtr\&lt; Urho3D\l::Graphics \&gt;">
<polygon fill="none" stroke="black" points="1104,-901.619 1104,-935.619 1250,-935.619 1250,-901.619 1104,-901.619"/>
<text text-anchor="start" x="1112" y="-922.619" font-family="FreeSans" font-size="10.00">Urho3D::WeakPtr&lt; Urho3D</text>
<text text-anchor="middle" x="1177" y="-909.619" font-family="FreeSans" font-size="10.00">::Graphics &gt;</text>
</a>
</g>
<!-- Node4&#45;&gt;Node22 -->
<g id="edge72" class="edge"><title>Node4&#45;&gt;Node22</title>
<path fill="none" stroke="#9a32cd" stroke-dasharray="5,2" d="M112.488,-918.619C150.637,-918.619 200.668,-918.619 245,-918.619 245,-918.619 245,-918.619 825,-918.619 921.403,-918.619 1032.66,-918.619 1103.85,-918.619"/>
<polygon fill="#9a32cd" stroke="#9a32cd" points="112.058,-915.119 102.058,-918.619 112.058,-922.119 112.058,-915.119"/>
<text text-anchor="middle" x="538" y="-922.619" font-family="FreeSans" font-size="10.00"> refCount_</text>
</g>
<!-- Node25 -->
<g id="node62" class="node"><title>Node25</title>
<a xlink:href="class_urho3_d_1_1_shared_array_ptr.html" target="_top" xlink:title="Urho3D::SharedArrayPtr\l\&lt; unsigned char \&gt;">
<polygon fill="none" stroke="black" points="320.5,-944.619 320.5,-978.619 453.5,-978.619 453.5,-944.619 320.5,-944.619"/>
<text text-anchor="start" x="328.5" y="-965.619" font-family="FreeSans" font-size="10.00">Urho3D::SharedArrayPtr</text>
<text text-anchor="middle" x="387" y="-952.619" font-family="FreeSans" font-size="10.00">&lt; unsigned char &gt;</text>
</a>
</g>
<!-- Node4&#45;&gt;Node25 -->
<g id="edge78" class="edge"><title>Node4&#45;&gt;Node25</title>
<path fill="none" stroke="#9a32cd" stroke-dasharray="5,2" d="M110.031,-930.968C113.398,-931.556 116.739,-932.112 120,-932.619 187.959,-943.181 266.243,-951.199 320.393,-956.098"/>
<polygon fill="#9a32cd" stroke="#9a32cd" points="110.368,-927.471 99.9022,-929.119 109.111,-934.358 110.368,-927.471"/>
<text text-anchor="middle" x="145" y="-942.619" font-family="FreeSans" font-size="10.00"> refCount_</text>
</g>
<!-- Node5&#45;&gt;Node2 -->
<g id="edge8" class="edge"><title>Node5&#45;&gt;Node2</title>
<path fill="none" stroke="#9a32cd" stroke-dasharray="5,2" d="M1173.92,-444.569C1164.21,-507.581 1132.09,-693.264 1086,-729.619 1052.1,-756.358 740.654,-743.937 698,-750.619 653.029,-757.663 602.411,-772.085 570.378,-782.048"/>
<polygon fill="#9a32cd" stroke="#9a32cd" points="1177.44,-444.705 1175.47,-434.294 1170.52,-443.66 1177.44,-444.705"/>
<text text-anchor="middle" x="825" y="-754.619" font-family="FreeSans" font-size="10.00"> context_</text>
</g>
<!-- Node6 -->
<g id="node11" class="node"><title>Node6</title>
<a xlink:href="class_urho3_d_1_1_hash_map.html" target="_top" xlink:title="Urho3D::HashMap\&lt; Urho3D\l::Object *, Urho3D::HashMap\l\&lt; Urho3D::StringHash, Urho3D\l::SharedPtr\&lt; Urho3D::EventReceiverGroup \&gt; \&gt; \&gt;">
<polygon fill="none" stroke="black" points="698,-291.619 698,-351.619 952,-351.619 952,-291.619 698,-291.619"/>
<text text-anchor="start" x="706" y="-338.619" font-family="FreeSans" font-size="10.00">Urho3D::HashMap&lt; Urho3D</text>
<text text-anchor="start" x="706" y="-325.619" font-family="FreeSans" font-size="10.00">::Object *, Urho3D::HashMap</text>
<text text-anchor="start" x="706" y="-312.619" font-family="FreeSans" font-size="10.00">&lt; Urho3D::StringHash, Urho3D</text>
<text text-anchor="middle" x="825" y="-299.619" font-family="FreeSans" font-size="10.00">::SharedPtr&lt; Urho3D::EventReceiverGroup &gt; &gt; &gt;</text>
</a>
</g>
<!-- Node6&#45;&gt;Node5 -->
<g id="edge12" class="edge"><title>Node6&#45;&gt;Node5</title>
<path fill="none" stroke="#9a32cd" stroke-dasharray="5,2" d="M962.211,-350.168C1002.49,-359.774 1046.36,-371.444 1086,-384.619 1110.3,-392.696 1137.14,-404.582 1155.33,-413.108"/>
<polygon fill="#9a32cd" stroke="#9a32cd" points="962.862,-346.726 952.325,-347.835 961.254,-353.539 962.862,-346.726"/>
<text text-anchor="middle" x="1028" y="-388.619" font-family="FreeSans" font-size="10.00"> specificEventReceivers_</text>
</g>
<!-- Node7 -->
<g id="node13" class="node"><title>Node7</title>
<a xlink:href="class_urho3_d_1_1_hash_base.html" target="_top" xlink:title="Hash set/map base class.">
<polygon fill="none" stroke="red" points="484,-435.119 484,-456.119 592,-456.119 592,-435.119 484,-435.119"/>
<text text-anchor="middle" x="538" y="-443.119" font-family="FreeSans" font-size="10.00">Urho3D::HashBase</text>
</a>
</g>
<!-- Node7&#45;&gt;Node6 -->
<g id="edge14" class="edge"><title>Node7&#45;&gt;Node6</title>
<path fill="none" stroke="midnightblue" d="M564.105,-429.753C595.176,-411.346 649.025,-380.93 698,-360.619 705.457,-357.526 713.249,-354.55 721.144,-351.717"/>
<polygon fill="midnightblue" stroke="midnightblue" points="562.016,-426.924 555.225,-435.056 565.605,-432.934 562.016,-426.924"/>
</g>
<!-- Node8 -->
<g id="node15" class="node"><title>Node8</title>
<a xlink:href="class_urho3_d_1_1_hash_map.html" target="_top" xlink:title="Urho3D::HashMap\&lt; Urho3D\l::StringHash, Urho3D::\lSharedPtr\&lt; Urho3D::EventReceiver\lGroup \&gt; \&gt;">
<polygon fill="none" stroke="black" points="732.5,-213.619 732.5,-273.619 917.5,-273.619 917.5,-213.619 732.5,-213.619"/>
<text text-anchor="start" x="740.5" y="-260.619" font-family="FreeSans" font-size="10.00">Urho3D::HashMap&lt; Urho3D</text>
<text text-anchor="start" x="740.5" y="-247.619" font-family="FreeSans" font-size="10.00">::StringHash, Urho3D::</text>
<text text-anchor="start" x="740.5" y="-234.619" font-family="FreeSans" font-size="10.00">SharedPtr&lt; Urho3D::EventReceiver</text>
<text text-anchor="middle" x="825" y="-221.619" font-family="FreeSans" font-size="10.00">Group &gt; &gt;</text>
</a>
</g>
<!-- Node7&#45;&gt;Node8 -->
<g id="edge18" class="edge"><title>Node7&#45;&gt;Node8</title>
<path fill="none" stroke="midnightblue" d="M551.215,-427.007C576.11,-393.289 633.307,-321.955 698,-282.619 708.642,-276.148 720.445,-270.671 732.446,-266.058"/>
<polygon fill="midnightblue" stroke="midnightblue" points="548.384,-424.95 545.333,-435.096 554.045,-429.067 548.384,-424.95"/>
</g>
<!-- Node14 -->
<g id="node31" class="node"><title>Node14</title>
<a xlink:href="class_urho3_d_1_1_hash_map.html" target="_top" xlink:title="Urho3D::HashMap\&lt; StringHash,\l Variant \&gt;">
<polygon fill="none" stroke="black" points="739,-369.619 739,-403.619 911,-403.619 911,-369.619 739,-369.619"/>
<text text-anchor="start" x="747" y="-390.619" font-family="FreeSans" font-size="10.00">Urho3D::HashMap&lt; StringHash,</text>
<text text-anchor="middle" x="825" y="-377.619" font-family="FreeSans" font-size="10.00"> Variant &gt;</text>
</a>
</g>
<!-- Node7&#45;&gt;Node14 -->
<g id="edge38" class="edge"><title>Node7&#45;&gt;Node14</title>
<path fill="none" stroke="midnightblue" d="M599.009,-433.014C628.851,-426.854 665.302,-419.338 698,-412.619 712.109,-409.719 727.101,-406.645 741.653,-403.664"/>
<polygon fill="midnightblue" stroke="midnightblue" points="598.243,-429.598 589.157,-435.048 599.658,-436.453 598.243,-429.598"/>
</g>
<!-- Node15 -->
<g id="node34" class="node"><title>Node15</title>
<a xlink:href="class_urho3_d_1_1_hash_map.html" target="_top" xlink:title="Urho3D::HashMap\&lt; Urho3D\l::StringHash, Urho3D::\lSharedPtr\&lt; Urho3D::Object \&gt; \&gt;">
<polygon fill="none" stroke="black" points="739,-620.119 739,-667.119 911,-667.119 911,-620.119 739,-620.119"/>
<text text-anchor="start" x="747" y="-654.119" font-family="FreeSans" font-size="10.00">Urho3D::HashMap&lt; Urho3D</text>
<text text-anchor="start" x="747" y="-641.119" font-family="FreeSans" font-size="10.00">::StringHash, Urho3D::</text>
<text text-anchor="middle" x="825" y="-628.119" font-family="FreeSans" font-size="10.00">SharedPtr&lt; Urho3D::Object &gt; &gt;</text>
</a>
</g>
<!-- Node7&#45;&gt;Node15 -->
<g id="edge42" class="edge"><title>Node7&#45;&gt;Node15</title>
<path fill="none" stroke="midnightblue" d="M550.913,-464.884C575.318,-499.706 631.75,-572.994 698,-610.619 710.579,-617.762 724.731,-623.393 738.903,-627.821"/>
<polygon fill="midnightblue" stroke="midnightblue" points="553.709,-462.772 545.154,-456.523 547.945,-466.744 553.709,-462.772"/>
</g>
<!-- Node17 -->
<g id="node40" class="node"><title>Node17</title>
<a xlink:href="class_urho3_d_1_1_hash_map.html" target="_top" xlink:title="Urho3D::HashMap\&lt; Urho3D\l::StringHash, Urho3D::\lSharedPtr\&lt; Urho3D::ObjectFactory \&gt; \&gt;">
<polygon fill="none" stroke="black" points="722,-488.119 722,-535.119 928,-535.119 928,-488.119 722,-488.119"/>
<text text-anchor="start" x="730" y="-522.119" font-family="FreeSans" font-size="10.00">Urho3D::HashMap&lt; Urho3D</text>
<text text-anchor="start" x="730" y="-509.119" font-family="FreeSans" font-size="10.00">::StringHash, Urho3D::</text>
<text text-anchor="middle" x="825" y="-496.119" font-family="FreeSans" font-size="10.00">SharedPtr&lt; Urho3D::ObjectFactory &gt; &gt;</text>
</a>
</g>
<!-- Node7&#45;&gt;Node17 -->
<g id="edge50" class="edge"><title>Node7&#45;&gt;Node17</title>
<path fill="none" stroke="midnightblue" d="M593.758,-458.441C630.299,-466.844 679.158,-478.08 722.549,-488.059"/>
<polygon fill="midnightblue" stroke="midnightblue" points="594.323,-454.98 583.793,-456.15 592.755,-461.802 594.323,-454.98"/>
</g>
<!-- Node18 -->
<g id="node43" class="node"><title>Node18</title>
<a xlink:href="class_urho3_d_1_1_hash_map.html" target="_top" xlink:title="Urho3D::HashMap\&lt; Urho3D\l::String, Urho3D::Vector\l\&lt; Urho3D::StringHash \&gt; \&gt;">
<polygon fill="none" stroke="black" points="749,-422.119 749,-469.119 901,-469.119 901,-422.119 749,-422.119"/>
<text text-anchor="start" x="757" y="-456.119" font-family="FreeSans" font-size="10.00">Urho3D::HashMap&lt; Urho3D</text>
<text text-anchor="start" x="757" y="-443.119" font-family="FreeSans" font-size="10.00">::String, Urho3D::Vector</text>
<text text-anchor="middle" x="825" y="-430.119" font-family="FreeSans" font-size="10.00">&lt; Urho3D::StringHash &gt; &gt;</text>
</a>
</g>
<!-- Node7&#45;&gt;Node18 -->
<g id="edge54" class="edge"><title>Node7&#45;&gt;Node18</title>
<path fill="none" stroke="midnightblue" d="M602.477,-445.619C645.888,-445.619 703.319,-445.619 748.961,-445.619"/>
<polygon fill="midnightblue" stroke="midnightblue" points="602.32,-442.119 592.32,-445.619 602.32,-449.119 602.32,-442.119"/>
</g>
<!-- Node19 -->
<g id="node46" class="node"><title>Node19</title>
<a xlink:href="class_urho3_d_1_1_hash_map.html" target="_top" xlink:title="Urho3D::HashMap\&lt; Urho3D\l::StringHash, Urho3D::\lVector\&lt; Urho3D::AttributeInfo \&gt; \&gt;">
<polygon fill="none" stroke="black" points="733.5,-554.119 733.5,-601.119 916.5,-601.119 916.5,-554.119 733.5,-554.119"/>
<text text-anchor="start" x="741.5" y="-588.119" font-family="FreeSans" font-size="10.00">Urho3D::HashMap&lt; Urho3D</text>
<text text-anchor="start" x="741.5" y="-575.119" font-family="FreeSans" font-size="10.00">::StringHash, Urho3D::</text>
<text text-anchor="middle" x="825" y="-562.119" font-family="FreeSans" font-size="10.00">Vector&lt; Urho3D::AttributeInfo &gt; &gt;</text>
</a>
</g>
<!-- Node7&#45;&gt;Node19 -->
<g id="edge58" class="edge"><title>Node7&#45;&gt;Node19</title>
<path fill="none" stroke="midnightblue" d="M560.18,-462.364C590.032,-484.171 645.47,-522.151 698,-544.619 709.206,-549.411 721.275,-553.642 733.356,-557.337"/>
<polygon fill="midnightblue" stroke="midnightblue" points="561.892,-459.277 551.769,-456.15 557.733,-464.907 561.892,-459.277"/>
</g>
<!-- Node8&#45;&gt;Node5 -->
<g id="edge16" class="edge"><title>Node8&#45;&gt;Node5</title>
<path fill="none" stroke="#9a32cd" stroke-dasharray="5,2" d="M927.225,-268.145C977.573,-283.102 1037.68,-305.442 1086,-336.619 1120.34,-358.778 1153.07,-394.986 1168.22,-412.894"/>
<polygon fill="#9a32cd" stroke="#9a32cd" points="928.198,-264.783 917.618,-265.345 926.239,-271.504 928.198,-264.783"/>
<text text-anchor="middle" x="1028" y="-340.619" font-family="FreeSans" font-size="10.00"> eventReceivers_</text>
</g>
<!-- Node9 -->
<g id="node18" class="node"><title>Node9</title>
<a xlink:href="class_urho3_d_1_1_p_o_d_vector.html" target="_top" xlink:title="Urho3D::PODVector\&lt;\l Urho3D::Object * \&gt;">
<polygon fill="none" stroke="black" points="765.5,-161.619 765.5,-195.619 884.5,-195.619 884.5,-161.619 765.5,-161.619"/>
<text text-anchor="start" x="773.5" y="-182.619" font-family="FreeSans" font-size="10.00">Urho3D::PODVector&lt;</text>
<text text-anchor="middle" x="825" y="-169.619" font-family="FreeSans" font-size="10.00"> Urho3D::Object * &gt;</text>
</a>
</g>
<!-- Node9&#45;&gt;Node5 -->
<g id="edge20" class="edge"><title>Node9&#45;&gt;Node5</title>
<path fill="none" stroke="#9a32cd" stroke-dasharray="5,2" d="M894.653,-186.184C952.24,-195.777 1032.9,-217.356 1086,-265.619 1134.25,-309.478 1163.77,-385.06 1173.46,-412.911"/>
<polygon fill="#9a32cd" stroke="#9a32cd" points="894.965,-182.69 884.54,-184.583 893.87,-189.604 894.965,-182.69"/>
<text text-anchor="middle" x="1028" y="-269.619" font-family="FreeSans" font-size="10.00"> eventSenders_</text>
</g>
<!-- Node10 -->
<g id="node20" class="node"><title>Node10</title>
<a xlink:href="class_urho3_d_1_1_vector_base.html" target="_top" xlink:title="Vector base class.">
<polygon fill="none" stroke="black" points="481,-149.119 481,-170.119 595,-170.119 595,-149.119 481,-149.119"/>
<text text-anchor="middle" x="538" y="-157.119" font-family="FreeSans" font-size="10.00">Urho3D::VectorBase</text>
</a>
</g>
<!-- Node10&#45;&gt;Node9 -->
<g id="edge22" class="edge"><title>Node10&#45;&gt;Node9</title>
<path fill="none" stroke="midnightblue" d="M605.121,-164.062C653.565,-167.269 718.399,-171.561 765.097,-174.653"/>
<polygon fill="midnightblue" stroke="midnightblue" points="605.254,-160.563 595.045,-163.395 604.792,-167.548 605.254,-160.563"/>
</g>
<!-- Node16 -->
<g id="node37" class="node"><title>Node16</title>
<a xlink:href="class_urho3_d_1_1_p_o_d_vector.html" target="_top" xlink:title="Urho3D::PODVector\&lt;\l Urho3D::HashMap * \&gt;">
<polygon fill="none" stroke="black" points="761.5,-109.619 761.5,-143.619 888.5,-143.619 888.5,-109.619 761.5,-109.619"/>
<text text-anchor="start" x="769.5" y="-130.619" font-family="FreeSans" font-size="10.00">Urho3D::PODVector&lt;</text>
<text text-anchor="middle" x="825" y="-117.619" font-family="FreeSans" font-size="10.00"> Urho3D::HashMap * &gt;</text>
</a>
</g>
<!-- Node10&#45;&gt;Node16 -->
<g id="edge46" class="edge"><title>Node10&#45;&gt;Node16</title>
<path fill="none" stroke="midnightblue" d="M605.16,-151.896C652.307,-146.475 714.962,-139.271 761.32,-133.941"/>
<polygon fill="midnightblue" stroke="midnightblue" points="604.58,-148.44 595.045,-153.059 605.379,-155.394 604.58,-148.44"/>
</g>
<!-- Node11&#45;&gt;Node5 -->
<g id="edge24" class="edge"><title>Node11&#45;&gt;Node5</title>
<path fill="none" stroke="#9a32cd" stroke-dasharray="5,2" d="M897.373,-699.808C954.935,-698.467 1034.15,-687.432 1086,-642.619 1152.97,-584.734 1171.64,-469.609 1175.9,-434.217"/>
<polygon fill="#9a32cd" stroke="#9a32cd" points="897.2,-696.31 887.25,-699.95 897.298,-703.31 897.2,-696.31"/>
<text text-anchor="middle" x="1028" y="-694.619" font-family="FreeSans" font-size="10.00"> eventHandler_</text>
</g>
<!-- Node20 -->
<g id="node49" class="node"><title>Node20</title>
<a xlink:href="class_urho3_d_1_1_linked_list.html" target="_top" xlink:title="Urho3D::LinkedList\l\&lt; Urho3D::EventHandler \&gt;">
<polygon fill="none" stroke="black" points="1104,-732.619 1104,-766.619 1250,-766.619 1250,-732.619 1104,-732.619"/>
<text text-anchor="start" x="1112" y="-753.619" font-family="FreeSans" font-size="10.00">Urho3D::LinkedList</text>
<text text-anchor="middle" x="1177" y="-740.619" font-family="FreeSans" font-size="10.00">&lt; Urho3D::EventHandler &gt;</text>
</a>
</g>
<!-- Node11&#45;&gt;Node20 -->
<g id="edge62" class="edge"><title>Node11&#45;&gt;Node20</title>
<path fill="none" stroke="#9a32cd" stroke-dasharray="5,2" d="M897.335,-707.51C957.707,-716.6 1043.37,-729.498 1103.94,-738.618"/>
<polygon fill="#9a32cd" stroke="#9a32cd" points="897.53,-704 887.12,-705.972 896.488,-710.922 897.53,-704"/>
<text text-anchor="middle" x="1028" y="-738.619" font-family="FreeSans" font-size="10.00"> head_</text>
</g>
<!-- Node12 -->
<g id="node24" class="node"><title>Node12</title>
<a xlink:href="struct_urho3_d_1_1_linked_list_node.html" target="_top" xlink:title="Singly&#45;linked list node base class.">
<polygon fill="none" stroke="black" points="472,-603.119 472,-624.119 604,-624.119 604,-603.119 472,-603.119"/>
<text text-anchor="middle" x="538" y="-611.119" font-family="FreeSans" font-size="10.00">Urho3D::LinkedListNode</text>
</a>
</g>
<!-- Node12&#45;&gt;Node11 -->
<g id="edge26" class="edge"><title>Node12&#45;&gt;Node11</title>
<path fill="none" stroke="midnightblue" d="M598.424,-626.828C624.64,-634.133 654.995,-644.797 680,-659.619 689.466,-665.229 688.123,-671.768 698,-676.619 717.934,-686.409 741.558,-691.61 762.992,-694.31"/>
<polygon fill="midnightblue" stroke="midnightblue" points="599.165,-623.403 588.6,-624.191 597.351,-630.164 599.165,-623.403"/>
</g>
<!-- Node12&#45;&gt;Node12 -->
<g id="edge28" class="edge"><title>Node12&#45;&gt;Node12</title>
<path fill="none" stroke="#9a32cd" stroke-dasharray="5,2" d="M517.36,-634.045C518.952,-638.968 525.832,-642.619 538,-642.619 557.469,-642.619 563.401,-633.272 555.796,-624.326"/>
<polygon fill="#9a32cd" stroke="#9a32cd" points="520.754,-634.907 520.204,-624.326 514.036,-632.941 520.754,-634.907"/>
<text text-anchor="middle" x="538" y="-646.619" font-family="FreeSans" font-size="10.00"> next_</text>
</g>
<!-- Node13 -->
<g id="node28" class="node"><title>Node13</title>
<a xlink:href="class_urho3_d_1_1_string_hash.html" target="_top" xlink:title="32&#45;bit hash value for a string.">
<polygon fill="none" stroke="black" points="481.5,-674.119 481.5,-695.119 594.5,-695.119 594.5,-674.119 481.5,-674.119"/>
<text text-anchor="middle" x="538" y="-682.119" font-family="FreeSans" font-size="10.00">Urho3D::StringHash</text>
</a>
</g>
<!-- Node13&#45;&gt;Node11 -->
<g id="edge32" class="edge"><title>Node13&#45;&gt;Node11</title>
<path fill="none" stroke="#9a32cd" stroke-dasharray="5,2" d="M591.643,-672.106C601.678,-670.238 612.118,-668.609 622,-667.619 647.649,-665.049 654.912,-661.696 680,-667.619 688.705,-669.674 689.482,-673.891 698,-676.619 718.619,-683.222 741.846,-687.692 762.745,-690.698"/>
<polygon fill="#9a32cd" stroke="#9a32cd" points="590.92,-668.681 581.78,-674.039 592.266,-675.551 590.92,-668.681"/>
<text text-anchor="middle" x="651" y="-671.619" font-family="FreeSans" font-size="10.00"> eventType_</text>
</g>
<!-- Node13&#45;&gt;Node13 -->
<g id="edge34" class="edge"><title>Node13&#45;&gt;Node13</title>
<path fill="none" stroke="#9a32cd" stroke-dasharray="5,2" d="M517.36,-705.045C518.952,-709.968 525.832,-713.619 538,-713.619 557.469,-713.619 563.401,-704.272 555.796,-695.326"/>
<polygon fill="#9a32cd" stroke="#9a32cd" points="520.754,-705.907 520.204,-695.326 514.036,-703.941 520.754,-705.907"/>
<text text-anchor="middle" x="538" y="-717.619" font-family="FreeSans" font-size="10.00"> ZERO</text>
</g>
<!-- Node14&#45;&gt;Node5 -->
<g id="edge36" class="edge"><title>Node14&#45;&gt;Node5</title>
<path fill="none" stroke="#9a32cd" stroke-dasharray="5,2" d="M921.176,-395.712C970.484,-400.498 1031.48,-406.609 1086,-412.619 1099.76,-414.136 1114.68,-415.892 1128.38,-417.55"/>
<polygon fill="#9a32cd" stroke="#9a32cd" points="921.448,-392.222 911.157,-394.743 920.773,-399.19 921.448,-392.222"/>
<text text-anchor="middle" x="1028" y="-416.619" font-family="FreeSans" font-size="10.00"> globalVars_</text>
</g>
<!-- Node15&#45;&gt;Node5 -->
<g id="edge40" class="edge"><title>Node15&#45;&gt;Node5</title>
<path fill="none" stroke="#9a32cd" stroke-dasharray="5,2" d="M921.299,-636.319C974.232,-628.2 1038.58,-611.181 1086,-575.619 1136.69,-537.608 1164.73,-462.347 1173.74,-434.399"/>
<polygon fill="#9a32cd" stroke="#9a32cd" points="920.609,-632.882 911.214,-637.781 921.613,-639.81 920.609,-632.882"/>
<text text-anchor="middle" x="1028" y="-629.619" font-family="FreeSans" font-size="10.00"> subsystems_</text>
</g>
<!-- Node16&#45;&gt;Node5 -->
<g id="edge44" class="edge"><title>Node16&#45;&gt;Node5</title>
<path fill="none" stroke="#9a32cd" stroke-dasharray="5,2" d="M898.809,-126.163C956.466,-129.7 1035.1,-143.635 1086,-189.619 1155.87,-252.732 1172.62,-375.929 1176.15,-412.888"/>
<polygon fill="#9a32cd" stroke="#9a32cd" points="898.83,-122.66 888.661,-125.634 898.465,-129.65 898.83,-122.66"/>
<text text-anchor="middle" x="1028" y="-193.619" font-family="FreeSans" font-size="10.00"> eventDataMaps_</text>
</g>
<!-- Node17&#45;&gt;Node5 -->
<g id="edge48" class="edge"><title>Node17&#45;&gt;Node5</title>
<path fill="none" stroke="#9a32cd" stroke-dasharray="5,2" d="M938.182,-489.042C984.289,-479.177 1037.95,-466.843 1086,-453.619 1106.69,-447.925 1129.64,-440.351 1147.31,-434.239"/>
<polygon fill="#9a32cd" stroke="#9a32cd" points="937.213,-485.67 928.159,-491.173 938.669,-492.516 937.213,-485.67"/>
<text text-anchor="middle" x="1028" y="-486.619" font-family="FreeSans" font-size="10.00"> factories_</text>
</g>
<!-- Node18&#45;&gt;Node5 -->
<g id="edge52" class="edge"><title>Node18&#45;&gt;Node5</title>
<path fill="none" stroke="#9a32cd" stroke-dasharray="5,2" d="M911.688,-440.201C979.935,-435.935 1072.56,-430.146 1128.38,-426.658"/>
<polygon fill="#9a32cd" stroke="#9a32cd" points="911.141,-436.728 901.379,-440.845 911.578,-443.714 911.141,-436.728"/>
<text text-anchor="middle" x="1028" y="-440.619" font-family="FreeSans" font-size="10.00"> objectCategories_</text>
</g>
<!-- Node19&#45;&gt;Node5 -->
<g id="edge56" class="edge"><title>Node19&#45;&gt;Node5</title>
<path fill="none" stroke="#9a32cd" stroke-dasharray="5,2" d="M926.665,-558.204C976.732,-545.967 1036.76,-527.156 1086,-499.619 1118.88,-481.233 1151.25,-450.297 1167.04,-434.149"/>
<polygon fill="#9a32cd" stroke="#9a32cd" points="925.703,-554.836 916.791,-560.565 927.33,-561.644 925.703,-554.836"/>
<text text-anchor="middle" x="1028" y="-562.619" font-family="FreeSans" font-size="10.00"> attributes_</text>
<text text-anchor="middle" x="1028" y="-549.619" font-family="FreeSans" font-size="10.00">networkAttributes_</text>
</g>
<!-- Node20&#45;&gt;Node2 -->
<g id="edge60" class="edge"><title>Node20&#45;&gt;Node2</title>
<path fill="none" stroke="#9a32cd" stroke-dasharray="5,2" d="M1093.78,-757.015C1091.16,-757.223 1088.56,-757.424 1086,-757.619 899.446,-771.774 676.87,-784.795 583.134,-790.102"/>
<polygon fill="#9a32cd" stroke="#9a32cd" points="1094.31,-760.484 1104,-756.191 1093.75,-753.507 1094.31,-760.484"/>
<text text-anchor="middle" x="825" y="-786.619" font-family="FreeSans" font-size="10.00"> eventHandlers_</text>
</g>
<!-- Node21 -->
<g id="node52" class="node"><title>Node21</title>
<a xlink:href="class_urho3_d_1_1_g_p_u_object.html" target="_top" xlink:title="Base class for GPU resources.">
<polygon fill="none" stroke="black" points="1336.5,-885.119 1336.5,-906.119 1447.5,-906.119 1447.5,-885.119 1336.5,-885.119"/>
<text text-anchor="middle" x="1392" y="-893.119" font-family="FreeSans" font-size="10.00">Urho3D::GPUObject</text>
</a>
</g>
<!-- Node21&#45;&gt;Node1 -->
<g id="edge64" class="edge"><title>Node21&#45;&gt;Node1</title>
<path fill="none" stroke="midnightblue" d="M1457.67,-895.619C1467.16,-895.619 1476.92,-895.619 1486.41,-895.619"/>
<polygon fill="midnightblue" stroke="midnightblue" points="1457.51,-892.119 1447.51,-895.619 1457.51,-899.119 1457.51,-892.119"/>
</g>
<!-- Node22&#45;&gt;Node21 -->
<g id="edge66" class="edge"><title>Node22&#45;&gt;Node21</title>
<path fill="none" stroke="#9a32cd" stroke-dasharray="5,2" d="M1260.15,-909.724C1285.71,-906.99 1313.2,-904.048 1336.44,-901.563"/>
<polygon fill="#9a32cd" stroke="#9a32cd" points="1259.66,-906.256 1250.09,-910.8 1260.4,-913.216 1259.66,-906.256"/>
<text text-anchor="middle" x="1293" y="-911.619" font-family="FreeSans" font-size="10.00"> graphics_</text>
</g>
<!-- Node23&#45;&gt;Node22 -->
<g id="edge68" class="edge"><title>Node23&#45;&gt;Node22</title>
<path fill="none" stroke="#9a32cd" stroke-dasharray="5,2" d="M886.203,-876.163C939.389,-876.71 1018.31,-879.795 1086,-891.619 1099.47,-893.972 1113.78,-897.638 1126.95,-901.517"/>
<polygon fill="#9a32cd" stroke="#9a32cd" points="885.946,-872.661 875.92,-876.086 885.894,-879.661 885.946,-872.661"/>
<text text-anchor="middle" x="1028" y="-895.619" font-family="FreeSans" font-size="10.00"> ptr_</text>
</g>
<!-- Node24 -->
<g id="node60" class="node"><title>Node24</title>
<a xlink:href="union_urho3_d_1_1_g_p_u_object_handle.html" target="_top" xlink:title="API&#45;specific GPU object representation.">
<polygon fill="none" stroke="black" points="1104.5,-862.119 1104.5,-883.119 1249.5,-883.119 1249.5,-862.119 1104.5,-862.119"/>
<text text-anchor="middle" x="1177" y="-870.119" font-family="FreeSans" font-size="10.00">Urho3D::GPUObjectHandle</text>
</a>
</g>
<!-- Node24&#45;&gt;Node21 -->
<g id="edge74" class="edge"><title>Node24&#45;&gt;Node21</title>
<path fill="none" stroke="#9a32cd" stroke-dasharray="5,2" d="M1260,-880.552C1279.07,-882.46 1299.24,-884.547 1318,-886.619 1323.92,-887.272 1330.1,-887.981 1336.25,-888.705"/>
<polygon fill="#9a32cd" stroke="#9a32cd" points="1260.15,-877.049 1249.85,-879.543 1259.45,-884.015 1260.15,-877.049"/>
<text text-anchor="middle" x="1293" y="-890.619" font-family="FreeSans" font-size="10.00"> object_</text>
</g>
<!-- Node25&#45;&gt;Node1 -->
<g id="edge76" class="edge"><title>Node25&#45;&gt;Node1</title>
<path fill="none" stroke="#9a32cd" stroke-dasharray="5,2" d="M464,-962.509C516.657,-963.043 588.049,-963.619 651,-963.619 651,-963.619 651,-963.619 1392,-963.619 1449.95,-963.619 1510.98,-925.369 1537.87,-906.244"/>
<polygon fill="#9a32cd" stroke="#9a32cd" points="463.762,-959.007 453.727,-962.403 463.69,-966.006 463.762,-959.007"/>
<text text-anchor="middle" x="1028" y="-967.619" font-family="FreeSans" font-size="10.00"> shadowData_</text>
</g>
</g>
</svg>
        <g id="navigator" transform="translate(0 0)" fill="#404254">
                <rect fill="#f2f5e9" fill-opacity="0.5" stroke="#606060" stroke-width=".5" x="0" y="0" width="60" height="60"/>
                <use id="zoomplus" xlink:href="#zoomPlus" x="17" y="9" onmousedown="handleZoom(evt,'in')"/>
                <use id="zoomminus" xlink:href="#zoomMin" x="42" y="9" onmousedown="handleZoom(evt,'out')"/>
                <use id="reset" xlink:href="#resetDef" x="30" y="36" onmousedown="handleReset()"/>
                <g id="arrowUp" xlink:href="#dirArrow" transform="translate(30 24)" onmousedown="handlePan(0,-1)">
                  <use xlink:href="#rim" fill="#404040">
                        <set attributeName="fill" to="#808080" begin="arrowUp.mouseover" end="arrowUp.mouseout"/>
                  </use>
                  <path fill="none" stroke="white" stroke-width="1.5" d="M0,-3.0v7 M-2.5,-0.5L0,-3.0L2.5,-0.5"/>
                </g>
                <g id="arrowRight" xlink:href="#dirArrow" transform="rotate(90) translate(36 -43)" onmousedown="handlePan(1,0)">
                  <use xlink:href="#rim" fill="#404040">
                        <set attributeName="fill" to="#808080" begin="arrowRight.mouseover" end="arrowRight.mouseout"/>
                  </use>
                  <path fill="none" stroke="white" stroke-width="1.5" d="M0,-3.0v7 M-2.5,-0.5L0,-3.0L2.5,-0.5"/>
                </g>
                <g id="arrowDown" xlink:href="#dirArrow" transform="rotate(180) translate(-30 -48)" onmousedown="handlePan(0,1)">
                  <use xlink:href="#rim" fill="#404040">
                        <set attributeName="fill" to="#808080" begin="arrowDown.mouseover" end="arrowDown.mouseout"/>
                  </use>
                  <path fill="none" stroke="white" stroke-width="1.5" d="M0,-3.0v7 M-2.5,-0.5L0,-3.0L2.5,-0.5"/>
                </g>
                <g id="arrowLeft" xlink:href="#dirArrow" transform="rotate(270) translate(-36 17)" onmousedown="handlePan(-1,0)">
                  <use xlink:href="#rim" fill="#404040">
                        <set attributeName="fill" to="#808080" begin="arrowLeft.mouseover" end="arrowLeft.mouseout"/>
                  </use>
                  <path fill="none" stroke="white" stroke-width="1.5" d="M0,-3.0v7 M-2.5,-0.5L0,-3.0L2.5,-0.5"/>
                </g>
        </g>
        <svg viewBox="0 0 15 15" width="100%" height="30px" preserveAspectRatio="xMaxYMin meet">
         <g id="arrow_out" transform="scale(0.3 0.3)">
          <a xlink:href="class_urho3_d_1_1_constant_buffer__coll__graph_org.svg" target="_base">
           <rect id="button" ry="5" rx="5" y="6" x="6" height="38" width="38"
                fill="#f2f5e9" fill-opacity="0.5" stroke="#606060" stroke-width="1.0"/>
           <path id="arrow"
             d="M 11.500037,31.436501 C 11.940474,20.09759 22.043105,11.32322 32.158766,21.979434 L 37.068811,17.246167 C 37.068811,17.246167 37.088388,32 37.088388,32 L 22.160133,31.978069 C 22.160133,31.978069 26.997745,27.140456 26.997745,27.140456 C 18.528582,18.264221 13.291696,25.230495 11.500037,31.436501 z"
             style="fill:#404040;"/>
          </a>
         </g>
        </svg>
</svg>
