<?xml version="1.0" encoding="UTF-8" standalone="no"?>
<!DOCTYPE svg PUBLIC "-//W3C//DTD SVG 1.1//EN"
 "http://www.w3.org/Graphics/SVG/1.1/DTD/svg11.dtd">
<!-- Generated by graphviz version 2.36.0 (20140111.2315)
 -->
<!-- Title: Urho3D::EventProfiler Pages: 1 -->
<!--zoomable 809 -->
<svg id="main" version="1.1" xmlns="http://www.w3.org/2000/svg" xmlns:xlink="http://www.w3.org/1999/xlink" xml:space="preserve" onload="init(evt)">
<style type="text/css"><![CDATA[
.edge:hover path { stroke: red; }
.edge:hover polygon { stroke: red; fill: red; }
]]></style>
<script type="text/javascript"><![CDATA[
var edges = document.getElementsByTagName('g');
if (edges && edges.length) {
  for (var i=0;i<edges.length;i++) {
    if (edges[i].id.substr(0,4)=='edge') {
      edges[i].setAttribute('class','edge');
    }
  }
}
]]></script>
        <defs>
                <circle id="rim" cx="0" cy="0" r="7"/>
                <circle id="rim2" cx="0" cy="0" r="3.5"/>
                <g id="zoomPlus">
                        <use xlink:href="#rim" fill="#404040">
                                <set attributeName="fill" to="#808080" begin="zoomplus.mouseover" end="zoomplus.mouseout"/>
                        </use>
                        <path d="M-4,0h8M0,-4v8" fill="none" stroke="white" stroke-width="1.5" pointer-events="none"/>
                </g>
                <g id="zoomMin">
                        <use xlink:href="#rim" fill="#404040">
                                <set attributeName="fill" to="#808080" begin="zoomminus.mouseover" end="zoomminus.mouseout"/>
                        </use>
                        <path d="M-4,0h8" fill="none" stroke="white" stroke-width="1.5" pointer-events="none"/>
                </g>
                <g id="dirArrow">
                        <path fill="none" stroke="white" stroke-width="1.5" d="M0,-3.0v7 M-2.5,-0.5L0,-3.0L2.5,-0.5"/>
                </g>
               <g id="resetDef">
                       <use xlink:href="#rim2" fill="#404040">
                               <set attributeName="fill" to="#808080" begin="reset.mouseover" end="reset.mouseout"/>
                       </use>
               </g>
        </defs>

<script type="text/javascript">
var viewWidth = 1500;
var viewHeight = 809;
var sectionId = 'dynsection-1';
</script>
<script xlink:href="svgpan.js"/>
<svg id="graph" class="graph">
<g id="viewport">
<title>Urho3D::EventProfiler</title>
<!-- Node1 -->
<g id="node1" class="node"><title>Node1</title>
<polygon fill="#bfbfbf" stroke="black" points="1372.5,-756.5 1372.5,-775.5 1491.5,-775.5 1491.5,-756.5 1372.5,-756.5"/>
<text text-anchor="middle" x="1432" y="-763.5" font-family="FreeSans" font-size="10.00">Urho3D::EventProfiler</text>
</g>
<!-- Node2 -->
<g id="node2" class="node"><title>Node2</title>
<g id="a_node2"><a xlink:href="class_urho3_d_1_1_profiler.html" target="_top" xlink:title="Hierarchical performance profiler subsystem. ">
<polygon fill="none" stroke="black" points="1242,-756.5 1242,-775.5 1334,-775.5 1334,-756.5 1242,-756.5"/>
<text text-anchor="middle" x="1288" y="-763.5" font-family="FreeSans" font-size="10.00">Urho3D::Profiler</text>
</a>
</g>
</g>
<!-- Node2&#45;&gt;Node1 -->
<g id="edge1" class="edge"><title>Node2&#45;&gt;Node1</title>
<path fill="none" stroke="midnightblue" d="M1344.46,-766C1353.62,-766 1363.13,-766 1372.36,-766"/>
<polygon fill="midnightblue" stroke="midnightblue" points="1344.32,-762.5 1334.32,-766 1344.32,-769.5 1344.32,-762.5"/>
</g>
<!-- Node3 -->
<g id="node3" class="node"><title>Node3</title>
<g id="a_node3"><a xlink:href="class_urho3_d_1_1_object.html" target="_top" xlink:title="Base class for objects with type identification, subsystem access and event sending/receiving capabil...">
<polygon fill="none" stroke="black" points="409,-701.5 409,-720.5 499,-720.5 499,-701.5 409,-701.5"/>
<text text-anchor="middle" x="454" y="-708.5" font-family="FreeSans" font-size="10.00">Urho3D::Object</text>
</a>
</g>
</g>
<!-- Node3&#45;&gt;Node2 -->
<g id="edge2" class="edge"><title>Node3&#45;&gt;Node2</title>
<path fill="none" stroke="midnightblue" d="M485.843,-724.673C517.354,-737.918 568.043,-757.248 614,-766 855.144,-811.925 921.265,-804.098 1166,-785 1191.23,-783.031 1219.15,-778.787 1241.8,-774.809"/>
<polygon fill="midnightblue" stroke="midnightblue" points="486.887,-721.313 476.316,-720.607 484.14,-727.751 486.887,-721.313"/>
</g>
<!-- Node13 -->
<g id="node13" class="node"><title>Node13</title>
<g id="a_node13"><a xlink:href="class_urho3_d_1_1_event_handler.html" target="_top" xlink:title="Internal helper class for invoking event handler functions. ">
<polygon fill="none" stroke="black" points="679,-617.5 679,-636.5 803,-636.5 803,-617.5 679,-617.5"/>
<text text-anchor="middle" x="741" y="-624.5" font-family="FreeSans" font-size="10.00">Urho3D::EventHandler</text>
</a>
</g>
</g>
<!-- Node3&#45;&gt;Node13 -->
<g id="edge18" class="edge"><title>Node3&#45;&gt;Node13</title>
<path fill="none" stroke="#9a32cd" stroke-dasharray="5,2" d="M508.216,-700.397C512.523,-698.116 516.54,-695.351 520,-692 538.475,-674.105 517.556,-652.606 538,-637 559.386,-620.675 627.556,-620.312 678.834,-622.65"/>
<polygon fill="#9a32cd" stroke="#9a32cd" points="506.794,-697.199 499.052,-704.432 509.614,-703.606 506.794,-697.199"/>
<text text-anchor="middle" x="567" y="-651" font-family="FreeSans" font-size="10.00"> sender_</text>
<text text-anchor="middle" x="567" y="-640" font-family="FreeSans" font-size="10.00">receiver_</text>
</g>
<!-- Node4 -->
<g id="node4" class="node"><title>Node4</title>
<g id="a_node4"><a xlink:href="class_urho3_d_1_1_ref_counted.html" target="_top" xlink:title="Base class for intrusively reference&#45;counted objects. These are noncopyable and non&#45;assignable. ">
<polygon fill="none" stroke="black" points="198,-541.5 198,-560.5 312,-560.5 312,-541.5 198,-541.5"/>
<text text-anchor="middle" x="255" y="-548.5" font-family="FreeSans" font-size="10.00">Urho3D::RefCounted</text>
</a>
</g>
</g>
<!-- Node4&#45;&gt;Node3 -->
<g id="edge3" class="edge"><title>Node4&#45;&gt;Node3</title>
<path fill="none" stroke="midnightblue" d="M268.03,-569.153C288.879,-599.195 334.649,-659.189 388,-692 394.409,-695.942 401.677,-699.1 408.972,-701.62"/>
<polygon fill="midnightblue" stroke="midnightblue" points="270.678,-566.822 262.158,-560.523 264.89,-570.76 270.678,-566.822"/>
</g>
<!-- Node6 -->
<g id="node6" class="node"><title>Node6</title>
<g id="a_node6"><a xlink:href="class_urho3_d_1_1_context.html" target="_top" xlink:title="Urho3D execution context. Provides access to subsystems, object factories and attributes, and event receivers. ">
<polygon fill="none" stroke="black" points="1044.5,-362.5 1044.5,-381.5 1141.5,-381.5 1141.5,-362.5 1044.5,-362.5"/>
<text text-anchor="middle" x="1093" y="-369.5" font-family="FreeSans" font-size="10.00">Urho3D::Context</text>
</a>
</g>
</g>
<!-- Node4&#45;&gt;Node6 -->
<g id="edge6" class="edge"><title>Node4&#45;&gt;Node6</title>
<path fill="none" stroke="midnightblue" d="M322.43,-553.876C483.438,-559.648 889.537,-566.689 1002,-497 1048.37,-468.266 1077.99,-405.95 1088.11,-381.82"/>
<polygon fill="midnightblue" stroke="midnightblue" points="322.306,-550.369 312.184,-553.498 322.049,-557.364 322.306,-550.369"/>
</g>
<!-- Node5 -->
<g id="node5" class="node"><title>Node5</title>
<g id="a_node5"><a xlink:href="struct_urho3_d_1_1_ref_count.html" target="_top" xlink:title="Reference count structure. ">
<polygon fill="none" stroke="black" points="0,-541.5 0,-560.5 102,-560.5 102,-541.5 0,-541.5"/>
<text text-anchor="middle" x="51" y="-548.5" font-family="FreeSans" font-size="10.00">Urho3D::RefCount</text>
</a>
</g>
</g>
<!-- Node5&#45;&gt;Node4 -->
<g id="edge4" class="edge"><title>Node5&#45;&gt;Node4</title>
<path fill="none" stroke="#9a32cd" stroke-dasharray="5,2" d="M112.31,-551C139.36,-551 171.086,-551 197.652,-551"/>
<polygon fill="#9a32cd" stroke="#9a32cd" points="112.192,-547.5 102.192,-551 112.192,-554.5 112.192,-547.5"/>
<text text-anchor="middle" x="145" y="-554" font-family="FreeSans" font-size="10.00"> refCount_</text>
</g>
<!-- Node6&#45;&gt;Node3 -->
<g id="edge5" class="edge"><title>Node6&#45;&gt;Node3</title>
<path fill="none" stroke="#9a32cd" stroke-dasharray="5,2" d="M1092.73,-391.622C1093.5,-444.811 1087.5,-592.222 1002,-659 967.964,-685.583 656.877,-676.838 614,-682 574.859,-686.712 530.789,-694.987 498.989,-701.495"/>
<polygon fill="#9a32cd" stroke="#9a32cd" points="1096.22,-391.414 1092.47,-381.504 1089.22,-391.588 1096.22,-391.414"/>
<text text-anchor="middle" x="741" y="-685" font-family="FreeSans" font-size="10.00"> context_</text>
</g>
<!-- Node7 -->
<g id="node7" class="node"><title>Node7</title>
<g id="a_node7"><a xlink:href="class_urho3_d_1_1_hash_map.html" target="_top" xlink:title="Urho3D::HashMap\&lt; Urho3D\l::Object *, Urho3D::HashMap\l\&lt; Urho3D::StringHash, Urho3D\l::SharedPtr\&lt; Urho3D::EventReceiverGroup \&gt; \&gt; \&gt;">
<polygon fill="none" stroke="black" points="614,-132 614,-184 868,-184 868,-132 614,-132"/>
<text text-anchor="start" x="622" y="-172" font-family="FreeSans" font-size="10.00">Urho3D::HashMap&lt; Urho3D</text>
<text text-anchor="start" x="622" y="-161" font-family="FreeSans" font-size="10.00">::Object *, Urho3D::HashMap</text>
<text text-anchor="start" x="622" y="-150" font-family="FreeSans" font-size="10.00">&lt; Urho3D::StringHash, Urho3D</text>
<text text-anchor="middle" x="741" y="-139" font-family="FreeSans" font-size="10.00">::SharedPtr&lt; Urho3D::EventReceiverGroup &gt; &gt; &gt;</text>
</a>
</g>
</g>
<!-- Node7&#45;&gt;Node6 -->
<g id="edge7" class="edge"><title>Node7&#45;&gt;Node6</title>
<path fill="none" stroke="#9a32cd" stroke-dasharray="5,2" d="M878.072,-174.689C920.784,-184.917 966.107,-201.41 1002,-228 1051.04,-264.327 1079.62,-336.057 1088.76,-362.185"/>
<polygon fill="#9a32cd" stroke="#9a32cd" points="878.673,-171.236 868.144,-172.411 877.107,-178.059 878.673,-171.236"/>
<text text-anchor="middle" x="944" y="-231" font-family="FreeSans" font-size="10.00"> specificEventReceivers_</text>
</g>
<!-- Node8 -->
<g id="node8" class="node"><title>Node8</title>
<g id="a_node8"><a xlink:href="class_urho3_d_1_1_hash_base.html" target="_top" xlink:title="Hash set/map base class. ">
<polygon fill="none" stroke="red" points="400,-208.5 400,-227.5 508,-227.5 508,-208.5 400,-208.5"/>
<text text-anchor="middle" x="454" y="-215.5" font-family="FreeSans" font-size="10.00">Urho3D::HashBase</text>
</a>
</g>
</g>
<!-- Node8&#45;&gt;Node7 -->
<g id="edge8" class="edge"><title>Node8&#45;&gt;Node7</title>
<path fill="none" stroke="midnightblue" d="M510.082,-206.404C540.357,-200.03 579.21,-191.85 616.329,-184.036"/>
<polygon fill="midnightblue" stroke="midnightblue" points="509.224,-203.008 500.159,-208.493 510.666,-209.858 509.224,-203.008"/>
</g>
<!-- Node10 -->
<g id="node10" class="node"><title>Node10</title>
<g id="a_node10"><a xlink:href="class_urho3_d_1_1_hash_map.html" target="_top" xlink:title="Urho3D::HashMap\&lt; Urho3D\l::StringHash, Urho3D::\lSharedPtr\&lt; Urho3D::EventReceiver\lGroup \&gt; \&gt;">
<polygon fill="none" stroke="black" points="648.5,-61 648.5,-113 833.5,-113 833.5,-61 648.5,-61"/>
<text text-anchor="start" x="656.5" y="-101" font-family="FreeSans" font-size="10.00">Urho3D::HashMap&lt; Urho3D</text>
<text text-anchor="start" x="656.5" y="-90" font-family="FreeSans" font-size="10.00">::StringHash, Urho3D::</text>
<text text-anchor="start" x="656.5" y="-79" font-family="FreeSans" font-size="10.00">SharedPtr&lt; Urho3D::EventReceiver</text>
<text text-anchor="middle" x="741" y="-68" font-family="FreeSans" font-size="10.00">Group &gt; &gt;</text>
</a>
</g>
</g>
<!-- Node8&#45;&gt;Node10 -->
<g id="edge12" class="edge"><title>Node8&#45;&gt;Node10</title>
<path fill="none" stroke="midnightblue" d="M476.247,-202.572C505.822,-181.72 561.673,-144.561 614,-122 624.945,-117.281 636.7,-113.025 648.473,-109.242"/>
<polygon fill="midnightblue" stroke="midnightblue" points="474.06,-199.833 467.946,-208.486 478.121,-205.535 474.06,-199.833"/>
</g>
<!-- Node16 -->
<g id="node16" class="node"><title>Node16</title>
<g id="a_node16"><a xlink:href="class_urho3_d_1_1_hash_map.html" target="_top" xlink:title="Urho3D::HashMap\&lt; StringHash,\l Variant \&gt;">
<polygon fill="none" stroke="black" points="655,-203 655,-233 827,-233 827,-203 655,-203"/>
<text text-anchor="start" x="663" y="-221" font-family="FreeSans" font-size="10.00">Urho3D::HashMap&lt; StringHash,</text>
<text text-anchor="middle" x="741" y="-210" font-family="FreeSans" font-size="10.00"> Variant &gt;</text>
</a>
</g>
</g>
<!-- Node8&#45;&gt;Node16 -->
<g id="edge22" class="edge"><title>Node8&#45;&gt;Node16</title>
<path fill="none" stroke="midnightblue" d="M518.467,-218C558.625,-218 611.032,-218 654.79,-218"/>
<polygon fill="midnightblue" stroke="midnightblue" points="518.272,-214.5 508.272,-218 518.272,-221.5 518.272,-214.5"/>
</g>
<!-- Node17 -->
<g id="node17" class="node"><title>Node17</title>
<g id="a_node17"><a xlink:href="class_urho3_d_1_1_hash_map.html" target="_top" xlink:title="Urho3D::HashMap\&lt; Urho3D\l::StringHash, Urho3D::\lSharedPtr\&lt; Urho3D::Object \&gt; \&gt;">
<polygon fill="none" stroke="black" points="655,-0.5 655,-41.5 827,-41.5 827,-0.5 655,-0.5"/>
<text text-anchor="start" x="663" y="-29.5" font-family="FreeSans" font-size="10.00">Urho3D::HashMap&lt; Urho3D</text>
<text text-anchor="start" x="663" y="-18.5" font-family="FreeSans" font-size="10.00">::StringHash, Urho3D::</text>
<text text-anchor="middle" x="741" y="-7.5" font-family="FreeSans" font-size="10.00">SharedPtr&lt; Urho3D::Object &gt; &gt;</text>
</a>
</g>
</g>
<!-- Node8&#45;&gt;Node17 -->
<g id="edge24" class="edge"><title>Node8&#45;&gt;Node17</title>
<path fill="none" stroke="midnightblue" d="M466.943,-199.411C490.509,-164.364 546.6,-88.6629 614,-51 626.563,-43.9799 640.719,-38.5948 654.888,-34.466"/>
<polygon fill="midnightblue" stroke="midnightblue" points="463.762,-197.879 461.176,-208.153 469.605,-201.733 463.762,-197.879"/>
</g>
<!-- Node19 -->
<g id="node19" class="node"><title>Node19</title>
<g id="a_node19"><a xlink:href="class_urho3_d_1_1_hash_map.html" target="_top" xlink:title="Urho3D::HashMap\&lt; Urho3D\l::StringHash, Urho3D::\lSharedPtr\&lt; Urho3D::ObjectFactory \&gt; \&gt;">
<polygon fill="none" stroke="black" points="638,-311.5 638,-352.5 844,-352.5 844,-311.5 638,-311.5"/>
<text text-anchor="start" x="646" y="-340.5" font-family="FreeSans" font-size="10.00">Urho3D::HashMap&lt; Urho3D</text>
<text text-anchor="start" x="646" y="-329.5" font-family="FreeSans" font-size="10.00">::StringHash, Urho3D::</text>
<text text-anchor="middle" x="741" y="-318.5" font-family="FreeSans" font-size="10.00">SharedPtr&lt; Urho3D::ObjectFactory &gt; &gt;</text>
</a>
</g>
</g>
<!-- Node8&#45;&gt;Node19 -->
<g id="edge28" class="edge"><title>Node8&#45;&gt;Node19</title>
<path fill="none" stroke="midnightblue" d="M478.84,-232.772C509.226,-251.045 563.842,-282.053 614,-301 624.115,-304.821 634.867,-308.299 645.661,-311.428"/>
<polygon fill="midnightblue" stroke="midnightblue" points="480.584,-229.736 470.219,-227.537 476.95,-235.719 480.584,-229.736"/>
</g>
<!-- Node20 -->
<g id="node20" class="node"><title>Node20</title>
<g id="a_node20"><a xlink:href="class_urho3_d_1_1_hash_map.html" target="_top" xlink:title="Urho3D::HashMap\&lt; Urho3D\l::String, Urho3D::Vector\l\&lt; Urho3D::StringHash \&gt; \&gt;">
<polygon fill="none" stroke="black" points="665,-251.5 665,-292.5 817,-292.5 817,-251.5 665,-251.5"/>
<text text-anchor="start" x="673" y="-280.5" font-family="FreeSans" font-size="10.00">Urho3D::HashMap&lt; Urho3D</text>
<text text-anchor="start" x="673" y="-269.5" font-family="FreeSans" font-size="10.00">::String, Urho3D::Vector</text>
<text text-anchor="middle" x="741" y="-258.5" font-family="FreeSans" font-size="10.00">&lt; Urho3D::StringHash &gt; &gt;</text>
</a>
</g>
</g>
<!-- Node8&#45;&gt;Node20 -->
<g id="edge30" class="edge"><title>Node8&#45;&gt;Node20</title>
<path fill="none" stroke="midnightblue" d="M515.187,-229.404C558.787,-237.665 618.032,-248.89 664.758,-257.744"/>
<polygon fill="midnightblue" stroke="midnightblue" points="515.773,-225.953 505.296,-227.53 514.47,-232.83 515.773,-225.953"/>
</g>
<!-- Node21 -->
<g id="node21" class="node"><title>Node21</title>
<g id="a_node21"><a xlink:href="class_urho3_d_1_1_hash_map.html" target="_top" xlink:title="Urho3D::HashMap\&lt; Urho3D\l::StringHash, Urho3D::\lVector\&lt; Urho3D::AttributeInfo \&gt; \&gt;">
<polygon fill="none" stroke="black" points="649.5,-371.5 649.5,-412.5 832.5,-412.5 832.5,-371.5 649.5,-371.5"/>
<text text-anchor="start" x="657.5" y="-400.5" font-family="FreeSans" font-size="10.00">Urho3D::HashMap&lt; Urho3D</text>
<text text-anchor="start" x="657.5" y="-389.5" font-family="FreeSans" font-size="10.00">::StringHash, Urho3D::</text>
<text text-anchor="middle" x="741" y="-378.5" font-family="FreeSans" font-size="10.00">Vector&lt; Urho3D::AttributeInfo &gt; &gt;</text>
</a>
</g>
</g>
<!-- Node8&#45;&gt;Node21 -->
<g id="edge32" class="edge"><title>Node8&#45;&gt;Node21</title>
<path fill="none" stroke="midnightblue" d="M469.439,-235.865C495.15,-266.429 552.019,-328.583 614,-361 624.979,-366.742 637.056,-371.448 649.253,-375.298"/>
<polygon fill="midnightblue" stroke="midnightblue" points="471.833,-233.269 462.761,-227.797 466.441,-237.732 471.833,-233.269"/>
</g>
<!-- Node9 -->
<g id="node9" class="node"><title>Node9</title>
<g id="a_node9"><a xlink:href="struct_urho3_d_1_1_hash_node_base.html" target="_top" xlink:title="Hash set/map node base class. ">
<polygon fill="none" stroke="black" points="188,-208.5 188,-227.5 322,-227.5 322,-208.5 188,-208.5"/>
<text text-anchor="middle" x="255" y="-215.5" font-family="FreeSans" font-size="10.00">Urho3D::HashNodeBase</text>
</a>
</g>
</g>
<!-- Node9&#45;&gt;Node8 -->
<g id="edge9" class="edge"><title>Node9&#45;&gt;Node8</title>
<path fill="none" stroke="#9a32cd" stroke-dasharray="5,2" d="M332.362,-218C354.886,-218 379.039,-218 399.772,-218"/>
<polygon fill="#9a32cd" stroke="#9a32cd" points="332.146,-214.5 322.146,-218 332.146,-221.5 332.146,-214.5"/>
<text text-anchor="middle" x="355" y="-243" font-family="FreeSans" font-size="10.00"> ptrs_</text>
<text text-anchor="middle" x="355" y="-232" font-family="FreeSans" font-size="10.00">tail_</text>
<text text-anchor="middle" x="355" y="-221" font-family="FreeSans" font-size="10.00">head_</text>
</g>
<!-- Node9&#45;&gt;Node9 -->
<g id="edge10" class="edge"><title>Node9&#45;&gt;Node9</title>
<path fill="none" stroke="#9a32cd" stroke-dasharray="5,2" d="M236.482,-237.4C237.719,-242.315 243.892,-246 255,-246 272.773,-246 277.911,-236.565 270.413,-227.757"/>
<polygon fill="#9a32cd" stroke="#9a32cd" points="239.854,-238.349 239.587,-227.757 233.191,-236.203 239.854,-238.349"/>
<text text-anchor="middle" x="255" y="-271" font-family="FreeSans" font-size="10.00"> next_</text>
<text text-anchor="middle" x="255" y="-260" font-family="FreeSans" font-size="10.00">prev_</text>
<text text-anchor="middle" x="255" y="-249" font-family="FreeSans" font-size="10.00">down_</text>
</g>
<!-- Node10&#45;&gt;Node6 -->
<g id="edge11" class="edge"><title>Node10&#45;&gt;Node6</title>
<path fill="none" stroke="#9a32cd" stroke-dasharray="5,2" d="M843.739,-95.7953C896.437,-105.111 958.646,-124.159 1002,-163 1065.56,-219.941 1085.93,-329.584 1090.75,-362.457"/>
<polygon fill="#9a32cd" stroke="#9a32cd" points="844.117,-92.3099 833.676,-94.1128 842.962,-99.2141 844.117,-92.3099"/>
<text text-anchor="middle" x="944" y="-166" font-family="FreeSans" font-size="10.00"> eventReceivers_</text>
</g>
<!-- Node11 -->
<g id="node11" class="node"><title>Node11</title>
<g id="a_node11"><a xlink:href="class_urho3_d_1_1_p_o_d_vector.html" target="_top" xlink:title="Urho3D::PODVector\&lt;\l Urho3D::Object * \&gt;">
<polygon fill="none" stroke="black" points="681.5,-431 681.5,-461 800.5,-461 800.5,-431 681.5,-431"/>
<text text-anchor="start" x="689.5" y="-449" font-family="FreeSans" font-size="10.00">Urho3D::PODVector&lt;</text>
<text text-anchor="middle" x="741" y="-438" font-family="FreeSans" font-size="10.00"> Urho3D::Object * &gt;</text>
</a>
</g>
</g>
<!-- Node11&#45;&gt;Node6 -->
<g id="edge13" class="edge"><title>Node11&#45;&gt;Node6</title>
<path fill="none" stroke="#9a32cd" stroke-dasharray="5,2" d="M810.678,-441.422C863.677,-436.712 938.435,-427.493 1002,-410 1027.51,-402.98 1055.35,-390.404 1073.21,-381.651"/>
<polygon fill="#9a32cd" stroke="#9a32cd" points="810.375,-437.935 800.711,-442.277 810.974,-444.909 810.375,-437.935"/>
<text text-anchor="middle" x="944" y="-436" font-family="FreeSans" font-size="10.00"> eventSenders_</text>
</g>
<!-- Node12 -->
<g id="node12" class="node"><title>Node12</title>
<g id="a_node12"><a xlink:href="class_urho3_d_1_1_vector_base.html" target="_top" xlink:title="Vector base class. ">
<polygon fill="none" stroke="black" points="397,-479.5 397,-498.5 511,-498.5 511,-479.5 397,-479.5"/>
<text text-anchor="middle" x="454" y="-486.5" font-family="FreeSans" font-size="10.00">Urho3D::VectorBase</text>
</a>
</g>
</g>
<!-- Node12&#45;&gt;Node11 -->
<g id="edge14" class="edge"><title>Node12&#45;&gt;Node11</title>
<path fill="none" stroke="midnightblue" d="M521.376,-478.985C569.805,-471.678 634.839,-461.866 681.361,-454.847"/>
<polygon fill="midnightblue" stroke="midnightblue" points="520.673,-475.552 511.307,-480.505 521.717,-482.473 520.673,-475.552"/>
</g>
<!-- Node18 -->
<g id="node18" class="node"><title>Node18</title>
<g id="a_node18"><a xlink:href="class_urho3_d_1_1_p_o_d_vector.html" target="_top" xlink:title="Urho3D::PODVector\&lt;\l Urho3D::HashMap * \&gt;">
<polygon fill="none" stroke="black" points="677.5,-480 677.5,-510 804.5,-510 804.5,-480 677.5,-480"/>
<text text-anchor="start" x="685.5" y="-498" font-family="FreeSans" font-size="10.00">Urho3D::PODVector&lt;</text>
<text text-anchor="middle" x="741" y="-487" font-family="FreeSans" font-size="10.00"> Urho3D::HashMap * &gt;</text>
</a>
</g>
</g>
<!-- Node12&#45;&gt;Node18 -->
<g id="edge26" class="edge"><title>Node12&#45;&gt;Node18</title>
<path fill="none" stroke="midnightblue" d="M521.399,-490.398C568.456,-491.389 631.181,-492.709 677.37,-493.681"/>
<polygon fill="midnightblue" stroke="midnightblue" points="521.378,-486.897 511.307,-490.185 521.231,-493.895 521.378,-486.897"/>
</g>
<!-- Node25 -->
<g id="node25" class="node"><title>Node25</title>
<g id="a_node25"><a xlink:href="class_urho3_d_1_1_p_o_d_vector.html" target="_top" xlink:title="Urho3D::PODVector\&lt;\l Urho3D::ProfilerBlock * \&gt;">
<polygon fill="none" stroke="black" points="671,-568 671,-598 811,-598 811,-568 671,-568"/>
<text text-anchor="start" x="679" y="-586" font-family="FreeSans" font-size="10.00">Urho3D::PODVector&lt;</text>
<text text-anchor="middle" x="741" y="-575" font-family="FreeSans" font-size="10.00"> Urho3D::ProfilerBlock * &gt;</text>
</a>
</g>
</g>
<!-- Node12&#45;&gt;Node25 -->
<g id="edge38" class="edge"><title>Node12&#45;&gt;Node25</title>
<path fill="none" stroke="midnightblue" d="M493.457,-501.684C545.657,-518.901 638.793,-549.619 694.436,-567.972"/>
<polygon fill="midnightblue" stroke="midnightblue" points="494.489,-498.339 483.896,-498.531 492.296,-504.987 494.489,-498.339"/>
</g>
<!-- Node13&#45;&gt;Node6 -->
<g id="edge15" class="edge"><title>Node13&#45;&gt;Node6</title>
<path fill="none" stroke="#9a32cd" stroke-dasharray="5,2" d="M813.188,-619.015C831.275,-616.086 850.529,-612.172 868,-607 876.394,-604.515 877.929,-602.392 886,-599 937.129,-577.511 961.173,-590.538 1002,-553 1056.77,-502.645 1082.55,-411.562 1089.79,-381.74"/>
<polygon fill="#9a32cd" stroke="#9a32cd" points="812.628,-615.56 803.278,-620.543 813.695,-622.478 812.628,-615.56"/>
<text text-anchor="middle" x="944" y="-602" font-family="FreeSans" font-size="10.00"> eventHandler_</text>
</g>
<!-- Node22 -->
<g id="node22" class="node"><title>Node22</title>
<g id="a_node22"><a xlink:href="class_urho3_d_1_1_linked_list.html" target="_top" xlink:title="Urho3D::LinkedList\l\&lt; Urho3D::EventHandler \&gt;">
<polygon fill="none" stroke="black" points="1020,-746 1020,-776 1166,-776 1166,-746 1020,-746"/>
<text text-anchor="start" x="1028" y="-764" font-family="FreeSans" font-size="10.00">Urho3D::LinkedList</text>
<text text-anchor="middle" x="1093" y="-753" font-family="FreeSans" font-size="10.00">&lt; Urho3D::EventHandler &gt;</text>
</a>
</g>
</g>
<!-- Node13&#45;&gt;Node22 -->
<g id="edge34" class="edge"><title>Node13&#45;&gt;Node22</title>
<path fill="none" stroke="#9a32cd" stroke-dasharray="5,2" d="M813.225,-626.946C833.044,-630.28 853.175,-637.289 868,-651 890.322,-671.644 863.842,-696.18 886,-717 924.368,-753.051 950.524,-729.956 1002,-741 1009.36,-742.578 1017.04,-744.251 1024.69,-745.93"/>
<polygon fill="#9a32cd" stroke="#9a32cd" points="813.621,-623.467 803.234,-625.556 812.656,-630.401 813.621,-623.467"/>
<text text-anchor="middle" x="944" y="-744" font-family="FreeSans" font-size="10.00"> head_</text>
</g>
<!-- Node14 -->
<g id="node14" class="node"><title>Node14</title>
<g id="a_node14"><a xlink:href="struct_urho3_d_1_1_linked_list_node.html" target="_top" xlink:title="Singly&#45;linked list node base class. ">
<polygon fill="none" stroke="black" points="388,-634.5 388,-653.5 520,-653.5 520,-634.5 388,-634.5"/>
<text text-anchor="middle" x="454" y="-641.5" font-family="FreeSans" font-size="10.00">Urho3D::LinkedListNode</text>
</a>
</g>
</g>
<!-- Node14&#45;&gt;Node13 -->
<g id="edge16" class="edge"><title>Node14&#45;&gt;Node13</title>
<path fill="none" stroke="midnightblue" d="M500.323,-631.599C506.969,-629.536 513.696,-627.311 520,-625 528.22,-621.987 529.436,-618.817 538,-617 589.006,-606.176 648.808,-611.274 690.039,-617.465"/>
<polygon fill="midnightblue" stroke="midnightblue" points="499.267,-628.261 490.701,-634.496 501.286,-634.964 499.267,-628.261"/>
</g>
<!-- Node14&#45;&gt;Node14 -->
<g id="edge17" class="edge"><title>Node14&#45;&gt;Node14</title>
<path fill="none" stroke="#9a32cd" stroke-dasharray="5,2" d="M435.853,-663.4C437.065,-668.315 443.114,-672 454,-672 471.418,-672 476.453,-662.565 469.105,-653.757"/>
<polygon fill="#9a32cd" stroke="#9a32cd" points="439.224,-664.347 438.895,-653.757 432.548,-662.24 439.224,-664.347"/>
<text text-anchor="middle" x="454" y="-675" font-family="FreeSans" font-size="10.00"> next_</text>
</g>
<!-- Node15 -->
<g id="node15" class="node"><title>Node15</title>
<g id="a_node15"><a xlink:href="class_urho3_d_1_1_string_hash.html" target="_top" xlink:title="32&#45;bit hash value for a string. ">
<polygon fill="none" stroke="black" points="397.5,-567.5 397.5,-586.5 510.5,-586.5 510.5,-567.5 397.5,-567.5"/>
<text text-anchor="middle" x="454" y="-574.5" font-family="FreeSans" font-size="10.00">Urho3D::StringHash</text>
</a>
</g>
</g>
<!-- Node15&#45;&gt;Node13 -->
<g id="edge19" class="edge"><title>Node15&#45;&gt;Node13</title>
<path fill="none" stroke="#9a32cd" stroke-dasharray="5,2" d="M520.955,-580.206C545.085,-582.845 572.273,-587.574 596,-596 604.835,-599.138 605.202,-603.759 614,-607 634.472,-614.542 657.843,-619.241 678.853,-622.168"/>
<polygon fill="#9a32cd" stroke="#9a32cd" points="521.117,-576.705 510.819,-579.198 520.424,-583.67 521.117,-576.705"/>
<text text-anchor="middle" x="567" y="-599" font-family="FreeSans" font-size="10.00"> eventType_</text>
</g>
<!-- Node15&#45;&gt;Node15 -->
<g id="edge20" class="edge"><title>Node15&#45;&gt;Node15</title>
<path fill="none" stroke="#9a32cd" stroke-dasharray="5,2" d="M435.853,-596.4C437.065,-601.315 443.114,-605 454,-605 471.418,-605 476.453,-595.565 469.105,-586.757"/>
<polygon fill="#9a32cd" stroke="#9a32cd" points="439.224,-597.347 438.895,-586.757 432.548,-595.24 439.224,-597.347"/>
<text text-anchor="middle" x="454" y="-608" font-family="FreeSans" font-size="10.00"> ZERO</text>
</g>
<!-- Node16&#45;&gt;Node6 -->
<g id="edge21" class="edge"><title>Node16&#45;&gt;Node6</title>
<path fill="none" stroke="#9a32cd" stroke-dasharray="5,2" d="M837.284,-231.098C888.783,-241.259 951.899,-258.89 1002,-289 1036.61,-309.803 1069.42,-345.446 1084.04,-362.442"/>
<polygon fill="#9a32cd" stroke="#9a32cd" points="837.625,-227.6 827.146,-229.164 836.313,-234.476 837.625,-227.6"/>
<text text-anchor="middle" x="944" y="-292" font-family="FreeSans" font-size="10.00"> globalVars_</text>
</g>
<!-- Node17&#45;&gt;Node6 -->
<g id="edge23" class="edge"><title>Node17&#45;&gt;Node6</title>
<path fill="none" stroke="#9a32cd" stroke-dasharray="5,2" d="M837.286,-24.6053C892.163,-31.6088 958.636,-49.2419 1002,-92 1082.53,-171.408 1091.08,-323.02 1091.92,-362.441"/>
<polygon fill="#9a32cd" stroke="#9a32cd" points="837.523,-21.1091 827.182,-23.4176 836.705,-28.0612 837.523,-21.1091"/>
<text text-anchor="middle" x="944" y="-95" font-family="FreeSans" font-size="10.00"> subsystems_</text>
</g>
<!-- Node18&#45;&gt;Node6 -->
<g id="edge25" class="edge"><title>Node18&#45;&gt;Node6</title>
<path fill="none" stroke="#9a32cd" stroke-dasharray="5,2" d="M814.794,-491.925C868.693,-487.301 942.739,-475.903 1002,-448 1036.97,-431.535 1069.36,-397.957 1083.92,-381.509"/>
<polygon fill="#9a32cd" stroke="#9a32cd" points="814.323,-488.451 804.634,-492.737 814.881,-495.429 814.323,-488.451"/>
<text text-anchor="middle" x="944" y="-485" font-family="FreeSans" font-size="10.00"> eventDataMaps_</text>
</g>
<!-- Node19&#45;&gt;Node6 -->
<g id="edge27" class="edge"><title>Node19&#45;&gt;Node6</title>
<path fill="none" stroke="#9a32cd" stroke-dasharray="5,2" d="M854.351,-344.84C918.482,-352.169 995.545,-360.977 1044.16,-366.532"/>
<polygon fill="#9a32cd" stroke="#9a32cd" points="854.508,-341.335 844.175,-343.677 853.713,-348.29 854.508,-341.335"/>
<text text-anchor="middle" x="944" y="-365" font-family="FreeSans" font-size="10.00"> factories_</text>
</g>
<!-- Node20&#45;&gt;Node6 -->
<g id="edge29" class="edge"><title>Node20&#45;&gt;Node6</title>
<path fill="none" stroke="#9a32cd" stroke-dasharray="5,2" d="M827.15,-289.115C878.377,-300.278 944.572,-316.239 1002,-335 1026.25,-342.922 1053.2,-354.371 1071.24,-362.431"/>
<polygon fill="#9a32cd" stroke="#9a32cd" points="827.625,-285.637 817.112,-286.947 826.148,-292.48 827.625,-285.637"/>
<text text-anchor="middle" x="944" y="-338" font-family="FreeSans" font-size="10.00"> objectCategories_</text>
</g>
<!-- Node21&#45;&gt;Node6 -->
<g id="edge31" class="edge"><title>Node21&#45;&gt;Node6</title>
<path fill="none" stroke="#9a32cd" stroke-dasharray="5,2" d="M842.65,-386.249C908.922,-382.462 992.669,-377.676 1044.27,-374.727"/>
<polygon fill="#9a32cd" stroke="#9a32cd" points="842.373,-382.759 832.589,-386.823 842.772,-389.747 842.373,-382.759"/>
<text text-anchor="middle" x="944" y="-398" font-family="FreeSans" font-size="10.00"> attributes_</text>
<text text-anchor="middle" x="944" y="-387" font-family="FreeSans" font-size="10.00">networkAttributes_</text>
</g>
<!-- Node22&#45;&gt;Node3 -->
<g id="edge33" class="edge"><title>Node22&#45;&gt;Node3</title>
<path fill="none" stroke="#9a32cd" stroke-dasharray="5,2" d="M1009.57,-758.029C971.883,-756.508 926.664,-754.457 886,-752 764.972,-744.686 734.63,-743.236 614,-731 575.11,-727.055 531.015,-721.416 499.143,-717.131"/>
<polygon fill="#9a32cd" stroke="#9a32cd" points="1009.86,-761.543 1019.99,-758.444 1010.14,-754.549 1009.86,-761.543"/>
<text text-anchor="middle" x="741" y="-754" font-family="FreeSans" font-size="10.00"> eventHandlers_</text>
</g>
<!-- Node23 -->
<g id="node23" class="node"><title>Node23</title>
<g id="a_node23"><a xlink:href="class_urho3_d_1_1_profiler_block.html" target="_top" xlink:title="Profiling data for one block in the profiling tree. ">
<polygon fill="none" stroke="black" points="1034,-678.5 1034,-697.5 1152,-697.5 1152,-678.5 1034,-678.5"/>
<text text-anchor="middle" x="1093" y="-685.5" font-family="FreeSans" font-size="10.00">Urho3D::ProfilerBlock</text>
</a>
</g>
</g>
<!-- Node23&#45;&gt;Node2 -->
<g id="edge35" class="edge"><title>Node23&#45;&gt;Node2</title>
<path fill="none" stroke="#9a32cd" stroke-dasharray="5,2" d="M1126.97,-701.324C1165.78,-717.009 1229.26,-742.666 1263.44,-756.48"/>
<polygon fill="#9a32cd" stroke="#9a32cd" points="1128.25,-698.066 1117.67,-697.564 1125.63,-704.556 1128.25,-698.066"/>
<text text-anchor="middle" x="1204" y="-753" font-family="FreeSans" font-size="10.00"> root_</text>
<text text-anchor="middle" x="1204" y="-742" font-family="FreeSans" font-size="10.00">current_</text>
</g>
<!-- Node23&#45;&gt;Node23 -->
<g id="edge39" class="edge"><title>Node23&#45;&gt;Node23</title>
<path fill="none" stroke="#9a32cd" stroke-dasharray="5,2" d="M1072.63,-707.4C1073.99,-712.315 1080.78,-716 1093,-716 1112.55,-716 1118.2,-706.565 1109.95,-697.757"/>
<polygon fill="#9a32cd" stroke="#9a32cd" points="1076.01,-708.352 1076.05,-697.757 1069.41,-706.015 1076.01,-708.352"/>
<text text-anchor="middle" x="1093" y="-719" font-family="FreeSans" font-size="10.00"> parent_</text>
</g>
<!-- Node24 -->
<g id="node24" class="node"><title>Node24</title>
<g id="a_node24"><a xlink:href="class_urho3_d_1_1_hires_timer.html" target="_top" xlink:title="High&#45;resolution operating system timer used in profiling. ">
<polygon fill="none" stroke="black" points="685.5,-702.5 685.5,-721.5 796.5,-721.5 796.5,-702.5 685.5,-702.5"/>
<text text-anchor="middle" x="741" y="-709.5" font-family="FreeSans" font-size="10.00">Urho3D::HiresTimer</text>
</a>
</g>
</g>
<!-- Node24&#45;&gt;Node23 -->
<g id="edge36" class="edge"><title>Node24&#45;&gt;Node23</title>
<path fill="none" stroke="#9a32cd" stroke-dasharray="5,2" d="M806.83,-707.554C871.93,-703.091 971.311,-696.276 1033.91,-691.983"/>
<polygon fill="#9a32cd" stroke="#9a32cd" points="806.425,-704.074 796.688,-708.25 806.904,-711.058 806.425,-704.074"/>
<text text-anchor="middle" x="944" y="-705" font-family="FreeSans" font-size="10.00"> timer_</text>
</g>
<!-- Node25&#45;&gt;Node23 -->
<g id="edge37" class="edge"><title>Node25&#45;&gt;Node23</title>
<path fill="none" stroke="#9a32cd" stroke-dasharray="5,2" d="M821.242,-596.872C836.84,-600.121 853.011,-603.861 868,-608 942.833,-628.666 1028.56,-662.123 1068.82,-678.439"/>
<polygon fill="#9a32cd" stroke="#9a32cd" points="821.591,-593.371 811.094,-594.807 820.195,-600.23 821.591,-593.371"/>
<text text-anchor="middle" x="944" y="-654" font-family="FreeSans" font-size="10.00"> children_</text>
</g>
</g>
</svg>
        <g id="navigator" transform="translate(0 0)" fill="#404254">
                <rect fill="#f2f5e9" fill-opacity="0.5" stroke="#606060" stroke-width=".5" x="0" y="0" width="60" height="60"/>
                <use id="zoomplus" xlink:href="#zoomPlus" x="17" y="9" onmousedown="handleZoom(evt,'in')"/>
                <use id="zoomminus" xlink:href="#zoomMin" x="42" y="9" onmousedown="handleZoom(evt,'out')"/>
                <use id="reset" xlink:href="#resetDef" x="30" y="36" onmousedown="handleReset()"/>
                <g id="arrowUp" xlink:href="#dirArrow" transform="translate(30 24)" onmousedown="handlePan(0,-1)">
                  <use xlink:href="#rim" fill="#404040">
                        <set attributeName="fill" to="#808080" begin="arrowUp.mouseover" end="arrowUp.mouseout"/>
                  </use>
                  <path fill="none" stroke="white" stroke-width="1.5" d="M0,-3.0v7 M-2.5,-0.5L0,-3.0L2.5,-0.5"/>
                </g>
                <g id="arrowRight" xlink:href="#dirArrow" transform="rotate(90) translate(36 -43)" onmousedown="handlePan(1,0)">
                  <use xlink:href="#rim" fill="#404040">
                        <set attributeName="fill" to="#808080" begin="arrowRight.mouseover" end="arrowRight.mouseout"/>
                  </use>
                  <path fill="none" stroke="white" stroke-width="1.5" d="M0,-3.0v7 M-2.5,-0.5L0,-3.0L2.5,-0.5"/>
                </g>
                <g id="arrowDown" xlink:href="#dirArrow" transform="rotate(180) translate(-30 -48)" onmousedown="handlePan(0,1)">
                  <use xlink:href="#rim" fill="#404040">
                        <set attributeName="fill" to="#808080" begin="arrowDown.mouseover" end="arrowDown.mouseout"/>
                  </use>
                  <path fill="none" stroke="white" stroke-width="1.5" d="M0,-3.0v7 M-2.5,-0.5L0,-3.0L2.5,-0.5"/>
                </g>
                <g id="arrowLeft" xlink:href="#dirArrow" transform="rotate(270) translate(-36 17)" onmousedown="handlePan(-1,0)">
                  <use xlink:href="#rim" fill="#404040">
                        <set attributeName="fill" to="#808080" begin="arrowLeft.mouseover" end="arrowLeft.mouseout"/>
                  </use>
                  <path fill="none" stroke="white" stroke-width="1.5" d="M0,-3.0v7 M-2.5,-0.5L0,-3.0L2.5,-0.5"/>
                </g>
        </g>
        <svg viewBox="0 0 15 15" width="100%" height="30px" preserveAspectRatio="xMaxYMin meet">
         <g id="arrow_out" transform="scale(0.3 0.3)">
          <a xlink:href="class_urho3_d_1_1_event_profiler__coll__graph_org.svg" target="_base">
           <rect id="button" ry="5" rx="5" y="6" x="6" height="38" width="38"
                fill="#f2f5e9" fill-opacity="0.5" stroke="#606060" stroke-width="1.0"/>
           <path id="arrow"
             d="M 11.500037,31.436501 C 11.940474,20.09759 22.043105,11.32322 32.158766,21.979434 L 37.068811,17.246167 C 37.068811,17.246167 37.088388,32 37.088388,32 L 22.160133,31.978069 C 22.160133,31.978069 26.997745,27.140456 26.997745,27.140456 C 18.528582,18.264221 13.291696,25.230495 11.500037,31.436501 z"
             style="fill:#404040;"/>
          </a>
         </g>
        </svg>
</svg>
