<?xml version="1.0" encoding="UTF-8" standalone="no"?>
<!DOCTYPE svg PUBLIC "-//W3C//DTD SVG 1.1//EN"
 "http://www.w3.org/Graphics/SVG/1.1/DTD/svg11.dtd">
<!-- Generated by graphviz version 2.36.0 (20140111.2315)
 -->
<!-- Title: Urho3D::HashBase Pages: 1 -->
<svg width="384pt" height="198pt"
 viewBox="0.00 0.00 384.00 198.00" xmlns="http://www.w3.org/2000/svg" xmlns:xlink="http://www.w3.org/1999/xlink">
<g id="graph0" class="graph" transform="scale(1 1) rotate(0) translate(4 194)">
<title>Urho3D::HashBase</title>
<!-- Node1 -->
<g id="node1" class="node"><title>Node1</title>
<polygon fill="#bfbfbf" stroke="black" points="129,-0.5 129,-19.5 237,-19.5 237,-0.5 129,-0.5"/>
<text text-anchor="middle" x="183" y="-7.5" font-family="FreeSans" font-size="10.00">Urho3D::HashBase</text>
</g>
<!-- Node2 -->
<g id="node2" class="node"><title>Node2</title>
<g id="a_node2"><a xlink:href="struct_urho3_d_1_1_hash_node_base.html" target="_top" xlink:title="Hash set/map node base class. ">
<polygon fill="none" stroke="black" points="0,-96.5 0,-115.5 134,-115.5 134,-96.5 0,-96.5"/>
<text text-anchor="middle" x="67" y="-103.5" font-family="FreeSans" font-size="10.00">Urho3D::HashNodeBase</text>
</a>
</g>
</g>
<!-- Node2&#45;&gt;Node1 -->
<g id="edge1" class="edge"><title>Node2&#45;&gt;Node1</title>
<path fill="none" stroke="#9a32cd" stroke-dasharray="5,2" d="M85.5765,-89.9467C110.128,-70.0515 152.573,-35.6565 172.321,-19.6538"/>
<polygon fill="#9a32cd" stroke="#9a32cd" points="83.2709,-87.3101 77.7051,-96.3252 87.678,-92.7486 83.2709,-87.3101"/>
<text text-anchor="middle" x="163" y="-63.5" font-family="FreeSans" font-size="10.00"> ptrs_</text>
<text text-anchor="middle" x="163" y="-52.5" font-family="FreeSans" font-size="10.00">tail_</text>
<text text-anchor="middle" x="163" y="-41.5" font-family="FreeSans" font-size="10.00">head_</text>
</g>
<!-- Node2&#45;&gt;Node2 -->
<g id="edge2" class="edge"><title>Node2&#45;&gt;Node2</title>
<path fill="none" stroke="#9a32cd" stroke-dasharray="5,2" d="M144.541,-111.184C149.203,-109.95 152,-108.222 152,-106 152,-102.445 144.84,-100.154 134.337,-99.1267"/>
<polygon fill="#9a32cd" stroke="#9a32cd" points="143.631,-107.787 134.337,-112.873 144.774,-114.693 143.631,-107.787"/>
<text text-anchor="middle" x="167.5" y="-114.5" font-family="FreeSans" font-size="10.00"> next_</text>
<text text-anchor="middle" x="167.5" y="-103.5" font-family="FreeSans" font-size="10.00">prev_</text>
<text text-anchor="middle" x="167.5" y="-92.5" font-family="FreeSans" font-size="10.00">down_</text>
</g>
<!-- Node3 -->
<g id="node3" class="node"><title>Node3</title>
<g id="a_node3"><a xlink:href="struct_urho3_d_1_1_allocator_block.html" target="_top" xlink:title="Allocator memory block. ">
<polygon fill="none" stroke="black" points="201.5,-96.5 201.5,-115.5 328.5,-115.5 328.5,-96.5 201.5,-96.5"/>
<text text-anchor="middle" x="265" y="-103.5" font-family="FreeSans" font-size="10.00">Urho3D::AllocatorBlock</text>
</a>
</g>
</g>
<!-- Node3&#45;&gt;Node1 -->
<g id="edge3" class="edge"><title>Node3&#45;&gt;Node1</title>
<path fill="none" stroke="#9a32cd" stroke-dasharray="5,2" d="M250.714,-88.6231C233.21,-68.5583 204.204,-35.3071 190.549,-19.6538"/>
<polygon fill="#9a32cd" stroke="#9a32cd" points="248.221,-91.0903 257.433,-96.3252 253.496,-86.4887 248.221,-91.0903"/>
<text text-anchor="middle" x="261" y="-52.5" font-family="FreeSans" font-size="10.00"> allocator_</text>
</g>
<!-- Node3&#45;&gt;Node3 -->
<g id="edge4" class="edge"><title>Node3&#45;&gt;Node3</title>
<path fill="none" stroke="#9a32cd" stroke-dasharray="5,2" d="M338.597,-111.265C343.216,-110.025 346,-108.271 346,-106 346,-102.367 338.873,-100.054 328.504,-99.0608"/>
<polygon fill="#9a32cd" stroke="#9a32cd" points="337.796,-107.85 328.504,-112.939 338.942,-114.755 337.796,-107.85"/>
<text text-anchor="middle" x="361" y="-103.5" font-family="FreeSans" font-size="10.00"> next_</text>
</g>
<!-- Node4 -->
<g id="node4" class="node"><title>Node4</title>
<g id="a_node4"><a xlink:href="struct_urho3_d_1_1_allocator_node.html" target="_top" xlink:title="Allocator node. ">
<polygon fill="none" stroke="black" points="201.5,-170.5 201.5,-189.5 328.5,-189.5 328.5,-170.5 201.5,-170.5"/>
<text text-anchor="middle" x="265" y="-177.5" font-family="FreeSans" font-size="10.00">Urho3D::AllocatorNode</text>
</a>
</g>
</g>
<!-- Node4&#45;&gt;Node3 -->
<g id="edge5" class="edge"><title>Node4&#45;&gt;Node3</title>
<path fill="none" stroke="#9a32cd" stroke-dasharray="5,2" d="M265,-160.156C265,-145.712 265,-126.459 265,-115.531"/>
<polygon fill="#9a32cd" stroke="#9a32cd" points="261.5,-160.458 265,-170.458 268.5,-160.458 261.5,-160.458"/>
<text text-anchor="middle" x="279" y="-143.5" font-family="FreeSans" font-size="10.00"> free_</text>
</g>
<!-- Node4&#45;&gt;Node4 -->
<g id="edge6" class="edge"><title>Node4&#45;&gt;Node4</title>
<path fill="none" stroke="#9a32cd" stroke-dasharray="5,2" d="M338.597,-184.475C343.216,-183.422 346,-181.93 346,-180 346,-176.912 338.873,-174.946 328.504,-174.102"/>
<polygon fill="#9a32cd" stroke="#9a32cd" points="337.917,-181.036 328.504,-185.898 338.895,-187.968 337.917,-181.036"/>
<text text-anchor="middle" x="361" y="-177.5" font-family="FreeSans" font-size="10.00"> next_</text>
</g>
</g>
</svg>
