<?xml version="1.0" encoding="UTF-8" standalone="no"?>
<!DOCTYPE svg PUBLIC "-//W3C//DTD SVG 1.1//EN"
 "http://www.w3.org/Graphics/SVG/1.1/DTD/svg11.dtd">
<!-- Generated by graphviz version 2.36.0 (20140111.2315)
 -->
<!-- Title: Urho3D::Drawable2D Pages: 1 -->
<svg width="1706pt" height="801pt"
 viewBox="0.00 0.00 1706.00 801.45" xmlns="http://www.w3.org/2000/svg" xmlns:xlink="http://www.w3.org/1999/xlink">
<g id="graph0" class="graph" transform="scale(1 1) rotate(0) translate(4 797.452)">
<title>Urho3D::Drawable2D</title>
<!-- Node1 -->
<g id="node1" class="node"><title>Node1</title>
<polygon fill="#bfbfbf" stroke="black" points="1580.5,-456.952 1580.5,-475.952 1697.5,-475.952 1697.5,-456.952 1580.5,-456.952"/>
<text text-anchor="middle" x="1639" y="-463.952" font-family="FreeSans" font-size="10.00">Urho3D::Drawable2D</text>
</g>
<!-- Node2 -->
<g id="node2" class="node"><title>Node2</title>
<g id="a_node2"><a xlink:href="class_urho3_d_1_1_drawable.html" target="_top" xlink:title="Base class for visible components. ">
<polygon fill="none" stroke="black" points="822,-523.952 822,-542.952 926,-542.952 926,-523.952 822,-523.952"/>
<text text-anchor="middle" x="874" y="-530.952" font-family="FreeSans" font-size="10.00">Urho3D::Drawable</text>
</a>
</g>
</g>
<!-- Node2&#45;&gt;Node1 -->
<g id="edge1" class="edge"><title>Node2&#45;&gt;Node1</title>
<path fill="none" stroke="midnightblue" d="M923.917,-521.601C965.653,-512.012 1027.4,-499.054 1082,-492.452 1262.84,-470.583 1478.81,-466.823 1580.14,-466.36"/>
<polygon fill="midnightblue" stroke="midnightblue" points="922.966,-518.229 914.016,-523.899 924.549,-525.048 922.966,-518.229"/>
</g>
<!-- Node7 -->
<g id="node7" class="node"><title>Node7</title>
<g id="a_node7"><a xlink:href="class_urho3_d_1_1_zone.html" target="_top" xlink:title="Component that describes global rendering properties. ">
<polygon fill="none" stroke="black" points="1097.5,-587.952 1097.5,-606.952 1182.5,-606.952 1182.5,-587.952 1097.5,-587.952"/>
<text text-anchor="middle" x="1140" y="-594.952" font-family="FreeSans" font-size="10.00">Urho3D::Zone</text>
</a>
</g>
</g>
<!-- Node2&#45;&gt;Node7 -->
<g id="edge10" class="edge"><title>Node2&#45;&gt;Node7</title>
<path fill="none" stroke="midnightblue" d="M936.566,-540.714C973.954,-546.059 1022.34,-554.652 1064,-567.452 1072.37,-570.023 1073.91,-572.097 1082,-575.452 1092.19,-579.679 1103.51,-584.103 1113.35,-587.865"/>
<polygon fill="midnightblue" stroke="midnightblue" points="936.713,-537.201 926.327,-539.292 935.75,-544.135 936.713,-537.201"/>
</g>
<!-- Node17 -->
<g id="node17" class="node"><title>Node17</title>
<g id="a_node17"><a xlink:href="class_urho3_d_1_1_light.html" target="_top" xlink:title="Light component. ">
<polygon fill="none" stroke="black" points="1098.5,-153.952 1098.5,-172.952 1181.5,-172.952 1181.5,-153.952 1098.5,-153.952"/>
<text text-anchor="middle" x="1140" y="-160.952" font-family="FreeSans" font-size="10.00">Urho3D::Light</text>
</a>
</g>
</g>
<!-- Node2&#45;&gt;Node17 -->
<g id="edge26" class="edge"><title>Node2&#45;&gt;Node17</title>
<path fill="none" stroke="midnightblue" d="M885.586,-515.11C902.175,-485.591 934.233,-425.288 952,-370.452 965.38,-329.155 944.152,-309.327 970,-274.452 998.053,-236.601 1024.74,-251.493 1064,-225.452 1088.78,-209.017 1114.94,-185.875 1128.86,-173.017"/>
<polygon fill="midnightblue" stroke="midnightblue" points="882.495,-513.466 880.596,-523.889 888.58,-516.925 882.495,-513.466"/>
</g>
<!-- Node25 -->
<g id="node25" class="node"><title>Node25</title>
<g id="a_node25"><a xlink:href="class_urho3_d_1_1_renderer2_d.html" target="_top" xlink:title="2D renderer component. ">
<polygon fill="none" stroke="red" points="1082,-501.952 1082,-520.952 1198,-520.952 1198,-501.952 1082,-501.952"/>
<text text-anchor="middle" x="1140" y="-508.952" font-family="FreeSans" font-size="10.00">Urho3D::Renderer2D</text>
</a>
</g>
</g>
<!-- Node2&#45;&gt;Node25 -->
<g id="edge44" class="edge"><title>Node2&#45;&gt;Node25</title>
<path fill="none" stroke="midnightblue" d="M936.202,-528.351C980.161,-524.688 1039,-519.785 1081.97,-516.204"/>
<polygon fill="midnightblue" stroke="midnightblue" points="935.89,-524.865 926.215,-529.184 936.471,-531.841 935.89,-524.865"/>
</g>
<!-- Node3 -->
<g id="node3" class="node"><title>Node3</title>
<g id="a_node3"><a xlink:href="class_urho3_d_1_1_component.html" target="_top" xlink:title="Base class for components. Components can be created to scene nodes. ">
<polygon fill="none" stroke="black" points="495,-552.952 495,-571.952 611,-571.952 611,-552.952 495,-552.952"/>
<text text-anchor="middle" x="553" y="-559.952" font-family="FreeSans" font-size="10.00">Urho3D::Component</text>
</a>
</g>
</g>
<!-- Node3&#45;&gt;Node2 -->
<g id="edge2" class="edge"><title>Node3&#45;&gt;Node2</title>
<path fill="none" stroke="midnightblue" d="M621.247,-557.667C665.761,-554.347 725.408,-549.608 778,-544.452 792.211,-543.058 807.595,-541.36 821.76,-539.718"/>
<polygon fill="midnightblue" stroke="midnightblue" points="620.845,-554.187 611.131,-558.416 621.362,-561.168 620.845,-554.187"/>
</g>
<!-- Node4 -->
<g id="node4" class="node"><title>Node4</title>
<g id="a_node4"><a xlink:href="class_urho3_d_1_1_animatable.html" target="_top" xlink:title="Base class for animatable object, an animatable object can be set animation on it&#39;s attributes...">
<polygon fill="none" stroke="red" points="0,-559.952 0,-578.952 114,-578.952 114,-559.952 0,-559.952"/>
<text text-anchor="middle" x="57" y="-566.952" font-family="FreeSans" font-size="10.00">Urho3D::Animatable</text>
</a>
</g>
</g>
<!-- Node4&#45;&gt;Node3 -->
<g id="edge3" class="edge"><title>Node4&#45;&gt;Node3</title>
<path fill="none" stroke="midnightblue" d="M124.226,-568.513C221.797,-567.131 402.551,-564.569 494.723,-563.263"/>
<polygon fill="midnightblue" stroke="midnightblue" points="124.136,-565.014 114.187,-568.655 124.236,-572.013 124.136,-565.014"/>
</g>
<!-- Node5 -->
<g id="node5" class="node"><title>Node5</title>
<g id="a_node5"><a xlink:href="class_urho3_d_1_1_node.html" target="_top" xlink:title="Scene node that may contain components and child nodes. ">
<polygon fill="none" stroke="red" points="250.5,-492.952 250.5,-511.952 335.5,-511.952 335.5,-492.952 250.5,-492.952"/>
<text text-anchor="middle" x="293" y="-499.952" font-family="FreeSans" font-size="10.00">Urho3D::Node</text>
</a>
</g>
</g>
<!-- Node4&#45;&gt;Node5 -->
<g id="edge5" class="edge"><title>Node4&#45;&gt;Node5</title>
<path fill="none" stroke="midnightblue" d="M101.385,-557.03C146.823,-544.019 217.209,-523.866 258.536,-512.033"/>
<polygon fill="midnightblue" stroke="midnightblue" points="100.177,-553.735 91.5265,-559.852 102.104,-560.464 100.177,-553.735"/>
</g>
<!-- Node5&#45;&gt;Node3 -->
<g id="edge4" class="edge"><title>Node5&#45;&gt;Node3</title>
<path fill="none" stroke="#9a32cd" stroke-dasharray="5,2" d="M344.874,-514.283C393.478,-525.586 465.82,-542.41 510.884,-552.89"/>
<polygon fill="#9a32cd" stroke="#9a32cd" points="345.414,-510.815 334.881,-511.959 343.828,-517.633 345.414,-510.815"/>
<text text-anchor="middle" x="419" y="-544.452" font-family="FreeSans" font-size="10.00"> node_</text>
</g>
<!-- Node5&#45;&gt;Node5 -->
<g id="edge6" class="edge"><title>Node5&#45;&gt;Node5</title>
<path fill="none" stroke="#9a32cd" stroke-dasharray="5,2" d="M270.679,-521.481C271.896,-526.58 279.337,-530.452 293,-530.452 314.328,-530.452 320.493,-521.017 311.495,-512.209"/>
<polygon fill="#9a32cd" stroke="#9a32cd" points="273.926,-522.788 274.505,-512.209 267.455,-520.118 273.926,-522.788"/>
<text text-anchor="middle" x="293" y="-533.452" font-family="FreeSans" font-size="10.00"> parent_</text>
</g>
<!-- Node6 -->
<g id="node6" class="node"><title>Node6</title>
<g id="a_node6"><a xlink:href="class_urho3_d_1_1_matrix3x4.html" target="_top" xlink:title="3x4 matrix for scene node transform calculations. ">
<polygon fill="none" stroke="black" points="4,-481.952 4,-500.952 110,-500.952 110,-481.952 4,-481.952"/>
<text text-anchor="middle" x="57" y="-488.952" font-family="FreeSans" font-size="10.00">Urho3D::Matrix3x4</text>
</a>
</g>
</g>
<!-- Node6&#45;&gt;Node5 -->
<g id="edge7" class="edge"><title>Node6&#45;&gt;Node5</title>
<path fill="none" stroke="#9a32cd" stroke-dasharray="5,2" d="M120.421,-494.386C161.583,-496.321 214.362,-498.802 250.447,-500.498"/>
<polygon fill="#9a32cd" stroke="#9a32cd" points="120.376,-490.88 110.223,-493.907 120.048,-497.872 120.376,-490.88"/>
<text text-anchor="middle" x="173" y="-502.452" font-family="FreeSans" font-size="10.00"> worldTransform_</text>
</g>
<!-- Node6&#45;&gt;Node6 -->
<g id="edge8" class="edge"><title>Node6&#45;&gt;Node6</title>
<path fill="none" stroke="#9a32cd" stroke-dasharray="5,2" d="M35.5196,-510.852C36.9541,-515.766 44.1143,-519.452 57,-519.452 77.6172,-519.452 83.5768,-510.017 74.879,-501.209"/>
<polygon fill="#9a32cd" stroke="#9a32cd" points="38.901,-511.801 39.121,-501.209 32.3434,-509.352 38.901,-511.801"/>
<text text-anchor="middle" x="57" y="-533.452" font-family="FreeSans" font-size="10.00"> IDENTITY</text>
<text text-anchor="middle" x="57" y="-522.452" font-family="FreeSans" font-size="10.00">ZERO</text>
</g>
<!-- Node6&#45;&gt;Node7 -->
<g id="edge18" class="edge"><title>Node6&#45;&gt;Node7</title>
<path fill="none" stroke="#9a32cd" stroke-dasharray="5,2" d="M75.0489,-508.42C86.4162,-519.971 101.508,-535.77 114,-550.452 198.221,-649.433 162.037,-782.452 292,-782.452 292,-782.452 292,-782.452 875,-782.452 998.406,-782.452 1105.08,-645.203 1132.3,-607.138"/>
<polygon fill="#9a32cd" stroke="#9a32cd" points="77.3803,-505.801 67.8519,-501.168 72.4117,-510.731 77.3803,-505.801"/>
<text text-anchor="middle" x="553" y="-785.452" font-family="FreeSans" font-size="10.00"> inverseWorld_</text>
</g>
<!-- Node6&#45;&gt;Node17 -->
<g id="edge35" class="edge"><title>Node6&#45;&gt;Node17</title>
<path fill="none" stroke="#9a32cd" stroke-dasharray="5,2" d="M58.9928,-471.588C64.4491,-385.562 98.1698,-49.4516 292,-49.4516 292,-49.4516 292,-49.4516 875,-49.4516 961.452,-49.4516 987.624,-54.947 1064,-95.4516 1092.57,-110.603 1118.82,-139.103 1131.32,-153.936"/>
<polygon fill="#9a32cd" stroke="#9a32cd" points="55.485,-471.625 58.4067,-481.809 62.4735,-472.026 55.485,-471.625"/>
<text text-anchor="middle" x="553" y="-52.4516" font-family="FreeSans" font-size="10.00"> volumeTransform_</text>
</g>
<!-- Node7&#45;&gt;Node2 -->
<g id="edge9" class="edge"><title>Node7&#45;&gt;Node2</title>
<path fill="none" stroke="#9a32cd" stroke-dasharray="5,2" d="M1087.17,-590.557C1053.47,-585.511 1008.76,-577.749 970,-567.452 945.113,-560.839 917.483,-550.61 898.466,-543.098"/>
<polygon fill="#9a32cd" stroke="#9a32cd" points="1086.85,-594.047 1097.25,-592.035 1087.86,-587.122 1086.85,-594.047"/>
<text text-anchor="middle" x="1017" y="-590.452" font-family="FreeSans" font-size="10.00"> zone_</text>
</g>
<!-- Node8 -->
<g id="node8" class="node"><title>Node8</title>
<g id="a_node8"><a xlink:href="class_urho3_d_1_1_weak_ptr.html" target="_top" xlink:title="Urho3D::WeakPtr\&lt; Urho3D\l::Zone \&gt;">
<polygon fill="none" stroke="black" points="1348,-586.452 1348,-616.452 1494,-616.452 1494,-586.452 1348,-586.452"/>
<text text-anchor="start" x="1356" y="-604.452" font-family="FreeSans" font-size="10.00">Urho3D::WeakPtr&lt; Urho3D</text>
<text text-anchor="middle" x="1421" y="-593.452" font-family="FreeSans" font-size="10.00">::Zone &gt;</text>
</a>
</g>
</g>
<!-- Node7&#45;&gt;Node8 -->
<g id="edge12" class="edge"><title>Node7&#45;&gt;Node8</title>
<path fill="none" stroke="#9a32cd" stroke-dasharray="5,2" d="M1192.87,-598.195C1236.49,-598.821 1299.3,-599.721 1347.83,-600.417"/>
<polygon fill="#9a32cd" stroke="#9a32cd" points="1192.82,-594.694 1182.77,-598.05 1192.72,-601.694 1192.82,-594.694"/>
<text text-anchor="middle" x="1273" y="-603.452" font-family="FreeSans" font-size="10.00"> ptr_</text>
</g>
<!-- Node8&#45;&gt;Node7 -->
<g id="edge11" class="edge"><title>Node8&#45;&gt;Node7</title>
<path fill="none" stroke="#9a32cd" stroke-dasharray="5,2" d="M1337.74,-612.869C1335.13,-613.087 1332.55,-613.283 1330,-613.452 1279.44,-616.807 1266.39,-618.766 1216,-613.452 1203.55,-612.139 1190.14,-609.633 1178.14,-606.987"/>
<polygon fill="#9a32cd" stroke="#9a32cd" points="1338.24,-616.337 1347.87,-611.924 1337.59,-609.367 1338.24,-616.337"/>
<text text-anchor="start" x="1216.5" y="-642.452" font-family="FreeSans" font-size="10.00"> lastAmbientEndZone</text>
<text text-anchor="middle" x="1273" y="-631.452" font-family="FreeSans" font-size="10.00">_</text>
<text text-anchor="middle" x="1273" y="-620.452" font-family="FreeSans" font-size="10.00">lastAmbientStartZone_</text>
</g>
<!-- Node9 -->
<g id="node9" class="node"><title>Node9</title>
<g id="a_node9"><a xlink:href="struct_urho3_d_1_1_ref_count.html" target="_top" xlink:title="Reference count structure. ">
<polygon fill="none" stroke="black" points="1089,-546.952 1089,-565.952 1191,-565.952 1191,-546.952 1089,-546.952"/>
<text text-anchor="middle" x="1140" y="-553.952" font-family="FreeSans" font-size="10.00">Urho3D::RefCount</text>
</a>
</g>
</g>
<!-- Node9&#45;&gt;Node8 -->
<g id="edge13" class="edge"><title>Node9&#45;&gt;Node8</title>
<path fill="none" stroke="#9a32cd" stroke-dasharray="5,2" d="M1201.39,-564.776C1238.54,-570.052 1287.1,-577.224 1330,-584.452 1335.8,-585.429 1341.81,-586.479 1347.83,-587.56"/>
<polygon fill="#9a32cd" stroke="#9a32cd" points="1201.62,-561.274 1191.22,-563.34 1200.64,-568.205 1201.62,-561.274"/>
<text text-anchor="middle" x="1273" y="-587.452" font-family="FreeSans" font-size="10.00"> refCount_</text>
</g>
<!-- Node24 -->
<g id="node24" class="node"><title>Node24</title>
<g id="a_node24"><a xlink:href="class_urho3_d_1_1_weak_ptr.html" target="_top" xlink:title="Urho3D::WeakPtr\&lt; Urho3D\l::Renderer2D \&gt;">
<polygon fill="none" stroke="black" points="1348,-495.452 1348,-525.452 1494,-525.452 1494,-495.452 1348,-495.452"/>
<text text-anchor="start" x="1356" y="-513.452" font-family="FreeSans" font-size="10.00">Urho3D::WeakPtr&lt; Urho3D</text>
<text text-anchor="middle" x="1421" y="-502.452" font-family="FreeSans" font-size="10.00">::Renderer2D &gt;</text>
</a>
</g>
</g>
<!-- Node9&#45;&gt;Node24 -->
<g id="edge45" class="edge"><title>Node9&#45;&gt;Node24</title>
<path fill="none" stroke="#9a32cd" stroke-dasharray="5,2" d="M1201.25,-546.518C1244.29,-539.421 1302.4,-529.841 1347.91,-522.338"/>
<polygon fill="#9a32cd" stroke="#9a32cd" points="1200.5,-543.094 1191.2,-548.175 1201.64,-550.001 1200.5,-543.094"/>
<text text-anchor="middle" x="1273" y="-546.452" font-family="FreeSans" font-size="10.00"> refCount_</text>
</g>
<!-- Node10 -->
<g id="node10" class="node"><title>Node10</title>
<g id="a_node10"><a xlink:href="class_urho3_d_1_1_shared_ptr.html" target="_top" xlink:title="Urho3D::SharedPtr\&lt;\l Urho3D::Texture \&gt;">
<polygon fill="none" stroke="red" points="816,-331.452 816,-361.452 932,-361.452 932,-331.452 816,-331.452"/>
<text text-anchor="start" x="824" y="-349.452" font-family="FreeSans" font-size="10.00">Urho3D::SharedPtr&lt;</text>
<text text-anchor="middle" x="874" y="-338.452" font-family="FreeSans" font-size="10.00"> Urho3D::Texture &gt;</text>
</a>
</g>
</g>
<!-- Node10&#45;&gt;Node7 -->
<g id="edge14" class="edge"><title>Node10&#45;&gt;Node7</title>
<path fill="none" stroke="#9a32cd" stroke-dasharray="5,2" d="M939.005,-364.224C949.355,-367.024 959.965,-369.851 970,-372.452 1011.64,-383.241 1035.79,-362.982 1064,-395.452 1090.36,-425.799 1057.64,-543.475 1082,-575.452 1086.05,-580.767 1091.56,-584.799 1097.56,-587.857"/>
<polygon fill="#9a32cd" stroke="#9a32cd" points="939.757,-360.801 929.189,-361.556 937.921,-367.556 939.757,-360.801"/>
<text text-anchor="middle" x="1017" y="-398.452" font-family="FreeSans" font-size="10.00"> zoneTexture_</text>
</g>
<!-- Node10&#45;&gt;Node17 -->
<g id="edge33" class="edge"><title>Node10&#45;&gt;Node17</title>
<path fill="none" stroke="#9a32cd" stroke-dasharray="5,2" d="M940.965,-331.133C945.072,-328.412 948.822,-325.212 952,-321.452 987.379,-279.59 932.492,-239.416 970,-199.452 974.427,-194.735 1049.62,-180.029 1098.2,-170.938"/>
<polygon fill="#9a32cd" stroke="#9a32cd" points="939.134,-328.147 932.106,-336.075 942.544,-334.26 939.134,-328.147"/>
<text text-anchor="middle" x="1017" y="-213.452" font-family="FreeSans" font-size="10.00"> shapeTexture_</text>
<text text-anchor="middle" x="1017" y="-202.452" font-family="FreeSans" font-size="10.00">rampTexture_</text>
</g>
<!-- Node11 -->
<g id="node11" class="node"><title>Node11</title>
<g id="a_node11"><a xlink:href="class_urho3_d_1_1_bounding_box.html" target="_top" xlink:title="Three&#45;dimensional axis&#45;aligned bounding box. ">
<polygon fill="none" stroke="red" points="232,-676.952 232,-695.952 354,-695.952 354,-676.952 232,-676.952"/>
<text text-anchor="middle" x="293" y="-683.952" font-family="FreeSans" font-size="10.00">Urho3D::BoundingBox</text>
</a>
</g>
</g>
<!-- Node11&#45;&gt;Node2 -->
<g id="edge36" class="edge"><title>Node11&#45;&gt;Node2</title>
<path fill="none" stroke="#9a32cd" stroke-dasharray="5,2" d="M364.224,-688.151C462.554,-687.626 644.213,-675.878 778,-604.452 811.24,-586.705 845.502,-558.05 862.34,-543.15"/>
<polygon fill="#9a32cd" stroke="#9a32cd" points="364.098,-684.651 354.103,-688.166 364.109,-691.651 364.098,-684.651"/>
<text text-anchor="middle" x="553" y="-696.452" font-family="FreeSans" font-size="10.00"> worldBoundingBox_</text>
<text text-anchor="middle" x="553" y="-685.452" font-family="FreeSans" font-size="10.00">boundingBox_</text>
</g>
<!-- Node11&#45;&gt;Node7 -->
<g id="edge15" class="edge"><title>Node11&#45;&gt;Node7</title>
<path fill="none" stroke="#9a32cd" stroke-dasharray="5,2" d="M352.699,-697.676C359.197,-698.713 365.729,-699.667 372,-700.452 421.519,-706.646 434.127,-706.673 484,-708.452 545.294,-710.638 561.009,-714.925 622,-708.452 808.003,-688.709 1025.42,-630.079 1106.43,-606.969"/>
<polygon fill="#9a32cd" stroke="#9a32cd" points="352.998,-694.178 342.56,-695.991 351.85,-701.083 352.998,-694.178"/>
<text text-anchor="middle" x="709" y="-709.452" font-family="FreeSans" font-size="10.00"> lastWorldBoundingBox_</text>
</g>
<!-- Node22 -->
<g id="node22" class="node"><title>Node22</title>
<g id="a_node22"><a xlink:href="class_urho3_d_1_1_octant.html" target="_top" xlink:title="Octree octant ">
<polygon fill="none" stroke="red" points="507,-590.952 507,-609.952 599,-609.952 599,-590.952 507,-590.952"/>
<text text-anchor="middle" x="553" y="-597.952" font-family="FreeSans" font-size="10.00">Urho3D::Octant</text>
</a>
</g>
</g>
<!-- Node11&#45;&gt;Node22 -->
<g id="edge38" class="edge"><title>Node11&#45;&gt;Node22</title>
<path fill="none" stroke="#9a32cd" stroke-dasharray="5,2" d="M321.618,-672.379C336.334,-665.221 354.886,-656.731 372,-650.452 418.433,-633.414 473.421,-618.932 510.294,-610.007"/>
<polygon fill="#9a32cd" stroke="#9a32cd" points="319.972,-669.288 312.555,-676.853 323.071,-675.565 319.972,-669.288"/>
<text text-anchor="middle" x="419" y="-664.452" font-family="FreeSans" font-size="10.00"> cullingBox_</text>
<text text-anchor="middle" x="419" y="-653.452" font-family="FreeSans" font-size="10.00">worldBoundingBox_</text>
</g>
<!-- Node12 -->
<g id="node12" class="node"><title>Node12</title>
<g id="a_node12"><a xlink:href="class_urho3_d_1_1_color.html" target="_top" xlink:title="RGBA color. ">
<polygon fill="none" stroke="black" points="832,-153.952 832,-172.952 916,-172.952 916,-153.952 832,-153.952"/>
<text text-anchor="middle" x="874" y="-160.952" font-family="FreeSans" font-size="10.00">Urho3D::Color</text>
</a>
</g>
</g>
<!-- Node12&#45;&gt;Node7 -->
<g id="edge16" class="edge"><title>Node12&#45;&gt;Node7</title>
<path fill="none" stroke="#9a32cd" stroke-dasharray="5,2" d="M882.315,-183.028C895.048,-214.243 924.372,-274.881 970,-305.452 1005.41,-329.176 1035.85,-292.449 1064,-324.452 1100.94,-366.439 1048.74,-530.498 1082,-575.452 1085.97,-580.824 1091.45,-584.884 1097.43,-587.953"/>
<polygon fill="#9a32cd" stroke="#9a32cd" points="885.413,-181.342 878.503,-173.311 878.897,-183.898 885.413,-181.342"/>
<text text-anchor="middle" x="1017" y="-360.452" font-family="FreeSans" font-size="10.00"> ambientEndColor_</text>
<text text-anchor="middle" x="1017" y="-349.452" font-family="FreeSans" font-size="10.00">fogColor_</text>
<text text-anchor="middle" x="1017" y="-338.452" font-family="FreeSans" font-size="10.00">ambientColor_</text>
<text text-anchor="middle" x="1017" y="-327.452" font-family="FreeSans" font-size="10.00">ambientStartColor_</text>
</g>
<!-- Node12&#45;&gt;Node12 -->
<g id="edge17" class="edge"><title>Node12&#45;&gt;Node12</title>
<path fill="none" stroke="#9a32cd" stroke-dasharray="5,2" d="M847.494,-182.106C848.602,-187.388 857.437,-191.452 874,-191.452 899.238,-191.452 906.534,-182.017 895.886,-173.209"/>
<polygon fill="#9a32cd" stroke="#9a32cd" points="850.612,-183.696 852.114,-173.209 844.399,-180.471 850.612,-183.696"/>
<text text-anchor="middle" x="874" y="-304.452" font-family="FreeSans" font-size="10.00"> CYAN</text>
<text text-anchor="middle" x="874" y="-293.452" font-family="FreeSans" font-size="10.00">GRAY</text>
<text text-anchor="middle" x="874" y="-282.452" font-family="FreeSans" font-size="10.00">YELLOW</text>
<text text-anchor="middle" x="874" y="-271.452" font-family="FreeSans" font-size="10.00">MAGENTA</text>
<text text-anchor="middle" x="874" y="-260.452" font-family="FreeSans" font-size="10.00">WHITE</text>
<text text-anchor="middle" x="874" y="-249.452" font-family="FreeSans" font-size="10.00">TRANSPARENT</text>
<text text-anchor="middle" x="874" y="-238.452" font-family="FreeSans" font-size="10.00">BLUE</text>
<text text-anchor="middle" x="874" y="-227.452" font-family="FreeSans" font-size="10.00">BLACK</text>
<text text-anchor="middle" x="874" y="-216.452" font-family="FreeSans" font-size="10.00">RED</text>
<text text-anchor="middle" x="874" y="-205.452" font-family="FreeSans" font-size="10.00">GREEN</text>
<text text-anchor="middle" x="874" y="-194.452" font-family="FreeSans" font-size="10.00">...</text>
</g>
<!-- Node12&#45;&gt;Node17 -->
<g id="edge34" class="edge"><title>Node12&#45;&gt;Node17</title>
<path fill="none" stroke="#9a32cd" stroke-dasharray="5,2" d="M926.265,-163.452C976.559,-163.452 1052.24,-163.452 1098.47,-163.452"/>
<polygon fill="#9a32cd" stroke="#9a32cd" points="926.25,-159.952 916.25,-163.452 926.25,-166.952 926.25,-159.952"/>
<text text-anchor="middle" x="1017" y="-166.452" font-family="FreeSans" font-size="10.00"> color_</text>
</g>
<!-- Node13 -->
<g id="node13" class="node"><title>Node13</title>
<g id="a_node13"><a xlink:href="class_urho3_d_1_1_p_o_d_vector.html" target="_top" xlink:title="Urho3D::PODVector\&lt;\l Urho3D::Light * \&gt;">
<polygon fill="none" stroke="black" points="493.5,-405.452 493.5,-435.452 612.5,-435.452 612.5,-405.452 493.5,-405.452"/>
<text text-anchor="start" x="501.5" y="-423.452" font-family="FreeSans" font-size="10.00">Urho3D::PODVector&lt;</text>
<text text-anchor="middle" x="553" y="-412.452" font-family="FreeSans" font-size="10.00"> Urho3D::Light * &gt;</text>
</a>
</g>
</g>
<!-- Node13&#45;&gt;Node2 -->
<g id="edge19" class="edge"><title>Node13&#45;&gt;Node2</title>
<path fill="none" stroke="#9a32cd" stroke-dasharray="5,2" d="M622.622,-432.468C628.499,-433.483 634.353,-434.489 640,-435.452 701.294,-445.905 721.142,-433.284 778,-458.452 814.124,-474.442 848.425,-507.394 864.099,-523.772"/>
<polygon fill="#9a32cd" stroke="#9a32cd" points="623.192,-429.015 612.742,-430.758 621.998,-435.912 623.192,-429.015"/>
<text text-anchor="middle" x="709" y="-472.452" font-family="FreeSans" font-size="10.00"> vertexLights_</text>
<text text-anchor="middle" x="709" y="-461.452" font-family="FreeSans" font-size="10.00">lights_</text>
</g>
<!-- Node19 -->
<g id="node19" class="node"><title>Node19</title>
<g id="a_node19"><a xlink:href="struct_urho3_d_1_1_light_batch_queue.html" target="_top" xlink:title="Queue for light related draw calls. ">
<polygon fill="none" stroke="red" points="1350,-187.952 1350,-206.952 1492,-206.952 1492,-187.952 1350,-187.952"/>
<text text-anchor="middle" x="1421" y="-194.952" font-family="FreeSans" font-size="10.00">Urho3D::LightBatchQueue</text>
</a>
</g>
</g>
<!-- Node13&#45;&gt;Node19 -->
<g id="edge29" class="edge"><title>Node13&#45;&gt;Node19</title>
<path fill="none" stroke="#9a32cd" stroke-dasharray="5,2" d="M623.03,-429.243C722.636,-439.558 911.452,-450.178 1064,-406.452 1214.19,-363.401 1366.74,-242.113 1408.72,-207.054"/>
<polygon fill="#9a32cd" stroke="#9a32cd" points="623.111,-425.732 612.796,-428.152 622.368,-432.693 623.111,-425.732"/>
<text text-anchor="middle" x="1017" y="-429.452" font-family="FreeSans" font-size="10.00"> vertexLights_</text>
</g>
<!-- Node14 -->
<g id="node14" class="node"><title>Node14</title>
<g id="a_node14"><a xlink:href="class_urho3_d_1_1_vector_base.html" target="_top" xlink:title="Vector base class. ">
<polygon fill="none" stroke="black" points="236,-427.952 236,-446.952 350,-446.952 350,-427.952 236,-427.952"/>
<text text-anchor="middle" x="293" y="-434.952" font-family="FreeSans" font-size="10.00">Urho3D::VectorBase</text>
</a>
</g>
</g>
<!-- Node14&#45;&gt;Node13 -->
<g id="edge20" class="edge"><title>Node14&#45;&gt;Node13</title>
<path fill="none" stroke="midnightblue" d="M360.473,-433.072C401.484,-430.369 453.615,-426.934 493.132,-424.33"/>
<polygon fill="midnightblue" stroke="midnightblue" points="360.049,-429.592 350.3,-433.742 360.509,-436.577 360.049,-429.592"/>
</g>
<!-- Node15 -->
<g id="node15" class="node"><title>Node15</title>
<g id="a_node15"><a xlink:href="class_urho3_d_1_1_p_o_d_vector.html" target="_top" xlink:title="Urho3D::PODVector\&lt;\l Urho3D::Camera * \&gt;">
<polygon fill="none" stroke="black" points="493,-454.452 493,-484.452 613,-484.452 613,-454.452 493,-454.452"/>
<text text-anchor="start" x="501" y="-472.452" font-family="FreeSans" font-size="10.00">Urho3D::PODVector&lt;</text>
<text text-anchor="middle" x="553" y="-461.452" font-family="FreeSans" font-size="10.00"> Urho3D::Camera * &gt;</text>
</a>
</g>
</g>
<!-- Node14&#45;&gt;Node15 -->
<g id="edge22" class="edge"><title>Node14&#45;&gt;Node15</title>
<path fill="none" stroke="midnightblue" d="M360.436,-445.692C401.296,-450.76 453.207,-457.198 492.681,-462.094"/>
<polygon fill="midnightblue" stroke="midnightblue" points="360.655,-442.192 350.3,-444.435 359.794,-449.139 360.655,-442.192"/>
</g>
<!-- Node16 -->
<g id="node16" class="node"><title>Node16</title>
<g id="a_node16"><a xlink:href="class_urho3_d_1_1_vector.html" target="_top" xlink:title="Urho3D::Vector\&lt; Urho3D\l::SourceBatch \&gt;">
<polygon fill="none" stroke="black" points="484,-503.452 484,-533.452 622,-533.452 622,-503.452 484,-503.452"/>
<text text-anchor="start" x="492" y="-521.452" font-family="FreeSans" font-size="10.00">Urho3D::Vector&lt; Urho3D</text>
<text text-anchor="middle" x="553" y="-510.452" font-family="FreeSans" font-size="10.00">::SourceBatch &gt;</text>
</a>
</g>
</g>
<!-- Node14&#45;&gt;Node16 -->
<g id="edge24" class="edge"><title>Node14&#45;&gt;Node16</title>
<path fill="none" stroke="midnightblue" d="M327.892,-450.681C341.518,-455.834 357.426,-461.645 372,-466.452 413.085,-480.003 460.064,-493.509 495.724,-503.359"/>
<polygon fill="midnightblue" stroke="midnightblue" points="329.016,-447.363 318.425,-447.068 326.52,-453.903 329.016,-447.363"/>
</g>
<!-- Node23 -->
<g id="node23" class="node"><title>Node23</title>
<g id="a_node23"><a xlink:href="class_urho3_d_1_1_vector.html" target="_top" xlink:title="Urho3D::Vector\&lt; Urho3D\l::SourceBatch2D \&gt;">
<polygon fill="none" stroke="black" points="640,-370.452 640,-400.452 778,-400.452 778,-370.452 640,-370.452"/>
<text text-anchor="start" x="648" y="-388.452" font-family="FreeSans" font-size="10.00">Urho3D::Vector&lt; Urho3D</text>
<text text-anchor="middle" x="709" y="-377.452" font-family="FreeSans" font-size="10.00">::SourceBatch2D &gt;</text>
</a>
</g>
</g>
<!-- Node14&#45;&gt;Node23 -->
<g id="edge41" class="edge"><title>Node14&#45;&gt;Node23</title>
<path fill="none" stroke="midnightblue" d="M338.491,-425.327C376.752,-415.453 433.578,-402.099 484,-395.452 535.908,-388.608 595.104,-386.195 639.602,-385.446"/>
<polygon fill="midnightblue" stroke="midnightblue" points="337.489,-421.971 328.697,-427.883 339.257,-428.744 337.489,-421.971"/>
</g>
<!-- Node15&#45;&gt;Node2 -->
<g id="edge21" class="edge"><title>Node15&#45;&gt;Node2</title>
<path fill="none" stroke="#9a32cd" stroke-dasharray="5,2" d="M623.325,-479.963C667.728,-487.079 726.478,-497.208 778,-508.452 798.495,-512.924 821.226,-518.87 839.314,-523.841"/>
<polygon fill="#9a32cd" stroke="#9a32cd" points="623.646,-476.47 613.22,-478.355 622.546,-483.383 623.646,-476.47"/>
<text text-anchor="middle" x="709" y="-511.452" font-family="FreeSans" font-size="10.00"> viewCameras_</text>
</g>
<!-- Node16&#45;&gt;Node2 -->
<g id="edge23" class="edge"><title>Node16&#45;&gt;Node2</title>
<path fill="none" stroke="#9a32cd" stroke-dasharray="5,2" d="M632.082,-522.123C691.164,-524.901 770.611,-528.637 821.82,-531.045"/>
<polygon fill="#9a32cd" stroke="#9a32cd" points="632.196,-518.625 622.042,-521.651 631.867,-525.617 632.196,-518.625"/>
<text text-anchor="middle" x="709" y="-532.452" font-family="FreeSans" font-size="10.00"> batches_</text>
</g>
<!-- Node17&#45;&gt;Node2 -->
<g id="edge25" class="edge"><title>Node17&#45;&gt;Node2</title>
<path fill="none" stroke="#9a32cd" stroke-dasharray="5,2" d="M1115.44,-179.327C1103.91,-188.167 1090.68,-200.078 1082,-213.452 1067.3,-236.09 1083.66,-252.957 1064,-271.452 1032.67,-300.924 1000.3,-263.926 970,-294.452 945.546,-319.088 963.476,-337.691 952,-370.452 930.789,-431.003 894.172,-499.102 880.425,-523.831"/>
<polygon fill="#9a32cd" stroke="#9a32cd" points="1117.81,-181.924 1123.82,-173.194 1113.68,-176.276 1117.81,-181.924"/>
<text text-anchor="middle" x="1017" y="-297.452" font-family="FreeSans" font-size="10.00"> firstLight_</text>
</g>
<!-- Node17&#45;&gt;Node19 -->
<g id="edge30" class="edge"><title>Node17&#45;&gt;Node19</title>
<path fill="none" stroke="#9a32cd" stroke-dasharray="5,2" d="M1191.88,-171.952C1199.94,-173.195 1208.19,-174.406 1216,-175.452 1260.31,-181.382 1310.2,-186.785 1349.56,-190.752"/>
<polygon fill="#9a32cd" stroke="#9a32cd" points="1192.24,-168.466 1181.82,-170.371 1191.15,-175.381 1192.24,-168.466"/>
<text text-anchor="middle" x="1273" y="-191.452" font-family="FreeSans" font-size="10.00"> light_</text>
</g>
<!-- Node18 -->
<g id="node18" class="node"><title>Node18</title>
<g id="a_node18"><a xlink:href="struct_urho3_d_1_1_cascade_parameters.html" target="_top" xlink:title="Cascaded shadow map parameters. ">
<polygon fill="none" stroke="black" points="796,-1.95159 796,-20.9516 952,-20.9516 952,-1.95159 796,-1.95159"/>
<text text-anchor="middle" x="874" y="-8.95159" font-family="FreeSans" font-size="10.00">Urho3D::CascadeParameters</text>
</a>
</g>
</g>
<!-- Node18&#45;&gt;Node17 -->
<g id="edge27" class="edge"><title>Node18&#45;&gt;Node17</title>
<path fill="none" stroke="#9a32cd" stroke-dasharray="5,2" d="M940.032,-1.04964C978.938,1.75252 1027.71,-1.06834 1064,-24.4516 1111.95,-55.3416 1131.49,-127.797 1137.14,-153.882"/>
<polygon fill="#9a32cd" stroke="#9a32cd" points="939.518,2.41911 929.854,-1.92491 940.117,-4.55515 939.518,2.41911"/>
<text text-anchor="middle" x="1017" y="-27.4516" font-family="FreeSans" font-size="10.00"> shadowCascade_</text>
</g>
<!-- Node19&#45;&gt;Node17 -->
<g id="edge28" class="edge"><title>Node19&#45;&gt;Node17</title>
<path fill="none" stroke="#9a32cd" stroke-dasharray="5,2" d="M1390.68,-183.769C1373.43,-176.468 1350.95,-168.228 1330,-164.452 1279.46,-155.34 1220.08,-156.995 1181.56,-159.658"/>
<polygon fill="#9a32cd" stroke="#9a32cd" points="1389.62,-187.124 1400.19,-187.918 1392.42,-180.709 1389.62,-187.124"/>
<text text-anchor="middle" x="1273" y="-167.452" font-family="FreeSans" font-size="10.00"> lightQueue_</text>
</g>
<!-- Node20 -->
<g id="node20" class="node"><title>Node20</title>
<g id="a_node20"><a xlink:href="struct_urho3_d_1_1_focus_parameters.html" target="_top" xlink:title="Shadow map focusing parameters. ">
<polygon fill="none" stroke="black" points="802.5,-115.952 802.5,-134.952 945.5,-134.952 945.5,-115.952 802.5,-115.952"/>
<text text-anchor="middle" x="874" y="-122.952" font-family="FreeSans" font-size="10.00">Urho3D::FocusParameters</text>
</a>
</g>
</g>
<!-- Node20&#45;&gt;Node17 -->
<g id="edge31" class="edge"><title>Node20&#45;&gt;Node17</title>
<path fill="none" stroke="#9a32cd" stroke-dasharray="5,2" d="M955.85,-133.917C989.392,-137.785 1028.66,-142.775 1064,-148.452 1075.14,-150.241 1087.16,-152.496 1098.23,-154.71"/>
<polygon fill="#9a32cd" stroke="#9a32cd" points="955.967,-130.408 945.635,-132.753 955.175,-137.363 955.967,-130.408"/>
<text text-anchor="middle" x="1017" y="-151.452" font-family="FreeSans" font-size="10.00"> shadowFocus_</text>
</g>
<!-- Node21 -->
<g id="node21" class="node"><title>Node21</title>
<g id="a_node21"><a xlink:href="struct_urho3_d_1_1_bias_parameters.html" target="_top" xlink:title="Depth bias parameters. Used both by lights (for shadow mapping) and materials. ">
<polygon fill="none" stroke="black" points="806.5,-77.9516 806.5,-96.9516 941.5,-96.9516 941.5,-77.9516 806.5,-77.9516"/>
<text text-anchor="middle" x="874" y="-84.9516" font-family="FreeSans" font-size="10.00">Urho3D::BiasParameters</text>
</a>
</g>
</g>
<!-- Node21&#45;&gt;Node17 -->
<g id="edge32" class="edge"><title>Node21&#45;&gt;Node17</title>
<path fill="none" stroke="#9a32cd" stroke-dasharray="5,2" d="M951.712,-95.3601C986.668,-100.448 1028.15,-108.6 1064,-121.452 1086.76,-129.611 1110.75,-144.262 1125.3,-153.922"/>
<polygon fill="#9a32cd" stroke="#9a32cd" points="951.952,-91.8597 941.564,-93.9415 950.983,-98.7923 951.952,-91.8597"/>
<text text-anchor="middle" x="1017" y="-124.452" font-family="FreeSans" font-size="10.00"> shadowBias_</text>
</g>
<!-- Node22&#45;&gt;Node2 -->
<g id="edge37" class="edge"><title>Node22&#45;&gt;Node2</title>
<path fill="none" stroke="#9a32cd" stroke-dasharray="5,2" d="M609.019,-594.045C654.657,-588.151 721.054,-578.23 778,-564.452 801.945,-558.658 828.555,-549.754 847.507,-542.972"/>
<polygon fill="#9a32cd" stroke="#9a32cd" points="608.513,-590.581 599.034,-595.313 609.395,-597.525 608.513,-590.581"/>
<text text-anchor="middle" x="709" y="-592.452" font-family="FreeSans" font-size="10.00"> octant_</text>
</g>
<!-- Node22&#45;&gt;Node22 -->
<g id="edge39" class="edge"><title>Node22&#45;&gt;Node22</title>
<path fill="none" stroke="#9a32cd" stroke-dasharray="5,2" d="M528.075,-619.481C529.434,-624.58 537.743,-628.452 553,-628.452 576.816,-628.452 583.701,-619.017 573.653,-610.209"/>
<polygon fill="#9a32cd" stroke="#9a32cd" points="531.341,-620.756 532.347,-610.209 524.983,-617.826 531.341,-620.756"/>
<text text-anchor="middle" x="553" y="-642.452" font-family="FreeSans" font-size="10.00"> parent_</text>
<text text-anchor="middle" x="553" y="-631.452" font-family="FreeSans" font-size="10.00">children_</text>
</g>
<!-- Node23&#45;&gt;Node1 -->
<g id="edge40" class="edge"><title>Node23&#45;&gt;Node1</title>
<path fill="none" stroke="#9a32cd" stroke-dasharray="5,2" d="M779.922,-402.166C833.609,-410.541 906.096,-411.519 952,-370.452 986.634,-339.466 934.423,-297.35 970,-267.452 1001.98,-240.573 1022.8,-260.513 1064,-267.452 1290.21,-305.552 1546.38,-422.557 1618.31,-456.888"/>
<polygon fill="#9a32cd" stroke="#9a32cd" points="780.23,-398.668 769.789,-400.463 779.071,-405.572 780.23,-398.668"/>
<text text-anchor="middle" x="1140" y="-299.452" font-family="FreeSans" font-size="10.00"> sourceBatches_</text>
</g>
<!-- Node24&#45;&gt;Node1 -->
<g id="edge42" class="edge"><title>Node24&#45;&gt;Node1</title>
<path fill="none" stroke="#9a32cd" stroke-dasharray="5,2" d="M1504.11,-493.725C1533.61,-487.716 1565.85,-481.149 1591.3,-475.965"/>
<polygon fill="#9a32cd" stroke="#9a32cd" points="1503.33,-490.313 1494.23,-495.739 1504.72,-497.172 1503.33,-490.313"/>
<text text-anchor="middle" x="1537" y="-494.452" font-family="FreeSans" font-size="10.00"> renderer_</text>
</g>
<!-- Node25&#45;&gt;Node24 -->
<g id="edge43" class="edge"><title>Node25&#45;&gt;Node24</title>
<path fill="none" stroke="#9a32cd" stroke-dasharray="5,2" d="M1208.31,-501.102C1210.9,-500.855 1213.47,-500.636 1216,-500.452 1266.53,-496.766 1279.41,-497.65 1330,-500.452 1335.81,-500.773 1341.82,-501.211 1347.85,-501.724"/>
<polygon fill="#9a32cd" stroke="#9a32cd" points="1207.8,-497.636 1198.23,-502.181 1208.55,-504.596 1207.8,-497.636"/>
<text text-anchor="middle" x="1273" y="-503.452" font-family="FreeSans" font-size="10.00"> ptr_</text>
</g>
</g>
</svg>
