<?xml version="1.0" encoding="UTF-8" standalone="no"?>
<!DOCTYPE svg PUBLIC "-//W3C//DTD SVG 1.1//EN"
 "http://www.w3.org/Graphics/SVG/1.1/DTD/svg11.dtd">
<!-- Generated by graphviz version 2.36.0 (20140111.2315)
 -->
<!-- Title: Urho3D::ConstraintPrismatic2D Pages: 1 -->
<svg width="174pt" height="364pt"
 viewBox="0.00 0.00 174.00 364.00" xmlns="http://www.w3.org/2000/svg" xmlns:xlink="http://www.w3.org/1999/xlink">
<g id="graph0" class="graph" transform="scale(1 1) rotate(0) translate(4 360)">
<title>Urho3D::ConstraintPrismatic2D</title>
<!-- Node1 -->
<g id="node1" class="node"><title>Node1</title>
<polygon fill="#bfbfbf" stroke="black" points="-0.5,-0.5 -0.5,-19.5 166.5,-19.5 166.5,-0.5 -0.5,-0.5"/>
<text text-anchor="middle" x="83" y="-7.5" font-family="FreeSans" font-size="10.00">Urho3D::ConstraintPrismatic2D</text>
</g>
<!-- Node2 -->
<g id="node2" class="node"><title>Node2</title>
<g id="a_node2"><a xlink:href="class_urho3_d_1_1_constraint2_d.html" target="_top" xlink:title="2D physics constraint component. ">
<polygon fill="none" stroke="black" points="22,-56.5 22,-75.5 144,-75.5 144,-56.5 22,-56.5"/>
<text text-anchor="middle" x="83" y="-63.5" font-family="FreeSans" font-size="10.00">Urho3D::Constraint2D</text>
</a>
</g>
</g>
<!-- Node2&#45;&gt;Node1 -->
<g id="edge1" class="edge"><title>Node2&#45;&gt;Node1</title>
<path fill="none" stroke="midnightblue" d="M83,-45.8045C83,-36.9102 83,-26.7798 83,-19.7511"/>
<polygon fill="midnightblue" stroke="midnightblue" points="79.5001,-46.083 83,-56.083 86.5001,-46.083 79.5001,-46.083"/>
</g>
<!-- Node3 -->
<g id="node3" class="node"><title>Node3</title>
<g id="a_node3"><a xlink:href="class_urho3_d_1_1_component.html" target="_top" xlink:title="Base class for components. Components can be created to scene nodes. ">
<polygon fill="none" stroke="black" points="25,-112.5 25,-131.5 141,-131.5 141,-112.5 25,-112.5"/>
<text text-anchor="middle" x="83" y="-119.5" font-family="FreeSans" font-size="10.00">Urho3D::Component</text>
</a>
</g>
</g>
<!-- Node3&#45;&gt;Node2 -->
<g id="edge2" class="edge"><title>Node3&#45;&gt;Node2</title>
<path fill="none" stroke="midnightblue" d="M83,-101.805C83,-92.9102 83,-82.7798 83,-75.7511"/>
<polygon fill="midnightblue" stroke="midnightblue" points="79.5001,-102.083 83,-112.083 86.5001,-102.083 79.5001,-102.083"/>
</g>
<!-- Node4 -->
<g id="node4" class="node"><title>Node4</title>
<g id="a_node4"><a xlink:href="class_urho3_d_1_1_animatable.html" target="_top" xlink:title="Base class for animatable object, an animatable object can be set animation on it&#39;s attributes...">
<polygon fill="none" stroke="black" points="26,-168.5 26,-187.5 140,-187.5 140,-168.5 26,-168.5"/>
<text text-anchor="middle" x="83" y="-175.5" font-family="FreeSans" font-size="10.00">Urho3D::Animatable</text>
</a>
</g>
</g>
<!-- Node4&#45;&gt;Node3 -->
<g id="edge3" class="edge"><title>Node4&#45;&gt;Node3</title>
<path fill="none" stroke="midnightblue" d="M83,-157.805C83,-148.91 83,-138.78 83,-131.751"/>
<polygon fill="midnightblue" stroke="midnightblue" points="79.5001,-158.083 83,-168.083 86.5001,-158.083 79.5001,-158.083"/>
</g>
<!-- Node5 -->
<g id="node5" class="node"><title>Node5</title>
<g id="a_node5"><a xlink:href="class_urho3_d_1_1_serializable.html" target="_top" xlink:title="Base class for objects with automatic serialization through attributes. ">
<polygon fill="none" stroke="black" points="26,-224.5 26,-243.5 140,-243.5 140,-224.5 26,-224.5"/>
<text text-anchor="middle" x="83" y="-231.5" font-family="FreeSans" font-size="10.00">Urho3D::Serializable</text>
</a>
</g>
</g>
<!-- Node5&#45;&gt;Node4 -->
<g id="edge4" class="edge"><title>Node5&#45;&gt;Node4</title>
<path fill="none" stroke="midnightblue" d="M83,-213.805C83,-204.91 83,-194.78 83,-187.751"/>
<polygon fill="midnightblue" stroke="midnightblue" points="79.5001,-214.083 83,-224.083 86.5001,-214.083 79.5001,-214.083"/>
</g>
<!-- Node6 -->
<g id="node6" class="node"><title>Node6</title>
<g id="a_node6"><a xlink:href="class_urho3_d_1_1_object.html" target="_top" xlink:title="Base class for objects with type identification, subsystem access and event sending/receiving capabil...">
<polygon fill="none" stroke="black" points="38,-280.5 38,-299.5 128,-299.5 128,-280.5 38,-280.5"/>
<text text-anchor="middle" x="83" y="-287.5" font-family="FreeSans" font-size="10.00">Urho3D::Object</text>
</a>
</g>
</g>
<!-- Node6&#45;&gt;Node5 -->
<g id="edge5" class="edge"><title>Node6&#45;&gt;Node5</title>
<path fill="none" stroke="midnightblue" d="M83,-269.805C83,-260.91 83,-250.78 83,-243.751"/>
<polygon fill="midnightblue" stroke="midnightblue" points="79.5001,-270.083 83,-280.083 86.5001,-270.083 79.5001,-270.083"/>
</g>
<!-- Node7 -->
<g id="node7" class="node"><title>Node7</title>
<g id="a_node7"><a xlink:href="class_urho3_d_1_1_ref_counted.html" target="_top" xlink:title="Base class for intrusively reference&#45;counted objects. These are noncopyable and non&#45;assignable. ">
<polygon fill="none" stroke="black" points="26,-336.5 26,-355.5 140,-355.5 140,-336.5 26,-336.5"/>
<text text-anchor="middle" x="83" y="-343.5" font-family="FreeSans" font-size="10.00">Urho3D::RefCounted</text>
</a>
</g>
</g>
<!-- Node7&#45;&gt;Node6 -->
<g id="edge6" class="edge"><title>Node7&#45;&gt;Node6</title>
<path fill="none" stroke="midnightblue" d="M83,-325.805C83,-316.91 83,-306.78 83,-299.751"/>
<polygon fill="midnightblue" stroke="midnightblue" points="79.5001,-326.083 83,-336.083 86.5001,-326.083 79.5001,-326.083"/>
</g>
</g>
</svg>
