<?xml version="1.0" encoding="UTF-8" standalone="no"?>
<!DOCTYPE svg PUBLIC "-//W3C//DTD SVG 1.1//EN"
 "http://www.w3.org/Graphics/SVG/1.1/DTD/svg11.dtd">
<!-- Generated by graphviz version 2.43.0 (0)
 -->
<!-- Title: Urho3D::Text3D::SetTextEffect Pages: 1 -->
<svg width="1141pt" height="361pt"
 viewBox="0.00 0.00 1141.00 360.50" xmlns="http://www.w3.org/2000/svg" xmlns:xlink="http://www.w3.org/1999/xlink">
<g id="graph0" class="graph" transform="scale(1 1) rotate(0) translate(4 356.5)">
<title>Urho3D::Text3D::SetTextEffect</title>
<!-- Node1 -->
<g id="node1" class="node">
<title>Node1</title>
<g id="a_node1"><a xlink:title=" ">
<polygon fill="#bfbfbf" stroke="black" points="0,-151.5 0,-170.5 163,-170.5 163,-151.5 0,-151.5"/>
<text text-anchor="middle" x="81.5" y="-158.5" font-family="Helvetica,sans-Serif" font-size="10.00">Urho3D::Text3D::SetTextEffect</text>
</a>
</g>
</g>
<!-- Node2 -->
<g id="node2" class="node">
<title>Node2</title>
<g id="a_node2"><a xlink:href="class_urho3_d_1_1_text3_d.html#ad44e2ab1dccca583ae229245729a5d19" target="_top" xlink:title="Mark text &amp; geometry dirty.">
<polygon fill="none" stroke="black" points="204.5,-202 204.5,-232 348.5,-232 348.5,-202 204.5,-202"/>
<text text-anchor="start" x="212.5" y="-220" font-family="Helvetica,sans-Serif" font-size="10.00">Urho3D::Text3D::MarkText</text>
<text text-anchor="middle" x="276.5" y="-209" font-family="Helvetica,sans-Serif" font-size="10.00">Dirty</text>
</a>
</g>
</g>
<!-- Node1&#45;&gt;Node2 -->
<g id="edge1" class="edge">
<title>Node1&#45;&gt;Node2</title>
<path fill="none" stroke="midnightblue" d="M115.68,-170.63C142.54,-178.42 181.12,-189.61 213.64,-199.05"/>
<polygon fill="midnightblue" stroke="midnightblue" points="212.94,-202.49 223.52,-201.92 214.89,-195.77 212.94,-202.49"/>
</g>
<!-- Node13 -->
<g id="node13" class="node">
<title>Node13</title>
<g id="a_node13"><a xlink:href="class_urho3_d_1_1_text.html#ac0e7eb2d940eeef83e17605c0febdb26" target="_top" xlink:title=" ">
<polygon fill="none" stroke="black" points="202,-151.5 202,-170.5 351,-170.5 351,-151.5 202,-151.5"/>
<text text-anchor="middle" x="276.5" y="-158.5" font-family="Helvetica,sans-Serif" font-size="10.00">Urho3D::Text::SetTextEffect</text>
</a>
</g>
</g>
<!-- Node1&#45;&gt;Node13 -->
<g id="edge13" class="edge">
<title>Node1&#45;&gt;Node13</title>
<path fill="none" stroke="midnightblue" d="M163.23,-161C172.64,-161 182.25,-161 191.7,-161"/>
<polygon fill="midnightblue" stroke="midnightblue" points="191.86,-164.5 201.86,-161 191.86,-157.5 191.86,-164.5"/>
</g>
<!-- Node14 -->
<g id="node14" class="node">
<title>Node14</title>
<g id="a_node14"><a xlink:href="class_urho3_d_1_1_text3_d.html#a63bf86fc02caa281fb5fc8a54356abfb" target="_top" xlink:title="Create materials for text rendering. May only be called from the main thread. Text UI batches must be...">
<polygon fill="none" stroke="black" points="199,-90 199,-120 354,-120 354,-90 199,-90"/>
<text text-anchor="start" x="207" y="-108" font-family="Helvetica,sans-Serif" font-size="10.00">Urho3D::Text3D::UpdateText</text>
<text text-anchor="middle" x="276.5" y="-97" font-family="Helvetica,sans-Serif" font-size="10.00">Materials</text>
</a>
</g>
</g>
<!-- Node1&#45;&gt;Node14 -->
<g id="edge14" class="edge">
<title>Node1&#45;&gt;Node14</title>
<path fill="none" stroke="midnightblue" d="M115.68,-151.37C142.54,-143.58 181.12,-132.39 213.64,-122.95"/>
<polygon fill="midnightblue" stroke="midnightblue" points="214.89,-126.23 223.52,-120.08 212.94,-119.51 214.89,-126.23"/>
</g>
<!-- Node3 -->
<g id="node3" class="node">
<title>Node3</title>
<g id="a_node3"><a xlink:href="class_urho3_d_1_1_component.html#aaf87acb64001774c62f0784254f9b291" target="_top" xlink:title="Mark for attribute check on the next network update.">
<polygon fill="none" stroke="black" points="413,-202 413,-232 535,-232 535,-202 413,-202"/>
<text text-anchor="start" x="421" y="-220" font-family="Helvetica,sans-Serif" font-size="10.00">Urho3D::Component::</text>
<text text-anchor="middle" x="474" y="-209" font-family="Helvetica,sans-Serif" font-size="10.00">MarkNetworkUpdate</text>
</a>
</g>
</g>
<!-- Node2&#45;&gt;Node3 -->
<g id="edge2" class="edge">
<title>Node2&#45;&gt;Node3</title>
<path fill="none" stroke="midnightblue" d="M348.63,-217C366.25,-217 385.11,-217 402.68,-217"/>
<polygon fill="midnightblue" stroke="midnightblue" points="402.86,-220.5 412.86,-217 402.86,-213.5 402.86,-220.5"/>
</g>
<!-- Node9 -->
<g id="node9" class="node">
<title>Node9</title>
<g id="a_node9"><a xlink:href="class_urho3_d_1_1_drawable.html#a04a978441415a93f044721f6473df0e3" target="_top" xlink:title="Handle node transform being dirtied.">
<polygon fill="none" stroke="black" points="393.5,-284 393.5,-314 554.5,-314 554.5,-284 393.5,-284"/>
<text text-anchor="start" x="401.5" y="-302" font-family="Helvetica,sans-Serif" font-size="10.00">Urho3D::Drawable::OnMarked</text>
<text text-anchor="middle" x="474" y="-291" font-family="Helvetica,sans-Serif" font-size="10.00">Dirty</text>
</a>
</g>
</g>
<!-- Node2&#45;&gt;Node9 -->
<g id="edge8" class="edge">
<title>Node2&#45;&gt;Node9</title>
<path fill="none" stroke="midnightblue" d="M313.36,-232.04C345.5,-245.52 392.81,-265.37 427.59,-279.95"/>
<polygon fill="midnightblue" stroke="midnightblue" points="426.46,-283.28 437.04,-283.92 429.17,-276.82 426.46,-283.28"/>
</g>
<!-- Node4 -->
<g id="node4" class="node">
<title>Node4</title>
<g id="a_node4"><a xlink:href="class_urho3_d_1_1_component.html#a2c22f727341671a0420934f249ffe059" target="_top" xlink:title="Return the scene the node belongs to.">
<polygon fill="none" stroke="black" points="816.5,-259 816.5,-289 938.5,-289 938.5,-259 816.5,-259"/>
<text text-anchor="start" x="824.5" y="-277" font-family="Helvetica,sans-Serif" font-size="10.00">Urho3D::Component::</text>
<text text-anchor="middle" x="877.5" y="-266" font-family="Helvetica,sans-Serif" font-size="10.00">GetScene</text>
</a>
</g>
</g>
<!-- Node3&#45;&gt;Node4 -->
<g id="edge3" class="edge">
<title>Node3&#45;&gt;Node4</title>
<path fill="none" stroke="midnightblue" d="M535.03,-230.76C553.84,-234.76 574.72,-238.89 594,-242 666.06,-253.62 749.13,-262.5 806.44,-267.92"/>
<polygon fill="midnightblue" stroke="midnightblue" points="806.2,-271.41 816.48,-268.86 806.85,-264.44 806.2,-271.41"/>
</g>
<!-- Node6 -->
<g id="node6" class="node">
<title>Node6</title>
<g id="a_node6"><a xlink:href="class_urho3_d_1_1_component.html#a8f1388c232ca01b7c7328c761aae6e76" target="_top" xlink:title=" ">
<polygon fill="none" stroke="black" points="615.5,-153 615.5,-183 737.5,-183 737.5,-153 615.5,-153"/>
<text text-anchor="start" x="623.5" y="-171" font-family="Helvetica,sans-Serif" font-size="10.00">Urho3D::Component::</text>
<text text-anchor="middle" x="676.5" y="-160" font-family="Helvetica,sans-Serif" font-size="10.00">IsReplicated</text>
</a>
</g>
</g>
<!-- Node3&#45;&gt;Node6 -->
<g id="edge5" class="edge">
<title>Node3&#45;&gt;Node6</title>
<path fill="none" stroke="midnightblue" d="M535.16,-202.3C557.26,-196.9 582.48,-190.73 605.39,-185.13"/>
<polygon fill="midnightblue" stroke="midnightblue" points="606.5,-188.47 615.39,-182.69 604.84,-181.67 606.5,-188.47"/>
</g>
<!-- Node8 -->
<g id="node8" class="node">
<title>Node8</title>
<g id="a_node8"><a xlink:href="class_urho3_d_1_1_scene.html#a00b724dfff718639b9de12d71139499c" target="_top" xlink:title="Mark for attribute check on the next network update.">
<polygon fill="none" stroke="black" points="596,-202 596,-232 757,-232 757,-202 596,-202"/>
<text text-anchor="start" x="604" y="-220" font-family="Helvetica,sans-Serif" font-size="10.00">Urho3D::Scene::MarkNetwork</text>
<text text-anchor="middle" x="676.5" y="-209" font-family="Helvetica,sans-Serif" font-size="10.00">Update</text>
</a>
</g>
</g>
<!-- Node3&#45;&gt;Node8 -->
<g id="edge7" class="edge">
<title>Node3&#45;&gt;Node8</title>
<path fill="none" stroke="midnightblue" d="M535.16,-217C551.07,-217 568.59,-217 585.7,-217"/>
<polygon fill="midnightblue" stroke="midnightblue" points="585.71,-220.5 595.71,-217 585.71,-213.5 585.71,-220.5"/>
</g>
<!-- Node5 -->
<g id="node5" class="node">
<title>Node5</title>
<g id="a_node5"><a xlink:href="class_urho3_d_1_1_node.html#a9c57bc1539c33614c36f8a1453d62e9a" target="_top" xlink:title=" ">
<polygon fill="none" stroke="black" points="996,-264.5 996,-283.5 1133,-283.5 1133,-264.5 996,-264.5"/>
<text text-anchor="middle" x="1064.5" y="-271.5" font-family="Helvetica,sans-Serif" font-size="10.00">Urho3D::Node::GetScene</text>
</a>
</g>
</g>
<!-- Node4&#45;&gt;Node5 -->
<g id="edge4" class="edge">
<title>Node4&#45;&gt;Node5</title>
<path fill="none" stroke="midnightblue" d="M938.56,-274C953.54,-274 969.81,-274 985.51,-274"/>
<polygon fill="midnightblue" stroke="midnightblue" points="985.72,-277.5 995.72,-274 985.72,-270.5 985.72,-277.5"/>
</g>
<!-- Node7 -->
<g id="node7" class="node">
<title>Node7</title>
<g id="a_node7"><a xlink:href="class_urho3_d_1_1_scene.html#a97fb1222bd2f38e6c1c433c0b7e54d40" target="_top" xlink:title="Return whether the specified id is a replicated id.">
<polygon fill="none" stroke="black" points="795,-158.5 795,-177.5 960,-177.5 960,-158.5 795,-158.5"/>
<text text-anchor="middle" x="877.5" y="-165.5" font-family="Helvetica,sans-Serif" font-size="10.00">Urho3D::Scene::IsReplicatedID</text>
</a>
</g>
</g>
<!-- Node6&#45;&gt;Node7 -->
<g id="edge6" class="edge">
<title>Node6&#45;&gt;Node7</title>
<path fill="none" stroke="midnightblue" d="M737.75,-168C752.48,-168 768.58,-168 784.43,-168"/>
<polygon fill="midnightblue" stroke="midnightblue" points="784.79,-171.5 794.79,-168 784.79,-164.5 784.79,-171.5"/>
</g>
<!-- Node10 -->
<g id="node10" class="node">
<title>Node10</title>
<g id="a_node10"><a xlink:href="class_urho3_d_1_1_octant.html#a360158ca482e5cd6fc8412e9510ed582" target="_top" xlink:title="Return octree root.">
<polygon fill="none" stroke="black" points="608,-289.5 608,-308.5 745,-308.5 745,-289.5 608,-289.5"/>
<text text-anchor="middle" x="676.5" y="-296.5" font-family="Helvetica,sans-Serif" font-size="10.00">Urho3D::Octant::GetRoot</text>
</a>
</g>
</g>
<!-- Node9&#45;&gt;Node10 -->
<g id="edge9" class="edge">
<title>Node9&#45;&gt;Node10</title>
<path fill="none" stroke="midnightblue" d="M554.53,-299C568.7,-299 583.44,-299 597.56,-299"/>
<polygon fill="midnightblue" stroke="midnightblue" points="597.71,-302.5 607.71,-299 597.71,-295.5 597.71,-302.5"/>
</g>
<!-- Node11 -->
<g id="node11" class="node">
<title>Node11</title>
<g id="a_node11"><a xlink:href="class_urho3_d_1_1_octree.html#a578eb27fbff722b23eecfd03ef0e5571" target="_top" xlink:title="Mark drawable object as requiring an update and a reinsertion.">
<polygon fill="none" stroke="black" points="594.5,-327.5 594.5,-346.5 758.5,-346.5 758.5,-327.5 594.5,-327.5"/>
<text text-anchor="middle" x="676.5" y="-334.5" font-family="Helvetica,sans-Serif" font-size="10.00">Urho3D::Octree::QueueUpdate</text>
</a>
</g>
</g>
<!-- Node9&#45;&gt;Node11 -->
<g id="edge10" class="edge">
<title>Node9&#45;&gt;Node11</title>
<path fill="none" stroke="midnightblue" d="M554.24,-314.02C574.66,-317.89 596.29,-321.99 615.54,-325.64"/>
<polygon fill="midnightblue" stroke="midnightblue" points="614.89,-329.08 625.37,-327.5 616.2,-322.2 614.89,-329.08"/>
</g>
<!-- Node11&#45;&gt;Node4 -->
<g id="edge11" class="edge">
<title>Node11&#45;&gt;Node4</title>
<path fill="none" stroke="midnightblue" d="M723.04,-327.48C734.83,-324.72 747.46,-321.49 759,-318 782.96,-310.75 809.08,-301.15 830.6,-292.76"/>
<polygon fill="midnightblue" stroke="midnightblue" points="832.11,-295.93 840.14,-289.01 829.55,-289.41 832.11,-295.93"/>
</g>
<!-- Node12 -->
<g id="node12" class="node">
<title>Node12</title>
<g id="a_node12"><a xlink:href="class_urho3_d_1_1_scene.html#a5a3132086218d7b7e6d8f3ccd50f7249" target="_top" xlink:title="Return threaded update flag.">
<polygon fill="none" stroke="black" points="803,-322 803,-352 952,-352 952,-322 803,-322"/>
<text text-anchor="start" x="811" y="-340" font-family="Helvetica,sans-Serif" font-size="10.00">Urho3D::Scene::IsThreaded</text>
<text text-anchor="middle" x="877.5" y="-329" font-family="Helvetica,sans-Serif" font-size="10.00">Update</text>
</a>
</g>
</g>
<!-- Node11&#45;&gt;Node12 -->
<g id="edge12" class="edge">
<title>Node11&#45;&gt;Node12</title>
<path fill="none" stroke="midnightblue" d="M758.73,-337C769.92,-337 781.43,-337 792.66,-337"/>
<polygon fill="midnightblue" stroke="midnightblue" points="792.89,-340.5 802.89,-337 792.89,-333.5 792.89,-340.5"/>
</g>
<!-- Node15 -->
<g id="node15" class="node">
<title>Node15</title>
<g id="a_node15"><a xlink:href="class_urho3_d_1_1_text3_d.html#a732c2690b813bd90ff4ae9ed0f89c57f" target="_top" xlink:title=" ">
<polygon fill="none" stroke="black" points="405.5,-76.5 405.5,-95.5 542.5,-95.5 542.5,-76.5 405.5,-76.5"/>
<text text-anchor="middle" x="474" y="-83.5" font-family="Helvetica,sans-Serif" font-size="10.00">Urho3D::Text3D::GetFont</text>
</a>
</g>
</g>
<!-- Node14&#45;&gt;Node15 -->
<g id="edge15" class="edge">
<title>Node14&#45;&gt;Node15</title>
<path fill="none" stroke="midnightblue" d="M354.21,-97.55C367.67,-96.24 381.7,-94.87 395.2,-93.56"/>
<polygon fill="midnightblue" stroke="midnightblue" points="395.79,-97.02 405.4,-92.57 395.11,-90.05 395.79,-97.02"/>
</g>
<!-- Node17 -->
<g id="node17" class="node">
<title>Node17</title>
<g id="a_node17"><a xlink:href="class_urho3_d_1_1_font.html#a893f986b9b7e2c29397707de1ae4bdff" target="_top" xlink:title="Is signed distance field font.">
<polygon fill="none" stroke="black" points="406.5,-38.5 406.5,-57.5 541.5,-57.5 541.5,-38.5 406.5,-38.5"/>
<text text-anchor="middle" x="474" y="-45.5" font-family="Helvetica,sans-Serif" font-size="10.00">Urho3D::Font::IsSDFFont</text>
</a>
</g>
</g>
<!-- Node14&#45;&gt;Node17 -->
<g id="edge17" class="edge">
<title>Node14&#45;&gt;Node17</title>
<path fill="none" stroke="midnightblue" d="M318.86,-89.92C339.99,-82.5 366.19,-73.73 390,-67 398.88,-64.49 408.36,-62.08 417.63,-59.86"/>
<polygon fill="midnightblue" stroke="midnightblue" points="418.62,-63.22 427.56,-57.53 417.03,-56.4 418.62,-63.22"/>
</g>
<!-- Node18 -->
<g id="node18" class="node">
<title>Node18</title>
<g id="a_node18"><a xlink:href="class_urho3_d_1_1_pass.html#a653f75abd5e2aa50e90db33dbe24f3ed" target="_top" xlink:title=" ">
<polygon fill="none" stroke="black" points="395,-0.5 395,-19.5 553,-19.5 553,-0.5 395,-0.5"/>
<text text-anchor="middle" x="474" y="-7.5" font-family="Helvetica,sans-Serif" font-size="10.00">Urho3D::Pass::SetBlendMode</text>
</a>
</g>
</g>
<!-- Node14&#45;&gt;Node18 -->
<g id="edge18" class="edge">
<title>Node14&#45;&gt;Node18</title>
<path fill="none" stroke="midnightblue" d="M295.36,-89.82C316.58,-72.57 353.68,-44.77 390,-29 395.78,-26.49 401.95,-24.29 408.2,-22.36"/>
<polygon fill="midnightblue" stroke="midnightblue" points="409.39,-25.66 418.05,-19.56 407.48,-18.93 409.39,-25.66"/>
</g>
<!-- Node19 -->
<g id="node19" class="node">
<title>Node19</title>
<g id="a_node19"><a xlink:href="class_urho3_d_1_1_pass.html#a4e3ae893279a7b7a613a3022258b80c5" target="_top" xlink:title=" ">
<polygon fill="none" stroke="black" points="394,-114.5 394,-133.5 554,-133.5 554,-114.5 394,-114.5"/>
<text text-anchor="middle" x="474" y="-121.5" font-family="Helvetica,sans-Serif" font-size="10.00">Urho3D::Pass::SetPixelShader</text>
</a>
</g>
</g>
<!-- Node14&#45;&gt;Node19 -->
<g id="edge19" class="edge">
<title>Node14&#45;&gt;Node19</title>
<path fill="none" stroke="midnightblue" d="M354.21,-112.45C363.89,-113.4 373.87,-114.37 383.73,-115.32"/>
<polygon fill="midnightblue" stroke="midnightblue" points="383.65,-118.83 393.94,-116.32 384.33,-111.87 383.65,-118.83"/>
</g>
<!-- Node21 -->
<g id="node21" class="node">
<title>Node21</title>
<g id="a_node21"><a xlink:href="class_urho3_d_1_1_pass.html#a30446a09f9bba7a2d798611253d97d74" target="_top" xlink:title=" ">
<polygon fill="none" stroke="black" points="390,-152.5 390,-171.5 558,-171.5 558,-152.5 390,-152.5"/>
<text text-anchor="middle" x="474" y="-159.5" font-family="Helvetica,sans-Serif" font-size="10.00">Urho3D::Pass::SetVertexShader</text>
</a>
</g>
</g>
<!-- Node14&#45;&gt;Node21 -->
<g id="edge21" class="edge">
<title>Node14&#45;&gt;Node21</title>
<path fill="none" stroke="midnightblue" d="M318.86,-120.08C339.99,-127.5 366.19,-136.27 390,-143 398.88,-145.51 408.36,-147.92 417.63,-150.14"/>
<polygon fill="midnightblue" stroke="midnightblue" points="417.03,-153.6 427.56,-152.47 418.62,-146.78 417.03,-153.6"/>
</g>
<!-- Node16 -->
<g id="node16" class="node">
<title>Node16</title>
<g id="a_node16"><a xlink:href="class_urho3_d_1_1_text.html#a4a5aed1fe91eeb555230fbcd46db590c" target="_top" xlink:title=" ">
<polygon fill="none" stroke="black" points="614.5,-76.5 614.5,-95.5 738.5,-95.5 738.5,-76.5 614.5,-76.5"/>
<text text-anchor="middle" x="676.5" y="-83.5" font-family="Helvetica,sans-Serif" font-size="10.00">Urho3D::Text::GetFont</text>
</a>
</g>
</g>
<!-- Node15&#45;&gt;Node16 -->
<g id="edge16" class="edge">
<title>Node15&#45;&gt;Node16</title>
<path fill="none" stroke="midnightblue" d="M542.6,-86C562.44,-86 584.2,-86 604.26,-86"/>
<polygon fill="midnightblue" stroke="midnightblue" points="604.26,-89.5 614.26,-86 604.26,-82.5 604.26,-89.5"/>
</g>
<!-- Node20 -->
<g id="node20" class="node">
<title>Node20</title>
<g id="a_node20"><a xlink:href="class_urho3_d_1_1_pass.html#a88670623f66ba1b156900449f6da9a3a" target="_top" xlink:title="Reset shader pointers.">
<polygon fill="none" stroke="black" points="594,-114.5 594,-133.5 759,-133.5 759,-114.5 594,-114.5"/>
<text text-anchor="middle" x="676.5" y="-121.5" font-family="Helvetica,sans-Serif" font-size="10.00">Urho3D::Pass::ReleaseShaders</text>
</a>
</g>
</g>
<!-- Node19&#45;&gt;Node20 -->
<g id="edge20" class="edge">
<title>Node19&#45;&gt;Node20</title>
<path fill="none" stroke="midnightblue" d="M554.24,-124C563.91,-124 573.85,-124 583.68,-124"/>
<polygon fill="midnightblue" stroke="midnightblue" points="583.87,-127.5 593.87,-124 583.87,-120.5 583.87,-127.5"/>
</g>
<!-- Node21&#45;&gt;Node20 -->
<g id="edge22" class="edge">
<title>Node21&#45;&gt;Node20</title>
<path fill="none" stroke="midnightblue" d="M525.34,-152.46C552.63,-147.29 586.54,-140.86 615.23,-135.42"/>
<polygon fill="midnightblue" stroke="midnightblue" points="615.97,-138.84 625.14,-133.54 614.67,-131.97 615.97,-138.84"/>
</g>
</g>
</svg>
