<?xml version="1.0" encoding="UTF-8" standalone="no"?>
<!DOCTYPE svg PUBLIC "-//W3C//DTD SVG 1.1//EN"
 "http://www.w3.org/Graphics/SVG/1.1/DTD/svg11.dtd">
<!-- Generated by graphviz version 2.26.3 (20100126.1600)
 -->
<!-- Title: Urho3D::Renderer::UpdateQueuedViewport Pages: 1 -->
<svg width="588pt" height="754pt"
 viewBox="0.00 0.00 588.00 754.00" xmlns="http://www.w3.org/2000/svg" xmlns:xlink="http://www.w3.org/1999/xlink">
<g id="graph1" class="graph" transform="scale(1 1) rotate(0) translate(4 750)">
<title>Urho3D::Renderer::UpdateQueuedViewport</title>
<!-- Node1 -->
<g id="node1" class="node"><title>Node1</title>
<polygon fill="#bfbfbf" stroke="black" points="0.5,-311 0.5,-345 143.5,-345 143.5,-311 0.5,-311"/>
<text text-anchor="start" x="8.5" y="-332" font-family="FreeSans" font-size="10.00">Urho3D::Renderer::Update</text>
<text text-anchor="middle" x="72" y="-319" font-family="FreeSans" font-size="10.00">QueuedViewport</text>
</g>
<!-- Node2 -->
<g id="node3" class="node"><title>Node2</title>
<a xlink:href="class_urho3_d_1_1_weak_ptr.html#ac945a22af2b3a9dedf9c5b5392f42dff" target="_top" xlink:title="Check if the pointer is not null.">
<polygon fill="none" stroke="black" points="196.5,-474.5 196.5,-495.5 335.5,-495.5 335.5,-474.5 196.5,-474.5"/>
<text text-anchor="middle" x="266" y="-482.5" font-family="FreeSans" font-size="10.00">Urho3D::WeakPtr::NotNull</text>
</a>
</g>
<!-- Node1&#45;&gt;Node2 -->
<g id="edge2" class="edge"><title>Node1&#45;&gt;Node2</title>
<path fill="none" stroke="midnightblue" d="M80.6385,-345.402C96.2211,-374.897 131.936,-434.473 180,-465 183.326,-467.112 186.851,-469.002 190.501,-470.693"/>
<polygon fill="midnightblue" stroke="midnightblue" points="189.212,-473.947 199.793,-474.499 191.865,-467.469 189.212,-473.947"/>
</g>
<!-- Node3 -->
<g id="node5" class="node"><title>Node3</title>
<a xlink:href="class_urho3_d_1_1_weak_ptr.html#a9f3707fbe1cc49ece4d5e5ea064dbab0" target="_top" xlink:title="Return whether the object has expired. If null pointer, always return true.">
<polygon fill="none" stroke="black" points="196.5,-434.5 196.5,-455.5 335.5,-455.5 335.5,-434.5 196.5,-434.5"/>
<text text-anchor="middle" x="266" y="-442.5" font-family="FreeSans" font-size="10.00">Urho3D::WeakPtr::Expired</text>
</a>
</g>
<!-- Node1&#45;&gt;Node3 -->
<g id="edge4" class="edge"><title>Node1&#45;&gt;Node3</title>
<path fill="none" stroke="midnightblue" d="M87.5496,-345.084C107.19,-365.684 142.922,-400.021 180,-420 188.33,-424.489 197.56,-428.256 206.791,-431.392"/>
<polygon fill="midnightblue" stroke="midnightblue" points="205.784,-434.744 216.374,-434.434 207.902,-428.072 205.784,-434.744"/>
</g>
<!-- Node4 -->
<g id="node7" class="node"><title>Node4</title>
<a xlink:href="class_urho3_d_1_1_view.html#a38bd2f1292778c57fae949c4e271c20d" target="_top" xlink:title="Define with rendertarget and viewport. Return true if successful.">
<polygon fill="none" stroke="red" points="207.5,-356.5 207.5,-377.5 324.5,-377.5 324.5,-356.5 207.5,-356.5"/>
<text text-anchor="middle" x="266" y="-364.5" font-family="FreeSans" font-size="10.00">Urho3D::View::Define</text>
</a>
</g>
<!-- Node1&#45;&gt;Node4 -->
<g id="edge6" class="edge"><title>Node1&#45;&gt;Node4</title>
<path fill="none" stroke="midnightblue" d="M143.687,-342.411C163.449,-346.384 184.718,-350.66 203.889,-354.514"/>
<polygon fill="midnightblue" stroke="midnightblue" points="203.21,-357.947 213.703,-356.487 204.589,-351.084 203.21,-357.947"/>
</g>
<!-- Node10 -->
<g id="node19" class="node"><title>Node10</title>
<a xlink:href="class_urho3_d_1_1_int_rect.html#a7d8747bfdd710559f3715160beac2872" target="_top" xlink:title="Return size.">
<polygon fill="none" stroke="black" points="425,-724.5 425,-745.5 543,-745.5 543,-724.5 425,-724.5"/>
<text text-anchor="middle" x="484" y="-732.5" font-family="FreeSans" font-size="10.00">Urho3D::IntRect::Size</text>
</a>
</g>
<!-- Node1&#45;&gt;Node10 -->
<g id="edge44" class="edge"><title>Node1&#45;&gt;Node10</title>
<path fill="none" stroke="midnightblue" d="M98.5063,-345.253C119.772,-358.399 150.792,-376.049 180,-387 253.305,-414.485 299.302,-367.104 352,-425 439.425,-521.048 299.998,-619.48 388,-715 395.256,-722.875 404.741,-728.088 414.923,-731.471"/>
<polygon fill="midnightblue" stroke="midnightblue" points="414.279,-734.924 424.848,-734.182 416.123,-728.171 414.279,-734.924"/>
</g>
<!-- Node20 -->
<g id="node39" class="node"><title>Node20</title>
<a xlink:href="class_urho3_d_1_1_scene.html#ab881efcd27fe757cf1885633c959c36c" target="_top" xlink:title="Return component from the whole scene by ID, or null if not found.">
<polygon fill="none" stroke="black" points="399.5,-0.5 399.5,-21.5 568.5,-21.5 568.5,-0.5 399.5,-0.5"/>
<text text-anchor="middle" x="484" y="-8.5" font-family="FreeSans" font-size="10.00">Urho3D::Scene::GetComponent</text>
</a>
</g>
<!-- Node1&#45;&gt;Node20 -->
<g id="edge42" class="edge"><title>Node1&#45;&gt;Node20</title>
<path fill="none" stroke="midnightblue" d="M143.554,-333.025C216.498,-336.474 322.945,-336.334 352,-309 442.743,-223.632 303.342,-122.406 388,-31 389.048,-29.8681 390.143,-28.7912 391.279,-27.7669"/>
<polygon fill="midnightblue" stroke="midnightblue" points="393.419,-30.5368 399.33,-21.7441 389.226,-24.9316 393.419,-30.5368"/>
</g>
<!-- Node22 -->
<g id="node45" class="node"><title>Node22</title>
<a xlink:href="class_urho3_d_1_1_octree.html#a56ad2ab6941f97453c66625bd8dad9da" target="_top" xlink:title="Update and reinsert drawable objects.">
<polygon fill="none" stroke="red" points="199.5,-278.5 199.5,-299.5 332.5,-299.5 332.5,-278.5 199.5,-278.5"/>
<text text-anchor="middle" x="266" y="-286.5" font-family="FreeSans" font-size="10.00">Urho3D::Octree::Update</text>
</a>
</g>
<!-- Node1&#45;&gt;Node22 -->
<g id="edge46" class="edge"><title>Node1&#45;&gt;Node22</title>
<path fill="none" stroke="midnightblue" d="M143.687,-313.589C163.449,-309.616 184.718,-305.34 203.889,-301.486"/>
<polygon fill="midnightblue" stroke="midnightblue" points="204.589,-304.916 213.703,-299.513 203.21,-298.053 204.589,-304.916"/>
</g>
<!-- Node23 -->
<g id="node47" class="node"><title>Node23</title>
<a xlink:href="class_urho3_d_1_1_debug_renderer.html#a65ddc45de33de57b41a9889fdce2363c" target="_top" xlink:title="Set the camera viewpoint. Call before rendering, or before adding geometry if you want to use culling...">
<polygon fill="none" stroke="red" points="199,-226 199,-260 333,-260 333,-226 199,-226"/>
<text text-anchor="start" x="207" y="-247" font-family="FreeSans" font-size="10.00">Urho3D::DebugRenderer</text>
<text text-anchor="middle" x="266" y="-234" font-family="FreeSans" font-size="10.00">::SetView</text>
</a>
</g>
<!-- Node1&#45;&gt;Node23 -->
<g id="edge48" class="edge"><title>Node1&#45;&gt;Node23</title>
<path fill="none" stroke="midnightblue" d="M99.6338,-310.83C120.999,-298.072 151.624,-280.89 180,-269 184.646,-267.053 189.489,-265.184 194.405,-263.403"/>
<polygon fill="midnightblue" stroke="midnightblue" points="195.622,-266.685 203.915,-260.091 193.32,-260.075 195.622,-266.685"/>
</g>
<!-- Node24 -->
<g id="node49" class="node"><title>Node24</title>
<a xlink:href="class_urho3_d_1_1_renderer.html#adea49989775cfdab341fd9e1a20b75f4" target="_top" xlink:title="Reset shadow map allocation counts.">
<polygon fill="none" stroke="black" points="180,-174 180,-208 352,-208 352,-174 180,-174"/>
<text text-anchor="start" x="188" y="-195" font-family="FreeSans" font-size="10.00">Urho3D::Renderer::ResetShadow</text>
<text text-anchor="middle" x="266" y="-182" font-family="FreeSans" font-size="10.00">MapAllocations</text>
</a>
</g>
<!-- Node1&#45;&gt;Node24 -->
<g id="edge50" class="edge"><title>Node1&#45;&gt;Node24</title>
<path fill="none" stroke="midnightblue" d="M84.2735,-310.701C102.46,-286.311 138.878,-242.006 180,-217 182.647,-215.391 185.4,-213.874 188.228,-212.447"/>
<polygon fill="midnightblue" stroke="midnightblue" points="189.859,-215.549 197.474,-208.182 186.927,-209.193 189.859,-215.549"/>
</g>
<!-- Node25 -->
<g id="node51" class="node"><title>Node25</title>
<a xlink:href="class_urho3_d_1_1_view.html#a50c3fe5d5c2b3040e13925aa277a8d93" target="_top" xlink:title="Update and cull objects and construct rendering batches.">
<polygon fill="none" stroke="red" points="205,-134.5 205,-155.5 327,-155.5 327,-134.5 205,-134.5"/>
<text text-anchor="middle" x="266" y="-142.5" font-family="FreeSans" font-size="10.00">Urho3D::View::Update</text>
</a>
</g>
<!-- Node1&#45;&gt;Node25 -->
<g id="edge52" class="edge"><title>Node1&#45;&gt;Node25</title>
<path fill="none" stroke="midnightblue" d="M78.315,-310.82C91.6023,-277.188 125.771,-202.665 180,-165 184.643,-161.775 189.732,-159.065 195.043,-156.787"/>
<polygon fill="midnightblue" stroke="midnightblue" points="196.656,-159.921 204.795,-153.137 194.202,-153.365 196.656,-159.921"/>
</g>
<!-- Node5 -->
<g id="node9" class="node"><title>Node5</title>
<a xlink:href="class_urho3_d_1_1_viewport.html#a6fea5c54862fded7dd4c31708cd9c324" target="_top" xlink:title="Return rendering path.">
<polygon fill="none" stroke="black" points="395,-684.5 395,-705.5 573,-705.5 573,-684.5 395,-684.5"/>
<text text-anchor="middle" x="484" y="-692.5" font-family="FreeSans" font-size="10.00">Urho3D::Viewport::GetRenderPath</text>
</a>
</g>
<!-- Node4&#45;&gt;Node5 -->
<g id="edge8" class="edge"><title>Node4&#45;&gt;Node5</title>
<path fill="none" stroke="midnightblue" d="M324.587,-374.15C335.018,-377.948 344.827,-383.608 352,-392 434.379,-488.384 301.949,-581.88 388,-675 389.047,-676.133 390.14,-677.211 391.275,-678.236"/>
<polygon fill="midnightblue" stroke="midnightblue" points="389.219,-681.069 399.32,-684.265 393.417,-675.467 389.219,-681.069"/>
</g>
<!-- Node6 -->
<g id="node11" class="node"><title>Node6</title>
<a xlink:href="class_urho3_d_1_1_viewport.html#a695eda72c59939a08b0a764184c43942" target="_top" xlink:title="Return whether to draw debug geometry.">
<polygon fill="none" stroke="black" points="410,-632 410,-666 558,-666 558,-632 410,-632"/>
<text text-anchor="start" x="418" y="-653" font-family="FreeSans" font-size="10.00">Urho3D::Viewport::GetDraw</text>
<text text-anchor="middle" x="484" y="-640" font-family="FreeSans" font-size="10.00">Debug</text>
</a>
</g>
<!-- Node4&#45;&gt;Node6 -->
<g id="edge10" class="edge"><title>Node4&#45;&gt;Node6</title>
<path fill="none" stroke="midnightblue" d="M324.844,-374.47C335.126,-378.253 344.813,-383.826 352,-392 420.611,-470.032 318.673,-545.603 388,-623 391.744,-627.18 396.085,-630.718 400.811,-633.709"/>
<polygon fill="midnightblue" stroke="midnightblue" points="399.227,-636.832 409.686,-638.524 402.565,-630.679 399.227,-636.832"/>
</g>
<!-- Node7 -->
<g id="node13" class="node"><title>Node7</title>
<a xlink:href="class_urho3_d_1_1_render_surface.html#a1be67d97ab77b0d6f24776a3f75c5e6a" target="_top" xlink:title="Return width.">
<polygon fill="none" stroke="red" points="419.5,-580 419.5,-614 548.5,-614 548.5,-580 419.5,-580"/>
<text text-anchor="start" x="427.5" y="-601" font-family="FreeSans" font-size="10.00">Urho3D::RenderSurface</text>
<text text-anchor="middle" x="484" y="-588" font-family="FreeSans" font-size="10.00">::GetWidth</text>
</a>
</g>
<!-- Node4&#45;&gt;Node7 -->
<g id="edge12" class="edge"><title>Node4&#45;&gt;Node7</title>
<path fill="none" stroke="midnightblue" d="M324.563,-374.723C334.868,-378.485 344.635,-383.986 352,-392 406.908,-451.751 332.544,-511.757 388,-571 394.087,-577.503 401.619,-582.441 409.767,-586.18"/>
<polygon fill="midnightblue" stroke="midnightblue" points="408.597,-589.481 419.183,-589.913 411.176,-582.974 408.597,-589.481"/>
</g>
<!-- Node8 -->
<g id="node15" class="node"><title>Node8</title>
<a xlink:href="class_urho3_d_1_1_render_surface.html#a3c0b5d48265c55fd1692924b9e45ce24" target="_top" xlink:title="Return height.">
<polygon fill="none" stroke="red" points="419.5,-528 419.5,-562 548.5,-562 548.5,-528 419.5,-528"/>
<text text-anchor="start" x="427.5" y="-549" font-family="FreeSans" font-size="10.00">Urho3D::RenderSurface</text>
<text text-anchor="middle" x="484" y="-536" font-family="FreeSans" font-size="10.00">::GetHeight</text>
</a>
</g>
<!-- Node4&#45;&gt;Node8 -->
<g id="edge14" class="edge"><title>Node4&#45;&gt;Node8</title>
<path fill="none" stroke="midnightblue" d="M324.522,-375.346C334.706,-379.064 344.439,-384.388 352,-392 393.346,-433.623 346.273,-477.759 388,-519 394.246,-525.173 401.799,-529.92 409.894,-533.563"/>
<polygon fill="midnightblue" stroke="midnightblue" points="408.635,-536.829 419.222,-537.225 411.193,-530.313 408.635,-536.829"/>
</g>
<!-- Node9 -->
<g id="node17" class="node"><title>Node9</title>
<a xlink:href="class_urho3_d_1_1_viewport.html#a5b11a34faeae6959741dd919ed7ed3a4" target="_top" xlink:title="Return rectangle.">
<polygon fill="none" stroke="black" points="412,-488.5 412,-509.5 556,-509.5 556,-488.5 412,-488.5"/>
<text text-anchor="middle" x="484" y="-496.5" font-family="FreeSans" font-size="10.00">Urho3D::Viewport::GetRect</text>
</a>
</g>
<!-- Node4&#45;&gt;Node9 -->
<g id="edge16" class="edge"><title>Node4&#45;&gt;Node9</title>
<path fill="none" stroke="midnightblue" d="M324.725,-376.391C334.654,-380.022 344.242,-385.048 352,-392 383.164,-419.927 355.778,-452.301 388,-479 392.342,-482.598 397.168,-485.6 402.28,-488.099"/>
<polygon fill="midnightblue" stroke="midnightblue" points="401.172,-491.43 411.747,-492.076 403.883,-484.976 401.172,-491.43"/>
</g>
<!-- Node4&#45;&gt;Node10 -->
<g id="edge18" class="edge"><title>Node4&#45;&gt;Node10</title>
<path fill="none" stroke="midnightblue" d="M324.689,-374.063C335.113,-377.868 344.893,-383.553 352,-392 444.992,-502.529 290.795,-608.157 388,-715 395.206,-722.921 404.666,-728.156 414.838,-731.549"/>
<polygon fill="midnightblue" stroke="midnightblue" points="414.189,-735 424.758,-734.263 416.037,-728.248 414.189,-735"/>
</g>
<!-- Node11 -->
<g id="node21" class="node"><title>Node11</title>
<a xlink:href="class_urho3_d_1_1_viewport.html#a1f8680824d6d5fbb4aee0894af8eca7a" target="_top" xlink:title="Return scene.">
<polygon fill="none" stroke="black" points="407,-448.5 407,-469.5 561,-469.5 561,-448.5 407,-448.5"/>
<text text-anchor="middle" x="484" y="-456.5" font-family="FreeSans" font-size="10.00">Urho3D::Viewport::GetScene</text>
</a>
</g>
<!-- Node4&#45;&gt;Node11 -->
<g id="edge20" class="edge"><title>Node4&#45;&gt;Node11</title>
<path fill="none" stroke="midnightblue" d="M321.55,-377.531C332.217,-381.067 342.889,-385.766 352,-392 373.716,-406.858 365.725,-424.995 388,-439 391.216,-441.022 394.6,-442.843 398.1,-444.484"/>
<polygon fill="midnightblue" stroke="midnightblue" points="397.016,-447.823 407.594,-448.417 399.695,-441.356 397.016,-447.823"/>
</g>
<!-- Node12 -->
<g id="node23" class="node"><title>Node12</title>
<a xlink:href="class_urho3_d_1_1_viewport.html#a373e7e9fdec8dc8a3f2d6ed21d810756" target="_top" xlink:title="Return the culling camera. If null, the viewport camera will be used for culling (normal case...">
<polygon fill="none" stroke="black" points="413.5,-396 413.5,-430 554.5,-430 554.5,-396 413.5,-396"/>
<text text-anchor="start" x="421.5" y="-417" font-family="FreeSans" font-size="10.00">Urho3D::Viewport::GetCull</text>
<text text-anchor="middle" x="484" y="-404" font-family="FreeSans" font-size="10.00">Camera</text>
</a>
</g>
<!-- Node4&#45;&gt;Node12 -->
<g id="edge22" class="edge"><title>Node4&#45;&gt;Node12</title>
<path fill="none" stroke="midnightblue" d="M316.014,-377.553C341.876,-383.011 374.08,-389.806 403.351,-395.982"/>
<polygon fill="midnightblue" stroke="midnightblue" points="402.645,-399.41 413.152,-398.05 404.09,-392.561 402.645,-399.41"/>
</g>
<!-- Node13 -->
<g id="node25" class="node"><title>Node13</title>
<a xlink:href="class_urho3_d_1_1_viewport.html#aa09a004f072d387b6c57474f3b2229a7" target="_top" xlink:title="Return viewport camera.">
<polygon fill="none" stroke="black" points="403,-356.5 403,-377.5 565,-377.5 565,-356.5 403,-356.5"/>
<text text-anchor="middle" x="484" y="-364.5" font-family="FreeSans" font-size="10.00">Urho3D::Viewport::GetCamera</text>
</a>
</g>
<!-- Node4&#45;&gt;Node13 -->
<g id="edge24" class="edge"><title>Node4&#45;&gt;Node13</title>
<path fill="none" stroke="midnightblue" d="M324.707,-367C345.579,-367 369.602,-367 392.559,-367"/>
<polygon fill="midnightblue" stroke="midnightblue" points="392.666,-370.5 402.666,-367 392.666,-363.5 392.666,-370.5"/>
</g>
<!-- Node14 -->
<g id="node27" class="node"><title>Node14</title>
<a xlink:href="class_urho3_d_1_1_technique.html#a1ccb22ef2367381c00c4564b2d4b9995" target="_top" xlink:title="Return a pass type index by name. Allocate new if not used yet.">
<polygon fill="none" stroke="red" points="427.5,-304 427.5,-338 540.5,-338 540.5,-304 427.5,-304"/>
<text text-anchor="start" x="435.5" y="-325" font-family="FreeSans" font-size="10.00">Urho3D::Technique::</text>
<text text-anchor="middle" x="484" y="-312" font-family="FreeSans" font-size="10.00">GetPassIndex</text>
</a>
</g>
<!-- Node4&#45;&gt;Node14 -->
<g id="edge26" class="edge"><title>Node4&#45;&gt;Node14</title>
<path fill="none" stroke="midnightblue" d="M316.014,-356.447C346.089,-350.101 384.737,-341.945 417.38,-335.058"/>
<polygon fill="midnightblue" stroke="midnightblue" points="418.239,-338.453 427.301,-332.964 416.794,-331.604 418.239,-338.453"/>
</g>
<!-- Node15 -->
<g id="node29" class="node"><title>Node15</title>
<a xlink:href="class_urho3_d_1_1_string.html#a11572e3c07f60de65ac5d0c1ca5b6ba3" target="_top" xlink:title="Return length.">
<polygon fill="none" stroke="black" points="420.5,-264.5 420.5,-285.5 547.5,-285.5 547.5,-264.5 420.5,-264.5"/>
<text text-anchor="middle" x="484" y="-272.5" font-family="FreeSans" font-size="10.00">Urho3D::String::Length</text>
</a>
</g>
<!-- Node4&#45;&gt;Node15 -->
<g id="edge28" class="edge"><title>Node4&#45;&gt;Node15</title>
<path fill="none" stroke="midnightblue" d="M321.55,-356.469C332.217,-352.933 342.889,-348.234 352,-342 373.716,-327.142 365.725,-309.005 388,-295 394.916,-290.651 402.613,-287.23 410.554,-284.542"/>
<polygon fill="midnightblue" stroke="midnightblue" points="411.753,-287.837 420.327,-281.613 409.743,-281.132 411.753,-287.837"/>
</g>
<!-- Node16 -->
<g id="node31" class="node"><title>Node16</title>
<a xlink:href="class_urho3_d_1_1_string.html#a69ac7aadaa628fc05fc96abde992fcdc" target="_top" xlink:title="Return whether the string is empty.">
<polygon fill="none" stroke="black" points="421.5,-224.5 421.5,-245.5 546.5,-245.5 546.5,-224.5 421.5,-224.5"/>
<text text-anchor="middle" x="484" y="-232.5" font-family="FreeSans" font-size="10.00">Urho3D::String::Empty</text>
</a>
</g>
<!-- Node4&#45;&gt;Node16 -->
<g id="edge30" class="edge"><title>Node4&#45;&gt;Node16</title>
<path fill="none" stroke="midnightblue" d="M324.725,-357.609C334.654,-353.978 344.242,-348.952 352,-342 383.164,-314.073 355.778,-281.699 388,-255 394.858,-249.318 402.921,-245.123 411.412,-242.044"/>
<polygon fill="midnightblue" stroke="midnightblue" points="412.626,-245.332 421.138,-239.023 410.55,-238.647 412.626,-245.332"/>
</g>
<!-- Node17 -->
<g id="node33" class="node"><title>Node17</title>
<a xlink:href="class_urho3_d_1_1_component.html#a73cc05aee9060f5618ea1ef72668ba01" target="_top" xlink:title="Return whether is effectively enabled (node is also enabled.)">
<polygon fill="none" stroke="red" points="423,-172 423,-206 545,-206 545,-172 423,-172"/>
<text text-anchor="start" x="431" y="-193" font-family="FreeSans" font-size="10.00">Urho3D::Component::</text>
<text text-anchor="middle" x="484" y="-180" font-family="FreeSans" font-size="10.00">IsEnabledEffective</text>
</a>
</g>
<!-- Node4&#45;&gt;Node17 -->
<g id="edge32" class="edge"><title>Node4&#45;&gt;Node17</title>
<path fill="none" stroke="midnightblue" d="M324.522,-358.654C334.706,-354.936 344.439,-349.612 352,-342 393.346,-300.377 346.273,-256.241 388,-215 395.092,-207.99 403.87,-202.82 413.212,-199.016"/>
<polygon fill="midnightblue" stroke="midnightblue" points="414.446,-202.292 422.701,-195.65 412.106,-195.695 414.446,-202.292"/>
</g>
<!-- Node18 -->
<g id="node35" class="node"><title>Node18</title>
<a xlink:href="class_urho3_d_1_1_scene.html#abb2996951ef1c7e92e5b4745ec198617" target="_top" xlink:title="Return whether an asynchronous loading operation is in progress.">
<polygon fill="none" stroke="black" points="399.5,-132.5 399.5,-153.5 568.5,-153.5 568.5,-132.5 399.5,-132.5"/>
<text text-anchor="middle" x="484" y="-140.5" font-family="FreeSans" font-size="10.00">Urho3D::Scene::IsAsyncLoading</text>
</a>
</g>
<!-- Node4&#45;&gt;Node18 -->
<g id="edge34" class="edge"><title>Node4&#45;&gt;Node18</title>
<path fill="none" stroke="midnightblue" d="M324.563,-359.277C334.868,-355.515 344.635,-350.014 352,-342 406.908,-282.249 330.818,-220.579 388,-163 389.278,-161.713 390.617,-160.498 392.008,-159.352"/>
<polygon fill="midnightblue" stroke="midnightblue" points="394.243,-162.063 400.5,-153.513 390.277,-156.294 394.243,-162.063"/>
</g>
<!-- Node19 -->
<g id="node37" class="node"><title>Node19</title>
<a xlink:href="class_urho3_d_1_1_scene.html#aa4caa63f25045cca835ad6ab8c51fb35" target="_top" xlink:title="Return the load mode of the current asynchronous loading operation.">
<polygon fill="none" stroke="black" points="388.5,-92.5 388.5,-113.5 579.5,-113.5 579.5,-92.5 388.5,-92.5"/>
<text text-anchor="middle" x="484" y="-100.5" font-family="FreeSans" font-size="10.00">Urho3D::Scene::GetAsyncLoadMode</text>
</a>
</g>
<!-- Node4&#45;&gt;Node19 -->
<g id="edge36" class="edge"><title>Node4&#45;&gt;Node19</title>
<path fill="none" stroke="midnightblue" d="M324.791,-359.482C335.077,-355.703 344.779,-350.144 352,-342 417.442,-268.195 319.748,-194.214 388,-123 389.104,-121.848 390.257,-120.753 391.452,-119.713"/>
<polygon fill="midnightblue" stroke="midnightblue" points="393.842,-122.305 399.909,-113.619 389.749,-116.626 393.842,-122.305"/>
</g>
<!-- Node4&#45;&gt;Node20 -->
<g id="edge38" class="edge"><title>Node4&#45;&gt;Node20</title>
<path fill="none" stroke="midnightblue" d="M324.661,-359.913C335.087,-356.11 344.875,-350.432 352,-342 441.807,-235.717 294.143,-133.724 388,-31 389.041,-29.861 390.128,-28.7776 391.257,-27.7472"/>
<polygon fill="midnightblue" stroke="midnightblue" points="393.404,-30.5121 399.272,-21.6907 389.184,-24.9273 393.404,-30.5121"/>
</g>
<!-- Node21 -->
<g id="node41" class="node"><title>Node21</title>
<a xlink:href="class_urho3_d_1_1_camera.html#aa342ca178488ff7b172b37d57d88ce8f" target="_top" xlink:title="Return if projection parameters are valid for rendering and raycasting.">
<polygon fill="none" stroke="red" points="405,-40 405,-74 563,-74 563,-40 405,-40"/>
<text text-anchor="start" x="413" y="-61" font-family="FreeSans" font-size="10.00">Urho3D::Camera::IsProjection</text>
<text text-anchor="middle" x="484" y="-48" font-family="FreeSans" font-size="10.00">Valid</text>
</a>
</g>
<!-- Node4&#45;&gt;Node21 -->
<g id="edge40" class="edge"><title>Node4&#45;&gt;Node21</title>
<path fill="none" stroke="midnightblue" d="M324.511,-359.785C334.948,-355.992 344.779,-350.35 352,-342 428.019,-254.093 311.175,-170.204 388,-83 390.547,-80.1091 393.379,-77.5247 396.427,-75.2152"/>
<polygon fill="midnightblue" stroke="midnightblue" points="398.443,-78.0802 404.954,-69.7224 394.652,-72.1955 398.443,-78.0802"/>
</g>
</g>
</svg>
