<?xml version="1.0" encoding="UTF-8" standalone="no"?>
<!DOCTYPE svg PUBLIC "-//W3C//DTD SVG 1.1//EN"
 "http://www.w3.org/Graphics/SVG/1.1/DTD/svg11.dtd">
<!-- Generated by graphviz version 2.43.0 (0)
 -->
<!-- Title: Urho3D::CustomGeometry::Clear Pages: 1 -->
<svg width="518pt" height="112pt"
 viewBox="0.00 0.00 518.00 112.00" xmlns="http://www.w3.org/2000/svg" xmlns:xlink="http://www.w3.org/1999/xlink">
<g id="graph0" class="graph" transform="scale(1 1) rotate(0) translate(4 108)">
<title>Urho3D::CustomGeometry::Clear</title>
<!-- Node1 -->
<g id="node1" class="node">
<title>Node1</title>
<g id="a_node1"><a xlink:title="End Shape Generation Helper Functions.">
<polygon fill="#bfbfbf" stroke="black" points="364,-24.5 364,-54.5 510,-54.5 510,-24.5 364,-24.5"/>
<text text-anchor="start" x="372" y="-42.5" font-family="Helvetica,sans-Serif" font-size="10.00">Urho3D::CustomGeometry</text>
<text text-anchor="middle" x="437" y="-31.5" font-family="Helvetica,sans-Serif" font-size="10.00">::Clear</text>
</a>
</g>
</g>
<!-- Node2 -->
<g id="node2" class="node">
<title>Node2</title>
<g id="a_node2"><a xlink:href="class_urho3_d_1_1_custom_geometry.html#ae37d0eb3cd5a5d2c2aa7b90e91e75230" target="_top" xlink:title="Fills a point List shape with triangles.">
<polygon fill="none" stroke="black" points="182,-49.5 182,-79.5 328,-79.5 328,-49.5 182,-49.5"/>
<text text-anchor="start" x="190" y="-67.5" font-family="Helvetica,sans-Serif" font-size="10.00">Urho3D::CustomGeometry</text>
<text text-anchor="middle" x="255" y="-56.5" font-family="Helvetica,sans-Serif" font-size="10.00">::FillShape</text>
</a>
</g>
</g>
<!-- Node1&#45;&gt;Node2 -->
<g id="edge1" class="edge">
<title>Node1&#45;&gt;Node2</title>
<path fill="none" stroke="midnightblue" d="M353.84,-50.91C345.28,-52.1 336.63,-53.3 328.19,-54.47"/>
<polygon fill="midnightblue" stroke="midnightblue" points="354.4,-54.37 363.82,-49.52 353.44,-47.43 354.4,-54.37"/>
</g>
<!-- Node5 -->
<g id="node5" class="node">
<title>Node5</title>
<g id="a_node5"><a xlink:href="class_urho3_d_1_1_custom_geometry.html#a930fee77ab65a1d9d4743bfffceb633f" target="_top" xlink:title="Draws a shape generated by connecting the points in the input vector (the end point will connect to t...">
<polygon fill="none" stroke="black" points="182,-0.5 182,-30.5 328,-30.5 328,-0.5 182,-0.5"/>
<text text-anchor="start" x="190" y="-18.5" font-family="Helvetica,sans-Serif" font-size="10.00">Urho3D::CustomGeometry</text>
<text text-anchor="middle" x="255" y="-7.5" font-family="Helvetica,sans-Serif" font-size="10.00">::MakeShape</text>
</a>
</g>
</g>
<!-- Node1&#45;&gt;Node5 -->
<g id="edge4" class="edge">
<title>Node1&#45;&gt;Node5</title>
<path fill="none" stroke="midnightblue" d="M353.84,-28.55C345.28,-27.4 336.63,-26.25 328.19,-25.13"/>
<polygon fill="midnightblue" stroke="midnightblue" points="353.45,-32.02 363.82,-29.88 354.37,-25.09 353.45,-32.02"/>
</g>
<!-- Node3 -->
<g id="node3" class="node">
<title>Node3</title>
<g id="a_node3"><a xlink:href="class_urho3_d_1_1_custom_geometry.html#ae9b054f53c3d677f1b9df4b13e07bcc1" target="_top" xlink:title=" ">
<polygon fill="none" stroke="black" points="0,-73.5 0,-103.5 146,-103.5 146,-73.5 0,-73.5"/>
<text text-anchor="start" x="8" y="-91.5" font-family="Helvetica,sans-Serif" font-size="10.00">Urho3D::CustomGeometry</text>
<text text-anchor="middle" x="73" y="-80.5" font-family="Helvetica,sans-Serif" font-size="10.00">::MakeCircle</text>
</a>
</g>
</g>
<!-- Node2&#45;&gt;Node3 -->
<g id="edge2" class="edge">
<title>Node2&#45;&gt;Node3</title>
<path fill="none" stroke="midnightblue" d="M171.84,-75.45C163.28,-76.6 154.63,-77.75 146.19,-78.87"/>
<polygon fill="midnightblue" stroke="midnightblue" points="172.37,-78.91 181.82,-74.12 171.45,-71.98 172.37,-78.91"/>
</g>
<!-- Node4 -->
<g id="node4" class="node">
<title>Node4</title>
<g id="a_node4"><a xlink:href="class_urho3_d_1_1_custom_geometry.html#a784ca2fd59f01687de808bd48d8535ca" target="_top" xlink:title="Makes this custom geometry into a square shape.">
<polygon fill="none" stroke="black" points="0,-24.5 0,-54.5 146,-54.5 146,-24.5 0,-24.5"/>
<text text-anchor="start" x="8" y="-42.5" font-family="Helvetica,sans-Serif" font-size="10.00">Urho3D::CustomGeometry</text>
<text text-anchor="middle" x="73" y="-31.5" font-family="Helvetica,sans-Serif" font-size="10.00">::MakeSquare</text>
</a>
</g>
</g>
<!-- Node2&#45;&gt;Node4 -->
<g id="edge3" class="edge">
<title>Node2&#45;&gt;Node4</title>
<path fill="none" stroke="midnightblue" d="M171.84,-53.09C163.28,-51.9 154.63,-50.7 146.19,-49.53"/>
<polygon fill="midnightblue" stroke="midnightblue" points="171.44,-56.57 181.82,-54.48 172.4,-49.63 171.44,-56.57"/>
</g>
</g>
</svg>
