<?xml version="1.0" encoding="UTF-8" standalone="no"?>
<!DOCTYPE svg PUBLIC "-//W3C//DTD SVG 1.1//EN"
 "http://www.w3.org/Graphics/SVG/1.1/DTD/svg11.dtd">
<!-- Generated by graphviz version 2.43.0 (0)
 -->
<!-- Title: Urho3D::Light::GetLightType Pages: 1 -->
<svg width="2029pt" height="548pt"
 viewBox="0.00 0.00 2029.00 548.00" xmlns="http://www.w3.org/2000/svg" xmlns:xlink="http://www.w3.org/1999/xlink">
<g id="graph0" class="graph" transform="scale(1 1) rotate(0) translate(4 544)">
<title>Urho3D::Light::GetLightType</title>
<!-- Node1 -->
<g id="node1" class="node">
<title>Node1</title>
<g id="a_node1"><a xlink:title=" ">
<polygon fill="#bfbfbf" stroke="black" points="1868,-255 1868,-274 2021,-274 2021,-255 1868,-255"/>
<text text-anchor="middle" x="1944.5" y="-262" font-family="Helvetica,sans-Serif" font-size="10.00">Urho3D::Light::GetLightType</text>
</a>
</g>
</g>
<!-- Node2 -->
<g id="node2" class="node">
<title>Node2</title>
<g id="a_node2"><a xlink:href="class_urho3_d_1_1_view.html#a12e115af146e183d6ac73cd2de04e39d" target="_top" xlink:title="Finalize shadow camera view after shadow casters and the shadow map are known.">
<polygon fill="none" stroke="black" points="1657,-509.5 1657,-539.5 1821,-539.5 1821,-509.5 1657,-509.5"/>
<text text-anchor="start" x="1665" y="-527.5" font-family="Helvetica,sans-Serif" font-size="10.00">Urho3D::View::FinalizeShadow</text>
<text text-anchor="middle" x="1739" y="-516.5" font-family="Helvetica,sans-Serif" font-size="10.00">Camera</text>
</a>
</g>
</g>
<!-- Node1&#45;&gt;Node2 -->
<g id="edge1" class="edge">
<title>Node1&#45;&gt;Node2</title>
<path fill="none" stroke="midnightblue" d="M1939.98,-284.47C1930.85,-330.07 1902.1,-442.37 1832,-500.5 1827.93,-503.87 1823.45,-506.78 1818.71,-509.28"/>
<polygon fill="midnightblue" stroke="midnightblue" points="1943.46,-284.86 1941.89,-274.39 1936.59,-283.56 1943.46,-284.86"/>
</g>
<!-- Node12 -->
<g id="node12" class="node">
<title>Node12</title>
<g id="a_node12"><a xlink:href="class_urho3_d_1_1_renderer.html#acad56929dfa55c978d3ce19aa57c5483" target="_top" xlink:title="Return volume geometry for a light.">
<polygon fill="none" stroke="black" points="1663.5,-460.5 1663.5,-490.5 1814.5,-490.5 1814.5,-460.5 1663.5,-460.5"/>
<text text-anchor="start" x="1671.5" y="-478.5" font-family="Helvetica,sans-Serif" font-size="10.00">Urho3D::Renderer::GetLight</text>
<text text-anchor="middle" x="1739" y="-467.5" font-family="Helvetica,sans-Serif" font-size="10.00">Geometry</text>
</a>
</g>
</g>
<!-- Node1&#45;&gt;Node12 -->
<g id="edge12" class="edge">
<title>Node1&#45;&gt;Node12</title>
<path fill="none" stroke="midnightblue" d="M1937.52,-283.89C1924.7,-322.1 1890.87,-407.29 1832,-451.5 1826.72,-455.47 1820.84,-458.78 1814.69,-461.54"/>
<polygon fill="midnightblue" stroke="midnightblue" points="1940.96,-284.62 1940.7,-274.03 1934.3,-282.47 1940.96,-284.62"/>
</g>
<!-- Node13 -->
<g id="node13" class="node">
<title>Node13</title>
<g id="a_node13"><a xlink:href="class_urho3_d_1_1_renderer.html#a3f4c5f6c7f7490e74f15349dc16a6c69" target="_top" xlink:title="Return a scissor rectangle for a light.">
<polygon fill="none" stroke="black" points="1663.5,-411.5 1663.5,-441.5 1814.5,-441.5 1814.5,-411.5 1663.5,-411.5"/>
<text text-anchor="start" x="1671.5" y="-429.5" font-family="Helvetica,sans-Serif" font-size="10.00">Urho3D::Renderer::GetLight</text>
<text text-anchor="middle" x="1739" y="-418.5" font-family="Helvetica,sans-Serif" font-size="10.00">Scissor</text>
</a>
</g>
</g>
<!-- Node1&#45;&gt;Node13 -->
<g id="edge13" class="edge">
<title>Node1&#45;&gt;Node13</title>
<path fill="none" stroke="midnightblue" d="M1933.52,-283.09C1916.64,-312.75 1879.58,-370.56 1832,-401.5 1826.03,-405.38 1819.48,-408.66 1812.69,-411.44"/>
<polygon fill="midnightblue" stroke="midnightblue" points="1936.67,-284.64 1938.46,-274.2 1930.55,-281.24 1936.67,-284.64"/>
</g>
<!-- Node14 -->
<g id="node14" class="node">
<title>Node14</title>
<g id="a_node14"><a xlink:href="class_urho3_d_1_1_renderer.html#a7d4509e32b17bff5f3069f8fe6fd448d" target="_top" xlink:title="Allocate a shadow map. If shadow map reuse is disabled, a different map is returned each time.">
<polygon fill="none" stroke="black" points="1646,-373 1646,-392 1832,-392 1832,-373 1646,-373"/>
<text text-anchor="middle" x="1739" y="-380" font-family="Helvetica,sans-Serif" font-size="10.00">Urho3D::Renderer::GetShadowMap</text>
</a>
</g>
</g>
<!-- Node1&#45;&gt;Node14 -->
<g id="edge14" class="edge">
<title>Node1&#45;&gt;Node14</title>
<path fill="none" stroke="midnightblue" d="M1929.13,-281.98C1909.59,-304.53 1872.42,-343.23 1832,-363.5 1824.27,-367.38 1815.8,-370.46 1807.23,-372.92"/>
<polygon fill="midnightblue" stroke="midnightblue" points="1931.93,-284.1 1935.73,-274.21 1926.59,-279.57 1931.93,-284.1"/>
</g>
<!-- Node15 -->
<g id="node15" class="node">
<title>Node15</title>
<g id="a_node15"><a xlink:href="class_urho3_d_1_1_view.html#a095d13605a5cc24d9530f377f1e67d29" target="_top" xlink:title="Return the viewport for a shadow map split.">
<polygon fill="none" stroke="black" points="1656.5,-323.5 1656.5,-353.5 1821.5,-353.5 1821.5,-323.5 1656.5,-323.5"/>
<text text-anchor="start" x="1664.5" y="-341.5" font-family="Helvetica,sans-Serif" font-size="10.00">Urho3D::View::GetShadowMap</text>
<text text-anchor="middle" x="1739" y="-330.5" font-family="Helvetica,sans-Serif" font-size="10.00">Viewport</text>
</a>
</g>
</g>
<!-- Node1&#45;&gt;Node15 -->
<g id="edge15" class="edge">
<title>Node1&#45;&gt;Node15</title>
<path fill="none" stroke="midnightblue" d="M1915.37,-278.68C1893.14,-289.51 1861.11,-304.26 1832,-314.5 1822.81,-317.73 1812.97,-320.75 1803.27,-323.48"/>
<polygon fill="midnightblue" stroke="midnightblue" points="1917.13,-281.72 1924.56,-274.16 1914.04,-275.44 1917.13,-281.72"/>
</g>
<!-- Node16 -->
<g id="node16" class="node">
<title>Node16</title>
<g id="a_node16"><a xlink:href="class_urho3_d_1_1_renderer.html#a7f8fe99765e7b8700c68577eca16103d" target="_top" xlink:title="Optimize a light by scissor rectangle.">
<polygon fill="none" stroke="black" points="1662,-274.5 1662,-304.5 1816,-304.5 1816,-274.5 1662,-274.5"/>
<text text-anchor="start" x="1670" y="-292.5" font-family="Helvetica,sans-Serif" font-size="10.00">Urho3D::Renderer::Optimize</text>
<text text-anchor="middle" x="1739" y="-281.5" font-family="Helvetica,sans-Serif" font-size="10.00">LightByScissor</text>
</a>
</g>
</g>
<!-- Node1&#45;&gt;Node16 -->
<g id="edge17" class="edge">
<title>Node1&#45;&gt;Node16</title>
<path fill="none" stroke="midnightblue" d="M1857.76,-275.03C1843.95,-276.73 1829.74,-278.48 1816.18,-280.14"/>
<polygon fill="midnightblue" stroke="midnightblue" points="1858.23,-278.5 1867.72,-273.81 1857.37,-271.55 1858.23,-278.5"/>
</g>
<!-- Node17 -->
<g id="node17" class="node">
<title>Node17</title>
<g id="a_node17"><a xlink:href="class_urho3_d_1_1_renderer.html#a408789b2d93f27c7884360b7ecccec55" target="_top" xlink:title="Optimize a light by marking it to the stencil buffer and setting a stencil test.">
<polygon fill="none" stroke="black" points="1662,-225.5 1662,-255.5 1816,-255.5 1816,-225.5 1662,-225.5"/>
<text text-anchor="start" x="1670" y="-243.5" font-family="Helvetica,sans-Serif" font-size="10.00">Urho3D::Renderer::Optimize</text>
<text text-anchor="middle" x="1739" y="-232.5" font-family="Helvetica,sans-Serif" font-size="10.00">LightByStencil</text>
</a>
</g>
</g>
<!-- Node1&#45;&gt;Node17 -->
<g id="edge18" class="edge">
<title>Node1&#45;&gt;Node17</title>
<path fill="none" stroke="midnightblue" d="M1857.76,-254.39C1843.95,-252.76 1829.74,-251.08 1816.18,-249.48"/>
<polygon fill="midnightblue" stroke="midnightblue" points="1857.38,-257.87 1867.72,-255.56 1858.2,-250.92 1857.38,-257.87"/>
</g>
<!-- Node18 -->
<g id="node18" class="node">
<title>Node18</title>
<g id="a_node18"><a xlink:href="class_urho3_d_1_1_view.html#a8386e461553bac5a6b4512b8a9712e79" target="_top" xlink:title="Query for lit geometries and shadow casters for a light.">
<polygon fill="none" stroke="black" points="1664,-187 1664,-206 1814,-206 1814,-187 1664,-187"/>
<text text-anchor="middle" x="1739" y="-194" font-family="Helvetica,sans-Serif" font-size="10.00">Urho3D::View::ProcessLight</text>
</a>
</g>
</g>
<!-- Node1&#45;&gt;Node18 -->
<g id="edge19" class="edge">
<title>Node1&#45;&gt;Node18</title>
<path fill="none" stroke="midnightblue" d="M1915.02,-250.43C1892.83,-239.91 1861.02,-225.81 1832,-216.5 1819.39,-212.46 1805.55,-208.97 1792.52,-206.09"/>
<polygon fill="midnightblue" stroke="midnightblue" points="1913.67,-253.66 1924.2,-254.83 1916.7,-247.35 1913.67,-253.66"/>
</g>
<!-- Node19 -->
<g id="node19" class="node">
<title>Node19</title>
<g id="a_node19"><a xlink:href="class_urho3_d_1_1_view.html#a7d398cea4906919b033f5fc86f67d764" target="_top" xlink:title="Process shadow casters&#39; visibilities and build their combined view&#45; or projection&#45;space bounding box.">
<polygon fill="none" stroke="black" points="1657,-137.5 1657,-167.5 1821,-167.5 1821,-137.5 1657,-137.5"/>
<text text-anchor="start" x="1665" y="-155.5" font-family="Helvetica,sans-Serif" font-size="10.00">Urho3D::View::ProcessShadow</text>
<text text-anchor="middle" x="1739" y="-144.5" font-family="Helvetica,sans-Serif" font-size="10.00">Casters</text>
</a>
</g>
</g>
<!-- Node1&#45;&gt;Node19 -->
<g id="edge20" class="edge">
<title>Node1&#45;&gt;Node19</title>
<path fill="none" stroke="midnightblue" d="M1926.66,-247.79C1906.03,-228.23 1869.22,-196.12 1832,-177.5 1824.45,-173.72 1816.26,-170.46 1807.98,-167.65"/>
<polygon fill="midnightblue" stroke="midnightblue" points="1924.36,-250.43 1933.98,-254.86 1929.22,-245.4 1924.36,-250.43"/>
</g>
<!-- Node20 -->
<g id="node20" class="node">
<title>Node20</title>
<g id="a_node20"><a xlink:href="class_urho3_d_1_1_light.html#addf06c14a914ff91a084194c409a7917" target="_top" xlink:title="Register object factory. Drawable must be registered first.">
<polygon fill="none" stroke="black" points="1658.5,-99 1658.5,-118 1819.5,-118 1819.5,-99 1658.5,-99"/>
<text text-anchor="middle" x="1739" y="-106" font-family="Helvetica,sans-Serif" font-size="10.00">Urho3D::Light::RegisterObject</text>
</a>
</g>
</g>
<!-- Node1&#45;&gt;Node20 -->
<g id="edge21" class="edge">
<title>Node1&#45;&gt;Node20</title>
<path fill="none" stroke="midnightblue" d="M1933.67,-245.76C1916.99,-215.92 1880.2,-157.99 1832,-128.5 1824.89,-124.15 1816.96,-120.74 1808.82,-118.07"/>
<polygon fill="midnightblue" stroke="midnightblue" points="1930.69,-247.61 1938.54,-254.72 1936.84,-244.26 1930.69,-247.61"/>
</g>
<!-- Node21 -->
<g id="node21" class="node">
<title>Node21</title>
<g id="a_node21"><a xlink:href="class_urho3_d_1_1_view.html#aad3ec16bf264ae329528b17f79db267d" target="_top" xlink:title="Set up a light volume rendering batch.">
<polygon fill="none" stroke="black" points="1669,-49.5 1669,-79.5 1809,-79.5 1809,-49.5 1669,-49.5"/>
<text text-anchor="start" x="1677" y="-67.5" font-family="Helvetica,sans-Serif" font-size="10.00">Urho3D::View::SetupLight</text>
<text text-anchor="middle" x="1739" y="-56.5" font-family="Helvetica,sans-Serif" font-size="10.00">VolumeBatch</text>
</a>
</g>
</g>
<!-- Node1&#45;&gt;Node21 -->
<g id="edge22" class="edge">
<title>Node1&#45;&gt;Node21</title>
<path fill="none" stroke="midnightblue" d="M1936.73,-245.38C1922.92,-209.21 1887.99,-130.7 1832,-89.5 1825.2,-84.5 1817.46,-80.49 1809.42,-77.29"/>
<polygon fill="midnightblue" stroke="midnightblue" points="1933.45,-246.61 1940.2,-254.78 1940.02,-244.19 1933.45,-246.61"/>
</g>
<!-- Node22 -->
<g id="node22" class="node">
<title>Node22</title>
<g id="a_node22"><a xlink:href="class_urho3_d_1_1_view.html#a4d3766cb580e7a61b7ce50bc4e9aa926" target="_top" xlink:title="Set up initial shadow camera view(s).">
<polygon fill="none" stroke="black" points="1661.5,-0.5 1661.5,-30.5 1816.5,-30.5 1816.5,-0.5 1661.5,-0.5"/>
<text text-anchor="start" x="1669.5" y="-18.5" font-family="Helvetica,sans-Serif" font-size="10.00">Urho3D::View::SetupShadow</text>
<text text-anchor="middle" x="1739" y="-7.5" font-family="Helvetica,sans-Serif" font-size="10.00">Cameras</text>
</a>
</g>
</g>
<!-- Node1&#45;&gt;Node22 -->
<g id="edge23" class="edge">
<title>Node1&#45;&gt;Node22</title>
<path fill="none" stroke="midnightblue" d="M1939.41,-244.7C1929.32,-200.93 1899.04,-95.51 1832,-40.5 1827.27,-36.62 1821.98,-33.33 1816.4,-30.56"/>
<polygon fill="midnightblue" stroke="midnightblue" points="1936.04,-245.63 1941.6,-254.65 1942.87,-244.13 1936.04,-245.63"/>
</g>
<!-- Node3 -->
<g id="node3" class="node">
<title>Node3</title>
<g id="a_node3"><a xlink:href="class_urho3_d_1_1_view.html#a22d0ec09958510be31cf7e42a9d7f88f" target="_top" xlink:title="Get batches from lit geometries and shadowcasters.">
<polygon fill="none" stroke="black" points="1441,-422 1441,-441 1610,-441 1610,-422 1441,-422"/>
<text text-anchor="middle" x="1525.5" y="-429" font-family="Helvetica,sans-Serif" font-size="10.00">Urho3D::View::GetLightBatches</text>
</a>
</g>
</g>
<!-- Node2&#45;&gt;Node3 -->
<g id="edge2" class="edge">
<title>Node2&#45;&gt;Node3</title>
<path fill="none" stroke="midnightblue" d="M1661.72,-506.32C1656.35,-504.52 1651.06,-502.58 1646,-500.5 1605.44,-483.86 1561.8,-455.75 1540.22,-441.07"/>
<polygon fill="midnightblue" stroke="midnightblue" points="1660.87,-509.72 1671.46,-509.43 1663,-503.05 1660.87,-509.72"/>
</g>
<!-- Node4 -->
<g id="node4" class="node">
<title>Node4</title>
<g id="a_node4"><a xlink:href="class_urho3_d_1_1_view.html#a9fa4e0593945674a5ab2b52ac89e785a" target="_top" xlink:title="Construct batches from the drawable objects.">
<polygon fill="none" stroke="black" points="1260,-422 1260,-441 1405,-441 1405,-422 1260,-422"/>
<text text-anchor="middle" x="1332.5" y="-429" font-family="Helvetica,sans-Serif" font-size="10.00">Urho3D::View::GetBatches</text>
</a>
</g>
</g>
<!-- Node3&#45;&gt;Node4 -->
<g id="edge3" class="edge">
<title>Node3&#45;&gt;Node4</title>
<path fill="none" stroke="midnightblue" d="M1430.7,-431.5C1422.15,-431.5 1413.57,-431.5 1405.25,-431.5"/>
<polygon fill="midnightblue" stroke="midnightblue" points="1430.72,-435 1440.72,-431.5 1430.72,-428 1430.72,-435"/>
</g>
<!-- Node5 -->
<g id="node5" class="node">
<title>Node5</title>
<g id="a_node5"><a xlink:href="class_urho3_d_1_1_view.html#a50c3fe5d5c2b3040e13925aa277a8d93" target="_top" xlink:title="Update and cull objects and construct rendering batches.">
<polygon fill="none" stroke="black" points="1100,-422 1100,-441 1224,-441 1224,-422 1100,-422"/>
<text text-anchor="middle" x="1162" y="-429" font-family="Helvetica,sans-Serif" font-size="10.00">Urho3D::View::Update</text>
</a>
</g>
</g>
<!-- Node4&#45;&gt;Node5 -->
<g id="edge4" class="edge">
<title>Node4&#45;&gt;Node5</title>
<path fill="none" stroke="midnightblue" d="M1249.53,-431.5C1240.97,-431.5 1232.37,-431.5 1224.1,-431.5"/>
<polygon fill="midnightblue" stroke="midnightblue" points="1249.55,-435 1259.55,-431.5 1249.55,-428 1249.55,-435"/>
</g>
<!-- Node6 -->
<g id="node6" class="node">
<title>Node6</title>
<g id="a_node6"><a xlink:href="class_urho3_d_1_1_renderer.html#a0fa71f5839321a9d68def7a2978f452a" target="_top" xlink:title="Update a queued viewport for rendering.">
<polygon fill="none" stroke="black" points="919,-416.5 919,-446.5 1064,-446.5 1064,-416.5 919,-416.5"/>
<text text-anchor="start" x="927" y="-434.5" font-family="Helvetica,sans-Serif" font-size="10.00">Urho3D::Renderer::Update</text>
<text text-anchor="middle" x="991.5" y="-423.5" font-family="Helvetica,sans-Serif" font-size="10.00">QueuedViewport</text>
</a>
</g>
</g>
<!-- Node5&#45;&gt;Node6 -->
<g id="edge5" class="edge">
<title>Node5&#45;&gt;Node6</title>
<path fill="none" stroke="midnightblue" d="M1089.52,-431.5C1081.09,-431.5 1072.49,-431.5 1064.06,-431.5"/>
<polygon fill="midnightblue" stroke="midnightblue" points="1089.69,-435 1099.69,-431.5 1089.69,-428 1089.69,-435"/>
</g>
<!-- Node7 -->
<g id="node7" class="node">
<title>Node7</title>
<g id="a_node7"><a xlink:href="class_urho3_d_1_1_renderer.html#a993f63f35d27a9ea6df861962018f354" target="_top" xlink:title="Update for rendering. Called by HandleRenderUpdate().">
<polygon fill="none" stroke="black" points="738,-422 738,-441 883,-441 883,-422 738,-422"/>
<text text-anchor="middle" x="810.5" y="-429" font-family="Helvetica,sans-Serif" font-size="10.00">Urho3D::Renderer::Update</text>
</a>
</g>
</g>
<!-- Node6&#45;&gt;Node7 -->
<g id="edge6" class="edge">
<title>Node6&#45;&gt;Node7</title>
<path fill="none" stroke="midnightblue" d="M908.96,-431.5C900.36,-431.5 891.67,-431.5 883.2,-431.5"/>
<polygon fill="midnightblue" stroke="midnightblue" points="908.98,-435 918.98,-431.5 908.98,-428 908.98,-435"/>
</g>
<!-- Node8 -->
<g id="node8" class="node">
<title>Node8</title>
<g id="a_node8"><a xlink:href="class_urho3_d_1_1_renderer.html#adf594e7a524f6e003e8370cf23dbee13" target="_top" xlink:title="Handle render update event.">
<polygon fill="none" stroke="black" points="558,-416.5 558,-446.5 702,-446.5 702,-416.5 558,-416.5"/>
<text text-anchor="start" x="566" y="-434.5" font-family="Helvetica,sans-Serif" font-size="10.00">Urho3D::Renderer::Handle</text>
<text text-anchor="middle" x="630" y="-423.5" font-family="Helvetica,sans-Serif" font-size="10.00">RenderUpdate</text>
</a>
</g>
</g>
<!-- Node7&#45;&gt;Node8 -->
<g id="edge7" class="edge">
<title>Node7&#45;&gt;Node8</title>
<path fill="none" stroke="midnightblue" d="M727.86,-431.5C719.23,-431.5 710.5,-431.5 702.01,-431.5"/>
<polygon fill="midnightblue" stroke="midnightblue" points="727.93,-435 737.93,-431.5 727.93,-428 727.93,-435"/>
</g>
<!-- Node9 -->
<g id="node9" class="node">
<title>Node9</title>
<g id="a_node9"><a xlink:href="class_urho3_d_1_1_renderer.html#ae0d765a240f7cf5f829ddc95cb2729c9" target="_top" xlink:title="Initialize when screen mode initially set.">
<polygon fill="none" stroke="black" points="370,-422 370,-441 522,-441 522,-422 370,-422"/>
<text text-anchor="middle" x="446" y="-429" font-family="Helvetica,sans-Serif" font-size="10.00">Urho3D::Renderer::Initialize</text>
</a>
</g>
</g>
<!-- Node8&#45;&gt;Node9 -->
<g id="edge8" class="edge">
<title>Node8&#45;&gt;Node9</title>
<path fill="none" stroke="midnightblue" d="M547.83,-431.5C539.24,-431.5 530.52,-431.5 522,-431.5"/>
<polygon fill="midnightblue" stroke="midnightblue" points="547.85,-435 557.85,-431.5 547.85,-428 547.85,-435"/>
</g>
<!-- Node10 -->
<g id="node10" class="node">
<title>Node10</title>
<g id="a_node10"><a xlink:href="class_urho3_d_1_1_renderer.html#ade42fa3aa8f7f48620bffc61ab32c635" target="_top" xlink:title="Handle screen mode event.">
<polygon fill="none" stroke="black" points="190,-438.5 190,-468.5 334,-468.5 334,-438.5 190,-438.5"/>
<text text-anchor="start" x="198" y="-456.5" font-family="Helvetica,sans-Serif" font-size="10.00">Urho3D::Renderer::Handle</text>
<text text-anchor="middle" x="262" y="-445.5" font-family="Helvetica,sans-Serif" font-size="10.00">ScreenMode</text>
</a>
</g>
</g>
<!-- Node9&#45;&gt;Node10 -->
<g id="edge9" class="edge">
<title>Node9&#45;&gt;Node10</title>
<path fill="none" stroke="midnightblue" d="M359.86,-441.79C351.24,-442.83 342.55,-443.88 334.1,-444.91"/>
<polygon fill="midnightblue" stroke="midnightblue" points="360.42,-445.25 369.92,-440.58 359.58,-438.3 360.42,-445.25"/>
</g>
<!-- Node11 -->
<g id="node11" class="node">
<title>Node11</title>
<g id="a_node11"><a xlink:href="class_urho3_d_1_1_renderer.html#a8e41f9dda2e33e9e208c5ccfd0d1c6ac" target="_top" xlink:title="Construct.">
<polygon fill="none" stroke="black" points="0,-422 0,-441 154,-441 154,-422 0,-422"/>
<text text-anchor="middle" x="77" y="-429" font-family="Helvetica,sans-Serif" font-size="10.00">Urho3D::Renderer::Renderer</text>
</a>
</g>
</g>
<!-- Node9&#45;&gt;Node11 -->
<g id="edge11" class="edge">
<title>Node9&#45;&gt;Node11</title>
<path fill="none" stroke="midnightblue" d="M359.63,-429.81C350.97,-429.68 342.31,-429.57 334,-429.5 270,-428.92 254,-428.93 190,-429.5 178.43,-429.6 166.19,-429.77 154.21,-429.96"/>
<polygon fill="midnightblue" stroke="midnightblue" points="359.72,-433.31 369.77,-429.96 359.82,-426.31 359.72,-433.31"/>
</g>
<!-- Node10&#45;&gt;Node11 -->
<g id="edge10" class="edge">
<title>Node10&#45;&gt;Node11</title>
<path fill="none" stroke="midnightblue" d="M179.97,-443.76C171.38,-442.73 162.66,-441.68 154.13,-440.65"/>
<polygon fill="midnightblue" stroke="midnightblue" points="179.64,-447.24 189.99,-444.96 180.47,-440.29 179.64,-447.24"/>
</g>
<!-- Node15&#45;&gt;Node3 -->
<g id="edge16" class="edge">
<title>Node15&#45;&gt;Node3</title>
<path fill="none" stroke="midnightblue" d="M1664.48,-356.67C1658.16,-358.78 1651.92,-361.06 1646,-363.5 1605.84,-380.07 1562.38,-407.45 1540.62,-421.89"/>
<polygon fill="midnightblue" stroke="midnightblue" points="1665.97,-359.87 1674.44,-353.51 1663.85,-353.2 1665.97,-359.87"/>
</g>
</g>
</svg>
