<?xml version="1.0" encoding="UTF-8" standalone="no"?>
<!DOCTYPE svg PUBLIC "-//W3C//DTD SVG 1.1//EN"
 "http://www.w3.org/Graphics/SVG/1.1/DTD/svg11.dtd">
<!-- Generated by graphviz version 2.43.0 (0)
 -->
<!-- Title: Urho3D::Skeleton::GetRootBone Pages: 1 -->
<svg width="893pt" height="176pt"
 viewBox="0.00 0.00 893.00 176.00" xmlns="http://www.w3.org/2000/svg" xmlns:xlink="http://www.w3.org/1999/xlink">
<g id="graph0" class="graph" transform="scale(1 1) rotate(0) translate(4 172)">
<title>Urho3D::Skeleton::GetRootBone</title>
<!-- Node1 -->
<g id="node1" class="node">
<title>Node1</title>
<g id="a_node1"><a xlink:title=" ">
<polygon fill="#bfbfbf" stroke="black" points="713,-94 713,-113 885,-113 885,-94 713,-94"/>
<text text-anchor="middle" x="799" y="-101" font-family="Helvetica,sans-Serif" font-size="10.00">Urho3D::Skeleton::GetRootBone</text>
</a>
</g>
</g>
<!-- Node2 -->
<g id="node2" class="node">
<title>Node2</title>
<g id="a_node2"><a xlink:href="class_urho3_d_1_1_animated_model.html#a942660d75530f688f2eff8f02dd369e2" target="_top" xlink:title="Remove (old) skeleton root bone.">
<polygon fill="none" stroke="black" points="540,-132.5 540,-162.5 677,-162.5 677,-132.5 540,-132.5"/>
<text text-anchor="start" x="548" y="-150.5" font-family="Helvetica,sans-Serif" font-size="10.00">Urho3D::AnimatedModel</text>
<text text-anchor="middle" x="608.5" y="-139.5" font-family="Helvetica,sans-Serif" font-size="10.00">::RemoveRootBone</text>
</a>
</g>
</g>
<!-- Node1&#45;&gt;Node2 -->
<g id="edge1" class="edge">
<title>Node1&#45;&gt;Node2</title>
<path fill="none" stroke="midnightblue" d="M747.09,-115.38C724.6,-120.63 697.91,-126.86 674.04,-132.43"/>
<polygon fill="midnightblue" stroke="midnightblue" points="748.16,-118.73 757.1,-113.05 746.56,-111.91 748.16,-118.73"/>
</g>
<!-- Node6 -->
<g id="node6" class="node">
<title>Node6</title>
<g id="a_node6"><a xlink:href="class_urho3_d_1_1_animated_model.html#a2de4b384ea7057c33a9318d374711623" target="_top" xlink:title="Destruct.">
<polygon fill="none" stroke="black" points="356.5,-88.5 356.5,-118.5 493.5,-118.5 493.5,-88.5 356.5,-88.5"/>
<text text-anchor="start" x="364.5" y="-106.5" font-family="Helvetica,sans-Serif" font-size="10.00">Urho3D::AnimatedModel</text>
<text text-anchor="middle" x="425" y="-95.5" font-family="Helvetica,sans-Serif" font-size="10.00">::~AnimatedModel</text>
</a>
</g>
</g>
<!-- Node1&#45;&gt;Node6 -->
<g id="edge9" class="edge">
<title>Node1&#45;&gt;Node6</title>
<path fill="none" stroke="midnightblue" d="M702.34,-103.5C636.99,-103.5 551.98,-103.5 493.6,-103.5"/>
<polygon fill="midnightblue" stroke="midnightblue" points="702.66,-107 712.66,-103.5 702.66,-100 702.66,-107"/>
</g>
<!-- Node7 -->
<g id="node7" class="node">
<title>Node7</title>
<g id="a_node7"><a xlink:href="class_urho3_d_1_1_animation_state.html#a73efb90d9d6a41debe30e4d151a50e85" target="_top" xlink:title=" ">
<polygon fill="none" stroke="black" points="541,-44.5 541,-74.5 676,-74.5 676,-44.5 541,-44.5"/>
<text text-anchor="start" x="549" y="-62.5" font-family="Helvetica,sans-Serif" font-size="10.00">Urho3D::AnimationState</text>
<text text-anchor="middle" x="608.5" y="-51.5" font-family="Helvetica,sans-Serif" font-size="10.00">::SetStartBone</text>
</a>
</g>
</g>
<!-- Node1&#45;&gt;Node7 -->
<g id="edge6" class="edge">
<title>Node1&#45;&gt;Node7</title>
<path fill="none" stroke="midnightblue" d="M747.09,-91.62C724.6,-86.37 697.91,-80.14 674.04,-74.57"/>
<polygon fill="midnightblue" stroke="midnightblue" points="746.56,-95.09 757.1,-93.95 748.16,-88.27 746.56,-95.09"/>
</g>
<!-- Node3 -->
<g id="node3" class="node">
<title>Node3</title>
<g id="a_node3"><a xlink:href="class_urho3_d_1_1_animated_model.html#aeae317724517abf074f05f2c2c411697" target="_top" xlink:title="Set skeleton.">
<polygon fill="none" stroke="black" points="356.5,-137.5 356.5,-167.5 493.5,-167.5 493.5,-137.5 356.5,-137.5"/>
<text text-anchor="start" x="364.5" y="-155.5" font-family="Helvetica,sans-Serif" font-size="10.00">Urho3D::AnimatedModel</text>
<text text-anchor="middle" x="425" y="-144.5" font-family="Helvetica,sans-Serif" font-size="10.00">::SetSkeleton</text>
</a>
</g>
</g>
<!-- Node2&#45;&gt;Node3 -->
<g id="edge2" class="edge">
<title>Node2&#45;&gt;Node3</title>
<path fill="none" stroke="midnightblue" d="M529.88,-149.64C517.83,-149.97 505.45,-150.31 493.64,-150.64"/>
<polygon fill="midnightblue" stroke="midnightblue" points="530.02,-153.14 539.92,-149.36 529.82,-146.14 530.02,-153.14"/>
</g>
<!-- Node2&#45;&gt;Node6 -->
<g id="edge5" class="edge">
<title>Node2&#45;&gt;Node6</title>
<path fill="none" stroke="midnightblue" d="M535.82,-130.12C520,-126.29 503.38,-122.26 487.98,-118.53"/>
<polygon fill="midnightblue" stroke="midnightblue" points="535,-133.53 545.55,-132.48 536.65,-126.72 535,-133.53"/>
</g>
<!-- Node4 -->
<g id="node4" class="node">
<title>Node4</title>
<g id="a_node4"><a xlink:href="class_urho3_d_1_1_animated_model.html#a1a9c66f9b072816093f73d60e5b58f62" target="_top" xlink:title="Assign skeleton and animation bone node references as a postprocess. Called by ApplyAttributes.">
<polygon fill="none" stroke="black" points="173,-90.5 173,-120.5 310,-120.5 310,-90.5 173,-90.5"/>
<text text-anchor="start" x="181" y="-108.5" font-family="Helvetica,sans-Serif" font-size="10.00">Urho3D::AnimatedModel</text>
<text text-anchor="middle" x="241.5" y="-97.5" font-family="Helvetica,sans-Serif" font-size="10.00">::AssignBoneNodes</text>
</a>
</g>
</g>
<!-- Node3&#45;&gt;Node4 -->
<g id="edge3" class="edge">
<title>Node3&#45;&gt;Node4</title>
<path fill="none" stroke="midnightblue" d="M356.33,-134.98C337.97,-130.22 318.27,-125.12 300.5,-120.52"/>
<polygon fill="midnightblue" stroke="midnightblue" points="355.52,-138.38 366.07,-137.5 357.27,-131.6 355.52,-138.38"/>
</g>
<!-- Node5 -->
<g id="node5" class="node">
<title>Node5</title>
<g id="a_node5"><a xlink:href="class_urho3_d_1_1_animated_model.html#a92285931ef13f7c032bb04a7799d5970" target="_top" xlink:title="Apply attribute changes that can not be applied immediately. Called after scene load or a network upd...">
<polygon fill="none" stroke="black" points="0,-90.5 0,-120.5 137,-120.5 137,-90.5 0,-90.5"/>
<text text-anchor="start" x="8" y="-108.5" font-family="Helvetica,sans-Serif" font-size="10.00">Urho3D::AnimatedModel</text>
<text text-anchor="middle" x="68.5" y="-97.5" font-family="Helvetica,sans-Serif" font-size="10.00">::ApplyAttributes</text>
</a>
</g>
</g>
<!-- Node4&#45;&gt;Node5 -->
<g id="edge4" class="edge">
<title>Node4&#45;&gt;Node5</title>
<path fill="none" stroke="midnightblue" d="M162.9,-105.5C154.31,-105.5 145.61,-105.5 137.15,-105.5"/>
<polygon fill="midnightblue" stroke="midnightblue" points="162.92,-109 172.92,-105.5 162.92,-102 162.92,-109"/>
</g>
<!-- Node7&#45;&gt;Node4 -->
<g id="edge7" class="edge">
<title>Node7&#45;&gt;Node4</title>
<path fill="none" stroke="midnightblue" d="M530.55,-61.95C478.24,-64.45 407.62,-69.48 346,-79.5 329.27,-82.22 311.27,-86.32 295.06,-90.46"/>
<polygon fill="midnightblue" stroke="midnightblue" points="530.93,-65.44 540.76,-61.48 530.61,-58.44 530.93,-65.44"/>
</g>
<!-- Node8 -->
<g id="node8" class="node">
<title>Node8</title>
<g id="a_node8"><a xlink:href="class_urho3_d_1_1_animation_controller.html#ad8fb6e2fd723fe2537c523d25298bcca" target="_top" xlink:title="Set animation start bone. Return true on success.">
<polygon fill="none" stroke="black" points="346,-0.5 346,-30.5 504,-30.5 504,-0.5 346,-0.5"/>
<text text-anchor="start" x="354" y="-18.5" font-family="Helvetica,sans-Serif" font-size="10.00">Urho3D::AnimationController</text>
<text text-anchor="middle" x="425" y="-7.5" font-family="Helvetica,sans-Serif" font-size="10.00">::SetStartBone</text>
</a>
</g>
</g>
<!-- Node7&#45;&gt;Node8 -->
<g id="edge8" class="edge">
<title>Node7&#45;&gt;Node8</title>
<path fill="none" stroke="midnightblue" d="M535.82,-42.12C520,-38.29 503.38,-34.26 487.98,-30.53"/>
<polygon fill="midnightblue" stroke="midnightblue" points="535,-45.53 545.55,-44.48 536.65,-38.72 535,-45.53"/>
</g>
</g>
</svg>
