<?xml version="1.0" encoding="UTF-8" standalone="no"?>
<!DOCTYPE svg PUBLIC "-//W3C//DTD SVG 1.1//EN"
 "http://www.w3.org/Graphics/SVG/1.1/DTD/svg11.dtd">
<!-- Generated by graphviz version 2.43.0 (0)
 -->
<!-- Title: Urho3D::RenderPath Pages: 1 -->
<svg width="576pt" height="128pt"
 viewBox="0.00 0.00 576.00 127.50" xmlns="http://www.w3.org/2000/svg" xmlns:xlink="http://www.w3.org/1999/xlink">
<g id="graph0" class="graph" transform="scale(1 1) rotate(0) translate(4 123.5)">
<title>Urho3D::RenderPath</title>
<!-- Node1 -->
<g id="node1" class="node">
<title>Node1</title>
<g id="a_node1"><a xlink:title="Rendering path definition. A sequence of commands (e.g. clear screen, draw objects with specific pass...">
<polygon fill="#bfbfbf" stroke="black" points="453,-55 453,-74 568,-74 568,-55 453,-55"/>
<text text-anchor="middle" x="510.5" y="-62" font-family="Helvetica,sans-Serif" font-size="10.00">Urho3D::RenderPath</text>
</a>
</g>
</g>
<!-- Node2 -->
<g id="node2" class="node">
<title>Node2</title>
<g id="a_node2"><a xlink:href="class_urho3_d_1_1_ref_counted.html" target="_top" xlink:title="Base class for intrusively reference&#45;counted objects. These are noncopyable and non&#45;assignable.">
<polygon fill="none" stroke="black" points="213,-99 213,-118 329,-118 329,-99 213,-99"/>
<text text-anchor="middle" x="271" y="-106" font-family="Helvetica,sans-Serif" font-size="10.00">Urho3D::RefCounted</text>
</a>
</g>
</g>
<!-- Node2&#45;&gt;Node1 -->
<g id="edge1" class="edge">
<title>Node2&#45;&gt;Node1</title>
<path fill="none" stroke="midnightblue" d="M337.38,-97.22C367.18,-91.98 402.9,-85.59 435,-79.5 444.07,-77.78 453.76,-75.88 463.03,-74.02"/>
<polygon fill="midnightblue" stroke="midnightblue" points="336.75,-93.77 327.51,-98.94 337.96,-100.67 336.75,-93.77"/>
</g>
<!-- Node3 -->
<g id="node3" class="node">
<title>Node3</title>
<g id="a_node3"><a xlink:href="struct_urho3_d_1_1_ref_count.html" target="_top" xlink:title="Reference count structure.">
<polygon fill="none" stroke="black" points="5,-99 5,-118 109,-118 109,-99 5,-99"/>
<text text-anchor="middle" x="57" y="-106" font-family="Helvetica,sans-Serif" font-size="10.00">Urho3D::RefCount</text>
</a>
</g>
</g>
<!-- Node3&#45;&gt;Node2 -->
<g id="edge2" class="edge">
<title>Node3&#45;&gt;Node2</title>
<path fill="none" stroke="#9a32cd" stroke-dasharray="5,2" d="M119.21,-108.5C148.65,-108.5 183.75,-108.5 212.67,-108.5"/>
<polygon fill="#9a32cd" stroke="#9a32cd" points="119.05,-105 109.05,-108.5 119.05,-112 119.05,-105"/>
<text text-anchor="middle" x="157.5" y="-111.5" font-family="Helvetica,sans-Serif" font-size="10.00"> refCount_</text>
</g>
<!-- Node4 -->
<g id="node4" class="node">
<title>Node4</title>
<g id="a_node4"><a xlink:href="class_urho3_d_1_1_vector.html" target="_top" xlink:title=" ">
<polygon fill="none" stroke="black" points="201,-49.5 201,-79.5 341,-79.5 341,-49.5 201,-49.5"/>
<text text-anchor="start" x="209" y="-67.5" font-family="Helvetica,sans-Serif" font-size="10.00">Urho3D::Vector&lt; Urho3D</text>
<text text-anchor="middle" x="271" y="-56.5" font-family="Helvetica,sans-Serif" font-size="10.00">::RenderPathCommand &gt;</text>
</a>
</g>
</g>
<!-- Node4&#45;&gt;Node1 -->
<g id="edge3" class="edge">
<title>Node4&#45;&gt;Node1</title>
<path fill="none" stroke="#9a32cd" stroke-dasharray="5,2" d="M351.17,-64.5C384.41,-64.5 422.33,-64.5 452.72,-64.5"/>
<polygon fill="#9a32cd" stroke="#9a32cd" points="351.01,-61 341.01,-64.5 351.01,-68 351.01,-61"/>
<text text-anchor="middle" x="397" y="-67.5" font-family="Helvetica,sans-Serif" font-size="10.00"> commands_</text>
</g>
<!-- Node5 -->
<g id="node5" class="node">
<title>Node5</title>
<g id="a_node5"><a xlink:href="class_urho3_d_1_1_vector_base.html" target="_top" xlink:title="Vector base class.">
<polygon fill="none" stroke="black" points="0,-28 0,-47 114,-47 114,-28 0,-28"/>
<text text-anchor="middle" x="57" y="-35" font-family="Helvetica,sans-Serif" font-size="10.00">Urho3D::VectorBase</text>
</a>
</g>
</g>
<!-- Node5&#45;&gt;Node4 -->
<g id="edge4" class="edge">
<title>Node5&#45;&gt;Node4</title>
<path fill="none" stroke="midnightblue" d="M124.47,-45.97C148.82,-49.07 176.42,-52.58 200.98,-55.71"/>
<polygon fill="midnightblue" stroke="midnightblue" points="124.62,-42.46 114.26,-44.66 123.73,-49.4 124.62,-42.46"/>
</g>
<!-- Node6 -->
<g id="node6" class="node">
<title>Node6</title>
<g id="a_node6"><a xlink:href="class_urho3_d_1_1_vector.html" target="_top" xlink:title=" ">
<polygon fill="none" stroke="black" points="202,-0.5 202,-30.5 340,-30.5 340,-0.5 202,-0.5"/>
<text text-anchor="start" x="210" y="-18.5" font-family="Helvetica,sans-Serif" font-size="10.00">Urho3D::Vector&lt; Urho3D</text>
<text text-anchor="middle" x="271" y="-7.5" font-family="Helvetica,sans-Serif" font-size="10.00">::RenderTargetInfo &gt;</text>
</a>
</g>
</g>
<!-- Node5&#45;&gt;Node6 -->
<g id="edge6" class="edge">
<title>Node5&#45;&gt;Node6</title>
<path fill="none" stroke="midnightblue" d="M124.24,-30.63C148.9,-28.07 176.92,-25.16 201.76,-22.58"/>
<polygon fill="midnightblue" stroke="midnightblue" points="123.84,-27.15 114.26,-31.66 124.56,-34.11 123.84,-27.15"/>
</g>
<!-- Node6&#45;&gt;Node1 -->
<g id="edge5" class="edge">
<title>Node6&#45;&gt;Node1</title>
<path fill="none" stroke="#9a32cd" stroke-dasharray="5,2" d="M349.95,-31.58C387.43,-39.31 431.09,-48.32 463.25,-54.96"/>
<polygon fill="#9a32cd" stroke="#9a32cd" points="350.56,-28.13 340.06,-29.54 349.14,-34.99 350.56,-28.13"/>
<text text-anchor="middle" x="397" y="-51.5" font-family="Helvetica,sans-Serif" font-size="10.00"> renderTargets_</text>
</g>
</g>
</svg>
