<?xml version="1.0" encoding="UTF-8" standalone="no"?>
<!DOCTYPE svg PUBLIC "-//W3C//DTD SVG 1.1//EN"
 "http://www.w3.org/Graphics/SVG/1.1/DTD/svg11.dtd">
<!-- Generated by graphviz version 2.26.3 (20100126.1600)
 -->
<!-- Title: Urho3D::Menu Pages: 1 -->
<svg width="1454pt" height="1026pt"
 viewBox="0.00 0.00 1454.00 1026.00" xmlns="http://www.w3.org/2000/svg" xmlns:xlink="http://www.w3.org/1999/xlink">
<g id="graph1" class="graph" transform="scale(1 1) rotate(0) translate(4 1022)">
<title>Urho3D::Menu</title>
<!-- Node1 -->
<g id="node1" class="node"><title>Node1</title>
<polygon fill="#bfbfbf" stroke="black" points="1360,-90.5 1360,-111.5 1446,-111.5 1446,-90.5 1360,-90.5"/>
<text text-anchor="middle" x="1403" y="-98.5" font-family="FreeSans" font-size="10.00">Urho3D::Menu</text>
</g>
<!-- Node2 -->
<g id="node2" class="node"><title>Node2</title>
<a xlink:href="class_urho3_d_1_1_button.html" target="_top" xlink:title="Push button UI element.">
<polygon fill="none" stroke="black" points="1230,-90.5 1230,-111.5 1322,-111.5 1322,-90.5 1230,-90.5"/>
<text text-anchor="middle" x="1276" y="-98.5" font-family="FreeSans" font-size="10.00">Urho3D::Button</text>
</a>
</g>
<!-- Node2&#45;&gt;Node1 -->
<g id="edge2" class="edge"><title>Node2&#45;&gt;Node1</title>
<path fill="none" stroke="midnightblue" d="M1332.5,-101C1341.73,-101 1351.16,-101 1359.99,-101"/>
<polygon fill="midnightblue" stroke="midnightblue" points="1332.21,-97.5001 1322.21,-101 1332.21,-104.5 1332.21,-97.5001"/>
</g>
<!-- Node3 -->
<g id="node4" class="node"><title>Node3</title>
<a xlink:href="class_urho3_d_1_1_border_image.html" target="_top" xlink:title="Image UI element with optional border.">
<polygon fill="none" stroke="black" points="948,-246.5 948,-267.5 1070,-267.5 1070,-246.5 948,-246.5"/>
<text text-anchor="middle" x="1009" y="-254.5" font-family="FreeSans" font-size="10.00">Urho3D::BorderImage</text>
</a>
</g>
<!-- Node3&#45;&gt;Node2 -->
<g id="edge4" class="edge"><title>Node3&#45;&gt;Node2</title>
<path fill="none" stroke="midnightblue" d="M1036.1,-241.166C1090.54,-209.359 1211.9,-138.454 1257.87,-111.591"/>
<polygon fill="midnightblue" stroke="midnightblue" points="1034.22,-238.211 1027.35,-246.277 1037.75,-244.255 1034.22,-238.211"/>
</g>
<!-- Node4 -->
<g id="node6" class="node"><title>Node4</title>
<a xlink:href="class_urho3_d_1_1_u_i_element.html" target="_top" xlink:title="Base class for UI elements.">
<polygon fill="none" stroke="black" points="705.5,-436.5 705.5,-457.5 814.5,-457.5 814.5,-436.5 705.5,-436.5"/>
<text text-anchor="middle" x="760" y="-444.5" font-family="FreeSans" font-size="10.00">Urho3D::UIElement</text>
</a>
</g>
<!-- Node4&#45;&gt;Node3 -->
<g id="edge6" class="edge"><title>Node4&#45;&gt;Node3</title>
<path fill="none" stroke="midnightblue" d="M782.066,-430.162C832.261,-391.861 953.824,-299.102 995.054,-267.642"/>
<polygon fill="midnightblue" stroke="midnightblue" points="779.928,-427.392 774.101,-436.24 784.174,-432.957 779.928,-427.392"/>
</g>
<!-- Node4&#45;&gt;Node4 -->
<g id="edge36" class="edge"><title>Node4&#45;&gt;Node4</title>
<path fill="none" stroke="#9a32cd" stroke-dasharray="5,2" d="M737.885,-467.427C739.591,-472.349 746.963,-476 760,-476 780.859,-476 787.215,-466.653 779.067,-457.708"/>
<polygon fill="#9a32cd" stroke="#9a32cd" points="741.28,-468.297 740.933,-457.708 734.601,-466.202 741.28,-468.297"/>
<text text-anchor="middle" x="760" y="-480" font-family="FreeSans" font-size="10.00"> parent_</text>
</g>
<!-- Node25 -->
<g id="node61" class="node"><title>Node25</title>
<a xlink:href="class_urho3_d_1_1_shared_ptr.html" target="_top" xlink:title="Urho3D::SharedPtr\&lt;\l Urho3D::UIElement \&gt;">
<polygon fill="none" stroke="black" points="1088.5,-293 1088.5,-327 1211.5,-327 1211.5,-293 1088.5,-293"/>
<text text-anchor="start" x="1096.5" y="-314" font-family="FreeSans" font-size="10.00">Urho3D::SharedPtr&lt;</text>
<text text-anchor="middle" x="1150" y="-301" font-family="FreeSans" font-size="10.00"> Urho3D::UIElement &gt;</text>
</a>
</g>
<!-- Node4&#45;&gt;Node25 -->
<g id="edge76" class="edge"><title>Node4&#45;&gt;Node25</title>
<path fill="none" stroke="#9a32cd" stroke-dasharray="5,2" d="M799.556,-433.105C871.478,-407.84 1023.43,-354.462 1101.48,-327.044"/>
<polygon fill="#9a32cd" stroke="#9a32cd" points="798.23,-429.861 789.955,-436.477 800.55,-436.465 798.23,-429.861"/>
<text text-anchor="middle" x="883" y="-424" font-family="FreeSans" font-size="10.00"> ptr_</text>
</g>
<!-- Node5 -->
<g id="node8" class="node"><title>Node5</title>
<a xlink:href="class_urho3_d_1_1_animatable.html" target="_top" xlink:title="Base class for animatable object, an animatable object can be set animation on it&#39;s attributes...">
<polygon fill="none" stroke="black" points="422,-741.5 422,-762.5 536,-762.5 536,-741.5 422,-741.5"/>
<text text-anchor="middle" x="479" y="-749.5" font-family="FreeSans" font-size="10.00">Urho3D::Animatable</text>
</a>
</g>
<!-- Node5&#45;&gt;Node4 -->
<g id="edge8" class="edge"><title>Node5&#45;&gt;Node4</title>
<path fill="none" stroke="midnightblue" d="M546.284,-752.894C590.968,-749.839 647.849,-738.38 684,-703 720.696,-667.086 750.787,-501.671 758.231,-457.738"/>
<polygon fill="midnightblue" stroke="midnightblue" points="545.869,-749.412 536.079,-753.462 546.259,-756.401 545.869,-749.412"/>
</g>
<!-- Node6 -->
<g id="node10" class="node"><title>Node6</title>
<a xlink:href="class_urho3_d_1_1_serializable.html" target="_top" xlink:title="Base class for objects with automatic serialization through attributes.">
<polygon fill="none" stroke="red" points="44,-727.5 44,-748.5 158,-748.5 158,-727.5 44,-727.5"/>
<text text-anchor="middle" x="101" y="-735.5" font-family="FreeSans" font-size="10.00">Urho3D::Serializable</text>
</a>
</g>
<!-- Node6&#45;&gt;Node5 -->
<g id="edge10" class="edge"><title>Node6&#45;&gt;Node5</title>
<path fill="none" stroke="midnightblue" d="M168.762,-740.51C241.005,-743.185 354.14,-747.376 421.979,-749.888"/>
<polygon fill="midnightblue" stroke="midnightblue" points="168.533,-736.999 158.41,-740.126 168.274,-743.994 168.533,-736.999"/>
</g>
<!-- Node7 -->
<g id="node12" class="node"><title>Node7</title>
<a xlink:href="class_urho3_d_1_1_hash_map.html" target="_top" xlink:title="Urho3D::HashMap\&lt; Urho3D\l::String, Urho3D::SharedPtr\l\&lt; Urho3D::AttributeAnimationInfo \&gt; \&gt;">
<polygon fill="none" stroke="red" points="0.5,-661.5 0.5,-708.5 201.5,-708.5 201.5,-661.5 0.5,-661.5"/>
<text text-anchor="start" x="8.5" y="-695.5" font-family="FreeSans" font-size="10.00">Urho3D::HashMap&lt; Urho3D</text>
<text text-anchor="start" x="8.5" y="-682.5" font-family="FreeSans" font-size="10.00">::String, Urho3D::SharedPtr</text>
<text text-anchor="middle" x="101" y="-669.5" font-family="FreeSans" font-size="10.00">&lt; Urho3D::AttributeAnimationInfo &gt; &gt;</text>
</a>
</g>
<!-- Node7&#45;&gt;Node5 -->
<g id="edge12" class="edge"><title>Node7&#45;&gt;Node5</title>
<path fill="none" stroke="#9a32cd" stroke-dasharray="5,2" d="M211.691,-698.248C258.427,-704.908 313.214,-714.124 362,-726 370.193,-727.995 371.852,-729.828 380,-732 393.47,-735.591 408.121,-738.881 421.921,-741.709"/>
<polygon fill="#9a32cd" stroke="#9a32cd" points="211.929,-694.747 201.539,-696.824 210.956,-701.679 211.929,-694.747"/>
<text text-anchor="middle" x="291" y="-730" font-family="FreeSans" font-size="10.00"> attributeAnimationInfos_</text>
</g>
<!-- Node8 -->
<g id="node14" class="node"><title>Node8</title>
<a xlink:href="class_urho3_d_1_1_shared_ptr.html" target="_top" xlink:title="Urho3D::SharedPtr\&lt;\l Urho3D::ObjectAnimation \&gt;">
<polygon fill="none" stroke="red" points="24.5,-609 24.5,-643 177.5,-643 177.5,-609 24.5,-609"/>
<text text-anchor="start" x="32.5" y="-630" font-family="FreeSans" font-size="10.00">Urho3D::SharedPtr&lt;</text>
<text text-anchor="middle" x="101" y="-617" font-family="FreeSans" font-size="10.00"> Urho3D::ObjectAnimation &gt;</text>
</a>
</g>
<!-- Node8&#45;&gt;Node5 -->
<g id="edge14" class="edge"><title>Node8&#45;&gt;Node5</title>
<path fill="none" stroke="#9a32cd" stroke-dasharray="5,2" d="M187.896,-624.51C243.725,-628.052 314.437,-641.546 362,-683 379.49,-698.244 362.391,-716.894 380,-732 391.645,-741.99 406.895,-747.487 421.926,-750.396"/>
<polygon fill="#9a32cd" stroke="#9a32cd" points="187.827,-621.001 177.653,-623.96 187.451,-627.991 187.827,-621.001"/>
<text text-anchor="middle" x="291" y="-687" font-family="FreeSans" font-size="10.00"> objectAnimation_</text>
</g>
<!-- Node9 -->
<g id="node16" class="node"><title>Node9</title>
<a xlink:href="class_urho3_d_1_1_hash_set.html" target="_top" xlink:title="Urho3D::HashSet\&lt; const\l Urho3D::AttributeInfo * \&gt;">
<polygon fill="none" stroke="red" points="30.5,-767 30.5,-801 171.5,-801 171.5,-767 30.5,-767"/>
<text text-anchor="start" x="38.5" y="-788" font-family="FreeSans" font-size="10.00">Urho3D::HashSet&lt; const</text>
<text text-anchor="middle" x="101" y="-775" font-family="FreeSans" font-size="10.00"> Urho3D::AttributeInfo * &gt;</text>
</a>
</g>
<!-- Node9&#45;&gt;Node5 -->
<g id="edge16" class="edge"><title>Node9&#45;&gt;Node5</title>
<path fill="none" stroke="#9a32cd" stroke-dasharray="5,2" d="M181.904,-775.584C194.647,-774.333 207.678,-773.097 220,-772 289.404,-765.822 369.371,-759.816 421.872,-756.025"/>
<polygon fill="#9a32cd" stroke="#9a32cd" points="181.371,-772.12 171.765,-776.589 182.061,-779.086 181.371,-772.12"/>
<text text-anchor="middle" x="291" y="-776" font-family="FreeSans" font-size="10.00"> animatedNetworkAttributes_</text>
</g>
<!-- Node10 -->
<g id="node18" class="node"><title>Node10</title>
<a xlink:href="class_urho3_d_1_1_weak_ptr.html" target="_top" xlink:title="Urho3D::WeakPtr\&lt; Urho3D\l::XMLFile \&gt;">
<polygon fill="none" stroke="black" points="406,-397 406,-431 552,-431 552,-397 406,-397"/>
<text text-anchor="start" x="414" y="-418" font-family="FreeSans" font-size="10.00">Urho3D::WeakPtr&lt; Urho3D</text>
<text text-anchor="middle" x="479" y="-405" font-family="FreeSans" font-size="10.00">::XMLFile &gt;</text>
</a>
</g>
<!-- Node10&#45;&gt;Node4 -->
<g id="edge18" class="edge"><title>Node10&#45;&gt;Node4</title>
<path fill="none" stroke="#9a32cd" stroke-dasharray="5,2" d="M562.436,-422.251C599.675,-426.114 644.072,-430.97 684,-436 690.878,-436.867 698.098,-437.835 705.237,-438.828"/>
<polygon fill="#9a32cd" stroke="#9a32cd" points="562.438,-418.733 552.132,-421.188 561.72,-425.696 562.438,-418.733"/>
<text text-anchor="middle" x="640" y="-440" font-family="FreeSans" font-size="10.00"> appliedStyleFile_</text>
</g>
<!-- Node11 -->
<g id="node20" class="node"><title>Node11</title>
<a xlink:href="class_urho3_d_1_1_x_m_l_file.html" target="_top" xlink:title="XML document resource.">
<polygon fill="none" stroke="red" points="54,-529.5 54,-550.5 148,-550.5 148,-529.5 54,-529.5"/>
<text text-anchor="middle" x="101" y="-537.5" font-family="FreeSans" font-size="10.00">Urho3D::XMLFile</text>
</a>
</g>
<!-- Node11&#45;&gt;Node10 -->
<g id="edge20" class="edge"><title>Node11&#45;&gt;Node10</title>
<path fill="none" stroke="#9a32cd" stroke-dasharray="5,2" d="M137.692,-525.689C190.71,-505.276 292.04,-467.257 380,-440 389.93,-436.923 400.491,-433.895 410.877,-431.053"/>
<polygon fill="#9a32cd" stroke="#9a32cd" points="136.127,-522.541 128.059,-529.409 138.649,-529.071 136.127,-522.541"/>
<text text-anchor="middle" x="291" y="-499" font-family="FreeSans" font-size="10.00"> ptr_</text>
</g>
<!-- Node19 -->
<g id="node41" class="node"><title>Node19</title>
<a xlink:href="class_urho3_d_1_1_shared_ptr.html" target="_top" xlink:title="Urho3D::SharedPtr\&lt;\l Urho3D::XMLFile \&gt;">
<polygon fill="none" stroke="black" points="421,-689 421,-723 537,-723 537,-689 421,-689"/>
<text text-anchor="start" x="429" y="-710" font-family="FreeSans" font-size="10.00">Urho3D::SharedPtr&lt;</text>
<text text-anchor="middle" x="479" y="-697" font-family="FreeSans" font-size="10.00"> Urho3D::XMLFile &gt;</text>
</a>
</g>
<!-- Node11&#45;&gt;Node19 -->
<g id="edge48" class="edge"><title>Node11&#45;&gt;Node19</title>
<path fill="none" stroke="#9a32cd" stroke-dasharray="5,2" d="M158.522,-540.071C217.595,-543.332 308.273,-557.711 362,-612 383.991,-634.221 357.872,-657.915 380,-680 390.943,-690.921 405.882,-697.422 420.837,-701.246"/>
<polygon fill="#9a32cd" stroke="#9a32cd" points="158.388,-536.562 148.238,-539.598 158.066,-543.554 158.388,-536.562"/>
<text text-anchor="middle" x="291" y="-616" font-family="FreeSans" font-size="10.00"> ptr_</text>
</g>
<!-- Node12 -->
<g id="node22" class="node"><title>Node12</title>
<a xlink:href="struct_urho3_d_1_1_ref_count.html" target="_top" xlink:title="Reference count structure.">
<polygon fill="none" stroke="black" points="50,-403.5 50,-424.5 152,-424.5 152,-403.5 50,-403.5"/>
<text text-anchor="middle" x="101" y="-411.5" font-family="FreeSans" font-size="10.00">Urho3D::RefCount</text>
</a>
</g>
<!-- Node12&#45;&gt;Node10 -->
<g id="edge22" class="edge"><title>Node12&#45;&gt;Node10</title>
<path fill="none" stroke="#9a32cd" stroke-dasharray="5,2" d="M162.696,-414C229.194,-414 334.983,-414 405.68,-414"/>
<polygon fill="#9a32cd" stroke="#9a32cd" points="162.372,-410.5 152.372,-414 162.372,-417.5 162.372,-410.5"/>
<text text-anchor="middle" x="291" y="-418" font-family="FreeSans" font-size="10.00"> refCount_</text>
</g>
<!-- Node13 -->
<g id="node24" class="node"><title>Node13</title>
<a xlink:href="class_urho3_d_1_1_int_rect.html" target="_top" xlink:title="Two&#45;dimensional bounding rectangle with integer values.">
<polygon fill="none" stroke="black" points="433,-224.5 433,-245.5 525,-245.5 525,-224.5 433,-224.5"/>
<text text-anchor="middle" x="479" y="-232.5" font-family="FreeSans" font-size="10.00">Urho3D::IntRect</text>
</a>
</g>
<!-- Node13&#45;&gt;Node3 -->
<g id="edge60" class="edge"><title>Node13&#45;&gt;Node3</title>
<path fill="none" stroke="#9a32cd" stroke-dasharray="5,2" d="M535.226,-239.238C554.488,-240.585 576.179,-241.987 596,-243 720.848,-249.383 867.082,-253.563 947.745,-255.581"/>
<polygon fill="#9a32cd" stroke="#9a32cd" points="535.323,-235.736 525.101,-238.519 534.828,-242.719 535.323,-235.736"/>
<text text-anchor="middle" x="760" y="-282" font-family="FreeSans" font-size="10.00"> imageRect_</text>
<text text-anchor="middle" x="760" y="-269" font-family="FreeSans" font-size="10.00">border_</text>
<text text-anchor="middle" x="760" y="-256" font-family="FreeSans" font-size="10.00">imageBorder_</text>
</g>
<!-- Node13&#45;&gt;Node4 -->
<g id="edge24" class="edge"><title>Node13&#45;&gt;Node4</title>
<path fill="none" stroke="#9a32cd" stroke-dasharray="5,2" d="M524.866,-248.402C546.404,-254.576 572.461,-261.874 596,-268 634.913,-278.126 652.693,-263.768 684,-289 733.059,-328.539 752.471,-407.44 758.105,-436.196"/>
<polygon fill="#9a32cd" stroke="#9a32cd" points="525.579,-244.966 515.001,-245.563 523.643,-251.693 525.579,-244.966"/>
<text text-anchor="middle" x="640" y="-306" font-family="FreeSans" font-size="10.00"> clipBorder_</text>
<text text-anchor="middle" x="640" y="-293" font-family="FreeSans" font-size="10.00">layoutBorder_</text>
</g>
<!-- Node13&#45;&gt;Node13 -->
<g id="edge26" class="edge"><title>Node13&#45;&gt;Node13</title>
<path fill="none" stroke="#9a32cd" stroke-dasharray="5,2" d="M449.357,-255.055C451.302,-260.164 461.183,-264 479,-264 506.812,-264 515.287,-254.653 504.422,-245.708"/>
<polygon fill="#9a32cd" stroke="#9a32cd" points="452.652,-256.262 453.578,-245.708 446.273,-253.382 452.652,-256.262"/>
<text text-anchor="middle" x="479" y="-268" font-family="FreeSans" font-size="10.00"> ZERO</text>
</g>
<!-- Node14 -->
<g id="node27" class="node"><title>Node14</title>
<a xlink:href="class_urho3_d_1_1_vector.html" target="_top" xlink:title="Urho3D::Vector\&lt; Urho3D\l::SharedPtr\&lt; Urho3D::UIElement \&gt; \&gt;">
<polygon fill="none" stroke="red" points="380.5,-637 380.5,-671 577.5,-671 577.5,-637 380.5,-637"/>
<text text-anchor="start" x="388.5" y="-658" font-family="FreeSans" font-size="10.00">Urho3D::Vector&lt; Urho3D</text>
<text text-anchor="middle" x="479" y="-645" font-family="FreeSans" font-size="10.00">::SharedPtr&lt; Urho3D::UIElement &gt; &gt;</text>
</a>
</g>
<!-- Node14&#45;&gt;Node4 -->
<g id="edge28" class="edge"><title>Node14&#45;&gt;Node4</title>
<path fill="none" stroke="#9a32cd" stroke-dasharray="5,2" d="M565.336,-633.46C569.675,-631.766 573.921,-629.948 578,-628 630.78,-602.79 642.613,-591.333 684,-550 714.033,-520.006 741.557,-477.433 753.598,-457.748"/>
<polygon fill="#9a32cd" stroke="#9a32cd" points="563.908,-630.255 555.716,-636.974 566.31,-636.831 563.908,-630.255"/>
<text text-anchor="middle" x="640" y="-623" font-family="FreeSans" font-size="10.00"> children_</text>
</g>
<!-- Node15 -->
<g id="node29" class="node"><title>Node15</title>
<a xlink:href="class_urho3_d_1_1_vector2.html" target="_top" xlink:title="Two&#45;dimensional vector.">
<polygon fill="none" stroke="black" points="431,-501.5 431,-522.5 527,-522.5 527,-501.5 431,-501.5"/>
<text text-anchor="middle" x="479" y="-509.5" font-family="FreeSans" font-size="10.00">Urho3D::Vector2</text>
</a>
</g>
<!-- Node15&#45;&gt;Node4 -->
<g id="edge30" class="edge"><title>Node15&#45;&gt;Node4</title>
<path fill="none" stroke="#9a32cd" stroke-dasharray="5,2" d="M537.071,-504.28C578.449,-498.112 635.16,-488.295 684,-475 701.231,-470.309 720.07,-463.382 734.681,-457.591"/>
<polygon fill="#9a32cd" stroke="#9a32cd" points="536.549,-500.819 527.162,-505.732 537.564,-507.745 536.549,-500.819"/>
<text text-anchor="middle" x="640" y="-537" font-family="FreeSans" font-size="10.00"> layoutFlexScale_</text>
<text text-anchor="middle" x="640" y="-524" font-family="FreeSans" font-size="10.00">anchorMax_</text>
<text text-anchor="middle" x="640" y="-511" font-family="FreeSans" font-size="10.00">pivot_</text>
<text text-anchor="middle" x="640" y="-498" font-family="FreeSans" font-size="10.00">anchorMin_</text>
</g>
<!-- Node15&#45;&gt;Node15 -->
<g id="edge32" class="edge"><title>Node15&#45;&gt;Node15</title>
<path fill="none" stroke="#9a32cd" stroke-dasharray="5,2" d="M449.357,-532.055C451.302,-537.164 461.183,-541 479,-541 506.812,-541 515.287,-531.653 504.422,-522.708"/>
<polygon fill="#9a32cd" stroke="#9a32cd" points="452.652,-533.262 453.578,-522.708 446.273,-530.382 452.652,-533.262"/>
<text text-anchor="middle" x="479" y="-610" font-family="FreeSans" font-size="10.00"> ONE</text>
<text text-anchor="middle" x="479" y="-597" font-family="FreeSans" font-size="10.00">DOWN</text>
<text text-anchor="middle" x="479" y="-584" font-family="FreeSans" font-size="10.00">RIGHT</text>
<text text-anchor="middle" x="479" y="-571" font-family="FreeSans" font-size="10.00">LEFT</text>
<text text-anchor="middle" x="479" y="-558" font-family="FreeSans" font-size="10.00">ZERO</text>
<text text-anchor="middle" x="479" y="-545" font-family="FreeSans" font-size="10.00">UP</text>
</g>
<!-- Node16 -->
<g id="node32" class="node"><title>Node16</title>
<a xlink:href="class_urho3_d_1_1_hash_map.html" target="_top" xlink:title="Urho3D::HashMap\&lt; StringHash,\l Variant \&gt;">
<polygon fill="none" stroke="red" points="393,-449 393,-483 565,-483 565,-449 393,-449"/>
<text text-anchor="start" x="401" y="-470" font-family="FreeSans" font-size="10.00">Urho3D::HashMap&lt; StringHash,</text>
<text text-anchor="middle" x="479" y="-457" font-family="FreeSans" font-size="10.00"> Variant &gt;</text>
</a>
</g>
<!-- Node16&#45;&gt;Node4 -->
<g id="edge34" class="edge"><title>Node16&#45;&gt;Node4</title>
<path fill="none" stroke="#9a32cd" stroke-dasharray="5,2" d="M575.25,-459.492C618.703,-456.554 668.444,-453.191 705.36,-450.695"/>
<polygon fill="#9a32cd" stroke="#9a32cd" points="574.96,-456.004 565.219,-460.17 575.432,-462.988 574.96,-456.004"/>
<text text-anchor="middle" x="640" y="-462" font-family="FreeSans" font-size="10.00"> vars_</text>
</g>
<!-- Node17 -->
<g id="node35" class="node"><title>Node17</title>
<a xlink:href="class_urho3_d_1_1_string.html" target="_top" xlink:title="String class.">
<polygon fill="none" stroke="black" points="57,-318.5 57,-339.5 145,-339.5 145,-318.5 57,-318.5"/>
<text text-anchor="middle" x="101" y="-326.5" font-family="FreeSans" font-size="10.00">Urho3D::String</text>
</a>
</g>
<!-- Node17&#45;&gt;Node4 -->
<g id="edge38" class="edge"><title>Node17&#45;&gt;Node4</title>
<path fill="none" stroke="#9a32cd" stroke-dasharray="5,2" d="M155.094,-333.772C175.437,-335.507 198.775,-337.427 220,-339 379.003,-350.787 423.539,-322.47 578,-362 642.191,-378.428 711.352,-417.292 742.746,-436.24"/>
<polygon fill="#9a32cd" stroke="#9a32cd" points="155.327,-330.279 145.064,-332.911 154.728,-337.253 155.327,-330.279"/>
<text text-anchor="middle" x="479" y="-379" font-family="FreeSans" font-size="10.00"> appliedStyle_</text>
<text text-anchor="middle" x="479" y="-366" font-family="FreeSans" font-size="10.00">name_</text>
</g>
<!-- Node17&#45;&gt;Node17 -->
<g id="edge40" class="edge"><title>Node17&#45;&gt;Node17</title>
<path fill="none" stroke="#9a32cd" stroke-dasharray="5,2" d="M65.5287,-348.299C66.986,-353.781 78.8098,-358 101,-358 134.027,-358 144.09,-348.653 131.189,-339.708"/>
<polygon fill="#9a32cd" stroke="#9a32cd" points="68.5545,-350.06 70.8109,-339.708 62.5916,-346.393 68.5545,-350.06"/>
<text text-anchor="middle" x="101" y="-362" font-family="FreeSans" font-size="10.00"> EMPTY</text>
</g>
<!-- Node18 -->
<g id="node38" class="node"><title>Node18</title>
<a xlink:href="class_urho3_d_1_1_x_path_query.html" target="_top" xlink:title="XPath query.">
<polygon fill="none" stroke="red" points="421.5,-295.5 421.5,-316.5 536.5,-316.5 536.5,-295.5 421.5,-295.5"/>
<text text-anchor="middle" x="479" y="-303.5" font-family="FreeSans" font-size="10.00">Urho3D::XPathQuery</text>
</a>
</g>
<!-- Node17&#45;&gt;Node18 -->
<g id="edge44" class="edge"><title>Node17&#45;&gt;Node18</title>
<path fill="none" stroke="#9a32cd" stroke-dasharray="5,2" d="M155.133,-325.706C225.793,-321.407 348.95,-313.913 421.318,-309.51"/>
<polygon fill="#9a32cd" stroke="#9a32cd" points="154.87,-322.216 145.101,-326.317 155.295,-329.203 154.87,-322.216"/>
<text text-anchor="middle" x="291" y="-326" font-family="FreeSans" font-size="10.00"> queryString_</text>
</g>
<!-- Node18&#45;&gt;Node4 -->
<g id="edge42" class="edge"><title>Node18&#45;&gt;Node4</title>
<path fill="none" stroke="#9a32cd" stroke-dasharray="5,2" d="M547.225,-311.66C597.773,-316.891 661.607,-325.998 684,-340 722.06,-363.797 746.549,-414.332 755.815,-436.362"/>
<polygon fill="#9a32cd" stroke="#9a32cd" points="547.284,-308.148 536.985,-310.633 546.586,-315.113 547.284,-308.148"/>
<text text-anchor="middle" x="640" y="-344" font-family="FreeSans" font-size="10.00"> styleXPathQuery_</text>
</g>
<!-- Node19&#45;&gt;Node4 -->
<g id="edge46" class="edge"><title>Node19&#45;&gt;Node4</title>
<path fill="none" stroke="#9a32cd" stroke-dasharray="5,2" d="M547.097,-698.457C591.502,-690.139 647.737,-672.669 684,-636 736.472,-582.942 754.077,-488.952 758.645,-457.548"/>
<polygon fill="#9a32cd" stroke="#9a32cd" points="546.481,-695.011 537.239,-700.191 547.694,-701.905 546.481,-695.011"/>
<text text-anchor="middle" x="640" y="-690" font-family="FreeSans" font-size="10.00"> defaultStyle_</text>
</g>
<!-- Node20 -->
<g id="node44" class="node"><title>Node20</title>
<a xlink:href="class_urho3_d_1_1_int_vector2.html" target="_top" xlink:title="Two&#45;dimensional vector with integer values.">
<polygon fill="none" stroke="black" points="425,-42.5 425,-63.5 533,-63.5 533,-42.5 425,-42.5"/>
<text text-anchor="middle" x="479" y="-50.5" font-family="FreeSans" font-size="10.00">Urho3D::IntVector2</text>
</a>
</g>
<!-- Node20&#45;&gt;Node1 -->
<g id="edge78" class="edge"><title>Node20&#45;&gt;Node1</title>
<path fill="none" stroke="#9a32cd" stroke-dasharray="5,2" d="M522.513,-39.5729C577.335,-23.8713 674.707,-0 760,-0 760,-0 760,-0 1276,-0 1333.47,-0 1379.99,-64.136 1396.52,-90.1912"/>
<polygon fill="#9a32cd" stroke="#9a32cd" points="521.409,-36.2488 512.784,-42.402 523.363,-42.9704 521.409,-36.2488"/>
<text text-anchor="middle" x="1009" y="-4" font-family="FreeSans" font-size="10.00"> popupOffset_</text>
</g>
<!-- Node20&#45;&gt;Node2 -->
<g id="edge72" class="edge"><title>Node20&#45;&gt;Node2</title>
<path fill="none" stroke="#9a32cd" stroke-dasharray="5,2" d="M543.651,-53.7809C584.019,-54.4658 637.059,-55.7241 684,-58 887.797,-67.881 1130.48,-88.2002 1229.99,-96.9001"/>
<polygon fill="#9a32cd" stroke="#9a32cd" points="543.465,-50.2775 533.41,-53.6148 543.352,-57.2766 543.465,-50.2775"/>
<text text-anchor="start" x="836" y="-103" font-family="FreeSans" font-size="10.00"> pressedChildOffset</text>
<text text-anchor="middle" x="883" y="-90" font-family="FreeSans" font-size="10.00">_</text>
<text text-anchor="middle" x="883" y="-77" font-family="FreeSans" font-size="10.00">pressedOffset_</text>
</g>
<!-- Node20&#45;&gt;Node3 -->
<g id="edge70" class="edge"><title>Node20&#45;&gt;Node3</title>
<path fill="none" stroke="#9a32cd" stroke-dasharray="5,2" d="M543.437,-55.425C584.503,-58.4383 638.373,-65.1414 684,-80 812.902,-121.978 950.101,-215 994.353,-246.407"/>
<polygon fill="#9a32cd" stroke="#9a32cd" points="543.5,-51.9213 533.285,-54.7357 543.025,-58.9052 543.5,-51.9213"/>
<text text-anchor="middle" x="760" y="-140" font-family="FreeSans" font-size="10.00"> hoverOffset_</text>
</g>
<!-- Node20&#45;&gt;Node4 -->
<g id="edge50" class="edge"><title>Node20&#45;&gt;Node4</title>
<path fill="none" stroke="#9a32cd" stroke-dasharray="5,2" d="M540.722,-65.7312C594.207,-78.0887 665.793,-98.2705 684,-121 708.994,-152.202 692.574,-261.149 702,-300 714.872,-353.057 742.78,-412.454 754.569,-436.273"/>
<polygon fill="#9a32cd" stroke="#9a32cd" points="541.49,-62.3164 530.963,-63.516 539.94,-69.1428 541.49,-62.3164"/>
<text text-anchor="middle" x="640" y="-255" font-family="FreeSans" font-size="10.00"> maxSize_</text>
<text text-anchor="middle" x="640" y="-242" font-family="FreeSans" font-size="10.00">childOffset_</text>
<text text-anchor="middle" x="640" y="-229" font-family="FreeSans" font-size="10.00">minOffset_</text>
<text text-anchor="middle" x="640" y="-216" font-family="FreeSans" font-size="10.00">size_</text>
<text text-anchor="middle" x="640" y="-203" font-family="FreeSans" font-size="10.00">position_</text>
<text text-anchor="middle" x="640" y="-190" font-family="FreeSans" font-size="10.00">maxOffset_</text>
<text text-anchor="start" x="605" y="-177" font-family="FreeSans" font-size="10.00">screenPosition</text>
<text text-anchor="middle" x="640" y="-164" font-family="FreeSans" font-size="10.00">_</text>
<text text-anchor="start" x="605" y="-151" font-family="FreeSans" font-size="10.00">layoutMinSize</text>
<text text-anchor="middle" x="640" y="-138" font-family="FreeSans" font-size="10.00">_</text>
<text text-anchor="middle" x="640" y="-125" font-family="FreeSans" font-size="10.00">minSize_</text>
</g>
<!-- Node20&#45;&gt;Node20 -->
<g id="edge52" class="edge"><title>Node20&#45;&gt;Node20</title>
<path fill="none" stroke="#9a32cd" stroke-dasharray="5,2" d="M449.357,-73.0551C451.302,-78.164 461.183,-82 479,-82 506.812,-82 515.287,-72.6531 504.422,-63.7079"/>
<polygon fill="#9a32cd" stroke="#9a32cd" points="452.652,-74.2622 453.578,-63.7079 446.273,-71.3816 452.652,-74.2622"/>
<text text-anchor="middle" x="479" y="-151" font-family="FreeSans" font-size="10.00"> ONE</text>
<text text-anchor="middle" x="479" y="-138" font-family="FreeSans" font-size="10.00">DOWN</text>
<text text-anchor="middle" x="479" y="-125" font-family="FreeSans" font-size="10.00">RIGHT</text>
<text text-anchor="middle" x="479" y="-112" font-family="FreeSans" font-size="10.00">LEFT</text>
<text text-anchor="middle" x="479" y="-99" font-family="FreeSans" font-size="10.00">ZERO</text>
<text text-anchor="middle" x="479" y="-86" font-family="FreeSans" font-size="10.00">UP</text>
</g>
<!-- Node21 -->
<g id="node47" class="node"><title>Node21</title>
<a xlink:href="class_urho3_d_1_1_vector.html" target="_top" xlink:title="Urho3D::Vector\&lt; String \&gt;">
<polygon fill="none" stroke="red" points="408.5,-843.5 408.5,-864.5 549.5,-864.5 549.5,-843.5 408.5,-843.5"/>
<text text-anchor="middle" x="479" y="-851.5" font-family="FreeSans" font-size="10.00">Urho3D::Vector&lt; String &gt;</text>
</a>
</g>
<!-- Node21&#45;&gt;Node4 -->
<g id="edge54" class="edge"><title>Node21&#45;&gt;Node4</title>
<path fill="none" stroke="#9a32cd" stroke-dasharray="5,2" d="M559.829,-857.887C602.187,-855.484 651.807,-844.958 684,-813 736.39,-760.993 755.685,-512.376 759.332,-457.665"/>
<polygon fill="#9a32cd" stroke="#9a32cd" points="559.636,-854.392 549.794,-858.315 559.934,-861.386 559.636,-854.392"/>
<text text-anchor="middle" x="640" y="-857" font-family="FreeSans" font-size="10.00"> tags_</text>
</g>
<!-- Node22 -->
<g id="node49" class="node"><title>Node22</title>
<a xlink:href="class_urho3_d_1_1_color.html" target="_top" xlink:title="RGBA color.">
<polygon fill="none" stroke="black" points="59,-835.5 59,-856.5 143,-856.5 143,-835.5 59,-835.5"/>
<text text-anchor="middle" x="101" y="-843.5" font-family="FreeSans" font-size="10.00">Urho3D::Color</text>
</a>
</g>
<!-- Node22&#45;&gt;Node4 -->
<g id="edge56" class="edge"><title>Node22&#45;&gt;Node4</title>
<path fill="none" stroke="#9a32cd" stroke-dasharray="5,2" d="M153.394,-838.871C259.78,-824.23 497.809,-790.595 578,-772 626.066,-760.854 649.943,-774.703 684,-739 724.495,-696.547 752.311,-504.824 758.633,-457.557"/>
<polygon fill="#9a32cd" stroke="#9a32cd" points="152.646,-835.44 143.215,-840.269 153.598,-842.375 152.646,-835.44"/>
<text text-anchor="middle" x="479" y="-823" font-family="FreeSans" font-size="10.00"> derivedColor_</text>
<text text-anchor="middle" x="479" y="-810" font-family="FreeSans" font-size="10.00">color_</text>
</g>
<!-- Node22&#45;&gt;Node22 -->
<g id="edge58" class="edge"><title>Node22&#45;&gt;Node22</title>
<path fill="none" stroke="#9a32cd" stroke-dasharray="5,2" d="M65.5287,-865.299C66.986,-870.781 78.8098,-875 101,-875 134.027,-875 144.09,-865.653 131.189,-856.708"/>
<polygon fill="#9a32cd" stroke="#9a32cd" points="68.5545,-867.06 70.8109,-856.708 62.5916,-863.393 68.5545,-867.06"/>
<text text-anchor="middle" x="101" y="-1009" font-family="FreeSans" font-size="10.00"> CYAN</text>
<text text-anchor="middle" x="101" y="-996" font-family="FreeSans" font-size="10.00">GRAY</text>
<text text-anchor="middle" x="101" y="-983" font-family="FreeSans" font-size="10.00">YELLOW</text>
<text text-anchor="middle" x="101" y="-970" font-family="FreeSans" font-size="10.00">MAGENTA</text>
<text text-anchor="middle" x="101" y="-957" font-family="FreeSans" font-size="10.00">WHITE</text>
<text text-anchor="middle" x="101" y="-944" font-family="FreeSans" font-size="10.00">TRANSPARENT</text>
<text text-anchor="middle" x="101" y="-931" font-family="FreeSans" font-size="10.00">BLUE</text>
<text text-anchor="middle" x="101" y="-918" font-family="FreeSans" font-size="10.00">BLACK</text>
<text text-anchor="middle" x="101" y="-905" font-family="FreeSans" font-size="10.00">RED</text>
<text text-anchor="middle" x="101" y="-892" font-family="FreeSans" font-size="10.00">GREEN</text>
<text text-anchor="middle" x="101" y="-879" font-family="FreeSans" font-size="10.00">...</text>
</g>
<!-- Node24 -->
<g id="node55" class="node"><title>Node24</title>
<a xlink:href="class_urho3_d_1_1_texture.html" target="_top" xlink:title="Base class for texture resources.">
<polygon fill="none" stroke="red" points="432,-883.5 432,-904.5 526,-904.5 526,-883.5 432,-883.5"/>
<text text-anchor="middle" x="479" y="-891.5" font-family="FreeSans" font-size="10.00">Urho3D::Texture</text>
</a>
</g>
<!-- Node22&#45;&gt;Node24 -->
<g id="edge68" class="edge"><title>Node22&#45;&gt;Node24</title>
<path fill="none" stroke="#9a32cd" stroke-dasharray="5,2" d="M153.278,-852.638C227.181,-862.023 361.081,-879.026 431.998,-888.031"/>
<polygon fill="#9a32cd" stroke="#9a32cd" points="153.622,-849.154 143.261,-851.366 152.741,-856.098 153.622,-849.154"/>
<text text-anchor="middle" x="291" y="-882" font-family="FreeSans" font-size="10.00"> borderColor_</text>
</g>
<!-- Node23 -->
<g id="node53" class="node"><title>Node23</title>
<a xlink:href="class_urho3_d_1_1_shared_ptr.html" target="_top" xlink:title="Urho3D::SharedPtr\&lt;\l Urho3D::Texture \&gt;">
<polygon fill="none" stroke="black" points="702,-862 702,-896 818,-896 818,-862 702,-862"/>
<text text-anchor="start" x="710" y="-883" font-family="FreeSans" font-size="10.00">Urho3D::SharedPtr&lt;</text>
<text text-anchor="middle" x="760" y="-870" font-family="FreeSans" font-size="10.00"> Urho3D::Texture &gt;</text>
</a>
</g>
<!-- Node23&#45;&gt;Node3 -->
<g id="edge62" class="edge"><title>Node23&#45;&gt;Node3</title>
<path fill="none" stroke="#9a32cd" stroke-dasharray="5,2" d="M770.753,-852.139C814.278,-743.413 976.413,-338.403 1004.76,-267.596"/>
<polygon fill="#9a32cd" stroke="#9a32cd" points="767.387,-851.13 766.92,-861.715 773.885,-853.732 767.387,-851.13"/>
<text text-anchor="middle" x="883" y="-682" font-family="FreeSans" font-size="10.00"> texture_</text>
</g>
<!-- Node23&#45;&gt;Node24 -->
<g id="edge66" class="edge"><title>Node23&#45;&gt;Node24</title>
<path fill="none" stroke="#9a32cd" stroke-dasharray="5,2" d="M691.642,-892.177C689.067,-892.488 686.513,-892.764 684,-893 630.139,-898.052 567.967,-897.457 526.342,-896.14"/>
<polygon fill="#9a32cd" stroke="#9a32cd" points="692.199,-895.634 701.641,-890.829 691.263,-888.697 692.199,-895.634"/>
<text text-anchor="middle" x="640" y="-900" font-family="FreeSans" font-size="10.00"> backupTexture_</text>
</g>
<!-- Node24&#45;&gt;Node23 -->
<g id="edge64" class="edge"><title>Node24&#45;&gt;Node23</title>
<path fill="none" stroke="#9a32cd" stroke-dasharray="5,2" d="M536.139,-885.853C555.142,-883.494 576.443,-881.226 596,-880 631.095,-877.8 670.497,-877.49 701.882,-877.759"/>
<polygon fill="#9a32cd" stroke="#9a32cd" points="535.616,-882.392 526.139,-887.129 536.502,-889.335 535.616,-882.392"/>
<text text-anchor="middle" x="640" y="-884" font-family="FreeSans" font-size="10.00"> ptr_</text>
</g>
<!-- Node25&#45;&gt;Node1 -->
<g id="edge74" class="edge"><title>Node25&#45;&gt;Node1</title>
<path fill="none" stroke="#9a32cd" stroke-dasharray="5,2" d="M1178.62,-286.357C1233.38,-241.12 1351.01,-143.948 1390.09,-111.669"/>
<polygon fill="#9a32cd" stroke="#9a32cd" points="1176.18,-283.829 1170.7,-292.897 1180.64,-289.226 1176.18,-283.829"/>
<text text-anchor="middle" x="1276" y="-247" font-family="FreeSans" font-size="10.00"> popup_</text>
</g>
</g>
</svg>
