<?xml version="1.0" encoding="UTF-8" standalone="no"?>
<!DOCTYPE svg PUBLIC "-//W3C//DTD SVG 1.1//EN"
 "http://www.w3.org/Graphics/SVG/1.1/DTD/svg11.dtd">
<!-- Generated by graphviz version 2.43.0 (0)
 -->
<!-- Title: Urho3D::HttpRequest Pages: 1 -->
<svg width="582pt" height="309pt"
 viewBox="0.00 0.00 582.00 309.00" xmlns="http://www.w3.org/2000/svg" xmlns:xlink="http://www.w3.org/1999/xlink">
<g id="graph0" class="graph" transform="scale(1 1) rotate(0) translate(4 305)">
<title>Urho3D::HttpRequest</title>
<!-- Node1 -->
<g id="node1" class="node">
<title>Node1</title>
<g id="a_node1"><a xlink:title="An HTTP connection with response data stream.">
<polygon fill="#bfbfbf" stroke="black" points="454,-155.5 454,-174.5 574,-174.5 574,-155.5 454,-155.5"/>
<text text-anchor="middle" x="514" y="-162.5" font-family="Helvetica,sans-Serif" font-size="10.00">Urho3D::HttpRequest</text>
</a>
</g>
</g>
<!-- Node2 -->
<g id="node2" class="node">
<title>Node2</title>
<g id="a_node2"><a xlink:href="class_urho3_d_1_1_ref_counted.html" target="_top" xlink:title="Base class for intrusively reference&#45;counted objects. These are noncopyable and non&#45;assignable.">
<polygon fill="none" stroke="black" points="212,-281.5 212,-300.5 328,-300.5 328,-281.5 212,-281.5"/>
<text text-anchor="middle" x="270" y="-288.5" font-family="Helvetica,sans-Serif" font-size="10.00">Urho3D::RefCounted</text>
</a>
</g>
</g>
<!-- Node2&#45;&gt;Node1 -->
<g id="edge1" class="edge">
<title>Node2&#45;&gt;Node1</title>
<path fill="none" stroke="midnightblue" d="M338.3,-282.36C369.63,-276.18 406.43,-265.68 436,-248 468.22,-228.73 495.22,-192.01 506.86,-174.61"/>
<polygon fill="midnightblue" stroke="midnightblue" points="337.52,-278.95 328.33,-284.22 338.81,-285.83 337.52,-278.95"/>
</g>
<!-- Node3 -->
<g id="node3" class="node">
<title>Node3</title>
<g id="a_node3"><a xlink:href="struct_urho3_d_1_1_ref_count.html" target="_top" xlink:title="Reference count structure.">
<polygon fill="none" stroke="black" points="5,-256.5 5,-275.5 109,-275.5 109,-256.5 5,-256.5"/>
<text text-anchor="middle" x="57" y="-263.5" font-family="Helvetica,sans-Serif" font-size="10.00">Urho3D::RefCount</text>
</a>
</g>
</g>
<!-- Node3&#45;&gt;Node2 -->
<g id="edge2" class="edge">
<title>Node3&#45;&gt;Node2</title>
<path fill="none" stroke="#9a32cd" stroke-dasharray="5,2" d="M119.15,-273.25C148.33,-276.7 183.04,-280.81 211.7,-284.21"/>
<polygon fill="#9a32cd" stroke="#9a32cd" points="119.42,-269.75 109.08,-272.05 118.6,-276.7 119.42,-269.75"/>
<text text-anchor="middle" x="157.5" y="-283" font-family="Helvetica,sans-Serif" font-size="10.00"> refCount_</text>
</g>
<!-- Node6 -->
<g id="node6" class="node">
<title>Node6</title>
<g id="a_node6"><a xlink:href="class_urho3_d_1_1_shared_array_ptr.html" target="_top" xlink:title=" ">
<polygon fill="none" stroke="black" points="203.5,-232 203.5,-262 336.5,-262 336.5,-232 203.5,-232"/>
<text text-anchor="start" x="211.5" y="-250" font-family="Helvetica,sans-Serif" font-size="10.00">Urho3D::SharedArrayPtr</text>
<text text-anchor="middle" x="270" y="-239" font-family="Helvetica,sans-Serif" font-size="10.00">&lt; unsigned char &gt;</text>
</a>
</g>
</g>
<!-- Node3&#45;&gt;Node6 -->
<g id="edge6" class="edge">
<title>Node3&#45;&gt;Node6</title>
<path fill="none" stroke="#9a32cd" stroke-dasharray="5,2" d="M119.3,-256.46C123.59,-255.92 127.86,-255.43 132,-255 155.23,-252.6 180.75,-250.87 203.4,-249.64"/>
<polygon fill="#9a32cd" stroke="#9a32cd" points="118.74,-253 109.28,-257.77 119.65,-259.94 118.74,-253"/>
<text text-anchor="middle" x="157.5" y="-258" font-family="Helvetica,sans-Serif" font-size="10.00"> refCount_</text>
</g>
<!-- Node4 -->
<g id="node4" class="node">
<title>Node4</title>
<g id="a_node4"><a xlink:href="class_urho3_d_1_1_deserializer.html" target="_top" xlink:title="Abstract stream for reading.">
<polygon fill="none" stroke="black" points="211,-193.5 211,-212.5 329,-212.5 329,-193.5 211,-193.5"/>
<text text-anchor="middle" x="270" y="-200.5" font-family="Helvetica,sans-Serif" font-size="10.00">Urho3D::Deserializer</text>
</a>
</g>
</g>
<!-- Node4&#45;&gt;Node1 -->
<g id="edge3" class="edge">
<title>Node4&#45;&gt;Node1</title>
<path fill="none" stroke="midnightblue" d="M339.38,-193.61C369.11,-189.38 404.31,-184.18 436,-179 444.45,-177.62 453.4,-176.07 462.1,-174.52"/>
<polygon fill="midnightblue" stroke="midnightblue" points="338.52,-190.19 329.11,-195.06 339.5,-197.12 338.52,-190.19"/>
</g>
<!-- Node5 -->
<g id="node5" class="node">
<title>Node5</title>
<g id="a_node5"><a xlink:href="class_urho3_d_1_1_thread.html" target="_top" xlink:title="Operating system thread.">
<polygon fill="none" stroke="black" points="223.5,-155.5 223.5,-174.5 316.5,-174.5 316.5,-155.5 223.5,-155.5"/>
<text text-anchor="middle" x="270" y="-162.5" font-family="Helvetica,sans-Serif" font-size="10.00">Urho3D::Thread</text>
</a>
</g>
</g>
<!-- Node5&#45;&gt;Node1 -->
<g id="edge4" class="edge">
<title>Node5&#45;&gt;Node1</title>
<path fill="none" stroke="midnightblue" d="M326.91,-165C364.96,-165 415.24,-165 453.95,-165"/>
<polygon fill="midnightblue" stroke="midnightblue" points="326.52,-161.5 316.52,-165 326.52,-168.5 326.52,-161.5"/>
</g>
<!-- Node6&#45;&gt;Node1 -->
<g id="edge5" class="edge">
<title>Node6&#45;&gt;Node1</title>
<path fill="none" stroke="#9a32cd" stroke-dasharray="5,2" d="M337.29,-229.22C367.64,-220.59 403.92,-209.59 436,-198 455.42,-190.98 476.99,-181.6 492.35,-174.63"/>
<polygon fill="#9a32cd" stroke="#9a32cd" points="336.33,-225.85 327.66,-231.93 338.23,-232.59 336.33,-225.85"/>
<text text-anchor="middle" x="396.5" y="-236" font-family="Helvetica,sans-Serif" font-size="10.00"> readBuffer_</text>
<text text-anchor="middle" x="396.5" y="-225" font-family="Helvetica,sans-Serif" font-size="10.00">httpReadBuffer_</text>
</g>
<!-- Node7 -->
<g id="node7" class="node">
<title>Node7</title>
<g id="a_node7"><a xlink:href="class_urho3_d_1_1_vector.html" target="_top" xlink:title=" ">
<polygon fill="none" stroke="black" points="201,-106 201,-136 339,-136 339,-106 201,-106"/>
<text text-anchor="start" x="209" y="-124" font-family="Helvetica,sans-Serif" font-size="10.00">Urho3D::Vector&lt; Urho3D</text>
<text text-anchor="middle" x="270" y="-113" font-family="Helvetica,sans-Serif" font-size="10.00">::String &gt;</text>
</a>
</g>
</g>
<!-- Node7&#45;&gt;Node1 -->
<g id="edge7" class="edge">
<title>Node7&#45;&gt;Node1</title>
<path fill="none" stroke="#9a32cd" stroke-dasharray="5,2" d="M349.23,-134.45C376.69,-139.25 407.73,-144.76 436,-150 445.24,-151.71 455.09,-153.59 464.56,-155.42"/>
<polygon fill="#9a32cd" stroke="#9a32cd" points="349.74,-130.98 339.29,-132.71 348.54,-137.88 349.74,-130.98"/>
<text text-anchor="middle" x="396.5" y="-153" font-family="Helvetica,sans-Serif" font-size="10.00"> headers_</text>
</g>
<!-- Node8 -->
<g id="node8" class="node">
<title>Node8</title>
<g id="a_node8"><a xlink:href="class_urho3_d_1_1_vector_base.html" target="_top" xlink:title="Vector base class.">
<polygon fill="none" stroke="black" points="0,-111.5 0,-130.5 114,-130.5 114,-111.5 0,-111.5"/>
<text text-anchor="middle" x="57" y="-118.5" font-family="Helvetica,sans-Serif" font-size="10.00">Urho3D::VectorBase</text>
</a>
</g>
</g>
<!-- Node8&#45;&gt;Node7 -->
<g id="edge8" class="edge">
<title>Node8&#45;&gt;Node7</title>
<path fill="none" stroke="midnightblue" d="M124.48,-121C148.82,-121 176.38,-121 200.86,-121"/>
<polygon fill="midnightblue" stroke="midnightblue" points="124.27,-117.5 114.27,-121 124.27,-124.5 124.27,-117.5"/>
</g>
<!-- Node9 -->
<g id="node9" class="node">
<title>Node9</title>
<g id="a_node9"><a xlink:href="class_urho3_d_1_1_string.html" target="_top" xlink:title="String class.">
<polygon fill="none" stroke="black" points="226,-38.5 226,-57.5 314,-57.5 314,-38.5 226,-38.5"/>
<text text-anchor="middle" x="270" y="-45.5" font-family="Helvetica,sans-Serif" font-size="10.00">Urho3D::String</text>
</a>
</g>
</g>
<!-- Node9&#45;&gt;Node1 -->
<g id="edge9" class="edge">
<title>Node9&#45;&gt;Node1</title>
<path fill="none" stroke="#9a32cd" stroke-dasharray="5,2" d="M324.14,-53.41C357.89,-58.59 401.53,-68.64 436,-88 466.99,-105.4 493.99,-138.77 506.15,-155.27"/>
<polygon fill="#9a32cd" stroke="#9a32cd" points="324.41,-49.91 314.01,-51.95 323.41,-56.84 324.41,-49.91"/>
<text text-anchor="middle" x="396.5" y="-124" font-family="Helvetica,sans-Serif" font-size="10.00"> url_</text>
<text text-anchor="middle" x="396.5" y="-113" font-family="Helvetica,sans-Serif" font-size="10.00">postData_</text>
<text text-anchor="middle" x="396.5" y="-102" font-family="Helvetica,sans-Serif" font-size="10.00">error_</text>
<text text-anchor="middle" x="396.5" y="-91" font-family="Helvetica,sans-Serif" font-size="10.00">verb_</text>
</g>
<!-- Node9&#45;&gt;Node9 -->
<g id="edge10" class="edge">
<title>Node9&#45;&gt;Node9</title>
<path fill="none" stroke="#9a32cd" stroke-dasharray="5,2" d="M249.26,-67.4C250.65,-72.31 257.56,-76 270,-76 289.91,-76 295.66,-66.57 287.26,-57.76"/>
<polygon fill="#9a32cd" stroke="#9a32cd" points="252.64,-68.35 252.74,-57.76 246.05,-65.98 252.64,-68.35"/>
<text text-anchor="middle" x="270" y="-79" font-family="Helvetica,sans-Serif" font-size="10.00"> EMPTY</text>
</g>
<!-- Node10 -->
<g id="node10" class="node">
<title>Node10</title>
<g id="a_node10"><a xlink:href="class_urho3_d_1_1_mutex.html" target="_top" xlink:title="Operating system mutual exclusion primitive.">
<polygon fill="none" stroke="black" points="225,-0.5 225,-19.5 315,-19.5 315,-0.5 225,-0.5"/>
<text text-anchor="middle" x="270" y="-7.5" font-family="Helvetica,sans-Serif" font-size="10.00">Urho3D::Mutex</text>
</a>
</g>
</g>
<!-- Node10&#45;&gt;Node1 -->
<g id="edge11" class="edge">
<title>Node10&#45;&gt;Node1</title>
<path fill="none" stroke="#9a32cd" stroke-dasharray="5,2" d="M325.62,-10.64C359.96,-13.46 403.7,-21.73 436,-44 477.61,-72.69 501.65,-131.97 509.82,-155.28"/>
<polygon fill="#9a32cd" stroke="#9a32cd" points="325.51,-7.12 315.29,-9.93 325.03,-14.11 325.51,-7.12"/>
<text text-anchor="middle" x="396.5" y="-47" font-family="Helvetica,sans-Serif" font-size="10.00"> mutex_</text>
</g>
</g>
</svg>
