<?xml version="1.0" encoding="UTF-8" standalone="no"?>
<!DOCTYPE svg PUBLIC "-//W3C//DTD SVG 1.1//EN"
 "http://www.w3.org/Graphics/SVG/1.1/DTD/svg11.dtd">
<!-- Generated by graphviz version 2.40.1 (20161225.0304)
 -->
<!-- Title: Urho3D::UIBatch Pages: 1 -->
<!--zoomable 788 -->
<svg id="main" version="1.1" xmlns="http://www.w3.org/2000/svg" xmlns:xlink="http://www.w3.org/1999/xlink" xml:space="preserve" onload="init(evt)">
<style type="text/css"><![CDATA[
.edge:hover path { stroke: red; }
.edge:hover polygon { stroke: red; fill: red; }
]]></style>
<script type="text/javascript"><![CDATA[
var edges = document.getElementsByTagName('g');
if (edges && edges.length) {
  for (var i=0;i<edges.length;i++) {
    if (edges[i].id.substr(0,4)=='edge') {
      edges[i].setAttribute('class','edge');
    }
  }
}
]]></script>
        <defs>
                <circle id="rim" cx="0" cy="0" r="7"/>
                <circle id="rim2" cx="0" cy="0" r="3.5"/>
                <g id="zoomPlus">
                        <use xlink:href="#rim" fill="#404040">
                                <set attributeName="fill" to="#808080" begin="zoomplus.mouseover" end="zoomplus.mouseout"/>
                        </use>
                        <path d="M-4,0h8M0,-4v8" fill="none" stroke="white" stroke-width="1.5" pointer-events="none"/>
                </g>
                <g id="zoomMin">
                        <use xlink:href="#rim" fill="#404040">
                                <set attributeName="fill" to="#808080" begin="zoomminus.mouseover" end="zoomminus.mouseout"/>
                        </use>
                        <path d="M-4,0h8" fill="none" stroke="white" stroke-width="1.5" pointer-events="none"/>
                </g>
                <g id="dirArrow">
                        <path fill="none" stroke="white" stroke-width="1.5" d="M0,-3.0v7 M-2.5,-0.5L0,-3.0L2.5,-0.5"/>
                </g>
               <g id="resetDef">
                       <use xlink:href="#rim2" fill="#404040">
                               <set attributeName="fill" to="#808080" begin="reset.mouseover" end="reset.mouseout"/>
                       </use>
               </g>
        </defs>

<script type="text/javascript">
var viewWidth = 1213;
var viewHeight = 788;
var sectionId = 'dynsection-0';
</script>
<script xlink:href="svgpan.js"/>
<svg id="graph" class="graph">
<g id="viewport">
<title>Urho3D::UIBatch</title>
<!-- Node1 -->
<g id="node1" class="node">
<title>Node1</title>
<polygon fill="#bfbfbf" stroke="#000000" points="1098.5,-389.5 1098.5,-408.5 1196.5,-408.5 1196.5,-389.5 1098.5,-389.5"/>
<text text-anchor="middle" x="1147.5" y="-396.5" font-family="Helvetica,sans-Serif" font-size="10.00" fill="#000000">Urho3D::UIBatch</text>
</g>
<!-- Node2 -->
<g id="node2" class="node">
<title>Node2</title>
<g id="a_node2"><a xlink:href="class_urho3_d_1_1_int_rect.html" target="_top" xlink:title="Two&#45;dimensional bounding rectangle with integer values. ">
<polygon fill="none" stroke="#000000" points="588,-.5 588,-19.5 681,-19.5 681,-.5 588,-.5"/>
<text text-anchor="middle" x="634.5" y="-7.5" font-family="Helvetica,sans-Serif" font-size="10.00" fill="#000000">Urho3D::IntRect</text>
</a>
</g>
</g>
<!-- Node2&#45;&gt;Node1 -->
<g id="edge1" class="edge">
<title>Node2&#45;&gt;Node1</title>
<path fill="none" stroke="#9a32cd" stroke-dasharray="5,2" d="M691.1134,-2.6729C733.2579,.3085 791.175,-.947 837,-22 1012.6742,-102.7086 1121.7213,-338.6963 1143.4738,-389.3531"/>
<polygon fill="#9a32cd" stroke="#9a32cd" points="690.7115,.8061 681.026,-3.4881 691.2755,-6.1712 690.7115,.8061"/>
<text text-anchor="middle" x="914.5" y="-125" font-family="Helvetica,sans-Serif" font-size="10.00" fill="#000000"> scissor_</text>
</g>
<!-- Node2&#45;&gt;Node2 -->
<g id="edge2" class="edge">
<title>Node2&#45;&gt;Node2</title>
<path fill="none" stroke="#9a32cd" stroke-dasharray="5,2" d="M605.0076,-28.6539C606.2404,-33.9368 616.0712,-38 634.5,-38 662.582,-38 670.6995,-28.5653 658.8524,-19.7571"/>
<polygon fill="#9a32cd" stroke="#9a32cd" points="608.1757,-30.1668 610.1476,-19.7571 602.1145,-26.665 608.1757,-30.1668"/>
<text text-anchor="middle" x="634.5" y="-41" font-family="Helvetica,sans-Serif" font-size="10.00" fill="#000000"> ZERO</text>
</g>
<!-- Node144 -->
<g id="node21" class="node">
<title>Node144</title>
<g id="a_node21"><a xlink:href="class_urho3_d_1_1_u_i_element.html" target="_top" xlink:title="Base class for UI elements. ">
<polygon fill="none" stroke="#ff0000" points="859.5,-200.5 859.5,-219.5 969.5,-219.5 969.5,-200.5 859.5,-200.5"/>
<text text-anchor="middle" x="914.5" y="-207.5" font-family="Helvetica,sans-Serif" font-size="10.00" fill="#000000">Urho3D::UIElement</text>
</a>
</g>
</g>
<!-- Node2&#45;&gt;Node144 -->
<g id="edge31" class="edge">
<title>Node2&#45;&gt;Node144</title>
<path fill="none" stroke="#9a32cd" stroke-dasharray="5,2" d="M691.3021,-16.2098C747.0876,-22.7479 825.4762,-33.2821 837,-42 891.3063,-83.0831 908.8166,-171.3352 913.2315,-200.4582"/>
<polygon fill="#9a32cd" stroke="#9a32cd" points="691.5062,-12.7101 681.17,-15.0368 690.7012,-19.6637 691.5062,-12.7101"/>
<text text-anchor="middle" x="794" y="-56" font-family="Helvetica,sans-Serif" font-size="10.00" fill="#000000"> clipBorder_</text>
<text text-anchor="middle" x="794" y="-45" font-family="Helvetica,sans-Serif" font-size="10.00" fill="#000000">layoutBorder_</text>
</g>
<!-- Node3 -->
<g id="node3" class="node">
<title>Node3</title>
<g id="a_node3"><a xlink:href="class_urho3_d_1_1_vector2.html" target="_top" xlink:title="Two&#45;dimensional vector. ">
<polygon fill="none" stroke="#000000" points="586.5,-291.5 586.5,-310.5 682.5,-310.5 682.5,-291.5 586.5,-291.5"/>
<text text-anchor="middle" x="634.5" y="-298.5" font-family="Helvetica,sans-Serif" font-size="10.00" fill="#000000">Urho3D::Vector2</text>
</a>
</g>
</g>
<!-- Node3&#45;&gt;Node1 -->
<g id="edge3" class="edge">
<title>Node3&#45;&gt;Node1</title>
<path fill="none" stroke="#9a32cd" stroke-dasharray="5,2" d="M667.7933,-314.2838C690.8057,-322.9324 722.3211,-333.7335 751,-340 848.3857,-361.2793 875.4831,-348.7947 974,-364 1019.2494,-370.9839 1070.6006,-381.6947 1105.622,-389.4282"/>
<polygon fill="#9a32cd" stroke="#9a32cd" points="668.7629,-310.9076 658.1724,-310.6074 666.2642,-317.4464 668.7629,-310.9076"/>
<text text-anchor="middle" x="914.5" y="-367" font-family="Helvetica,sans-Serif" font-size="10.00" fill="#000000"> invTextureSize_</text>
</g>
<!-- Node3&#45;&gt;Node3 -->
<g id="edge4" class="edge">
<title>Node3&#45;&gt;Node3</title>
<path fill="none" stroke="#9a32cd" stroke-dasharray="5,2" d="M605.0076,-319.6539C606.2404,-324.9368 616.0712,-329 634.5,-329 662.582,-329 670.6995,-319.5653 658.8524,-310.7571"/>
<polygon fill="#9a32cd" stroke="#9a32cd" points="608.1757,-321.1668 610.1476,-310.7571 602.1145,-317.665 608.1757,-321.1668"/>
<text text-anchor="middle" x="634.5" y="-387" font-family="Helvetica,sans-Serif" font-size="10.00" fill="#000000"> ONE</text>
<text text-anchor="middle" x="634.5" y="-376" font-family="Helvetica,sans-Serif" font-size="10.00" fill="#000000">DOWN</text>
<text text-anchor="middle" x="634.5" y="-365" font-family="Helvetica,sans-Serif" font-size="10.00" fill="#000000">RIGHT</text>
<text text-anchor="middle" x="634.5" y="-354" font-family="Helvetica,sans-Serif" font-size="10.00" fill="#000000">LEFT</text>
<text text-anchor="middle" x="634.5" y="-343" font-family="Helvetica,sans-Serif" font-size="10.00" fill="#000000">ZERO</text>
<text text-anchor="middle" x="634.5" y="-332" font-family="Helvetica,sans-Serif" font-size="10.00" fill="#000000">UP</text>
</g>
<!-- Node3&#45;&gt;Node144 -->
<g id="edge33" class="edge">
<title>Node3&#45;&gt;Node144</title>
<path fill="none" stroke="#9a32cd" stroke-dasharray="5,2" d="M692.697,-301.1964C734.4295,-299.4039 791.1429,-292.9298 837,-273 865.9428,-260.4212 892.9036,-233.8857 906.0719,-219.5959"/>
<polygon fill="#9a32cd" stroke="#9a32cd" points="692.5646,-297.6988 682.6942,-301.5492 692.8114,-304.6944 692.5646,-297.6988"/>
<text text-anchor="middle" x="794" y="-332" font-family="Helvetica,sans-Serif" font-size="10.00" fill="#000000"> layoutFlexScale_</text>
<text text-anchor="middle" x="794" y="-321" font-family="Helvetica,sans-Serif" font-size="10.00" fill="#000000">anchorMax_</text>
<text text-anchor="middle" x="794" y="-310" font-family="Helvetica,sans-Serif" font-size="10.00" fill="#000000">pivot_</text>
<text text-anchor="middle" x="794" y="-299" font-family="Helvetica,sans-Serif" font-size="10.00" fill="#000000">anchorMin_</text>
</g>
<!-- Node4 -->
<g id="node4" class="node">
<title>Node4</title>
<g id="a_node4"><a xlink:href="class_urho3_d_1_1_vector3.html" target="_top" xlink:title="Three&#45;dimensional vector. ">
<polygon fill="none" stroke="#000000" points="866.5,-433.5 866.5,-452.5 962.5,-452.5 962.5,-433.5 866.5,-433.5"/>
<text text-anchor="middle" x="914.5" y="-440.5" font-family="Helvetica,sans-Serif" font-size="10.00" fill="#000000">Urho3D::Vector3</text>
</a>
</g>
</g>
<!-- Node4&#45;&gt;Node1 -->
<g id="edge5" class="edge">
<title>Node4&#45;&gt;Node1</title>
<path fill="none" stroke="#9a32cd" stroke-dasharray="5,2" d="M972.9767,-432.4346C1002.6568,-427.0208 1039.267,-420.2648 1072,-414 1081.0567,-412.2666 1090.7161,-410.378 1099.9954,-408.5436"/>
<polygon fill="#9a32cd" stroke="#9a32cd" points="971.9964,-429.0555 962.7853,-434.2905 973.2505,-435.9422 971.9964,-429.0555"/>
<text text-anchor="middle" x="1032" y="-431" font-family="Helvetica,sans-Serif" font-size="10.00" fill="#000000"> posAdjust</text>
</g>
<!-- Node4&#45;&gt;Node4 -->
<g id="edge6" class="edge">
<title>Node4&#45;&gt;Node4</title>
<path fill="none" stroke="#9a32cd" stroke-dasharray="5,2" d="M893.0196,-462.4C894.4541,-467.3146 901.6143,-471 914.5,-471 935.1172,-471 941.0768,-461.5653 932.379,-452.7571"/>
<polygon fill="#9a32cd" stroke="#9a32cd" points="896.401,-463.3496 896.621,-452.7571 889.8434,-460.9004 896.401,-463.3496"/>
<text text-anchor="middle" x="914.5" y="-551" font-family="Helvetica,sans-Serif" font-size="10.00" fill="#000000"> ONE</text>
<text text-anchor="middle" x="914.5" y="-540" font-family="Helvetica,sans-Serif" font-size="10.00" fill="#000000">DOWN</text>
<text text-anchor="middle" x="914.5" y="-529" font-family="Helvetica,sans-Serif" font-size="10.00" fill="#000000">BACK</text>
<text text-anchor="middle" x="914.5" y="-518" font-family="Helvetica,sans-Serif" font-size="10.00" fill="#000000">RIGHT</text>
<text text-anchor="middle" x="914.5" y="-507" font-family="Helvetica,sans-Serif" font-size="10.00" fill="#000000">LEFT</text>
<text text-anchor="middle" x="914.5" y="-496" font-family="Helvetica,sans-Serif" font-size="10.00" fill="#000000">ZERO</text>
<text text-anchor="middle" x="914.5" y="-485" font-family="Helvetica,sans-Serif" font-size="10.00" fill="#000000">FORWARD</text>
<text text-anchor="middle" x="914.5" y="-474" font-family="Helvetica,sans-Serif" font-size="10.00" fill="#000000">UP</text>
</g>
<!-- Node5 -->
<g id="node5" class="node">
<title>Node5</title>
<g id="a_node5"><a xlink:href="class_urho3_d_1_1_texture.html" target="_top" xlink:title="Base class for texture resources. ">
<polygon fill="none" stroke="#000000" points="867,-652.5 867,-671.5 962,-671.5 962,-652.5 867,-652.5"/>
<text text-anchor="middle" x="914.5" y="-659.5" font-family="Helvetica,sans-Serif" font-size="10.00" fill="#000000">Urho3D::Texture</text>
</a>
</g>
</g>
<!-- Node5&#45;&gt;Node1 -->
<g id="edge7" class="edge">
<title>Node5&#45;&gt;Node1</title>
<path fill="none" stroke="#9a32cd" stroke-dasharray="5,2" d="M962.1736,-649.8691C1002.4893,-638.7648 1056.1538,-621.718 1072,-606 1130.3915,-548.081 1143.9565,-441.443 1146.8038,-408.7711"/>
<polygon fill="#9a32cd" stroke="#9a32cd" points="961.2382,-646.4963 952.5021,-652.4905 963.0695,-653.2525 961.2382,-646.4963"/>
<text text-anchor="middle" x="1032" y="-644" font-family="Helvetica,sans-Serif" font-size="10.00" fill="#000000"> texture_</text>
</g>
<!-- Node76 -->
<g id="node10" class="node">
<title>Node76</title>
<g id="a_node10"><a xlink:href="class_urho3_d_1_1_shared_ptr.html" target="_top" xlink:title="Urho3D::SharedPtr\&lt;\l Urho3D::Texture \&gt;">
<polygon fill="none" stroke="#000000" points="1090,-664 1090,-694 1205,-694 1205,-664 1090,-664"/>
<text text-anchor="start" x="1098" y="-682" font-family="Helvetica,sans-Serif" font-size="10.00" fill="#000000">Urho3D::SharedPtr&lt;</text>
<text text-anchor="middle" x="1147.5" y="-671" font-family="Helvetica,sans-Serif" font-size="10.00" fill="#000000"> Urho3D::Texture &gt;</text>
</a>
</g>
</g>
<!-- Node5&#45;&gt;Node76 -->
<g id="edge14" class="edge">
<title>Node5&#45;&gt;Node76</title>
<path fill="none" stroke="#9a32cd" stroke-dasharray="5,2" d="M972.5533,-671.7711C979.099,-672.6399 985.6835,-673.4116 992,-674 1024.2729,-677.0062 1060.4574,-678.2927 1089.7952,-678.8112"/>
<polygon fill="#9a32cd" stroke="#9a32cd" points="972.7326,-668.262 962.3432,-670.3382 971.7597,-675.1941 972.7326,-668.262"/>
<text text-anchor="middle" x="1032" y="-681" font-family="Helvetica,sans-Serif" font-size="10.00" fill="#000000"> ptr_</text>
</g>
<!-- Node6 -->
<g id="node6" class="node">
<title>Node6</title>
<g id="a_node6"><a xlink:href="class_urho3_d_1_1_resource_with_metadata.html" target="_top" xlink:title="Base class for resources that support arbitrary metadata stored. Metadata serialization shall be impl...">
<polygon fill="none" stroke="#ff0000" points="548.5,-725.5 548.5,-744.5 720.5,-744.5 720.5,-725.5 548.5,-725.5"/>
<text text-anchor="middle" x="634.5" y="-732.5" font-family="Helvetica,sans-Serif" font-size="10.00" fill="#000000">Urho3D::ResourceWithMetadata</text>
</a>
</g>
</g>
<!-- Node6&#45;&gt;Node5 -->
<g id="edge8" class="edge">
<title>Node6&#45;&gt;Node5</title>
<path fill="none" stroke="#191970" d="M680.991,-722.8791C736.2642,-708.4686 827.3636,-684.7177 877.8859,-671.5458"/>
<polygon fill="#191970" stroke="#191970" points="679.8986,-719.5468 671.1051,-725.4565 681.6647,-726.3204 679.8986,-719.5468"/>
</g>
<!-- Node7 -->
<g id="node7" class="node">
<title>Node7</title>
<g id="a_node7"><a xlink:href="class_urho3_d_1_1_resource.html" target="_top" xlink:title="Base class for resources. ">
<polygon fill="none" stroke="#ff0000" points="210,-760.5 210,-779.5 314,-779.5 314,-760.5 210,-760.5"/>
<text text-anchor="middle" x="262" y="-767.5" font-family="Helvetica,sans-Serif" font-size="10.00" fill="#000000">Urho3D::Resource</text>
</a>
</g>
</g>
<!-- Node7&#45;&gt;Node6 -->
<g id="edge9" class="edge">
<title>Node7&#45;&gt;Node6</title>
<path fill="none" stroke="#191970" d="M324.1943,-768.749C376.149,-767.1891 452.1007,-763.7114 518,-756 541.5763,-753.2412 567.593,-748.6971 589.0488,-744.5402"/>
<polygon fill="#191970" stroke="#191970" points="324.0295,-765.2521 314.1334,-769.036 324.2292,-772.2493 324.0295,-765.2521"/>
</g>
<!-- Node78 -->
<g id="node12" class="node">
<title>Node78</title>
<g id="a_node12"><a xlink:href="class_urho3_d_1_1_material.html" target="_top" xlink:title="Describes how to render 3D geometries. ">
<polygon fill="none" stroke="#000000" points="585,-590.5 585,-609.5 684,-609.5 684,-590.5 585,-590.5"/>
<text text-anchor="middle" x="634.5" y="-597.5" font-family="Helvetica,sans-Serif" font-size="10.00" fill="#000000">Urho3D::Material</text>
</a>
</g>
</g>
<!-- Node7&#45;&gt;Node78 -->
<g id="edge18" class="edge">
<title>Node7&#45;&gt;Node78</title>
<path fill="none" stroke="#191970" d="M324.1451,-764.5161C390.8848,-757.3458 491.0069,-742.4673 518,-716 541.8601,-692.6047 514.4607,-668.548 536,-643 550.0719,-626.3092 571.8556,-615.8931 591.3628,-609.5025"/>
<polygon fill="#191970" stroke="#191970" points="323.7277,-761.0406 314.1452,-765.56 324.4546,-768.0027 323.7277,-761.0406"/>
</g>
<!-- Node31 -->
<g id="node8" class="node">
<title>Node31</title>
<g id="a_node8"><a xlink:href="class_urho3_d_1_1_string.html" target="_top" xlink:title="String class. ">
<polygon fill="none" stroke="#000000" points="0,-430.5 0,-449.5 88,-449.5 88,-430.5 0,-430.5"/>
<text text-anchor="middle" x="44" y="-437.5" font-family="Helvetica,sans-Serif" font-size="10.00" fill="#000000">Urho3D::String</text>
</a>
</g>
</g>
<!-- Node31&#45;&gt;Node7 -->
<g id="edge10" class="edge">
<title>Node31&#45;&gt;Node7</title>
<path fill="none" stroke="#9a32cd" stroke-dasharray="5,2" d="M45.0662,-460.0325C49.1774,-515.7622 68.8167,-673.5978 161,-751 174.5276,-762.3585 192.6971,-767.7734 209.8953,-770.143"/>
<polygon fill="#9a32cd" stroke="#9a32cd" points="48.5399,-459.5101 44.4041,-449.7559 41.5544,-459.9602 48.5399,-459.5101"/>
<text text-anchor="middle" x="124.5" y="-735" font-family="Helvetica,sans-Serif" font-size="10.00" fill="#000000"> name_</text>
</g>
<!-- Node31&#45;&gt;Node31 -->
<g id="edge11" class="edge">
<title>Node31&#45;&gt;Node31</title>
<path fill="none" stroke="#9a32cd" stroke-dasharray="5,2" d="M29.2675,-459.7663C30.4246,-464.4965 35.3354,-468 44,-468 58.2188,-468 62.3289,-458.5653 56.3303,-449.7571"/>
<polygon fill="#9a32cd" stroke="#9a32cd" points="32.7393,-460.2978 31.6697,-449.7571 25.9326,-458.6641 32.7393,-460.2978"/>
<text text-anchor="middle" x="44" y="-471" font-family="Helvetica,sans-Serif" font-size="10.00" fill="#000000"> EMPTY</text>
</g>
<!-- Node31&#45;&gt;Node78 -->
<g id="edge26" class="edge">
<title>Node31&#45;&gt;Node78</title>
<path fill="none" stroke="#9a32cd" stroke-dasharray="5,2" d="M98.2757,-436.8292C162.1717,-434.2146 271.2181,-433.2601 363,-450 434.6233,-463.0632 469.2287,-448.9453 518,-503 541.8332,-529.4151 510.391,-556.3027 536,-581 548.9122,-593.4524 567.3793,-598.9603 584.8411,-601.0959"/>
<polygon fill="#9a32cd" stroke="#9a32cd" points="97.8719,-433.3434 88.0349,-437.2785 98.1788,-440.3367 97.8719,-433.3434"/>
<text text-anchor="start" x="209" y="-475" font-family="Helvetica,sans-Serif" font-size="10.00" fill="#000000"> vertexShaderDefines</text>
<text text-anchor="middle" x="262" y="-464" font-family="Helvetica,sans-Serif" font-size="10.00" fill="#000000">_</text>
<text text-anchor="middle" x="262" y="-453" font-family="Helvetica,sans-Serif" font-size="10.00" fill="#000000">pixelShaderDefines_</text>
</g>
<!-- Node31&#45;&gt;Node144 -->
<g id="edge35" class="edge">
<title>Node31&#45;&gt;Node144</title>
<path fill="none" stroke="#9a32cd" stroke-dasharray="5,2" d="M50.6261,-420.9018C64.8959,-382.4103 102.0897,-294.9364 161,-245 297.6794,-129.1413 359.9782,-130.4785 536,-97 668.9477,-71.714 722.6757,-70.5817 837,-143 864.0451,-160.1316 891.3728,-186.2957 905.2151,-200.3207"/>
<polygon fill="#9a32cd" stroke="#9a32cd" points="47.3053,-419.7931 47.2101,-430.3875 53.8913,-422.1648 47.3053,-419.7931"/>
<text text-anchor="middle" x="449.5" y="-141" font-family="Helvetica,sans-Serif" font-size="10.00" fill="#000000"> appliedStyle_</text>
<text text-anchor="middle" x="449.5" y="-130" font-family="Helvetica,sans-Serif" font-size="10.00" fill="#000000">name_</text>
</g>
<!-- Node33 -->
<g id="node9" class="node">
<title>Node33</title>
<g id="a_node9"><a xlink:href="class_urho3_d_1_1_g_p_u_object.html" target="_top" xlink:title="Base class for GPU resources. ">
<polygon fill="none" stroke="#ff0000" points="578.5,-652.5 578.5,-671.5 690.5,-671.5 690.5,-652.5 578.5,-652.5"/>
<text text-anchor="middle" x="634.5" y="-659.5" font-family="Helvetica,sans-Serif" font-size="10.00" fill="#000000">Urho3D::GPUObject</text>
</a>
</g>
</g>
<!-- Node33&#45;&gt;Node5 -->
<g id="edge12" class="edge">
<title>Node33&#45;&gt;Node5</title>
<path fill="none" stroke="#191970" d="M701.0839,-662C752.0309,-662 821.0667,-662 866.6515,-662"/>
<polygon fill="#191970" stroke="#191970" points="700.8254,-658.5001 690.8254,-662 700.8253,-665.5001 700.8254,-658.5001"/>
</g>
<!-- Node76&#45;&gt;Node5 -->
<g id="edge13" class="edge">
<title>Node76&#45;&gt;Node5</title>
<path fill="none" stroke="#9a32cd" stroke-dasharray="5,2" d="M1080.0775,-664.0078C1077.3561,-663.6261 1074.6559,-663.2869 1072,-663 1035.2986,-659.036 993.5063,-658.9747 962.1988,-659.8023"/>
<polygon fill="#9a32cd" stroke="#9a32cd" points="1079.5624,-667.4697 1089.9834,-665.558 1080.6448,-660.5539 1079.5624,-667.4697"/>
<text text-anchor="middle" x="1032" y="-666" font-family="Helvetica,sans-Serif" font-size="10.00" fill="#000000"> backupTexture_</text>
</g>
<!-- Node77 -->
<g id="node11" class="node">
<title>Node77</title>
<g id="a_node11"><a xlink:href="class_urho3_d_1_1_color.html" target="_top" xlink:title="RGBA color. ">
<polygon fill="none" stroke="#000000" points="592,-413.5 592,-432.5 677,-432.5 677,-413.5 592,-413.5"/>
<text text-anchor="middle" x="634.5" y="-420.5" font-family="Helvetica,sans-Serif" font-size="10.00" fill="#000000">Urho3D::Color</text>
</a>
</g>
</g>
<!-- Node77&#45;&gt;Node5 -->
<g id="edge15" class="edge">
<title>Node77&#45;&gt;Node5</title>
<path fill="none" stroke="#9a32cd" stroke-dasharray="5,2" d="M653.6254,-439.3249C707.7282,-485.5055 860.7023,-616.0798 903.3428,-652.4765"/>
<polygon fill="#9a32cd" stroke="#9a32cd" points="655.7014,-436.4953 645.8231,-432.6651 651.1568,-441.8195 655.7014,-436.4953"/>
<text text-anchor="middle" x="794" y="-594" font-family="Helvetica,sans-Serif" font-size="10.00" fill="#000000"> borderColor_</text>
</g>
<!-- Node77&#45;&gt;Node77 -->
<g id="edge16" class="edge">
<title>Node77&#45;&gt;Node77</title>
<path fill="none" stroke="#9a32cd" stroke-dasharray="5,2" d="M605.0076,-441.6539C606.2404,-446.9368 616.0712,-451 634.5,-451 662.582,-451 670.6995,-441.5653 658.8524,-432.7571"/>
<polygon fill="#9a32cd" stroke="#9a32cd" points="608.1757,-443.1668 610.1476,-432.7571 602.1145,-439.665 608.1757,-443.1668"/>
<text text-anchor="middle" x="634.5" y="-564" font-family="Helvetica,sans-Serif" font-size="10.00" fill="#000000"> TRANSPARENT_BLACK</text>
<text text-anchor="middle" x="634.5" y="-553" font-family="Helvetica,sans-Serif" font-size="10.00" fill="#000000">CYAN</text>
<text text-anchor="middle" x="634.5" y="-542" font-family="Helvetica,sans-Serif" font-size="10.00" fill="#000000">GRAY</text>
<text text-anchor="middle" x="634.5" y="-531" font-family="Helvetica,sans-Serif" font-size="10.00" fill="#000000">YELLOW</text>
<text text-anchor="middle" x="634.5" y="-520" font-family="Helvetica,sans-Serif" font-size="10.00" fill="#000000">MAGENTA</text>
<text text-anchor="middle" x="634.5" y="-509" font-family="Helvetica,sans-Serif" font-size="10.00" fill="#000000">WHITE</text>
<text text-anchor="middle" x="634.5" y="-498" font-family="Helvetica,sans-Serif" font-size="10.00" fill="#000000">BLUE</text>
<text text-anchor="middle" x="634.5" y="-487" font-family="Helvetica,sans-Serif" font-size="10.00" fill="#000000">BLACK</text>
<text text-anchor="middle" x="634.5" y="-476" font-family="Helvetica,sans-Serif" font-size="10.00" fill="#000000">RED</text>
<text text-anchor="middle" x="634.5" y="-465" font-family="Helvetica,sans-Serif" font-size="10.00" fill="#000000">GREEN</text>
<text text-anchor="middle" x="634.5" y="-454" font-family="Helvetica,sans-Serif" font-size="10.00" fill="#000000">...</text>
</g>
<!-- Node77&#45;&gt;Node144 -->
<g id="edge37" class="edge">
<title>Node77&#45;&gt;Node144</title>
<path fill="none" stroke="#9a32cd" stroke-dasharray="5,2" d="M687.2441,-416.1643C702.3069,-413.3232 718.5481,-409.3889 733,-404 783,-385.3557 799.2464,-381.713 837,-344 875.7873,-305.2544 901.9706,-243.1683 911.0072,-219.5444"/>
<polygon fill="#9a32cd" stroke="#9a32cd" points="686.2822,-412.7798 677.0407,-417.9611 687.4962,-419.6737 686.2822,-412.7798"/>
<text text-anchor="middle" x="794" y="-410" font-family="Helvetica,sans-Serif" font-size="10.00" fill="#000000"> derivedColor_</text>
<text text-anchor="middle" x="794" y="-399" font-family="Helvetica,sans-Serif" font-size="10.00" fill="#000000">colors_</text>
</g>
<!-- Node78&#45;&gt;Node1 -->
<g id="edge17" class="edge">
<title>Node78&#45;&gt;Node1</title>
<path fill="none" stroke="#9a32cd" stroke-dasharray="5,2" d="M694.0879,-605.9788C764.4017,-610.487 883.2184,-609.9776 974,-568 1055.295,-530.409 1121.4199,-438.3771 1141.3402,-408.5207"/>
<polygon fill="#9a32cd" stroke="#9a32cd" points="694.2938,-602.4847 684.0748,-605.2816 693.8075,-609.4678 694.2938,-602.4847"/>
<text text-anchor="middle" x="914.5" y="-603" font-family="Helvetica,sans-Serif" font-size="10.00" fill="#000000"> custom_material_</text>
</g>
<!-- Node79 -->
<g id="node13" class="node">
<title>Node79</title>
<g id="a_node13"><a xlink:href="class_urho3_d_1_1_weak_ptr.html" target="_top" xlink:title="Urho3D::WeakPtr\&lt; Urho3D\l::Scene \&gt;">
<polygon fill="none" stroke="#ff0000" points="188,-373 188,-403 336,-403 336,-373 188,-373"/>
<text text-anchor="start" x="196" y="-391" font-family="Helvetica,sans-Serif" font-size="10.00" fill="#000000">Urho3D::WeakPtr&lt; Urho3D</text>
<text text-anchor="middle" x="262" y="-380" font-family="Helvetica,sans-Serif" font-size="10.00" fill="#000000">::Scene &gt;</text>
</a>
</g>
</g>
<!-- Node79&#45;&gt;Node78 -->
<g id="edge19" class="edge">
<title>Node79&#45;&gt;Node78</title>
<path fill="none" stroke="#9a32cd" stroke-dasharray="5,2" d="M346.0848,-372.2687C402.4108,-366.9534 474.0385,-371.1672 518,-415 570.5514,-467.3976 485.7352,-526.4051 536,-581 548.3272,-594.3891 567.0034,-600.0132 584.7912,-601.9807"/>
<polygon fill="#9a32cd" stroke="#9a32cd" points="345.6906,-368.7908 336.114,-373.3227 346.4265,-375.752 345.6906,-368.7908"/>
<text text-anchor="middle" x="449.5" y="-418" font-family="Helvetica,sans-Serif" font-size="10.00" fill="#000000"> scene_</text>
</g>
<!-- Node139 -->
<g id="node14" class="node">
<title>Node139</title>
<g id="a_node14"><a xlink:href="class_urho3_d_1_1_hash_map.html" target="_top" xlink:title="Urho3D::HashMap\&lt; Urho3D\l::StringHash, Urho3D::\lMaterialShaderParameter \&gt;">
<polygon fill="none" stroke="#ff0000" points="186,-312.5 186,-353.5 338,-353.5 338,-312.5 186,-312.5"/>
<text text-anchor="start" x="194" y="-341.5" font-family="Helvetica,sans-Serif" font-size="10.00" fill="#000000">Urho3D::HashMap&lt; Urho3D</text>
<text text-anchor="start" x="194" y="-330.5" font-family="Helvetica,sans-Serif" font-size="10.00" fill="#000000">::StringHash, Urho3D::</text>
<text text-anchor="middle" x="262" y="-319.5" font-family="Helvetica,sans-Serif" font-size="10.00" fill="#000000">MaterialShaderParameter &gt;</text>
</a>
</g>
</g>
<!-- Node139&#45;&gt;Node78 -->
<g id="edge20" class="edge">
<title>Node139&#45;&gt;Node78</title>
<path fill="none" stroke="#9a32cd" stroke-dasharray="5,2" d="M347.9907,-314.8107C404.1262,-308.3759 474.7661,-311.4951 518,-355 553.5135,-390.7361 502.4075,-543.4525 536,-581 548.193,-594.6285 566.9544,-600.2737 584.8448,-602.1917"/>
<polygon fill="#9a32cd" stroke="#9a32cd" points="347.5281,-311.3412 338.0453,-316.0664 348.405,-318.2861 347.5281,-311.3412"/>
<text text-anchor="middle" x="449.5" y="-358" font-family="Helvetica,sans-Serif" font-size="10.00" fill="#000000"> shaderParameters_</text>
</g>
<!-- Node140 -->
<g id="node15" class="node">
<title>Node140</title>
<g id="a_node15"><a xlink:href="class_urho3_d_1_1_hash_map.html" target="_top" xlink:title="Urho3D::HashMap\&lt; Urho3D\l::StringHash, Urho3D::\lSharedPtr\&lt; Urho3D::ShaderParameter\lAnimationInfo \&gt; \&gt;">
<polygon fill="none" stroke="#ff0000" points="161,-689 161,-741 363,-741 363,-689 161,-689"/>
<text text-anchor="start" x="169" y="-729" font-family="Helvetica,sans-Serif" font-size="10.00" fill="#000000">Urho3D::HashMap&lt; Urho3D</text>
<text text-anchor="start" x="169" y="-718" font-family="Helvetica,sans-Serif" font-size="10.00" fill="#000000">::StringHash, Urho3D::</text>
<text text-anchor="start" x="169" y="-707" font-family="Helvetica,sans-Serif" font-size="10.00" fill="#000000">SharedPtr&lt; Urho3D::ShaderParameter</text>
<text text-anchor="middle" x="262" y="-696" font-family="Helvetica,sans-Serif" font-size="10.00" fill="#000000">AnimationInfo &gt; &gt;</text>
</a>
</g>
</g>
<!-- Node140&#45;&gt;Node78 -->
<g id="edge21" class="edge">
<title>Node140&#45;&gt;Node78</title>
<path fill="none" stroke="#9a32cd" stroke-dasharray="5,2" d="M373.1492,-693.3083C418.7267,-682.9621 471.5767,-669.0761 518,-652 526.3944,-648.9123 527.8986,-646.7905 536,-643 561.6891,-630.9804 591.5975,-618.0749 611.6583,-609.5729"/>
<polygon fill="#9a32cd" stroke="#9a32cd" points="372.2322,-689.9268 363.2393,-695.5284 373.7626,-696.7575 372.2322,-689.9268"/>
<text text-anchor="start" x="381" y="-704" font-family="Helvetica,sans-Serif" font-size="10.00" fill="#000000"> shaderParameterAnimation</text>
<text text-anchor="middle" x="449.5" y="-693" font-family="Helvetica,sans-Serif" font-size="10.00" fill="#000000">Infos_</text>
</g>
<!-- Node141 -->
<g id="node16" class="node">
<title>Node141</title>
<g id="a_node16"><a xlink:href="class_urho3_d_1_1_vector.html" target="_top" xlink:title="Urho3D::Vector\&lt; Urho3D\l::TechniqueEntry \&gt;">
<polygon fill="none" stroke="#ff0000" points="193,-640 193,-670 331,-670 331,-640 193,-640"/>
<text text-anchor="start" x="201" y="-658" font-family="Helvetica,sans-Serif" font-size="10.00" fill="#000000">Urho3D::Vector&lt; Urho3D</text>
<text text-anchor="middle" x="262" y="-647" font-family="Helvetica,sans-Serif" font-size="10.00" fill="#000000">::TechniqueEntry &gt;</text>
</a>
</g>
</g>
<!-- Node141&#45;&gt;Node78 -->
<g id="edge22" class="edge">
<title>Node141&#45;&gt;Node78</title>
<path fill="none" stroke="#9a32cd" stroke-dasharray="5,2" d="M341.3558,-643.283C415.0359,-632.4041 522.457,-616.5433 584.7369,-607.3476"/>
<polygon fill="#9a32cd" stroke="#9a32cd" points="340.5729,-639.8606 331.1914,-644.7838 341.5954,-646.7855 340.5729,-639.8606"/>
<text text-anchor="middle" x="449.5" y="-640" font-family="Helvetica,sans-Serif" font-size="10.00" fill="#000000"> techniques_</text>
</g>
<!-- Node142 -->
<g id="node17" class="node">
<title>Node142</title>
<g id="a_node17"><a xlink:href="struct_urho3_d_1_1_bias_parameters.html" target="_top" xlink:title="Depth bias parameters. Used both by lights (for shadow mapping) and materials. ">
<polygon fill="none" stroke="#000000" points="194,-541.5 194,-560.5 330,-560.5 330,-541.5 194,-541.5"/>
<text text-anchor="middle" x="262" y="-548.5" font-family="Helvetica,sans-Serif" font-size="10.00" fill="#000000">Urho3D::BiasParameters</text>
</a>
</g>
</g>
<!-- Node142&#45;&gt;Node78 -->
<g id="edge23" class="edge">
<title>Node142&#45;&gt;Node78</title>
<path fill="none" stroke="#9a32cd" stroke-dasharray="5,2" d="M340.4878,-561.3246C414.2042,-571.0215 522.2536,-585.2347 584.7731,-593.4587"/>
<polygon fill="#9a32cd" stroke="#9a32cd" points="340.6933,-557.8215 330.3222,-559.9874 339.7803,-564.7617 340.6933,-557.8215"/>
<text text-anchor="middle" x="449.5" y="-587" font-family="Helvetica,sans-Serif" font-size="10.00" fill="#000000"> depthBias_</text>
</g>
<!-- Node143 -->
<g id="node18" class="node">
<title>Node143</title>
<g id="a_node18"><a xlink:href="class_urho3_d_1_1_hash_map.html" target="_top" xlink:title="Urho3D::HashMap\&lt; Texture\lUnit, Urho3D::SharedPtr\l\&lt; Urho3D::Texture \&gt; \&gt;">
<polygon fill="none" stroke="#ff0000" points="186,-579.5 186,-620.5 338,-620.5 338,-579.5 186,-579.5"/>
<text text-anchor="start" x="194" y="-608.5" font-family="Helvetica,sans-Serif" font-size="10.00" fill="#000000">Urho3D::HashMap&lt; Texture</text>
<text text-anchor="start" x="194" y="-597.5" font-family="Helvetica,sans-Serif" font-size="10.00" fill="#000000">Unit, Urho3D::SharedPtr</text>
<text text-anchor="middle" x="262" y="-586.5" font-family="Helvetica,sans-Serif" font-size="10.00" fill="#000000">&lt; Urho3D::Texture &gt; &gt;</text>
</a>
</g>
</g>
<!-- Node143&#45;&gt;Node78 -->
<g id="edge24" class="edge">
<title>Node143&#45;&gt;Node78</title>
<path fill="none" stroke="#9a32cd" stroke-dasharray="5,2" d="M348.4287,-600C421.7855,-600 524.4657,-600 584.7753,-600"/>
<polygon fill="#9a32cd" stroke="#9a32cd" points="348.2798,-596.5001 338.2798,-600 348.2798,-603.5001 348.2798,-596.5001"/>
<text text-anchor="middle" x="449.5" y="-603" font-family="Helvetica,sans-Serif" font-size="10.00" fill="#000000"> textures_</text>
</g>
<!-- Node131 -->
<g id="node19" class="node">
<title>Node131</title>
<g id="a_node19"><a xlink:href="class_urho3_d_1_1_shared_ptr.html" target="_top" xlink:title="Urho3D::SharedPtr\&lt;\l Urho3D::JSONFile \&gt;">
<polygon fill="none" stroke="#ff0000" points="204.5,-492 204.5,-522 319.5,-522 319.5,-492 204.5,-492"/>
<text text-anchor="start" x="212.5" y="-510" font-family="Helvetica,sans-Serif" font-size="10.00" fill="#000000">Urho3D::SharedPtr&lt;</text>
<text text-anchor="middle" x="262" y="-499" font-family="Helvetica,sans-Serif" font-size="10.00" fill="#000000"> Urho3D::JSONFile &gt;</text>
</a>
</g>
</g>
<!-- Node131&#45;&gt;Node78 -->
<g id="edge25" class="edge">
<title>Node131&#45;&gt;Node78</title>
<path fill="none" stroke="#9a32cd" stroke-dasharray="5,2" d="M329.7488,-503.742C384.9515,-504.3679 462.5626,-513.0492 518,-551 530.8307,-559.7835 523.2593,-572.0864 536,-581 550.1989,-590.9337 568.2404,-596.0158 584.9925,-598.517"/>
<polygon fill="#9a32cd" stroke="#9a32cd" points="329.7223,-500.2421 319.7124,-503.7137 329.7024,-507.242 329.7223,-500.2421"/>
<text text-anchor="middle" x="449.5" y="-554" font-family="Helvetica,sans-Serif" font-size="10.00" fill="#000000"> loadJSONFile_</text>
</g>
<!-- Node135 -->
<g id="node20" class="node">
<title>Node135</title>
<g id="a_node20"><a xlink:href="class_urho3_d_1_1_shared_ptr.html" target="_top" xlink:title="Urho3D::SharedPtr\&lt;\l Urho3D::XMLFile \&gt;">
<polygon fill="none" stroke="#ff0000" points="204.5,-255 204.5,-285 319.5,-285 319.5,-255 204.5,-255"/>
<text text-anchor="start" x="212.5" y="-273" font-family="Helvetica,sans-Serif" font-size="10.00" fill="#000000">Urho3D::SharedPtr&lt;</text>
<text text-anchor="middle" x="262" y="-262" font-family="Helvetica,sans-Serif" font-size="10.00" fill="#000000"> Urho3D::XMLFile &gt;</text>
</a>
</g>
</g>
<!-- Node135&#45;&gt;Node78 -->
<g id="edge27" class="edge">
<title>Node135&#45;&gt;Node78</title>
<path fill="none" stroke="#9a32cd" stroke-dasharray="5,2" d="M329.8086,-272.6964C401.2302,-276.2282 505.156,-283.6077 518,-297 561.7719,-342.6402 494.2179,-533.5314 536,-581 548.1398,-594.7921 567.0024,-600.4433 584.985,-602.3212"/>
<polygon fill="#9a32cd" stroke="#9a32cd" points="329.6778,-269.1862 319.5216,-272.203 329.3424,-276.1782 329.6778,-269.1862"/>
<text text-anchor="middle" x="449.5" y="-300" font-family="Helvetica,sans-Serif" font-size="10.00" fill="#000000"> loadXMLFile_</text>
</g>
<!-- Node135&#45;&gt;Node144 -->
<g id="edge36" class="edge">
<title>Node135&#45;&gt;Node144</title>
<path fill="none" stroke="#9a32cd" stroke-dasharray="5,2" d="M329.8956,-265.0255C421.4501,-258.2684 589.5598,-245.688 733,-234 779.2417,-230.2321 791.0509,-231.4168 837,-225 847.5868,-223.5215 858.917,-221.5515 869.5547,-219.5267"/>
<polygon fill="#9a32cd" stroke="#9a32cd" points="329.3726,-261.5545 319.6571,-265.7804 329.8874,-268.5355 329.3726,-261.5545"/>
<text text-anchor="middle" x="634.5" y="-253" font-family="Helvetica,sans-Serif" font-size="10.00" fill="#000000"> defaultStyle_</text>
</g>
<!-- Node144&#45;&gt;Node1 -->
<g id="edge28" class="edge">
<title>Node144&#45;&gt;Node1</title>
<path fill="none" stroke="#9a32cd" stroke-dasharray="5,2" d="M936.7025,-225.6938C967.6973,-247.843 1025.3745,-289.9401 1072,-329 1096.3894,-349.4319 1123.3635,-375.2928 1137.5366,-389.1551"/>
<polygon fill="#9a32cd" stroke="#9a32cd" points="938.5162,-222.6887 928.34,-219.7398 934.4562,-228.391 938.5162,-222.6887"/>
<text text-anchor="middle" x="1032" y="-332" font-family="Helvetica,sans-Serif" font-size="10.00" fill="#000000"> element_</text>
</g>
<!-- Node144&#45;&gt;Node144 -->
<g id="edge34" class="edge">
<title>Node144&#45;&gt;Node144</title>
<path fill="none" stroke="#9a32cd" stroke-dasharray="5,2" d="M893.0196,-229.4C894.4541,-234.3146 901.6143,-238 914.5,-238 935.1172,-238 941.0768,-228.5653 932.379,-219.7571"/>
<polygon fill="#9a32cd" stroke="#9a32cd" points="896.401,-230.3496 896.621,-219.7571 889.8434,-227.9004 896.401,-230.3496"/>
<text text-anchor="middle" x="914.5" y="-241" font-family="Helvetica,sans-Serif" font-size="10.00" fill="#000000"> parent_</text>
</g>
<!-- Node82 -->
<g id="node22" class="node">
<title>Node82</title>
<g id="a_node22"><a xlink:href="class_urho3_d_1_1_animatable.html" target="_top" xlink:title="Base class for animatable object, an animatable object can be set animation on it&#39;s attributes...">
<polygon fill="none" stroke="#ff0000" points="576.5,-156.5 576.5,-175.5 692.5,-175.5 692.5,-156.5 576.5,-156.5"/>
<text text-anchor="middle" x="634.5" y="-163.5" font-family="Helvetica,sans-Serif" font-size="10.00" fill="#000000">Urho3D::Animatable</text>
</a>
</g>
</g>
<!-- Node82&#45;&gt;Node144 -->
<g id="edge29" class="edge">
<title>Node82&#45;&gt;Node144</title>
<path fill="none" stroke="#191970" d="M702.5426,-176.6924C750.6965,-184.2595 814.4484,-194.2776 859.416,-201.3439"/>
<polygon fill="#191970" stroke="#191970" points="702.9383,-173.2117 692.5162,-175.1168 701.8516,-180.1269 702.9383,-173.2117"/>
</g>
<!-- Node137 -->
<g id="node23" class="node">
<title>Node137</title>
<g id="a_node23"><a xlink:href="class_urho3_d_1_1_weak_ptr.html" target="_top" xlink:title="Urho3D::WeakPtr\&lt; Urho3D\l::XMLFile \&gt;">
<polygon fill="none" stroke="#ff0000" points="560.5,-107 560.5,-137 708.5,-137 708.5,-107 560.5,-107"/>
<text text-anchor="start" x="568.5" y="-125" font-family="Helvetica,sans-Serif" font-size="10.00" fill="#000000">Urho3D::WeakPtr&lt; Urho3D</text>
<text text-anchor="middle" x="634.5" y="-114" font-family="Helvetica,sans-Serif" font-size="10.00" fill="#000000">::XMLFile &gt;</text>
</a>
</g>
</g>
<!-- Node137&#45;&gt;Node144 -->
<g id="edge30" class="edge">
<title>Node137&#45;&gt;Node144</title>
<path fill="none" stroke="#9a32cd" stroke-dasharray="5,2" d="M719.0162,-137.9236C755.8328,-146.0119 799.1345,-157.0999 837,-171 858.9168,-179.0454 882.7046,-191.6455 898.0632,-200.3353"/>
<polygon fill="#9a32cd" stroke="#9a32cd" points="719.3271,-134.4102 708.8138,-135.7219 717.8505,-141.2527 719.3271,-134.4102"/>
<text text-anchor="middle" x="794" y="-174" font-family="Helvetica,sans-Serif" font-size="10.00" fill="#000000"> appliedStyleFile_</text>
</g>
<!-- Node145 -->
<g id="node24" class="node">
<title>Node145</title>
<g id="a_node24"><a xlink:href="class_urho3_d_1_1_vector.html" target="_top" xlink:title="Urho3D::Vector\&lt; Urho3D\l::SharedPtr\&lt; Urho3D::UIElement \&gt; \&gt;">
<polygon fill="none" stroke="#ff0000" points="536,-195 536,-225 733,-225 733,-195 536,-195"/>
<text text-anchor="start" x="544" y="-213" font-family="Helvetica,sans-Serif" font-size="10.00" fill="#000000">Urho3D::Vector&lt; Urho3D</text>
<text text-anchor="middle" x="634.5" y="-202" font-family="Helvetica,sans-Serif" font-size="10.00" fill="#000000">::SharedPtr&lt; Urho3D::UIElement &gt; &gt;</text>
</a>
</g>
</g>
<!-- Node145&#45;&gt;Node144 -->
<g id="edge32" class="edge">
<title>Node145&#45;&gt;Node144</title>
<path fill="none" stroke="#9a32cd" stroke-dasharray="5,2" d="M743.2372,-210C782.9809,-210 826.2668,-210 859.3782,-210"/>
<polygon fill="#9a32cd" stroke="#9a32cd" points="743.2176,-206.5001 733.2175,-210 743.2175,-213.5001 743.2176,-206.5001"/>
<text text-anchor="middle" x="794" y="-213" font-family="Helvetica,sans-Serif" font-size="10.00" fill="#000000"> children_</text>
</g>
<!-- Node149 -->
<g id="node25" class="node">
<title>Node149</title>
<g id="a_node25"><a xlink:href="class_urho3_d_1_1_p_o_d_vector.html" target="_top" xlink:title="Urho3D::PODVector\&lt;\l float \&gt;">
<polygon fill="none" stroke="#ff0000" points="855,-384 855,-414 974,-414 974,-384 855,-384"/>
<text text-anchor="start" x="863" y="-402" font-family="Helvetica,sans-Serif" font-size="10.00" fill="#000000">Urho3D::PODVector&lt;</text>
<text text-anchor="middle" x="914.5" y="-391" font-family="Helvetica,sans-Serif" font-size="10.00" fill="#000000"> float &gt;</text>
</a>
</g>
</g>
<!-- Node149&#45;&gt;Node1 -->
<g id="edge38" class="edge">
<title>Node149&#45;&gt;Node1</title>
<path fill="none" stroke="#9a32cd" stroke-dasharray="5,2" d="M984.3344,-399C1021.012,-399 1065.0826,-399 1098.1718,-399"/>
<polygon fill="#9a32cd" stroke="#9a32cd" points="984.2008,-395.5001 974.2007,-399 984.2007,-402.5001 984.2008,-395.5001"/>
<text text-anchor="middle" x="1032" y="-402" font-family="Helvetica,sans-Serif" font-size="10.00" fill="#000000"> vertexData_</text>
</g>
</g>
</svg>
        <g id="navigator" transform="translate(0 0)" fill="#404254">
                <rect fill="#f2f5e9" fill-opacity="0.5" stroke="#606060" stroke-width=".5" x="0" y="0" width="60" height="60"/>
                <use id="zoomplus" xlink:href="#zoomPlus" x="17" y="9" onmousedown="handleZoom(evt,'in')"/>
                <use id="zoomminus" xlink:href="#zoomMin" x="42" y="9" onmousedown="handleZoom(evt,'out')"/>
                <use id="reset" xlink:href="#resetDef" x="30" y="36" onmousedown="handleReset()"/>
                <g id="arrowUp" xlink:href="#dirArrow" transform="translate(30 24)" onmousedown="handlePan(0,-1)">
                  <use xlink:href="#rim" fill="#404040">
                        <set attributeName="fill" to="#808080" begin="arrowUp.mouseover" end="arrowUp.mouseout"/>
                  </use>
                  <path fill="none" stroke="white" stroke-width="1.5" d="M0,-3.0v7 M-2.5,-0.5L0,-3.0L2.5,-0.5"/>
                </g>
                <g id="arrowRight" xlink:href="#dirArrow" transform="rotate(90) translate(36 -43)" onmousedown="handlePan(1,0)">
                  <use xlink:href="#rim" fill="#404040">
                        <set attributeName="fill" to="#808080" begin="arrowRight.mouseover" end="arrowRight.mouseout"/>
                  </use>
                  <path fill="none" stroke="white" stroke-width="1.5" d="M0,-3.0v7 M-2.5,-0.5L0,-3.0L2.5,-0.5"/>
                </g>
                <g id="arrowDown" xlink:href="#dirArrow" transform="rotate(180) translate(-30 -48)" onmousedown="handlePan(0,1)">
                  <use xlink:href="#rim" fill="#404040">
                        <set attributeName="fill" to="#808080" begin="arrowDown.mouseover" end="arrowDown.mouseout"/>
                  </use>
                  <path fill="none" stroke="white" stroke-width="1.5" d="M0,-3.0v7 M-2.5,-0.5L0,-3.0L2.5,-0.5"/>
                </g>
                <g id="arrowLeft" xlink:href="#dirArrow" transform="rotate(270) translate(-36 17)" onmousedown="handlePan(-1,0)">
                  <use xlink:href="#rim" fill="#404040">
                        <set attributeName="fill" to="#808080" begin="arrowLeft.mouseover" end="arrowLeft.mouseout"/>
                  </use>
                  <path fill="none" stroke="white" stroke-width="1.5" d="M0,-3.0v7 M-2.5,-0.5L0,-3.0L2.5,-0.5"/>
                </g>
        </g>
        <svg viewBox="0 0 15 15" width="100%" height="30px" preserveAspectRatio="xMaxYMin meet">
         <g id="arrow_out" transform="scale(0.3 0.3)">
          <a xlink:href="class_urho3_d_1_1_u_i_batch__coll__graph_org.svg" target="_base">
           <rect id="button" ry="5" rx="5" y="6" x="6" height="38" width="38"
                fill="#f2f5e9" fill-opacity="0.5" stroke="#606060" stroke-width="1.0"/>
           <path id="arrow"
             d="M 11.500037,31.436501 C 11.940474,20.09759 22.043105,11.32322 32.158766,21.979434 L 37.068811,17.246167 C 37.068811,17.246167 37.088388,32 37.088388,32 L 22.160133,31.978069 C 22.160133,31.978069 26.997745,27.140456 26.997745,27.140456 C 18.528582,18.264221 13.291696,25.230495 11.500037,31.436501 z"
             style="fill:#404040;"/>
          </a>
         </g>
        </svg>
</svg>
