<?xml version="1.0" encoding="UTF-8" standalone="no"?>
<!DOCTYPE svg PUBLIC "-//W3C//DTD SVG 1.1//EN"
 "http://www.w3.org/Graphics/SVG/1.1/DTD/svg11.dtd">
<!-- Generated by graphviz version 2.36.0 (20140111.2315)
 -->
<!-- Title: Urho3D::Model Pages: 1 -->
<svg width="1394pt" height="797pt"
 viewBox="0.00 0.00 1394.00 797.00" xmlns="http://www.w3.org/2000/svg" xmlns:xlink="http://www.w3.org/1999/xlink">
<g id="graph0" class="graph" transform="scale(1 1) rotate(0) translate(4 793)">
<title>Urho3D::Model</title>
<!-- Node1 -->
<g id="node1" class="node"><title>Node1</title>
<polygon fill="#bfbfbf" stroke="black" points="1298,-334.5 1298,-353.5 1386,-353.5 1386,-334.5 1298,-334.5"/>
<text text-anchor="middle" x="1342" y="-341.5" font-family="FreeSans" font-size="10.00">Urho3D::Model</text>
</g>
<!-- Node2 -->
<g id="node2" class="node"><title>Node2</title>
<g id="a_node2"><a xlink:href="class_urho3_d_1_1_resource.html" target="_top" xlink:title="Base class for resources. ">
<polygon fill="none" stroke="black" points="1018.5,-641.5 1018.5,-660.5 1121.5,-660.5 1121.5,-641.5 1018.5,-641.5"/>
<text text-anchor="middle" x="1070" y="-648.5" font-family="FreeSans" font-size="10.00">Urho3D::Resource</text>
</a>
</g>
</g>
<!-- Node2&#45;&gt;Node1 -->
<g id="edge1" class="edge"><title>Node2&#45;&gt;Node1</title>
<path fill="none" stroke="midnightblue" d="M1131.6,-652.295C1178.35,-649.925 1241.35,-638.857 1280,-600 1316,-563.799 1335.64,-395.682 1340.04,-353.58"/>
<polygon fill="midnightblue" stroke="midnightblue" points="1131.45,-648.798 1121.59,-652.683 1131.72,-655.793 1131.45,-648.798"/>
</g>
<!-- Node3 -->
<g id="node3" class="node"><title>Node3</title>
<g id="a_node3"><a xlink:href="class_urho3_d_1_1_object.html" target="_top" xlink:title="Base class for objects with type identification, subsystem access and event sending/receiving capabil...">
<polygon fill="none" stroke="black" points="626,-746.5 626,-765.5 716,-765.5 716,-746.5 626,-746.5"/>
<text text-anchor="middle" x="671" y="-753.5" font-family="FreeSans" font-size="10.00">Urho3D::Object</text>
</a>
</g>
</g>
<!-- Node3&#45;&gt;Node2 -->
<g id="edge2" class="edge"><title>Node3&#45;&gt;Node2</title>
<path fill="none" stroke="midnightblue" d="M726.504,-755.254C786.393,-752.914 884.625,-744.545 964,-716 1000.92,-702.723 1038.71,-675.213 1057.26,-660.603"/>
<polygon fill="midnightblue" stroke="midnightblue" points="726.016,-751.769 716.143,-755.614 726.259,-758.765 726.016,-751.769"/>
</g>
<!-- Node4 -->
<g id="node4" class="node"><title>Node4</title>
<g id="a_node4"><a xlink:href="class_urho3_d_1_1_ref_counted.html" target="_top" xlink:title="Base class for intrusively reference&#45;counted objects. These are noncopyable and non&#45;assignable. ">
<polygon fill="none" stroke="black" points="188,-768.5 188,-787.5 302,-787.5 302,-768.5 188,-768.5"/>
<text text-anchor="middle" x="245" y="-775.5" font-family="FreeSans" font-size="10.00">Urho3D::RefCounted</text>
</a>
</g>
</g>
<!-- Node4&#45;&gt;Node3 -->
<g id="edge3" class="edge"><title>Node4&#45;&gt;Node3</title>
<path fill="none" stroke="midnightblue" d="M312.293,-779.983C380.598,-781.24 490.05,-781.066 584,-771 597.713,-769.531 612.544,-767.211 625.965,-764.83"/>
<polygon fill="midnightblue" stroke="midnightblue" points="312.175,-776.48 302.107,-779.779 312.035,-783.479 312.175,-776.48"/>
</g>
<!-- Node6 -->
<g id="node6" class="node"><title>Node6</title>
<g id="a_node6"><a xlink:href="class_urho3_d_1_1_context.html" target="_top" xlink:title="Urho3D execution context. Provides access to subsystems, object factories and attributes, and event receivers. ">
<polygon fill="none" stroke="red" points="364.5,-746.5 364.5,-765.5 461.5,-765.5 461.5,-746.5 364.5,-746.5"/>
<text text-anchor="middle" x="413" y="-753.5" font-family="FreeSans" font-size="10.00">Urho3D::Context</text>
</a>
</g>
</g>
<!-- Node4&#45;&gt;Node6 -->
<g id="edge6" class="edge"><title>Node4&#45;&gt;Node6</title>
<path fill="none" stroke="midnightblue" d="M312.321,-769.211C329.753,-766.9 348.208,-764.454 364.438,-762.303"/>
<polygon fill="midnightblue" stroke="midnightblue" points="311.653,-765.768 302.2,-770.552 312.573,-772.708 311.653,-765.768"/>
</g>
<!-- Node5 -->
<g id="node5" class="node"><title>Node5</title>
<g id="a_node5"><a xlink:href="struct_urho3_d_1_1_ref_count.html" target="_top" xlink:title="Reference count structure. ">
<polygon fill="none" stroke="black" points="0,-768.5 0,-787.5 102,-787.5 102,-768.5 0,-768.5"/>
<text text-anchor="middle" x="51" y="-775.5" font-family="FreeSans" font-size="10.00">Urho3D::RefCount</text>
</a>
</g>
</g>
<!-- Node5&#45;&gt;Node4 -->
<g id="edge4" class="edge"><title>Node5&#45;&gt;Node4</title>
<path fill="none" stroke="#9a32cd" stroke-dasharray="5,2" d="M112.534,-778C136.618,-778 164.167,-778 187.804,-778"/>
<polygon fill="#9a32cd" stroke="#9a32cd" points="112.446,-774.5 102.446,-778 112.446,-781.5 112.446,-774.5"/>
<text text-anchor="middle" x="145" y="-781" font-family="FreeSans" font-size="10.00"> refCount_</text>
</g>
<!-- Node6&#45;&gt;Node3 -->
<g id="edge5" class="edge"><title>Node6&#45;&gt;Node3</title>
<path fill="none" stroke="#9a32cd" stroke-dasharray="5,2" d="M471.808,-756C518.449,-756 583.091,-756 625.699,-756"/>
<polygon fill="#9a32cd" stroke="#9a32cd" points="471.552,-752.5 461.552,-756 471.552,-759.5 471.552,-752.5"/>
<text text-anchor="middle" x="544" y="-759" font-family="FreeSans" font-size="10.00"> context_</text>
</g>
<!-- Node7 -->
<g id="node7" class="node"><title>Node7</title>
<g id="a_node7"><a xlink:href="class_urho3_d_1_1_linked_list.html" target="_top" xlink:title="Urho3D::LinkedList\l\&lt; Urho3D::EventHandler \&gt;">
<polygon fill="none" stroke="red" points="340,-697 340,-727 486,-727 486,-697 340,-697"/>
<text text-anchor="start" x="348" y="-715" font-family="FreeSans" font-size="10.00">Urho3D::LinkedList</text>
<text text-anchor="middle" x="413" y="-704" font-family="FreeSans" font-size="10.00">&lt; Urho3D::EventHandler &gt;</text>
</a>
</g>
</g>
<!-- Node7&#45;&gt;Node3 -->
<g id="edge7" class="edge"><title>Node7&#45;&gt;Node3</title>
<path fill="none" stroke="#9a32cd" stroke-dasharray="5,2" d="M496.472,-726.005C524.28,-730.744 555.489,-736.082 584,-741 597.591,-743.345 612.387,-745.918 625.813,-748.261"/>
<polygon fill="#9a32cd" stroke="#9a32cd" points="496.838,-722.517 486.392,-724.288 495.662,-729.418 496.838,-722.517"/>
<text text-anchor="middle" x="544" y="-744" font-family="FreeSans" font-size="10.00"> eventHandlers_</text>
</g>
<!-- Node8 -->
<g id="node8" class="node"><title>Node8</title>
<g id="a_node8"><a xlink:href="class_urho3_d_1_1_timer.html" target="_top" xlink:title="Low&#45;resolution operating system timer. ">
<polygon fill="none" stroke="black" points="628,-708.5 628,-727.5 714,-727.5 714,-708.5 628,-708.5"/>
<text text-anchor="middle" x="671" y="-715.5" font-family="FreeSans" font-size="10.00">Urho3D::Timer</text>
</a>
</g>
</g>
<!-- Node8&#45;&gt;Node2 -->
<g id="edge8" class="edge"><title>Node8&#45;&gt;Node2</title>
<path fill="none" stroke="#9a32cd" stroke-dasharray="5,2" d="M724.009,-709.223C800.534,-696.308 942.567,-672.338 1018.32,-659.553"/>
<polygon fill="#9a32cd" stroke="#9a32cd" points="723.388,-705.778 714.11,-710.893 724.553,-712.68 723.388,-705.778"/>
<text text-anchor="middle" x="861" y="-704" font-family="FreeSans" font-size="10.00"> useTimer_</text>
</g>
<!-- Node9 -->
<g id="node9" class="node"><title>Node9</title>
<g id="a_node9"><a xlink:href="class_urho3_d_1_1_string.html" target="_top" xlink:title="String class. ">
<polygon fill="none" stroke="black" points="627,-641.5 627,-660.5 715,-660.5 715,-641.5 627,-641.5"/>
<text text-anchor="middle" x="671" y="-648.5" font-family="FreeSans" font-size="10.00">Urho3D::String</text>
</a>
</g>
</g>
<!-- Node9&#45;&gt;Node2 -->
<g id="edge9" class="edge"><title>Node9&#45;&gt;Node2</title>
<path fill="none" stroke="#9a32cd" stroke-dasharray="5,2" d="M725.658,-651C802.564,-651 943.131,-651 1018.34,-651"/>
<polygon fill="#9a32cd" stroke="#9a32cd" points="725.242,-647.5 715.242,-651 725.242,-654.5 725.242,-647.5"/>
<text text-anchor="middle" x="861" y="-654" font-family="FreeSans" font-size="10.00"> name_</text>
</g>
<!-- Node9&#45;&gt;Node9 -->
<g id="edge10" class="edge"><title>Node9&#45;&gt;Node9</title>
<path fill="none" stroke="#9a32cd" stroke-dasharray="5,2" d="M647.563,-670.029C648.841,-675.128 656.654,-679 671,-679 693.395,-679 699.868,-669.565 690.42,-660.757"/>
<polygon fill="#9a32cd" stroke="#9a32cd" points="650.816,-671.324 651.58,-660.757 644.393,-668.541 650.816,-671.324"/>
<text text-anchor="middle" x="671" y="-682" font-family="FreeSans" font-size="10.00"> EMPTY</text>
</g>
<!-- Node10 -->
<g id="node10" class="node"><title>Node10</title>
<g id="a_node10"><a xlink:href="class_urho3_d_1_1_string_hash.html" target="_top" xlink:title="32&#45;bit hash value for a string. ">
<polygon fill="none" stroke="black" points="614.5,-574.5 614.5,-593.5 727.5,-593.5 727.5,-574.5 614.5,-574.5"/>
<text text-anchor="middle" x="671" y="-581.5" font-family="FreeSans" font-size="10.00">Urho3D::StringHash</text>
</a>
</g>
</g>
<!-- Node10&#45;&gt;Node2 -->
<g id="edge11" class="edge"><title>Node10&#45;&gt;Node2</title>
<path fill="none" stroke="#9a32cd" stroke-dasharray="5,2" d="M737.922,-595.125C816.798,-608.437 947.123,-630.431 1018.47,-642.472"/>
<polygon fill="#9a32cd" stroke="#9a32cd" points="738.062,-591.6 727.619,-593.387 736.897,-598.502 738.062,-591.6"/>
<text text-anchor="middle" x="861" y="-636" font-family="FreeSans" font-size="10.00"> nameHash_</text>
</g>
<!-- Node10&#45;&gt;Node10 -->
<g id="edge12" class="edge"><title>Node10&#45;&gt;Node10</title>
<path fill="none" stroke="#9a32cd" stroke-dasharray="5,2" d="M647.563,-603.029C648.841,-608.128 656.654,-612 671,-612 693.395,-612 699.868,-602.565 690.42,-593.757"/>
<polygon fill="#9a32cd" stroke="#9a32cd" points="650.816,-604.324 651.58,-593.757 644.393,-601.541 650.816,-604.324"/>
<text text-anchor="middle" x="671" y="-615" font-family="FreeSans" font-size="10.00"> ZERO</text>
</g>
<!-- Node11 -->
<g id="node11" class="node"><title>Node11</title>
<g id="a_node11"><a xlink:href="class_urho3_d_1_1_skeleton.html" target="_top" xlink:title="Hierarchical collection of bones. ">
<polygon fill="none" stroke="black" points="1019.5,-566.5 1019.5,-585.5 1120.5,-585.5 1120.5,-566.5 1019.5,-566.5"/>
<text text-anchor="middle" x="1070" y="-573.5" font-family="FreeSans" font-size="10.00">Urho3D::Skeleton</text>
</a>
</g>
</g>
<!-- Node11&#45;&gt;Node1 -->
<g id="edge13" class="edge"><title>Node11&#45;&gt;Node1</title>
<path fill="none" stroke="#9a32cd" stroke-dasharray="5,2" d="M1131.07,-585.197C1177.03,-588.725 1239.26,-585.429 1280,-551 1341.81,-498.765 1342.74,-387.31 1341.52,-353.756"/>
<polygon fill="#9a32cd" stroke="#9a32cd" points="1131.21,-581.696 1120.93,-584.29 1130.58,-588.668 1131.21,-581.696"/>
<text text-anchor="middle" x="1228" y="-588" font-family="FreeSans" font-size="10.00"> skeleton_</text>
</g>
<!-- Node12 -->
<g id="node12" class="node"><title>Node12</title>
<g id="a_node12"><a xlink:href="class_urho3_d_1_1_vector.html" target="_top" xlink:title="Urho3D::Vector\&lt; Urho3D\l::Bone \&gt;">
<polygon fill="none" stroke="black" points="602,-525 602,-555 740,-555 740,-525 602,-525"/>
<text text-anchor="start" x="610" y="-543" font-family="FreeSans" font-size="10.00">Urho3D::Vector&lt; Urho3D</text>
<text text-anchor="middle" x="671" y="-532" font-family="FreeSans" font-size="10.00">::Bone &gt;</text>
</a>
</g>
</g>
<!-- Node12&#45;&gt;Node11 -->
<g id="edge14" class="edge"><title>Node12&#45;&gt;Node11</title>
<path fill="none" stroke="#9a32cd" stroke-dasharray="5,2" d="M750.256,-547.096C830.106,-554.337 951.612,-565.355 1019.21,-571.485"/>
<polygon fill="#9a32cd" stroke="#9a32cd" points="750.522,-543.606 740.247,-546.189 749.89,-550.578 750.522,-543.606"/>
<text text-anchor="middle" x="861" y="-569" font-family="FreeSans" font-size="10.00"> bones_</text>
</g>
<!-- Node13 -->
<g id="node13" class="node"><title>Node13</title>
<g id="a_node13"><a xlink:href="class_urho3_d_1_1_vector_base.html" target="_top" xlink:title="Vector base class. ">
<polygon fill="none" stroke="black" points="356,-334.5 356,-353.5 470,-353.5 470,-334.5 356,-334.5"/>
<text text-anchor="middle" x="413" y="-341.5" font-family="FreeSans" font-size="10.00">Urho3D::VectorBase</text>
</a>
</g>
</g>
<!-- Node13&#45;&gt;Node12 -->
<g id="edge15" class="edge"><title>Node13&#45;&gt;Node12</title>
<path fill="none" stroke="midnightblue" d="M418.74,-363.909C428.301,-399.426 453.433,-473.41 504,-510 531.997,-530.259 569.453,-538.215 601.7,-540.907"/>
<polygon fill="midnightblue" stroke="midnightblue" points="422.031,-362.652 416.17,-353.826 415.248,-364.38 422.031,-362.652"/>
</g>
<!-- Node14 -->
<g id="node14" class="node"><title>Node14</title>
<g id="a_node14"><a xlink:href="class_urho3_d_1_1_vector.html" target="_top" xlink:title="Urho3D::Vector\&lt; Urho3D\l::SharedPtr\&lt; Urho3D::IndexBuffer \&gt; \&gt;">
<polygon fill="none" stroke="black" points="760.5,-490 760.5,-520 961.5,-520 961.5,-490 760.5,-490"/>
<text text-anchor="start" x="768.5" y="-508" font-family="FreeSans" font-size="10.00">Urho3D::Vector&lt; Urho3D</text>
<text text-anchor="middle" x="861" y="-497" font-family="FreeSans" font-size="10.00">::SharedPtr&lt; Urho3D::IndexBuffer &gt; &gt;</text>
</a>
</g>
</g>
<!-- Node13&#45;&gt;Node14 -->
<g id="edge17" class="edge"><title>Node13&#45;&gt;Node14</title>
<path fill="none" stroke="midnightblue" d="M428.922,-361.32C445.534,-379.59 474.014,-408.032 504,-425 583.253,-469.846 685.751,-489.553 760.399,-498.212"/>
<polygon fill="midnightblue" stroke="midnightblue" points="431.423,-358.866 422.162,-353.72 426.193,-363.518 431.423,-358.866"/>
</g>
<!-- Node15 -->
<g id="node15" class="node"><title>Node15</title>
<g id="a_node15"><a xlink:href="class_urho3_d_1_1_vector.html" target="_top" xlink:title="Urho3D::Vector\&lt; Urho3D\l::PODVector\&lt; unsigned \&gt; \&gt;">
<polygon fill="none" stroke="black" points="785,-448 785,-478 937,-478 937,-448 785,-448"/>
<text text-anchor="start" x="793" y="-466" font-family="FreeSans" font-size="10.00">Urho3D::Vector&lt; Urho3D</text>
<text text-anchor="middle" x="861" y="-455" font-family="FreeSans" font-size="10.00">::PODVector&lt; unsigned &gt; &gt;</text>
</a>
</g>
</g>
<!-- Node13&#45;&gt;Node15 -->
<g id="edge19" class="edge"><title>Node13&#45;&gt;Node15</title>
<path fill="none" stroke="midnightblue" d="M435.387,-359.607C452.993,-371.753 479.029,-388.149 504,-398 596.634,-434.544 711.028,-450.753 784.728,-457.799"/>
<polygon fill="midnightblue" stroke="midnightblue" points="437.191,-356.596 427,-353.7 433.161,-362.32 437.191,-356.596"/>
</g>
<!-- Node16 -->
<g id="node16" class="node"><title>Node16</title>
<g id="a_node16"><a xlink:href="class_urho3_d_1_1_vector.html" target="_top" xlink:title="Urho3D::Vector\&lt; Urho3D\l::SharedPtr\&lt; Urho3D::VertexBuffer \&gt; \&gt;">
<polygon fill="none" stroke="black" points="758,-408 758,-438 964,-438 964,-408 758,-408"/>
<text text-anchor="start" x="766" y="-426" font-family="FreeSans" font-size="10.00">Urho3D::Vector&lt; Urho3D</text>
<text text-anchor="middle" x="861" y="-415" font-family="FreeSans" font-size="10.00">::SharedPtr&lt; Urho3D::VertexBuffer &gt; &gt;</text>
</a>
</g>
</g>
<!-- Node13&#45;&gt;Node16 -->
<g id="edge21" class="edge"><title>Node13&#45;&gt;Node16</title>
<path fill="none" stroke="midnightblue" d="M445.975,-357.221C462.953,-363.765 484.324,-371.259 504,-376 588.244,-396.298 685.959,-408.41 757.679,-415.241"/>
<polygon fill="midnightblue" stroke="midnightblue" points="447.12,-353.911 436.533,-353.506 444.557,-360.424 447.12,-353.911"/>
</g>
<!-- Node17 -->
<g id="node17" class="node"><title>Node17</title>
<g id="a_node17"><a xlink:href="class_urho3_d_1_1_vector.html" target="_top" xlink:title="Urho3D::Vector\&lt; Urho3D\l::IndexBufferDesc \&gt;">
<polygon fill="none" stroke="black" points="792,-369 792,-399 930,-399 930,-369 792,-369"/>
<text text-anchor="start" x="800" y="-387" font-family="FreeSans" font-size="10.00">Urho3D::Vector&lt; Urho3D</text>
<text text-anchor="middle" x="861" y="-376" font-family="FreeSans" font-size="10.00">::IndexBufferDesc &gt;</text>
</a>
</g>
</g>
<!-- Node13&#45;&gt;Node17 -->
<g id="edge23" class="edge"><title>Node13&#45;&gt;Node17</title>
<path fill="none" stroke="midnightblue" d="M480.163,-354.919C488.181,-356.057 496.267,-357.118 504,-358 603.898,-369.399 720.169,-376.793 791.931,-380.679"/>
<polygon fill="midnightblue" stroke="midnightblue" points="480.477,-351.428 470.076,-353.445 479.464,-358.355 480.477,-351.428"/>
</g>
<!-- Node18 -->
<g id="node18" class="node"><title>Node18</title>
<g id="a_node18"><a xlink:href="class_urho3_d_1_1_p_o_d_vector.html" target="_top" xlink:title="Urho3D::PODVector\&lt;\l Urho3D::Vector3 \&gt;">
<polygon fill="none" stroke="black" points="1010.5,-329 1010.5,-359 1129.5,-359 1129.5,-329 1010.5,-329"/>
<text text-anchor="start" x="1018.5" y="-347" font-family="FreeSans" font-size="10.00">Urho3D::PODVector&lt;</text>
<text text-anchor="middle" x="1070" y="-336" font-family="FreeSans" font-size="10.00"> Urho3D::Vector3 &gt;</text>
</a>
</g>
</g>
<!-- Node13&#45;&gt;Node18 -->
<g id="edge25" class="edge"><title>Node13&#45;&gt;Node18</title>
<path fill="none" stroke="midnightblue" d="M480.192,-344C608.249,-344 888.015,-344 1010.08,-344"/>
<polygon fill="midnightblue" stroke="midnightblue" points="480.128,-340.5 470.128,-344 480.128,-347.5 480.128,-340.5"/>
</g>
<!-- Node19 -->
<g id="node19" class="node"><title>Node19</title>
<g id="a_node19"><a xlink:href="class_urho3_d_1_1_vector.html" target="_top" xlink:title="Urho3D::Vector\&lt; Urho3D\l::Vector\&lt; Urho3D::SharedPtr\l\&lt; Urho3D::Geometry \&gt; \&gt; \&gt;">
<polygon fill="none" stroke="black" points="783.5,-284.5 783.5,-325.5 938.5,-325.5 938.5,-284.5 783.5,-284.5"/>
<text text-anchor="start" x="791.5" y="-313.5" font-family="FreeSans" font-size="10.00">Urho3D::Vector&lt; Urho3D</text>
<text text-anchor="start" x="791.5" y="-302.5" font-family="FreeSans" font-size="10.00">::Vector&lt; Urho3D::SharedPtr</text>
<text text-anchor="middle" x="861" y="-291.5" font-family="FreeSans" font-size="10.00">&lt; Urho3D::Geometry &gt; &gt; &gt;</text>
</a>
</g>
</g>
<!-- Node13&#45;&gt;Node19 -->
<g id="edge27" class="edge"><title>Node13&#45;&gt;Node19</title>
<path fill="none" stroke="midnightblue" d="M480.161,-333.059C488.179,-331.925 496.266,-330.872 504,-330 600.046,-319.177 711.232,-312.261 783.441,-308.509"/>
<polygon fill="midnightblue" stroke="midnightblue" points="479.463,-329.624 470.073,-334.531 480.474,-336.551 479.463,-329.624"/>
</g>
<!-- Node22 -->
<g id="node22" class="node"><title>Node22</title>
<g id="a_node22"><a xlink:href="class_urho3_d_1_1_p_o_d_vector.html" target="_top" xlink:title="Urho3D::PODVector\&lt;\l unsigned \&gt;">
<polygon fill="none" stroke="black" points="1010.5,-232 1010.5,-262 1129.5,-262 1129.5,-232 1010.5,-232"/>
<text text-anchor="start" x="1018.5" y="-250" font-family="FreeSans" font-size="10.00">Urho3D::PODVector&lt;</text>
<text text-anchor="middle" x="1070" y="-239" font-family="FreeSans" font-size="10.00"> unsigned &gt;</text>
</a>
</g>
</g>
<!-- Node13&#45;&gt;Node22 -->
<g id="edge32" class="edge"><title>Node13&#45;&gt;Node22</title>
<path fill="none" stroke="midnightblue" d="M454.341,-331.623C469.771,-327.199 487.599,-322.458 504,-319 686.627,-280.494 907.095,-259.629 1010.32,-251.324"/>
<polygon fill="midnightblue" stroke="midnightblue" points="453.207,-328.308 444.587,-334.468 455.167,-335.028 453.207,-328.308"/>
</g>
<!-- Node23 -->
<g id="node23" class="node"><title>Node23</title>
<g id="a_node23"><a xlink:href="class_urho3_d_1_1_vector.html" target="_top" xlink:title="Urho3D::Vector\&lt; Urho3D\l::ModelMorph \&gt;">
<polygon fill="none" stroke="black" points="792,-212 792,-242 930,-242 930,-212 792,-212"/>
<text text-anchor="start" x="800" y="-230" font-family="FreeSans" font-size="10.00">Urho3D::Vector&lt; Urho3D</text>
<text text-anchor="middle" x="861" y="-219" font-family="FreeSans" font-size="10.00">::ModelMorph &gt;</text>
</a>
</g>
</g>
<!-- Node13&#45;&gt;Node23 -->
<g id="edge34" class="edge"><title>Node13&#45;&gt;Node23</title>
<path fill="none" stroke="midnightblue" d="M425.892,-325.939C441.13,-304.521 469.716,-269.746 504,-254 596.798,-211.38 717.596,-212.434 791.923,-218.601"/>
<polygon fill="midnightblue" stroke="midnightblue" points="422.811,-324.242 420.028,-334.465 428.579,-328.208 422.811,-324.242"/>
</g>
<!-- Node24 -->
<g id="node24" class="node"><title>Node24</title>
<g id="a_node24"><a xlink:href="class_urho3_d_1_1_vector.html" target="_top" xlink:title="Urho3D::Vector\&lt; Urho3D\l::PODVector\&lt; Urho3D::Geometry\lDesc \&gt; \&gt;">
<polygon fill="none" stroke="black" points="982,-124.5 982,-165.5 1158,-165.5 1158,-124.5 982,-124.5"/>
<text text-anchor="start" x="990" y="-153.5" font-family="FreeSans" font-size="10.00">Urho3D::Vector&lt; Urho3D</text>
<text text-anchor="start" x="990" y="-142.5" font-family="FreeSans" font-size="10.00">::PODVector&lt; Urho3D::Geometry</text>
<text text-anchor="middle" x="1070" y="-131.5" font-family="FreeSans" font-size="10.00">Desc &gt; &gt;</text>
</a>
</g>
</g>
<!-- Node13&#45;&gt;Node24 -->
<g id="edge36" class="edge"><title>Node13&#45;&gt;Node24</title>
<path fill="none" stroke="midnightblue" d="M422.461,-325.018C435.646,-297.876 463.817,-248.65 504,-225 583.135,-178.424 843.922,-157.353 981.79,-149.272"/>
<polygon fill="midnightblue" stroke="midnightblue" points="419.215,-323.699 418.148,-334.24 425.555,-326.664 419.215,-323.699"/>
</g>
<!-- Node25 -->
<g id="node25" class="node"><title>Node25</title>
<g id="a_node25"><a xlink:href="class_urho3_d_1_1_vector.html" target="_top" xlink:title="Urho3D::Vector\&lt; Urho3D\l::VertexBufferDesc \&gt;">
<polygon fill="none" stroke="black" points="792,-110 792,-140 930,-140 930,-110 792,-110"/>
<text text-anchor="start" x="800" y="-128" font-family="FreeSans" font-size="10.00">Urho3D::Vector&lt; Urho3D</text>
<text text-anchor="middle" x="861" y="-117" font-family="FreeSans" font-size="10.00">::VertexBufferDesc &gt;</text>
</a>
</g>
</g>
<!-- Node13&#45;&gt;Node25 -->
<g id="edge38" class="edge"><title>Node13&#45;&gt;Node25</title>
<path fill="none" stroke="midnightblue" d="M418.629,-323.935C428.013,-288.17 452.872,-213.802 504,-178 527.129,-161.804 695.068,-142.057 791.799,-131.848"/>
<polygon fill="midnightblue" stroke="midnightblue" points="415.12,-323.545 416.113,-334.093 421.915,-325.229 415.12,-323.545"/>
</g>
<!-- Node14&#45;&gt;Node1 -->
<g id="edge16" class="edge"><title>Node14&#45;&gt;Node1</title>
<path fill="none" stroke="#9a32cd" stroke-dasharray="5,2" d="M971.727,-517.515C1063.9,-521.888 1193.98,-512.9 1280,-443 1310.71,-418.047 1330.15,-373.271 1337.58,-353.653"/>
<polygon fill="#9a32cd" stroke="#9a32cd" points="971.698,-514.009 961.525,-516.97 971.324,-520.999 971.698,-514.009"/>
<text text-anchor="middle" x="1070" y="-522" font-family="FreeSans" font-size="10.00"> indexBuffers_</text>
</g>
<!-- Node15&#45;&gt;Node1 -->
<g id="edge18" class="edge"><title>Node15&#45;&gt;Node1</title>
<path fill="none" stroke="#9a32cd" stroke-dasharray="5,2" d="M947.267,-470.673C1036.52,-474.607 1177.64,-468.909 1280,-408 1303.74,-393.871 1324.26,-367.97 1334.34,-353.837"/>
<polygon fill="#9a32cd" stroke="#9a32cd" points="947.344,-467.173 937.185,-470.178 947.001,-474.165 947.344,-467.173"/>
<text text-anchor="middle" x="1070" y="-475" font-family="FreeSans" font-size="10.00"> geometryBoneMappings_</text>
</g>
<!-- Node16&#45;&gt;Node1 -->
<g id="edge20" class="edge"><title>Node16&#45;&gt;Node1</title>
<path fill="none" stroke="#9a32cd" stroke-dasharray="5,2" d="M974.2,-425.632C1060.2,-424.311 1180.59,-415.144 1280,-380 1297.85,-373.688 1316.3,-361.942 1328.17,-353.585"/>
<polygon fill="#9a32cd" stroke="#9a32cd" points="974.108,-422.132 964.15,-425.753 974.192,-429.132 974.108,-422.132"/>
<text text-anchor="middle" x="1070" y="-429" font-family="FreeSans" font-size="10.00"> vertexBuffers_</text>
</g>
<!-- Node17&#45;&gt;Node1 -->
<g id="edge22" class="edge"><title>Node17&#45;&gt;Node1</title>
<path fill="none" stroke="#9a32cd" stroke-dasharray="5,2" d="M940.148,-383.866C1024.49,-382.666 1162.53,-377.641 1280,-359 1288.72,-357.616 1298.03,-355.605 1306.69,-353.504"/>
<polygon fill="#9a32cd" stroke="#9a32cd" points="940.087,-380.366 930.133,-383.994 940.177,-387.365 940.087,-380.366"/>
<text text-anchor="middle" x="1070" y="-386" font-family="FreeSans" font-size="10.00"> loadIBData_</text>
</g>
<!-- Node18&#45;&gt;Node1 -->
<g id="edge24" class="edge"><title>Node18&#45;&gt;Node1</title>
<path fill="none" stroke="#9a32cd" stroke-dasharray="5,2" d="M1139.62,-344C1189.3,-344 1254.97,-344 1297.59,-344"/>
<polygon fill="#9a32cd" stroke="#9a32cd" points="1139.59,-340.5 1129.59,-344 1139.59,-347.5 1139.59,-340.5"/>
<text text-anchor="middle" x="1228" y="-347" font-family="FreeSans" font-size="10.00"> geometryCenters_</text>
</g>
<!-- Node19&#45;&gt;Node1 -->
<g id="edge26" class="edge"><title>Node19&#45;&gt;Node1</title>
<path fill="none" stroke="#9a32cd" stroke-dasharray="5,2" d="M948.618,-301.695C1007.76,-300.462 1087.8,-300.802 1158,-308 1208.73,-313.202 1266.31,-325.63 1303.1,-334.423"/>
<polygon fill="#9a32cd" stroke="#9a32cd" points="948.488,-298.196 938.57,-301.923 948.647,-305.195 948.488,-298.196"/>
<text text-anchor="middle" x="1070" y="-311" font-family="FreeSans" font-size="10.00"> geometries_</text>
</g>
<!-- Node20 -->
<g id="node20" class="node"><title>Node20</title>
<g id="a_node20"><a xlink:href="class_urho3_d_1_1_bounding_box.html" target="_top" xlink:title="Three&#45;dimensional axis&#45;aligned bounding box. ">
<polygon fill="none" stroke="black" points="1009,-29.5 1009,-48.5 1131,-48.5 1131,-29.5 1009,-29.5"/>
<text text-anchor="middle" x="1070" y="-36.5" font-family="FreeSans" font-size="10.00">Urho3D::BoundingBox</text>
</a>
</g>
</g>
<!-- Node20&#45;&gt;Node1 -->
<g id="edge28" class="edge"><title>Node20&#45;&gt;Node1</title>
<path fill="none" stroke="#9a32cd" stroke-dasharray="5,2" d="M1141.45,-30.6511C1186.61,-29.3692 1243.43,-35.9636 1280,-70 1320.05,-107.268 1336.77,-289.89 1340.28,-334.268"/>
<polygon fill="#9a32cd" stroke="#9a32cd" points="1141.26,-27.1558 1131.41,-31.0686 1141.55,-34.1497 1141.26,-27.1558"/>
<text text-anchor="middle" x="1228" y="-73" font-family="FreeSans" font-size="10.00"> boundingBox_</text>
</g>
<!-- Node21 -->
<g id="node21" class="node"><title>Node21</title>
<g id="a_node21"><a xlink:href="class_urho3_d_1_1_vector3.html" target="_top" xlink:title="Three&#45;dimensional vector. ">
<polygon fill="none" stroke="black" points="623,-0.5 623,-19.5 719,-19.5 719,-0.5 623,-0.5"/>
<text text-anchor="middle" x="671" y="-7.5" font-family="FreeSans" font-size="10.00">Urho3D::Vector3</text>
</a>
</g>
</g>
<!-- Node21&#45;&gt;Node20 -->
<g id="edge29" class="edge"><title>Node21&#45;&gt;Node20</title>
<path fill="none" stroke="#9a32cd" stroke-dasharray="5,2" d="M729.217,-14.1795C803.574,-19.6112 932.844,-29.0541 1008.69,-34.5944"/>
<polygon fill="#9a32cd" stroke="#9a32cd" points="729.329,-10.6785 719.1,-13.4406 728.819,-17.6599 729.329,-10.6785"/>
<text text-anchor="middle" x="861" y="-46" font-family="FreeSans" font-size="10.00"> max_</text>
<text text-anchor="middle" x="861" y="-35" font-family="FreeSans" font-size="10.00">min_</text>
</g>
<!-- Node21&#45;&gt;Node21 -->
<g id="edge30" class="edge"><title>Node21&#45;&gt;Node21</title>
<path fill="none" stroke="#9a32cd" stroke-dasharray="5,2" d="M647.563,-29.0292C648.841,-34.128 656.654,-38 671,-38 693.395,-38 699.868,-28.5653 690.42,-19.7571"/>
<polygon fill="#9a32cd" stroke="#9a32cd" points="650.816,-30.3243 651.58,-19.7571 644.393,-27.5415 650.816,-30.3243"/>
<text text-anchor="middle" x="671" y="-118" font-family="FreeSans" font-size="10.00"> ONE</text>
<text text-anchor="middle" x="671" y="-107" font-family="FreeSans" font-size="10.00">DOWN</text>
<text text-anchor="middle" x="671" y="-96" font-family="FreeSans" font-size="10.00">BACK</text>
<text text-anchor="middle" x="671" y="-85" font-family="FreeSans" font-size="10.00">RIGHT</text>
<text text-anchor="middle" x="671" y="-74" font-family="FreeSans" font-size="10.00">LEFT</text>
<text text-anchor="middle" x="671" y="-63" font-family="FreeSans" font-size="10.00">ZERO</text>
<text text-anchor="middle" x="671" y="-52" font-family="FreeSans" font-size="10.00">FORWARD</text>
<text text-anchor="middle" x="671" y="-41" font-family="FreeSans" font-size="10.00">UP</text>
</g>
<!-- Node22&#45;&gt;Node1 -->
<g id="edge31" class="edge"><title>Node22&#45;&gt;Node1</title>
<path fill="none" stroke="#9a32cd" stroke-dasharray="5,2" d="M1139.68,-238.451C1182.53,-236.332 1237.45,-239.705 1280,-263 1309.65,-279.23 1329.14,-316.678 1337.03,-334.387"/>
<polygon fill="#9a32cd" stroke="#9a32cd" points="1139.38,-234.962 1129.61,-239.059 1139.81,-241.949 1139.38,-234.962"/>
<text text-anchor="middle" x="1228" y="-277" font-family="FreeSans" font-size="10.00"> morphRangeCounts_</text>
<text text-anchor="middle" x="1228" y="-266" font-family="FreeSans" font-size="10.00">morphRangeStarts_</text>
</g>
<!-- Node23&#45;&gt;Node1 -->
<g id="edge33" class="edge"><title>Node23&#45;&gt;Node1</title>
<path fill="none" stroke="#9a32cd" stroke-dasharray="5,2" d="M940.099,-215.064C954.022,-213.371 968.415,-211.902 982,-211 1114.58,-202.2 1172.43,-156.996 1280,-235 1315.11,-260.461 1332.59,-312.668 1338.56,-334.29"/>
<polygon fill="#9a32cd" stroke="#9a32cd" points="939.546,-211.606 930.063,-216.331 940.423,-218.551 939.546,-211.606"/>
<text text-anchor="middle" x="1070" y="-214" font-family="FreeSans" font-size="10.00"> morphs_</text>
</g>
<!-- Node24&#45;&gt;Node1 -->
<g id="edge35" class="edge"><title>Node24&#45;&gt;Node1</title>
<path fill="none" stroke="#9a32cd" stroke-dasharray="5,2" d="M1168.46,-139.491C1206.91,-142.162 1249.17,-151.752 1280,-177 1330.39,-218.269 1339.15,-304.958 1340.68,-334.159"/>
<polygon fill="#9a32cd" stroke="#9a32cd" points="1168.42,-135.984 1158.25,-138.934 1168.04,-142.973 1168.42,-135.984"/>
<text text-anchor="middle" x="1228" y="-180" font-family="FreeSans" font-size="10.00"> loadGeometries_</text>
</g>
<!-- Node25&#45;&gt;Node1 -->
<g id="edge37" class="edge"><title>Node25&#45;&gt;Node1</title>
<path fill="none" stroke="#9a32cd" stroke-dasharray="5,2" d="M913.879,-106.976C1002.35,-79.9141 1182.31,-41.4774 1280,-137 1337.59,-193.316 1341.47,-301.044 1341.24,-334.106"/>
<polygon fill="#9a32cd" stroke="#9a32cd" points="912.823,-103.639 904.323,-109.964 914.912,-110.32 912.823,-103.639"/>
<text text-anchor="middle" x="1070" y="-92" font-family="FreeSans" font-size="10.00"> loadVBData_</text>
</g>
</g>
</svg>
