<?xml version="1.0" encoding="UTF-8" standalone="no"?>
<!DOCTYPE svg PUBLIC "-//W3C//DTD SVG 1.1//EN"
 "http://www.w3.org/Graphics/SVG/1.1/DTD/svg11.dtd">
<!-- Generated by graphviz version 2.40.1 (20161225.0304)
 -->
<!-- Title: Urho3D::Database Pages: 1 -->
<!--zoomable 883 -->
<svg id="main" version="1.1" xmlns="http://www.w3.org/2000/svg" xmlns:xlink="http://www.w3.org/1999/xlink" xml:space="preserve" onload="init(evt)">
<style type="text/css"><![CDATA[
.edge:hover path { stroke: red; }
.edge:hover polygon { stroke: red; fill: red; }
]]></style>
<script type="text/javascript"><![CDATA[
var edges = document.getElementsByTagName('g');
if (edges && edges.length) {
  for (var i=0;i<edges.length;i++) {
    if (edges[i].id.substr(0,4)=='edge') {
      edges[i].setAttribute('class','edge');
    }
  }
}
]]></script>
        <defs>
                <circle id="rim" cx="0" cy="0" r="7"/>
                <circle id="rim2" cx="0" cy="0" r="3.5"/>
                <g id="zoomPlus">
                        <use xlink:href="#rim" fill="#404040">
                                <set attributeName="fill" to="#808080" begin="zoomplus.mouseover" end="zoomplus.mouseout"/>
                        </use>
                        <path d="M-4,0h8M0,-4v8" fill="none" stroke="white" stroke-width="1.5" pointer-events="none"/>
                </g>
                <g id="zoomMin">
                        <use xlink:href="#rim" fill="#404040">
                                <set attributeName="fill" to="#808080" begin="zoomminus.mouseover" end="zoomminus.mouseout"/>
                        </use>
                        <path d="M-4,0h8" fill="none" stroke="white" stroke-width="1.5" pointer-events="none"/>
                </g>
                <g id="dirArrow">
                        <path fill="none" stroke="white" stroke-width="1.5" d="M0,-3.0v7 M-2.5,-0.5L0,-3.0L2.5,-0.5"/>
                </g>
               <g id="resetDef">
                       <use xlink:href="#rim2" fill="#404040">
                               <set attributeName="fill" to="#808080" begin="reset.mouseover" end="reset.mouseout"/>
                       </use>
               </g>
        </defs>

<script type="text/javascript">
var viewWidth = 1236;
var viewHeight = 883;
var sectionId = 'dynsection-1';
</script>
<script xlink:href="svgpan.js"/>
<svg id="graph" class="graph">
<g id="viewport">
<title>Urho3D::Database</title>
<!-- Node3 -->
<g id="node1" class="node">
<title>Node3</title>
<polygon fill="#bfbfbf" stroke="#000000" points="1101,-777.5 1101,-796.5 1207,-796.5 1207,-777.5 1101,-777.5"/>
<text text-anchor="middle" x="1154" y="-784.5" font-family="Helvetica,sans-Serif" font-size="10.00" fill="#000000">Urho3D::Database</text>
</g>
<!-- Node4 -->
<g id="node2" class="node">
<title>Node4</title>
<g id="a_node2"><a xlink:href="class_urho3_d_1_1_object.html" target="_top" xlink:title="Base class for objects with type identification, subsystem access and event sending/receiving capabil...">
<polygon fill="none" stroke="#000000" points="458.5,-803.5 458.5,-822.5 549.5,-822.5 549.5,-803.5 458.5,-803.5"/>
<text text-anchor="middle" x="504" y="-810.5" font-family="Helvetica,sans-Serif" font-size="10.00" fill="#000000">Urho3D::Object</text>
</a>
</g>
</g>
<!-- Node4&#45;&gt;Node3 -->
<g id="edge1" class="edge">
<title>Node4&#45;&gt;Node3</title>
<path fill="none" stroke="#191970" d="M559.8818,-813.5286C660.4745,-814.0501 878.6397,-813.2193 1062,-799 1074.5263,-798.0286 1087.9601,-796.5351 1100.5856,-794.9279"/>
<polygon fill="#191970" stroke="#191970" points="559.6709,-810.0274 549.6506,-813.4686 559.6299,-817.0272 559.6709,-810.0274"/>
</g>
<!-- Node14 -->
<g id="node12" class="node">
<title>Node14</title>
<g id="a_node12"><a xlink:href="class_urho3_d_1_1_event_handler.html" target="_top" xlink:title="Internal helper class for invoking event handler functions. ">
<polygon fill="none" stroke="#000000" points="732,-691.5 732,-710.5 857,-710.5 857,-691.5 732,-691.5"/>
<text text-anchor="middle" x="794.5" y="-698.5" font-family="Helvetica,sans-Serif" font-size="10.00" fill="#000000">Urho3D::EventHandler</text>
</a>
</g>
</g>
<!-- Node4&#45;&gt;Node14 -->
<g id="edge19" class="edge">
<title>Node4&#45;&gt;Node14</title>
<path fill="none" stroke="#9a32cd" stroke-dasharray="5,2" d="M559.0896,-802.5244C563.4476,-800.2155 567.506,-797.4091 571,-794 590.3185,-775.1509 568.6956,-753.7827 589,-736 609.8615,-717.7293 679.3895,-708.7909 731.8413,-704.559"/>
<polygon fill="#9a32cd" stroke="#9a32cd" points="557.5581,-799.3743 549.8087,-806.5991 560.3721,-805.7838 557.5581,-799.3743"/>
<text text-anchor="middle" x="618.5" y="-750" font-family="Helvetica,sans-Serif" font-size="10.00" fill="#000000"> sender_</text>
<text text-anchor="middle" x="618.5" y="-739" font-family="Helvetica,sans-Serif" font-size="10.00" fill="#000000">receiver_</text>
</g>
<!-- Node5 -->
<g id="node3" class="node">
<title>Node5</title>
<g id="a_node3"><a xlink:href="class_urho3_d_1_1_ref_counted.html" target="_top" xlink:title="Base class for intrusively reference&#45;counted objects. These are noncopyable and non&#45;assignable. ">
<polygon fill="none" stroke="#000000" points="224,-680.5 224,-699.5 340,-699.5 340,-680.5 224,-680.5"/>
<text text-anchor="middle" x="282" y="-687.5" font-family="Helvetica,sans-Serif" font-size="10.00" fill="#000000">Urho3D::RefCounted</text>
</a>
</g>
</g>
<!-- Node5&#45;&gt;Node4 -->
<g id="edge2" class="edge">
<title>Node5&#45;&gt;Node4</title>
<path fill="none" stroke="#191970" d="M301.5687,-706.1287C329.8419,-728.7068 384.5007,-769.6903 437,-794 445.0092,-797.7086 453.8987,-800.8471 462.5152,-803.4391"/>
<polygon fill="#191970" stroke="#191970" points="303.6516,-703.312 293.6729,-699.7515 299.2532,-708.7577 303.6516,-703.312"/>
</g>
<!-- Node7 -->
<g id="node5" class="node">
<title>Node7</title>
<g id="a_node5"><a xlink:href="class_urho3_d_1_1_context.html" target="_top" xlink:title="Urho3D execution context. Provides access to subsystems, object factories and attributes, and event receivers. ">
<polygon fill="none" stroke="#000000" points="1105,-360.5 1105,-379.5 1203,-379.5 1203,-360.5 1105,-360.5"/>
<text text-anchor="middle" x="1154" y="-367.5" font-family="Helvetica,sans-Serif" font-size="10.00" fill="#000000">Urho3D::Context</text>
</a>
</g>
</g>
<!-- Node5&#45;&gt;Node7 -->
<g id="edge5" class="edge">
<title>Node5&#45;&gt;Node7</title>
<path fill="none" stroke="#191970" d="M332.0825,-678.2996C362.2933,-671.7447 401.6519,-664.0877 437,-660 651.734,-635.168 717.4288,-707.8415 923,-641 993.6872,-618.016 1012.4822,-603.434 1062,-548 1110.6661,-493.5195 1141.3973,-408.6426 1150.8701,-379.899"/>
<polygon fill="#191970" stroke="#191970" points="331.2206,-674.9055 322.2069,-680.4736 332.7255,-681.7418 331.2206,-674.9055"/>
</g>
<!-- Node6 -->
<g id="node4" class="node">
<title>Node6</title>
<g id="a_node4"><a xlink:href="struct_urho3_d_1_1_ref_count.html" target="_top" xlink:title="Reference count structure. ">
<polygon fill="none" stroke="#000000" points="12,-680.5 12,-699.5 116,-699.5 116,-680.5 12,-680.5"/>
<text text-anchor="middle" x="64" y="-687.5" font-family="Helvetica,sans-Serif" font-size="10.00" fill="#000000">Urho3D::RefCount</text>
</a>
</g>
</g>
<!-- Node6&#45;&gt;Node5 -->
<g id="edge3" class="edge">
<title>Node6&#45;&gt;Node5</title>
<path fill="none" stroke="#9a32cd" stroke-dasharray="5,2" d="M126.3486,-690C156.9635,-690 193.6303,-690 223.6841,-690"/>
<polygon fill="#9a32cd" stroke="#9a32cd" points="126.2165,-686.5001 116.2164,-690 126.2164,-693.5001 126.2165,-686.5001"/>
<text text-anchor="middle" x="171.5" y="-693" font-family="Helvetica,sans-Serif" font-size="10.00" fill="#000000"> refCount_</text>
</g>
<!-- Node7&#45;&gt;Node4 -->
<g id="edge4" class="edge">
<title>Node7&#45;&gt;Node4</title>
<path fill="none" stroke="#9a32cd" stroke-dasharray="5,2" d="M1151.2995,-390.0494C1142.0621,-455.6067 1109.6412,-661.9284 1062,-706 1052.4737,-714.8125 681.3383,-781.4775 549.7122,-804.8964"/>
<polygon fill="#9a32cd" stroke="#9a32cd" points="1154.8099,-390.2136 1152.7109,-379.8288 1147.8757,-389.256 1154.8099,-390.2136"/>
<text text-anchor="middle" x="794.5" y="-787" font-family="Helvetica,sans-Serif" font-size="10.00" fill="#000000"> context_</text>
</g>
<!-- Node8 -->
<g id="node6" class="node">
<title>Node8</title>
<g id="a_node6"><a xlink:href="class_urho3_d_1_1_hash_map.html" target="_top" xlink:title="Urho3D::HashMap\&lt; Urho3D\l::Object *, Urho3D::HashMap\l\&lt; Urho3D::StringHash, Urho3D\l::SharedPtr\&lt; Urho3D::EventReceiverGroup \&gt; \&gt; \&gt;">
<polygon fill="none" stroke="#000000" points="666,-252 666,-304 923,-304 923,-252 666,-252"/>
<text text-anchor="start" x="674" y="-292" font-family="Helvetica,sans-Serif" font-size="10.00" fill="#000000">Urho3D::HashMap&lt; Urho3D</text>
<text text-anchor="start" x="674" y="-281" font-family="Helvetica,sans-Serif" font-size="10.00" fill="#000000">::Object *, Urho3D::HashMap</text>
<text text-anchor="start" x="674" y="-270" font-family="Helvetica,sans-Serif" font-size="10.00" fill="#000000">&lt; Urho3D::StringHash, Urho3D</text>
<text text-anchor="middle" x="794.5" y="-259" font-family="Helvetica,sans-Serif" font-size="10.00" fill="#000000">::SharedPtr&lt; Urho3D::EventReceiverGroup &gt; &gt; &gt;</text>
</a>
</g>
</g>
<!-- Node8&#45;&gt;Node7 -->
<g id="edge6" class="edge">
<title>Node8&#45;&gt;Node7</title>
<path fill="none" stroke="#9a32cd" stroke-dasharray="5,2" d="M933.1818,-305.0732C974.8718,-314.1537 1020.5422,-325.0453 1062,-337 1085.4782,-343.7702 1111.6528,-353.3653 1130.0617,-360.4652"/>
<polygon fill="#9a32cd" stroke="#9a32cd" points="933.7497,-301.6152 923.2361,-302.9246 932.2715,-308.4574 933.7497,-301.6152"/>
<text text-anchor="middle" x="1001.5" y="-340" font-family="Helvetica,sans-Serif" font-size="10.00" fill="#000000"> specificEventReceivers_</text>
</g>
<!-- Node9 -->
<g id="node7" class="node">
<title>Node9</title>
<g id="a_node7"><a xlink:href="class_urho3_d_1_1_hash_base.html" target="_top" xlink:title="Hash set/map base class. ">
<polygon fill="none" stroke="#000000" points="450,-246.5 450,-265.5 558,-265.5 558,-246.5 450,-246.5"/>
<text text-anchor="middle" x="504" y="-253.5" font-family="Helvetica,sans-Serif" font-size="10.00" fill="#000000">Urho3D::HashBase</text>
</a>
</g>
</g>
<!-- Node9&#45;&gt;Node8 -->
<g id="edge7" class="edge">
<title>Node9&#45;&gt;Node8</title>
<path fill="none" stroke="#191970" d="M568.574,-260.8903C597.2519,-263.0621 632.0748,-265.6993 665.7056,-268.2462"/>
<polygon fill="#191970" stroke="#191970" points="568.5358,-257.3775 558.3,-260.1122 568.0072,-264.3575 568.5358,-257.3775"/>
</g>
<!-- Node13 -->
<g id="node11" class="node">
<title>Node13</title>
<g id="a_node11"><a xlink:href="class_urho3_d_1_1_hash_map.html" target="_top" xlink:title="Urho3D::HashMap\&lt; Urho3D\l::StringHash, Urho3D::\lSharedPtr\&lt; Urho3D::EventReceiver\lGroup \&gt; \&gt;">
<polygon fill="none" stroke="#000000" points="700.5,-181 700.5,-233 888.5,-233 888.5,-181 700.5,-181"/>
<text text-anchor="start" x="708.5" y="-221" font-family="Helvetica,sans-Serif" font-size="10.00" fill="#000000">Urho3D::HashMap&lt; Urho3D</text>
<text text-anchor="start" x="708.5" y="-210" font-family="Helvetica,sans-Serif" font-size="10.00" fill="#000000">::StringHash, Urho3D::</text>
<text text-anchor="start" x="708.5" y="-199" font-family="Helvetica,sans-Serif" font-size="10.00" fill="#000000">SharedPtr&lt; Urho3D::EventReceiver</text>
<text text-anchor="middle" x="794.5" y="-188" font-family="Helvetica,sans-Serif" font-size="10.00" fill="#000000">Group &gt; &gt;</text>
</a>
</g>
</g>
<!-- Node9&#45;&gt;Node13 -->
<g id="edge15" class="edge">
<title>Node9&#45;&gt;Node13</title>
<path fill="none" stroke="#191970" d="M568.417,-245.1345C607.212,-238.5908 657.2944,-230.1431 700.458,-222.8625"/>
<polygon fill="#191970" stroke="#191970" points="567.5786,-241.7264 558.3,-246.841 568.7429,-248.6289 567.5786,-241.7264"/>
</g>
<!-- Node19 -->
<g id="node17" class="node">
<title>Node19</title>
<g id="a_node17"><a xlink:href="class_urho3_d_1_1_hash_map.html" target="_top" xlink:title="Urho3D::HashMap\&lt; StringHash,\l Variant \&gt;">
<polygon fill="none" stroke="#000000" points="708.5,-323 708.5,-353 880.5,-353 880.5,-323 708.5,-323"/>
<text text-anchor="start" x="716.5" y="-341" font-family="Helvetica,sans-Serif" font-size="10.00" fill="#000000">Urho3D::HashMap&lt; StringHash,</text>
<text text-anchor="middle" x="794.5" y="-330" font-family="Helvetica,sans-Serif" font-size="10.00" fill="#000000"> Variant &gt;</text>
</a>
</g>
</g>
<!-- Node9&#45;&gt;Node19 -->
<g id="edge25" class="edge">
<title>Node9&#45;&gt;Node19</title>
<path fill="none" stroke="#191970" d="M536.9722,-269.2013C569.3943,-281.7995 620.499,-300.6402 666,-313 679.5982,-316.6938 694.1469,-320.0648 708.3881,-323.0526"/>
<polygon fill="#191970" stroke="#191970" points="538.1246,-265.8939 527.5369,-265.5061 535.5719,-272.4118 538.1246,-265.8939"/>
</g>
<!-- Node20 -->
<g id="node18" class="node">
<title>Node20</title>
<g id="a_node18"><a xlink:href="class_urho3_d_1_1_hash_map.html" target="_top" xlink:title="Urho3D::HashMap\&lt; Urho3D\l::StringHash, Urho3D::\lSharedPtr\&lt; Urho3D::Object \&gt; \&gt;">
<polygon fill="none" stroke="#000000" points="708.5,-120.5 708.5,-161.5 880.5,-161.5 880.5,-120.5 708.5,-120.5"/>
<text text-anchor="start" x="716.5" y="-149.5" font-family="Helvetica,sans-Serif" font-size="10.00" fill="#000000">Urho3D::HashMap&lt; Urho3D</text>
<text text-anchor="start" x="716.5" y="-138.5" font-family="Helvetica,sans-Serif" font-size="10.00" fill="#000000">::StringHash, Urho3D::</text>
<text text-anchor="middle" x="794.5" y="-127.5" font-family="Helvetica,sans-Serif" font-size="10.00" fill="#000000">SharedPtr&lt; Urho3D::Object &gt; &gt;</text>
</a>
</g>
</g>
<!-- Node9&#45;&gt;Node20 -->
<g id="edge27" class="edge">
<title>Node9&#45;&gt;Node20</title>
<path fill="none" stroke="#191970" d="M527.7553,-241.063C558.565,-222.2799 614.4756,-190.1754 666,-171 679.4189,-166.006 693.9448,-161.6623 708.2374,-157.9491"/>
<polygon fill="#191970" stroke="#191970" points="525.7114,-238.2113 519.0321,-246.4356 529.3823,-244.1715 525.7114,-238.2113"/>
</g>
<!-- Node22 -->
<g id="node20" class="node">
<title>Node22</title>
<g id="a_node20"><a xlink:href="class_urho3_d_1_1_hash_map.html" target="_top" xlink:title="Urho3D::HashMap\&lt; Urho3D\l::StringHash, Urho3D::\lSharedPtr\&lt; Urho3D::ObjectFactory \&gt; \&gt;">
<polygon fill="none" stroke="#000000" points="691,-.5 691,-41.5 898,-41.5 898,-.5 691,-.5"/>
<text text-anchor="start" x="699" y="-29.5" font-family="Helvetica,sans-Serif" font-size="10.00" fill="#000000">Urho3D::HashMap&lt; Urho3D</text>
<text text-anchor="start" x="699" y="-18.5" font-family="Helvetica,sans-Serif" font-size="10.00" fill="#000000">::StringHash, Urho3D::</text>
<text text-anchor="middle" x="794.5" y="-7.5" font-family="Helvetica,sans-Serif" font-size="10.00" fill="#000000">SharedPtr&lt; Urho3D::ObjectFactory &gt; &gt;</text>
</a>
</g>
</g>
<!-- Node9&#45;&gt;Node22 -->
<g id="edge31" class="edge">
<title>Node9&#45;&gt;Node22</title>
<path fill="none" stroke="#191970" d="M512.1531,-237.1344C531.599,-194.8024 585.188,-92.7007 666,-51 673.8379,-46.9555 682.2247,-43.4489 690.8179,-40.4101"/>
<polygon fill="#191970" stroke="#191970" points="508.933,-235.7617 508.0433,-246.3192 515.3225,-238.6209 508.933,-235.7617"/>
</g>
<!-- Node23 -->
<g id="node21" class="node">
<title>Node23</title>
<g id="a_node21"><a xlink:href="class_urho3_d_1_1_hash_map.html" target="_top" xlink:title="Urho3D::HashMap\&lt; Urho3D\l::String, Urho3D::Vector\l\&lt; Urho3D::StringHash \&gt; \&gt;">
<polygon fill="none" stroke="#000000" points="718.5,-372.5 718.5,-413.5 870.5,-413.5 870.5,-372.5 718.5,-372.5"/>
<text text-anchor="start" x="726.5" y="-401.5" font-family="Helvetica,sans-Serif" font-size="10.00" fill="#000000">Urho3D::HashMap&lt; Urho3D</text>
<text text-anchor="start" x="726.5" y="-390.5" font-family="Helvetica,sans-Serif" font-size="10.00" fill="#000000">::String, Urho3D::Vector</text>
<text text-anchor="middle" x="794.5" y="-379.5" font-family="Helvetica,sans-Serif" font-size="10.00" fill="#000000">&lt; Urho3D::StringHash &gt; &gt;</text>
</a>
</g>
</g>
<!-- Node9&#45;&gt;Node23 -->
<g id="edge33" class="edge">
<title>Node9&#45;&gt;Node23</title>
<path fill="none" stroke="#191970" d="M523.5595,-272.076C552.7781,-295.2978 610.3614,-338.0608 666,-362 682.4428,-369.0747 700.795,-374.7162 718.3666,-379.141"/>
<polygon fill="#191970" stroke="#191970" points="525.7511,-269.3471 515.765,-265.8073 521.364,-274.8019 525.7511,-269.3471"/>
</g>
<!-- Node24 -->
<g id="node22" class="node">
<title>Node24</title>
<g id="a_node22"><a xlink:href="class_urho3_d_1_1_hash_map.html" target="_top" xlink:title="Urho3D::HashMap\&lt; Urho3D\l::StringHash, Urho3D::\lVector\&lt; Urho3D::AttributeInfo \&gt; \&gt;">
<polygon fill="none" stroke="#000000" points="702,-60.5 702,-101.5 887,-101.5 887,-60.5 702,-60.5"/>
<text text-anchor="start" x="710" y="-89.5" font-family="Helvetica,sans-Serif" font-size="10.00" fill="#000000">Urho3D::HashMap&lt; Urho3D</text>
<text text-anchor="start" x="710" y="-78.5" font-family="Helvetica,sans-Serif" font-size="10.00" fill="#000000">::StringHash, Urho3D::</text>
<text text-anchor="middle" x="794.5" y="-67.5" font-family="Helvetica,sans-Serif" font-size="10.00" fill="#000000">Vector&lt; Urho3D::AttributeInfo &gt; &gt;</text>
</a>
</g>
</g>
<!-- Node9&#45;&gt;Node24 -->
<g id="edge35" class="edge">
<title>Node9&#45;&gt;Node24</title>
<path fill="none" stroke="#191970" d="M517.8953,-238.4842C543.5752,-207.4202 601.7408,-142.9498 666,-111 677.1797,-105.4414 689.4233,-100.8899 701.771,-97.1686"/>
<polygon fill="#191970" stroke="#191970" points="515.1292,-236.3383 511.5357,-246.3052 520.5602,-240.7546 515.1292,-236.3383"/>
</g>
<!-- Node27 -->
<g id="node25" class="node">
<title>Node27</title>
<g id="a_node25"><a xlink:href="class_urho3_d_1_1_hash_map.html" target="_top" xlink:title="Urho3D::HashMap\&lt; Urho3D\l::String, Urho3D::Vector\l\&lt; Urho3D::SharedPtr\&lt; Urho3D\l::DbConnection \&gt; \&gt; \&gt;">
<polygon fill="none" stroke="#000000" points="711.5,-482 711.5,-534 877.5,-534 877.5,-482 711.5,-482"/>
<text text-anchor="start" x="719.5" y="-522" font-family="Helvetica,sans-Serif" font-size="10.00" fill="#000000">Urho3D::HashMap&lt; Urho3D</text>
<text text-anchor="start" x="719.5" y="-511" font-family="Helvetica,sans-Serif" font-size="10.00" fill="#000000">::String, Urho3D::Vector</text>
<text text-anchor="start" x="719.5" y="-500" font-family="Helvetica,sans-Serif" font-size="10.00" fill="#000000">&lt; Urho3D::SharedPtr&lt; Urho3D</text>
<text text-anchor="middle" x="794.5" y="-489" font-family="Helvetica,sans-Serif" font-size="10.00" fill="#000000">::DbConnection &gt; &gt; &gt;</text>
</a>
</g>
</g>
<!-- Node9&#45;&gt;Node27 -->
<g id="edge41" class="edge">
<title>Node9&#45;&gt;Node27</title>
<path fill="none" stroke="#191970" d="M512.6142,-274.5879C533.0161,-316.5167 588.4546,-418.9228 666,-472 679.5741,-481.291 695.503,-488.1975 711.4363,-493.3275"/>
<polygon fill="#191970" stroke="#191970" points="515.7507,-273.0336 508.2895,-265.5115 509.4314,-276.0446 515.7507,-273.0336"/>
</g>
<!-- Node10 -->
<g id="node8" class="node">
<title>Node10</title>
<g id="a_node8"><a xlink:href="struct_urho3_d_1_1_hash_node_base.html" target="_top" xlink:title="Hash set/map node base class. ">
<polygon fill="none" stroke="#000000" points="215,-264.5 215,-283.5 349,-283.5 349,-264.5 215,-264.5"/>
<text text-anchor="middle" x="282" y="-271.5" font-family="Helvetica,sans-Serif" font-size="10.00" fill="#000000">Urho3D::HashNodeBase</text>
</a>
</g>
</g>
<!-- Node10&#45;&gt;Node9 -->
<g id="edge8" class="edge">
<title>Node10&#45;&gt;Node9</title>
<path fill="none" stroke="#9a32cd" stroke-dasharray="5,2" d="M359.5643,-267.711C389.2995,-265.3 422.5655,-262.6028 449.6705,-260.4051"/>
<polygon fill="#9a32cd" stroke="#9a32cd" points="358.8942,-264.2538 349.2098,-268.5506 359.46,-271.2309 358.8942,-264.2538"/>
<text text-anchor="middle" x="393" y="-292" font-family="Helvetica,sans-Serif" font-size="10.00" fill="#000000"> ptrs_</text>
<text text-anchor="middle" x="393" y="-281" font-family="Helvetica,sans-Serif" font-size="10.00" fill="#000000">tail_</text>
<text text-anchor="middle" x="393" y="-270" font-family="Helvetica,sans-Serif" font-size="10.00" fill="#000000">head_</text>
</g>
<!-- Node10&#45;&gt;Node10 -->
<g id="edge9" class="edge">
<title>Node10&#45;&gt;Node10</title>
<path fill="none" stroke="#9a32cd" stroke-dasharray="5,2" d="M261.6306,-293.4C262.991,-298.3146 269.7808,-302 282,-302 301.5508,-302 307.2022,-292.5653 298.9542,-283.7571"/>
<polygon fill="#9a32cd" stroke="#9a32cd" points="265.0065,-294.3518 265.0458,-283.7571 258.4081,-292.0149 265.0065,-294.3518"/>
<text text-anchor="middle" x="282" y="-327" font-family="Helvetica,sans-Serif" font-size="10.00" fill="#000000"> next_</text>
<text text-anchor="middle" x="282" y="-316" font-family="Helvetica,sans-Serif" font-size="10.00" fill="#000000">prev_</text>
<text text-anchor="middle" x="282" y="-305" font-family="Helvetica,sans-Serif" font-size="10.00" fill="#000000">down_</text>
</g>
<!-- Node11 -->
<g id="node9" class="node">
<title>Node11</title>
<g id="a_node9"><a xlink:href="struct_urho3_d_1_1_allocator_block.html" target="_top" xlink:title="Allocator memory block. ">
<polygon fill="none" stroke="#000000" points="217,-197.5 217,-216.5 347,-216.5 347,-197.5 217,-197.5"/>
<text text-anchor="middle" x="282" y="-204.5" font-family="Helvetica,sans-Serif" font-size="10.00" fill="#000000">Urho3D::AllocatorBlock</text>
</a>
</g>
</g>
<!-- Node11&#45;&gt;Node9 -->
<g id="edge10" class="edge">
<title>Node11&#45;&gt;Node9</title>
<path fill="none" stroke="#9a32cd" stroke-dasharray="5,2" d="M335.035,-218.7059C373.4421,-227.1832 424.7187,-238.501 460.6743,-246.4371"/>
<polygon fill="#9a32cd" stroke="#9a32cd" points="335.5864,-215.2435 325.0671,-216.5058 334.0776,-222.0789 335.5864,-215.2435"/>
<text text-anchor="middle" x="393" y="-239" font-family="Helvetica,sans-Serif" font-size="10.00" fill="#000000"> allocator_</text>
</g>
<!-- Node11&#45;&gt;Node11 -->
<g id="edge11" class="edge">
<title>Node11&#45;&gt;Node11</title>
<path fill="none" stroke="#9a32cd" stroke-dasharray="5,2" d="M261.6306,-226.4C262.991,-231.3146 269.7808,-235 282,-235 301.5508,-235 307.2022,-225.5653 298.9542,-216.7571"/>
<polygon fill="#9a32cd" stroke="#9a32cd" points="265.0065,-227.3518 265.0458,-216.7571 258.4081,-225.0149 265.0065,-227.3518"/>
<text text-anchor="middle" x="282" y="-238" font-family="Helvetica,sans-Serif" font-size="10.00" fill="#000000"> next_</text>
</g>
<!-- Node12 -->
<g id="node10" class="node">
<title>Node12</title>
<g id="a_node10"><a xlink:href="struct_urho3_d_1_1_allocator_node.html" target="_top" xlink:title="Allocator node. ">
<polygon fill="none" stroke="#000000" points="0,-197.5 0,-216.5 128,-216.5 128,-197.5 0,-197.5"/>
<text text-anchor="middle" x="64" y="-204.5" font-family="Helvetica,sans-Serif" font-size="10.00" fill="#000000">Urho3D::AllocatorNode</text>
</a>
</g>
</g>
<!-- Node12&#45;&gt;Node11 -->
<g id="edge12" class="edge">
<title>Node12&#45;&gt;Node11</title>
<path fill="none" stroke="#9a32cd" stroke-dasharray="5,2" d="M138.5487,-207C163.9409,-207 192.1134,-207 216.722,-207"/>
<polygon fill="#9a32cd" stroke="#9a32cd" points="138.2281,-203.5001 128.2281,-207 138.2281,-210.5001 138.2281,-203.5001"/>
<text text-anchor="middle" x="171.5" y="-210" font-family="Helvetica,sans-Serif" font-size="10.00" fill="#000000"> free_</text>
</g>
<!-- Node12&#45;&gt;Node12 -->
<g id="edge13" class="edge">
<title>Node12&#45;&gt;Node12</title>
<path fill="none" stroke="#9a32cd" stroke-dasharray="5,2" d="M44.3713,-226.4C45.6822,-231.3146 52.2251,-235 64,-235 82.8398,-235 88.2857,-225.5653 80.3377,-216.7571"/>
<polygon fill="#9a32cd" stroke="#9a32cd" points="47.7447,-227.3516 47.6623,-216.7571 41.1199,-225.0906 47.7447,-227.3516"/>
<text text-anchor="middle" x="64" y="-238" font-family="Helvetica,sans-Serif" font-size="10.00" fill="#000000"> next_</text>
</g>
<!-- Node13&#45;&gt;Node7 -->
<g id="edge14" class="edge">
<title>Node13&#45;&gt;Node7</title>
<path fill="none" stroke="#9a32cd" stroke-dasharray="5,2" d="M898.4521,-229.3724C949.8488,-243.1263 1011.5157,-263.8081 1062,-293 1095.7177,-312.4969 1129.2657,-344.5961 1144.9007,-360.4831"/>
<polygon fill="#9a32cd" stroke="#9a32cd" points="899.2093,-225.9527 888.6484,-226.799 897.4321,-232.7233 899.2093,-225.9527"/>
<text text-anchor="middle" x="1001.5" y="-296" font-family="Helvetica,sans-Serif" font-size="10.00" fill="#000000"> eventReceivers_</text>
</g>
<!-- Node14&#45;&gt;Node7 -->
<g id="edge16" class="edge">
<title>Node14&#45;&gt;Node7</title>
<path fill="none" stroke="#9a32cd" stroke-dasharray="5,2" d="M867.2262,-697.2107C941.2621,-692.7086 1047.223,-684.2343 1062,-672 1109.8116,-632.4153 1145.0376,-426.4683 1152.5212,-379.5296"/>
<polygon fill="#9a32cd" stroke="#9a32cd" points="866.7783,-693.7311 857.0041,-697.8196 867.1946,-700.7187 866.7783,-693.7311"/>
<text text-anchor="middle" x="1001.5" y="-695" font-family="Helvetica,sans-Serif" font-size="10.00" fill="#000000"> eventHandler_</text>
</g>
<!-- Node25 -->
<g id="node23" class="node">
<title>Node25</title>
<g id="a_node23"><a xlink:href="class_urho3_d_1_1_linked_list.html" target="_top" xlink:title="Urho3D::LinkedList\l\&lt; Urho3D::EventHandler \&gt;">
<polygon fill="none" stroke="#000000" points="1080,-844 1080,-874 1228,-874 1228,-844 1080,-844"/>
<text text-anchor="start" x="1088" y="-862" font-family="Helvetica,sans-Serif" font-size="10.00" fill="#000000">Urho3D::LinkedList</text>
<text text-anchor="middle" x="1154" y="-851" font-family="Helvetica,sans-Serif" font-size="10.00" fill="#000000">&lt; Urho3D::EventHandler &gt;</text>
</a>
</g>
</g>
<!-- Node14&#45;&gt;Node25 -->
<g id="edge37" class="edge">
<title>Node14&#45;&gt;Node25</title>
<path fill="none" stroke="#9a32cd" stroke-dasharray="5,2" d="M867.2103,-708.6068C887.5238,-713.9903 908.0926,-723.0001 923,-738 943.8289,-758.9581 919.9742,-781.2394 941,-802 960.7486,-821.4996 1026.4596,-837.1963 1079.7305,-847.1423"/>
<polygon fill="#9a32cd" stroke="#9a32cd" points="867.8233,-705.155 857.2847,-706.245 866.2028,-711.9649 867.8233,-705.155"/>
<text text-anchor="middle" x="1001.5" y="-847" font-family="Helvetica,sans-Serif" font-size="10.00" fill="#000000"> head_</text>
</g>
<!-- Node15 -->
<g id="node13" class="node">
<title>Node15</title>
<g id="a_node13"><a xlink:href="struct_urho3_d_1_1_linked_list_node.html" target="_top" xlink:title="Singly&#45;linked list node base class. ">
<polygon fill="none" stroke="#000000" points="437,-669.5 437,-688.5 571,-688.5 571,-669.5 437,-669.5"/>
<text text-anchor="middle" x="504" y="-676.5" font-family="Helvetica,sans-Serif" font-size="10.00" fill="#000000">Urho3D::LinkedListNode</text>
</a>
</g>
</g>
<!-- Node15&#45;&gt;Node14 -->
<g id="edge17" class="edge">
<title>Node15&#45;&gt;Node14</title>
<path fill="none" stroke="#191970" d="M581.2275,-679.0713C602.8566,-679.5089 626.3662,-680.3766 648,-682 675.8769,-684.0919 706.5738,-687.847 732.6355,-691.4696"/>
<polygon fill="#191970" stroke="#191970" points="581.1673,-675.5698 571.1076,-678.8944 581.0449,-682.5687 581.1673,-675.5698"/>
</g>
<!-- Node15&#45;&gt;Node15 -->
<g id="edge18" class="edge">
<title>Node15&#45;&gt;Node15</title>
<path fill="none" stroke="#9a32cd" stroke-dasharray="5,2" d="M483.6306,-698.4C484.991,-703.3146 491.7808,-707 504,-707 523.5508,-707 529.2022,-697.5653 520.9542,-688.7571"/>
<polygon fill="#9a32cd" stroke="#9a32cd" points="487.0065,-699.3518 487.0458,-688.7571 480.4081,-697.0149 487.0065,-699.3518"/>
<text text-anchor="middle" x="504" y="-710" font-family="Helvetica,sans-Serif" font-size="10.00" fill="#000000"> next_</text>
</g>
<!-- Node16 -->
<g id="node14" class="node">
<title>Node16</title>
<g id="a_node14"><a xlink:href="class_urho3_d_1_1_string_hash.html" target="_top" xlink:title="32&#45;bit hash value for a string. ">
<polygon fill="none" stroke="#000000" points="447.5,-736.5 447.5,-755.5 560.5,-755.5 560.5,-736.5 447.5,-736.5"/>
<text text-anchor="middle" x="504" y="-743.5" font-family="Helvetica,sans-Serif" font-size="10.00" fill="#000000">Urho3D::StringHash</text>
</a>
</g>
</g>
<!-- Node16&#45;&gt;Node14 -->
<g id="edge20" class="edge">
<title>Node16&#45;&gt;Node14</title>
<path fill="none" stroke="#9a32cd" stroke-dasharray="5,2" d="M561.8852,-732.4039C565.0756,-730.7984 568.1416,-729.0044 571,-727 582.21,-719.1392 576.8294,-708.2716 589,-702 642.1216,-674.626 713.704,-682.6453 756.848,-691.4614"/>
<polygon fill="#9a32cd" stroke="#9a32cd" points="560.3949,-729.2355 552.6338,-736.4477 563.1986,-735.6495 560.3949,-729.2355"/>
<text text-anchor="middle" x="618.5" y="-705" font-family="Helvetica,sans-Serif" font-size="10.00" fill="#000000"> eventType_</text>
</g>
<!-- Node16&#45;&gt;Node16 -->
<g id="edge21" class="edge">
<title>Node16&#45;&gt;Node16</title>
<path fill="none" stroke="#9a32cd" stroke-dasharray="5,2" d="M483.6306,-765.4C484.991,-770.3146 491.7808,-774 504,-774 523.5508,-774 529.2022,-764.5653 520.9542,-755.7571"/>
<polygon fill="#9a32cd" stroke="#9a32cd" points="487.0065,-766.3518 487.0458,-755.7571 480.4081,-764.0149 487.0065,-766.3518"/>
<text text-anchor="middle" x="504" y="-777" font-family="Helvetica,sans-Serif" font-size="10.00" fill="#000000"> ZERO</text>
</g>
<!-- Node17 -->
<g id="node15" class="node">
<title>Node17</title>
<g id="a_node15"><a xlink:href="class_urho3_d_1_1_p_o_d_vector.html" target="_top" xlink:title="Urho3D::PODVector\&lt;\l Urho3D::Object *\&gt;">
<polygon fill="none" stroke="#000000" points="735,-433 735,-463 854,-463 854,-433 735,-433"/>
<text text-anchor="start" x="743" y="-451" font-family="Helvetica,sans-Serif" font-size="10.00" fill="#000000">Urho3D::PODVector&lt;</text>
<text text-anchor="middle" x="794.5" y="-440" font-family="Helvetica,sans-Serif" font-size="10.00" fill="#000000"> Urho3D::Object *&gt;</text>
</a>
</g>
</g>
<!-- Node17&#45;&gt;Node7 -->
<g id="edge22" class="edge">
<title>Node17&#45;&gt;Node7</title>
<path fill="none" stroke="#9a32cd" stroke-dasharray="5,2" d="M864.3863,-437.6368C918.657,-429.0033 995.5968,-415.4799 1062,-399 1084.1053,-393.5139 1108.6885,-385.6723 1126.8782,-379.5261"/>
<polygon fill="#9a32cd" stroke="#9a32cd" points="863.5177,-434.2303 854.1846,-439.2446 864.6076,-441.145 863.5177,-434.2303"/>
<text text-anchor="middle" x="1001.5" y="-427" font-family="Helvetica,sans-Serif" font-size="10.00" fill="#000000"> eventSenders_</text>
</g>
<!-- Node18 -->
<g id="node16" class="node">
<title>Node18</title>
<g id="a_node16"><a xlink:href="class_urho3_d_1_1_vector_base.html" target="_top" xlink:title="Vector base class. ">
<polygon fill="none" stroke="#000000" points="447,-558.5 447,-577.5 561,-577.5 561,-558.5 447,-558.5"/>
<text text-anchor="middle" x="504" y="-565.5" font-family="Helvetica,sans-Serif" font-size="10.00" fill="#000000">Urho3D::VectorBase</text>
</a>
</g>
</g>
<!-- Node18&#45;&gt;Node17 -->
<g id="edge23" class="edge">
<title>Node18&#45;&gt;Node17</title>
<path fill="none" stroke="#191970" d="M524.9721,-552.2646C554.7295,-530.7357 611.6485,-492.4456 666,-472 687.7726,-463.8097 712.7103,-458.3305 734.7881,-454.7045"/>
<polygon fill="#191970" stroke="#191970" points="522.6389,-549.6352 516.642,-558.3695 526.7768,-555.2813 522.6389,-549.6352"/>
</g>
<!-- Node21 -->
<g id="node19" class="node">
<title>Node21</title>
<g id="a_node19"><a xlink:href="class_urho3_d_1_1_p_o_d_vector.html" target="_top" xlink:title="Urho3D::PODVector\&lt;\l Urho3D::HashMap *\&gt;">
<polygon fill="none" stroke="#000000" points="732.5,-553 732.5,-583 856.5,-583 856.5,-553 732.5,-553"/>
<text text-anchor="start" x="740.5" y="-571" font-family="Helvetica,sans-Serif" font-size="10.00" fill="#000000">Urho3D::PODVector&lt;</text>
<text text-anchor="middle" x="794.5" y="-560" font-family="Helvetica,sans-Serif" font-size="10.00" fill="#000000"> Urho3D::HashMap *&gt;</text>
</a>
</g>
</g>
<!-- Node18&#45;&gt;Node21 -->
<g id="edge29" class="edge">
<title>Node18&#45;&gt;Node21</title>
<path fill="none" stroke="#191970" d="M571.1495,-568C619.7313,-568 684.9035,-568 732.3034,-568"/>
<polygon fill="#191970" stroke="#191970" points="571.0469,-564.5001 561.0468,-568 571.0468,-571.5001 571.0469,-564.5001"/>
</g>
<!-- Node26 -->
<g id="node24" class="node">
<title>Node26</title>
<g id="a_node24"><a xlink:href="class_urho3_d_1_1_vector.html" target="_top" xlink:title="Urho3D::Vector\&lt; Urho3D\l::SharedPtr\&lt; Urho3D::DbConnection \&gt; \&gt;">
<polygon fill="none" stroke="#000000" points="687,-602 687,-632 902,-632 902,-602 687,-602"/>
<text text-anchor="start" x="695" y="-620" font-family="Helvetica,sans-Serif" font-size="10.00" fill="#000000">Urho3D::Vector&lt; Urho3D</text>
<text text-anchor="middle" x="794.5" y="-609" font-family="Helvetica,sans-Serif" font-size="10.00" fill="#000000">::SharedPtr&lt; Urho3D::DbConnection &gt; &gt;</text>
</a>
</g>
</g>
<!-- Node18&#45;&gt;Node26 -->
<g id="edge39" class="edge">
<title>Node18&#45;&gt;Node26</title>
<path fill="none" stroke="#191970" d="M570.2759,-579.1791C610.3165,-585.9329 661.8618,-594.6273 705.4331,-601.9767"/>
<polygon fill="#191970" stroke="#191970" points="570.7986,-575.7179 560.3558,-577.5058 569.6343,-582.6204 570.7986,-575.7179"/>
</g>
<!-- Node19&#45;&gt;Node7 -->
<g id="edge24" class="edge">
<title>Node19&#45;&gt;Node7</title>
<path fill="none" stroke="#9a32cd" stroke-dasharray="5,2" d="M890.6351,-346.5572C959.6752,-352.7027 1049.891,-360.733 1104.8072,-365.6212"/>
<polygon fill="#9a32cd" stroke="#9a32cd" points="890.8802,-343.0653 880.6092,-345.6648 890.2595,-350.0377 890.8802,-343.0653"/>
<text text-anchor="middle" x="1001.5" y="-365" font-family="Helvetica,sans-Serif" font-size="10.00" fill="#000000"> globalVars_</text>
</g>
<!-- Node20&#45;&gt;Node7 -->
<g id="edge26" class="edge">
<title>Node20&#45;&gt;Node7</title>
<path fill="none" stroke="#9a32cd" stroke-dasharray="5,2" d="M890.9199,-154.2997C945.9984,-166.009 1013.5253,-187.7852 1062,-228 1108.5718,-266.6361 1139.7641,-335.0404 1150.1721,-360.2869"/>
<polygon fill="#9a32cd" stroke="#9a32cd" points="891.2862,-150.8023 880.7878,-152.2283 889.8841,-157.6604 891.2862,-150.8023"/>
<text text-anchor="middle" x="1001.5" y="-231" font-family="Helvetica,sans-Serif" font-size="10.00" fill="#000000"> subsystems_</text>
</g>
<!-- Node21&#45;&gt;Node7 -->
<g id="edge28" class="edge">
<title>Node21&#45;&gt;Node7</title>
<path fill="none" stroke="#9a32cd" stroke-dasharray="5,2" d="M866.7091,-559.8309C885.5509,-556.1312 905.4759,-550.7681 923,-543 1020.1078,-499.9542 1114.7985,-409.5611 1144.4798,-379.7602"/>
<polygon fill="#9a32cd" stroke="#9a32cd" points="865.8811,-556.4242 856.6754,-561.6687 867.1424,-563.3097 865.8811,-556.4242"/>
<text text-anchor="middle" x="1001.5" y="-536" font-family="Helvetica,sans-Serif" font-size="10.00" fill="#000000"> eventDataMaps_</text>
</g>
<!-- Node22&#45;&gt;Node7 -->
<g id="edge30" class="edge">
<title>Node22&#45;&gt;Node7</title>
<path fill="none" stroke="#9a32cd" stroke-dasharray="5,2" d="M908.1632,-19.0458C960.7663,-23.9423 1020.62,-38.5826 1062,-76 1106.7272,-116.4442 1144.0417,-313.7556 1152.2981,-360.1971"/>
<polygon fill="#9a32cd" stroke="#9a32cd" points="908.3431,-15.5489 898.0898,-18.2171 907.7691,-22.5253 908.3431,-15.5489"/>
<text text-anchor="middle" x="1001.5" y="-79" font-family="Helvetica,sans-Serif" font-size="10.00" fill="#000000"> factories_</text>
</g>
<!-- Node23&#45;&gt;Node7 -->
<g id="edge32" class="edge">
<title>Node23&#45;&gt;Node7</title>
<path fill="none" stroke="#9a32cd" stroke-dasharray="5,2" d="M880.8881,-387.4731C951.0079,-382.987 1047.3656,-376.8222 1104.896,-373.1416"/>
<polygon fill="#9a32cd" stroke="#9a32cd" points="880.4968,-383.9909 870.7407,-388.1223 880.9438,-390.9766 880.4968,-383.9909"/>
<text text-anchor="middle" x="1001.5" y="-387" font-family="Helvetica,sans-Serif" font-size="10.00" fill="#000000"> objectCategories_</text>
</g>
<!-- Node24&#45;&gt;Node7 -->
<g id="edge34" class="edge">
<title>Node24&#45;&gt;Node7</title>
<path fill="none" stroke="#9a32cd" stroke-dasharray="5,2" d="M897.1094,-83.0859C951.6661,-89.2034 1016.6442,-105.1219 1062,-144 1131.7946,-203.8266 1149.3695,-324.6142 1153.1045,-360.0282"/>
<polygon fill="#9a32cd" stroke="#9a32cd" points="897.3558,-79.5929 887.0508,-82.0543 896.6416,-86.5563 897.3558,-79.5929"/>
<text text-anchor="middle" x="1001.5" y="-158" font-family="Helvetica,sans-Serif" font-size="10.00" fill="#000000"> attributes_</text>
<text text-anchor="middle" x="1001.5" y="-147" font-family="Helvetica,sans-Serif" font-size="10.00" fill="#000000">networkAttributes_</text>
</g>
<!-- Node25&#45;&gt;Node4 -->
<g id="edge36" class="edge">
<title>Node25&#45;&gt;Node4</title>
<path fill="none" stroke="#9a32cd" stroke-dasharray="5,2" d="M1069.2646,-860.1622C1030.1951,-860.2975 983.2204,-859.8952 941,-858 784.1463,-850.9591 744.6898,-848.3302 589,-828 576.2214,-826.3314 562.4359,-824.091 549.762,-821.8514"/>
<polygon fill="#9a32cd" stroke="#9a32cd" points="1069.5568,-863.661 1079.5401,-860.1138 1069.5237,-856.6611 1069.5568,-863.661"/>
<text text-anchor="middle" x="794.5" y="-860" font-family="Helvetica,sans-Serif" font-size="10.00" fill="#000000"> eventHandlers_</text>
</g>
<!-- Node26&#45;&gt;Node3 -->
<g id="edge38" class="edge">
<title>Node26&#45;&gt;Node3</title>
<path fill="none" stroke="#9a32cd" stroke-dasharray="5,2" d="M857.6197,-635.8425C881.3847,-645.9344 906.6004,-660.783 923,-682 946.084,-711.865 912.8743,-739.8259 941,-765 963.8183,-785.4238 1045.4836,-788.6715 1100.8029,-788.3919"/>
<polygon fill="#9a32cd" stroke="#9a32cd" points="858.84,-632.5608 848.2565,-632.0712 856.2247,-639.0539 858.84,-632.5608"/>
<text text-anchor="middle" x="1001.5" y="-791" font-family="Helvetica,sans-Serif" font-size="10.00" fill="#000000"> connections_</text>
</g>
<!-- Node27&#45;&gt;Node3 -->
<g id="edge40" class="edge">
<title>Node27&#45;&gt;Node3</title>
<path fill="none" stroke="#9a32cd" stroke-dasharray="5,2" d="M887.1175,-518.6947C900.8104,-524.0808 913.488,-531.8535 923,-543 971.1722,-599.4499 894.9934,-650.7715 941,-709 976.3821,-753.7816 1008.4364,-732.2965 1062,-752 1084.9348,-760.4366 1110.9536,-770.3689 1129.4547,-777.4934"/>
<polygon fill="#9a32cd" stroke="#9a32cd" points="888.0968,-515.3294 877.502,-515.335 885.7878,-521.9377 888.0968,-515.3294"/>
<text text-anchor="middle" x="1001.5" y="-755" font-family="Helvetica,sans-Serif" font-size="10.00" fill="#000000"> connectionsPool_</text>
</g>
</g>
</svg>
        <g id="navigator" transform="translate(0 0)" fill="#404254">
                <rect fill="#f2f5e9" fill-opacity="0.5" stroke="#606060" stroke-width=".5" x="0" y="0" width="60" height="60"/>
                <use id="zoomplus" xlink:href="#zoomPlus" x="17" y="9" onmousedown="handleZoom(evt,'in')"/>
                <use id="zoomminus" xlink:href="#zoomMin" x="42" y="9" onmousedown="handleZoom(evt,'out')"/>
                <use id="reset" xlink:href="#resetDef" x="30" y="36" onmousedown="handleReset()"/>
                <g id="arrowUp" xlink:href="#dirArrow" transform="translate(30 24)" onmousedown="handlePan(0,-1)">
                  <use xlink:href="#rim" fill="#404040">
                        <set attributeName="fill" to="#808080" begin="arrowUp.mouseover" end="arrowUp.mouseout"/>
                  </use>
                  <path fill="none" stroke="white" stroke-width="1.5" d="M0,-3.0v7 M-2.5,-0.5L0,-3.0L2.5,-0.5"/>
                </g>
                <g id="arrowRight" xlink:href="#dirArrow" transform="rotate(90) translate(36 -43)" onmousedown="handlePan(1,0)">
                  <use xlink:href="#rim" fill="#404040">
                        <set attributeName="fill" to="#808080" begin="arrowRight.mouseover" end="arrowRight.mouseout"/>
                  </use>
                  <path fill="none" stroke="white" stroke-width="1.5" d="M0,-3.0v7 M-2.5,-0.5L0,-3.0L2.5,-0.5"/>
                </g>
                <g id="arrowDown" xlink:href="#dirArrow" transform="rotate(180) translate(-30 -48)" onmousedown="handlePan(0,1)">
                  <use xlink:href="#rim" fill="#404040">
                        <set attributeName="fill" to="#808080" begin="arrowDown.mouseover" end="arrowDown.mouseout"/>
                  </use>
                  <path fill="none" stroke="white" stroke-width="1.5" d="M0,-3.0v7 M-2.5,-0.5L0,-3.0L2.5,-0.5"/>
                </g>
                <g id="arrowLeft" xlink:href="#dirArrow" transform="rotate(270) translate(-36 17)" onmousedown="handlePan(-1,0)">
                  <use xlink:href="#rim" fill="#404040">
                        <set attributeName="fill" to="#808080" begin="arrowLeft.mouseover" end="arrowLeft.mouseout"/>
                  </use>
                  <path fill="none" stroke="white" stroke-width="1.5" d="M0,-3.0v7 M-2.5,-0.5L0,-3.0L2.5,-0.5"/>
                </g>
        </g>
        <svg viewBox="0 0 15 15" width="100%" height="30px" preserveAspectRatio="xMaxYMin meet">
         <g id="arrow_out" transform="scale(0.3 0.3)">
          <a xlink:href="class_urho3_d_1_1_database__coll__graph_org.svg" target="_base">
           <rect id="button" ry="5" rx="5" y="6" x="6" height="38" width="38"
                fill="#f2f5e9" fill-opacity="0.5" stroke="#606060" stroke-width="1.0"/>
           <path id="arrow"
             d="M 11.500037,31.436501 C 11.940474,20.09759 22.043105,11.32322 32.158766,21.979434 L 37.068811,17.246167 C 37.068811,17.246167 37.088388,32 37.088388,32 L 22.160133,31.978069 C 22.160133,31.978069 26.997745,27.140456 26.997745,27.140456 C 18.528582,18.264221 13.291696,25.230495 11.500037,31.436501 z"
             style="fill:#404040;"/>
          </a>
         </g>
        </svg>
</svg>
