<?xml version="1.0" encoding="UTF-8" standalone="no"?>
<!DOCTYPE svg PUBLIC "-//W3C//DTD SVG 1.1//EN"
 "http://www.w3.org/Graphics/SVG/1.1/DTD/svg11.dtd">
<!-- Generated by graphviz version 2.36.0 (20140111.2315)
 -->
<!-- Title: Urho3D::AnimationState Pages: 1 -->
<!--zoomable 796 -->
<svg id="main" version="1.1" xmlns="http://www.w3.org/2000/svg" xmlns:xlink="http://www.w3.org/1999/xlink" xml:space="preserve" onload="init(evt)">
<style type="text/css"><![CDATA[
.edge:hover path { stroke: red; }
.edge:hover polygon { stroke: red; fill: red; }
]]></style>
<script type="text/javascript"><![CDATA[
var edges = document.getElementsByTagName('g');
if (edges && edges.length) {
  for (var i=0;i<edges.length;i++) {
    if (edges[i].id.substr(0,4)=='edge') {
      edges[i].setAttribute('class','edge');
    }
  }
}
]]></script>
        <defs>
                <circle id="rim" cx="0" cy="0" r="7"/>
                <circle id="rim2" cx="0" cy="0" r="3.5"/>
                <g id="zoomPlus">
                        <use xlink:href="#rim" fill="#404040">
                                <set attributeName="fill" to="#808080" begin="zoomplus.mouseover" end="zoomplus.mouseout"/>
                        </use>
                        <path d="M-4,0h8M0,-4v8" fill="none" stroke="white" stroke-width="1.5" pointer-events="none"/>
                </g>
                <g id="zoomMin">
                        <use xlink:href="#rim" fill="#404040">
                                <set attributeName="fill" to="#808080" begin="zoomminus.mouseover" end="zoomminus.mouseout"/>
                        </use>
                        <path d="M-4,0h8" fill="none" stroke="white" stroke-width="1.5" pointer-events="none"/>
                </g>
                <g id="dirArrow">
                        <path fill="none" stroke="white" stroke-width="1.5" d="M0,-3.0v7 M-2.5,-0.5L0,-3.0L2.5,-0.5"/>
                </g>
               <g id="resetDef">
                       <use xlink:href="#rim2" fill="#404040">
                               <set attributeName="fill" to="#808080" begin="reset.mouseover" end="reset.mouseout"/>
                       </use>
               </g>
        </defs>

<script type="text/javascript">
var viewWidth = 1216;
var viewHeight = 796;
var sectionId = 'dynsection-1';
</script>
<script xlink:href="svgpan.js"/>
<svg id="graph" class="graph">
<g id="viewport">
<title>Urho3D::AnimationState</title>
<!-- Node1 -->
<g id="node1" class="node"><title>Node1</title>
<polygon fill="#bfbfbf" stroke="black" points="1084.5,-316.5 1084.5,-335.5 1207.5,-335.5 1207.5,-316.5 1084.5,-316.5"/>
<text text-anchor="middle" x="1146" y="-323.5" font-family="Helvetica,sans-Serif" font-size="10.00">Urho3D::AnimationState</text>
</g>
<!-- Node2 -->
<g id="node2" class="node"><title>Node2</title>
<g id="a_node2"><a xlink:href="class_urho3_d_1_1_ref_counted.html" target="_top" xlink:title="Base class for intrusively reference&#45;counted objects. These are noncopyable and non&#45;assignable. ">
<polygon fill="none" stroke="black" points="730.5,-329.5 730.5,-348.5 839.5,-348.5 839.5,-329.5 730.5,-329.5"/>
<text text-anchor="middle" x="785" y="-336.5" font-family="Helvetica,sans-Serif" font-size="10.00">Urho3D::RefCounted</text>
</a>
</g>
</g>
<!-- Node2&#45;&gt;Node1 -->
<g id="edge1" class="edge"><title>Node2&#45;&gt;Node1</title>
<path fill="none" stroke="midnightblue" d="M850.065,-336.68C916.384,-334.279 1019.21,-330.555 1084.27,-328.199"/>
<polygon fill="midnightblue" stroke="midnightblue" points="849.613,-333.194 839.746,-337.054 849.866,-340.19 849.613,-333.194"/>
</g>
<!-- Node3 -->
<g id="node3" class="node"><title>Node3</title>
<g id="a_node3"><a xlink:href="struct_urho3_d_1_1_ref_count.html" target="_top" xlink:title="Reference count structure. ">
<polygon fill="none" stroke="black" points="266,-328.5 266,-347.5 364,-347.5 364,-328.5 266,-328.5"/>
<text text-anchor="middle" x="315" y="-335.5" font-family="Helvetica,sans-Serif" font-size="10.00">Urho3D::RefCount</text>
</a>
</g>
</g>
<!-- Node3&#45;&gt;Node2 -->
<g id="edge2" class="edge"><title>Node3&#45;&gt;Node2</title>
<path fill="none" stroke="#9a32cd" stroke-dasharray="5,2" d="M374.518,-338.125C466.036,-338.321 641.704,-338.696 730.218,-338.885"/>
<polygon fill="#9a32cd" stroke="#9a32cd" points="374.329,-334.625 364.322,-338.103 374.314,-341.625 374.329,-334.625"/>
<text text-anchor="middle" x="492" y="-342" font-family="Helvetica,sans-Serif" font-size="10.00"> refCount_</text>
</g>
<!-- Node4 -->
<g id="node4" class="node"><title>Node4</title>
<g id="a_node4"><a xlink:href="class_urho3_d_1_1_weak_ptr.html" target="_top" xlink:title="Urho3D::WeakPtr\&lt; Urho3D\l::AnimatedModel \&gt;">
<polygon fill="none" stroke="black" points="858.5,-375 858.5,-405 995.5,-405 995.5,-375 858.5,-375"/>
<text text-anchor="start" x="866.5" y="-393" font-family="Helvetica,sans-Serif" font-size="10.00">Urho3D::WeakPtr&lt; Urho3D</text>
<text text-anchor="middle" x="927" y="-382" font-family="Helvetica,sans-Serif" font-size="10.00">::AnimatedModel &gt;</text>
</a>
</g>
</g>
<!-- Node3&#45;&gt;Node4 -->
<g id="edge19" class="edge"><title>Node3&#45;&gt;Node4</title>
<path fill="none" stroke="#9a32cd" stroke-dasharray="5,2" d="M374.113,-347.087C391.421,-349.581 410.45,-352.114 428,-354 581.414,-370.483 762.25,-381.449 858.204,-386.601"/>
<polygon fill="#9a32cd" stroke="#9a32cd" points="374.547,-343.613 364.145,-345.628 373.533,-350.54 374.547,-343.613"/>
<text text-anchor="middle" x="643" y="-381" font-family="Helvetica,sans-Serif" font-size="10.00"> refCount_</text>
</g>
<!-- Node18 -->
<g id="node18" class="node"><title>Node18</title>
<g id="a_node18"><a xlink:href="class_urho3_d_1_1_weak_ptr.html" target="_top" xlink:title="Urho3D::WeakPtr\&lt; Urho3D\l::Node \&gt;">
<polygon fill="none" stroke="black" points="574.5,-279 574.5,-309 711.5,-309 711.5,-279 574.5,-279"/>
<text text-anchor="start" x="582.5" y="-297" font-family="Helvetica,sans-Serif" font-size="10.00">Urho3D::WeakPtr&lt; Urho3D</text>
<text text-anchor="middle" x="643" y="-286" font-family="Helvetica,sans-Serif" font-size="10.00">::Node &gt;</text>
</a>
</g>
</g>
<!-- Node3&#45;&gt;Node18 -->
<g id="edge31" class="edge"><title>Node3&#45;&gt;Node18</title>
<path fill="none" stroke="#9a32cd" stroke-dasharray="5,2" d="M367.528,-325.868C381.449,-322.165 396.416,-317.791 410,-313 418.256,-310.088 419.486,-307.037 428,-305 475.94,-293.533 531.582,-290.989 574.112,-291.204"/>
<polygon fill="#9a32cd" stroke="#9a32cd" points="366.411,-322.541 357.611,-328.441 368.17,-329.317 366.411,-322.541"/>
<text text-anchor="middle" x="492" y="-308" font-family="Helvetica,sans-Serif" font-size="10.00"> refCount_</text>
</g>
<!-- Node4&#45;&gt;Node1 -->
<g id="edge3" class="edge"><title>Node4&#45;&gt;Node1</title>
<path fill="none" stroke="#9a32cd" stroke-dasharray="5,2" d="M1005.66,-375.856C1025.53,-371.493 1046.73,-366.179 1066,-360 1086.9,-353.299 1109.85,-343.083 1125.6,-335.598"/>
<polygon fill="#9a32cd" stroke="#9a32cd" points="1004.76,-372.469 995.719,-377.986 1006.23,-379.314 1004.76,-372.469"/>
<text text-anchor="middle" x="1040" y="-377" font-family="Helvetica,sans-Serif" font-size="10.00"> model_</text>
</g>
<!-- Node5 -->
<g id="node5" class="node"><title>Node5</title>
<g id="a_node5"><a xlink:href="class_urho3_d_1_1_animated_model.html" target="_top" xlink:title="Animated model component. ">
<polygon fill="none" stroke="red" points="581,-556.5 581,-575.5 705,-575.5 705,-556.5 581,-556.5"/>
<text text-anchor="middle" x="643" y="-563.5" font-family="Helvetica,sans-Serif" font-size="10.00">Urho3D::AnimatedModel</text>
</a>
</g>
</g>
<!-- Node5&#45;&gt;Node4 -->
<g id="edge4" class="edge"><title>Node5&#45;&gt;Node4</title>
<path fill="none" stroke="#9a32cd" stroke-dasharray="5,2" d="M668.346,-550.805C721.684,-517.516 848.334,-438.473 901.663,-405.189"/>
<polygon fill="#9a32cd" stroke="#9a32cd" points="666.193,-548.023 659.563,-556.287 669.9,-553.961 666.193,-548.023"/>
<text text-anchor="middle" x="785" y="-513" font-family="Helvetica,sans-Serif" font-size="10.00"> ptr_</text>
</g>
<!-- Node6 -->
<g id="node6" class="node"><title>Node6</title>
<g id="a_node6"><a xlink:href="class_urho3_d_1_1_static_model.html" target="_top" xlink:title="Static model component. ">
<polygon fill="none" stroke="red" points="261,-729.5 261,-748.5 369,-748.5 369,-729.5 261,-729.5"/>
<text text-anchor="middle" x="315" y="-736.5" font-family="Helvetica,sans-Serif" font-size="10.00">Urho3D::StaticModel</text>
</a>
</g>
</g>
<!-- Node6&#45;&gt;Node5 -->
<g id="edge5" class="edge"><title>Node6&#45;&gt;Node5</title>
<path fill="none" stroke="midnightblue" d="M379.507,-745.326C431.637,-747.18 504.93,-741.764 556,-705 570.518,-694.549 565.056,-684.492 574,-669 594.462,-633.556 622.244,-593.666 635.032,-575.694"/>
<polygon fill="midnightblue" stroke="midnightblue" points="379.524,-741.823 369.376,-744.865 379.206,-748.816 379.524,-741.823"/>
</g>
<!-- Node7 -->
<g id="node7" class="node"><title>Node7</title>
<g id="a_node7"><a xlink:href="class_urho3_d_1_1_vector.html" target="_top" xlink:title="Urho3D::Vector\&lt; Urho3D\l::SharedPtr\&lt; Urho3D::Animation\lState \&gt; \&gt;">
<polygon fill="none" stroke="black" points="236,-493.5 236,-534.5 394,-534.5 394,-493.5 236,-493.5"/>
<text text-anchor="start" x="244" y="-522.5" font-family="Helvetica,sans-Serif" font-size="10.00">Urho3D::Vector&lt; Urho3D</text>
<text text-anchor="start" x="244" y="-511.5" font-family="Helvetica,sans-Serif" font-size="10.00">::SharedPtr&lt; Urho3D::Animation</text>
<text text-anchor="middle" x="315" y="-500.5" font-family="Helvetica,sans-Serif" font-size="10.00">State &gt; &gt;</text>
</a>
</g>
</g>
<!-- Node7&#45;&gt;Node5 -->
<g id="edge6" class="edge"><title>Node7&#45;&gt;Node5</title>
<path fill="none" stroke="#9a32cd" stroke-dasharray="5,2" d="M404.31,-526.491C449.705,-533.103 505.879,-541.581 556,-550 567.832,-551.987 580.551,-554.272 592.483,-556.481"/>
<polygon fill="#9a32cd" stroke="#9a32cd" points="404.602,-522.997 394.203,-525.024 403.597,-529.924 404.602,-522.997"/>
<text text-anchor="middle" x="492" y="-553" font-family="Helvetica,sans-Serif" font-size="10.00"> animationStates_</text>
</g>
<!-- Node8 -->
<g id="node8" class="node"><title>Node8</title>
<g id="a_node8"><a xlink:href="class_urho3_d_1_1_vector_base.html" target="_top" xlink:title="Vector base class. ">
<polygon fill="none" stroke="black" points="0.5,-597.5 0.5,-616.5 107.5,-616.5 107.5,-597.5 0.5,-597.5"/>
<text text-anchor="middle" x="54" y="-604.5" font-family="Helvetica,sans-Serif" font-size="10.00">Urho3D::VectorBase</text>
</a>
</g>
</g>
<!-- Node8&#45;&gt;Node7 -->
<g id="edge7" class="edge"><title>Node8&#45;&gt;Node7</title>
<path fill="none" stroke="midnightblue" d="M88.5512,-593.559C121.748,-580.409 174.103,-560.072 220,-544 229.054,-540.83 238.645,-537.611 248.105,-534.516"/>
<polygon fill="midnightblue" stroke="midnightblue" points="86.8933,-590.451 78.8921,-597.396 89.4779,-596.957 86.8933,-590.451"/>
</g>
<!-- Node11 -->
<g id="node11" class="node"><title>Node11</title>
<g id="a_node11"><a xlink:href="class_urho3_d_1_1_vector.html" target="_top" xlink:title="Urho3D::Vector\&lt; Urho3D\l::PODVector\&lt; unsigned \&gt; \&gt;">
<polygon fill="none" stroke="black" points="245.5,-445 245.5,-475 384.5,-475 384.5,-445 245.5,-445"/>
<text text-anchor="start" x="253.5" y="-463" font-family="Helvetica,sans-Serif" font-size="10.00">Urho3D::Vector&lt; Urho3D</text>
<text text-anchor="middle" x="315" y="-452" font-family="Helvetica,sans-Serif" font-size="10.00">::PODVector&lt; unsigned &gt; &gt;</text>
</a>
</g>
</g>
<!-- Node8&#45;&gt;Node11 -->
<g id="edge11" class="edge"><title>Node8&#45;&gt;Node11</title>
<path fill="none" stroke="midnightblue" d="M72.2186,-589.983C100.51,-563.058 159.729,-510.931 220,-484 227.996,-480.427 236.623,-477.315 245.293,-474.625"/>
<polygon fill="midnightblue" stroke="midnightblue" points="69.5363,-587.708 64.7733,-597.172 74.3984,-592.744 69.5363,-587.708"/>
</g>
<!-- Node12 -->
<g id="node12" class="node"><title>Node12</title>
<g id="a_node12"><a xlink:href="class_urho3_d_1_1_vector.html" target="_top" xlink:title="Urho3D::Vector\&lt; Urho3D\l::SharedPtr\&lt; Urho3D::VertexBuffer \&gt; \&gt;">
<polygon fill="none" stroke="black" points="221,-680 221,-710 409,-710 409,-680 221,-680"/>
<text text-anchor="start" x="229" y="-698" font-family="Helvetica,sans-Serif" font-size="10.00">Urho3D::Vector&lt; Urho3D</text>
<text text-anchor="middle" x="315" y="-687" font-family="Helvetica,sans-Serif" font-size="10.00">::SharedPtr&lt; Urho3D::VertexBuffer &gt; &gt;</text>
</a>
</g>
</g>
<!-- Node8&#45;&gt;Node12 -->
<g id="edge13" class="edge"><title>Node8&#45;&gt;Node12</title>
<path fill="none" stroke="midnightblue" d="M87.2598,-620.471C120.264,-633.978 173.194,-654.886 220,-670 230.847,-673.503 242.509,-676.896 253.802,-679.995"/>
<polygon fill="midnightblue" stroke="midnightblue" points="88.2654,-617.1 77.6859,-616.531 85.6016,-623.573 88.2654,-617.1"/>
</g>
<!-- Node15 -->
<g id="node15" class="node"><title>Node15</title>
<g id="a_node15"><a xlink:href="class_urho3_d_1_1_vector.html" target="_top" xlink:title="Urho3D::Vector\&lt; Urho3D\l::PODVector\&lt; Urho3D::Matrix3x4 * \&gt; \&gt;">
<polygon fill="none" stroke="black" points="220.5,-592 220.5,-622 409.5,-622 409.5,-592 220.5,-592"/>
<text text-anchor="start" x="228.5" y="-610" font-family="Helvetica,sans-Serif" font-size="10.00">Urho3D::Vector&lt; Urho3D</text>
<text text-anchor="middle" x="315" y="-599" font-family="Helvetica,sans-Serif" font-size="10.00">::PODVector&lt; Urho3D::Matrix3x4 * &gt; &gt;</text>
</a>
</g>
</g>
<!-- Node8&#45;&gt;Node15 -->
<g id="edge18" class="edge"><title>Node8&#45;&gt;Node15</title>
<path fill="none" stroke="midnightblue" d="M117.889,-607C148.687,-607 186.391,-607 220.481,-607"/>
<polygon fill="midnightblue" stroke="midnightblue" points="117.725,-603.5 107.725,-607 117.725,-610.5 117.725,-603.5"/>
</g>
<!-- Node23 -->
<g id="node23" class="node"><title>Node23</title>
<g id="a_node23"><a xlink:href="class_urho3_d_1_1_vector.html" target="_top" xlink:title="Urho3D::Vector\&lt; Urho3D\l::AnimationStateTrack \&gt;">
<polygon fill="none" stroke="black" points="428,-758 428,-788 556,-788 556,-758 428,-758"/>
<text text-anchor="start" x="436" y="-776" font-family="Helvetica,sans-Serif" font-size="10.00">Urho3D::Vector&lt; Urho3D</text>
<text text-anchor="middle" x="492" y="-765" font-family="Helvetica,sans-Serif" font-size="10.00">::AnimationStateTrack &gt;</text>
</a>
</g>
</g>
<!-- Node8&#45;&gt;Node23 -->
<g id="edge39" class="edge"><title>Node8&#45;&gt;Node23</title>
<path fill="none" stroke="midnightblue" d="M67.9142,-625.198C92.8553,-658.642 151.295,-729.097 220,-758 286.779,-786.093 371.096,-785.852 427.797,-781.178"/>
<polygon fill="midnightblue" stroke="midnightblue" points="70.5126,-622.821 61.7872,-616.811 64.8604,-626.951 70.5126,-622.821"/>
</g>
<!-- Node9 -->
<g id="node9" class="node"><title>Node9</title>
<g id="a_node9"><a xlink:href="class_urho3_d_1_1_skeleton.html" target="_top" xlink:title="Hierarchical collection of bones. ">
<polygon fill="none" stroke="red" points="267.5,-641.5 267.5,-660.5 362.5,-660.5 362.5,-641.5 267.5,-641.5"/>
<text text-anchor="middle" x="315" y="-648.5" font-family="Helvetica,sans-Serif" font-size="10.00">Urho3D::Skeleton</text>
</a>
</g>
</g>
<!-- Node9&#45;&gt;Node5 -->
<g id="edge8" class="edge"><title>Node9&#45;&gt;Node5</title>
<path fill="none" stroke="#9a32cd" stroke-dasharray="5,2" d="M372.79,-646.639C422.211,-641.651 495.242,-631.378 556,-611 582.361,-602.158 610.467,-586.02 627.118,-575.664"/>
<polygon fill="#9a32cd" stroke="#9a32cd" points="372.231,-643.177 362.615,-647.625 372.906,-650.145 372.231,-643.177"/>
<text text-anchor="middle" x="492" y="-643" font-family="Helvetica,sans-Serif" font-size="10.00"> skeleton_</text>
</g>
<!-- Node10 -->
<g id="node10" class="node"><title>Node10</title>
<g id="a_node10"><a xlink:href="class_urho3_d_1_1_vector_buffer.html" target="_top" xlink:title="Dynamically sized buffer that can be read and written to as a stream. ">
<polygon fill="none" stroke="red" points="259.5,-553.5 259.5,-572.5 370.5,-572.5 370.5,-553.5 259.5,-553.5"/>
<text text-anchor="middle" x="315" y="-560.5" font-family="Helvetica,sans-Serif" font-size="10.00">Urho3D::VectorBuffer</text>
</a>
</g>
</g>
<!-- Node10&#45;&gt;Node5 -->
<g id="edge9" class="edge"><title>Node10&#45;&gt;Node5</title>
<path fill="none" stroke="#9a32cd" stroke-dasharray="5,2" d="M380.748,-563.596C438.949,-564.131 523.808,-564.912 580.869,-565.437"/>
<polygon fill="#9a32cd" stroke="#9a32cd" points="380.597,-560.094 370.565,-563.502 380.532,-567.094 380.597,-560.094"/>
<text text-anchor="middle" x="492" y="-569" font-family="Helvetica,sans-Serif" font-size="10.00"> attrBuffer_</text>
</g>
<!-- Node11&#45;&gt;Node5 -->
<g id="edge10" class="edge"><title>Node11&#45;&gt;Node5</title>
<path fill="none" stroke="#9a32cd" stroke-dasharray="5,2" d="M394.591,-472.236C442.341,-481.152 503.931,-495.328 556,-516 583.128,-526.77 611.918,-545.111 628.353,-556.333"/>
<polygon fill="#9a32cd" stroke="#9a32cd" points="395.086,-468.768 384.62,-470.412 393.827,-475.654 395.086,-468.768"/>
<text text-anchor="middle" x="492" y="-519" font-family="Helvetica,sans-Serif" font-size="10.00"> geometryBoneMappings_</text>
</g>
<!-- Node12&#45;&gt;Node5 -->
<g id="edge12" class="edge"><title>Node12&#45;&gt;Node5</title>
<path fill="none" stroke="#9a32cd" stroke-dasharray="5,2" d="M419.428,-692.074C463.561,-687.29 514.371,-676.876 556,-655 592.899,-635.609 623.261,-594.497 635.803,-575.72"/>
<polygon fill="#9a32cd" stroke="#9a32cd" points="418.846,-688.615 409.244,-693.092 419.542,-695.58 418.846,-688.615"/>
<text text-anchor="middle" x="492" y="-693" font-family="Helvetica,sans-Serif" font-size="10.00"> morphVertexBuffers_</text>
</g>
<!-- Node13 -->
<g id="node13" class="node"><title>Node13</title>
<g id="a_node13"><a xlink:href="class_urho3_d_1_1_bounding_box.html" target="_top" xlink:title="Three&#45;dimensional axis&#45;aligned bounding box. ">
<polygon fill="none" stroke="black" points="258,-406.5 258,-425.5 372,-425.5 372,-406.5 258,-406.5"/>
<text text-anchor="middle" x="315" y="-413.5" font-family="Helvetica,sans-Serif" font-size="10.00">Urho3D::BoundingBox</text>
</a>
</g>
</g>
<!-- Node13&#45;&gt;Node5 -->
<g id="edge14" class="edge"><title>Node13&#45;&gt;Node5</title>
<path fill="none" stroke="#9a32cd" stroke-dasharray="5,2" d="M381.511,-427.737C391.131,-429.895 400.869,-432.323 410,-435 418.237,-437.415 419.746,-439.643 428,-442 483.656,-457.891 505.855,-437.093 556,-466 595.279,-488.643 625.244,-536.081 636.806,-556.414"/>
<polygon fill="#9a32cd" stroke="#9a32cd" points="382.073,-424.278 371.559,-425.588 380.595,-431.12 382.073,-424.278"/>
<text text-anchor="middle" x="492" y="-469" font-family="Helvetica,sans-Serif" font-size="10.00"> boneBoundingBox_</text>
</g>
<!-- Node16 -->
<g id="node16" class="node"><title>Node16</title>
<g id="a_node16"><a xlink:href="struct_urho3_d_1_1_bone.html" target="_top" xlink:title="Bone in a skeleton. ">
<polygon fill="none" stroke="black" points="887.5,-209.5 887.5,-228.5 966.5,-228.5 966.5,-209.5 887.5,-209.5"/>
<text text-anchor="middle" x="927" y="-216.5" font-family="Helvetica,sans-Serif" font-size="10.00">Urho3D::Bone</text>
</a>
</g>
</g>
<!-- Node13&#45;&gt;Node16 -->
<g id="edge32" class="edge"><title>Node13&#45;&gt;Node16</title>
<path fill="none" stroke="#9a32cd" stroke-dasharray="5,2" d="M367.849,-427.464C472.506,-447.263 710.075,-474.748 840,-351 856.197,-335.573 846.881,-323.409 858,-304 875.097,-274.156 902.254,-243.785 916.525,-228.72"/>
<polygon fill="#9a32cd" stroke="#9a32cd" points="368.329,-423.992 357.844,-425.518 366.992,-430.863 368.329,-423.992"/>
<text text-anchor="middle" x="643" y="-448" font-family="Helvetica,sans-Serif" font-size="10.00"> boundingBox_</text>
</g>
<!-- Node14 -->
<g id="node14" class="node"><title>Node14</title>
<g id="a_node14"><a xlink:href="class_urho3_d_1_1_vector3.html" target="_top" xlink:title="Three&#45;dimensional vector. ">
<polygon fill="none" stroke="black" points="9,-317.5 9,-336.5 99,-336.5 99,-317.5 9,-317.5"/>
<text text-anchor="middle" x="54" y="-324.5" font-family="Helvetica,sans-Serif" font-size="10.00">Urho3D::Vector3</text>
</a>
</g>
</g>
<!-- Node14&#45;&gt;Node13 -->
<g id="edge15" class="edge"><title>Node14&#45;&gt;Node13</title>
<path fill="none" stroke="#9a32cd" stroke-dasharray="5,2" d="M92.3194,-339.824C144.808,-357.861 239.25,-390.314 286.09,-406.409"/>
<polygon fill="#9a32cd" stroke="#9a32cd" points="93.3122,-336.464 82.7175,-336.525 91.0373,-343.084 93.3122,-336.464"/>
<text text-anchor="middle" x="164" y="-391" font-family="Helvetica,sans-Serif" font-size="10.00"> max_</text>
<text text-anchor="middle" x="164" y="-380" font-family="Helvetica,sans-Serif" font-size="10.00">min_</text>
</g>
<!-- Node14&#45;&gt;Node14 -->
<g id="edge16" class="edge"><title>Node14&#45;&gt;Node14</title>
<path fill="none" stroke="#9a32cd" stroke-dasharray="5,2" d="M33.6306,-346.4C34.991,-351.315 41.7808,-355 54,-355 73.5508,-355 79.2022,-345.565 70.9542,-336.757"/>
<polygon fill="#9a32cd" stroke="#9a32cd" points="37.0065,-347.352 37.0458,-336.757 30.4081,-345.015 37.0065,-347.352"/>
<text text-anchor="middle" x="54" y="-435" font-family="Helvetica,sans-Serif" font-size="10.00"> ONE</text>
<text text-anchor="middle" x="54" y="-424" font-family="Helvetica,sans-Serif" font-size="10.00">DOWN</text>
<text text-anchor="middle" x="54" y="-413" font-family="Helvetica,sans-Serif" font-size="10.00">BACK</text>
<text text-anchor="middle" x="54" y="-402" font-family="Helvetica,sans-Serif" font-size="10.00">RIGHT</text>
<text text-anchor="middle" x="54" y="-391" font-family="Helvetica,sans-Serif" font-size="10.00">LEFT</text>
<text text-anchor="middle" x="54" y="-380" font-family="Helvetica,sans-Serif" font-size="10.00">ZERO</text>
<text text-anchor="middle" x="54" y="-369" font-family="Helvetica,sans-Serif" font-size="10.00">FORWARD</text>
<text text-anchor="middle" x="54" y="-358" font-family="Helvetica,sans-Serif" font-size="10.00">UP</text>
</g>
<!-- Node14&#45;&gt;Node16 -->
<g id="edge23" class="edge"><title>Node14&#45;&gt;Node16</title>
<path fill="none" stroke="#9a32cd" stroke-dasharray="5,2" d="M109.453,-322.752C137.207,-320.349 171.461,-317.018 202,-313 294.943,-300.77 322.852,-312.541 410,-278 418.938,-274.457 418.939,-269.216 428,-266 470.915,-250.769 777.82,-228.945 887.312,-221.556"/>
<polygon fill="#9a32cd" stroke="#9a32cd" points="108.823,-319.292 99.1555,-323.627 109.416,-326.267 108.823,-319.292"/>
<text text-anchor="middle" x="492" y="-280" font-family="Helvetica,sans-Serif" font-size="10.00"> initialScale_</text>
<text text-anchor="middle" x="492" y="-269" font-family="Helvetica,sans-Serif" font-size="10.00">initialPosition_</text>
</g>
<!-- Node19 -->
<g id="node19" class="node"><title>Node19</title>
<g id="a_node19"><a xlink:href="class_urho3_d_1_1_node.html" target="_top" xlink:title="Scene node that may contain components and child nodes. ">
<polygon fill="none" stroke="red" points="275,-220.5 275,-239.5 355,-239.5 355,-220.5 275,-220.5"/>
<text text-anchor="middle" x="315" y="-227.5" font-family="Helvetica,sans-Serif" font-size="10.00">Urho3D::Node</text>
</a>
</g>
</g>
<!-- Node14&#45;&gt;Node19 -->
<g id="edge27" class="edge"><title>Node14&#45;&gt;Node19</title>
<path fill="none" stroke="#9a32cd" stroke-dasharray="5,2" d="M81.1457,-312.513C94.3618,-305.509 110.786,-297.281 126,-291 178.175,-269.461 240.924,-250.416 279.114,-239.553"/>
<polygon fill="#9a32cd" stroke="#9a32cd" points="79.3005,-309.531 72.1526,-317.352 82.6172,-315.696 79.3005,-309.531"/>
<text text-anchor="middle" x="164" y="-305" font-family="Helvetica,sans-Serif" font-size="10.00"> scale_</text>
<text text-anchor="middle" x="164" y="-294" font-family="Helvetica,sans-Serif" font-size="10.00">position_</text>
</g>
<!-- Node15&#45;&gt;Node5 -->
<g id="edge17" class="edge"><title>Node15&#45;&gt;Node5</title>
<path fill="none" stroke="#9a32cd" stroke-dasharray="5,2" d="M419.634,-596.471C461.975,-591.876 511.392,-586.136 556,-580 565.741,-578.66 576.08,-577.098 586.084,-575.513"/>
<polygon fill="#9a32cd" stroke="#9a32cd" points="419.161,-593.002 409.594,-597.554 419.911,-599.962 419.161,-593.002"/>
<text text-anchor="middle" x="492" y="-599" font-family="Helvetica,sans-Serif" font-size="10.00"> geometrySkinMatrixPtrs_</text>
</g>
<!-- Node16&#45;&gt;Node1 -->
<g id="edge20" class="edge"><title>Node16&#45;&gt;Node1</title>
<path fill="none" stroke="#9a32cd" stroke-dasharray="5,2" d="M959.599,-232.566C987.791,-244.872 1030.05,-263.819 1066,-282 1087.99,-293.123 1112.72,-307.152 1128.56,-316.339"/>
<polygon fill="#9a32cd" stroke="#9a32cd" points="960.813,-229.277 950.247,-228.502 958.023,-235.697 960.813,-229.277"/>
<text text-anchor="middle" x="1040" y="-285" font-family="Helvetica,sans-Serif" font-size="10.00"> startBone_</text>
</g>
<!-- Node17 -->
<g id="node17" class="node"><title>Node17</title>
<g id="a_node17"><a xlink:href="class_urho3_d_1_1_quaternion.html" target="_top" xlink:title="Rotation represented as a four&#45;dimensional normalized vector. ">
<polygon fill="none" stroke="black" points="2,-228.5 2,-247.5 106,-247.5 106,-228.5 2,-228.5"/>
<text text-anchor="middle" x="54" y="-235.5" font-family="Helvetica,sans-Serif" font-size="10.00">Urho3D::Quaternion</text>
</a>
</g>
</g>
<!-- Node17&#45;&gt;Node16 -->
<g id="edge21" class="edge"><title>Node17&#45;&gt;Node16</title>
<path fill="none" stroke="#9a32cd" stroke-dasharray="5,2" d="M95.279,-224.023C99.7738,-221.679 104.122,-219.012 108,-216 118.53,-207.821 114.074,-197.963 126,-192 156.212,-176.894 168.223,-191.761 202,-192 359.345,-193.111 398.757,-191.218 556,-197 677.056,-201.452 820.149,-211.253 887.409,-216.128"/>
<polygon fill="#9a32cd" stroke="#9a32cd" points="93.526,-220.979 85.9518,-228.387 96.4927,-227.319 93.526,-220.979"/>
<text text-anchor="middle" x="492" y="-200" font-family="Helvetica,sans-Serif" font-size="10.00"> initialRotation_</text>
</g>
<!-- Node17&#45;&gt;Node17 -->
<g id="edge22" class="edge"><title>Node17&#45;&gt;Node17</title>
<path fill="none" stroke="#9a32cd" stroke-dasharray="5,2" d="M33.6306,-257.4C34.991,-262.315 41.7808,-266 54,-266 73.5508,-266 79.2022,-256.565 70.9542,-247.757"/>
<polygon fill="#9a32cd" stroke="#9a32cd" points="37.0065,-258.352 37.0458,-247.757 30.4081,-256.015 37.0065,-258.352"/>
<text text-anchor="middle" x="54" y="-269" font-family="Helvetica,sans-Serif" font-size="10.00"> IDENTITY</text>
</g>
<!-- Node17&#45;&gt;Node19 -->
<g id="edge26" class="edge"><title>Node17&#45;&gt;Node19</title>
<path fill="none" stroke="#9a32cd" stroke-dasharray="5,2" d="M116.347,-236.105C165.408,-234.59 232.721,-232.511 274.769,-231.212"/>
<polygon fill="#9a32cd" stroke="#9a32cd" points="116.057,-232.612 106.17,-236.419 116.273,-239.609 116.057,-232.612"/>
<text text-anchor="middle" x="164" y="-250" font-family="Helvetica,sans-Serif" font-size="10.00"> worldRotation_</text>
<text text-anchor="middle" x="164" y="-239" font-family="Helvetica,sans-Serif" font-size="10.00">rotation_</text>
</g>
<!-- Node18&#45;&gt;Node1 -->
<g id="edge40" class="edge"><title>Node18&#45;&gt;Node1</title>
<path fill="none" stroke="#9a32cd" stroke-dasharray="5,2" d="M721.611,-298.957C821.618,-305.345 993.4,-316.317 1084.37,-322.127"/>
<polygon fill="#9a32cd" stroke="#9a32cd" points="721.77,-295.46 711.567,-298.316 721.324,-302.446 721.77,-295.46"/>
<text text-anchor="middle" x="927" y="-320" font-family="Helvetica,sans-Serif" font-size="10.00"> node_</text>
</g>
<!-- Node18&#45;&gt;Node16 -->
<g id="edge24" class="edge"><title>Node18&#45;&gt;Node16</title>
<path fill="none" stroke="#9a32cd" stroke-dasharray="5,2" d="M721.608,-282.236C766.441,-275.03 818.167,-265.898 840,-259 864.808,-251.162 891.753,-237.762 908.747,-228.651"/>
<polygon fill="#9a32cd" stroke="#9a32cd" points="720.895,-278.806 711.57,-283.836 721.997,-285.718 720.895,-278.806"/>
<text text-anchor="middle" x="785" y="-284" font-family="Helvetica,sans-Serif" font-size="10.00"> node_</text>
</g>
<!-- Node19&#45;&gt;Node18 -->
<g id="edge25" class="edge"><title>Node19&#45;&gt;Node18</title>
<path fill="none" stroke="#9a32cd" stroke-dasharray="5,2" d="M365.264,-219.517C414.907,-211.154 492.976,-204.094 556,-226 586.025,-236.436 613.474,-262.194 628.931,-278.842"/>
<polygon fill="#9a32cd" stroke="#9a32cd" points="364.356,-216.123 355.118,-221.311 365.575,-223.016 364.356,-216.123"/>
<text text-anchor="middle" x="492" y="-229" font-family="Helvetica,sans-Serif" font-size="10.00"> ptr_</text>
</g>
<!-- Node19&#45;&gt;Node19 -->
<g id="edge28" class="edge"><title>Node19&#45;&gt;Node19</title>
<path fill="none" stroke="#9a32cd" stroke-dasharray="5,2" d="M287.001,-248.654C288.171,-253.937 297.504,-258 315,-258 341.66,-258 349.367,-248.565 338.119,-239.757"/>
<polygon fill="#9a32cd" stroke="#9a32cd" points="290.14,-250.208 291.881,-239.757 284.003,-246.842 290.14,-250.208"/>
<text text-anchor="middle" x="315" y="-261" font-family="Helvetica,sans-Serif" font-size="10.00"> parent_</text>
</g>
<!-- Node20 -->
<g id="node20" class="node"><title>Node20</title>
<g id="a_node20"><a xlink:href="class_urho3_d_1_1_matrix3x4.html" target="_top" xlink:title="3x4 matrix for scene node transform calculations. ">
<polygon fill="none" stroke="black" points="4.5,-147.5 4.5,-166.5 103.5,-166.5 103.5,-147.5 4.5,-147.5"/>
<text text-anchor="middle" x="54" y="-154.5" font-family="Helvetica,sans-Serif" font-size="10.00">Urho3D::Matrix3x4</text>
</a>
</g>
</g>
<!-- Node20&#45;&gt;Node16 -->
<g id="edge37" class="edge"><title>Node20&#45;&gt;Node16</title>
<path fill="none" stroke="#9a32cd" stroke-dasharray="5,2" d="M113.708,-157.137C244.685,-158.146 570.455,-164.569 840,-202 855.527,-204.156 872.481,-207.329 887.201,-210.352"/>
<polygon fill="#9a32cd" stroke="#9a32cd" points="113.525,-153.635 103.501,-157.066 113.476,-160.635 113.525,-153.635"/>
<text text-anchor="middle" x="492" y="-177" font-family="Helvetica,sans-Serif" font-size="10.00"> offsetMatrix_</text>
</g>
<!-- Node20&#45;&gt;Node19 -->
<g id="edge29" class="edge"><title>Node20&#45;&gt;Node19</title>
<path fill="none" stroke="#9a32cd" stroke-dasharray="5,2" d="M98.6424,-169.301C149.831,-183.728 233.593,-207.337 280.132,-220.454"/>
<polygon fill="#9a32cd" stroke="#9a32cd" points="99.4342,-165.888 88.8597,-166.543 97.5352,-172.625 99.4342,-165.888"/>
<text text-anchor="middle" x="164" y="-201" font-family="Helvetica,sans-Serif" font-size="10.00"> worldTransform_</text>
</g>
<!-- Node20&#45;&gt;Node20 -->
<g id="edge30" class="edge"><title>Node20&#45;&gt;Node20</title>
<path fill="none" stroke="#9a32cd" stroke-dasharray="5,2" d="M33.6306,-176.4C34.991,-181.315 41.7808,-185 54,-185 73.5508,-185 79.2022,-175.565 70.9542,-166.757"/>
<polygon fill="#9a32cd" stroke="#9a32cd" points="37.0065,-177.352 37.0458,-166.757 30.4081,-175.015 37.0065,-177.352"/>
<text text-anchor="middle" x="54" y="-199" font-family="Helvetica,sans-Serif" font-size="10.00"> IDENTITY</text>
<text text-anchor="middle" x="54" y="-188" font-family="Helvetica,sans-Serif" font-size="10.00">ZERO</text>
</g>
<!-- Node21 -->
<g id="node21" class="node"><title>Node21</title>
<g id="a_node21"><a xlink:href="class_urho3_d_1_1_string.html" target="_top" xlink:title="String class. ">
<polygon fill="none" stroke="black" points="274,-73.5 274,-92.5 356,-92.5 356,-73.5 274,-73.5"/>
<text text-anchor="middle" x="315" y="-80.5" font-family="Helvetica,sans-Serif" font-size="10.00">Urho3D::String</text>
</a>
</g>
</g>
<!-- Node21&#45;&gt;Node16 -->
<g id="edge33" class="edge"><title>Node21&#45;&gt;Node16</title>
<path fill="none" stroke="#9a32cd" stroke-dasharray="5,2" d="M366.624,-84.3621C481.089,-88.0873 756.351,-100.853 840,-139 875.437,-155.161 905.868,-191.739 919.036,-209.272"/>
<polygon fill="#9a32cd" stroke="#9a32cd" points="366.49,-80.8563 356.385,-84.0392 366.269,-87.8528 366.49,-80.8563"/>
<text text-anchor="middle" x="643" y="-113" font-family="Helvetica,sans-Serif" font-size="10.00"> name_</text>
</g>
<!-- Node21&#45;&gt;Node21 -->
<g id="edge34" class="edge"><title>Node21&#45;&gt;Node21</title>
<path fill="none" stroke="#9a32cd" stroke-dasharray="5,2" d="M287.001,-101.654C288.171,-106.937 297.504,-111 315,-111 341.66,-111 349.367,-101.565 338.119,-92.7571"/>
<polygon fill="#9a32cd" stroke="#9a32cd" points="290.14,-103.208 291.881,-92.7571 284.003,-99.8417 290.14,-103.208"/>
<text text-anchor="middle" x="315" y="-114" font-family="Helvetica,sans-Serif" font-size="10.00"> EMPTY</text>
</g>
<!-- Node25 -->
<g id="node25" class="node"><title>Node25</title>
<g id="a_node25"><a xlink:href="class_urho3_d_1_1_animation.html" target="_top" xlink:title="Skeletal animation resource. ">
<polygon fill="none" stroke="red" points="593,-11.5 593,-30.5 693,-30.5 693,-11.5 593,-11.5"/>
<text text-anchor="middle" x="643" y="-18.5" font-family="Helvetica,sans-Serif" font-size="10.00">Urho3D::Animation</text>
</a>
</g>
</g>
<!-- Node21&#45;&gt;Node25 -->
<g id="edge43" class="edge"><title>Node21&#45;&gt;Node25</title>
<path fill="none" stroke="#9a32cd" stroke-dasharray="5,2" d="M366.182,-73.4561C427.784,-61.7404 531.583,-41.9996 592.754,-30.3658"/>
<polygon fill="#9a32cd" stroke="#9a32cd" points="365.471,-70.0286 356.301,-75.3354 366.779,-76.9053 365.471,-70.0286"/>
<text text-anchor="middle" x="492" y="-65" font-family="Helvetica,sans-Serif" font-size="10.00"> animationName_</text>
</g>
<!-- Node22 -->
<g id="node22" class="node"><title>Node22</title>
<g id="a_node22"><a xlink:href="class_urho3_d_1_1_string_hash.html" target="_top" xlink:title="32&#45;bit hash value for a string. ">
<polygon fill="none" stroke="black" points="262.5,-0.5 262.5,-19.5 367.5,-19.5 367.5,-0.5 262.5,-0.5"/>
<text text-anchor="middle" x="315" y="-7.5" font-family="Helvetica,sans-Serif" font-size="10.00">Urho3D::StringHash</text>
</a>
</g>
</g>
<!-- Node22&#45;&gt;Node16 -->
<g id="edge35" class="edge"><title>Node22&#45;&gt;Node16</title>
<path fill="none" stroke="#9a32cd" stroke-dasharray="5,2" d="M345.325,-23.7568C367.528,-33.5511 399.045,-46.1463 428,-53 607.826,-95.5652 691.433,0.895987 840,-109 853.119,-118.704 848.589,-127.669 858,-141 876.649,-167.418 902.691,-195.248 916.51,-209.443"/>
<polygon fill="#9a32cd" stroke="#9a32cd" points="346.675,-20.5263 336.119,-19.6204 343.806,-26.9114 346.675,-20.5263"/>
<text text-anchor="middle" x="643" y="-66" font-family="Helvetica,sans-Serif" font-size="10.00"> nameHash_</text>
</g>
<!-- Node22&#45;&gt;Node22 -->
<g id="edge36" class="edge"><title>Node22&#45;&gt;Node22</title>
<path fill="none" stroke="#9a32cd" stroke-dasharray="5,2" d="M287.001,-28.6539C288.171,-33.9368 297.504,-38 315,-38 341.66,-38 349.367,-28.5653 338.119,-19.7571"/>
<polygon fill="#9a32cd" stroke="#9a32cd" points="290.14,-30.208 291.881,-19.7571 284.003,-26.8417 290.14,-30.208"/>
<text text-anchor="middle" x="315" y="-41" font-family="Helvetica,sans-Serif" font-size="10.00"> ZERO</text>
</g>
<!-- Node22&#45;&gt;Node25 -->
<g id="edge44" class="edge"><title>Node22&#45;&gt;Node25</title>
<path fill="none" stroke="#9a32cd" stroke-dasharray="5,2" d="M377.612,-6.66983C426.147,-4.72613 495.485,-3.45202 556,-8 567.896,-8.89401 580.639,-10.4742 592.575,-12.232"/>
<polygon fill="#9a32cd" stroke="#9a32cd" points="377.425,-3.17451 367.581,-7.09291 377.72,-10.1683 377.425,-3.17451"/>
<text text-anchor="middle" x="492" y="-11" font-family="Helvetica,sans-Serif" font-size="10.00"> animationNameHash_</text>
</g>
<!-- Node23&#45;&gt;Node1 -->
<g id="edge38" class="edge"><title>Node23&#45;&gt;Node1</title>
<path fill="none" stroke="#9a32cd" stroke-dasharray="5,2" d="M530.518,-752.908C538.985,-748.166 547.871,-743.024 556,-738 789.633,-593.595 845.151,-552.288 1066,-389 1090.54,-370.853 1118.22,-348.27 1133.43,-335.665"/>
<polygon fill="#9a32cd" stroke="#9a32cd" points="528.603,-749.967 521.549,-757.871 531.993,-756.091 528.603,-749.967"/>
<text text-anchor="middle" x="785" y="-630" font-family="Helvetica,sans-Serif" font-size="10.00"> stateTracks_</text>
</g>
<!-- Node24 -->
<g id="node24" class="node"><title>Node24</title>
<g id="a_node24"><a xlink:href="class_urho3_d_1_1_shared_ptr.html" target="_top" xlink:title="Urho3D::SharedPtr\&lt;\l Urho3D::Animation \&gt;">
<polygon fill="none" stroke="black" points="871,-102 871,-132 983,-132 983,-102 871,-102"/>
<text text-anchor="start" x="879" y="-120" font-family="Helvetica,sans-Serif" font-size="10.00">Urho3D::SharedPtr&lt;</text>
<text text-anchor="middle" x="927" y="-109" font-family="Helvetica,sans-Serif" font-size="10.00"> Urho3D::Animation &gt;</text>
</a>
</g>
</g>
<!-- Node24&#45;&gt;Node1 -->
<g id="edge41" class="edge"><title>Node24&#45;&gt;Node1</title>
<path fill="none" stroke="#9a32cd" stroke-dasharray="5,2" d="M953.022,-139.204C980.994,-164.215 1027.43,-206.301 1066,-244 1092.01,-269.424 1121.44,-300.662 1135.94,-316.223"/>
<polygon fill="#9a32cd" stroke="#9a32cd" points="955.095,-136.363 945.303,-132.317 950.435,-141.587 955.095,-136.363"/>
<text text-anchor="middle" x="1040" y="-247" font-family="Helvetica,sans-Serif" font-size="10.00"> animation_</text>
</g>
<!-- Node25&#45;&gt;Node24 -->
<g id="edge42" class="edge"><title>Node25&#45;&gt;Node24</title>
<path fill="none" stroke="#9a32cd" stroke-dasharray="5,2" d="M703.368,-18.2217C743.516,-18.4968 796.872,-23.1547 840,-42 870.861,-55.4849 898.659,-84.1336 913.853,-101.86"/>
<polygon fill="#9a32cd" stroke="#9a32cd" points="703.192,-14.722 693.199,-18.243 703.207,-21.7219 703.192,-14.722"/>
<text text-anchor="middle" x="785" y="-45" font-family="Helvetica,sans-Serif" font-size="10.00"> ptr_</text>
</g>
</g>
</svg>
        <g id="navigator" transform="translate(0 0)" fill="#404254">
                <rect fill="#f2f5e9" fill-opacity="0.5" stroke="#606060" stroke-width=".5" x="0" y="0" width="60" height="60"/>
                <use id="zoomplus" xlink:href="#zoomPlus" x="17" y="9" onmousedown="handleZoom(evt,'in')"/>
                <use id="zoomminus" xlink:href="#zoomMin" x="42" y="9" onmousedown="handleZoom(evt,'out')"/>
                <use id="reset" xlink:href="#resetDef" x="30" y="36" onmousedown="handleReset()"/>
                <g id="arrowUp" xlink:href="#dirArrow" transform="translate(30 24)" onmousedown="handlePan(0,-1)">
                  <use xlink:href="#rim" fill="#404040">
                        <set attributeName="fill" to="#808080" begin="arrowUp.mouseover" end="arrowUp.mouseout"/>
                  </use>
                  <path fill="none" stroke="white" stroke-width="1.5" d="M0,-3.0v7 M-2.5,-0.5L0,-3.0L2.5,-0.5"/>
                </g>
                <g id="arrowRight" xlink:href="#dirArrow" transform="rotate(90) translate(36 -43)" onmousedown="handlePan(1,0)">
                  <use xlink:href="#rim" fill="#404040">
                        <set attributeName="fill" to="#808080" begin="arrowRight.mouseover" end="arrowRight.mouseout"/>
                  </use>
                  <path fill="none" stroke="white" stroke-width="1.5" d="M0,-3.0v7 M-2.5,-0.5L0,-3.0L2.5,-0.5"/>
                </g>
                <g id="arrowDown" xlink:href="#dirArrow" transform="rotate(180) translate(-30 -48)" onmousedown="handlePan(0,1)">
                  <use xlink:href="#rim" fill="#404040">
                        <set attributeName="fill" to="#808080" begin="arrowDown.mouseover" end="arrowDown.mouseout"/>
                  </use>
                  <path fill="none" stroke="white" stroke-width="1.5" d="M0,-3.0v7 M-2.5,-0.5L0,-3.0L2.5,-0.5"/>
                </g>
                <g id="arrowLeft" xlink:href="#dirArrow" transform="rotate(270) translate(-36 17)" onmousedown="handlePan(-1,0)">
                  <use xlink:href="#rim" fill="#404040">
                        <set attributeName="fill" to="#808080" begin="arrowLeft.mouseover" end="arrowLeft.mouseout"/>
                  </use>
                  <path fill="none" stroke="white" stroke-width="1.5" d="M0,-3.0v7 M-2.5,-0.5L0,-3.0L2.5,-0.5"/>
                </g>
        </g>
        <svg viewBox="0 0 15 15" width="100%" height="30px" preserveAspectRatio="xMaxYMin meet">
         <g id="arrow_out" transform="scale(0.3 0.3)">
          <a xlink:href="class_urho3_d_1_1_animation_state__coll__graph_org.svg" target="_base">
           <rect id="button" ry="5" rx="5" y="6" x="6" height="38" width="38"
                fill="#f2f5e9" fill-opacity="0.5" stroke="#606060" stroke-width="1.0"/>
           <path id="arrow"
             d="M 11.500037,31.436501 C 11.940474,20.09759 22.043105,11.32322 32.158766,21.979434 L 37.068811,17.246167 C 37.068811,17.246167 37.088388,32 37.088388,32 L 22.160133,31.978069 C 22.160133,31.978069 26.997745,27.140456 26.997745,27.140456 C 18.528582,18.264221 13.291696,25.230495 11.500037,31.436501 z"
             style="fill:#404040;"/>
          </a>
         </g>
        </svg>
</svg>
