<?xml version="1.0" encoding="UTF-8" standalone="no"?>
<!DOCTYPE svg PUBLIC "-//W3C//DTD SVG 1.1//EN"
 "http://www.w3.org/Graphics/SVG/1.1/DTD/svg11.dtd">
<!-- Generated by graphviz version 2.43.0 (0)
 -->
<!-- Title: Urho3D::ValueAnimationInfo Pages: 1 -->
<!--zoomable 992 -->
<svg id="main" version="1.1" xmlns="http://www.w3.org/2000/svg" xmlns:xlink="http://www.w3.org/1999/xlink" xml:space="preserve" onload="init(evt)">
<style type="text/css"><![CDATA[
.edge:hover path { stroke: red; }
.edge:hover polygon { stroke: red; fill: red; }
]]></style>
<script type="text/javascript"><![CDATA[
var edges = document.getElementsByTagName('g');
if (edges && edges.length) {
  for (var i=0;i<edges.length;i++) {
    if (edges[i].id.substr(0,4)=='edge') {
      edges[i].setAttribute('class','edge');
    }
  }
}
]]></script>
        <defs>
                <circle id="rim" cx="0" cy="0" r="7"/>
                <circle id="rim2" cx="0" cy="0" r="3.5"/>
                <g id="zoomPlus">
                        <use xlink:href="#rim" fill="#404040">
                                <set attributeName="fill" to="#808080" begin="zoomplus.mouseover" end="zoomplus.mouseout"/>
                        </use>
                        <path d="M-4,0h8M0,-4v8" fill="none" stroke="white" stroke-width="1.5" pointer-events="none"/>
                </g>
                <g id="zoomMin">
                        <use xlink:href="#rim" fill="#404040">
                                <set attributeName="fill" to="#808080" begin="zoomminus.mouseover" end="zoomminus.mouseout"/>
                        </use>
                        <path d="M-4,0h8" fill="none" stroke="white" stroke-width="1.5" pointer-events="none"/>
                </g>
                <g id="dirArrow">
                        <path fill="none" stroke="white" stroke-width="1.5" d="M0,-3.0v7 M-2.5,-0.5L0,-3.0L2.5,-0.5"/>
                </g>
               <g id="resetDef">
                       <use xlink:href="#rim2" fill="#404040">
                               <set attributeName="fill" to="#808080" begin="reset.mouseover" end="reset.mouseout"/>
                       </use>
               </g>
        </defs>

<script type="text/javascript">
var viewWidth = 1620;
var viewHeight = 992;
var sectionId = 'dynsection-1';
</script>
<script xlink:href="svgpan.js"/>
<svg id="graph" class="graph">
<g id="viewport">
<title>Urho3D::ValueAnimationInfo</title>
<!-- Node1 -->
<g id="node1" class="node">
<title>Node1</title>
<g id="a_node1"><a xlink:title="Base class for a value animation instance, which includes animation runtime information and updates t...">
<polygon fill="#bfbfbf" stroke="black" points="1457,-901.5 1457,-920.5 1612,-920.5 1612,-901.5 1457,-901.5"/>
<text text-anchor="middle" x="1534.5" y="-908.5" font-family="Helvetica,sans-Serif" font-size="10.00">Urho3D::ValueAnimationInfo</text>
</a>
</g>
</g>
<!-- Node2 -->
<g id="node2" class="node">
<title>Node2</title>
<g id="a_node2"><a xlink:href="class_urho3_d_1_1_ref_counted.html" target="_top" xlink:title="Base class for intrusively reference&#45;counted objects. These are noncopyable and non&#45;assignable.">
<polygon fill="none" stroke="black" points="191,-878.5 191,-897.5 307,-897.5 307,-878.5 191,-878.5"/>
<text text-anchor="middle" x="249" y="-885.5" font-family="Helvetica,sans-Serif" font-size="10.00">Urho3D::RefCounted</text>
</a>
</g>
</g>
<!-- Node2&#45;&gt;Node1 -->
<g id="edge1" class="edge">
<title>Node2&#45;&gt;Node1</title>
<path fill="none" stroke="midnightblue" d="M274.47,-902.79C309.51,-922.52 376.59,-955 438.5,-955 438.5,-955 438.5,-955 1288.5,-955 1365.86,-955 1454.82,-933.49 1501.33,-920.55"/>
<polygon fill="midnightblue" stroke="midnightblue" points="275.88,-899.56 265.47,-897.6 272.39,-905.63 275.88,-899.56"/>
</g>
<!-- Node5 -->
<g id="node5" class="node">
<title>Node5</title>
<g id="a_node5"><a xlink:href="class_urho3_d_1_1_object.html" target="_top" xlink:title=" ">
<polygon fill="none" stroke="black" points="394,-831.5 394,-850.5 485,-850.5 485,-831.5 394,-831.5"/>
<text text-anchor="middle" x="439.5" y="-838.5" font-family="Helvetica,sans-Serif" font-size="10.00">Urho3D::Object</text>
</a>
</g>
</g>
<!-- Node2&#45;&gt;Node5 -->
<g id="edge5" class="edge">
<title>Node2&#45;&gt;Node5</title>
<path fill="none" stroke="midnightblue" d="M298.07,-876.01C329.72,-868.12 370.61,-857.93 400.09,-850.58"/>
<polygon fill="midnightblue" stroke="midnightblue" points="297,-872.67 288.15,-878.49 298.7,-879.47 297,-872.67"/>
</g>
<!-- Node6 -->
<g id="node6" class="node">
<title>Node6</title>
<g id="a_node6"><a xlink:href="class_urho3_d_1_1_context.html" target="_top" xlink:title="Urho3D execution context. Provides access to subsystems, object factories and attributes,...">
<polygon fill="none" stroke="black" points="1015,-520.5 1015,-539.5 1113,-539.5 1113,-520.5 1015,-520.5"/>
<text text-anchor="middle" x="1064" y="-527.5" font-family="Helvetica,sans-Serif" font-size="10.00">Urho3D::Context</text>
</a>
</g>
</g>
<!-- Node2&#45;&gt;Node6 -->
<g id="edge7" class="edge">
<title>Node2&#45;&gt;Node6</title>
<path fill="none" stroke="midnightblue" d="M265.61,-870.76C309.32,-823.71 438.79,-692.71 576,-634 682.15,-588.57 719.69,-618.19 833,-596 895.41,-583.78 911.04,-580.13 972,-562 994.47,-555.32 1019.58,-546.37 1037.72,-539.64"/>
<polygon fill="midnightblue" stroke="midnightblue" points="262.87,-868.56 258.68,-878.29 268.02,-873.3 262.87,-868.56"/>
</g>
<!-- Node3 -->
<g id="node3" class="node">
<title>Node3</title>
<g id="a_node3"><a xlink:href="struct_urho3_d_1_1_ref_count.html" target="_top" xlink:title="Reference count structure.">
<polygon fill="none" stroke="black" points="0,-964.5 0,-983.5 104,-983.5 104,-964.5 0,-964.5"/>
<text text-anchor="middle" x="52" y="-971.5" font-family="Helvetica,sans-Serif" font-size="10.00">Urho3D::RefCount</text>
</a>
</g>
</g>
<!-- Node3&#45;&gt;Node2 -->
<g id="edge2" class="edge">
<title>Node3&#45;&gt;Node2</title>
<path fill="none" stroke="#9a32cd" stroke-dasharray="5,2" d="M83.83,-960.4C123.55,-942.89 191.6,-912.87 226.29,-897.57"/>
<polygon fill="#9a32cd" stroke="#9a32cd" points="82.35,-957.23 74.61,-964.47 85.18,-963.63 82.35,-957.23"/>
<text text-anchor="middle" x="147.5" y="-944" font-family="Helvetica,sans-Serif" font-size="10.00"> refCount_</text>
</g>
<!-- Node4 -->
<g id="node4" class="node">
<title>Node4</title>
<g id="a_node4"><a xlink:href="class_urho3_d_1_1_weak_ptr.html" target="_top" xlink:title=" ">
<polygon fill="none" stroke="black" points="630.5,-896 630.5,-926 778.5,-926 778.5,-896 630.5,-896"/>
<text text-anchor="start" x="638.5" y="-914" font-family="Helvetica,sans-Serif" font-size="10.00">Urho3D::WeakPtr&lt; Urho3D</text>
<text text-anchor="middle" x="704.5" y="-903" font-family="Helvetica,sans-Serif" font-size="10.00">::Object &gt;</text>
</a>
</g>
</g>
<!-- Node3&#45;&gt;Node4 -->
<g id="edge21" class="edge">
<title>Node3&#45;&gt;Node4</title>
<path fill="none" stroke="#9a32cd" stroke-dasharray="5,2" d="M114.13,-975.95C179.21,-977.35 285.12,-977.69 376,-969 467.11,-960.28 570.94,-940.13 636.82,-926.04"/>
<polygon fill="#9a32cd" stroke="#9a32cd" points="114.13,-972.45 104.05,-975.72 113.96,-979.45 114.13,-972.45"/>
<text text-anchor="middle" x="350.5" y="-975" font-family="Helvetica,sans-Serif" font-size="10.00"> refCount_</text>
</g>
<!-- Node4&#45;&gt;Node1 -->
<g id="edge3" class="edge">
<title>Node4&#45;&gt;Node1</title>
<path fill="none" stroke="#9a32cd" stroke-dasharray="5,2" d="M788.94,-911C949.95,-911 1301.29,-911 1456.81,-911"/>
<polygon fill="#9a32cd" stroke="#9a32cd" points="788.62,-907.5 778.62,-911 788.62,-914.5 788.62,-907.5"/>
<text text-anchor="middle" x="1175" y="-914" font-family="Helvetica,sans-Serif" font-size="10.00"> target_</text>
</g>
<!-- Node5&#45;&gt;Node4 -->
<g id="edge4" class="edge">
<title>Node5&#45;&gt;Node4</title>
<path fill="none" stroke="#9a32cd" stroke-dasharray="5,2" d="M460.82,-856.63C472.54,-864.87 487.9,-874.39 503,-880 543.61,-895.08 591.48,-902.83 630.26,-906.81"/>
<polygon fill="#9a32cd" stroke="#9a32cd" points="462.78,-853.73 452.64,-850.68 458.66,-859.39 462.78,-853.73"/>
<text text-anchor="middle" x="530.5" y="-898" font-family="Helvetica,sans-Serif" font-size="10.00"> ptr_</text>
</g>
<!-- Node15 -->
<g id="node10" class="node">
<title>Node15</title>
<g id="a_node10"><a xlink:href="class_urho3_d_1_1_event_handler.html" target="_top" xlink:title="Internal helper class for invoking event handler functions.">
<polygon fill="none" stroke="red" points="642,-810.5 642,-829.5 767,-829.5 767,-810.5 642,-810.5"/>
<text text-anchor="middle" x="704.5" y="-817.5" font-family="Helvetica,sans-Serif" font-size="10.00">Urho3D::EventHandler</text>
</a>
</g>
</g>
<!-- Node5&#45;&gt;Node15 -->
<g id="edge12" class="edge">
<title>Node5&#45;&gt;Node15</title>
<path fill="none" stroke="#9a32cd" stroke-dasharray="5,2" d="M495.26,-830.96C497.87,-830.61 500.46,-830.29 503,-830 549.41,-824.78 602.17,-822.28 641.91,-821.09"/>
<polygon fill="#9a32cd" stroke="#9a32cd" points="494.51,-827.53 485.13,-832.45 495.53,-834.46 494.51,-827.53"/>
<text text-anchor="middle" x="530.5" y="-844" font-family="Helvetica,sans-Serif" font-size="10.00"> sender_</text>
<text text-anchor="middle" x="530.5" y="-833" font-family="Helvetica,sans-Serif" font-size="10.00">receiver_</text>
</g>
<!-- Node27 -->
<g id="node20" class="node">
<title>Node27</title>
<g id="a_node20"><a xlink:href="class_urho3_d_1_1_resource.html" target="_top" xlink:title=" ">
<polygon fill="none" stroke="red" points="652.5,-19.5 652.5,-38.5 756.5,-38.5 756.5,-19.5 652.5,-19.5"/>
<text text-anchor="middle" x="704.5" y="-26.5" font-family="Helvetica,sans-Serif" font-size="10.00">Urho3D::Resource</text>
</a>
</g>
</g>
<!-- Node5&#45;&gt;Node27 -->
<g id="edge25" class="edge">
<title>Node5&#45;&gt;Node27</title>
<path fill="none" stroke="midnightblue" d="M440.89,-821.09C443.49,-709.38 461.97,-161.46 576,-49 595.7,-29.57 626.07,-24.23 652.22,-23.91"/>
<polygon fill="midnightblue" stroke="midnightblue" points="437.38,-821.2 440.67,-831.27 444.38,-821.35 437.38,-821.2"/>
</g>
<!-- Node6&#45;&gt;Node5 -->
<g id="edge6" class="edge">
<title>Node6&#45;&gt;Node5</title>
<path fill="none" stroke="#9a32cd" stroke-dasharray="5,2" d="M1060.98,-549.61C1055.43,-592.41 1035.85,-694.16 972,-742 901.06,-795.15 662.1,-768.9 576,-790 534.01,-800.29 487.28,-819.77 461.13,-831.45"/>
<polygon fill="#9a32cd" stroke="#9a32cd" points="1064.46,-549.97 1062.15,-539.63 1057.51,-549.16 1064.46,-549.97"/>
<text text-anchor="middle" x="704.5" y="-793" font-family="Helvetica,sans-Serif" font-size="10.00"> context_</text>
</g>
<!-- Node7 -->
<g id="node7" class="node">
<title>Node7</title>
<g id="a_node7"><a xlink:href="class_urho3_d_1_1_hash_map.html" target="_top" xlink:title=" ">
<polygon fill="none" stroke="red" points="576,-365 576,-417 833,-417 833,-365 576,-365"/>
<text text-anchor="start" x="584" y="-405" font-family="Helvetica,sans-Serif" font-size="10.00">Urho3D::HashMap&lt; Urho3D</text>
<text text-anchor="start" x="584" y="-394" font-family="Helvetica,sans-Serif" font-size="10.00">::Object *, Urho3D::HashMap</text>
<text text-anchor="start" x="584" y="-383" font-family="Helvetica,sans-Serif" font-size="10.00">&lt; Urho3D::StringHash, Urho3D</text>
<text text-anchor="middle" x="704.5" y="-372" font-family="Helvetica,sans-Serif" font-size="10.00">::SharedPtr&lt; Urho3D::EventReceiverGroup &gt; &gt; &gt;</text>
</a>
</g>
</g>
<!-- Node7&#45;&gt;Node6 -->
<g id="edge8" class="edge">
<title>Node7&#45;&gt;Node6</title>
<path fill="none" stroke="#9a32cd" stroke-dasharray="5,2" d="M843.07,-413.14C885.77,-423.12 932.07,-437.24 972,-457 1005.77,-473.71 1038.5,-504.67 1053.88,-520.36"/>
<polygon fill="#9a32cd" stroke="#9a32cd" points="843.7,-409.69 833.17,-410.88 842.14,-416.52 843.7,-409.69"/>
<text text-anchor="middle" x="911.5" y="-460" font-family="Helvetica,sans-Serif" font-size="10.00"> specificEventReceivers_</text>
</g>
<!-- Node12 -->
<g id="node8" class="node">
<title>Node12</title>
<g id="a_node8"><a xlink:href="class_urho3_d_1_1_hash_map.html" target="_top" xlink:title=" ">
<polygon fill="none" stroke="red" points="610.5,-534 610.5,-586 798.5,-586 798.5,-534 610.5,-534"/>
<text text-anchor="start" x="618.5" y="-574" font-family="Helvetica,sans-Serif" font-size="10.00">Urho3D::HashMap&lt; Urho3D</text>
<text text-anchor="start" x="618.5" y="-563" font-family="Helvetica,sans-Serif" font-size="10.00">::StringHash, Urho3D::</text>
<text text-anchor="start" x="618.5" y="-552" font-family="Helvetica,sans-Serif" font-size="10.00">SharedPtr&lt; Urho3D::EventReceiver</text>
<text text-anchor="middle" x="704.5" y="-541" font-family="Helvetica,sans-Serif" font-size="10.00">Group &gt; &gt;</text>
</a>
</g>
</g>
<!-- Node12&#45;&gt;Node6 -->
<g id="edge9" class="edge">
<title>Node12&#45;&gt;Node6</title>
<path fill="none" stroke="#9a32cd" stroke-dasharray="5,2" d="M809.27,-551.29C877.13,-545.6 962.61,-538.42 1015,-534.03"/>
<polygon fill="#9a32cd" stroke="#9a32cd" points="808.63,-547.83 798.96,-552.16 809.22,-554.81 808.63,-547.83"/>
<text text-anchor="middle" x="911.5" y="-550" font-family="Helvetica,sans-Serif" font-size="10.00"> eventReceivers_</text>
</g>
<!-- Node13 -->
<g id="node9" class="node">
<title>Node13</title>
<g id="a_node9"><a xlink:href="class_urho3_d_1_1_p_o_d_vector.html" target="_top" xlink:title=" ">
<polygon fill="none" stroke="red" points="645,-485 645,-515 764,-515 764,-485 645,-485"/>
<text text-anchor="start" x="653" y="-503" font-family="Helvetica,sans-Serif" font-size="10.00">Urho3D::PODVector&lt;</text>
<text text-anchor="middle" x="704.5" y="-492" font-family="Helvetica,sans-Serif" font-size="10.00"> Urho3D::Object * &gt;</text>
</a>
</g>
</g>
<!-- Node13&#45;&gt;Node6 -->
<g id="edge10" class="edge">
<title>Node13&#45;&gt;Node6</title>
<path fill="none" stroke="#9a32cd" stroke-dasharray="5,2" d="M774.27,-505.77C844.9,-511.7 953,-520.77 1014.94,-525.97"/>
<polygon fill="#9a32cd" stroke="#9a32cd" points="774.39,-502.27 764.13,-504.92 773.81,-509.24 774.39,-502.27"/>
<text text-anchor="middle" x="911.5" y="-524" font-family="Helvetica,sans-Serif" font-size="10.00"> eventSenders_</text>
</g>
<!-- Node15&#45;&gt;Node6 -->
<g id="edge11" class="edge">
<title>Node15&#45;&gt;Node6</title>
<path fill="none" stroke="#9a32cd" stroke-dasharray="5,2" d="M777.53,-818.53C846.08,-815.69 942.96,-807.51 972,-784 1052.28,-719.01 1061.78,-577.54 1062.87,-539.55"/>
<polygon fill="#9a32cd" stroke="#9a32cd" points="777.07,-815.04 767.21,-818.92 777.34,-822.04 777.07,-815.04"/>
<text text-anchor="middle" x="911.5" y="-815" font-family="Helvetica,sans-Serif" font-size="10.00"> eventHandler_</text>
</g>
<!-- Node24 -->
<g id="node17" class="node">
<title>Node24</title>
<g id="a_node17"><a xlink:href="class_urho3_d_1_1_linked_list.html" target="_top" xlink:title=" ">
<polygon fill="none" stroke="black" points="990,-838 990,-868 1138,-868 1138,-838 990,-838"/>
<text text-anchor="start" x="998" y="-856" font-family="Helvetica,sans-Serif" font-size="10.00">Urho3D::LinkedList</text>
<text text-anchor="middle" x="1064" y="-845" font-family="Helvetica,sans-Serif" font-size="10.00">&lt; Urho3D::EventHandler &gt;</text>
</a>
</g>
</g>
<!-- Node15&#45;&gt;Node24 -->
<g id="edge20" class="edge">
<title>Node15&#45;&gt;Node24</title>
<path fill="none" stroke="#9a32cd" stroke-dasharray="5,2" d="M777.35,-824.64C831.04,-828.35 906.2,-834.07 972,-841 977.71,-841.6 983.61,-842.27 989.53,-842.98"/>
<polygon fill="#9a32cd" stroke="#9a32cd" points="777.46,-821.14 767.24,-823.94 776.98,-828.12 777.46,-821.14"/>
<text text-anchor="middle" x="911.5" y="-844" font-family="Helvetica,sans-Serif" font-size="10.00"> head_</text>
</g>
<!-- Node18 -->
<g id="node11" class="node">
<title>Node18</title>
<g id="a_node11"><a xlink:href="class_urho3_d_1_1_hash_map.html" target="_top" xlink:title=" ">
<polygon fill="none" stroke="red" points="618,-436 618,-466 791,-466 791,-436 618,-436"/>
<text text-anchor="start" x="626" y="-454" font-family="Helvetica,sans-Serif" font-size="10.00">Urho3D::HashMap&lt; StringHash,</text>
<text text-anchor="middle" x="704.5" y="-443" font-family="Helvetica,sans-Serif" font-size="10.00"> Variant &gt;</text>
</a>
</g>
</g>
<!-- Node18&#45;&gt;Node6 -->
<g id="edge13" class="edge">
<title>Node18&#45;&gt;Node6</title>
<path fill="none" stroke="#9a32cd" stroke-dasharray="5,2" d="M801.3,-463.34C852.43,-470.98 916.16,-482.18 972,-497 995.71,-503.29 1021.98,-513.14 1040.17,-520.44"/>
<polygon fill="#9a32cd" stroke="#9a32cd" points="801.65,-459.86 791.24,-461.86 800.63,-466.78 801.65,-459.86"/>
<text text-anchor="middle" x="911.5" y="-500" font-family="Helvetica,sans-Serif" font-size="10.00"> globalVars_</text>
</g>
<!-- Node19 -->
<g id="node12" class="node">
<title>Node19</title>
<g id="a_node12"><a xlink:href="class_urho3_d_1_1_hash_map.html" target="_top" xlink:title=" ">
<polygon fill="none" stroke="red" points="618.5,-195.5 618.5,-236.5 790.5,-236.5 790.5,-195.5 618.5,-195.5"/>
<text text-anchor="start" x="626.5" y="-224.5" font-family="Helvetica,sans-Serif" font-size="10.00">Urho3D::HashMap&lt; Urho3D</text>
<text text-anchor="start" x="626.5" y="-213.5" font-family="Helvetica,sans-Serif" font-size="10.00">::StringHash, Urho3D::</text>
<text text-anchor="middle" x="704.5" y="-202.5" font-family="Helvetica,sans-Serif" font-size="10.00">SharedPtr&lt; Urho3D::Object &gt; &gt;</text>
</a>
</g>
</g>
<!-- Node19&#45;&gt;Node6 -->
<g id="edge14" class="edge">
<title>Node19&#45;&gt;Node6</title>
<path fill="none" stroke="#9a32cd" stroke-dasharray="5,2" d="M800.89,-212.15C856.81,-214.89 925.41,-227.58 972,-268 1052.2,-337.58 1061.75,-481.67 1062.86,-520.3"/>
<polygon fill="#9a32cd" stroke="#9a32cd" points="800.73,-208.64 790.6,-211.75 800.46,-215.64 800.73,-208.64"/>
<text text-anchor="middle" x="911.5" y="-271" font-family="Helvetica,sans-Serif" font-size="10.00"> subsystems_</text>
</g>
<!-- Node20 -->
<g id="node13" class="node">
<title>Node20</title>
<g id="a_node13"><a xlink:href="class_urho3_d_1_1_p_o_d_vector.html" target="_top" xlink:title=" ">
<polygon fill="none" stroke="red" points="640.5,-316 640.5,-346 768.5,-346 768.5,-316 640.5,-316"/>
<text text-anchor="start" x="648.5" y="-334" font-family="Helvetica,sans-Serif" font-size="10.00">Urho3D::PODVector&lt;</text>
<text text-anchor="middle" x="704.5" y="-323" font-family="Helvetica,sans-Serif" font-size="10.00"> Urho3D::HashMap * &gt;</text>
</a>
</g>
</g>
<!-- Node20&#45;&gt;Node6 -->
<g id="edge15" class="edge">
<title>Node20&#45;&gt;Node6</title>
<path fill="none" stroke="#9a32cd" stroke-dasharray="5,2" d="M778.86,-335.3C836.24,-341.91 915.49,-358.51 972,-400 1017.3,-433.26 1048.19,-496.06 1058.87,-520.2"/>
<polygon fill="#9a32cd" stroke="#9a32cd" points="779.09,-331.81 768.77,-334.22 778.34,-338.77 779.09,-331.81"/>
<text text-anchor="middle" x="911.5" y="-403" font-family="Helvetica,sans-Serif" font-size="10.00"> eventDataMaps_</text>
</g>
<!-- Node21 -->
<g id="node14" class="node">
<title>Node21</title>
<g id="a_node14"><a xlink:href="class_urho3_d_1_1_hash_map.html" target="_top" xlink:title=" ">
<polygon fill="none" stroke="red" points="601,-255.5 601,-296.5 808,-296.5 808,-255.5 601,-255.5"/>
<text text-anchor="start" x="609" y="-284.5" font-family="Helvetica,sans-Serif" font-size="10.00">Urho3D::HashMap&lt; Urho3D</text>
<text text-anchor="start" x="609" y="-273.5" font-family="Helvetica,sans-Serif" font-size="10.00">::StringHash, Urho3D::</text>
<text text-anchor="middle" x="704.5" y="-262.5" font-family="Helvetica,sans-Serif" font-size="10.00">SharedPtr&lt; Urho3D::ObjectFactory &gt; &gt;</text>
</a>
</g>
</g>
<!-- Node21&#45;&gt;Node6 -->
<g id="edge16" class="edge">
<title>Node21&#45;&gt;Node6</title>
<path fill="none" stroke="#9a32cd" stroke-dasharray="5,2" d="M818.32,-278.18C869.9,-284.41 928.95,-299.52 972,-334 1034.96,-384.42 1056.35,-488.4 1061.59,-520.41"/>
<polygon fill="#9a32cd" stroke="#9a32cd" points="818.44,-274.68 808.11,-277.05 817.67,-281.63 818.44,-274.68"/>
<text text-anchor="middle" x="911.5" y="-337" font-family="Helvetica,sans-Serif" font-size="10.00"> factories_</text>
</g>
<!-- Node22 -->
<g id="node15" class="node">
<title>Node22</title>
<g id="a_node15"><a xlink:href="class_urho3_d_1_1_hash_map.html" target="_top" xlink:title=" ">
<polygon fill="none" stroke="red" points="628,-703.5 628,-744.5 781,-744.5 781,-703.5 628,-703.5"/>
<text text-anchor="start" x="636" y="-732.5" font-family="Helvetica,sans-Serif" font-size="10.00">Urho3D::HashMap&lt; Urho3D</text>
<text text-anchor="start" x="636" y="-721.5" font-family="Helvetica,sans-Serif" font-size="10.00">::String, Urho3D::Vector</text>
<text text-anchor="middle" x="704.5" y="-710.5" font-family="Helvetica,sans-Serif" font-size="10.00">&lt; Urho3D::StringHash &gt; &gt;</text>
</a>
</g>
</g>
<!-- Node22&#45;&gt;Node6 -->
<g id="edge17" class="edge">
<title>Node22&#45;&gt;Node6</title>
<path fill="none" stroke="#9a32cd" stroke-dasharray="5,2" d="M791.48,-731.02C847.33,-731.34 919.27,-723.4 972,-688 1027.19,-650.95 1053.07,-568.36 1060.59,-539.88"/>
<polygon fill="#9a32cd" stroke="#9a32cd" points="791.3,-727.51 781.25,-730.86 791.2,-734.51 791.3,-727.51"/>
<text text-anchor="middle" x="911.5" y="-730" font-family="Helvetica,sans-Serif" font-size="10.00"> objectCategories_</text>
</g>
<!-- Node23 -->
<g id="node16" class="node">
<title>Node23</title>
<g id="a_node16"><a xlink:href="class_urho3_d_1_1_hash_map.html" target="_top" xlink:title=" ">
<polygon fill="none" stroke="red" points="612,-643.5 612,-684.5 797,-684.5 797,-643.5 612,-643.5"/>
<text text-anchor="start" x="620" y="-672.5" font-family="Helvetica,sans-Serif" font-size="10.00">Urho3D::HashMap&lt; Urho3D</text>
<text text-anchor="start" x="620" y="-661.5" font-family="Helvetica,sans-Serif" font-size="10.00">::StringHash, Urho3D::</text>
<text text-anchor="middle" x="704.5" y="-650.5" font-family="Helvetica,sans-Serif" font-size="10.00">Vector&lt; Urho3D::AttributeInfo &gt; &gt;</text>
</a>
</g>
</g>
<!-- Node23&#45;&gt;Node6 -->
<g id="edge18" class="edge">
<title>Node23&#45;&gt;Node6</title>
<path fill="none" stroke="#9a32cd" stroke-dasharray="5,2" d="M807.34,-666.8C859.2,-664.33 921.72,-655.11 972,-629 1013.02,-607.69 1045.02,-560.12 1057.42,-539.66"/>
<polygon fill="#9a32cd" stroke="#9a32cd" points="806.98,-663.32 797.12,-667.21 807.26,-670.31 806.98,-663.32"/>
<text text-anchor="middle" x="911.5" y="-676" font-family="Helvetica,sans-Serif" font-size="10.00"> attributes_</text>
<text text-anchor="middle" x="911.5" y="-665" font-family="Helvetica,sans-Serif" font-size="10.00">networkAttributes_</text>
</g>
<!-- Node24&#45;&gt;Node5 -->
<g id="edge19" class="edge">
<title>Node24&#45;&gt;Node5</title>
<path fill="none" stroke="#9a32cd" stroke-dasharray="5,2" d="M979.89,-857.31C870.36,-861.97 671.81,-866.89 503,-852 497.18,-851.49 491.1,-850.71 485.1,-849.81"/>
<polygon fill="#9a32cd" stroke="#9a32cd" points="980.05,-860.81 989.88,-856.87 979.74,-853.81 980.05,-860.81"/>
<text text-anchor="middle" x="704.5" y="-864" font-family="Helvetica,sans-Serif" font-size="10.00"> eventHandlers_</text>
</g>
<!-- Node25 -->
<g id="node18" class="node">
<title>Node25</title>
<g id="a_node18"><a xlink:href="class_urho3_d_1_1_shared_ptr.html" target="_top" xlink:title=" ">
<polygon fill="none" stroke="black" points="1212,-665 1212,-695 1363,-695 1363,-665 1212,-665"/>
<text text-anchor="start" x="1220" y="-683" font-family="Helvetica,sans-Serif" font-size="10.00">Urho3D::SharedPtr&lt;</text>
<text text-anchor="middle" x="1287.5" y="-672" font-family="Helvetica,sans-Serif" font-size="10.00"> Urho3D::ValueAnimation &gt;</text>
</a>
</g>
</g>
<!-- Node25&#45;&gt;Node1 -->
<g id="edge22" class="edge">
<title>Node25&#45;&gt;Node1</title>
<path fill="none" stroke="#9a32cd" stroke-dasharray="5,2" d="M1311.99,-702.15C1363.94,-751.13 1486.84,-867.01 1523.2,-901.29"/>
<polygon fill="#9a32cd" stroke="#9a32cd" points="1314.25,-699.47 1304.58,-695.16 1309.45,-704.56 1314.25,-699.47"/>
<text text-anchor="middle" x="1410" y="-819" font-family="Helvetica,sans-Serif" font-size="10.00"> animation_</text>
</g>
<!-- Node26 -->
<g id="node19" class="node">
<title>Node26</title>
<g id="a_node19"><a xlink:href="class_urho3_d_1_1_value_animation.html" target="_top" xlink:title="Value animation class.">
<polygon fill="none" stroke="black" points="995.5,-107.5 995.5,-126.5 1132.5,-126.5 1132.5,-107.5 995.5,-107.5"/>
<text text-anchor="middle" x="1064" y="-114.5" font-family="Helvetica,sans-Serif" font-size="10.00">Urho3D::ValueAnimation</text>
</a>
</g>
</g>
<!-- Node26&#45;&gt;Node25 -->
<g id="edge23" class="edge">
<title>Node26&#45;&gt;Node25</title>
<path fill="none" stroke="#9a32cd" stroke-dasharray="5,2" d="M1072.6,-136.31C1107.19,-224.24 1249.52,-586 1280.52,-664.8"/>
<polygon fill="#9a32cd" stroke="#9a32cd" points="1075.76,-134.8 1068.84,-126.77 1069.25,-137.36 1075.76,-134.8"/>
<text text-anchor="middle" x="1175" y="-435" font-family="Helvetica,sans-Serif" font-size="10.00"> ptr_</text>
</g>
<!-- Node27&#45;&gt;Node26 -->
<g id="edge24" class="edge">
<title>Node27&#45;&gt;Node26</title>
<path fill="none" stroke="midnightblue" d="M766.67,-37.52C787.75,-40.75 811.48,-44.69 833,-49 895.36,-61.49 911.22,-64.28 972,-83 995.37,-90.2 1021.46,-100.15 1039.69,-107.43"/>
<polygon fill="midnightblue" stroke="midnightblue" points="766.96,-34.03 756.55,-36 765.92,-40.95 766.96,-34.03"/>
</g>
<!-- Node28 -->
<g id="node21" class="node">
<title>Node28</title>
<g id="a_node21"><a xlink:href="class_urho3_d_1_1_timer.html" target="_top" xlink:title="Low&#45;resolution operating system timer.">
<polygon fill="none" stroke="black" points="395.5,-0.5 395.5,-19.5 483.5,-19.5 483.5,-0.5 395.5,-0.5"/>
<text text-anchor="middle" x="439.5" y="-7.5" font-family="Helvetica,sans-Serif" font-size="10.00">Urho3D::Timer</text>
</a>
</g>
</g>
<!-- Node28&#45;&gt;Node27 -->
<g id="edge26" class="edge">
<title>Node28&#45;&gt;Node27</title>
<path fill="none" stroke="#9a32cd" stroke-dasharray="5,2" d="M493.75,-10.41C513.9,-10.82 537.02,-11.58 558,-13 589.44,-15.13 624.56,-18.95 652.42,-22.32"/>
<polygon fill="#9a32cd" stroke="#9a32cd" points="493.57,-6.91 483.51,-10.23 493.45,-13.91 493.57,-6.91"/>
<text text-anchor="middle" x="530.5" y="-16" font-family="Helvetica,sans-Serif" font-size="10.00"> useTimer_</text>
</g>
<!-- Node29 -->
<g id="node22" class="node">
<title>Node29</title>
<g id="a_node22"><a xlink:href="class_urho3_d_1_1_string.html" target="_top" xlink:title="String class.">
<polygon fill="none" stroke="black" points="395.5,-38.5 395.5,-57.5 483.5,-57.5 483.5,-38.5 395.5,-38.5"/>
<text text-anchor="middle" x="439.5" y="-45.5" font-family="Helvetica,sans-Serif" font-size="10.00">Urho3D::String</text>
</a>
</g>
</g>
<!-- Node29&#45;&gt;Node27 -->
<g id="edge27" class="edge">
<title>Node29&#45;&gt;Node27</title>
<path fill="none" stroke="#9a32cd" stroke-dasharray="5,2" d="M493.76,-44.15C540.01,-40.81 606.56,-36 652.22,-32.7"/>
<polygon fill="#9a32cd" stroke="#9a32cd" points="493.36,-40.67 483.63,-44.88 493.86,-47.65 493.36,-40.67"/>
<text text-anchor="middle" x="530.5" y="-46" font-family="Helvetica,sans-Serif" font-size="10.00"> name_</text>
</g>
<!-- Node29&#45;&gt;Node29 -->
<g id="edge28" class="edge">
<title>Node29&#45;&gt;Node29</title>
<path fill="none" stroke="#9a32cd" stroke-dasharray="5,2" d="M423.2,-67.4C424.29,-72.31 429.72,-76 439.5,-76 455.14,-76 459.66,-66.57 453.06,-57.76"/>
<polygon fill="#9a32cd" stroke="#9a32cd" points="426.58,-68.33 425.94,-57.76 419.84,-66.42 426.58,-68.33"/>
<text text-anchor="middle" x="439.5" y="-79" font-family="Helvetica,sans-Serif" font-size="10.00"> EMPTY</text>
</g>
<!-- Node30 -->
<g id="node23" class="node">
<title>Node30</title>
<g id="a_node23"><a xlink:href="class_urho3_d_1_1_vector.html" target="_top" xlink:title=" ">
<polygon fill="none" stroke="red" points="635.5,-146 635.5,-176 773.5,-176 773.5,-146 635.5,-146"/>
<text text-anchor="start" x="643.5" y="-164" font-family="Helvetica,sans-Serif" font-size="10.00">Urho3D::Vector&lt; Urho3D</text>
<text text-anchor="middle" x="704.5" y="-153" font-family="Helvetica,sans-Serif" font-size="10.00">::VAnimEventFrame &gt;</text>
</a>
</g>
</g>
<!-- Node30&#45;&gt;Node26 -->
<g id="edge29" class="edge">
<title>Node30&#45;&gt;Node26</title>
<path fill="none" stroke="#9a32cd" stroke-dasharray="5,2" d="M783.58,-153.64C836.78,-148.35 908.75,-140.65 972,-132 983.74,-130.39 996.3,-128.46 1008.22,-126.53"/>
<polygon fill="#9a32cd" stroke="#9a32cd" points="783.15,-150.17 773.54,-154.64 783.83,-157.14 783.15,-150.17"/>
<text text-anchor="middle" x="911.5" y="-149" font-family="Helvetica,sans-Serif" font-size="10.00"> eventFrames_</text>
</g>
<!-- Node31 -->
<g id="node24" class="node">
<title>Node31</title>
<g id="a_node24"><a xlink:href="class_urho3_d_1_1_vector.html" target="_top" xlink:title=" ">
<polygon fill="none" stroke="red" points="631,-107.5 631,-126.5 778,-126.5 778,-107.5 631,-107.5"/>
<text text-anchor="middle" x="704.5" y="-114.5" font-family="Helvetica,sans-Serif" font-size="10.00">Urho3D::Vector&lt; Variant &gt;</text>
</a>
</g>
</g>
<!-- Node31&#45;&gt;Node26 -->
<g id="edge30" class="edge">
<title>Node31&#45;&gt;Node26</title>
<path fill="none" stroke="#9a32cd" stroke-dasharray="5,2" d="M788.56,-117C851.45,-117 936.74,-117 995.47,-117"/>
<polygon fill="#9a32cd" stroke="#9a32cd" points="788.28,-113.5 778.28,-117 788.28,-120.5 788.28,-113.5"/>
<text text-anchor="middle" x="911.5" y="-120" font-family="Helvetica,sans-Serif" font-size="10.00"> splineTangents_</text>
</g>
<!-- Node32 -->
<g id="node25" class="node">
<title>Node32</title>
<g id="a_node25"><a xlink:href="class_urho3_d_1_1_vector.html" target="_top" xlink:title=" ">
<polygon fill="none" stroke="red" points="635.5,-58 635.5,-88 773.5,-88 773.5,-58 635.5,-58"/>
<text text-anchor="start" x="643.5" y="-76" font-family="Helvetica,sans-Serif" font-size="10.00">Urho3D::Vector&lt; Urho3D</text>
<text text-anchor="middle" x="704.5" y="-65" font-family="Helvetica,sans-Serif" font-size="10.00">::VAnimKeyFrame &gt;</text>
</a>
</g>
</g>
<!-- Node32&#45;&gt;Node26 -->
<g id="edge31" class="edge">
<title>Node32&#45;&gt;Node26</title>
<path fill="none" stroke="#9a32cd" stroke-dasharray="5,2" d="M783.58,-80.36C836.78,-85.65 908.75,-93.35 972,-102 983.74,-103.61 996.3,-105.54 1008.22,-107.47"/>
<polygon fill="#9a32cd" stroke="#9a32cd" points="783.83,-76.86 773.54,-79.36 783.15,-83.83 783.83,-76.86"/>
<text text-anchor="middle" x="911.5" y="-105" font-family="Helvetica,sans-Serif" font-size="10.00"> keyFrames_</text>
</g>
</g>
</svg>
        <g id="navigator" transform="translate(0 0)" fill="#404254">
                <rect fill="#f2f5e9" fill-opacity="0.5" stroke="#606060" stroke-width=".5" x="0" y="0" width="60" height="60"/>
                <use id="zoomplus" xlink:href="#zoomPlus" x="17" y="9" onmousedown="handleZoom(evt,'in')"/>
                <use id="zoomminus" xlink:href="#zoomMin" x="42" y="9" onmousedown="handleZoom(evt,'out')"/>
                <use id="reset" xlink:href="#resetDef" x="30" y="36" onmousedown="handleReset()"/>
                <g id="arrowUp" xlink:href="#dirArrow" transform="translate(30 24)" onmousedown="handlePan(0,-1)">
                  <use xlink:href="#rim" fill="#404040">
                        <set attributeName="fill" to="#808080" begin="arrowUp.mouseover" end="arrowUp.mouseout"/>
                  </use>
                  <path fill="none" stroke="white" stroke-width="1.5" d="M0,-3.0v7 M-2.5,-0.5L0,-3.0L2.5,-0.5"/>
                </g>
                <g id="arrowRight" xlink:href="#dirArrow" transform="rotate(90) translate(36 -43)" onmousedown="handlePan(1,0)">
                  <use xlink:href="#rim" fill="#404040">
                        <set attributeName="fill" to="#808080" begin="arrowRight.mouseover" end="arrowRight.mouseout"/>
                  </use>
                  <path fill="none" stroke="white" stroke-width="1.5" d="M0,-3.0v7 M-2.5,-0.5L0,-3.0L2.5,-0.5"/>
                </g>
                <g id="arrowDown" xlink:href="#dirArrow" transform="rotate(180) translate(-30 -48)" onmousedown="handlePan(0,1)">
                  <use xlink:href="#rim" fill="#404040">
                        <set attributeName="fill" to="#808080" begin="arrowDown.mouseover" end="arrowDown.mouseout"/>
                  </use>
                  <path fill="none" stroke="white" stroke-width="1.5" d="M0,-3.0v7 M-2.5,-0.5L0,-3.0L2.5,-0.5"/>
                </g>
                <g id="arrowLeft" xlink:href="#dirArrow" transform="rotate(270) translate(-36 17)" onmousedown="handlePan(-1,0)">
                  <use xlink:href="#rim" fill="#404040">
                        <set attributeName="fill" to="#808080" begin="arrowLeft.mouseover" end="arrowLeft.mouseout"/>
                  </use>
                  <path fill="none" stroke="white" stroke-width="1.5" d="M0,-3.0v7 M-2.5,-0.5L0,-3.0L2.5,-0.5"/>
                </g>
        </g>
        <svg viewBox="0 0 15 15" width="100%" height="30px" preserveAspectRatio="xMaxYMin meet">
         <g id="arrow_out" transform="scale(0.3 0.3)">
          <a xlink:href="class_urho3_d_1_1_value_animation_info__coll__graph_org.svg" target="_base">
           <rect id="button" ry="5" rx="5" y="6" x="6" height="38" width="38"
                fill="#f2f5e9" fill-opacity="0.5" stroke="#606060" stroke-width="1.0"/>
           <path id="arrow"
             d="M 11.500037,31.436501 C 11.940474,20.09759 22.043105,11.32322 32.158766,21.979434 L 37.068811,17.246167 C 37.068811,17.246167 37.088388,32 37.088388,32 L 22.160133,31.978069 C 22.160133,31.978069 26.997745,27.140456 26.997745,27.140456 C 18.528582,18.264221 13.291696,25.230495 11.500037,31.436501 z"
             style="fill:#404040;"/>
          </a>
         </g>
        </svg>
</svg>
