<?xml version="1.0" encoding="UTF-8" standalone="no"?>
<!DOCTYPE svg PUBLIC "-//W3C//DTD SVG 1.1//EN"
 "http://www.w3.org/Graphics/SVG/1.1/DTD/svg11.dtd">
<!-- Generated by graphviz version 2.43.0 (0)
 -->
<!-- Title: Urho3D::DebugHud Pages: 1 -->
<!--zoomable 894 -->
<svg id="main" version="1.1" xmlns="http://www.w3.org/2000/svg" xmlns:xlink="http://www.w3.org/1999/xlink" xml:space="preserve" onload="init(evt)">
<style type="text/css"><![CDATA[
.edge:hover path { stroke: red; }
.edge:hover polygon { stroke: red; fill: red; }
]]></style>
<script type="text/javascript"><![CDATA[
var edges = document.getElementsByTagName('g');
if (edges && edges.length) {
  for (var i=0;i<edges.length;i++) {
    if (edges[i].id.substr(0,4)=='edge') {
      edges[i].setAttribute('class','edge');
    }
  }
}
]]></script>
        <defs>
                <circle id="rim" cx="0" cy="0" r="7"/>
                <circle id="rim2" cx="0" cy="0" r="3.5"/>
                <g id="zoomPlus">
                        <use xlink:href="#rim" fill="#404040">
                                <set attributeName="fill" to="#808080" begin="zoomplus.mouseover" end="zoomplus.mouseout"/>
                        </use>
                        <path d="M-4,0h8M0,-4v8" fill="none" stroke="white" stroke-width="1.5" pointer-events="none"/>
                </g>
                <g id="zoomMin">
                        <use xlink:href="#rim" fill="#404040">
                                <set attributeName="fill" to="#808080" begin="zoomminus.mouseover" end="zoomminus.mouseout"/>
                        </use>
                        <path d="M-4,0h8" fill="none" stroke="white" stroke-width="1.5" pointer-events="none"/>
                </g>
                <g id="dirArrow">
                        <path fill="none" stroke="white" stroke-width="1.5" d="M0,-3.0v7 M-2.5,-0.5L0,-3.0L2.5,-0.5"/>
                </g>
               <g id="resetDef">
                       <use xlink:href="#rim2" fill="#404040">
                               <set attributeName="fill" to="#808080" begin="reset.mouseover" end="reset.mouseout"/>
                       </use>
               </g>
        </defs>

<script type="text/javascript">
var viewWidth = 1187;
var viewHeight = 894;
var sectionId = 'dynsection-1';
</script>
<script xlink:href="svgpan.js"/>
<svg id="graph" class="graph">
<g id="viewport">
<title>Urho3D::DebugHud</title>
<!-- Node1 -->
<g id="node1" class="node">
<title>Node1</title>
<g id="a_node1"><a xlink:title="Displays rendering stats and profiling information.">
<polygon fill="#bfbfbf" stroke="black" points="1050,-769.5 1050,-788.5 1160,-788.5 1160,-769.5 1050,-769.5"/>
<text text-anchor="middle" x="1105" y="-776.5" font-family="Helvetica,sans-Serif" font-size="10.00">Urho3D::DebugHud</text>
</a>
</g>
</g>
<!-- Node2 -->
<g id="node2" class="node">
<title>Node2</title>
<g id="a_node2"><a xlink:href="class_urho3_d_1_1_object.html" target="_top" xlink:title="Base class for objects with type identification, subsystem access and event sending/receiving capabil...">
<polygon fill="none" stroke="black" points="435.5,-650.5 435.5,-669.5 526.5,-669.5 526.5,-650.5 435.5,-650.5"/>
<text text-anchor="middle" x="481" y="-657.5" font-family="Helvetica,sans-Serif" font-size="10.00">Urho3D::Object</text>
</a>
</g>
</g>
<!-- Node2&#45;&gt;Node1 -->
<g id="edge1" class="edge">
<title>Node2&#45;&gt;Node1</title>
<path fill="none" stroke="midnightblue" d="M494.97,-677.56C516.62,-705.26 563.12,-758.08 617,-779 772.47,-839.36 977.48,-806.7 1063.39,-788.54"/>
<polygon fill="midnightblue" stroke="midnightblue" points="497.68,-675.35 488.83,-669.53 492.12,-679.6 497.68,-675.35"/>
</g>
<!-- Node14 -->
<g id="node12" class="node">
<title>Node14</title>
<g id="a_node12"><a xlink:href="class_urho3_d_1_1_event_handler.html" target="_top" xlink:title="Internal helper class for invoking event handler functions.">
<polygon fill="none" stroke="red" points="683,-615.5 683,-634.5 808,-634.5 808,-615.5 683,-615.5"/>
<text text-anchor="middle" x="745.5" y="-622.5" font-family="Helvetica,sans-Serif" font-size="10.00">Urho3D::EventHandler</text>
</a>
</g>
</g>
<!-- Node2&#45;&gt;Node14 -->
<g id="edge16" class="edge">
<title>Node2&#45;&gt;Node14</title>
<path fill="none" stroke="#9a32cd" stroke-dasharray="5,2" d="M536.46,-652.74C579.16,-647.05 638.58,-639.12 682.99,-633.2"/>
<polygon fill="#9a32cd" stroke="#9a32cd" points="535.98,-649.27 526.53,-654.06 536.9,-656.21 535.98,-649.27"/>
<text text-anchor="middle" x="576" y="-663" font-family="Helvetica,sans-Serif" font-size="10.00"> sender_</text>
<text text-anchor="middle" x="576" y="-652" font-family="Helvetica,sans-Serif" font-size="10.00">receiver_</text>
</g>
<!-- Node3 -->
<g id="node3" class="node">
<title>Node3</title>
<g id="a_node3"><a xlink:href="class_urho3_d_1_1_ref_counted.html" target="_top" xlink:title="Base class for intrusively reference&#45;counted objects. These are noncopyable and non&#45;assignable.">
<polygon fill="none" stroke="black" points="207,-650.5 207,-669.5 323,-669.5 323,-650.5 207,-650.5"/>
<text text-anchor="middle" x="265" y="-657.5" font-family="Helvetica,sans-Serif" font-size="10.00">Urho3D::RefCounted</text>
</a>
</g>
</g>
<!-- Node3&#45;&gt;Node2 -->
<g id="edge2" class="edge">
<title>Node3&#45;&gt;Node2</title>
<path fill="none" stroke="midnightblue" d="M333.18,-660C366.46,-660 405.73,-660 435.28,-660"/>
<polygon fill="midnightblue" stroke="midnightblue" points="333.07,-656.5 323.07,-660 333.07,-663.5 333.07,-656.5"/>
</g>
<!-- Node5 -->
<g id="node5" class="node">
<title>Node5</title>
<g id="a_node5"><a xlink:href="class_urho3_d_1_1_context.html" target="_top" xlink:title="Urho3D execution context. Provides access to subsystems, object factories and attributes,...">
<polygon fill="none" stroke="black" points="1056,-312.5 1056,-331.5 1154,-331.5 1154,-312.5 1056,-312.5"/>
<text text-anchor="middle" x="1105" y="-319.5" font-family="Helvetica,sans-Serif" font-size="10.00">Urho3D::Context</text>
</a>
</g>
</g>
<!-- Node3&#45;&gt;Node5 -->
<g id="edge5" class="edge">
<title>Node3&#45;&gt;Node5</title>
<path fill="none" stroke="midnightblue" d="M318.1,-648.13C462.86,-615.14 860.29,-524.54 874,-521 936.25,-504.94 962.44,-520.7 1013,-481 1065.54,-439.75 1093.11,-359.18 1101.33,-331.56"/>
<polygon fill="midnightblue" stroke="midnightblue" points="317.09,-644.77 308.12,-650.4 318.65,-651.59 317.09,-644.77"/>
</g>
<!-- Node4 -->
<g id="node4" class="node">
<title>Node4</title>
<g id="a_node4"><a xlink:href="struct_urho3_d_1_1_ref_count.html" target="_top" xlink:title="Reference count structure.">
<polygon fill="none" stroke="black" points="0,-722.5 0,-741.5 104,-741.5 104,-722.5 0,-722.5"/>
<text text-anchor="middle" x="52" y="-729.5" font-family="Helvetica,sans-Serif" font-size="10.00">Urho3D::RefCount</text>
</a>
</g>
</g>
<!-- Node4&#45;&gt;Node3 -->
<g id="edge3" class="edge">
<title>Node4&#45;&gt;Node3</title>
<path fill="none" stroke="#9a32cd" stroke-dasharray="5,2" d="M90.53,-719.19C132.18,-704.98 198.44,-682.37 235.86,-669.6"/>
<polygon fill="#9a32cd" stroke="#9a32cd" points="89.35,-715.9 81.02,-722.44 91.61,-722.52 89.35,-715.9"/>
<text text-anchor="middle" x="147.5" y="-709" font-family="Helvetica,sans-Serif" font-size="10.00"> refCount_</text>
</g>
<!-- Node60 -->
<g id="node24" class="node">
<title>Node60</title>
<g id="a_node24"><a xlink:href="class_urho3_d_1_1_weak_ptr.html" target="_top" xlink:title=" ">
<polygon fill="none" stroke="red" points="191,-789 191,-819 339,-819 339,-789 191,-789"/>
<text text-anchor="start" x="199" y="-807" font-family="Helvetica,sans-Serif" font-size="10.00">Urho3D::WeakPtr&lt; Urho3D</text>
<text text-anchor="middle" x="265" y="-796" font-family="Helvetica,sans-Serif" font-size="10.00">::FontFace &gt;</text>
</a>
</g>
</g>
<!-- Node4&#45;&gt;Node60 -->
<g id="edge36" class="edge">
<title>Node4&#45;&gt;Node60</title>
<path fill="none" stroke="#9a32cd" stroke-dasharray="5,2" d="M90.7,-744.86C126.85,-757.2 181.44,-775.83 219.66,-788.87"/>
<polygon fill="#9a32cd" stroke="#9a32cd" points="91.61,-741.48 81.02,-741.56 89.35,-748.1 91.61,-741.48"/>
<text text-anchor="middle" x="147.5" y="-775" font-family="Helvetica,sans-Serif" font-size="10.00"> refCount_</text>
</g>
<!-- Node5&#45;&gt;Node2 -->
<g id="edge4" class="edge">
<title>Node5&#45;&gt;Node2</title>
<path fill="none" stroke="#9a32cd" stroke-dasharray="5,2" d="M1102.84,-341.63C1098.99,-387.36 1082.53,-501.13 1013,-554 942.57,-607.55 702.12,-570.9 617,-595 571.2,-607.97 521.89,-635.61 497.5,-650.32"/>
<polygon fill="#9a32cd" stroke="#9a32cd" points="1106.34,-341.77 1103.57,-331.54 1099.36,-341.26 1106.34,-341.77"/>
<text text-anchor="middle" x="745.5" y="-598" font-family="Helvetica,sans-Serif" font-size="10.00"> context_</text>
</g>
<!-- Node6 -->
<g id="node6" class="node">
<title>Node6</title>
<g id="a_node6"><a xlink:href="class_urho3_d_1_1_hash_map.html" target="_top" xlink:title=" ">
<polygon fill="none" stroke="black" points="617,-410 617,-462 874,-462 874,-410 617,-410"/>
<text text-anchor="start" x="625" y="-450" font-family="Helvetica,sans-Serif" font-size="10.00">Urho3D::HashMap&lt; Urho3D</text>
<text text-anchor="start" x="625" y="-439" font-family="Helvetica,sans-Serif" font-size="10.00">::Object *, Urho3D::HashMap</text>
<text text-anchor="start" x="625" y="-428" font-family="Helvetica,sans-Serif" font-size="10.00">&lt; Urho3D::StringHash, Urho3D</text>
<text text-anchor="middle" x="745.5" y="-417" font-family="Helvetica,sans-Serif" font-size="10.00">::SharedPtr&lt; Urho3D::EventReceiverGroup &gt; &gt; &gt;</text>
</a>
</g>
</g>
<!-- Node6&#45;&gt;Node5 -->
<g id="edge6" class="edge">
<title>Node6&#45;&gt;Node5</title>
<path fill="none" stroke="#9a32cd" stroke-dasharray="5,2" d="M866.39,-407.41C912.7,-395.27 965.8,-379.98 1013,-363 1038.6,-353.79 1067.03,-340.46 1085.18,-331.52"/>
<polygon fill="#9a32cd" stroke="#9a32cd" points="865.41,-404.05 856.62,-409.96 867.17,-410.82 865.41,-404.05"/>
<text text-anchor="middle" x="952.5" y="-402" font-family="Helvetica,sans-Serif" font-size="10.00"> specificEventReceivers_</text>
</g>
<!-- Node7 -->
<g id="node7" class="node">
<title>Node7</title>
<g id="a_node7"><a xlink:href="class_urho3_d_1_1_hash_base.html" target="_top" xlink:title="Hash set/map base class.">
<polygon fill="none" stroke="black" points="427,-226.5 427,-245.5 535,-245.5 535,-226.5 427,-226.5"/>
<text text-anchor="middle" x="481" y="-233.5" font-family="Helvetica,sans-Serif" font-size="10.00">Urho3D::HashBase</text>
</a>
</g>
</g>
<!-- Node7&#45;&gt;Node6 -->
<g id="edge7" class="edge">
<title>Node7&#45;&gt;Node6</title>
<path fill="none" stroke="midnightblue" d="M491.91,-254.5C511.25,-288.79 557.41,-362.26 617,-401 622,-404.25 627.31,-407.21 632.79,-409.89"/>
<polygon fill="midnightblue" stroke="midnightblue" points="494.87,-252.62 486.98,-245.56 488.74,-256 494.87,-252.62"/>
</g>
<!-- Node11 -->
<g id="node10" class="node">
<title>Node11</title>
<g id="a_node10"><a xlink:href="class_urho3_d_1_1_hash_map.html" target="_top" xlink:title=" ">
<polygon fill="none" stroke="black" points="651.5,-339 651.5,-391 839.5,-391 839.5,-339 651.5,-339"/>
<text text-anchor="start" x="659.5" y="-379" font-family="Helvetica,sans-Serif" font-size="10.00">Urho3D::HashMap&lt; Urho3D</text>
<text text-anchor="start" x="659.5" y="-368" font-family="Helvetica,sans-Serif" font-size="10.00">::StringHash, Urho3D::</text>
<text text-anchor="start" x="659.5" y="-357" font-family="Helvetica,sans-Serif" font-size="10.00">SharedPtr&lt; Urho3D::EventReceiver</text>
<text text-anchor="middle" x="745.5" y="-346" font-family="Helvetica,sans-Serif" font-size="10.00">Group &gt; &gt;</text>
</a>
</g>
</g>
<!-- Node7&#45;&gt;Node11 -->
<g id="edge13" class="edge">
<title>Node7&#45;&gt;Node11</title>
<path fill="none" stroke="midnightblue" d="M501.08,-252.19C526.16,-272.73 572.3,-308 617,-329 627.83,-334.09 639.51,-338.59 651.27,-342.54"/>
<polygon fill="midnightblue" stroke="midnightblue" points="503.06,-249.28 493.13,-245.59 498.59,-254.67 503.06,-249.28"/>
</g>
<!-- Node17 -->
<g id="node13" class="node">
<title>Node17</title>
<g id="a_node13"><a xlink:href="class_urho3_d_1_1_hash_map.html" target="_top" xlink:title=" ">
<polygon fill="none" stroke="black" points="659,-241 659,-271 832,-271 832,-241 659,-241"/>
<text text-anchor="start" x="667" y="-259" font-family="Helvetica,sans-Serif" font-size="10.00">Urho3D::HashMap&lt; StringHash,</text>
<text text-anchor="middle" x="745.5" y="-248" font-family="Helvetica,sans-Serif" font-size="10.00"> Variant &gt;</text>
</a>
</g>
</g>
<!-- Node7&#45;&gt;Node17 -->
<g id="edge18" class="edge">
<title>Node7&#45;&gt;Node17</title>
<path fill="none" stroke="midnightblue" d="M545.41,-240.83C579.47,-243.43 621.95,-246.66 658.91,-249.48"/>
<polygon fill="midnightblue" stroke="midnightblue" points="545.36,-237.32 535.12,-240.05 544.83,-244.3 545.36,-237.32"/>
</g>
<!-- Node18 -->
<g id="node14" class="node">
<title>Node18</title>
<g id="a_node14"><a xlink:href="class_urho3_d_1_1_hash_map.html" target="_top" xlink:title=" ">
<polygon fill="none" stroke="black" points="659.5,-180.5 659.5,-221.5 831.5,-221.5 831.5,-180.5 659.5,-180.5"/>
<text text-anchor="start" x="667.5" y="-209.5" font-family="Helvetica,sans-Serif" font-size="10.00">Urho3D::HashMap&lt; Urho3D</text>
<text text-anchor="start" x="667.5" y="-198.5" font-family="Helvetica,sans-Serif" font-size="10.00">::StringHash, Urho3D::</text>
<text text-anchor="middle" x="745.5" y="-187.5" font-family="Helvetica,sans-Serif" font-size="10.00">SharedPtr&lt; Urho3D::Object &gt; &gt;</text>
</a>
</g>
</g>
<!-- Node7&#45;&gt;Node18 -->
<g id="edge20" class="edge">
<title>Node7&#45;&gt;Node18</title>
<path fill="none" stroke="midnightblue" d="M545.45,-227.54C579.67,-222.98 622.36,-217.29 659.42,-212.34"/>
<polygon fill="midnightblue" stroke="midnightblue" points="544.57,-224.13 535.12,-228.92 545.5,-231.06 544.57,-224.13"/>
</g>
<!-- Node20 -->
<g id="node16" class="node">
<title>Node20</title>
<g id="a_node16"><a xlink:href="class_urho3_d_1_1_hash_map.html" target="_top" xlink:title=" ">
<polygon fill="none" stroke="black" points="642,-120.5 642,-161.5 849,-161.5 849,-120.5 642,-120.5"/>
<text text-anchor="start" x="650" y="-149.5" font-family="Helvetica,sans-Serif" font-size="10.00">Urho3D::HashMap&lt; Urho3D</text>
<text text-anchor="start" x="650" y="-138.5" font-family="Helvetica,sans-Serif" font-size="10.00">::StringHash, Urho3D::</text>
<text text-anchor="middle" x="745.5" y="-127.5" font-family="Helvetica,sans-Serif" font-size="10.00">SharedPtr&lt; Urho3D::ObjectFactory &gt; &gt;</text>
</a>
</g>
</g>
<!-- Node7&#45;&gt;Node20 -->
<g id="edge23" class="edge">
<title>Node7&#45;&gt;Node20</title>
<path fill="none" stroke="midnightblue" d="M508,-221.37C534.67,-206.88 577.68,-184.9 617,-171 626.65,-167.59 636.84,-164.45 647.1,-161.59"/>
<polygon fill="midnightblue" stroke="midnightblue" points="506.04,-218.46 498.96,-226.34 509.41,-224.59 506.04,-218.46"/>
</g>
<!-- Node21 -->
<g id="node17" class="node">
<title>Node21</title>
<g id="a_node17"><a xlink:href="class_urho3_d_1_1_hash_map.html" target="_top" xlink:title=" ">
<polygon fill="none" stroke="black" points="669,-60.5 669,-101.5 822,-101.5 822,-60.5 669,-60.5"/>
<text text-anchor="start" x="677" y="-89.5" font-family="Helvetica,sans-Serif" font-size="10.00">Urho3D::HashMap&lt; Urho3D</text>
<text text-anchor="start" x="677" y="-78.5" font-family="Helvetica,sans-Serif" font-size="10.00">::String, Urho3D::Vector</text>
<text text-anchor="middle" x="745.5" y="-67.5" font-family="Helvetica,sans-Serif" font-size="10.00">&lt; Urho3D::StringHash &gt; &gt;</text>
</a>
</g>
</g>
<!-- Node7&#45;&gt;Node21 -->
<g id="edge25" class="edge">
<title>Node7&#45;&gt;Node21</title>
<path fill="none" stroke="midnightblue" d="M495.69,-218.49C518.03,-191.15 565.09,-138.62 617,-111 632.86,-102.56 651.07,-96.47 668.68,-92.09"/>
<polygon fill="midnightblue" stroke="midnightblue" points="492.86,-216.42 489.33,-226.41 498.32,-220.8 492.86,-216.42"/>
</g>
<!-- Node22 -->
<g id="node18" class="node">
<title>Node22</title>
<g id="a_node18"><a xlink:href="class_urho3_d_1_1_hash_map.html" target="_top" xlink:title=" ">
<polygon fill="none" stroke="black" points="653,-0.5 653,-41.5 838,-41.5 838,-0.5 653,-0.5"/>
<text text-anchor="start" x="661" y="-29.5" font-family="Helvetica,sans-Serif" font-size="10.00">Urho3D::HashMap&lt; Urho3D</text>
<text text-anchor="start" x="661" y="-18.5" font-family="Helvetica,sans-Serif" font-size="10.00">::StringHash, Urho3D::</text>
<text text-anchor="middle" x="745.5" y="-7.5" font-family="Helvetica,sans-Serif" font-size="10.00">Vector&lt; Urho3D::AttributeInfo &gt; &gt;</text>
</a>
</g>
</g>
<!-- Node7&#45;&gt;Node22 -->
<g id="edge27" class="edge">
<title>Node7&#45;&gt;Node22</title>
<path fill="none" stroke="midnightblue" d="M489.77,-216.5C506.47,-177.47 549.78,-90.12 617,-51 628.01,-44.59 640.3,-39.56 652.79,-35.59"/>
<polygon fill="midnightblue" stroke="midnightblue" points="486.37,-215.57 485.77,-226.15 492.83,-218.25 486.37,-215.57"/>
</g>
<!-- Node24 -->
<g id="node20" class="node">
<title>Node24</title>
<g id="a_node20"><a xlink:href="class_urho3_d_1_1_hash_map.html" target="_top" xlink:title=" ">
<polygon fill="none" stroke="black" points="669,-654 669,-684 822,-684 822,-654 669,-654"/>
<text text-anchor="start" x="677" y="-672" font-family="Helvetica,sans-Serif" font-size="10.00">Urho3D::HashMap&lt; Urho3D</text>
<text text-anchor="middle" x="745.5" y="-661" font-family="Helvetica,sans-Serif" font-size="10.00">::String, Urho3D::String &gt;</text>
</a>
</g>
</g>
<!-- Node7&#45;&gt;Node24 -->
<g id="edge31" class="edge">
<title>Node7&#45;&gt;Node24</title>
<path fill="none" stroke="midnightblue" d="M482.32,-255.9C483.97,-331.24 493.97,-597.54 553,-652 583.42,-680.06 629.3,-684.93 668.53,-682.49"/>
<polygon fill="midnightblue" stroke="midnightblue" points="485.82,-255.79 482.13,-245.86 478.82,-255.92 485.82,-255.79"/>
</g>
<!-- Node8 -->
<g id="node8" class="node">
<title>Node8</title>
<g id="a_node8"><a xlink:href="struct_urho3_d_1_1_hash_node_base.html" target="_top" xlink:title="Hash set/map node base class.">
<polygon fill="none" stroke="black" points="198,-244.5 198,-263.5 332,-263.5 332,-244.5 198,-244.5"/>
<text text-anchor="middle" x="265" y="-251.5" font-family="Helvetica,sans-Serif" font-size="10.00">Urho3D::HashNodeBase</text>
</a>
</g>
</g>
<!-- Node8&#45;&gt;Node7 -->
<g id="edge8" class="edge">
<title>Node8&#45;&gt;Node7</title>
<path fill="none" stroke="#9a32cd" stroke-dasharray="5,2" d="M342.4,-247.57C370.4,-245.22 401.44,-242.61 426.94,-240.46"/>
<polygon fill="#9a32cd" stroke="#9a32cd" points="341.92,-244.1 332.25,-248.43 342.5,-251.08 341.92,-244.1"/>
<text text-anchor="middle" x="383" y="-272" font-family="Helvetica,sans-Serif" font-size="10.00"> ptrs_</text>
<text text-anchor="middle" x="383" y="-261" font-family="Helvetica,sans-Serif" font-size="10.00">tail_</text>
<text text-anchor="middle" x="383" y="-250" font-family="Helvetica,sans-Serif" font-size="10.00">head_</text>
</g>
<!-- Node8&#45;&gt;Node8 -->
<g id="edge9" class="edge">
<title>Node8&#45;&gt;Node8</title>
<path fill="none" stroke="#9a32cd" stroke-dasharray="5,2" d="M243.52,-273.4C244.95,-278.31 252.11,-282 265,-282 285.62,-282 291.58,-272.57 282.88,-263.76"/>
<polygon fill="#9a32cd" stroke="#9a32cd" points="246.9,-274.35 247.12,-263.76 240.34,-271.9 246.9,-274.35"/>
<text text-anchor="middle" x="265" y="-307" font-family="Helvetica,sans-Serif" font-size="10.00"> next_</text>
<text text-anchor="middle" x="265" y="-296" font-family="Helvetica,sans-Serif" font-size="10.00">prev_</text>
<text text-anchor="middle" x="265" y="-285" font-family="Helvetica,sans-Serif" font-size="10.00">down_</text>
</g>
<!-- Node9 -->
<g id="node9" class="node">
<title>Node9</title>
<g id="a_node9"><a xlink:href="struct_urho3_d_1_1_allocator_block.html" target="_top" xlink:title="Allocator memory block.">
<polygon fill="none" stroke="red" points="200,-177.5 200,-196.5 330,-196.5 330,-177.5 200,-177.5"/>
<text text-anchor="middle" x="265" y="-184.5" font-family="Helvetica,sans-Serif" font-size="10.00">Urho3D::AllocatorBlock</text>
</a>
</g>
</g>
<!-- Node9&#45;&gt;Node7 -->
<g id="edge10" class="edge">
<title>Node9&#45;&gt;Node7</title>
<path fill="none" stroke="#9a32cd" stroke-dasharray="5,2" d="M317.6,-198.81C354.57,-207.28 403.72,-218.53 438.24,-226.44"/>
<polygon fill="#9a32cd" stroke="#9a32cd" points="318.04,-195.33 307.52,-196.51 316.48,-202.15 318.04,-195.33"/>
<text text-anchor="middle" x="383" y="-222" font-family="Helvetica,sans-Serif" font-size="10.00"> allocator_</text>
</g>
<!-- Node9&#45;&gt;Node9 -->
<g id="edge11" class="edge">
<title>Node9&#45;&gt;Node9</title>
<path fill="none" stroke="#9a32cd" stroke-dasharray="5,2" d="M243.52,-206.4C244.95,-211.31 252.11,-215 265,-215 285.62,-215 291.58,-205.57 282.88,-196.76"/>
<polygon fill="#9a32cd" stroke="#9a32cd" points="246.9,-207.35 247.12,-196.76 240.34,-204.9 246.9,-207.35"/>
<text text-anchor="middle" x="265" y="-218" font-family="Helvetica,sans-Serif" font-size="10.00"> next_</text>
</g>
<!-- Node11&#45;&gt;Node5 -->
<g id="edge12" class="edge">
<title>Node11&#45;&gt;Node5</title>
<path fill="none" stroke="#9a32cd" stroke-dasharray="5,2" d="M850.27,-352.52C918.13,-344.36 1003.61,-334.08 1056,-327.77"/>
<polygon fill="#9a32cd" stroke="#9a32cd" points="849.47,-349.09 839.96,-353.76 850.31,-356.04 849.47,-349.09"/>
<text text-anchor="middle" x="952.5" y="-351" font-family="Helvetica,sans-Serif" font-size="10.00"> eventReceivers_</text>
</g>
<!-- Node12 -->
<g id="node11" class="node">
<title>Node12</title>
<g id="a_node11"><a xlink:href="class_urho3_d_1_1_p_o_d_vector.html" target="_top" xlink:title=" ">
<polygon fill="none" stroke="red" points="686,-290 686,-320 805,-320 805,-290 686,-290"/>
<text text-anchor="start" x="694" y="-308" font-family="Helvetica,sans-Serif" font-size="10.00">Urho3D::PODVector&lt;</text>
<text text-anchor="middle" x="745.5" y="-297" font-family="Helvetica,sans-Serif" font-size="10.00"> Urho3D::Object * &gt;</text>
</a>
</g>
</g>
<!-- Node12&#45;&gt;Node5 -->
<g id="edge14" class="edge">
<title>Node12&#45;&gt;Node5</title>
<path fill="none" stroke="#9a32cd" stroke-dasharray="5,2" d="M815.27,-308.27C885.9,-311.63 994,-316.77 1055.94,-319.71"/>
<polygon fill="#9a32cd" stroke="#9a32cd" points="815.29,-304.77 805.13,-307.79 814.96,-311.76 815.29,-304.77"/>
<text text-anchor="middle" x="952.5" y="-321" font-family="Helvetica,sans-Serif" font-size="10.00"> eventSenders_</text>
</g>
<!-- Node14&#45;&gt;Node5 -->
<g id="edge15" class="edge">
<title>Node14&#45;&gt;Node5</title>
<path fill="none" stroke="#9a32cd" stroke-dasharray="5,2" d="M818.52,-626.88C887.07,-627.17 983.95,-623.21 1013,-600 1101.09,-529.64 1104.83,-372.25 1104.27,-331.69"/>
<polygon fill="#9a32cd" stroke="#9a32cd" points="818.23,-623.38 808.2,-626.8 818.18,-630.38 818.23,-623.38"/>
<text text-anchor="middle" x="952.5" y="-627" font-family="Helvetica,sans-Serif" font-size="10.00"> eventHandler_</text>
</g>
<!-- Node23 -->
<g id="node19" class="node">
<title>Node23</title>
<g id="a_node19"><a xlink:href="class_urho3_d_1_1_linked_list.html" target="_top" xlink:title=" ">
<polygon fill="none" stroke="black" points="1031,-672 1031,-702 1179,-702 1179,-672 1031,-672"/>
<text text-anchor="start" x="1039" y="-690" font-family="Helvetica,sans-Serif" font-size="10.00">Urho3D::LinkedList</text>
<text text-anchor="middle" x="1105" y="-679" font-family="Helvetica,sans-Serif" font-size="10.00">&lt; Urho3D::EventHandler &gt;</text>
</a>
</g>
</g>
<!-- Node14&#45;&gt;Node23 -->
<g id="edge29" class="edge">
<title>Node14&#45;&gt;Node23</title>
<path fill="none" stroke="#9a32cd" stroke-dasharray="5,2" d="M818.2,-631.85C872.12,-637.69 947.64,-647.32 1013,-661 1027.15,-663.96 1042.33,-667.96 1056.15,-671.93"/>
<polygon fill="#9a32cd" stroke="#9a32cd" points="818.37,-628.35 808.05,-630.77 817.63,-635.31 818.37,-628.35"/>
<text text-anchor="middle" x="952.5" y="-664" font-family="Helvetica,sans-Serif" font-size="10.00"> head_</text>
</g>
<!-- Node17&#45;&gt;Node5 -->
<g id="edge17" class="edge">
<title>Node17&#45;&gt;Node5</title>
<path fill="none" stroke="#9a32cd" stroke-dasharray="5,2" d="M842.19,-268C893.16,-275.07 956.78,-284.99 1013,-297 1033.03,-301.28 1055.19,-307.34 1072.63,-312.42"/>
<polygon fill="#9a32cd" stroke="#9a32cd" points="842.55,-264.51 832.17,-266.62 841.6,-271.45 842.55,-264.51"/>
<text text-anchor="middle" x="952.5" y="-300" font-family="Helvetica,sans-Serif" font-size="10.00"> globalVars_</text>
</g>
<!-- Node18&#45;&gt;Node5 -->
<g id="edge19" class="edge">
<title>Node18&#45;&gt;Node5</title>
<path fill="none" stroke="#9a32cd" stroke-dasharray="5,2" d="M841.42,-213.62C893.53,-222.69 958.46,-237.55 1013,-261 1044.28,-274.45 1076.31,-298.91 1092.74,-312.41"/>
<polygon fill="#9a32cd" stroke="#9a32cd" points="841.96,-210.16 831.51,-211.94 840.79,-217.07 841.96,-210.16"/>
<text text-anchor="middle" x="952.5" y="-264" font-family="Helvetica,sans-Serif" font-size="10.00"> subsystems_</text>
</g>
<!-- Node19 -->
<g id="node15" class="node">
<title>Node19</title>
<g id="a_node15"><a xlink:href="class_urho3_d_1_1_p_o_d_vector.html" target="_top" xlink:title=" ">
<polygon fill="none" stroke="red" points="681.5,-481 681.5,-511 809.5,-511 809.5,-481 681.5,-481"/>
<text text-anchor="start" x="689.5" y="-499" font-family="Helvetica,sans-Serif" font-size="10.00">Urho3D::PODVector&lt;</text>
<text text-anchor="middle" x="745.5" y="-488" font-family="Helvetica,sans-Serif" font-size="10.00"> Urho3D::HashMap * &gt;</text>
</a>
</g>
</g>
<!-- Node19&#45;&gt;Node5 -->
<g id="edge21" class="edge">
<title>Node19&#45;&gt;Node5</title>
<path fill="none" stroke="#9a32cd" stroke-dasharray="5,2" d="M819.66,-485.42C876.22,-474.55 954.49,-453.43 1013,-414 1048.95,-389.77 1082.42,-349.78 1096.71,-331.57"/>
<polygon fill="#9a32cd" stroke="#9a32cd" points="818.91,-482 809.71,-487.26 820.18,-488.88 818.91,-482"/>
<text text-anchor="middle" x="952.5" y="-469" font-family="Helvetica,sans-Serif" font-size="10.00"> eventDataMaps_</text>
</g>
<!-- Node20&#45;&gt;Node5 -->
<g id="edge22" class="edge">
<title>Node20&#45;&gt;Node5</title>
<path fill="none" stroke="#9a32cd" stroke-dasharray="5,2" d="M858.98,-153.95C909.24,-163.74 967.3,-180.92 1013,-211 1054.63,-238.4 1086.75,-290.74 1098.82,-312.32"/>
<polygon fill="#9a32cd" stroke="#9a32cd" points="859.52,-150.49 849.04,-152.08 858.23,-157.37 859.52,-150.49"/>
<text text-anchor="middle" x="952.5" y="-214" font-family="Helvetica,sans-Serif" font-size="10.00"> factories_</text>
</g>
<!-- Node21&#45;&gt;Node5 -->
<g id="edge24" class="edge">
<title>Node21&#45;&gt;Node5</title>
<path fill="none" stroke="#9a32cd" stroke-dasharray="5,2" d="M832.31,-84.48C888.95,-90.8 961.86,-107.1 1013,-148 1069.44,-193.14 1094.81,-282.84 1101.86,-312.35"/>
<polygon fill="#9a32cd" stroke="#9a32cd" points="832.6,-80.99 822.29,-83.44 831.88,-87.95 832.6,-80.99"/>
<text text-anchor="middle" x="952.5" y="-151" font-family="Helvetica,sans-Serif" font-size="10.00"> objectCategories_</text>
</g>
<!-- Node22&#45;&gt;Node5 -->
<g id="edge26" class="edge">
<title>Node22&#45;&gt;Node5</title>
<path fill="none" stroke="#9a32cd" stroke-dasharray="5,2" d="M848.3,-16C902.83,-18.59 967.88,-30.85 1013,-69 1091.42,-135.3 1102.26,-274.49 1103.76,-312.33"/>
<polygon fill="#9a32cd" stroke="#9a32cd" points="848.37,-12.5 838.24,-15.62 848.11,-19.49 848.37,-12.5"/>
<text text-anchor="middle" x="952.5" y="-83" font-family="Helvetica,sans-Serif" font-size="10.00"> attributes_</text>
<text text-anchor="middle" x="952.5" y="-72" font-family="Helvetica,sans-Serif" font-size="10.00">networkAttributes_</text>
</g>
<!-- Node23&#45;&gt;Node2 -->
<g id="edge28" class="edge">
<title>Node23&#45;&gt;Node2</title>
<path fill="none" stroke="#9a32cd" stroke-dasharray="5,2" d="M1033.87,-704C1026.85,-705.22 1019.81,-706.26 1013,-707 837.93,-726.01 791.22,-719.64 617,-694 580.53,-688.63 539.61,-677.6 512.48,-669.55"/>
<polygon fill="#9a32cd" stroke="#9a32cd" points="1034.91,-707.36 1044.1,-702.09 1033.62,-700.48 1034.91,-707.36"/>
<text text-anchor="middle" x="745.5" y="-721" font-family="Helvetica,sans-Serif" font-size="10.00"> eventHandlers_</text>
</g>
<!-- Node24&#45;&gt;Node1 -->
<g id="edge30" class="edge">
<title>Node24&#45;&gt;Node1</title>
<path fill="none" stroke="#9a32cd" stroke-dasharray="5,2" d="M826.14,-686.4C842.07,-690.25 858.63,-694.53 874,-699 949.71,-721.01 1037.18,-753.41 1079.09,-769.38"/>
<polygon fill="#9a32cd" stroke="#9a32cd" points="826.86,-682.97 816.32,-684.05 825.24,-689.78 826.86,-682.97"/>
<text text-anchor="middle" x="952.5" y="-747" font-family="Helvetica,sans-Serif" font-size="10.00"> appStats_</text>
</g>
<!-- Node25 -->
<g id="node21" class="node">
<title>Node25</title>
<g id="a_node21"><a xlink:href="class_urho3_d_1_1_shared_ptr.html" target="_top" xlink:title=" ">
<polygon fill="none" stroke="black" points="688,-827 688,-857 803,-857 803,-827 688,-827"/>
<text text-anchor="start" x="696" y="-845" font-family="Helvetica,sans-Serif" font-size="10.00">Urho3D::SharedPtr&lt;</text>
<text text-anchor="middle" x="745.5" y="-834" font-family="Helvetica,sans-Serif" font-size="10.00"> Urho3D::Text &gt;</text>
</a>
</g>
</g>
<!-- Node25&#45;&gt;Node1 -->
<g id="edge32" class="edge">
<title>Node25&#45;&gt;Node1</title>
<path fill="none" stroke="#9a32cd" stroke-dasharray="5,2" d="M813.25,-838.85C867.61,-835.25 946.03,-827.68 1013,-812 1037.22,-806.33 1063.85,-796.19 1082.01,-788.64"/>
<polygon fill="#9a32cd" stroke="#9a32cd" points="812.81,-835.38 803.05,-839.5 813.25,-842.36 812.81,-835.38"/>
<text text-anchor="middle" x="952.5" y="-878" font-family="Helvetica,sans-Serif" font-size="10.00"> eventProfilerText_</text>
<text text-anchor="middle" x="952.5" y="-867" font-family="Helvetica,sans-Serif" font-size="10.00">memoryText_</text>
<text text-anchor="middle" x="952.5" y="-856" font-family="Helvetica,sans-Serif" font-size="10.00">profilerText_</text>
<text text-anchor="middle" x="952.5" y="-845" font-family="Helvetica,sans-Serif" font-size="10.00">statsText_</text>
<text text-anchor="middle" x="952.5" y="-834" font-family="Helvetica,sans-Serif" font-size="10.00">modeText_</text>
</g>
<!-- Node26 -->
<g id="node22" class="node">
<title>Node26</title>
<g id="a_node22"><a xlink:href="class_urho3_d_1_1_text.html" target="_top" xlink:title="Text UI element.">
<polygon fill="none" stroke="red" points="441,-794.5 441,-813.5 521,-813.5 521,-794.5 441,-794.5"/>
<text text-anchor="middle" x="481" y="-801.5" font-family="Helvetica,sans-Serif" font-size="10.00">Urho3D::Text</text>
</a>
</g>
</g>
<!-- Node26&#45;&gt;Node25 -->
<g id="edge33" class="edge">
<title>Node26&#45;&gt;Node25</title>
<path fill="none" stroke="#9a32cd" stroke-dasharray="5,2" d="M531,-811.09C575.48,-817.53 641.05,-827.02 687.78,-833.79"/>
<polygon fill="#9a32cd" stroke="#9a32cd" points="531.41,-807.62 521.02,-809.65 530.41,-814.54 531.41,-807.62"/>
<text text-anchor="middle" x="576" y="-823" font-family="Helvetica,sans-Serif" font-size="10.00"> ptr_</text>
</g>
<!-- Node27 -->
<g id="node23" class="node">
<title>Node27</title>
<g id="a_node23"><a xlink:href="class_urho3_d_1_1_u_i_selectable.html" target="_top" xlink:title=" ">
<polygon fill="none" stroke="red" points="204.5,-750.5 204.5,-769.5 325.5,-769.5 325.5,-750.5 204.5,-750.5"/>
<text text-anchor="middle" x="265" y="-757.5" font-family="Helvetica,sans-Serif" font-size="10.00">Urho3D::UISelectable</text>
</a>
</g>
</g>
<!-- Node27&#45;&gt;Node26 -->
<g id="edge34" class="edge">
<title>Node27&#45;&gt;Node26</title>
<path fill="none" stroke="midnightblue" d="M322.64,-771.65C359.91,-779.31 407.73,-789.14 440.83,-795.95"/>
<polygon fill="midnightblue" stroke="midnightblue" points="322.93,-768.13 312.43,-769.55 321.53,-774.99 322.93,-768.13"/>
</g>
<!-- Node60&#45;&gt;Node26 -->
<g id="edge35" class="edge">
<title>Node60&#45;&gt;Node26</title>
<path fill="none" stroke="#9a32cd" stroke-dasharray="5,2" d="M349.18,-804C380.76,-804 415.26,-804 440.89,-804"/>
<polygon fill="#9a32cd" stroke="#9a32cd" points="349.05,-800.5 339.05,-804 349.05,-807.5 349.05,-800.5"/>
<text text-anchor="middle" x="383" y="-807" font-family="Helvetica,sans-Serif" font-size="10.00"> fontFace_</text>
</g>
<!-- Node42 -->
<g id="node25" class="node">
<title>Node42</title>
<g id="a_node25"><a xlink:href="class_urho3_d_1_1_timer.html" target="_top" xlink:title="Low&#45;resolution operating system timer.">
<polygon fill="none" stroke="black" points="701.5,-750.5 701.5,-769.5 789.5,-769.5 789.5,-750.5 701.5,-750.5"/>
<text text-anchor="middle" x="745.5" y="-757.5" font-family="Helvetica,sans-Serif" font-size="10.00">Urho3D::Timer</text>
</a>
</g>
</g>
<!-- Node42&#45;&gt;Node1 -->
<g id="edge37" class="edge">
<title>Node42&#45;&gt;Node1</title>
<path fill="none" stroke="#9a32cd" stroke-dasharray="5,2" d="M799.9,-762.34C853.72,-764.75 939.14,-768.76 1013,-773 1024.86,-773.68 1037.57,-774.48 1049.63,-775.26"/>
<polygon fill="#9a32cd" stroke="#9a32cd" points="800.05,-758.84 789.9,-761.89 799.74,-765.83 800.05,-758.84"/>
<text text-anchor="middle" x="952.5" y="-776" font-family="Helvetica,sans-Serif" font-size="10.00"> profilerTimer_</text>
</g>
</g>
</svg>
        <g id="navigator" transform="translate(0 0)" fill="#404254">
                <rect fill="#f2f5e9" fill-opacity="0.5" stroke="#606060" stroke-width=".5" x="0" y="0" width="60" height="60"/>
                <use id="zoomplus" xlink:href="#zoomPlus" x="17" y="9" onmousedown="handleZoom(evt,'in')"/>
                <use id="zoomminus" xlink:href="#zoomMin" x="42" y="9" onmousedown="handleZoom(evt,'out')"/>
                <use id="reset" xlink:href="#resetDef" x="30" y="36" onmousedown="handleReset()"/>
                <g id="arrowUp" xlink:href="#dirArrow" transform="translate(30 24)" onmousedown="handlePan(0,-1)">
                  <use xlink:href="#rim" fill="#404040">
                        <set attributeName="fill" to="#808080" begin="arrowUp.mouseover" end="arrowUp.mouseout"/>
                  </use>
                  <path fill="none" stroke="white" stroke-width="1.5" d="M0,-3.0v7 M-2.5,-0.5L0,-3.0L2.5,-0.5"/>
                </g>
                <g id="arrowRight" xlink:href="#dirArrow" transform="rotate(90) translate(36 -43)" onmousedown="handlePan(1,0)">
                  <use xlink:href="#rim" fill="#404040">
                        <set attributeName="fill" to="#808080" begin="arrowRight.mouseover" end="arrowRight.mouseout"/>
                  </use>
                  <path fill="none" stroke="white" stroke-width="1.5" d="M0,-3.0v7 M-2.5,-0.5L0,-3.0L2.5,-0.5"/>
                </g>
                <g id="arrowDown" xlink:href="#dirArrow" transform="rotate(180) translate(-30 -48)" onmousedown="handlePan(0,1)">
                  <use xlink:href="#rim" fill="#404040">
                        <set attributeName="fill" to="#808080" begin="arrowDown.mouseover" end="arrowDown.mouseout"/>
                  </use>
                  <path fill="none" stroke="white" stroke-width="1.5" d="M0,-3.0v7 M-2.5,-0.5L0,-3.0L2.5,-0.5"/>
                </g>
                <g id="arrowLeft" xlink:href="#dirArrow" transform="rotate(270) translate(-36 17)" onmousedown="handlePan(-1,0)">
                  <use xlink:href="#rim" fill="#404040">
                        <set attributeName="fill" to="#808080" begin="arrowLeft.mouseover" end="arrowLeft.mouseout"/>
                  </use>
                  <path fill="none" stroke="white" stroke-width="1.5" d="M0,-3.0v7 M-2.5,-0.5L0,-3.0L2.5,-0.5"/>
                </g>
        </g>
        <svg viewBox="0 0 15 15" width="100%" height="30px" preserveAspectRatio="xMaxYMin meet">
         <g id="arrow_out" transform="scale(0.3 0.3)">
          <a xlink:href="class_urho3_d_1_1_debug_hud__coll__graph_org.svg" target="_base">
           <rect id="button" ry="5" rx="5" y="6" x="6" height="38" width="38"
                fill="#f2f5e9" fill-opacity="0.5" stroke="#606060" stroke-width="1.0"/>
           <path id="arrow"
             d="M 11.500037,31.436501 C 11.940474,20.09759 22.043105,11.32322 32.158766,21.979434 L 37.068811,17.246167 C 37.068811,17.246167 37.088388,32 37.088388,32 L 22.160133,31.978069 C 22.160133,31.978069 26.997745,27.140456 26.997745,27.140456 C 18.528582,18.264221 13.291696,25.230495 11.500037,31.436501 z"
             style="fill:#404040;"/>
          </a>
         </g>
        </svg>
</svg>
