<?xml version="1.0" encoding="UTF-8" standalone="no"?>
<!DOCTYPE svg PUBLIC "-//W3C//DTD SVG 1.1//EN"
 "http://www.w3.org/Graphics/SVG/1.1/DTD/svg11.dtd">
<!-- Generated by graphviz version 2.43.0 (0)
 -->
<!-- Title: Urho3D::Input::GetQualifierDown Pages: 1 -->
<!--zoomable 182 -->
<svg id="main" version="1.1" xmlns="http://www.w3.org/2000/svg" xmlns:xlink="http://www.w3.org/1999/xlink" xml:space="preserve" onload="init(evt)">
<style type="text/css"><![CDATA[
.edge:hover path { stroke: red; }
.edge:hover polygon { stroke: red; fill: red; }
]]></style>
<script type="text/javascript"><![CDATA[
var edges = document.getElementsByTagName('g');
if (edges && edges.length) {
  for (var i=0;i<edges.length;i++) {
    if (edges[i].id.substr(0,4)=='edge') {
      edges[i].setAttribute('class','edge');
    }
  }
}
]]></script>
        <defs>
                <circle id="rim" cx="0" cy="0" r="7"/>
                <circle id="rim2" cx="0" cy="0" r="3.5"/>
                <g id="zoomPlus">
                        <use xlink:href="#rim" fill="#404040">
                                <set attributeName="fill" to="#808080" begin="zoomplus.mouseover" end="zoomplus.mouseout"/>
                        </use>
                        <path d="M-4,0h8M0,-4v8" fill="none" stroke="white" stroke-width="1.5" pointer-events="none"/>
                </g>
                <g id="zoomMin">
                        <use xlink:href="#rim" fill="#404040">
                                <set attributeName="fill" to="#808080" begin="zoomminus.mouseover" end="zoomminus.mouseout"/>
                        </use>
                        <path d="M-4,0h8" fill="none" stroke="white" stroke-width="1.5" pointer-events="none"/>
                </g>
                <g id="dirArrow">
                        <path fill="none" stroke="white" stroke-width="1.5" d="M0,-3.0v7 M-2.5,-0.5L0,-3.0L2.5,-0.5"/>
                </g>
               <g id="resetDef">
                       <use xlink:href="#rim2" fill="#404040">
                               <set attributeName="fill" to="#808080" begin="reset.mouseover" end="reset.mouseout"/>
                       </use>
               </g>
        </defs>

<script type="text/javascript">
var viewWidth = 1913;
var viewHeight = 182;
var sectionId = 'dynsection-6';
</script>
<script xlink:href="svgpan.js"/>
<svg id="graph" class="graph">
<g id="viewport">
<title>Urho3D::Input::GetQualifierDown</title>
<!-- Node1 -->
<g id="node1" class="node">
<title>Node1</title>
<g id="a_node1"><a xlink:title=" ">
<polygon fill="#bfbfbf" stroke="black" points="1729,-104.5 1729,-123.5 1905,-123.5 1905,-104.5 1729,-104.5"/>
<text text-anchor="middle" x="1817" y="-111.5" font-family="Helvetica,sans-Serif" font-size="10.00">Urho3D::Input::GetQualifierDown</text>
</a>
</g>
</g>
<!-- Node2 -->
<g id="node2" class="node">
<title>Node2</title>
<g id="a_node2"><a xlink:href="class_urho3_d_1_1_input.html#ae9b888480c34a74c8c1dfc926e054052" target="_top" xlink:title=" ">
<polygon fill="none" stroke="black" points="1539,-104.5 1539,-123.5 1693,-123.5 1693,-104.5 1539,-104.5"/>
<text text-anchor="middle" x="1616" y="-111.5" font-family="Helvetica,sans-Serif" font-size="10.00">Urho3D::Input::GetQualifiers</text>
</a>
</g>
</g>
<!-- Node1&#45;&gt;Node2 -->
<g id="edge1" class="edge">
<title>Node1&#45;&gt;Node2</title>
<path fill="none" stroke="midnightblue" d="M1718.44,-114C1710,-114 1701.53,-114 1693.29,-114"/>
<polygon fill="midnightblue" stroke="midnightblue" points="1718.72,-117.5 1728.72,-114 1718.72,-110.5 1718.72,-117.5"/>
</g>
<!-- Node3 -->
<g id="node3" class="node">
<title>Node3</title>
<g id="a_node3"><a xlink:href="class_urho3_d_1_1_input.html#a6be14570e8c94b23e92c9e9995cf51d1" target="_top" xlink:title="Handle a key change.">
<polygon fill="none" stroke="black" points="1163.5,-142.5 1163.5,-161.5 1287.5,-161.5 1287.5,-142.5 1163.5,-142.5"/>
<text text-anchor="middle" x="1225.5" y="-149.5" font-family="Helvetica,sans-Serif" font-size="10.00">Urho3D::Input::SetKey</text>
</a>
</g>
</g>
<!-- Node2&#45;&gt;Node3 -->
<g id="edge2" class="edge">
<title>Node2&#45;&gt;Node3</title>
<path fill="none" stroke="midnightblue" d="M1555.02,-125.31C1538.24,-128.16 1519.95,-130.99 1503,-133 1429.18,-141.78 1343.75,-146.88 1287.62,-149.55"/>
<polygon fill="midnightblue" stroke="midnightblue" points="1556,-128.69 1565.25,-123.53 1554.8,-121.79 1556,-128.69"/>
</g>
<!-- Node10 -->
<g id="node10" class="node">
<title>Node10</title>
<g id="a_node10"><a xlink:href="class_urho3_d_1_1_input.html#a5aaad4035fa80f3c86ea99524192a2d4" target="_top" xlink:title="Handle a mouse button change.">
<polygon fill="none" stroke="black" points="1333,-104.5 1333,-123.5 1503,-123.5 1503,-104.5 1333,-104.5"/>
<text text-anchor="middle" x="1418" y="-111.5" font-family="Helvetica,sans-Serif" font-size="10.00">Urho3D::Input::SetMouseButton</text>
</a>
</g>
</g>
<!-- Node2&#45;&gt;Node10 -->
<g id="edge9" class="edge">
<title>Node2&#45;&gt;Node10</title>
<path fill="none" stroke="midnightblue" d="M1528.68,-114C1520.2,-114 1511.6,-114 1503.15,-114"/>
<polygon fill="midnightblue" stroke="midnightblue" points="1528.94,-117.5 1538.94,-114 1528.94,-110.5 1528.94,-117.5"/>
</g>
<!-- Node14 -->
<g id="node14" class="node">
<title>Node14</title>
<g id="a_node14"><a xlink:href="class_urho3_d_1_1_input.html#afa0aedea65a9dc6459b993a344b742ec" target="_top" xlink:title="Handle mouse wheel change.">
<polygon fill="none" stroke="black" points="1333.5,-66.5 1333.5,-85.5 1502.5,-85.5 1502.5,-66.5 1333.5,-66.5"/>
<text text-anchor="middle" x="1418" y="-73.5" font-family="Helvetica,sans-Serif" font-size="10.00">Urho3D::Input::SetMouseWheel</text>
</a>
</g>
</g>
<!-- Node2&#45;&gt;Node14 -->
<g id="edge18" class="edge">
<title>Node2&#45;&gt;Node14</title>
<path fill="none" stroke="midnightblue" d="M1555.74,-102.51C1527.77,-97.09 1494.79,-90.69 1468.23,-85.54"/>
<polygon fill="midnightblue" stroke="midnightblue" points="1555.31,-105.99 1565.79,-104.46 1556.64,-99.12 1555.31,-105.99"/>
</g>
<!-- Node4 -->
<g id="node4" class="node">
<title>Node4</title>
<g id="a_node4"><a xlink:href="class_urho3_d_1_1_input.html#a6dc8699608ba629964e3c702e629be92" target="_top" xlink:title="Handle SDL event.">
<polygon fill="none" stroke="black" points="771,-110.5 771,-129.5 942,-129.5 942,-110.5 771,-110.5"/>
<text text-anchor="middle" x="856.5" y="-117.5" font-family="Helvetica,sans-Serif" font-size="10.00">Urho3D::Input::HandleSDLEvent</text>
</a>
</g>
</g>
<!-- Node3&#45;&gt;Node4 -->
<g id="edge3" class="edge">
<title>Node3&#45;&gt;Node4</title>
<path fill="none" stroke="midnightblue" d="M1153.27,-145.79C1092.83,-140.52 1005.98,-132.95 942.03,-127.37"/>
<polygon fill="midnightblue" stroke="midnightblue" points="1153.22,-149.3 1163.49,-146.68 1153.83,-142.32 1153.22,-149.3"/>
</g>
<!-- Node5 -->
<g id="node5" class="node">
<title>Node5</title>
<g id="a_node5"><a xlink:href="class_urho3_d_1_1_input.html#a81b43d331225b80eb2f2e647b142ab5c" target="_top" xlink:title="Handle touch events from the controls of screen joystick(s).">
<polygon fill="none" stroke="black" points="577,-105 577,-135 735,-135 735,-105 577,-105"/>
<text text-anchor="start" x="585" y="-123" font-family="Helvetica,sans-Serif" font-size="10.00">Urho3D::Input::HandleScreen</text>
<text text-anchor="middle" x="656" y="-112" font-family="Helvetica,sans-Serif" font-size="10.00">JoystickTouch</text>
</a>
</g>
</g>
<!-- Node4&#45;&gt;Node5 -->
<g id="edge4" class="edge">
<title>Node4&#45;&gt;Node5</title>
<path fill="none" stroke="midnightblue" d="M760.73,-120C752.18,-120 743.58,-120 735.19,-120"/>
<polygon fill="midnightblue" stroke="midnightblue" points="760.74,-123.5 770.74,-120 760.74,-116.5 760.74,-123.5"/>
</g>
<!-- Node6 -->
<g id="node6" class="node">
<title>Node6</title>
<g id="a_node6"><a xlink:href="class_urho3_d_1_1_input.html#ab4cd4fe34682b2d90183f181718c6125" target="_top" xlink:title="Poll for window messages. Called by HandleBeginFrame().">
<polygon fill="none" stroke="black" points="593.5,-154.5 593.5,-173.5 718.5,-173.5 718.5,-154.5 593.5,-154.5"/>
<text text-anchor="middle" x="656" y="-161.5" font-family="Helvetica,sans-Serif" font-size="10.00">Urho3D::Input::Update</text>
</a>
</g>
</g>
<!-- Node4&#45;&gt;Node6 -->
<g id="edge5" class="edge">
<title>Node4&#45;&gt;Node6</title>
<path fill="none" stroke="midnightblue" d="M802.34,-131.78C770.29,-138.89 730.01,-147.82 699.99,-154.47"/>
<polygon fill="midnightblue" stroke="midnightblue" points="803.42,-135.13 812.43,-129.55 801.91,-128.29 803.42,-135.13"/>
</g>
<!-- Node7 -->
<g id="node7" class="node">
<title>Node7</title>
<g id="a_node7"><a xlink:href="class_urho3_d_1_1_input.html#a147c4675aa679dbf4d9702b3d3d6b921" target="_top" xlink:title="Handle frame start event.">
<polygon fill="none" stroke="black" points="389,-127 389,-157 541,-157 541,-127 389,-127"/>
<text text-anchor="start" x="397" y="-145" font-family="Helvetica,sans-Serif" font-size="10.00">Urho3D::Input::HandleBegin</text>
<text text-anchor="middle" x="465" y="-134" font-family="Helvetica,sans-Serif" font-size="10.00">Frame</text>
</a>
</g>
</g>
<!-- Node6&#45;&gt;Node7 -->
<g id="edge6" class="edge">
<title>Node6&#45;&gt;Node7</title>
<path fill="none" stroke="midnightblue" d="M583.43,-155.67C569.58,-154.06 555.03,-152.36 541.07,-150.74"/>
<polygon fill="midnightblue" stroke="midnightblue" points="583.04,-159.15 593.38,-156.83 583.85,-152.19 583.04,-159.15"/>
</g>
<!-- Node8 -->
<g id="node8" class="node">
<title>Node8</title>
<g id="a_node8"><a xlink:href="class_urho3_d_1_1_input.html#a2b19913a84b72c17a1079b821ec18564" target="_top" xlink:title="Initialize when screen mode initially set.">
<polygon fill="none" stroke="black" points="221,-47.5 221,-66.5 353,-66.5 353,-47.5 221,-47.5"/>
<text text-anchor="middle" x="287" y="-54.5" font-family="Helvetica,sans-Serif" font-size="10.00">Urho3D::Input::Initialize</text>
</a>
</g>
</g>
<!-- Node7&#45;&gt;Node8 -->
<g id="edge7" class="edge">
<title>Node7&#45;&gt;Node8</title>
<path fill="none" stroke="midnightblue" d="M423.63,-122.5C387.41,-105.01 335.78,-80.07 307.82,-66.57"/>
<polygon fill="midnightblue" stroke="midnightblue" points="422.41,-125.8 432.94,-127 425.46,-119.5 422.41,-125.8"/>
</g>
<!-- Node9 -->
<g id="node9" class="node">
<title>Node9</title>
<g id="a_node9"><a xlink:href="class_urho3_d_1_1_input.html#ac0a172bd8f0568c96db9ceb0b46ed0e5" target="_top" xlink:title="Handle screen mode event.">
<polygon fill="none" stroke="black" points="0,-47.5 0,-66.5 185,-66.5 185,-47.5 0,-47.5"/>
<text text-anchor="middle" x="92.5" y="-54.5" font-family="Helvetica,sans-Serif" font-size="10.00">Urho3D::Input::HandleScreenMode</text>
</a>
</g>
</g>
<!-- Node8&#45;&gt;Node9 -->
<g id="edge8" class="edge">
<title>Node8&#45;&gt;Node9</title>
<path fill="none" stroke="midnightblue" d="M210.75,-57C202.38,-57 193.79,-57 185.25,-57"/>
<polygon fill="midnightblue" stroke="midnightblue" points="210.83,-60.5 220.83,-57 210.83,-53.5 210.83,-60.5"/>
</g>
<!-- Node10&#45;&gt;Node4 -->
<g id="edge10" class="edge">
<title>Node10&#45;&gt;Node4</title>
<path fill="none" stroke="midnightblue" d="M1322.84,-115.01C1216.38,-116.15 1044.59,-117.99 942.2,-119.09"/>
<polygon fill="midnightblue" stroke="midnightblue" points="1322.97,-118.51 1332.93,-114.9 1322.9,-111.51 1322.97,-118.51"/>
</g>
<!-- Node11 -->
<g id="node11" class="node">
<title>Node11</title>
<g id="a_node11"><a xlink:href="class_urho3_d_1_1_input.html#a0131572cfae7e4fc8d150c6efae41f72" target="_top" xlink:title="Clear input state.">
<polygon fill="none" stroke="black" points="1154,-47.5 1154,-66.5 1297,-66.5 1297,-47.5 1154,-47.5"/>
<text text-anchor="middle" x="1225.5" y="-54.5" font-family="Helvetica,sans-Serif" font-size="10.00">Urho3D::Input::ResetState</text>
</a>
</g>
</g>
<!-- Node10&#45;&gt;Node11 -->
<g id="edge11" class="edge">
<title>Node10&#45;&gt;Node11</title>
<path fill="none" stroke="midnightblue" d="M1360.26,-102.14C1351.1,-99.95 1341.75,-97.54 1333,-95 1304.34,-86.68 1272.17,-74.84 1250.76,-66.6"/>
<polygon fill="midnightblue" stroke="midnightblue" points="1359.56,-105.57 1370.09,-104.44 1361.15,-98.76 1359.56,-105.57"/>
</g>
<!-- Node11&#45;&gt;Node8 -->
<g id="edge15" class="edge">
<title>Node11&#45;&gt;Node8</title>
<path fill="none" stroke="midnightblue" d="M1178.07,-45.08C1108.77,-28.37 973.96,0 857.5,0 857.5,0 857.5,0 655,0 532.81,0 390.42,-31.23 324.69,-47.46"/>
<polygon fill="midnightblue" stroke="midnightblue" points="1177.26,-48.49 1187.81,-47.46 1178.92,-41.69 1177.26,-48.49"/>
</g>
<!-- Node12 -->
<g id="node12" class="node">
<title>Node12</title>
<g id="a_node12"><a xlink:href="class_urho3_d_1_1_input.html#a31ac853b836e1c4bb1106a984aefd1f6" target="_top" xlink:title="Prepare input state for application gaining input focus.">
<polygon fill="none" stroke="black" points="978,-66.5 978,-85.5 1118,-85.5 1118,-66.5 978,-66.5"/>
<text text-anchor="middle" x="1048" y="-73.5" font-family="Helvetica,sans-Serif" font-size="10.00">Urho3D::Input::GainFocus</text>
</a>
</g>
</g>
<!-- Node11&#45;&gt;Node12 -->
<g id="edge12" class="edge">
<title>Node11&#45;&gt;Node12</title>
<path fill="none" stroke="midnightblue" d="M1143.83,-65.73C1135.22,-66.67 1126.51,-67.61 1118.05,-68.52"/>
<polygon fill="midnightblue" stroke="midnightblue" points="1144.31,-69.2 1153.88,-64.65 1143.56,-62.24 1144.31,-69.2"/>
</g>
<!-- Node13 -->
<g id="node13" class="node">
<title>Node13</title>
<g id="a_node13"><a xlink:href="class_urho3_d_1_1_input.html#ac35fd7d54a42a16634d28a227d4e7581" target="_top" xlink:title="Prepare input state for application losing input focus.">
<polygon fill="none" stroke="black" points="786.5,-28.5 786.5,-47.5 926.5,-47.5 926.5,-28.5 786.5,-28.5"/>
<text text-anchor="middle" x="856.5" y="-35.5" font-family="Helvetica,sans-Serif" font-size="10.00">Urho3D::Input::LoseFocus</text>
</a>
</g>
</g>
<!-- Node11&#45;&gt;Node13 -->
<g id="edge16" class="edge">
<title>Node11&#45;&gt;Node13</title>
<path fill="none" stroke="midnightblue" d="M1143.54,-52.81C1078.61,-49.45 988.44,-44.78 926.8,-41.59"/>
<polygon fill="midnightblue" stroke="midnightblue" points="1143.57,-56.31 1153.74,-53.34 1143.93,-49.32 1143.57,-56.31"/>
</g>
<!-- Node12&#45;&gt;Node4 -->
<g id="edge13" class="edge">
<title>Node12&#45;&gt;Node4</title>
<path fill="none" stroke="midnightblue" d="M995.85,-87.88C965.32,-94.96 927.08,-103.84 898.54,-110.47"/>
<polygon fill="midnightblue" stroke="midnightblue" points="996.93,-91.22 1005.88,-85.55 995.35,-84.4 996.93,-91.22"/>
</g>
<!-- Node12&#45;&gt;Node8 -->
<g id="edge14" class="edge">
<title>Node12&#45;&gt;Node8</title>
<path fill="none" stroke="midnightblue" d="M967.69,-75.03C844.04,-73.36 597.81,-69.39 389,-62 377.42,-61.59 365.1,-61.06 353.19,-60.5"/>
<polygon fill="midnightblue" stroke="midnightblue" points="967.78,-78.54 977.83,-75.17 967.87,-71.54 967.78,-78.54"/>
</g>
<!-- Node13&#45;&gt;Node8 -->
<g id="edge17" class="edge">
<title>Node13&#45;&gt;Node8</title>
<path fill="none" stroke="midnightblue" d="M776.17,-40.66C663.08,-44.44 457.68,-51.32 353.04,-54.82"/>
<polygon fill="midnightblue" stroke="midnightblue" points="776.6,-44.14 786.48,-40.31 776.37,-37.15 776.6,-44.14"/>
</g>
</g>
</svg>
        <g id="navigator" transform="translate(0 0)" fill="#404254">
                <rect fill="#f2f5e9" fill-opacity="0.5" stroke="#606060" stroke-width=".5" x="0" y="0" width="60" height="60"/>
                <use id="zoomplus" xlink:href="#zoomPlus" x="17" y="9" onmousedown="handleZoom(evt,'in')"/>
                <use id="zoomminus" xlink:href="#zoomMin" x="42" y="9" onmousedown="handleZoom(evt,'out')"/>
                <use id="reset" xlink:href="#resetDef" x="30" y="36" onmousedown="handleReset()"/>
                <g id="arrowUp" xlink:href="#dirArrow" transform="translate(30 24)" onmousedown="handlePan(0,-1)">
                  <use xlink:href="#rim" fill="#404040">
                        <set attributeName="fill" to="#808080" begin="arrowUp.mouseover" end="arrowUp.mouseout"/>
                  </use>
                  <path fill="none" stroke="white" stroke-width="1.5" d="M0,-3.0v7 M-2.5,-0.5L0,-3.0L2.5,-0.5"/>
                </g>
                <g id="arrowRight" xlink:href="#dirArrow" transform="rotate(90) translate(36 -43)" onmousedown="handlePan(1,0)">
                  <use xlink:href="#rim" fill="#404040">
                        <set attributeName="fill" to="#808080" begin="arrowRight.mouseover" end="arrowRight.mouseout"/>
                  </use>
                  <path fill="none" stroke="white" stroke-width="1.5" d="M0,-3.0v7 M-2.5,-0.5L0,-3.0L2.5,-0.5"/>
                </g>
                <g id="arrowDown" xlink:href="#dirArrow" transform="rotate(180) translate(-30 -48)" onmousedown="handlePan(0,1)">
                  <use xlink:href="#rim" fill="#404040">
                        <set attributeName="fill" to="#808080" begin="arrowDown.mouseover" end="arrowDown.mouseout"/>
                  </use>
                  <path fill="none" stroke="white" stroke-width="1.5" d="M0,-3.0v7 M-2.5,-0.5L0,-3.0L2.5,-0.5"/>
                </g>
                <g id="arrowLeft" xlink:href="#dirArrow" transform="rotate(270) translate(-36 17)" onmousedown="handlePan(-1,0)">
                  <use xlink:href="#rim" fill="#404040">
                        <set attributeName="fill" to="#808080" begin="arrowLeft.mouseover" end="arrowLeft.mouseout"/>
                  </use>
                  <path fill="none" stroke="white" stroke-width="1.5" d="M0,-3.0v7 M-2.5,-0.5L0,-3.0L2.5,-0.5"/>
                </g>
        </g>
        <svg viewBox="0 0 15 15" width="100%" height="30px" preserveAspectRatio="xMaxYMin meet">
         <g id="arrow_out" transform="scale(0.3 0.3)">
          <a xlink:href="class_urho3_d_1_1_input_a0a1e765a94c71013f1e413c716ba56a7_icgraph_org.svg" target="_base">
           <rect id="button" ry="5" rx="5" y="6" x="6" height="38" width="38"
                fill="#f2f5e9" fill-opacity="0.5" stroke="#606060" stroke-width="1.0"/>
           <path id="arrow"
             d="M 11.500037,31.436501 C 11.940474,20.09759 22.043105,11.32322 32.158766,21.979434 L 37.068811,17.246167 C 37.068811,17.246167 37.088388,32 37.088388,32 L 22.160133,31.978069 C 22.160133,31.978069 26.997745,27.140456 26.997745,27.140456 C 18.528582,18.264221 13.291696,25.230495 11.500037,31.436501 z"
             style="fill:#404040;"/>
          </a>
         </g>
        </svg>
</svg>
