<?xml version="1.0" encoding="UTF-8" standalone="no"?>
<!DOCTYPE svg PUBLIC "-//W3C//DTD SVG 1.1//EN"
 "http://www.w3.org/Graphics/SVG/1.1/DTD/svg11.dtd">
<!-- Generated by graphviz version 2.43.0 (0)
 -->
<!-- Title: Urho3D::XMLElement::NotNull Pages: 1 -->
<!--zoomable 509 -->
<svg id="main" version="1.1" xmlns="http://www.w3.org/2000/svg" xmlns:xlink="http://www.w3.org/1999/xlink" xml:space="preserve" onload="init(evt)">
<style type="text/css"><![CDATA[
.edge:hover path { stroke: red; }
.edge:hover polygon { stroke: red; fill: red; }
]]></style>
<script type="text/javascript"><![CDATA[
var edges = document.getElementsByTagName('g');
if (edges && edges.length) {
  for (var i=0;i<edges.length;i++) {
    if (edges[i].id.substr(0,4)=='edge') {
      edges[i].setAttribute('class','edge');
    }
  }
}
]]></script>
        <defs>
                <circle id="rim" cx="0" cy="0" r="7"/>
                <circle id="rim2" cx="0" cy="0" r="3.5"/>
                <g id="zoomPlus">
                        <use xlink:href="#rim" fill="#404040">
                                <set attributeName="fill" to="#808080" begin="zoomplus.mouseover" end="zoomplus.mouseout"/>
                        </use>
                        <path d="M-4,0h8M0,-4v8" fill="none" stroke="white" stroke-width="1.5" pointer-events="none"/>
                </g>
                <g id="zoomMin">
                        <use xlink:href="#rim" fill="#404040">
                                <set attributeName="fill" to="#808080" begin="zoomminus.mouseover" end="zoomminus.mouseout"/>
                        </use>
                        <path d="M-4,0h8" fill="none" stroke="white" stroke-width="1.5" pointer-events="none"/>
                </g>
                <g id="dirArrow">
                        <path fill="none" stroke="white" stroke-width="1.5" d="M0,-3.0v7 M-2.5,-0.5L0,-3.0L2.5,-0.5"/>
                </g>
               <g id="resetDef">
                       <use xlink:href="#rim2" fill="#404040">
                               <set attributeName="fill" to="#808080" begin="reset.mouseover" end="reset.mouseout"/>
                       </use>
               </g>
        </defs>

<script type="text/javascript">
var viewWidth = 1077;
var viewHeight = 509;
var sectionId = 'dynsection-9';
</script>
<script xlink:href="svgpan.js"/>
<svg id="graph" class="graph">
<g id="viewport">
<title>Urho3D::XMLElement::NotNull</title>
<!-- Node1 -->
<g id="node1" class="node">
<title>Node1</title>
<g id="a_node1"><a xlink:title=" ">
<polygon fill="#bfbfbf" stroke="black" points="948,-301.5 948,-331.5 1069,-331.5 1069,-301.5 948,-301.5"/>
<text text-anchor="start" x="956" y="-319.5" font-family="Helvetica,sans-Serif" font-size="10.00">Urho3D::XMLElement</text>
<text text-anchor="middle" x="1008.5" y="-308.5" font-family="Helvetica,sans-Serif" font-size="10.00">::NotNull</text>
</a>
</g>
</g>
<!-- Node2 -->
<g id="node2" class="node">
<title>Node2</title>
<g id="a_node2"><a xlink:href="class_urho3_d_1_1_x_m_l_element.html#aae4d51b6c365538737cbec1a22add914" target="_top" xlink:title="Return the first child element with name or create if does not exist.">
<polygon fill="none" stroke="black" points="758,-383.5 758,-413.5 879,-413.5 879,-383.5 758,-383.5"/>
<text text-anchor="start" x="766" y="-401.5" font-family="Helvetica,sans-Serif" font-size="10.00">Urho3D::XMLElement</text>
<text text-anchor="middle" x="818.5" y="-390.5" font-family="Helvetica,sans-Serif" font-size="10.00">::GetOrCreateChild</text>
</a>
</g>
</g>
<!-- Node1&#45;&gt;Node2 -->
<g id="edge1" class="edge">
<title>Node1&#45;&gt;Node2</title>
<path fill="none" stroke="midnightblue" d="M977.56,-337.28C959.29,-349.21 935.07,-363.72 912,-373.5 901.59,-377.92 890.18,-381.75 879.04,-385"/>
<polygon fill="midnightblue" stroke="midnightblue" points="979.63,-340.1 986.03,-331.66 975.76,-334.27 979.63,-340.1"/>
</g>
<!-- Node3 -->
<g id="node3" class="node">
<title>Node3</title>
<g id="a_node3"><a xlink:href="class_urho3_d_1_1_x_m_l_file.html#ae7b0f1651c454a95ec9b0086edf4e67f" target="_top" xlink:title="Get the root element if it has matching name, otherwise create it and clear the document.">
<polygon fill="none" stroke="black" points="725,-345 725,-364 912,-364 912,-345 725,-345"/>
<text text-anchor="middle" x="818.5" y="-352" font-family="Helvetica,sans-Serif" font-size="10.00">Urho3D::XMLFile::GetOrCreateRoot</text>
</a>
</g>
</g>
<!-- Node1&#45;&gt;Node3 -->
<g id="edge2" class="edge">
<title>Node1&#45;&gt;Node3</title>
<path fill="none" stroke="midnightblue" d="M937.75,-330.6C914.02,-335.39 888.09,-340.64 866.57,-344.99"/>
<polygon fill="midnightblue" stroke="midnightblue" points="938.65,-333.99 947.76,-328.58 937.26,-327.13 938.65,-333.99"/>
</g>
<!-- Node4 -->
<g id="node4" class="node">
<title>Node4</title>
<g id="a_node4"><a xlink:href="class_urho3_d_1_1_x_m_l_element.html#ad7c2e67e5dfefddc309e1c809aa1ba74" target="_top" xlink:title=" ">
<polygon fill="none" stroke="black" points="758,-257.5 758,-287.5 879,-287.5 879,-257.5 758,-257.5"/>
<text text-anchor="start" x="766" y="-275.5" font-family="Helvetica,sans-Serif" font-size="10.00">Urho3D::XMLElement</text>
<text text-anchor="middle" x="818.5" y="-264.5" font-family="Helvetica,sans-Serif" font-size="10.00">::IsNull</text>
</a>
</g>
</g>
<!-- Node1&#45;&gt;Node4 -->
<g id="edge3" class="edge">
<title>Node1&#45;&gt;Node4</title>
<path fill="none" stroke="midnightblue" d="M937.82,-300.19C918.52,-295.67 897.75,-290.81 879.09,-286.45"/>
<polygon fill="midnightblue" stroke="midnightblue" points="937.22,-303.65 947.76,-302.52 938.82,-296.83 937.22,-303.65"/>
</g>
<!-- Node8 -->
<g id="node8" class="node">
<title>Node8</title>
<g id="a_node8"><a xlink:href="class_urho3_d_1_1_font_face_bitmap.html#aa7c66b38a3934b0ec5fa4b76afe01f2a" target="_top" xlink:title="Load font face.">
<polygon fill="none" stroke="black" points="540,-470.5 540,-500.5 677,-500.5 677,-470.5 540,-470.5"/>
<text text-anchor="start" x="548" y="-488.5" font-family="Helvetica,sans-Serif" font-size="10.00">Urho3D::FontFaceBitmap</text>
<text text-anchor="middle" x="608.5" y="-477.5" font-family="Helvetica,sans-Serif" font-size="10.00">::Load</text>
</a>
</g>
</g>
<!-- Node1&#45;&gt;Node8 -->
<g id="edge25" class="edge">
<title>Node1&#45;&gt;Node8</title>
<path fill="none" stroke="midnightblue" d="M937.73,-312.33C864.76,-309.48 756.54,-310.01 725,-335.5 679.71,-372.11 729.87,-420.01 689,-461.5 685.46,-465.09 681.4,-468.15 677.03,-470.76"/>
<polygon fill="midnightblue" stroke="midnightblue" points="937.64,-315.83 947.78,-312.75 937.94,-308.84 937.64,-315.83"/>
</g>
<!-- Node27 -->
<g id="node24" class="node">
<title>Node27</title>
<g id="a_node24"><a xlink:href="class_urho3_d_1_1_tmx_file2_d.html#ac547014321b24294a62bbf61b271768d" target="_top" xlink:title="Load tile set.">
<polygon fill="none" stroke="black" points="759.5,-115.5 759.5,-145.5 877.5,-145.5 877.5,-115.5 759.5,-115.5"/>
<text text-anchor="start" x="767.5" y="-133.5" font-family="Helvetica,sans-Serif" font-size="10.00">Urho3D::TmxFile2D::</text>
<text text-anchor="middle" x="818.5" y="-122.5" font-family="Helvetica,sans-Serif" font-size="10.00">LoadTileSet</text>
</a>
</g>
</g>
<!-- Node1&#45;&gt;Node27 -->
<g id="edge26" class="edge">
<title>Node1&#45;&gt;Node27</title>
<path fill="none" stroke="midnightblue" d="M984.91,-294.15C946.14,-255.8 867.92,-178.4 834.83,-145.67"/>
<polygon fill="midnightblue" stroke="midnightblue" points="982.54,-296.73 992.12,-301.28 987.47,-291.76 982.54,-296.73"/>
</g>
<!-- Node5 -->
<g id="node5" class="node">
<title>Node5</title>
<g id="a_node5"><a xlink:href="class_urho3_d_1_1_particle_effect.html#ad4c5be7e7d289782cd30729c55123baa" target="_top" xlink:title="Read a float range from an XML element.">
<polygon fill="none" stroke="black" points="547,-421.5 547,-451.5 670,-451.5 670,-421.5 547,-421.5"/>
<text text-anchor="start" x="555" y="-439.5" font-family="Helvetica,sans-Serif" font-size="10.00">Urho3D::ParticleEffect</text>
<text text-anchor="middle" x="608.5" y="-428.5" font-family="Helvetica,sans-Serif" font-size="10.00">::GetFloatMinMax</text>
</a>
</g>
</g>
<!-- Node4&#45;&gt;Node5 -->
<g id="edge4" class="edge">
<title>Node4&#45;&gt;Node5</title>
<path fill="none" stroke="midnightblue" d="M748.17,-286.8C739.62,-290.8 731.58,-295.93 725,-302.5 688.58,-338.83 725.79,-376.55 689,-412.5 683.64,-417.74 677.17,-421.84 670.28,-425.05"/>
<polygon fill="midnightblue" stroke="midnightblue" points="749.72,-289.94 757.61,-282.87 747.03,-283.48 749.72,-289.94"/>
</g>
<!-- Node6 -->
<g id="node6" class="node">
<title>Node6</title>
<g id="a_node6"><a xlink:href="class_urho3_d_1_1_particle_effect.html#aa5d97729e6ada2433663415846e7c064" target="_top" xlink:title="Read a Vector2 range from an XML element.">
<polygon fill="none" stroke="black" points="547,-372.5 547,-402.5 670,-402.5 670,-372.5 547,-372.5"/>
<text text-anchor="start" x="555" y="-390.5" font-family="Helvetica,sans-Serif" font-size="10.00">Urho3D::ParticleEffect</text>
<text text-anchor="middle" x="608.5" y="-379.5" font-family="Helvetica,sans-Serif" font-size="10.00">::GetVector2MinMax</text>
</a>
</g>
</g>
<!-- Node4&#45;&gt;Node6 -->
<g id="edge5" class="edge">
<title>Node4&#45;&gt;Node6</title>
<path fill="none" stroke="midnightblue" d="M748.1,-288.76C739.83,-292.46 731.89,-296.98 725,-302.5 700.44,-322.19 713.76,-344.06 689,-363.5 683.33,-367.95 676.84,-371.58 670.07,-374.53"/>
<polygon fill="midnightblue" stroke="midnightblue" points="749.58,-291.94 757.53,-284.93 746.95,-285.45 749.58,-291.94"/>
</g>
<!-- Node7 -->
<g id="node7" class="node">
<title>Node7</title>
<g id="a_node7"><a xlink:href="class_urho3_d_1_1_particle_effect.html#a5b59cb70a3df1c8208c67d2fc8b06a6c" target="_top" xlink:title="Read a Vector3 from an XML element.">
<polygon fill="none" stroke="black" points="547,-323.5 547,-353.5 670,-353.5 670,-323.5 547,-323.5"/>
<text text-anchor="start" x="555" y="-341.5" font-family="Helvetica,sans-Serif" font-size="10.00">Urho3D::ParticleEffect</text>
<text text-anchor="middle" x="608.5" y="-330.5" font-family="Helvetica,sans-Serif" font-size="10.00">::GetVector3MinMax</text>
</a>
</g>
</g>
<!-- Node4&#45;&gt;Node7 -->
<g id="edge6" class="edge">
<title>Node4&#45;&gt;Node7</title>
<path fill="none" stroke="midnightblue" d="M760.84,-290.63C738.47,-297.78 712.53,-306.05 689,-313.5 678.79,-316.73 667.84,-320.19 657.44,-323.46"/>
<polygon fill="midnightblue" stroke="midnightblue" points="762.06,-293.92 770.52,-287.54 759.93,-287.25 762.06,-293.92"/>
</g>
<!-- Node4&#45;&gt;Node8 -->
<g id="edge7" class="edge">
<title>Node4&#45;&gt;Node8</title>
<path fill="none" stroke="midnightblue" d="M748.55,-285.78C739.72,-289.94 731.51,-295.37 725,-302.5 676.15,-356.01 738.4,-408.49 689,-461.5 685.56,-465.19 681.57,-468.32 677.26,-470.98"/>
<polygon fill="midnightblue" stroke="midnightblue" points="750.02,-288.96 757.93,-281.91 747.35,-282.49 750.02,-288.96"/>
</g>
<!-- Node9 -->
<g id="node9" class="node">
<title>Node9</title>
<g id="a_node9"><a xlink:href="class_urho3_d_1_1_material.html#a843c233ee44a1b2d1aaea55d989782fe" target="_top" xlink:title="Load from an XML element. Return true if successful.">
<polygon fill="none" stroke="black" points="544,-285 544,-304 673,-304 673,-285 544,-285"/>
<text text-anchor="middle" x="608.5" y="-292" font-family="Helvetica,sans-Serif" font-size="10.00">Urho3D::Material::Load</text>
</a>
</g>
</g>
<!-- Node4&#45;&gt;Node9 -->
<g id="edge8" class="edge">
<title>Node4&#45;&gt;Node9</title>
<path fill="none" stroke="midnightblue" d="M747.74,-279.88C723.61,-282.43 696.72,-285.28 673.11,-287.77"/>
<polygon fill="midnightblue" stroke="midnightblue" points="748.32,-283.34 757.9,-278.8 747.58,-276.38 748.32,-283.34"/>
</g>
<!-- Node11 -->
<g id="node11" class="node">
<title>Node11</title>
<g id="a_node11"><a xlink:href="class_urho3_d_1_1_serializable.html#a725a0fc06d1b050525e2d02c5e7187ad" target="_top" xlink:title="Load from XML data. Return true if successful.">
<polygon fill="none" stroke="black" points="550.5,-235.5 550.5,-265.5 666.5,-265.5 666.5,-235.5 550.5,-235.5"/>
<text text-anchor="start" x="558.5" y="-253.5" font-family="Helvetica,sans-Serif" font-size="10.00">Urho3D::Serializable</text>
<text text-anchor="middle" x="608.5" y="-242.5" font-family="Helvetica,sans-Serif" font-size="10.00">::LoadXML</text>
</a>
</g>
</g>
<!-- Node4&#45;&gt;Node11 -->
<g id="edge10" class="edge">
<title>Node4&#45;&gt;Node11</title>
<path fill="none" stroke="midnightblue" d="M747.95,-265.14C721.52,-262.35 691.75,-259.2 666.61,-256.54"/>
<polygon fill="midnightblue" stroke="midnightblue" points="747.58,-268.62 757.9,-266.2 748.32,-261.66 747.58,-268.62"/>
</g>
<!-- Node17 -->
<g id="node17" class="node">
<title>Node17</title>
<g id="a_node17"><a xlink:href="class_urho3_d_1_1_material.html#afb17e0a0301cbbdaaa9a258d53b1993b" target="_top" xlink:title="Save to an XML element. Return true if successful.">
<polygon fill="none" stroke="black" points="543.5,-197 543.5,-216 673.5,-216 673.5,-197 543.5,-197"/>
<text text-anchor="middle" x="608.5" y="-204" font-family="Helvetica,sans-Serif" font-size="10.00">Urho3D::Material::Save</text>
</a>
</g>
</g>
<!-- Node4&#45;&gt;Node17 -->
<g id="edge16" class="edge">
<title>Node4&#45;&gt;Node17</title>
<path fill="none" stroke="midnightblue" d="M768.92,-253.85C745.03,-245 715.7,-234.62 689,-226.5 676.61,-222.73 662.98,-219.12 650.56,-216.02"/>
<polygon fill="midnightblue" stroke="midnightblue" points="767.87,-257.19 778.46,-257.41 770.32,-250.63 767.87,-257.19"/>
</g>
<!-- Node18 -->
<g id="node18" class="node">
<title>Node18</title>
<g id="a_node18"><a xlink:href="class_urho3_d_1_1_particle_effect.html#a9ace98e5fccc8ec89dfdf17f91fb67df" target="_top" xlink:title="Save resource to XMLElement. Return true if successful.">
<polygon fill="none" stroke="black" points="547,-147.5 547,-177.5 670,-177.5 670,-147.5 547,-147.5"/>
<text text-anchor="start" x="555" y="-165.5" font-family="Helvetica,sans-Serif" font-size="10.00">Urho3D::ParticleEffect</text>
<text text-anchor="middle" x="608.5" y="-154.5" font-family="Helvetica,sans-Serif" font-size="10.00">::Save</text>
</a>
</g>
</g>
<!-- Node4&#45;&gt;Node18 -->
<g id="edge17" class="edge">
<title>Node4&#45;&gt;Node18</title>
<path fill="none" stroke="midnightblue" d="M790.2,-251.16C765.06,-232.33 726.15,-205.2 689,-187.5 681.29,-183.83 672.92,-180.52 664.59,-177.61"/>
<polygon fill="midnightblue" stroke="midnightblue" points="788.41,-254.19 798.49,-257.44 792.64,-248.61 788.41,-254.19"/>
</g>
<!-- Node19 -->
<g id="node19" class="node">
<title>Node19</title>
<g id="a_node19"><a xlink:href="class_urho3_d_1_1_unknown_component.html#a6e2e9af0ae462c5baee7d4e7d56883da" target="_top" xlink:title="Save as XML data. Return true if successful.">
<polygon fill="none" stroke="black" points="528,-98.5 528,-128.5 689,-128.5 689,-98.5 528,-98.5"/>
<text text-anchor="start" x="536" y="-116.5" font-family="Helvetica,sans-Serif" font-size="10.00">Urho3D::UnknownComponent</text>
<text text-anchor="middle" x="608.5" y="-105.5" font-family="Helvetica,sans-Serif" font-size="10.00">::SaveXML</text>
</a>
</g>
</g>
<!-- Node4&#45;&gt;Node19 -->
<g id="edge18" class="edge">
<title>Node4&#45;&gt;Node19</title>
<path fill="none" stroke="midnightblue" d="M801,-249.08C778.81,-219.26 736.61,-168.05 689,-138.5 682.85,-134.68 676.08,-131.41 669.15,-128.6"/>
<polygon fill="midnightblue" stroke="midnightblue" points="798.24,-251.24 806.97,-257.25 803.89,-247.11 798.24,-251.24"/>
</g>
<!-- Node20 -->
<g id="node20" class="node">
<title>Node20</title>
<g id="a_node20"><a xlink:href="class_urho3_d_1_1_serializable.html#a3fbac3aa471adea86dea09bfa4b3960f" target="_top" xlink:title="Save as XML data. Return true if successful.">
<polygon fill="none" stroke="black" points="550.5,-49.5 550.5,-79.5 666.5,-79.5 666.5,-49.5 550.5,-49.5"/>
<text text-anchor="start" x="558.5" y="-67.5" font-family="Helvetica,sans-Serif" font-size="10.00">Urho3D::Serializable</text>
<text text-anchor="middle" x="608.5" y="-56.5" font-family="Helvetica,sans-Serif" font-size="10.00">::SaveXML</text>
</a>
</g>
</g>
<!-- Node4&#45;&gt;Node20 -->
<g id="edge19" class="edge">
<title>Node4&#45;&gt;Node20</title>
<path fill="none" stroke="midnightblue" d="M797.33,-249.43C777.71,-226.44 747.64,-189.74 725,-155.5 706.57,-127.63 714.81,-110.72 689,-89.5 682.41,-84.08 674.63,-79.83 666.56,-76.5"/>
<polygon fill="midnightblue" stroke="midnightblue" points="794.88,-251.94 804.05,-257.24 800.18,-247.38 794.88,-251.94"/>
</g>
<!-- Node10 -->
<g id="node10" class="node">
<title>Node10</title>
<g id="a_node10"><a xlink:href="class_urho3_d_1_1_material.html#a2ed97bf462e83b2587c88fbabd794229" target="_top" xlink:title="Finish resource loading. Always called from the main thread. Return true if successful.">
<polygon fill="none" stroke="black" points="345,-285 345,-304 492,-304 492,-285 345,-285"/>
<text text-anchor="middle" x="418.5" y="-292" font-family="Helvetica,sans-Serif" font-size="10.00">Urho3D::Material::EndLoad</text>
</a>
</g>
</g>
<!-- Node9&#45;&gt;Node10 -->
<g id="edge9" class="edge">
<title>Node9&#45;&gt;Node10</title>
<path fill="none" stroke="midnightblue" d="M533.57,-294.5C519.95,-294.5 505.74,-294.5 492.15,-294.5"/>
<polygon fill="midnightblue" stroke="midnightblue" points="533.85,-298 543.85,-294.5 533.85,-291 533.85,-298"/>
</g>
<!-- Node12 -->
<g id="node12" class="node">
<title>Node12</title>
<g id="a_node12"><a xlink:href="class_urho3_d_1_1_menu.html#a00efa90d9d6a5023541fffd71a38a984" target="_top" xlink:title="Load from XML data with style. Return true if successful.">
<polygon fill="none" stroke="black" points="350,-244 350,-263 487,-263 487,-244 350,-244"/>
<text text-anchor="middle" x="418.5" y="-251" font-family="Helvetica,sans-Serif" font-size="10.00">Urho3D::Menu::LoadXML</text>
</a>
</g>
</g>
<!-- Node11&#45;&gt;Node12 -->
<g id="edge11" class="edge">
<title>Node11&#45;&gt;Node12</title>
<path fill="none" stroke="midnightblue" d="M539.87,-251.58C522.78,-251.85 504.41,-252.14 487.31,-252.42"/>
<polygon fill="midnightblue" stroke="midnightblue" points="540.39,-255.07 550.33,-251.41 540.27,-248.07 540.39,-255.07"/>
</g>
<!-- Node13 -->
<g id="node13" class="node">
<title>Node13</title>
<g id="a_node13"><a xlink:href="class_urho3_d_1_1_animatable.html#afa12710c0500b10d8e68eb6f62847204" target="_top" xlink:title="Load from XML data. Return true if successful.">
<polygon fill="none" stroke="black" points="360.5,-194.5 360.5,-224.5 476.5,-224.5 476.5,-194.5 360.5,-194.5"/>
<text text-anchor="start" x="368.5" y="-212.5" font-family="Helvetica,sans-Serif" font-size="10.00">Urho3D::Animatable</text>
<text text-anchor="middle" x="418.5" y="-201.5" font-family="Helvetica,sans-Serif" font-size="10.00">::LoadXML</text>
</a>
</g>
</g>
<!-- Node11&#45;&gt;Node13 -->
<g id="edge12" class="edge">
<title>Node11&#45;&gt;Node13</title>
<path fill="none" stroke="midnightblue" d="M540.29,-235.84C519.49,-231.31 496.78,-226.35 476.72,-221.98"/>
<polygon fill="midnightblue" stroke="midnightblue" points="539.81,-239.32 550.33,-238.03 541.3,-232.48 539.81,-239.32"/>
</g>
<!-- Node14 -->
<g id="node14" class="node">
<title>Node14</title>
<g id="a_node14"><a xlink:href="class_urho3_d_1_1_animated_model.html#a8132d5f7592e0beee39b8c68fc6d8603" target="_top" xlink:title="Load from XML data. Return true if successful.">
<polygon fill="none" stroke="black" points="172,-243.5 172,-273.5 309,-273.5 309,-243.5 172,-243.5"/>
<text text-anchor="start" x="180" y="-261.5" font-family="Helvetica,sans-Serif" font-size="10.00">Urho3D::AnimatedModel</text>
<text text-anchor="middle" x="240.5" y="-250.5" font-family="Helvetica,sans-Serif" font-size="10.00">::LoadXML</text>
</a>
</g>
</g>
<!-- Node13&#45;&gt;Node14 -->
<g id="edge13" class="edge">
<title>Node13&#45;&gt;Node14</title>
<path fill="none" stroke="midnightblue" d="M353.49,-227.32C334.49,-232.61 313.87,-238.35 295.56,-243.45"/>
<polygon fill="midnightblue" stroke="midnightblue" points="354.56,-230.66 363.26,-224.6 352.69,-223.91 354.56,-230.66"/>
</g>
<!-- Node15 -->
<g id="node15" class="node">
<title>Node15</title>
<g id="a_node15"><a xlink:href="class_urho3_d_1_1_u_i_element.html#ae38f1a5383c92526b1d8ba66b2e50ea1" target="_top" xlink:title="Load from XML data with style. Return true if successful.">
<polygon fill="none" stroke="black" points="182.5,-194.5 182.5,-224.5 298.5,-224.5 298.5,-194.5 182.5,-194.5"/>
<text text-anchor="start" x="190.5" y="-212.5" font-family="Helvetica,sans-Serif" font-size="10.00">Urho3D::UIElement::</text>
<text text-anchor="middle" x="240.5" y="-201.5" font-family="Helvetica,sans-Serif" font-size="10.00">LoadXML</text>
</a>
</g>
</g>
<!-- Node13&#45;&gt;Node15 -->
<g id="edge14" class="edge">
<title>Node13&#45;&gt;Node15</title>
<path fill="none" stroke="midnightblue" d="M349.98,-209.5C333.04,-209.5 315.03,-209.5 298.66,-209.5"/>
<polygon fill="midnightblue" stroke="midnightblue" points="350.36,-213 360.36,-209.5 350.36,-206 350.36,-213"/>
</g>
<!-- Node16 -->
<g id="node16" class="node">
<title>Node16</title>
<g id="a_node16"><a xlink:href="class_urho3_d_1_1_node.html#ab44e461de1af5859a176dfaa75ec95bd" target="_top" xlink:title="Load components from XML data and optionally load child nodes.">
<polygon fill="none" stroke="black" points="173,-156 173,-175 308,-175 308,-156 173,-156"/>
<text text-anchor="middle" x="240.5" y="-163" font-family="Helvetica,sans-Serif" font-size="10.00">Urho3D::Node::LoadXML</text>
</a>
</g>
</g>
<!-- Node13&#45;&gt;Node16 -->
<g id="edge15" class="edge">
<title>Node13&#45;&gt;Node16</title>
<path fill="none" stroke="midnightblue" d="M350.6,-192.78C326.64,-186.79 300.47,-180.24 279.76,-175.07"/>
<polygon fill="midnightblue" stroke="midnightblue" points="349.81,-196.18 360.36,-195.21 351.51,-189.39 349.81,-196.18"/>
</g>
<!-- Node21 -->
<g id="node21" class="node">
<title>Node21</title>
<g id="a_node21"><a xlink:href="class_urho3_d_1_1_animatable.html#a6deb3ef91d5828dd64e67fbe88bac8bd" target="_top" xlink:title="Save as XML data. Return true if successful.">
<polygon fill="none" stroke="red" points="360.5,-49.5 360.5,-79.5 476.5,-79.5 476.5,-49.5 360.5,-49.5"/>
<text text-anchor="start" x="368.5" y="-67.5" font-family="Helvetica,sans-Serif" font-size="10.00">Urho3D::Animatable</text>
<text text-anchor="middle" x="418.5" y="-56.5" font-family="Helvetica,sans-Serif" font-size="10.00">::SaveXML</text>
</a>
</g>
</g>
<!-- Node20&#45;&gt;Node21 -->
<g id="edge20" class="edge">
<title>Node20&#45;&gt;Node21</title>
<path fill="none" stroke="midnightblue" d="M540.29,-64.5C519.49,-64.5 496.78,-64.5 476.72,-64.5"/>
<polygon fill="midnightblue" stroke="midnightblue" points="540.33,-68 550.33,-64.5 540.33,-61 540.33,-68"/>
</g>
<!-- Node22 -->
<g id="node22" class="node">
<title>Node22</title>
<g id="a_node22"><a xlink:href="class_urho3_d_1_1_component.html#ab02324fafcfde655d1e7110dedb9134e" target="_top" xlink:title="Save as XML data. Return true if successful.">
<polygon fill="none" stroke="black" points="179.5,-71.5 179.5,-101.5 301.5,-101.5 301.5,-71.5 179.5,-71.5"/>
<text text-anchor="start" x="187.5" y="-89.5" font-family="Helvetica,sans-Serif" font-size="10.00">Urho3D::Component::</text>
<text text-anchor="middle" x="240.5" y="-78.5" font-family="Helvetica,sans-Serif" font-size="10.00">SaveXML</text>
</a>
</g>
</g>
<!-- Node21&#45;&gt;Node22 -->
<g id="edge21" class="edge">
<title>Node21&#45;&gt;Node22</title>
<path fill="none" stroke="midnightblue" d="M350.06,-72.93C334.13,-74.92 317.26,-77.03 301.69,-78.98"/>
<polygon fill="midnightblue" stroke="midnightblue" points="350.87,-76.36 360.36,-71.64 350,-69.41 350.87,-76.36"/>
</g>
<!-- Node23 -->
<g id="node23" class="node">
<title>Node23</title>
<g id="a_node23"><a xlink:href="class_urho3_d_1_1_node.html#aee9138da9786316c8355e6bcec11a8cf" target="_top" xlink:title="Save as XML data. Return true if successful.">
<polygon fill="none" stroke="black" points="0,-55 0,-74 136,-74 136,-55 0,-55"/>
<text text-anchor="middle" x="68" y="-62" font-family="Helvetica,sans-Serif" font-size="10.00">Urho3D::Node::SaveXML</text>
</a>
</g>
</g>
<!-- Node21&#45;&gt;Node23 -->
<g id="edge24" class="edge">
<title>Node21&#45;&gt;Node23</title>
<path fill="none" stroke="midnightblue" d="M350.09,-63.06C336.49,-62.83 322.29,-62.62 309,-62.5 248.11,-61.94 232.89,-61.91 172,-62.5 160.38,-62.61 148.01,-62.8 136.04,-63.01"/>
<polygon fill="midnightblue" stroke="midnightblue" points="350.29,-66.57 360.35,-63.25 350.41,-59.57 350.29,-66.57"/>
</g>
<!-- Node22&#45;&gt;Node23 -->
<g id="edge22" class="edge">
<title>Node22&#45;&gt;Node23</title>
<path fill="none" stroke="midnightblue" d="M169.4,-77.46C158.4,-76.04 147.05,-74.57 136.12,-73.16"/>
<polygon fill="midnightblue" stroke="midnightblue" points="169.02,-80.94 179.39,-78.74 169.92,-73.99 169.02,-80.94"/>
</g>
<!-- Node23&#45;&gt;Node23 -->
<g id="edge23" class="edge">
<title>Node23&#45;&gt;Node23</title>
<path fill="none" stroke="midnightblue" d="M100.19,-82.77C99.27,-88.24 88.54,-92.5 68,-92.5 37.43,-92.5 28.59,-83.07 41.49,-74.26"/>
<polygon fill="midnightblue" stroke="midnightblue" points="102.97,-80.64 94.51,-74.26 97.14,-84.52 102.97,-80.64"/>
</g>
<!-- Node28 -->
<g id="node25" class="node">
<title>Node28</title>
<g id="a_node25"><a xlink:href="class_urho3_d_1_1_tmx_file2_d.html#a77e4d39d96cfe2323c7dd9f8a34b1806" target="_top" xlink:title="Finish resource loading. Always called from the main thread. Return true if successful.">
<polygon fill="none" stroke="black" points="549.5,-0.5 549.5,-30.5 667.5,-30.5 667.5,-0.5 549.5,-0.5"/>
<text text-anchor="start" x="557.5" y="-18.5" font-family="Helvetica,sans-Serif" font-size="10.00">Urho3D::TmxFile2D::</text>
<text text-anchor="middle" x="608.5" y="-7.5" font-family="Helvetica,sans-Serif" font-size="10.00">EndLoad</text>
</a>
</g>
</g>
<!-- Node27&#45;&gt;Node28 -->
<g id="edge27" class="edge">
<title>Node27&#45;&gt;Node28</title>
<path fill="none" stroke="midnightblue" d="M792.12,-108.74C767.27,-88.39 727.61,-58.38 689,-39.5 682.14,-36.14 674.71,-33.15 667.24,-30.51"/>
<polygon fill="midnightblue" stroke="midnightblue" points="790.02,-111.55 799.96,-115.24 794.49,-106.17 790.02,-111.55"/>
</g>
</g>
</svg>
        <g id="navigator" transform="translate(0 0)" fill="#404254">
                <rect fill="#f2f5e9" fill-opacity="0.5" stroke="#606060" stroke-width=".5" x="0" y="0" width="60" height="60"/>
                <use id="zoomplus" xlink:href="#zoomPlus" x="17" y="9" onmousedown="handleZoom(evt,'in')"/>
                <use id="zoomminus" xlink:href="#zoomMin" x="42" y="9" onmousedown="handleZoom(evt,'out')"/>
                <use id="reset" xlink:href="#resetDef" x="30" y="36" onmousedown="handleReset()"/>
                <g id="arrowUp" xlink:href="#dirArrow" transform="translate(30 24)" onmousedown="handlePan(0,-1)">
                  <use xlink:href="#rim" fill="#404040">
                        <set attributeName="fill" to="#808080" begin="arrowUp.mouseover" end="arrowUp.mouseout"/>
                  </use>
                  <path fill="none" stroke="white" stroke-width="1.5" d="M0,-3.0v7 M-2.5,-0.5L0,-3.0L2.5,-0.5"/>
                </g>
                <g id="arrowRight" xlink:href="#dirArrow" transform="rotate(90) translate(36 -43)" onmousedown="handlePan(1,0)">
                  <use xlink:href="#rim" fill="#404040">
                        <set attributeName="fill" to="#808080" begin="arrowRight.mouseover" end="arrowRight.mouseout"/>
                  </use>
                  <path fill="none" stroke="white" stroke-width="1.5" d="M0,-3.0v7 M-2.5,-0.5L0,-3.0L2.5,-0.5"/>
                </g>
                <g id="arrowDown" xlink:href="#dirArrow" transform="rotate(180) translate(-30 -48)" onmousedown="handlePan(0,1)">
                  <use xlink:href="#rim" fill="#404040">
                        <set attributeName="fill" to="#808080" begin="arrowDown.mouseover" end="arrowDown.mouseout"/>
                  </use>
                  <path fill="none" stroke="white" stroke-width="1.5" d="M0,-3.0v7 M-2.5,-0.5L0,-3.0L2.5,-0.5"/>
                </g>
                <g id="arrowLeft" xlink:href="#dirArrow" transform="rotate(270) translate(-36 17)" onmousedown="handlePan(-1,0)">
                  <use xlink:href="#rim" fill="#404040">
                        <set attributeName="fill" to="#808080" begin="arrowLeft.mouseover" end="arrowLeft.mouseout"/>
                  </use>
                  <path fill="none" stroke="white" stroke-width="1.5" d="M0,-3.0v7 M-2.5,-0.5L0,-3.0L2.5,-0.5"/>
                </g>
        </g>
        <svg viewBox="0 0 15 15" width="100%" height="30px" preserveAspectRatio="xMaxYMin meet">
         <g id="arrow_out" transform="scale(0.3 0.3)">
          <a xlink:href="class_urho3_d_1_1_x_m_l_element_a83c9e8cdf51efcf7a24fb02c1d94d1f7_icgraph_org.svg" target="_base">
           <rect id="button" ry="5" rx="5" y="6" x="6" height="38" width="38"
                fill="#f2f5e9" fill-opacity="0.5" stroke="#606060" stroke-width="1.0"/>
           <path id="arrow"
             d="M 11.500037,31.436501 C 11.940474,20.09759 22.043105,11.32322 32.158766,21.979434 L 37.068811,17.246167 C 37.068811,17.246167 37.088388,32 37.088388,32 L 22.160133,31.978069 C 22.160133,31.978069 26.997745,27.140456 26.997745,27.140456 C 18.528582,18.264221 13.291696,25.230495 11.500037,31.436501 z"
             style="fill:#404040;"/>
          </a>
         </g>
        </svg>
</svg>
