<?xml version="1.0" encoding="UTF-8" standalone="no"?>
<!DOCTYPE svg PUBLIC "-//W3C//DTD SVG 1.1//EN"
 "http://www.w3.org/Graphics/SVG/1.1/DTD/svg11.dtd">
<!-- Generated by graphviz version 2.36.0 (20140111.2315)
 -->
<!-- Title: Urho3D::ProfilerBlock Pages: 1 -->
<svg width="277pt" height="166pt"
 viewBox="0.00 0.00 277.00 166.00" xmlns="http://www.w3.org/2000/svg" xmlns:xlink="http://www.w3.org/1999/xlink">
<g id="graph0" class="graph" transform="scale(1 1) rotate(0) translate(4 162)">
<title>Urho3D::ProfilerBlock</title>
<!-- Node1 -->
<g id="node1" class="node"><title>Node1</title>
<polygon fill="#bfbfbf" stroke="black" points="46,-0.5 46,-19.5 164,-19.5 164,-0.5 46,-0.5"/>
<text text-anchor="middle" x="105" y="-7.5" font-family="FreeSans" font-size="10.00">Urho3D::ProfilerBlock</text>
</g>
<!-- Node1&#45;&gt;Node1 -->
<g id="edge4" class="edge"><title>Node1&#45;&gt;Node1</title>
<path fill="none" stroke="#9a32cd" stroke-dasharray="5,2" d="M174.027,-14.6873C178.975,-13.6257 182,-12.0633 182,-10 182,-6.7793 174.63,-4.77894 164.079,-3.99892"/>
<polygon fill="#9a32cd" stroke="#9a32cd" points="173.535,-11.2219 164.079,-16.0011 174.451,-18.1616 173.535,-11.2219"/>
<text text-anchor="middle" x="202" y="-7.5" font-family="FreeSans" font-size="10.00"> parent_</text>
</g>
<!-- Node2 -->
<g id="node2" class="node"><title>Node2</title>
<g id="a_node2"><a xlink:href="class_urho3_d_1_1_hires_timer.html" target="_top" xlink:title="High&#45;resolution operating system timer used in profiling. ">
<polygon fill="none" stroke="black" points="-0.5,-74.5 -0.5,-93.5 110.5,-93.5 110.5,-74.5 -0.5,-74.5"/>
<text text-anchor="middle" x="55" y="-81.5" font-family="FreeSans" font-size="10.00">Urho3D::HiresTimer</text>
</a>
</g>
</g>
<!-- Node2&#45;&gt;Node1 -->
<g id="edge1" class="edge"><title>Node2&#45;&gt;Node1</title>
<path fill="none" stroke="#9a32cd" stroke-dasharray="5,2" d="M66.9105,-65.8488C77.0484,-51.2504 91.186,-30.8922 99.0757,-19.531"/>
<polygon fill="#9a32cd" stroke="#9a32cd" points="63.7612,-64.2478 60.932,-74.4579 69.5108,-68.2406 63.7612,-64.2478"/>
<text text-anchor="middle" x="103" y="-41.5" font-family="FreeSans" font-size="10.00"> timer_</text>
</g>
<!-- Node3 -->
<g id="node3" class="node"><title>Node3</title>
<g id="a_node3"><a xlink:href="class_urho3_d_1_1_p_o_d_vector.html" target="_top" xlink:title="Urho3D::PODVector\&lt;\l Urho3D::ProfilerBlock * \&gt;">
<polygon fill="none" stroke="black" points="129,-69 129,-99 269,-99 269,-69 129,-69"/>
<text text-anchor="start" x="137" y="-87" font-family="FreeSans" font-size="10.00">Urho3D::PODVector&lt;</text>
<text text-anchor="middle" x="199" y="-76" font-family="FreeSans" font-size="10.00"> Urho3D::ProfilerBlock * &gt;</text>
</a>
</g>
</g>
<!-- Node3&#45;&gt;Node1 -->
<g id="edge2" class="edge"><title>Node3&#45;&gt;Node1</title>
<path fill="none" stroke="#9a32cd" stroke-dasharray="5,2" d="M172.318,-62.5625C153.742,-48.334 129.922,-30.0891 116.168,-19.5543"/>
<polygon fill="#9a32cd" stroke="#9a32cd" points="170.362,-65.4729 180.429,-68.7751 174.618,-59.9157 170.362,-65.4729"/>
<text text-anchor="middle" x="177" y="-41.5" font-family="FreeSans" font-size="10.00"> children_</text>
</g>
<!-- Node4 -->
<g id="node4" class="node"><title>Node4</title>
<g id="a_node4"><a xlink:href="class_urho3_d_1_1_vector_base.html" target="_top" xlink:title="Vector base class. ">
<polygon fill="none" stroke="black" points="142,-138.5 142,-157.5 256,-157.5 256,-138.5 142,-138.5"/>
<text text-anchor="middle" x="199" y="-145.5" font-family="FreeSans" font-size="10.00">Urho3D::VectorBase</text>
</a>
</g>
</g>
<!-- Node4&#45;&gt;Node3 -->
<g id="edge3" class="edge"><title>Node4&#45;&gt;Node3</title>
<path fill="none" stroke="midnightblue" d="M199,-128.183C199,-118.886 199,-107.851 199,-99.263"/>
<polygon fill="midnightblue" stroke="midnightblue" points="195.5,-128.379 199,-138.379 202.5,-128.379 195.5,-128.379"/>
</g>
</g>
</svg>
