<?xml version="1.0" encoding="UTF-8" standalone="no"?>
<!DOCTYPE svg PUBLIC "-//W3C//DTD SVG 1.1//EN"
 "http://www.w3.org/Graphics/SVG/1.1/DTD/svg11.dtd">
<!-- Generated by graphviz version 2.40.1 (20161225.0304)
 -->
<!-- Title: Urho3D::Material Pages: 1 -->
<svg width="1701pt" height="583pt"
 viewBox="0.00 0.00 1701.00 583.00" xmlns="http://www.w3.org/2000/svg" xmlns:xlink="http://www.w3.org/1999/xlink">
<g id="graph0" class="graph" transform="scale(1 1) rotate(0) translate(4 579)">
<title>Urho3D::Material</title>
<!-- Node4 -->
<g id="node1" class="node">
<title>Node4</title>
<polygon fill="#bfbfbf" stroke="#000000" points="1594,-306.5 1594,-325.5 1693,-325.5 1693,-306.5 1594,-306.5"/>
<text text-anchor="middle" x="1643.5" y="-313.5" font-family="Helvetica,sans-Serif" font-size="10.00" fill="#000000">Urho3D::Material</text>
</g>
<!-- Node5 -->
<g id="node2" class="node">
<title>Node5</title>
<g id="a_node2"><a xlink:href="class_urho3_d_1_1_resource.html" target="_top" xlink:title="Base class for resources. ">
<polygon fill="none" stroke="#000000" points="836,-454.5 836,-473.5 940,-473.5 940,-454.5 836,-454.5"/>
<text text-anchor="middle" x="888" y="-461.5" font-family="Helvetica,sans-Serif" font-size="10.00" fill="#000000">Urho3D::Resource</text>
</a>
</g>
</g>
<!-- Node5&#45;&gt;Node4 -->
<g id="edge1" class="edge">
<title>Node5&#45;&gt;Node4</title>
<path fill="none" stroke="#191970" d="M942.1487,-475.4238C947.4915,-476.3721 952.8429,-477.2521 958,-478 982.2911,-481.523 988.4988,-481.5309 1013,-483 1137.9437,-490.4917 1476.1762,-541.5134 1576,-466 1623.599,-429.9929 1638.4678,-352.8008 1642.323,-325.6705"/>
<polygon fill="#191970" stroke="#191970" points="942.4086,-471.9124 931.9383,-473.5323 941.1335,-478.7953 942.4086,-471.9124"/>
</g>
<!-- Node89 -->
<g id="node23" class="node">
<title>Node89</title>
<g id="a_node23"><a xlink:href="class_urho3_d_1_1_j_s_o_n_file.html" target="_top" xlink:title="JSON document resource. ">
<polygon fill="none" stroke="#ff0000" points="1037,-454.5 1037,-473.5 1137,-473.5 1137,-454.5 1037,-454.5"/>
<text text-anchor="middle" x="1087" y="-461.5" font-family="Helvetica,sans-Serif" font-size="10.00" fill="#000000">Urho3D::JSONFile</text>
</a>
</g>
</g>
<!-- Node5&#45;&gt;Node89 -->
<g id="edge32" class="edge">
<title>Node5&#45;&gt;Node89</title>
<path fill="none" stroke="#191970" d="M950.0984,-464C978.0613,-464 1010.6366,-464 1036.9946,-464"/>
<polygon fill="#191970" stroke="#191970" points="950.025,-460.5001 940.025,-464 950.0249,-467.5001 950.025,-460.5001"/>
</g>
<!-- Node93 -->
<g id="node25" class="node">
<title>Node93</title>
<g id="a_node25"><a xlink:href="class_urho3_d_1_1_x_m_l_file.html" target="_top" xlink:title="XML document resource. ">
<polygon fill="none" stroke="#ff0000" points="1039,-539.5 1039,-558.5 1135,-558.5 1135,-539.5 1039,-539.5"/>
<text text-anchor="middle" x="1087" y="-546.5" font-family="Helvetica,sans-Serif" font-size="10.00" fill="#000000">Urho3D::XMLFile</text>
</a>
</g>
</g>
<!-- Node5&#45;&gt;Node93 -->
<g id="edge36" class="edge">
<title>Node5&#45;&gt;Node93</title>
<path fill="none" stroke="#191970" d="M904.2366,-481.4494C917.4619,-494.5974 937.2784,-512.0127 958,-522 983.2497,-534.1697 1013.8727,-540.875 1038.945,-544.5589"/>
<polygon fill="#191970" stroke="#191970" points="906.3884,-478.6422 896.9046,-473.9189 901.3729,-483.5254 906.3884,-478.6422"/>
</g>
<!-- Node6 -->
<g id="node3" class="node">
<title>Node6</title>
<g id="a_node3"><a xlink:href="class_urho3_d_1_1_object.html" target="_top" xlink:title="Base class for objects with type identification, subsystem access and event sending/receiving capabil...">
<polygon fill="none" stroke="#000000" points="628,-476.5 628,-495.5 719,-495.5 719,-476.5 628,-476.5"/>
<text text-anchor="middle" x="673.5" y="-483.5" font-family="Helvetica,sans-Serif" font-size="10.00" fill="#000000">Urho3D::Object</text>
</a>
</g>
</g>
<!-- Node6&#45;&gt;Node5 -->
<g id="edge2" class="edge">
<title>Node6&#45;&gt;Node5</title>
<path fill="none" stroke="#191970" d="M729.612,-480.2449C762.4936,-476.8725 803.7481,-472.6412 835.9098,-469.3426"/>
<polygon fill="#191970" stroke="#191970" points="728.8432,-476.8053 719.2525,-481.3074 729.5575,-483.7688 728.8432,-476.8053"/>
</g>
<!-- Node7 -->
<g id="node4" class="node">
<title>Node7</title>
<g id="a_node4"><a xlink:href="class_urho3_d_1_1_ref_counted.html" target="_top" xlink:title="Base class for intrusively reference&#45;counted objects. These are noncopyable and non&#45;assignable. ">
<polygon fill="none" stroke="#000000" points="191,-412.5 191,-431.5 307,-431.5 307,-412.5 191,-412.5"/>
<text text-anchor="middle" x="249" y="-419.5" font-family="Helvetica,sans-Serif" font-size="10.00" fill="#000000">Urho3D::RefCounted</text>
</a>
</g>
</g>
<!-- Node7&#45;&gt;Node6 -->
<g id="edge3" class="edge">
<title>Node7&#45;&gt;Node6</title>
<path fill="none" stroke="#191970" d="M317.2857,-425.4394C366.12,-428.4299 433.3155,-433.6272 492,-442 536.0077,-448.2788 546.8271,-451.4075 590,-462 595.1271,-463.258 619.619,-470.3178 640.762,-476.4574"/>
<polygon fill="#191970" stroke="#191970" points="317.3442,-421.9368 307.1533,-424.8345 316.9269,-428.9244 317.3442,-421.9368"/>
</g>
<!-- Node9 -->
<g id="node6" class="node">
<title>Node9</title>
<g id="a_node6"><a xlink:href="class_urho3_d_1_1_context.html" target="_top" xlink:title="Urho3D execution context. Provides access to subsystems, object factories and attributes, and event receivers. ">
<polygon fill="none" stroke="#ff0000" points="369,-500.5 369,-519.5 467,-519.5 467,-500.5 369,-500.5"/>
<text text-anchor="middle" x="418" y="-507.5" font-family="Helvetica,sans-Serif" font-size="10.00" fill="#000000">Urho3D::Context</text>
</a>
</g>
</g>
<!-- Node7&#45;&gt;Node9 -->
<g id="edge6" class="edge">
<title>Node7&#45;&gt;Node9</title>
<path fill="none" stroke="#191970" d="M267.251,-438.5282C285.4535,-454.1825 314.8339,-477.2781 344,-491 352.0413,-494.7832 360.9423,-497.8876 369.7021,-500.4094"/>
<polygon fill="#191970" stroke="#191970" points="269.087,-435.4825 259.2631,-431.5148 264.4685,-440.7427 269.087,-435.4825"/>
</g>
<!-- Node8 -->
<g id="node5" class="node">
<title>Node8</title>
<g id="a_node5"><a xlink:href="struct_urho3_d_1_1_ref_count.html" target="_top" xlink:title="Reference count structure. ">
<polygon fill="none" stroke="#000000" points="0,-6.5 0,-25.5 104,-25.5 104,-6.5 0,-6.5"/>
<text text-anchor="middle" x="52" y="-13.5" font-family="Helvetica,sans-Serif" font-size="10.00" fill="#000000">Urho3D::RefCount</text>
</a>
</g>
</g>
<!-- Node8&#45;&gt;Node7 -->
<g id="edge4" class="edge">
<title>Node8&#45;&gt;Node7</title>
<path fill="none" stroke="#9a32cd" stroke-dasharray="5,2" d="M61.1283,-34.8127C95.7947,-106.257 218.624,-359.3977 244.2809,-412.2744"/>
<polygon fill="#9a32cd" stroke="#9a32cd" points="64.1898,-33.1045 56.6754,-25.6356 57.892,-36.1603 64.1898,-33.1045"/>
<text text-anchor="middle" x="147.5" y="-258" font-family="Helvetica,sans-Serif" font-size="10.00" fill="#000000"> refCount_</text>
</g>
<!-- Node30 -->
<g id="node11" class="node">
<title>Node30</title>
<g id="a_node11"><a xlink:href="class_urho3_d_1_1_weak_ptr.html" target="_top" xlink:title="Urho3D::WeakPtr\&lt; Urho3D\l::Scene \&gt;">
<polygon fill="none" stroke="#000000" points="1013,-6 1013,-36 1161,-36 1161,-6 1013,-6"/>
<text text-anchor="start" x="1021" y="-24" font-family="Helvetica,sans-Serif" font-size="10.00" fill="#000000">Urho3D::WeakPtr&lt; Urho3D</text>
<text text-anchor="middle" x="1087" y="-13" font-family="Helvetica,sans-Serif" font-size="10.00" fill="#000000">::Scene &gt;</text>
</a>
</g>
</g>
<!-- Node8&#45;&gt;Node30 -->
<g id="edge20" class="edge">
<title>Node8&#45;&gt;Node30</title>
<path fill="none" stroke="#9a32cd" stroke-dasharray="5,2" d="M114.2426,-8.3494C152.9543,-4.2364 203.7987,0 249,0 249,0 249,0 888,0 929.3411,0 975.2478,-4.5377 1012.5425,-9.3944"/>
<polygon fill="#9a32cd" stroke="#9a32cd" points="113.7305,-4.8844 104.168,-9.446 114.488,-11.8433 113.7305,-4.8844"/>
<text text-anchor="middle" x="550" y="-3" font-family="Helvetica,sans-Serif" font-size="10.00" fill="#000000"> refCount_</text>
</g>
<!-- Node9&#45;&gt;Node6 -->
<g id="edge5" class="edge">
<title>Node9&#45;&gt;Node6</title>
<path fill="none" stroke="#9a32cd" stroke-dasharray="5,2" d="M477.3696,-504.4232C523.2464,-500.1138 585.8046,-494.2375 627.8217,-490.2907"/>
<polygon fill="#9a32cd" stroke="#9a32cd" points="476.8918,-500.9526 467.263,-505.3726 477.5465,-507.9219 476.8918,-500.9526"/>
<text text-anchor="middle" x="550" y="-503" font-family="Helvetica,sans-Serif" font-size="10.00" fill="#000000"> context_</text>
</g>
<!-- Node27 -->
<g id="node7" class="node">
<title>Node27</title>
<g id="a_node7"><a xlink:href="class_urho3_d_1_1_linked_list.html" target="_top" xlink:title="Urho3D::LinkedList\l\&lt; Urho3D::EventHandler \&gt;">
<polygon fill="none" stroke="#ff0000" points="344,-451 344,-481 492,-481 492,-451 344,-451"/>
<text text-anchor="start" x="352" y="-469" font-family="Helvetica,sans-Serif" font-size="10.00" fill="#000000">Urho3D::LinkedList</text>
<text text-anchor="middle" x="418" y="-458" font-family="Helvetica,sans-Serif" font-size="10.00" fill="#000000">&lt; Urho3D::EventHandler &gt;</text>
</a>
</g>
</g>
<!-- Node27&#45;&gt;Node6 -->
<g id="edge7" class="edge">
<title>Node27&#45;&gt;Node6</title>
<path fill="none" stroke="#9a32cd" stroke-dasharray="5,2" d="M502.3592,-466.7359C530.3065,-467.5675 561.5373,-469.13 590,-472 602.2848,-473.2387 615.4978,-475.1719 627.7072,-477.2103"/>
<polygon fill="#9a32cd" stroke="#9a32cd" points="502.3137,-463.2335 492.2226,-466.4615 502.1243,-470.2309 502.3137,-463.2335"/>
<text text-anchor="middle" x="550" y="-475" font-family="Helvetica,sans-Serif" font-size="10.00" fill="#000000"> eventHandlers_</text>
</g>
<!-- Node28 -->
<g id="node8" class="node">
<title>Node28</title>
<g id="a_node8"><a xlink:href="class_urho3_d_1_1_timer.html" target="_top" xlink:title="Low&#45;resolution operating system timer. ">
<polygon fill="none" stroke="#000000" points="629.5,-438.5 629.5,-457.5 717.5,-457.5 717.5,-438.5 629.5,-438.5"/>
<text text-anchor="middle" x="673.5" y="-445.5" font-family="Helvetica,sans-Serif" font-size="10.00" fill="#000000">Urho3D::Timer</text>
</a>
</g>
</g>
<!-- Node28&#45;&gt;Node5 -->
<g id="edge8" class="edge">
<title>Node28&#45;&gt;Node5</title>
<path fill="none" stroke="#9a32cd" stroke-dasharray="5,2" d="M727.5976,-449.6011C754.7632,-450.6641 788.1617,-452.3633 818,-455 823.7365,-455.5069 829.726,-456.1311 835.6824,-456.8123"/>
<polygon fill="#9a32cd" stroke="#9a32cd" points="727.6355,-446.1002 717.5118,-449.2242 727.3741,-453.0953 727.6355,-446.1002"/>
<text text-anchor="middle" x="787.5" y="-458" font-family="Helvetica,sans-Serif" font-size="10.00" fill="#000000"> useTimer_</text>
</g>
<!-- Node29 -->
<g id="node9" class="node">
<title>Node29</title>
<g id="a_node9"><a xlink:href="class_urho3_d_1_1_string.html" target="_top" xlink:title="String class. ">
<polygon fill="none" stroke="#000000" points="629.5,-130.5 629.5,-149.5 717.5,-149.5 717.5,-130.5 629.5,-130.5"/>
<text text-anchor="middle" x="673.5" y="-137.5" font-family="Helvetica,sans-Serif" font-size="10.00" fill="#000000">Urho3D::String</text>
</a>
</g>
</g>
<!-- Node29&#45;&gt;Node4 -->
<g id="edge33" class="edge">
<title>Node29&#45;&gt;Node4</title>
<path fill="none" stroke="#9a32cd" stroke-dasharray="5,2" d="M727.9176,-140C771.2758,-140 833.5284,-140 888,-140 888,-140 888,-140 1320,-140 1434.96,-140 1483.1858,-109.1669 1576,-177 1620.834,-209.7669 1637.2961,-280.4251 1641.9555,-306.2735"/>
<polygon fill="#9a32cd" stroke="#9a32cd" points="727.8678,-136.5001 717.8678,-140 727.8677,-143.5001 727.8678,-136.5001"/>
<text text-anchor="start" x="1034" y="-165" font-family="Helvetica,sans-Serif" font-size="10.00" fill="#000000"> vertexShaderDefines</text>
<text text-anchor="middle" x="1087" y="-154" font-family="Helvetica,sans-Serif" font-size="10.00" fill="#000000">_</text>
<text text-anchor="middle" x="1087" y="-143" font-family="Helvetica,sans-Serif" font-size="10.00" fill="#000000">pixelShaderDefines_</text>
</g>
<!-- Node29&#45;&gt;Node5 -->
<g id="edge9" class="edge">
<title>Node29&#45;&gt;Node5</title>
<path fill="none" stroke="#9a32cd" stroke-dasharray="5,2" d="M685.53,-158.1712C725.2962,-218.2376 851.6853,-409.1471 881.6055,-454.3411"/>
<polygon fill="#9a32cd" stroke="#9a32cd" points="688.3583,-156.1029 679.9196,-149.6967 682.5214,-159.9671 688.3583,-156.1029"/>
<text text-anchor="middle" x="787.5" y="-352" font-family="Helvetica,sans-Serif" font-size="10.00" fill="#000000"> name_</text>
</g>
<!-- Node29&#45;&gt;Node29 -->
<g id="edge10" class="edge">
<title>Node29&#45;&gt;Node29</title>
<path fill="none" stroke="#9a32cd" stroke-dasharray="5,2" d="M652.3899,-159.4C653.7997,-164.3146 660.8364,-168 673.5,-168 693.7617,-168 699.6186,-158.5653 691.0707,-149.7571"/>
<polygon fill="#9a32cd" stroke="#9a32cd" points="655.7693,-160.3507 655.9293,-149.7571 649.1979,-157.9387 655.7693,-160.3507"/>
<text text-anchor="middle" x="673.5" y="-171" font-family="Helvetica,sans-Serif" font-size="10.00" fill="#000000"> EMPTY</text>
</g>
<!-- Node31 -->
<g id="node12" class="node">
<title>Node31</title>
<g id="a_node12"><a xlink:href="class_urho3_d_1_1_scene.html" target="_top" xlink:title="Root scene node, represents the whole scene. ">
<polygon fill="none" stroke="#ff0000" points="843.5,-59.5 843.5,-78.5 932.5,-78.5 932.5,-59.5 843.5,-59.5"/>
<text text-anchor="middle" x="888" y="-66.5" font-family="Helvetica,sans-Serif" font-size="10.00" fill="#000000">Urho3D::Scene</text>
</a>
</g>
</g>
<!-- Node29&#45;&gt;Node31 -->
<g id="edge19" class="edge">
<title>Node29&#45;&gt;Node31</title>
<path fill="none" stroke="#9a32cd" stroke-dasharray="5,2" d="M712.0979,-127.224C754.3866,-113.2263 821.241,-91.0974 859.1882,-78.5368"/>
<polygon fill="#9a32cd" stroke="#9a32cd" points="710.822,-123.9595 702.4284,-130.4246 713.0217,-130.6049 710.822,-123.9595"/>
<text text-anchor="middle" x="787.5" y="-114" font-family="Helvetica,sans-Serif" font-size="10.00" fill="#000000"> fileName_</text>
</g>
<!-- Node18 -->
<g id="node10" class="node">
<title>Node18</title>
<g id="a_node10"><a xlink:href="class_urho3_d_1_1_string_hash.html" target="_top" xlink:title="32&#45;bit hash value for a string. ">
<polygon fill="none" stroke="#000000" points="617,-371.5 617,-390.5 730,-390.5 730,-371.5 617,-371.5"/>
<text text-anchor="middle" x="673.5" y="-378.5" font-family="Helvetica,sans-Serif" font-size="10.00" fill="#000000">Urho3D::StringHash</text>
</a>
</g>
</g>
<!-- Node18&#45;&gt;Node5 -->
<g id="edge11" class="edge">
<title>Node18&#45;&gt;Node5</title>
<path fill="none" stroke="#9a32cd" stroke-dasharray="5,2" d="M709.3863,-394.013C738.7063,-404.7404 781.1725,-420.4954 818,-435 833.9111,-441.2667 851.7137,-448.6471 865.3836,-454.3941"/>
<polygon fill="#9a32cd" stroke="#9a32cd" points="710.568,-390.7186 699.9741,-390.5769 708.1674,-397.2941 710.568,-390.7186"/>
<text text-anchor="middle" x="787.5" y="-438" font-family="Helvetica,sans-Serif" font-size="10.00" fill="#000000"> nameHash_</text>
</g>
<!-- Node18&#45;&gt;Node18 -->
<g id="edge12" class="edge">
<title>Node18&#45;&gt;Node18</title>
<path fill="none" stroke="#9a32cd" stroke-dasharray="5,2" d="M652.3899,-400.4C653.7997,-405.3146 660.8364,-409 673.5,-409 693.7617,-409 699.6186,-399.5653 691.0707,-390.7571"/>
<polygon fill="#9a32cd" stroke="#9a32cd" points="655.7693,-401.3507 655.9293,-390.7571 649.1979,-398.9387 655.7693,-401.3507"/>
<text text-anchor="middle" x="673.5" y="-412" font-family="Helvetica,sans-Serif" font-size="10.00" fill="#000000"> ZERO</text>
</g>
<!-- Node30&#45;&gt;Node4 -->
<g id="edge13" class="edge">
<title>Node30&#45;&gt;Node4</title>
<path fill="none" stroke="#9a32cd" stroke-dasharray="5,2" d="M1171.5231,-15.7158C1278.6203,-13.7242 1462.8478,-26.6624 1576,-126 1632.2962,-175.4231 1641.6406,-274.9873 1643.1915,-306.3266"/>
<polygon fill="#9a32cd" stroke="#9a32cd" points="1171.3199,-12.2195 1161.4046,-15.9527 1171.4839,-19.2175 1171.3199,-12.2195"/>
<text text-anchor="middle" x="1320" y="-48" font-family="Helvetica,sans-Serif" font-size="10.00" fill="#000000"> scene_</text>
</g>
<!-- Node31&#45;&gt;Node30 -->
<g id="edge14" class="edge">
<title>Node31&#45;&gt;Node30</title>
<path fill="none" stroke="#9a32cd" stroke-dasharray="5,2" d="M934.1697,-56.9661C942.1101,-54.9428 950.2872,-52.8882 958,-51 978.4355,-45.9971 1000.7427,-40.7379 1020.9728,-36.0449"/>
<polygon fill="#9a32cd" stroke="#9a32cd" points="933.1094,-53.6247 924.2911,-59.4974 934.847,-60.4056 933.1094,-53.6247"/>
<text text-anchor="middle" x="976.5" y="-54" font-family="Helvetica,sans-Serif" font-size="10.00" fill="#000000"> ptr_</text>
</g>
<!-- Node32 -->
<g id="node13" class="node">
<title>Node32</title>
<g id="a_node13"><a xlink:href="class_urho3_d_1_1_node.html" target="_top" xlink:title="Scene node that may contain components and child nodes. ">
<polygon fill="none" stroke="#ff0000" points="1044.5,-55.5 1044.5,-74.5 1129.5,-74.5 1129.5,-55.5 1044.5,-55.5"/>
<text text-anchor="middle" x="1087" y="-62.5" font-family="Helvetica,sans-Serif" font-size="10.00" fill="#000000">Urho3D::Node</text>
</a>
</g>
</g>
<!-- Node31&#45;&gt;Node32 -->
<g id="edge16" class="edge">
<title>Node31&#45;&gt;Node32</title>
<path fill="none" stroke="#9a32cd" stroke-dasharray="5,2" d="M943.1019,-66.4567C948.1382,-66.2792 953.1626,-66.1224 958,-66 986.7703,-65.2722 1019.1604,-65.0231 1044.2874,-64.9555"/>
<polygon fill="#9a32cd" stroke="#9a32cd" points="942.6639,-62.9707 932.8033,-66.8459 942.9284,-69.9657 942.6639,-62.9707"/>
<text text-anchor="middle" x="976.5" y="-69" font-family="Helvetica,sans-Serif" font-size="10.00" fill="#000000"> scene_</text>
</g>
<!-- Node32&#45;&gt;Node31 -->
<g id="edge15" class="edge">
<title>Node32&#45;&gt;Node31</title>
<path fill="none" stroke="#191970" d="M1034.318,-75.0092C1010.9724,-78.3353 983.1527,-80.7875 958,-79 949.7957,-78.4169 941.091,-77.4541 932.7099,-76.3502"/>
<polygon fill="#191970" stroke="#191970" points="1035.0028,-78.4454 1044.3652,-73.486 1033.9535,-71.5245 1035.0028,-78.4454"/>
</g>
<!-- Node32&#45;&gt;Node32 -->
<g id="edge17" class="edge">
<title>Node32&#45;&gt;Node32</title>
<path fill="none" stroke="#9a32cd" stroke-dasharray="5,2" d="M1068.112,-84.4C1069.3734,-89.3146 1075.6694,-93 1087,-93 1105.1289,-93 1110.3693,-83.5653 1102.7212,-74.7571"/>
<polygon fill="#9a32cd" stroke="#9a32cd" points="1071.4839,-85.3499 1071.2788,-74.7571 1064.8334,-83.1658 1071.4839,-85.3499"/>
<text text-anchor="middle" x="1087" y="-96" font-family="Helvetica,sans-Serif" font-size="10.00" fill="#000000"> parent_</text>
</g>
<!-- Node74 -->
<g id="node14" class="node">
<title>Node74</title>
<g id="a_node14"><a xlink:href="class_urho3_d_1_1_scene_resolver.html" target="_top" xlink:title="Utility class that resolves node &amp; component IDs after a scene or partial scene load. ">
<polygon fill="none" stroke="#ff0000" points="608,-59.5 608,-78.5 739,-78.5 739,-59.5 608,-59.5"/>
<text text-anchor="middle" x="673.5" y="-66.5" font-family="Helvetica,sans-Serif" font-size="10.00" fill="#000000">Urho3D::SceneResolver</text>
</a>
</g>
</g>
<!-- Node74&#45;&gt;Node31 -->
<g id="edge18" class="edge">
<title>Node74&#45;&gt;Node31</title>
<path fill="none" stroke="#9a32cd" stroke-dasharray="5,2" d="M749.0841,-69C780.5536,-69 816.0187,-69 843.2378,-69"/>
<polygon fill="#9a32cd" stroke="#9a32cd" points="749.0226,-65.5001 739.0226,-69 749.0226,-72.5001 749.0226,-65.5001"/>
<text text-anchor="middle" x="787.5" y="-72" font-family="Helvetica,sans-Serif" font-size="10.00" fill="#000000"> resolver_</text>
</g>
<!-- Node99 -->
<g id="node15" class="node">
<title>Node99</title>
<g id="a_node15"><a xlink:href="class_urho3_d_1_1_hash_map.html" target="_top" xlink:title="Urho3D::HashMap\&lt; Urho3D\l::StringHash, Urho3D::\lMaterialShaderParameter \&gt;">
<polygon fill="none" stroke="#000000" points="1244,-328.5 1244,-369.5 1396,-369.5 1396,-328.5 1244,-328.5"/>
<text text-anchor="start" x="1252" y="-357.5" font-family="Helvetica,sans-Serif" font-size="10.00" fill="#000000">Urho3D::HashMap&lt; Urho3D</text>
<text text-anchor="start" x="1252" y="-346.5" font-family="Helvetica,sans-Serif" font-size="10.00" fill="#000000">::StringHash, Urho3D::</text>
<text text-anchor="middle" x="1320" y="-335.5" font-family="Helvetica,sans-Serif" font-size="10.00" fill="#000000">MaterialShaderParameter &gt;</text>
</a>
</g>
</g>
<!-- Node99&#45;&gt;Node4 -->
<g id="edge21" class="edge">
<title>Node99&#45;&gt;Node4</title>
<path fill="none" stroke="#9a32cd" stroke-dasharray="5,2" d="M1406.4727,-340.179C1466.4227,-334.0635 1544.129,-326.1368 1593.9125,-321.0584"/>
<polygon fill="#9a32cd" stroke="#9a32cd" points="1405.8485,-336.7244 1396.2553,-341.2212 1406.5589,-343.6883 1405.8485,-336.7244"/>
<text text-anchor="middle" x="1507.5" y="-339" font-family="Helvetica,sans-Serif" font-size="10.00" fill="#000000"> shaderParameters_</text>
</g>
<!-- Node11 -->
<g id="node16" class="node">
<title>Node11</title>
<g id="a_node16"><a xlink:href="class_urho3_d_1_1_hash_base.html" target="_top" xlink:title="Hash set/map base class. ">
<polygon fill="none" stroke="#ff0000" points="1033,-339.5 1033,-358.5 1141,-358.5 1141,-339.5 1033,-339.5"/>
<text text-anchor="middle" x="1087" y="-346.5" font-family="Helvetica,sans-Serif" font-size="10.00" fill="#000000">Urho3D::HashBase</text>
</a>
</g>
</g>
<!-- Node11&#45;&gt;Node99 -->
<g id="edge22" class="edge">
<title>Node11&#45;&gt;Node99</title>
<path fill="none" stroke="#191970" d="M1151.3279,-349C1179.9478,-349 1213.8619,-349 1243.7474,-349"/>
<polygon fill="#191970" stroke="#191970" points="1151.0406,-345.5001 1141.0405,-349 1151.0405,-352.5001 1151.0406,-345.5001"/>
</g>
<!-- Node100 -->
<g id="node17" class="node">
<title>Node100</title>
<g id="a_node17"><a xlink:href="class_urho3_d_1_1_hash_map.html" target="_top" xlink:title="Urho3D::HashMap\&lt; Urho3D\l::StringHash, Urho3D::\lSharedPtr\&lt; Urho3D::ShaderParameter\lAnimationInfo \&gt; \&gt;">
<polygon fill="none" stroke="#000000" points="1219,-257 1219,-309 1421,-309 1421,-257 1219,-257"/>
<text text-anchor="start" x="1227" y="-297" font-family="Helvetica,sans-Serif" font-size="10.00" fill="#000000">Urho3D::HashMap&lt; Urho3D</text>
<text text-anchor="start" x="1227" y="-286" font-family="Helvetica,sans-Serif" font-size="10.00" fill="#000000">::StringHash, Urho3D::</text>
<text text-anchor="start" x="1227" y="-275" font-family="Helvetica,sans-Serif" font-size="10.00" fill="#000000">SharedPtr&lt; Urho3D::ShaderParameter</text>
<text text-anchor="middle" x="1320" y="-264" font-family="Helvetica,sans-Serif" font-size="10.00" fill="#000000">AnimationInfo &gt; &gt;</text>
</a>
</g>
</g>
<!-- Node11&#45;&gt;Node100 -->
<g id="edge24" class="edge">
<title>Node11&#45;&gt;Node100</title>
<path fill="none" stroke="#191970" d="M1130.5692,-336.6585C1158.0392,-328.8773 1194.5587,-318.5327 1228.1984,-309.0039"/>
<polygon fill="#191970" stroke="#191970" points="1129.5477,-333.3101 1120.8802,-339.403 1131.4556,-340.0451 1129.5477,-333.3101"/>
</g>
<!-- Node103 -->
<g id="node21" class="node">
<title>Node103</title>
<g id="a_node21"><a xlink:href="class_urho3_d_1_1_hash_map.html" target="_top" xlink:title="Urho3D::HashMap\&lt; Texture\lUnit, Urho3D::SharedPtr\l\&lt; Urho3D::Texture \&gt; \&gt;">
<polygon fill="none" stroke="#000000" points="1244,-388.5 1244,-429.5 1396,-429.5 1396,-388.5 1244,-388.5"/>
<text text-anchor="start" x="1252" y="-417.5" font-family="Helvetica,sans-Serif" font-size="10.00" fill="#000000">Urho3D::HashMap&lt; Texture</text>
<text text-anchor="start" x="1252" y="-406.5" font-family="Helvetica,sans-Serif" font-size="10.00" fill="#000000">Unit, Urho3D::SharedPtr</text>
<text text-anchor="middle" x="1320" y="-395.5" font-family="Helvetica,sans-Serif" font-size="10.00" fill="#000000">&lt; Urho3D::Texture &gt; &gt;</text>
</a>
</g>
</g>
<!-- Node11&#45;&gt;Node103 -->
<g id="edge29" class="edge">
<title>Node11&#45;&gt;Node103</title>
<path fill="none" stroke="#191970" d="M1133.738,-361.0355C1165.2075,-369.1393 1207.4277,-380.0114 1243.7146,-389.3557"/>
<polygon fill="#191970" stroke="#191970" points="1134.4765,-357.6116 1123.9195,-358.5072 1132.7308,-364.3904 1134.4765,-357.6116"/>
</g>
<!-- Node100&#45;&gt;Node4 -->
<g id="edge23" class="edge">
<title>Node100&#45;&gt;Node4</title>
<path fill="none" stroke="#9a32cd" stroke-dasharray="5,2" d="M1431.2836,-283.7736C1476.4419,-285.4648 1528.9521,-289.1897 1576,-297 1588.9706,-299.1532 1603.0108,-302.8712 1614.9096,-306.4506"/>
<polygon fill="#9a32cd" stroke="#9a32cd" points="1431.2842,-280.2716 1421.1692,-283.4239 1431.0423,-287.2675 1431.2842,-280.2716"/>
<text text-anchor="start" x="1439" y="-311" font-family="Helvetica,sans-Serif" font-size="10.00" fill="#000000"> shaderParameterAnimation</text>
<text text-anchor="middle" x="1507.5" y="-300" font-family="Helvetica,sans-Serif" font-size="10.00" fill="#000000">Infos_</text>
</g>
<!-- Node101 -->
<g id="node18" class="node">
<title>Node101</title>
<g id="a_node18"><a xlink:href="class_urho3_d_1_1_vector.html" target="_top" xlink:title="Urho3D::Vector\&lt; Urho3D\l::TechniqueEntry \&gt;">
<polygon fill="none" stroke="#000000" points="1251,-169 1251,-199 1389,-199 1389,-169 1251,-169"/>
<text text-anchor="start" x="1259" y="-187" font-family="Helvetica,sans-Serif" font-size="10.00" fill="#000000">Urho3D::Vector&lt; Urho3D</text>
<text text-anchor="middle" x="1320" y="-176" font-family="Helvetica,sans-Serif" font-size="10.00" fill="#000000">::TechniqueEntry &gt;</text>
</a>
</g>
</g>
<!-- Node101&#45;&gt;Node4 -->
<g id="edge25" class="edge">
<title>Node101&#45;&gt;Node4</title>
<path fill="none" stroke="#9a32cd" stroke-dasharray="5,2" d="M1399.2348,-179.2983C1452.796,-179.7393 1523.1218,-187.6642 1576,-220 1610.2421,-240.9395 1631.7555,-286.5009 1639.853,-306.3897"/>
<polygon fill="#9a32cd" stroke="#9a32cd" points="1399.0958,-175.7983 1389.097,-179.3018 1399.0982,-182.7983 1399.0958,-175.7983"/>
<text text-anchor="middle" x="1507.5" y="-223" font-family="Helvetica,sans-Serif" font-size="10.00" fill="#000000"> techniques_</text>
</g>
<!-- Node20 -->
<g id="node19" class="node">
<title>Node20</title>
<g id="a_node19"><a xlink:href="class_urho3_d_1_1_vector_base.html" target="_top" xlink:title="Vector base class. ">
<polygon fill="none" stroke="#000000" points="1030,-191.5 1030,-210.5 1144,-210.5 1144,-191.5 1030,-191.5"/>
<text text-anchor="middle" x="1087" y="-198.5" font-family="Helvetica,sans-Serif" font-size="10.00" fill="#000000">Urho3D::VectorBase</text>
</a>
</g>
</g>
<!-- Node20&#45;&gt;Node101 -->
<g id="edge26" class="edge">
<title>Node20&#45;&gt;Node101</title>
<path fill="none" stroke="#191970" d="M1154.3477,-196.0862C1184.6449,-193.8757 1220.3731,-191.2689 1250.8776,-189.0433"/>
<polygon fill="#191970" stroke="#191970" points="1154.0154,-192.6011 1144.2966,-196.8196 1154.5248,-199.5825 1154.0154,-192.6011"/>
</g>
<!-- Node102 -->
<g id="node20" class="node">
<title>Node102</title>
<g id="a_node20"><a xlink:href="struct_urho3_d_1_1_bias_parameters.html" target="_top" xlink:title="Depth bias parameters. Used both by lights (for shadow mapping) and materials. ">
<polygon fill="none" stroke="#000000" points="1252,-218.5 1252,-237.5 1388,-237.5 1388,-218.5 1252,-218.5"/>
<text text-anchor="middle" x="1320" y="-225.5" font-family="Helvetica,sans-Serif" font-size="10.00" fill="#000000">Urho3D::BiasParameters</text>
</a>
</g>
</g>
<!-- Node102&#45;&gt;Node4 -->
<g id="edge27" class="edge">
<title>Node102&#45;&gt;Node4</title>
<path fill="none" stroke="#9a32cd" stroke-dasharray="5,2" d="M1398.3987,-231.4646C1450.3567,-235.9289 1519.1606,-246.0652 1576,-269 1598.2471,-277.9768 1620.3647,-295.4127 1632.9418,-306.3392"/>
<polygon fill="#9a32cd" stroke="#9a32cd" points="1398.4893,-227.9606 1388.2403,-230.6453 1397.9265,-234.938 1398.4893,-227.9606"/>
<text text-anchor="middle" x="1507.5" y="-272" font-family="Helvetica,sans-Serif" font-size="10.00" fill="#000000"> depthBias_</text>
</g>
<!-- Node103&#45;&gt;Node4 -->
<g id="edge28" class="edge">
<title>Node103&#45;&gt;Node4</title>
<path fill="none" stroke="#9a32cd" stroke-dasharray="5,2" d="M1406.122,-395.1739C1456.5452,-385.6851 1520.9297,-371.1382 1576,-351 1594.5963,-344.1997 1614.5743,-333.3522 1627.9304,-325.535"/>
<polygon fill="#9a32cd" stroke="#9a32cd" points="1405.4265,-391.743 1396.2304,-397.0043 1406.7003,-398.6262 1405.4265,-391.743"/>
<text text-anchor="middle" x="1507.5" y="-390" font-family="Helvetica,sans-Serif" font-size="10.00" fill="#000000"> textures_</text>
</g>
<!-- Node88 -->
<g id="node22" class="node">
<title>Node88</title>
<g id="a_node22"><a xlink:href="class_urho3_d_1_1_shared_ptr.html" target="_top" xlink:title="Urho3D::SharedPtr\&lt;\l Urho3D::JSONFile \&gt;">
<polygon fill="none" stroke="#000000" points="1262.5,-449 1262.5,-479 1377.5,-479 1377.5,-449 1262.5,-449"/>
<text text-anchor="start" x="1270.5" y="-467" font-family="Helvetica,sans-Serif" font-size="10.00" fill="#000000">Urho3D::SharedPtr&lt;</text>
<text text-anchor="middle" x="1320" y="-456" font-family="Helvetica,sans-Serif" font-size="10.00" fill="#000000"> Urho3D::JSONFile &gt;</text>
</a>
</g>
</g>
<!-- Node88&#45;&gt;Node4 -->
<g id="edge30" class="edge">
<title>Node88&#45;&gt;Node4</title>
<path fill="none" stroke="#9a32cd" stroke-dasharray="5,2" d="M1387.8896,-459.7473C1442.4442,-453.6012 1519.0886,-438.5971 1576,-402 1606.6516,-382.2894 1629.2945,-343.7697 1638.7003,-325.7418"/>
<polygon fill="#9a32cd" stroke="#9a32cd" points="1387.2062,-456.2998 1377.6281,-460.8286 1387.9399,-463.2613 1387.2062,-456.2998"/>
<text text-anchor="middle" x="1507.5" y="-454" font-family="Helvetica,sans-Serif" font-size="10.00" fill="#000000"> loadJSONFile_</text>
</g>
<!-- Node89&#45;&gt;Node88 -->
<g id="edge31" class="edge">
<title>Node89&#45;&gt;Node88</title>
<path fill="none" stroke="#9a32cd" stroke-dasharray="5,2" d="M1147.4882,-464C1182.9483,-464 1227.494,-464 1262.4366,-464"/>
<polygon fill="#9a32cd" stroke="#9a32cd" points="1147.2707,-460.5001 1137.2707,-464 1147.2706,-467.5001 1147.2707,-460.5001"/>
<text text-anchor="middle" x="1190" y="-467" font-family="Helvetica,sans-Serif" font-size="10.00" fill="#000000"> ptr_</text>
</g>
<!-- Node92 -->
<g id="node24" class="node">
<title>Node92</title>
<g id="a_node24"><a xlink:href="class_urho3_d_1_1_shared_ptr.html" target="_top" xlink:title="Urho3D::SharedPtr\&lt;\l Urho3D::XMLFile \&gt;">
<polygon fill="none" stroke="#000000" points="1262.5,-537 1262.5,-567 1377.5,-567 1377.5,-537 1262.5,-537"/>
<text text-anchor="start" x="1270.5" y="-555" font-family="Helvetica,sans-Serif" font-size="10.00" fill="#000000">Urho3D::SharedPtr&lt;</text>
<text text-anchor="middle" x="1320" y="-544" font-family="Helvetica,sans-Serif" font-size="10.00" fill="#000000"> Urho3D::XMLFile &gt;</text>
</a>
</g>
</g>
<!-- Node92&#45;&gt;Node4 -->
<g id="edge34" class="edge">
<title>Node92&#45;&gt;Node4</title>
<path fill="none" stroke="#9a32cd" stroke-dasharray="5,2" d="M1387.8928,-562.622C1444.4181,-567.5092 1523.8194,-564.6648 1576,-522 1608.0491,-495.7954 1634.8643,-362.4937 1641.7723,-325.5208"/>
<polygon fill="#9a32cd" stroke="#9a32cd" points="1387.9069,-559.1071 1377.6162,-561.6273 1387.2324,-566.0745 1387.9069,-559.1071"/>
<text text-anchor="middle" x="1507.5" y="-567" font-family="Helvetica,sans-Serif" font-size="10.00" fill="#000000"> loadXMLFile_</text>
</g>
<!-- Node93&#45;&gt;Node92 -->
<g id="edge35" class="edge">
<title>Node93&#45;&gt;Node92</title>
<path fill="none" stroke="#9a32cd" stroke-dasharray="5,2" d="M1145.5525,-549.7539C1181.275,-550.2138 1226.7501,-550.7994 1262.3133,-551.2573"/>
<polygon fill="#9a32cd" stroke="#9a32cd" points="1145.322,-546.2507 1135.2778,-549.6216 1145.2318,-553.2502 1145.322,-546.2507"/>
<text text-anchor="middle" x="1190" y="-553" font-family="Helvetica,sans-Serif" font-size="10.00" fill="#000000"> ptr_</text>
</g>
</g>
</svg>
