<?xml version="1.0" encoding="UTF-8" standalone="no"?>
<!DOCTYPE svg PUBLIC "-//W3C//DTD SVG 1.1//EN"
 "http://www.w3.org/Graphics/SVG/1.1/DTD/svg11.dtd">
<!-- Generated by graphviz version 2.43.0 (0)
 -->
<!-- Title: Urho3D::Console Pages: 1 -->
<!--zoomable 734 -->
<svg id="main" version="1.1" xmlns="http://www.w3.org/2000/svg" xmlns:xlink="http://www.w3.org/1999/xlink" xml:space="preserve" onload="init(evt)">
<style type="text/css"><![CDATA[
.edge:hover path { stroke: red; }
.edge:hover polygon { stroke: red; fill: red; }
]]></style>
<script type="text/javascript"><![CDATA[
var edges = document.getElementsByTagName('g');
if (edges && edges.length) {
  for (var i=0;i<edges.length;i++) {
    if (edges[i].id.substr(0,4)=='edge') {
      edges[i].setAttribute('class','edge');
    }
  }
}
]]></script>
        <defs>
                <circle id="rim" cx="0" cy="0" r="7"/>
                <circle id="rim2" cx="0" cy="0" r="3.5"/>
                <g id="zoomPlus">
                        <use xlink:href="#rim" fill="#404040">
                                <set attributeName="fill" to="#808080" begin="zoomplus.mouseover" end="zoomplus.mouseout"/>
                        </use>
                        <path d="M-4,0h8M0,-4v8" fill="none" stroke="white" stroke-width="1.5" pointer-events="none"/>
                </g>
                <g id="zoomMin">
                        <use xlink:href="#rim" fill="#404040">
                                <set attributeName="fill" to="#808080" begin="zoomminus.mouseover" end="zoomminus.mouseout"/>
                        </use>
                        <path d="M-4,0h8" fill="none" stroke="white" stroke-width="1.5" pointer-events="none"/>
                </g>
                <g id="dirArrow">
                        <path fill="none" stroke="white" stroke-width="1.5" d="M0,-3.0v7 M-2.5,-0.5L0,-3.0L2.5,-0.5"/>
                </g>
               <g id="resetDef">
                       <use xlink:href="#rim2" fill="#404040">
                               <set attributeName="fill" to="#808080" begin="reset.mouseover" end="reset.mouseout"/>
                       </use>
               </g>
        </defs>

<script type="text/javascript">
var viewWidth = 2052;
var viewHeight = 734;
var sectionId = 'dynsection-1';
</script>
<script xlink:href="svgpan.js"/>
<svg id="graph" class="graph">
<g id="viewport">
<title>Urho3D::Console</title>
<!-- Node1 -->
<g id="node1" class="node">
<title>Node1</title>
<g id="a_node1"><a xlink:title="Console window with log history and command line prompt.">
<polygon fill="#bfbfbf" stroke="black" points="1946,-317.5 1946,-336.5 2044,-336.5 2044,-317.5 1946,-317.5"/>
<text text-anchor="middle" x="1995" y="-324.5" font-family="Helvetica,sans-Serif" font-size="10.00">Urho3D::Console</text>
</a>
</g>
</g>
<!-- Node2 -->
<g id="node2" class="node">
<title>Node2</title>
<g id="a_node2"><a xlink:href="class_urho3_d_1_1_object.html" target="_top" xlink:title="Base class for objects with type identification, subsystem access and event sending/receiving capabil...">
<polygon fill="none" stroke="black" points="1734.5,-637.5 1734.5,-656.5 1825.5,-656.5 1825.5,-637.5 1734.5,-637.5"/>
<text text-anchor="middle" x="1780" y="-644.5" font-family="Helvetica,sans-Serif" font-size="10.00">Urho3D::Object</text>
</a>
</g>
</g>
<!-- Node2&#45;&gt;Node1 -->
<g id="edge1" class="edge">
<title>Node2&#45;&gt;Node1</title>
<path fill="none" stroke="midnightblue" d="M1835.92,-644.15C1867.01,-639.65 1904.3,-628.93 1928,-604 1966.23,-563.78 1988.17,-381.08 1992.98,-336.72"/>
<polygon fill="midnightblue" stroke="midnightblue" points="1835.12,-640.72 1825.64,-645.45 1836,-647.66 1835.12,-640.72"/>
</g>
<!-- Node3 -->
<g id="node3" class="node">
<title>Node3</title>
<g id="a_node3"><a xlink:href="class_urho3_d_1_1_ref_counted.html" target="_top" xlink:title="Base class for intrusively reference&#45;counted objects. These are noncopyable and non&#45;assignable.">
<polygon fill="none" stroke="red" points="1078,-630.5 1078,-649.5 1194,-649.5 1194,-630.5 1078,-630.5"/>
<text text-anchor="middle" x="1136" y="-637.5" font-family="Helvetica,sans-Serif" font-size="10.00">Urho3D::RefCounted</text>
</a>
</g>
</g>
<!-- Node3&#45;&gt;Node2 -->
<g id="edge2" class="edge">
<title>Node3&#45;&gt;Node2</title>
<path fill="none" stroke="midnightblue" d="M1204.49,-640.59C1246.38,-640.97 1301.32,-641.49 1350,-642 1490.21,-643.48 1656.19,-645.48 1734.22,-646.44"/>
<polygon fill="midnightblue" stroke="midnightblue" points="1204.44,-637.09 1194.41,-640.5 1204.37,-644.09 1204.44,-637.09"/>
</g>
<!-- Node5 -->
<g id="node4" class="node">
<title>Node5</title>
<g id="a_node4"><a xlink:href="class_urho3_d_1_1_context.html" target="_top" xlink:title="Urho3D execution context. Provides access to subsystems, object factories and attributes,...">
<polygon fill="none" stroke="red" points="1393,-656.5 1393,-675.5 1491,-675.5 1491,-656.5 1393,-656.5"/>
<text text-anchor="middle" x="1442" y="-663.5" font-family="Helvetica,sans-Serif" font-size="10.00">Urho3D::Context</text>
</a>
</g>
</g>
<!-- Node3&#45;&gt;Node5 -->
<g id="edge4" class="edge">
<title>Node3&#45;&gt;Node5</title>
<path fill="none" stroke="midnightblue" d="M1204.19,-645.75C1261.22,-650.62 1341.69,-657.51 1392.59,-661.86"/>
<polygon fill="midnightblue" stroke="midnightblue" points="1204.44,-642.26 1194.18,-644.89 1203.85,-649.23 1204.44,-642.26"/>
</g>
<!-- Node5&#45;&gt;Node2 -->
<g id="edge3" class="edge">
<title>Node5&#45;&gt;Node2</title>
<path fill="none" stroke="#9a32cd" stroke-dasharray="5,2" d="M1501.42,-662.7C1567.75,-658.95 1674.48,-652.91 1734.43,-649.52"/>
<polygon fill="#9a32cd" stroke="#9a32cd" points="1500.93,-659.22 1491.14,-663.28 1501.32,-666.21 1500.93,-659.22"/>
<text text-anchor="middle" x="1616" y="-663" font-family="Helvetica,sans-Serif" font-size="10.00"> context_</text>
</g>
<!-- Node23 -->
<g id="node5" class="node">
<title>Node23</title>
<g id="a_node5"><a xlink:href="class_urho3_d_1_1_linked_list.html" target="_top" xlink:title=" ">
<polygon fill="none" stroke="red" points="1368,-695 1368,-725 1516,-725 1516,-695 1368,-695"/>
<text text-anchor="start" x="1376" y="-713" font-family="Helvetica,sans-Serif" font-size="10.00">Urho3D::LinkedList</text>
<text text-anchor="middle" x="1442" y="-702" font-family="Helvetica,sans-Serif" font-size="10.00">&lt; Urho3D::EventHandler &gt;</text>
</a>
</g>
</g>
<!-- Node23&#45;&gt;Node2 -->
<g id="edge5" class="edge">
<title>Node23&#45;&gt;Node2</title>
<path fill="none" stroke="#9a32cd" stroke-dasharray="5,2" d="M1526.4,-702.73C1576.58,-697.32 1641.48,-688.51 1698,-675 1717.68,-670.3 1739.31,-662.69 1755.27,-656.59"/>
<polygon fill="#9a32cd" stroke="#9a32cd" points="1525.83,-699.27 1516.25,-703.8 1526.56,-706.23 1525.83,-699.27"/>
<text text-anchor="middle" x="1616" y="-704" font-family="Helvetica,sans-Serif" font-size="10.00"> eventHandlers_</text>
</g>
<!-- Node24 -->
<g id="node6" class="node">
<title>Node24</title>
<g id="a_node6"><a xlink:href="class_urho3_d_1_1_line_edit.html" target="_top" xlink:title="Single&#45;line text editor UI element.">
<polygon fill="none" stroke="black" points="818.5,-420.5 818.5,-439.5 916.5,-439.5 916.5,-420.5 818.5,-420.5"/>
<text text-anchor="middle" x="867.5" y="-427.5" font-family="Helvetica,sans-Serif" font-size="10.00">Urho3D::LineEdit</text>
</a>
</g>
</g>
<!-- Node24&#45;&gt;Node1 -->
<g id="edge6" class="edge">
<title>Node24&#45;&gt;Node1</title>
<path fill="none" stroke="#9a32cd" stroke-dasharray="5,2" d="M926.59,-422.09C980.5,-415.43 1063.01,-407 1135,-407 1135,-407 1135,-407 1781,-407 1860,-407 1945.57,-358.17 1979.22,-336.81"/>
<polygon fill="#9a32cd" stroke="#9a32cd" points="926.02,-418.63 916.54,-423.35 926.89,-425.58 926.02,-418.63"/>
<text text-anchor="middle" x="1442" y="-410" font-family="Helvetica,sans-Serif" font-size="10.00"> lineEdit_</text>
</g>
<!-- Node25 -->
<g id="node7" class="node">
<title>Node25</title>
<g id="a_node7"><a xlink:href="class_urho3_d_1_1_border_image.html" target="_top" xlink:title="Image UI element with optional border.">
<polygon fill="none" stroke="red" points="369,-333.5 369,-352.5 491,-352.5 491,-333.5 369,-333.5"/>
<text text-anchor="middle" x="430" y="-340.5" font-family="Helvetica,sans-Serif" font-size="10.00">Urho3D::BorderImage</text>
</a>
</g>
</g>
<!-- Node25&#45;&gt;Node24 -->
<g id="edge7" class="edge">
<title>Node25&#45;&gt;Node24</title>
<path fill="none" stroke="midnightblue" d="M487.45,-354.54C506.95,-358.51 528.93,-362.97 549,-367 644.45,-386.18 756.12,-408.25 818.34,-420.52"/>
<polygon fill="midnightblue" stroke="midnightblue" points="488,-351.08 477.51,-352.51 486.61,-357.94 488,-351.08"/>
</g>
<!-- Node171 -->
<g id="node12" class="node">
<title>Node171</title>
<g id="a_node12"><a xlink:href="class_urho3_d_1_1_shared_ptr.html" target="_top" xlink:title=" ">
<polygon fill="none" stroke="black" points="549,-328 549,-358 686,-358 686,-328 549,-328"/>
<text text-anchor="start" x="557" y="-346" font-family="Helvetica,sans-Serif" font-size="10.00">Urho3D::SharedPtr&lt;</text>
<text text-anchor="middle" x="617.5" y="-335" font-family="Helvetica,sans-Serif" font-size="10.00"> Urho3D::BorderImage &gt;</text>
</a>
</g>
</g>
<!-- Node25&#45;&gt;Node171 -->
<g id="edge15" class="edge">
<title>Node25&#45;&gt;Node171</title>
<path fill="none" stroke="#9a32cd" stroke-dasharray="5,2" d="M501.32,-343C516.9,-343 533.39,-343 548.86,-343"/>
<polygon fill="#9a32cd" stroke="#9a32cd" points="501.23,-339.5 491.23,-343 501.23,-346.5 501.23,-339.5"/>
<text text-anchor="middle" x="520" y="-346" font-family="Helvetica,sans-Serif" font-size="10.00"> ptr_</text>
</g>
<!-- Node174 -->
<g id="node16" class="node">
<title>Node174</title>
<g id="a_node16"><a xlink:href="class_urho3_d_1_1_button.html" target="_top" xlink:title="Push button UI element.">
<polygon fill="none" stroke="red" points="571.5,-279.5 571.5,-298.5 663.5,-298.5 663.5,-279.5 571.5,-279.5"/>
<text text-anchor="middle" x="617.5" y="-286.5" font-family="Helvetica,sans-Serif" font-size="10.00">Urho3D::Button</text>
</a>
</g>
</g>
<!-- Node25&#45;&gt;Node174 -->
<g id="edge21" class="edge">
<title>Node25&#45;&gt;Node174</title>
<path fill="none" stroke="midnightblue" d="M473.7,-330.57C507.21,-320.82 553.15,-307.44 583.78,-298.53"/>
<polygon fill="midnightblue" stroke="midnightblue" points="472.36,-327.31 463.74,-333.47 474.32,-334.04 472.36,-327.31"/>
</g>
<!-- Node26 -->
<g id="node8" class="node">
<title>Node26</title>
<g id="a_node8"><a xlink:href="class_urho3_d_1_1_u_i_element.html" target="_top" xlink:title="Base class for UI elements.">
<polygon fill="none" stroke="red" points="222,-333.5 222,-352.5 332,-352.5 332,-333.5 222,-333.5"/>
<text text-anchor="middle" x="277" y="-340.5" font-family="Helvetica,sans-Serif" font-size="10.00">Urho3D::UIElement</text>
</a>
</g>
</g>
<!-- Node26&#45;&gt;Node1 -->
<g id="edge42" class="edge">
<title>Node26&#45;&gt;Node1</title>
<path fill="none" stroke="#9a32cd" stroke-dasharray="5,2" d="M298.76,-358.59C342.41,-390.42 447.98,-462.5 549,-494 632.97,-520.18 658.04,-513 746,-513 746,-513 746,-513 1781,-513 1889.25,-513 1969.04,-375.01 1989.09,-336.74"/>
<polygon fill="#9a32cd" stroke="#9a32cd" points="300.77,-355.73 290.65,-352.61 296.62,-361.36 300.77,-355.73"/>
<text text-anchor="middle" x="1002.5" y="-516" font-family="Helvetica,sans-Serif" font-size="10.00"> commandLine_</text>
</g>
<!-- Node26&#45;&gt;Node25 -->
<g id="edge8" class="edge">
<title>Node26&#45;&gt;Node25</title>
<path fill="none" stroke="midnightblue" d="M342.31,-343C351.13,-343 360.15,-343 368.88,-343"/>
<polygon fill="midnightblue" stroke="midnightblue" points="342.09,-339.5 332.09,-343 342.09,-346.5 342.09,-339.5"/>
</g>
<!-- Node26&#45;&gt;Node26 -->
<g id="edge10" class="edge">
<title>Node26&#45;&gt;Node26</title>
<path fill="none" stroke="#9a32cd" stroke-dasharray="5,2" d="M263.74,-362.77C264.78,-367.5 269.2,-371 277,-371 289.8,-371 293.5,-361.57 288.1,-352.76"/>
<polygon fill="#9a32cd" stroke="#9a32cd" points="267.21,-363.27 265.9,-352.76 260.37,-361.79 267.21,-363.27"/>
<text text-anchor="middle" x="277" y="-374" font-family="Helvetica,sans-Serif" font-size="10.00"> parent_</text>
</g>
<!-- Node175 -->
<g id="node17" class="node">
<title>Node175</title>
<g id="a_node17"><a xlink:href="class_urho3_d_1_1_shared_ptr.html" target="_top" xlink:title=" ">
<polygon fill="none" stroke="black" points="555,-190 555,-220 680,-220 680,-190 555,-190"/>
<text text-anchor="start" x="563" y="-208" font-family="Helvetica,sans-Serif" font-size="10.00">Urho3D::SharedPtr&lt;</text>
<text text-anchor="middle" x="617.5" y="-197" font-family="Helvetica,sans-Serif" font-size="10.00"> Urho3D::UIElement &gt;</text>
</a>
</g>
</g>
<!-- Node26&#45;&gt;Node175 -->
<g id="edge23" class="edge">
<title>Node26&#45;&gt;Node175</title>
<path fill="none" stroke="#9a32cd" stroke-dasharray="5,2" d="M311.05,-329.53C374.5,-303.66 512.98,-247.2 579.45,-220.1"/>
<polygon fill="#9a32cd" stroke="#9a32cd" points="309.47,-326.39 301.53,-333.41 312.12,-332.87 309.47,-326.39"/>
<text text-anchor="middle" x="430" y="-309" font-family="Helvetica,sans-Serif" font-size="10.00"> ptr_</text>
</g>
<!-- Node178 -->
<g id="node20" class="node">
<title>Node178</title>
<g id="a_node20"><a xlink:href="class_urho3_d_1_1_scroll_view.html" target="_top" xlink:title="Scrollable UI element for showing a (possibly large) child element.">
<polygon fill="none" stroke="red" points="812.5,-116.5 812.5,-135.5 922.5,-135.5 922.5,-116.5 812.5,-116.5"/>
<text text-anchor="middle" x="867.5" y="-123.5" font-family="Helvetica,sans-Serif" font-size="10.00">Urho3D::ScrollView</text>
</a>
</g>
</g>
<!-- Node26&#45;&gt;Node178 -->
<g id="edge28" class="edge">
<title>Node26&#45;&gt;Node178</title>
<path fill="none" stroke="midnightblue" d="M292.04,-325.42C308.64,-305.59 337.97,-273.45 369,-253 501.83,-165.48 547.16,-153.57 704,-127 739.74,-120.94 780.55,-120.72 812.32,-121.99"/>
<polygon fill="midnightblue" stroke="midnightblue" points="289.18,-323.39 285.54,-333.34 294.59,-327.83 289.18,-323.39"/>
</g>
<!-- Node27 -->
<g id="node9" class="node">
<title>Node27</title>
<g id="a_node9"><a xlink:href="class_urho3_d_1_1_animatable.html" target="_top" xlink:title="Base class for animatable object, an animatable object can be set animation on it&#39;s attributes,...">
<polygon fill="none" stroke="red" points="0,-333.5 0,-352.5 116,-352.5 116,-333.5 0,-333.5"/>
<text text-anchor="middle" x="58" y="-340.5" font-family="Helvetica,sans-Serif" font-size="10.00">Urho3D::Animatable</text>
</a>
</g>
</g>
<!-- Node27&#45;&gt;Node26 -->
<g id="edge9" class="edge">
<title>Node27&#45;&gt;Node26</title>
<path fill="none" stroke="midnightblue" d="M126.24,-343C157.01,-343 193,-343 221.98,-343"/>
<polygon fill="midnightblue" stroke="midnightblue" points="126.01,-339.5 116.01,-343 126.01,-346.5 126.01,-339.5"/>
</g>
<!-- Node41 -->
<g id="node10" class="node">
<title>Node41</title>
<g id="a_node10"><a xlink:href="class_urho3_d_1_1_string.html" target="_top" xlink:title="String class.">
<polygon fill="none" stroke="black" points="14,-541.5 14,-560.5 102,-560.5 102,-541.5 14,-541.5"/>
<text text-anchor="middle" x="58" y="-548.5" font-family="Helvetica,sans-Serif" font-size="10.00">Urho3D::String</text>
</a>
</g>
</g>
<!-- Node41&#45;&gt;Node1 -->
<g id="edge43" class="edge">
<title>Node41&#45;&gt;Node1</title>
<path fill="none" stroke="#9a32cd" stroke-dasharray="5,2" d="M101.32,-563.21C144.76,-574.65 214.52,-590 276,-590 276,-590 276,-590 1781,-590 1914.08,-590 1978.41,-384.12 1991.47,-336.67"/>
<polygon fill="#9a32cd" stroke="#9a32cd" points="101.96,-559.76 91.39,-560.54 100.14,-566.52 101.96,-559.76"/>
<text text-anchor="middle" x="867.5" y="-626" font-family="Helvetica,sans-Serif" font-size="10.00"> autoCompleteLine_</text>
<text text-anchor="start" x="817" y="-615" font-family="Helvetica,sans-Serif" font-size="10.00">commandInterpreter</text>
<text text-anchor="middle" x="867.5" y="-604" font-family="Helvetica,sans-Serif" font-size="10.00">_</text>
<text text-anchor="middle" x="867.5" y="-593" font-family="Helvetica,sans-Serif" font-size="10.00">currentRow_</text>
</g>
<!-- Node41&#45;&gt;Node24 -->
<g id="edge16" class="edge">
<title>Node41&#45;&gt;Node24</title>
<path fill="none" stroke="#9a32cd" stroke-dasharray="5,2" d="M112.4,-551C156.32,-551 220.2,-551 276,-551 276,-551 276,-551 618.5,-551 719.58,-551 822.51,-468.8 855.58,-439.9"/>
<polygon fill="#9a32cd" stroke="#9a32cd" points="112.23,-547.5 102.23,-551 112.23,-554.5 112.23,-547.5"/>
<text text-anchor="middle" x="430" y="-554" font-family="Helvetica,sans-Serif" font-size="10.00"> line_</text>
</g>
<!-- Node41&#45;&gt;Node26 -->
<g id="edge11" class="edge">
<title>Node41&#45;&gt;Node26</title>
<path fill="none" stroke="#9a32cd" stroke-dasharray="5,2" d="M76.45,-534.28C119.83,-492.69 231.57,-385.59 265.85,-352.73"/>
<polygon fill="#9a32cd" stroke="#9a32cd" points="73.97,-531.8 69.18,-541.25 78.82,-536.85 73.97,-531.8"/>
<text text-anchor="middle" x="169" y="-492" font-family="Helvetica,sans-Serif" font-size="10.00"> appliedStyle_</text>
<text text-anchor="middle" x="169" y="-481" font-family="Helvetica,sans-Serif" font-size="10.00">name_</text>
</g>
<!-- Node41&#45;&gt;Node41 -->
<g id="edge12" class="edge">
<title>Node41&#45;&gt;Node41</title>
<path fill="none" stroke="#9a32cd" stroke-dasharray="5,2" d="M37.63,-570.4C38.99,-575.31 45.78,-579 58,-579 77.55,-579 83.2,-569.57 74.95,-560.76"/>
<polygon fill="#9a32cd" stroke="#9a32cd" points="41.01,-571.35 41.05,-560.76 34.41,-569.01 41.01,-571.35"/>
<text text-anchor="middle" x="58" y="-582" font-family="Helvetica,sans-Serif" font-size="10.00"> EMPTY</text>
</g>
<!-- Node156 -->
<g id="node11" class="node">
<title>Node156</title>
<g id="a_node11"><a xlink:href="class_urho3_d_1_1_shared_ptr.html" target="_top" xlink:title=" ">
<polygon fill="none" stroke="red" points="560,-416 560,-446 675,-446 675,-416 560,-416"/>
<text text-anchor="start" x="568" y="-434" font-family="Helvetica,sans-Serif" font-size="10.00">Urho3D::SharedPtr&lt;</text>
<text text-anchor="middle" x="617.5" y="-423" font-family="Helvetica,sans-Serif" font-size="10.00"> Urho3D::Text &gt;</text>
</a>
</g>
</g>
<!-- Node156&#45;&gt;Node24 -->
<g id="edge13" class="edge">
<title>Node156&#45;&gt;Node24</title>
<path fill="none" stroke="#9a32cd" stroke-dasharray="5,2" d="M685.21,-430.73C727.12,-430.56 780.22,-430.35 818.1,-430.2"/>
<polygon fill="#9a32cd" stroke="#9a32cd" points="685.07,-427.23 675.09,-430.77 685.1,-434.23 685.07,-427.23"/>
<text text-anchor="middle" x="747" y="-434" font-family="Helvetica,sans-Serif" font-size="10.00"> text_</text>
</g>
<!-- Node171&#45;&gt;Node1 -->
<g id="edge39" class="edge">
<title>Node171&#45;&gt;Node1</title>
<path fill="none" stroke="#9a32cd" stroke-dasharray="5,2" d="M696.3,-345.85C745.16,-347.4 809.5,-349 866.5,-349 866.5,-349 866.5,-349 1781,-349 1837.88,-349 1902.85,-341.14 1945.93,-334.82"/>
<polygon fill="#9a32cd" stroke="#9a32cd" points="696.23,-342.34 686.12,-345.52 696,-349.34 696.23,-342.34"/>
<text text-anchor="middle" x="1281" y="-352" font-family="Helvetica,sans-Serif" font-size="10.00"> background_</text>
</g>
<!-- Node171&#45;&gt;Node24 -->
<g id="edge14" class="edge">
<title>Node171&#45;&gt;Node24</title>
<path fill="none" stroke="#9a32cd" stroke-dasharray="5,2" d="M696.02,-358.56C732.93,-366.48 772.74,-375.9 790,-383 814.08,-392.9 839.3,-409.88 853.92,-420.5"/>
<polygon fill="#9a32cd" stroke="#9a32cd" points="696.71,-355.13 686.21,-356.48 695.26,-361.98 696.71,-355.13"/>
<text text-anchor="middle" x="747" y="-386" font-family="Helvetica,sans-Serif" font-size="10.00"> cursor_</text>
</g>
<!-- Node171&#45;&gt;Node178 -->
<g id="edge30" class="edge">
<title>Node171&#45;&gt;Node178</title>
<path fill="none" stroke="#9a32cd" stroke-dasharray="5,2" d="M693.68,-325.58C738.97,-314.93 788.25,-302.97 790,-301 834.8,-250.4 767.09,-203.8 808,-150 812.78,-143.71 819.5,-139.06 826.69,-135.62"/>
<polygon fill="#9a32cd" stroke="#9a32cd" points="692.73,-322.21 683.8,-327.9 694.33,-329.02 692.73,-322.21"/>
<text text-anchor="middle" x="747" y="-326" font-family="Helvetica,sans-Serif" font-size="10.00"> scrollPanel_</text>
</g>
<!-- Node164 -->
<g id="node13" class="node">
<title>Node164</title>
<g id="a_node13"><a xlink:href="class_urho3_d_1_1_font.html" target="_top" xlink:title="Font resource.">
<polygon fill="none" stroke="red" points="577.5,-465.5 577.5,-484.5 657.5,-484.5 657.5,-465.5 577.5,-465.5"/>
<text text-anchor="middle" x="617.5" y="-472.5" font-family="Helvetica,sans-Serif" font-size="10.00">Urho3D::Font</text>
</a>
</g>
</g>
<!-- Node164&#45;&gt;Node24 -->
<g id="edge17" class="edge">
<title>Node164&#45;&gt;Node24</title>
<path fill="none" stroke="#9a32cd" stroke-dasharray="5,2" d="M667.97,-467.15C702.28,-461.59 748.99,-453.75 790,-446 800.53,-444.01 811.85,-441.72 822.46,-439.51"/>
<polygon fill="#9a32cd" stroke="#9a32cd" points="667.06,-463.76 657.74,-468.81 668.17,-470.67 667.06,-463.76"/>
<text text-anchor="middle" x="747" y="-464" font-family="Helvetica,sans-Serif" font-size="10.00"> lastFont_</text>
</g>
<!-- Node172 -->
<g id="node14" class="node">
<title>Node172</title>
<g id="a_node14"><a xlink:href="class_urho3_d_1_1_drop_down_list.html" target="_top" xlink:title="Menu UI element that displays a popup list view.">
<polygon fill="none" stroke="black" points="1716,-223.5 1716,-242.5 1844,-242.5 1844,-223.5 1716,-223.5"/>
<text text-anchor="middle" x="1780" y="-230.5" font-family="Helvetica,sans-Serif" font-size="10.00">Urho3D::DropDownList</text>
</a>
</g>
</g>
<!-- Node172&#45;&gt;Node1 -->
<g id="edge18" class="edge">
<title>Node172&#45;&gt;Node1</title>
<path fill="none" stroke="#9a32cd" stroke-dasharray="5,2" d="M1830.57,-245.27C1859.77,-253.44 1896.94,-265.53 1928,-281 1948.5,-291.21 1969.82,-307.22 1982.5,-317.4"/>
<polygon fill="#9a32cd" stroke="#9a32cd" points="1831.17,-241.8 1820.61,-242.54 1829.33,-248.56 1831.17,-241.8"/>
<text text-anchor="middle" x="1895" y="-284" font-family="Helvetica,sans-Serif" font-size="10.00"> interpreters_</text>
</g>
<!-- Node173 -->
<g id="node15" class="node">
<title>Node173</title>
<g id="a_node15"><a xlink:href="class_urho3_d_1_1_menu.html" target="_top" xlink:title="Menu UI element that optionally shows a popup.">
<polygon fill="none" stroke="red" points="824.5,-201.5 824.5,-220.5 910.5,-220.5 910.5,-201.5 824.5,-201.5"/>
<text text-anchor="middle" x="867.5" y="-208.5" font-family="Helvetica,sans-Serif" font-size="10.00">Urho3D::Menu</text>
</a>
</g>
</g>
<!-- Node173&#45;&gt;Node172 -->
<g id="edge19" class="edge">
<title>Node173&#45;&gt;Node172</title>
<path fill="none" stroke="midnightblue" d="M920.93,-212.27C1078.14,-216.07 1545.26,-227.35 1715.78,-231.47"/>
<polygon fill="midnightblue" stroke="midnightblue" points="920.67,-208.76 910.59,-212.02 920.5,-215.76 920.67,-208.76"/>
</g>
<!-- Node174&#45;&gt;Node173 -->
<g id="edge20" class="edge">
<title>Node174&#45;&gt;Node173</title>
<path fill="none" stroke="midnightblue" d="M658.67,-276.37C708.31,-260.75 791.66,-234.54 836.23,-220.52"/>
<polygon fill="midnightblue" stroke="midnightblue" points="657.4,-273.1 648.91,-279.44 659.5,-279.77 657.4,-273.1"/>
</g>
<!-- Node181 -->
<g id="node23" class="node">
<title>Node181</title>
<g id="a_node23"><a xlink:href="class_urho3_d_1_1_shared_ptr.html" target="_top" xlink:title=" ">
<polygon fill="none" stroke="black" points="945,-285 945,-315 1060,-315 1060,-285 945,-285"/>
<text text-anchor="start" x="953" y="-303" font-family="Helvetica,sans-Serif" font-size="10.00">Urho3D::SharedPtr&lt;</text>
<text text-anchor="middle" x="1002.5" y="-292" font-family="Helvetica,sans-Serif" font-size="10.00"> Urho3D::Button &gt;</text>
</a>
</g>
</g>
<!-- Node174&#45;&gt;Node181 -->
<g id="edge36" class="edge">
<title>Node174&#45;&gt;Node181</title>
<path fill="none" stroke="#9a32cd" stroke-dasharray="5,2" d="M674.01,-288.26C683.99,-288.15 694.3,-288.06 704,-288 742.22,-287.78 751.79,-286.92 790,-288 842.57,-289.49 902.4,-293.06 944.98,-295.92"/>
<polygon fill="#9a32cd" stroke="#9a32cd" points="673.72,-284.76 663.76,-288.37 673.8,-291.76 673.72,-284.76"/>
<text text-anchor="middle" x="747" y="-291" font-family="Helvetica,sans-Serif" font-size="10.00"> ptr_</text>
</g>
<!-- Node175&#45;&gt;Node172 -->
<g id="edge24" class="edge">
<title>Node175&#45;&gt;Node172</title>
<path fill="none" stroke="#9a32cd" stroke-dasharray="5,2" d="M673.24,-222.91C723.06,-237.6 798.92,-256 866.5,-256 866.5,-256 866.5,-256 1443,-256 1556.5,-256 1584.88,-251.38 1698,-242 1703.78,-241.52 1709.79,-240.96 1715.8,-240.37"/>
<polygon fill="#9a32cd" stroke="#9a32cd" points="674.22,-219.55 663.64,-220.03 672.21,-226.25 674.22,-219.55"/>
<text text-anchor="middle" x="1136" y="-259" font-family="Helvetica,sans-Serif" font-size="10.00"> placeholder_</text>
</g>
<!-- Node175&#45;&gt;Node173 -->
<g id="edge22" class="edge">
<title>Node175&#45;&gt;Node173</title>
<path fill="none" stroke="#9a32cd" stroke-dasharray="5,2" d="M690.23,-204.47C720.96,-204.49 757.25,-204.84 790,-206 801.17,-206.4 813.25,-207.07 824.44,-207.8"/>
<polygon fill="#9a32cd" stroke="#9a32cd" points="690.03,-200.97 680.04,-204.47 690.04,-207.97 690.03,-200.97"/>
<text text-anchor="middle" x="747" y="-209" font-family="Helvetica,sans-Serif" font-size="10.00"> popup_</text>
</g>
<!-- Node177 -->
<g id="node19" class="node">
<title>Node177</title>
<g id="a_node19"><a xlink:href="class_urho3_d_1_1_list_view.html" target="_top" xlink:title="Scrollable list UI element.">
<polygon fill="none" stroke="black" points="1085.5,-116.5 1085.5,-135.5 1186.5,-135.5 1186.5,-116.5 1085.5,-116.5"/>
<text text-anchor="middle" x="1136" y="-123.5" font-family="Helvetica,sans-Serif" font-size="10.00">Urho3D::ListView</text>
</a>
</g>
</g>
<!-- Node175&#45;&gt;Node177 -->
<g id="edge31" class="edge">
<title>Node175&#45;&gt;Node177</title>
<path fill="none" stroke="#9a32cd" stroke-dasharray="5,2" d="M690.12,-195.32C777.56,-183.3 929.89,-161.71 1060,-140 1068.23,-138.63 1076.95,-137.08 1085.43,-135.53"/>
<polygon fill="#9a32cd" stroke="#9a32cd" points="689.47,-191.87 680.04,-196.7 690.42,-198.81 689.47,-191.87"/>
<text text-anchor="middle" x="867.5" y="-181" font-family="Helvetica,sans-Serif" font-size="10.00"> overlayContainer_</text>
</g>
<!-- Node175&#45;&gt;Node178 -->
<g id="edge29" class="edge">
<title>Node175&#45;&gt;Node178</title>
<path fill="none" stroke="#9a32cd" stroke-dasharray="5,2" d="M643.35,-183.51C659.54,-170.74 681.72,-155.44 704,-147 738.58,-133.89 779.94,-128.68 812.28,-126.73"/>
<polygon fill="#9a32cd" stroke="#9a32cd" points="641.03,-180.89 635.47,-189.9 645.44,-186.32 641.03,-180.89"/>
<text text-anchor="middle" x="747" y="-150" font-family="Helvetica,sans-Serif" font-size="10.00"> contentElement_</text>
</g>
<!-- Node176 -->
<g id="node18" class="node">
<title>Node176</title>
<g id="a_node18"><a xlink:href="class_urho3_d_1_1_shared_ptr.html" target="_top" xlink:title=" ">
<polygon fill="none" stroke="black" points="1384.5,-151 1384.5,-181 1499.5,-181 1499.5,-151 1384.5,-151"/>
<text text-anchor="start" x="1392.5" y="-169" font-family="Helvetica,sans-Serif" font-size="10.00">Urho3D::SharedPtr&lt;</text>
<text text-anchor="middle" x="1442" y="-158" font-family="Helvetica,sans-Serif" font-size="10.00"> Urho3D::ListView &gt;</text>
</a>
</g>
</g>
<!-- Node176&#45;&gt;Node172 -->
<g id="edge25" class="edge">
<title>Node176&#45;&gt;Node172</title>
<path fill="none" stroke="#9a32cd" stroke-dasharray="5,2" d="M1509.77,-162.74C1562.15,-162.12 1636.26,-165.59 1698,-185 1724.66,-193.38 1751.85,-211.98 1766.96,-223.41"/>
<polygon fill="#9a32cd" stroke="#9a32cd" points="1509.53,-159.24 1499.6,-162.91 1509.65,-166.24 1509.53,-159.24"/>
<text text-anchor="middle" x="1616" y="-188" font-family="Helvetica,sans-Serif" font-size="10.00"> listView_</text>
</g>
<!-- Node177&#45;&gt;Node1 -->
<g id="edge34" class="edge">
<title>Node177&#45;&gt;Node1</title>
<path fill="none" stroke="#9a32cd" stroke-dasharray="5,2" d="M1196.9,-120.92C1300.61,-113.77 1519.62,-105.88 1698,-148 1807.18,-173.78 1837.81,-185.27 1928,-252 1953.66,-270.98 1976.53,-301.42 1987.36,-317.04"/>
<polygon fill="#9a32cd" stroke="#9a32cd" points="1196.35,-117.45 1186.63,-121.66 1196.85,-124.44 1196.35,-117.45"/>
<text text-anchor="middle" x="1616" y="-151" font-family="Helvetica,sans-Serif" font-size="10.00"> rowContainer_</text>
</g>
<!-- Node177&#45;&gt;Node176 -->
<g id="edge26" class="edge">
<title>Node177&#45;&gt;Node176</title>
<path fill="none" stroke="#9a32cd" stroke-dasharray="5,2" d="M1196.61,-133.96C1201.81,-134.65 1207,-135.34 1212,-136 1270.63,-143.75 1337.72,-152.53 1384.06,-158.58"/>
<polygon fill="#9a32cd" stroke="#9a32cd" points="1196.99,-130.48 1186.62,-132.63 1196.07,-137.42 1196.99,-130.48"/>
<text text-anchor="middle" x="1281" y="-157" font-family="Helvetica,sans-Serif" font-size="10.00"> ptr_</text>
</g>
<!-- Node178&#45;&gt;Node177 -->
<g id="edge27" class="edge">
<title>Node178&#45;&gt;Node177</title>
<path fill="none" stroke="midnightblue" d="M932.8,-126C979.68,-126 1042.26,-126 1085.32,-126"/>
<polygon fill="midnightblue" stroke="midnightblue" points="932.75,-122.5 922.75,-126 932.75,-129.5 932.75,-122.5"/>
</g>
<!-- Node169 -->
<g id="node21" class="node">
<title>Node169</title>
<g id="a_node21"><a xlink:href="class_urho3_d_1_1_p_o_d_vector.html" target="_top" xlink:title=" ">
<polygon fill="none" stroke="black" points="808,-67 808,-97 927,-97 927,-67 808,-67"/>
<text text-anchor="start" x="816" y="-85" font-family="Helvetica,sans-Serif" font-size="10.00">Urho3D::PODVector&lt;</text>
<text text-anchor="middle" x="867.5" y="-74" font-family="Helvetica,sans-Serif" font-size="10.00"> unsigned &gt;</text>
</a>
</g>
</g>
<!-- Node169&#45;&gt;Node177 -->
<g id="edge32" class="edge">
<title>Node169&#45;&gt;Node177</title>
<path fill="none" stroke="#9a32cd" stroke-dasharray="5,2" d="M937.33,-91.62C973.85,-96.93 1019.43,-103.88 1060,-111 1069.42,-112.65 1079.47,-114.56 1089.05,-116.46"/>
<polygon fill="#9a32cd" stroke="#9a32cd" points="937.68,-88.14 927.29,-90.17 936.68,-95.07 937.68,-88.14"/>
<text text-anchor="middle" x="1002.5" y="-114" font-family="Helvetica,sans-Serif" font-size="10.00"> selections_</text>
</g>
<!-- Node13 -->
<g id="node22" class="node">
<title>Node13</title>
<g id="a_node22"><a xlink:href="class_urho3_d_1_1_vector_base.html" target="_top" xlink:title="Vector base class.">
<polygon fill="none" stroke="black" points="560.5,-28.5 560.5,-47.5 674.5,-47.5 674.5,-28.5 560.5,-28.5"/>
<text text-anchor="middle" x="617.5" y="-35.5" font-family="Helvetica,sans-Serif" font-size="10.00">Urho3D::VectorBase</text>
</a>
</g>
</g>
<!-- Node13&#45;&gt;Node169 -->
<g id="edge33" class="edge">
<title>Node13&#45;&gt;Node169</title>
<path fill="none" stroke="midnightblue" d="M682.4,-49.34C721.03,-56.19 769.9,-64.86 807.59,-71.55"/>
<polygon fill="midnightblue" stroke="midnightblue" points="682.77,-45.85 672.31,-47.55 681.55,-52.74 682.77,-45.85"/>
</g>
<!-- Node184 -->
<g id="node24" class="node">
<title>Node184</title>
<g id="a_node24"><a xlink:href="class_urho3_d_1_1_vector.html" target="_top" xlink:title=" ">
<polygon fill="none" stroke="black" points="1212,-38 1212,-68 1350,-68 1350,-38 1212,-38"/>
<text text-anchor="start" x="1220" y="-56" font-family="Helvetica,sans-Serif" font-size="10.00">Urho3D::Vector&lt; Urho3D</text>
<text text-anchor="middle" x="1281" y="-45" font-family="Helvetica,sans-Serif" font-size="10.00">::String &gt;</text>
</a>
</g>
</g>
<!-- Node13&#45;&gt;Node184 -->
<g id="edge38" class="edge">
<title>Node13&#45;&gt;Node184</title>
<path fill="none" stroke="midnightblue" d="M684.9,-39.51C811.14,-42.37 1084.49,-48.57 1211.97,-51.46"/>
<polygon fill="midnightblue" stroke="midnightblue" points="684.69,-36 674.61,-39.27 684.53,-43 684.69,-36"/>
</g>
<!-- Node185 -->
<g id="node25" class="node">
<title>Node185</title>
<g id="a_node25"><a xlink:href="class_urho3_d_1_1_vector.html" target="_top" xlink:title=" ">
<polygon fill="none" stroke="black" points="1534,-4 1534,-34 1698,-34 1698,-4 1534,-4"/>
<text text-anchor="start" x="1542" y="-22" font-family="Helvetica,sans-Serif" font-size="10.00">Urho3D::Vector&lt; Urho3D</text>
<text text-anchor="middle" x="1616" y="-11" font-family="Helvetica,sans-Serif" font-size="10.00">::Pair&lt; int, Urho3D::String &gt; &gt;</text>
</a>
</g>
</g>
<!-- Node13&#45;&gt;Node185 -->
<g id="edge41" class="edge">
<title>Node13&#45;&gt;Node185</title>
<path fill="none" stroke="midnightblue" d="M666.72,-26.17C716.45,-15.01 796.41,0 866.5,0 866.5,0 866.5,0 1282,0 1368.14,0 1466.6,-6.41 1533.99,-11.79"/>
<polygon fill="midnightblue" stroke="midnightblue" points="665.85,-22.77 656.88,-28.41 667.41,-29.6 665.85,-22.77"/>
</g>
<!-- Node181&#45;&gt;Node1 -->
<g id="edge35" class="edge">
<title>Node181&#45;&gt;Node1</title>
<path fill="none" stroke="#9a32cd" stroke-dasharray="5,2" d="M1070.3,-302.26C1126.29,-303.96 1208.36,-306 1280,-306 1280,-306 1280,-306 1781,-306 1837.85,-306 1902.83,-313.5 1945.91,-319.54"/>
<polygon fill="#9a32cd" stroke="#9a32cd" points="1070.26,-298.76 1060.15,-301.95 1070.04,-305.75 1070.26,-298.76"/>
<text text-anchor="middle" x="1442" y="-309" font-family="Helvetica,sans-Serif" font-size="10.00"> closeButton_</text>
</g>
<!-- Node184&#45;&gt;Node1 -->
<g id="edge37" class="edge">
<title>Node184&#45;&gt;Node1</title>
<path fill="none" stroke="#9a32cd" stroke-dasharray="5,2" d="M1360.26,-48.78C1513.25,-42.24 1844.33,-36.97 1928,-108 1993.69,-163.77 1995.44,-282.35 1994.45,-317.18"/>
<polygon fill="#9a32cd" stroke="#9a32cd" points="1359.84,-45.3 1350,-49.24 1360.15,-52.29 1359.84,-45.3"/>
<text text-anchor="middle" x="1616" y="-65" font-family="Helvetica,sans-Serif" font-size="10.00"> history_</text>
<text text-anchor="middle" x="1616" y="-54" font-family="Helvetica,sans-Serif" font-size="10.00">autoComplete_</text>
</g>
<!-- Node185&#45;&gt;Node1 -->
<g id="edge40" class="edge">
<title>Node185&#45;&gt;Node1</title>
<path fill="none" stroke="#9a32cd" stroke-dasharray="5,2" d="M1708.15,-3.38C1776.96,2.91 1869.25,-1.22 1928,-54 1968.72,-90.58 1988.78,-272.95 1993.1,-317.28"/>
<polygon fill="#9a32cd" stroke="#9a32cd" points="1707.78,0.1 1698.17,-4.38 1708.47,-6.87 1707.78,0.1"/>
<text text-anchor="middle" x="1780" y="-13" font-family="Helvetica,sans-Serif" font-size="10.00"> pendingRows_</text>
</g>
</g>
</svg>
        <g id="navigator" transform="translate(0 0)" fill="#404254">
                <rect fill="#f2f5e9" fill-opacity="0.5" stroke="#606060" stroke-width=".5" x="0" y="0" width="60" height="60"/>
                <use id="zoomplus" xlink:href="#zoomPlus" x="17" y="9" onmousedown="handleZoom(evt,'in')"/>
                <use id="zoomminus" xlink:href="#zoomMin" x="42" y="9" onmousedown="handleZoom(evt,'out')"/>
                <use id="reset" xlink:href="#resetDef" x="30" y="36" onmousedown="handleReset()"/>
                <g id="arrowUp" xlink:href="#dirArrow" transform="translate(30 24)" onmousedown="handlePan(0,-1)">
                  <use xlink:href="#rim" fill="#404040">
                        <set attributeName="fill" to="#808080" begin="arrowUp.mouseover" end="arrowUp.mouseout"/>
                  </use>
                  <path fill="none" stroke="white" stroke-width="1.5" d="M0,-3.0v7 M-2.5,-0.5L0,-3.0L2.5,-0.5"/>
                </g>
                <g id="arrowRight" xlink:href="#dirArrow" transform="rotate(90) translate(36 -43)" onmousedown="handlePan(1,0)">
                  <use xlink:href="#rim" fill="#404040">
                        <set attributeName="fill" to="#808080" begin="arrowRight.mouseover" end="arrowRight.mouseout"/>
                  </use>
                  <path fill="none" stroke="white" stroke-width="1.5" d="M0,-3.0v7 M-2.5,-0.5L0,-3.0L2.5,-0.5"/>
                </g>
                <g id="arrowDown" xlink:href="#dirArrow" transform="rotate(180) translate(-30 -48)" onmousedown="handlePan(0,1)">
                  <use xlink:href="#rim" fill="#404040">
                        <set attributeName="fill" to="#808080" begin="arrowDown.mouseover" end="arrowDown.mouseout"/>
                  </use>
                  <path fill="none" stroke="white" stroke-width="1.5" d="M0,-3.0v7 M-2.5,-0.5L0,-3.0L2.5,-0.5"/>
                </g>
                <g id="arrowLeft" xlink:href="#dirArrow" transform="rotate(270) translate(-36 17)" onmousedown="handlePan(-1,0)">
                  <use xlink:href="#rim" fill="#404040">
                        <set attributeName="fill" to="#808080" begin="arrowLeft.mouseover" end="arrowLeft.mouseout"/>
                  </use>
                  <path fill="none" stroke="white" stroke-width="1.5" d="M0,-3.0v7 M-2.5,-0.5L0,-3.0L2.5,-0.5"/>
                </g>
        </g>
        <svg viewBox="0 0 15 15" width="100%" height="30px" preserveAspectRatio="xMaxYMin meet">
         <g id="arrow_out" transform="scale(0.3 0.3)">
          <a xlink:href="class_urho3_d_1_1_console__coll__graph_org.svg" target="_base">
           <rect id="button" ry="5" rx="5" y="6" x="6" height="38" width="38"
                fill="#f2f5e9" fill-opacity="0.5" stroke="#606060" stroke-width="1.0"/>
           <path id="arrow"
             d="M 11.500037,31.436501 C 11.940474,20.09759 22.043105,11.32322 32.158766,21.979434 L 37.068811,17.246167 C 37.068811,17.246167 37.088388,32 37.088388,32 L 22.160133,31.978069 C 22.160133,31.978069 26.997745,27.140456 26.997745,27.140456 C 18.528582,18.264221 13.291696,25.230495 11.500037,31.436501 z"
             style="fill:#404040;"/>
          </a>
         </g>
        </svg>
</svg>
