<?xml version="1.0" encoding="UTF-8" standalone="no"?>
<!DOCTYPE svg PUBLIC "-//W3C//DTD SVG 1.1//EN"
 "http://www.w3.org/Graphics/SVG/1.1/DTD/svg11.dtd">
<!-- Generated by graphviz version 2.43.0 (0)
 -->
<!-- Title: Urho3D::Scene::IsUpdateEnabled Pages: 1 -->
<svg width="554pt" height="39pt"
 viewBox="0.00 0.00 554.00 39.00" xmlns="http://www.w3.org/2000/svg" xmlns:xlink="http://www.w3.org/1999/xlink">
<g id="graph0" class="graph" transform="scale(1 1) rotate(0) translate(4 35)">
<title>Urho3D::Scene::IsUpdateEnabled</title>
<!-- Node1 -->
<g id="node1" class="node">
<title>Node1</title>
<g id="a_node1"><a xlink:title=" ">
<polygon fill="#bfbfbf" stroke="black" points="369,-6 369,-25 546,-25 546,-6 369,-6"/>
<text text-anchor="middle" x="457.5" y="-13" font-family="Helvetica,sans-Serif" font-size="10.00">Urho3D::Scene::IsUpdateEnabled</text>
</a>
</g>
</g>
<!-- Node2 -->
<g id="node2" class="node">
<title>Node2</title>
<g id="a_node2"><a xlink:href="class_urho3_d_1_1_octree.html#aa8eb76b6cb6ec002fd1687a001668222" target="_top" xlink:title="Handle render update in case of headless execution.">
<polygon fill="none" stroke="black" points="166,-0.5 166,-30.5 333,-30.5 333,-0.5 166,-0.5"/>
<text text-anchor="start" x="174" y="-18.5" font-family="Helvetica,sans-Serif" font-size="10.00">Urho3D::Octree::HandleRender</text>
<text text-anchor="middle" x="249.5" y="-7.5" font-family="Helvetica,sans-Serif" font-size="10.00">Update</text>
</a>
</g>
</g>
<!-- Node1&#45;&gt;Node2 -->
<g id="edge1" class="edge">
<title>Node1&#45;&gt;Node2</title>
<path fill="none" stroke="midnightblue" d="M358.81,-15.5C350.23,-15.5 341.61,-15.5 333.17,-15.5"/>
<polygon fill="midnightblue" stroke="midnightblue" points="358.84,-19 368.84,-15.5 358.84,-12 358.84,-19"/>
</g>
<!-- Node3 -->
<g id="node3" class="node">
<title>Node3</title>
<g id="a_node3"><a xlink:href="class_urho3_d_1_1_octree.html#aef63e04e9942efa2edb1e451040cd8ce" target="_top" xlink:title="Construct.">
<polygon fill="none" stroke="black" points="0,-6 0,-25 130,-25 130,-6 0,-6"/>
<text text-anchor="middle" x="65" y="-13" font-family="Helvetica,sans-Serif" font-size="10.00">Urho3D::Octree::Octree</text>
</a>
</g>
</g>
<!-- Node2&#45;&gt;Node3 -->
<g id="edge2" class="edge">
<title>Node2&#45;&gt;Node3</title>
<path fill="none" stroke="midnightblue" d="M155.66,-15.5C147.02,-15.5 138.4,-15.5 130.1,-15.5"/>
<polygon fill="midnightblue" stroke="midnightblue" points="155.79,-19 165.79,-15.5 155.79,-12 155.79,-19"/>
</g>
</g>
</svg>
