<?xml version="1.0" encoding="UTF-8" standalone="no"?>
<!DOCTYPE svg PUBLIC "-//W3C//DTD SVG 1.1//EN"
 "http://www.w3.org/Graphics/SVG/1.1/DTD/svg11.dtd">
<!-- Generated by graphviz version 2.43.0 (0)
 -->
<!-- Title: Urho3D::UI::SetMaxFontTextureSize Pages: 1 -->
<svg width="362pt" height="46pt"
 viewBox="0.00 0.00 362.00 46.00" xmlns="http://www.w3.org/2000/svg" xmlns:xlink="http://www.w3.org/1999/xlink">
<g id="graph0" class="graph" transform="scale(1 1) rotate(0) translate(4 42)">
<title>Urho3D::UI::SetMaxFontTextureSize</title>
<!-- Node1 -->
<g id="node1" class="node">
<title>Node1</title>
<g id="a_node1"><a xlink:title=" ">
<polygon fill="#bfbfbf" stroke="black" points="0,-0.5 0,-19.5 190,-19.5 190,-0.5 0,-0.5"/>
<text text-anchor="middle" x="95" y="-7.5" font-family="Helvetica,sans-Serif" font-size="10.00">Urho3D::UI::SetMaxFontTextureSize</text>
</a>
</g>
</g>
<!-- Node2 -->
<g id="node2" class="node">
<title>Node2</title>
<g id="a_node2"><a xlink:href="_math_defs_8h.html#a1ee41e2f52367ebcd904931742d0a0f5" target="_top" xlink:title="Check whether an unsigned integer is a power of two.">
<polygon fill="none" stroke="black" points="226,-0.5 226,-19.5 354,-19.5 354,-0.5 226,-0.5"/>
<text text-anchor="middle" x="290" y="-7.5" font-family="Helvetica,sans-Serif" font-size="10.00">Urho3D::IsPowerOfTwo</text>
</a>
</g>
</g>
<!-- Node1&#45;&gt;Node2 -->
<g id="edge1" class="edge">
<title>Node1&#45;&gt;Node2</title>
<path fill="none" stroke="midnightblue" d="M190.24,-10C198.81,-10 207.41,-10 215.75,-10"/>
<polygon fill="midnightblue" stroke="midnightblue" points="215.8,-13.5 225.8,-10 215.8,-6.5 215.8,-13.5"/>
</g>
<!-- Node2&#45;&gt;Node2 -->
<g id="edge2" class="edge">
<title>Node2&#45;&gt;Node2</title>
<path fill="none" stroke="midnightblue" d="M260.1,-19.76C245.55,-28.57 255.52,-38 290,-38 314.24,-38 326.37,-33.34 326.37,-27.5"/>
<polygon fill="midnightblue" stroke="midnightblue" points="329,-25.19 319.9,-19.76 323.63,-29.67 329,-25.19"/>
</g>
</g>
</svg>
