<?xml version="1.0" encoding="UTF-8" standalone="no"?>
<!DOCTYPE svg PUBLIC "-//W3C//DTD SVG 1.1//EN"
 "http://www.w3.org/Graphics/SVG/1.1/DTD/svg11.dtd">
<!-- Generated by graphviz version 2.36.0 (20140111.2315)
 -->
<!-- Title: Urho3D::Plane Pages: 1 -->
<svg width="168pt" height="174pt"
 viewBox="0.00 0.00 168.00 174.00" xmlns="http://www.w3.org/2000/svg" xmlns:xlink="http://www.w3.org/1999/xlink">
<g id="graph0" class="graph" transform="scale(1 1) rotate(0) translate(4 170)">
<title>Urho3D::Plane</title>
<!-- Node1 -->
<g id="node1" class="node"><title>Node1</title>
<polygon fill="#bfbfbf" stroke="black" points="5,-0.5 5,-19.5 91,-19.5 91,-0.5 5,-0.5"/>
<text text-anchor="middle" x="48" y="-7.5" font-family="FreeSans" font-size="10.00">Urho3D::Plane</text>
</g>
<!-- Node1&#45;&gt;Node1 -->
<g id="edge1" class="edge"><title>Node1&#45;&gt;Node1</title>
<path fill="none" stroke="#9a32cd" stroke-dasharray="5,2" d="M101.254,-15.6304C106.013,-14.4513 109,-12.5745 109,-10 109,-5.88086 101.355,-3.54775 91.0361,-3.00068"/>
<polygon fill="#9a32cd" stroke="#9a32cd" points="100.483,-12.2024 91.0361,-16.9993 101.412,-19.1404 100.483,-12.2024"/>
<text text-anchor="middle" x="117.5" y="-7.5" font-family="FreeSans" font-size="10.00"> UP</text>
</g>
<!-- Node2 -->
<g id="node2" class="node"><title>Node2</title>
<g id="a_node2"><a xlink:href="class_urho3_d_1_1_vector3.html" target="_top" xlink:title="Three&#45;dimensional vector. ">
<polygon fill="none" stroke="black" points="0,-112.5 0,-131.5 96,-131.5 96,-112.5 0,-112.5"/>
<text text-anchor="middle" x="48" y="-119.5" font-family="FreeSans" font-size="10.00">Urho3D::Vector3</text>
</a>
</g>
</g>
<!-- Node2&#45;&gt;Node1 -->
<g id="edge2" class="edge"><title>Node2&#45;&gt;Node1</title>
<path fill="none" stroke="#9a32cd" stroke-dasharray="5,2" d="M48,-102.348C48,-78.2538 48,-37.3079 48,-19.5914"/>
<polygon fill="#9a32cd" stroke="#9a32cd" points="44.5001,-102.368 48,-112.368 51.5001,-102.369 44.5001,-102.368"/>
<text text-anchor="middle" x="77" y="-52" font-family="FreeSans" font-size="10.00"> normal_</text>
<text text-anchor="middle" x="77" y="-41" font-family="FreeSans" font-size="10.00">absNormal_</text>
</g>
<!-- Node2&#45;&gt;Node2 -->
<g id="edge3" class="edge"><title>Node2&#45;&gt;Node2</title>
<path fill="none" stroke="#9a32cd" stroke-dasharray="5,2" d="M75.6242,-134.147C94.9316,-137.898 114,-133.85 114,-122 114,-108.148 87.9442,-104.956 65.9086,-112.423"/>
<polygon fill="#9a32cd" stroke="#9a32cd" points="76.4712,-130.75 65.9086,-131.577 74.6813,-137.518 76.4712,-130.75"/>
<text text-anchor="middle" x="137" y="-158" font-family="FreeSans" font-size="10.00"> ONE</text>
<text text-anchor="middle" x="137" y="-147" font-family="FreeSans" font-size="10.00">DOWN</text>
<text text-anchor="middle" x="137" y="-136" font-family="FreeSans" font-size="10.00">BACK</text>
<text text-anchor="middle" x="137" y="-125" font-family="FreeSans" font-size="10.00">RIGHT</text>
<text text-anchor="middle" x="137" y="-114" font-family="FreeSans" font-size="10.00">LEFT</text>
<text text-anchor="middle" x="137" y="-103" font-family="FreeSans" font-size="10.00">ZERO</text>
<text text-anchor="middle" x="137" y="-92" font-family="FreeSans" font-size="10.00">FORWARD</text>
<text text-anchor="middle" x="137" y="-81" font-family="FreeSans" font-size="10.00">UP</text>
</g>
</g>
</svg>
