<?xml version="1.0" encoding="UTF-8" standalone="no"?>
<!DOCTYPE svg PUBLIC "-//W3C//DTD SVG 1.1//EN"
 "http://www.w3.org/Graphics/SVG/1.1/DTD/svg11.dtd">
<!-- Generated by graphviz version 2.36.0 (20140111.2315)
 -->
<!-- Title: Urho3D::OcclusionBuffer Pages: 1 -->
<svg width="1112pt" height="1099pt"
 viewBox="0.00 0.00 1112.00 1099.00" xmlns="http://www.w3.org/2000/svg" xmlns:xlink="http://www.w3.org/1999/xlink">
<g id="graph0" class="graph" transform="scale(1 1) rotate(0) translate(4 1095)">
<title>Urho3D::OcclusionBuffer</title>
<!-- Node1 -->
<g id="node1" class="node"><title>Node1</title>
<polygon fill="#bfbfbf" stroke="black" points="964,-866.5 964,-885.5 1098,-885.5 1098,-866.5 964,-866.5"/>
<text text-anchor="middle" x="1031" y="-873.5" font-family="FreeSans" font-size="10.00">Urho3D::OcclusionBuffer</text>
</g>
<!-- Node2 -->
<g id="node2" class="node"><title>Node2</title>
<g id="a_node2"><a xlink:href="class_urho3_d_1_1_object.html" target="_top" xlink:title="Base class for objects with type identification, subsystem access and event sending/receiving capabil...">
<polygon fill="none" stroke="black" points="361,-537.5 361,-556.5 451,-556.5 451,-537.5 361,-537.5"/>
<text text-anchor="middle" x="406" y="-544.5" font-family="FreeSans" font-size="10.00">Urho3D::Object</text>
</a>
</g>
</g>
<!-- Node2&#45;&gt;Node1 -->
<g id="edge1" class="edge"><title>Node2&#45;&gt;Node1</title>
<path fill="none" stroke="midnightblue" d="M418.766,-564.875C440.718,-596.57 491.242,-662.09 552,-692 712.384,-770.953 786.271,-706.765 940,-798 973.25,-817.733 1005.95,-850.257 1021.16,-866.356"/>
<polygon fill="midnightblue" stroke="midnightblue" points="421.626,-562.858 413.117,-556.545 415.832,-566.786 421.626,-562.858"/>
</g>
<!-- Node11 -->
<g id="node11" class="node"><title>Node11</title>
<g id="a_node11"><a xlink:href="class_urho3_d_1_1_event_handler.html" target="_top" xlink:title="Internal helper class for invoking event handler functions. ">
<polygon fill="none" stroke="red" points="617,-470.5 617,-489.5 741,-489.5 741,-470.5 617,-470.5"/>
<text text-anchor="middle" x="679" y="-477.5" font-family="FreeSans" font-size="10.00">Urho3D::EventHandler</text>
</a>
</g>
</g>
<!-- Node2&#45;&gt;Node11 -->
<g id="edge15" class="edge"><title>Node2&#45;&gt;Node11</title>
<path fill="none" stroke="#9a32cd" stroke-dasharray="5,2" d="M460.765,-534.662C464.735,-532.751 468.536,-530.545 472,-528 483.623,-519.461 477.682,-508.502 490,-501 527.727,-478.024 577.706,-473.394 616.648,-474.175"/>
<polygon fill="#9a32cd" stroke="#9a32cd" points="459.162,-531.538 451.272,-538.608 461.849,-538.001 459.162,-531.538"/>
<text text-anchor="middle" x="512" y="-515" font-family="FreeSans" font-size="10.00"> sender_</text>
<text text-anchor="middle" x="512" y="-504" font-family="FreeSans" font-size="10.00">receiver_</text>
</g>
<!-- Node3 -->
<g id="node3" class="node"><title>Node3</title>
<g id="a_node3"><a xlink:href="class_urho3_d_1_1_ref_counted.html" target="_top" xlink:title="Base class for intrusively reference&#45;counted objects. These are noncopyable and non&#45;assignable. ">
<polygon fill="none" stroke="black" points="188,-464.5 188,-483.5 302,-483.5 302,-464.5 188,-464.5"/>
<text text-anchor="middle" x="245" y="-471.5" font-family="FreeSans" font-size="10.00">Urho3D::RefCounted</text>
</a>
</g>
</g>
<!-- Node3&#45;&gt;Node2 -->
<g id="edge2" class="edge"><title>Node3&#45;&gt;Node2</title>
<path fill="none" stroke="midnightblue" d="M268.717,-489.099C287.281,-500.926 314.525,-517.142 340,-528 348.436,-531.596 357.766,-534.764 366.661,-537.432"/>
<polygon fill="midnightblue" stroke="midnightblue" points="270.399,-486.019 260.102,-483.527 266.598,-491.896 270.399,-486.019"/>
</g>
<!-- Node5 -->
<g id="node5" class="node"><title>Node5</title>
<g id="a_node5"><a xlink:href="class_urho3_d_1_1_context.html" target="_top" xlink:title="Urho3D execution context. Provides access to subsystems, object factories and attributes, and event receivers. ">
<polygon fill="none" stroke="black" points="982.5,-361.5 982.5,-380.5 1079.5,-380.5 1079.5,-361.5 982.5,-361.5"/>
<text text-anchor="middle" x="1031" y="-368.5" font-family="FreeSans" font-size="10.00">Urho3D::Context</text>
</a>
</g>
</g>
<!-- Node3&#45;&gt;Node5 -->
<g id="edge5" class="edge"><title>Node3&#45;&gt;Node5</title>
<path fill="none" stroke="midnightblue" d="M312.152,-464.395C321.492,-463.172 330.981,-462 340,-461 546.568,-438.089 599.557,-446.019 806,-422 865.812,-415.041 881.51,-416.31 940,-402 962.955,-396.384 988.347,-387.369 1006.29,-380.505"/>
<polygon fill="midnightblue" stroke="midnightblue" points="311.555,-460.944 302.106,-465.736 312.481,-467.882 311.555,-460.944"/>
</g>
<!-- Node4 -->
<g id="node4" class="node"><title>Node4</title>
<g id="a_node4"><a xlink:href="struct_urho3_d_1_1_ref_count.html" target="_top" xlink:title="Reference count structure. ">
<polygon fill="none" stroke="black" points="0,-464.5 0,-483.5 102,-483.5 102,-464.5 0,-464.5"/>
<text text-anchor="middle" x="51" y="-471.5" font-family="FreeSans" font-size="10.00">Urho3D::RefCount</text>
</a>
</g>
</g>
<!-- Node4&#45;&gt;Node3 -->
<g id="edge3" class="edge"><title>Node4&#45;&gt;Node3</title>
<path fill="none" stroke="#9a32cd" stroke-dasharray="5,2" d="M112.534,-474C136.618,-474 164.167,-474 187.804,-474"/>
<polygon fill="#9a32cd" stroke="#9a32cd" points="112.446,-470.5 102.446,-474 112.446,-477.5 112.446,-470.5"/>
<text text-anchor="middle" x="145" y="-477" font-family="FreeSans" font-size="10.00"> refCount_</text>
</g>
<!-- Node5&#45;&gt;Node2 -->
<g id="edge4" class="edge"><title>Node5&#45;&gt;Node2</title>
<path fill="none" stroke="#9a32cd" stroke-dasharray="5,2" d="M1022.59,-390.266C1010.3,-419.266 982.744,-473.357 940,-498 934.704,-501.053 577.745,-532.215 451.025,-543.196"/>
<polygon fill="#9a32cd" stroke="#9a32cd" points="1025.9,-391.401 1026.42,-380.818 1019.42,-388.767 1025.9,-391.401"/>
<text text-anchor="middle" x="679" y="-537" font-family="FreeSans" font-size="10.00"> context_</text>
</g>
<!-- Node6 -->
<g id="node6" class="node"><title>Node6</title>
<g id="a_node6"><a xlink:href="class_urho3_d_1_1_hash_map.html" target="_top" xlink:title="Urho3D::HashMap\&lt; Urho3D\l::Object *, Urho3D::HashMap\l\&lt; Urho3D::StringHash, Urho3D\l::SharedPtr\&lt; Urho3D::EventReceiverGroup \&gt; \&gt; \&gt;">
<polygon fill="none" stroke="black" points="552,-252 552,-304 806,-304 806,-252 552,-252"/>
<text text-anchor="start" x="560" y="-292" font-family="FreeSans" font-size="10.00">Urho3D::HashMap&lt; Urho3D</text>
<text text-anchor="start" x="560" y="-281" font-family="FreeSans" font-size="10.00">::Object *, Urho3D::HashMap</text>
<text text-anchor="start" x="560" y="-270" font-family="FreeSans" font-size="10.00">&lt; Urho3D::StringHash, Urho3D</text>
<text text-anchor="middle" x="679" y="-259" font-family="FreeSans" font-size="10.00">::SharedPtr&lt; Urho3D::EventReceiverGroup &gt; &gt; &gt;</text>
</a>
</g>
</g>
<!-- Node6&#45;&gt;Node5 -->
<g id="edge6" class="edge"><title>Node6&#45;&gt;Node5</title>
<path fill="none" stroke="#9a32cd" stroke-dasharray="5,2" d="M806.567,-306.414C849.164,-316.574 896.826,-328.597 940,-341 961.529,-347.185 985.584,-355.265 1003.4,-361.481"/>
<polygon fill="#9a32cd" stroke="#9a32cd" points="807.248,-302.978 796.71,-304.074 805.631,-309.789 807.248,-302.978"/>
<text text-anchor="middle" x="882" y="-344" font-family="FreeSans" font-size="10.00"> specificEventReceivers_</text>
</g>
<!-- Node7 -->
<g id="node7" class="node"><title>Node7</title>
<g id="a_node7"><a xlink:href="class_urho3_d_1_1_hash_base.html" target="_top" xlink:title="Hash set/map base class. ">
<polygon fill="none" stroke="red" points="352,-197.5 352,-216.5 460,-216.5 460,-197.5 352,-197.5"/>
<text text-anchor="middle" x="406" y="-204.5" font-family="FreeSans" font-size="10.00">Urho3D::HashBase</text>
</a>
</g>
</g>
<!-- Node7&#45;&gt;Node6 -->
<g id="edge7" class="edge"><title>Node7&#45;&gt;Node6</title>
<path fill="none" stroke="midnightblue" d="M453.02,-219.057C487.388,-228.061 535.644,-240.704 578.657,-251.973"/>
<polygon fill="midnightblue" stroke="midnightblue" points="453.828,-215.65 443.267,-216.502 452.054,-222.422 453.828,-215.65"/>
</g>
<!-- Node8 -->
<g id="node8" class="node"><title>Node8</title>
<g id="a_node8"><a xlink:href="class_urho3_d_1_1_hash_map.html" target="_top" xlink:title="Urho3D::HashMap\&lt; Urho3D\l::StringHash, Urho3D::\lSharedPtr\&lt; Urho3D::EventReceiver\lGroup \&gt; \&gt;">
<polygon fill="none" stroke="black" points="586.5,-181 586.5,-233 771.5,-233 771.5,-181 586.5,-181"/>
<text text-anchor="start" x="594.5" y="-221" font-family="FreeSans" font-size="10.00">Urho3D::HashMap&lt; Urho3D</text>
<text text-anchor="start" x="594.5" y="-210" font-family="FreeSans" font-size="10.00">::StringHash, Urho3D::</text>
<text text-anchor="start" x="594.5" y="-199" font-family="FreeSans" font-size="10.00">SharedPtr&lt; Urho3D::EventReceiver</text>
<text text-anchor="middle" x="679" y="-188" font-family="FreeSans" font-size="10.00">Group &gt; &gt;</text>
</a>
</g>
</g>
<!-- Node7&#45;&gt;Node8 -->
<g id="edge9" class="edge"><title>Node7&#45;&gt;Node8</title>
<path fill="none" stroke="midnightblue" d="M470.631,-207C505.139,-207 548.4,-207 586.468,-207"/>
<polygon fill="midnightblue" stroke="midnightblue" points="470.218,-203.5 460.218,-207 470.218,-210.5 470.218,-203.5"/>
</g>
<!-- Node13 -->
<g id="node13" class="node"><title>Node13</title>
<g id="a_node13"><a xlink:href="class_urho3_d_1_1_hash_map.html" target="_top" xlink:title="Urho3D::HashMap\&lt; StringHash,\l Variant \&gt;">
<polygon fill="none" stroke="black" points="593,-383 593,-413 765,-413 765,-383 593,-383"/>
<text text-anchor="start" x="601" y="-401" font-family="FreeSans" font-size="10.00">Urho3D::HashMap&lt; StringHash,</text>
<text text-anchor="middle" x="679" y="-390" font-family="FreeSans" font-size="10.00"> Variant &gt;</text>
</a>
</g>
</g>
<!-- Node7&#45;&gt;Node13 -->
<g id="edge17" class="edge"><title>Node7&#45;&gt;Node13</title>
<path fill="none" stroke="midnightblue" d="M417.403,-225.648C438.061,-260.777 487.855,-336.501 552,-373 564.502,-380.114 578.703,-385.23 592.953,-388.904"/>
<polygon fill="midnightblue" stroke="midnightblue" points="420.381,-223.806 412.361,-216.883 414.313,-227.296 420.381,-223.806"/>
</g>
<!-- Node14 -->
<g id="node14" class="node"><title>Node14</title>
<g id="a_node14"><a xlink:href="class_urho3_d_1_1_hash_map.html" target="_top" xlink:title="Urho3D::HashMap\&lt; Urho3D\l::StringHash, Urho3D::\lSharedPtr\&lt; Urho3D::Object \&gt; \&gt;">
<polygon fill="none" stroke="black" points="593,-323.5 593,-364.5 765,-364.5 765,-323.5 593,-323.5"/>
<text text-anchor="start" x="601" y="-352.5" font-family="FreeSans" font-size="10.00">Urho3D::HashMap&lt; Urho3D</text>
<text text-anchor="start" x="601" y="-341.5" font-family="FreeSans" font-size="10.00">::StringHash, Urho3D::</text>
<text text-anchor="middle" x="679" y="-330.5" font-family="FreeSans" font-size="10.00">SharedPtr&lt; Urho3D::Object &gt; &gt;</text>
</a>
</g>
</g>
<!-- Node7&#45;&gt;Node14 -->
<g id="edge19" class="edge"><title>Node7&#45;&gt;Node14</title>
<path fill="none" stroke="midnightblue" d="M424.487,-223.378C450.355,-246.719 501.25,-289.34 552,-313 564.761,-318.949 578.801,-323.841 592.735,-327.838"/>
<polygon fill="midnightblue" stroke="midnightblue" points="426.739,-220.695 417,-216.525 422.013,-225.859 426.739,-220.695"/>
</g>
<!-- Node16 -->
<g id="node16" class="node"><title>Node16</title>
<g id="a_node16"><a xlink:href="class_urho3_d_1_1_hash_map.html" target="_top" xlink:title="Urho3D::HashMap\&lt; Urho3D\l::StringHash, Urho3D::\lSharedPtr\&lt; Urho3D::ObjectFactory \&gt; \&gt;">
<polygon fill="none" stroke="black" points="576,-60.5 576,-101.5 782,-101.5 782,-60.5 576,-60.5"/>
<text text-anchor="start" x="584" y="-89.5" font-family="FreeSans" font-size="10.00">Urho3D::HashMap&lt; Urho3D</text>
<text text-anchor="start" x="584" y="-78.5" font-family="FreeSans" font-size="10.00">::StringHash, Urho3D::</text>
<text text-anchor="middle" x="679" y="-67.5" font-family="FreeSans" font-size="10.00">SharedPtr&lt; Urho3D::ObjectFactory &gt; &gt;</text>
</a>
</g>
</g>
<!-- Node7&#45;&gt;Node16 -->
<g id="edge23" class="edge"><title>Node7&#45;&gt;Node16</title>
<path fill="none" stroke="midnightblue" d="M426.368,-190.914C453.022,-169.573 503.265,-132.14 552,-111 560.045,-107.51 568.564,-104.387 577.224,-101.601"/>
<polygon fill="midnightblue" stroke="midnightblue" points="424.136,-188.218 418.575,-197.236 428.546,-193.654 424.136,-188.218"/>
</g>
<!-- Node17 -->
<g id="node17" class="node"><title>Node17</title>
<g id="a_node17"><a xlink:href="class_urho3_d_1_1_hash_map.html" target="_top" xlink:title="Urho3D::HashMap\&lt; Urho3D\l::String, Urho3D::Vector\l\&lt; Urho3D::StringHash \&gt; \&gt;">
<polygon fill="none" stroke="black" points="603,-0.5 603,-41.5 755,-41.5 755,-0.5 603,-0.5"/>
<text text-anchor="start" x="611" y="-29.5" font-family="FreeSans" font-size="10.00">Urho3D::HashMap&lt; Urho3D</text>
<text text-anchor="start" x="611" y="-18.5" font-family="FreeSans" font-size="10.00">::String, Urho3D::Vector</text>
<text text-anchor="middle" x="679" y="-7.5" font-family="FreeSans" font-size="10.00">&lt; Urho3D::StringHash &gt; &gt;</text>
</a>
</g>
</g>
<!-- Node7&#45;&gt;Node17 -->
<g id="edge25" class="edge"><title>Node7&#45;&gt;Node17</title>
<path fill="none" stroke="midnightblue" d="M418.451,-188.884C440.232,-155.998 490.946,-86.5955 552,-51 567.444,-41.9961 585.447,-35.6913 602.93,-31.2775"/>
<polygon fill="midnightblue" stroke="midnightblue" points="415.375,-187.195 412.865,-197.488 421.246,-191.007 415.375,-187.195"/>
</g>
<!-- Node18 -->
<g id="node18" class="node"><title>Node18</title>
<g id="a_node18"><a xlink:href="class_urho3_d_1_1_hash_map.html" target="_top" xlink:title="Urho3D::HashMap\&lt; Urho3D\l::StringHash, Urho3D::\lVector\&lt; Urho3D::AttributeInfo \&gt; \&gt;">
<polygon fill="none" stroke="black" points="587.5,-120.5 587.5,-161.5 770.5,-161.5 770.5,-120.5 587.5,-120.5"/>
<text text-anchor="start" x="595.5" y="-149.5" font-family="FreeSans" font-size="10.00">Urho3D::HashMap&lt; Urho3D</text>
<text text-anchor="start" x="595.5" y="-138.5" font-family="FreeSans" font-size="10.00">::StringHash, Urho3D::</text>
<text text-anchor="middle" x="679" y="-127.5" font-family="FreeSans" font-size="10.00">Vector&lt; Urho3D::AttributeInfo &gt; &gt;</text>
</a>
</g>
</g>
<!-- Node7&#45;&gt;Node18 -->
<g id="edge27" class="edge"><title>Node7&#45;&gt;Node18</title>
<path fill="none" stroke="midnightblue" d="M455.14,-194.925C483.348,-187.88 519.677,-178.86 552,-171 564.673,-167.918 578.071,-164.693 591.215,-161.547"/>
<polygon fill="midnightblue" stroke="midnightblue" points="453.99,-191.605 445.137,-197.425 455.687,-198.396 453.99,-191.605"/>
</g>
<!-- Node8&#45;&gt;Node5 -->
<g id="edge8" class="edge"><title>Node8&#45;&gt;Node5</title>
<path fill="none" stroke="#9a32cd" stroke-dasharray="5,2" d="M781.397,-231.569C831.302,-246.228 891.089,-267.76 940,-297 971.947,-316.098 1004.46,-345.971 1020.23,-361.264"/>
<polygon fill="#9a32cd" stroke="#9a32cd" points="782.133,-228.139 771.554,-228.729 780.192,-234.864 782.133,-228.139"/>
<text text-anchor="middle" x="882" y="-300" font-family="FreeSans" font-size="10.00"> eventReceivers_</text>
</g>
<!-- Node9 -->
<g id="node9" class="node"><title>Node9</title>
<g id="a_node9"><a xlink:href="class_urho3_d_1_1_p_o_d_vector.html" target="_top" xlink:title="Urho3D::PODVector\&lt;\l Urho3D::Object * \&gt;">
<polygon fill="none" stroke="black" points="619.5,-605 619.5,-635 738.5,-635 738.5,-605 619.5,-605"/>
<text text-anchor="start" x="627.5" y="-623" font-family="FreeSans" font-size="10.00">Urho3D::PODVector&lt;</text>
<text text-anchor="middle" x="679" y="-612" font-family="FreeSans" font-size="10.00"> Urho3D::Object * &gt;</text>
</a>
</g>
</g>
<!-- Node9&#45;&gt;Node5 -->
<g id="edge10" class="edge"><title>Node9&#45;&gt;Node5</title>
<path fill="none" stroke="#9a32cd" stroke-dasharray="5,2" d="M748.869,-610.54C823.314,-600.063 932.434,-583.877 940,-578 1006.85,-526.075 1024.96,-414.407 1028.99,-380.779"/>
<polygon fill="#9a32cd" stroke="#9a32cd" points="748.026,-607.123 738.609,-611.978 748.998,-614.056 748.026,-607.123"/>
<text text-anchor="middle" x="882" y="-602" font-family="FreeSans" font-size="10.00"> eventSenders_</text>
</g>
<!-- Node10 -->
<g id="node10" class="node"><title>Node10</title>
<g id="a_node10"><a xlink:href="class_urho3_d_1_1_vector_base.html" target="_top" xlink:title="Vector base class. ">
<polygon fill="none" stroke="black" points="349,-768.5 349,-787.5 463,-787.5 463,-768.5 349,-768.5"/>
<text text-anchor="middle" x="406" y="-775.5" font-family="FreeSans" font-size="10.00">Urho3D::VectorBase</text>
</a>
</g>
</g>
<!-- Node10&#45;&gt;Node9 -->
<g id="edge11" class="edge"><title>Node10&#45;&gt;Node9</title>
<path fill="none" stroke="midnightblue" d="M436.122,-763.801C464.327,-748.803 506.721,-722.794 534,-690 546.467,-675.013 536.975,-662.422 552,-650 570.804,-634.454 596.302,-626.697 619.442,-622.919"/>
<polygon fill="midnightblue" stroke="midnightblue" points="434.408,-760.747 427.144,-768.46 437.632,-766.961 434.408,-760.747"/>
</g>
<!-- Node15 -->
<g id="node15" class="node"><title>Node15</title>
<g id="a_node15"><a xlink:href="class_urho3_d_1_1_p_o_d_vector.html" target="_top" xlink:title="Urho3D::PODVector\&lt;\l Urho3D::HashMap * \&gt;">
<polygon fill="none" stroke="black" points="615.5,-556 615.5,-586 742.5,-586 742.5,-556 615.5,-556"/>
<text text-anchor="start" x="623.5" y="-574" font-family="FreeSans" font-size="10.00">Urho3D::PODVector&lt;</text>
<text text-anchor="middle" x="679" y="-563" font-family="FreeSans" font-size="10.00"> Urho3D::HashMap * &gt;</text>
</a>
</g>
</g>
<!-- Node10&#45;&gt;Node15 -->
<g id="edge21" class="edge"><title>Node10&#45;&gt;Node15</title>
<path fill="none" stroke="midnightblue" d="M416.077,-759.11C435.342,-721.221 484.175,-636.07 552,-595 570.858,-583.581 593.974,-577.405 615.234,-574.124"/>
<polygon fill="midnightblue" stroke="midnightblue" points="412.744,-757.953 411.436,-768.467 419.015,-761.064 412.744,-757.953"/>
</g>
<!-- Node20 -->
<g id="node20" class="node"><title>Node20</title>
<g id="a_node20"><a xlink:href="class_urho3_d_1_1_p_o_d_vector.html" target="_top" xlink:title="Urho3D::PODVector\&lt;\l Urho3D::OcclusionBatch \&gt;">
<polygon fill="none" stroke="black" points="605.5,-1061 605.5,-1091 752.5,-1091 752.5,-1061 605.5,-1061"/>
<text text-anchor="start" x="613.5" y="-1079" font-family="FreeSans" font-size="10.00">Urho3D::PODVector&lt;</text>
<text text-anchor="middle" x="679" y="-1068" font-family="FreeSans" font-size="10.00"> Urho3D::OcclusionBatch &gt;</text>
</a>
</g>
</g>
<!-- Node10&#45;&gt;Node20 -->
<g id="edge31" class="edge"><title>Node10&#45;&gt;Node20</title>
<path fill="none" stroke="midnightblue" d="M411.293,-797.682C423.479,-848.563 463.306,-985.072 552,-1051 567.393,-1062.44 586.663,-1069.02 605.468,-1072.7"/>
<polygon fill="midnightblue" stroke="midnightblue" points="414.644,-796.636 408.993,-787.674 407.821,-798.204 414.644,-796.636"/>
</g>
<!-- Node22 -->
<g id="node22" class="node"><title>Node22</title>
<g id="a_node22"><a xlink:href="class_urho3_d_1_1_vector.html" target="_top" xlink:title="Urho3D::Vector\&lt; Urho3D\l::OcclusionBufferData \&gt;">
<polygon fill="none" stroke="black" points="610,-817 610,-847 748,-847 748,-817 610,-817"/>
<text text-anchor="start" x="618" y="-835" font-family="FreeSans" font-size="10.00">Urho3D::Vector&lt; Urho3D</text>
<text text-anchor="middle" x="679" y="-824" font-family="FreeSans" font-size="10.00">::OcclusionBufferData &gt;</text>
</a>
</g>
</g>
<!-- Node10&#45;&gt;Node22 -->
<g id="edge34" class="edge"><title>Node10&#45;&gt;Node22</title>
<path fill="none" stroke="midnightblue" d="M464.584,-789.538C491.188,-794.863 523.2,-801.263 552,-807 570.81,-810.747 591.201,-814.798 609.989,-818.525"/>
<polygon fill="midnightblue" stroke="midnightblue" points="465.163,-786.084 454.67,-787.553 463.789,-792.948 465.163,-786.084"/>
</g>
<!-- Node25 -->
<g id="node25" class="node"><title>Node25</title>
<g id="a_node25"><a xlink:href="class_urho3_d_1_1_vector.html" target="_top" xlink:title="Urho3D::Vector\&lt; Urho3D\l::SharedArrayPtr\&lt; Urho3D\l::DepthValue \&gt; \&gt;">
<polygon fill="none" stroke="black" points="607,-757.5 607,-798.5 751,-798.5 751,-757.5 607,-757.5"/>
<text text-anchor="start" x="615" y="-786.5" font-family="FreeSans" font-size="10.00">Urho3D::Vector&lt; Urho3D</text>
<text text-anchor="start" x="615" y="-775.5" font-family="FreeSans" font-size="10.00">::SharedArrayPtr&lt; Urho3D</text>
<text text-anchor="middle" x="679" y="-764.5" font-family="FreeSans" font-size="10.00">::DepthValue &gt; &gt;</text>
</a>
</g>
</g>
<!-- Node10&#45;&gt;Node25 -->
<g id="edge40" class="edge"><title>Node10&#45;&gt;Node25</title>
<path fill="none" stroke="midnightblue" d="M473.196,-778C513.716,-778 565.551,-778 606.934,-778"/>
<polygon fill="midnightblue" stroke="midnightblue" points="473.151,-774.5 463.151,-778 473.151,-781.5 473.151,-774.5"/>
</g>
<!-- Node11&#45;&gt;Node5 -->
<g id="edge12" class="edge"><title>Node11&#45;&gt;Node5</title>
<path fill="none" stroke="#9a32cd" stroke-dasharray="5,2" d="M751.335,-485.232C805.428,-486.398 880.381,-481.867 940,-455 977.608,-438.052 1009.66,-398.915 1023.16,-380.679"/>
<polygon fill="#9a32cd" stroke="#9a32cd" points="751.241,-481.728 741.145,-484.94 751.041,-488.725 751.241,-481.728"/>
<text text-anchor="middle" x="882" y="-486" font-family="FreeSans" font-size="10.00"> eventHandler_</text>
</g>
<!-- Node19 -->
<g id="node19" class="node"><title>Node19</title>
<g id="a_node19"><a xlink:href="class_urho3_d_1_1_linked_list.html" target="_top" xlink:title="Urho3D::LinkedList\l\&lt; Urho3D::EventHandler \&gt;">
<polygon fill="none" stroke="black" points="958,-639 958,-669 1104,-669 1104,-639 958,-639"/>
<text text-anchor="start" x="966" y="-657" font-family="FreeSans" font-size="10.00">Urho3D::LinkedList</text>
<text text-anchor="middle" x="1031" y="-646" font-family="FreeSans" font-size="10.00">&lt; Urho3D::EventHandler &gt;</text>
</a>
</g>
</g>
<!-- Node11&#45;&gt;Node19 -->
<g id="edge29" class="edge"><title>Node11&#45;&gt;Node19</title>
<path fill="none" stroke="#9a32cd" stroke-dasharray="5,2" d="M751.313,-478.854C771.439,-482.092 791.72,-489.322 806,-504 840.851,-539.821 789.129,-579.198 824,-615 833.508,-624.762 902.381,-636.448 957.914,-644.467"/>
<polygon fill="#9a32cd" stroke="#9a32cd" points="751.521,-475.352 741.154,-477.538 750.622,-482.294 751.521,-475.352"/>
<text text-anchor="middle" x="882" y="-645" font-family="FreeSans" font-size="10.00"> head_</text>
</g>
<!-- Node12 -->
<g id="node12" class="node"><title>Node12</title>
<g id="a_node12"><a xlink:href="struct_urho3_d_1_1_linked_list_node.html" target="_top" xlink:title="Singly&#45;linked list node base class. ">
<polygon fill="none" stroke="black" points="340,-470.5 340,-489.5 472,-489.5 472,-470.5 340,-470.5"/>
<text text-anchor="middle" x="406" y="-477.5" font-family="FreeSans" font-size="10.00">Urho3D::LinkedListNode</text>
</a>
</g>
</g>
<!-- Node12&#45;&gt;Node11 -->
<g id="edge13" class="edge"><title>Node12&#45;&gt;Node11</title>
<path fill="none" stroke="midnightblue" d="M482.501,-480C524.774,-480 576.808,-480 616.564,-480"/>
<polygon fill="midnightblue" stroke="midnightblue" points="482.256,-476.5 472.256,-480 482.256,-483.5 482.256,-476.5"/>
</g>
<!-- Node12&#45;&gt;Node12 -->
<g id="edge14" class="edge"><title>Node12&#45;&gt;Node12</title>
<path fill="none" stroke="#9a32cd" stroke-dasharray="5,2" d="M390.531,-499.766C391.746,-504.497 396.902,-508 406,-508 420.93,-508 425.245,-498.565 418.947,-489.757"/>
<polygon fill="#9a32cd" stroke="#9a32cd" points="394.003,-500.309 393.053,-489.757 387.216,-498.599 394.003,-500.309"/>
<text text-anchor="middle" x="406" y="-511" font-family="FreeSans" font-size="10.00"> next_</text>
</g>
<!-- Node13&#45;&gt;Node5 -->
<g id="edge16" class="edge"><title>Node13&#45;&gt;Node5</title>
<path fill="none" stroke="#9a32cd" stroke-dasharray="5,2" d="M775.332,-390.646C842.371,-385.474 929.239,-378.773 982.233,-374.685"/>
<polygon fill="#9a32cd" stroke="#9a32cd" points="774.873,-387.171 765.172,-391.43 775.412,-394.15 774.873,-387.171"/>
<text text-anchor="middle" x="882" y="-390" font-family="FreeSans" font-size="10.00"> globalVars_</text>
</g>
<!-- Node14&#45;&gt;Node5 -->
<g id="edge18" class="edge"><title>Node14&#45;&gt;Node5</title>
<path fill="none" stroke="#9a32cd" stroke-dasharray="5,2" d="M775.187,-351.303C824.393,-355.083 885.42,-359.778 940,-364 953.75,-365.064 968.682,-366.223 982.358,-367.287"/>
<polygon fill="#9a32cd" stroke="#9a32cd" points="775.43,-347.811 765.191,-350.535 774.894,-354.79 775.43,-347.811"/>
<text text-anchor="middle" x="882" y="-367" font-family="FreeSans" font-size="10.00"> subsystems_</text>
</g>
<!-- Node15&#45;&gt;Node5 -->
<g id="edge20" class="edge"><title>Node15&#45;&gt;Node5</title>
<path fill="none" stroke="#9a32cd" stroke-dasharray="5,2" d="M752.943,-569.416C819.045,-566.675 910.487,-559.223 940,-539 997.866,-499.35 1021.61,-410.157 1028.07,-380.669"/>
<polygon fill="#9a32cd" stroke="#9a32cd" points="752.422,-565.933 742.565,-569.816 752.692,-572.928 752.422,-565.933"/>
<text text-anchor="middle" x="882" y="-568" font-family="FreeSans" font-size="10.00"> eventDataMaps_</text>
</g>
<!-- Node16&#45;&gt;Node5 -->
<g id="edge22" class="edge"><title>Node16&#45;&gt;Node5</title>
<path fill="none" stroke="#9a32cd" stroke-dasharray="5,2" d="M792.158,-88.2322C842.654,-96.7942 899.815,-114.581 940,-151 1006.35,-211.136 1024.88,-327.397 1028.99,-361.425"/>
<polygon fill="#9a32cd" stroke="#9a32cd" points="792.58,-84.7555 782.154,-86.6401 791.479,-91.6685 792.58,-84.7555"/>
<text text-anchor="middle" x="882" y="-154" font-family="FreeSans" font-size="10.00"> factories_</text>
</g>
<!-- Node17&#45;&gt;Node5 -->
<g id="edge24" class="edge"><title>Node17&#45;&gt;Node5</title>
<path fill="none" stroke="#9a32cd" stroke-dasharray="5,2" d="M765.339,-20.1716C821.608,-24.1486 893.278,-38.5029 940,-82 1025.39,-161.493 1030.36,-320.447 1030.18,-361.268"/>
<polygon fill="#9a32cd" stroke="#9a32cd" points="765.215,-16.6577 755.021,-19.5451 764.79,-23.6448 765.215,-16.6577"/>
<text text-anchor="middle" x="882" y="-85" font-family="FreeSans" font-size="10.00"> objectCategories_</text>
</g>
<!-- Node18&#45;&gt;Node5 -->
<g id="edge26" class="edge"><title>Node18&#45;&gt;Node5</title>
<path fill="none" stroke="#9a32cd" stroke-dasharray="5,2" d="M780.78,-153.555C833.05,-164.405 895.161,-184.572 940,-222 988.257,-262.28 1017.51,-335.468 1026.78,-361.498"/>
<polygon fill="#9a32cd" stroke="#9a32cd" points="781.294,-150.089 770.803,-151.571 779.929,-156.954 781.294,-150.089"/>
<text text-anchor="middle" x="882" y="-236" font-family="FreeSans" font-size="10.00"> attributes_</text>
<text text-anchor="middle" x="882" y="-225" font-family="FreeSans" font-size="10.00">networkAttributes_</text>
</g>
<!-- Node19&#45;&gt;Node2 -->
<g id="edge28" class="edge"><title>Node19&#45;&gt;Node2</title>
<path fill="none" stroke="#9a32cd" stroke-dasharray="5,2" d="M947.676,-666.594C850.423,-678.256 685.039,-687.892 552,-644 495.051,-625.211 439.455,-577.46 417.187,-556.788"/>
<polygon fill="#9a32cd" stroke="#9a32cd" points="948.245,-670.051 957.741,-665.351 947.387,-663.103 948.245,-670.051"/>
<text text-anchor="middle" x="679" y="-680" font-family="FreeSans" font-size="10.00"> eventHandlers_</text>
</g>
<!-- Node20&#45;&gt;Node1 -->
<g id="edge30" class="edge"><title>Node20&#45;&gt;Node1</title>
<path fill="none" stroke="#9a32cd" stroke-dasharray="5,2" d="M762.637,-1075.51C817.386,-1071.42 888.361,-1058.54 940,-1022 990.559,-986.228 1018.37,-912.203 1027.03,-885.701"/>
<polygon fill="#9a32cd" stroke="#9a32cd" points="762.358,-1072.02 752.611,-1076.17 762.821,-1079 762.358,-1072.02"/>
<text text-anchor="middle" x="882" y="-1069" font-family="FreeSans" font-size="10.00"> batches_</text>
</g>
<!-- Node21 -->
<g id="node21" class="node"><title>Node21</title>
<g id="a_node21"><a xlink:href="class_urho3_d_1_1_timer.html" target="_top" xlink:title="Low&#45;resolution operating system timer. ">
<polygon fill="none" stroke="black" points="636,-1022.5 636,-1041.5 722,-1041.5 722,-1022.5 636,-1022.5"/>
<text text-anchor="middle" x="679" y="-1029.5" font-family="FreeSans" font-size="10.00">Urho3D::Timer</text>
</a>
</g>
</g>
<!-- Node21&#45;&gt;Node1 -->
<g id="edge32" class="edge"><title>Node21&#45;&gt;Node1</title>
<path fill="none" stroke="#9a32cd" stroke-dasharray="5,2" d="M732.43,-1026.95C755.289,-1024.01 782.239,-1019.57 806,-1013 868.052,-995.855 885.6,-992.425 940,-958 973.759,-936.637 1006.73,-902.123 1021.67,-885.52"/>
<polygon fill="#9a32cd" stroke="#9a32cd" points="731.744,-1023.5 722.241,-1028.19 732.591,-1030.45 731.744,-1023.5"/>
<text text-anchor="middle" x="882" y="-1010" font-family="FreeSans" font-size="10.00"> useTimer_</text>
</g>
<!-- Node22&#45;&gt;Node1 -->
<g id="edge33" class="edge"><title>Node22&#45;&gt;Node1</title>
<path fill="none" stroke="#9a32cd" stroke-dasharray="5,2" d="M758.106,-839.599C809.807,-844.903 879.058,-852.529 940,-861 951.61,-862.614 964.029,-864.548 975.818,-866.483"/>
<polygon fill="#9a32cd" stroke="#9a32cd" points="758.311,-836.102 748.008,-838.57 757.601,-843.066 758.311,-836.102"/>
<text text-anchor="middle" x="882" y="-864" font-family="FreeSans" font-size="10.00"> buffers_</text>
</g>
<!-- Node23 -->
<g id="node23" class="node"><title>Node23</title>
<g id="a_node23"><a xlink:href="class_urho3_d_1_1_matrix4.html" target="_top" xlink:title="4x4 matrix for arbitrary linear transforms including projection. ">
<polygon fill="none" stroke="black" points="631.5,-944.5 631.5,-963.5 726.5,-963.5 726.5,-944.5 631.5,-944.5"/>
<text text-anchor="middle" x="679" y="-951.5" font-family="FreeSans" font-size="10.00">Urho3D::Matrix4</text>
</a>
</g>
</g>
<!-- Node23&#45;&gt;Node1 -->
<g id="edge35" class="edge"><title>Node23&#45;&gt;Node1</title>
<path fill="none" stroke="#9a32cd" stroke-dasharray="5,2" d="M736.665,-946.782C758.436,-943.662 783.463,-939.653 806,-935 875.12,-920.729 954.744,-898.296 997.986,-885.6"/>
<polygon fill="#9a32cd" stroke="#9a32cd" points="736.005,-943.34 726.589,-948.196 736.978,-950.272 736.005,-943.34"/>
<text text-anchor="middle" x="882" y="-946" font-family="FreeSans" font-size="10.00"> projection_</text>
<text text-anchor="middle" x="882" y="-935" font-family="FreeSans" font-size="10.00">viewProj_</text>
</g>
<!-- Node23&#45;&gt;Node23 -->
<g id="edge36" class="edge"><title>Node23&#45;&gt;Node23</title>
<path fill="none" stroke="#9a32cd" stroke-dasharray="5,2" d="M647.937,-972.275C648.823,-977.741 659.177,-982 679,-982 708.504,-982 717.032,-972.565 704.585,-963.757"/>
<polygon fill="#9a32cd" stroke="#9a32cd" points="650.949,-974.061 653.415,-963.757 645.062,-970.275 650.949,-974.061"/>
<text text-anchor="middle" x="679" y="-996" font-family="FreeSans" font-size="10.00"> IDENTITY</text>
<text text-anchor="middle" x="679" y="-985" font-family="FreeSans" font-size="10.00">ZERO</text>
</g>
<!-- Node24 -->
<g id="node24" class="node"><title>Node24</title>
<g id="a_node24"><a xlink:href="class_urho3_d_1_1_matrix3x4.html" target="_top" xlink:title="3x4 matrix for scene node transform calculations. ">
<polygon fill="none" stroke="black" points="626,-866.5 626,-885.5 732,-885.5 732,-866.5 626,-866.5"/>
<text text-anchor="middle" x="679" y="-873.5" font-family="FreeSans" font-size="10.00">Urho3D::Matrix3x4</text>
</a>
</g>
</g>
<!-- Node24&#45;&gt;Node1 -->
<g id="edge37" class="edge"><title>Node24&#45;&gt;Node1</title>
<path fill="none" stroke="#9a32cd" stroke-dasharray="5,2" d="M742.114,-876C804.477,-876 900.205,-876 963.933,-876"/>
<polygon fill="#9a32cd" stroke="#9a32cd" points="742.021,-872.5 732.021,-876 742.021,-879.5 742.021,-872.5"/>
<text text-anchor="middle" x="882" y="-879" font-family="FreeSans" font-size="10.00"> view_</text>
</g>
<!-- Node24&#45;&gt;Node24 -->
<g id="edge38" class="edge"><title>Node24&#45;&gt;Node24</title>
<path fill="none" stroke="#9a32cd" stroke-dasharray="5,2" d="M647.937,-894.275C648.823,-899.741 659.177,-904 679,-904 708.504,-904 717.032,-894.565 704.585,-885.757"/>
<polygon fill="#9a32cd" stroke="#9a32cd" points="650.949,-896.061 653.415,-885.757 645.062,-892.275 650.949,-896.061"/>
<text text-anchor="middle" x="679" y="-918" font-family="FreeSans" font-size="10.00"> IDENTITY</text>
<text text-anchor="middle" x="679" y="-907" font-family="FreeSans" font-size="10.00">ZERO</text>
</g>
<!-- Node25&#45;&gt;Node1 -->
<g id="edge39" class="edge"><title>Node25&#45;&gt;Node1</title>
<path fill="none" stroke="#9a32cd" stroke-dasharray="5,2" d="M761.243,-789.507C813.23,-798.174 881.626,-812.022 940,-832 966.822,-841.18 995.975,-856.508 1013.62,-866.433"/>
<polygon fill="#9a32cd" stroke="#9a32cd" points="761.506,-786.004 751.072,-787.842 760.376,-792.912 761.506,-786.004"/>
<text text-anchor="middle" x="882" y="-835" font-family="FreeSans" font-size="10.00"> mipBuffers_</text>
</g>
</g>
</svg>
