<?xml version="1.0" encoding="UTF-8" standalone="no"?>
<!DOCTYPE svg PUBLIC "-//W3C//DTD SVG 1.1//EN"
 "http://www.w3.org/Graphics/SVG/1.1/DTD/svg11.dtd">
<!-- Generated by graphviz version 2.36.0 (20140111.2315)
 -->
<!-- Title: Urho3D::Polyhedron Pages: 1 -->
<svg width="546pt" height="87pt"
 viewBox="0.00 0.00 546.00 87.00" xmlns="http://www.w3.org/2000/svg" xmlns:xlink="http://www.w3.org/1999/xlink">
<g id="graph0" class="graph" transform="scale(1 1) rotate(0) translate(4 83)">
<title>Urho3D::Polyhedron</title>
<!-- Node1 -->
<g id="node1" class="node"><title>Node1</title>
<polygon fill="#bfbfbf" stroke="black" points="432.5,-29.5 432.5,-48.5 537.5,-48.5 537.5,-29.5 432.5,-29.5"/>
<text text-anchor="middle" x="485" y="-36.5" font-family="Helvetica,sans-Serif" font-size="10.00">Urho3D::Polyhedron</text>
</g>
<!-- Node2 -->
<g id="node2" class="node"><title>Node2</title>
<g id="a_node2"><a xlink:href="class_urho3_d_1_1_vector.html" target="_top" xlink:title="Urho3D::Vector\&lt; Urho3D\l::PODVector\&lt; Urho3D::Vector3 \&gt; \&gt;">
<polygon fill="none" stroke="black" points="146.5,-49 146.5,-79 319.5,-79 319.5,-49 146.5,-49"/>
<text text-anchor="start" x="154.5" y="-67" font-family="Helvetica,sans-Serif" font-size="10.00">Urho3D::Vector&lt; Urho3D</text>
<text text-anchor="middle" x="233" y="-56" font-family="Helvetica,sans-Serif" font-size="10.00">::PODVector&lt; Urho3D::Vector3 &gt; &gt;</text>
</a>
</g>
</g>
<!-- Node2&#45;&gt;Node1 -->
<g id="edge1" class="edge"><title>Node2&#45;&gt;Node1</title>
<path fill="none" stroke="#9a32cd" stroke-dasharray="5,2" d="M329.898,-54.4102C364.733,-50.9267 402.762,-47.1238 432.326,-44.1674"/>
<polygon fill="#9a32cd" stroke="#9a32cd" points="329.288,-50.9536 319.686,-55.4314 329.985,-57.9189 329.288,-50.9536"/>
<text text-anchor="middle" x="376" y="-55" font-family="Helvetica,sans-Serif" font-size="10.00"> faces_</text>
</g>
<!-- Node3 -->
<g id="node3" class="node"><title>Node3</title>
<g id="a_node3"><a xlink:href="class_urho3_d_1_1_vector_base.html" target="_top" xlink:title="Vector base class. ">
<polygon fill="none" stroke="black" points="0.5,-32.5 0.5,-51.5 107.5,-51.5 107.5,-32.5 0.5,-32.5"/>
<text text-anchor="middle" x="54" y="-39.5" font-family="Helvetica,sans-Serif" font-size="10.00">Urho3D::VectorBase</text>
</a>
</g>
</g>
<!-- Node3&#45;&gt;Node2 -->
<g id="edge2" class="edge"><title>Node3&#45;&gt;Node2</title>
<path fill="none" stroke="midnightblue" d="M117.582,-49.7785C126.93,-50.9404 136.701,-52.1549 146.424,-53.3635"/>
<polygon fill="midnightblue" stroke="midnightblue" points="117.982,-46.3014 107.627,-48.5412 117.119,-53.248 117.982,-46.3014"/>
</g>
<!-- Node4 -->
<g id="node4" class="node"><title>Node4</title>
<g id="a_node4"><a xlink:href="class_urho3_d_1_1_p_o_d_vector.html" target="_top" xlink:title="Urho3D::PODVector\&lt;\l Urho3D::Vector3 \&gt;">
<polygon fill="none" stroke="black" points="176.5,-0 176.5,-30 289.5,-30 289.5,-0 176.5,-0"/>
<text text-anchor="start" x="184.5" y="-18" font-family="Helvetica,sans-Serif" font-size="10.00">Urho3D::PODVector&lt;</text>
<text text-anchor="middle" x="233" y="-7" font-family="Helvetica,sans-Serif" font-size="10.00"> Urho3D::Vector3 &gt;</text>
</a>
</g>
</g>
<!-- Node3&#45;&gt;Node4 -->
<g id="edge4" class="edge"><title>Node3&#45;&gt;Node4</title>
<path fill="none" stroke="midnightblue" d="M117.765,-32.4258C136.928,-29.5025 157.854,-26.3104 176.5,-23.4661"/>
<polygon fill="midnightblue" stroke="midnightblue" points="116.984,-29.0042 107.627,-33.9722 118.04,-35.9241 116.984,-29.0042"/>
</g>
<!-- Node4&#45;&gt;Node1 -->
<g id="edge3" class="edge"><title>Node4&#45;&gt;Node1</title>
<path fill="none" stroke="#9a32cd" stroke-dasharray="5,2" d="M300.19,-12.4404C334.357,-12.1354 376.609,-13.339 414,-19 428.371,-21.1758 443.957,-25.4327 456.765,-29.462"/>
<polygon fill="#9a32cd" stroke="#9a32cd" points="299.812,-8.94506 289.861,-12.5802 299.907,-15.9444 299.812,-8.94506"/>
<text text-anchor="middle" x="376" y="-33" font-family="Helvetica,sans-Serif" font-size="10.00"> clippedVertices_</text>
<text text-anchor="middle" x="376" y="-22" font-family="Helvetica,sans-Serif" font-size="10.00">outFace_</text>
</g>
</g>
</svg>
