<?xml version="1.0" encoding="UTF-8" standalone="no"?>
<!DOCTYPE svg PUBLIC "-//W3C//DTD SVG 1.1//EN"
 "http://www.w3.org/Graphics/SVG/1.1/DTD/svg11.dtd">
<!-- Generated by graphviz version 2.26.3 (20100126.1600)
 -->
<!-- Title: Urho3D::StaticModelGroup Pages: 1 -->
<!--zoomable 672 -->
<svg id="main" version="1.1" xmlns="http://www.w3.org/2000/svg" xmlns:xlink="http://www.w3.org/1999/xlink" xml:space="preserve" onload="init(evt)">
        <defs>
                <circle id="rim" cx="0" cy="0" r="7"/>
                <circle id="rim2" cx="0" cy="0" r="3.5"/>
                <g id="zoomPlus">
                        <use xlink:href="#rim" fill="#404040">
                                <set attributeName="fill" to="#808080" begin="zoomplus.mouseover" end="zoomplus.mouseout"/>
                        </use>
                        <path d="M-4,0h8M0,-4v8" fill="none" stroke="white" stroke-width="1.5" pointer-events="none"/>
                </g>
                <g id="zoomMin">
                        <use xlink:href="#rim" fill="#404040">
                                <set attributeName="fill" to="#808080" begin="zoomminus.mouseover" end="zoomminus.mouseout"/>
                        </use>
                        <path d="M-4,0h8" fill="none" stroke="white" stroke-width="1.5" pointer-events="none"/>
                </g>
                <g id="dirArrow">
                        <path fill="none" stroke="white" stroke-width="1.5" d="M0,-3.0v7 M-2.5,-0.5L0,-3.0L2.5,-0.5"/>
                </g>
               <g id="resetDef">
                       <use xlink:href="#rim2" fill="#404040">
                               <set attributeName="fill" to="#808080" begin="reset.mouseover" end="reset.mouseout"/>
                       </use>
               </g>
        </defs>

<script type="text/javascript">
var viewWidth = 1862;
var viewHeight = 672;
var sectionId = 'dynsection-1';
</script>
<script xlink:href="svgpan.js"/>
<svg id="graph" class="graph">
<g id="viewport">
<title>Urho3D::StaticModelGroup</title>
<!-- Node1 -->
<g id="node1" class="node"><title>Node1</title>
<polygon fill="#bfbfbf" stroke="black" points="1708.5,-69.5 1708.5,-90.5 1853.5,-90.5 1853.5,-69.5 1708.5,-69.5"/>
<text text-anchor="middle" x="1781" y="-77.5" font-family="FreeSans" font-size="10.00">Urho3D::StaticModelGroup</text>
</g>
<!-- Node2 -->
<g id="node2" class="node"><title>Node2</title>
<a xlink:href="class_urho3_d_1_1_static_model.html" target="_top" xlink:title="Static model component.">
<polygon fill="none" stroke="black" points="1442,-200.5 1442,-221.5 1558,-221.5 1558,-200.5 1442,-200.5"/>
<text text-anchor="middle" x="1500" y="-208.5" font-family="FreeSans" font-size="10.00">Urho3D::StaticModel</text>
</a>
</g>
<!-- Node2&#45;&gt;Node1 -->
<g id="edge2" class="edge"><title>Node2&#45;&gt;Node1</title>
<path fill="none" stroke="midnightblue" d="M1532.35,-195.919C1589.94,-169.071 1708.85,-113.638 1758.47,-90.5023"/>
<polygon fill="midnightblue" stroke="midnightblue" points="1530.58,-192.882 1523,-200.28 1533.54,-199.227 1530.58,-192.882"/>
</g>
<!-- Node3 -->
<g id="node4" class="node"><title>Node3</title>
<a xlink:href="class_urho3_d_1_1_drawable.html" target="_top" xlink:title="Base class for visible components.">
<polygon fill="none" stroke="black" points="1132,-467.5 1132,-488.5 1236,-488.5 1236,-467.5 1132,-467.5"/>
<text text-anchor="middle" x="1184" y="-475.5" font-family="FreeSans" font-size="10.00">Urho3D::Drawable</text>
</a>
</g>
<!-- Node3&#45;&gt;Node2 -->
<g id="edge4" class="edge"><title>Node3&#45;&gt;Node2</title>
<path fill="none" stroke="midnightblue" d="M1199.49,-459.315C1214.11,-442.28 1237.15,-416.954 1260,-398 1326.8,-342.594 1357.37,-347.613 1424,-292 1450.94,-269.511 1477.99,-238.059 1491.37,-221.754"/>
<polygon fill="midnightblue" stroke="midnightblue" points="1196.44,-457.496 1192.65,-467.39 1201.78,-462.018 1196.44,-457.496"/>
</g>
<!-- Node10 -->
<g id="node21" class="node"><title>Node10</title>
<a xlink:href="class_urho3_d_1_1_zone.html" target="_top" xlink:title="Component that describes global rendering properties.">
<polygon fill="none" stroke="red" points="1457.5,-398.5 1457.5,-419.5 1542.5,-419.5 1542.5,-398.5 1457.5,-398.5"/>
<text text-anchor="middle" x="1500" y="-406.5" font-family="FreeSans" font-size="10.00">Urho3D::Zone</text>
</a>
</g>
<!-- Node3&#45;&gt;Node10 -->
<g id="edge26" class="edge"><title>Node3&#45;&gt;Node10</title>
<path fill="none" stroke="midnightblue" d="M1202.29,-460.092C1216.69,-447.242 1237.94,-430.862 1260,-423 1325.85,-399.531 1408.28,-400.78 1457.39,-404.448"/>
<polygon fill="midnightblue" stroke="midnightblue" points="1199.62,-457.798 1194.65,-467.159 1204.37,-462.936 1199.62,-457.798"/>
</g>
<!-- Node16 -->
<g id="node38" class="node"><title>Node16</title>
<a xlink:href="class_urho3_d_1_1_light.html" target="_top" xlink:title="Light component.">
<polygon fill="none" stroke="red" points="1458.5,-481.5 1458.5,-502.5 1541.5,-502.5 1541.5,-481.5 1458.5,-481.5"/>
<text text-anchor="middle" x="1500" y="-489.5" font-family="FreeSans" font-size="10.00">Urho3D::Light</text>
</a>
</g>
<!-- Node3&#45;&gt;Node16 -->
<g id="edge48" class="edge"><title>Node3&#45;&gt;Node16</title>
<path fill="none" stroke="midnightblue" d="M1244.27,-490.134C1249.57,-490.889 1254.87,-491.532 1260,-492 1329.29,-498.329 1410.31,-496.401 1458.27,-494.295"/>
<polygon fill="midnightblue" stroke="midnightblue" points="1244.52,-486.632 1234.1,-488.563 1243.45,-493.55 1244.52,-486.632"/>
</g>
<!-- Node4 -->
<g id="node6" class="node"><title>Node4</title>
<a xlink:href="class_urho3_d_1_1_component.html" target="_top" xlink:title="Base class for components. Components can be created to scene nodes.">
<polygon fill="none" stroke="black" points="806,-533.5 806,-554.5 922,-554.5 922,-533.5 806,-533.5"/>
<text text-anchor="middle" x="864" y="-541.5" font-family="FreeSans" font-size="10.00">Urho3D::Component</text>
</a>
</g>
<!-- Node4&#45;&gt;Node3 -->
<g id="edge6" class="edge"><title>Node4&#45;&gt;Node3</title>
<path fill="none" stroke="midnightblue" d="M932.453,-544.094C982.162,-542.466 1050.5,-536.686 1108,-519 1130.5,-512.08 1153.98,-498.227 1168.79,-488.548"/>
<polygon fill="midnightblue" stroke="midnightblue" points="932.352,-540.595 922.454,-544.374 932.548,-547.592 932.352,-540.595"/>
</g>
<!-- Node5 -->
<g id="node8" class="node"><title>Node5</title>
<a xlink:href="class_urho3_d_1_1_animatable.html" target="_top" xlink:title="Base class for animatable object, an animatable object can be set animation on it&#39;s attributes...">
<polygon fill="none" stroke="red" points="166,-510.5 166,-531.5 280,-531.5 280,-510.5 166,-510.5"/>
<text text-anchor="middle" x="223" y="-518.5" font-family="FreeSans" font-size="10.00">Urho3D::Animatable</text>
</a>
</g>
<!-- Node5&#45;&gt;Node4 -->
<g id="edge8" class="edge"><title>Node5&#45;&gt;Node4</title>
<path fill="none" stroke="midnightblue" d="M290.476,-523.421C416.84,-527.955 687.105,-537.653 805.923,-541.916"/>
<polygon fill="midnightblue" stroke="midnightblue" points="290.285,-519.912 280.166,-523.051 290.034,-526.908 290.285,-519.912"/>
</g>
<!-- Node6 -->
<g id="node10" class="node"><title>Node6</title>
<a xlink:href="class_urho3_d_1_1_node.html" target="_top" xlink:title="Scene node that may contain components and child nodes.">
<polygon fill="none" stroke="red" points="503.5,-465.5 503.5,-486.5 588.5,-486.5 588.5,-465.5 503.5,-465.5"/>
<text text-anchor="middle" x="546" y="-473.5" font-family="FreeSans" font-size="10.00">Urho3D::Node</text>
</a>
</g>
<!-- Node5&#45;&gt;Node6 -->
<g id="edge12" class="edge"><title>Node5&#45;&gt;Node6</title>
<path fill="none" stroke="midnightblue" d="M290.402,-512.516C335.591,-506.723 396.412,-498.727 450,-491 467.531,-488.472 486.831,-485.495 503.5,-482.861"/>
<polygon fill="midnightblue" stroke="midnightblue" points="289.903,-509.051 280.427,-513.791 290.791,-515.994 289.903,-509.051"/>
</g>
<!-- Node6&#45;&gt;Node4 -->
<g id="edge10" class="edge"><title>Node6&#45;&gt;Node4</title>
<path fill="none" stroke="#9a32cd" stroke-dasharray="5,2" d="M598.881,-487.503C612.874,-490.413 627.985,-493.438 642,-496 706.618,-507.813 724.147,-503.575 788,-519 803.932,-522.849 821.324,-528.461 835.445,-533.393"/>
<polygon fill="#9a32cd" stroke="#9a32cd" points="599.427,-484.041 588.921,-485.412 597.989,-490.892 599.427,-484.041"/>
<text text-anchor="middle" x="715" y="-523" font-family="FreeSans" font-size="10.00"> node_</text>
</g>
<!-- Node6&#45;&gt;Node6 -->
<g id="edge14" class="edge"><title>Node6&#45;&gt;Node6</title>
<path fill="none" stroke="#9a32cd" stroke-dasharray="5,2" d="M515.485,-495.679C517.12,-500.975 527.292,-505 546,-505 574.508,-505 583.194,-495.653 572.058,-486.708"/>
<polygon fill="#9a32cd" stroke="#9a32cd" points="518.627,-497.221 519.942,-486.708 512.358,-494.106 518.627,-497.221"/>
<text text-anchor="middle" x="546" y="-509" font-family="FreeSans" font-size="10.00"> parent_</text>
</g>
<!-- Node7 -->
<g id="node14" class="node"><title>Node7</title>
<a xlink:href="class_urho3_d_1_1_string_hash.html" target="_top" xlink:title="32&#45;bit hash value for a string.">
<polygon fill="none" stroke="black" points="166.5,-289.5 166.5,-310.5 279.5,-310.5 279.5,-289.5 166.5,-289.5"/>
<text text-anchor="middle" x="223" y="-297.5" font-family="FreeSans" font-size="10.00">Urho3D::StringHash</text>
</a>
</g>
<!-- Node7&#45;&gt;Node6 -->
<g id="edge16" class="edge"><title>Node7&#45;&gt;Node6</title>
<path fill="none" stroke="#9a32cd" stroke-dasharray="5,2" d="M290.008,-312.193C297.425,-313.499 304.87,-314.791 312,-316 373.234,-326.384 398.007,-304.027 450,-338 462.385,-346.092 459.719,-353.741 468,-366 493.029,-403.054 524.129,-446.049 538.309,-465.493"/>
<polygon fill="#9a32cd" stroke="#9a32cd" points="290.402,-308.708 279.945,-310.41 289.181,-315.601 290.402,-308.708"/>
<text text-anchor="middle" x="381" y="-342" font-family="FreeSans" font-size="10.00"> nameHash_</text>
</g>
<!-- Node7&#45;&gt;Node7 -->
<g id="edge18" class="edge"><title>Node7&#45;&gt;Node7</title>
<path fill="none" stroke="#9a32cd" stroke-dasharray="5,2" d="M206.518,-320.793C207.973,-325.529 213.467,-329 223,-329 238.645,-329 243.411,-319.653 237.3,-310.708"/>
<polygon fill="#9a32cd" stroke="#9a32cd" points="210.006,-321.222 208.7,-310.708 203.164,-319.742 210.006,-321.222"/>
<text text-anchor="middle" x="223" y="-333" font-family="FreeSans" font-size="10.00"> ZERO</text>
</g>
<!-- Node18 -->
<g id="node46" class="node"><title>Node18</title>
<a xlink:href="struct_urho3_d_1_1_resource_ref_list.html" target="_top" xlink:title="List of typed resource references.">
<polygon fill="none" stroke="black" points="479,-289.5 479,-310.5 613,-310.5 613,-289.5 479,-289.5"/>
<text text-anchor="middle" x="546" y="-297.5" font-family="FreeSans" font-size="10.00">Urho3D::ResourceRefList</text>
</a>
</g>
<!-- Node7&#45;&gt;Node18 -->
<g id="edge60" class="edge"><title>Node7&#45;&gt;Node18</title>
<path fill="none" stroke="#9a32cd" stroke-dasharray="5,2" d="M289.685,-300C345.014,-300 423.331,-300 478.802,-300"/>
<polygon fill="#9a32cd" stroke="#9a32cd" points="289.632,-296.5 279.632,-300 289.632,-303.5 289.632,-296.5"/>
<text text-anchor="middle" x="381" y="-304" font-family="FreeSans" font-size="10.00"> type_</text>
</g>
<!-- Node8 -->
<g id="node17" class="node"><title>Node8</title>
<a xlink:href="class_urho3_d_1_1_vector.html" target="_top" xlink:title="Urho3D::Vector\&lt; String \&gt;">
<polygon fill="none" stroke="black" points="152.5,-398.5 152.5,-419.5 293.5,-419.5 293.5,-398.5 152.5,-398.5"/>
<text text-anchor="middle" x="223" y="-406.5" font-family="FreeSans" font-size="10.00">Urho3D::Vector&lt; String &gt;</text>
</a>
</g>
<!-- Node8&#45;&gt;Node6 -->
<g id="edge20" class="edge"><title>Node8&#45;&gt;Node6</title>
<path fill="none" stroke="#9a32cd" stroke-dasharray="5,2" d="M249.24,-424.685C266.474,-434.216 289.851,-445.723 312,-452 377.027,-470.427 455.774,-475.059 503.325,-476.031"/>
<polygon fill="#9a32cd" stroke="#9a32cd" points="250.768,-421.528 240.343,-419.638 247.314,-427.616 250.768,-421.528"/>
<text text-anchor="middle" x="381" y="-477" font-family="FreeSans" font-size="10.00"> tags_</text>
</g>
<!-- Node8&#45;&gt;Node18 -->
<g id="edge62" class="edge"><title>Node8&#45;&gt;Node18</title>
<path fill="none" stroke="#9a32cd" stroke-dasharray="5,2" d="M281.471,-396.253C346.398,-381.924 443.059,-360.002 450,-355 462.307,-346.131 456.096,-335.403 468,-326 476.513,-319.276 486.846,-314.253 497.168,-310.513"/>
<polygon fill="#9a32cd" stroke="#9a32cd" points="280.355,-392.914 271.342,-398.483 281.861,-399.751 280.355,-392.914"/>
<text text-anchor="middle" x="381" y="-393" font-family="FreeSans" font-size="10.00"> names_</text>
</g>
<!-- Node9 -->
<g id="node19" class="node"><title>Node9</title>
<a xlink:href="class_urho3_d_1_1_vector_base.html" target="_top" xlink:title="Vector base class.">
<polygon fill="none" stroke="black" points="0,-188.5 0,-209.5 114,-209.5 114,-188.5 0,-188.5"/>
<text text-anchor="middle" x="57" y="-196.5" font-family="FreeSans" font-size="10.00">Urho3D::VectorBase</text>
</a>
</g>
<!-- Node9&#45;&gt;Node8 -->
<g id="edge22" class="edge"><title>Node9&#45;&gt;Node8</title>
<path fill="none" stroke="midnightblue" d="M59.3919,-219.589C64.943,-257.791 82.2654,-339.771 132,-384 138.979,-390.206 147.361,-394.888 156.176,-398.416"/>
<polygon fill="midnightblue" stroke="midnightblue" points="62.8561,-219.088 58.0722,-209.635 55.9168,-220.008 62.8561,-219.088"/>
</g>
<!-- Node13 -->
<g id="node29" class="node"><title>Node13</title>
<a xlink:href="class_urho3_d_1_1_p_o_d_vector.html" target="_top" xlink:title="Urho3D::PODVector\&lt;\l Urho3D::Light * \&gt;">
<polygon fill="none" stroke="black" points="321.5,-413 321.5,-447 440.5,-447 440.5,-413 321.5,-413"/>
<text text-anchor="start" x="329.5" y="-434" font-family="FreeSans" font-size="10.00">Urho3D::PODVector&lt;</text>
<text text-anchor="middle" x="381" y="-421" font-family="FreeSans" font-size="10.00"> Urho3D::Light * &gt;</text>
</a>
</g>
<!-- Node9&#45;&gt;Node13 -->
<g id="edge36" class="edge"><title>Node9&#45;&gt;Node13</title>
<path fill="none" stroke="midnightblue" d="M64.0098,-219.221C76.4377,-252.019 105.494,-316.602 152,-351 204.525,-389.85 236.955,-357.155 294,-389 303.608,-394.364 302.595,-400.288 312,-406 316.119,-408.502 320.536,-410.79 325.071,-412.872"/>
<polygon fill="midnightblue" stroke="midnightblue" points="67.2757,-217.96 60.5581,-209.767 60.7004,-220.361 67.2757,-217.96"/>
</g>
<!-- Node14 -->
<g id="node32" class="node"><title>Node14</title>
<a xlink:href="class_urho3_d_1_1_p_o_d_vector.html" target="_top" xlink:title="Urho3D::PODVector\&lt;\l Urho3D::Camera * \&gt;">
<polygon fill="none" stroke="black" points="655,-611 655,-645 775,-645 775,-611 655,-611"/>
<text text-anchor="start" x="663" y="-632" font-family="FreeSans" font-size="10.00">Urho3D::PODVector&lt;</text>
<text text-anchor="middle" x="715" y="-619" font-family="FreeSans" font-size="10.00"> Urho3D::Camera * &gt;</text>
</a>
</g>
<!-- Node9&#45;&gt;Node14 -->
<g id="edge40" class="edge"><title>Node9&#45;&gt;Node14</title>
<path fill="none" stroke="midnightblue" d="M59.0416,-219.992C66.5606,-292.532 95.2637,-530.714 152,-577 298.2,-696.272 542.327,-665.165 654.848,-642.276"/>
<polygon fill="midnightblue" stroke="midnightblue" points="62.5022,-219.425 58.0157,-209.827 55.5376,-220.128 62.5022,-219.425"/>
</g>
<!-- Node15 -->
<g id="node35" class="node"><title>Node15</title>
<a xlink:href="class_urho3_d_1_1_vector.html" target="_top" xlink:title="Urho3D::Vector\&lt; Urho3D\l::SourceBatch \&gt;">
<polygon fill="none" stroke="black" points="312,-564 312,-598 450,-598 450,-564 312,-564"/>
<text text-anchor="start" x="320" y="-585" font-family="FreeSans" font-size="10.00">Urho3D::Vector&lt; Urho3D</text>
<text text-anchor="middle" x="381" y="-572" font-family="FreeSans" font-size="10.00">::SourceBatch &gt;</text>
</a>
</g>
<!-- Node9&#45;&gt;Node15 -->
<g id="edge44" class="edge"><title>Node9&#45;&gt;Node15</title>
<path fill="none" stroke="midnightblue" d="M59.872,-219.913C69.5496,-287.261 103.122,-496.692 152,-541 194.834,-579.829 261.435,-587.728 311.792,-587.153"/>
<polygon fill="midnightblue" stroke="midnightblue" points="63.2955,-219.124 58.434,-209.71 56.364,-220.101 63.2955,-219.124"/>
</g>
<!-- Node21 -->
<g id="node54" class="node"><title>Node21</title>
<a xlink:href="class_urho3_d_1_1_vector.html" target="_top" xlink:title="Urho3D::Vector\&lt; Urho3D\l::Vector\&lt; Urho3D::SharedPtr\l\&lt; Urho3D::Geometry \&gt; \&gt; \&gt;">
<polygon fill="none" stroke="black" points="468.5,-123.5 468.5,-170.5 623.5,-170.5 623.5,-123.5 468.5,-123.5"/>
<text text-anchor="start" x="476.5" y="-157.5" font-family="FreeSans" font-size="10.00">Urho3D::Vector&lt; Urho3D</text>
<text text-anchor="start" x="476.5" y="-144.5" font-family="FreeSans" font-size="10.00">::Vector&lt; Urho3D::SharedPtr</text>
<text text-anchor="middle" x="546" y="-131.5" font-family="FreeSans" font-size="10.00">&lt; Urho3D::Geometry &gt; &gt; &gt;</text>
</a>
</g>
<!-- Node9&#45;&gt;Node21 -->
<g id="edge70" class="edge"><title>Node9&#45;&gt;Node21</title>
<path fill="none" stroke="midnightblue" d="M120.14,-186.78C124.147,-186.139 128.126,-185.538 132,-185 248.708,-168.787 384.923,-157.799 468.306,-151.965"/>
<polygon fill="midnightblue" stroke="midnightblue" points="119.451,-183.346 110.163,-188.444 120.603,-190.251 119.451,-183.346"/>
</g>
<!-- Node22 -->
<g id="node59" class="node"><title>Node22</title>
<a xlink:href="class_urho3_d_1_1_p_o_d_vector.html" target="_top" xlink:title="Urho3D::PODVector\&lt;\l Urho3D::StaticModelGeometry\lData \&gt;">
<polygon fill="none" stroke="black" points="940.5,-167.5 940.5,-214.5 1107.5,-214.5 1107.5,-167.5 940.5,-167.5"/>
<text text-anchor="start" x="948.5" y="-201.5" font-family="FreeSans" font-size="10.00">Urho3D::PODVector&lt;</text>
<text text-anchor="start" x="948.5" y="-188.5" font-family="FreeSans" font-size="10.00"> Urho3D::StaticModelGeometry</text>
<text text-anchor="middle" x="1024" y="-175.5" font-family="FreeSans" font-size="10.00">Data &gt;</text>
</a>
</g>
<!-- Node9&#45;&gt;Node22 -->
<g id="edge78" class="edge"><title>Node9&#45;&gt;Node22</title>
<path fill="none" stroke="midnightblue" d="M124.427,-198.442C296.561,-197.018 751.925,-193.251 940.448,-191.691"/>
<polygon fill="midnightblue" stroke="midnightblue" points="124.207,-194.944 114.237,-198.526 124.265,-201.944 124.207,-194.944"/>
</g>
<!-- Node23 -->
<g id="node62" class="node"><title>Node23</title>
<a xlink:href="class_urho3_d_1_1_vector.html" target="_top" xlink:title="Urho3D::Vector\&lt; Urho3D\l::WeakPtr\&lt; Urho3D::Node \&gt; \&gt;">
<polygon fill="none" stroke="black" points="1260.5,-0 1260.5,-34 1423.5,-34 1423.5,-0 1260.5,-0"/>
<text text-anchor="start" x="1268.5" y="-21" font-family="FreeSans" font-size="10.00">Urho3D::Vector&lt; Urho3D</text>
<text text-anchor="middle" x="1342" y="-8" font-family="FreeSans" font-size="10.00">::WeakPtr&lt; Urho3D::Node &gt; &gt;</text>
</a>
</g>
<!-- Node9&#45;&gt;Node23 -->
<g id="edge82" class="edge"><title>Node9&#45;&gt;Node23</title>
<path fill="none" stroke="midnightblue" d="M64.232,-179.033C82.7077,-131.966 136.386,-18 223,-18 223,-18 223,-18 1024,-18 1104.33,-18 1196.07,-17.677 1260.3,-17.3981"/>
<polygon fill="midnightblue" stroke="midnightblue" points="60.9205,-177.895 60.6451,-188.486 67.4652,-180.378 60.9205,-177.895"/>
</g>
<!-- Node24 -->
<g id="node65" class="node"><title>Node24</title>
<a xlink:href="class_urho3_d_1_1_vector.html" target="_top" xlink:title="Urho3D::Vector\&lt; Variant \&gt;">
<polygon fill="none" stroke="black" points="642,-88.5 642,-109.5 788,-109.5 788,-88.5 642,-88.5"/>
<text text-anchor="middle" x="715" y="-96.5" font-family="FreeSans" font-size="10.00">Urho3D::Vector&lt; Variant &gt;</text>
</a>
</g>
<!-- Node9&#45;&gt;Node24 -->
<g id="edge86" class="edge"><title>Node9&#45;&gt;Node24</title>
<path fill="none" stroke="midnightblue" d="M90.2146,-184.462C108.205,-177.089 130.992,-168.544 152,-163 323.684,-117.69 533.154,-104.457 641.775,-100.593"/>
<polygon fill="midnightblue" stroke="midnightblue" points="88.6349,-181.329 80.7555,-188.412 91.332,-187.788 88.6349,-181.329"/>
</g>
<!-- Node25 -->
<g id="node68" class="node"><title>Node25</title>
<a xlink:href="class_urho3_d_1_1_p_o_d_vector.html" target="_top" xlink:title="Urho3D::PODVector\&lt;\l Urho3D::Matrix3x4 \&gt;">
<polygon fill="none" stroke="black" points="964,-40 964,-74 1084,-74 1084,-40 964,-40"/>
<text text-anchor="start" x="972" y="-61" font-family="FreeSans" font-size="10.00">Urho3D::PODVector&lt;</text>
<text text-anchor="middle" x="1024" y="-48" font-family="FreeSans" font-size="10.00"> Urho3D::Matrix3x4 &gt;</text>
</a>
</g>
<!-- Node9&#45;&gt;Node25 -->
<g id="edge90" class="edge"><title>Node9&#45;&gt;Node25</title>
<path fill="none" stroke="midnightblue" d="M67.7056,-179.47C90.6381,-140.543 148.53,-57 223,-57 223,-57 223,-57 715,-57 801.504,-57 901.63,-57 963.896,-57"/>
<polygon fill="midnightblue" stroke="midnightblue" points="64.5663,-177.909 62.6397,-188.327 70.6427,-181.384 64.5663,-177.909"/>
</g>
<!-- Node10&#45;&gt;Node3 -->
<g id="edge24" class="edge"><title>Node10&#45;&gt;Node3</title>
<path fill="none" stroke="#9a32cd" stroke-dasharray="5,2" d="M1447.3,-418.407C1398.52,-427.383 1324.07,-441.763 1260,-457 1246.95,-460.104 1232.75,-463.909 1220.2,-467.423"/>
<polygon fill="#9a32cd" stroke="#9a32cd" points="1448.11,-421.818 1457.31,-416.575 1446.85,-414.933 1448.11,-421.818"/>
<text text-anchor="middle" x="1342" y="-461" font-family="FreeSans" font-size="10.00"> zone_</text>
</g>
<!-- Node11 -->
<g id="node24" class="node"><title>Node11</title>
<a xlink:href="class_urho3_d_1_1_weak_ptr.html" target="_top" xlink:title="Urho3D::WeakPtr\&lt; Urho3D\l::Zone \&gt;">
<polygon fill="none" stroke="red" points="1708,-392 1708,-426 1854,-426 1854,-392 1708,-392"/>
<text text-anchor="start" x="1716" y="-413" font-family="FreeSans" font-size="10.00">Urho3D::WeakPtr&lt; Urho3D</text>
<text text-anchor="middle" x="1781" y="-400" font-family="FreeSans" font-size="10.00">::Zone &gt;</text>
</a>
</g>
<!-- Node10&#45;&gt;Node11 -->
<g id="edge30" class="edge"><title>Node10&#45;&gt;Node11</title>
<path fill="none" stroke="#9a32cd" stroke-dasharray="5,2" d="M1552.66,-416.051C1560.47,-416.86 1568.44,-417.554 1576,-418 1626.58,-420.984 1639.39,-420.496 1690,-418 1695.71,-417.718 1701.61,-417.338 1707.54,-416.892"/>
<polygon fill="#9a32cd" stroke="#9a32cd" points="1552.85,-412.551 1542.53,-414.932 1552.08,-419.508 1552.85,-412.551"/>
<text text-anchor="middle" x="1633" y="-424" font-family="FreeSans" font-size="10.00"> ptr_</text>
</g>
<!-- Node11&#45;&gt;Node10 -->
<g id="edge28" class="edge"><title>Node11&#45;&gt;Node10</title>
<path fill="none" stroke="#9a32cd" stroke-dasharray="5,2" d="M1728.83,-388.66C1716.3,-384.657 1702.83,-381.06 1690,-379 1639.97,-370.967 1625.77,-369.532 1576,-379 1556.49,-382.711 1535.59,-391.335 1520.65,-398.389"/>
<polygon fill="#9a32cd" stroke="#9a32cd" points="1728.06,-392.09 1738.65,-391.936 1730.27,-385.45 1728.06,-392.09"/>
<text text-anchor="start" x="1576.5" y="-409" font-family="FreeSans" font-size="10.00"> lastAmbientEndZone</text>
<text text-anchor="middle" x="1633" y="-396" font-family="FreeSans" font-size="10.00">_</text>
<text text-anchor="middle" x="1633" y="-383" font-family="FreeSans" font-size="10.00">lastAmbientStartZone_</text>
</g>
<!-- Node12 -->
<g id="node27" class="node"><title>Node12</title>
<a xlink:href="class_urho3_d_1_1_bounding_box.html" target="_top" xlink:title="Three&#45;dimensional axis&#45;aligned bounding box.">
<polygon fill="none" stroke="red" points="485,-335.5 485,-356.5 607,-356.5 607,-335.5 485,-335.5"/>
<text text-anchor="middle" x="546" y="-343.5" font-family="FreeSans" font-size="10.00">Urho3D::BoundingBox</text>
</a>
</g>
<!-- Node12&#45;&gt;Node3 -->
<g id="edge50" class="edge"><title>Node12&#45;&gt;Node3</title>
<path fill="none" stroke="#9a32cd" stroke-dasharray="5,2" d="M577.615,-360.743C596.099,-368.964 620.045,-378.937 642,-386 816.219,-442.046 1033.53,-465.748 1131.64,-474.115"/>
<polygon fill="#9a32cd" stroke="#9a32cd" points="579.041,-357.547 568.486,-356.629 576.165,-363.929 579.041,-357.547"/>
<text text-anchor="middle" x="864" y="-465" font-family="FreeSans" font-size="10.00"> worldBoundingBox_</text>
<text text-anchor="middle" x="864" y="-452" font-family="FreeSans" font-size="10.00">boundingBox_</text>
</g>
<!-- Node12&#45;&gt;Node10 -->
<g id="edge32" class="edge"><title>Node12&#45;&gt;Node10</title>
<path fill="none" stroke="#9a32cd" stroke-dasharray="5,2" d="M617.361,-343.91C669.596,-342.488 742.193,-340.736 806,-340 857.552,-339.405 870.492,-337.789 922,-340 1146.39,-349.633 1201.54,-367.118 1424,-398 1434.83,-399.503 1446.52,-401.172 1457.4,-402.746"/>
<polygon fill="#9a32cd" stroke="#9a32cd" points="617.094,-340.416 607.194,-344.19 617.286,-347.413 617.094,-340.416"/>
<text text-anchor="middle" x="1024" y="-356" font-family="FreeSans" font-size="10.00"> lastWorldBoundingBox_</text>
</g>
<!-- Node17 -->
<g id="node42" class="node"><title>Node17</title>
<a xlink:href="class_urho3_d_1_1_octant.html" target="_top" xlink:title="Octree octant">
<polygon fill="none" stroke="red" points="818,-349.5 818,-370.5 910,-370.5 910,-349.5 818,-349.5"/>
<text text-anchor="middle" x="864" y="-357.5" font-family="FreeSans" font-size="10.00">Urho3D::Octant</text>
</a>
</g>
<!-- Node12&#45;&gt;Node17 -->
<g id="edge54" class="edge"><title>Node12&#45;&gt;Node17</title>
<path fill="none" stroke="#9a32cd" stroke-dasharray="5,2" d="M617.306,-349.139C678.606,-351.838 765.212,-355.651 817.824,-357.967"/>
<polygon fill="#9a32cd" stroke="#9a32cd" points="617.458,-345.643 607.314,-348.699 617.15,-352.636 617.458,-345.643"/>
<text text-anchor="middle" x="715" y="-373" font-family="FreeSans" font-size="10.00"> cullingBox_</text>
<text text-anchor="middle" x="715" y="-360" font-family="FreeSans" font-size="10.00">worldBoundingBox_</text>
</g>
<!-- Node20 -->
<g id="node52" class="node"><title>Node20</title>
<a xlink:href="class_urho3_d_1_1_model.html" target="_top" xlink:title="3D model resource.">
<polygon fill="none" stroke="red" points="820,-227.5 820,-248.5 908,-248.5 908,-227.5 820,-227.5"/>
<text text-anchor="middle" x="864" y="-235.5" font-family="FreeSans" font-size="10.00">Urho3D::Model</text>
</a>
</g>
<!-- Node12&#45;&gt;Node20 -->
<g id="edge72" class="edge"><title>Node12&#45;&gt;Node20</title>
<path fill="none" stroke="#9a32cd" stroke-dasharray="5,2" d="M603.194,-331.769C610.578,-328.575 617.737,-324.697 624,-320 635.244,-311.567 630.449,-302.007 642,-294 695.737,-256.747 772.079,-244.247 819.787,-240.071"/>
<polygon fill="#9a32cd" stroke="#9a32cd" points="601.806,-328.554 593.771,-335.459 604.358,-335.072 601.806,-328.554"/>
<text text-anchor="middle" x="715" y="-298" font-family="FreeSans" font-size="10.00"> boundingBox_</text>
</g>
<!-- Node13&#45;&gt;Node3 -->
<g id="edge34" class="edge"><title>Node13&#45;&gt;Node3</title>
<path fill="none" stroke="#9a32cd" stroke-dasharray="5,2" d="M450.6,-425.878C533.436,-423.276 674.777,-426.189 788,-466 797.07,-469.189 796.798,-475.214 806,-478 918.114,-511.945 1057.66,-498.553 1131.87,-487.333"/>
<polygon fill="#9a32cd" stroke="#9a32cd" points="450.418,-422.382 440.546,-426.23 450.663,-429.378 450.418,-422.382"/>
<text text-anchor="middle" x="715" y="-483" font-family="FreeSans" font-size="10.00"> vertexLights_</text>
<text text-anchor="middle" x="715" y="-470" font-family="FreeSans" font-size="10.00">lights_</text>
</g>
<!-- Node14&#45;&gt;Node3 -->
<g id="edge38" class="edge"><title>Node14&#45;&gt;Node3</title>
<path fill="none" stroke="#9a32cd" stroke-dasharray="5,2" d="M785.335,-640.518C868.645,-651.536 1008.63,-657.729 1108,-598 1150.48,-572.465 1173.11,-513.051 1180.87,-488.701"/>
<polygon fill="#9a32cd" stroke="#9a32cd" points="785.599,-637.021 775.214,-639.119 784.64,-643.955 785.599,-637.021"/>
<text text-anchor="middle" x="864" y="-651" font-family="FreeSans" font-size="10.00"> viewCameras_</text>
</g>
<!-- Node15&#45;&gt;Node3 -->
<g id="edge42" class="edge"><title>Node15&#45;&gt;Node3</title>
<path fill="none" stroke="#9a32cd" stroke-dasharray="5,2" d="M460.261,-584.071C623.997,-589.289 993.808,-594.926 1108,-545 1137.17,-532.246 1163.08,-504.034 1175.76,-488.598"/>
<polygon fill="#9a32cd" stroke="#9a32cd" points="460.361,-580.573 450.252,-583.745 460.132,-587.569 460.361,-580.573"/>
<text text-anchor="middle" x="715" y="-591" font-family="FreeSans" font-size="10.00"> batches_</text>
</g>
<!-- Node16&#45;&gt;Node3 -->
<g id="edge46" class="edge"><title>Node16&#45;&gt;Node3</title>
<path fill="none" stroke="#9a32cd" stroke-dasharray="5,2" d="M1448.25,-481.973C1440.16,-480.746 1431.88,-479.685 1424,-479 1359.45,-473.384 1284.77,-474.221 1236.08,-475.745"/>
<polygon fill="#9a32cd" stroke="#9a32cd" points="1447.92,-485.464 1458.35,-483.6 1449.03,-478.554 1447.92,-485.464"/>
<text text-anchor="middle" x="1342" y="-483" font-family="FreeSans" font-size="10.00"> firstLight_</text>
</g>
<!-- Node17&#45;&gt;Node3 -->
<g id="edge52" class="edge"><title>Node17&#45;&gt;Node3</title>
<path fill="none" stroke="#9a32cd" stroke-dasharray="5,2" d="M920.341,-368.805C971.113,-378.111 1046.94,-395.467 1108,-424 1132.64,-435.512 1157.67,-455.17 1171.97,-467.325"/>
<polygon fill="#9a32cd" stroke="#9a32cd" points="920.677,-365.309 910.217,-366.995 919.445,-372.2 920.677,-365.309"/>
<text text-anchor="middle" x="1024" y="-428" font-family="FreeSans" font-size="10.00"> octant_</text>
</g>
<!-- Node17&#45;&gt;Node17 -->
<g id="edge56" class="edge"><title>Node17&#45;&gt;Node17</title>
<path fill="none" stroke="#9a32cd" stroke-dasharray="5,2" d="M836.58,-380.055C838.379,-385.164 847.519,-389 864,-389 889.727,-389 897.565,-379.653 887.516,-370.708"/>
<polygon fill="#9a32cd" stroke="#9a32cd" points="839.86,-381.284 840.484,-370.708 833.401,-378.587 839.86,-381.284"/>
<text text-anchor="middle" x="864" y="-406" font-family="FreeSans" font-size="10.00"> parent_</text>
<text text-anchor="middle" x="864" y="-393" font-family="FreeSans" font-size="10.00">children_</text>
</g>
<!-- Node18&#45;&gt;Node2 -->
<g id="edge58" class="edge"><title>Node18&#45;&gt;Node2</title>
<path fill="none" stroke="#9a32cd" stroke-dasharray="5,2" d="M623.365,-296.771C751.891,-291.234 1017.5,-279.054 1242,-264 1322.98,-258.57 1345.84,-270.879 1424,-249 1445.73,-242.916 1468.64,-230.531 1483.55,-221.55"/>
<polygon fill="#9a32cd" stroke="#9a32cd" points="623.069,-293.281 613.229,-297.206 623.37,-300.274 623.069,-293.281"/>
<text text-anchor="middle" x="1024" y="-285" font-family="FreeSans" font-size="10.00"> materialsAttr_</text>
</g>
<!-- Node19 -->
<g id="node50" class="node"><title>Node19</title>
<a xlink:href="class_urho3_d_1_1_shared_ptr.html" target="_top" xlink:title="Urho3D::SharedPtr\&lt;\l Urho3D::Model \&gt;">
<polygon fill="none" stroke="black" points="1126,-221 1126,-255 1242,-255 1242,-221 1126,-221"/>
<text text-anchor="start" x="1134" y="-242" font-family="FreeSans" font-size="10.00">Urho3D::SharedPtr&lt;</text>
<text text-anchor="middle" x="1184" y="-229" font-family="FreeSans" font-size="10.00"> Urho3D::Model &gt;</text>
</a>
</g>
<!-- Node19&#45;&gt;Node2 -->
<g id="edge64" class="edge"><title>Node19&#45;&gt;Node2</title>
<path fill="none" stroke="#9a32cd" stroke-dasharray="5,2" d="M1252.6,-232.139C1309.09,-227.312 1388.3,-220.544 1441.75,-215.977"/>
<polygon fill="#9a32cd" stroke="#9a32cd" points="1251.99,-228.678 1242.33,-233.016 1252.59,-235.652 1251.99,-228.678"/>
<text text-anchor="middle" x="1342" y="-236" font-family="FreeSans" font-size="10.00"> model_</text>
</g>
<!-- Node20&#45;&gt;Node19 -->
<g id="edge66" class="edge"><title>Node20&#45;&gt;Node19</title>
<path fill="none" stroke="#9a32cd" stroke-dasharray="5,2" d="M918.175,-238C975.862,-238 1066.82,-238 1125.95,-238"/>
<polygon fill="#9a32cd" stroke="#9a32cd" points="918.159,-234.5 908.159,-238 918.159,-241.5 918.159,-234.5"/>
<text text-anchor="middle" x="1024" y="-242" font-family="FreeSans" font-size="10.00"> ptr_</text>
</g>
<!-- Node21&#45;&gt;Node2 -->
<g id="edge74" class="edge"><title>Node21&#45;&gt;Node2</title>
<path fill="none" stroke="#9a32cd" stroke-dasharray="5,2" d="M633.762,-146.427C713.607,-145.936 834.715,-145.267 940,-145 1014.67,-144.81 1033.57,-139.033 1108,-145 1249.81,-156.37 1283.97,-170.89 1424,-196 1431.68,-197.377 1439.78,-198.9 1447.71,-200.432"/>
<polygon fill="#9a32cd" stroke="#9a32cd" points="633.726,-142.927 623.748,-146.489 633.769,-149.927 633.726,-142.927"/>
<text text-anchor="middle" x="1024" y="-149" font-family="FreeSans" font-size="10.00"> geometries_</text>
</g>
<!-- Node21&#45;&gt;Node20 -->
<g id="edge68" class="edge"><title>Node21&#45;&gt;Node20</title>
<path fill="none" stroke="#9a32cd" stroke-dasharray="5,2" d="M633.441,-172.022C697.138,-190.25 780.195,-214.018 827.25,-227.483"/>
<polygon fill="#9a32cd" stroke="#9a32cd" points="634.369,-168.647 623.792,-169.261 632.443,-175.377 634.369,-168.647"/>
<text text-anchor="middle" x="715" y="-221" font-family="FreeSans" font-size="10.00"> geometries_</text>
</g>
<!-- Node22&#45;&gt;Node2 -->
<g id="edge76" class="edge"><title>Node22&#45;&gt;Node2</title>
<path fill="none" stroke="#9a32cd" stroke-dasharray="5,2" d="M1117.76,-194.239C1156.26,-195.622 1201.27,-197.306 1242,-199 1310.66,-201.856 1389.57,-205.593 1441.86,-208.133"/>
<polygon fill="#9a32cd" stroke="#9a32cd" points="1117.72,-190.736 1107.6,-193.876 1117.47,-197.731 1117.72,-190.736"/>
<text text-anchor="middle" x="1184" y="-203" font-family="FreeSans" font-size="10.00"> geometryData_</text>
</g>
<!-- Node23&#45;&gt;Node1 -->
<g id="edge80" class="edge"><title>Node23&#45;&gt;Node1</title>
<path fill="none" stroke="#9a32cd" stroke-dasharray="5,2" d="M1433.97,-15.5497C1504.9,-16.4175 1604.93,-21.9856 1690,-43 1714.84,-49.1349 1741.81,-60.7834 1759.89,-69.378"/>
<polygon fill="#9a32cd" stroke="#9a32cd" points="1433.76,-12.0477 1423.72,-15.4545 1433.69,-19.0474 1433.76,-12.0477"/>
<text text-anchor="middle" x="1500" y="-26" font-family="FreeSans" font-size="10.00"> instanceNodes_</text>
</g>
<!-- Node24&#45;&gt;Node1 -->
<g id="edge84" class="edge"><title>Node24&#45;&gt;Node1</title>
<path fill="none" stroke="#9a32cd" stroke-dasharray="5,2" d="M798.192,-100.66C860.388,-101.76 947.514,-103 1024,-103 1024,-103 1024,-103 1500,-103 1570.97,-103 1651.7,-95.6212 1708.36,-89.2225"/>
<polygon fill="#9a32cd" stroke="#9a32cd" points="798.104,-97.1581 788.043,-100.478 797.979,-104.157 798.104,-97.1581"/>
<text text-anchor="middle" x="1184" y="-107" font-family="FreeSans" font-size="10.00"> nodeIDsAttr_</text>
</g>
<!-- Node25&#45;&gt;Node1 -->
<g id="edge88" class="edge"><title>Node25&#45;&gt;Node1</title>
<path fill="none" stroke="#9a32cd" stroke-dasharray="5,2" d="M1094.03,-59.1278C1237.37,-63.4828 1562.9,-73.3736 1708.39,-77.794"/>
<polygon fill="#9a32cd" stroke="#9a32cd" points="1094.13,-55.6294 1084.03,-58.824 1093.92,-62.6262 1094.13,-55.6294"/>
<text text-anchor="middle" x="1342" y="-74" font-family="FreeSans" font-size="10.00"> worldTransforms_</text>
</g>
</g>
</svg>
        <g id="navigator" transform="translate(0 0)" fill="#404254">
                <rect fill="#f2f5e9" fill-opacity="0.5" stroke="#606060" stroke-width=".5" x="0" y="0" width="60" height="60"/>
                <use id="zoomplus" xlink:href="#zoomPlus" x="17" y="9" onmousedown="handleZoom(evt,'in')"/>
                <use id="zoomminus" xlink:href="#zoomMin" x="42" y="9" onmousedown="handleZoom(evt,'out')"/>
                <use id="reset" xlink:href="#resetDef" x="30" y="36" onmousedown="handleReset()"/>
                <g id="arrowUp" xlink:href="#dirArrow" transform="translate(30 24)" onmousedown="handlePan(0,-1)">
                  <use xlink:href="#rim" fill="#404040">
                        <set attributeName="fill" to="#808080" begin="arrowUp.mouseover" end="arrowUp.mouseout"/>
                  </use>
                  <path fill="none" stroke="white" stroke-width="1.5" d="M0,-3.0v7 M-2.5,-0.5L0,-3.0L2.5,-0.5"/>
                </g>
                <g id="arrowRight" xlink:href="#dirArrow" transform="rotate(90) translate(36 -43)" onmousedown="handlePan(1,0)">
                  <use xlink:href="#rim" fill="#404040">
                        <set attributeName="fill" to="#808080" begin="arrowRight.mouseover" end="arrowRight.mouseout"/>
                  </use>
                  <path fill="none" stroke="white" stroke-width="1.5" d="M0,-3.0v7 M-2.5,-0.5L0,-3.0L2.5,-0.5"/>
                </g>
                <g id="arrowDown" xlink:href="#dirArrow" transform="rotate(180) translate(-30 -48)" onmousedown="handlePan(0,1)">
                  <use xlink:href="#rim" fill="#404040">
                        <set attributeName="fill" to="#808080" begin="arrowDown.mouseover" end="arrowDown.mouseout"/>
                  </use>
                  <path fill="none" stroke="white" stroke-width="1.5" d="M0,-3.0v7 M-2.5,-0.5L0,-3.0L2.5,-0.5"/>
                </g>
                <g id="arrowLeft" xlink:href="#dirArrow" transform="rotate(270) translate(-36 17)" onmousedown="handlePan(-1,0)">
                  <use xlink:href="#rim" fill="#404040">
                        <set attributeName="fill" to="#808080" begin="arrowLeft.mouseover" end="arrowLeft.mouseout"/>
                  </use>
                  <path fill="none" stroke="white" stroke-width="1.5" d="M0,-3.0v7 M-2.5,-0.5L0,-3.0L2.5,-0.5"/>
                </g>
        </g>
        <svg viewBox="0 0 15 15" width="100%" height="30px" preserveAspectRatio="xMaxYMin meet">
         <g id="arrow_out" transform="scale(0.3 0.3)">
          <a xlink:href="class_urho3_d_1_1_static_model_group__coll__graph_org.svg" target="_base">
           <rect id="button" ry="5" rx="5" y="6" x="6" height="38" width="38"
                fill="#f2f5e9" fill-opacity="0.5" stroke="#606060" stroke-width="1.0"/>
           <path id="arrow"
             d="M 11.500037,31.436501 C 11.940474,20.09759 22.043105,11.32322 32.158766,21.979434 L 37.068811,17.246167 C 37.068811,17.246167 37.088388,32 37.088388,32 L 22.160133,31.978069 C 22.160133,31.978069 26.997745,27.140456 26.997745,27.140456 C 18.528582,18.264221 13.291696,25.230495 11.500037,31.436501 z"
             style="fill:#404040;"/>
          </a>
         </g>
        </svg>
</svg>
