<?xml version="1.0" encoding="UTF-8" standalone="no"?>
<!DOCTYPE svg PUBLIC "-//W3C//DTD SVG 1.1//EN"
 "http://www.w3.org/Graphics/SVG/1.1/DTD/svg11.dtd">
<!-- Generated by graphviz version 2.43.0 (0)
 -->
<!-- Title: Urho3D::Drawable::SetShadowDistance Pages: 1 -->
<svg width="371pt" height="225pt"
 viewBox="0.00 0.00 371.00 224.50" xmlns="http://www.w3.org/2000/svg" xmlns:xlink="http://www.w3.org/1999/xlink">
<g id="graph0" class="graph" transform="scale(1 1) rotate(0) translate(4 220.5)">
<title>Urho3D::Drawable::SetShadowDistance</title>
<!-- Node1 -->
<g id="node1" class="node">
<title>Node1</title>
<g id="a_node1"><a xlink:title=" ">
<polygon fill="#bfbfbf" stroke="black" points="197,-88 197,-118 363,-118 363,-88 197,-88"/>
<text text-anchor="start" x="205" y="-106" font-family="Helvetica,sans-Serif" font-size="10.00">Urho3D::Drawable::SetShadow</text>
<text text-anchor="middle" x="280" y="-95" font-family="Helvetica,sans-Serif" font-size="10.00">Distance</text>
</a>
</g>
</g>
<!-- Node2 -->
<g id="node2" class="node">
<title>Node2</title>
<g id="a_node2"><a xlink:href="class_urho3_d_1_1_animated_model.html#a76a01a86a9b1bcca181bfe91ae0e4a95" target="_top" xlink:title="Register object factory. Drawable must be registered first.">
<polygon fill="none" stroke="black" points="12,-186 12,-216 149,-216 149,-186 12,-186"/>
<text text-anchor="start" x="20" y="-204" font-family="Helvetica,sans-Serif" font-size="10.00">Urho3D::AnimatedModel</text>
<text text-anchor="middle" x="80.5" y="-193" font-family="Helvetica,sans-Serif" font-size="10.00">::RegisterObject</text>
</a>
</g>
</g>
<!-- Node1&#45;&gt;Node2 -->
<g id="edge1" class="edge">
<title>Node1&#45;&gt;Node2</title>
<path fill="none" stroke="midnightblue" d="M250.31,-124.05C227.14,-140.28 193.21,-162.36 161,-177 153.78,-180.28 145.99,-183.26 138.22,-185.92"/>
<polygon fill="midnightblue" stroke="midnightblue" points="252.51,-126.79 258.64,-118.14 248.46,-121.08 252.51,-126.79"/>
</g>
<!-- Node3 -->
<g id="node3" class="node">
<title>Node3</title>
<g id="a_node3"><a xlink:href="class_urho3_d_1_1_static_model.html#aac7bd4f30d276bad34d0afd36dec5f6f" target="_top" xlink:title="Register object factory. Drawable must be registered first.">
<polygon fill="none" stroke="black" points="22,-137 22,-167 139,-167 139,-137 22,-137"/>
<text text-anchor="start" x="30" y="-155" font-family="Helvetica,sans-Serif" font-size="10.00">Urho3D::StaticModel</text>
<text text-anchor="middle" x="80.5" y="-144" font-family="Helvetica,sans-Serif" font-size="10.00">::RegisterObject</text>
</a>
</g>
</g>
<!-- Node1&#45;&gt;Node3 -->
<g id="edge2" class="edge">
<title>Node1&#45;&gt;Node3</title>
<path fill="none" stroke="midnightblue" d="M208.49,-120.49C185.8,-126.12 160.94,-132.29 139.28,-137.66"/>
<polygon fill="midnightblue" stroke="midnightblue" points="209.54,-123.84 218.4,-118.03 207.85,-117.05 209.54,-123.84"/>
</g>
<!-- Node4 -->
<g id="node4" class="node">
<title>Node4</title>
<g id="a_node4"><a xlink:href="class_urho3_d_1_1_custom_geometry.html#adf40494db43b2ab2869faad887ddf8a4" target="_top" xlink:title="Register object factory. Drawable must be registered first.">
<polygon fill="none" stroke="black" points="7.5,-88 7.5,-118 153.5,-118 153.5,-88 7.5,-88"/>
<text text-anchor="start" x="15.5" y="-106" font-family="Helvetica,sans-Serif" font-size="10.00">Urho3D::CustomGeometry</text>
<text text-anchor="middle" x="80.5" y="-95" font-family="Helvetica,sans-Serif" font-size="10.00">::RegisterObject</text>
</a>
</g>
</g>
<!-- Node1&#45;&gt;Node4 -->
<g id="edge3" class="edge">
<title>Node1&#45;&gt;Node4</title>
<path fill="none" stroke="midnightblue" d="M186.76,-103C175.6,-103 164.33,-103 153.53,-103"/>
<polygon fill="midnightblue" stroke="midnightblue" points="186.96,-106.5 196.96,-103 186.96,-99.5 186.96,-106.5"/>
</g>
<!-- Node5 -->
<g id="node5" class="node">
<title>Node5</title>
<g id="a_node5"><a xlink:href="class_urho3_d_1_1_particle_emitter.html#a866c84f59b51494573ee28e000523ede" target="_top" xlink:title="Register object factory.">
<polygon fill="none" stroke="black" points="15,-39 15,-69 146,-69 146,-39 15,-39"/>
<text text-anchor="start" x="23" y="-57" font-family="Helvetica,sans-Serif" font-size="10.00">Urho3D::ParticleEmitter</text>
<text text-anchor="middle" x="80.5" y="-46" font-family="Helvetica,sans-Serif" font-size="10.00">::RegisterObject</text>
</a>
</g>
</g>
<!-- Node1&#45;&gt;Node5 -->
<g id="edge4" class="edge">
<title>Node1&#45;&gt;Node5</title>
<path fill="none" stroke="midnightblue" d="M208.56,-85.52C186.79,-80.12 163.02,-74.22 141.98,-69.01"/>
<polygon fill="midnightblue" stroke="midnightblue" points="207.85,-88.95 218.4,-87.97 209.54,-82.16 207.85,-88.95"/>
</g>
<!-- Node6 -->
<g id="node6" class="node">
<title>Node6</title>
<g id="a_node6"><a xlink:href="class_urho3_d_1_1_light.html#addf06c14a914ff91a084194c409a7917" target="_top" xlink:title="Register object factory. Drawable must be registered first.">
<polygon fill="none" stroke="black" points="0,-0.5 0,-19.5 161,-19.5 161,-0.5 0,-0.5"/>
<text text-anchor="middle" x="80.5" y="-7.5" font-family="Helvetica,sans-Serif" font-size="10.00">Urho3D::Light::RegisterObject</text>
</a>
</g>
</g>
<!-- Node1&#45;&gt;Node6 -->
<g id="edge5" class="edge">
<title>Node1&#45;&gt;Node6</title>
<path fill="none" stroke="midnightblue" d="M250.45,-81.84C227.36,-65.61 193.46,-43.73 161,-30 151.04,-25.79 139.98,-22.31 129.37,-19.51"/>
<polygon fill="midnightblue" stroke="midnightblue" points="248.57,-84.8 258.75,-87.76 252.64,-79.1 248.57,-84.8"/>
</g>
</g>
</svg>
