<?xml version="1.0" encoding="UTF-8" standalone="no"?>
<!DOCTYPE svg PUBLIC "-//W3C//DTD SVG 1.1//EN"
 "http://www.w3.org/Graphics/SVG/1.1/DTD/svg11.dtd">
<!-- Generated by graphviz version 2.43.0 (0)
 -->
<!-- Title: Urho3D::Scene::SetSmoothingConstant Pages: 1 -->
<svg width="287pt" height="52pt"
 viewBox="0.00 0.00 287.00 51.50" xmlns="http://www.w3.org/2000/svg" xmlns:xlink="http://www.w3.org/1999/xlink">
<g id="graph0" class="graph" transform="scale(1 1) rotate(0) translate(4 47.5)">
<title>Urho3D::Scene::SetSmoothingConstant</title>
<!-- Node1 -->
<g id="node1" class="node">
<title>Node1</title>
<g id="a_node1"><a xlink:title=" ">
<polygon fill="#bfbfbf" stroke="black" points="0,-0.5 0,-30.5 163,-30.5 163,-0.5 0,-0.5"/>
<text text-anchor="start" x="8" y="-18.5" font-family="Helvetica,sans-Serif" font-size="10.00">Urho3D::Scene::SetSmoothing</text>
<text text-anchor="middle" x="81.5" y="-7.5" font-family="Helvetica,sans-Serif" font-size="10.00">Constant</text>
</a>
</g>
</g>
<!-- Node2 -->
<g id="node2" class="node">
<title>Node2</title>
<g id="a_node2"><a xlink:href="_math_defs_8h.html#a8096c22c3716e172f685af2a5f5e26bb" target="_top" xlink:title=" ">
<polygon fill="none" stroke="black" points="199,-6 199,-25 279,-25 279,-6 199,-6"/>
<text text-anchor="middle" x="239" y="-13" font-family="Helvetica,sans-Serif" font-size="10.00">Urho3D::Max</text>
</a>
</g>
</g>
<!-- Node1&#45;&gt;Node2 -->
<g id="edge1" class="edge">
<title>Node1&#45;&gt;Node2</title>
<path fill="none" stroke="midnightblue" d="M163.44,-15.5C171.96,-15.5 180.42,-15.5 188.43,-15.5"/>
<polygon fill="midnightblue" stroke="midnightblue" points="188.65,-19 198.65,-15.5 188.65,-12 188.65,-19"/>
</g>
<!-- Node2&#45;&gt;Node2 -->
<g id="edge2" class="edge">
<title>Node2&#45;&gt;Node2</title>
<path fill="none" stroke="midnightblue" d="M214.96,-25.26C203.26,-34.07 211.27,-43.5 239,-43.5 257.2,-43.5 266.9,-39.44 268.12,-34.15"/>
<polygon fill="midnightblue" stroke="midnightblue" points="271.04,-32.21 263.04,-25.26 264.96,-35.68 271.04,-32.21"/>
</g>
</g>
</svg>
