<?xml version="1.0" encoding="UTF-8" standalone="no"?>
<!DOCTYPE svg PUBLIC "-//W3C//DTD SVG 1.1//EN"
 "http://www.w3.org/Graphics/SVG/1.1/DTD/svg11.dtd">
<!-- Generated by graphviz version 2.40.1 (20161225.0304)
 -->
<!-- Title: Urho3D::CustomGeometry::GetCircleShape Pages: 1 -->
<svg width="518pt" height="39pt"
 viewBox="0.00 0.00 518.00 39.00" xmlns="http://www.w3.org/2000/svg" xmlns:xlink="http://www.w3.org/1999/xlink">
<g id="graph0" class="graph" transform="scale(1 1) rotate(0) translate(4 35)">
<title>Urho3D::CustomGeometry::GetCircleShape</title>
<!-- Node12 -->
<g id="node1" class="node">
<title>Node12</title>
<polygon fill="#bfbfbf" stroke="#000000" points="0,-.5 0,-30.5 146,-30.5 146,-.5 0,-.5"/>
<text text-anchor="start" x="8" y="-18.5" font-family="Helvetica,sans-Serif" font-size="10.00" fill="#000000">Urho3D::CustomGeometry</text>
<text text-anchor="middle" x="73" y="-7.5" font-family="Helvetica,sans-Serif" font-size="10.00" fill="#000000">::GetCircleShape</text>
</g>
<!-- Node13 -->
<g id="node2" class="node">
<title>Node13</title>
<g id="a_node2"><a xlink:href="class_urho3_d_1_1_custom_geometry.html#ae9b054f53c3d677f1b9df4b13e07bcc1" target="_top" xlink:title="Urho3D::CustomGeometry\l::MakeCircle">
<polygon fill="none" stroke="#000000" points="182,-.5 182,-30.5 328,-30.5 328,-.5 182,-.5"/>
<text text-anchor="start" x="190" y="-18.5" font-family="Helvetica,sans-Serif" font-size="10.00" fill="#000000">Urho3D::CustomGeometry</text>
<text text-anchor="middle" x="255" y="-7.5" font-family="Helvetica,sans-Serif" font-size="10.00" fill="#000000">::MakeCircle</text>
</a>
</g>
</g>
<!-- Node12&#45;&gt;Node13 -->
<g id="edge1" class="edge">
<title>Node12&#45;&gt;Node13</title>
<path fill="none" stroke="#191970" d="M156.516,-15.5C164.9925,-15.5 173.5562,-15.5 181.9103,-15.5"/>
<polygon fill="#191970" stroke="#191970" points="156.2397,-12.0001 146.2397,-15.5 156.2396,-19.0001 156.2397,-12.0001"/>
</g>
<!-- Node14 -->
<g id="node3" class="node">
<title>Node14</title>
<g id="a_node3"><a xlink:href="class_urho3_d_1_1_custom_geometry.html#a03c97dc1469fa09d56fca75face32b8f" target="_top" xlink:title="Produces a circle graph given a vector of paired (weights and materials) ">
<polygon fill="none" stroke="#000000" points="364,-.5 364,-30.5 510,-30.5 510,-.5 364,-.5"/>
<text text-anchor="start" x="372" y="-18.5" font-family="Helvetica,sans-Serif" font-size="10.00" fill="#000000">Urho3D::CustomGeometry</text>
<text text-anchor="middle" x="437" y="-7.5" font-family="Helvetica,sans-Serif" font-size="10.00" fill="#000000">::MakeCircleGraph</text>
</a>
</g>
</g>
<!-- Node13&#45;&gt;Node14 -->
<g id="edge2" class="edge">
<title>Node13&#45;&gt;Node14</title>
<path fill="none" stroke="#191970" d="M338.516,-15.5C346.9925,-15.5 355.5562,-15.5 363.9103,-15.5"/>
<polygon fill="#191970" stroke="#191970" points="338.2397,-12.0001 328.2397,-15.5 338.2396,-19.0001 338.2397,-12.0001"/>
</g>
</g>
</svg>
