<?xml version="1.0" encoding="UTF-8" standalone="no"?>
<!DOCTYPE svg PUBLIC "-//W3C//DTD SVG 1.1//EN"
 "http://www.w3.org/Graphics/SVG/1.1/DTD/svg11.dtd">
<!-- Generated by graphviz version 2.43.0 (0)
 -->
<!-- Title: Urho3D::UIElement::SetSize Pages: 1 -->
<!--zoomable 596 -->
<svg id="main" version="1.1" xmlns="http://www.w3.org/2000/svg" xmlns:xlink="http://www.w3.org/1999/xlink" xml:space="preserve" onload="init(evt)">
<style type="text/css"><![CDATA[
.edge:hover path { stroke: red; }
.edge:hover polygon { stroke: red; fill: red; }
]]></style>
<script type="text/javascript"><![CDATA[
var edges = document.getElementsByTagName('g');
if (edges && edges.length) {
  for (var i=0;i<edges.length;i++) {
    if (edges[i].id.substr(0,4)=='edge') {
      edges[i].setAttribute('class','edge');
    }
  }
}
]]></script>
        <defs>
                <circle id="rim" cx="0" cy="0" r="7"/>
                <circle id="rim2" cx="0" cy="0" r="3.5"/>
                <g id="zoomPlus">
                        <use xlink:href="#rim" fill="#404040">
                                <set attributeName="fill" to="#808080" begin="zoomplus.mouseover" end="zoomplus.mouseout"/>
                        </use>
                        <path d="M-4,0h8M0,-4v8" fill="none" stroke="white" stroke-width="1.5" pointer-events="none"/>
                </g>
                <g id="zoomMin">
                        <use xlink:href="#rim" fill="#404040">
                                <set attributeName="fill" to="#808080" begin="zoomminus.mouseover" end="zoomminus.mouseout"/>
                        </use>
                        <path d="M-4,0h8" fill="none" stroke="white" stroke-width="1.5" pointer-events="none"/>
                </g>
                <g id="dirArrow">
                        <path fill="none" stroke="white" stroke-width="1.5" d="M0,-3.0v7 M-2.5,-0.5L0,-3.0L2.5,-0.5"/>
                </g>
               <g id="resetDef">
                       <use xlink:href="#rim2" fill="#404040">
                               <set attributeName="fill" to="#808080" begin="reset.mouseover" end="reset.mouseout"/>
                       </use>
               </g>
        </defs>

<script type="text/javascript">
var viewWidth = 718;
var viewHeight = 596;
var sectionId = 'dynsection-94';
</script>
<script xlink:href="svgpan.js"/>
<svg id="graph" class="graph">
<g id="viewport">
<title>Urho3D::UIElement::SetSize</title>
<!-- Node1 -->
<g id="node1" class="node">
<title>Node1</title>
<g id="a_node1"><a xlink:title=" ">
<polygon fill="#bfbfbf" stroke="black" points="594,-263 594,-293 710,-293 710,-263 594,-263"/>
<text text-anchor="start" x="602" y="-281" font-family="Helvetica,sans-Serif" font-size="10.00">Urho3D::UIElement::</text>
<text text-anchor="middle" x="652" y="-270" font-family="Helvetica,sans-Serif" font-size="10.00">SetSize</text>
</a>
</g>
</g>
<!-- Node2 -->
<g id="node2" class="node">
<title>Node2</title>
<g id="a_node2"><a xlink:href="class_urho3_d_1_1_input.html#ac0a172bd8f0568c96db9ceb0b46ed0e5" target="_top" xlink:title="Handle screen mode event.">
<polygon fill="none" stroke="black" points="373,-547.5 373,-566.5 558,-566.5 558,-547.5 373,-547.5"/>
<text text-anchor="middle" x="465.5" y="-554.5" font-family="Helvetica,sans-Serif" font-size="10.00">Urho3D::Input::HandleScreenMode</text>
</a>
</g>
</g>
<!-- Node1&#45;&gt;Node2 -->
<g id="edge1" class="edge">
<title>Node1&#45;&gt;Node2</title>
<path fill="none" stroke="midnightblue" d="M649.81,-303.2C645.91,-355.47 629.24,-476.01 558,-538 553.72,-541.73 548.89,-544.79 543.76,-547.3"/>
<polygon fill="midnightblue" stroke="midnightblue" points="653.31,-303.33 650.46,-293.12 646.32,-302.87 653.31,-303.33"/>
</g>
<!-- Node3 -->
<g id="node3" class="node">
<title>Node3</title>
<g id="a_node3"><a xlink:href="class_urho3_d_1_1_sprite.html#aedada728de8e83b44472e1dd798a1b0d" target="_top" xlink:title="Register object factory.">
<polygon fill="none" stroke="black" points="398.5,-498 398.5,-528 532.5,-528 532.5,-498 398.5,-498"/>
<text text-anchor="start" x="406.5" y="-516" font-family="Helvetica,sans-Serif" font-size="10.00">Urho3D::Sprite::Register</text>
<text text-anchor="middle" x="465.5" y="-505" font-family="Helvetica,sans-Serif" font-size="10.00">Object</text>
</a>
</g>
</g>
<!-- Node1&#45;&gt;Node3 -->
<g id="edge2" class="edge">
<title>Node1&#45;&gt;Node3</title>
<path fill="none" stroke="midnightblue" d="M647.16,-303.11C639.03,-347.47 615.83,-439.69 558,-489 550.63,-495.29 541.79,-499.95 532.56,-503.41"/>
<polygon fill="midnightblue" stroke="midnightblue" points="650.63,-303.61 648.88,-293.16 643.73,-302.42 650.63,-303.61"/>
</g>
<!-- Node4 -->
<g id="node4" class="node">
<title>Node4</title>
<g id="a_node4"><a xlink:href="class_urho3_d_1_1_u_i_element.html#aa6fad1d07806bb3035f0759984b2afc1" target="_top" xlink:title="Register object factory.">
<polygon fill="none" stroke="black" points="200,-312 200,-342 316,-342 316,-312 200,-312"/>
<text text-anchor="start" x="208" y="-330" font-family="Helvetica,sans-Serif" font-size="10.00">Urho3D::UIElement::</text>
<text text-anchor="middle" x="258" y="-319" font-family="Helvetica,sans-Serif" font-size="10.00">RegisterObject</text>
</a>
</g>
</g>
<!-- Node1&#45;&gt;Node4 -->
<g id="edge3" class="edge">
<title>Node1&#45;&gt;Node4</title>
<path fill="none" stroke="midnightblue" d="M591.97,-295.6C580.77,-298.44 569.09,-301.08 558,-303 474.61,-317.43 376.61,-323.21 316.15,-325.51"/>
<polygon fill="midnightblue" stroke="midnightblue" points="592.88,-298.98 601.66,-293.06 591.1,-292.21 592.88,-298.98"/>
</g>
<!-- Node5 -->
<g id="node5" class="node">
<title>Node5</title>
<g id="a_node5"><a xlink:href="class_urho3_d_1_1_u_i_element.html#aff1d72eee016e597db40e9ea18755517" target="_top" xlink:title="Set fixed size.">
<polygon fill="none" stroke="black" points="407.5,-449 407.5,-479 523.5,-479 523.5,-449 407.5,-449"/>
<text text-anchor="start" x="415.5" y="-467" font-family="Helvetica,sans-Serif" font-size="10.00">Urho3D::UIElement::</text>
<text text-anchor="middle" x="465.5" y="-456" font-family="Helvetica,sans-Serif" font-size="10.00">SetFixedSize</text>
</a>
</g>
</g>
<!-- Node1&#45;&gt;Node5 -->
<g id="edge4" class="edge">
<title>Node1&#45;&gt;Node5</title>
<path fill="none" stroke="midnightblue" d="M643.58,-302.85C631.57,-338.7 604.42,-404.49 558,-440 548.09,-447.58 536,-452.78 523.89,-456.34"/>
<polygon fill="midnightblue" stroke="midnightblue" points="646.96,-303.76 646.7,-293.17 640.3,-301.62 646.96,-303.76"/>
</g>
<!-- Node7 -->
<g id="node7" class="node">
<title>Node7</title>
<g id="a_node7"><a xlink:href="class_urho3_d_1_1_u_i_element.html#a96b226ae18928769cce09d7025dbe133" target="_top" xlink:title=" ">
<polygon fill="none" stroke="black" points="407.5,-400 407.5,-430 523.5,-430 523.5,-400 407.5,-400"/>
<text text-anchor="start" x="415.5" y="-418" font-family="Helvetica,sans-Serif" font-size="10.00">Urho3D::UIElement::</text>
<text text-anchor="middle" x="465.5" y="-407" font-family="Helvetica,sans-Serif" font-size="10.00">SetHeight</text>
</a>
</g>
</g>
<!-- Node1&#45;&gt;Node7 -->
<g id="edge6" class="edge">
<title>Node1&#45;&gt;Node7</title>
<path fill="none" stroke="midnightblue" d="M637.67,-301.81C621.96,-327.67 593.45,-368.31 558,-391 547.76,-397.55 535.8,-402.32 523.96,-405.79"/>
<polygon fill="midnightblue" stroke="midnightblue" points="640.8,-303.4 642.87,-293.01 634.77,-299.84 640.8,-303.4"/>
</g>
<!-- Node36 -->
<g id="node9" class="node">
<title>Node36</title>
<g id="a_node9"><a xlink:href="class_urho3_d_1_1_u_i_element.html#a660f383fa229f3b564390131e49934d1" target="_top" xlink:title=" ">
<polygon fill="none" stroke="black" points="407.5,-351 407.5,-381 523.5,-381 523.5,-351 407.5,-351"/>
<text text-anchor="start" x="415.5" y="-369" font-family="Helvetica,sans-Serif" font-size="10.00">Urho3D::UIElement::</text>
<text text-anchor="middle" x="465.5" y="-358" font-family="Helvetica,sans-Serif" font-size="10.00">SetMaxSize</text>
</a>
</g>
</g>
<!-- Node1&#45;&gt;Node36 -->
<g id="edge8" class="edge">
<title>Node1&#45;&gt;Node36</title>
<path fill="none" stroke="midnightblue" d="M621.78,-298.77C603.96,-310.79 580.37,-325.54 558,-336 545.88,-341.66 532.41,-346.72 519.6,-350.99"/>
<polygon fill="midnightblue" stroke="midnightblue" points="623.76,-301.66 630.04,-293.13 619.81,-295.88 623.76,-301.66"/>
</g>
<!-- Node40 -->
<g id="node13" class="node">
<title>Node40</title>
<g id="a_node13"><a xlink:href="class_urho3_d_1_1_u_i_element.html#aee217206040fc3c780ba9f42056dd219" target="_top" xlink:title=" ">
<polygon fill="none" stroke="black" points="407.5,-263 407.5,-293 523.5,-293 523.5,-263 407.5,-263"/>
<text text-anchor="start" x="415.5" y="-281" font-family="Helvetica,sans-Serif" font-size="10.00">Urho3D::UIElement::</text>
<text text-anchor="middle" x="465.5" y="-270" font-family="Helvetica,sans-Serif" font-size="10.00">SetMinSize</text>
</a>
</g>
</g>
<!-- Node1&#45;&gt;Node40 -->
<g id="edge13" class="edge">
<title>Node1&#45;&gt;Node40</title>
<path fill="none" stroke="midnightblue" d="M583.75,-278C564.04,-278 542.68,-278 523.66,-278"/>
<polygon fill="midnightblue" stroke="midnightblue" points="583.89,-281.5 593.89,-278 583.89,-274.5 583.89,-281.5"/>
</g>
<!-- Node45 -->
<g id="node18" class="node">
<title>Node45</title>
<g id="a_node18"><a xlink:href="class_urho3_d_1_1_cursor.html#a132e53f70b2e45f29a5ead1e5db84bbd" target="_top" xlink:title=" ">
<polygon fill="none" stroke="black" points="394,-126.5 394,-145.5 537,-145.5 537,-126.5 394,-126.5"/>
<text text-anchor="middle" x="465.5" y="-133.5" font-family="Helvetica,sans-Serif" font-size="10.00">Urho3D::Cursor::SetShape</text>
</a>
</g>
</g>
<!-- Node1&#45;&gt;Node45 -->
<g id="edge19" class="edge">
<title>Node1&#45;&gt;Node45</title>
<path fill="none" stroke="midnightblue" d="M639.25,-253.72C624.35,-225.64 595.97,-180.2 558,-156 551.14,-151.63 543.47,-148.21 535.57,-145.52"/>
<polygon fill="midnightblue" stroke="midnightblue" points="636.26,-255.57 643.95,-262.86 642.49,-252.37 636.26,-255.57"/>
</g>
<!-- Node49 -->
<g id="node21" class="node">
<title>Node49</title>
<g id="a_node21"><a xlink:href="class_urho3_d_1_1_u_i_element.html#afbee9a73b9a68e706e1a63e0b910b24c" target="_top" xlink:title="Set size.">
<polygon fill="none" stroke="black" points="407.5,-165 407.5,-195 523.5,-195 523.5,-165 407.5,-165"/>
<text text-anchor="start" x="415.5" y="-183" font-family="Helvetica,sans-Serif" font-size="10.00">Urho3D::UIElement::</text>
<text text-anchor="middle" x="465.5" y="-172" font-family="Helvetica,sans-Serif" font-size="10.00">SetSize</text>
</a>
</g>
</g>
<!-- Node1&#45;&gt;Node49 -->
<g id="edge22" class="edge">
<title>Node1&#45;&gt;Node49</title>
<path fill="none" stroke="midnightblue" d="M628.32,-255.92C610.51,-239.71 584.4,-218.28 558,-205 547.41,-199.67 535.54,-195.36 523.94,-191.92"/>
<polygon fill="midnightblue" stroke="midnightblue" points="626.18,-258.71 635.88,-262.95 630.94,-253.58 626.18,-258.71"/>
</g>
<!-- Node50 -->
<g id="node22" class="node">
<title>Node50</title>
<g id="a_node22"><a xlink:href="class_urho3_d_1_1_u_i_element.html#a9b41d8ab02a737060859ee63d2155391" target="_top" xlink:title=" ">
<polygon fill="none" stroke="red" points="407.5,-214 407.5,-244 523.5,-244 523.5,-214 407.5,-214"/>
<text text-anchor="start" x="415.5" y="-232" font-family="Helvetica,sans-Serif" font-size="10.00">Urho3D::UIElement::</text>
<text text-anchor="middle" x="465.5" y="-221" font-family="Helvetica,sans-Serif" font-size="10.00">SetWidth</text>
</a>
</g>
</g>
<!-- Node1&#45;&gt;Node50 -->
<g id="edge23" class="edge">
<title>Node1&#45;&gt;Node50</title>
<path fill="none" stroke="midnightblue" d="M584.64,-260.38C564.46,-255.02 542.47,-249.18 523,-244.01"/>
<polygon fill="midnightblue" stroke="midnightblue" points="583.83,-263.78 594.39,-262.97 585.62,-257.02 583.83,-263.78"/>
</g>
<!-- Node52 -->
<g id="node24" class="node">
<title>Node52</title>
<g id="a_node24"><a xlink:href="class_urho3_d_1_1_u_i_element.html#a4a5e995e122f9caafc20a8fd5ccc92bc" target="_top" xlink:title="Update anchored size &amp; position. Only called when anchoring is enabled.">
<polygon fill="none" stroke="red" points="407.5,-77 407.5,-107 523.5,-107 523.5,-77 407.5,-77"/>
<text text-anchor="start" x="415.5" y="-95" font-family="Helvetica,sans-Serif" font-size="10.00">Urho3D::UIElement::</text>
<text text-anchor="middle" x="465.5" y="-84" font-family="Helvetica,sans-Serif" font-size="10.00">UpdateAnchoring</text>
</a>
</g>
</g>
<!-- Node1&#45;&gt;Node52 -->
<g id="edge26" class="edge">
<title>Node1&#45;&gt;Node52</title>
<path fill="none" stroke="midnightblue" d="M643.49,-253.36C631.36,-217.81 604.07,-152.52 558,-117 548.09,-109.36 536,-104.05 523.9,-100.36"/>
<polygon fill="midnightblue" stroke="midnightblue" points="640.19,-254.55 646.64,-262.96 646.84,-252.37 640.19,-254.55"/>
</g>
<!-- Node60 -->
<g id="node25" class="node">
<title>Node60</title>
<g id="a_node25"><a xlink:href="class_urho3_d_1_1_u_i_element.html#a7cba78373c23a734a1ccd2d4a27d8cb0" target="_top" xlink:title="Manually update layout. Should not be necessary in most cases, but is provided for completeness.">
<polygon fill="none" stroke="red" points="407.5,-28 407.5,-58 523.5,-58 523.5,-28 407.5,-28"/>
<text text-anchor="start" x="415.5" y="-46" font-family="Helvetica,sans-Serif" font-size="10.00">Urho3D::UIElement::</text>
<text text-anchor="middle" x="465.5" y="-35" font-family="Helvetica,sans-Serif" font-size="10.00">UpdateLayout</text>
</a>
</g>
</g>
<!-- Node1&#45;&gt;Node60 -->
<g id="edge27" class="edge">
<title>Node1&#45;&gt;Node60</title>
<path fill="none" stroke="midnightblue" d="M647.92,-252.75C640.46,-206.7 617.47,-110.15 558,-59 548.26,-50.62 535.96,-45.03 523.57,-41.56"/>
<polygon fill="midnightblue" stroke="midnightblue" points="644.48,-253.43 649.42,-262.8 651.4,-252.4 644.48,-253.43"/>
</g>
<!-- Node6 -->
<g id="node6" class="node">
<title>Node6</title>
<g id="a_node6"><a xlink:href="class_urho3_d_1_1_u_i_element.html#af91ec26d76c71c26f98f142f4a6ef185" target="_top" xlink:title="Set fixed size.">
<polygon fill="none" stroke="black" points="200,-557 200,-587 316,-587 316,-557 200,-557"/>
<text text-anchor="start" x="208" y="-575" font-family="Helvetica,sans-Serif" font-size="10.00">Urho3D::UIElement::</text>
<text text-anchor="middle" x="258" y="-564" font-family="Helvetica,sans-Serif" font-size="10.00">SetFixedSize</text>
</a>
</g>
</g>
<!-- Node5&#45;&gt;Node6 -->
<g id="edge5" class="edge">
<title>Node5&#45;&gt;Node6</title>
<path fill="none" stroke="midnightblue" d="M397.63,-475.82C388.84,-479.17 380.35,-483.48 373,-489 348.45,-507.46 361.25,-529.15 337,-548 330.85,-552.78 323.74,-556.62 316.37,-559.69"/>
<polygon fill="midnightblue" stroke="midnightblue" points="398.9,-479.08 407.24,-472.54 396.65,-472.46 398.9,-479.08"/>
</g>
<!-- Node8 -->
<g id="node8" class="node">
<title>Node8</title>
<g id="a_node8"><a xlink:href="class_urho3_d_1_1_u_i_element.html#a4396e1c9eb02df3a4f5438900c704f76" target="_top" xlink:title="Set fixed height.">
<polygon fill="none" stroke="red" points="200,-508 200,-538 316,-538 316,-508 200,-508"/>
<text text-anchor="start" x="208" y="-526" font-family="Helvetica,sans-Serif" font-size="10.00">Urho3D::UIElement::</text>
<text text-anchor="middle" x="258" y="-515" font-family="Helvetica,sans-Serif" font-size="10.00">SetFixedHeight</text>
</a>
</g>
</g>
<!-- Node7&#45;&gt;Node8 -->
<g id="edge7" class="edge">
<title>Node7&#45;&gt;Node8</title>
<path fill="none" stroke="midnightblue" d="M397.63,-426.82C388.84,-430.17 380.35,-434.48 373,-440 348.45,-458.46 361.25,-480.15 337,-499 330.85,-503.78 323.74,-507.62 316.37,-510.69"/>
<polygon fill="midnightblue" stroke="midnightblue" points="398.9,-430.08 407.24,-423.54 396.65,-423.46 398.9,-430.08"/>
</g>
<!-- Node36&#45;&gt;Node4 -->
<g id="edge9" class="edge">
<title>Node36&#45;&gt;Node4</title>
<path fill="none" stroke="midnightblue" d="M397.4,-353.27C371.2,-348.29 341.47,-342.65 316.29,-337.87"/>
<polygon fill="midnightblue" stroke="midnightblue" points="396.78,-356.71 407.26,-355.14 398.08,-349.83 396.78,-356.71"/>
</g>
<!-- Node37 -->
<g id="node10" class="node">
<title>Node37</title>
<g id="a_node10"><a xlink:href="class_urho3_d_1_1_u_i_element.html#a9fa7546339360d06375e185289765d15" target="_top" xlink:title=" ">
<polygon fill="none" stroke="black" points="200,-410 200,-440 316,-440 316,-410 200,-410"/>
<text text-anchor="start" x="208" y="-428" font-family="Helvetica,sans-Serif" font-size="10.00">Urho3D::UIElement::</text>
<text text-anchor="middle" x="258" y="-417" font-family="Helvetica,sans-Serif" font-size="10.00">SetMaxHeight</text>
</a>
</g>
</g>
<!-- Node36&#45;&gt;Node37 -->
<g id="edge10" class="edge">
<title>Node36&#45;&gt;Node37</title>
<path fill="none" stroke="midnightblue" d="M398.63,-383.8C390,-386.19 381.28,-388.63 373,-391 351.85,-397.04 328.57,-403.94 308.59,-409.94"/>
<polygon fill="midnightblue" stroke="midnightblue" points="399.6,-387.16 408.31,-381.13 397.74,-380.42 399.6,-387.16"/>
</g>
<!-- Node38 -->
<g id="node11" class="node">
<title>Node38</title>
<g id="a_node11"><a xlink:href="class_urho3_d_1_1_u_i_element.html#a5ca6f5ad3810ec5b1ed4c0e3adcf2b36" target="_top" xlink:title="Set maximum size.">
<polygon fill="none" stroke="black" points="200,-361 200,-391 316,-391 316,-361 200,-361"/>
<text text-anchor="start" x="208" y="-379" font-family="Helvetica,sans-Serif" font-size="10.00">Urho3D::UIElement::</text>
<text text-anchor="middle" x="258" y="-368" font-family="Helvetica,sans-Serif" font-size="10.00">SetMaxSize</text>
</a>
</g>
</g>
<!-- Node36&#45;&gt;Node38 -->
<g id="edge11" class="edge">
<title>Node36&#45;&gt;Node38</title>
<path fill="none" stroke="midnightblue" d="M397.06,-369.28C370.94,-370.55 341.36,-371.99 316.29,-373.21"/>
<polygon fill="midnightblue" stroke="midnightblue" points="397.44,-372.77 407.26,-368.79 397.1,-365.78 397.44,-372.77"/>
</g>
<!-- Node39 -->
<g id="node12" class="node">
<title>Node39</title>
<g id="a_node12"><a xlink:href="class_urho3_d_1_1_u_i_element.html#a2f4e6c855f453d1c60f03bb186e60d32" target="_top" xlink:title=" ">
<polygon fill="none" stroke="black" points="200,-459 200,-489 316,-489 316,-459 200,-459"/>
<text text-anchor="start" x="208" y="-477" font-family="Helvetica,sans-Serif" font-size="10.00">Urho3D::UIElement::</text>
<text text-anchor="middle" x="258" y="-466" font-family="Helvetica,sans-Serif" font-size="10.00">SetMaxWidth</text>
</a>
</g>
</g>
<!-- Node36&#45;&gt;Node39 -->
<g id="edge12" class="edge">
<title>Node36&#45;&gt;Node39</title>
<path fill="none" stroke="midnightblue" d="M397.63,-377.82C388.84,-381.17 380.35,-385.48 373,-391 348.45,-409.46 361.25,-431.15 337,-450 330.85,-454.78 323.74,-458.62 316.37,-461.69"/>
<polygon fill="midnightblue" stroke="midnightblue" points="398.9,-381.08 407.24,-374.54 396.65,-374.46 398.9,-381.08"/>
</g>
<!-- Node40&#45;&gt;Node4 -->
<g id="edge14" class="edge">
<title>Node40&#45;&gt;Node4</title>
<path fill="none" stroke="midnightblue" d="M397.4,-294C371.2,-300.25 341.47,-307.34 316.29,-313.34"/>
<polygon fill="midnightblue" stroke="midnightblue" points="398.34,-297.37 407.26,-291.65 396.72,-290.56 398.34,-297.37"/>
</g>
<!-- Node41 -->
<g id="node14" class="node">
<title>Node41</title>
<g id="a_node14"><a xlink:href="class_urho3_d_1_1_u_i_element.html#a27630c90048d87cad40b7f12af7fcc5a" target="_top" xlink:title=" ">
<polygon fill="none" stroke="black" points="200,-263 200,-293 316,-293 316,-263 200,-263"/>
<text text-anchor="start" x="208" y="-281" font-family="Helvetica,sans-Serif" font-size="10.00">Urho3D::UIElement::</text>
<text text-anchor="middle" x="258" y="-270" font-family="Helvetica,sans-Serif" font-size="10.00">SetMinHeight</text>
</a>
</g>
</g>
<!-- Node40&#45;&gt;Node41 -->
<g id="edge15" class="edge">
<title>Node40&#45;&gt;Node41</title>
<path fill="none" stroke="midnightblue" d="M397.06,-278C370.94,-278 341.36,-278 316.29,-278"/>
<polygon fill="midnightblue" stroke="midnightblue" points="397.26,-281.5 407.26,-278 397.26,-274.5 397.26,-281.5"/>
</g>
<!-- Node42 -->
<g id="node15" class="node">
<title>Node42</title>
<g id="a_node15"><a xlink:href="class_urho3_d_1_1_u_i_element.html#aabe432e3307b7396c9701b7b0242932e" target="_top" xlink:title="Set minimum size.">
<polygon fill="none" stroke="black" points="200,-214 200,-244 316,-244 316,-214 200,-214"/>
<text text-anchor="start" x="208" y="-232" font-family="Helvetica,sans-Serif" font-size="10.00">Urho3D::UIElement::</text>
<text text-anchor="middle" x="258" y="-221" font-family="Helvetica,sans-Serif" font-size="10.00">SetMinSize</text>
</a>
</g>
</g>
<!-- Node40&#45;&gt;Node42 -->
<g id="edge16" class="edge">
<title>Node40&#45;&gt;Node42</title>
<path fill="none" stroke="midnightblue" d="M397.4,-262C371.2,-255.75 341.47,-248.66 316.29,-242.66"/>
<polygon fill="midnightblue" stroke="midnightblue" points="396.72,-265.44 407.26,-264.35 398.34,-258.63 396.72,-265.44"/>
</g>
<!-- Node43 -->
<g id="node16" class="node">
<title>Node43</title>
<g id="a_node16"><a xlink:href="class_urho3_d_1_1_u_i_element.html#ab5a8fa3fdc2f038afd6f51e8327c3505" target="_top" xlink:title=" ">
<polygon fill="none" stroke="red" points="200,-165 200,-195 316,-195 316,-165 200,-165"/>
<text text-anchor="start" x="208" y="-183" font-family="Helvetica,sans-Serif" font-size="10.00">Urho3D::UIElement::</text>
<text text-anchor="middle" x="258" y="-172" font-family="Helvetica,sans-Serif" font-size="10.00">SetMinWidth</text>
</a>
</g>
</g>
<!-- Node40&#45;&gt;Node43 -->
<g id="edge17" class="edge">
<title>Node40&#45;&gt;Node43</title>
<path fill="none" stroke="midnightblue" d="M397.71,-266.25C388.98,-263.09 380.48,-259.08 373,-254 350.65,-238.81 358.94,-220.78 337,-205 330.65,-200.43 323.43,-196.67 316,-193.59"/>
<polygon fill="midnightblue" stroke="midnightblue" points="396.64,-269.58 407.24,-269.35 398.81,-262.93 396.64,-269.58"/>
</g>
<!-- Node44 -->
<g id="node17" class="node">
<title>Node44</title>
<g id="a_node17"><a xlink:href="class_urho3_d_1_1_text3_d.html#a2f22dc3e9059968028c37fcefb618590" target="_top" xlink:title=" ">
<polygon fill="none" stroke="black" points="0,-148.5 0,-167.5 143,-167.5 143,-148.5 0,-148.5"/>
<text text-anchor="middle" x="71.5" y="-155.5" font-family="Helvetica,sans-Serif" font-size="10.00">Urho3D::Text3D::SetWidth</text>
</a>
</g>
</g>
<!-- Node43&#45;&gt;Node44 -->
<g id="edge18" class="edge">
<title>Node43&#45;&gt;Node44</title>
<path fill="none" stroke="midnightblue" d="M189.63,-171.97C174.56,-170.17 158.54,-168.26 143.33,-166.45"/>
<polygon fill="midnightblue" stroke="midnightblue" points="189.54,-175.48 199.89,-173.19 190.37,-168.53 189.54,-175.48"/>
</g>
<!-- Node46 -->
<g id="node19" class="node">
<title>Node46</title>
<g id="a_node19"><a xlink:href="class_urho3_d_1_1_cursor.html#ac42187d96290b83a4f8995d2264cba87" target="_top" xlink:title="Define a shape.">
<polygon fill="none" stroke="red" points="179,-0.5 179,-19.5 337,-19.5 337,-0.5 179,-0.5"/>
<text text-anchor="middle" x="258" y="-7.5" font-family="Helvetica,sans-Serif" font-size="10.00">Urho3D::Cursor::DefineShape</text>
</a>
</g>
</g>
<!-- Node45&#45;&gt;Node46 -->
<g id="edge20" class="edge">
<title>Node45&#45;&gt;Node46</title>
<path fill="none" stroke="midnightblue" d="M384.5,-124.62C380.41,-122.46 376.53,-119.94 373,-117 340.51,-89.98 369.03,-56.57 337,-29 332.56,-25.18 327.48,-22.1 322.09,-19.63"/>
<polygon fill="midnightblue" stroke="midnightblue" points="383.21,-127.88 393.76,-128.79 386.08,-121.49 383.21,-127.88"/>
</g>
<!-- Node48 -->
<g id="node20" class="node">
<title>Node48</title>
<g id="a_node20"><a xlink:href="class_urho3_d_1_1_u_i.html#a444cb18d7cdbab6b37be5a6245c77388" target="_top" xlink:title="Handle button or touch hover.">
<polygon fill="none" stroke="black" points="186.5,-38.5 186.5,-57.5 329.5,-57.5 329.5,-38.5 186.5,-38.5"/>
<text text-anchor="middle" x="258" y="-45.5" font-family="Helvetica,sans-Serif" font-size="10.00">Urho3D::UI::ProcessHover</text>
</a>
</g>
</g>
<!-- Node45&#45;&gt;Node48 -->
<g id="edge21" class="edge">
<title>Node45&#45;&gt;Node48</title>
<path fill="none" stroke="midnightblue" d="M384.43,-123.16C380.45,-121.36 376.61,-119.32 373,-117 350.26,-102.4 359.39,-83.13 337,-68 330.51,-63.62 323.13,-60.2 315.56,-57.52"/>
<polygon fill="midnightblue" stroke="midnightblue" points="383.36,-126.5 393.95,-126.93 385.94,-119.99 383.36,-126.5"/>
</g>
<!-- Node50&#45;&gt;Node44 -->
<g id="edge25" class="edge">
<title>Node50&#45;&gt;Node44</title>
<path fill="none" stroke="midnightblue" d="M397.71,-217.25C388.98,-214.09 380.48,-210.08 373,-205 350.65,-189.81 361.11,-168.2 337,-156 261.82,-117.94 158.52,-135.47 106.04,-148.45"/>
<polygon fill="midnightblue" stroke="midnightblue" points="396.64,-220.58 407.24,-220.35 398.81,-213.93 396.64,-220.58"/>
</g>
<!-- Node51 -->
<g id="node23" class="node">
<title>Node51</title>
<g id="a_node23"><a xlink:href="class_urho3_d_1_1_u_i_element.html#aa594dc23bd881becc7204e973fb09d10" target="_top" xlink:title="Set fixed width.">
<polygon fill="none" stroke="red" points="200,-77 200,-107 316,-107 316,-77 200,-77"/>
<text text-anchor="start" x="208" y="-95" font-family="Helvetica,sans-Serif" font-size="10.00">Urho3D::UIElement::</text>
<text text-anchor="middle" x="258" y="-84" font-family="Helvetica,sans-Serif" font-size="10.00">SetFixedWidth</text>
</a>
</g>
</g>
<!-- Node50&#45;&gt;Node51 -->
<g id="edge24" class="edge">
<title>Node50&#45;&gt;Node51</title>
<path fill="none" stroke="midnightblue" d="M397.89,-219.25C388.85,-215.81 380.22,-211.19 373,-205 342.48,-178.82 366.02,-149.83 337,-122 330.61,-115.87 322.84,-110.97 314.7,-107.04"/>
<polygon fill="midnightblue" stroke="midnightblue" points="396.81,-222.58 407.41,-222.42 399.03,-215.94 396.81,-222.58"/>
</g>
<!-- Node60&#45;&gt;Node1 -->
<g id="edge28" class="edge">
<title>Node60&#45;&gt;Node1</title>
<path fill="none" stroke="midnightblue" d="M530.02,-61.28C540.17,-65.06 549.96,-70.08 558,-77 617.55,-128.22 640.52,-224.97 647.95,-262.74"/>
<polygon fill="midnightblue" stroke="midnightblue" points="530.83,-57.86 520.23,-58.02 528.61,-64.5 530.83,-57.86"/>
</g>
</g>
</svg>
        <g id="navigator" transform="translate(0 0)" fill="#404254">
                <rect fill="#f2f5e9" fill-opacity="0.5" stroke="#606060" stroke-width=".5" x="0" y="0" width="60" height="60"/>
                <use id="zoomplus" xlink:href="#zoomPlus" x="17" y="9" onmousedown="handleZoom(evt,'in')"/>
                <use id="zoomminus" xlink:href="#zoomMin" x="42" y="9" onmousedown="handleZoom(evt,'out')"/>
                <use id="reset" xlink:href="#resetDef" x="30" y="36" onmousedown="handleReset()"/>
                <g id="arrowUp" xlink:href="#dirArrow" transform="translate(30 24)" onmousedown="handlePan(0,-1)">
                  <use xlink:href="#rim" fill="#404040">
                        <set attributeName="fill" to="#808080" begin="arrowUp.mouseover" end="arrowUp.mouseout"/>
                  </use>
                  <path fill="none" stroke="white" stroke-width="1.5" d="M0,-3.0v7 M-2.5,-0.5L0,-3.0L2.5,-0.5"/>
                </g>
                <g id="arrowRight" xlink:href="#dirArrow" transform="rotate(90) translate(36 -43)" onmousedown="handlePan(1,0)">
                  <use xlink:href="#rim" fill="#404040">
                        <set attributeName="fill" to="#808080" begin="arrowRight.mouseover" end="arrowRight.mouseout"/>
                  </use>
                  <path fill="none" stroke="white" stroke-width="1.5" d="M0,-3.0v7 M-2.5,-0.5L0,-3.0L2.5,-0.5"/>
                </g>
                <g id="arrowDown" xlink:href="#dirArrow" transform="rotate(180) translate(-30 -48)" onmousedown="handlePan(0,1)">
                  <use xlink:href="#rim" fill="#404040">
                        <set attributeName="fill" to="#808080" begin="arrowDown.mouseover" end="arrowDown.mouseout"/>
                  </use>
                  <path fill="none" stroke="white" stroke-width="1.5" d="M0,-3.0v7 M-2.5,-0.5L0,-3.0L2.5,-0.5"/>
                </g>
                <g id="arrowLeft" xlink:href="#dirArrow" transform="rotate(270) translate(-36 17)" onmousedown="handlePan(-1,0)">
                  <use xlink:href="#rim" fill="#404040">
                        <set attributeName="fill" to="#808080" begin="arrowLeft.mouseover" end="arrowLeft.mouseout"/>
                  </use>
                  <path fill="none" stroke="white" stroke-width="1.5" d="M0,-3.0v7 M-2.5,-0.5L0,-3.0L2.5,-0.5"/>
                </g>
        </g>
        <svg viewBox="0 0 15 15" width="100%" height="30px" preserveAspectRatio="xMaxYMin meet">
         <g id="arrow_out" transform="scale(0.3 0.3)">
          <a xlink:href="class_urho3_d_1_1_u_i_element_a388303ecaef3a6d4764cf84f3dfcceb8_icgraph_org.svg" target="_base">
           <rect id="button" ry="5" rx="5" y="6" x="6" height="38" width="38"
                fill="#f2f5e9" fill-opacity="0.5" stroke="#606060" stroke-width="1.0"/>
           <path id="arrow"
             d="M 11.500037,31.436501 C 11.940474,20.09759 22.043105,11.32322 32.158766,21.979434 L 37.068811,17.246167 C 37.068811,17.246167 37.088388,32 37.088388,32 L 22.160133,31.978069 C 22.160133,31.978069 26.997745,27.140456 26.997745,27.140456 C 18.528582,18.264221 13.291696,25.230495 11.500037,31.436501 z"
             style="fill:#404040;"/>
          </a>
         </g>
        </svg>
</svg>
