<?xml version="1.0" encoding="UTF-8" standalone="no"?>
<!DOCTYPE svg PUBLIC "-//W3C//DTD SVG 1.1//EN"
 "http://www.w3.org/Graphics/SVG/1.1/DTD/svg11.dtd">
<!-- Generated by graphviz version 2.36.0 (20140111.2315)
 -->
<!-- Title: Urho3D::Input::AddScreenJoystick Pages: 1 -->
<!--zoomable 969 -->
<svg id="main" version="1.1" xmlns="http://www.w3.org/2000/svg" xmlns:xlink="http://www.w3.org/1999/xlink" xml:space="preserve" onload="init(evt)">
<style type="text/css"><![CDATA[
.edge:hover path { stroke: red; }
.edge:hover polygon { stroke: red; fill: red; }
]]></style>
<script type="text/javascript"><![CDATA[
var edges = document.getElementsByTagName('g');
if (edges && edges.length) {
  for (var i=0;i<edges.length;i++) {
    if (edges[i].id.substr(0,4)=='edge') {
      edges[i].setAttribute('class','edge');
    }
  }
}
]]></script>
        <defs>
                <circle id="rim" cx="0" cy="0" r="7"/>
                <circle id="rim2" cx="0" cy="0" r="3.5"/>
                <g id="zoomPlus">
                        <use xlink:href="#rim" fill="#404040">
                                <set attributeName="fill" to="#808080" begin="zoomplus.mouseover" end="zoomplus.mouseout"/>
                        </use>
                        <path d="M-4,0h8M0,-4v8" fill="none" stroke="white" stroke-width="1.5" pointer-events="none"/>
                </g>
                <g id="zoomMin">
                        <use xlink:href="#rim" fill="#404040">
                                <set attributeName="fill" to="#808080" begin="zoomminus.mouseover" end="zoomminus.mouseout"/>
                        </use>
                        <path d="M-4,0h8" fill="none" stroke="white" stroke-width="1.5" pointer-events="none"/>
                </g>
                <g id="dirArrow">
                        <path fill="none" stroke="white" stroke-width="1.5" d="M0,-3.0v7 M-2.5,-0.5L0,-3.0L2.5,-0.5"/>
                </g>
               <g id="resetDef">
                       <use xlink:href="#rim2" fill="#404040">
                               <set attributeName="fill" to="#808080" begin="reset.mouseover" end="reset.mouseout"/>
                       </use>
               </g>
        </defs>

<script type="text/javascript">
var viewWidth = 638;
var viewHeight = 969;
var sectionId = 'dynsection-2';
</script>
<script xlink:href="svgpan.js"/>
<svg id="graph" class="graph">
<g id="viewport">
<title>Urho3D::Input::AddScreenJoystick</title>
<!-- Node1 -->
<g id="node1" class="node"><title>Node1</title>
<polygon fill="#bfbfbf" stroke="black" points="0,-459 0,-489 132,-489 132,-459 0,-459"/>
<text text-anchor="start" x="8" y="-477" font-family="Helvetica,sans-Serif" font-size="10.00">Urho3D::Input::AddScreen</text>
<text text-anchor="middle" x="66" y="-466" font-family="Helvetica,sans-Serif" font-size="10.00">Joystick</text>
</g>
<!-- Node2 -->
<g id="node2" class="node"><title>Node2</title>
<g id="a_node2"><a xlink:href="class_urho3_d_1_1_resource_cache.html#aa1657db0fcf2a1578bcb4bd5a00146ca" target="_top" xlink:title="Return a resource by type and name. Load if not loaded yet. Return null if not found or if fails...">
<polygon fill="none" stroke="red" points="168.5,-841 168.5,-871 295.5,-871 295.5,-841 168.5,-841"/>
<text text-anchor="start" x="176.5" y="-859" font-family="Helvetica,sans-Serif" font-size="10.00">Urho3D::ResourceCache</text>
<text text-anchor="middle" x="232" y="-848" font-family="Helvetica,sans-Serif" font-size="10.00">::GetResource</text>
</a>
</g>
</g>
<!-- Node1&#45;&gt;Node2 -->
<g id="edge1" class="edge"><title>Node1&#45;&gt;Node2</title>
<path fill="none" stroke="midnightblue" d="M67.1166,-489.054C68.3054,-541.837 79.0221,-720.982 168,-826 170.943,-829.473 174.379,-832.573 178.101,-835.335"/>
<polygon fill="midnightblue" stroke="midnightblue" points="176.326,-838.355 186.623,-840.853 180.131,-832.48 176.326,-838.355"/>
</g>
<!-- Node4 -->
<g id="node4" class="node"><title>Node4</title>
<g id="a_node4"><a xlink:href="class_urho3_d_1_1_vector.html#a06762e9e70b9851f54a845555f28cd4b" target="_top" xlink:title="Return size of vector. ">
<polygon fill="none" stroke="black" points="508,-917.5 508,-936.5 618,-936.5 618,-917.5 508,-917.5"/>
<text text-anchor="middle" x="563" y="-924.5" font-family="Helvetica,sans-Serif" font-size="10.00">Urho3D::Vector::Size</text>
</a>
</g>
</g>
<!-- Node1&#45;&gt;Node4 -->
<g id="edge29" class="edge"><title>Node1&#45;&gt;Node4</title>
<path fill="none" stroke="midnightblue" d="M68.2189,-489.413C74.1135,-559.676 102.119,-848.599 168,-904 268.878,-988.831 440.617,-959.161 519.766,-939.169"/>
<polygon fill="midnightblue" stroke="midnightblue" points="521.055,-942.45 529.852,-936.546 519.293,-935.675 521.055,-942.45"/>
</g>
<!-- Node5 -->
<g id="node5" class="node"><title>Node5</title>
<g id="a_node5"><a xlink:href="class_urho3_d_1_1_string.html#a6dffd447850e4d687096a79dafe8bdac" target="_top" xlink:title="Return whether starts with a string. ">
<polygon fill="none" stroke="red" points="496,-857.5 496,-876.5 630,-876.5 630,-857.5 496,-857.5"/>
<text text-anchor="middle" x="563" y="-864.5" font-family="Helvetica,sans-Serif" font-size="10.00">Urho3D::String::StartsWith</text>
</a>
</g>
</g>
<!-- Node1&#45;&gt;Node5 -->
<g id="edge15" class="edge"><title>Node1&#45;&gt;Node5</title>
<path fill="none" stroke="midnightblue" d="M68.3355,-489.097C74.6489,-556.631 103.908,-829.899 168,-880 218.059,-919.132 402.774,-894.659 500.476,-878.262"/>
<polygon fill="midnightblue" stroke="midnightblue" points="501.241,-881.682 510.512,-876.555 500.067,-874.781 501.241,-881.682"/>
</g>
<!-- Node6 -->
<g id="node6" class="node"><title>Node6</title>
<g id="a_node6"><a xlink:href="class_urho3_d_1_1_string.html#ade8095f1798d6e1d4ed03d43d9919611" target="_top" xlink:title="Return a substring from position to end. ">
<polygon fill="none" stroke="red" points="498.5,-814.5 498.5,-833.5 627.5,-833.5 627.5,-814.5 498.5,-814.5"/>
<text text-anchor="middle" x="563" y="-821.5" font-family="Helvetica,sans-Serif" font-size="10.00">Urho3D::String::Substring</text>
</a>
</g>
</g>
<!-- Node1&#45;&gt;Node6 -->
<g id="edge28" class="edge"><title>Node1&#45;&gt;Node6</title>
<path fill="none" stroke="midnightblue" d="M66.6787,-489.017C66.4885,-539.859 73.3725,-706.59 168,-783 215.656,-821.481 387.757,-826.261 488.045,-825.609"/>
<polygon fill="midnightblue" stroke="midnightblue" points="488.145,-829.108 498.115,-825.523 488.086,-822.108 488.145,-829.108"/>
</g>
<!-- Node7 -->
<g id="node7" class="node"><title>Node7</title>
<g id="a_node7"><a xlink:href="class_urho3_d_1_1_string.html#a11572e3c07f60de65ac5d0c1ca5b6ba3" target="_top" xlink:title="Return length. ">
<polygon fill="none" stroke="black" points="504.5,-768.5 504.5,-787.5 621.5,-787.5 621.5,-768.5 504.5,-768.5"/>
<text text-anchor="middle" x="563" y="-775.5" font-family="Helvetica,sans-Serif" font-size="10.00">Urho3D::String::Length</text>
</a>
</g>
</g>
<!-- Node1&#45;&gt;Node7 -->
<g id="edge19" class="edge"><title>Node1&#45;&gt;Node7</title>
<path fill="none" stroke="midnightblue" d="M67.0976,-489.183C68.3199,-537.55 79.359,-688.723 168,-755 217.82,-792.251 395.178,-788.23 494.091,-782.744"/>
<polygon fill="midnightblue" stroke="midnightblue" points="494.506,-786.226 504.289,-782.158 494.105,-779.237 494.506,-786.226"/>
</g>
<!-- Node8 -->
<g id="node8" class="node"><title>Node8</title>
<g id="a_node8"><a xlink:href="class_urho3_d_1_1_u_i.html#aeb17cee1b62a29b57c557bbaab230243" target="_top" xlink:title="Load a UI layout from an XML file. Optionally specify another XML file for element style...">
<polygon fill="none" stroke="black" points="170.5,-726.5 170.5,-745.5 293.5,-745.5 293.5,-726.5 170.5,-726.5"/>
<text text-anchor="middle" x="232" y="-733.5" font-family="Helvetica,sans-Serif" font-size="10.00">Urho3D::UI::LoadLayout</text>
</a>
</g>
</g>
<!-- Node1&#45;&gt;Node8 -->
<g id="edge7" class="edge"><title>Node1&#45;&gt;Node8</title>
<path fill="none" stroke="midnightblue" d="M68.7997,-489.091C74.67,-531.527 97.16,-652.976 168,-717 169.756,-718.587 171.64,-720.042 173.621,-721.375"/>
<polygon fill="midnightblue" stroke="midnightblue" points="172.378,-724.688 182.82,-726.477 175.773,-718.566 172.378,-724.688"/>
</g>
<!-- Node9 -->
<g id="node9" class="node"><title>Node9</title>
<g id="a_node9"><a xlink:href="class_urho3_d_1_1_u_i.html#a0a91caff1edbcab1038879d9c79a4e44" target="_top" xlink:title="Return root UI element. ">
<polygon fill="none" stroke="black" points="177,-688.5 177,-707.5 287,-707.5 287,-688.5 177,-688.5"/>
<text text-anchor="middle" x="232" y="-695.5" font-family="Helvetica,sans-Serif" font-size="10.00">Urho3D::UI::GetRoot</text>
</a>
</g>
</g>
<!-- Node1&#45;&gt;Node9 -->
<g id="edge8" class="edge"><title>Node1&#45;&gt;Node9</title>
<path fill="none" stroke="midnightblue" d="M70.1719,-489.056C78.8738,-526.646 106.671,-625.367 168,-678 170.525,-680.167 173.287,-682.1 176.199,-683.824"/>
<polygon fill="midnightblue" stroke="midnightblue" points="174.793,-687.034 185.3,-688.394 177.934,-680.779 174.793,-687.034"/>
</g>
<!-- Node10 -->
<g id="node10" class="node"><title>Node10</title>
<g id="a_node10"><a xlink:href="class_urho3_d_1_1_u_i_element.html#aa1d4bf467b99749011b103227deb3004" target="_top" xlink:title="Return size. ">
<polygon fill="none" stroke="black" points="177.5,-639 177.5,-669 286.5,-669 286.5,-639 177.5,-639"/>
<text text-anchor="start" x="185.5" y="-657" font-family="Helvetica,sans-Serif" font-size="10.00">Urho3D::UIElement::</text>
<text text-anchor="middle" x="232" y="-646" font-family="Helvetica,sans-Serif" font-size="10.00">GetSize</text>
</a>
</g>
</g>
<!-- Node1&#45;&gt;Node10 -->
<g id="edge9" class="edge"><title>Node1&#45;&gt;Node10</title>
<path fill="none" stroke="midnightblue" d="M73.2127,-489.454C86.2936,-520.171 119.518,-589.349 168,-629 170.032,-630.662 172.189,-632.225 174.433,-633.692"/>
<polygon fill="midnightblue" stroke="midnightblue" points="173.031,-636.924 183.442,-638.89 176.529,-630.861 173.031,-636.924"/>
</g>
<!-- Node11 -->
<g id="node11" class="node"><title>Node11</title>
<g id="a_node11"><a xlink:href="class_urho3_d_1_1_u_i_element.html#a76a4d4fc652ea858d46846ac2739ee98" target="_top" xlink:title="Add a child element. ">
<polygon fill="none" stroke="red" points="177.5,-590 177.5,-620 286.5,-620 286.5,-590 177.5,-590"/>
<text text-anchor="start" x="185.5" y="-608" font-family="Helvetica,sans-Serif" font-size="10.00">Urho3D::UIElement::</text>
<text text-anchor="middle" x="232" y="-597" font-family="Helvetica,sans-Serif" font-size="10.00">AddChild</text>
</a>
</g>
</g>
<!-- Node1&#45;&gt;Node11 -->
<g id="edge10" class="edge"><title>Node1&#45;&gt;Node11</title>
<path fill="none" stroke="midnightblue" d="M78.1074,-489.336C95.1652,-511.931 129.864,-554.263 168,-580 170.867,-581.935 173.906,-583.755 177.039,-585.461"/>
<polygon fill="midnightblue" stroke="midnightblue" points="175.548,-588.628 186.058,-589.968 178.677,-582.366 175.548,-588.628"/>
</g>
<!-- Node12 -->
<g id="node12" class="node"><title>Node12</title>
<g id="a_node12"><a xlink:href="class_urho3_d_1_1_u_i_element.html#a17892be3e5745eb71075f35038c0dea8" target="_top" xlink:title="Return immediate child elements. ">
<polygon fill="none" stroke="black" points="177.5,-541 177.5,-571 286.5,-571 286.5,-541 177.5,-541"/>
<text text-anchor="start" x="185.5" y="-559" font-family="Helvetica,sans-Serif" font-size="10.00">Urho3D::UIElement::</text>
<text text-anchor="middle" x="232" y="-548" font-family="Helvetica,sans-Serif" font-size="10.00">GetChildren</text>
</a>
</g>
</g>
<!-- Node1&#45;&gt;Node12 -->
<g id="edge11" class="edge"><title>Node1&#45;&gt;Node12</title>
<path fill="none" stroke="midnightblue" d="M91.4046,-489.015C111.557,-501.108 141.113,-518.152 168,-531 172.287,-533.048 176.788,-535.073 181.33,-537.029"/>
<polygon fill="midnightblue" stroke="midnightblue" points="180.079,-540.3 190.655,-540.937 182.784,-533.844 180.079,-540.3"/>
</g>
<!-- Node13 -->
<g id="node13" class="node"><title>Node13</title>
<g id="a_node13"><a xlink:href="class_urho3_d_1_1_vector.html#aa20f23bae4cf1d7cda06f6c3b47c7504" target="_top" xlink:title="Return iterator to the beginning. ">
<polygon fill="none" stroke="black" points="174,-502.5 174,-521.5 290,-521.5 290,-502.5 174,-502.5"/>
<text text-anchor="middle" x="232" y="-509.5" font-family="Helvetica,sans-Serif" font-size="10.00">Urho3D::Vector::Begin</text>
</a>
</g>
</g>
<!-- Node1&#45;&gt;Node13 -->
<g id="edge12" class="edge"><title>Node1&#45;&gt;Node13</title>
<path fill="none" stroke="midnightblue" d="M131.817,-489.019C147.828,-492.728 164.754,-496.65 180.003,-500.184"/>
<polygon fill="midnightblue" stroke="midnightblue" points="179.223,-503.596 189.755,-502.443 180.803,-496.776 179.223,-503.596"/>
</g>
<!-- Node14 -->
<g id="node14" class="node"><title>Node14</title>
<g id="a_node14"><a xlink:href="class_urho3_d_1_1_vector.html#af79ffb0683568b08fe130ee028bfd1ef" target="_top" xlink:title="Return iterator to the end. ">
<polygon fill="none" stroke="black" points="178,-464.5 178,-483.5 286,-483.5 286,-464.5 178,-464.5"/>
<text text-anchor="middle" x="232" y="-471.5" font-family="Helvetica,sans-Serif" font-size="10.00">Urho3D::Vector::End</text>
</a>
</g>
</g>
<!-- Node1&#45;&gt;Node14 -->
<g id="edge13" class="edge"><title>Node1&#45;&gt;Node14</title>
<path fill="none" stroke="midnightblue" d="M132.288,-474C143.964,-474 156.112,-474 167.73,-474"/>
<polygon fill="midnightblue" stroke="midnightblue" points="167.778,-477.5 177.778,-474 167.778,-470.5 167.778,-477.5"/>
</g>
<!-- Node15 -->
<g id="node15" class="node"><title>Node15</title>
<g id="a_node15"><a xlink:href="class_urho3_d_1_1_u_i_element.html#a784af86dd836d5257b7c807f8cb9b072" target="_top" xlink:title="Return name. ">
<polygon fill="none" stroke="black" points="177.5,-415 177.5,-445 286.5,-445 286.5,-415 177.5,-415"/>
<text text-anchor="start" x="185.5" y="-433" font-family="Helvetica,sans-Serif" font-size="10.00">Urho3D::UIElement::</text>
<text text-anchor="middle" x="232" y="-422" font-family="Helvetica,sans-Serif" font-size="10.00">GetName</text>
</a>
</g>
</g>
<!-- Node1&#45;&gt;Node15 -->
<g id="edge14" class="edge"><title>Node1&#45;&gt;Node15</title>
<path fill="none" stroke="midnightblue" d="M122.981,-458.981C137.306,-455.138 152.812,-450.977 167.486,-447.04"/>
<polygon fill="midnightblue" stroke="midnightblue" points="168.735,-450.329 177.486,-444.357 166.921,-443.568 168.735,-450.329"/>
</g>
<!-- Node16 -->
<g id="node16" class="node"><title>Node16</title>
<g id="a_node16"><a xlink:href="class_urho3_d_1_1_u_i_element.html#a60ca2f5cb5f011368ef3f40e6cd4ef64" target="_top" xlink:title="Template version of returning child element by index using dynamic cast. May return 0 when casting fa...">
<polygon fill="none" stroke="red" points="174.5,-366 174.5,-396 289.5,-396 289.5,-366 174.5,-366"/>
<text text-anchor="start" x="182.5" y="-384" font-family="Helvetica,sans-Serif" font-size="10.00">Urho3D::UIElement::</text>
<text text-anchor="middle" x="232" y="-373" font-family="Helvetica,sans-Serif" font-size="10.00">GetChildDynamicCast</text>
</a>
</g>
</g>
<!-- Node1&#45;&gt;Node16 -->
<g id="edge16" class="edge"><title>Node1&#45;&gt;Node16</title>
<path fill="none" stroke="midnightblue" d="M86.7073,-458.861C106.508,-444.11 138.268,-421.674 168,-406 171.912,-403.938 176.032,-401.942 180.216,-400.039"/>
<polygon fill="midnightblue" stroke="midnightblue" points="181.652,-403.231 189.421,-396.027 178.856,-396.814 181.652,-403.231"/>
</g>
<!-- Node17 -->
<g id="node17" class="node"><title>Node17</title>
<g id="a_node17"><a xlink:href="class_urho3_d_1_1_u_i_element.html#a8a0131dfc7f06ce10cdb77418ec830a9" target="_top" xlink:title="Set whether is visible. Visibility propagates to child elements. ">
<polygon fill="none" stroke="red" points="177.5,-317 177.5,-347 286.5,-347 286.5,-317 177.5,-317"/>
<text text-anchor="start" x="185.5" y="-335" font-family="Helvetica,sans-Serif" font-size="10.00">Urho3D::UIElement::</text>
<text text-anchor="middle" x="232" y="-324" font-family="Helvetica,sans-Serif" font-size="10.00">SetVisible</text>
</a>
</g>
</g>
<!-- Node1&#45;&gt;Node17 -->
<g id="edge17" class="edge"><title>Node1&#45;&gt;Node17</title>
<path fill="none" stroke="midnightblue" d="M76.662,-458.633C92.8148,-434.061 127.545,-385.772 168,-357 170.637,-355.124 173.435,-353.363 176.328,-351.714"/>
<polygon fill="midnightblue" stroke="midnightblue" points="177.963,-354.808 185.228,-347.097 174.74,-348.595 177.963,-354.808"/>
</g>
<!-- Node18 -->
<g id="node18" class="node"><title>Node18</title>
<g id="a_node18"><a xlink:href="class_urho3_d_1_1_text.html#a0c97b8f60cad489151940e742be739ba" target="_top" xlink:title="Return text. ">
<polygon fill="none" stroke="black" points="173.5,-278.5 173.5,-297.5 290.5,-297.5 290.5,-278.5 173.5,-278.5"/>
<text text-anchor="middle" x="232" y="-285.5" font-family="Helvetica,sans-Serif" font-size="10.00">Urho3D::Text::GetText</text>
</a>
</g>
</g>
<!-- Node1&#45;&gt;Node18 -->
<g id="edge18" class="edge"><title>Node1&#45;&gt;Node18</title>
<path fill="none" stroke="midnightblue" d="M72.115,-458.652C83.7791,-425.997 115.471,-349.258 168,-308 170.925,-305.703 174.118,-303.667 177.466,-301.863"/>
<polygon fill="midnightblue" stroke="midnightblue" points="179.019,-305.001 186.609,-297.608 176.065,-298.654 179.019,-305.001"/>
</g>
<!-- Node19 -->
<g id="node19" class="node"><title>Node19</title>
<g id="a_node19"><a xlink:href="class_urho3_d_1_1_hash_map.html#a9dc4e5c0ad1feb3eec2d2f1f1714698d" target="_top" xlink:title="Return iterator to the pair with key, or end iterator if not found. ">
<polygon fill="none" stroke="black" points="170.5,-240.5 170.5,-259.5 293.5,-259.5 293.5,-240.5 170.5,-240.5"/>
<text text-anchor="middle" x="232" y="-247.5" font-family="Helvetica,sans-Serif" font-size="10.00">Urho3D::HashMap::Find</text>
</a>
</g>
</g>
<!-- Node1&#45;&gt;Node19 -->
<g id="edge20" class="edge"><title>Node1&#45;&gt;Node19</title>
<path fill="none" stroke="midnightblue" d="M70.1024,-458.817C78.6437,-420.92 106.099,-321.453 168,-269 170.021,-267.287 172.193,-265.729 174.471,-264.312"/>
<polygon fill="midnightblue" stroke="midnightblue" points="176.442,-267.232 183.697,-259.51 173.21,-261.022 176.442,-267.232"/>
</g>
<!-- Node20 -->
<g id="node20" class="node"><title>Node20</title>
<g id="a_node20"><a xlink:href="class_urho3_d_1_1_hash_map.html#a47eb201d8441d4e4be8626e615cb562d" target="_top" xlink:title="Return iterator to the end. ">
<polygon fill="none" stroke="black" points="171,-202.5 171,-221.5 293,-221.5 293,-202.5 171,-202.5"/>
<text text-anchor="middle" x="232" y="-209.5" font-family="Helvetica,sans-Serif" font-size="10.00">Urho3D::HashMap::End</text>
</a>
</g>
</g>
<!-- Node1&#45;&gt;Node20 -->
<g id="edge21" class="edge"><title>Node1&#45;&gt;Node20</title>
<path fill="none" stroke="midnightblue" d="M68.7997,-458.909C74.67,-416.473 97.16,-295.024 168,-231 169.756,-229.413 171.64,-227.958 173.621,-226.625"/>
<polygon fill="midnightblue" stroke="midnightblue" points="175.773,-229.434 182.82,-221.523 172.378,-223.312 175.773,-229.434"/>
</g>
<!-- Node21 -->
<g id="node21" class="node"><title>Node21</title>
<g id="a_node21"><a xlink:href="class_urho3_d_1_1_string.html#a6b405eba451da6c0f216a8649adf79aa" target="_top" xlink:title="Return the C string. ">
<polygon fill="none" stroke="black" points="335.5,-145.5 335.5,-164.5 456.5,-164.5 456.5,-145.5 335.5,-145.5"/>
<text text-anchor="middle" x="396" y="-152.5" font-family="Helvetica,sans-Serif" font-size="10.00">Urho3D::String::CString</text>
</a>
</g>
</g>
<!-- Node1&#45;&gt;Node21 -->
<g id="edge22" class="edge"><title>Node1&#45;&gt;Node21</title>
<path fill="none" stroke="midnightblue" d="M69.4371,-458.692C79.0798,-400.261 116.562,-192.668 168,-155 223.361,-114.458 308.423,-129.065 357.175,-142.556"/>
<polygon fill="midnightblue" stroke="midnightblue" points="356.425,-145.983 367.004,-145.398 358.369,-139.258 356.425,-145.983"/>
</g>
<!-- Node22 -->
<g id="node22" class="node"><title>Node22</title>
<g id="a_node22"><a xlink:href="class_urho3_d_1_1_u_i_element.html#a7a085bb6b90aad996999804bd7e8a3e7" target="_top" xlink:title="Set a user variable. ">
<polygon fill="none" stroke="black" points="177.5,-77 177.5,-107 286.5,-107 286.5,-77 177.5,-77"/>
<text text-anchor="start" x="185.5" y="-95" font-family="Helvetica,sans-Serif" font-size="10.00">Urho3D::UIElement::</text>
<text text-anchor="middle" x="232" y="-84" font-family="Helvetica,sans-Serif" font-size="10.00">SetVar</text>
</a>
</g>
</g>
<!-- Node1&#45;&gt;Node22 -->
<g id="edge23" class="edge"><title>Node1&#45;&gt;Node22</title>
<path fill="none" stroke="midnightblue" d="M67.1166,-458.946C68.3054,-406.163 79.0221,-227.018 168,-122 170.943,-118.527 174.379,-115.427 178.101,-112.665"/>
<polygon fill="midnightblue" stroke="midnightblue" points="180.131,-115.52 186.623,-107.147 176.326,-109.645 180.131,-115.52"/>
</g>
<!-- Node23 -->
<g id="node23" class="node"><title>Node23</title>
<g id="a_node23"><a xlink:href="class_urho3_d_1_1_string.html#a3d2477d745f6e572795b77ac69075c5d" target="_top" xlink:title="Return whether contains a specific occurrence of a string. ">
<polygon fill="none" stroke="black" points="168.5,-38.5 168.5,-57.5 295.5,-57.5 295.5,-38.5 168.5,-38.5"/>
<text text-anchor="middle" x="232" y="-45.5" font-family="Helvetica,sans-Serif" font-size="10.00">Urho3D::String::Contains</text>
</a>
</g>
</g>
<!-- Node1&#45;&gt;Node23 -->
<g id="edge24" class="edge"><title>Node1&#45;&gt;Node23</title>
<path fill="none" stroke="midnightblue" d="M68.7846,-458.893C76.9143,-392.486 112.458,-127.19 168,-68 169.786,-66.0962 171.753,-64.3729 173.853,-62.813"/>
<polygon fill="midnightblue" stroke="midnightblue" points="175.776,-65.7405 182.521,-57.57 172.153,-59.751 175.776,-65.7405"/>
</g>
<!-- Node24 -->
<g id="node24" class="node"><title>Node24</title>
<g id="a_node24"><a xlink:href="class_urho3_d_1_1_string.html#a4dc53d77ff4ceff2adfbabc0d5e64eea" target="_top" xlink:title="Return substrings split by a separator char. By default don&#39;t return empty strings. ">
<polygon fill="none" stroke="black" points="178.5,-164.5 178.5,-183.5 285.5,-183.5 285.5,-164.5 178.5,-164.5"/>
<text text-anchor="middle" x="232" y="-171.5" font-family="Helvetica,sans-Serif" font-size="10.00">Urho3D::String::Split</text>
</a>
</g>
</g>
<!-- Node1&#45;&gt;Node24 -->
<g id="edge25" class="edge"><title>Node1&#45;&gt;Node24</title>
<path fill="none" stroke="midnightblue" d="M67.8367,-458.986C71.2547,-412.391 88.1007,-268.838 168,-193 169.649,-191.434 171.423,-189.997 173.292,-188.679"/>
<polygon fill="midnightblue" stroke="midnightblue" points="175.114,-191.668 182.004,-183.619 171.599,-185.614 175.114,-191.668"/>
</g>
<!-- Node25 -->
<g id="node25" class="node"><title>Node25</title>
<g id="a_node25"><a xlink:href="class_urho3_d_1_1_vector.html#a5d21ed173348c7bca276c417ed7d38e2" target="_top" xlink:title="Resize the vector. ">
<polygon fill="none" stroke="black" points="171,-0.5 171,-19.5 293,-19.5 293,-0.5 171,-0.5"/>
<text text-anchor="middle" x="232" y="-7.5" font-family="Helvetica,sans-Serif" font-size="10.00">Urho3D::Vector::Resize</text>
</a>
</g>
</g>
<!-- Node1&#45;&gt;Node25 -->
<g id="edge27" class="edge"><title>Node1&#45;&gt;Node25</title>
<path fill="none" stroke="midnightblue" d="M68.4104,-458.872C75.2584,-388.537 107.214,-94.179 168,-29 169.232,-27.6789 170.552,-26.4485 171.945,-25.3027"/>
<polygon fill="midnightblue" stroke="midnightblue" points="174.164,-28.0328 180.607,-19.6217 170.325,-22.1794 174.164,-28.0328"/>
</g>
<!-- Node3 -->
<g id="node3" class="node"><title>Node3</title>
<g id="a_node3"><a xlink:href="class_urho3_d_1_1_resource_cache.html#acaf617b205d693cd493febfc01c330a8" target="_top" xlink:title="Remove unsupported constructs from the resource name to prevent ambiguity, and normalize absolute fil...">
<polygon fill="none" stroke="red" points="332.5,-841 332.5,-871 459.5,-871 459.5,-841 332.5,-841"/>
<text text-anchor="start" x="340.5" y="-859" font-family="Helvetica,sans-Serif" font-size="10.00">Urho3D::ResourceCache</text>
<text text-anchor="middle" x="396" y="-848" font-family="Helvetica,sans-Serif" font-size="10.00">::SanitateResourceName</text>
</a>
</g>
</g>
<!-- Node2&#45;&gt;Node3 -->
<g id="edge2" class="edge"><title>Node2&#45;&gt;Node3</title>
<path fill="none" stroke="midnightblue" d="M295.633,-856C304.273,-856 313.206,-856 322.012,-856"/>
<polygon fill="midnightblue" stroke="midnightblue" points="322.266,-859.5 332.266,-856 322.266,-852.5 322.266,-859.5"/>
</g>
<!-- Node3&#45;&gt;Node4 -->
<g id="edge3" class="edge"><title>Node3&#45;&gt;Node4</title>
<path fill="none" stroke="midnightblue" d="M431.992,-871.057C461.102,-883.583 502.182,-901.26 530.329,-913.372"/>
<polygon fill="midnightblue" stroke="midnightblue" points="529.135,-916.668 539.704,-917.406 531.902,-910.238 529.135,-916.668"/>
</g>
<!-- Node3&#45;&gt;Node5 -->
<g id="edge4" class="edge"><title>Node3&#45;&gt;Node5</title>
<path fill="none" stroke="midnightblue" d="M459.85,-860.19C468.294,-860.753 477.03,-861.335 485.675,-861.912"/>
<polygon fill="midnightblue" stroke="midnightblue" points="485.548,-865.411 495.758,-862.584 486.013,-858.426 485.548,-865.411"/>
</g>
<!-- Node3&#45;&gt;Node6 -->
<g id="edge5" class="edge"><title>Node3&#45;&gt;Node6</title>
<path fill="none" stroke="midnightblue" d="M459.85,-843.811C473.994,-841.068 488.956,-838.166 502.939,-835.454"/>
<polygon fill="midnightblue" stroke="midnightblue" points="503.771,-838.858 512.921,-833.518 502.438,-831.986 503.771,-838.858"/>
</g>
<!-- Node3&#45;&gt;Node7 -->
<g id="edge6" class="edge"><title>Node3&#45;&gt;Node7</title>
<path fill="none" stroke="midnightblue" d="M424.842,-840.83C444.505,-830.321 471.595,-816.252 496,-805 506.139,-800.326 517.324,-795.594 527.561,-791.426"/>
<polygon fill="midnightblue" stroke="midnightblue" points="529.048,-794.6 537.02,-787.622 526.436,-788.106 529.048,-794.6"/>
</g>
<!-- Node24&#45;&gt;Node21 -->
<g id="edge26" class="edge"><title>Node24&#45;&gt;Node21</title>
<path fill="none" stroke="midnightblue" d="M285.597,-167.831C298.26,-166.346 311.983,-164.737 325.292,-163.176"/>
<polygon fill="midnightblue" stroke="midnightblue" points="325.84,-166.635 335.364,-161.994 325.024,-159.683 325.84,-166.635"/>
</g>
</g>
</svg>
        <g id="navigator" transform="translate(0 0)" fill="#404254">
                <rect fill="#f2f5e9" fill-opacity="0.5" stroke="#606060" stroke-width=".5" x="0" y="0" width="60" height="60"/>
                <use id="zoomplus" xlink:href="#zoomPlus" x="17" y="9" onmousedown="handleZoom(evt,'in')"/>
                <use id="zoomminus" xlink:href="#zoomMin" x="42" y="9" onmousedown="handleZoom(evt,'out')"/>
                <use id="reset" xlink:href="#resetDef" x="30" y="36" onmousedown="handleReset()"/>
                <g id="arrowUp" xlink:href="#dirArrow" transform="translate(30 24)" onmousedown="handlePan(0,-1)">
                  <use xlink:href="#rim" fill="#404040">
                        <set attributeName="fill" to="#808080" begin="arrowUp.mouseover" end="arrowUp.mouseout"/>
                  </use>
                  <path fill="none" stroke="white" stroke-width="1.5" d="M0,-3.0v7 M-2.5,-0.5L0,-3.0L2.5,-0.5"/>
                </g>
                <g id="arrowRight" xlink:href="#dirArrow" transform="rotate(90) translate(36 -43)" onmousedown="handlePan(1,0)">
                  <use xlink:href="#rim" fill="#404040">
                        <set attributeName="fill" to="#808080" begin="arrowRight.mouseover" end="arrowRight.mouseout"/>
                  </use>
                  <path fill="none" stroke="white" stroke-width="1.5" d="M0,-3.0v7 M-2.5,-0.5L0,-3.0L2.5,-0.5"/>
                </g>
                <g id="arrowDown" xlink:href="#dirArrow" transform="rotate(180) translate(-30 -48)" onmousedown="handlePan(0,1)">
                  <use xlink:href="#rim" fill="#404040">
                        <set attributeName="fill" to="#808080" begin="arrowDown.mouseover" end="arrowDown.mouseout"/>
                  </use>
                  <path fill="none" stroke="white" stroke-width="1.5" d="M0,-3.0v7 M-2.5,-0.5L0,-3.0L2.5,-0.5"/>
                </g>
                <g id="arrowLeft" xlink:href="#dirArrow" transform="rotate(270) translate(-36 17)" onmousedown="handlePan(-1,0)">
                  <use xlink:href="#rim" fill="#404040">
                        <set attributeName="fill" to="#808080" begin="arrowLeft.mouseover" end="arrowLeft.mouseout"/>
                  </use>
                  <path fill="none" stroke="white" stroke-width="1.5" d="M0,-3.0v7 M-2.5,-0.5L0,-3.0L2.5,-0.5"/>
                </g>
        </g>
        <svg viewBox="0 0 15 15" width="100%" height="30px" preserveAspectRatio="xMaxYMin meet">
         <g id="arrow_out" transform="scale(0.3 0.3)">
          <a xlink:href="class_urho3_d_1_1_input_a108458dfa956947d861e96c58d269e85_cgraph_org.svg" target="_base">
           <rect id="button" ry="5" rx="5" y="6" x="6" height="38" width="38"
                fill="#f2f5e9" fill-opacity="0.5" stroke="#606060" stroke-width="1.0"/>
           <path id="arrow"
             d="M 11.500037,31.436501 C 11.940474,20.09759 22.043105,11.32322 32.158766,21.979434 L 37.068811,17.246167 C 37.068811,17.246167 37.088388,32 37.088388,32 L 22.160133,31.978069 C 22.160133,31.978069 26.997745,27.140456 26.997745,27.140456 C 18.528582,18.264221 13.291696,25.230495 11.500037,31.436501 z"
             style="fill:#404040;"/>
          </a>
         </g>
        </svg>
</svg>
