<?xml version="1.0" encoding="UTF-8" standalone="no"?>
<!DOCTYPE svg PUBLIC "-//W3C//DTD SVG 1.1//EN"
 "http://www.w3.org/Graphics/SVG/1.1/DTD/svg11.dtd">
<!-- Generated by graphviz version 2.40.1 (20161225.0304)
 -->
<!-- Title: Urho3D::Camera::ScreenToWorldPoint Pages: 1 -->
<!--zoomable 332 -->
<svg id="main" version="1.1" xmlns="http://www.w3.org/2000/svg" xmlns:xlink="http://www.w3.org/1999/xlink" xml:space="preserve" onload="init(evt)">
<style type="text/css"><![CDATA[
.edge:hover path { stroke: red; }
.edge:hover polygon { stroke: red; fill: red; }
]]></style>
<script type="text/javascript"><![CDATA[
var edges = document.getElementsByTagName('g');
if (edges && edges.length) {
  for (var i=0;i<edges.length;i++) {
    if (edges[i].id.substr(0,4)=='edge') {
      edges[i].setAttribute('class','edge');
    }
  }
}
]]></script>
        <defs>
                <circle id="rim" cx="0" cy="0" r="7"/>
                <circle id="rim2" cx="0" cy="0" r="3.5"/>
                <g id="zoomPlus">
                        <use xlink:href="#rim" fill="#404040">
                                <set attributeName="fill" to="#808080" begin="zoomplus.mouseover" end="zoomplus.mouseout"/>
                        </use>
                        <path d="M-4,0h8M0,-4v8" fill="none" stroke="white" stroke-width="1.5" pointer-events="none"/>
                </g>
                <g id="zoomMin">
                        <use xlink:href="#rim" fill="#404040">
                                <set attributeName="fill" to="#808080" begin="zoomminus.mouseover" end="zoomminus.mouseout"/>
                        </use>
                        <path d="M-4,0h8" fill="none" stroke="white" stroke-width="1.5" pointer-events="none"/>
                </g>
                <g id="dirArrow">
                        <path fill="none" stroke="white" stroke-width="1.5" d="M0,-3.0v7 M-2.5,-0.5L0,-3.0L2.5,-0.5"/>
                </g>
               <g id="resetDef">
                       <use xlink:href="#rim2" fill="#404040">
                               <set attributeName="fill" to="#808080" begin="reset.mouseover" end="reset.mouseout"/>
                       </use>
               </g>
        </defs>

<script type="text/javascript">
var viewWidth = 1004;
var viewHeight = 332;
var sectionId = 'dynsection-4';
</script>
<script xlink:href="svgpan.js"/>
<svg id="graph" class="graph">
<g id="viewport">
<title>Urho3D::Camera::ScreenToWorldPoint</title>
<!-- Node10 -->
<g id="node1" class="node">
<title>Node10</title>
<polygon fill="#bfbfbf" stroke="#000000" points="0,-131.5 0,-161.5 147,-161.5 147,-131.5 0,-131.5"/>
<text text-anchor="start" x="8" y="-149.5" font-family="Helvetica,sans-Serif" font-size="10.00" fill="#000000">Urho3D::Camera::ScreenTo</text>
<text text-anchor="middle" x="73.5" y="-138.5" font-family="Helvetica,sans-Serif" font-size="10.00" fill="#000000">WorldPoint</text>
</g>
<!-- Node11 -->
<g id="node2" class="node">
<title>Node11</title>
<g id="a_node2"><a xlink:href="class_urho3_d_1_1_camera.html#a653cf41d95901dc68abdc463b4b3d5fc" target="_top" xlink:title="Return ray corresponding to normalized screen coordinates (0 &#45; 1), with origin on the near clip plane...">
<polygon fill="none" stroke="#000000" points="183,-156 183,-175 356,-175 356,-156 183,-156"/>
<text text-anchor="middle" x="269.5" y="-163" font-family="Helvetica,sans-Serif" font-size="10.00" fill="#000000">Urho3D::Camera::GetScreenRay</text>
</a>
</g>
</g>
<!-- Node10&#45;&gt;Node11 -->
<g id="edge1" class="edge">
<title>Node10&#45;&gt;Node11</title>
<path fill="none" stroke="#191970" d="M147.0408,-153.629C155.3947,-154.4388 164.0019,-155.2731 172.5979,-156.1064"/>
<polygon fill="#191970" stroke="#191970" points="172.3767,-159.6013 182.6678,-157.0826 173.0522,-152.634 172.3767,-159.6013"/>
</g>
<!-- Node15 -->
<g id="node6" class="node">
<title>Node15</title>
<g id="a_node6"><a xlink:href="class_urho3_d_1_1_camera.html#a24305d3e4346c9eb4f8f3c2e50c5323d" target="_top" xlink:title="Return near clip distance. If a custom projection matrix is in use, is calculated from it instead of ...">
<polygon fill="none" stroke="#000000" points="608.5,-304 608.5,-323 771.5,-323 771.5,-304 608.5,-304"/>
<text text-anchor="middle" x="690" y="-311" font-family="Helvetica,sans-Serif" font-size="10.00" fill="#000000">Urho3D::Camera::GetNearClip</text>
</a>
</g>
</g>
<!-- Node10&#45;&gt;Node15 -->
<g id="edge22" class="edge">
<title>Node10&#45;&gt;Node15</title>
<path fill="none" stroke="#191970" d="M97.9058,-161.7369C149.7366,-193.1955 275.5967,-264.8601 392,-294.5 459.6742,-311.732 538.6402,-316.0899 598.2764,-316.3511"/>
<polygon fill="#191970" stroke="#191970" points="598.4244,-319.851 608.4264,-316.357 598.4285,-312.8511 598.4244,-319.851"/>
</g>
<!-- Node19 -->
<g id="node10" class="node">
<title>Node19</title>
<g id="a_node10"><a xlink:href="class_urho3_d_1_1_camera.html#a86a2e6d78d0ac6c20e043ada2f573401" target="_top" xlink:title="Return view matrix. ">
<polygon fill="none" stroke="#000000" points="409.5,-58 409.5,-77 554.5,-77 554.5,-58 409.5,-58"/>
<text text-anchor="middle" x="482" y="-65" font-family="Helvetica,sans-Serif" font-size="10.00" fill="#000000">Urho3D::Camera::GetView</text>
</a>
</g>
</g>
<!-- Node10&#45;&gt;Node19 -->
<g id="edge19" class="edge">
<title>Node10&#45;&gt;Node19</title>
<path fill="none" stroke="#191970" d="M147.2886,-141.3924C204.8329,-136.2584 286.396,-126.4435 356,-108.5 372.6238,-104.2145 375.7656,-100.082 392,-94.5 406.7902,-89.4146 423.1255,-84.3513 437.7741,-80.0068"/>
<polygon fill="#191970" stroke="#191970" points="438.9959,-83.2959 447.6063,-77.1225 437.0254,-76.579 438.9959,-83.2959"/>
</g>
<!-- Node25 -->
<g id="node16" class="node">
<title>Node25</title>
<g id="a_node16"><a xlink:href="_math_defs_8h.html#a8096c22c3716e172f685af2a5f5e26bb" target="_top" xlink:title="Return the larger of two values. ">
<polygon fill="none" stroke="#000000" points="229.5,-62 229.5,-81 309.5,-81 309.5,-62 229.5,-62"/>
<text text-anchor="middle" x="269.5" y="-69" font-family="Helvetica,sans-Serif" font-size="10.00" fill="#000000">Urho3D::Max</text>
</a>
</g>
</g>
<!-- Node10&#45;&gt;Node25 -->
<g id="edge20" class="edge">
<title>Node10&#45;&gt;Node25</title>
<path fill="none" stroke="#191970" d="M113.1635,-131.3226C148.8985,-117.6485 200.9043,-97.7483 234.9641,-84.7153"/>
<polygon fill="#191970" stroke="#191970" points="236.4042,-87.9118 244.493,-81.069 233.9025,-81.374 236.4042,-87.9118"/>
</g>
<!-- Node12 -->
<g id="node3" class="node">
<title>Node12</title>
<g id="a_node3"><a xlink:href="class_urho3_d_1_1_camera.html#ab80937e50cbb6c26ee2b653d9bbd1a1e" target="_top" xlink:title="Return if projection parameters are valid for rendering and raycasting. ">
<polygon fill="none" stroke="#000000" points="401.5,-254.5 401.5,-284.5 562.5,-284.5 562.5,-254.5 401.5,-254.5"/>
<text text-anchor="start" x="409.5" y="-272.5" font-family="Helvetica,sans-Serif" font-size="10.00" fill="#000000">Urho3D::Camera::IsProjection</text>
<text text-anchor="middle" x="482" y="-261.5" font-family="Helvetica,sans-Serif" font-size="10.00" fill="#000000">Valid</text>
</a>
</g>
</g>
<!-- Node11&#45;&gt;Node12 -->
<g id="edge2" class="edge">
<title>Node11&#45;&gt;Node12</title>
<path fill="none" stroke="#191970" d="M282.4705,-175.1014C304.1762,-190.8032 349.656,-222.1593 392,-241.5 399.7028,-245.0183 407.9691,-248.2583 416.2564,-251.1888"/>
<polygon fill="#191970" stroke="#191970" points="415.3676,-254.5832 425.962,-254.4849 417.6187,-247.955 415.3676,-254.5832"/>
</g>
<!-- Node16 -->
<g id="node7" class="node">
<title>Node16</title>
<g id="a_node7"><a xlink:href="class_urho3_d_1_1_node.html#a8f3fe7808b7af4975ddb21be8a269ece" target="_top" xlink:title="Return position in world space. ">
<polygon fill="none" stroke="#000000" points="814.5,-96 814.5,-115 989.5,-115 989.5,-96 814.5,-96"/>
<text text-anchor="middle" x="902" y="-103" font-family="Helvetica,sans-Serif" font-size="10.00" fill="#000000">Urho3D::Node::GetWorldPosition</text>
</a>
</g>
</g>
<!-- Node11&#45;&gt;Node16 -->
<g id="edge7" class="edge">
<title>Node11&#45;&gt;Node16</title>
<path fill="none" stroke="#191970" d="M297.252,-155.9768C327.411,-145.7921 373.736,-130.6718 392,-127.5 533.754,-102.8821 700.8182,-100.64 804.0845,-102.2944"/>
<polygon fill="#191970" stroke="#191970" points="804.1251,-105.7956 814.1851,-102.4719 804.2482,-98.7966 804.1251,-105.7956"/>
</g>
<!-- Node17 -->
<g id="node8" class="node">
<title>Node17</title>
<g id="a_node8"><a xlink:href="class_urho3_d_1_1_node.html#afe17e6e94b7ab99663c827442db45a5e" target="_top" xlink:title="Return direction in world space. ">
<polygon fill="none" stroke="#000000" points="392,-137 392,-156 572,-156 572,-137 392,-137"/>
<text text-anchor="middle" x="482" y="-144" font-family="Helvetica,sans-Serif" font-size="10.00" fill="#000000">Urho3D::Node::GetWorldDirection</text>
</a>
</g>
</g>
<!-- Node11&#45;&gt;Node17 -->
<g id="edge8" class="edge">
<title>Node11&#45;&gt;Node17</title>
<path fill="none" stroke="#191970" d="M356.2384,-157.7446C364.6519,-156.9923 373.2345,-156.2249 381.7652,-155.4622"/>
<polygon fill="#191970" stroke="#191970" points="382.0939,-158.9468 391.7425,-154.5701 381.4705,-151.9746 382.0939,-158.9468"/>
</g>
<!-- Node18 -->
<g id="node9" class="node">
<title>Node18</title>
<g id="a_node9"><a xlink:href="class_urho3_d_1_1_camera.html#ad705a7447b5db893eb5642f0d05c02ca" target="_top" xlink:title="Return projection matrix. It&#39;s in D3D convention with depth range 0 &#45; 1. ">
<polygon fill="none" stroke="#000000" points="397,-175 397,-194 567,-194 567,-175 397,-175"/>
<text text-anchor="middle" x="482" y="-182" font-family="Helvetica,sans-Serif" font-size="10.00" fill="#000000">Urho3D::Camera::GetProjection</text>
</a>
</g>
</g>
<!-- Node11&#45;&gt;Node18 -->
<g id="edge9" class="edge">
<title>Node11&#45;&gt;Node18</title>
<path fill="none" stroke="#191970" d="M356.2384,-173.2554C366.3088,-174.1558 376.6214,-175.0779 386.7974,-175.9878"/>
<polygon fill="#191970" stroke="#191970" points="386.6418,-179.4877 396.9138,-176.8923 387.2652,-172.5155 386.6418,-179.4877"/>
</g>
<!-- Node11&#45;&gt;Node19 -->
<g id="edge11" class="edge">
<title>Node11&#45;&gt;Node19</title>
<path fill="none" stroke="#191970" d="M324.9095,-155.8591C335.7897,-152.4249 346.7005,-147.7793 356,-141.5 377.8068,-126.7755 370.3476,-109.4506 392,-94.5 400.6469,-88.5295 410.6403,-83.8542 420.7553,-80.2002"/>
<polygon fill="#191970" stroke="#191970" points="422.0509,-83.4584 430.4504,-77.001 419.8573,-76.811 422.0509,-83.4584"/>
</g>
<!-- Node23 -->
<g id="node14" class="node">
<title>Node23</title>
<g id="a_node14"><a xlink:href="class_urho3_d_1_1_vector3.html#a005fcc19e10062672549703f42401854" target="_top" xlink:title="Return normalized to unit length. ">
<polygon fill="none" stroke="#000000" points="403,-213 403,-232 561,-232 561,-213 403,-213"/>
<text text-anchor="middle" x="482" y="-220" font-family="Helvetica,sans-Serif" font-size="10.00" fill="#000000">Urho3D::Vector3::Normalized</text>
</a>
</g>
</g>
<!-- Node11&#45;&gt;Node23 -->
<g id="edge16" class="edge">
<title>Node11&#45;&gt;Node23</title>
<path fill="none" stroke="#191970" d="M297.507,-175.0012C322.1994,-183.1821 359.2436,-194.9814 392,-203.5 401.9554,-206.089 412.5989,-208.578 422.954,-210.8535"/>
<polygon fill="#191970" stroke="#191970" points="422.2489,-214.2818 432.7617,-212.966 423.7229,-207.4388 422.2489,-214.2818"/>
</g>
<!-- Node13 -->
<g id="node4" class="node">
<title>Node13</title>
<g id="a_node4"><a xlink:href="class_urho3_d_1_1_camera.html#aca9722244be40c0db7c31f891b8cb1bb" target="_top" xlink:title="Return far clip distance. If a custom projection matrix is in use, is calculated from it instead of t...">
<polygon fill="none" stroke="#000000" points="613,-266 613,-285 767,-285 767,-266 613,-266"/>
<text text-anchor="middle" x="690" y="-273" font-family="Helvetica,sans-Serif" font-size="10.00" fill="#000000">Urho3D::Camera::GetFarClip</text>
</a>
</g>
</g>
<!-- Node12&#45;&gt;Node13 -->
<g id="edge3" class="edge">
<title>Node12&#45;&gt;Node13</title>
<path fill="none" stroke="#191970" d="M562.7159,-271.8283C575.8197,-272.2063 589.4433,-272.5993 602.6956,-272.9816"/>
<polygon fill="#191970" stroke="#191970" points="602.6457,-276.4815 612.7425,-273.2714 602.8476,-269.4844 602.6457,-276.4815"/>
</g>
<!-- Node12&#45;&gt;Node15 -->
<g id="edge5" class="edge">
<title>Node12&#45;&gt;Node15</title>
<path fill="none" stroke="#191970" d="M553,-284.5192C579.79,-290.1864 609.8392,-296.5429 634.9539,-301.8556"/>
<polygon fill="#191970" stroke="#191970" points="634.5243,-305.3421 645.0322,-303.9876 635.9731,-298.4937 634.5243,-305.3421"/>
</g>
<!-- Node14 -->
<g id="node5" class="node">
<title>Node14</title>
<g id="a_node5"><a xlink:href="class_urho3_d_1_1_camera.html#aa2ca83a0c0ffdede12922e6ed72b69b6" target="_top" xlink:title="Recalculate projection matrix. ">
<polygon fill="none" stroke="#000000" points="808,-266 808,-285 996,-285 996,-266 808,-266"/>
<text text-anchor="middle" x="902" y="-273" font-family="Helvetica,sans-Serif" font-size="10.00" fill="#000000">Urho3D::Camera::UpdateProjection</text>
</a>
</g>
</g>
<!-- Node13&#45;&gt;Node14 -->
<g id="edge4" class="edge">
<title>Node13&#45;&gt;Node14</title>
<path fill="none" stroke="#191970" d="M767.1366,-275.5C777.0814,-275.5 787.3931,-275.5 797.6837,-275.5"/>
<polygon fill="#191970" stroke="#191970" points="797.9529,-279.0001 807.9528,-275.5 797.9528,-272.0001 797.9529,-279.0001"/>
</g>
<!-- Node15&#45;&gt;Node14 -->
<g id="edge6" class="edge">
<title>Node15&#45;&gt;Node14</title>
<path fill="none" stroke="#191970" d="M743.2229,-303.96C772.2045,-298.7652 808.253,-292.3037 838.673,-286.8511"/>
<polygon fill="#191970" stroke="#191970" points="839.5296,-290.2534 848.7552,-285.0439 838.2945,-283.3632 839.5296,-290.2534"/>
</g>
<!-- Node18&#45;&gt;Node14 -->
<g id="edge10" class="edge">
<title>Node18&#45;&gt;Node14</title>
<path fill="none" stroke="#191970" d="M567.2126,-178.9232C625.9583,-177.5453 705.184,-180.6196 772,-200.5 814.2609,-213.0743 857.4535,-241.7952 881.8809,-259.8225"/>
<polygon fill="#191970" stroke="#191970" points="879.9006,-262.7126 889.9949,-265.9305 884.1105,-257.12 879.9006,-262.7126"/>
</g>
<!-- Node20 -->
<g id="node11" class="node">
<title>Node20</title>
<g id="a_node11"><a xlink:href="class_urho3_d_1_1_camera.html#a08d24e076d62c0b397817f2c9f92cc41" target="_top" xlink:title="Get effective world transform for matrix and frustum calculations including reflection but excluding ...">
<polygon fill="none" stroke="#000000" points="608,-49.5 608,-79.5 772,-79.5 772,-49.5 608,-49.5"/>
<text text-anchor="start" x="616" y="-67.5" font-family="Helvetica,sans-Serif" font-size="10.00" fill="#000000">Urho3D::Camera::GetEffective</text>
<text text-anchor="middle" x="690" y="-56.5" font-family="Helvetica,sans-Serif" font-size="10.00" fill="#000000">WorldTransform</text>
</a>
</g>
</g>
<!-- Node19&#45;&gt;Node20 -->
<g id="edge12" class="edge">
<title>Node19&#45;&gt;Node20</title>
<path fill="none" stroke="#191970" d="M554.7483,-66.4507C568.5117,-66.2522 583.0801,-66.0421 597.3594,-65.8362"/>
<polygon fill="#191970" stroke="#191970" points="597.7418,-69.3311 607.6902,-65.6872 597.6407,-62.3318 597.7418,-69.3311"/>
</g>
<!-- Node22 -->
<g id="node13" class="node">
<title>Node22</title>
<g id="a_node13"><a xlink:href="class_urho3_d_1_1_matrix3x4.html#a8d184f29d81512103ed020bc0da8a69b" target="_top" xlink:title="Return inverse. ">
<polygon fill="none" stroke="#000000" points="633,-.5 633,-30.5 747,-30.5 747,-.5 633,-.5"/>
<text text-anchor="start" x="641" y="-18.5" font-family="Helvetica,sans-Serif" font-size="10.00" fill="#000000">Urho3D::Matrix3x4::</text>
<text text-anchor="middle" x="690" y="-7.5" font-family="Helvetica,sans-Serif" font-size="10.00" fill="#000000">Inverse</text>
</a>
</g>
</g>
<!-- Node19&#45;&gt;Node22 -->
<g id="edge15" class="edge">
<title>Node19&#45;&gt;Node22</title>
<path fill="none" stroke="#191970" d="M520.1504,-57.9624C548.8645,-50.7839 588.9556,-40.7611 622.977,-32.2557"/>
<polygon fill="#191970" stroke="#191970" points="624.0053,-35.6065 632.8579,-29.7855 622.3075,-28.8155 624.0053,-35.6065"/>
</g>
<!-- Node20&#45;&gt;Node16 -->
<g id="edge13" class="edge">
<title>Node20&#45;&gt;Node16</title>
<path fill="none" stroke="#191970" d="M767.7372,-79.5341C792.4428,-84.312 819.3581,-89.5174 842.5594,-94.0044"/>
<polygon fill="#191970" stroke="#191970" points="842.1137,-97.483 852.5964,-95.9455 843.4429,-90.6103 842.1137,-97.483"/>
</g>
<!-- Node21 -->
<g id="node12" class="node">
<title>Node21</title>
<g id="a_node12"><a xlink:href="class_urho3_d_1_1_node.html#ad74175e15dfaa86263299e355a2d49ed" target="_top" xlink:title="Return rotation in world space. ">
<polygon fill="none" stroke="#000000" points="814,-55 814,-74 990,-74 990,-55 814,-55"/>
<text text-anchor="middle" x="902" y="-62" font-family="Helvetica,sans-Serif" font-size="10.00" fill="#000000">Urho3D::Node::GetWorldRotation</text>
</a>
</g>
</g>
<!-- Node20&#45;&gt;Node21 -->
<g id="edge14" class="edge">
<title>Node20&#45;&gt;Node21</title>
<path fill="none" stroke="#191970" d="M772.2682,-64.5C782.5878,-64.5 793.2237,-64.5 803.757,-64.5"/>
<polygon fill="#191970" stroke="#191970" points="803.8108,-68.0001 813.8107,-64.5 803.8107,-61.0001 803.8108,-68.0001"/>
</g>
<!-- Node24 -->
<g id="node15" class="node">
<title>Node24</title>
<g id="a_node15"><a xlink:href="_math_defs_8h.html#ad6a5d6144733a3594df64e9f8cbb3610" target="_top" xlink:title="Check whether two floating point values are equal within accuracy. ">
<polygon fill="none" stroke="#000000" points="644,-210 644,-229 736,-229 736,-210 644,-210"/>
<text text-anchor="middle" x="690" y="-217" font-family="Helvetica,sans-Serif" font-size="10.00" fill="#000000">Urho3D::Equals</text>
</a>
</g>
</g>
<!-- Node23&#45;&gt;Node24 -->
<g id="edge17" class="edge">
<title>Node23&#45;&gt;Node24</title>
<path fill="none" stroke="#191970" d="M561.2292,-221.3573C585.313,-221.0099 611.2784,-220.6354 633.5406,-220.3143"/>
<polygon fill="#191970" stroke="#191970" points="633.8684,-223.8101 643.8169,-220.1661 633.7674,-216.8108 633.8684,-223.8101"/>
</g>
<!-- Node24&#45;&gt;Node24 -->
<g id="edge18" class="edge">
<title>Node24&#45;&gt;Node24</title>
<path fill="none" stroke="#191970" d="M658.2006,-229.1119C642.2283,-237.9613 652.8281,-247.5 690,-247.5 716.7173,-247.5 729.7074,-242.5723 728.9703,-236.5146"/>
<polygon fill="#191970" stroke="#191970" points="731.2711,-233.8593 721.7994,-229.1119 726.2432,-238.7298 731.2711,-233.8593"/>
</g>
<!-- Node25&#45;&gt;Node25 -->
<g id="edge21" class="edge">
<title>Node25&#45;&gt;Node25</title>
<path fill="none" stroke="#191970" d="M239.2907,-81.2571C224.5943,-90.0653 234.6641,-99.5 269.5,-99.5 293.994,-99.5 306.244,-94.8356 306.25,-89.0043"/>
<polygon fill="#191970" stroke="#191970" points="308.8347,-86.6402 299.7093,-81.2571 303.486,-91.1559 308.8347,-86.6402"/>
</g>
</g>
</svg>
        <g id="navigator" transform="translate(0 0)" fill="#404254">
                <rect fill="#f2f5e9" fill-opacity="0.5" stroke="#606060" stroke-width=".5" x="0" y="0" width="60" height="60"/>
                <use id="zoomplus" xlink:href="#zoomPlus" x="17" y="9" onmousedown="handleZoom(evt,'in')"/>
                <use id="zoomminus" xlink:href="#zoomMin" x="42" y="9" onmousedown="handleZoom(evt,'out')"/>
                <use id="reset" xlink:href="#resetDef" x="30" y="36" onmousedown="handleReset()"/>
                <g id="arrowUp" xlink:href="#dirArrow" transform="translate(30 24)" onmousedown="handlePan(0,-1)">
                  <use xlink:href="#rim" fill="#404040">
                        <set attributeName="fill" to="#808080" begin="arrowUp.mouseover" end="arrowUp.mouseout"/>
                  </use>
                  <path fill="none" stroke="white" stroke-width="1.5" d="M0,-3.0v7 M-2.5,-0.5L0,-3.0L2.5,-0.5"/>
                </g>
                <g id="arrowRight" xlink:href="#dirArrow" transform="rotate(90) translate(36 -43)" onmousedown="handlePan(1,0)">
                  <use xlink:href="#rim" fill="#404040">
                        <set attributeName="fill" to="#808080" begin="arrowRight.mouseover" end="arrowRight.mouseout"/>
                  </use>
                  <path fill="none" stroke="white" stroke-width="1.5" d="M0,-3.0v7 M-2.5,-0.5L0,-3.0L2.5,-0.5"/>
                </g>
                <g id="arrowDown" xlink:href="#dirArrow" transform="rotate(180) translate(-30 -48)" onmousedown="handlePan(0,1)">
                  <use xlink:href="#rim" fill="#404040">
                        <set attributeName="fill" to="#808080" begin="arrowDown.mouseover" end="arrowDown.mouseout"/>
                  </use>
                  <path fill="none" stroke="white" stroke-width="1.5" d="M0,-3.0v7 M-2.5,-0.5L0,-3.0L2.5,-0.5"/>
                </g>
                <g id="arrowLeft" xlink:href="#dirArrow" transform="rotate(270) translate(-36 17)" onmousedown="handlePan(-1,0)">
                  <use xlink:href="#rim" fill="#404040">
                        <set attributeName="fill" to="#808080" begin="arrowLeft.mouseover" end="arrowLeft.mouseout"/>
                  </use>
                  <path fill="none" stroke="white" stroke-width="1.5" d="M0,-3.0v7 M-2.5,-0.5L0,-3.0L2.5,-0.5"/>
                </g>
        </g>
        <svg viewBox="0 0 15 15" width="100%" height="30px" preserveAspectRatio="xMaxYMin meet">
         <g id="arrow_out" transform="scale(0.3 0.3)">
          <a xlink:href="class_urho3_d_1_1_camera_a8d093c3479b71a707f3ec8887380396a_cgraph_org.svg" target="_base">
           <rect id="button" ry="5" rx="5" y="6" x="6" height="38" width="38"
                fill="#f2f5e9" fill-opacity="0.5" stroke="#606060" stroke-width="1.0"/>
           <path id="arrow"
             d="M 11.500037,31.436501 C 11.940474,20.09759 22.043105,11.32322 32.158766,21.979434 L 37.068811,17.246167 C 37.068811,17.246167 37.088388,32 37.088388,32 L 22.160133,31.978069 C 22.160133,31.978069 26.997745,27.140456 26.997745,27.140456 C 18.528582,18.264221 13.291696,25.230495 11.500037,31.436501 z"
             style="fill:#404040;"/>
          </a>
         </g>
        </svg>
</svg>
