<?xml version="1.0" encoding="UTF-8" standalone="no"?>
<!DOCTYPE svg PUBLIC "-//W3C//DTD SVG 1.1//EN"
 "http://www.w3.org/Graphics/SVG/1.1/DTD/svg11.dtd">
<!-- Generated by graphviz version 2.36.0 (20140111.2315)
 -->
<!-- Title: Urho3D::TmxObjectGroup2D Pages: 1 -->
<svg width="1956pt" height="685pt"
 viewBox="0.00 0.00 1956.00 685.00" xmlns="http://www.w3.org/2000/svg" xmlns:xlink="http://www.w3.org/1999/xlink">
<g id="graph0" class="graph" transform="scale(1 1) rotate(0) translate(4 681)">
<title>Urho3D::TmxObjectGroup2D</title>
<!-- Node1 -->
<g id="node1" class="node"><title>Node1</title>
<polygon fill="#bfbfbf" stroke="black" points="1804.5,-74.5 1804.5,-93.5 1947.5,-93.5 1947.5,-74.5 1804.5,-74.5"/>
<text text-anchor="middle" x="1876" y="-81.5" font-family="Helvetica,sans-Serif" font-size="10.00">Urho3D::TmxObjectGroup2D</text>
</g>
<!-- Node2 -->
<g id="node2" class="node"><title>Node2</title>
<g id="a_node2"><a xlink:href="class_urho3_d_1_1_tmx_layer2_d.html" target="_top" xlink:title="Tmx layer. ">
<polygon fill="none" stroke="black" points="1652.5,-116.5 1652.5,-135.5 1765.5,-135.5 1765.5,-116.5 1652.5,-116.5"/>
<text text-anchor="middle" x="1709" y="-123.5" font-family="Helvetica,sans-Serif" font-size="10.00">Urho3D::TmxLayer2D</text>
</a>
</g>
</g>
<!-- Node2&#45;&gt;Node1 -->
<g id="edge1" class="edge"><title>Node2&#45;&gt;Node1</title>
<path fill="none" stroke="midnightblue" d="M1757.25,-113.972C1782.69,-107.497 1813.64,-99.6191 1837.42,-93.5653"/>
<polygon fill="midnightblue" stroke="midnightblue" points="1756.27,-110.611 1747.44,-116.47 1758,-117.395 1756.27,-110.611"/>
</g>
<!-- Node3 -->
<g id="node3" class="node"><title>Node3</title>
<g id="a_node3"><a xlink:href="class_urho3_d_1_1_ref_counted.html" target="_top" xlink:title="Base class for intrusively reference&#45;counted objects. These are noncopyable and non&#45;assignable. ">
<polygon fill="none" stroke="black" points="180.5,-193.5 180.5,-212.5 289.5,-212.5 289.5,-193.5 180.5,-193.5"/>
<text text-anchor="middle" x="235" y="-200.5" font-family="Helvetica,sans-Serif" font-size="10.00">Urho3D::RefCounted</text>
</a>
</g>
</g>
<!-- Node3&#45;&gt;Node2 -->
<g id="edge2" class="edge"><title>Node3&#45;&gt;Node2</title>
<path fill="none" stroke="midnightblue" d="M240.001,-183.429C251.664,-132.541 290.618,-0 380,-0 380,-0 380,-0 1488,-0 1581.31,-0 1670.95,-86.4097 1699.01,-116.113"/>
<polygon fill="midnightblue" stroke="midnightblue" points="236.52,-182.966 237.813,-193.481 243.36,-184.454 236.52,-182.966"/>
</g>
<!-- Node6 -->
<g id="node6" class="node"><title>Node6</title>
<g id="a_node6"><a xlink:href="class_urho3_d_1_1_property_set2_d.html" target="_top" xlink:title="Property set. ">
<polygon fill="none" stroke="black" points="1240.5,-116.5 1240.5,-135.5 1361.5,-135.5 1361.5,-116.5 1240.5,-116.5"/>
<text text-anchor="middle" x="1301" y="-123.5" font-family="Helvetica,sans-Serif" font-size="10.00">Urho3D::PropertySet2D</text>
</a>
</g>
</g>
<!-- Node3&#45;&gt;Node6 -->
<g id="edge6" class="edge"><title>Node3&#45;&gt;Node6</title>
<path fill="none" stroke="midnightblue" d="M245.653,-184.639C265.627,-149.457 315.101,-76 380,-76 380,-76 380,-76 963,-76 1078.3,-76 1110,-63.6122 1222,-91 1244.2,-96.4292 1267.92,-107.992 1283.29,-116.344"/>
<polygon fill="midnightblue" stroke="midnightblue" points="242.558,-183.004 240.814,-193.454 248.694,-186.373 242.558,-183.004"/>
</g>
<!-- Node12 -->
<g id="node12" class="node"><title>Node12</title>
<g id="a_node12"><a xlink:href="class_urho3_d_1_1_object.html" target="_top" xlink:title="Base class for objects with type identification, subsystem access and event sending/receiving capabil...">
<polygon fill="none" stroke="red" points="338.5,-538.5 338.5,-557.5 423.5,-557.5 423.5,-538.5 338.5,-538.5"/>
<text text-anchor="middle" x="381" y="-545.5" font-family="Helvetica,sans-Serif" font-size="10.00">Urho3D::Object</text>
</a>
</g>
</g>
<!-- Node3&#45;&gt;Node12 -->
<g id="edge13" class="edge"><title>Node3&#45;&gt;Node12</title>
<path fill="none" stroke="midnightblue" d="M235.714,-223.092C236.019,-279.149 244.558,-439.03 328,-529 331.595,-532.876 336.045,-535.964 340.817,-538.422"/>
<polygon fill="midnightblue" stroke="midnightblue" points="239.215,-222.781 235.75,-212.769 232.215,-222.757 239.215,-222.781"/>
</g>
<!-- Node4 -->
<g id="node4" class="node"><title>Node4</title>
<g id="a_node4"><a xlink:href="struct_urho3_d_1_1_ref_count.html" target="_top" xlink:title="Reference count structure. ">
<polygon fill="none" stroke="black" points="0,-477.5 0,-496.5 98,-496.5 98,-477.5 0,-477.5"/>
<text text-anchor="middle" x="49" y="-484.5" font-family="Helvetica,sans-Serif" font-size="10.00">Urho3D::RefCount</text>
</a>
</g>
</g>
<!-- Node4&#45;&gt;Node3 -->
<g id="edge3" class="edge"><title>Node4&#45;&gt;Node3</title>
<path fill="none" stroke="#9a32cd" stroke-dasharray="5,2" d="M61.9451,-468.563C97.3702,-413.885 201.037,-253.877 227.693,-212.735"/>
<polygon fill="#9a32cd" stroke="#9a32cd" points="58.8338,-466.928 56.3337,-477.224 64.7085,-470.735 58.8338,-466.928"/>
<text text-anchor="middle" x="139" y="-382" font-family="Helvetica,sans-Serif" font-size="10.00"> refCount_</text>
</g>
<!-- Node9 -->
<g id="node9" class="node"><title>Node9</title>
<g id="a_node9"><a xlink:href="class_urho3_d_1_1_weak_ptr.html" target="_top" xlink:title="Urho3D::WeakPtr\&lt; Urho3D\l::TmxFile2D \&gt;">
<polygon fill="none" stroke="black" points="1418.5,-342 1418.5,-372 1555.5,-372 1555.5,-342 1418.5,-342"/>
<text text-anchor="start" x="1426.5" y="-360" font-family="Helvetica,sans-Serif" font-size="10.00">Urho3D::WeakPtr&lt; Urho3D</text>
<text text-anchor="middle" x="1487" y="-349" font-family="Helvetica,sans-Serif" font-size="10.00">::TmxFile2D &gt;</text>
</a>
</g>
</g>
<!-- Node4&#45;&gt;Node9 -->
<g id="edge33" class="edge"><title>Node4&#45;&gt;Node9</title>
<path fill="none" stroke="#9a32cd" stroke-dasharray="5,2" d="M66.0688,-503.577C96.1121,-532.702 164.1,-590 234,-590 234,-590 234,-590 1302,-590 1413.33,-590 1467.78,-424.124 1482.08,-372.288"/>
<polygon fill="#9a32cd" stroke="#9a32cd" points="68.5107,-501.07 58.9494,-496.505 63.5775,-506.036 68.5107,-501.07"/>
<text text-anchor="middle" x="665" y="-593" font-family="Helvetica,sans-Serif" font-size="10.00"> refCount_</text>
</g>
<!-- Node5 -->
<g id="node5" class="node"><title>Node5</title>
<g id="a_node5"><a xlink:href="class_urho3_d_1_1_shared_ptr.html" target="_top" xlink:title="Urho3D::SharedPtr\&lt;\l Urho3D::PropertySet2D \&gt;">
<polygon fill="none" stroke="black" points="1420.5,-111 1420.5,-141 1553.5,-141 1553.5,-111 1420.5,-111"/>
<text text-anchor="start" x="1428.5" y="-129" font-family="Helvetica,sans-Serif" font-size="10.00">Urho3D::SharedPtr&lt;</text>
<text text-anchor="middle" x="1487" y="-118" font-family="Helvetica,sans-Serif" font-size="10.00"> Urho3D::PropertySet2D &gt;</text>
</a>
</g>
</g>
<!-- Node5&#45;&gt;Node2 -->
<g id="edge4" class="edge"><title>Node5&#45;&gt;Node2</title>
<path fill="none" stroke="#9a32cd" stroke-dasharray="5,2" d="M1563.82,-126C1592.87,-126 1625.45,-126 1652.28,-126"/>
<polygon fill="#9a32cd" stroke="#9a32cd" points="1563.71,-122.5 1553.71,-126 1563.71,-129.5 1563.71,-122.5"/>
<text text-anchor="middle" x="1604" y="-129" font-family="Helvetica,sans-Serif" font-size="10.00"> propertySet_</text>
</g>
<!-- Node6&#45;&gt;Node5 -->
<g id="edge5" class="edge"><title>Node6&#45;&gt;Node5</title>
<path fill="none" stroke="#9a32cd" stroke-dasharray="5,2" d="M1371.98,-126C1387.81,-126 1404.55,-126 1420.2,-126"/>
<polygon fill="#9a32cd" stroke="#9a32cd" points="1371.74,-122.5 1361.74,-126 1371.74,-129.5 1371.74,-122.5"/>
<text text-anchor="middle" x="1390" y="-129" font-family="Helvetica,sans-Serif" font-size="10.00"> ptr_</text>
</g>
<!-- Node7 -->
<g id="node7" class="node"><title>Node7</title>
<g id="a_node7"><a xlink:href="class_urho3_d_1_1_hash_map.html" target="_top" xlink:title="Urho3D::HashMap\&lt; Urho3D\l::String, Urho3D::String \&gt;">
<polygon fill="none" stroke="black" points="891.5,-154 891.5,-184 1032.5,-184 1032.5,-154 891.5,-154"/>
<text text-anchor="start" x="899.5" y="-172" font-family="Helvetica,sans-Serif" font-size="10.00">Urho3D::HashMap&lt; Urho3D</text>
<text text-anchor="middle" x="962" y="-161" font-family="Helvetica,sans-Serif" font-size="10.00">::String, Urho3D::String &gt;</text>
</a>
</g>
</g>
<!-- Node7&#45;&gt;Node6 -->
<g id="edge7" class="edge"><title>Node7&#45;&gt;Node6</title>
<path fill="none" stroke="#9a32cd" stroke-dasharray="5,2" d="M1042.81,-162.725C1094.15,-158.185 1162.21,-151.227 1222,-142 1233.48,-140.229 1245.82,-137.898 1257.22,-135.564"/>
<polygon fill="#9a32cd" stroke="#9a32cd" points="1042.43,-159.245 1032.77,-163.601 1043.03,-166.219 1042.43,-159.245"/>
<text text-anchor="middle" x="1147" y="-163" font-family="Helvetica,sans-Serif" font-size="10.00"> nameToValueMapping_</text>
</g>
<!-- Node8 -->
<g id="node8" class="node"><title>Node8</title>
<g id="a_node8"><a xlink:href="class_urho3_d_1_1_hash_base.html" target="_top" xlink:title="Hash set/map base class. ">
<polygon fill="none" stroke="red" points="709,-312.5 709,-331.5 811,-331.5 811,-312.5 709,-312.5"/>
<text text-anchor="middle" x="760" y="-319.5" font-family="Helvetica,sans-Serif" font-size="10.00">Urho3D::HashBase</text>
</a>
</g>
</g>
<!-- Node8&#45;&gt;Node7 -->
<g id="edge8" class="edge"><title>Node8&#45;&gt;Node7</title>
<path fill="none" stroke="midnightblue" d="M771.687,-303.47C788.806,-275.464 825.065,-222.597 870,-194 876.496,-189.866 883.675,-186.407 891.066,-183.515"/>
<polygon fill="midnightblue" stroke="midnightblue" points="768.562,-301.877 766.447,-312.259 774.574,-305.462 768.562,-301.877"/>
</g>
<!-- Node16 -->
<g id="node16" class="node"><title>Node16</title>
<g id="a_node16"><a xlink:href="class_urho3_d_1_1_hash_map.html" target="_top" xlink:title="Urho3D::HashMap\&lt; Urho3D\l::String, Urho3D::SharedPtr\l\&lt; Urho3D::XMLFile \&gt; \&gt;">
<polygon fill="none" stroke="black" points="891.5,-241.5 891.5,-282.5 1032.5,-282.5 1032.5,-241.5 891.5,-241.5"/>
<text text-anchor="start" x="899.5" y="-270.5" font-family="Helvetica,sans-Serif" font-size="10.00">Urho3D::HashMap&lt; Urho3D</text>
<text text-anchor="start" x="899.5" y="-259.5" font-family="Helvetica,sans-Serif" font-size="10.00">::String, Urho3D::SharedPtr</text>
<text text-anchor="middle" x="962" y="-248.5" font-family="Helvetica,sans-Serif" font-size="10.00">&lt; Urho3D::XMLFile &gt; &gt;</text>
</a>
</g>
</g>
<!-- Node8&#45;&gt;Node16 -->
<g id="edge20" class="edge"><title>Node8&#45;&gt;Node16</title>
<path fill="none" stroke="midnightblue" d="M802.587,-309.524C828.586,-301.724 862.698,-291.491 892.605,-282.518"/>
<polygon fill="midnightblue" stroke="midnightblue" points="801.263,-306.267 792.691,-312.493 803.275,-312.972 801.263,-306.267"/>
</g>
<!-- Node19 -->
<g id="node19" class="node"><title>Node19</title>
<g id="a_node19"><a xlink:href="class_urho3_d_1_1_hash_map.html" target="_top" xlink:title="Urho3D::HashMap\&lt; unsigned,\l Urho3D::SharedPtr\&lt; Urho3D\l::PropertySet2D \&gt; \&gt;">
<polygon fill="none" stroke="black" points="887.5,-433.5 887.5,-474.5 1036.5,-474.5 1036.5,-433.5 887.5,-433.5"/>
<text text-anchor="start" x="895.5" y="-462.5" font-family="Helvetica,sans-Serif" font-size="10.00">Urho3D::HashMap&lt; unsigned,</text>
<text text-anchor="start" x="895.5" y="-451.5" font-family="Helvetica,sans-Serif" font-size="10.00"> Urho3D::SharedPtr&lt; Urho3D</text>
<text text-anchor="middle" x="962" y="-440.5" font-family="Helvetica,sans-Serif" font-size="10.00">::PropertySet2D &gt; &gt;</text>
</a>
</g>
</g>
<!-- Node8&#45;&gt;Node19 -->
<g id="edge24" class="edge"><title>Node8&#45;&gt;Node19</title>
<path fill="none" stroke="midnightblue" d="M775.588,-339.449C795.032,-361.699 831.493,-400.031 870,-423 876.45,-426.847 883.445,-430.3 890.593,-433.378"/>
<polygon fill="midnightblue" stroke="midnightblue" points="778.169,-337.083 768.999,-331.775 772.858,-341.642 778.169,-337.083"/>
</g>
<!-- Node20 -->
<g id="node20" class="node"><title>Node20</title>
<g id="a_node20"><a xlink:href="class_urho3_d_1_1_hash_map.html" target="_top" xlink:title="Urho3D::HashMap\&lt; unsigned,\l Urho3D::Vector\&lt; Urho3D\l::SharedPtr\&lt; Urho3D::TileMapObject2\lD \&gt; \&gt; \&gt;">
<polygon fill="none" stroke="black" points="870.5,-362 870.5,-414 1053.5,-414 1053.5,-362 870.5,-362"/>
<text text-anchor="start" x="878.5" y="-402" font-family="Helvetica,sans-Serif" font-size="10.00">Urho3D::HashMap&lt; unsigned,</text>
<text text-anchor="start" x="878.5" y="-391" font-family="Helvetica,sans-Serif" font-size="10.00"> Urho3D::Vector&lt; Urho3D</text>
<text text-anchor="start" x="878.5" y="-380" font-family="Helvetica,sans-Serif" font-size="10.00">::SharedPtr&lt; Urho3D::TileMapObject2</text>
<text text-anchor="middle" x="962" y="-369" font-family="Helvetica,sans-Serif" font-size="10.00">D &gt; &gt; &gt;</text>
</a>
</g>
</g>
<!-- Node8&#45;&gt;Node20 -->
<g id="edge26" class="edge"><title>Node8&#45;&gt;Node20</title>
<path fill="none" stroke="midnightblue" d="M799.647,-334.753C823.077,-342.485 853.832,-352.634 882.2,-361.996"/>
<polygon fill="midnightblue" stroke="midnightblue" points="800.675,-331.407 790.082,-331.597 798.481,-338.055 800.675,-331.407"/>
</g>
<!-- Node21 -->
<g id="node21" class="node"><title>Node21</title>
<g id="a_node21"><a xlink:href="class_urho3_d_1_1_hash_map.html" target="_top" xlink:title="Urho3D::HashMap\&lt; unsigned,\l Urho3D::SharedPtr\&lt; Urho3D\l::Sprite2D \&gt; \&gt;">
<polygon fill="none" stroke="black" points="887.5,-301.5 887.5,-342.5 1036.5,-342.5 1036.5,-301.5 887.5,-301.5"/>
<text text-anchor="start" x="895.5" y="-330.5" font-family="Helvetica,sans-Serif" font-size="10.00">Urho3D::HashMap&lt; unsigned,</text>
<text text-anchor="start" x="895.5" y="-319.5" font-family="Helvetica,sans-Serif" font-size="10.00"> Urho3D::SharedPtr&lt; Urho3D</text>
<text text-anchor="middle" x="962" y="-308.5" font-family="Helvetica,sans-Serif" font-size="10.00">::Sprite2D &gt; &gt;</text>
</a>
</g>
</g>
<!-- Node8&#45;&gt;Node21 -->
<g id="edge28" class="edge"><title>Node8&#45;&gt;Node21</title>
<path fill="none" stroke="midnightblue" d="M821.469,-322C842.209,-322 865.653,-322 887.321,-322"/>
<polygon fill="midnightblue" stroke="midnightblue" points="821.21,-318.5 811.21,-322 821.21,-325.5 821.21,-318.5"/>
</g>
<!-- Node9&#45;&gt;Node2 -->
<g id="edge9" class="edge"><title>Node9&#45;&gt;Node2</title>
<path fill="none" stroke="#9a32cd" stroke-dasharray="5,2" d="M1509.37,-334.565C1556.06,-285.54 1665.63,-170.484 1698.51,-135.963"/>
<polygon fill="#9a32cd" stroke="#9a32cd" points="1506.8,-332.188 1502.43,-341.843 1511.87,-337.016 1506.8,-332.188"/>
<text text-anchor="middle" x="1604" y="-266" font-family="Helvetica,sans-Serif" font-size="10.00"> tmxFile_</text>
</g>
<!-- Node10 -->
<g id="node10" class="node"><title>Node10</title>
<g id="a_node10"><a xlink:href="class_urho3_d_1_1_tmx_file2_d.html" target="_top" xlink:title="Tile map file. ">
<polygon fill="none" stroke="black" points="1249,-347.5 1249,-366.5 1353,-366.5 1353,-347.5 1249,-347.5"/>
<text text-anchor="middle" x="1301" y="-354.5" font-family="Helvetica,sans-Serif" font-size="10.00">Urho3D::TmxFile2D</text>
</a>
</g>
</g>
<!-- Node10&#45;&gt;Node9 -->
<g id="edge10" class="edge"><title>Node10&#45;&gt;Node9</title>
<path fill="none" stroke="#9a32cd" stroke-dasharray="5,2" d="M1363.39,-357C1380.96,-357 1400.22,-357 1418.16,-357"/>
<polygon fill="#9a32cd" stroke="#9a32cd" points="1363.25,-353.5 1353.25,-357 1363.25,-360.5 1363.25,-353.5"/>
<text text-anchor="middle" x="1390" y="-360" font-family="Helvetica,sans-Serif" font-size="10.00"> ptr_</text>
</g>
<!-- Node11 -->
<g id="node11" class="node"><title>Node11</title>
<g id="a_node11"><a xlink:href="class_urho3_d_1_1_resource.html" target="_top" xlink:title="Base class for resources. ">
<polygon fill="none" stroke="black" points="526,-513.5 526,-532.5 624,-532.5 624,-513.5 526,-513.5"/>
<text text-anchor="middle" x="575" y="-520.5" font-family="Helvetica,sans-Serif" font-size="10.00">Urho3D::Resource</text>
</a>
</g>
</g>
<!-- Node11&#45;&gt;Node10 -->
<g id="edge11" class="edge"><title>Node11&#45;&gt;Node10</title>
<path fill="none" stroke="midnightblue" d="M634.314,-530.439C636.909,-530.653 639.48,-530.842 642,-531 770.706,-539.055 1116.41,-586.038 1222,-512 1273.8,-475.68 1293.1,-394.646 1298.37,-366.697"/>
<polygon fill="midnightblue" stroke="midnightblue" points="634.522,-526.943 624.242,-529.503 633.875,-533.913 634.522,-526.943"/>
</g>
<!-- Node24 -->
<g id="node24" class="node"><title>Node24</title>
<g id="a_node24"><a xlink:href="class_urho3_d_1_1_x_m_l_file.html" target="_top" xlink:title="XML document resource. ">
<polygon fill="none" stroke="red" points="714,-502.5 714,-521.5 806,-521.5 806,-502.5 714,-502.5"/>
<text text-anchor="middle" x="760" y="-509.5" font-family="Helvetica,sans-Serif" font-size="10.00">Urho3D::XMLFile</text>
</a>
</g>
</g>
<!-- Node11&#45;&gt;Node24 -->
<g id="edge32" class="edge"><title>Node11&#45;&gt;Node24</title>
<path fill="none" stroke="midnightblue" d="M634.098,-519.508C659.852,-517.96 689.699,-516.166 713.757,-514.72"/>
<polygon fill="midnightblue" stroke="midnightblue" points="633.853,-516.016 624.081,-520.11 634.273,-523.003 633.853,-516.016"/>
</g>
<!-- Node12&#45;&gt;Node11 -->
<g id="edge12" class="edge"><title>Node12&#45;&gt;Node11</title>
<path fill="none" stroke="midnightblue" d="M433.896,-541.243C462.572,-537.509 497.956,-532.902 525.99,-529.251"/>
<polygon fill="midnightblue" stroke="midnightblue" points="433.125,-537.813 423.661,-542.575 434.029,-544.755 433.125,-537.813"/>
</g>
<!-- Node13 -->
<g id="node13" class="node"><title>Node13</title>
<g id="a_node13"><a xlink:href="class_urho3_d_1_1_timer.html" target="_top" xlink:title="Low&#45;resolution operating system timer. ">
<polygon fill="none" stroke="black" points="340.5,-500.5 340.5,-519.5 421.5,-519.5 421.5,-500.5 340.5,-500.5"/>
<text text-anchor="middle" x="381" y="-507.5" font-family="Helvetica,sans-Serif" font-size="10.00">Urho3D::Timer</text>
</a>
</g>
</g>
<!-- Node13&#45;&gt;Node11 -->
<g id="edge14" class="edge"><title>Node13&#45;&gt;Node11</title>
<path fill="none" stroke="#9a32cd" stroke-dasharray="5,2" d="M432.018,-512.374C455.152,-513.576 482.988,-515.169 508,-517 513.737,-517.42 519.751,-517.905 525.715,-518.413"/>
<polygon fill="#9a32cd" stroke="#9a32cd" points="431.912,-508.864 421.747,-511.85 431.556,-515.855 431.912,-508.864"/>
<text text-anchor="middle" x="480" y="-520" font-family="Helvetica,sans-Serif" font-size="10.00"> useTimer_</text>
</g>
<!-- Node14 -->
<g id="node14" class="node"><title>Node14</title>
<g id="a_node14"><a xlink:href="class_urho3_d_1_1_string.html" target="_top" xlink:title="String class. ">
<polygon fill="none" stroke="black" points="340,-628.5 340,-647.5 422,-647.5 422,-628.5 340,-628.5"/>
<text text-anchor="middle" x="381" y="-635.5" font-family="Helvetica,sans-Serif" font-size="10.00">Urho3D::String</text>
</a>
</g>
</g>
<!-- Node14&#45;&gt;Node2 -->
<g id="edge34" class="edge"><title>Node14&#45;&gt;Node2</title>
<path fill="none" stroke="#9a32cd" stroke-dasharray="5,2" d="M432.019,-642.437C470.74,-645.491 525.728,-649 574,-649 574,-649 574,-649 1488,-649 1603.99,-649 1692.75,-206.408 1706.23,-135.524"/>
<polygon fill="#9a32cd" stroke="#9a32cd" points="432.294,-638.948 422.045,-641.632 431.731,-645.926 432.294,-638.948"/>
<text text-anchor="middle" x="962" y="-652" font-family="Helvetica,sans-Serif" font-size="10.00"> name_</text>
</g>
<!-- Node14&#45;&gt;Node11 -->
<g id="edge15" class="edge"><title>Node14&#45;&gt;Node11</title>
<path fill="none" stroke="#9a32cd" stroke-dasharray="5,2" d="M406.64,-623.242C446.554,-599.335 524.263,-552.79 557.871,-532.661"/>
<polygon fill="#9a32cd" stroke="#9a32cd" points="404.82,-620.252 398.04,-628.393 408.417,-626.257 404.82,-620.252"/>
<text text-anchor="middle" x="480" y="-597" font-family="Helvetica,sans-Serif" font-size="10.00"> name_</text>
</g>
<!-- Node14&#45;&gt;Node14 -->
<g id="edge16" class="edge"><title>Node14&#45;&gt;Node14</title>
<path fill="none" stroke="#9a32cd" stroke-dasharray="5,2" d="M367.741,-657.766C368.782,-662.497 373.202,-666 381,-666 393.797,-666 397.496,-656.565 392.097,-647.757"/>
<polygon fill="#9a32cd" stroke="#9a32cd" points="371.212,-658.271 369.903,-647.757 364.37,-656.793 371.212,-658.271"/>
<text text-anchor="middle" x="381" y="-669" font-family="Helvetica,sans-Serif" font-size="10.00"> EMPTY</text>
</g>
<!-- Node15 -->
<g id="node15" class="node"><title>Node15</title>
<g id="a_node15"><a xlink:href="class_urho3_d_1_1_string_hash.html" target="_top" xlink:title="32&#45;bit hash value for a string. ">
<polygon fill="none" stroke="black" points="328.5,-433.5 328.5,-452.5 433.5,-452.5 433.5,-433.5 328.5,-433.5"/>
<text text-anchor="middle" x="381" y="-440.5" font-family="Helvetica,sans-Serif" font-size="10.00">Urho3D::StringHash</text>
</a>
</g>
</g>
<!-- Node15&#45;&gt;Node11 -->
<g id="edge17" class="edge"><title>Node15&#45;&gt;Node11</title>
<path fill="none" stroke="#9a32cd" stroke-dasharray="5,2" d="M414.44,-456.517C453.203,-472.668 517.071,-499.28 551.057,-513.44"/>
<polygon fill="#9a32cd" stroke="#9a32cd" points="415.737,-453.265 405.16,-452.65 413.044,-459.727 415.737,-453.265"/>
<text text-anchor="middle" x="480" y="-497" font-family="Helvetica,sans-Serif" font-size="10.00"> nameHash_</text>
</g>
<!-- Node15&#45;&gt;Node15 -->
<g id="edge18" class="edge"><title>Node15&#45;&gt;Node15</title>
<path fill="none" stroke="#9a32cd" stroke-dasharray="5,2" d="M367.741,-462.766C368.782,-467.497 373.202,-471 381,-471 393.797,-471 397.496,-461.565 392.097,-452.757"/>
<polygon fill="#9a32cd" stroke="#9a32cd" points="371.212,-463.271 369.903,-452.757 364.37,-461.793 371.212,-463.271"/>
<text text-anchor="middle" x="381" y="-474" font-family="Helvetica,sans-Serif" font-size="10.00"> ZERO</text>
</g>
<!-- Node16&#45;&gt;Node10 -->
<g id="edge19" class="edge"><title>Node16&#45;&gt;Node10</title>
<path fill="none" stroke="#9a32cd" stroke-dasharray="5,2" d="M1042.82,-274.518C1094.72,-283.884 1163.4,-298.602 1222,-319 1243.91,-326.626 1267.68,-338.828 1283.15,-347.341"/>
<polygon fill="#9a32cd" stroke="#9a32cd" points="1043.12,-271.018 1032.67,-272.716 1041.9,-277.911 1043.12,-271.018"/>
<text text-anchor="middle" x="1147" y="-322" font-family="Helvetica,sans-Serif" font-size="10.00"> tsxXMLFiles_</text>
</g>
<!-- Node17 -->
<g id="node17" class="node"><title>Node17</title>
<g id="a_node17"><a xlink:href="class_urho3_d_1_1_vector.html" target="_top" xlink:title="Urho3D::Vector\&lt; Urho3D\l::TmxLayer2D * \&gt;">
<polygon fill="none" stroke="black" points="898,-105 898,-135 1026,-135 1026,-105 898,-105"/>
<text text-anchor="start" x="906" y="-123" font-family="Helvetica,sans-Serif" font-size="10.00">Urho3D::Vector&lt; Urho3D</text>
<text text-anchor="middle" x="962" y="-112" font-family="Helvetica,sans-Serif" font-size="10.00">::TmxLayer2D * &gt;</text>
</a>
</g>
</g>
<!-- Node17&#45;&gt;Node10 -->
<g id="edge21" class="edge"><title>Node17&#45;&gt;Node10</title>
<path fill="none" stroke="#9a32cd" stroke-dasharray="5,2" d="M1026.77,-102.919C1083.59,-91.722 1166.16,-85.8217 1222,-127 1259.67,-154.778 1290.66,-307.342 1298.23,-347.377"/>
<polygon fill="#9a32cd" stroke="#9a32cd" points="1025.9,-99.5243 1016.82,-104.984 1027.33,-106.378 1025.9,-99.5243"/>
<text text-anchor="middle" x="1147" y="-130" font-family="Helvetica,sans-Serif" font-size="10.00"> layers_</text>
</g>
<!-- Node18 -->
<g id="node18" class="node"><title>Node18</title>
<g id="a_node18"><a xlink:href="class_urho3_d_1_1_vector_base.html" target="_top" xlink:title="Vector base class. ">
<polygon fill="none" stroke="black" points="706.5,-28.5 706.5,-47.5 813.5,-47.5 813.5,-28.5 706.5,-28.5"/>
<text text-anchor="middle" x="760" y="-35.5" font-family="Helvetica,sans-Serif" font-size="10.00">Urho3D::VectorBase</text>
</a>
</g>
</g>
<!-- Node18&#45;&gt;Node17 -->
<g id="edge22" class="edge"><title>Node18&#45;&gt;Node17</title>
<path fill="none" stroke="midnightblue" d="M793.843,-51.4658C829.693,-66.1642 886.953,-89.6407 924.268,-104.94"/>
<polygon fill="midnightblue" stroke="midnightblue" points="794.914,-48.1221 784.334,-47.5669 792.259,-54.5989 794.914,-48.1221"/>
</g>
<!-- Node25 -->
<g id="node25" class="node"><title>Node25</title>
<g id="a_node25"><a xlink:href="class_urho3_d_1_1_vector.html" target="_top" xlink:title="Urho3D::Vector\&lt; Urho3D\l::SharedPtr\&lt; Urho3D::TileMap\lObject2D \&gt; \&gt;">
<polygon fill="none" stroke="black" points="1072.5,-18.5 1072.5,-59.5 1221.5,-59.5 1221.5,-18.5 1072.5,-18.5"/>
<text text-anchor="start" x="1080.5" y="-47.5" font-family="Helvetica,sans-Serif" font-size="10.00">Urho3D::Vector&lt; Urho3D</text>
<text text-anchor="start" x="1080.5" y="-36.5" font-family="Helvetica,sans-Serif" font-size="10.00">::SharedPtr&lt; Urho3D::TileMap</text>
<text text-anchor="middle" x="1147" y="-25.5" font-family="Helvetica,sans-Serif" font-size="10.00">Object2D &gt; &gt;</text>
</a>
</g>
</g>
<!-- Node18&#45;&gt;Node25 -->
<g id="edge36" class="edge"><title>Node18&#45;&gt;Node25</title>
<path fill="none" stroke="midnightblue" d="M823.869,-38.1633C891.873,-38.3399 1000.19,-38.6213 1072.19,-38.8083"/>
<polygon fill="midnightblue" stroke="midnightblue" points="823.734,-34.663 813.725,-38.1369 823.716,-41.663 823.734,-34.663"/>
</g>
<!-- Node19&#45;&gt;Node10 -->
<g id="edge23" class="edge"><title>Node19&#45;&gt;Node10</title>
<path fill="none" stroke="#9a32cd" stroke-dasharray="5,2" d="M1046.73,-438.734C1098.05,-428.286 1164.68,-412.754 1222,-393 1243.15,-385.711 1266.29,-374.604 1281.83,-366.656"/>
<polygon fill="#9a32cd" stroke="#9a32cd" points="1045.79,-435.353 1036.68,-440.755 1047.17,-442.215 1045.79,-435.353"/>
<text text-anchor="middle" x="1147" y="-436" font-family="Helvetica,sans-Serif" font-size="10.00"> gidToPropertySetMapping_</text>
</g>
<!-- Node20&#45;&gt;Node10 -->
<g id="edge25" class="edge"><title>Node20&#45;&gt;Node10</title>
<path fill="none" stroke="#9a32cd" stroke-dasharray="5,2" d="M1063.8,-378.728C1124.78,-373.118 1199.96,-366.203 1248.89,-361.702"/>
<polygon fill="#9a32cd" stroke="#9a32cd" points="1063.39,-375.25 1053.75,-379.652 1064.03,-382.221 1063.39,-375.25"/>
<text text-anchor="middle" x="1147" y="-381" font-family="Helvetica,sans-Serif" font-size="10.00"> gidToCollisionShapeMapping_</text>
</g>
<!-- Node21&#45;&gt;Node10 -->
<g id="edge27" class="edge"><title>Node21&#45;&gt;Node10</title>
<path fill="none" stroke="#9a32cd" stroke-dasharray="5,2" d="M1046.52,-330.675C1109.94,-337.261 1195.12,-346.108 1248.79,-351.682"/>
<polygon fill="#9a32cd" stroke="#9a32cd" points="1046.85,-327.189 1036.54,-329.638 1046.12,-334.152 1046.85,-327.189"/>
<text text-anchor="middle" x="1147" y="-352" font-family="Helvetica,sans-Serif" font-size="10.00"> gidToSpriteMapping_</text>
</g>
<!-- Node22 -->
<g id="node22" class="node"><title>Node22</title>
<g id="a_node22"><a xlink:href="struct_urho3_d_1_1_tile_map_info2_d.html" target="_top" xlink:title="Tile map information. ">
<polygon fill="none" stroke="black" points="902,-203.5 902,-222.5 1022,-222.5 1022,-203.5 902,-203.5"/>
<text text-anchor="middle" x="962" y="-210.5" font-family="Helvetica,sans-Serif" font-size="10.00">Urho3D::TileMapInfo2D</text>
</a>
</g>
</g>
<!-- Node22&#45;&gt;Node10 -->
<g id="edge29" class="edge"><title>Node22&#45;&gt;Node10</title>
<path fill="none" stroke="#9a32cd" stroke-dasharray="5,2" d="M1032.15,-215.021C1086.99,-219.364 1163.82,-231.753 1222,-266 1256.97,-286.583 1283.92,-328.608 1294.78,-347.468"/>
<polygon fill="#9a32cd" stroke="#9a32cd" points="1032.4,-211.53 1022.17,-214.3 1031.9,-218.512 1032.4,-211.53"/>
<text text-anchor="middle" x="1147" y="-269" font-family="Helvetica,sans-Serif" font-size="10.00"> info_</text>
</g>
<!-- Node23 -->
<g id="node23" class="node"><title>Node23</title>
<g id="a_node23"><a xlink:href="class_urho3_d_1_1_shared_ptr.html" target="_top" xlink:title="Urho3D::SharedPtr\&lt;\l Urho3D::XMLFile \&gt;">
<polygon fill="none" stroke="black" points="909,-493 909,-523 1015,-523 1015,-493 909,-493"/>
<text text-anchor="start" x="917" y="-511" font-family="Helvetica,sans-Serif" font-size="10.00">Urho3D::SharedPtr&lt;</text>
<text text-anchor="middle" x="962" y="-500" font-family="Helvetica,sans-Serif" font-size="10.00"> Urho3D::XMLFile &gt;</text>
</a>
</g>
</g>
<!-- Node23&#45;&gt;Node10 -->
<g id="edge30" class="edge"><title>Node23&#45;&gt;Node10</title>
<path fill="none" stroke="#9a32cd" stroke-dasharray="5,2" d="M1025.23,-504.503C1080.42,-498.97 1161.43,-484.712 1222,-448 1256.52,-427.076 1283.52,-385.605 1294.57,-366.745"/>
<polygon fill="#9a32cd" stroke="#9a32cd" points="1024.87,-501.021 1015.24,-505.438 1025.52,-507.991 1024.87,-501.021"/>
<text text-anchor="middle" x="1147" y="-500" font-family="Helvetica,sans-Serif" font-size="10.00"> loadXMLFile_</text>
</g>
<!-- Node24&#45;&gt;Node23 -->
<g id="edge31" class="edge"><title>Node24&#45;&gt;Node23</title>
<path fill="none" stroke="#9a32cd" stroke-dasharray="5,2" d="M816.692,-510.886C845.493,-510.31 880.44,-509.611 908.73,-509.045"/>
<polygon fill="#9a32cd" stroke="#9a32cd" points="816.311,-507.393 806.383,-511.092 816.451,-514.392 816.311,-507.393"/>
<text text-anchor="middle" x="842" y="-513" font-family="Helvetica,sans-Serif" font-size="10.00"> ptr_</text>
</g>
<!-- Node25&#45;&gt;Node1 -->
<g id="edge35" class="edge"><title>Node25&#45;&gt;Node1</title>
<path fill="none" stroke="#9a32cd" stroke-dasharray="5,2" d="M1231.64,-50.9258C1277.92,-56.5304 1336.53,-62 1389,-62 1389,-62 1389,-62 1710,-62 1750.31,-62 1795.69,-68.5327 1828.64,-74.4784"/>
<polygon fill="#9a32cd" stroke="#9a32cd" points="1232.01,-47.4453 1221.66,-49.692 1231.16,-54.3924 1232.01,-47.4453"/>
<text text-anchor="middle" x="1487" y="-65" font-family="Helvetica,sans-Serif" font-size="10.00"> objects_</text>
</g>
</g>
</svg>
