<?xml version="1.0" encoding="UTF-8" standalone="no"?>
<!DOCTYPE svg PUBLIC "-//W3C//DTD SVG 1.1//EN"
 "http://www.w3.org/Graphics/SVG/1.1/DTD/svg11.dtd">
<!-- Generated by graphviz version 2.36.0 (20140111.2315)
 -->
<!-- Title: Urho3D::RibbonTrail Pages: 1 -->
<svg width="1192pt" height="831pt"
 viewBox="0.00 0.00 1192.00 831.33" xmlns="http://www.w3.org/2000/svg" xmlns:xlink="http://www.w3.org/1999/xlink">
<g id="graph0" class="graph" transform="scale(1 1) rotate(0) translate(4 827.33)">
<title>Urho3D::RibbonTrail</title>
<!-- Node1 -->
<g id="node1" class="node"><title>Node1</title>
<polygon fill="#bfbfbf" stroke="black" points="1074,-245.83 1074,-264.83 1184,-264.83 1184,-245.83 1074,-245.83"/>
<text text-anchor="middle" x="1129" y="-252.83" font-family="FreeSans" font-size="10.00">Urho3D::RibbonTrail</text>
</g>
<!-- Node2 -->
<g id="node2" class="node"><title>Node2</title>
<g id="a_node2"><a xlink:href="class_urho3_d_1_1_drawable.html" target="_top" xlink:title="Base class for visible components. ">
<polygon fill="none" stroke="black" points="825,-614.83 825,-633.83 929,-633.83 929,-614.83 825,-614.83"/>
<text text-anchor="middle" x="877" y="-621.83" font-family="FreeSans" font-size="10.00">Urho3D::Drawable</text>
</a>
</g>
</g>
<!-- Node2&#45;&gt;Node1 -->
<g id="edge1" class="edge"><title>Node2&#45;&gt;Node1</title>
<path fill="none" stroke="midnightblue" d="M938.151,-610.899C940.276,-609.245 942.242,-607.396 944,-605.33 987.51,-554.19 924.956,-511.332 962,-455.33 988.581,-415.145 1023.03,-436.46 1056,-401.33 1095.84,-358.881 1118.19,-290.21 1125.39,-265.005"/>
<polygon fill="midnightblue" stroke="midnightblue" points="935.963,-608.136 929.283,-616.36 939.633,-614.097 935.963,-608.136"/>
</g>
<!-- Node8 -->
<g id="node8" class="node"><title>Node8</title>
<g id="a_node8"><a xlink:href="class_urho3_d_1_1_zone.html" target="_top" xlink:title="Component that describes global rendering properties. ">
<polygon fill="none" stroke="red" points="1086.5,-648.83 1086.5,-667.83 1171.5,-667.83 1171.5,-648.83 1086.5,-648.83"/>
<text text-anchor="middle" x="1129" y="-655.83" font-family="FreeSans" font-size="10.00">Urho3D::Zone</text>
</a>
</g>
</g>
<!-- Node2&#45;&gt;Node8 -->
<g id="edge12" class="edge"><title>Node2&#45;&gt;Node8</title>
<path fill="none" stroke="midnightblue" d="M939.695,-626.884C974.109,-628.97 1017.64,-632.705 1056,-639.33 1069.5,-641.662 1084.17,-645.321 1096.72,-648.807"/>
<polygon fill="midnightblue" stroke="midnightblue" points="939.508,-623.368 929.324,-626.289 939.107,-630.357 939.508,-623.368"/>
</g>
<!-- Node15 -->
<g id="node15" class="node"><title>Node15</title>
<g id="a_node15"><a xlink:href="class_urho3_d_1_1_light.html" target="_top" xlink:title="Light component. ">
<polygon fill="none" stroke="red" points="1087.5,-480.83 1087.5,-499.83 1170.5,-499.83 1170.5,-480.83 1087.5,-480.83"/>
<text text-anchor="middle" x="1129" y="-487.83" font-family="FreeSans" font-size="10.00">Urho3D::Light</text>
</a>
</g>
</g>
<!-- Node2&#45;&gt;Node15 -->
<g id="edge25" class="edge"><title>Node2&#45;&gt;Node15</title>
<path fill="none" stroke="midnightblue" d="M937.961,-610.302C940.11,-608.807 942.137,-607.155 944,-605.33 963.281,-586.442 942.806,-566.306 962,-547.33 993,-516.682 1014.85,-533.711 1056,-519.33 1072.92,-513.417 1091.69,-505.821 1105.83,-499.886"/>
<polygon fill="midnightblue" stroke="midnightblue" points="936.108,-607.33 929.157,-615.325 939.577,-613.41 936.108,-607.33"/>
</g>
<!-- Node3 -->
<g id="node3" class="node"><title>Node3</title>
<g id="a_node3"><a xlink:href="class_urho3_d_1_1_component.html" target="_top" xlink:title="Base class for components. Components can be created to scene nodes. ">
<polygon fill="none" stroke="black" points="509,-756.83 509,-775.83 625,-775.83 625,-756.83 509,-756.83"/>
<text text-anchor="middle" x="567" y="-763.83" font-family="FreeSans" font-size="10.00">Urho3D::Component</text>
</a>
</g>
</g>
<!-- Node3&#45;&gt;Node2 -->
<g id="edge2" class="edge"><title>Node3&#45;&gt;Node2</title>
<path fill="none" stroke="midnightblue" d="M587.298,-750.362C603.96,-737.385 629.198,-719.605 654,-709.33 711.818,-685.378 734.313,-705.597 792,-681.33 820.591,-669.303 849.573,-646.871 864.894,-634.027"/>
<polygon fill="midnightblue" stroke="midnightblue" points="585.053,-747.675 579.414,-756.645 589.415,-753.15 585.053,-747.675"/>
</g>
<!-- Node4 -->
<g id="node4" class="node"><title>Node4</title>
<g id="a_node4"><a xlink:href="class_urho3_d_1_1_animatable.html" target="_top" xlink:title="Base class for animatable object, an animatable object can be set animation on it&#39;s attributes...">
<polygon fill="none" stroke="red" points="0,-729.83 0,-748.83 114,-748.83 114,-729.83 0,-729.83"/>
<text text-anchor="middle" x="57" y="-736.83" font-family="FreeSans" font-size="10.00">Urho3D::Animatable</text>
</a>
</g>
</g>
<!-- Node4&#45;&gt;Node3 -->
<g id="edge3" class="edge"><title>Node4&#45;&gt;Node3</title>
<path fill="none" stroke="midnightblue" d="M124.097,-744.319C188.778,-749.047 290.113,-756.045 378,-760.33 421.87,-762.469 471.536,-764.016 508.799,-765.004"/>
<polygon fill="midnightblue" stroke="midnightblue" points="124.268,-740.822 114.039,-743.58 123.756,-747.803 124.268,-740.822"/>
</g>
<!-- Node5 -->
<g id="node5" class="node"><title>Node5</title>
<g id="a_node5"><a xlink:href="class_urho3_d_1_1_node.html" target="_top" xlink:title="Scene node that may contain components and child nodes. ">
<polygon fill="none" stroke="red" points="253.5,-676.83 253.5,-695.83 338.5,-695.83 338.5,-676.83 253.5,-676.83"/>
<text text-anchor="middle" x="296" y="-683.83" font-family="FreeSans" font-size="10.00">Urho3D::Node</text>
</a>
</g>
</g>
<!-- Node4&#45;&gt;Node5 -->
<g id="edge5" class="edge"><title>Node4&#45;&gt;Node5</title>
<path fill="none" stroke="midnightblue" d="M110.655,-727.555C153.718,-717.925 213.778,-704.493 253.493,-695.612"/>
<polygon fill="midnightblue" stroke="midnightblue" points="109.64,-724.195 100.645,-729.793 111.167,-731.027 109.64,-724.195"/>
</g>
<!-- Node5&#45;&gt;Node3 -->
<g id="edge4" class="edge"><title>Node5&#45;&gt;Node3</title>
<path fill="none" stroke="#9a32cd" stroke-dasharray="5,2" d="M322.25,-700.837C337.885,-709.3 358.614,-719.599 378,-726.33 391.122,-730.886 466.7,-746.436 517.943,-756.752"/>
<polygon fill="#9a32cd" stroke="#9a32cd" points="323.676,-697.627 313.231,-695.854 320.291,-703.754 323.676,-697.627"/>
<text text-anchor="middle" x="429" y="-751.33" font-family="FreeSans" font-size="10.00"> node_</text>
</g>
<!-- Node5&#45;&gt;Node5 -->
<g id="edge8" class="edge"><title>Node5&#45;&gt;Node5</title>
<path fill="none" stroke="#9a32cd" stroke-dasharray="5,2" d="M273.307,-705.359C274.544,-710.458 282.109,-714.33 296,-714.33 317.684,-714.33 323.952,-704.895 314.804,-696.087"/>
<polygon fill="#9a32cd" stroke="#9a32cd" points="276.555,-706.662 277.196,-696.087 270.1,-703.954 276.555,-706.662"/>
<text text-anchor="middle" x="296" y="-717.33" font-family="FreeSans" font-size="10.00"> parent_</text>
</g>
<!-- Node6 -->
<g id="node6" class="node"><title>Node6</title>
<g id="a_node6"><a xlink:href="class_urho3_d_1_1_vector3.html" target="_top" xlink:title="Three&#45;dimensional vector. ">
<polygon fill="none" stroke="black" points="9,-231.83 9,-250.83 105,-250.83 105,-231.83 9,-231.83"/>
<text text-anchor="middle" x="57" y="-238.83" font-family="FreeSans" font-size="10.00">Urho3D::Vector3</text>
</a>
</g>
</g>
<!-- Node6&#45;&gt;Node1 -->
<g id="edge38" class="edge"><title>Node6&#45;&gt;Node1</title>
<path fill="none" stroke="#9a32cd" stroke-dasharray="5,2" d="M73.3522,-224.314C87.2439,-210.021 108.999,-190.233 132,-179.33 198.635,-147.742 221.257,-148.33 295,-148.33 295,-148.33 295,-148.33 878,-148.33 959.284,-148.33 984.016,-152.576 1056,-190.33 1083.14,-204.565 1108.08,-231.413 1120.23,-245.745"/>
<polygon fill="#9a32cd" stroke="#9a32cd" points="70.7984,-221.921 66.4856,-231.598 75.8919,-226.723 70.7984,-221.921"/>
<text text-anchor="middle" x="567" y="-162.33" font-family="FreeSans" font-size="10.00"> previousOffset_</text>
<text text-anchor="middle" x="567" y="-151.33" font-family="FreeSans" font-size="10.00">previousPosition_</text>
</g>
<!-- Node6&#45;&gt;Node5 -->
<g id="edge6" class="edge"><title>Node6&#45;&gt;Node5</title>
<path fill="none" stroke="#9a32cd" stroke-dasharray="5,2" d="M61.9721,-260.964C70.5981,-300.934 93.4305,-393.848 132,-463.33 159.729,-513.283 187.569,-511.678 214,-562.33 227.868,-588.905 216.481,-601.684 232,-627.33 244.568,-648.099 266.458,-666.209 280.839,-676.708"/>
<polygon fill="#9a32cd" stroke="#9a32cd" points="65.3936,-260.226 59.9146,-251.157 58.5427,-261.663 65.3936,-260.226"/>
<text text-anchor="middle" x="173" y="-576.33" font-family="FreeSans" font-size="10.00"> scale_</text>
<text text-anchor="middle" x="173" y="-565.33" font-family="FreeSans" font-size="10.00">position_</text>
</g>
<!-- Node6&#45;&gt;Node6 -->
<g id="edge7" class="edge"><title>Node6&#45;&gt;Node6</title>
<path fill="none" stroke="#9a32cd" stroke-dasharray="5,2" d="M35.5196,-260.73C36.9541,-265.644 44.1143,-269.33 57,-269.33 77.6172,-269.33 83.5768,-259.895 74.879,-251.087"/>
<polygon fill="#9a32cd" stroke="#9a32cd" points="38.901,-261.68 39.121,-251.087 32.3434,-259.23 38.901,-261.68"/>
<text text-anchor="middle" x="57" y="-349.33" font-family="FreeSans" font-size="10.00"> ONE</text>
<text text-anchor="middle" x="57" y="-338.33" font-family="FreeSans" font-size="10.00">DOWN</text>
<text text-anchor="middle" x="57" y="-327.33" font-family="FreeSans" font-size="10.00">BACK</text>
<text text-anchor="middle" x="57" y="-316.33" font-family="FreeSans" font-size="10.00">RIGHT</text>
<text text-anchor="middle" x="57" y="-305.33" font-family="FreeSans" font-size="10.00">LEFT</text>
<text text-anchor="middle" x="57" y="-294.33" font-family="FreeSans" font-size="10.00">ZERO</text>
<text text-anchor="middle" x="57" y="-283.33" font-family="FreeSans" font-size="10.00">FORWARD</text>
<text text-anchor="middle" x="57" y="-272.33" font-family="FreeSans" font-size="10.00">UP</text>
</g>
<!-- Node9 -->
<g id="node9" class="node"><title>Node9</title>
<g id="a_node9"><a xlink:href="class_urho3_d_1_1_bounding_box.html" target="_top" xlink:title="Three&#45;dimensional axis&#45;aligned bounding box. ">
<polygon fill="none" stroke="black" points="235,-598.83 235,-617.83 357,-617.83 357,-598.83 235,-598.83"/>
<text text-anchor="middle" x="296" y="-605.83" font-family="FreeSans" font-size="10.00">Urho3D::BoundingBox</text>
</a>
</g>
</g>
<!-- Node6&#45;&gt;Node9 -->
<g id="edge14" class="edge"><title>Node6&#45;&gt;Node9</title>
<path fill="none" stroke="#9a32cd" stroke-dasharray="5,2" d="M76.1086,-258.2C109.377,-290.342 179.931,-364.07 214,-441.33 233.28,-485.053 209.728,-505.052 232,-547.33 243.566,-569.285 265.945,-588.012 280.677,-598.72"/>
<polygon fill="#9a32cd" stroke="#9a32cd" points="78.1525,-255.313 68.4987,-250.948 73.3232,-260.381 78.1525,-255.313"/>
<text text-anchor="middle" x="173" y="-455.33" font-family="FreeSans" font-size="10.00"> max_</text>
<text text-anchor="middle" x="173" y="-444.33" font-family="FreeSans" font-size="10.00">min_</text>
</g>
<!-- Node16 -->
<g id="node16" class="node"><title>Node16</title>
<g id="a_node16"><a xlink:href="class_urho3_d_1_1_octant.html" target="_top" xlink:title="Octree octant ">
<polygon fill="none" stroke="red" points="521,-434.83 521,-453.83 613,-453.83 613,-434.83 521,-434.83"/>
<text text-anchor="middle" x="567" y="-441.83" font-family="FreeSans" font-size="10.00">Urho3D::Octant</text>
</a>
</g>
</g>
<!-- Node6&#45;&gt;Node16 -->
<g id="edge30" class="edge"><title>Node6&#45;&gt;Node16</title>
<path fill="none" stroke="#9a32cd" stroke-dasharray="5,2" d="M91.2589,-254.62C186.588,-292.714 459.245,-401.67 541.936,-434.714"/>
<polygon fill="#9a32cd" stroke="#9a32cd" points="92.4054,-251.309 81.8205,-250.849 89.8078,-257.81 92.4054,-251.309"/>
<text text-anchor="middle" x="296" y="-374.33" font-family="FreeSans" font-size="10.00"> center_</text>
<text text-anchor="middle" x="296" y="-363.33" font-family="FreeSans" font-size="10.00">halfSize_</text>
</g>
<!-- Node18 -->
<g id="node18" class="node"><title>Node18</title>
<g id="a_node18"><a xlink:href="struct_urho3_d_1_1_trail_point.html" target="_top" xlink:title="Trail is consisting of series of tails. Two connected points make a tail. ">
<polygon fill="none" stroke="black" points="378.5,-206.83 378.5,-225.83 479.5,-225.83 479.5,-206.83 378.5,-206.83"/>
<text text-anchor="middle" x="429" y="-213.83" font-family="FreeSans" font-size="10.00">Urho3D::TrailPoint</text>
</a>
</g>
</g>
<!-- Node6&#45;&gt;Node18 -->
<g id="edge37" class="edge"><title>Node6&#45;&gt;Node18</title>
<path fill="none" stroke="#9a32cd" stroke-dasharray="5,2" d="M76.9736,-224.973C91.1011,-213.928 111.426,-200.311 132,-194.33 225.026,-167.285 341.055,-191.827 396.132,-206.773"/>
<polygon fill="#9a32cd" stroke="#9a32cd" points="74.585,-222.404 69.0312,-231.427 78.9994,-227.837 74.585,-222.404"/>
<text text-anchor="middle" x="173" y="-219.33" font-family="FreeSans" font-size="10.00"> position_</text>
<text text-anchor="middle" x="173" y="-208.33" font-family="FreeSans" font-size="10.00">forward_</text>
<text text-anchor="middle" x="173" y="-197.33" font-family="FreeSans" font-size="10.00">parentPos_</text>
</g>
<!-- Node7 -->
<g id="node7" class="node"><title>Node7</title>
<g id="a_node7"><a xlink:href="class_urho3_d_1_1_matrix3x4.html" target="_top" xlink:title="3x4 matrix for scene node transform calculations. ">
<polygon fill="none" stroke="black" points="4,-530.83 4,-549.83 110,-549.83 110,-530.83 4,-530.83"/>
<text text-anchor="middle" x="57" y="-537.83" font-family="FreeSans" font-size="10.00">Urho3D::Matrix3x4</text>
</a>
</g>
</g>
<!-- Node7&#45;&gt;Node1 -->
<g id="edge49" class="edge"><title>Node7&#45;&gt;Node1</title>
<path fill="none" stroke="#9a32cd" stroke-dasharray="5,2" d="M60.8899,-520.52C67.2571,-483.582 85.7824,-403.657 132,-356.33 165.801,-321.717 185.146,-325.382 232,-313.33 371.741,-277.385 952.877,-266.405 1056,-260.33 1061.75,-259.991 1067.76,-259.612 1073.75,-259.219"/>
<polygon fill="#9a32cd" stroke="#9a32cd" points="57.4139,-520.092 59.287,-530.52 64.3257,-521.2 57.4139,-520.092"/>
<text text-anchor="middle" x="567" y="-287.33" font-family="FreeSans" font-size="10.00"> transforms_</text>
</g>
<!-- Node7&#45;&gt;Node5 -->
<g id="edge9" class="edge"><title>Node7&#45;&gt;Node5</title>
<path fill="none" stroke="#9a32cd" stroke-dasharray="5,2" d="M82.1625,-555.215C130.729,-585.133 238.985,-651.823 279.393,-676.715"/>
<polygon fill="#9a32cd" stroke="#9a32cd" points="83.9001,-552.174 73.5502,-549.909 80.2286,-558.134 83.9001,-552.174"/>
<text text-anchor="middle" x="173" y="-638.33" font-family="FreeSans" font-size="10.00"> worldTransform_</text>
</g>
<!-- Node7&#45;&gt;Node7 -->
<g id="edge10" class="edge"><title>Node7&#45;&gt;Node7</title>
<path fill="none" stroke="#9a32cd" stroke-dasharray="5,2" d="M35.5196,-559.73C36.9541,-564.644 44.1143,-568.33 57,-568.33 77.6172,-568.33 83.5768,-558.895 74.879,-550.087"/>
<polygon fill="#9a32cd" stroke="#9a32cd" points="38.901,-560.68 39.121,-550.087 32.3434,-558.23 38.901,-560.68"/>
<text text-anchor="middle" x="57" y="-582.33" font-family="FreeSans" font-size="10.00"> IDENTITY</text>
<text text-anchor="middle" x="57" y="-571.33" font-family="FreeSans" font-size="10.00">ZERO</text>
</g>
<!-- Node7&#45;&gt;Node8 -->
<g id="edge17" class="edge"><title>Node7&#45;&gt;Node8</title>
<path fill="none" stroke="#9a32cd" stroke-dasharray="5,2" d="M68.4166,-559.083C81.5861,-581.933 105.731,-621.104 132,-650.33 232.251,-761.867 278.03,-812.33 428,-812.33 428,-812.33 428,-812.33 878,-812.33 988.619,-812.33 1091.33,-701.678 1120.06,-667.963"/>
<polygon fill="#9a32cd" stroke="#9a32cd" points="71.2974,-557.068 63.3197,-550.096 65.2085,-560.521 71.2974,-557.068"/>
<text text-anchor="middle" x="567" y="-815.33" font-family="FreeSans" font-size="10.00"> inverseWorld_</text>
</g>
<!-- Node7&#45;&gt;Node15 -->
<g id="edge27" class="edge"><title>Node7&#45;&gt;Node15</title>
<path fill="none" stroke="#9a32cd" stroke-dasharray="5,2" d="M67.9076,-521.742C90.5929,-481.426 150.681,-386.659 232,-350.33 345.626,-299.568 689.712,-274.444 792,-345.33 810.727,-358.308 793.014,-378.145 810,-393.33 815.254,-398.026 1049.38,-452.916 1056,-455.33 1075.46,-462.425 1096.65,-473.117 1110.98,-480.816"/>
<polygon fill="#9a32cd" stroke="#9a32cd" points="64.7061,-520.3 62.9559,-530.75 70.8403,-523.673 64.7061,-520.3"/>
<text text-anchor="middle" x="567" y="-307.33" font-family="FreeSans" font-size="10.00"> volumeTransform_</text>
</g>
<!-- Node8&#45;&gt;Node2 -->
<g id="edge11" class="edge"><title>Node8&#45;&gt;Node2</title>
<path fill="none" stroke="#9a32cd" stroke-dasharray="5,2" d="M1076.12,-651.592C1043.38,-647.305 1000.2,-641.59 962,-636.33 951.347,-634.863 939.939,-633.257 929.073,-631.71"/>
<polygon fill="#9a32cd" stroke="#9a32cd" points="1076,-655.106 1086.37,-652.931 1076.91,-648.165 1076,-655.106"/>
<text text-anchor="middle" x="1009" y="-652.33" font-family="FreeSans" font-size="10.00"> zone_</text>
</g>
<!-- Node9&#45;&gt;Node2 -->
<g id="edge28" class="edge"><title>Node9&#45;&gt;Node2</title>
<path fill="none" stroke="#9a32cd" stroke-dasharray="5,2" d="M328.897,-621.717C343.605,-627.376 361.441,-633.525 378,-637.33 557.335,-678.537 609.512,-664.938 792,-641.33 806.018,-639.516 821.2,-636.708 834.751,-633.892"/>
<polygon fill="#9a32cd" stroke="#9a32cd" points="329.854,-618.332 319.268,-617.912 327.282,-624.842 329.854,-618.332"/>
<text text-anchor="middle" x="567" y="-677.33" font-family="FreeSans" font-size="10.00"> worldBoundingBox_</text>
<text text-anchor="middle" x="567" y="-666.33" font-family="FreeSans" font-size="10.00">boundingBox_</text>
</g>
<!-- Node9&#45;&gt;Node8 -->
<g id="edge13" class="edge"><title>Node9&#45;&gt;Node8</title>
<path fill="none" stroke="#9a32cd" stroke-dasharray="5,2" d="M316.803,-624.144C332.547,-635.987 355.578,-651.736 378,-661.33 428.35,-682.874 443.593,-683.067 498,-689.33 718.569,-714.722 984.929,-680.449 1086.2,-665.092"/>
<polygon fill="#9a32cd" stroke="#9a32cd" points="318.916,-621.354 308.856,-618.031 314.648,-626.903 318.916,-621.354"/>
<text text-anchor="middle" x="723" y="-701.33" font-family="FreeSans" font-size="10.00"> lastWorldBoundingBox_</text>
</g>
<!-- Node9&#45;&gt;Node16 -->
<g id="edge31" class="edge"><title>Node9&#45;&gt;Node16</title>
<path fill="none" stroke="#9a32cd" stroke-dasharray="5,2" d="M321.247,-593.547C375.478,-560.485 505.334,-481.316 550.332,-453.882"/>
<polygon fill="#9a32cd" stroke="#9a32cd" points="319.342,-590.61 312.625,-598.804 322.986,-596.587 319.342,-590.61"/>
<text text-anchor="middle" x="429" y="-569.33" font-family="FreeSans" font-size="10.00"> cullingBox_</text>
<text text-anchor="middle" x="429" y="-558.33" font-family="FreeSans" font-size="10.00">worldBoundingBox_</text>
</g>
<!-- Node10 -->
<g id="node10" class="node"><title>Node10</title>
<g id="a_node10"><a xlink:href="class_urho3_d_1_1_color.html" target="_top" xlink:title="RGBA color. ">
<polygon fill="none" stroke="black" points="835,-437.83 835,-456.83 919,-456.83 919,-437.83 835,-437.83"/>
<text text-anchor="middle" x="877" y="-444.83" font-family="FreeSans" font-size="10.00">Urho3D::Color</text>
</a>
</g>
</g>
<!-- Node10&#45;&gt;Node1 -->
<g id="edge48" class="edge"><title>Node10&#45;&gt;Node1</title>
<path fill="none" stroke="#9a32cd" stroke-dasharray="5,2" d="M894.746,-429.955C910.651,-414.446 935.946,-392.246 962,-379.33 1000.53,-360.226 1020.4,-380.463 1056,-356.33 1091.29,-332.406 1115.06,-285.07 1124.02,-264.85"/>
<polygon fill="#9a32cd" stroke="#9a32cd" points="891.926,-427.825 887.329,-437.371 896.875,-432.775 891.926,-427.825"/>
<text text-anchor="middle" x="1009" y="-393.33" font-family="FreeSans" font-size="10.00"> endColor_</text>
<text text-anchor="middle" x="1009" y="-382.33" font-family="FreeSans" font-size="10.00">startColor_</text>
</g>
<!-- Node10&#45;&gt;Node8 -->
<g id="edge15" class="edge"><title>Node10&#45;&gt;Node8</title>
<path fill="none" stroke="#9a32cd" stroke-dasharray="5,2" d="M894.811,-464.236C911.223,-480.322 937.269,-504.757 962,-523.33 1001.25,-552.809 1018.01,-550.238 1056,-581.33 1082.06,-602.659 1107.85,-633.106 1120.3,-648.545"/>
<polygon fill="#9a32cd" stroke="#9a32cd" points="897.144,-461.622 887.576,-457.073 892.219,-466.596 897.144,-461.622"/>
<text text-anchor="middle" x="1009" y="-617.33" font-family="FreeSans" font-size="10.00"> ambientEndColor_</text>
<text text-anchor="middle" x="1009" y="-606.33" font-family="FreeSans" font-size="10.00">fogColor_</text>
<text text-anchor="middle" x="1009" y="-595.33" font-family="FreeSans" font-size="10.00">ambientColor_</text>
<text text-anchor="middle" x="1009" y="-584.33" font-family="FreeSans" font-size="10.00">ambientStartColor_</text>
</g>
<!-- Node10&#45;&gt;Node10 -->
<g id="edge16" class="edge"><title>Node10&#45;&gt;Node10</title>
<path fill="none" stroke="#9a32cd" stroke-dasharray="5,2" d="M852.447,-466.359C853.786,-471.458 861.97,-475.33 877,-475.33 900.461,-475.33 907.243,-465.895 897.345,-457.087"/>
<polygon fill="#9a32cd" stroke="#9a32cd" points="855.709,-467.639 856.655,-457.087 849.335,-464.746 855.709,-467.639"/>
<text text-anchor="middle" x="877" y="-588.33" font-family="FreeSans" font-size="10.00"> CYAN</text>
<text text-anchor="middle" x="877" y="-577.33" font-family="FreeSans" font-size="10.00">GRAY</text>
<text text-anchor="middle" x="877" y="-566.33" font-family="FreeSans" font-size="10.00">YELLOW</text>
<text text-anchor="middle" x="877" y="-555.33" font-family="FreeSans" font-size="10.00">MAGENTA</text>
<text text-anchor="middle" x="877" y="-544.33" font-family="FreeSans" font-size="10.00">WHITE</text>
<text text-anchor="middle" x="877" y="-533.33" font-family="FreeSans" font-size="10.00">TRANSPARENT</text>
<text text-anchor="middle" x="877" y="-522.33" font-family="FreeSans" font-size="10.00">BLUE</text>
<text text-anchor="middle" x="877" y="-511.33" font-family="FreeSans" font-size="10.00">BLACK</text>
<text text-anchor="middle" x="877" y="-500.33" font-family="FreeSans" font-size="10.00">RED</text>
<text text-anchor="middle" x="877" y="-489.33" font-family="FreeSans" font-size="10.00">GREEN</text>
<text text-anchor="middle" x="877" y="-478.33" font-family="FreeSans" font-size="10.00">...</text>
</g>
<!-- Node10&#45;&gt;Node15 -->
<g id="edge26" class="edge"><title>Node10&#45;&gt;Node15</title>
<path fill="none" stroke="#9a32cd" stroke-dasharray="5,2" d="M929.3,-454.167C964.946,-459.149 1013.49,-466.393 1056,-474.33 1066.2,-476.234 1077.15,-478.535 1087.36,-480.791"/>
<polygon fill="#9a32cd" stroke="#9a32cd" points="929.525,-450.665 919.139,-452.76 928.564,-457.599 929.525,-450.665"/>
<text text-anchor="middle" x="1009" y="-477.33" font-family="FreeSans" font-size="10.00"> color_</text>
</g>
<!-- Node11 -->
<g id="node11" class="node"><title>Node11</title>
<g id="a_node11"><a xlink:href="class_urho3_d_1_1_p_o_d_vector.html" target="_top" xlink:title="Urho3D::PODVector\&lt;\l Urho3D::Light * \&gt;">
<polygon fill="none" stroke="black" points="507.5,-513.33 507.5,-543.33 626.5,-543.33 626.5,-513.33 507.5,-513.33"/>
<text text-anchor="start" x="515.5" y="-531.33" font-family="FreeSans" font-size="10.00">Urho3D::PODVector&lt;</text>
<text text-anchor="middle" x="567" y="-520.33" font-family="FreeSans" font-size="10.00"> Urho3D::Light * &gt;</text>
</a>
</g>
</g>
<!-- Node11&#45;&gt;Node2 -->
<g id="edge18" class="edge"><title>Node11&#45;&gt;Node2</title>
<path fill="none" stroke="#9a32cd" stroke-dasharray="5,2" d="M636.906,-523.029C685.02,-522.939 748.22,-530.476 792,-564.33 807.743,-576.504 795.021,-592.227 810,-605.33 814.397,-609.177 819.53,-612.247 824.954,-614.697"/>
<polygon fill="#9a32cd" stroke="#9a32cd" points="636.835,-519.529 626.88,-523.157 636.924,-526.529 636.835,-519.529"/>
<text text-anchor="middle" x="723" y="-578.33" font-family="FreeSans" font-size="10.00"> vertexLights_</text>
<text text-anchor="middle" x="723" y="-567.33" font-family="FreeSans" font-size="10.00">lights_</text>
</g>
<!-- Node12 -->
<g id="node12" class="node"><title>Node12</title>
<g id="a_node12"><a xlink:href="class_urho3_d_1_1_vector_base.html" target="_top" xlink:title="Vector base class. ">
<polygon fill="none" stroke="black" points="239,-518.83 239,-537.83 353,-537.83 353,-518.83 239,-518.83"/>
<text text-anchor="middle" x="296" y="-525.83" font-family="FreeSans" font-size="10.00">Urho3D::VectorBase</text>
</a>
</g>
</g>
<!-- Node12&#45;&gt;Node11 -->
<g id="edge19" class="edge"><title>Node12&#45;&gt;Node11</title>
<path fill="none" stroke="midnightblue" d="M363.115,-528.33C407.225,-528.33 464.704,-528.33 507.216,-528.33"/>
<polygon fill="midnightblue" stroke="midnightblue" points="363.064,-524.83 353.064,-528.33 363.064,-531.83 363.064,-524.83"/>
</g>
<!-- Node13 -->
<g id="node13" class="node"><title>Node13</title>
<g id="a_node13"><a xlink:href="class_urho3_d_1_1_p_o_d_vector.html" target="_top" xlink:title="Urho3D::PODVector\&lt;\l Urho3D::Camera * \&gt;">
<polygon fill="none" stroke="black" points="507,-611.33 507,-641.33 627,-641.33 627,-611.33 507,-611.33"/>
<text text-anchor="start" x="515" y="-629.33" font-family="FreeSans" font-size="10.00">Urho3D::PODVector&lt;</text>
<text text-anchor="middle" x="567" y="-618.33" font-family="FreeSans" font-size="10.00"> Urho3D::Camera * &gt;</text>
</a>
</g>
</g>
<!-- Node12&#45;&gt;Node13 -->
<g id="edge21" class="edge"><title>Node12&#45;&gt;Node13</title>
<path fill="none" stroke="midnightblue" d="M314.98,-544.69C327.887,-556.682 345.491,-573.555 360,-589.33 368.552,-598.628 366.808,-605.47 378,-611.33 417.45,-631.985 468.043,-634.928 506.805,-633.148"/>
<polygon fill="midnightblue" stroke="midnightblue" points="317.346,-542.111 307.621,-537.908 312.602,-547.258 317.346,-542.111"/>
</g>
<!-- Node14 -->
<g id="node14" class="node"><title>Node14</title>
<g id="a_node14"><a xlink:href="class_urho3_d_1_1_vector.html" target="_top" xlink:title="Urho3D::Vector\&lt; Urho3D\l::SourceBatch \&gt;">
<polygon fill="none" stroke="black" points="498,-562.33 498,-592.33 636,-592.33 636,-562.33 498,-562.33"/>
<text text-anchor="start" x="506" y="-580.33" font-family="FreeSans" font-size="10.00">Urho3D::Vector&lt; Urho3D</text>
<text text-anchor="middle" x="567" y="-569.33" font-family="FreeSans" font-size="10.00">::SourceBatch &gt;</text>
</a>
</g>
</g>
<!-- Node12&#45;&gt;Node14 -->
<g id="edge23" class="edge"><title>Node12&#45;&gt;Node14</title>
<path fill="none" stroke="midnightblue" d="M359.15,-539.651C400.565,-547.195 455.012,-557.113 497.649,-564.879"/>
<polygon fill="midnightblue" stroke="midnightblue" points="359.65,-536.185 349.185,-537.836 358.396,-543.071 359.65,-536.185"/>
</g>
<!-- Node17 -->
<g id="node17" class="node"><title>Node17</title>
<g id="a_node17"><a xlink:href="class_urho3_d_1_1_p_o_d_vector.html" target="_top" xlink:title="Urho3D::PODVector\&lt;\l Urho3D::TrailPoint \&gt;">
<polygon fill="none" stroke="black" points="663.5,-389.33 663.5,-419.33 782.5,-419.33 782.5,-389.33 663.5,-389.33"/>
<text text-anchor="start" x="671.5" y="-407.33" font-family="FreeSans" font-size="10.00">Urho3D::PODVector&lt;</text>
<text text-anchor="middle" x="723" y="-396.33" font-family="FreeSans" font-size="10.00"> Urho3D::TrailPoint &gt;</text>
</a>
</g>
</g>
<!-- Node12&#45;&gt;Node17 -->
<g id="edge34" class="edge"><title>Node12&#45;&gt;Node17</title>
<path fill="none" stroke="midnightblue" d="M320.098,-512.752C356.258,-489.255 429.231,-445.367 498,-425.33 552.563,-409.432 617.462,-404.822 663.323,-403.804"/>
<polygon fill="midnightblue" stroke="midnightblue" points="317.745,-510.11 311.315,-518.531 321.593,-515.958 317.745,-510.11"/>
</g>
<!-- Node21 -->
<g id="node21" class="node"><title>Node21</title>
<g id="a_node21"><a xlink:href="class_urho3_d_1_1_vector.html" target="_top" xlink:title="Urho3D::Vector\&lt; Urho3D\l::TrailPoint * \&gt;">
<polygon fill="none" stroke="black" points="654,-349.33 654,-379.33 792,-379.33 792,-349.33 654,-349.33"/>
<text text-anchor="start" x="662" y="-367.33" font-family="FreeSans" font-size="10.00">Urho3D::Vector&lt; Urho3D</text>
<text text-anchor="middle" x="723" y="-356.33" font-family="FreeSans" font-size="10.00">::TrailPoint * &gt;</text>
</a>
</g>
</g>
<!-- Node12&#45;&gt;Node21 -->
<g id="edge42" class="edge"><title>Node12&#45;&gt;Node21</title>
<path fill="none" stroke="midnightblue" d="M306.809,-509.792C319.9,-486.941 345.282,-448.645 378,-428.33 462.766,-375.698 580.369,-364.258 653.778,-362.818"/>
<polygon fill="midnightblue" stroke="midnightblue" points="303.746,-508.099 301.966,-518.543 309.871,-511.489 303.746,-508.099"/>
</g>
<!-- Node13&#45;&gt;Node2 -->
<g id="edge20" class="edge"><title>Node13&#45;&gt;Node2</title>
<path fill="none" stroke="#9a32cd" stroke-dasharray="5,2" d="M637.022,-625.882C693.962,-625.512 773.466,-624.996 824.843,-624.662"/>
<polygon fill="#9a32cd" stroke="#9a32cd" points="636.998,-622.382 627.021,-625.947 637.044,-629.382 636.998,-622.382"/>
<text text-anchor="middle" x="723" y="-629.33" font-family="FreeSans" font-size="10.00"> viewCameras_</text>
</g>
<!-- Node14&#45;&gt;Node2 -->
<g id="edge22" class="edge"><title>Node14&#45;&gt;Node2</title>
<path fill="none" stroke="#9a32cd" stroke-dasharray="5,2" d="M646.304,-588.496C689.336,-594.726 743.646,-602.739 792,-610.33 802.662,-612.004 814.074,-613.861 824.941,-615.662"/>
<polygon fill="#9a32cd" stroke="#9a32cd" points="646.578,-585 636.181,-587.033 645.577,-591.928 646.578,-585"/>
<text text-anchor="middle" x="723" y="-613.33" font-family="FreeSans" font-size="10.00"> batches_</text>
</g>
<!-- Node15&#45;&gt;Node2 -->
<g id="edge24" class="edge"><title>Node15&#45;&gt;Node2</title>
<path fill="none" stroke="#9a32cd" stroke-dasharray="5,2" d="M1077.2,-489.402C1034.64,-489.751 978.299,-493.217 962,-508.33 929.848,-538.143 973.468,-572.861 944,-605.33 939.913,-609.833 934.835,-613.296 929.323,-615.954"/>
<polygon fill="#9a32cd" stroke="#9a32cd" points="1077.43,-492.901 1087.42,-489.374 1077.41,-485.901 1077.43,-492.901"/>
<text text-anchor="middle" x="1009" y="-511.33" font-family="FreeSans" font-size="10.00"> firstLight_</text>
</g>
<!-- Node16&#45;&gt;Node2 -->
<g id="edge29" class="edge"><title>Node16&#45;&gt;Node2</title>
<path fill="none" stroke="#9a32cd" stroke-dasharray="5,2" d="M623.254,-444.839C674.546,-448.438 749.234,-462.197 792,-509.33 821.17,-541.479 780.796,-573.212 810,-605.33 814.091,-609.829 819.172,-613.29 824.685,-615.947"/>
<polygon fill="#9a32cd" stroke="#9a32cd" points="623.194,-441.329 613.004,-444.232 622.78,-448.317 623.194,-441.329"/>
<text text-anchor="middle" x="723" y="-512.33" font-family="FreeSans" font-size="10.00"> octant_</text>
</g>
<!-- Node16&#45;&gt;Node16 -->
<g id="edge32" class="edge"><title>Node16&#45;&gt;Node16</title>
<path fill="none" stroke="#9a32cd" stroke-dasharray="5,2" d="M541.33,-463.359C542.731,-468.458 551.287,-472.33 567,-472.33 591.527,-472.33 598.617,-462.895 588.27,-454.087"/>
<polygon fill="#9a32cd" stroke="#9a32cd" points="544.605,-464.622 545.73,-454.087 538.281,-461.621 544.605,-464.622"/>
<text text-anchor="middle" x="567" y="-486.33" font-family="FreeSans" font-size="10.00"> parent_</text>
<text text-anchor="middle" x="567" y="-475.33" font-family="FreeSans" font-size="10.00">children_</text>
</g>
<!-- Node17&#45;&gt;Node1 -->
<g id="edge33" class="edge"><title>Node17&#45;&gt;Node1</title>
<path fill="none" stroke="#9a32cd" stroke-dasharray="5,2" d="M792.45,-394.239C861.824,-382.065 970.784,-357.5 1056,-313.33 1081.08,-300.329 1105.71,-277.791 1118.65,-264.973"/>
<polygon fill="#9a32cd" stroke="#9a32cd" points="791.772,-390.804 782.509,-395.946 792.957,-397.703 791.772,-390.804"/>
<text text-anchor="middle" x="877" y="-394.33" font-family="FreeSans" font-size="10.00"> points_</text>
</g>
<!-- Node18&#45;&gt;Node1 -->
<g id="edge35" class="edge"><title>Node18&#45;&gt;Node1</title>
<path fill="none" stroke="#9a32cd" stroke-dasharray="5,2" d="M489.703,-219.666C623.467,-227.14 945.498,-245.133 1073.86,-252.305"/>
<polygon fill="#9a32cd" stroke="#9a32cd" points="489.819,-216.167 479.639,-219.103 489.428,-223.156 489.819,-216.167"/>
<text text-anchor="middle" x="723" y="-240.33" font-family="FreeSans" font-size="10.00"> endTail_</text>
</g>
<!-- Node18&#45;&gt;Node18 -->
<g id="edge36" class="edge"><title>Node18&#45;&gt;Node18</title>
<path fill="none" stroke="#9a32cd" stroke-dasharray="5,2" d="M404.447,-235.359C405.786,-240.458 413.97,-244.33 429,-244.33 452.461,-244.33 459.243,-234.895 449.345,-226.087"/>
<polygon fill="#9a32cd" stroke="#9a32cd" points="407.709,-236.639 408.655,-226.087 401.335,-233.746 407.709,-236.639"/>
<text text-anchor="middle" x="429" y="-247.33" font-family="FreeSans" font-size="10.00"> next_</text>
</g>
<!-- Node19 -->
<g id="node19" class="node"><title>Node19</title>
<g id="a_node19"><a xlink:href="class_urho3_d_1_1_shared_ptr.html" target="_top" xlink:title="Urho3D::SharedPtr\&lt;\l Urho3D::IndexBuffer \&gt;">
<polygon fill="none" stroke="black" points="232,-64.3299 232,-94.3299 360,-94.3299 360,-64.3299 232,-64.3299"/>
<text text-anchor="start" x="240" y="-82.3299" font-family="FreeSans" font-size="10.00">Urho3D::SharedPtr&lt;</text>
<text text-anchor="middle" x="296" y="-71.3299" font-family="FreeSans" font-size="10.00"> Urho3D::IndexBuffer &gt;</text>
</a>
</g>
</g>
<!-- Node19&#45;&gt;Node1 -->
<g id="edge39" class="edge"><title>Node19&#45;&gt;Node1</title>
<path fill="none" stroke="#9a32cd" stroke-dasharray="5,2" d="M350.804,-61.2503C485.191,-19.752 840.211,66.9059 1056,-94.3299 1107.75,-133.001 1123.11,-217.298 1126.91,-245.739"/>
<polygon fill="#9a32cd" stroke="#9a32cd" points="349.633,-57.9492 341.135,-64.2763 351.724,-64.6297 349.633,-57.9492"/>
<text text-anchor="middle" x="723" y="-6.3299" font-family="FreeSans" font-size="10.00"> indexBuffer_</text>
</g>
<!-- Node23 -->
<g id="node23" class="node"><title>Node23</title>
<g id="a_node23"><a xlink:href="class_urho3_d_1_1_geometry.html" target="_top" xlink:title="Defines one or more vertex buffers, an index buffer and a draw range. ">
<polygon fill="none" stroke="red" points="513.5,-90.8299 513.5,-109.83 620.5,-109.83 620.5,-90.8299 513.5,-90.8299"/>
<text text-anchor="middle" x="567" y="-97.8299" font-family="FreeSans" font-size="10.00">Urho3D::Geometry</text>
</a>
</g>
</g>
<!-- Node19&#45;&gt;Node23 -->
<g id="edge45" class="edge"><title>Node19&#45;&gt;Node23</title>
<path fill="none" stroke="#9a32cd" stroke-dasharray="5,2" d="M370.122,-85.0383C415.379,-88.5714 472.438,-93.0258 513.28,-96.2142"/>
<polygon fill="#9a32cd" stroke="#9a32cd" points="370.311,-81.5425 360.069,-84.2535 369.766,-88.5212 370.311,-81.5425"/>
<text text-anchor="middle" x="429" y="-97.3299" font-family="FreeSans" font-size="10.00"> indexBuffer_</text>
</g>
<!-- Node20 -->
<g id="node20" class="node"><title>Node20</title>
<g id="a_node20"><a xlink:href="class_urho3_d_1_1_index_buffer.html" target="_top" xlink:title="Hardware index buffer. ">
<polygon fill="none" stroke="red" points="0.5,-69.8299 0.5,-88.8299 113.5,-88.8299 113.5,-69.8299 0.5,-69.8299"/>
<text text-anchor="middle" x="57" y="-76.8299" font-family="FreeSans" font-size="10.00">Urho3D::IndexBuffer</text>
</a>
</g>
</g>
<!-- Node20&#45;&gt;Node19 -->
<g id="edge40" class="edge"><title>Node20&#45;&gt;Node19</title>
<path fill="none" stroke="#9a32cd" stroke-dasharray="5,2" d="M123.795,-79.3299C157.548,-79.3299 198.466,-79.3299 231.835,-79.3299"/>
<polygon fill="#9a32cd" stroke="#9a32cd" points="123.566,-75.83 113.566,-79.3299 123.566,-82.83 123.566,-75.83"/>
<text text-anchor="middle" x="173" y="-82.3299" font-family="FreeSans" font-size="10.00"> ptr_</text>
</g>
<!-- Node21&#45;&gt;Node1 -->
<g id="edge41" class="edge"><title>Node21&#45;&gt;Node1</title>
<path fill="none" stroke="#9a32cd" stroke-dasharray="5,2" d="M772.501,-345.979C784.636,-341.786 797.702,-337.605 810,-334.33 917.483,-305.709 949.983,-321.976 1056,-288.33 1075.27,-282.216 1096.15,-272.242 1110.43,-264.858"/>
<polygon fill="#9a32cd" stroke="#9a32cd" points="771.268,-342.703 763.001,-349.328 773.595,-349.305 771.268,-342.703"/>
<text text-anchor="middle" x="877" y="-337.33" font-family="FreeSans" font-size="10.00"> sortedPoints_</text>
</g>
<!-- Node22 -->
<g id="node22" class="node"><title>Node22</title>
<g id="a_node22"><a xlink:href="class_urho3_d_1_1_shared_ptr.html" target="_top" xlink:title="Urho3D::SharedPtr\&lt;\l Urho3D::Geometry \&gt;">
<polygon fill="none" stroke="black" points="816,-89.3299 816,-119.33 938,-119.33 938,-89.3299 816,-89.3299"/>
<text text-anchor="start" x="824" y="-107.33" font-family="FreeSans" font-size="10.00">Urho3D::SharedPtr&lt;</text>
<text text-anchor="middle" x="877" y="-96.3299" font-family="FreeSans" font-size="10.00"> Urho3D::Geometry &gt;</text>
</a>
</g>
</g>
<!-- Node22&#45;&gt;Node1 -->
<g id="edge43" class="edge"><title>Node22&#45;&gt;Node1</title>
<path fill="none" stroke="#9a32cd" stroke-dasharray="5,2" d="M948.557,-97.1816C983.531,-97.0919 1024.83,-102.512 1056,-123.33 1100.72,-153.198 1120.09,-220.47 1125.95,-245.609"/>
<polygon fill="#9a32cd" stroke="#9a32cd" points="948.338,-93.6848 938.401,-97.3598 948.461,-100.684 948.338,-93.6848"/>
<text text-anchor="middle" x="1009" y="-126.33" font-family="FreeSans" font-size="10.00"> geometry_</text>
</g>
<!-- Node23&#45;&gt;Node22 -->
<g id="edge44" class="edge"><title>Node23&#45;&gt;Node22</title>
<path fill="none" stroke="#9a32cd" stroke-dasharray="5,2" d="M630.762,-101.145C684.921,-101.848 762.624,-102.857 815.971,-103.55"/>
<polygon fill="#9a32cd" stroke="#9a32cd" points="630.642,-97.6432 620.597,-101.013 630.551,-104.643 630.642,-97.6432"/>
<text text-anchor="middle" x="723" y="-106.33" font-family="FreeSans" font-size="10.00"> ptr_</text>
</g>
<!-- Node24 -->
<g id="node24" class="node"><title>Node24</title>
<g id="a_node24"><a xlink:href="class_urho3_d_1_1_shared_ptr.html" target="_top" xlink:title="Urho3D::SharedPtr\&lt;\l Urho3D::VertexBuffer \&gt;">
<polygon fill="none" stroke="black" points="810.5,-177.33 810.5,-207.33 943.5,-207.33 943.5,-177.33 810.5,-177.33"/>
<text text-anchor="start" x="818.5" y="-195.33" font-family="FreeSans" font-size="10.00">Urho3D::SharedPtr&lt;</text>
<text text-anchor="middle" x="877" y="-184.33" font-family="FreeSans" font-size="10.00"> Urho3D::VertexBuffer &gt;</text>
</a>
</g>
</g>
<!-- Node24&#45;&gt;Node1 -->
<g id="edge46" class="edge"><title>Node24&#45;&gt;Node1</title>
<path fill="none" stroke="#9a32cd" stroke-dasharray="5,2" d="M953.989,-193.087C986.155,-195.273 1023.6,-200.326 1056,-211.33 1079.03,-219.151 1102.46,-235.33 1116.1,-245.739"/>
<polygon fill="#9a32cd" stroke="#9a32cd" points="953.935,-189.577 943.744,-192.474 953.517,-196.565 953.935,-189.577"/>
<text text-anchor="middle" x="1009" y="-214.33" font-family="FreeSans" font-size="10.00"> vertexBuffer_</text>
</g>
<!-- Node25 -->
<g id="node25" class="node"><title>Node25</title>
<g id="a_node25"><a xlink:href="class_urho3_d_1_1_vertex_buffer.html" target="_top" xlink:title="Hardware vertex buffer. ">
<polygon fill="none" stroke="red" points="507.5,-188.83 507.5,-207.83 626.5,-207.83 626.5,-188.83 507.5,-188.83"/>
<text text-anchor="middle" x="567" y="-195.83" font-family="FreeSans" font-size="10.00">Urho3D::VertexBuffer</text>
</a>
</g>
</g>
<!-- Node25&#45;&gt;Node24 -->
<g id="edge47" class="edge"><title>Node25&#45;&gt;Node24</title>
<path fill="none" stroke="#9a32cd" stroke-dasharray="5,2" d="M636.765,-196.99C688.616,-195.98 759.284,-194.604 810.358,-193.609"/>
<polygon fill="#9a32cd" stroke="#9a32cd" points="636.587,-193.493 626.657,-197.187 636.724,-200.492 636.587,-193.493"/>
<text text-anchor="middle" x="723" y="-200.33" font-family="FreeSans" font-size="10.00"> ptr_</text>
</g>
</g>
</svg>
