<?xml version="1.0" encoding="UTF-8" standalone="no"?>
<!DOCTYPE svg PUBLIC "-//W3C//DTD SVG 1.1//EN"
 "http://www.w3.org/Graphics/SVG/1.1/DTD/svg11.dtd">
<!-- Generated by graphviz version 2.43.0 (0)
 -->
<!-- Title: Urho3D::Text3D::SetColor Pages: 1 -->
<svg width="1099pt" height="203pt"
 viewBox="0.00 0.00 1099.00 202.50" xmlns="http://www.w3.org/2000/svg" xmlns:xlink="http://www.w3.org/1999/xlink">
<g id="graph0" class="graph" transform="scale(1 1) rotate(0) translate(4 198.5)">
<title>Urho3D::Text3D::SetColor</title>
<!-- Node1 -->
<g id="node1" class="node">
<title>Node1</title>
<g id="a_node1"><a xlink:title=" ">
<polygon fill="#bfbfbf" stroke="black" points="0,-46.5 0,-65.5 140,-65.5 140,-46.5 0,-46.5"/>
<text text-anchor="middle" x="70" y="-53.5" font-family="Helvetica,sans-Serif" font-size="10.00">Urho3D::Text3D::SetColor</text>
</a>
</g>
</g>
<!-- Node2 -->
<g id="node2" class="node">
<title>Node2</title>
<g id="a_node2"><a xlink:href="class_urho3_d_1_1_text3_d.html#ad44e2ab1dccca583ae229245729a5d19" target="_top" xlink:title="Mark text &amp; geometry dirty.">
<polygon fill="none" stroke="black" points="176,-66 176,-96 320,-96 320,-66 176,-66"/>
<text text-anchor="start" x="184" y="-84" font-family="Helvetica,sans-Serif" font-size="10.00">Urho3D::Text3D::MarkText</text>
<text text-anchor="middle" x="248" y="-73" font-family="Helvetica,sans-Serif" font-size="10.00">Dirty</text>
</a>
</g>
</g>
<!-- Node1&#45;&gt;Node2 -->
<g id="edge1" class="edge">
<title>Node1&#45;&gt;Node2</title>
<path fill="none" stroke="midnightblue" d="M138.04,-65.52C147.1,-66.81 156.48,-68.14 165.75,-69.46"/>
<polygon fill="midnightblue" stroke="midnightblue" points="165.36,-72.94 175.75,-70.88 166.35,-66.01 165.36,-72.94"/>
</g>
<!-- Node13 -->
<g id="node13" class="node">
<title>Node13</title>
<g id="a_node13"><a xlink:href="class_urho3_d_1_1_u_i_element.html#a964453690d1c52d2fe27002330c847ef" target="_top" xlink:title=" ">
<polygon fill="none" stroke="black" points="190,-17 190,-47 306,-47 306,-17 190,-17"/>
<text text-anchor="start" x="198" y="-35" font-family="Helvetica,sans-Serif" font-size="10.00">Urho3D::UIElement::</text>
<text text-anchor="middle" x="248" y="-24" font-family="Helvetica,sans-Serif" font-size="10.00">SetColor</text>
</a>
</g>
</g>
<!-- Node1&#45;&gt;Node13 -->
<g id="edge13" class="edge">
<title>Node1&#45;&gt;Node13</title>
<path fill="none" stroke="midnightblue" d="M140.05,-46.58C153.05,-44.81 166.62,-42.96 179.57,-41.2"/>
<polygon fill="midnightblue" stroke="midnightblue" points="180.35,-44.62 189.79,-39.8 179.41,-37.68 180.35,-44.62"/>
</g>
<!-- Node3 -->
<g id="node3" class="node">
<title>Node3</title>
<g id="a_node3"><a xlink:href="class_urho3_d_1_1_component.html#aaf87acb64001774c62f0784254f9b291" target="_top" xlink:title="Mark for attribute check on the next network update.">
<polygon fill="none" stroke="black" points="375.5,-98 375.5,-128 497.5,-128 497.5,-98 375.5,-98"/>
<text text-anchor="start" x="383.5" y="-116" font-family="Helvetica,sans-Serif" font-size="10.00">Urho3D::Component::</text>
<text text-anchor="middle" x="436.5" y="-105" font-family="Helvetica,sans-Serif" font-size="10.00">MarkNetworkUpdate</text>
</a>
</g>
</g>
<!-- Node2&#45;&gt;Node3 -->
<g id="edge2" class="edge">
<title>Node2&#45;&gt;Node3</title>
<path fill="none" stroke="midnightblue" d="M320.04,-93.19C334.84,-95.73 350.44,-98.41 365.22,-100.94"/>
<polygon fill="midnightblue" stroke="midnightblue" points="364.85,-104.43 375.3,-102.67 366.03,-97.53 364.85,-104.43"/>
</g>
<!-- Node9 -->
<g id="node9" class="node">
<title>Node9</title>
<g id="a_node9"><a xlink:href="class_urho3_d_1_1_drawable.html#a04a978441415a93f044721f6473df0e3" target="_top" xlink:title="Handle node transform being dirtied.">
<polygon fill="none" stroke="black" points="356,-33 356,-63 517,-63 517,-33 356,-33"/>
<text text-anchor="start" x="364" y="-51" font-family="Helvetica,sans-Serif" font-size="10.00">Urho3D::Drawable::OnMarked</text>
<text text-anchor="middle" x="436.5" y="-40" font-family="Helvetica,sans-Serif" font-size="10.00">Dirty</text>
</a>
</g>
</g>
<!-- Node2&#45;&gt;Node9 -->
<g id="edge8" class="edge">
<title>Node2&#45;&gt;Node9</title>
<path fill="none" stroke="midnightblue" d="M320.04,-68.43C328.47,-66.94 337.17,-65.4 345.82,-63.87"/>
<polygon fill="midnightblue" stroke="midnightblue" points="346.7,-67.27 355.94,-62.08 345.48,-60.37 346.7,-67.27"/>
</g>
<!-- Node4 -->
<g id="node4" class="node">
<title>Node4</title>
<g id="a_node4"><a xlink:href="class_urho3_d_1_1_component.html#a2c22f727341671a0420934f249ffe059" target="_top" xlink:title="Return the scene the node belongs to.">
<polygon fill="none" stroke="black" points="774.5,-71 774.5,-101 896.5,-101 896.5,-71 774.5,-71"/>
<text text-anchor="start" x="782.5" y="-89" font-family="Helvetica,sans-Serif" font-size="10.00">Urho3D::Component::</text>
<text text-anchor="middle" x="835.5" y="-78" font-family="Helvetica,sans-Serif" font-size="10.00">GetScene</text>
</a>
</g>
</g>
<!-- Node3&#45;&gt;Node4 -->
<g id="edge3" class="edge">
<title>Node3&#45;&gt;Node4</title>
<path fill="none" stroke="midnightblue" d="M497.8,-108.9C569.27,-104.04 688.2,-95.95 763.9,-90.8"/>
<polygon fill="midnightblue" stroke="midnightblue" points="764.55,-94.27 774.29,-90.09 764.07,-87.28 764.55,-94.27"/>
</g>
<!-- Node6 -->
<g id="node6" class="node">
<title>Node6</title>
<g id="a_node6"><a xlink:href="class_urho3_d_1_1_component.html#a8f1388c232ca01b7c7328c761aae6e76" target="_top" xlink:title=" ">
<polygon fill="none" stroke="black" points="574,-164 574,-194 696,-194 696,-164 574,-164"/>
<text text-anchor="start" x="582" y="-182" font-family="Helvetica,sans-Serif" font-size="10.00">Urho3D::Component::</text>
<text text-anchor="middle" x="635" y="-171" font-family="Helvetica,sans-Serif" font-size="10.00">IsReplicated</text>
</a>
</g>
</g>
<!-- Node3&#45;&gt;Node6 -->
<g id="edge5" class="edge">
<title>Node3&#45;&gt;Node6</title>
<path fill="none" stroke="midnightblue" d="M477.12,-128.08C499.31,-136.36 527.57,-146.62 553,-155 559.03,-156.99 565.34,-158.99 571.66,-160.95"/>
<polygon fill="midnightblue" stroke="midnightblue" points="570.98,-164.4 581.57,-163.97 573.03,-157.7 570.98,-164.4"/>
</g>
<!-- Node8 -->
<g id="node8" class="node">
<title>Node8</title>
<g id="a_node8"><a xlink:href="class_urho3_d_1_1_scene.html#a00b724dfff718639b9de12d71139499c" target="_top" xlink:title="Mark for attribute check on the next network update.">
<polygon fill="none" stroke="black" points="554.5,-115 554.5,-145 715.5,-145 715.5,-115 554.5,-115"/>
<text text-anchor="start" x="562.5" y="-133" font-family="Helvetica,sans-Serif" font-size="10.00">Urho3D::Scene::MarkNetwork</text>
<text text-anchor="middle" x="635" y="-122" font-family="Helvetica,sans-Serif" font-size="10.00">Update</text>
</a>
</g>
</g>
<!-- Node3&#45;&gt;Node8 -->
<g id="edge7" class="edge">
<title>Node3&#45;&gt;Node8</title>
<path fill="none" stroke="midnightblue" d="M497.52,-118.19C512.25,-119.47 528.32,-120.86 544.11,-122.22"/>
<polygon fill="midnightblue" stroke="midnightblue" points="544.16,-125.74 554.43,-123.12 544.76,-118.77 544.16,-125.74"/>
</g>
<!-- Node5 -->
<g id="node5" class="node">
<title>Node5</title>
<g id="a_node5"><a xlink:href="class_urho3_d_1_1_node.html#a9c57bc1539c33614c36f8a1453d62e9a" target="_top" xlink:title=" ">
<polygon fill="none" stroke="black" points="954,-76.5 954,-95.5 1091,-95.5 1091,-76.5 954,-76.5"/>
<text text-anchor="middle" x="1022.5" y="-83.5" font-family="Helvetica,sans-Serif" font-size="10.00">Urho3D::Node::GetScene</text>
</a>
</g>
</g>
<!-- Node4&#45;&gt;Node5 -->
<g id="edge4" class="edge">
<title>Node4&#45;&gt;Node5</title>
<path fill="none" stroke="midnightblue" d="M896.56,-86C911.54,-86 927.81,-86 943.51,-86"/>
<polygon fill="midnightblue" stroke="midnightblue" points="943.72,-89.5 953.72,-86 943.72,-82.5 943.72,-89.5"/>
</g>
<!-- Node7 -->
<g id="node7" class="node">
<title>Node7</title>
<g id="a_node7"><a xlink:href="class_urho3_d_1_1_scene.html#a97fb1222bd2f38e6c1c433c0b7e54d40" target="_top" xlink:title="Return whether the specified id is a replicated id.">
<polygon fill="none" stroke="black" points="753,-169.5 753,-188.5 918,-188.5 918,-169.5 753,-169.5"/>
<text text-anchor="middle" x="835.5" y="-176.5" font-family="Helvetica,sans-Serif" font-size="10.00">Urho3D::Scene::IsReplicatedID</text>
</a>
</g>
</g>
<!-- Node6&#45;&gt;Node7 -->
<g id="edge6" class="edge">
<title>Node6&#45;&gt;Node7</title>
<path fill="none" stroke="midnightblue" d="M696.1,-179C710.79,-179 726.85,-179 742.66,-179"/>
<polygon fill="midnightblue" stroke="midnightblue" points="742.99,-182.5 752.99,-179 742.99,-175.5 742.99,-182.5"/>
</g>
<!-- Node10 -->
<g id="node10" class="node">
<title>Node10</title>
<g id="a_node10"><a xlink:href="class_urho3_d_1_1_octant.html#a360158ca482e5cd6fc8412e9510ed582" target="_top" xlink:title="Return octree root.">
<polygon fill="none" stroke="black" points="566.5,-0.5 566.5,-19.5 703.5,-19.5 703.5,-0.5 566.5,-0.5"/>
<text text-anchor="middle" x="635" y="-7.5" font-family="Helvetica,sans-Serif" font-size="10.00">Urho3D::Octant::GetRoot</text>
</a>
</g>
</g>
<!-- Node9&#45;&gt;Node10 -->
<g id="edge9" class="edge">
<title>Node9&#45;&gt;Node10</title>
<path fill="none" stroke="midnightblue" d="M515.16,-32.98C535.08,-29.13 556.17,-25.05 574.97,-21.41"/>
<polygon fill="midnightblue" stroke="midnightblue" points="575.72,-24.84 584.87,-19.5 574.39,-17.96 575.72,-24.84"/>
</g>
<!-- Node11 -->
<g id="node11" class="node">
<title>Node11</title>
<g id="a_node11"><a xlink:href="class_urho3_d_1_1_octree.html#a578eb27fbff722b23eecfd03ef0e5571" target="_top" xlink:title="Mark drawable object as requiring an update and a reinsertion.">
<polygon fill="none" stroke="black" points="553,-38.5 553,-57.5 717,-57.5 717,-38.5 553,-38.5"/>
<text text-anchor="middle" x="635" y="-45.5" font-family="Helvetica,sans-Serif" font-size="10.00">Urho3D::Octree::QueueUpdate</text>
</a>
</g>
</g>
<!-- Node9&#45;&gt;Node11 -->
<g id="edge10" class="edge">
<title>Node9&#45;&gt;Node11</title>
<path fill="none" stroke="midnightblue" d="M517.14,-48C525.63,-48 534.31,-48 542.91,-48"/>
<polygon fill="midnightblue" stroke="midnightblue" points="542.97,-51.5 552.97,-48 542.97,-44.5 542.97,-51.5"/>
</g>
<!-- Node11&#45;&gt;Node4 -->
<g id="edge11" class="edge">
<title>Node11&#45;&gt;Node4</title>
<path fill="none" stroke="midnightblue" d="M685.83,-57.54C709.56,-62.08 738.34,-67.59 764.23,-72.55"/>
<polygon fill="midnightblue" stroke="midnightblue" points="763.9,-76.05 774.38,-74.49 765.21,-69.17 763.9,-76.05"/>
</g>
<!-- Node12 -->
<g id="node12" class="node">
<title>Node12</title>
<g id="a_node12"><a xlink:href="class_urho3_d_1_1_scene.html#a5a3132086218d7b7e6d8f3ccd50f7249" target="_top" xlink:title="Return threaded update flag.">
<polygon fill="none" stroke="black" points="761,-22 761,-52 910,-52 910,-22 761,-22"/>
<text text-anchor="start" x="769" y="-40" font-family="Helvetica,sans-Serif" font-size="10.00">Urho3D::Scene::IsThreaded</text>
<text text-anchor="middle" x="835.5" y="-29" font-family="Helvetica,sans-Serif" font-size="10.00">Update</text>
</a>
</g>
</g>
<!-- Node11&#45;&gt;Node12 -->
<g id="edge12" class="edge">
<title>Node11&#45;&gt;Node12</title>
<path fill="none" stroke="midnightblue" d="M717.02,-43.51C728.1,-42.9 739.5,-42.26 750.63,-41.65"/>
<polygon fill="midnightblue" stroke="midnightblue" points="750.97,-45.13 760.76,-41.09 750.58,-38.15 750.97,-45.13"/>
</g>
</g>
</svg>
