<?xml version="1.0" encoding="UTF-8" standalone="no"?>
<!DOCTYPE svg PUBLIC "-//W3C//DTD SVG 1.1//EN"
 "http://www.w3.org/Graphics/SVG/1.1/DTD/svg11.dtd">
<!-- Generated by graphviz version 2.43.0 (0)
 -->
<!-- Title: Urho3D::CollisionEdge2D::SetVertex1 Pages: 1 -->
<svg width="895pt" height="186pt"
 viewBox="0.00 0.00 895.00 186.00" xmlns="http://www.w3.org/2000/svg" xmlns:xlink="http://www.w3.org/1999/xlink">
<g id="graph0" class="graph" transform="scale(1 1) rotate(0) translate(4 182)">
<title>Urho3D::CollisionEdge2D::SetVertex1</title>
<!-- Node1 -->
<g id="node1" class="node">
<title>Node1</title>
<g id="a_node1"><a xlink:title=" ">
<polygon fill="#bfbfbf" stroke="black" points="0,-48.5 0,-78.5 139,-78.5 139,-48.5 0,-48.5"/>
<text text-anchor="start" x="8" y="-66.5" font-family="Helvetica,sans-Serif" font-size="10.00">Urho3D::CollisionEdge2D</text>
<text text-anchor="middle" x="69.5" y="-55.5" font-family="Helvetica,sans-Serif" font-size="10.00">::SetVertex1</text>
</a>
</g>
</g>
<!-- Node2 -->
<g id="node2" class="node">
<title>Node2</title>
<g id="a_node2"><a xlink:href="class_urho3_d_1_1_collision_edge2_d.html#a2c9e3bd3869e7c22a1c5c32102238ba3" target="_top" xlink:title="Set vertices.">
<polygon fill="none" stroke="black" points="175,-48.5 175,-78.5 314,-78.5 314,-48.5 175,-48.5"/>
<text text-anchor="start" x="183" y="-66.5" font-family="Helvetica,sans-Serif" font-size="10.00">Urho3D::CollisionEdge2D</text>
<text text-anchor="middle" x="244.5" y="-55.5" font-family="Helvetica,sans-Serif" font-size="10.00">::SetVertices</text>
</a>
</g>
</g>
<!-- Node1&#45;&gt;Node2 -->
<g id="edge1" class="edge">
<title>Node1&#45;&gt;Node2</title>
<path fill="none" stroke="midnightblue" d="M139.37,-63.5C147.68,-63.5 156.21,-63.5 164.65,-63.5"/>
<polygon fill="midnightblue" stroke="midnightblue" points="164.87,-67 174.87,-63.5 164.87,-60 164.87,-67"/>
</g>
<!-- Node3 -->
<g id="node3" class="node">
<title>Node3</title>
<g id="a_node3"><a xlink:href="class_urho3_d_1_1_component.html#aaf87acb64001774c62f0784254f9b291" target="_top" xlink:title="Mark for attribute check on the next network update.">
<polygon fill="none" stroke="black" points="358.5,-85.5 358.5,-115.5 480.5,-115.5 480.5,-85.5 358.5,-85.5"/>
<text text-anchor="start" x="366.5" y="-103.5" font-family="Helvetica,sans-Serif" font-size="10.00">Urho3D::Component::</text>
<text text-anchor="middle" x="419.5" y="-92.5" font-family="Helvetica,sans-Serif" font-size="10.00">MarkNetworkUpdate</text>
</a>
</g>
</g>
<!-- Node2&#45;&gt;Node3 -->
<g id="edge2" class="edge">
<title>Node2&#45;&gt;Node3</title>
<path fill="none" stroke="midnightblue" d="M314.37,-78.23C325.48,-80.61 337,-83.07 348.14,-85.45"/>
<polygon fill="midnightblue" stroke="midnightblue" points="347.74,-88.95 358.25,-87.61 349.2,-82.1 347.74,-88.95"/>
</g>
<!-- Node9 -->
<g id="node9" class="node">
<title>Node9</title>
<g id="a_node9"><a xlink:href="class_urho3_d_1_1_collision_edge2_d.html#abf21b3c9e2aee60148c2ff2f8db86bb9" target="_top" xlink:title="Recreate fixture.">
<polygon fill="none" stroke="black" points="350,-24.5 350,-54.5 489,-54.5 489,-24.5 350,-24.5"/>
<text text-anchor="start" x="358" y="-42.5" font-family="Helvetica,sans-Serif" font-size="10.00">Urho3D::CollisionEdge2D</text>
<text text-anchor="middle" x="419.5" y="-31.5" font-family="Helvetica,sans-Serif" font-size="10.00">::RecreateFixture</text>
</a>
</g>
</g>
<!-- Node2&#45;&gt;Node9 -->
<g id="edge8" class="edge">
<title>Node2&#45;&gt;Node9</title>
<path fill="none" stroke="midnightblue" d="M314.37,-53.95C322.77,-52.78 331.4,-51.58 339.92,-50.4"/>
<polygon fill="midnightblue" stroke="midnightblue" points="340.44,-53.86 349.87,-49.02 339.48,-46.93 340.44,-53.86"/>
</g>
<!-- Node4 -->
<g id="node4" class="node">
<title>Node4</title>
<g id="a_node4"><a xlink:href="class_urho3_d_1_1_component.html#a2c22f727341671a0420934f249ffe059" target="_top" xlink:title="Return the scene the node belongs to.">
<polygon fill="none" stroke="black" points="544.5,-147.5 544.5,-177.5 666.5,-177.5 666.5,-147.5 544.5,-147.5"/>
<text text-anchor="start" x="552.5" y="-165.5" font-family="Helvetica,sans-Serif" font-size="10.00">Urho3D::Component::</text>
<text text-anchor="middle" x="605.5" y="-154.5" font-family="Helvetica,sans-Serif" font-size="10.00">GetScene</text>
</a>
</g>
</g>
<!-- Node3&#45;&gt;Node4 -->
<g id="edge3" class="edge">
<title>Node3&#45;&gt;Node4</title>
<path fill="none" stroke="midnightblue" d="M460.51,-115.64C479.9,-122.82 503.57,-131.37 525,-138.5 530.93,-140.47 537.12,-142.46 543.33,-144.41"/>
<polygon fill="midnightblue" stroke="midnightblue" points="542.46,-147.8 553.05,-147.42 544.54,-141.12 542.46,-147.8"/>
</g>
<!-- Node6 -->
<g id="node6" class="node">
<title>Node6</title>
<g id="a_node6"><a xlink:href="class_urho3_d_1_1_component.html#a8f1388c232ca01b7c7328c761aae6e76" target="_top" xlink:title=" ">
<polygon fill="none" stroke="black" points="544.5,-98.5 544.5,-128.5 666.5,-128.5 666.5,-98.5 544.5,-98.5"/>
<text text-anchor="start" x="552.5" y="-116.5" font-family="Helvetica,sans-Serif" font-size="10.00">Urho3D::Component::</text>
<text text-anchor="middle" x="605.5" y="-105.5" font-family="Helvetica,sans-Serif" font-size="10.00">IsReplicated</text>
</a>
</g>
</g>
<!-- Node3&#45;&gt;Node6 -->
<g id="edge5" class="edge">
<title>Node3&#45;&gt;Node6</title>
<path fill="none" stroke="midnightblue" d="M480.75,-104.76C497.83,-105.96 516.58,-107.29 534.21,-108.53"/>
<polygon fill="midnightblue" stroke="midnightblue" points="534.21,-112.04 544.43,-109.26 534.7,-105.06 534.21,-112.04"/>
</g>
<!-- Node8 -->
<g id="node8" class="node">
<title>Node8</title>
<g id="a_node8"><a xlink:href="class_urho3_d_1_1_scene.html#a00b724dfff718639b9de12d71139499c" target="_top" xlink:title="Mark for attribute check on the next network update.">
<polygon fill="none" stroke="black" points="525,-49.5 525,-79.5 686,-79.5 686,-49.5 525,-49.5"/>
<text text-anchor="start" x="533" y="-67.5" font-family="Helvetica,sans-Serif" font-size="10.00">Urho3D::Scene::MarkNetwork</text>
<text text-anchor="middle" x="605.5" y="-56.5" font-family="Helvetica,sans-Serif" font-size="10.00">Update</text>
</a>
</g>
</g>
<!-- Node3&#45;&gt;Node8 -->
<g id="edge7" class="edge">
<title>Node3&#45;&gt;Node8</title>
<path fill="none" stroke="midnightblue" d="M480.75,-88.71C492.57,-86.4 505.2,-83.93 517.69,-81.48"/>
<polygon fill="midnightblue" stroke="midnightblue" points="518.53,-84.89 527.67,-79.53 517.18,-78.02 518.53,-84.89"/>
</g>
<!-- Node5 -->
<g id="node5" class="node">
<title>Node5</title>
<g id="a_node5"><a xlink:href="class_urho3_d_1_1_node.html#a9c57bc1539c33614c36f8a1453d62e9a" target="_top" xlink:title=" ">
<polygon fill="none" stroke="black" points="736,-153 736,-172 873,-172 873,-153 736,-153"/>
<text text-anchor="middle" x="804.5" y="-160" font-family="Helvetica,sans-Serif" font-size="10.00">Urho3D::Node::GetScene</text>
</a>
</g>
</g>
<!-- Node4&#45;&gt;Node5 -->
<g id="edge4" class="edge">
<title>Node4&#45;&gt;Node5</title>
<path fill="none" stroke="midnightblue" d="M666.68,-162.5C685.27,-162.5 706.03,-162.5 725.64,-162.5"/>
<polygon fill="midnightblue" stroke="midnightblue" points="725.78,-166 735.78,-162.5 725.78,-159 725.78,-166"/>
</g>
<!-- Node7 -->
<g id="node7" class="node">
<title>Node7</title>
<g id="a_node7"><a xlink:href="class_urho3_d_1_1_scene.html#a97fb1222bd2f38e6c1c433c0b7e54d40" target="_top" xlink:title="Return whether the specified id is a replicated id.">
<polygon fill="none" stroke="black" points="722,-104 722,-123 887,-123 887,-104 722,-104"/>
<text text-anchor="middle" x="804.5" y="-111" font-family="Helvetica,sans-Serif" font-size="10.00">Urho3D::Scene::IsReplicatedID</text>
</a>
</g>
</g>
<!-- Node6&#45;&gt;Node7 -->
<g id="edge6" class="edge">
<title>Node6&#45;&gt;Node7</title>
<path fill="none" stroke="midnightblue" d="M666.68,-113.5C680.97,-113.5 696.54,-113.5 711.89,-113.5"/>
<polygon fill="midnightblue" stroke="midnightblue" points="711.92,-117 721.92,-113.5 711.92,-110 711.92,-117"/>
</g>
<!-- Node10 -->
<g id="node10" class="node">
<title>Node10</title>
<g id="a_node10"><a xlink:href="class_urho3_d_1_1_collision_shape2_d.html#a52963467210c78bca21f7463f361c147" target="_top" xlink:title="Release fixture.">
<polygon fill="none" stroke="black" points="533,-0.5 533,-30.5 678,-30.5 678,-0.5 533,-0.5"/>
<text text-anchor="start" x="541" y="-18.5" font-family="Helvetica,sans-Serif" font-size="10.00">Urho3D::CollisionShape2D</text>
<text text-anchor="middle" x="605.5" y="-7.5" font-family="Helvetica,sans-Serif" font-size="10.00">::ReleaseFixture</text>
</a>
</g>
</g>
<!-- Node9&#45;&gt;Node10 -->
<g id="edge9" class="edge">
<title>Node9&#45;&gt;Node10</title>
<path fill="none" stroke="midnightblue" d="M489.01,-30.56C499.97,-29.13 511.39,-27.64 522.62,-26.18"/>
<polygon fill="midnightblue" stroke="midnightblue" points="523.39,-29.61 532.85,-24.85 522.48,-22.67 523.39,-29.61"/>
</g>
</g>
</svg>
