<?xml version="1.0" encoding="UTF-8" standalone="no"?>
<!DOCTYPE svg PUBLIC "-//W3C//DTD SVG 1.1//EN"
 "http://www.w3.org/Graphics/SVG/1.1/DTD/svg11.dtd">
<!-- Generated by graphviz version 2.40.1 (20161225.0304)
 -->
<!-- Title: Urho3D::ValueAnimationInfo Pages: 1 -->
<svg width="410pt" height="140pt"
 viewBox="0.00 0.00 409.50 140.00" xmlns="http://www.w3.org/2000/svg" xmlns:xlink="http://www.w3.org/1999/xlink">
<g id="graph0" class="graph" transform="scale(1 1) rotate(0) translate(4 136)">
<title>Urho3D::ValueAnimationInfo</title>
<!-- Node0 -->
<g id="node1" class="node">
<title>Node0</title>
<polygon fill="#bfbfbf" stroke="#000000" points="113,-56.5 113,-75.5 268,-75.5 268,-56.5 113,-56.5"/>
<text text-anchor="middle" x="190.5" y="-63.5" font-family="Helvetica,sans-Serif" font-size="10.00" fill="#000000">Urho3D::ValueAnimationInfo</text>
</g>
<!-- Node2 -->
<g id="node3" class="node">
<title>Node2</title>
<g id="a_node3"><a xlink:href="class_urho3_d_1_1_attribute_animation_info.html" target="_top" xlink:title="Attribute animation instance. ">
<polygon fill="none" stroke="#000000" points="0,-.5 0,-19.5 171,-19.5 171,-.5 0,-.5"/>
<text text-anchor="middle" x="85.5" y="-7.5" font-family="Helvetica,sans-Serif" font-size="10.00" fill="#000000">Urho3D::AttributeAnimationInfo</text>
</a>
</g>
</g>
<!-- Node0&#45;&gt;Node2 -->
<g id="edge2" class="edge">
<title>Node0&#45;&gt;Node2</title>
<path fill="none" stroke="#191970" d="M163.2375,-51.46C144.4478,-41.4388 119.9987,-28.3993 103.58,-19.6427"/>
<polygon fill="#191970" stroke="#191970" points="161.7398,-54.6278 172.2104,-56.2455 165.0339,-48.4514 161.7398,-54.6278"/>
</g>
<!-- Node3 -->
<g id="node4" class="node">
<title>Node3</title>
<g id="a_node4"><a xlink:href="class_urho3_d_1_1_shader_parameter_animation_info.html" target="_top" xlink:title="Material&#39;s shader parameter animation instance. ">
<polygon fill="none" stroke="#000000" points="189.5,-.5 189.5,-19.5 401.5,-19.5 401.5,-.5 189.5,-.5"/>
<text text-anchor="middle" x="295.5" y="-7.5" font-family="Helvetica,sans-Serif" font-size="10.00" fill="#000000">Urho3D::ShaderParameterAnimationInfo</text>
</a>
</g>
</g>
<!-- Node0&#45;&gt;Node3 -->
<g id="edge3" class="edge">
<title>Node0&#45;&gt;Node3</title>
<path fill="none" stroke="#191970" d="M217.7625,-51.46C236.5522,-41.4388 261.0013,-28.3993 277.42,-19.6427"/>
<polygon fill="#191970" stroke="#191970" points="215.9661,-48.4514 208.7896,-56.2455 219.2602,-54.6278 215.9661,-48.4514"/>
</g>
<!-- Node1 -->
<g id="node2" class="node">
<title>Node1</title>
<g id="a_node2"><a xlink:href="class_urho3_d_1_1_ref_counted.html" target="_top" xlink:title="Base class for intrusively reference&#45;counted objects. These are noncopyable and non&#45;assignable. ">
<polygon fill="none" stroke="#000000" points="132.5,-112.5 132.5,-131.5 248.5,-131.5 248.5,-112.5 132.5,-112.5"/>
<text text-anchor="middle" x="190.5" y="-119.5" font-family="Helvetica,sans-Serif" font-size="10.00" fill="#000000">Urho3D::RefCounted</text>
</a>
</g>
</g>
<!-- Node1&#45;&gt;Node0 -->
<g id="edge1" class="edge">
<title>Node1&#45;&gt;Node0</title>
<path fill="none" stroke="#191970" d="M190.5,-102.1575C190.5,-93.155 190.5,-82.9199 190.5,-75.6427"/>
<polygon fill="#191970" stroke="#191970" points="187.0001,-102.2455 190.5,-112.2455 194.0001,-102.2456 187.0001,-102.2455"/>
</g>
</g>
</svg>
