<?xml version="1.0" encoding="UTF-8" standalone="no"?>
<!DOCTYPE svg PUBLIC "-//W3C//DTD SVG 1.1//EN"
 "http://www.w3.org/Graphics/SVG/1.1/DTD/svg11.dtd">
<!-- Generated by graphviz version 2.40.1 (20161225.0304)
 -->
<!-- Title: Urho3D::Resource Pages: 1 -->
<!--zoomable 869 -->
<svg id="main" version="1.1" xmlns="http://www.w3.org/2000/svg" xmlns:xlink="http://www.w3.org/1999/xlink" xml:space="preserve" onload="init(evt)">
<style type="text/css"><![CDATA[
.edge:hover path { stroke: red; }
.edge:hover polygon { stroke: red; fill: red; }
]]></style>
<script type="text/javascript"><![CDATA[
var edges = document.getElementsByTagName('g');
if (edges && edges.length) {
  for (var i=0;i<edges.length;i++) {
    if (edges[i].id.substr(0,4)=='edge') {
      edges[i].setAttribute('class','edge');
    }
  }
}
]]></script>
        <defs>
                <circle id="rim" cx="0" cy="0" r="7"/>
                <circle id="rim2" cx="0" cy="0" r="3.5"/>
                <g id="zoomPlus">
                        <use xlink:href="#rim" fill="#404040">
                                <set attributeName="fill" to="#808080" begin="zoomplus.mouseover" end="zoomplus.mouseout"/>
                        </use>
                        <path d="M-4,0h8M0,-4v8" fill="none" stroke="white" stroke-width="1.5" pointer-events="none"/>
                </g>
                <g id="zoomMin">
                        <use xlink:href="#rim" fill="#404040">
                                <set attributeName="fill" to="#808080" begin="zoomminus.mouseover" end="zoomminus.mouseout"/>
                        </use>
                        <path d="M-4,0h8" fill="none" stroke="white" stroke-width="1.5" pointer-events="none"/>
                </g>
                <g id="dirArrow">
                        <path fill="none" stroke="white" stroke-width="1.5" d="M0,-3.0v7 M-2.5,-0.5L0,-3.0L2.5,-0.5"/>
                </g>
               <g id="resetDef">
                       <use xlink:href="#rim2" fill="#404040">
                               <set attributeName="fill" to="#808080" begin="reset.mouseover" end="reset.mouseout"/>
                       </use>
               </g>
        </defs>

<script type="text/javascript">
var viewWidth = 1238;
var viewHeight = 869;
var sectionId = 'dynsection-1';
</script>
<script xlink:href="svgpan.js"/>
<svg id="graph" class="graph">
<g id="viewport">
<title>Urho3D::Resource</title>
<!-- Node30 -->
<g id="node1" class="node">
<title>Node30</title>
<polygon fill="#bfbfbf" stroke="#000000" points="744.5,-645 744.5,-664 848.5,-664 848.5,-645 744.5,-645"/>
<text text-anchor="middle" x="796.5" y="-652" font-family="Helvetica,sans-Serif" font-size="10.00" fill="#000000">Urho3D::Resource</text>
</g>
<!-- Node31 -->
<g id="node2" class="node">
<title>Node31</title>
<g id="a_node2"><a xlink:href="class_urho3_d_1_1_object.html" target="_top" xlink:title="Base class for objects with type identification, subsystem access and event sending/receiving capabil...">
<polygon fill="none" stroke="#000000" points="458.5,-808 458.5,-827 549.5,-827 549.5,-808 458.5,-808"/>
<text text-anchor="middle" x="504" y="-815" font-family="Helvetica,sans-Serif" font-size="10.00" fill="#000000">Urho3D::Object</text>
</a>
</g>
</g>
<!-- Node31&#45;&gt;Node30 -->
<g id="edge1" class="edge">
<title>Node31&#45;&gt;Node30</title>
<path fill="none" stroke="#191970" d="M559.1217,-805.5168C563.328,-803.5263 567.35,-801.2056 571,-798.5 582.8848,-789.6901 578.8681,-781.28 589,-770.5 618.8312,-738.7607 630.3881,-734.4689 668,-712.5 702.2388,-692.5013 744.6022,-674.5873 771.0964,-664.128"/>
<polygon fill="#191970" stroke="#191970" points="557.6263,-802.3469 549.692,-809.3681 560.273,-808.8272 557.6263,-802.3469"/>
</g>
<!-- Node41 -->
<g id="node12" class="node">
<title>Node41</title>
<g id="a_node12"><a xlink:href="class_urho3_d_1_1_event_handler.html" target="_top" xlink:title="Internal helper class for invoking event handler functions. ">
<polygon fill="none" stroke="#000000" points="734,-722 734,-741 859,-741 859,-722 734,-722"/>
<text text-anchor="middle" x="796.5" y="-729" font-family="Helvetica,sans-Serif" font-size="10.00" fill="#000000">Urho3D::EventHandler</text>
</a>
</g>
</g>
<!-- Node31&#45;&gt;Node41 -->
<g id="edge19" class="edge">
<title>Node31&#45;&gt;Node41</title>
<path fill="none" stroke="#9a32cd" stroke-dasharray="5,2" d="M550.9695,-805.0969C557.7401,-803.0442 564.5837,-800.8223 571,-798.5 579.2319,-795.5205 580.7691,-793.4824 589,-790.5 646.2195,-769.7671 714.4045,-751.5825 756.5786,-741.065"/>
<polygon fill="#9a32cd" stroke="#9a32cd" points="549.7701,-801.8012 541.1602,-807.9755 551.7412,-808.518 549.7701,-801.8012"/>
<text text-anchor="middle" x="619.5" y="-804.5" font-family="Helvetica,sans-Serif" font-size="10.00" fill="#000000"> sender_</text>
<text text-anchor="middle" x="619.5" y="-793.5" font-family="Helvetica,sans-Serif" font-size="10.00" fill="#000000">receiver_</text>
</g>
<!-- Node32 -->
<g id="node3" class="node">
<title>Node32</title>
<g id="a_node3"><a xlink:href="class_urho3_d_1_1_ref_counted.html" target="_top" xlink:title="Base class for intrusively reference&#45;counted objects. These are noncopyable and non&#45;assignable. ">
<polygon fill="none" stroke="#000000" points="224,-543 224,-562 340,-562 340,-543 224,-543"/>
<text text-anchor="middle" x="282" y="-550" font-family="Helvetica,sans-Serif" font-size="10.00" fill="#000000">Urho3D::RefCounted</text>
</a>
</g>
</g>
<!-- Node32&#45;&gt;Node31 -->
<g id="edge2" class="edge">
<title>Node32&#45;&gt;Node31</title>
<path fill="none" stroke="#191970" d="M288.5781,-571.7281C305.4634,-618.1489 354.8723,-737.0404 437,-798.5 443.2921,-803.2087 450.7084,-806.7511 458.2724,-809.416"/>
<polygon fill="#191970" stroke="#191970" points="291.7807,-570.2865 285.1441,-562.0278 285.182,-572.6226 291.7807,-570.2865"/>
</g>
<!-- Node34 -->
<g id="node5" class="node">
<title>Node34</title>
<g id="a_node5"><a xlink:href="class_urho3_d_1_1_context.html" target="_top" xlink:title="Urho3D execution context. Provides access to subsystems, object factories and attributes, and event receivers. ">
<polygon fill="none" stroke="#000000" points="1107,-352 1107,-371 1205,-371 1205,-352 1107,-352"/>
<text text-anchor="middle" x="1156" y="-359" font-family="Helvetica,sans-Serif" font-size="10.00" fill="#000000">Urho3D::Context</text>
</a>
</g>
</g>
<!-- Node32&#45;&gt;Node34 -->
<g id="edge5" class="edge">
<title>Node32&#45;&gt;Node34</title>
<path fill="none" stroke="#191970" d="M350.7436,-553.1966C468.801,-553.476 717.4251,-550.0504 925,-520.5 987.8611,-511.5511 1011.1199,-522.6468 1064,-487.5 1110.0174,-456.9146 1141.1154,-395.0634 1151.8504,-371.1984"/>
<polygon fill="#191970" stroke="#191970" points="350.4275,-549.6956 340.4158,-553.1618 350.4039,-556.6956 350.4275,-549.6956"/>
</g>
<!-- Node33 -->
<g id="node4" class="node">
<title>Node33</title>
<g id="a_node4"><a xlink:href="struct_urho3_d_1_1_ref_count.html" target="_top" xlink:title="Reference count structure. ">
<polygon fill="none" stroke="#000000" points="12,-543 12,-562 116,-562 116,-543 12,-543"/>
<text text-anchor="middle" x="64" y="-550" font-family="Helvetica,sans-Serif" font-size="10.00" fill="#000000">Urho3D::RefCount</text>
</a>
</g>
</g>
<!-- Node33&#45;&gt;Node32 -->
<g id="edge3" class="edge">
<title>Node33&#45;&gt;Node32</title>
<path fill="none" stroke="#9a32cd" stroke-dasharray="5,2" d="M126.3486,-552.5C156.9635,-552.5 193.6303,-552.5 223.6841,-552.5"/>
<polygon fill="#9a32cd" stroke="#9a32cd" points="126.2165,-549.0001 116.2164,-552.5 126.2164,-556.0001 126.2165,-549.0001"/>
<text text-anchor="middle" x="171.5" y="-555.5" font-family="Helvetica,sans-Serif" font-size="10.00" fill="#000000"> refCount_</text>
</g>
<!-- Node34&#45;&gt;Node31 -->
<g id="edge4" class="edge">
<title>Node34&#45;&gt;Node31</title>
<path fill="none" stroke="#9a32cd" stroke-dasharray="5,2" d="M1155.1188,-381.1081C1151.1186,-460.2333 1131.8174,-754.4598 1064,-810.5 1044.3253,-826.758 680.0984,-821.0531 549.8395,-818.478"/>
<polygon fill="#9a32cd" stroke="#9a32cd" points="1158.6181,-381.2051 1155.6019,-371.0486 1151.6262,-380.8692 1158.6181,-381.2051"/>
<text text-anchor="middle" x="796.5" y="-824.5" font-family="Helvetica,sans-Serif" font-size="10.00" fill="#000000"> context_</text>
</g>
<!-- Node35 -->
<g id="node6" class="node">
<title>Node35</title>
<g id="a_node6"><a xlink:href="class_urho3_d_1_1_hash_map.html" target="_top" xlink:title="Urho3D::HashMap\&lt; Urho3D\l::Object *, Urho3D::HashMap\l\&lt; Urho3D::StringHash, Urho3D\l::SharedPtr\&lt; Urho3D::EventReceiverGroup \&gt; \&gt; \&gt;">
<polygon fill="none" stroke="#000000" points="668,-169.5 668,-221.5 925,-221.5 925,-169.5 668,-169.5"/>
<text text-anchor="start" x="676" y="-209.5" font-family="Helvetica,sans-Serif" font-size="10.00" fill="#000000">Urho3D::HashMap&lt; Urho3D</text>
<text text-anchor="start" x="676" y="-198.5" font-family="Helvetica,sans-Serif" font-size="10.00" fill="#000000">::Object *, Urho3D::HashMap</text>
<text text-anchor="start" x="676" y="-187.5" font-family="Helvetica,sans-Serif" font-size="10.00" fill="#000000">&lt; Urho3D::StringHash, Urho3D</text>
<text text-anchor="middle" x="796.5" y="-176.5" font-family="Helvetica,sans-Serif" font-size="10.00" fill="#000000">::SharedPtr&lt; Urho3D::EventReceiverGroup &gt; &gt; &gt;</text>
</a>
</g>
</g>
<!-- Node35&#45;&gt;Node34 -->
<g id="edge6" class="edge">
<title>Node35&#45;&gt;Node34</title>
<path fill="none" stroke="#9a32cd" stroke-dasharray="5,2" d="M934.915,-217.9467C978.1947,-228.7685 1024.8328,-244.5755 1064,-267.5 1102.4296,-289.9928 1135.6939,-332.7595 1149.3645,-351.8634"/>
<polygon fill="#9a32cd" stroke="#9a32cd" points="935.7013,-214.536 925.1576,-215.576 934.0485,-221.3381 935.7013,-214.536"/>
<text text-anchor="middle" x="1003.5" y="-270.5" font-family="Helvetica,sans-Serif" font-size="10.00" fill="#000000"> specificEventReceivers_</text>
</g>
<!-- Node36 -->
<g id="node7" class="node">
<title>Node36</title>
<g id="a_node7"><a xlink:href="class_urho3_d_1_1_hash_base.html" target="_top" xlink:title="Hash set/map base class. ">
<polygon fill="none" stroke="#000000" points="450,-312 450,-331 558,-331 558,-312 450,-312"/>
<text text-anchor="middle" x="504" y="-319" font-family="Helvetica,sans-Serif" font-size="10.00" fill="#000000">Urho3D::HashBase</text>
</a>
</g>
</g>
<!-- Node36&#45;&gt;Node35 -->
<g id="edge7" class="edge">
<title>Node36&#45;&gt;Node35</title>
<path fill="none" stroke="#191970" d="M527.5955,-306.2868C558.7181,-286.7588 615.6792,-252.8558 668,-231.5 676.6872,-227.9541 685.8419,-224.6292 695.0987,-221.544"/>
<polygon fill="#191970" stroke="#191970" points="525.3764,-303.5492 518.8,-311.8559 529.1212,-309.4634 525.3764,-303.5492"/>
</g>
<!-- Node40 -->
<g id="node11" class="node">
<title>Node40</title>
<g id="a_node11"><a xlink:href="class_urho3_d_1_1_hash_map.html" target="_top" xlink:title="Urho3D::HashMap\&lt; Urho3D\l::StringHash, Urho3D::\lSharedPtr\&lt; Urho3D::EventReceiver\lGroup \&gt; \&gt;">
<polygon fill="none" stroke="#000000" points="702.5,-98.5 702.5,-150.5 890.5,-150.5 890.5,-98.5 702.5,-98.5"/>
<text text-anchor="start" x="710.5" y="-138.5" font-family="Helvetica,sans-Serif" font-size="10.00" fill="#000000">Urho3D::HashMap&lt; Urho3D</text>
<text text-anchor="start" x="710.5" y="-127.5" font-family="Helvetica,sans-Serif" font-size="10.00" fill="#000000">::StringHash, Urho3D::</text>
<text text-anchor="start" x="710.5" y="-116.5" font-family="Helvetica,sans-Serif" font-size="10.00" fill="#000000">SharedPtr&lt; Urho3D::EventReceiver</text>
<text text-anchor="middle" x="796.5" y="-105.5" font-family="Helvetica,sans-Serif" font-size="10.00" fill="#000000">Group &gt; &gt;</text>
</a>
</g>
</g>
<!-- Node36&#45;&gt;Node40 -->
<g id="edge15" class="edge">
<title>Node36&#45;&gt;Node40</title>
<path fill="none" stroke="#191970" d="M517.135,-303.3123C542.4227,-269.6551 601.3041,-197.6212 668,-159.5 678.6393,-153.4189 690.381,-148.3557 702.3126,-144.1494"/>
<polygon fill="#191970" stroke="#191970" points="514.0443,-301.6055 510.9148,-311.7277 519.6735,-305.7664 514.0443,-301.6055"/>
</g>
<!-- Node46 -->
<g id="node17" class="node">
<title>Node46</title>
<g id="a_node17"><a xlink:href="class_urho3_d_1_1_hash_map.html" target="_top" xlink:title="Urho3D::HashMap\&lt; StringHash,\l Variant \&gt;">
<polygon fill="none" stroke="#000000" points="710.5,-481.5 710.5,-511.5 882.5,-511.5 882.5,-481.5 710.5,-481.5"/>
<text text-anchor="start" x="718.5" y="-499.5" font-family="Helvetica,sans-Serif" font-size="10.00" fill="#000000">Urho3D::HashMap&lt; StringHash,</text>
<text text-anchor="middle" x="796.5" y="-488.5" font-family="Helvetica,sans-Serif" font-size="10.00" fill="#000000"> Variant &gt;</text>
</a>
</g>
</g>
<!-- Node36&#45;&gt;Node46 -->
<g id="edge25" class="edge">
<title>Node36&#45;&gt;Node46</title>
<path fill="none" stroke="#191970" d="M517.508,-339.3621C543.0086,-371.6472 601.671,-439.3424 668,-471.5 681.0884,-477.8455 695.6638,-482.5808 710.1648,-486.1143"/>
<polygon fill="#191970" stroke="#191970" points="520.1119,-337.0086 511.2161,-331.254 514.5817,-341.3001 520.1119,-337.0086"/>
</g>
<!-- Node47 -->
<g id="node18" class="node">
<title>Node47</title>
<g id="a_node18"><a xlink:href="class_urho3_d_1_1_hash_map.html" target="_top" xlink:title="Urho3D::HashMap\&lt; Urho3D\l::StringHash, Urho3D::\lSharedPtr\&lt; Urho3D::Object \&gt; \&gt;">
<polygon fill="none" stroke="#000000" points="710.5,-421 710.5,-462 882.5,-462 882.5,-421 710.5,-421"/>
<text text-anchor="start" x="718.5" y="-450" font-family="Helvetica,sans-Serif" font-size="10.00" fill="#000000">Urho3D::HashMap&lt; Urho3D</text>
<text text-anchor="start" x="718.5" y="-439" font-family="Helvetica,sans-Serif" font-size="10.00" fill="#000000">::StringHash, Urho3D::</text>
<text text-anchor="middle" x="796.5" y="-428" font-family="Helvetica,sans-Serif" font-size="10.00" fill="#000000">SharedPtr&lt; Urho3D::Object &gt; &gt;</text>
</a>
</g>
</g>
<!-- Node36&#45;&gt;Node47 -->
<g id="edge27" class="edge">
<title>Node36&#45;&gt;Node47</title>
<path fill="none" stroke="#191970" d="M526.9736,-336.7575C557.8348,-356.6206 614.9492,-391.1898 668,-411.5 681.4786,-416.6602 696.1055,-421.0975 710.4991,-424.8552"/>
<polygon fill="#191970" stroke="#191970" points="528.5634,-333.6163 518.2724,-331.0972 524.7463,-339.484 528.5634,-333.6163"/>
</g>
<!-- Node49 -->
<g id="node20" class="node">
<title>Node49</title>
<g id="a_node20"><a xlink:href="class_urho3_d_1_1_hash_map.html" target="_top" xlink:title="Urho3D::HashMap\&lt; Urho3D\l::StringHash, Urho3D::\lSharedPtr\&lt; Urho3D::ObjectFactory \&gt; \&gt;">
<polygon fill="none" stroke="#000000" points="693,-361 693,-402 900,-402 900,-361 693,-361"/>
<text text-anchor="start" x="701" y="-390" font-family="Helvetica,sans-Serif" font-size="10.00" fill="#000000">Urho3D::HashMap&lt; Urho3D</text>
<text text-anchor="start" x="701" y="-379" font-family="Helvetica,sans-Serif" font-size="10.00" fill="#000000">::StringHash, Urho3D::</text>
<text text-anchor="middle" x="796.5" y="-368" font-family="Helvetica,sans-Serif" font-size="10.00" fill="#000000">SharedPtr&lt; Urho3D::ObjectFactory &gt; &gt;</text>
</a>
</g>
</g>
<!-- Node36&#45;&gt;Node49 -->
<g id="edge31" class="edge">
<title>Node36&#45;&gt;Node49</title>
<path fill="none" stroke="#191970" d="M560.3355,-333.056C598.8617,-340.9588 650.9909,-351.652 696.4726,-360.9816"/>
<polygon fill="#191970" stroke="#191970" points="560.8469,-329.5881 550.3475,-331.0072 559.4402,-336.4453 560.8469,-329.5881"/>
</g>
<!-- Node50 -->
<g id="node21" class="node">
<title>Node50</title>
<g id="a_node21"><a xlink:href="class_urho3_d_1_1_hash_map.html" target="_top" xlink:title="Urho3D::HashMap\&lt; Urho3D\l::String, Urho3D::Vector\l\&lt; Urho3D::StringHash \&gt; \&gt;">
<polygon fill="none" stroke="#000000" points="720.5,-301 720.5,-342 872.5,-342 872.5,-301 720.5,-301"/>
<text text-anchor="start" x="728.5" y="-330" font-family="Helvetica,sans-Serif" font-size="10.00" fill="#000000">Urho3D::HashMap&lt; Urho3D</text>
<text text-anchor="start" x="728.5" y="-319" font-family="Helvetica,sans-Serif" font-size="10.00" fill="#000000">::String, Urho3D::Vector</text>
<text text-anchor="middle" x="796.5" y="-308" font-family="Helvetica,sans-Serif" font-size="10.00" fill="#000000">&lt; Urho3D::StringHash &gt; &gt;</text>
</a>
</g>
</g>
<!-- Node36&#45;&gt;Node50 -->
<g id="edge33" class="edge">
<title>Node36&#45;&gt;Node50</title>
<path fill="none" stroke="#191970" d="M568.5181,-321.5C613.3408,-321.5 673.25,-321.5 720.4067,-321.5"/>
<polygon fill="#191970" stroke="#191970" points="568.3315,-318.0001 558.3315,-321.5 568.3315,-325.0001 568.3315,-318.0001"/>
</g>
<!-- Node51 -->
<g id="node22" class="node">
<title>Node51</title>
<g id="a_node22"><a xlink:href="class_urho3_d_1_1_hash_map.html" target="_top" xlink:title="Urho3D::HashMap\&lt; Urho3D\l::StringHash, Urho3D::\lVector\&lt; Urho3D::AttributeInfo \&gt; \&gt;">
<polygon fill="none" stroke="#000000" points="704,-241 704,-282 889,-282 889,-241 704,-241"/>
<text text-anchor="start" x="712" y="-270" font-family="Helvetica,sans-Serif" font-size="10.00" fill="#000000">Urho3D::HashMap&lt; Urho3D</text>
<text text-anchor="start" x="712" y="-259" font-family="Helvetica,sans-Serif" font-size="10.00" fill="#000000">::StringHash, Urho3D::</text>
<text text-anchor="middle" x="796.5" y="-248" font-family="Helvetica,sans-Serif" font-size="10.00" fill="#000000">Vector&lt; Urho3D::AttributeInfo &gt; &gt;</text>
</a>
</g>
</g>
<!-- Node36&#45;&gt;Node51 -->
<g id="edge35" class="edge">
<title>Node36&#45;&gt;Node51</title>
<path fill="none" stroke="#191970" d="M560.3294,-309.9453C600.9287,-301.6172 656.6365,-290.1899 703.7518,-280.5253"/>
<polygon fill="#191970" stroke="#191970" points="559.4402,-306.5547 550.3475,-311.9928 560.8469,-313.4119 559.4402,-306.5547"/>
</g>
<!-- Node37 -->
<g id="node8" class="node">
<title>Node37</title>
<g id="a_node8"><a xlink:href="struct_urho3_d_1_1_hash_node_base.html" target="_top" xlink:title="Hash set/map node base class. ">
<polygon fill="none" stroke="#000000" points="215,-346 215,-365 349,-365 349,-346 215,-346"/>
<text text-anchor="middle" x="282" y="-353" font-family="Helvetica,sans-Serif" font-size="10.00" fill="#000000">Urho3D::HashNodeBase</text>
</a>
</g>
</g>
<!-- Node37&#45;&gt;Node36 -->
<g id="edge8" class="edge">
<title>Node37&#45;&gt;Node36</title>
<path fill="none" stroke="#9a32cd" stroke-dasharray="5,2" d="M354.0617,-344.4635C385.1891,-339.6963 420.9947,-334.2125 449.8086,-329.7996"/>
<polygon fill="#9a32cd" stroke="#9a32cd" points="353.4894,-341.0103 344.1346,-345.9839 354.5492,-347.9296 353.4894,-341.0103"/>
<text text-anchor="middle" x="393" y="-367.5" font-family="Helvetica,sans-Serif" font-size="10.00" fill="#000000"> ptrs_</text>
<text text-anchor="middle" x="393" y="-356.5" font-family="Helvetica,sans-Serif" font-size="10.00" fill="#000000">tail_</text>
<text text-anchor="middle" x="393" y="-345.5" font-family="Helvetica,sans-Serif" font-size="10.00" fill="#000000">head_</text>
</g>
<!-- Node37&#45;&gt;Node37 -->
<g id="edge9" class="edge">
<title>Node37&#45;&gt;Node37</title>
<path fill="none" stroke="#9a32cd" stroke-dasharray="5,2" d="M261.6306,-374.9C262.991,-379.8146 269.7808,-383.5 282,-383.5 301.5508,-383.5 307.2022,-374.0653 298.9542,-365.2571"/>
<polygon fill="#9a32cd" stroke="#9a32cd" points="265.0065,-375.8518 265.0458,-365.2571 258.4081,-373.5149 265.0065,-375.8518"/>
<text text-anchor="middle" x="282" y="-408.5" font-family="Helvetica,sans-Serif" font-size="10.00" fill="#000000"> next_</text>
<text text-anchor="middle" x="282" y="-397.5" font-family="Helvetica,sans-Serif" font-size="10.00" fill="#000000">prev_</text>
<text text-anchor="middle" x="282" y="-386.5" font-family="Helvetica,sans-Serif" font-size="10.00" fill="#000000">down_</text>
</g>
<!-- Node38 -->
<g id="node9" class="node">
<title>Node38</title>
<g id="a_node9"><a xlink:href="struct_urho3_d_1_1_allocator_block.html" target="_top" xlink:title="Allocator memory block. ">
<polygon fill="none" stroke="#000000" points="217,-279 217,-298 347,-298 347,-279 217,-279"/>
<text text-anchor="middle" x="282" y="-286" font-family="Helvetica,sans-Serif" font-size="10.00" fill="#000000">Urho3D::AllocatorBlock</text>
</a>
</g>
</g>
<!-- Node38&#45;&gt;Node36 -->
<g id="edge10" class="edge">
<title>Node38&#45;&gt;Node36</title>
<path fill="none" stroke="#9a32cd" stroke-dasharray="5,2" d="M356.138,-299.5205C386.8122,-304.0802 421.723,-309.2696 449.9173,-313.4607"/>
<polygon fill="#9a32cd" stroke="#9a32cd" points="356.3197,-296.0091 345.9138,-298.0007 355.2904,-302.9331 356.3197,-296.0091"/>
<text text-anchor="middle" x="393" y="-311.5" font-family="Helvetica,sans-Serif" font-size="10.00" fill="#000000"> allocator_</text>
</g>
<!-- Node38&#45;&gt;Node38 -->
<g id="edge11" class="edge">
<title>Node38&#45;&gt;Node38</title>
<path fill="none" stroke="#9a32cd" stroke-dasharray="5,2" d="M261.6306,-307.9C262.991,-312.8146 269.7808,-316.5 282,-316.5 301.5508,-316.5 307.2022,-307.0653 298.9542,-298.2571"/>
<polygon fill="#9a32cd" stroke="#9a32cd" points="265.0065,-308.8518 265.0458,-298.2571 258.4081,-306.5149 265.0065,-308.8518"/>
<text text-anchor="middle" x="282" y="-319.5" font-family="Helvetica,sans-Serif" font-size="10.00" fill="#000000"> next_</text>
</g>
<!-- Node39 -->
<g id="node10" class="node">
<title>Node39</title>
<g id="a_node10"><a xlink:href="struct_urho3_d_1_1_allocator_node.html" target="_top" xlink:title="Allocator node. ">
<polygon fill="none" stroke="#000000" points="0,-279 0,-298 128,-298 128,-279 0,-279"/>
<text text-anchor="middle" x="64" y="-286" font-family="Helvetica,sans-Serif" font-size="10.00" fill="#000000">Urho3D::AllocatorNode</text>
</a>
</g>
</g>
<!-- Node39&#45;&gt;Node38 -->
<g id="edge12" class="edge">
<title>Node39&#45;&gt;Node38</title>
<path fill="none" stroke="#9a32cd" stroke-dasharray="5,2" d="M138.5487,-288.5C163.9409,-288.5 192.1134,-288.5 216.722,-288.5"/>
<polygon fill="#9a32cd" stroke="#9a32cd" points="138.2281,-285.0001 128.2281,-288.5 138.2281,-292.0001 138.2281,-285.0001"/>
<text text-anchor="middle" x="171.5" y="-291.5" font-family="Helvetica,sans-Serif" font-size="10.00" fill="#000000"> free_</text>
</g>
<!-- Node39&#45;&gt;Node39 -->
<g id="edge13" class="edge">
<title>Node39&#45;&gt;Node39</title>
<path fill="none" stroke="#9a32cd" stroke-dasharray="5,2" d="M44.3713,-307.9C45.6822,-312.8146 52.2251,-316.5 64,-316.5 82.8398,-316.5 88.2857,-307.0653 80.3377,-298.2571"/>
<polygon fill="#9a32cd" stroke="#9a32cd" points="47.7447,-308.8516 47.6623,-298.2571 41.1199,-306.5906 47.7447,-308.8516"/>
<text text-anchor="middle" x="64" y="-319.5" font-family="Helvetica,sans-Serif" font-size="10.00" fill="#000000"> next_</text>
</g>
<!-- Node40&#45;&gt;Node34 -->
<g id="edge14" class="edge">
<title>Node40&#45;&gt;Node34</title>
<path fill="none" stroke="#9a32cd" stroke-dasharray="5,2" d="M900.6745,-137.498C954.1507,-148.5547 1017.6209,-168.9492 1064,-206.5 1114.8303,-247.6548 1143.984,-324.922 1152.9756,-351.9064"/>
<polygon fill="#9a32cd" stroke="#9a32cd" points="901.3021,-134.0544 890.812,-135.5401 899.939,-140.9204 901.3021,-134.0544"/>
<text text-anchor="middle" x="1003.5" y="-209.5" font-family="Helvetica,sans-Serif" font-size="10.00" fill="#000000"> eventReceivers_</text>
</g>
<!-- Node41&#45;&gt;Node34 -->
<g id="edge16" class="edge">
<title>Node41&#45;&gt;Node34</title>
<path fill="none" stroke="#9a32cd" stroke-dasharray="5,2" d="M833.1179,-718.2023C859.6267,-707.8188 895.7815,-692.0641 925,-673.5 993.642,-629.8881 1014.5382,-619.0543 1064,-554.5 1111.8608,-492.0352 1143.5449,-400.6701 1153.0225,-371.1086"/>
<polygon fill="#9a32cd" stroke="#9a32cd" points="831.5429,-715.058 823.465,-721.9135 834.055,-721.5917 831.5429,-715.058"/>
<text text-anchor="middle" x="1003.5" y="-664.5" font-family="Helvetica,sans-Serif" font-size="10.00" fill="#000000"> eventHandler_</text>
</g>
<!-- Node52 -->
<g id="node23" class="node">
<title>Node52</title>
<g id="a_node23"><a xlink:href="class_urho3_d_1_1_linked_list.html" target="_top" xlink:title="Urho3D::LinkedList\l\&lt; Urho3D::EventHandler \&gt;">
<polygon fill="none" stroke="#000000" points="1082,-804.5 1082,-834.5 1230,-834.5 1230,-804.5 1082,-804.5"/>
<text text-anchor="start" x="1090" y="-822.5" font-family="Helvetica,sans-Serif" font-size="10.00" fill="#000000">Urho3D::LinkedList</text>
<text text-anchor="middle" x="1156" y="-811.5" font-family="Helvetica,sans-Serif" font-size="10.00" fill="#000000">&lt; Urho3D::EventHandler &gt;</text>
</a>
</g>
</g>
<!-- Node41&#45;&gt;Node52 -->
<g id="edge37" class="edge">
<title>Node41&#45;&gt;Node52</title>
<path fill="none" stroke="#9a32cd" stroke-dasharray="5,2" d="M845.2552,-743.4345C909.9321,-759.2664 1024.1186,-787.2175 1094.6026,-804.4709"/>
<polygon fill="#9a32cd" stroke="#9a32cd" points="845.8598,-739.9792 835.3144,-741.0012 844.1954,-746.7785 845.8598,-739.9792"/>
<text text-anchor="middle" x="1003.5" y="-798.5" font-family="Helvetica,sans-Serif" font-size="10.00" fill="#000000"> head_</text>
</g>
<!-- Node42 -->
<g id="node13" class="node">
<title>Node42</title>
<g id="a_node13"><a xlink:href="struct_urho3_d_1_1_linked_list_node.html" target="_top" xlink:title="Singly&#45;linked list node base class. ">
<polygon fill="none" stroke="#000000" points="437,-741 437,-760 571,-760 571,-741 437,-741"/>
<text text-anchor="middle" x="504" y="-748" font-family="Helvetica,sans-Serif" font-size="10.00" fill="#000000">Urho3D::LinkedListNode</text>
</a>
</g>
</g>
<!-- Node42&#45;&gt;Node41 -->
<g id="edge17" class="edge">
<title>Node42&#45;&gt;Node41</title>
<path fill="none" stroke="#191970" d="M581.3621,-745.4748C628.9322,-742.3847 689.1049,-738.4761 733.7093,-735.5787"/>
<polygon fill="#191970" stroke="#191970" points="580.8575,-742.0001 571.1054,-746.141 581.3113,-748.9854 580.8575,-742.0001"/>
</g>
<!-- Node42&#45;&gt;Node42 -->
<g id="edge18" class="edge">
<title>Node42&#45;&gt;Node42</title>
<path fill="none" stroke="#9a32cd" stroke-dasharray="5,2" d="M483.6306,-769.9C484.991,-774.8146 491.7808,-778.5 504,-778.5 523.5508,-778.5 529.2022,-769.0653 520.9542,-760.2571"/>
<polygon fill="#9a32cd" stroke="#9a32cd" points="487.0065,-770.8518 487.0458,-760.2571 480.4081,-768.5149 487.0065,-770.8518"/>
<text text-anchor="middle" x="504" y="-781.5" font-family="Helvetica,sans-Serif" font-size="10.00" fill="#000000"> next_</text>
</g>
<!-- Node43 -->
<g id="node14" class="node">
<title>Node43</title>
<g id="a_node14"><a xlink:href="class_urho3_d_1_1_string_hash.html" target="_top" xlink:title="32&#45;bit hash value for a string. ">
<polygon fill="none" stroke="#000000" points="447.5,-674 447.5,-693 560.5,-693 560.5,-674 447.5,-674"/>
<text text-anchor="middle" x="504" y="-681" font-family="Helvetica,sans-Serif" font-size="10.00" fill="#000000">Urho3D::StringHash</text>
</a>
</g>
</g>
<!-- Node43&#45;&gt;Node30 -->
<g id="edge41" class="edge">
<title>Node43&#45;&gt;Node30</title>
<path fill="none" stroke="#9a32cd" stroke-dasharray="5,2" d="M570.9143,-674.5715C577.0253,-673.8374 583.124,-673.1348 589,-672.5 641.8471,-666.7909 702.421,-661.7032 744.4228,-658.4058"/>
<polygon fill="#9a32cd" stroke="#9a32cd" points="570.155,-671.1383 560.6557,-675.8302 571.0075,-678.0862 570.155,-671.1383"/>
<text text-anchor="middle" x="619.5" y="-675.5" font-family="Helvetica,sans-Serif" font-size="10.00" fill="#000000"> nameHash_</text>
</g>
<!-- Node43&#45;&gt;Node41 -->
<g id="edge20" class="edge">
<title>Node43&#45;&gt;Node41</title>
<path fill="none" stroke="#9a32cd" stroke-dasharray="5,2" d="M570.9212,-694.4819C621.4739,-702.7778 690.1586,-714.0491 738.4137,-721.9679"/>
<polygon fill="#9a32cd" stroke="#9a32cd" points="571.1786,-690.9774 560.7438,-692.8118 570.045,-697.885 571.1786,-690.9774"/>
<text text-anchor="middle" x="619.5" y="-709.5" font-family="Helvetica,sans-Serif" font-size="10.00" fill="#000000"> eventType_</text>
</g>
<!-- Node43&#45;&gt;Node43 -->
<g id="edge21" class="edge">
<title>Node43&#45;&gt;Node43</title>
<path fill="none" stroke="#9a32cd" stroke-dasharray="5,2" d="M483.6306,-702.9C484.991,-707.8146 491.7808,-711.5 504,-711.5 523.5508,-711.5 529.2022,-702.0653 520.9542,-693.2571"/>
<polygon fill="#9a32cd" stroke="#9a32cd" points="487.0065,-703.8518 487.0458,-693.2571 480.4081,-701.5149 487.0065,-703.8518"/>
<text text-anchor="middle" x="504" y="-714.5" font-family="Helvetica,sans-Serif" font-size="10.00" fill="#000000"> ZERO</text>
</g>
<!-- Node44 -->
<g id="node15" class="node">
<title>Node44</title>
<g id="a_node15"><a xlink:href="class_urho3_d_1_1_p_o_d_vector.html" target="_top" xlink:title="Urho3D::PODVector\&lt;\l Urho3D::Object *\&gt;">
<polygon fill="none" stroke="#000000" points="737,-.5 737,-30.5 856,-30.5 856,-.5 737,-.5"/>
<text text-anchor="start" x="745" y="-18.5" font-family="Helvetica,sans-Serif" font-size="10.00" fill="#000000">Urho3D::PODVector&lt;</text>
<text text-anchor="middle" x="796.5" y="-7.5" font-family="Helvetica,sans-Serif" font-size="10.00" fill="#000000"> Urho3D::Object *&gt;</text>
</a>
</g>
</g>
<!-- Node44&#45;&gt;Node34 -->
<g id="edge22" class="edge">
<title>Node44&#45;&gt;Node34</title>
<path fill="none" stroke="#9a32cd" stroke-dasharray="5,2" d="M866.324,-16.2279C926.7486,-20.6898 1012.3236,-36.8247 1064,-89.5 1140.9775,-167.9655 1153.6028,-313.055 1155.624,-351.7857"/>
<polygon fill="#9a32cd" stroke="#9a32cd" points="866.3064,-12.7195 856.1011,-15.5658 865.854,-19.7048 866.3064,-12.7195"/>
<text text-anchor="middle" x="1003.5" y="-92.5" font-family="Helvetica,sans-Serif" font-size="10.00" fill="#000000"> eventSenders_</text>
</g>
<!-- Node45 -->
<g id="node16" class="node">
<title>Node45</title>
<g id="a_node16"><a xlink:href="class_urho3_d_1_1_vector_base.html" target="_top" xlink:title="Vector base class. ">
<polygon fill="none" stroke="#000000" points="447,-28 447,-47 561,-47 561,-28 447,-28"/>
<text text-anchor="middle" x="504" y="-35" font-family="Helvetica,sans-Serif" font-size="10.00" fill="#000000">Urho3D::VectorBase</text>
</a>
</g>
</g>
<!-- Node45&#45;&gt;Node44 -->
<g id="edge23" class="edge">
<title>Node45&#45;&gt;Node44</title>
<path fill="none" stroke="#191970" d="M571.1552,-32.449C621.1205,-28.6909 688.702,-23.6079 736.7895,-19.991"/>
<polygon fill="#191970" stroke="#191970" points="570.8006,-28.9657 561.0913,-33.206 571.3257,-35.946 570.8006,-28.9657"/>
</g>
<!-- Node48 -->
<g id="node19" class="node">
<title>Node48</title>
<g id="a_node19"><a xlink:href="class_urho3_d_1_1_p_o_d_vector.html" target="_top" xlink:title="Urho3D::PODVector\&lt;\l Urho3D::HashMap *\&gt;">
<polygon fill="none" stroke="#000000" points="734.5,-49.5 734.5,-79.5 858.5,-79.5 858.5,-49.5 734.5,-49.5"/>
<text text-anchor="start" x="742.5" y="-67.5" font-family="Helvetica,sans-Serif" font-size="10.00" fill="#000000">Urho3D::PODVector&lt;</text>
<text text-anchor="middle" x="796.5" y="-56.5" font-family="Helvetica,sans-Serif" font-size="10.00" fill="#000000"> Urho3D::HashMap *&gt;</text>
</a>
</g>
</g>
<!-- Node45&#45;&gt;Node48 -->
<g id="edge29" class="edge">
<title>Node45&#45;&gt;Node48</title>
<path fill="none" stroke="#191970" d="M571.311,-43.7133C620.471,-48.2512 686.6219,-54.3574 734.4962,-58.7766"/>
<polygon fill="#191970" stroke="#191970" points="571.3707,-40.204 561.0913,-42.77 570.7272,-47.1744 571.3707,-40.204"/>
</g>
<!-- Node46&#45;&gt;Node34 -->
<g id="edge24" class="edge">
<title>Node46&#45;&gt;Node34</title>
<path fill="none" stroke="#9a32cd" stroke-dasharray="5,2" d="M892.7009,-482.946C945.2888,-472.9854 1010.4311,-456.3732 1064,-429.5 1096.3104,-413.2913 1129.1792,-385.7599 1145.4817,-371.1978"/>
<polygon fill="#9a32cd" stroke="#9a32cd" points="891.896,-479.5353 882.696,-484.7899 893.1648,-486.4194 891.896,-479.5353"/>
<text text-anchor="middle" x="1003.5" y="-475.5" font-family="Helvetica,sans-Serif" font-size="10.00" fill="#000000"> globalVars_</text>
</g>
<!-- Node47&#45;&gt;Node34 -->
<g id="edge26" class="edge">
<title>Node47&#45;&gt;Node34</title>
<path fill="none" stroke="#9a32cd" stroke-dasharray="5,2" d="M892.8143,-424.5826C943.9206,-415.0614 1007.6376,-402.3245 1064,-388.5 1084.855,-383.3847 1108.0528,-376.5688 1125.9368,-371.065"/>
<polygon fill="#9a32cd" stroke="#9a32cd" points="891.9625,-421.1808 882.7671,-426.4434 893.2373,-428.0637 891.9625,-421.1808"/>
<text text-anchor="middle" x="1003.5" y="-417.5" font-family="Helvetica,sans-Serif" font-size="10.00" fill="#000000"> subsystems_</text>
</g>
<!-- Node48&#45;&gt;Node34 -->
<g id="edge28" class="edge">
<title>Node48&#45;&gt;Node34</title>
<path fill="none" stroke="#9a32cd" stroke-dasharray="5,2" d="M868.878,-70.9865C887.8019,-74.5442 907.7252,-80.0348 925,-88.5 934.6116,-93.21 933.5494,-99.4747 943,-104.5 992.0157,-130.5641 1022.1725,-98.9988 1064,-135.5 1133.2622,-195.9423 1151.2073,-316.3018 1155.0674,-351.571"/>
<polygon fill="#9a32cd" stroke="#9a32cd" points="869.2418,-67.4977 858.7928,-69.2495 868.0536,-74.3961 869.2418,-67.4977"/>
<text text-anchor="middle" x="1003.5" y="-138.5" font-family="Helvetica,sans-Serif" font-size="10.00" fill="#000000"> eventDataMaps_</text>
</g>
<!-- Node49&#45;&gt;Node34 -->
<g id="edge30" class="edge">
<title>Node49&#45;&gt;Node34</title>
<path fill="none" stroke="#9a32cd" stroke-dasharray="5,2" d="M910.5356,-375.1559C976.5568,-371.4829 1056.2938,-367.0469 1106.5876,-364.2489"/>
<polygon fill="#9a32cd" stroke="#9a32cd" points="910.2724,-371.665 900.4823,-375.7152 910.6613,-378.6542 910.2724,-371.665"/>
<text text-anchor="middle" x="1003.5" y="-376.5" font-family="Helvetica,sans-Serif" font-size="10.00" fill="#000000"> factories_</text>
</g>
<!-- Node50&#45;&gt;Node34 -->
<g id="edge32" class="edge">
<title>Node50&#45;&gt;Node34</title>
<path fill="none" stroke="#9a32cd" stroke-dasharray="5,2" d="M882.8881,-331.112C953.0079,-338.914 1049.3656,-349.6353 1106.896,-356.0364"/>
<polygon fill="#9a32cd" stroke="#9a32cd" points="883.0664,-327.6104 872.7407,-329.983 882.2923,-334.5674 883.0664,-327.6104"/>
<text text-anchor="middle" x="1003.5" y="-354.5" font-family="Helvetica,sans-Serif" font-size="10.00" fill="#000000"> objectCategories_</text>
</g>
<!-- Node51&#45;&gt;Node34 -->
<g id="edge34" class="edge">
<title>Node51&#45;&gt;Node34</title>
<path fill="none" stroke="#9a32cd" stroke-dasharray="5,2" d="M899.2643,-273.6961C949.8276,-281.5458 1011.1208,-293.8605 1064,-312.5 1092.8435,-322.6671 1123.6987,-340.765 1141.3394,-351.8916"/>
<polygon fill="#9a32cd" stroke="#9a32cd" points="899.7121,-270.224 889.3003,-272.1851 898.6625,-277.1449 899.7121,-270.224"/>
<text text-anchor="middle" x="1003.5" y="-326.5" font-family="Helvetica,sans-Serif" font-size="10.00" fill="#000000"> attributes_</text>
<text text-anchor="middle" x="1003.5" y="-315.5" font-family="Helvetica,sans-Serif" font-size="10.00" fill="#000000">networkAttributes_</text>
</g>
<!-- Node52&#45;&gt;Node31 -->
<g id="edge36" class="edge">
<title>Node52&#45;&gt;Node31</title>
<path fill="none" stroke="#9a32cd" stroke-dasharray="5,2" d="M1088.8461,-836.5936C1080.5251,-838.1885 1072.0985,-839.5579 1064,-840.5 889.1783,-860.8362 843.997,-842.6139 668,-841.5 632.8868,-841.2778 623.7779,-845.3463 589,-840.5 569.7705,-837.8204 548.701,-832.1389 532.3497,-827.0935"/>
<polygon fill="#9a32cd" stroke="#9a32cd" points="1089.8106,-839.9693 1098.9144,-834.5497 1088.418,-833.1092 1089.8106,-839.9693"/>
<text text-anchor="middle" x="796.5" y="-852.5" font-family="Helvetica,sans-Serif" font-size="10.00" fill="#000000"> eventHandlers_</text>
</g>
<!-- Node53 -->
<g id="node24" class="node">
<title>Node53</title>
<g id="a_node24"><a xlink:href="class_urho3_d_1_1_timer.html" target="_top" xlink:title="Low&#45;resolution operating system timer. ">
<polygon fill="none" stroke="#000000" points="460,-636 460,-655 548,-655 548,-636 460,-636"/>
<text text-anchor="middle" x="504" y="-643" font-family="Helvetica,sans-Serif" font-size="10.00" fill="#000000">Urho3D::Timer</text>
</a>
</g>
</g>
<!-- Node53&#45;&gt;Node30 -->
<g id="edge38" class="edge">
<title>Node53&#45;&gt;Node30</title>
<path fill="none" stroke="#9a32cd" stroke-dasharray="5,2" d="M558.145,-640.371C568.3843,-639.5912 579.0138,-638.9105 589,-638.5 616.0882,-637.3865 622.929,-637.0261 650,-638.5 681.4233,-640.2109 716.4704,-643.9713 744.4049,-647.4168"/>
<polygon fill="#9a32cd" stroke="#9a32cd" points="557.7627,-636.8904 548.0741,-641.1776 558.3216,-643.868 557.7627,-636.8904"/>
<text text-anchor="middle" x="619.5" y="-641.5" font-family="Helvetica,sans-Serif" font-size="10.00" fill="#000000"> useTimer_</text>
</g>
<!-- Node54 -->
<g id="node25" class="node">
<title>Node54</title>
<g id="a_node25"><a xlink:href="class_urho3_d_1_1_string.html" target="_top" xlink:title="String class. ">
<polygon fill="none" stroke="#000000" points="460,-569 460,-588 548,-588 548,-569 460,-569"/>
<text text-anchor="middle" x="504" y="-576" font-family="Helvetica,sans-Serif" font-size="10.00" fill="#000000">Urho3D::String</text>
</a>
</g>
</g>
<!-- Node54&#45;&gt;Node30 -->
<g id="edge39" class="edge">
<title>Node54&#45;&gt;Node30</title>
<path fill="none" stroke="#9a32cd" stroke-dasharray="5,2" d="M550.7584,-590.6492C608.8165,-605.7344 706.6492,-631.1542 759.6711,-644.9308"/>
<polygon fill="#9a32cd" stroke="#9a32cd" points="551.308,-587.1758 540.7492,-588.0485 549.5476,-593.9509 551.308,-587.1758"/>
<text text-anchor="middle" x="619.5" y="-617.5" font-family="Helvetica,sans-Serif" font-size="10.00" fill="#000000"> name_</text>
</g>
<!-- Node54&#45;&gt;Node54 -->
<g id="edge40" class="edge">
<title>Node54&#45;&gt;Node54</title>
<path fill="none" stroke="#9a32cd" stroke-dasharray="5,2" d="M483.6306,-597.9C484.991,-602.8146 491.7808,-606.5 504,-606.5 523.5508,-606.5 529.2022,-597.0653 520.9542,-588.2571"/>
<polygon fill="#9a32cd" stroke="#9a32cd" points="487.0065,-598.8518 487.0458,-588.2571 480.4081,-596.5149 487.0065,-598.8518"/>
<text text-anchor="middle" x="504" y="-609.5" font-family="Helvetica,sans-Serif" font-size="10.00" fill="#000000"> EMPTY</text>
</g>
</g>
</svg>
        <g id="navigator" transform="translate(0 0)" fill="#404254">
                <rect fill="#f2f5e9" fill-opacity="0.5" stroke="#606060" stroke-width=".5" x="0" y="0" width="60" height="60"/>
                <use id="zoomplus" xlink:href="#zoomPlus" x="17" y="9" onmousedown="handleZoom(evt,'in')"/>
                <use id="zoomminus" xlink:href="#zoomMin" x="42" y="9" onmousedown="handleZoom(evt,'out')"/>
                <use id="reset" xlink:href="#resetDef" x="30" y="36" onmousedown="handleReset()"/>
                <g id="arrowUp" xlink:href="#dirArrow" transform="translate(30 24)" onmousedown="handlePan(0,-1)">
                  <use xlink:href="#rim" fill="#404040">
                        <set attributeName="fill" to="#808080" begin="arrowUp.mouseover" end="arrowUp.mouseout"/>
                  </use>
                  <path fill="none" stroke="white" stroke-width="1.5" d="M0,-3.0v7 M-2.5,-0.5L0,-3.0L2.5,-0.5"/>
                </g>
                <g id="arrowRight" xlink:href="#dirArrow" transform="rotate(90) translate(36 -43)" onmousedown="handlePan(1,0)">
                  <use xlink:href="#rim" fill="#404040">
                        <set attributeName="fill" to="#808080" begin="arrowRight.mouseover" end="arrowRight.mouseout"/>
                  </use>
                  <path fill="none" stroke="white" stroke-width="1.5" d="M0,-3.0v7 M-2.5,-0.5L0,-3.0L2.5,-0.5"/>
                </g>
                <g id="arrowDown" xlink:href="#dirArrow" transform="rotate(180) translate(-30 -48)" onmousedown="handlePan(0,1)">
                  <use xlink:href="#rim" fill="#404040">
                        <set attributeName="fill" to="#808080" begin="arrowDown.mouseover" end="arrowDown.mouseout"/>
                  </use>
                  <path fill="none" stroke="white" stroke-width="1.5" d="M0,-3.0v7 M-2.5,-0.5L0,-3.0L2.5,-0.5"/>
                </g>
                <g id="arrowLeft" xlink:href="#dirArrow" transform="rotate(270) translate(-36 17)" onmousedown="handlePan(-1,0)">
                  <use xlink:href="#rim" fill="#404040">
                        <set attributeName="fill" to="#808080" begin="arrowLeft.mouseover" end="arrowLeft.mouseout"/>
                  </use>
                  <path fill="none" stroke="white" stroke-width="1.5" d="M0,-3.0v7 M-2.5,-0.5L0,-3.0L2.5,-0.5"/>
                </g>
        </g>
        <svg viewBox="0 0 15 15" width="100%" height="30px" preserveAspectRatio="xMaxYMin meet">
         <g id="arrow_out" transform="scale(0.3 0.3)">
          <a xlink:href="class_urho3_d_1_1_resource__coll__graph_org.svg" target="_base">
           <rect id="button" ry="5" rx="5" y="6" x="6" height="38" width="38"
                fill="#f2f5e9" fill-opacity="0.5" stroke="#606060" stroke-width="1.0"/>
           <path id="arrow"
             d="M 11.500037,31.436501 C 11.940474,20.09759 22.043105,11.32322 32.158766,21.979434 L 37.068811,17.246167 C 37.068811,17.246167 37.088388,32 37.088388,32 L 22.160133,31.978069 C 22.160133,31.978069 26.997745,27.140456 26.997745,27.140456 C 18.528582,18.264221 13.291696,25.230495 11.500037,31.436501 z"
             style="fill:#404040;"/>
          </a>
         </g>
        </svg>
</svg>
