<?xml version="1.0" encoding="UTF-8" standalone="no"?>
<!DOCTYPE svg PUBLIC "-//W3C//DTD SVG 1.1//EN"
 "http://www.w3.org/Graphics/SVG/1.1/DTD/svg11.dtd">
<!-- Generated by graphviz version 2.26.3 (20100126.1600)
 -->
<!-- Title: Urho3D::CheckBox Pages: 1 -->
<svg width="1384pt" height="907pt"
 viewBox="0.00 0.00 1384.00 907.00" xmlns="http://www.w3.org/2000/svg" xmlns:xlink="http://www.w3.org/1999/xlink">
<g id="graph1" class="graph" transform="scale(1 1) rotate(0) translate(4 903)">
<title>Urho3D::CheckBox</title>
<!-- Node1 -->
<g id="node1" class="node"><title>Node1</title>
<polygon fill="#bfbfbf" stroke="black" points="1268.5,-116.5 1268.5,-137.5 1375.5,-137.5 1375.5,-116.5 1268.5,-116.5"/>
<text text-anchor="middle" x="1322" y="-124.5" font-family="FreeSans" font-size="10.00">Urho3D::CheckBox</text>
</g>
<!-- Node2 -->
<g id="node2" class="node"><title>Node2</title>
<a xlink:href="class_urho3_d_1_1_border_image.html" target="_top" xlink:title="Image UI element with optional border.">
<polygon fill="none" stroke="black" points="1108,-459.5 1108,-480.5 1230,-480.5 1230,-459.5 1108,-459.5"/>
<text text-anchor="middle" x="1169" y="-467.5" font-family="FreeSans" font-size="10.00">Urho3D::BorderImage</text>
</a>
</g>
<!-- Node2&#45;&gt;Node1 -->
<g id="edge2" class="edge"><title>Node2&#45;&gt;Node1</title>
<path fill="none" stroke="midnightblue" d="M1177.96,-449.914C1206.68,-385.526 1295.83,-185.673 1317.31,-137.517"/>
<polygon fill="midnightblue" stroke="midnightblue" points="1174.62,-448.8 1173.75,-459.359 1181.02,-451.652 1174.62,-448.8"/>
</g>
<!-- Node3 -->
<g id="node4" class="node"><title>Node3</title>
<a xlink:href="class_urho3_d_1_1_u_i_element.html" target="_top" xlink:title="Base class for UI elements.">
<polygon fill="none" stroke="black" points="881.5,-459.5 881.5,-480.5 990.5,-480.5 990.5,-459.5 881.5,-459.5"/>
<text text-anchor="middle" x="936" y="-467.5" font-family="FreeSans" font-size="10.00">Urho3D::UIElement</text>
</a>
</g>
<!-- Node3&#45;&gt;Node2 -->
<g id="edge4" class="edge"><title>Node3&#45;&gt;Node2</title>
<path fill="none" stroke="midnightblue" d="M1000.76,-470C1034.22,-470 1074.81,-470 1107.74,-470"/>
<polygon fill="midnightblue" stroke="midnightblue" points="1000.63,-466.5 990.628,-470 1000.63,-473.5 1000.63,-466.5"/>
</g>
<!-- Node3&#45;&gt;Node3 -->
<g id="edge42" class="edge"><title>Node3&#45;&gt;Node3</title>
<path fill="none" stroke="#9a32cd" stroke-dasharray="5,2" d="M914.991,-490.427C916.612,-495.349 923.615,-499 936,-499 955.816,-499 961.854,-489.653 954.113,-480.708"/>
<polygon fill="#9a32cd" stroke="#9a32cd" points="918.385,-491.291 917.887,-480.708 911.677,-489.292 918.385,-491.291"/>
<text text-anchor="middle" x="936" y="-503" font-family="FreeSans" font-size="10.00"> parent_</text>
</g>
<!-- Node4 -->
<g id="node6" class="node"><title>Node4</title>
<a xlink:href="class_urho3_d_1_1_animatable.html" target="_top" xlink:title="Base class for animatable object, an animatable object can be set animation on it&#39;s attributes...">
<polygon fill="none" stroke="black" points="598,-478.5 598,-499.5 712,-499.5 712,-478.5 598,-478.5"/>
<text text-anchor="middle" x="655" y="-486.5" font-family="FreeSans" font-size="10.00">Urho3D::Animatable</text>
</a>
</g>
<!-- Node4&#45;&gt;Node3 -->
<g id="edge6" class="edge"><title>Node4&#45;&gt;Node3</title>
<path fill="none" stroke="midnightblue" d="M722.321,-484.448C770.952,-481.16 835.809,-476.774 881.266,-473.701"/>
<polygon fill="midnightblue" stroke="midnightblue" points="721.944,-480.965 712.203,-485.132 722.417,-487.949 721.944,-480.965"/>
</g>
<!-- Node5 -->
<g id="node8" class="node"><title>Node5</title>
<a xlink:href="class_urho3_d_1_1_serializable.html" target="_top" xlink:title="Base class for objects with automatic serialization through attributes.">
<polygon fill="none" stroke="red" points="190,-465.5 190,-486.5 304,-486.5 304,-465.5 190,-465.5"/>
<text text-anchor="middle" x="247" y="-473.5" font-family="FreeSans" font-size="10.00">Urho3D::Serializable</text>
</a>
</g>
<!-- Node5&#45;&gt;Node4 -->
<g id="edge8" class="edge"><title>Node5&#45;&gt;Node4</title>
<path fill="none" stroke="midnightblue" d="M314.508,-478.151C393.677,-480.674 523.522,-484.811 597.898,-487.181"/>
<polygon fill="midnightblue" stroke="midnightblue" points="314.267,-474.642 304.16,-477.821 314.044,-481.638 314.267,-474.642"/>
</g>
<!-- Node6 -->
<g id="node10" class="node"><title>Node6</title>
<a xlink:href="class_urho3_d_1_1_hash_map.html" target="_top" xlink:title="Urho3D::HashMap\&lt; Urho3D\l::String, Urho3D::SharedPtr\l\&lt; Urho3D::AttributeAnimationInfo \&gt; \&gt;">
<polygon fill="none" stroke="black" points="146.5,-399.5 146.5,-446.5 347.5,-446.5 347.5,-399.5 146.5,-399.5"/>
<text text-anchor="start" x="154.5" y="-433.5" font-family="FreeSans" font-size="10.00">Urho3D::HashMap&lt; Urho3D</text>
<text text-anchor="start" x="154.5" y="-420.5" font-family="FreeSans" font-size="10.00">::String, Urho3D::SharedPtr</text>
<text text-anchor="middle" x="247" y="-407.5" font-family="FreeSans" font-size="10.00">&lt; Urho3D::AttributeAnimationInfo &gt; &gt;</text>
</a>
</g>
<!-- Node6&#45;&gt;Node4 -->
<g id="edge10" class="edge"><title>Node6&#45;&gt;Node4</title>
<path fill="none" stroke="#9a32cd" stroke-dasharray="5,2" d="M357.918,-438.009C438.21,-448.911 533.438,-461.936 538,-463 546.212,-464.916 547.852,-466.828 556,-469 569.47,-472.591 584.121,-475.881 597.921,-478.709"/>
<polygon fill="#9a32cd" stroke="#9a32cd" points="358.086,-434.499 347.706,-436.623 357.145,-441.436 358.086,-434.499"/>
<text text-anchor="middle" x="452" y="-467" font-family="FreeSans" font-size="10.00"> attributeAnimationInfos_</text>
</g>
<!-- Node7 -->
<g id="node12" class="node"><title>Node7</title>
<a xlink:href="class_urho3_d_1_1_hash_base.html" target="_top" xlink:title="Hash set/map base class.">
<polygon fill="none" stroke="red" points="0,-511.5 0,-532.5 108,-532.5 108,-511.5 0,-511.5"/>
<text text-anchor="middle" x="54" y="-519.5" font-family="FreeSans" font-size="10.00">Urho3D::HashBase</text>
</a>
</g>
<!-- Node7&#45;&gt;Node6 -->
<g id="edge12" class="edge"><title>Node7&#45;&gt;Node6</title>
<path fill="none" stroke="midnightblue" d="M74.2838,-504.643C92.1824,-490.037 119.48,-469.44 146,-456 152.664,-452.623 159.748,-449.488 166.951,-446.604"/>
<polygon fill="midnightblue" stroke="midnightblue" points="71.755,-502.193 66.2968,-511.274 76.2265,-507.579 71.755,-502.193"/>
</g>
<!-- Node9 -->
<g id="node16" class="node"><title>Node9</title>
<a xlink:href="class_urho3_d_1_1_hash_set.html" target="_top" xlink:title="Urho3D::HashSet\&lt; const\l Urho3D::AttributeInfo * \&gt;">
<polygon fill="none" stroke="black" points="176.5,-505 176.5,-539 317.5,-539 317.5,-505 176.5,-505"/>
<text text-anchor="start" x="184.5" y="-526" font-family="FreeSans" font-size="10.00">Urho3D::HashSet&lt; const</text>
<text text-anchor="middle" x="247" y="-513" font-family="FreeSans" font-size="10.00"> Urho3D::AttributeInfo * &gt;</text>
</a>
</g>
<!-- Node7&#45;&gt;Node9 -->
<g id="edge18" class="edge"><title>Node7&#45;&gt;Node9</title>
<path fill="none" stroke="midnightblue" d="M118.179,-522C136.844,-522 157.333,-522 176.372,-522"/>
<polygon fill="midnightblue" stroke="midnightblue" points="118.018,-518.5 108.018,-522 118.018,-525.5 118.018,-518.5"/>
</g>
<!-- Node17 -->
<g id="node35" class="node"><title>Node17</title>
<a xlink:href="class_urho3_d_1_1_hash_map.html" target="_top" xlink:title="Urho3D::HashMap\&lt; StringHash,\l Variant \&gt;">
<polygon fill="none" stroke="black" points="366,-578 366,-612 538,-612 538,-578 366,-578"/>
<text text-anchor="start" x="374" y="-599" font-family="FreeSans" font-size="10.00">Urho3D::HashMap&lt; StringHash,</text>
<text text-anchor="middle" x="452" y="-586" font-family="FreeSans" font-size="10.00"> Variant &gt;</text>
</a>
</g>
<!-- Node7&#45;&gt;Node17 -->
<g id="edge40" class="edge"><title>Node7&#45;&gt;Node17</title>
<path fill="none" stroke="midnightblue" d="M68.6844,-540.48C85.1522,-559.569 113.805,-588.189 146,-600 218.203,-626.488 306.586,-621.424 369.768,-612.019"/>
<polygon fill="midnightblue" stroke="midnightblue" points="71.2981,-538.149 62.2021,-532.717 65.9249,-542.636 71.2981,-538.149"/>
</g>
<!-- Node8 -->
<g id="node14" class="node"><title>Node8</title>
<a xlink:href="class_urho3_d_1_1_shared_ptr.html" target="_top" xlink:title="Urho3D::SharedPtr\&lt;\l Urho3D::ObjectAnimation \&gt;">
<polygon fill="none" stroke="red" points="170.5,-557 170.5,-591 323.5,-591 323.5,-557 170.5,-557"/>
<text text-anchor="start" x="178.5" y="-578" font-family="FreeSans" font-size="10.00">Urho3D::SharedPtr&lt;</text>
<text text-anchor="middle" x="247" y="-565" font-family="FreeSans" font-size="10.00"> Urho3D::ObjectAnimation &gt;</text>
</a>
</g>
<!-- Node8&#45;&gt;Node4 -->
<g id="edge14" class="edge"><title>Node8&#45;&gt;Node4</title>
<path fill="none" stroke="#9a32cd" stroke-dasharray="5,2" d="M333.75,-561.483C417.803,-549.266 533.311,-532.198 538,-530 547.692,-525.457 546.541,-519.009 556,-514 568.846,-507.197 583.62,-502.188 597.769,-498.52"/>
<polygon fill="#9a32cd" stroke="#9a32cd" points="333.058,-558.047 323.665,-562.948 334.064,-564.974 333.058,-558.047"/>
<text text-anchor="middle" x="452" y="-560" font-family="FreeSans" font-size="10.00"> objectAnimation_</text>
</g>
<!-- Node9&#45;&gt;Node4 -->
<g id="edge16" class="edge"><title>Node9&#45;&gt;Node4</title>
<path fill="none" stroke="#9a32cd" stroke-dasharray="5,2" d="M327.604,-515.481C407.328,-509.032 527.33,-499.326 597.756,-493.63"/>
<polygon fill="#9a32cd" stroke="#9a32cd" points="327.288,-511.995 317.602,-516.29 327.852,-518.972 327.288,-511.995"/>
<text text-anchor="middle" x="452" y="-517" font-family="FreeSans" font-size="10.00"> animatedNetworkAttributes_</text>
</g>
<!-- Node10 -->
<g id="node19" class="node"><title>Node10</title>
<a xlink:href="class_urho3_d_1_1_weak_ptr.html" target="_top" xlink:title="Urho3D::WeakPtr\&lt; Urho3D\l::XMLFile \&gt;">
<polygon fill="none" stroke="black" points="582,-136 582,-170 728,-170 728,-136 582,-136"/>
<text text-anchor="start" x="590" y="-157" font-family="FreeSans" font-size="10.00">Urho3D::WeakPtr&lt; Urho3D</text>
<text text-anchor="middle" x="655" y="-144" font-family="FreeSans" font-size="10.00">::XMLFile &gt;</text>
</a>
</g>
<!-- Node10&#45;&gt;Node3 -->
<g id="edge20" class="edge"><title>Node10&#45;&gt;Node3</title>
<path fill="none" stroke="#9a32cd" stroke-dasharray="5,2" d="M737.243,-167.333C743.338,-170.503 749.034,-174.347 754,-179 772.46,-196.299 753.163,-216.113 772,-233 801.794,-259.708 830.024,-225.496 860,-252 892.88,-281.071 925.123,-419.942 933.757,-459.477"/>
<polygon fill="#9a32cd" stroke="#9a32cd" points="738.614,-164.111 728.063,-163.151 735.713,-170.482 738.614,-164.111"/>
<text text-anchor="middle" x="816" y="-256" font-family="FreeSans" font-size="10.00"> appliedStyleFile_</text>
</g>
<!-- Node11 -->
<g id="node21" class="node"><title>Node11</title>
<a xlink:href="class_urho3_d_1_1_x_m_l_file.html" target="_top" xlink:title="XML document resource.">
<polygon fill="none" stroke="red" points="200,-257.5 200,-278.5 294,-278.5 294,-257.5 200,-257.5"/>
<text text-anchor="middle" x="247" y="-265.5" font-family="FreeSans" font-size="10.00">Urho3D::XMLFile</text>
</a>
</g>
<!-- Node11&#45;&gt;Node10 -->
<g id="edge22" class="edge"><title>Node11&#45;&gt;Node10</title>
<path fill="none" stroke="#9a32cd" stroke-dasharray="5,2" d="M292.548,-254.517C352.738,-236.782 462.125,-204.842 556,-179 566.708,-176.052 578.089,-172.994 589.175,-170.055"/>
<polygon fill="#9a32cd" stroke="#9a32cd" points="291.21,-251.262 282.608,-257.448 293.19,-257.976 291.21,-251.262"/>
<text text-anchor="middle" x="452" y="-236" font-family="FreeSans" font-size="10.00"> ptr_</text>
</g>
<!-- Node20 -->
<g id="node45" class="node"><title>Node20</title>
<a xlink:href="class_urho3_d_1_1_shared_ptr.html" target="_top" xlink:title="Urho3D::SharedPtr\&lt;\l Urho3D::XMLFile \&gt;">
<polygon fill="none" stroke="black" points="597,-324 597,-358 713,-358 713,-324 597,-324"/>
<text text-anchor="start" x="605" y="-345" font-family="FreeSans" font-size="10.00">Urho3D::SharedPtr&lt;</text>
<text text-anchor="middle" x="655" y="-332" font-family="FreeSans" font-size="10.00"> Urho3D::XMLFile &gt;</text>
</a>
</g>
<!-- Node11&#45;&gt;Node20 -->
<g id="edge54" class="edge"><title>Node11&#45;&gt;Node20</title>
<path fill="none" stroke="#9a32cd" stroke-dasharray="5,2" d="M304.252,-278.244C381.633,-292.089 518.861,-316.642 596.752,-330.578"/>
<polygon fill="#9a32cd" stroke="#9a32cd" points="304.662,-274.761 294.201,-276.445 303.429,-281.652 304.662,-274.761"/>
<text text-anchor="middle" x="452" y="-324" font-family="FreeSans" font-size="10.00"> ptr_</text>
</g>
<!-- Node12 -->
<g id="node23" class="node"><title>Node12</title>
<a xlink:href="struct_urho3_d_1_1_ref_count.html" target="_top" xlink:title="Reference count structure.">
<polygon fill="none" stroke="black" points="196,-142.5 196,-163.5 298,-163.5 298,-142.5 196,-142.5"/>
<text text-anchor="middle" x="247" y="-150.5" font-family="FreeSans" font-size="10.00">Urho3D::RefCount</text>
</a>
</g>
<!-- Node12&#45;&gt;Node10 -->
<g id="edge24" class="edge"><title>Node12&#45;&gt;Node10</title>
<path fill="none" stroke="#9a32cd" stroke-dasharray="5,2" d="M308.704,-153C381.962,-153 503.997,-153 581.915,-153"/>
<polygon fill="#9a32cd" stroke="#9a32cd" points="308.26,-149.5 298.26,-153 308.26,-156.5 308.26,-149.5"/>
<text text-anchor="middle" x="452" y="-157" font-family="FreeSans" font-size="10.00"> refCount_</text>
</g>
<!-- Node13 -->
<g id="node25" class="node"><title>Node13</title>
<a xlink:href="class_urho3_d_1_1_int_rect.html" target="_top" xlink:title="Two&#45;dimensional bounding rectangle with integer values.">
<polygon fill="none" stroke="black" points="609,-721.5 609,-742.5 701,-742.5 701,-721.5 609,-721.5"/>
<text text-anchor="middle" x="655" y="-729.5" font-family="FreeSans" font-size="10.00">Urho3D::IntRect</text>
</a>
</g>
<!-- Node13&#45;&gt;Node2 -->
<g id="edge68" class="edge"><title>Node13&#45;&gt;Node2</title>
<path fill="none" stroke="#9a32cd" stroke-dasharray="5,2" d="M711.137,-739.974C753.44,-743.728 812.14,-744.046 860,-726 1003.41,-671.929 1128.54,-521.73 1160.89,-480.556"/>
<polygon fill="#9a32cd" stroke="#9a32cd" points="711.317,-736.474 701.023,-738.983 710.634,-743.441 711.317,-736.474"/>
<text text-anchor="middle" x="936" y="-747" font-family="FreeSans" font-size="10.00"> imageRect_</text>
<text text-anchor="middle" x="936" y="-734" font-family="FreeSans" font-size="10.00">border_</text>
<text text-anchor="middle" x="936" y="-721" font-family="FreeSans" font-size="10.00">imageBorder_</text>
</g>
<!-- Node13&#45;&gt;Node3 -->
<g id="edge26" class="edge"><title>Node13&#45;&gt;Node3</title>
<path fill="none" stroke="#9a32cd" stroke-dasharray="5,2" d="M711.221,-719.085C725.287,-715.503 740.276,-711.383 754,-707 762.177,-704.389 763.834,-702.645 772,-700 810.457,-687.542 830.074,-704.177 860,-677 920.366,-622.18 932.892,-515.283 935.397,-480.919"/>
<polygon fill="#9a32cd" stroke="#9a32cd" points="710.026,-715.775 701.172,-721.594 711.722,-722.567 710.026,-715.775"/>
<text text-anchor="middle" x="816" y="-717" font-family="FreeSans" font-size="10.00"> clipBorder_</text>
<text text-anchor="middle" x="816" y="-704" font-family="FreeSans" font-size="10.00">layoutBorder_</text>
</g>
<!-- Node13&#45;&gt;Node13 -->
<g id="edge28" class="edge"><title>Node13&#45;&gt;Node13</title>
<path fill="none" stroke="#9a32cd" stroke-dasharray="5,2" d="M625.357,-752.055C627.302,-757.164 637.183,-761 655,-761 682.812,-761 691.287,-751.653 680.422,-742.708"/>
<polygon fill="#9a32cd" stroke="#9a32cd" points="628.652,-753.262 629.578,-742.708 622.273,-750.382 628.652,-753.262"/>
<text text-anchor="middle" x="655" y="-765" font-family="FreeSans" font-size="10.00"> ZERO</text>
</g>
<!-- Node14 -->
<g id="node28" class="node"><title>Node14</title>
<a xlink:href="class_urho3_d_1_1_vector.html" target="_top" xlink:title="Urho3D::Vector\&lt; Urho3D\l::SharedPtr\&lt; Urho3D::UIElement \&gt; \&gt;">
<polygon fill="none" stroke="black" points="556.5,-567 556.5,-601 753.5,-601 753.5,-567 556.5,-567"/>
<text text-anchor="start" x="564.5" y="-588" font-family="FreeSans" font-size="10.00">Urho3D::Vector&lt; Urho3D</text>
<text text-anchor="middle" x="655" y="-575" font-family="FreeSans" font-size="10.00">::SharedPtr&lt; Urho3D::UIElement &gt; &gt;</text>
</a>
</g>
<!-- Node14&#45;&gt;Node3 -->
<g id="edge30" class="edge"><title>Node14&#45;&gt;Node3</title>
<path fill="none" stroke="#9a32cd" stroke-dasharray="5,2" d="M763.519,-579.163C795.969,-574.315 830.684,-565.55 860,-550 891.647,-533.213 917.612,-498.264 929.31,-480.644"/>
<polygon fill="#9a32cd" stroke="#9a32cd" points="762.955,-575.708 753.529,-580.545 763.915,-582.642 762.955,-575.708"/>
<text text-anchor="middle" x="816" y="-582" font-family="FreeSans" font-size="10.00"> children_</text>
</g>
<!-- Node15 -->
<g id="node30" class="node"><title>Node15</title>
<a xlink:href="class_urho3_d_1_1_vector_base.html" target="_top" xlink:title="Vector base class.">
<polygon fill="none" stroke="black" points="190,-647.5 190,-668.5 304,-668.5 304,-647.5 190,-647.5"/>
<text text-anchor="middle" x="247" y="-655.5" font-family="FreeSans" font-size="10.00">Urho3D::VectorBase</text>
</a>
</g>
<!-- Node15&#45;&gt;Node14 -->
<g id="edge32" class="edge"><title>Node15&#45;&gt;Node14</title>
<path fill="none" stroke="midnightblue" d="M313.946,-648.358C386.149,-637.832 496.354,-621.364 538,-613 555.132,-609.559 573.536,-605.278 590.558,-601.07"/>
<polygon fill="midnightblue" stroke="midnightblue" points="313.413,-644.899 304.021,-649.802 314.421,-651.826 313.413,-644.899"/>
</g>
<!-- Node22 -->
<g id="node51" class="node"><title>Node22</title>
<a xlink:href="class_urho3_d_1_1_vector.html" target="_top" xlink:title="Urho3D::Vector\&lt; String \&gt;">
<polygon fill="none" stroke="black" points="584.5,-619.5 584.5,-640.5 725.5,-640.5 725.5,-619.5 584.5,-619.5"/>
<text text-anchor="middle" x="655" y="-627.5" font-family="FreeSans" font-size="10.00">Urho3D::Vector&lt; String &gt;</text>
</a>
</g>
<!-- Node15&#45;&gt;Node22 -->
<g id="edge62" class="edge"><title>Node15&#45;&gt;Node22</title>
<path fill="none" stroke="midnightblue" d="M314.364,-653.377C388.856,-648.265 508.34,-640.065 584.188,-634.86"/>
<polygon fill="midnightblue" stroke="midnightblue" points="313.897,-649.901 304.16,-654.077 314.376,-656.884 313.897,-649.901"/>
</g>
<!-- Node16 -->
<g id="node32" class="node"><title>Node16</title>
<a xlink:href="class_urho3_d_1_1_vector2.html" target="_top" xlink:title="Two&#45;dimensional vector.">
<polygon fill="none" stroke="black" points="607,-188.5 607,-209.5 703,-209.5 703,-188.5 607,-188.5"/>
<text text-anchor="middle" x="655" y="-196.5" font-family="FreeSans" font-size="10.00">Urho3D::Vector2</text>
</a>
</g>
<!-- Node16&#45;&gt;Node3 -->
<g id="edge34" class="edge"><title>Node16&#45;&gt;Node3</title>
<path fill="none" stroke="#9a32cd" stroke-dasharray="5,2" d="M678.173,-215.47C701.078,-231.107 737.587,-254.341 772,-269 809.297,-284.888 829.408,-266.399 860,-293 912.995,-339.082 930.186,-428.666 934.654,-459.373"/>
<polygon fill="#9a32cd" stroke="#9a32cd" points="680.023,-212.493 669.808,-209.682 676.04,-218.25 680.023,-212.493"/>
<text text-anchor="middle" x="816" y="-336" font-family="FreeSans" font-size="10.00"> layoutFlexScale_</text>
<text text-anchor="middle" x="816" y="-323" font-family="FreeSans" font-size="10.00">anchorMax_</text>
<text text-anchor="middle" x="816" y="-310" font-family="FreeSans" font-size="10.00">pivot_</text>
<text text-anchor="middle" x="816" y="-297" font-family="FreeSans" font-size="10.00">anchorMin_</text>
</g>
<!-- Node16&#45;&gt;Node16 -->
<g id="edge36" class="edge"><title>Node16&#45;&gt;Node16</title>
<path fill="none" stroke="#9a32cd" stroke-dasharray="5,2" d="M625.357,-219.055C627.302,-224.164 637.183,-228 655,-228 682.812,-228 691.287,-218.653 680.422,-209.708"/>
<polygon fill="#9a32cd" stroke="#9a32cd" points="628.652,-220.262 629.578,-209.708 622.273,-217.382 628.652,-220.262"/>
<text text-anchor="middle" x="655" y="-297" font-family="FreeSans" font-size="10.00"> ONE</text>
<text text-anchor="middle" x="655" y="-284" font-family="FreeSans" font-size="10.00">DOWN</text>
<text text-anchor="middle" x="655" y="-271" font-family="FreeSans" font-size="10.00">RIGHT</text>
<text text-anchor="middle" x="655" y="-258" font-family="FreeSans" font-size="10.00">LEFT</text>
<text text-anchor="middle" x="655" y="-245" font-family="FreeSans" font-size="10.00">ZERO</text>
<text text-anchor="middle" x="655" y="-232" font-family="FreeSans" font-size="10.00">UP</text>
</g>
<!-- Node17&#45;&gt;Node3 -->
<g id="edge38" class="edge"><title>Node17&#45;&gt;Node3</title>
<path fill="none" stroke="#9a32cd" stroke-dasharray="5,2" d="M537.993,-571.469C548.421,-560.757 545.686,-551.823 556,-545 570.29,-535.547 843.323,-496.934 860,-493 874.759,-489.519 890.866,-484.783 904.439,-480.513"/>
<polygon fill="#9a32cd" stroke="#9a32cd" points="535.602,-568.905 530.134,-577.979 540.068,-574.295 535.602,-568.905"/>
<text text-anchor="middle" x="655" y="-549" font-family="FreeSans" font-size="10.00"> vars_</text>
</g>
<!-- Node18 -->
<g id="node39" class="node"><title>Node18</title>
<a xlink:href="class_urho3_d_1_1_string.html" target="_top" xlink:title="String class.">
<polygon fill="none" stroke="black" points="203,-328.5 203,-349.5 291,-349.5 291,-328.5 203,-328.5"/>
<text text-anchor="middle" x="247" y="-336.5" font-family="FreeSans" font-size="10.00">Urho3D::String</text>
</a>
</g>
<!-- Node18&#45;&gt;Node3 -->
<g id="edge44" class="edge"><title>Node18&#45;&gt;Node3</title>
<path fill="none" stroke="#9a32cd" stroke-dasharray="5,2" d="M301.266,-344.275C413.754,-355.467 668.952,-382.264 754,-403 812.718,-417.317 878.572,-444.496 912.687,-459.462"/>
<polygon fill="#9a32cd" stroke="#9a32cd" points="301.454,-340.776 291.157,-343.273 300.763,-347.742 301.454,-340.776"/>
<text text-anchor="middle" x="655" y="-420" font-family="FreeSans" font-size="10.00"> appliedStyle_</text>
<text text-anchor="middle" x="655" y="-407" font-family="FreeSans" font-size="10.00">name_</text>
</g>
<!-- Node18&#45;&gt;Node18 -->
<g id="edge46" class="edge"><title>Node18&#45;&gt;Node18</title>
<path fill="none" stroke="#9a32cd" stroke-dasharray="5,2" d="M224.885,-359.427C226.591,-364.349 233.963,-368 247,-368 267.859,-368 274.215,-358.653 266.067,-349.708"/>
<polygon fill="#9a32cd" stroke="#9a32cd" points="228.28,-360.297 227.933,-349.708 221.601,-358.202 228.28,-360.297"/>
<text text-anchor="middle" x="247" y="-372" font-family="FreeSans" font-size="10.00"> EMPTY</text>
</g>
<!-- Node19 -->
<g id="node42" class="node"><title>Node19</title>
<a xlink:href="class_urho3_d_1_1_x_path_query.html" target="_top" xlink:title="XPath query.">
<polygon fill="none" stroke="red" points="597.5,-438.5 597.5,-459.5 712.5,-459.5 712.5,-438.5 597.5,-438.5"/>
<text text-anchor="middle" x="655" y="-446.5" font-family="FreeSans" font-size="10.00">Urho3D::XPathQuery</text>
</a>
</g>
<!-- Node18&#45;&gt;Node19 -->
<g id="edge50" class="edge"><title>Node18&#45;&gt;Node19</title>
<path fill="none" stroke="#9a32cd" stroke-dasharray="5,2" d="M279.504,-353.802C299.655,-363.369 325.834,-376.515 348,-390 356.431,-395.129 356.802,-399.426 366,-403 437.734,-430.874 462.114,-410.191 538,-423 562.929,-427.208 590.55,-433.278 612.692,-438.495"/>
<polygon fill="#9a32cd" stroke="#9a32cd" points="280.963,-350.62 270.424,-349.538 277.988,-356.957 280.963,-350.62"/>
<text text-anchor="middle" x="452" y="-427" font-family="FreeSans" font-size="10.00"> queryString_</text>
</g>
<!-- Node19&#45;&gt;Node3 -->
<g id="edge48" class="edge"><title>Node19&#45;&gt;Node3</title>
<path fill="none" stroke="#9a32cd" stroke-dasharray="5,2" d="M722.714,-450.687C762.719,-452.087 814.321,-454.59 860,-459 866.901,-459.666 874.133,-460.516 881.279,-461.446"/>
<polygon fill="#9a32cd" stroke="#9a32cd" points="722.654,-447.183 712.542,-450.346 722.42,-454.179 722.654,-447.183"/>
<text text-anchor="middle" x="816" y="-463" font-family="FreeSans" font-size="10.00"> styleXPathQuery_</text>
</g>
<!-- Node20&#45;&gt;Node3 -->
<g id="edge52" class="edge"><title>Node20&#45;&gt;Node3</title>
<path fill="none" stroke="#9a32cd" stroke-dasharray="5,2" d="M723.567,-343.938C773.959,-347.158 837.421,-353.751 860,-367 897.567,-389.043 922.159,-437.709 931.623,-459.311"/>
<polygon fill="#9a32cd" stroke="#9a32cd" points="723.549,-340.431 713.356,-343.32 723.126,-347.418 723.549,-340.431"/>
<text text-anchor="middle" x="816" y="-371" font-family="FreeSans" font-size="10.00"> defaultStyle_</text>
</g>
<!-- Node21 -->
<g id="node48" class="node"><title>Node21</title>
<a xlink:href="class_urho3_d_1_1_int_vector2.html" target="_top" xlink:title="Two&#45;dimensional vector with integer values.">
<polygon fill="none" stroke="black" points="601,-0.5 601,-21.5 709,-21.5 709,-0.5 601,-0.5"/>
<text text-anchor="middle" x="655" y="-8.5" font-family="FreeSans" font-size="10.00">Urho3D::IntVector2</text>
</a>
</g>
<!-- Node21&#45;&gt;Node1 -->
<g id="edge80" class="edge"><title>Node21&#45;&gt;Node1</title>
<path fill="none" stroke="#9a32cd" stroke-dasharray="5,2" d="M719.186,-14.2012C759.718,-16.7463 813.102,-21.06 860,-28 1017.42,-51.2956 1201.57,-96.1375 1281.53,-116.491"/>
<polygon fill="#9a32cd" stroke="#9a32cd" points="719.364,-10.7057 709.17,-13.5918 718.939,-17.6928 719.364,-10.7057"/>
<text text-anchor="middle" x="1051" y="-76" font-family="FreeSans" font-size="10.00"> checkedOffset_</text>
</g>
<!-- Node21&#45;&gt;Node2 -->
<g id="edge78" class="edge"><title>Node21&#45;&gt;Node2</title>
<path fill="none" stroke="#9a32cd" stroke-dasharray="5,2" d="M719.052,-18.8336C761.879,-26.4955 817.882,-41.3925 860,-70 1024.06,-181.429 1139.27,-407.859 1164.02,-459.399"/>
<polygon fill="#9a32cd" stroke="#9a32cd" points="719.465,-15.3536 709.02,-17.127 718.291,-22.2545 719.465,-15.3536"/>
<text text-anchor="middle" x="936" y="-193" font-family="FreeSans" font-size="10.00"> hoverOffset_</text>
</g>
<!-- Node21&#45;&gt;Node3 -->
<g id="edge56" class="edge"><title>Node21&#45;&gt;Node3</title>
<path fill="none" stroke="#9a32cd" stroke-dasharray="5,2" d="M682.4,-26.3768C705.634,-38.8574 740.163,-56.112 772,-67 809.86,-79.9478 831.952,-57.464 860,-86 914.308,-141.253 932.164,-402.68 935.42,-459.207"/>
<polygon fill="#9a32cd" stroke="#9a32cd" points="683.933,-23.2263 673.477,-21.5192 680.586,-29.3744 683.933,-23.2263"/>
<text text-anchor="middle" x="816" y="-220" font-family="FreeSans" font-size="10.00"> maxSize_</text>
<text text-anchor="middle" x="816" y="-207" font-family="FreeSans" font-size="10.00">childOffset_</text>
<text text-anchor="middle" x="816" y="-194" font-family="FreeSans" font-size="10.00">minOffset_</text>
<text text-anchor="middle" x="816" y="-181" font-family="FreeSans" font-size="10.00">size_</text>
<text text-anchor="middle" x="816" y="-168" font-family="FreeSans" font-size="10.00">position_</text>
<text text-anchor="middle" x="816" y="-155" font-family="FreeSans" font-size="10.00">maxOffset_</text>
<text text-anchor="start" x="781" y="-142" font-family="FreeSans" font-size="10.00">screenPosition</text>
<text text-anchor="middle" x="816" y="-129" font-family="FreeSans" font-size="10.00">_</text>
<text text-anchor="start" x="781" y="-116" font-family="FreeSans" font-size="10.00">layoutMinSize</text>
<text text-anchor="middle" x="816" y="-103" font-family="FreeSans" font-size="10.00">_</text>
<text text-anchor="middle" x="816" y="-90" font-family="FreeSans" font-size="10.00">minSize_</text>
</g>
<!-- Node21&#45;&gt;Node21 -->
<g id="edge58" class="edge"><title>Node21&#45;&gt;Node21</title>
<path fill="none" stroke="#9a32cd" stroke-dasharray="5,2" d="M625.357,-31.0551C627.302,-36.164 637.183,-40 655,-40 682.812,-40 691.287,-30.6531 680.422,-21.7079"/>
<polygon fill="#9a32cd" stroke="#9a32cd" points="628.652,-32.2622 629.578,-21.7079 622.273,-29.3816 628.652,-32.2622"/>
<text text-anchor="middle" x="655" y="-109" font-family="FreeSans" font-size="10.00"> ONE</text>
<text text-anchor="middle" x="655" y="-96" font-family="FreeSans" font-size="10.00">DOWN</text>
<text text-anchor="middle" x="655" y="-83" font-family="FreeSans" font-size="10.00">RIGHT</text>
<text text-anchor="middle" x="655" y="-70" font-family="FreeSans" font-size="10.00">LEFT</text>
<text text-anchor="middle" x="655" y="-57" font-family="FreeSans" font-size="10.00">ZERO</text>
<text text-anchor="middle" x="655" y="-44" font-family="FreeSans" font-size="10.00">UP</text>
</g>
<!-- Node22&#45;&gt;Node3 -->
<g id="edge60" class="edge"><title>Node22&#45;&gt;Node3</title>
<path fill="none" stroke="#9a32cd" stroke-dasharray="5,2" d="M735.988,-631.533C776.276,-628.679 823.935,-619.505 860,-595 902.225,-566.31 924.995,-505.613 932.83,-480.857"/>
<polygon fill="#9a32cd" stroke="#9a32cd" points="735.691,-628.044 725.915,-632.128 736.104,-635.032 735.691,-628.044"/>
<text text-anchor="middle" x="816" y="-631" font-family="FreeSans" font-size="10.00"> tags_</text>
</g>
<!-- Node23 -->
<g id="node54" class="node"><title>Node23</title>
<a xlink:href="class_urho3_d_1_1_color.html" target="_top" xlink:title="RGBA color.">
<polygon fill="none" stroke="black" points="205,-716.5 205,-737.5 289,-737.5 289,-716.5 205,-716.5"/>
<text text-anchor="middle" x="247" y="-724.5" font-family="FreeSans" font-size="10.00">Urho3D::Color</text>
</a>
</g>
<!-- Node23&#45;&gt;Node3 -->
<g id="edge64" class="edge"><title>Node23&#45;&gt;Node3</title>
<path fill="none" stroke="#9a32cd" stroke-dasharray="5,2" d="M299.59,-720.05C447.601,-700.468 857.192,-646.121 860,-644 915.243,-602.283 930.994,-511.921 934.871,-480.794"/>
<polygon fill="#9a32cd" stroke="#9a32cd" points="298.849,-716.617 289.394,-721.399 299.767,-723.557 298.849,-716.617"/>
<text text-anchor="middle" x="655" y="-703" font-family="FreeSans" font-size="10.00"> derivedColor_</text>
<text text-anchor="middle" x="655" y="-690" font-family="FreeSans" font-size="10.00">color_</text>
</g>
<!-- Node23&#45;&gt;Node23 -->
<g id="edge66" class="edge"><title>Node23&#45;&gt;Node23</title>
<path fill="none" stroke="#9a32cd" stroke-dasharray="5,2" d="M224.885,-747.427C226.591,-752.349 233.963,-756 247,-756 267.859,-756 274.215,-746.653 266.067,-737.708"/>
<polygon fill="#9a32cd" stroke="#9a32cd" points="228.28,-748.297 227.933,-737.708 221.601,-746.202 228.28,-748.297"/>
<text text-anchor="middle" x="247" y="-890" font-family="FreeSans" font-size="10.00"> CYAN</text>
<text text-anchor="middle" x="247" y="-877" font-family="FreeSans" font-size="10.00">GRAY</text>
<text text-anchor="middle" x="247" y="-864" font-family="FreeSans" font-size="10.00">YELLOW</text>
<text text-anchor="middle" x="247" y="-851" font-family="FreeSans" font-size="10.00">MAGENTA</text>
<text text-anchor="middle" x="247" y="-838" font-family="FreeSans" font-size="10.00">WHITE</text>
<text text-anchor="middle" x="247" y="-825" font-family="FreeSans" font-size="10.00">TRANSPARENT</text>
<text text-anchor="middle" x="247" y="-812" font-family="FreeSans" font-size="10.00">BLUE</text>
<text text-anchor="middle" x="247" y="-799" font-family="FreeSans" font-size="10.00">BLACK</text>
<text text-anchor="middle" x="247" y="-786" font-family="FreeSans" font-size="10.00">RED</text>
<text text-anchor="middle" x="247" y="-773" font-family="FreeSans" font-size="10.00">GREEN</text>
<text text-anchor="middle" x="247" y="-760" font-family="FreeSans" font-size="10.00">...</text>
</g>
<!-- Node25 -->
<g id="node60" class="node"><title>Node25</title>
<a xlink:href="class_urho3_d_1_1_texture.html" target="_top" xlink:title="Base class for texture resources.">
<polygon fill="none" stroke="red" points="608,-792.5 608,-813.5 702,-813.5 702,-792.5 608,-792.5"/>
<text text-anchor="middle" x="655" y="-800.5" font-family="FreeSans" font-size="10.00">Urho3D::Texture</text>
</a>
</g>
<!-- Node23&#45;&gt;Node25 -->
<g id="edge76" class="edge"><title>Node23&#45;&gt;Node25</title>
<path fill="none" stroke="#9a32cd" stroke-dasharray="5,2" d="M298.977,-736.682C378.914,-751.572 530.835,-779.871 607.794,-794.207"/>
<polygon fill="#9a32cd" stroke="#9a32cd" points="299.598,-733.238 289.126,-734.847 298.316,-740.119 299.598,-733.238"/>
<text text-anchor="middle" x="452" y="-785" font-family="FreeSans" font-size="10.00"> borderColor_</text>
</g>
<!-- Node24 -->
<g id="node58" class="node"><title>Node24</title>
<a xlink:href="class_urho3_d_1_1_shared_ptr.html" target="_top" xlink:title="Urho3D::SharedPtr\&lt;\l Urho3D::Texture \&gt;">
<polygon fill="none" stroke="black" points="878,-797 878,-831 994,-831 994,-797 878,-797"/>
<text text-anchor="start" x="886" y="-818" font-family="FreeSans" font-size="10.00">Urho3D::SharedPtr&lt;</text>
<text text-anchor="middle" x="936" y="-805" font-family="FreeSans" font-size="10.00"> Urho3D::Texture &gt;</text>
</a>
</g>
<!-- Node24&#45;&gt;Node2 -->
<g id="edge70" class="edge"><title>Node24&#45;&gt;Node2</title>
<path fill="none" stroke="#9a32cd" stroke-dasharray="5,2" d="M1003.8,-801.931C1033.99,-793.306 1067.68,-778.675 1090,-754 1128.36,-711.585 1159.96,-526.763 1167.36,-480.519"/>
<polygon fill="#9a32cd" stroke="#9a32cd" points="1002.89,-798.55 994.143,-804.525 1004.71,-805.311 1002.89,-798.55"/>
<text text-anchor="middle" x="1051" y="-803" font-family="FreeSans" font-size="10.00"> texture_</text>
</g>
<!-- Node24&#45;&gt;Node25 -->
<g id="edge74" class="edge"><title>Node24&#45;&gt;Node25</title>
<path fill="none" stroke="#9a32cd" stroke-dasharray="5,2" d="M877.59,-794.459C871.7,-793.052 865.766,-791.853 860,-791 806.218,-783.04 743.765,-788.822 702.058,-794.798"/>
<polygon fill="#9a32cd" stroke="#9a32cd" points="876.866,-797.887 887.423,-796.999 878.616,-791.109 876.866,-797.887"/>
<text text-anchor="middle" x="816" y="-795" font-family="FreeSans" font-size="10.00"> backupTexture_</text>
</g>
<!-- Node25&#45;&gt;Node24 -->
<g id="edge72" class="edge"><title>Node25&#45;&gt;Node24</title>
<path fill="none" stroke="#9a32cd" stroke-dasharray="5,2" d="M712.254,-805.517C731.264,-806.334 752.541,-807.228 772,-808 807.159,-809.394 846.563,-810.84 877.934,-811.962"/>
<polygon fill="#9a32cd" stroke="#9a32cd" points="712.389,-802.02 702.247,-805.085 712.087,-809.013 712.389,-802.02"/>
<text text-anchor="middle" x="816" y="-816" font-family="FreeSans" font-size="10.00"> ptr_</text>
</g>
</g>
</svg>
