<?xml version="1.0" encoding="UTF-8" standalone="no"?>
<!DOCTYPE svg PUBLIC "-//W3C//DTD SVG 1.1//EN"
 "http://www.w3.org/Graphics/SVG/1.1/DTD/svg11.dtd">
<!-- Generated by graphviz version 2.36.0 (20140111.2315)
 -->
<!-- Title: Writer&lt; OutputStream, SourceEncoding, TargetEncoding, StackAllocator, writeFlags &gt; Pages: 1 -->
<svg width="330pt" height="186pt"
 viewBox="0.00 0.00 330.00 186.00" xmlns="http://www.w3.org/2000/svg" xmlns:xlink="http://www.w3.org/1999/xlink">
<g id="graph0" class="graph" transform="scale(1 1) rotate(0) translate(4 182)">
<title>Writer&lt; OutputStream, SourceEncoding, TargetEncoding, StackAllocator, writeFlags &gt;</title>
<!-- Node1 -->
<g id="node1" class="node"><title>Node1</title>
<polygon fill="#bfbfbf" stroke="black" points="-0.5,-0.5 -0.5,-41.5 178.5,-41.5 178.5,-0.5 -0.5,-0.5"/>
<text text-anchor="start" x="7.5" y="-29.5" font-family="FreeSans" font-size="10.00">Writer&lt; OutputStream,</text>
<text text-anchor="start" x="7.5" y="-18.5" font-family="FreeSans" font-size="10.00"> SourceEncoding, TargetEncoding,</text>
<text text-anchor="middle" x="89" y="-7.5" font-family="FreeSans" font-size="10.00"> StackAllocator, writeFlags &gt;</text>
</g>
<!-- Node2 -->
<g id="node2" class="node"><title>Node2</title>
<g id="a_node2"><a xlink:href="classinternal_1_1_stack.html" target="_top" xlink:title="internal::Stack\&lt; StackAllocator \&gt;">
<polygon fill="none" stroke="black" points="145.5,-90.5 145.5,-109.5 322.5,-109.5 322.5,-90.5 145.5,-90.5"/>
<text text-anchor="middle" x="234" y="-97.5" font-family="FreeSans" font-size="10.00">internal::Stack&lt; StackAllocator &gt;</text>
</a>
</g>
</g>
<!-- Node2&#45;&gt;Node1 -->
<g id="edge1" class="edge"><title>Node2&#45;&gt;Node1</title>
<path fill="none" stroke="#9a32cd" stroke-dasharray="5,2" d="M208.863,-85.6514C185.98,-73.4999 151.904,-55.4044 125.928,-41.6101"/>
<polygon fill="#9a32cd" stroke="#9a32cd" points="207.455,-88.8665 217.928,-90.4655 210.738,-82.6841 207.455,-88.8665"/>
<text text-anchor="middle" x="212.5" y="-63.5" font-family="FreeSans" font-size="10.00"> level_stack_</text>
</g>
<!-- Node3 -->
<g id="node3" class="node"><title>Node3</title>
<polygon fill="none" stroke="#bfbfbf" points="67,-158.5 67,-177.5 111,-177.5 111,-158.5 67,-158.5"/>
<text text-anchor="middle" x="89" y="-165.5" font-family="FreeSans" font-size="10.00">size_t</text>
</g>
<!-- Node3&#45;&gt;Node1 -->
<g id="edge3" class="edge"><title>Node3&#45;&gt;Node1</title>
<path fill="none" stroke="#9a32cd" stroke-dasharray="5,2" d="M69.0654,-151.815C52.3675,-137.093 32.3877,-113.585 40,-90 45.8998,-71.7209 58.743,-54.213 69.8007,-41.5409"/>
<polygon fill="#9a32cd" stroke="#9a32cd" points="66.9364,-154.596 76.8637,-158.297 71.4113,-149.213 66.9364,-154.596"/>
<text text-anchor="middle" x="88.5" y="-97.5" font-family="FreeSans" font-size="10.00"> kDefaultLevelDepth</text>
</g>
<!-- Node3&#45;&gt;Node2 -->
<g id="edge2" class="edge"><title>Node3&#45;&gt;Node2</title>
<path fill="none" stroke="#9a32cd" stroke-dasharray="5,2" d="M117.107,-154.206C145.962,-141.072 190.07,-120.996 215.039,-109.63"/>
<polygon fill="#9a32cd" stroke="#9a32cd" points="115.608,-151.043 107.956,-158.372 118.508,-157.414 115.608,-151.043"/>
<text text-anchor="middle" x="211.5" y="-131.5" font-family="FreeSans" font-size="10.00"> initialCapacity_</text>
</g>
</g>
</svg>
