<?xml version="1.0" encoding="UTF-8" standalone="no"?>
<!DOCTYPE svg PUBLIC "-//W3C//DTD SVG 1.1//EN"
 "http://www.w3.org/Graphics/SVG/1.1/DTD/svg11.dtd">
<!-- Generated by graphviz version 2.43.0 (0)
 -->
<!-- Title: Urho3D::Node::GetSignedWorldScale Pages: 1 -->
<svg width="362pt" height="88pt"
 viewBox="0.00 0.00 362.00 88.00" xmlns="http://www.w3.org/2000/svg" xmlns:xlink="http://www.w3.org/1999/xlink">
<g id="graph0" class="graph" transform="scale(1 1) rotate(0) translate(4 84)">
<title>Urho3D::Node::GetSignedWorldScale</title>
<!-- Node1 -->
<g id="node1" class="node">
<title>Node1</title>
<g id="a_node1"><a xlink:title=" ">
<polygon fill="#bfbfbf" stroke="black" points="185,-24.5 185,-54.5 354,-54.5 354,-24.5 185,-24.5"/>
<text text-anchor="start" x="193" y="-42.5" font-family="Helvetica,sans-Serif" font-size="10.00">Urho3D::Node::GetSignedWorld</text>
<text text-anchor="middle" x="269.5" y="-31.5" font-family="Helvetica,sans-Serif" font-size="10.00">Scale</text>
</a>
</g>
</g>
<!-- Node2 -->
<g id="node2" class="node">
<title>Node2</title>
<g id="a_node2"><a xlink:href="class_urho3_d_1_1_collision_shape2_d.html#a09f1167efaa82dc515bef953daa4ad47" target="_top" xlink:title="Handle node transform being dirtied.">
<polygon fill="none" stroke="black" points="2,-49.5 2,-79.5 147,-79.5 147,-49.5 2,-49.5"/>
<text text-anchor="start" x="10" y="-67.5" font-family="Helvetica,sans-Serif" font-size="10.00">Urho3D::CollisionShape2D</text>
<text text-anchor="middle" x="74.5" y="-56.5" font-family="Helvetica,sans-Serif" font-size="10.00">::OnMarkedDirty</text>
</a>
</g>
</g>
<!-- Node1&#45;&gt;Node2 -->
<g id="edge1" class="edge">
<title>Node1&#45;&gt;Node2</title>
<path fill="none" stroke="midnightblue" d="M174.86,-51.63C165.51,-52.84 156.12,-54.06 147.05,-55.23"/>
<polygon fill="midnightblue" stroke="midnightblue" points="175.5,-55.08 184.97,-50.32 174.6,-48.13 175.5,-55.08"/>
</g>
<!-- Node3 -->
<g id="node3" class="node">
<title>Node3</title>
<g id="a_node3"><a xlink:href="class_urho3_d_1_1_stretchable_sprite2_d.html#ac239dd667909ebb6c77a88c59d1a5051" target="_top" xlink:title="Update source batches.">
<polygon fill="none" stroke="black" points="0,-0.5 0,-30.5 149,-30.5 149,-0.5 0,-0.5"/>
<text text-anchor="start" x="8" y="-18.5" font-family="Helvetica,sans-Serif" font-size="10.00">Urho3D::StretchableSprite2</text>
<text text-anchor="middle" x="74.5" y="-7.5" font-family="Helvetica,sans-Serif" font-size="10.00">D::UpdateSourceBatches</text>
</a>
</g>
</g>
<!-- Node1&#45;&gt;Node3 -->
<g id="edge2" class="edge">
<title>Node1&#45;&gt;Node3</title>
<path fill="none" stroke="midnightblue" d="M174.87,-27.86C166.23,-26.78 157.57,-25.71 149.15,-24.66"/>
<polygon fill="midnightblue" stroke="midnightblue" points="174.61,-31.35 184.97,-29.11 175.48,-24.41 174.61,-31.35"/>
</g>
</g>
</svg>
