<?xml version="1.0" encoding="UTF-8" standalone="no"?>
<!DOCTYPE svg PUBLIC "-//W3C//DTD SVG 1.1//EN"
 "http://www.w3.org/Graphics/SVG/1.1/DTD/svg11.dtd">
<!-- Generated by graphviz version 2.40.1 (20161225.0304)
 -->
<!-- Title: Urho3D::Terrain::GetHeight Pages: 1 -->
<!--zoomable 248 -->
<svg id="main" version="1.1" xmlns="http://www.w3.org/2000/svg" xmlns:xlink="http://www.w3.org/1999/xlink" xml:space="preserve" onload="init(evt)">
<style type="text/css"><![CDATA[
.edge:hover path { stroke: red; }
.edge:hover polygon { stroke: red; fill: red; }
]]></style>
<script type="text/javascript"><![CDATA[
var edges = document.getElementsByTagName('g');
if (edges && edges.length) {
  for (var i=0;i<edges.length;i++) {
    if (edges[i].id.substr(0,4)=='edge') {
      edges[i].setAttribute('class','edge');
    }
  }
}
]]></script>
        <defs>
                <circle id="rim" cx="0" cy="0" r="7"/>
                <circle id="rim2" cx="0" cy="0" r="3.5"/>
                <g id="zoomPlus">
                        <use xlink:href="#rim" fill="#404040">
                                <set attributeName="fill" to="#808080" begin="zoomplus.mouseover" end="zoomplus.mouseout"/>
                        </use>
                        <path d="M-4,0h8M0,-4v8" fill="none" stroke="white" stroke-width="1.5" pointer-events="none"/>
                </g>
                <g id="zoomMin">
                        <use xlink:href="#rim" fill="#404040">
                                <set attributeName="fill" to="#808080" begin="zoomminus.mouseover" end="zoomminus.mouseout"/>
                        </use>
                        <path d="M-4,0h8" fill="none" stroke="white" stroke-width="1.5" pointer-events="none"/>
                </g>
                <g id="dirArrow">
                        <path fill="none" stroke="white" stroke-width="1.5" d="M0,-3.0v7 M-2.5,-0.5L0,-3.0L2.5,-0.5"/>
                </g>
               <g id="resetDef">
                       <use xlink:href="#rim2" fill="#404040">
                               <set attributeName="fill" to="#808080" begin="reset.mouseover" end="reset.mouseout"/>
                       </use>
               </g>
        </defs>

<script type="text/javascript">
var viewWidth = 504;
var viewHeight = 248;
var sectionId = 'dynsection-2';
</script>
<script xlink:href="svgpan.js"/>
<svg id="graph" class="graph">
<g id="viewport">
<title>Urho3D::Terrain::GetHeight</title>
<!-- Node0 -->
<g id="node1" class="node">
<title>Node0</title>
<polygon fill="#bfbfbf" stroke="#000000" points="0,-95.5 0,-114.5 148,-114.5 148,-95.5 0,-95.5"/>
<text text-anchor="middle" x="74" y="-102.5" font-family="Helvetica,sans-Serif" font-size="10.00" fill="#000000">Urho3D::Terrain::GetHeight</text>
</g>
<!-- Node1 -->
<g id="node2" class="node">
<title>Node1</title>
<g id="a_node2"><a xlink:href="class_urho3_d_1_1_node.html#a39a71635548b048079a15cc563a02895" target="_top" xlink:title="Return world space transform matrix. ">
<polygon fill="none" stroke="#000000" points="184,-220.5 184,-239.5 369,-239.5 369,-220.5 184,-220.5"/>
<text text-anchor="middle" x="276.5" y="-227.5" font-family="Helvetica,sans-Serif" font-size="10.00" fill="#000000">Urho3D::Node::GetWorldTransform</text>
</a>
</g>
</g>
<!-- Node0&#45;&gt;Node1 -->
<g id="edge1" class="edge">
<title>Node0&#45;&gt;Node1</title>
<path fill="none" stroke="#191970" d="M80.9865,-114.7674C96.7363,-135.9967 137.3031,-186.4074 184,-211 188.5081,-213.3742 193.2849,-215.4519 198.1986,-217.2702"/>
<polygon fill="#191970" stroke="#191970" points="197.1889,-220.6228 207.7824,-220.4568 199.3976,-213.9803 197.1889,-220.6228"/>
</g>
<!-- Node2 -->
<g id="node3" class="node">
<title>Node2</title>
<g id="a_node3"><a xlink:href="class_urho3_d_1_1_matrix3x4.html#a8d184f29d81512103ed020bc0da8a69b" target="_top" xlink:title="Return inverse. ">
<polygon fill="none" stroke="#000000" points="219.5,-171 219.5,-201 333.5,-201 333.5,-171 219.5,-171"/>
<text text-anchor="start" x="227.5" y="-189" font-family="Helvetica,sans-Serif" font-size="10.00" fill="#000000">Urho3D::Matrix3x4::</text>
<text text-anchor="middle" x="276.5" y="-178" font-family="Helvetica,sans-Serif" font-size="10.00" fill="#000000">Inverse</text>
</a>
</g>
</g>
<!-- Node0&#45;&gt;Node2 -->
<g id="edge2" class="edge">
<title>Node0&#45;&gt;Node2</title>
<path fill="none" stroke="#191970" d="M90.2802,-114.643C111.3301,-126.7905 149.4014,-147.6827 184,-161 192.1215,-164.126 200.7863,-167.0184 209.4333,-169.6421"/>
<polygon fill="#191970" stroke="#191970" points="208.578,-173.0385 219.1585,-172.4882 210.5442,-166.3203 208.578,-173.0385"/>
</g>
<!-- Node3 -->
<g id="node4" class="node">
<title>Node3</title>
<g id="a_node4"><a xlink:href="_math_defs_8h.html#a1addf32ffcf84cac95ca33a7d0bd8bc8" target="_top" xlink:title="Return fractional part of passed value in range [0, 1). ">
<polygon fill="none" stroke="#000000" points="235,-114.5 235,-133.5 318,-133.5 318,-114.5 235,-114.5"/>
<text text-anchor="middle" x="276.5" y="-121.5" font-family="Helvetica,sans-Serif" font-size="10.00" fill="#000000">Urho3D::Fract</text>
</a>
</g>
</g>
<!-- Node0&#45;&gt;Node3 -->
<g id="edge3" class="edge">
<title>Node0&#45;&gt;Node3</title>
<path fill="none" stroke="#191970" d="M148.2537,-111.967C173.7204,-114.3565 201.6452,-116.9766 224.9169,-119.1601"/>
<polygon fill="#191970" stroke="#191970" points="224.6363,-122.6491 234.9196,-120.0986 225.2903,-115.6797 224.6363,-122.6491"/>
</g>
<!-- Node4 -->
<g id="node5" class="node">
<title>Node4</title>
<g id="a_node5"><a xlink:href="class_urho3_d_1_1_terrain.html#a0acc8a5be52b65ae25545069980368a6" target="_top" xlink:title="Return an uninterpolated terrain height value, clamping to edges. ">
<polygon fill="none" stroke="#000000" points="192,-76.5 192,-95.5 361,-95.5 361,-76.5 192,-76.5"/>
<text text-anchor="middle" x="276.5" y="-83.5" font-family="Helvetica,sans-Serif" font-size="10.00" fill="#000000">Urho3D::Terrain::GetRawHeight</text>
</a>
</g>
</g>
<!-- Node0&#45;&gt;Node4 -->
<g id="edge5" class="edge">
<title>Node0&#45;&gt;Node4</title>
<path fill="none" stroke="#191970" d="M148.2537,-98.033C159.1428,-97.0113 170.4814,-95.9474 181.7135,-94.8935"/>
<polygon fill="#191970" stroke="#191970" points="182.3535,-98.349 191.9828,-93.93 181.6996,-91.3796 182.3535,-98.349"/>
</g>
<!-- Node6 -->
<g id="node7" class="node">
<title>Node6</title>
<g id="a_node7"><a xlink:href="class_urho3_d_1_1_node.html#a8ae450b752efd7da057b842882d28a23" target="_top" xlink:title="Return scale in world space. ">
<polygon fill="none" stroke="#000000" points="195.5,-38.5 195.5,-57.5 357.5,-57.5 357.5,-38.5 195.5,-38.5"/>
<text text-anchor="middle" x="276.5" y="-45.5" font-family="Helvetica,sans-Serif" font-size="10.00" fill="#000000">Urho3D::Node::GetWorldScale</text>
</a>
</g>
</g>
<!-- Node0&#45;&gt;Node6 -->
<g id="edge8" class="edge">
<title>Node0&#45;&gt;Node6</title>
<path fill="none" stroke="#191970" d="M98.6133,-95.4653C120.7188,-87.1509 154.1872,-75.1741 184,-67 193.6051,-64.3665 203.8605,-61.9129 213.9167,-59.7022"/>
<polygon fill="#191970" stroke="#191970" points="214.8269,-63.0868 223.875,-57.5747 213.3644,-56.2412 214.8269,-63.0868"/>
</g>
<!-- Node7 -->
<g id="node8" class="node">
<title>Node7</title>
<g id="a_node8"><a xlink:href="class_urho3_d_1_1_node.html#a8f3fe7808b7af4975ddb21be8a269ece" target="_top" xlink:title="Return position in world space. ">
<polygon fill="none" stroke="#000000" points="189,-.5 189,-19.5 364,-19.5 364,-.5 189,-.5"/>
<text text-anchor="middle" x="276.5" y="-7.5" font-family="Helvetica,sans-Serif" font-size="10.00" fill="#000000">Urho3D::Node::GetWorldPosition</text>
</a>
</g>
</g>
<!-- Node0&#45;&gt;Node7 -->
<g id="edge9" class="edge">
<title>Node0&#45;&gt;Node7</title>
<path fill="none" stroke="#191970" d="M84.6657,-95.3894C103.3559,-79.0919 143.8675,-46.138 184,-29 190.078,-26.4045 196.5354,-24.1553 203.1022,-22.2077"/>
<polygon fill="#191970" stroke="#191970" points="204.0469,-25.5779 212.77,-19.5647 202.201,-18.8257 204.0469,-25.5779"/>
</g>
<!-- Node3&#45;&gt;Node3 -->
<g id="edge4" class="edge">
<title>Node3&#45;&gt;Node3</title>
<path fill="none" stroke="#191970" d="M249.6815,-133.7571C236.6347,-142.5653 245.5742,-152 276.5,-152 297.2783,-152 308.1316,-147.741 309.0599,-142.2746"/>
<polygon fill="#191970" stroke="#191970" points="311.8102,-140.0928 303.3185,-133.7571 306.0057,-144.0054 311.8102,-140.0928"/>
</g>
<!-- Node5 -->
<g id="node6" class="node">
<title>Node5</title>
<g id="a_node6"><a xlink:href="_math_defs_8h.html#a937fef228b452d2488ce13d78f0bd810" target="_top" xlink:title="Clamp a number to a range. ">
<polygon fill="none" stroke="#000000" points="405,-76.5 405,-95.5 496,-95.5 496,-76.5 405,-76.5"/>
<text text-anchor="middle" x="450.5" y="-83.5" font-family="Helvetica,sans-Serif" font-size="10.00" fill="#000000">Urho3D::Clamp</text>
</a>
</g>
</g>
<!-- Node4&#45;&gt;Node5 -->
<g id="edge6" class="edge">
<title>Node4&#45;&gt;Node5</title>
<path fill="none" stroke="#191970" d="M361.2063,-86C372.6026,-86 384.0514,-86 394.7698,-86"/>
<polygon fill="#191970" stroke="#191970" points="394.7969,-89.5001 404.7969,-86 394.7968,-82.5001 394.7969,-89.5001"/>
</g>
<!-- Node5&#45;&gt;Node5 -->
<g id="edge7" class="edge">
<title>Node5&#45;&gt;Node5</title>
<path fill="none" stroke="#191970" d="M423.6815,-95.7571C410.6347,-104.5653 419.5742,-114 450.5,-114 471.2783,-114 482.1316,-109.741 483.0599,-104.2746"/>
<polygon fill="#191970" stroke="#191970" points="485.8102,-102.0928 477.3185,-95.7571 480.0057,-106.0054 485.8102,-102.0928"/>
</g>
</g>
</svg>
        <g id="navigator" transform="translate(0 0)" fill="#404254">
                <rect fill="#f2f5e9" fill-opacity="0.5" stroke="#606060" stroke-width=".5" x="0" y="0" width="60" height="60"/>
                <use id="zoomplus" xlink:href="#zoomPlus" x="17" y="9" onmousedown="handleZoom(evt,'in')"/>
                <use id="zoomminus" xlink:href="#zoomMin" x="42" y="9" onmousedown="handleZoom(evt,'out')"/>
                <use id="reset" xlink:href="#resetDef" x="30" y="36" onmousedown="handleReset()"/>
                <g id="arrowUp" xlink:href="#dirArrow" transform="translate(30 24)" onmousedown="handlePan(0,-1)">
                  <use xlink:href="#rim" fill="#404040">
                        <set attributeName="fill" to="#808080" begin="arrowUp.mouseover" end="arrowUp.mouseout"/>
                  </use>
                  <path fill="none" stroke="white" stroke-width="1.5" d="M0,-3.0v7 M-2.5,-0.5L0,-3.0L2.5,-0.5"/>
                </g>
                <g id="arrowRight" xlink:href="#dirArrow" transform="rotate(90) translate(36 -43)" onmousedown="handlePan(1,0)">
                  <use xlink:href="#rim" fill="#404040">
                        <set attributeName="fill" to="#808080" begin="arrowRight.mouseover" end="arrowRight.mouseout"/>
                  </use>
                  <path fill="none" stroke="white" stroke-width="1.5" d="M0,-3.0v7 M-2.5,-0.5L0,-3.0L2.5,-0.5"/>
                </g>
                <g id="arrowDown" xlink:href="#dirArrow" transform="rotate(180) translate(-30 -48)" onmousedown="handlePan(0,1)">
                  <use xlink:href="#rim" fill="#404040">
                        <set attributeName="fill" to="#808080" begin="arrowDown.mouseover" end="arrowDown.mouseout"/>
                  </use>
                  <path fill="none" stroke="white" stroke-width="1.5" d="M0,-3.0v7 M-2.5,-0.5L0,-3.0L2.5,-0.5"/>
                </g>
                <g id="arrowLeft" xlink:href="#dirArrow" transform="rotate(270) translate(-36 17)" onmousedown="handlePan(-1,0)">
                  <use xlink:href="#rim" fill="#404040">
                        <set attributeName="fill" to="#808080" begin="arrowLeft.mouseover" end="arrowLeft.mouseout"/>
                  </use>
                  <path fill="none" stroke="white" stroke-width="1.5" d="M0,-3.0v7 M-2.5,-0.5L0,-3.0L2.5,-0.5"/>
                </g>
        </g>
        <svg viewBox="0 0 15 15" width="100%" height="30px" preserveAspectRatio="xMaxYMin meet">
         <g id="arrow_out" transform="scale(0.3 0.3)">
          <a xlink:href="class_urho3_d_1_1_terrain_a95868faa09f0c2ce2d51aa8021c3ddbf_cgraph_org.svg" target="_base">
           <rect id="button" ry="5" rx="5" y="6" x="6" height="38" width="38"
                fill="#f2f5e9" fill-opacity="0.5" stroke="#606060" stroke-width="1.0"/>
           <path id="arrow"
             d="M 11.500037,31.436501 C 11.940474,20.09759 22.043105,11.32322 32.158766,21.979434 L 37.068811,17.246167 C 37.068811,17.246167 37.088388,32 37.088388,32 L 22.160133,31.978069 C 22.160133,31.978069 26.997745,27.140456 26.997745,27.140456 C 18.528582,18.264221 13.291696,25.230495 11.500037,31.436501 z"
             style="fill:#404040;"/>
          </a>
         </g>
        </svg>
</svg>
