<?xml version="1.0" encoding="UTF-8" standalone="no"?>
<!DOCTYPE svg PUBLIC "-//W3C//DTD SVG 1.1//EN"
 "http://www.w3.org/Graphics/SVG/1.1/DTD/svg11.dtd">
<!-- Generated by graphviz version 2.40.1 (20161225.0304)
 -->
<!-- Title: Urho3D::Renderer::GetScreenBuffer Pages: 1 -->
<!--zoomable 176 -->
<svg id="main" version="1.1" xmlns="http://www.w3.org/2000/svg" xmlns:xlink="http://www.w3.org/1999/xlink" xml:space="preserve" onload="init(evt)">
<style type="text/css"><![CDATA[
.edge:hover path { stroke: red; }
.edge:hover polygon { stroke: red; fill: red; }
]]></style>
<script type="text/javascript"><![CDATA[
var edges = document.getElementsByTagName('g');
if (edges && edges.length) {
  for (var i=0;i<edges.length;i++) {
    if (edges[i].id.substr(0,4)=='edge') {
      edges[i].setAttribute('class','edge');
    }
  }
}
]]></script>
        <defs>
                <circle id="rim" cx="0" cy="0" r="7"/>
                <circle id="rim2" cx="0" cy="0" r="3.5"/>
                <g id="zoomPlus">
                        <use xlink:href="#rim" fill="#404040">
                                <set attributeName="fill" to="#808080" begin="zoomplus.mouseover" end="zoomplus.mouseout"/>
                        </use>
                        <path d="M-4,0h8M0,-4v8" fill="none" stroke="white" stroke-width="1.5" pointer-events="none"/>
                </g>
                <g id="zoomMin">
                        <use xlink:href="#rim" fill="#404040">
                                <set attributeName="fill" to="#808080" begin="zoomminus.mouseover" end="zoomminus.mouseout"/>
                        </use>
                        <path d="M-4,0h8" fill="none" stroke="white" stroke-width="1.5" pointer-events="none"/>
                </g>
                <g id="dirArrow">
                        <path fill="none" stroke="white" stroke-width="1.5" d="M0,-3.0v7 M-2.5,-0.5L0,-3.0L2.5,-0.5"/>
                </g>
               <g id="resetDef">
                       <use xlink:href="#rim2" fill="#404040">
                               <set attributeName="fill" to="#808080" begin="reset.mouseover" end="reset.mouseout"/>
                       </use>
               </g>
        </defs>

<script type="text/javascript">
var viewWidth = 530;
var viewHeight = 176;
var sectionId = 'dynsection-3';
</script>
<script xlink:href="svgpan.js"/>
<svg id="graph" class="graph">
<g id="viewport">
<title>Urho3D::Renderer::GetScreenBuffer</title>
<!-- Node11 -->
<g id="node1" class="node">
<title>Node11</title>
<polygon fill="#bfbfbf" stroke="#000000" points="0,-66.5 0,-96.5 159,-96.5 159,-66.5 0,-66.5"/>
<text text-anchor="start" x="8" y="-84.5" font-family="Helvetica,sans-Serif" font-size="10.00" fill="#000000">Urho3D::Renderer::GetScreen</text>
<text text-anchor="middle" x="79.5" y="-73.5" font-family="Helvetica,sans-Serif" font-size="10.00" fill="#000000">Buffer</text>
</g>
<!-- Node12 -->
<g id="node2" class="node">
<title>Node12</title>
<g id="a_node2"><a xlink:href="class_urho3_d_1_1_graphics.html#a609ba19c78432946e8334cc3a7bcb92e" target="_top" xlink:title="Return the API&#45;specific hardware depth&#45;stencil texture format. ">
<polygon fill="none" stroke="#000000" points="202.5,-137.5 202.5,-167.5 357.5,-167.5 357.5,-137.5 202.5,-137.5"/>
<text text-anchor="start" x="210.5" y="-155.5" font-family="Helvetica,sans-Serif" font-size="10.00" fill="#000000">Urho3D::Graphics::GetDepth</text>
<text text-anchor="middle" x="280" y="-144.5" font-family="Helvetica,sans-Serif" font-size="10.00" fill="#000000">StencilFormat</text>
</a>
</g>
</g>
<!-- Node11&#45;&gt;Node12 -->
<g id="edge1" class="edge">
<title>Node11&#45;&gt;Node12</title>
<path fill="none" stroke="#191970" d="M113.7395,-96.6036C136.5243,-106.3626 167.2566,-118.9716 195,-128.5 200.9958,-130.5593 207.272,-132.5794 213.5816,-134.5192"/>
<polygon fill="#191970" stroke="#191970" points="212.9044,-137.9702 223.4886,-137.4956 214.9185,-131.2663 212.9044,-137.9702"/>
</g>
<!-- Node13 -->
<g id="node3" class="node">
<title>Node13</title>
<g id="a_node3"><a xlink:href="class_urho3_d_1_1_graphics.html#a1c014d24c89e047d834767e3c926630e" target="_top" xlink:title="Return the API&#45;specific readable hardware depth format, or 0 if not supported. ">
<polygon fill="none" stroke="#000000" points="195,-88.5 195,-118.5 365,-118.5 365,-88.5 195,-88.5"/>
<text text-anchor="start" x="203" y="-106.5" font-family="Helvetica,sans-Serif" font-size="10.00" fill="#000000">Urho3D::Graphics::GetReadable</text>
<text text-anchor="middle" x="280" y="-95.5" font-family="Helvetica,sans-Serif" font-size="10.00" fill="#000000">DepthFormat</text>
</a>
</g>
</g>
<!-- Node11&#45;&gt;Node13 -->
<g id="edge2" class="edge">
<title>Node11&#45;&gt;Node13</title>
<path fill="none" stroke="#191970" d="M159.0309,-90.2266C167.5178,-91.1578 176.2119,-92.1118 184.8553,-93.0602"/>
<polygon fill="#191970" stroke="#191970" points="184.641,-96.5576 194.9631,-94.1693 185.4046,-89.5994 184.641,-96.5576"/>
</g>
<!-- Node14 -->
<g id="node4" class="node">
<title>Node14</title>
<g id="a_node4"><a xlink:href="class_urho3_d_1_1_texture.html#a60c268d6f819bd4fdc219ba8f5f3820c" target="_top" xlink:title="Return the data type corresponding to an OpenGL internal format. ">
<polygon fill="none" stroke="#000000" points="198,-50 198,-69 362,-69 362,-50 198,-50"/>
<text text-anchor="middle" x="280" y="-57" font-family="Helvetica,sans-Serif" font-size="10.00" fill="#000000">Urho3D::Texture::GetDataType</text>
</a>
</g>
</g>
<!-- Node11&#45;&gt;Node14 -->
<g id="edge3" class="edge">
<title>Node11&#45;&gt;Node14</title>
<path fill="none" stroke="#191970" d="M159.0309,-72.7734C168.5249,-71.7317 178.2781,-70.6615 187.9296,-69.6025"/>
<polygon fill="#191970" stroke="#191970" points="188.3769,-73.0745 197.9355,-68.5046 187.6133,-66.1163 188.3769,-73.0745"/>
</g>
<!-- Node15 -->
<g id="node5" class="node">
<title>Node15</title>
<g id="a_node5"><a xlink:href="class_urho3_d_1_1_resource.html#ad851573ccc5bb7ea1508da7cc0d58ce9" target="_top" xlink:title="Reset last used timer. ">
<polygon fill="none" stroke="#000000" points="202.5,-.5 202.5,-30.5 357.5,-30.5 357.5,-.5 202.5,-.5"/>
<text text-anchor="start" x="210.5" y="-18.5" font-family="Helvetica,sans-Serif" font-size="10.00" fill="#000000">Urho3D::Resource::ResetUse</text>
<text text-anchor="middle" x="280" y="-7.5" font-family="Helvetica,sans-Serif" font-size="10.00" fill="#000000">Timer</text>
</a>
</g>
</g>
<!-- Node11&#45;&gt;Node15 -->
<g id="edge4" class="edge">
<title>Node11&#45;&gt;Node15</title>
<path fill="none" stroke="#191970" d="M120.2051,-66.4338C142.2439,-58.4328 170.0031,-48.6059 195,-40.5 202.3045,-38.1313 209.9925,-35.7358 217.6367,-33.4139"/>
<polygon fill="#191970" stroke="#191970" points="218.6947,-36.7506 227.2637,-30.5198 216.6794,-30.047 218.6947,-36.7506"/>
</g>
<!-- Node16 -->
<g id="node6" class="node">
<title>Node16</title>
<g id="a_node6"><a xlink:href="class_urho3_d_1_1_timer.html#a4cb8d7b146c6a0b136a02c9a01d8d8c1" target="_top" xlink:title="Reset the timer. ">
<polygon fill="none" stroke="#000000" points="401,-6 401,-25 522,-25 522,-6 401,-6"/>
<text text-anchor="middle" x="461.5" y="-13" font-family="Helvetica,sans-Serif" font-size="10.00" fill="#000000">Urho3D::Timer::Reset</text>
</a>
</g>
</g>
<!-- Node15&#45;&gt;Node16 -->
<g id="edge5" class="edge">
<title>Node15&#45;&gt;Node16</title>
<path fill="none" stroke="#191970" d="M357.7622,-15.5C368.6991,-15.5 379.8931,-15.5 390.6908,-15.5"/>
<polygon fill="#191970" stroke="#191970" points="390.9005,-19.0001 400.9005,-15.5 390.9005,-12.0001 390.9005,-19.0001"/>
</g>
</g>
</svg>
        <g id="navigator" transform="translate(0 0)" fill="#404254">
                <rect fill="#f2f5e9" fill-opacity="0.5" stroke="#606060" stroke-width=".5" x="0" y="0" width="60" height="60"/>
                <use id="zoomplus" xlink:href="#zoomPlus" x="17" y="9" onmousedown="handleZoom(evt,'in')"/>
                <use id="zoomminus" xlink:href="#zoomMin" x="42" y="9" onmousedown="handleZoom(evt,'out')"/>
                <use id="reset" xlink:href="#resetDef" x="30" y="36" onmousedown="handleReset()"/>
                <g id="arrowUp" xlink:href="#dirArrow" transform="translate(30 24)" onmousedown="handlePan(0,-1)">
                  <use xlink:href="#rim" fill="#404040">
                        <set attributeName="fill" to="#808080" begin="arrowUp.mouseover" end="arrowUp.mouseout"/>
                  </use>
                  <path fill="none" stroke="white" stroke-width="1.5" d="M0,-3.0v7 M-2.5,-0.5L0,-3.0L2.5,-0.5"/>
                </g>
                <g id="arrowRight" xlink:href="#dirArrow" transform="rotate(90) translate(36 -43)" onmousedown="handlePan(1,0)">
                  <use xlink:href="#rim" fill="#404040">
                        <set attributeName="fill" to="#808080" begin="arrowRight.mouseover" end="arrowRight.mouseout"/>
                  </use>
                  <path fill="none" stroke="white" stroke-width="1.5" d="M0,-3.0v7 M-2.5,-0.5L0,-3.0L2.5,-0.5"/>
                </g>
                <g id="arrowDown" xlink:href="#dirArrow" transform="rotate(180) translate(-30 -48)" onmousedown="handlePan(0,1)">
                  <use xlink:href="#rim" fill="#404040">
                        <set attributeName="fill" to="#808080" begin="arrowDown.mouseover" end="arrowDown.mouseout"/>
                  </use>
                  <path fill="none" stroke="white" stroke-width="1.5" d="M0,-3.0v7 M-2.5,-0.5L0,-3.0L2.5,-0.5"/>
                </g>
                <g id="arrowLeft" xlink:href="#dirArrow" transform="rotate(270) translate(-36 17)" onmousedown="handlePan(-1,0)">
                  <use xlink:href="#rim" fill="#404040">
                        <set attributeName="fill" to="#808080" begin="arrowLeft.mouseover" end="arrowLeft.mouseout"/>
                  </use>
                  <path fill="none" stroke="white" stroke-width="1.5" d="M0,-3.0v7 M-2.5,-0.5L0,-3.0L2.5,-0.5"/>
                </g>
        </g>
        <svg viewBox="0 0 15 15" width="100%" height="30px" preserveAspectRatio="xMaxYMin meet">
         <g id="arrow_out" transform="scale(0.3 0.3)">
          <a xlink:href="class_urho3_d_1_1_renderer_a44c45f4e35cbce39ed18336ad8ff318d_cgraph_org.svg" target="_base">
           <rect id="button" ry="5" rx="5" y="6" x="6" height="38" width="38"
                fill="#f2f5e9" fill-opacity="0.5" stroke="#606060" stroke-width="1.0"/>
           <path id="arrow"
             d="M 11.500037,31.436501 C 11.940474,20.09759 22.043105,11.32322 32.158766,21.979434 L 37.068811,17.246167 C 37.068811,17.246167 37.088388,32 37.088388,32 L 22.160133,31.978069 C 22.160133,31.978069 26.997745,27.140456 26.997745,27.140456 C 18.528582,18.264221 13.291696,25.230495 11.500037,31.436501 z"
             style="fill:#404040;"/>
          </a>
         </g>
        </svg>
</svg>
