<?xml version="1.0" encoding="UTF-8" standalone="no"?>
<!DOCTYPE svg PUBLIC "-//W3C//DTD SVG 1.1//EN"
 "http://www.w3.org/Graphics/SVG/1.1/DTD/svg11.dtd">
<!-- Generated by graphviz version 2.43.0 (0)
 -->
<!-- Title: Urho3D::TileMapLayer2D Pages: 1 -->
<!--zoomable 708 -->
<svg id="main" version="1.1" xmlns="http://www.w3.org/2000/svg" xmlns:xlink="http://www.w3.org/1999/xlink" xml:space="preserve" onload="init(evt)">
<style type="text/css"><![CDATA[
.edge:hover path { stroke: red; }
.edge:hover polygon { stroke: red; fill: red; }
]]></style>
<script type="text/javascript"><![CDATA[
var edges = document.getElementsByTagName('g');
if (edges && edges.length) {
  for (var i=0;i<edges.length;i++) {
    if (edges[i].id.substr(0,4)=='edge') {
      edges[i].setAttribute('class','edge');
    }
  }
}
]]></script>
        <defs>
                <circle id="rim" cx="0" cy="0" r="7"/>
                <circle id="rim2" cx="0" cy="0" r="3.5"/>
                <g id="zoomPlus">
                        <use xlink:href="#rim" fill="#404040">
                                <set attributeName="fill" to="#808080" begin="zoomplus.mouseover" end="zoomplus.mouseout"/>
                        </use>
                        <path d="M-4,0h8M0,-4v8" fill="none" stroke="white" stroke-width="1.5" pointer-events="none"/>
                </g>
                <g id="zoomMin">
                        <use xlink:href="#rim" fill="#404040">
                                <set attributeName="fill" to="#808080" begin="zoomminus.mouseover" end="zoomminus.mouseout"/>
                        </use>
                        <path d="M-4,0h8" fill="none" stroke="white" stroke-width="1.5" pointer-events="none"/>
                </g>
                <g id="dirArrow">
                        <path fill="none" stroke="white" stroke-width="1.5" d="M0,-3.0v7 M-2.5,-0.5L0,-3.0L2.5,-0.5"/>
                </g>
               <g id="resetDef">
                       <use xlink:href="#rim2" fill="#404040">
                               <set attributeName="fill" to="#808080" begin="reset.mouseover" end="reset.mouseout"/>
                       </use>
               </g>
        </defs>

<script type="text/javascript">
var viewWidth = 1937;
var viewHeight = 708;
var sectionId = 'dynsection-1';
</script>
<script xlink:href="svgpan.js"/>
<svg id="graph" class="graph">
<g id="viewport">
<title>Urho3D::TileMapLayer2D</title>
<!-- Node1 -->
<g id="node1" class="node">
<title>Node1</title>
<g id="a_node1"><a xlink:title="Tile map component.">
<polygon fill="#bfbfbf" stroke="black" points="1790,-378 1790,-397 1929,-397 1929,-378 1790,-378"/>
<text text-anchor="middle" x="1859.5" y="-385" font-family="Helvetica,sans-Serif" font-size="10.00">Urho3D::TileMapLayer2D</text>
</a>
</g>
</g>
<!-- Node2 -->
<g id="node2" class="node">
<title>Node2</title>
<g id="a_node2"><a xlink:href="class_urho3_d_1_1_component.html" target="_top" xlink:title=" ">
<polygon fill="none" stroke="black" points="1091,-556 1091,-575 1207,-575 1207,-556 1091,-556"/>
<text text-anchor="middle" x="1149" y="-563" font-family="Helvetica,sans-Serif" font-size="10.00">Urho3D::Component</text>
</a>
</g>
</g>
<!-- Node2&#45;&gt;Node1 -->
<g id="edge1" class="edge">
<title>Node2&#45;&gt;Node1</title>
<path fill="none" stroke="midnightblue" d="M1201.26,-577.15C1314.43,-599.84 1589.96,-638.22 1772,-522.5 1820.63,-491.59 1847.17,-422.4 1855.55,-397.05"/>
<polygon fill="midnightblue" stroke="midnightblue" points="1201.65,-573.65 1191.15,-575.07 1200.24,-580.51 1201.65,-573.65"/>
</g>
<!-- Node172 -->
<g id="node25" class="node">
<title>Node172</title>
<g id="a_node25"><a xlink:href="class_urho3_d_1_1_tile_map2_d.html" target="_top" xlink:title="Tile map component.">
<polygon fill="none" stroke="red" points="1330,-537 1330,-556 1442,-556 1442,-537 1330,-537"/>
<text text-anchor="middle" x="1386" y="-544" font-family="Helvetica,sans-Serif" font-size="10.00">Urho3D::TileMap2D</text>
</a>
</g>
</g>
<!-- Node2&#45;&gt;Node172 -->
<g id="edge38" class="edge">
<title>Node2&#45;&gt;Node172</title>
<path fill="none" stroke="midnightblue" d="M1217.51,-560.04C1253.17,-557.16 1296.39,-553.66 1329.99,-550.95"/>
<polygon fill="midnightblue" stroke="midnightblue" points="1216.87,-556.58 1207.19,-560.88 1217.44,-563.56 1216.87,-556.58"/>
</g>
<!-- Node3 -->
<g id="node3" class="node">
<title>Node3</title>
<g id="a_node3"><a xlink:href="class_urho3_d_1_1_animatable.html" target="_top" xlink:title="Base class for animatable object, an animatable object can be set animation on it&#39;s attributes,...">
<polygon fill="none" stroke="black" points="414,-599 414,-618 530,-618 530,-599 414,-599"/>
<text text-anchor="middle" x="472" y="-606" font-family="Helvetica,sans-Serif" font-size="10.00">Urho3D::Animatable</text>
</a>
</g>
</g>
<!-- Node3&#45;&gt;Node2 -->
<g id="edge2" class="edge">
<title>Node3&#45;&gt;Node2</title>
<path fill="none" stroke="midnightblue" d="M540.57,-607.63C620.68,-606.25 758.21,-602.81 876,-594.5 950.37,-589.25 1035.83,-579.53 1090.8,-572.8"/>
<polygon fill="midnightblue" stroke="midnightblue" points="540.07,-604.13 530.13,-607.8 540.18,-611.13 540.07,-604.13"/>
</g>
<!-- Node42 -->
<g id="node8" class="node">
<title>Node42</title>
<g id="a_node8"><a xlink:href="class_urho3_d_1_1_node.html" target="_top" xlink:title="Scene node that may contain components and child nodes.">
<polygon fill="none" stroke="red" points="781.5,-537 781.5,-556 866.5,-556 866.5,-537 781.5,-537"/>
<text text-anchor="middle" x="824" y="-544" font-family="Helvetica,sans-Serif" font-size="10.00">Urho3D::Node</text>
</a>
</g>
</g>
<!-- Node3&#45;&gt;Node42 -->
<g id="edge8" class="edge">
<title>Node3&#45;&gt;Node42</title>
<path fill="none" stroke="midnightblue" d="M537.1,-597.15C608.22,-584.55 720.89,-564.59 781.36,-553.88"/>
<polygon fill="midnightblue" stroke="midnightblue" points="536.16,-593.76 526.92,-598.95 537.38,-600.65 536.16,-593.76"/>
</g>
<!-- Node4 -->
<g id="node4" class="node">
<title>Node4</title>
<g id="a_node4"><a xlink:href="class_urho3_d_1_1_serializable.html" target="_top" xlink:title="Base class for objects with automatic serialization through attributes.">
<polygon fill="none" stroke="red" points="44.5,-521 44.5,-540 160.5,-540 160.5,-521 44.5,-521"/>
<text text-anchor="middle" x="102.5" y="-528" font-family="Helvetica,sans-Serif" font-size="10.00">Urho3D::Serializable</text>
</a>
</g>
</g>
<!-- Node4&#45;&gt;Node3 -->
<g id="edge3" class="edge">
<title>Node4&#45;&gt;Node3</title>
<path fill="none" stroke="midnightblue" d="M170.64,-541.2C224.32,-550.17 301.34,-563.98 368,-579.5 392.24,-585.15 419.33,-592.83 439.64,-598.87"/>
<polygon fill="midnightblue" stroke="midnightblue" points="171.01,-537.71 160.57,-539.52 169.86,-544.62 171.01,-537.71"/>
</g>
<!-- Node34 -->
<g id="node5" class="node">
<title>Node34</title>
<g id="a_node5"><a xlink:href="class_urho3_d_1_1_hash_map.html" target="_top" xlink:title=" ">
<polygon fill="none" stroke="red" points="0,-658 0,-699 205,-699 205,-658 0,-658"/>
<text text-anchor="start" x="8" y="-687" font-family="Helvetica,sans-Serif" font-size="10.00">Urho3D::HashMap&lt; Urho3D</text>
<text text-anchor="start" x="8" y="-676" font-family="Helvetica,sans-Serif" font-size="10.00">::String, Urho3D::SharedPtr</text>
<text text-anchor="middle" x="102.5" y="-665" font-family="Helvetica,sans-Serif" font-size="10.00">&lt; Urho3D::AttributeAnimationInfo &gt; &gt;</text>
</a>
</g>
</g>
<!-- Node34&#45;&gt;Node3 -->
<g id="edge4" class="edge">
<title>Node34&#45;&gt;Node3</title>
<path fill="none" stroke="#9a32cd" stroke-dasharray="5,2" d="M215.13,-660.53C262.4,-652.55 318,-642.66 368,-632.5 389.41,-628.15 413.17,-622.66 432.47,-618.02"/>
<polygon fill="#9a32cd" stroke="#9a32cd" points="214.46,-657.09 205.18,-662.2 215.62,-664 214.46,-657.09"/>
<text text-anchor="middle" x="295.5" y="-661.5" font-family="Helvetica,sans-Serif" font-size="10.00"> attributeAnimationInfos_</text>
</g>
<!-- Node35 -->
<g id="node6" class="node">
<title>Node35</title>
<g id="a_node6"><a xlink:href="class_urho3_d_1_1_shared_ptr.html" target="_top" xlink:title=" ">
<polygon fill="none" stroke="red" points="25,-608.5 25,-638.5 180,-638.5 180,-608.5 25,-608.5"/>
<text text-anchor="start" x="33" y="-626.5" font-family="Helvetica,sans-Serif" font-size="10.00">Urho3D::SharedPtr&lt;</text>
<text text-anchor="middle" x="102.5" y="-615.5" font-family="Helvetica,sans-Serif" font-size="10.00"> Urho3D::ObjectAnimation &gt;</text>
</a>
</g>
</g>
<!-- Node35&#45;&gt;Node3 -->
<g id="edge5" class="edge">
<title>Node35&#45;&gt;Node3</title>
<path fill="none" stroke="#9a32cd" stroke-dasharray="5,2" d="M190.09,-619.97C259.12,-617.15 353.85,-613.28 413.74,-610.84"/>
<polygon fill="#9a32cd" stroke="#9a32cd" points="189.94,-616.47 180.09,-620.37 190.23,-623.46 189.94,-616.47"/>
<text text-anchor="middle" x="295.5" y="-620.5" font-family="Helvetica,sans-Serif" font-size="10.00"> objectAnimation_</text>
</g>
<!-- Node41 -->
<g id="node7" class="node">
<title>Node41</title>
<g id="a_node7"><a xlink:href="class_urho3_d_1_1_hash_set.html" target="_top" xlink:title=" ">
<polygon fill="none" stroke="red" points="31,-559.5 31,-589.5 174,-589.5 174,-559.5 31,-559.5"/>
<text text-anchor="start" x="39" y="-577.5" font-family="Helvetica,sans-Serif" font-size="10.00">Urho3D::HashSet&lt; const</text>
<text text-anchor="middle" x="102.5" y="-566.5" font-family="Helvetica,sans-Serif" font-size="10.00"> Urho3D::AttributeInfo * &gt;</text>
</a>
</g>
</g>
<!-- Node41&#45;&gt;Node3 -->
<g id="edge6" class="edge">
<title>Node41&#45;&gt;Node3</title>
<path fill="none" stroke="#9a32cd" stroke-dasharray="5,2" d="M184.5,-581.13C236.87,-585.52 306.49,-591.54 368,-597.5 382.86,-598.94 398.91,-600.6 413.82,-602.19"/>
<polygon fill="#9a32cd" stroke="#9a32cd" points="184.52,-577.62 174.26,-580.27 183.93,-584.59 184.52,-577.62"/>
<text text-anchor="middle" x="295.5" y="-600.5" font-family="Helvetica,sans-Serif" font-size="10.00"> animatedNetworkAttributes_</text>
</g>
<!-- Node42&#45;&gt;Node2 -->
<g id="edge7" class="edge">
<title>Node42&#45;&gt;Node2</title>
<path fill="none" stroke="#9a32cd" stroke-dasharray="5,2" d="M876.69,-549.54C935.17,-552.98 1030.16,-558.57 1090.82,-562.14"/>
<polygon fill="#9a32cd" stroke="#9a32cd" points="876.75,-546.04 866.57,-548.95 876.34,-553.03 876.75,-546.04"/>
<text text-anchor="middle" x="975.5" y="-562.5" font-family="Helvetica,sans-Serif" font-size="10.00"> node_</text>
</g>
<!-- Node42&#45;&gt;Node42 -->
<g id="edge9" class="edge">
<title>Node42&#45;&gt;Node42</title>
<path fill="none" stroke="#9a32cd" stroke-dasharray="5,2" d="M796,-565.15C797.17,-570.44 806.5,-574.5 824,-574.5 850.66,-574.5 858.37,-565.07 847.12,-556.26"/>
<polygon fill="#9a32cd" stroke="#9a32cd" points="799.14,-566.71 800.88,-556.26 793,-563.34 799.14,-566.71"/>
<text text-anchor="middle" x="824" y="-577.5" font-family="Helvetica,sans-Serif" font-size="10.00"> parent_</text>
</g>
<!-- Node95 -->
<g id="node9" class="node">
<title>Node95</title>
<g id="a_node9"><a xlink:href="class_urho3_d_1_1_vector.html" target="_top" xlink:title=" ">
<polygon fill="none" stroke="black" points="386,-495.5 386,-525.5 558,-525.5 558,-495.5 386,-495.5"/>
<text text-anchor="start" x="394" y="-513.5" font-family="Helvetica,sans-Serif" font-size="10.00">Urho3D::Vector&lt; Urho3D</text>
<text text-anchor="middle" x="472" y="-502.5" font-family="Helvetica,sans-Serif" font-size="10.00">::SharedPtr&lt; Urho3D::Node &gt; &gt;</text>
</a>
</g>
</g>
<!-- Node95&#45;&gt;Node1 -->
<g id="edge34" class="edge">
<title>Node95&#45;&gt;Node1</title>
<path fill="none" stroke="#9a32cd" stroke-dasharray="5,2" d="M568.4,-509.66C638.77,-509.11 736.85,-508.5 823,-508.5 823,-508.5 823,-508.5 1609.5,-508.5 1710.91,-508.5 1814.31,-426.3 1847.52,-397.4"/>
<polygon fill="#9a32cd" stroke="#9a32cd" points="568.2,-506.16 558.23,-509.74 568.25,-513.16 568.2,-506.16"/>
<text text-anchor="middle" x="1274" y="-511.5" font-family="Helvetica,sans-Serif" font-size="10.00"> nodes_</text>
</g>
<!-- Node95&#45;&gt;Node42 -->
<g id="edge10" class="edge">
<title>Node95&#45;&gt;Node42</title>
<path fill="none" stroke="#9a32cd" stroke-dasharray="5,2" d="M568.28,-520.69C570.88,-520.97 573.46,-521.24 576,-521.5 648.24,-529.01 732.39,-537.47 781.48,-542.37"/>
<polygon fill="#9a32cd" stroke="#9a32cd" points="568.46,-517.19 558.15,-519.63 567.73,-524.16 568.46,-517.19"/>
<text text-anchor="middle" x="665" y="-541.5" font-family="Helvetica,sans-Serif" font-size="10.00"> children_</text>
</g>
<!-- Node16 -->
<g id="node10" class="node">
<title>Node16</title>
<g id="a_node10"><a xlink:href="class_urho3_d_1_1_vector_base.html" target="_top" xlink:title="Vector base class.">
<polygon fill="none" stroke="black" points="45.5,-457 45.5,-476 159.5,-476 159.5,-457 45.5,-457"/>
<text text-anchor="middle" x="102.5" y="-464" font-family="Helvetica,sans-Serif" font-size="10.00">Urho3D::VectorBase</text>
</a>
</g>
</g>
<!-- Node16&#45;&gt;Node95 -->
<g id="edge11" class="edge">
<title>Node16&#45;&gt;Node95</title>
<path fill="none" stroke="midnightblue" d="M169.91,-474.45C230.39,-481.69 320.02,-492.42 385.77,-500.3"/>
<polygon fill="midnightblue" stroke="midnightblue" points="170.06,-470.94 159.72,-473.23 169.23,-477.89 170.06,-470.94"/>
</g>
<!-- Node110 -->
<g id="node18" class="node">
<title>Node110</title>
<g id="a_node18"><a xlink:href="class_urho3_d_1_1_vector.html" target="_top" xlink:title=" ">
<polygon fill="none" stroke="black" points="894,-219 894,-260 1057,-260 1057,-219 894,-219"/>
<text text-anchor="start" x="902" y="-248" font-family="Helvetica,sans-Serif" font-size="10.00">Urho3D::Vector&lt; Urho3D</text>
<text text-anchor="start" x="902" y="-237" font-family="Helvetica,sans-Serif" font-size="10.00">::SharedPtr&lt; Urho3D::TileMap</text>
<text text-anchor="middle" x="975.5" y="-226" font-family="Helvetica,sans-Serif" font-size="10.00">Object2D &gt; &gt;</text>
</a>
</g>
</g>
<!-- Node16&#45;&gt;Node110 -->
<g id="edge23" class="edge">
<title>Node16&#45;&gt;Node110</title>
<path fill="none" stroke="midnightblue" d="M150.19,-454.33C291.86,-417.41 717.99,-306.35 895.52,-260.08"/>
<polygon fill="midnightblue" stroke="midnightblue" points="148.89,-451.05 140.09,-456.96 150.65,-457.83 148.89,-451.05"/>
</g>
<!-- Node112 -->
<g id="node20" class="node">
<title>Node112</title>
<g id="a_node20"><a xlink:href="class_urho3_d_1_1_vector.html" target="_top" xlink:title=" ">
<polygon fill="none" stroke="black" points="576,-452.5 576,-482.5 754,-482.5 754,-452.5 576,-452.5"/>
<text text-anchor="start" x="584" y="-470.5" font-family="Helvetica,sans-Serif" font-size="10.00">Urho3D::Vector&lt; Urho3D</text>
<text text-anchor="middle" x="665" y="-459.5" font-family="Helvetica,sans-Serif" font-size="10.00">::SharedPtr&lt; Urho3D::Tile2D &gt; &gt;</text>
</a>
</g>
</g>
<!-- Node16&#45;&gt;Node112 -->
<g id="edge27" class="edge">
<title>Node16&#45;&gt;Node112</title>
<path fill="none" stroke="midnightblue" d="M169.61,-466.62C270.45,-466.8 462.85,-467.14 575.59,-467.34"/>
<polygon fill="midnightblue" stroke="midnightblue" points="169.56,-463.12 159.55,-466.6 169.54,-470.12 169.56,-463.12"/>
</g>
<!-- Node97 -->
<g id="node11" class="node">
<title>Node97</title>
<g id="a_node11"><a xlink:href="class_urho3_d_1_1_tmx_layer2_d.html" target="_top" xlink:title="Tmx layer.">
<polygon fill="none" stroke="black" points="1325,-318 1325,-337 1447,-337 1447,-318 1325,-318"/>
<text text-anchor="middle" x="1386" y="-325" font-family="Helvetica,sans-Serif" font-size="10.00">Urho3D::TmxLayer2D</text>
</a>
</g>
</g>
<!-- Node97&#45;&gt;Node1 -->
<g id="edge12" class="edge">
<title>Node97&#45;&gt;Node1</title>
<path fill="none" stroke="#9a32cd" stroke-dasharray="5,2" d="M1457.52,-333.13C1518.21,-338.32 1608.07,-346.83 1686,-357.5 1727.71,-363.21 1774.78,-371.52 1809.2,-377.95"/>
<polygon fill="#9a32cd" stroke="#9a32cd" points="1457.54,-329.62 1447.28,-332.26 1456.95,-336.59 1457.54,-329.62"/>
<text text-anchor="middle" x="1608.5" y="-360.5" font-family="Helvetica,sans-Serif" font-size="10.00"> tmxLayer_</text>
</g>
<!-- Node109 -->
<g id="node17" class="node">
<title>Node109</title>
<g id="a_node17"><a xlink:href="class_urho3_d_1_1_tmx_object_group2_d.html" target="_top" xlink:title="Tmx objects layer.">
<polygon fill="none" stroke="black" points="1531,-293 1531,-312 1686,-312 1686,-293 1531,-293"/>
<text text-anchor="middle" x="1608.5" y="-300" font-family="Helvetica,sans-Serif" font-size="10.00">Urho3D::TmxObjectGroup2D</text>
</a>
</g>
</g>
<!-- Node97&#45;&gt;Node109 -->
<g id="edge21" class="edge">
<title>Node97&#45;&gt;Node109</title>
<path fill="none" stroke="midnightblue" d="M1457.43,-319.52C1480.79,-316.87 1506.91,-313.9 1530.73,-311.2"/>
<polygon fill="midnightblue" stroke="midnightblue" points="1456.79,-316.06 1447.25,-320.67 1457.58,-323.02 1456.79,-316.06"/>
</g>
<!-- Node111 -->
<g id="node19" class="node">
<title>Node111</title>
<g id="a_node19"><a xlink:href="class_urho3_d_1_1_tmx_tile_layer2_d.html" target="_top" xlink:title="Tmx tile layer.">
<polygon fill="none" stroke="black" points="1538.5,-378 1538.5,-397 1678.5,-397 1678.5,-378 1538.5,-378"/>
<text text-anchor="middle" x="1608.5" y="-385" font-family="Helvetica,sans-Serif" font-size="10.00">Urho3D::TmxTileLayer2D</text>
</a>
</g>
</g>
<!-- Node97&#45;&gt;Node111 -->
<g id="edge25" class="edge">
<title>Node97&#45;&gt;Node111</title>
<path fill="none" stroke="midnightblue" d="M1413.84,-341.54C1428.6,-348.74 1447.42,-357.11 1465,-362.5 1488.41,-369.68 1514.66,-375.02 1538.19,-378.88"/>
<polygon fill="midnightblue" stroke="midnightblue" points="1415.3,-338.35 1404.79,-337.02 1412.17,-344.61 1415.3,-338.35"/>
</g>
<!-- Node113 -->
<g id="node21" class="node">
<title>Node113</title>
<g id="a_node21"><a xlink:href="class_urho3_d_1_1_tmx_image_layer2_d.html" target="_top" xlink:title="Tmx image layer.">
<polygon fill="none" stroke="black" points="1532.5,-218 1532.5,-237 1684.5,-237 1684.5,-218 1532.5,-218"/>
<text text-anchor="middle" x="1608.5" y="-225" font-family="Helvetica,sans-Serif" font-size="10.00">Urho3D::TmxImageLayer2D</text>
</a>
</g>
</g>
<!-- Node97&#45;&gt;Node113 -->
<g id="edge29" class="edge">
<title>Node97&#45;&gt;Node113</title>
<path fill="none" stroke="midnightblue" d="M1417.48,-313.68C1462.9,-293.08 1547.21,-254.84 1586.42,-237.06"/>
<polygon fill="midnightblue" stroke="midnightblue" points="1415.8,-310.59 1408.14,-317.91 1418.7,-316.97 1415.8,-310.59"/>
</g>
<!-- Node6 -->
<g id="node12" class="node">
<title>Node6</title>
<g id="a_node12"><a xlink:href="class_urho3_d_1_1_ref_counted.html" target="_top" xlink:title="Base class for intrusively reference&#45;counted objects. These are noncopyable and non&#45;assignable.">
<polygon fill="none" stroke="black" points="1091,-376 1091,-395 1207,-395 1207,-376 1091,-376"/>
<text text-anchor="middle" x="1149" y="-383" font-family="Helvetica,sans-Serif" font-size="10.00">Urho3D::RefCounted</text>
</a>
</g>
</g>
<!-- Node6&#45;&gt;Node97 -->
<g id="edge13" class="edge">
<title>Node6&#45;&gt;Node97</title>
<path fill="none" stroke="midnightblue" d="M1209.2,-373.92C1238.73,-367.83 1274.9,-359.9 1307,-351.5 1323.31,-347.23 1341.31,-341.75 1355.91,-337.1"/>
<polygon fill="midnightblue" stroke="midnightblue" points="1208.15,-370.57 1199.05,-376 1209.55,-377.42 1208.15,-370.57"/>
</g>
<!-- Node7 -->
<g id="node13" class="node">
<title>Node7</title>
<g id="a_node13"><a xlink:href="struct_urho3_d_1_1_ref_count.html" target="_top" xlink:title="Reference count structure.">
<polygon fill="none" stroke="black" points="772,-376 772,-395 876,-395 876,-376 772,-376"/>
<text text-anchor="middle" x="824" y="-383" font-family="Helvetica,sans-Serif" font-size="10.00">Urho3D::RefCount</text>
</a>
</g>
</g>
<!-- Node7&#45;&gt;Node6 -->
<g id="edge14" class="edge">
<title>Node7&#45;&gt;Node6</title>
<path fill="none" stroke="#9a32cd" stroke-dasharray="5,2" d="M886.45,-385.5C945.31,-385.5 1033.41,-385.5 1090.8,-385.5"/>
<polygon fill="#9a32cd" stroke="#9a32cd" points="886.18,-382 876.18,-385.5 886.18,-389 886.18,-382"/>
<text text-anchor="middle" x="975.5" y="-388.5" font-family="Helvetica,sans-Serif" font-size="10.00"> refCount_</text>
</g>
<!-- Node101 -->
<g id="node15" class="node">
<title>Node101</title>
<g id="a_node15"><a xlink:href="class_urho3_d_1_1_weak_ptr.html" target="_top" xlink:title=" ">
<polygon fill="none" stroke="red" points="1075,-326.5 1075,-356.5 1223,-356.5 1223,-326.5 1075,-326.5"/>
<text text-anchor="start" x="1083" y="-344.5" font-family="Helvetica,sans-Serif" font-size="10.00">Urho3D::WeakPtr&lt; Urho3D</text>
<text text-anchor="middle" x="1149" y="-333.5" font-family="Helvetica,sans-Serif" font-size="10.00">::TmxFile2D &gt;</text>
</a>
</g>
</g>
<!-- Node7&#45;&gt;Node101 -->
<g id="edge17" class="edge">
<title>Node7&#45;&gt;Node101</title>
<path fill="none" stroke="#9a32cd" stroke-dasharray="5,2" d="M875.88,-373.84C881.97,-372.62 888.11,-371.47 894,-370.5 954.65,-360.47 1024.02,-352.81 1074.92,-347.88"/>
<polygon fill="#9a32cd" stroke="#9a32cd" points="874.82,-370.48 865.73,-375.94 876.24,-377.34 874.82,-370.48"/>
<text text-anchor="middle" x="975.5" y="-373.5" font-family="Helvetica,sans-Serif" font-size="10.00"> refCount_</text>
</g>
<!-- Node171 -->
<g id="node24" class="node">
<title>Node171</title>
<g id="a_node24"><a xlink:href="class_urho3_d_1_1_weak_ptr.html" target="_top" xlink:title=" ">
<polygon fill="none" stroke="black" points="1534.5,-416.5 1534.5,-446.5 1682.5,-446.5 1682.5,-416.5 1534.5,-416.5"/>
<text text-anchor="start" x="1542.5" y="-434.5" font-family="Helvetica,sans-Serif" font-size="10.00">Urho3D::WeakPtr&lt; Urho3D</text>
<text text-anchor="middle" x="1608.5" y="-423.5" font-family="Helvetica,sans-Serif" font-size="10.00">::TileMap2D &gt;</text>
</a>
</g>
</g>
<!-- Node7&#45;&gt;Node171 -->
<g id="edge36" class="edge">
<title>Node7&#45;&gt;Node171</title>
<path fill="none" stroke="#9a32cd" stroke-dasharray="5,2" d="M873.16,-397.06C880.12,-398.42 887.22,-399.62 894,-400.5 1126.55,-430.61 1404.91,-433.15 1534.48,-432.42"/>
<polygon fill="#9a32cd" stroke="#9a32cd" points="873.62,-393.59 863.12,-395 872.21,-400.44 873.62,-393.59"/>
<text text-anchor="middle" x="1274" y="-432.5" font-family="Helvetica,sans-Serif" font-size="10.00"> refCount_</text>
</g>
<!-- Node98 -->
<g id="node14" class="node">
<title>Node98</title>
<g id="a_node14"><a xlink:href="class_urho3_d_1_1_shared_ptr.html" target="_top" xlink:title=" ">
<polygon fill="none" stroke="red" points="1077,-277.5 1077,-307.5 1221,-307.5 1221,-277.5 1077,-277.5"/>
<text text-anchor="start" x="1085" y="-295.5" font-family="Helvetica,sans-Serif" font-size="10.00">Urho3D::SharedPtr&lt;</text>
<text text-anchor="middle" x="1149" y="-284.5" font-family="Helvetica,sans-Serif" font-size="10.00"> Urho3D::PropertySet2D &gt;</text>
</a>
</g>
</g>
<!-- Node98&#45;&gt;Node97 -->
<g id="edge15" class="edge">
<title>Node98&#45;&gt;Node97</title>
<path fill="none" stroke="#9a32cd" stroke-dasharray="5,2" d="M1231.4,-304.62C1262.08,-309.19 1296.39,-314.3 1324.8,-318.53"/>
<polygon fill="#9a32cd" stroke="#9a32cd" points="1231.55,-301.11 1221.15,-303.1 1230.52,-308.03 1231.55,-301.11"/>
<text text-anchor="middle" x="1274" y="-318.5" font-family="Helvetica,sans-Serif" font-size="10.00"> propertySet_</text>
</g>
<!-- Node101&#45;&gt;Node97 -->
<g id="edge16" class="edge">
<title>Node101&#45;&gt;Node97</title>
<path fill="none" stroke="#9a32cd" stroke-dasharray="5,2" d="M1233.2,-336.54C1263.48,-334.74 1297.1,-332.74 1324.98,-331.08"/>
<polygon fill="#9a32cd" stroke="#9a32cd" points="1232.84,-333.06 1223.07,-337.15 1233.26,-340.05 1232.84,-333.06"/>
<text text-anchor="middle" x="1274" y="-339.5" font-family="Helvetica,sans-Serif" font-size="10.00"> tmxFile_</text>
</g>
<!-- Node39 -->
<g id="node16" class="node">
<title>Node39</title>
<g id="a_node16"><a xlink:href="class_urho3_d_1_1_string.html" target="_top" xlink:title="String class.">
<polygon fill="none" stroke="black" points="1105,-210 1105,-229 1193,-229 1193,-210 1105,-210"/>
<text text-anchor="middle" x="1149" y="-217" font-family="Helvetica,sans-Serif" font-size="10.00">Urho3D::String</text>
</a>
</g>
</g>
<!-- Node39&#45;&gt;Node97 -->
<g id="edge18" class="edge">
<title>Node39&#45;&gt;Node97</title>
<path fill="none" stroke="#9a32cd" stroke-dasharray="5,2" d="M1180.19,-233.37C1228.63,-255.64 1322.51,-298.78 1364.19,-317.94"/>
<polygon fill="#9a32cd" stroke="#9a32cd" points="1181.4,-230.08 1170.85,-229.08 1178.48,-236.44 1181.4,-230.08"/>
<text text-anchor="middle" x="1274" y="-292.5" font-family="Helvetica,sans-Serif" font-size="10.00"> name_</text>
</g>
<!-- Node39&#45;&gt;Node39 -->
<g id="edge19" class="edge">
<title>Node39&#45;&gt;Node39</title>
<path fill="none" stroke="#9a32cd" stroke-dasharray="5,2" d="M1125.93,-238.53C1127.19,-243.63 1134.88,-247.5 1149,-247.5 1171.04,-247.5 1177.41,-238.07 1168.11,-229.26"/>
<polygon fill="#9a32cd" stroke="#9a32cd" points="1129.19,-239.83 1129.89,-229.26 1122.75,-237.08 1129.19,-239.83"/>
<text text-anchor="middle" x="1149" y="-250.5" font-family="Helvetica,sans-Serif" font-size="10.00"> EMPTY</text>
</g>
<!-- Node39&#45;&gt;Node113 -->
<g id="edge33" class="edge">
<title>Node39&#45;&gt;Node113</title>
<path fill="none" stroke="#9a32cd" stroke-dasharray="5,2" d="M1203.53,-220.44C1284.81,-221.86 1439.67,-224.57 1532.25,-226.18"/>
<polygon fill="#9a32cd" stroke="#9a32cd" points="1203.1,-216.93 1193.04,-220.25 1202.98,-223.93 1203.1,-216.93"/>
<text text-anchor="middle" x="1386" y="-228.5" font-family="Helvetica,sans-Serif" font-size="10.00"> source_</text>
</g>
<!-- Node109&#45;&gt;Node1 -->
<g id="edge20" class="edge">
<title>Node109&#45;&gt;Node1</title>
<path fill="none" stroke="#9a32cd" stroke-dasharray="5,2" d="M1696.58,-305.56C1721.59,-308.6 1748.46,-314.02 1772,-323.5 1803.54,-336.2 1833.95,-363.19 1848.9,-377.73"/>
<polygon fill="#9a32cd" stroke="#9a32cd" points="1696.68,-302.05 1686.35,-304.43 1695.91,-309.01 1696.68,-302.05"/>
<text text-anchor="middle" x="1738" y="-326.5" font-family="Helvetica,sans-Serif" font-size="10.00"> objectGroup_</text>
</g>
<!-- Node110&#45;&gt;Node109 -->
<g id="edge22" class="edge">
<title>Node110&#45;&gt;Node109</title>
<path fill="none" stroke="#9a32cd" stroke-dasharray="5,2" d="M1027.66,-215.03C1042.58,-209.06 1059.14,-203.53 1075,-200.5 1237.62,-169.48 1287.94,-173.6 1447,-219.5 1505.17,-236.29 1566.85,-274.94 1593.69,-292.94"/>
<polygon fill="#9a32cd" stroke="#9a32cd" points="1026.01,-211.92 1018.12,-218.99 1028.69,-218.39 1026.01,-211.92"/>
<text text-anchor="middle" x="1274" y="-189.5" font-family="Helvetica,sans-Serif" font-size="10.00"> objects_</text>
</g>
<!-- Node111&#45;&gt;Node1 -->
<g id="edge24" class="edge">
<title>Node111&#45;&gt;Node1</title>
<path fill="none" stroke="#9a32cd" stroke-dasharray="5,2" d="M1688.88,-387.5C1721.33,-387.5 1758.51,-387.5 1789.77,-387.5"/>
<polygon fill="#9a32cd" stroke="#9a32cd" points="1688.53,-384 1678.53,-387.5 1688.53,-391 1688.53,-384"/>
<text text-anchor="middle" x="1738" y="-390.5" font-family="Helvetica,sans-Serif" font-size="10.00"> tileLayer_</text>
</g>
<!-- Node112&#45;&gt;Node111 -->
<g id="edge26" class="edge">
<title>Node112&#45;&gt;Node111</title>
<path fill="none" stroke="#9a32cd" stroke-dasharray="5,2" d="M764.42,-468.46C825,-468.97 904.25,-469.5 974.5,-469.5 974.5,-469.5 974.5,-469.5 1387,-469.5 1456.86,-469.5 1464.87,-429 1531,-406.5 1541.36,-402.97 1552.72,-399.8 1563.44,-397.09"/>
<polygon fill="#9a32cd" stroke="#9a32cd" points="764.13,-464.96 754.1,-468.37 764.07,-471.96 764.13,-464.96"/>
<text text-anchor="middle" x="1149" y="-472.5" font-family="Helvetica,sans-Serif" font-size="10.00"> tiles_</text>
</g>
<!-- Node113&#45;&gt;Node1 -->
<g id="edge28" class="edge">
<title>Node113&#45;&gt;Node1</title>
<path fill="none" stroke="#9a32cd" stroke-dasharray="5,2" d="M1656.06,-239.96C1690.14,-250.5 1736.44,-267.84 1772,-292.5 1807.56,-317.16 1838.9,-359 1851.99,-377.82"/>
<polygon fill="#9a32cd" stroke="#9a32cd" points="1656.94,-236.57 1646.35,-237.04 1654.92,-243.28 1656.94,-236.57"/>
<text text-anchor="middle" x="1738" y="-295.5" font-family="Helvetica,sans-Serif" font-size="10.00"> imageLayer_</text>
</g>
<!-- Node114 -->
<g id="node22" class="node">
<title>Node114</title>
<g id="a_node22"><a xlink:href="class_urho3_d_1_1_shared_ptr.html" target="_top" xlink:title=" ">
<polygon fill="none" stroke="red" points="1328,-0.5 1328,-30.5 1444,-30.5 1444,-0.5 1328,-0.5"/>
<text text-anchor="start" x="1336" y="-18.5" font-family="Helvetica,sans-Serif" font-size="10.00">Urho3D::SharedPtr&lt;</text>
<text text-anchor="middle" x="1386" y="-7.5" font-family="Helvetica,sans-Serif" font-size="10.00"> Urho3D::Sprite2D &gt;</text>
</a>
</g>
</g>
<!-- Node114&#45;&gt;Node113 -->
<g id="edge30" class="edge">
<title>Node114&#45;&gt;Node113</title>
<path fill="none" stroke="#9a32cd" stroke-dasharray="5,2" d="M1438.5,-35.24C1441.44,-36.9 1444.3,-38.65 1447,-40.5 1522.15,-92.05 1583.36,-187.27 1601.8,-217.81"/>
<polygon fill="#9a32cd" stroke="#9a32cd" points="1439.96,-32.06 1429.47,-30.59 1436.75,-38.28 1439.96,-32.06"/>
<text text-anchor="middle" x="1489" y="-101.5" font-family="Helvetica,sans-Serif" font-size="10.00"> sprite_</text>
</g>
<!-- Node117 -->
<g id="node23" class="node">
<title>Node117</title>
<g id="a_node23"><a xlink:href="class_urho3_d_1_1_vector2.html" target="_top" xlink:title="Two&#45;dimensional vector.">
<polygon fill="none" stroke="black" points="1338,-50 1338,-69 1434,-69 1434,-50 1338,-50"/>
<text text-anchor="middle" x="1386" y="-57" font-family="Helvetica,sans-Serif" font-size="10.00">Urho3D::Vector2</text>
</a>
</g>
</g>
<!-- Node117&#45;&gt;Node113 -->
<g id="edge31" class="edge">
<title>Node117&#45;&gt;Node113</title>
<path fill="none" stroke="#9a32cd" stroke-dasharray="5,2" d="M1407.63,-75.22C1452.62,-109.5 1558.4,-190.09 1594.88,-217.88"/>
<polygon fill="#9a32cd" stroke="#9a32cd" points="1409.56,-72.29 1399.49,-69.01 1405.32,-77.86 1409.56,-72.29"/>
<text text-anchor="middle" x="1489" y="-157.5" font-family="Helvetica,sans-Serif" font-size="10.00"> position_</text>
</g>
<!-- Node117&#45;&gt;Node117 -->
<g id="edge32" class="edge">
<title>Node117&#45;&gt;Node117</title>
<path fill="none" stroke="#9a32cd" stroke-dasharray="5,2" d="M1367.11,-78.9C1368.37,-83.81 1374.67,-87.5 1386,-87.5 1404.13,-87.5 1409.37,-78.07 1401.72,-69.26"/>
<polygon fill="#9a32cd" stroke="#9a32cd" points="1370.48,-79.85 1370.28,-69.26 1363.83,-77.67 1370.48,-79.85"/>
<text text-anchor="middle" x="1386" y="-145.5" font-family="Helvetica,sans-Serif" font-size="10.00"> ONE</text>
<text text-anchor="middle" x="1386" y="-134.5" font-family="Helvetica,sans-Serif" font-size="10.00">DOWN</text>
<text text-anchor="middle" x="1386" y="-123.5" font-family="Helvetica,sans-Serif" font-size="10.00">RIGHT</text>
<text text-anchor="middle" x="1386" y="-112.5" font-family="Helvetica,sans-Serif" font-size="10.00">LEFT</text>
<text text-anchor="middle" x="1386" y="-101.5" font-family="Helvetica,sans-Serif" font-size="10.00">ZERO</text>
<text text-anchor="middle" x="1386" y="-90.5" font-family="Helvetica,sans-Serif" font-size="10.00">UP</text>
</g>
<!-- Node171&#45;&gt;Node1 -->
<g id="edge35" class="edge">
<title>Node171&#45;&gt;Node1</title>
<path fill="none" stroke="#9a32cd" stroke-dasharray="5,2" d="M1692.76,-416.79C1729.59,-410.28 1771.85,-402.81 1804.48,-397.05"/>
<polygon fill="#9a32cd" stroke="#9a32cd" points="1691.76,-413.41 1682.53,-418.6 1692.98,-420.3 1691.76,-413.41"/>
<text text-anchor="middle" x="1738" y="-418.5" font-family="Helvetica,sans-Serif" font-size="10.00"> tileMap_</text>
</g>
<!-- Node172&#45;&gt;Node171 -->
<g id="edge37" class="edge">
<title>Node172&#45;&gt;Node171</title>
<path fill="none" stroke="#9a32cd" stroke-dasharray="5,2" d="M1415.93,-532.44C1441.58,-519.88 1479.97,-500.84 1513,-483.5 1536.05,-471.4 1561.93,-457.11 1580.77,-446.58"/>
<polygon fill="#9a32cd" stroke="#9a32cd" points="1414.21,-529.38 1406.76,-536.92 1417.29,-535.67 1414.21,-529.38"/>
<text text-anchor="middle" x="1489" y="-508.5" font-family="Helvetica,sans-Serif" font-size="10.00"> ptr_</text>
</g>
</g>
</svg>
        <g id="navigator" transform="translate(0 0)" fill="#404254">
                <rect fill="#f2f5e9" fill-opacity="0.5" stroke="#606060" stroke-width=".5" x="0" y="0" width="60" height="60"/>
                <use id="zoomplus" xlink:href="#zoomPlus" x="17" y="9" onmousedown="handleZoom(evt,'in')"/>
                <use id="zoomminus" xlink:href="#zoomMin" x="42" y="9" onmousedown="handleZoom(evt,'out')"/>
                <use id="reset" xlink:href="#resetDef" x="30" y="36" onmousedown="handleReset()"/>
                <g id="arrowUp" xlink:href="#dirArrow" transform="translate(30 24)" onmousedown="handlePan(0,-1)">
                  <use xlink:href="#rim" fill="#404040">
                        <set attributeName="fill" to="#808080" begin="arrowUp.mouseover" end="arrowUp.mouseout"/>
                  </use>
                  <path fill="none" stroke="white" stroke-width="1.5" d="M0,-3.0v7 M-2.5,-0.5L0,-3.0L2.5,-0.5"/>
                </g>
                <g id="arrowRight" xlink:href="#dirArrow" transform="rotate(90) translate(36 -43)" onmousedown="handlePan(1,0)">
                  <use xlink:href="#rim" fill="#404040">
                        <set attributeName="fill" to="#808080" begin="arrowRight.mouseover" end="arrowRight.mouseout"/>
                  </use>
                  <path fill="none" stroke="white" stroke-width="1.5" d="M0,-3.0v7 M-2.5,-0.5L0,-3.0L2.5,-0.5"/>
                </g>
                <g id="arrowDown" xlink:href="#dirArrow" transform="rotate(180) translate(-30 -48)" onmousedown="handlePan(0,1)">
                  <use xlink:href="#rim" fill="#404040">
                        <set attributeName="fill" to="#808080" begin="arrowDown.mouseover" end="arrowDown.mouseout"/>
                  </use>
                  <path fill="none" stroke="white" stroke-width="1.5" d="M0,-3.0v7 M-2.5,-0.5L0,-3.0L2.5,-0.5"/>
                </g>
                <g id="arrowLeft" xlink:href="#dirArrow" transform="rotate(270) translate(-36 17)" onmousedown="handlePan(-1,0)">
                  <use xlink:href="#rim" fill="#404040">
                        <set attributeName="fill" to="#808080" begin="arrowLeft.mouseover" end="arrowLeft.mouseout"/>
                  </use>
                  <path fill="none" stroke="white" stroke-width="1.5" d="M0,-3.0v7 M-2.5,-0.5L0,-3.0L2.5,-0.5"/>
                </g>
        </g>
        <svg viewBox="0 0 15 15" width="100%" height="30px" preserveAspectRatio="xMaxYMin meet">
         <g id="arrow_out" transform="scale(0.3 0.3)">
          <a xlink:href="class_urho3_d_1_1_tile_map_layer2_d__coll__graph_org.svg" target="_base">
           <rect id="button" ry="5" rx="5" y="6" x="6" height="38" width="38"
                fill="#f2f5e9" fill-opacity="0.5" stroke="#606060" stroke-width="1.0"/>
           <path id="arrow"
             d="M 11.500037,31.436501 C 11.940474,20.09759 22.043105,11.32322 32.158766,21.979434 L 37.068811,17.246167 C 37.068811,17.246167 37.088388,32 37.088388,32 L 22.160133,31.978069 C 22.160133,31.978069 26.997745,27.140456 26.997745,27.140456 C 18.528582,18.264221 13.291696,25.230495 11.500037,31.436501 z"
             style="fill:#404040;"/>
          </a>
         </g>
        </svg>
</svg>
