<?xml version="1.0" encoding="UTF-8" standalone="no"?>
<!DOCTYPE svg PUBLIC "-//W3C//DTD SVG 1.1//EN"
 "http://www.w3.org/Graphics/SVG/1.1/DTD/svg11.dtd">
<!-- Generated by graphviz version 2.43.0 (0)
 -->
<!-- Title: Urho3D::ScrollView::SetViewPosition Pages: 1 -->
<svg width="439pt" height="137pt"
 viewBox="0.00 0.00 439.00 137.00" xmlns="http://www.w3.org/2000/svg" xmlns:xlink="http://www.w3.org/1999/xlink">
<g id="graph0" class="graph" transform="scale(1 1) rotate(0) translate(4 133)">
<title>Urho3D::ScrollView::SetViewPosition</title>
<!-- Node1 -->
<g id="node1" class="node">
<title>Node1</title>
<g id="a_node1"><a xlink:title=" ">
<polygon fill="#bfbfbf" stroke="black" points="321,-49.5 321,-79.5 431,-79.5 431,-49.5 321,-49.5"/>
<text text-anchor="start" x="329" y="-67.5" font-family="Helvetica,sans-Serif" font-size="10.00">Urho3D::ScrollView</text>
<text text-anchor="middle" x="376" y="-56.5" font-family="Helvetica,sans-Serif" font-size="10.00">::SetViewPosition</text>
</a>
</g>
</g>
<!-- Node2 -->
<g id="node2" class="node">
<title>Node2</title>
<g id="a_node2"><a xlink:href="class_urho3_d_1_1_list_view.html#af14e4ee5ec50da9eb9a01e4b530a0b84" target="_top" xlink:title="Ensure full visibility of the item.">
<polygon fill="none" stroke="black" points="146,-98.5 146,-128.5 285,-128.5 285,-98.5 146,-98.5"/>
<text text-anchor="start" x="154" y="-116.5" font-family="Helvetica,sans-Serif" font-size="10.00">Urho3D::ListView::Ensure</text>
<text text-anchor="middle" x="215.5" y="-105.5" font-family="Helvetica,sans-Serif" font-size="10.00">ItemVisibility</text>
</a>
</g>
</g>
<!-- Node1&#45;&gt;Node2 -->
<g id="edge1" class="edge">
<title>Node1&#45;&gt;Node2</title>
<path fill="none" stroke="midnightblue" d="M316.41,-82.61C299.56,-87.82 281.37,-93.45 265.19,-98.45"/>
<polygon fill="midnightblue" stroke="midnightblue" points="317.63,-85.9 326.15,-79.6 315.56,-79.21 317.63,-85.9"/>
</g>
<!-- Node3 -->
<g id="node3" class="node">
<title>Node3</title>
<g id="a_node3"><a xlink:href="class_urho3_d_1_1_scroll_view.html#a49653f90906d0db191f66fd21e8eeba8" target="_top" xlink:title="Set view offset from the top&#45;left corner.">
<polygon fill="none" stroke="black" points="160.5,-49.5 160.5,-79.5 270.5,-79.5 270.5,-49.5 160.5,-49.5"/>
<text text-anchor="start" x="168.5" y="-67.5" font-family="Helvetica,sans-Serif" font-size="10.00">Urho3D::ScrollView</text>
<text text-anchor="middle" x="215.5" y="-56.5" font-family="Helvetica,sans-Serif" font-size="10.00">::SetViewPosition</text>
</a>
</g>
</g>
<!-- Node1&#45;&gt;Node3 -->
<g id="edge2" class="edge">
<title>Node1&#45;&gt;Node3</title>
<path fill="none" stroke="midnightblue" d="M310.84,-64.5C297.5,-64.5 283.56,-64.5 270.63,-64.5"/>
<polygon fill="midnightblue" stroke="midnightblue" points="310.9,-68 320.9,-64.5 310.9,-61 310.9,-68"/>
</g>
<!-- Node4 -->
<g id="node4" class="node">
<title>Node4</title>
<g id="a_node4"><a xlink:href="class_urho3_d_1_1_scroll_view.html#a82b03f9b619aba315428e9bc373b327e" target="_top" xlink:title="Set view position attribute.">
<polygon fill="none" stroke="black" points="156,-0.5 156,-30.5 275,-30.5 275,-0.5 156,-0.5"/>
<text text-anchor="start" x="164" y="-18.5" font-family="Helvetica,sans-Serif" font-size="10.00">Urho3D::ScrollView</text>
<text text-anchor="middle" x="215.5" y="-7.5" font-family="Helvetica,sans-Serif" font-size="10.00">::SetViewPositionAttr</text>
</a>
</g>
</g>
<!-- Node1&#45;&gt;Node4 -->
<g id="edge3" class="edge">
<title>Node1&#45;&gt;Node4</title>
<path fill="none" stroke="midnightblue" d="M316.41,-46.39C299.56,-41.18 281.37,-35.55 265.19,-30.55"/>
<polygon fill="midnightblue" stroke="midnightblue" points="315.56,-49.79 326.15,-49.4 317.63,-43.1 315.56,-49.79"/>
</g>
<!-- Node5 -->
<g id="node5" class="node">
<title>Node5</title>
<g id="a_node5"><a xlink:href="class_urho3_d_1_1_scroll_view.html#a0b45bac39f4aed4ed9cc00e99198dea1" target="_top" xlink:title="Register object factory.">
<polygon fill="none" stroke="black" points="0,-0.5 0,-30.5 110,-30.5 110,-0.5 0,-0.5"/>
<text text-anchor="start" x="8" y="-18.5" font-family="Helvetica,sans-Serif" font-size="10.00">Urho3D::ScrollView</text>
<text text-anchor="middle" x="55" y="-7.5" font-family="Helvetica,sans-Serif" font-size="10.00">::RegisterObject</text>
</a>
</g>
</g>
<!-- Node4&#45;&gt;Node5 -->
<g id="edge4" class="edge">
<title>Node4&#45;&gt;Node5</title>
<path fill="none" stroke="midnightblue" d="M145.61,-15.5C133.73,-15.5 121.54,-15.5 110.13,-15.5"/>
<polygon fill="midnightblue" stroke="midnightblue" points="145.93,-19 155.93,-15.5 145.93,-12 145.93,-19"/>
</g>
</g>
</svg>
