<?xml version="1.0" encoding="UTF-8" standalone="no"?>
<!DOCTYPE svg PUBLIC "-//W3C//DTD SVG 1.1//EN"
 "http://www.w3.org/Graphics/SVG/1.1/DTD/svg11.dtd">
<!-- Generated by graphviz version 2.36.0 (20140111.2315)
 -->
<!-- Title: Urho3D::FileSystem::ScanDirInternal Pages: 1 -->
<!--zoomable 237 -->
<svg id="main" version="1.1" xmlns="http://www.w3.org/2000/svg" xmlns:xlink="http://www.w3.org/1999/xlink" xml:space="preserve" onload="init(evt)">
<style type="text/css"><![CDATA[
.edge:hover path { stroke: red; }
.edge:hover polygon { stroke: red; fill: red; }
]]></style>
<script type="text/javascript"><![CDATA[
var edges = document.getElementsByTagName('g');
if (edges && edges.length) {
  for (var i=0;i<edges.length;i++) {
    if (edges[i].id.substr(0,4)=='edge') {
      edges[i].setAttribute('class','edge');
    }
  }
}
]]></script>
        <defs>
                <circle id="rim" cx="0" cy="0" r="7"/>
                <circle id="rim2" cx="0" cy="0" r="3.5"/>
                <g id="zoomPlus">
                        <use xlink:href="#rim" fill="#404040">
                                <set attributeName="fill" to="#808080" begin="zoomplus.mouseover" end="zoomplus.mouseout"/>
                        </use>
                        <path d="M-4,0h8M0,-4v8" fill="none" stroke="white" stroke-width="1.5" pointer-events="none"/>
                </g>
                <g id="zoomMin">
                        <use xlink:href="#rim" fill="#404040">
                                <set attributeName="fill" to="#808080" begin="zoomminus.mouseover" end="zoomminus.mouseout"/>
                        </use>
                        <path d="M-4,0h8" fill="none" stroke="white" stroke-width="1.5" pointer-events="none"/>
                </g>
                <g id="dirArrow">
                        <path fill="none" stroke="white" stroke-width="1.5" d="M0,-3.0v7 M-2.5,-0.5L0,-3.0L2.5,-0.5"/>
                </g>
               <g id="resetDef">
                       <use xlink:href="#rim2" fill="#404040">
                               <set attributeName="fill" to="#808080" begin="reset.mouseover" end="reset.mouseout"/>
                       </use>
               </g>
        </defs>

<script type="text/javascript">
var viewWidth = 1014;
var viewHeight = 237;
var sectionId = 'dynsection-5';
</script>
<script xlink:href="svgpan.js"/>
<svg id="graph" class="graph">
<g id="viewport">
<title>Urho3D::FileSystem::ScanDirInternal</title>
<!-- Node1 -->
<g id="node1" class="node"><title>Node1</title>
<polygon fill="#bfbfbf" stroke="black" points="0,-44 0,-74 106,-74 106,-44 0,-44"/>
<text text-anchor="start" x="8" y="-62" font-family="Helvetica,sans-Serif" font-size="10.00">Urho3D::FileSystem</text>
<text text-anchor="middle" x="53" y="-51" font-family="Helvetica,sans-Serif" font-size="10.00">::ScanDirInternal</text>
</g>
<!-- Node2 -->
<g id="node2" class="node"><title>Node2</title>
<g id="a_node2"><a xlink:href="class_urho3_d_1_1_file_system.html#a7cfc8edbdae22a13ba0f720fe008d8fa" target="_top" xlink:title="Scan a directory for specified files. ">
<polygon fill="none" stroke="black" points="142,-44 142,-74 248,-74 248,-44 142,-44"/>
<text text-anchor="start" x="150" y="-62" font-family="Helvetica,sans-Serif" font-size="10.00">Urho3D::FileSystem</text>
<text text-anchor="middle" x="195" y="-51" font-family="Helvetica,sans-Serif" font-size="10.00">::ScanDir</text>
</a>
</g>
</g>
<!-- Node1&#45;&gt;Node2 -->
<g id="edge1" class="edge"><title>Node1&#45;&gt;Node2</title>
<path fill="none" stroke="midnightblue" d="M116.387,-59C124.885,-59 133.534,-59 141.826,-59"/>
<polygon fill="midnightblue" stroke="midnightblue" points="116.131,-55.5001 106.131,-59 116.131,-62.5001 116.131,-55.5001"/>
</g>
<!-- Node3 -->
<g id="node3" class="node"><title>Node3</title>
<g id="a_node3"><a xlink:href="class_urho3_d_1_1_file_selector.html#a8ec8d229ef0e2a4836634e01e96803a7" target="_top" xlink:title="Refresh the directory listing. ">
<polygon fill="none" stroke="black" points="284,-44 284,-74 392,-74 392,-44 284,-44"/>
<text text-anchor="start" x="292" y="-62" font-family="Helvetica,sans-Serif" font-size="10.00">Urho3D::FileSelector</text>
<text text-anchor="middle" x="338" y="-51" font-family="Helvetica,sans-Serif" font-size="10.00">::RefreshFiles</text>
</a>
</g>
</g>
<!-- Node2&#45;&gt;Node3 -->
<g id="edge2" class="edge"><title>Node2&#45;&gt;Node3</title>
<path fill="none" stroke="midnightblue" d="M258.317,-59C266.783,-59 275.409,-59 283.697,-59"/>
<polygon fill="midnightblue" stroke="midnightblue" points="258.103,-55.5001 248.103,-59 258.103,-62.5001 258.103,-55.5001"/>
</g>
<!-- Node4 -->
<g id="node4" class="node"><title>Node4</title>
<g id="a_node4"><a xlink:href="class_urho3_d_1_1_file_selector.html#a70224d0b3a485fd4aab57cc6b9af1c6f" target="_top" xlink:title="Set current path. ">
<polygon fill="none" stroke="black" points="431,-117 431,-147 539,-147 539,-117 431,-117"/>
<text text-anchor="start" x="439" y="-135" font-family="Helvetica,sans-Serif" font-size="10.00">Urho3D::FileSelector</text>
<text text-anchor="middle" x="485" y="-124" font-family="Helvetica,sans-Serif" font-size="10.00">::SetPath</text>
</a>
</g>
</g>
<!-- Node3&#45;&gt;Node4 -->
<g id="edge3" class="edge"><title>Node3&#45;&gt;Node4</title>
<path fill="none" stroke="midnightblue" d="M378.184,-78.7273C402.036,-90.7352 432.034,-105.838 453.994,-116.894"/>
<polygon fill="midnightblue" stroke="midnightblue" points="379.55,-75.4963 369.044,-74.1256 376.402,-81.7486 379.55,-75.4963"/>
</g>
<!-- Node10 -->
<g id="node10" class="node"><title>Node10</title>
<g id="a_node10"><a xlink:href="class_urho3_d_1_1_file_selector.html#a8f0352bf675048a625d1b8e5ae2ce8ea" target="_top" xlink:title="Set filters. ">
<polygon fill="none" stroke="black" points="581,-44 581,-74 689,-74 689,-44 581,-44"/>
<text text-anchor="start" x="589" y="-62" font-family="Helvetica,sans-Serif" font-size="10.00">Urho3D::FileSelector</text>
<text text-anchor="middle" x="635" y="-51" font-family="Helvetica,sans-Serif" font-size="10.00">::SetFilters</text>
</a>
</g>
</g>
<!-- Node3&#45;&gt;Node10 -->
<g id="edge12" class="edge"><title>Node3&#45;&gt;Node10</title>
<path fill="none" stroke="midnightblue" d="M402.084,-59C455.31,-59 530.645,-59 580.849,-59"/>
<polygon fill="midnightblue" stroke="midnightblue" points="402.081,-55.5001 392.081,-59 402.081,-62.5001 402.081,-55.5001"/>
</g>
<!-- Node11 -->
<g id="node11" class="node"><title>Node11</title>
<g id="a_node11"><a xlink:href="class_urho3_d_1_1_file_selector.html#a372b507fb35782c00d99ded29d4610f0" target="_top" xlink:title="Handle filter changed. ">
<polygon fill="none" stroke="black" points="428,-0 428,-30 542,-30 542,-0 428,-0"/>
<text text-anchor="start" x="436" y="-18" font-family="Helvetica,sans-Serif" font-size="10.00">Urho3D::FileSelector</text>
<text text-anchor="middle" x="485" y="-7" font-family="Helvetica,sans-Serif" font-size="10.00">::HandleFilterChanged</text>
</a>
</g>
</g>
<!-- Node3&#45;&gt;Node11 -->
<g id="edge14" class="edge"><title>Node3&#45;&gt;Node11</title>
<path fill="none" stroke="midnightblue" d="M398.361,-40.9871C410.278,-37.3708 422.685,-33.6059 434.236,-30.1009"/>
<polygon fill="midnightblue" stroke="midnightblue" points="397.048,-37.7278 388.495,-43.9808 399.081,-44.4262 397.048,-37.7278"/>
</g>
<!-- Node5 -->
<g id="node5" class="node"><title>Node5</title>
<g id="a_node5"><a xlink:href="class_urho3_d_1_1_file_selector.html#ae0e66de218b839be46c7f802abf04c80" target="_top" xlink:title="Construct. ">
<polygon fill="none" stroke="black" points="898,-101 898,-131 1006,-131 1006,-101 898,-101"/>
<text text-anchor="start" x="906" y="-119" font-family="Helvetica,sans-Serif" font-size="10.00">Urho3D::FileSelector</text>
<text text-anchor="middle" x="952" y="-108" font-family="Helvetica,sans-Serif" font-size="10.00">::FileSelector</text>
</a>
</g>
</g>
<!-- Node4&#45;&gt;Node5 -->
<g id="edge4" class="edge"><title>Node4&#45;&gt;Node5</title>
<path fill="none" stroke="midnightblue" d="M519.714,-152.225C587.227,-189.937 742.758,-262.684 862,-211 899.74,-194.642 928.802,-153.527 942.45,-131.124"/>
<polygon fill="midnightblue" stroke="midnightblue" points="521.208,-149.049 510.785,-147.153 517.751,-155.135 521.208,-149.049"/>
</g>
<!-- Node6 -->
<g id="node6" class="node"><title>Node6</title>
<g id="a_node6"><a xlink:href="class_urho3_d_1_1_file_selector.html#ac7c4c01759f09d23dd856c71a2cc1655" target="_top" xlink:title="Enter a directory or confirm a file. Return true if a directory entered. ">
<polygon fill="none" stroke="black" points="581,-142 581,-172 689,-172 689,-142 581,-142"/>
<text text-anchor="start" x="589" y="-160" font-family="Helvetica,sans-Serif" font-size="10.00">Urho3D::FileSelector</text>
<text text-anchor="middle" x="635" y="-149" font-family="Helvetica,sans-Serif" font-size="10.00">::EnterFile</text>
</a>
</g>
</g>
<!-- Node4&#45;&gt;Node6 -->
<g id="edge5" class="edge"><title>Node4&#45;&gt;Node6</title>
<path fill="none" stroke="midnightblue" d="M549.049,-142.65C559.644,-144.44 570.546,-146.281 580.859,-148.024"/>
<polygon fill="midnightblue" stroke="midnightblue" points="549.457,-139.17 539.013,-140.955 548.291,-146.072 549.457,-139.17"/>
</g>
<!-- Node9 -->
<g id="node9" class="node"><title>Node9</title>
<g id="a_node9"><a xlink:href="class_urho3_d_1_1_file_selector.html#ac07a78273e7db4a6d4ab33d807c072f7" target="_top" xlink:title="Handle path edited. ">
<polygon fill="none" stroke="black" points="578.5,-93 578.5,-123 691.5,-123 691.5,-93 578.5,-93"/>
<text text-anchor="start" x="586.5" y="-111" font-family="Helvetica,sans-Serif" font-size="10.00">Urho3D::FileSelector</text>
<text text-anchor="middle" x="635" y="-100" font-family="Helvetica,sans-Serif" font-size="10.00">::HandlePathChanged</text>
</a>
</g>
</g>
<!-- Node4&#45;&gt;Node9 -->
<g id="edge10" class="edge"><title>Node4&#45;&gt;Node9</title>
<path fill="none" stroke="midnightblue" d="M549.045,-121.777C558.789,-120.196 568.792,-118.574 578.359,-117.023"/>
<polygon fill="midnightblue" stroke="midnightblue" points="548.324,-118.348 539.013,-123.403 549.445,-125.257 548.324,-118.348"/>
</g>
<!-- Node7 -->
<g id="node7" class="node"><title>Node7</title>
<g id="a_node7"><a xlink:href="class_urho3_d_1_1_file_selector.html#a004ed41fadc3029706a35857268bfdaf" target="_top" xlink:title="Handle file doubleclicked from the list (enter directory / OK the file selection.) ...">
<polygon fill="none" stroke="black" points="728.5,-172 728.5,-202 861.5,-202 861.5,-172 728.5,-172"/>
<text text-anchor="start" x="736.5" y="-190" font-family="Helvetica,sans-Serif" font-size="10.00">Urho3D::FileSelector</text>
<text text-anchor="middle" x="795" y="-179" font-family="Helvetica,sans-Serif" font-size="10.00">::HandleFileDoubleClicked</text>
</a>
</g>
</g>
<!-- Node6&#45;&gt;Node7 -->
<g id="edge6" class="edge"><title>Node6&#45;&gt;Node7</title>
<path fill="none" stroke="midnightblue" d="M699.001,-168.962C708.69,-170.802 718.714,-172.705 728.457,-174.555"/>
<polygon fill="midnightblue" stroke="midnightblue" points="699.529,-165.5 689.051,-167.073 698.223,-172.377 699.529,-165.5"/>
</g>
<!-- Node8 -->
<g id="node8" class="node"><title>Node8</title>
<g id="a_node8"><a xlink:href="class_urho3_d_1_1_file_selector.html#a5315d211e3108ad4012c648d1cbd3b6a" target="_top" xlink:title="Handle file list key pressed. ">
<polygon fill="none" stroke="black" points="741,-123 741,-153 849,-153 849,-123 741,-123"/>
<text text-anchor="start" x="749" y="-141" font-family="Helvetica,sans-Serif" font-size="10.00">Urho3D::FileSelector</text>
<text text-anchor="middle" x="795" y="-130" font-family="Helvetica,sans-Serif" font-size="10.00">::HandleFileListKey</text>
</a>
</g>
</g>
<!-- Node6&#45;&gt;Node8 -->
<g id="edge8" class="edge"><title>Node6&#45;&gt;Node8</title>
<path fill="none" stroke="midnightblue" d="M698.994,-149.425C712.852,-147.758 727.395,-146.01 740.82,-144.395"/>
<polygon fill="midnightblue" stroke="midnightblue" points="698.562,-145.951 689.051,-150.62 699.398,-152.901 698.562,-145.951"/>
</g>
<!-- Node7&#45;&gt;Node5 -->
<g id="edge7" class="edge"><title>Node7&#45;&gt;Node5</title>
<path fill="none" stroke="midnightblue" d="M847.384,-168.199C852.355,-166.182 857.295,-164.099 862,-162 883.127,-152.577 906.324,-140.529 923.737,-131.127"/>
<polygon fill="midnightblue" stroke="midnightblue" points="845.847,-165.044 837.841,-171.983 848.427,-171.551 845.847,-165.044"/>
</g>
<!-- Node8&#45;&gt;Node5 -->
<g id="edge9" class="edge"><title>Node8&#45;&gt;Node5</title>
<path fill="none" stroke="midnightblue" d="M859.43,-128.997C872.183,-127.187 885.462,-125.302 897.822,-123.548"/>
<polygon fill="midnightblue" stroke="midnightblue" points="858.751,-125.558 849.342,-130.429 859.735,-132.489 858.751,-125.558"/>
</g>
<!-- Node9&#45;&gt;Node5 -->
<g id="edge11" class="edge"><title>Node9&#45;&gt;Node5</title>
<path fill="none" stroke="midnightblue" d="M701.961,-109.258C747.038,-110.167 808.135,-111.496 862,-113 873.591,-113.324 886.029,-113.715 897.823,-114.107"/>
<polygon fill="midnightblue" stroke="midnightblue" points="701.798,-105.754 691.73,-109.053 701.658,-112.753 701.798,-105.754"/>
</g>
<!-- Node10&#45;&gt;Node5 -->
<g id="edge13" class="edge"><title>Node10&#45;&gt;Node5</title>
<path fill="none" stroke="midnightblue" d="M699.276,-70.4499C757.589,-81.0018 843.151,-96.4845 897.966,-106.403"/>
<polygon fill="midnightblue" stroke="midnightblue" points="699.543,-66.9414 689.079,-68.6048 698.296,-73.8296 699.543,-66.9414"/>
</g>
<!-- Node11&#45;&gt;Node5 -->
<g id="edge15" class="edge"><title>Node11&#45;&gt;Node5</title>
<path fill="none" stroke="midnightblue" d="M552.052,-17.5032C628.598,-22.0987 757.587,-35.1206 862,-72 883.941,-79.7497 907.491,-91.5619 924.852,-100.997"/>
<polygon fill="midnightblue" stroke="midnightblue" points="552.248,-14.0088 542.065,-16.9338 551.85,-20.9975 552.248,-14.0088"/>
</g>
</g>
</svg>
        <g id="navigator" transform="translate(0 0)" fill="#404254">
                <rect fill="#f2f5e9" fill-opacity="0.5" stroke="#606060" stroke-width=".5" x="0" y="0" width="60" height="60"/>
                <use id="zoomplus" xlink:href="#zoomPlus" x="17" y="9" onmousedown="handleZoom(evt,'in')"/>
                <use id="zoomminus" xlink:href="#zoomMin" x="42" y="9" onmousedown="handleZoom(evt,'out')"/>
                <use id="reset" xlink:href="#resetDef" x="30" y="36" onmousedown="handleReset()"/>
                <g id="arrowUp" xlink:href="#dirArrow" transform="translate(30 24)" onmousedown="handlePan(0,-1)">
                  <use xlink:href="#rim" fill="#404040">
                        <set attributeName="fill" to="#808080" begin="arrowUp.mouseover" end="arrowUp.mouseout"/>
                  </use>
                  <path fill="none" stroke="white" stroke-width="1.5" d="M0,-3.0v7 M-2.5,-0.5L0,-3.0L2.5,-0.5"/>
                </g>
                <g id="arrowRight" xlink:href="#dirArrow" transform="rotate(90) translate(36 -43)" onmousedown="handlePan(1,0)">
                  <use xlink:href="#rim" fill="#404040">
                        <set attributeName="fill" to="#808080" begin="arrowRight.mouseover" end="arrowRight.mouseout"/>
                  </use>
                  <path fill="none" stroke="white" stroke-width="1.5" d="M0,-3.0v7 M-2.5,-0.5L0,-3.0L2.5,-0.5"/>
                </g>
                <g id="arrowDown" xlink:href="#dirArrow" transform="rotate(180) translate(-30 -48)" onmousedown="handlePan(0,1)">
                  <use xlink:href="#rim" fill="#404040">
                        <set attributeName="fill" to="#808080" begin="arrowDown.mouseover" end="arrowDown.mouseout"/>
                  </use>
                  <path fill="none" stroke="white" stroke-width="1.5" d="M0,-3.0v7 M-2.5,-0.5L0,-3.0L2.5,-0.5"/>
                </g>
                <g id="arrowLeft" xlink:href="#dirArrow" transform="rotate(270) translate(-36 17)" onmousedown="handlePan(-1,0)">
                  <use xlink:href="#rim" fill="#404040">
                        <set attributeName="fill" to="#808080" begin="arrowLeft.mouseover" end="arrowLeft.mouseout"/>
                  </use>
                  <path fill="none" stroke="white" stroke-width="1.5" d="M0,-3.0v7 M-2.5,-0.5L0,-3.0L2.5,-0.5"/>
                </g>
        </g>
        <svg viewBox="0 0 15 15" width="100%" height="30px" preserveAspectRatio="xMaxYMin meet">
         <g id="arrow_out" transform="scale(0.3 0.3)">
          <a xlink:href="class_urho3_d_1_1_file_system_a59227c0c4b9e7cd81ad0eabb203ea949_icgraph_org.svg" target="_base">
           <rect id="button" ry="5" rx="5" y="6" x="6" height="38" width="38"
                fill="#f2f5e9" fill-opacity="0.5" stroke="#606060" stroke-width="1.0"/>
           <path id="arrow"
             d="M 11.500037,31.436501 C 11.940474,20.09759 22.043105,11.32322 32.158766,21.979434 L 37.068811,17.246167 C 37.068811,17.246167 37.088388,32 37.088388,32 L 22.160133,31.978069 C 22.160133,31.978069 26.997745,27.140456 26.997745,27.140456 C 18.528582,18.264221 13.291696,25.230495 11.500037,31.436501 z"
             style="fill:#404040;"/>
          </a>
         </g>
        </svg>
</svg>
