<?xml version="1.0" encoding="UTF-8" standalone="no"?>
<!DOCTYPE svg PUBLIC "-//W3C//DTD SVG 1.1//EN"
 "http://www.w3.org/Graphics/SVG/1.1/DTD/svg11.dtd">
<!-- Generated by graphviz version 2.36.0 (20140111.2315)
 -->
<!-- Title: Urho3D::HttpRequest::ThreadFunction Pages: 1 -->
<svg width="668pt" height="408pt"
 viewBox="0.00 0.00 668.00 408.00" xmlns="http://www.w3.org/2000/svg" xmlns:xlink="http://www.w3.org/1999/xlink">
<g id="graph0" class="graph" transform="scale(1 1) rotate(0) translate(4 404)">
<title>Urho3D::HttpRequest::ThreadFunction</title>
<!-- Node1 -->
<g id="node1" class="node"><title>Node1</title>
<polygon fill="#bfbfbf" stroke="black" points="0.5,-185 0.5,-215 119.5,-215 119.5,-185 0.5,-185"/>
<text text-anchor="start" x="8.5" y="-203" font-family="FreeSans" font-size="10.00">Urho3D::HttpRequest</text>
<text text-anchor="middle" x="60" y="-192" font-family="FreeSans" font-size="10.00">::ThreadFunction</text>
</g>
<!-- Node2 -->
<g id="node2" class="node"><title>Node2</title>
<g id="a_node2"><a xlink:href="class_urho3_d_1_1_string.html#a7cb1eb905c5e4b88d8d281455d8d0caf" target="_top" xlink:title="Return index to the first occurrence of a string, or NPOS if not found. ">
<polygon fill="none" stroke="black" points="177.5,-380.5 177.5,-399.5 290.5,-399.5 290.5,-380.5 177.5,-380.5"/>
<text text-anchor="middle" x="234" y="-387.5" font-family="FreeSans" font-size="10.00">Urho3D::String::Find</text>
</a>
</g>
</g>
<!-- Node1&#45;&gt;Node2 -->
<g id="edge1" class="edge"><title>Node1&#45;&gt;Node2</title>
<path fill="none" stroke="midnightblue" d="M64.9032,-215.045C74.4107,-248.58 102.044,-329.742 156,-371 159.668,-373.804 163.695,-376.2 167.926,-378.246"/>
<polygon fill="midnightblue" stroke="midnightblue" points="166.873,-381.598 177.451,-382.189 169.551,-375.13 166.873,-381.598"/>
</g>
<!-- Node3 -->
<g id="node3" class="node"><title>Node3</title>
<g id="a_node3"><a xlink:href="class_urho3_d_1_1_string.html#ade8095f1798d6e1d4ed03d43d9919611" target="_top" xlink:title="Return a substring from position to end. ">
<polygon fill="none" stroke="black" points="164,-342.5 164,-361.5 304,-361.5 304,-342.5 164,-342.5"/>
<text text-anchor="middle" x="234" y="-349.5" font-family="FreeSans" font-size="10.00">Urho3D::String::Substring</text>
</a>
</g>
</g>
<!-- Node1&#45;&gt;Node3 -->
<g id="edge2" class="edge"><title>Node1&#45;&gt;Node3</title>
<path fill="none" stroke="midnightblue" d="M67.3911,-215.045C80.022,-242.891 110.919,-302.407 156,-333 158.937,-334.993 162.064,-336.778 165.312,-338.375"/>
<polygon fill="midnightblue" stroke="midnightblue" points="164.16,-341.689 174.731,-342.401 166.911,-335.252 164.16,-341.689"/>
</g>
<!-- Node7 -->
<g id="node7" class="node"><title>Node7</title>
<g id="a_node7"><a xlink:href="class_urho3_d_1_1_vector.html#a06762e9e70b9851f54a845555f28cd4b" target="_top" xlink:title="Return size of vector. ">
<polygon fill="none" stroke="black" points="176,-304.5 176,-323.5 292,-323.5 292,-304.5 176,-304.5"/>
<text text-anchor="middle" x="234" y="-311.5" font-family="FreeSans" font-size="10.00">Urho3D::Vector::Size</text>
</a>
</g>
</g>
<!-- Node1&#45;&gt;Node7 -->
<g id="edge7" class="edge"><title>Node1&#45;&gt;Node7</title>
<path fill="none" stroke="midnightblue" d="M71.7443,-215.046C87.679,-236.213 119.637,-274.485 156,-295 159.952,-297.229 164.162,-299.2 168.499,-300.941"/>
<polygon fill="midnightblue" stroke="midnightblue" points="167.549,-304.318 178.143,-304.397 169.911,-297.729 167.549,-304.318"/>
</g>
<!-- Node8 -->
<g id="node8" class="node"><title>Node8</title>
<g id="a_node8"><a xlink:href="class_urho3_d_1_1_string.html#a11572e3c07f60de65ac5d0c1ca5b6ba3" target="_top" xlink:title="Return length. ">
<polygon fill="none" stroke="black" points="170.5,-266.5 170.5,-285.5 297.5,-285.5 297.5,-266.5 170.5,-266.5"/>
<text text-anchor="middle" x="234" y="-273.5" font-family="FreeSans" font-size="10.00">Urho3D::String::Length</text>
</a>
</g>
</g>
<!-- Node1&#45;&gt;Node8 -->
<g id="edge8" class="edge"><title>Node1&#45;&gt;Node8</title>
<path fill="none" stroke="midnightblue" d="M81.9155,-215.059C100.549,-227.849 128.973,-245.853 156,-257 161.931,-259.446 168.254,-261.631 174.629,-263.569"/>
<polygon fill="midnightblue" stroke="midnightblue" points="174.066,-267.048 184.642,-266.413 175.979,-260.314 174.066,-267.048"/>
</g>
<!-- Node9 -->
<g id="node9" class="node"><title>Node9</title>
<g id="a_node9"><a xlink:href="class_urho3_d_1_1_string.html#a69ac7aadaa628fc05fc96abde992fcdc" target="_top" xlink:title="Return whether the string is empty. ">
<polygon fill="none" stroke="black" points="171.5,-228.5 171.5,-247.5 296.5,-247.5 296.5,-228.5 171.5,-228.5"/>
<text text-anchor="middle" x="234" y="-235.5" font-family="FreeSans" font-size="10.00">Urho3D::String::Empty</text>
</a>
</g>
</g>
<!-- Node1&#45;&gt;Node9 -->
<g id="edge9" class="edge"><title>Node1&#45;&gt;Node9</title>
<path fill="none" stroke="midnightblue" d="M119.712,-212.971C139.18,-217.272 160.73,-222.033 179.762,-226.238"/>
<polygon fill="midnightblue" stroke="midnightblue" points="179.234,-229.706 189.753,-228.445 180.744,-222.871 179.234,-229.706"/>
</g>
<!-- Node10 -->
<g id="node10" class="node"><title>Node10</title>
<g id="a_node10"><a xlink:href="class_urho3_d_1_1_string.html#a6b405eba451da6c0f216a8649adf79aa" target="_top" xlink:title="Return the C string. ">
<polygon fill="none" stroke="black" points="348.5,-171.5 348.5,-190.5 477.5,-190.5 477.5,-171.5 348.5,-171.5"/>
<text text-anchor="middle" x="413" y="-178.5" font-family="FreeSans" font-size="10.00">Urho3D::String::CString</text>
</a>
</g>
</g>
<!-- Node1&#45;&gt;Node10 -->
<g id="edge10" class="edge"><title>Node1&#45;&gt;Node10</title>
<path fill="none" stroke="midnightblue" d="M119.75,-196.82C179.77,-193.571 273.132,-188.517 338.125,-184.999"/>
<polygon fill="midnightblue" stroke="midnightblue" points="338.507,-188.483 348.303,-184.448 338.128,-181.494 338.507,-188.483"/>
</g>
<!-- Node11 -->
<g id="node11" class="node"><title>Node11</title>
<g id="a_node11"><a xlink:href="class_urho3_d_1_1_string.html#a30d9382c1a0c355253038fb976bbaba5" target="_top" xlink:title="Return comparison result with a string. ">
<polygon fill="none" stroke="black" points="165,-152.5 165,-171.5 303,-171.5 303,-152.5 165,-152.5"/>
<text text-anchor="middle" x="234" y="-159.5" font-family="FreeSans" font-size="10.00">Urho3D::String::Compare</text>
</a>
</g>
</g>
<!-- Node1&#45;&gt;Node11 -->
<g id="edge11" class="edge"><title>Node1&#45;&gt;Node11</title>
<path fill="none" stroke="midnightblue" d="M119.712,-187.029C139.18,-182.728 160.73,-177.967 179.762,-173.762"/>
<polygon fill="midnightblue" stroke="midnightblue" points="180.744,-177.129 189.753,-171.555 179.234,-170.294 180.744,-177.129"/>
</g>
<!-- Node12 -->
<g id="node12" class="node"><title>Node12</title>
<g id="a_node12"><a xlink:href="class_urho3_d_1_1_shared_array_ptr.html#ac0a9f7d0728fa3ba9be5889f44f7ac46" target="_top" xlink:title="Return the raw pointer. ">
<polygon fill="none" stroke="black" points="156,-114.5 156,-133.5 312,-133.5 312,-114.5 156,-114.5"/>
<text text-anchor="middle" x="234" y="-121.5" font-family="FreeSans" font-size="10.00">Urho3D::SharedArrayPtr::Get</text>
</a>
</g>
</g>
<!-- Node1&#45;&gt;Node12 -->
<g id="edge13" class="edge"><title>Node1&#45;&gt;Node12</title>
<path fill="none" stroke="midnightblue" d="M81.9155,-184.941C100.549,-172.151 128.973,-154.147 156,-143 161.931,-140.554 168.254,-138.369 174.629,-136.431"/>
<polygon fill="midnightblue" stroke="midnightblue" points="175.979,-139.686 184.642,-133.587 174.066,-132.952 175.979,-139.686"/>
</g>
<!-- Node13 -->
<g id="node13" class="node"><title>Node13</title>
<g id="a_node13"><a xlink:href="class_urho3_d_1_1_mutex.html#af074ebf663200871fcff04759948f69d" target="_top" xlink:title="Acquire the mutex. Block if already acquired. ">
<polygon fill="none" stroke="black" points="168.5,-76.5 168.5,-95.5 299.5,-95.5 299.5,-76.5 168.5,-76.5"/>
<text text-anchor="middle" x="234" y="-83.5" font-family="FreeSans" font-size="10.00">Urho3D::Mutex::Acquire</text>
</a>
</g>
</g>
<!-- Node1&#45;&gt;Node13 -->
<g id="edge14" class="edge"><title>Node1&#45;&gt;Node13</title>
<path fill="none" stroke="midnightblue" d="M71.7443,-184.954C87.679,-163.787 119.637,-125.515 156,-105 159.952,-102.771 164.162,-100.8 168.499,-99.0592"/>
<polygon fill="midnightblue" stroke="midnightblue" points="169.911,-102.271 178.143,-95.6028 167.549,-95.6817 169.911,-102.271"/>
</g>
<!-- Node14 -->
<g id="node14" class="node"><title>Node14</title>
<g id="a_node14"><a xlink:href="class_urho3_d_1_1_mutex.html#a152ccfbd074546b9aab23c0ad6ba254e" target="_top" xlink:title="Release the mutex. ">
<polygon fill="none" stroke="black" points="168.5,-38.5 168.5,-57.5 299.5,-57.5 299.5,-38.5 168.5,-38.5"/>
<text text-anchor="middle" x="234" y="-45.5" font-family="FreeSans" font-size="10.00">Urho3D::Mutex::Release</text>
</a>
</g>
</g>
<!-- Node1&#45;&gt;Node14 -->
<g id="edge15" class="edge"><title>Node1&#45;&gt;Node14</title>
<path fill="none" stroke="midnightblue" d="M67.3911,-184.955C80.022,-157.109 110.919,-97.5929 156,-67 158.937,-65.0067 162.064,-63.2221 165.312,-61.6245"/>
<polygon fill="midnightblue" stroke="midnightblue" points="166.911,-64.7475 174.731,-57.5991 164.16,-58.3108 166.911,-64.7475"/>
</g>
<!-- Node15 -->
<g id="node15" class="node"><title>Node15</title>
<g id="a_node15"><a xlink:href="class_urho3_d_1_1_time.html#af23f046cbb890e86fcfc9ee1e63f6935" target="_top" xlink:title="Sleep for a number of milliseconds. ">
<polygon fill="none" stroke="black" points="176,-0.5 176,-19.5 292,-19.5 292,-0.5 176,-0.5"/>
<text text-anchor="middle" x="234" y="-7.5" font-family="FreeSans" font-size="10.00">Urho3D::Time::Sleep</text>
</a>
</g>
</g>
<!-- Node1&#45;&gt;Node15 -->
<g id="edge16" class="edge"><title>Node1&#45;&gt;Node15</title>
<path fill="none" stroke="midnightblue" d="M64.9032,-184.955C74.4107,-151.42 102.044,-70.2575 156,-29 159.23,-26.5301 162.74,-24.3773 166.421,-22.5011"/>
<polygon fill="midnightblue" stroke="midnightblue" points="168.097,-25.5888 175.865,-18.3846 165.3,-19.1719 168.097,-25.5888"/>
</g>
<!-- Node4 -->
<g id="node4" class="node"><title>Node4</title>
<g id="a_node4"><a xlink:href="class_urho3_d_1_1_string.html#aed2d8d23da6f2403c7aaa20082036f88" target="_top" xlink:title="Resize the string. ">
<polygon fill="none" stroke="black" points="351,-380.5 351,-399.5 475,-399.5 475,-380.5 351,-380.5"/>
<text text-anchor="middle" x="413" y="-387.5" font-family="FreeSans" font-size="10.00">Urho3D::String::Resize</text>
</a>
</g>
</g>
<!-- Node3&#45;&gt;Node4 -->
<g id="edge3" class="edge"><title>Node3&#45;&gt;Node4</title>
<path fill="none" stroke="midnightblue" d="M279.665,-361.589C303.337,-366.671 332.608,-372.955 357.597,-378.32"/>
<polygon fill="midnightblue" stroke="midnightblue" points="357.145,-381.803 367.657,-380.48 358.614,-374.959 357.145,-381.803"/>
</g>
<!-- Node5 -->
<g id="node5" class="node"><title>Node5</title>
<g id="a_node5"><a xlink:href="class_urho3_d_1_1_string.html#a953822d6a39e507861ee02a24bb7996e" target="_top" xlink:title="Copy chars from one buffer to another. ">
<polygon fill="none" stroke="black" points="514,-361.5 514,-380.5 660,-380.5 660,-361.5 514,-361.5"/>
<text text-anchor="middle" x="587" y="-368.5" font-family="FreeSans" font-size="10.00">Urho3D::String::CopyChars</text>
</a>
</g>
</g>
<!-- Node3&#45;&gt;Node5 -->
<g id="edge5" class="edge"><title>Node3&#45;&gt;Node5</title>
<path fill="none" stroke="midnightblue" d="M304.346,-355.754C361.572,-358.851 442.918,-363.255 503.487,-366.533"/>
<polygon fill="midnightblue" stroke="midnightblue" points="503.607,-370.045 513.781,-367.091 503.985,-363.055 503.607,-370.045"/>
</g>
<!-- Node6 -->
<g id="node6" class="node"><title>Node6</title>
<g id="a_node6"><a xlink:href="class_urho3_d_1_1_string.html#a6cbd21dcf8801df80b76acebc4dbbdd3" target="_top" xlink:title="Construct empty. ">
<polygon fill="none" stroke="black" points="352,-304.5 352,-323.5 474,-323.5 474,-304.5 352,-304.5"/>
<text text-anchor="middle" x="413" y="-311.5" font-family="FreeSans" font-size="10.00">Urho3D::String::String</text>
</a>
</g>
</g>
<!-- Node3&#45;&gt;Node6 -->
<g id="edge6" class="edge"><title>Node3&#45;&gt;Node6</title>
<path fill="none" stroke="midnightblue" d="M279.665,-342.411C303.337,-337.329 332.608,-331.045 357.597,-325.68"/>
<polygon fill="midnightblue" stroke="midnightblue" points="358.614,-329.041 367.657,-323.52 357.145,-322.197 358.614,-329.041"/>
</g>
<!-- Node4&#45;&gt;Node5 -->
<g id="edge4" class="edge"><title>Node4&#45;&gt;Node5</title>
<path fill="none" stroke="midnightblue" d="M475.125,-383.248C484.441,-382.219 494.184,-381.142 503.861,-380.073"/>
<polygon fill="midnightblue" stroke="midnightblue" points="504.346,-383.541 513.901,-378.964 503.578,-376.584 504.346,-383.541"/>
</g>
<!-- Node11&#45;&gt;Node10 -->
<g id="edge12" class="edge"><title>Node11&#45;&gt;Node10</title>
<path fill="none" stroke="midnightblue" d="M303.18,-169.319C314.629,-170.548 326.557,-171.828 338.141,-173.072"/>
<polygon fill="midnightblue" stroke="midnightblue" points="337.896,-176.565 348.212,-174.153 338.643,-169.605 337.896,-176.565"/>
</g>
</g>
</svg>
