<?xml version="1.0" encoding="UTF-8" standalone="no"?>
<!DOCTYPE svg PUBLIC "-//W3C//DTD SVG 1.1//EN"
 "http://www.w3.org/Graphics/SVG/1.1/DTD/svg11.dtd">
<!-- Generated by graphviz version 2.43.0 (0)
 -->
<!-- Title: Urho3D::Camera::SetOrthographic Pages: 1 -->
<svg width="391pt" height="88pt"
 viewBox="0.00 0.00 391.00 88.00" xmlns="http://www.w3.org/2000/svg" xmlns:xlink="http://www.w3.org/1999/xlink">
<g id="graph0" class="graph" transform="scale(1 1) rotate(0) translate(4 84)">
<title>Urho3D::Camera::SetOrthographic</title>
<!-- Node1 -->
<g id="node1" class="node">
<title>Node1</title>
<g id="a_node1"><a xlink:title=" ">
<polygon fill="#bfbfbf" stroke="black" points="201,-30 201,-49 383,-49 383,-30 201,-30"/>
<text text-anchor="middle" x="292" y="-37" font-family="Helvetica,sans-Serif" font-size="10.00">Urho3D::Camera::SetOrthographic</text>
</a>
</g>
</g>
<!-- Node2 -->
<g id="node2" class="node">
<title>Node2</title>
<g id="a_node2"><a xlink:href="class_urho3_d_1_1_renderer.html#a5c0831e08bf00013bbc106da1dd6a8c5" target="_top" xlink:title="Allocate a temporary shadow camera and a scene node for it. Is thread&#45;safe.">
<polygon fill="none" stroke="black" points="0,-49.5 0,-79.5 165,-79.5 165,-49.5 0,-49.5"/>
<text text-anchor="start" x="8" y="-67.5" font-family="Helvetica,sans-Serif" font-size="10.00">Urho3D::Renderer::GetShadow</text>
<text text-anchor="middle" x="82.5" y="-56.5" font-family="Helvetica,sans-Serif" font-size="10.00">Camera</text>
</a>
</g>
</g>
<!-- Node1&#45;&gt;Node2 -->
<g id="edge1" class="edge">
<title>Node1&#45;&gt;Node2</title>
<path fill="none" stroke="midnightblue" d="M201.79,-50.25C189.6,-51.72 177.13,-53.22 165.07,-54.67"/>
<polygon fill="midnightblue" stroke="midnightblue" points="202.45,-53.69 211.96,-49.02 201.61,-46.74 202.45,-53.69"/>
</g>
<!-- Node3 -->
<g id="node3" class="node">
<title>Node3</title>
<g id="a_node3"><a xlink:href="class_urho3_d_1_1_view.html#ad5d5472594f2048969af6ea296e843e5" target="_top" xlink:title="Set up a directional light shadow camera.">
<polygon fill="none" stroke="black" points="5,-0.5 5,-30.5 160,-30.5 160,-0.5 5,-0.5"/>
<text text-anchor="start" x="13" y="-18.5" font-family="Helvetica,sans-Serif" font-size="10.00">Urho3D::View::SetupDirLight</text>
<text text-anchor="middle" x="82.5" y="-7.5" font-family="Helvetica,sans-Serif" font-size="10.00">ShadowCamera</text>
</a>
</g>
</g>
<!-- Node1&#45;&gt;Node3 -->
<g id="edge2" class="edge">
<title>Node1&#45;&gt;Node3</title>
<path fill="none" stroke="midnightblue" d="M198.52,-28.8C185.75,-27.33 172.75,-25.82 160.31,-24.38"/>
<polygon fill="midnightblue" stroke="midnightblue" points="198.36,-32.31 208.69,-29.98 199.16,-25.35 198.36,-32.31"/>
</g>
</g>
</svg>
