<?xml version="1.0" encoding="UTF-8" standalone="no"?>
<!DOCTYPE svg PUBLIC "-//W3C//DTD SVG 1.1//EN"
 "http://www.w3.org/Graphics/SVG/1.1/DTD/svg11.dtd">
<!-- Generated by graphviz version 2.43.0 (0)
 -->
<!-- Title: Urho3D::UIElement::SetEnabled Pages: 1 -->
<svg width="1112pt" height="255pt"
 viewBox="0.00 0.00 1112.00 255.00" xmlns="http://www.w3.org/2000/svg" xmlns:xlink="http://www.w3.org/1999/xlink">
<g id="graph0" class="graph" transform="scale(1 1) rotate(0) translate(4 251)">
<title>Urho3D::UIElement::SetEnabled</title>
<!-- Node1 -->
<g id="node1" class="node">
<title>Node1</title>
<g id="a_node1"><a xlink:title=" ">
<polygon fill="#bfbfbf" stroke="black" points="988,-124 988,-154 1104,-154 1104,-124 988,-124"/>
<text text-anchor="start" x="996" y="-142" font-family="Helvetica,sans-Serif" font-size="10.00">Urho3D::UIElement::</text>
<text text-anchor="middle" x="1046" y="-131" font-family="Helvetica,sans-Serif" font-size="10.00">SetEnabled</text>
</a>
</g>
</g>
<!-- Node2 -->
<g id="node2" class="node">
<title>Node2</title>
<g id="a_node2"><a xlink:href="class_urho3_d_1_1_button.html#a1307e0a8a831f4c2f976a56dafcee55d" target="_top" xlink:title="Construct.">
<polygon fill="none" stroke="black" points="805.5,-227.5 805.5,-246.5 935.5,-246.5 935.5,-227.5 805.5,-227.5"/>
<text text-anchor="middle" x="870.5" y="-234.5" font-family="Helvetica,sans-Serif" font-size="10.00">Urho3D::Button::Button</text>
</a>
</g>
</g>
<!-- Node1&#45;&gt;Node2 -->
<g id="edge1" class="edge">
<title>Node1&#45;&gt;Node2</title>
<path fill="none" stroke="midnightblue" d="M1024.52,-161.49C1006.96,-179.42 980.12,-203.79 952,-218 944.31,-221.89 935.8,-224.99 927.28,-227.48"/>
<polygon fill="midnightblue" stroke="midnightblue" points="1027.06,-163.9 1031.45,-154.26 1022,-159.06 1027.06,-163.9"/>
</g>
<!-- Node3 -->
<g id="node3" class="node">
<title>Node3</title>
<g id="a_node3"><a xlink:href="class_urho3_d_1_1_check_box.html#a5839d05204c80e88387b9d9d3529ff83" target="_top" xlink:title="Construct.">
<polygon fill="none" stroke="black" points="789,-189.5 789,-208.5 952,-208.5 952,-189.5 789,-189.5"/>
<text text-anchor="middle" x="870.5" y="-196.5" font-family="Helvetica,sans-Serif" font-size="10.00">Urho3D::CheckBox::CheckBox</text>
</a>
</g>
</g>
<!-- Node1&#45;&gt;Node3 -->
<g id="edge2" class="edge">
<title>Node1&#45;&gt;Node3</title>
<path fill="none" stroke="midnightblue" d="M1005.35,-158.4C989.08,-165.85 969.9,-174 952,-180 941.24,-183.61 929.46,-186.8 918.31,-189.48"/>
<polygon fill="midnightblue" stroke="midnightblue" points="1006.97,-161.51 1014.56,-154.12 1004.02,-155.16 1006.97,-161.51"/>
</g>
<!-- Node4 -->
<g id="node4" class="node">
<title>Node4</title>
<g id="a_node4"><a xlink:href="class_urho3_d_1_1_list_view.html#aeb784361fd2f048e99d554b6c4375e07" target="_top" xlink:title="Insert item at a specific index. In hierarchy mode, the optional parameter will be used to determine ...">
<polygon fill="none" stroke="black" points="792.5,-151.5 792.5,-170.5 948.5,-170.5 948.5,-151.5 792.5,-151.5"/>
<text text-anchor="middle" x="870.5" y="-158.5" font-family="Helvetica,sans-Serif" font-size="10.00">Urho3D::ListView::InsertItem</text>
</a>
</g>
</g>
<!-- Node1&#45;&gt;Node4 -->
<g id="edge3" class="edge">
<title>Node1&#45;&gt;Node4</title>
<path fill="none" stroke="midnightblue" d="M977.69,-147.53C967.53,-148.82 956.99,-150.16 946.68,-151.47"/>
<polygon fill="midnightblue" stroke="midnightblue" points="978.23,-150.99 987.71,-146.26 977.35,-144.05 978.23,-150.99"/>
</g>
<!-- Node16 -->
<g id="node16" class="node">
<title>Node16</title>
<g id="a_node16"><a xlink:href="class_urho3_d_1_1_scroll_bar.html#a99bb20f41060e8a1641430ccf8c71606" target="_top" xlink:title="Construct.">
<polygon fill="none" stroke="black" points="816,-102 816,-132 925,-132 925,-102 816,-102"/>
<text text-anchor="start" x="824" y="-120" font-family="Helvetica,sans-Serif" font-size="10.00">Urho3D::ScrollBar::</text>
<text text-anchor="middle" x="870.5" y="-109" font-family="Helvetica,sans-Serif" font-size="10.00">ScrollBar</text>
</a>
</g>
</g>
<!-- Node1&#45;&gt;Node16 -->
<g id="edge16" class="edge">
<title>Node1&#45;&gt;Node16</title>
<path fill="none" stroke="midnightblue" d="M977.63,-130.46C960.25,-128.25 941.78,-125.91 925.2,-123.81"/>
<polygon fill="midnightblue" stroke="midnightblue" points="977.35,-133.95 987.71,-131.74 978.23,-127.01 977.35,-133.95"/>
</g>
<!-- Node17 -->
<g id="node17" class="node">
<title>Node17</title>
<g id="a_node17"><a xlink:href="class_urho3_d_1_1_list_view.html#a35c43109f5026eb16772ee518d460372" target="_top" xlink:title="Enable hierarchy mode. Allows items to have parent&#45;child relationship at different indent level and t...">
<polygon fill="none" stroke="black" points="549.5,-36.5 549.5,-55.5 745.5,-55.5 745.5,-36.5 549.5,-36.5"/>
<text text-anchor="middle" x="647.5" y="-43.5" font-family="Helvetica,sans-Serif" font-size="10.00">Urho3D::ListView::SetHierarchyMode</text>
</a>
</g>
</g>
<!-- Node1&#45;&gt;Node17 -->
<g id="edge17" class="edge">
<title>Node1&#45;&gt;Node17</title>
<path fill="none" stroke="midnightblue" d="M1010.78,-118.93C993.65,-109.71 972.29,-99.42 952,-93 884.77,-71.72 806.01,-59.89 745.57,-53.42"/>
<polygon fill="midnightblue" stroke="midnightblue" points="1009.38,-122.15 1019.83,-123.91 1012.76,-116.02 1009.38,-122.15"/>
</g>
<!-- Node20 -->
<g id="node20" class="node">
<title>Node20</title>
<g id="a_node20"><a xlink:href="class_urho3_d_1_1_u_i_element.html#a5094f1083fac273772c260e5f310bbf2" target="_top" xlink:title="Construct.">
<polygon fill="none" stroke="black" points="812.5,-14 812.5,-44 928.5,-44 928.5,-14 812.5,-14"/>
<text text-anchor="start" x="820.5" y="-32" font-family="Helvetica,sans-Serif" font-size="10.00">Urho3D::UIElement::</text>
<text text-anchor="middle" x="870.5" y="-21" font-family="Helvetica,sans-Serif" font-size="10.00">UIElement</text>
</a>
</g>
</g>
<!-- Node1&#45;&gt;Node20 -->
<g id="edge20" class="edge">
<title>Node1&#45;&gt;Node20</title>
<path fill="none" stroke="midnightblue" d="M1023.76,-116.81C1005.94,-99.22 979.12,-75.02 952,-59 942.24,-53.23 931.18,-48.25 920.45,-44.09"/>
<polygon fill="midnightblue" stroke="midnightblue" points="1021.28,-119.29 1030.82,-123.9 1026.24,-114.35 1021.28,-119.29"/>
</g>
<!-- Node5 -->
<g id="node5" class="node">
<title>Node5</title>
<g id="a_node5"><a xlink:href="class_urho3_d_1_1_list_view.html#aa7328480b37cc673aa9ccea8653e2c67" target="_top" xlink:title="Add item to the end of the list.">
<polygon fill="none" stroke="black" points="574,-146.5 574,-165.5 721,-165.5 721,-146.5 574,-146.5"/>
<text text-anchor="middle" x="647.5" y="-153.5" font-family="Helvetica,sans-Serif" font-size="10.00">Urho3D::ListView::AddItem</text>
</a>
</g>
</g>
<!-- Node4&#45;&gt;Node5 -->
<g id="edge4" class="edge">
<title>Node4&#45;&gt;Node5</title>
<path fill="none" stroke="midnightblue" d="M782.1,-159.02C761.96,-158.57 740.74,-158.09 721.3,-157.65"/>
<polygon fill="midnightblue" stroke="midnightblue" points="782.13,-162.52 792.2,-159.25 782.29,-155.53 782.13,-162.52"/>
</g>
<!-- Node14 -->
<g id="node14" class="node">
<title>Node14</title>
<g id="a_node14"><a xlink:href="class_urho3_d_1_1_console.html#a18546b712ec118a256122c627696662e" target="_top" xlink:title=" ">
<polygon fill="none" stroke="black" points="542,-187.5 542,-206.5 753,-206.5 753,-187.5 542,-187.5"/>
<text text-anchor="middle" x="647.5" y="-194.5" font-family="Helvetica,sans-Serif" font-size="10.00">Urho3D::Console::SetNumBufferedRows</text>
</a>
</g>
</g>
<!-- Node4&#45;&gt;Node14 -->
<g id="edge13" class="edge">
<title>Node4&#45;&gt;Node14</title>
<path fill="none" stroke="midnightblue" d="M801.15,-172.13C771.06,-177.04 736.07,-182.74 707.18,-187.44"/>
<polygon fill="midnightblue" stroke="midnightblue" points="801.84,-175.57 811.15,-170.51 800.71,-168.66 801.84,-175.57"/>
</g>
<!-- Node6 -->
<g id="node6" class="node">
<title>Node6</title>
<g id="a_node6"><a xlink:href="class_urho3_d_1_1_console.html#a21804113c047d876e9358aaa9daabf67" target="_top" xlink:title="Handle the application post&#45;update.">
<polygon fill="none" stroke="black" points="341,-141 341,-171 501,-171 501,-141 341,-141"/>
<text text-anchor="start" x="349" y="-159" font-family="Helvetica,sans-Serif" font-size="10.00">Urho3D::Console::HandlePost</text>
<text text-anchor="middle" x="421" y="-148" font-family="Helvetica,sans-Serif" font-size="10.00">Update</text>
</a>
</g>
</g>
<!-- Node5&#45;&gt;Node6 -->
<g id="edge5" class="edge">
<title>Node5&#45;&gt;Node6</title>
<path fill="none" stroke="midnightblue" d="M563.72,-156C543.33,-156 521.54,-156 501.31,-156"/>
<polygon fill="midnightblue" stroke="midnightblue" points="563.92,-159.5 573.92,-156 563.92,-152.5 563.92,-159.5"/>
</g>
<!-- Node8 -->
<g id="node8" class="node">
<title>Node8</title>
<g id="a_node8"><a xlink:href="class_urho3_d_1_1_file_selector.html#a8ec8d229ef0e2a4836634e01e96803a7" target="_top" xlink:title="Refresh the directory listing.">
<polygon fill="none" stroke="black" points="363,-92 363,-122 479,-122 479,-92 363,-92"/>
<text text-anchor="start" x="371" y="-110" font-family="Helvetica,sans-Serif" font-size="10.00">Urho3D::FileSelector</text>
<text text-anchor="middle" x="421" y="-99" font-family="Helvetica,sans-Serif" font-size="10.00">::RefreshFiles</text>
</a>
</g>
</g>
<!-- Node5&#45;&gt;Node8 -->
<g id="edge7" class="edge">
<title>Node5&#45;&gt;Node8</title>
<path fill="none" stroke="midnightblue" d="M593.09,-144.34C558.72,-136.84 514.1,-127.1 479.04,-119.45"/>
<polygon fill="midnightblue" stroke="midnightblue" points="592.43,-147.78 602.95,-146.49 593.92,-140.94 592.43,-147.78"/>
</g>
<!-- Node7 -->
<g id="node7" class="node">
<title>Node7</title>
<g id="a_node7"><a xlink:href="class_urho3_d_1_1_console.html#afa65f6eacc596b544de5b0c3bc1a3d55" target="_top" xlink:title="Construct.">
<polygon fill="none" stroke="black" points="157,-190.5 157,-209.5 300,-209.5 300,-190.5 157,-190.5"/>
<text text-anchor="middle" x="228.5" y="-197.5" font-family="Helvetica,sans-Serif" font-size="10.00">Urho3D::Console::Console</text>
</a>
</g>
</g>
<!-- Node6&#45;&gt;Node7 -->
<g id="edge6" class="edge">
<title>Node6&#45;&gt;Node7</title>
<path fill="none" stroke="midnightblue" d="M345.02,-173.32C319.71,-179.16 292.39,-185.47 270.68,-190.49"/>
<polygon fill="midnightblue" stroke="midnightblue" points="346.02,-176.68 354.97,-171.02 344.44,-169.86 346.02,-176.68"/>
</g>
<!-- Node9 -->
<g id="node9" class="node">
<title>Node9</title>
<g id="a_node9"><a xlink:href="class_urho3_d_1_1_file_selector.html#a372b507fb35782c00d99ded29d4610f0" target="_top" xlink:title="Handle filter changed.">
<polygon fill="none" stroke="black" points="166,-92 166,-122 291,-122 291,-92 166,-92"/>
<text text-anchor="start" x="174" y="-110" font-family="Helvetica,sans-Serif" font-size="10.00">Urho3D::FileSelector</text>
<text text-anchor="middle" x="228.5" y="-99" font-family="Helvetica,sans-Serif" font-size="10.00">::HandleFilterChanged</text>
</a>
</g>
</g>
<!-- Node8&#45;&gt;Node9 -->
<g id="edge8" class="edge">
<title>Node8&#45;&gt;Node9</title>
<path fill="none" stroke="midnightblue" d="M352.59,-107C332.62,-107 310.86,-107 291.26,-107"/>
<polygon fill="midnightblue" stroke="midnightblue" points="352.84,-110.5 362.84,-107 352.84,-103.5 352.84,-110.5"/>
</g>
<!-- Node10 -->
<g id="node10" class="node">
<title>Node10</title>
<g id="a_node10"><a xlink:href="class_urho3_d_1_1_file_selector.html#a8f0352bf675048a625d1b8e5ae2ce8ea" target="_top" xlink:title="Set filters.">
<polygon fill="none" stroke="black" points="170.5,-43 170.5,-73 286.5,-73 286.5,-43 170.5,-43"/>
<text text-anchor="start" x="178.5" y="-61" font-family="Helvetica,sans-Serif" font-size="10.00">Urho3D::FileSelector</text>
<text text-anchor="middle" x="228.5" y="-50" font-family="Helvetica,sans-Serif" font-size="10.00">::SetFilters</text>
</a>
</g>
</g>
<!-- Node8&#45;&gt;Node10 -->
<g id="edge9" class="edge">
<title>Node8&#45;&gt;Node10</title>
<path fill="none" stroke="midnightblue" d="M353.05,-89.78C331.36,-84.2 307.52,-78.07 286.62,-72.69"/>
<polygon fill="midnightblue" stroke="midnightblue" points="352.29,-93.2 362.84,-92.3 354.03,-86.42 352.29,-93.2"/>
</g>
<!-- Node11 -->
<g id="node11" class="node">
<title>Node11</title>
<g id="a_node11"><a xlink:href="class_urho3_d_1_1_file_selector.html#a70224d0b3a485fd4aab57cc6b9af1c6f" target="_top" xlink:title=" ">
<polygon fill="none" stroke="black" points="170.5,-141 170.5,-171 286.5,-171 286.5,-141 170.5,-141"/>
<text text-anchor="start" x="178.5" y="-159" font-family="Helvetica,sans-Serif" font-size="10.00">Urho3D::FileSelector</text>
<text text-anchor="middle" x="228.5" y="-148" font-family="Helvetica,sans-Serif" font-size="10.00">::SetPath</text>
</a>
</g>
</g>
<!-- Node8&#45;&gt;Node11 -->
<g id="edge10" class="edge">
<title>Node8&#45;&gt;Node11</title>
<path fill="none" stroke="midnightblue" d="M353.05,-124.22C331.36,-129.8 307.52,-135.93 286.62,-141.31"/>
<polygon fill="midnightblue" stroke="midnightblue" points="354.03,-127.58 362.84,-121.7 352.29,-120.8 354.03,-127.58"/>
</g>
<!-- Node12 -->
<g id="node12" class="node">
<title>Node12</title>
<g id="a_node12"><a xlink:href="class_urho3_d_1_1_file_selector.html#ac7c4c01759f09d23dd856c71a2cc1655" target="_top" xlink:title="Enter a directory or confirm a file. Return true if a directory entered.">
<polygon fill="none" stroke="black" points="2.5,-165 2.5,-195 118.5,-195 118.5,-165 2.5,-165"/>
<text text-anchor="start" x="10.5" y="-183" font-family="Helvetica,sans-Serif" font-size="10.00">Urho3D::FileSelector</text>
<text text-anchor="middle" x="60.5" y="-172" font-family="Helvetica,sans-Serif" font-size="10.00">::EnterFile</text>
</a>
</g>
</g>
<!-- Node11&#45;&gt;Node12 -->
<g id="edge11" class="edge">
<title>Node11&#45;&gt;Node12</title>
<path fill="none" stroke="midnightblue" d="M160.44,-165.7C146.61,-167.69 132.17,-169.78 118.73,-171.73"/>
<polygon fill="midnightblue" stroke="midnightblue" points="160.98,-169.15 170.37,-164.26 159.97,-162.23 160.98,-169.15"/>
</g>
<!-- Node13 -->
<g id="node13" class="node">
<title>Node13</title>
<g id="a_node13"><a xlink:href="class_urho3_d_1_1_file_selector.html#ac07a78273e7db4a6d4ab33d807c072f7" target="_top" xlink:title="Handle path edited.">
<polygon fill="none" stroke="black" points="0,-116 0,-146 121,-146 121,-116 0,-116"/>
<text text-anchor="start" x="8" y="-134" font-family="Helvetica,sans-Serif" font-size="10.00">Urho3D::FileSelector</text>
<text text-anchor="middle" x="60.5" y="-123" font-family="Helvetica,sans-Serif" font-size="10.00">::HandlePathChanged</text>
</a>
</g>
</g>
<!-- Node11&#45;&gt;Node13 -->
<g id="edge12" class="edge">
<title>Node11&#45;&gt;Node13</title>
<path fill="none" stroke="midnightblue" d="M160.18,-145.86C147.3,-143.92 133.9,-141.9 121.28,-140"/>
<polygon fill="midnightblue" stroke="midnightblue" points="159.96,-149.37 170.37,-147.4 161,-142.45 159.96,-149.37"/>
</g>
<!-- Node15 -->
<g id="node15" class="node">
<title>Node15</title>
<g id="a_node15"><a xlink:href="class_urho3_d_1_1_console.html#a6b523b3fbdff6cc3da360dc128be09fd" target="_top" xlink:title=" ">
<polygon fill="none" stroke="black" points="336,-190.5 336,-209.5 506,-209.5 506,-190.5 336,-190.5"/>
<text text-anchor="middle" x="421" y="-197.5" font-family="Helvetica,sans-Serif" font-size="10.00">Urho3D::Console::SetNumRows</text>
</a>
</g>
</g>
<!-- Node14&#45;&gt;Node15 -->
<g id="edge14" class="edge">
<title>Node14&#45;&gt;Node15</title>
<path fill="none" stroke="midnightblue" d="M531.67,-198.53C523.02,-198.65 514.4,-198.77 506.01,-198.88"/>
<polygon fill="midnightblue" stroke="midnightblue" points="531.86,-202.03 541.81,-198.4 531.76,-195.03 531.86,-202.03"/>
</g>
<!-- Node15&#45;&gt;Node7 -->
<g id="edge15" class="edge">
<title>Node15&#45;&gt;Node7</title>
<path fill="none" stroke="midnightblue" d="M325.76,-200C317.11,-200 308.45,-200 300.06,-200"/>
<polygon fill="midnightblue" stroke="midnightblue" points="325.89,-203.5 335.89,-200 325.89,-196.5 325.89,-203.5"/>
</g>
<!-- Node18 -->
<g id="node18" class="node">
<title>Node18</title>
<g id="a_node18"><a xlink:href="class_urho3_d_1_1_list_view.html#a180fbbadcc42a12d0b78dd839ee0b839" target="_top" xlink:title="Construct.">
<polygon fill="none" stroke="black" points="347.5,-0.5 347.5,-19.5 494.5,-19.5 494.5,-0.5 347.5,-0.5"/>
<text text-anchor="middle" x="421" y="-7.5" font-family="Helvetica,sans-Serif" font-size="10.00">Urho3D::ListView::ListView</text>
</a>
</g>
</g>
<!-- Node17&#45;&gt;Node18 -->
<g id="edge18" class="edge">
<title>Node17&#45;&gt;Node18</title>
<path fill="none" stroke="midnightblue" d="M577.06,-34.87C546.5,-29.96 510.95,-24.26 481.61,-19.56"/>
<polygon fill="midnightblue" stroke="midnightblue" points="576.79,-38.37 587.22,-36.49 577.9,-31.46 576.79,-38.37"/>
</g>
<!-- Node19 -->
<g id="node19" class="node">
<title>Node19</title>
<g id="a_node19"><a xlink:href="class_urho3_d_1_1_list_view.html#afd22f7194211cc7487b59a454ce143a9" target="_top" xlink:title="Register object factory.">
<polygon fill="none" stroke="black" points="348,-39 348,-69 494,-69 494,-39 348,-39"/>
<text text-anchor="start" x="356" y="-57" font-family="Helvetica,sans-Serif" font-size="10.00">Urho3D::ListView::Register</text>
<text text-anchor="middle" x="421" y="-46" font-family="Helvetica,sans-Serif" font-size="10.00">Object</text>
</a>
</g>
</g>
<!-- Node17&#45;&gt;Node19 -->
<g id="edge19" class="edge">
<title>Node17&#45;&gt;Node19</title>
<path fill="none" stroke="midnightblue" d="M539.33,-49.82C524.06,-50.36 508.66,-50.91 494.26,-51.42"/>
<polygon fill="midnightblue" stroke="midnightblue" points="539.47,-53.32 549.34,-49.46 539.22,-46.32 539.47,-53.32"/>
</g>
<!-- Node20&#45;&gt;Node17 -->
<g id="edge21" class="edge">
<title>Node20&#45;&gt;Node17</title>
<path fill="none" stroke="midnightblue" d="M802.05,-34.19C784.27,-35.56 764.73,-37.06 745.72,-38.52"/>
<polygon fill="midnightblue" stroke="midnightblue" points="802.6,-37.66 812.3,-33.4 802.06,-30.68 802.6,-37.66"/>
</g>
</g>
</svg>
