<?xml version="1.0" encoding="UTF-8" standalone="no"?>
<!DOCTYPE svg PUBLIC "-//W3C//DTD SVG 1.1//EN"
 "http://www.w3.org/Graphics/SVG/1.1/DTD/svg11.dtd">
<!-- Generated by graphviz version 2.40.1 (20161225.0304)
 -->
<!-- Title: Urho3D::Profiler Pages: 1 -->
<svg width="1382pt" height="817pt"
 viewBox="0.00 0.00 1382.00 817.09" xmlns="http://www.w3.org/2000/svg" xmlns:xlink="http://www.w3.org/1999/xlink">
<g id="graph0" class="graph" transform="scale(1 1) rotate(0) translate(4 813.0862)">
<title>Urho3D::Profiler</title>
<!-- Node4 -->
<g id="node1" class="node">
<title>Node4</title>
<polygon fill="#bfbfbf" stroke="#000000" points="1280,-758 1280,-777 1374,-777 1374,-758 1280,-758"/>
<text text-anchor="middle" x="1327" y="-765" font-family="Helvetica,sans-Serif" font-size="10.00" fill="#000000">Urho3D::Profiler</text>
</g>
<!-- Node5 -->
<g id="node2" class="node">
<title>Node5</title>
<g id="a_node2"><a xlink:href="class_urho3_d_1_1_object.html" target="_top" xlink:title="Base class for objects with type identification, subsystem access and event sending/receiving capabil...">
<polygon fill="none" stroke="#000000" points="434.5,-670 434.5,-689 525.5,-689 525.5,-670 434.5,-670"/>
<text text-anchor="middle" x="480" y="-677" font-family="Helvetica,sans-Serif" font-size="10.00" fill="#000000">Urho3D::Object</text>
</a>
</g>
</g>
<!-- Node5&#45;&gt;Node4 -->
<g id="edge1" class="edge">
<title>Node5&#45;&gt;Node4</title>
<path fill="none" stroke="#191970" d="M499.1716,-695.6644C527.9639,-718.7587 585.0865,-760.1059 642,-775.5 874.1955,-838.305 1167.0547,-796.8799 1279.7967,-776.7159"/>
<polygon fill="#191970" stroke="#191970" points="501.1354,-692.7492 491.1772,-689.1321 496.7063,-698.1698 501.1354,-692.7492"/>
</g>
<!-- Node15 -->
<g id="node11" class="node">
<title>Node15</title>
<g id="a_node11"><a xlink:href="class_urho3_d_1_1_event_handler.html" target="_top" xlink:title="Internal helper class for invoking event handler functions. ">
<polygon fill="none" stroke="#000000" points="708,-619 708,-638 833,-638 833,-619 708,-619"/>
<text text-anchor="middle" x="770.5" y="-626" font-family="Helvetica,sans-Serif" font-size="10.00" fill="#000000">Urho3D::EventHandler</text>
</a>
</g>
</g>
<!-- Node5&#45;&gt;Node15 -->
<g id="edge17" class="edge">
<title>Node5&#45;&gt;Node15</title>
<path fill="none" stroke="#9a32cd" stroke-dasharray="5,2" d="M534.9942,-666.9641C539.2011,-665.0959 543.2598,-662.9542 547,-660.5 557.5626,-653.5692 553.7184,-644.186 565,-638.5 609.8154,-615.9129 667.338,-615.1065 710.1208,-618.9767"/>
<polygon fill="#9a32cd" stroke="#9a32cd" points="533.6523,-663.7307 525.6138,-670.6324 536.2018,-670.25 533.6523,-663.7307"/>
<text text-anchor="middle" x="594.5" y="-652.5" font-family="Helvetica,sans-Serif" font-size="10.00" fill="#000000"> sender_</text>
<text text-anchor="middle" x="594.5" y="-641.5" font-family="Helvetica,sans-Serif" font-size="10.00" fill="#000000">receiver_</text>
</g>
<!-- Node6 -->
<g id="node3" class="node">
<title>Node6</title>
<g id="a_node3"><a xlink:href="class_urho3_d_1_1_ref_counted.html" target="_top" xlink:title="Base class for intrusively reference&#45;counted objects. These are noncopyable and non&#45;assignable. ">
<polygon fill="none" stroke="#000000" points="200,-497 200,-516 316,-516 316,-497 200,-497"/>
<text text-anchor="middle" x="258" y="-504" font-family="Helvetica,sans-Serif" font-size="10.00" fill="#000000">Urho3D::RefCounted</text>
</a>
</g>
</g>
<!-- Node6&#45;&gt;Node5 -->
<g id="edge2" class="edge">
<title>Node6&#45;&gt;Node5</title>
<path fill="none" stroke="#191970" d="M271.1042,-524.5608C295.4113,-556.7498 350.7139,-624.0687 413,-660.5 419.575,-664.3457 426.9715,-667.4493 434.387,-669.9431"/>
<polygon fill="#191970" stroke="#191970" points="273.6071,-522.0606 264.8351,-516.1189 267.9872,-526.234 273.6071,-522.0606"/>
</g>
<!-- Node8 -->
<g id="node5" class="node">
<title>Node8</title>
<g id="a_node5"><a xlink:href="class_urho3_d_1_1_context.html" target="_top" xlink:title="Urho3D execution context. Provides access to subsystems, object factories and attributes, and event receivers. ">
<polygon fill="none" stroke="#000000" points="1081,-351 1081,-370 1179,-370 1179,-351 1081,-351"/>
<text text-anchor="middle" x="1130" y="-358" font-family="Helvetica,sans-Serif" font-size="10.00" fill="#000000">Urho3D::Context</text>
</a>
</g>
</g>
<!-- Node6&#45;&gt;Node8 -->
<g id="edge5" class="edge">
<title>Node6&#45;&gt;Node8</title>
<path fill="none" stroke="#191970" d="M326.426,-498.3175C468.2151,-481.2333 789.9607,-441.7641 899,-422.5 961.3302,-411.488 977.0353,-408.5182 1038,-391.5 1060.5652,-385.201 1085.749,-376.603 1104.0552,-370.0597"/>
<polygon fill="#191970" stroke="#191970" points="325.6354,-494.8873 316.1254,-499.5574 326.472,-501.8371 325.6354,-494.8873"/>
</g>
<!-- Node7 -->
<g id="node4" class="node">
<title>Node7</title>
<g id="a_node4"><a xlink:href="struct_urho3_d_1_1_ref_count.html" target="_top" xlink:title="Reference count structure. ">
<polygon fill="none" stroke="#000000" points="0,-497 0,-516 104,-516 104,-497 0,-497"/>
<text text-anchor="middle" x="52" y="-504" font-family="Helvetica,sans-Serif" font-size="10.00" fill="#000000">Urho3D::RefCount</text>
</a>
</g>
</g>
<!-- Node7&#45;&gt;Node6 -->
<g id="edge3" class="edge">
<title>Node7&#45;&gt;Node6</title>
<path fill="none" stroke="#9a32cd" stroke-dasharray="5,2" d="M114.433,-506.5C141.6312,-506.5 173.3209,-506.5 199.998,-506.5"/>
<polygon fill="#9a32cd" stroke="#9a32cd" points="114.2488,-503.0001 104.2488,-506.5 114.2488,-510.0001 114.2488,-503.0001"/>
<text text-anchor="middle" x="147.5" y="-509.5" font-family="Helvetica,sans-Serif" font-size="10.00" fill="#000000"> refCount_</text>
</g>
<!-- Node8&#45;&gt;Node5 -->
<g id="edge4" class="edge">
<title>Node8&#45;&gt;Node5</title>
<path fill="none" stroke="#9a32cd" stroke-dasharray="5,2" d="M1126.9539,-380.2465C1117.096,-441.3353 1084.0133,-625.2558 1038,-660.5 1017.8002,-675.9722 655.2555,-678.8456 525.6182,-679.3787"/>
<polygon fill="#9a32cd" stroke="#9a32cd" points="1130.4632,-380.4623 1128.5677,-370.0384 1123.549,-379.3692 1130.4632,-380.4623"/>
<text text-anchor="middle" x="770.5" y="-682.5" font-family="Helvetica,sans-Serif" font-size="10.00" fill="#000000"> context_</text>
</g>
<!-- Node9 -->
<g id="node6" class="node">
<title>Node9</title>
<g id="a_node6"><a xlink:href="class_urho3_d_1_1_hash_map.html" target="_top" xlink:title="Urho3D::HashMap\&lt; Urho3D\l::Object *, Urho3D::HashMap\l\&lt; Urho3D::StringHash, Urho3D\l::SharedPtr\&lt; Urho3D::EventReceiverGroup \&gt; \&gt; \&gt;">
<polygon fill="none" stroke="#000000" points="642,-361.5 642,-413.5 899,-413.5 899,-361.5 642,-361.5"/>
<text text-anchor="start" x="650" y="-401.5" font-family="Helvetica,sans-Serif" font-size="10.00" fill="#000000">Urho3D::HashMap&lt; Urho3D</text>
<text text-anchor="start" x="650" y="-390.5" font-family="Helvetica,sans-Serif" font-size="10.00" fill="#000000">::Object *, Urho3D::HashMap</text>
<text text-anchor="start" x="650" y="-379.5" font-family="Helvetica,sans-Serif" font-size="10.00" fill="#000000">&lt; Urho3D::StringHash, Urho3D</text>
<text text-anchor="middle" x="770.5" y="-368.5" font-family="Helvetica,sans-Serif" font-size="10.00" fill="#000000">::SharedPtr&lt; Urho3D::EventReceiverGroup &gt; &gt; &gt;</text>
</a>
</g>
</g>
<!-- Node9&#45;&gt;Node8 -->
<g id="edge6" class="edge">
<title>Node9&#45;&gt;Node8</title>
<path fill="none" stroke="#9a32cd" stroke-dasharray="5,2" d="M909.0387,-377.0951C969.4306,-372.5595 1036.3822,-367.5311 1080.5876,-364.2111"/>
<polygon fill="#9a32cd" stroke="#9a32cd" points="908.7285,-373.6085 899.0187,-377.8477 909.2528,-380.5888 908.7285,-373.6085"/>
<text text-anchor="middle" x="977.5" y="-379.5" font-family="Helvetica,sans-Serif" font-size="10.00" fill="#000000"> specificEventReceivers_</text>
</g>
<!-- Node10 -->
<g id="node7" class="node">
<title>Node10</title>
<g id="a_node7"><a xlink:href="class_urho3_d_1_1_hash_base.html" target="_top" xlink:title="Hash set/map base class. ">
<polygon fill="none" stroke="#000000" points="426,-181 426,-200 534,-200 534,-181 426,-181"/>
<text text-anchor="middle" x="480" y="-188" font-family="Helvetica,sans-Serif" font-size="10.00" fill="#000000">Urho3D::HashBase</text>
</a>
</g>
</g>
<!-- Node10&#45;&gt;Node9 -->
<g id="edge7" class="edge">
<title>Node10&#45;&gt;Node9</title>
<path fill="none" stroke="#191970" d="M492.9981,-208.4923C518.0161,-241.8034 576.2414,-313.1714 642,-351.5 648.3051,-355.175 655.004,-358.4907 661.9045,-361.4798"/>
<polygon fill="#191970" stroke="#191970" points="495.602,-206.1268 486.8436,-200.1651 489.9726,-210.2874 495.602,-206.1268"/>
</g>
<!-- Node14 -->
<g id="node10" class="node">
<title>Node14</title>
<g id="a_node10"><a xlink:href="class_urho3_d_1_1_hash_map.html" target="_top" xlink:title="Urho3D::HashMap\&lt; Urho3D\l::StringHash, Urho3D::\lSharedPtr\&lt; Urho3D::EventReceiver\lGroup \&gt; \&gt;">
<polygon fill="none" stroke="#000000" points="676.5,-290.5 676.5,-342.5 864.5,-342.5 864.5,-290.5 676.5,-290.5"/>
<text text-anchor="start" x="684.5" y="-330.5" font-family="Helvetica,sans-Serif" font-size="10.00" fill="#000000">Urho3D::HashMap&lt; Urho3D</text>
<text text-anchor="start" x="684.5" y="-319.5" font-family="Helvetica,sans-Serif" font-size="10.00" fill="#000000">::StringHash, Urho3D::</text>
<text text-anchor="start" x="684.5" y="-308.5" font-family="Helvetica,sans-Serif" font-size="10.00" fill="#000000">SharedPtr&lt; Urho3D::EventReceiver</text>
<text text-anchor="middle" x="770.5" y="-297.5" font-family="Helvetica,sans-Serif" font-size="10.00" fill="#000000">Group &gt; &gt;</text>
</a>
</g>
</g>
<!-- Node10&#45;&gt;Node14 -->
<g id="edge13" class="edge">
<title>Node10&#45;&gt;Node14</title>
<path fill="none" stroke="#191970" d="M503.279,-205.7333C533.991,-225.2831 590.224,-259.2096 642,-280.5 652.9279,-284.9936 664.6016,-289.1255 676.2902,-292.8615"/>
<polygon fill="#191970" stroke="#191970" points="504.9054,-202.6181 494.6002,-200.1576 501.1217,-208.5075 504.9054,-202.6181"/>
</g>
<!-- Node20 -->
<g id="node16" class="node">
<title>Node20</title>
<g id="a_node16"><a xlink:href="class_urho3_d_1_1_hash_map.html" target="_top" xlink:title="Urho3D::HashMap\&lt; StringHash,\l Variant \&gt;">
<polygon fill="none" stroke="#000000" points="684.5,-.5 684.5,-30.5 856.5,-30.5 856.5,-.5 684.5,-.5"/>
<text text-anchor="start" x="692.5" y="-18.5" font-family="Helvetica,sans-Serif" font-size="10.00" fill="#000000">Urho3D::HashMap&lt; StringHash,</text>
<text text-anchor="middle" x="770.5" y="-7.5" font-family="Helvetica,sans-Serif" font-size="10.00" fill="#000000"> Variant &gt;</text>
</a>
</g>
</g>
<!-- Node10&#45;&gt;Node20 -->
<g id="edge23" class="edge">
<title>Node10&#45;&gt;Node20</title>
<path fill="none" stroke="#191970" d="M493.2192,-172.4868C518.2067,-139.9557 575.8372,-71.8752 642,-40.5 655.1426,-34.2676 669.7452,-29.5889 684.2563,-26.0766"/>
<polygon fill="#191970" stroke="#191970" points="490.2828,-170.5676 487.057,-180.6595 495.8721,-174.7819 490.2828,-170.5676"/>
</g>
<!-- Node21 -->
<g id="node17" class="node">
<title>Node21</title>
<g id="a_node17"><a xlink:href="class_urho3_d_1_1_hash_map.html" target="_top" xlink:title="Urho3D::HashMap\&lt; Urho3D\l::StringHash, Urho3D::\lSharedPtr\&lt; Urho3D::Object \&gt; \&gt;">
<polygon fill="none" stroke="#000000" points="684.5,-230 684.5,-271 856.5,-271 856.5,-230 684.5,-230"/>
<text text-anchor="start" x="692.5" y="-259" font-family="Helvetica,sans-Serif" font-size="10.00" fill="#000000">Urho3D::HashMap&lt; Urho3D</text>
<text text-anchor="start" x="692.5" y="-248" font-family="Helvetica,sans-Serif" font-size="10.00" fill="#000000">::StringHash, Urho3D::</text>
<text text-anchor="middle" x="770.5" y="-237" font-family="Helvetica,sans-Serif" font-size="10.00" fill="#000000">SharedPtr&lt; Urho3D::Object &gt; &gt;</text>
</a>
</g>
</g>
<!-- Node10&#45;&gt;Node21 -->
<g id="edge25" class="edge">
<title>Node10&#45;&gt;Node21</title>
<path fill="none" stroke="#191970" d="M536.08,-202.0828C578.1067,-210.763 636.3787,-222.7985 684.3095,-232.6982"/>
<polygon fill="#191970" stroke="#191970" points="536.5319,-198.6023 526.0306,-200.0072 535.1159,-205.4576 536.5319,-198.6023"/>
</g>
<!-- Node23 -->
<g id="node19" class="node">
<title>Node23</title>
<g id="a_node19"><a xlink:href="class_urho3_d_1_1_hash_map.html" target="_top" xlink:title="Urho3D::HashMap\&lt; Urho3D\l::StringHash, Urho3D::\lSharedPtr\&lt; Urho3D::ObjectFactory \&gt; \&gt;">
<polygon fill="none" stroke="#000000" points="667,-110 667,-151 874,-151 874,-110 667,-110"/>
<text text-anchor="start" x="675" y="-139" font-family="Helvetica,sans-Serif" font-size="10.00" fill="#000000">Urho3D::HashMap&lt; Urho3D</text>
<text text-anchor="start" x="675" y="-128" font-family="Helvetica,sans-Serif" font-size="10.00" fill="#000000">::StringHash, Urho3D::</text>
<text text-anchor="middle" x="770.5" y="-117" font-family="Helvetica,sans-Serif" font-size="10.00" fill="#000000">SharedPtr&lt; Urho3D::ObjectFactory &gt; &gt;</text>
</a>
</g>
</g>
<!-- Node10&#45;&gt;Node23 -->
<g id="edge29" class="edge">
<title>Node10&#45;&gt;Node23</title>
<path fill="none" stroke="#191970" d="M535.9503,-178.944C574.213,-171.0412 625.9858,-160.348 671.1565,-151.0184"/>
<polygon fill="#191970" stroke="#191970" points="535.1159,-175.5424 526.0306,-180.9928 536.5319,-182.3977 535.1159,-175.5424"/>
</g>
<!-- Node24 -->
<g id="node20" class="node">
<title>Node24</title>
<g id="a_node20"><a xlink:href="class_urho3_d_1_1_hash_map.html" target="_top" xlink:title="Urho3D::HashMap\&lt; Urho3D\l::String, Urho3D::Vector\l\&lt; Urho3D::StringHash \&gt; \&gt;">
<polygon fill="none" stroke="#000000" points="694.5,-50 694.5,-91 846.5,-91 846.5,-50 694.5,-50"/>
<text text-anchor="start" x="702.5" y="-79" font-family="Helvetica,sans-Serif" font-size="10.00" fill="#000000">Urho3D::HashMap&lt; Urho3D</text>
<text text-anchor="start" x="702.5" y="-68" font-family="Helvetica,sans-Serif" font-size="10.00" fill="#000000">::String, Urho3D::Vector</text>
<text text-anchor="middle" x="770.5" y="-57" font-family="Helvetica,sans-Serif" font-size="10.00" fill="#000000">&lt; Urho3D::StringHash &gt; &gt;</text>
</a>
</g>
</g>
<!-- Node10&#45;&gt;Node24 -->
<g id="edge31" class="edge">
<title>Node10&#45;&gt;Node24</title>
<path fill="none" stroke="#191970" d="M502.6639,-175.2264C533.1161,-155.3454 589.4981,-120.7565 642,-100.5 658.5643,-94.1091 676.8762,-88.8382 694.3595,-84.595"/>
<polygon fill="#191970" stroke="#191970" points="500.4972,-172.4627 494.0787,-180.892 504.3529,-178.3052 500.4972,-172.4627"/>
</g>
<!-- Node25 -->
<g id="node21" class="node">
<title>Node25</title>
<g id="a_node21"><a xlink:href="class_urho3_d_1_1_hash_map.html" target="_top" xlink:title="Urho3D::HashMap\&lt; Urho3D\l::StringHash, Urho3D::\lVector\&lt; Urho3D::AttributeInfo \&gt; \&gt;">
<polygon fill="none" stroke="#000000" points="678,-170 678,-211 863,-211 863,-170 678,-170"/>
<text text-anchor="start" x="686" y="-199" font-family="Helvetica,sans-Serif" font-size="10.00" fill="#000000">Urho3D::HashMap&lt; Urho3D</text>
<text text-anchor="start" x="686" y="-188" font-family="Helvetica,sans-Serif" font-size="10.00" fill="#000000">::StringHash, Urho3D::</text>
<text text-anchor="middle" x="770.5" y="-177" font-family="Helvetica,sans-Serif" font-size="10.00" fill="#000000">Vector&lt; Urho3D::AttributeInfo &gt; &gt;</text>
</a>
</g>
</g>
<!-- Node10&#45;&gt;Node25 -->
<g id="edge33" class="edge">
<title>Node10&#45;&gt;Node25</title>
<path fill="none" stroke="#191970" d="M544.524,-190.5C583.7391,-190.5 634.458,-190.5 677.9067,-190.5"/>
<polygon fill="#191970" stroke="#191970" points="544.3001,-187.0001 534.3,-190.5 544.3,-194.0001 544.3001,-187.0001"/>
</g>
<!-- Node11 -->
<g id="node8" class="node">
<title>Node11</title>
<g id="a_node8"><a xlink:href="struct_urho3_d_1_1_hash_node_base.html" target="_top" xlink:title="Hash set/map node base class. ">
<polygon fill="none" stroke="#000000" points="191,-199 191,-218 325,-218 325,-199 191,-199"/>
<text text-anchor="middle" x="258" y="-206" font-family="Helvetica,sans-Serif" font-size="10.00" fill="#000000">Urho3D::HashNodeBase</text>
</a>
</g>
</g>
<!-- Node11&#45;&gt;Node10 -->
<g id="edge8" class="edge">
<title>Node11&#45;&gt;Node10</title>
<path fill="none" stroke="#9a32cd" stroke-dasharray="5,2" d="M335.5643,-202.211C365.2995,-199.8 398.5655,-197.1028 425.6705,-194.9051"/>
<polygon fill="#9a32cd" stroke="#9a32cd" points="334.8942,-198.7538 325.2098,-203.0506 335.46,-205.7309 334.8942,-198.7538"/>
<text text-anchor="middle" x="369" y="-226.5" font-family="Helvetica,sans-Serif" font-size="10.00" fill="#000000"> ptrs_</text>
<text text-anchor="middle" x="369" y="-215.5" font-family="Helvetica,sans-Serif" font-size="10.00" fill="#000000">tail_</text>
<text text-anchor="middle" x="369" y="-204.5" font-family="Helvetica,sans-Serif" font-size="10.00" fill="#000000">head_</text>
</g>
<!-- Node11&#45;&gt;Node11 -->
<g id="edge9" class="edge">
<title>Node11&#45;&gt;Node11</title>
<path fill="none" stroke="#9a32cd" stroke-dasharray="5,2" d="M237.6306,-227.9C238.991,-232.8146 245.7808,-236.5 258,-236.5 277.5508,-236.5 283.2022,-227.0653 274.9542,-218.2571"/>
<polygon fill="#9a32cd" stroke="#9a32cd" points="241.0065,-228.8518 241.0458,-218.2571 234.4081,-226.5149 241.0065,-228.8518"/>
<text text-anchor="middle" x="258" y="-261.5" font-family="Helvetica,sans-Serif" font-size="10.00" fill="#000000"> next_</text>
<text text-anchor="middle" x="258" y="-250.5" font-family="Helvetica,sans-Serif" font-size="10.00" fill="#000000">prev_</text>
<text text-anchor="middle" x="258" y="-239.5" font-family="Helvetica,sans-Serif" font-size="10.00" fill="#000000">down_</text>
</g>
<!-- Node12 -->
<g id="node9" class="node">
<title>Node12</title>
<g id="a_node9"><a xlink:href="struct_urho3_d_1_1_allocator_block.html" target="_top" xlink:title="Allocator memory block. ">
<polygon fill="none" stroke="#ff0000" points="193,-132 193,-151 323,-151 323,-132 193,-132"/>
<text text-anchor="middle" x="258" y="-139" font-family="Helvetica,sans-Serif" font-size="10.00" fill="#000000">Urho3D::AllocatorBlock</text>
</a>
</g>
</g>
<!-- Node12&#45;&gt;Node10 -->
<g id="edge10" class="edge">
<title>Node12&#45;&gt;Node10</title>
<path fill="none" stroke="#9a32cd" stroke-dasharray="5,2" d="M311.035,-153.2059C349.4421,-161.6832 400.7187,-173.001 436.6743,-180.9371"/>
<polygon fill="#9a32cd" stroke="#9a32cd" points="311.5864,-149.7435 301.0671,-151.0058 310.0776,-156.5789 311.5864,-149.7435"/>
<text text-anchor="middle" x="369" y="-173.5" font-family="Helvetica,sans-Serif" font-size="10.00" fill="#000000"> allocator_</text>
</g>
<!-- Node12&#45;&gt;Node12 -->
<g id="edge11" class="edge">
<title>Node12&#45;&gt;Node12</title>
<path fill="none" stroke="#9a32cd" stroke-dasharray="5,2" d="M237.6306,-160.9C238.991,-165.8146 245.7808,-169.5 258,-169.5 277.5508,-169.5 283.2022,-160.0653 274.9542,-151.2571"/>
<polygon fill="#9a32cd" stroke="#9a32cd" points="241.0065,-161.8518 241.0458,-151.2571 234.4081,-159.5149 241.0065,-161.8518"/>
<text text-anchor="middle" x="258" y="-172.5" font-family="Helvetica,sans-Serif" font-size="10.00" fill="#000000"> next_</text>
</g>
<!-- Node14&#45;&gt;Node8 -->
<g id="edge12" class="edge">
<title>Node14&#45;&gt;Node8</title>
<path fill="none" stroke="#9a32cd" stroke-dasharray="5,2" d="M875.2528,-329.3209C943.0583,-337.6198 1028.2125,-348.042 1080.8666,-354.4865"/>
<polygon fill="#9a32cd" stroke="#9a32cd" points="875.3056,-325.8013 864.9544,-328.0605 874.4551,-332.7495 875.3056,-325.8013"/>
<text text-anchor="middle" x="977.5" y="-352.5" font-family="Helvetica,sans-Serif" font-size="10.00" fill="#000000"> eventReceivers_</text>
</g>
<!-- Node15&#45;&gt;Node8 -->
<g id="edge14" class="edge">
<title>Node15&#45;&gt;Node8</title>
<path fill="none" stroke="#9a32cd" stroke-dasharray="5,2" d="M843.3849,-620.5711C861.748,-617.6446 881.2739,-613.7186 899,-608.5 907.3982,-606.0276 908.9174,-603.8636 917,-600.5 970.264,-578.3337 995.7178,-592.7506 1038,-553.5 1096.2172,-499.4569 1121.3913,-400.9003 1128.0846,-370.0161"/>
<polygon fill="#9a32cd" stroke="#9a32cd" points="842.6844,-617.1372 833.3216,-622.096 843.7331,-624.0582 842.6844,-617.1372"/>
<text text-anchor="middle" x="977.5" y="-603.5" font-family="Helvetica,sans-Serif" font-size="10.00" fill="#000000"> eventHandler_</text>
</g>
<!-- Node26 -->
<g id="node22" class="node">
<title>Node26</title>
<g id="a_node22"><a xlink:href="class_urho3_d_1_1_linked_list.html" target="_top" xlink:title="Urho3D::LinkedList\l\&lt; Urho3D::EventHandler \&gt;">
<polygon fill="none" stroke="#000000" points="1056,-747.5 1056,-777.5 1204,-777.5 1204,-747.5 1056,-747.5"/>
<text text-anchor="start" x="1064" y="-765.5" font-family="Helvetica,sans-Serif" font-size="10.00" fill="#000000">Urho3D::LinkedList</text>
<text text-anchor="middle" x="1130" y="-754.5" font-family="Helvetica,sans-Serif" font-size="10.00" fill="#000000">&lt; Urho3D::EventHandler &gt;</text>
</a>
</g>
</g>
<!-- Node15&#45;&gt;Node26 -->
<g id="edge35" class="edge">
<title>Node15&#45;&gt;Node26</title>
<path fill="none" stroke="#9a32cd" stroke-dasharray="5,2" d="M843.4389,-628.1627C863.559,-631.5062 883.9643,-638.591 899,-652.5 921.6343,-673.4381 894.3992,-698.5257 917,-719.5 957.1244,-756.7368 984.3608,-731.5737 1038,-742.5 1045.6879,-744.066 1053.7271,-745.7479 1061.7158,-747.4472"/>
<polygon fill="#9a32cd" stroke="#9a32cd" points="843.6752,-624.6625 833.2928,-626.7735 842.7256,-631.5977 843.6752,-624.6625"/>
<text text-anchor="middle" x="977.5" y="-745.5" font-family="Helvetica,sans-Serif" font-size="10.00" fill="#000000"> head_</text>
</g>
<!-- Node16 -->
<g id="node12" class="node">
<title>Node16</title>
<g id="a_node12"><a xlink:href="struct_urho3_d_1_1_linked_list_node.html" target="_top" xlink:title="Singly&#45;linked list node base class. ">
<polygon fill="none" stroke="#000000" points="413,-603 413,-622 547,-622 547,-603 413,-603"/>
<text text-anchor="middle" x="480" y="-610" font-family="Helvetica,sans-Serif" font-size="10.00" fill="#000000">Urho3D::LinkedListNode</text>
</a>
</g>
</g>
<!-- Node16&#45;&gt;Node15 -->
<g id="edge15" class="edge">
<title>Node16&#45;&gt;Node15</title>
<path fill="none" stroke="#191970" d="M557.1721,-615.3379C578.8008,-616.2359 602.3239,-617.3088 624,-618.5 651.4912,-620.0107 681.8605,-622.0266 707.7868,-623.8525"/>
<polygon fill="#191970" stroke="#191970" points="557.188,-611.8357 547.0535,-614.9246 556.9023,-618.8299 557.188,-611.8357"/>
</g>
<!-- Node16&#45;&gt;Node16 -->
<g id="edge16" class="edge">
<title>Node16&#45;&gt;Node16</title>
<path fill="none" stroke="#9a32cd" stroke-dasharray="5,2" d="M459.6306,-631.9C460.991,-636.8146 467.7808,-640.5 480,-640.5 499.5508,-640.5 505.2022,-631.0653 496.9542,-622.2571"/>
<polygon fill="#9a32cd" stroke="#9a32cd" points="463.0065,-632.8518 463.0458,-622.2571 456.4081,-630.5149 463.0065,-632.8518"/>
<text text-anchor="middle" x="480" y="-643.5" font-family="Helvetica,sans-Serif" font-size="10.00" fill="#000000"> next_</text>
</g>
<!-- Node17 -->
<g id="node13" class="node">
<title>Node17</title>
<g id="a_node13"><a xlink:href="class_urho3_d_1_1_string_hash.html" target="_top" xlink:title="32&#45;bit hash value for a string. ">
<polygon fill="none" stroke="#000000" points="423.5,-536 423.5,-555 536.5,-555 536.5,-536 423.5,-536"/>
<text text-anchor="middle" x="480" y="-543" font-family="Helvetica,sans-Serif" font-size="10.00" fill="#000000">Urho3D::StringHash</text>
</a>
</g>
</g>
<!-- Node17&#45;&gt;Node15 -->
<g id="edge18" class="edge">
<title>Node17&#45;&gt;Node15</title>
<path fill="none" stroke="#9a32cd" stroke-dasharray="5,2" d="M514.1836,-558.7969C561.6855,-577.2739 641.8974,-608.4724 642,-608.5 663.1492,-614.1861 686.7201,-618.4347 707.841,-621.5186"/>
<polygon fill="#9a32cd" stroke="#9a32cd" points="515.173,-555.4263 504.5844,-555.063 512.6353,-561.9501 515.173,-555.4263"/>
<text text-anchor="middle" x="594.5" y="-604.5" font-family="Helvetica,sans-Serif" font-size="10.00" fill="#000000"> eventType_</text>
</g>
<!-- Node17&#45;&gt;Node17 -->
<g id="edge19" class="edge">
<title>Node17&#45;&gt;Node17</title>
<path fill="none" stroke="#9a32cd" stroke-dasharray="5,2" d="M459.6306,-564.9C460.991,-569.8146 467.7808,-573.5 480,-573.5 499.5508,-573.5 505.2022,-564.0653 496.9542,-555.2571"/>
<polygon fill="#9a32cd" stroke="#9a32cd" points="463.0065,-565.8518 463.0458,-555.2571 456.4081,-563.5149 463.0065,-565.8518"/>
<text text-anchor="middle" x="480" y="-576.5" font-family="Helvetica,sans-Serif" font-size="10.00" fill="#000000"> ZERO</text>
</g>
<!-- Node18 -->
<g id="node14" class="node">
<title>Node18</title>
<g id="a_node14"><a xlink:href="class_urho3_d_1_1_p_o_d_vector.html" target="_top" xlink:title="Urho3D::PODVector\&lt;\l Urho3D::Object *\&gt;">
<polygon fill="none" stroke="#000000" points="711,-471.5 711,-501.5 830,-501.5 830,-471.5 711,-471.5"/>
<text text-anchor="start" x="719" y="-489.5" font-family="Helvetica,sans-Serif" font-size="10.00" fill="#000000">Urho3D::PODVector&lt;</text>
<text text-anchor="middle" x="770.5" y="-478.5" font-family="Helvetica,sans-Serif" font-size="10.00" fill="#000000"> Urho3D::Object *&gt;</text>
</a>
</g>
</g>
<!-- Node18&#45;&gt;Node8 -->
<g id="edge20" class="edge">
<title>Node18&#45;&gt;Node8</title>
<path fill="none" stroke="#9a32cd" stroke-dasharray="5,2" d="M840.281,-491.3584C896.4965,-492.377 976.0841,-487.1128 1038,-456.5 1078.7657,-436.3444 1111.2709,-390.3604 1124.0884,-370.2352"/>
<polygon fill="#9a32cd" stroke="#9a32cd" points="840.1512,-487.8541 830.0658,-491.0998 839.974,-494.8519 840.1512,-487.8541"/>
<text text-anchor="middle" x="977.5" y="-491.5" font-family="Helvetica,sans-Serif" font-size="10.00" fill="#000000"> eventSenders_</text>
</g>
<!-- Node19 -->
<g id="node15" class="node">
<title>Node19</title>
<g id="a_node15"><a xlink:href="class_urho3_d_1_1_vector_base.html" target="_top" xlink:title="Vector base class. ">
<polygon fill="none" stroke="#000000" points="423,-498 423,-517 537,-517 537,-498 423,-498"/>
<text text-anchor="middle" x="480" y="-505" font-family="Helvetica,sans-Serif" font-size="10.00" fill="#000000">Urho3D::VectorBase</text>
</a>
</g>
</g>
<!-- Node19&#45;&gt;Node18 -->
<g id="edge21" class="edge">
<title>Node19&#45;&gt;Node18</title>
<path fill="none" stroke="#191970" d="M547.3232,-502.6333C596.759,-499.0596 663.3031,-494.2492 710.8373,-490.813"/>
<polygon fill="#191970" stroke="#191970" points="546.7684,-499.1641 537.0468,-503.3761 547.2732,-506.1459 546.7684,-499.1641"/>
</g>
<!-- Node22 -->
<g id="node18" class="node">
<title>Node22</title>
<g id="a_node18"><a xlink:href="class_urho3_d_1_1_p_o_d_vector.html" target="_top" xlink:title="Urho3D::PODVector\&lt;\l Urho3D::HashMap *\&gt;">
<polygon fill="none" stroke="#000000" points="708.5,-520.5 708.5,-550.5 832.5,-550.5 832.5,-520.5 708.5,-520.5"/>
<text text-anchor="start" x="716.5" y="-538.5" font-family="Helvetica,sans-Serif" font-size="10.00" fill="#000000">Urho3D::PODVector&lt;</text>
<text text-anchor="middle" x="770.5" y="-527.5" font-family="Helvetica,sans-Serif" font-size="10.00" fill="#000000"> Urho3D::HashMap *&gt;</text>
</a>
</g>
</g>
<!-- Node19&#45;&gt;Node22 -->
<g id="edge27" class="edge">
<title>Node19&#45;&gt;Node22</title>
<path fill="none" stroke="#191970" d="M547.1495,-513.9722C595.7313,-518.6548 660.9035,-524.9365 708.3034,-529.5051"/>
<polygon fill="#191970" stroke="#191970" points="547.3365,-510.4741 537.0468,-512.9985 546.6649,-517.4418 547.3365,-510.4741"/>
</g>
<!-- Node29 -->
<g id="node25" class="node">
<title>Node29</title>
<g id="a_node25"><a xlink:href="class_urho3_d_1_1_p_o_d_vector.html" target="_top" xlink:title="Urho3D::PODVector\&lt;\l Urho3D::ProfilerBlock *\&gt;">
<polygon fill="none" stroke="#000000" points="700.5,-569.5 700.5,-599.5 840.5,-599.5 840.5,-569.5 700.5,-569.5"/>
<text text-anchor="start" x="708.5" y="-587.5" font-family="Helvetica,sans-Serif" font-size="10.00" fill="#000000">Urho3D::PODVector&lt;</text>
<text text-anchor="middle" x="770.5" y="-576.5" font-family="Helvetica,sans-Serif" font-size="10.00" fill="#000000"> Urho3D::ProfilerBlock *&gt;</text>
</a>
</g>
</g>
<!-- Node19&#45;&gt;Node29 -->
<g id="edge39" class="edge">
<title>Node19&#45;&gt;Node29</title>
<path fill="none" stroke="#191970" d="M525.089,-519.8991C532.4338,-522.0299 539.9442,-524.2761 547,-526.5 589.6298,-539.9362 598.8427,-547.8694 642,-559.5 660.7625,-564.5564 681.3258,-569.0239 700.3942,-572.7319"/>
<polygon fill="#191970" stroke="#191970" points="525.8116,-516.4654 515.2345,-517.0778 523.8849,-523.195 525.8116,-516.4654"/>
</g>
<!-- Node20&#45;&gt;Node8 -->
<g id="edge22" class="edge">
<title>Node20&#45;&gt;Node8</title>
<path fill="none" stroke="#9a32cd" stroke-dasharray="5,2" d="M866.9181,-9.3873C923.1324,-11.0174 991.8281,-22.6781 1038,-63.5 1083.6976,-103.9026 1120.4113,-304.4387 1128.3885,-350.8845"/>
<polygon fill="#9a32cd" stroke="#9a32cd" points="866.6386,-5.8816 856.5752,-9.1949 866.5083,-12.8804 866.6386,-5.8816"/>
<text text-anchor="middle" x="977.5" y="-66.5" font-family="Helvetica,sans-Serif" font-size="10.00" fill="#000000"> globalVars_</text>
</g>
<!-- Node21&#45;&gt;Node8 -->
<g id="edge24" class="edge">
<title>Node21&#45;&gt;Node8</title>
<path fill="none" stroke="#9a32cd" stroke-dasharray="5,2" d="M866.417,-271.2127C917.9544,-283.4338 982.1936,-300.4344 1038,-320.5 1063.4035,-329.634 1091.7714,-342.371 1110.2014,-350.9995"/>
<polygon fill="#9a32cd" stroke="#9a32cd" points="867.1519,-267.7901 856.6164,-268.9098 865.5506,-274.6045 867.1519,-267.7901"/>
<text text-anchor="middle" x="977.5" y="-323.5" font-family="Helvetica,sans-Serif" font-size="10.00" fill="#000000"> subsystems_</text>
</g>
<!-- Node22&#45;&gt;Node8 -->
<g id="edge26" class="edge">
<title>Node22&#45;&gt;Node8</title>
<path fill="none" stroke="#9a32cd" stroke-dasharray="5,2" d="M842.7969,-542.8628C899.9858,-545.1177 979.6485,-540.009 1038,-503.5 1090.0536,-470.9315 1118.2545,-396.8845 1126.9998,-370.2618"/>
<polygon fill="#9a32cd" stroke="#9a32cd" points="842.9041,-539.364 832.7483,-542.3822 842.5697,-546.356 842.9041,-539.364"/>
<text text-anchor="middle" x="977.5" y="-543.5" font-family="Helvetica,sans-Serif" font-size="10.00" fill="#000000"> eventDataMaps_</text>
</g>
<!-- Node23&#45;&gt;Node8 -->
<g id="edge28" class="edge">
<title>Node23&#45;&gt;Node8</title>
<path fill="none" stroke="#9a32cd" stroke-dasharray="5,2" d="M884.1992,-138.3025C935.4977,-146.7035 994.2496,-163.6465 1038,-197.5 1091.9691,-239.2607 1119.3031,-322.1925 1127.3837,-350.6478"/>
<polygon fill="#9a32cd" stroke="#9a32cd" points="884.4627,-134.8018 874.0455,-136.7337 883.3938,-141.7197 884.4627,-134.8018"/>
<text text-anchor="middle" x="977.5" y="-200.5" font-family="Helvetica,sans-Serif" font-size="10.00" fill="#000000"> factories_</text>
</g>
<!-- Node24&#45;&gt;Node8 -->
<g id="edge30" class="edge">
<title>Node24&#45;&gt;Node8</title>
<path fill="none" stroke="#9a32cd" stroke-dasharray="5,2" d="M856.7807,-70.2371C914.21,-74.4425 988.0123,-88.838 1038,-131.5 1109.0462,-192.1345 1125.8064,-315.5622 1129.2167,-350.8688"/>
<polygon fill="#9a32cd" stroke="#9a32cd" points="856.8255,-66.7329 846.6221,-69.5859 856.3776,-73.7186 856.8255,-66.7329"/>
<text text-anchor="middle" x="977.5" y="-134.5" font-family="Helvetica,sans-Serif" font-size="10.00" fill="#000000"> objectCategories_</text>
</g>
<!-- Node25&#45;&gt;Node8 -->
<g id="edge32" class="edge">
<title>Node25&#45;&gt;Node8</title>
<path fill="none" stroke="#9a32cd" stroke-dasharray="5,2" d="M873.1545,-202.2517C925.4672,-211.7631 988.3407,-228.8641 1038,-259.5 1077.7672,-284.0333 1110.8106,-330.6183 1123.9293,-350.788"/>
<polygon fill="#9a32cd" stroke="#9a32cd" points="873.6316,-198.7821 863.1779,-200.5057 872.4248,-205.6773 873.6316,-198.7821"/>
<text text-anchor="middle" x="977.5" y="-273.5" font-family="Helvetica,sans-Serif" font-size="10.00" fill="#000000"> attributes_</text>
<text text-anchor="middle" x="977.5" y="-262.5" font-family="Helvetica,sans-Serif" font-size="10.00" fill="#000000">networkAttributes_</text>
</g>
<!-- Node26&#45;&gt;Node5 -->
<g id="edge34" class="edge">
<title>Node26&#45;&gt;Node5</title>
<path fill="none" stroke="#9a32cd" stroke-dasharray="5,2" d="M1045.4798,-764.1598C947.4698,-764.5102 781.508,-760.2282 642,-732.5 591.2077,-722.4047 534.1553,-701.3446 503.1368,-689.0282"/>
<polygon fill="#9a32cd" stroke="#9a32cd" points="1045.6446,-767.6591 1055.6259,-764.1061 1045.6074,-760.6592 1045.6446,-767.6591"/>
<text text-anchor="middle" x="770.5" y="-763.5" font-family="Helvetica,sans-Serif" font-size="10.00" fill="#000000"> eventHandlers_</text>
</g>
<!-- Node27 -->
<g id="node23" class="node">
<title>Node27</title>
<g id="a_node23"><a xlink:href="class_urho3_d_1_1_profiler_block.html" target="_top" xlink:title="Profiling data for one block in the profiling tree. ">
<polygon fill="none" stroke="#000000" points="1069.5,-680 1069.5,-699 1190.5,-699 1190.5,-680 1069.5,-680"/>
<text text-anchor="middle" x="1130" y="-687" font-family="Helvetica,sans-Serif" font-size="10.00" fill="#000000">Urho3D::ProfilerBlock</text>
</a>
</g>
</g>
<!-- Node27&#45;&gt;Node4 -->
<g id="edge36" class="edge">
<title>Node27&#45;&gt;Node4</title>
<path fill="none" stroke="#9a32cd" stroke-dasharray="5,2" d="M1163.6515,-702.8239C1203.2665,-718.5091 1268.0676,-744.1664 1302.9548,-757.9796"/>
<polygon fill="#9a32cd" stroke="#9a32cd" points="1164.7423,-699.4915 1154.1561,-699.0643 1162.1653,-705.9999 1164.7423,-699.4915"/>
<text text-anchor="middle" x="1242" y="-753.5" font-family="Helvetica,sans-Serif" font-size="10.00" fill="#000000"> root_</text>
<text text-anchor="middle" x="1242" y="-742.5" font-family="Helvetica,sans-Serif" font-size="10.00" fill="#000000">current_</text>
</g>
<!-- Node27&#45;&gt;Node27 -->
<g id="edge40" class="edge">
<title>Node27&#45;&gt;Node27</title>
<path fill="none" stroke="#9a32cd" stroke-dasharray="5,2" d="M1109.2603,-708.9C1110.6454,-713.8146 1117.5586,-717.5 1130,-717.5 1149.9063,-717.5 1155.6604,-708.0653 1147.2625,-699.2571"/>
<polygon fill="#9a32cd" stroke="#9a32cd" points="1112.6378,-709.8514 1112.7375,-699.2571 1106.0528,-707.4768 1112.6378,-709.8514"/>
<text text-anchor="middle" x="1130" y="-720.5" font-family="Helvetica,sans-Serif" font-size="10.00" fill="#000000"> parent_</text>
</g>
<!-- Node28 -->
<g id="node24" class="node">
<title>Node28</title>
<g id="a_node24"><a xlink:href="class_urho3_d_1_1_hires_timer.html" target="_top" xlink:title="High&#45;resolution operating system timer used in profiling. ">
<polygon fill="none" stroke="#000000" points="714,-704 714,-723 827,-723 827,-704 714,-704"/>
<text text-anchor="middle" x="770.5" y="-711" font-family="Helvetica,sans-Serif" font-size="10.00" fill="#000000">Urho3D::HiresTimer</text>
</a>
</g>
</g>
<!-- Node28&#45;&gt;Node27 -->
<g id="edge37" class="edge">
<title>Node28&#45;&gt;Node27</title>
<path fill="none" stroke="#9a32cd" stroke-dasharray="5,2" d="M837.4324,-709.0316C903.9325,-704.5921 1005.0133,-697.844 1069.2592,-693.555"/>
<polygon fill="#9a32cd" stroke="#9a32cd" points="836.812,-705.5652 827.0673,-709.7236 837.2783,-712.5496 836.812,-705.5652"/>
<text text-anchor="middle" x="977.5" y="-707.5" font-family="Helvetica,sans-Serif" font-size="10.00" fill="#000000"> timer_</text>
</g>
<!-- Node29&#45;&gt;Node27 -->
<g id="edge38" class="edge">
<title>Node29&#45;&gt;Node27</title>
<path fill="none" stroke="#9a32cd" stroke-dasharray="5,2" d="M850.5506,-598.2579C866.6868,-601.5397 883.4604,-605.32 899,-609.5 976.0503,-630.226 1064.5128,-663.6552 1106.0721,-679.9521"/>
<polygon fill="#9a32cd" stroke="#9a32cd" points="851.0933,-594.7974 840.6027,-596.2798 849.728,-601.663 851.0933,-594.7974"/>
<text text-anchor="middle" x="977.5" y="-657.5" font-family="Helvetica,sans-Serif" font-size="10.00" fill="#000000"> children_</text>
</g>
</g>
</svg>
