<?xml version="1.0" encoding="UTF-8" standalone="no"?>
<!DOCTYPE svg PUBLIC "-//W3C//DTD SVG 1.1//EN"
 "http://www.w3.org/Graphics/SVG/1.1/DTD/svg11.dtd">
<!-- Generated by graphviz version 2.26.3 (20100126.1600)
 -->
<!-- Title: Urho3D::NamedPipe Pages: 1 -->
<!--zoomable 925 -->
<svg id="main" version="1.1" xmlns="http://www.w3.org/2000/svg" xmlns:xlink="http://www.w3.org/1999/xlink" xml:space="preserve" onload="init(evt)">
        <defs>
                <circle id="rim" cx="0" cy="0" r="7"/>
                <circle id="rim2" cx="0" cy="0" r="3.5"/>
                <g id="zoomPlus">
                        <use xlink:href="#rim" fill="#404040">
                                <set attributeName="fill" to="#808080" begin="zoomplus.mouseover" end="zoomplus.mouseout"/>
                        </use>
                        <path d="M-4,0h8M0,-4v8" fill="none" stroke="white" stroke-width="1.5" pointer-events="none"/>
                </g>
                <g id="zoomMin">
                        <use xlink:href="#rim" fill="#404040">
                                <set attributeName="fill" to="#808080" begin="zoomminus.mouseover" end="zoomminus.mouseout"/>
                        </use>
                        <path d="M-4,0h8" fill="none" stroke="white" stroke-width="1.5" pointer-events="none"/>
                </g>
                <g id="dirArrow">
                        <path fill="none" stroke="white" stroke-width="1.5" d="M0,-3.0v7 M-2.5,-0.5L0,-3.0L2.5,-0.5"/>
                </g>
               <g id="resetDef">
                       <use xlink:href="#rim2" fill="#404040">
                               <set attributeName="fill" to="#808080" begin="reset.mouseover" end="reset.mouseout"/>
                       </use>
               </g>
        </defs>

<script type="text/javascript">
var viewWidth = 1146;
var viewHeight = 925;
var sectionId = 'dynsection-1';
</script>
<script xlink:href="svgpan.js"/>
<svg id="graph" class="graph">
<g id="viewport">
<title>Urho3D::NamedPipe</title>
<!-- Node1 -->
<g id="node1" class="node"><title>Node1</title>
<polygon fill="#bfbfbf" stroke="black" points="679.5,-839.5 679.5,-860.5 794.5,-860.5 794.5,-839.5 679.5,-839.5"/>
<text text-anchor="middle" x="737" y="-847.5" font-family="FreeSans" font-size="10.00">Urho3D::NamedPipe</text>
</g>
<!-- Node2 -->
<g id="node2" class="node"><title>Node2</title>
<a xlink:href="class_urho3_d_1_1_object.html" target="_top" xlink:title="Base class for objects with type identification, subsystem access and event sending/receiving capabil...">
<polygon fill="none" stroke="black" points="429,-744.5 429,-765.5 519,-765.5 519,-744.5 429,-744.5"/>
<text text-anchor="middle" x="474" y="-752.5" font-family="FreeSans" font-size="10.00">Urho3D::Object</text>
</a>
</g>
<!-- Node2&#45;&gt;Node1 -->
<g id="edge2" class="edge"><title>Node2&#45;&gt;Node1</title>
<path fill="none" stroke="midnightblue" d="M520.133,-768.532C526.822,-770.624 533.605,-772.817 540,-775 601.994,-796.165 673.608,-824.4 711.08,-839.471"/>
<polygon fill="midnightblue" stroke="midnightblue" points="521.043,-765.15 510.456,-765.553 518.983,-771.84 521.043,-765.15"/>
</g>
<!-- Node12 -->
<g id="node25" class="node"><title>Node12</title>
<a xlink:href="class_urho3_d_1_1_event_handler.html" target="_top" xlink:title="Internal helper class for invoking event handler functions.">
<polygon fill="none" stroke="black" points="675,-630.5 675,-651.5 799,-651.5 799,-630.5 675,-630.5"/>
<text text-anchor="middle" x="737" y="-638.5" font-family="FreeSans" font-size="10.00">Urho3D::EventHandler</text>
</a>
</g>
<!-- Node2&#45;&gt;Node12 -->
<g id="edge34" class="edge"><title>Node2&#45;&gt;Node12</title>
<path fill="none" stroke="#9a32cd" stroke-dasharray="5,2" d="M528.328,-743.621C532.608,-741.264 536.587,-738.423 540,-735 559.659,-715.286 537.319,-693.639 558,-675 575.035,-659.646 630.199,-650.778 674.833,-645.974"/>
<polygon fill="#9a32cd" stroke="#9a32cd" points="526.83,-740.457 519.202,-747.811 529.751,-746.819 526.83,-740.457"/>
<text text-anchor="middle" x="587" y="-692" font-family="FreeSans" font-size="10.00"> sender_</text>
<text text-anchor="middle" x="587" y="-679" font-family="FreeSans" font-size="10.00">receiver_</text>
</g>
<!-- Node3 -->
<g id="node4" class="node"><title>Node3</title>
<a xlink:href="class_urho3_d_1_1_ref_counted.html" target="_top" xlink:title="Base class for intrusively reference&#45;counted objects. These are noncopyable and non&#45;assignable.">
<polygon fill="none" stroke="black" points="198,-575.5 198,-596.5 312,-596.5 312,-575.5 198,-575.5"/>
<text text-anchor="middle" x="255" y="-583.5" font-family="FreeSans" font-size="10.00">Urho3D::RefCounted</text>
</a>
</g>
<!-- Node3&#45;&gt;Node2 -->
<g id="edge4" class="edge"><title>Node3&#45;&gt;Node2</title>
<path fill="none" stroke="midnightblue" d="M269.188,-604.764C293.953,-636.239 348.168,-699.686 408,-735 414.393,-738.773 421.56,-741.892 428.752,-744.452"/>
<polygon fill="midnightblue" stroke="midnightblue" points="271.896,-602.545 263.004,-596.784 266.363,-606.833 271.896,-602.545"/>
</g>
<!-- Node5 -->
<g id="node8" class="node"><title>Node5</title>
<a xlink:href="class_urho3_d_1_1_context.html" target="_top" xlink:title="Urho3D execution context. Provides access to subsystems, object factories and attributes, and event receivers.">
<polygon fill="none" stroke="black" points="1016.5,-393.5 1016.5,-414.5 1113.5,-414.5 1113.5,-393.5 1016.5,-393.5"/>
<text text-anchor="middle" x="1065" y="-401.5" font-family="FreeSans" font-size="10.00">Urho3D::Context</text>
</a>
</g>
<!-- Node3&#45;&gt;Node5 -->
<g id="edge10" class="edge"><title>Node3&#45;&gt;Node5</title>
<path fill="none" stroke="midnightblue" d="M322.214,-588.581C479.629,-593.407 866.961,-597.838 974,-530 1020.04,-500.822 1050.08,-439.24 1060.71,-414.559"/>
<polygon fill="midnightblue" stroke="midnightblue" points="322.289,-585.082 312.183,-588.264 322.067,-592.079 322.289,-585.082"/>
</g>
<!-- Node4 -->
<g id="node6" class="node"><title>Node4</title>
<a xlink:href="struct_urho3_d_1_1_ref_count.html" target="_top" xlink:title="Reference count structure.">
<polygon fill="none" stroke="black" points="0,-575.5 0,-596.5 102,-596.5 102,-575.5 0,-575.5"/>
<text text-anchor="middle" x="51" y="-583.5" font-family="FreeSans" font-size="10.00">Urho3D::RefCount</text>
</a>
</g>
<!-- Node4&#45;&gt;Node3 -->
<g id="edge6" class="edge"><title>Node4&#45;&gt;Node3</title>
<path fill="none" stroke="#9a32cd" stroke-dasharray="5,2" d="M112.345,-586C139.414,-586 171.051,-586 197.643,-586"/>
<polygon fill="#9a32cd" stroke="#9a32cd" points="112.215,-582.5 102.214,-586 112.214,-589.5 112.215,-582.5"/>
<text text-anchor="middle" x="145" y="-590" font-family="FreeSans" font-size="10.00"> refCount_</text>
</g>
<!-- Node5&#45;&gt;Node2 -->
<g id="edge8" class="edge"><title>Node5&#45;&gt;Node2</title>
<path fill="none" stroke="#9a32cd" stroke-dasharray="5,2" d="M1061.74,-424.737C1051.64,-486.267 1018.75,-665.719 974,-701 944.276,-724.432 671.518,-716.998 634,-722 593.938,-727.341 548.9,-736.961 516.84,-744.441"/>
<polygon fill="#9a32cd" stroke="#9a32cd" points="1065.23,-425.111 1063.37,-414.681 1058.32,-423.997 1065.23,-425.111"/>
<text text-anchor="middle" x="737" y="-726" font-family="FreeSans" font-size="10.00"> context_</text>
</g>
<!-- Node6 -->
<g id="node11" class="node"><title>Node6</title>
<a xlink:href="class_urho3_d_1_1_p_o_d_vector.html" target="_top" xlink:title="Urho3D::PODVector\&lt;\l Urho3D::Object * \&gt;">
<polygon fill="none" stroke="black" points="677.5,-460 677.5,-494 796.5,-494 796.5,-460 677.5,-460"/>
<text text-anchor="start" x="685.5" y="-481" font-family="FreeSans" font-size="10.00">Urho3D::PODVector&lt;</text>
<text text-anchor="middle" x="737" y="-468" font-family="FreeSans" font-size="10.00"> Urho3D::Object * &gt;</text>
</a>
</g>
<!-- Node6&#45;&gt;Node5 -->
<g id="edge12" class="edge"><title>Node6&#45;&gt;Node5</title>
<path fill="none" stroke="#9a32cd" stroke-dasharray="5,2" d="M807.081,-466.907C854.551,-459.431 918.496,-448.111 974,-434 995.12,-428.63 1018.45,-420.901 1036.21,-414.632"/>
<polygon fill="#9a32cd" stroke="#9a32cd" points="806.25,-463.494 796.907,-468.49 807.326,-470.41 806.25,-463.494"/>
<text text-anchor="middle" x="916" y="-463" font-family="FreeSans" font-size="10.00"> eventSenders_</text>
</g>
<!-- Node7 -->
<g id="node13" class="node"><title>Node7</title>
<a xlink:href="class_urho3_d_1_1_vector_base.html" target="_top" xlink:title="Vector base class.">
<polygon fill="none" stroke="black" points="417,-486.5 417,-507.5 531,-507.5 531,-486.5 417,-486.5"/>
<text text-anchor="middle" x="474" y="-494.5" font-family="FreeSans" font-size="10.00">Urho3D::VectorBase</text>
</a>
</g>
<!-- Node7&#45;&gt;Node6 -->
<g id="edge14" class="edge"><title>Node7&#45;&gt;Node6</title>
<path fill="none" stroke="midnightblue" d="M541.205,-491.889C583.203,-488.696 636.807,-484.619 677.306,-481.539"/>
<polygon fill="midnightblue" stroke="midnightblue" points="540.773,-488.412 531.067,-492.66 541.304,-495.392 540.773,-488.412"/>
</g>
<!-- Node18 -->
<g id="node43" class="node"><title>Node18</title>
<a xlink:href="class_urho3_d_1_1_p_o_d_vector.html" target="_top" xlink:title="Urho3D::PODVector\&lt;\l Urho3D::HashMap * \&gt;">
<polygon fill="none" stroke="black" points="673.5,-512 673.5,-546 800.5,-546 800.5,-512 673.5,-512"/>
<text text-anchor="start" x="681.5" y="-533" font-family="FreeSans" font-size="10.00">Urho3D::PODVector&lt;</text>
<text text-anchor="middle" x="737" y="-520" font-family="FreeSans" font-size="10.00"> Urho3D::HashMap * &gt;</text>
</a>
</g>
<!-- Node7&#45;&gt;Node18 -->
<g id="edge54" class="edge"><title>Node7&#45;&gt;Node18</title>
<path fill="none" stroke="midnightblue" d="M541.136,-505.169C581.714,-510.106 633.146,-516.364 673.123,-521.228"/>
<polygon fill="midnightblue" stroke="midnightblue" points="541.417,-501.677 531.067,-503.944 540.571,-508.626 541.417,-501.677"/>
</g>
<!-- Node8 -->
<g id="node15" class="node"><title>Node8</title>
<a xlink:href="class_urho3_d_1_1_hash_map.html" target="_top" xlink:title="Urho3D::HashMap\&lt; Urho3D\l::Object *, Urho3D::HashMap\l\&lt; Urho3D::StringHash, Urho3D\l::EventReceiverGroup \&gt; \&gt;">
<polygon fill="none" stroke="black" points="653.5,-264 653.5,-324 820.5,-324 820.5,-264 653.5,-264"/>
<text text-anchor="start" x="661.5" y="-311" font-family="FreeSans" font-size="10.00">Urho3D::HashMap&lt; Urho3D</text>
<text text-anchor="start" x="661.5" y="-298" font-family="FreeSans" font-size="10.00">::Object *, Urho3D::HashMap</text>
<text text-anchor="start" x="661.5" y="-285" font-family="FreeSans" font-size="10.00">&lt; Urho3D::StringHash, Urho3D</text>
<text text-anchor="middle" x="737" y="-272" font-family="FreeSans" font-size="10.00">::EventReceiverGroup &gt; &gt;</text>
</a>
</g>
<!-- Node8&#45;&gt;Node5 -->
<g id="edge16" class="edge"><title>Node8&#45;&gt;Node5</title>
<path fill="none" stroke="#9a32cd" stroke-dasharray="5,2" d="M830.47,-318.65C874.45,-330.998 927.363,-346.941 974,-364 997.987,-372.774 1024.65,-384.772 1042.88,-393.334"/>
<polygon fill="#9a32cd" stroke="#9a32cd" points="831.223,-315.226 820.651,-315.911 829.343,-321.969 831.223,-315.226"/>
<text text-anchor="middle" x="916" y="-368" font-family="FreeSans" font-size="10.00"> specificEventReceivers_</text>
</g>
<!-- Node9 -->
<g id="node17" class="node"><title>Node9</title>
<a xlink:href="class_urho3_d_1_1_hash_base.html" target="_top" xlink:title="Hash set/map base class.">
<polygon fill="none" stroke="black" points="420,-211.5 420,-232.5 528,-232.5 528,-211.5 420,-211.5"/>
<text text-anchor="middle" x="474" y="-219.5" font-family="FreeSans" font-size="10.00">Urho3D::HashBase</text>
</a>
</g>
<!-- Node9&#45;&gt;Node8 -->
<g id="edge18" class="edge"><title>Node9&#45;&gt;Node8</title>
<path fill="none" stroke="midnightblue" d="M522.437,-235.26C559.012,-245.273 610.104,-259.26 653.256,-271.074"/>
<polygon fill="midnightblue" stroke="midnightblue" points="523.093,-231.811 512.524,-232.547 521.245,-238.563 523.093,-231.811"/>
</g>
<!-- Node15 -->
<g id="node34" class="node"><title>Node15</title>
<a xlink:href="class_urho3_d_1_1_hash_map.html" target="_top" xlink:title="Urho3D::HashMap\&lt; Urho3D\l::StringHash, Urho3D::\lEventReceiverGroup \&gt;">
<polygon fill="none" stroke="black" points="661,-0.5 661,-47.5 813,-47.5 813,-0.5 661,-0.5"/>
<text text-anchor="start" x="669" y="-34.5" font-family="FreeSans" font-size="10.00">Urho3D::HashMap&lt; Urho3D</text>
<text text-anchor="start" x="669" y="-21.5" font-family="FreeSans" font-size="10.00">::StringHash, Urho3D::</text>
<text text-anchor="middle" x="737" y="-8.5" font-family="FreeSans" font-size="10.00">EventReceiverGroup &gt;</text>
</a>
</g>
<!-- Node9&#45;&gt;Node15 -->
<g id="edge42" class="edge"><title>Node9&#45;&gt;Node15</title>
<path fill="none" stroke="midnightblue" d="M487.018,-202.917C511.594,-168.39 568.292,-95.5635 634,-57 642.34,-52.1053 651.493,-47.8444 660.794,-44.1604"/>
<polygon fill="midnightblue" stroke="midnightblue" points="484.085,-201.005 481.216,-211.204 489.819,-205.019 484.085,-201.005"/>
</g>
<!-- Node16 -->
<g id="node37" class="node"><title>Node16</title>
<a xlink:href="class_urho3_d_1_1_hash_map.html" target="_top" xlink:title="Urho3D::HashMap\&lt; StringHash,\l Variant \&gt;">
<polygon fill="none" stroke="black" points="651,-408 651,-442 823,-442 823,-408 651,-408"/>
<text text-anchor="start" x="659" y="-429" font-family="FreeSans" font-size="10.00">Urho3D::HashMap&lt; StringHash,</text>
<text text-anchor="middle" x="737" y="-416" font-family="FreeSans" font-size="10.00"> Variant &gt;</text>
</a>
</g>
<!-- Node9&#45;&gt;Node16 -->
<g id="edge46" class="edge"><title>Node9&#45;&gt;Node16</title>
<path fill="none" stroke="midnightblue" d="M485.798,-241.761C509.099,-278.938 564.814,-359.127 634,-399 639.912,-402.407 646.267,-405.373 652.813,-407.953"/>
<polygon fill="midnightblue" stroke="midnightblue" points="488.56,-239.57 480.341,-232.884 482.596,-243.236 488.56,-239.57"/>
</g>
<!-- Node17 -->
<g id="node40" class="node"><title>Node17</title>
<a xlink:href="class_urho3_d_1_1_hash_map.html" target="_top" xlink:title="Urho3D::HashMap\&lt; Urho3D\l::StringHash, Urho3D::\lSharedPtr\&lt; Urho3D::Object \&gt; \&gt;">
<polygon fill="none" stroke="black" points="651,-342.5 651,-389.5 823,-389.5 823,-342.5 651,-342.5"/>
<text text-anchor="start" x="659" y="-376.5" font-family="FreeSans" font-size="10.00">Urho3D::HashMap&lt; Urho3D</text>
<text text-anchor="start" x="659" y="-363.5" font-family="FreeSans" font-size="10.00">::StringHash, Urho3D::</text>
<text text-anchor="middle" x="737" y="-350.5" font-family="FreeSans" font-size="10.00">SharedPtr&lt; Urho3D::Object &gt; &gt;</text>
</a>
</g>
<!-- Node9&#45;&gt;Node17 -->
<g id="edge50" class="edge"><title>Node9&#45;&gt;Node17</title>
<path fill="none" stroke="midnightblue" d="M494.286,-239.063C523.513,-262.922 579.913,-306.318 634,-333 640.904,-336.406 648.239,-339.567 655.689,-342.475"/>
<polygon fill="midnightblue" stroke="midnightblue" points="496.396,-236.266 486.454,-232.603 491.942,-241.666 496.396,-236.266"/>
</g>
<!-- Node19 -->
<g id="node46" class="node"><title>Node19</title>
<a xlink:href="class_urho3_d_1_1_hash_map.html" target="_top" xlink:title="Urho3D::HashMap\&lt; Urho3D\l::StringHash, Urho3D::\lSharedPtr\&lt; Urho3D::ObjectFactory \&gt; \&gt;">
<polygon fill="none" stroke="black" points="634,-132.5 634,-179.5 840,-179.5 840,-132.5 634,-132.5"/>
<text text-anchor="start" x="642" y="-166.5" font-family="FreeSans" font-size="10.00">Urho3D::HashMap&lt; Urho3D</text>
<text text-anchor="start" x="642" y="-153.5" font-family="FreeSans" font-size="10.00">::StringHash, Urho3D::</text>
<text text-anchor="middle" x="737" y="-140.5" font-family="FreeSans" font-size="10.00">SharedPtr&lt; Urho3D::ObjectFactory &gt; &gt;</text>
</a>
</g>
<!-- Node9&#45;&gt;Node19 -->
<g id="edge58" class="edge"><title>Node9&#45;&gt;Node19</title>
<path fill="none" stroke="midnightblue" d="M525.957,-208.961C559.345,-200.583 603.693,-189.453 643.117,-179.56"/>
<polygon fill="midnightblue" stroke="midnightblue" points="524.811,-205.64 515.964,-211.469 526.515,-212.43 524.811,-205.64"/>
</g>
<!-- Node20 -->
<g id="node49" class="node"><title>Node20</title>
<a xlink:href="class_urho3_d_1_1_hash_map.html" target="_top" xlink:title="Urho3D::HashMap\&lt; Urho3D\l::String, Urho3D::Vector\l\&lt; Urho3D::StringHash \&gt; \&gt;">
<polygon fill="none" stroke="black" points="661,-66.5 661,-113.5 813,-113.5 813,-66.5 661,-66.5"/>
<text text-anchor="start" x="669" y="-100.5" font-family="FreeSans" font-size="10.00">Urho3D::HashMap&lt; Urho3D</text>
<text text-anchor="start" x="669" y="-87.5" font-family="FreeSans" font-size="10.00">::String, Urho3D::Vector</text>
<text text-anchor="middle" x="737" y="-74.5" font-family="FreeSans" font-size="10.00">&lt; Urho3D::StringHash &gt; &gt;</text>
</a>
</g>
<!-- Node9&#45;&gt;Node20 -->
<g id="edge62" class="edge"><title>Node9&#45;&gt;Node20</title>
<path fill="none" stroke="midnightblue" d="M496.456,-205.636C526.541,-184.304 582.163,-146.904 634,-123 642.526,-119.068 651.65,-115.414 660.815,-112.078"/>
<polygon fill="midnightblue" stroke="midnightblue" points="494.418,-202.791 488.321,-211.456 498.491,-208.484 494.418,-202.791"/>
</g>
<!-- Node21 -->
<g id="node52" class="node"><title>Node21</title>
<a xlink:href="class_urho3_d_1_1_hash_map.html" target="_top" xlink:title="Urho3D::HashMap\&lt; Urho3D\l::StringHash, Urho3D::\lVector\&lt; Urho3D::AttributeInfo \&gt; \&gt;">
<polygon fill="none" stroke="black" points="645.5,-198.5 645.5,-245.5 828.5,-245.5 828.5,-198.5 645.5,-198.5"/>
<text text-anchor="start" x="653.5" y="-232.5" font-family="FreeSans" font-size="10.00">Urho3D::HashMap&lt; Urho3D</text>
<text text-anchor="start" x="653.5" y="-219.5" font-family="FreeSans" font-size="10.00">::StringHash, Urho3D::</text>
<text text-anchor="middle" x="737" y="-206.5" font-family="FreeSans" font-size="10.00">Vector&lt; Urho3D::AttributeInfo &gt; &gt;</text>
</a>
</g>
<!-- Node9&#45;&gt;Node21 -->
<g id="edge66" class="edge"><title>Node9&#45;&gt;Node21</title>
<path fill="none" stroke="midnightblue" d="M538.352,-222C570.536,-222 610.055,-222 645.346,-222"/>
<polygon fill="midnightblue" stroke="midnightblue" points="538.175,-218.5 528.175,-222 538.175,-225.5 538.175,-218.5"/>
</g>
<!-- Node10 -->
<g id="node19" class="node"><title>Node10</title>
<a xlink:href="struct_urho3_d_1_1_hash_node_base.html" target="_top" xlink:title="Hash set/map node base class.">
<polygon fill="none" stroke="black" points="188,-238.5 188,-259.5 322,-259.5 322,-238.5 188,-238.5"/>
<text text-anchor="middle" x="255" y="-246.5" font-family="FreeSans" font-size="10.00">Urho3D::HashNodeBase</text>
</a>
</g>
<!-- Node10&#45;&gt;Node9 -->
<g id="edge20" class="edge"><title>Node10&#45;&gt;Node9</title>
<path fill="none" stroke="#9a32cd" stroke-dasharray="5,2" d="M332.269,-239.474C361.177,-235.91 393.375,-231.94 419.768,-228.686"/>
<polygon fill="#9a32cd" stroke="#9a32cd" points="331.692,-236.018 322.196,-240.716 332.549,-242.966 331.692,-236.018"/>
<text text-anchor="middle" x="365" y="-268" font-family="FreeSans" font-size="10.00"> ptrs_</text>
<text text-anchor="middle" x="365" y="-255" font-family="FreeSans" font-size="10.00">tail_</text>
<text text-anchor="middle" x="365" y="-242" font-family="FreeSans" font-size="10.00">head_</text>
</g>
<!-- Node10&#45;&gt;Node10 -->
<g id="edge22" class="edge"><title>Node10&#45;&gt;Node10</title>
<path fill="none" stroke="#9a32cd" stroke-dasharray="5,2" d="M234.728,-269.427C236.292,-274.349 243.049,-278 255,-278 274.121,-278 279.947,-268.653 272.478,-259.708"/>
<polygon fill="#9a32cd" stroke="#9a32cd" points="238.123,-270.286 237.522,-259.708 231.395,-268.352 238.123,-270.286"/>
<text text-anchor="middle" x="255" y="-308" font-family="FreeSans" font-size="10.00"> next_</text>
<text text-anchor="middle" x="255" y="-295" font-family="FreeSans" font-size="10.00">prev_</text>
<text text-anchor="middle" x="255" y="-282" font-family="FreeSans" font-size="10.00">down_</text>
</g>
<!-- Node11 -->
<g id="node22" class="node"><title>Node11</title>
<a xlink:href="struct_urho3_d_1_1_allocator_block.html" target="_top" xlink:title="Allocator memory block.">
<polygon fill="none" stroke="red" points="191.5,-167.5 191.5,-188.5 318.5,-188.5 318.5,-167.5 191.5,-167.5"/>
<text text-anchor="middle" x="255" y="-175.5" font-family="FreeSans" font-size="10.00">Urho3D::AllocatorBlock</text>
</a>
</g>
<!-- Node11&#45;&gt;Node9 -->
<g id="edge24" class="edge"><title>Node11&#45;&gt;Node9</title>
<path fill="none" stroke="#9a32cd" stroke-dasharray="5,2" d="M317.432,-190.543C350.357,-197.159 390.295,-205.183 421.593,-211.471"/>
<polygon fill="#9a32cd" stroke="#9a32cd" points="317.949,-187.078 307.456,-188.539 316.571,-193.94 317.949,-187.078"/>
<text text-anchor="middle" x="365" y="-208" font-family="FreeSans" font-size="10.00"> allocator_</text>
</g>
<!-- Node11&#45;&gt;Node11 -->
<g id="edge26" class="edge"><title>Node11&#45;&gt;Node11</title>
<path fill="none" stroke="#9a32cd" stroke-dasharray="5,2" d="M234.728,-198.427C236.292,-203.349 243.049,-207 255,-207 274.121,-207 279.947,-197.653 272.478,-188.708"/>
<polygon fill="#9a32cd" stroke="#9a32cd" points="238.123,-199.286 237.522,-188.708 231.395,-197.352 238.123,-199.286"/>
<text text-anchor="middle" x="255" y="-211" font-family="FreeSans" font-size="10.00"> next_</text>
</g>
<!-- Node12&#45;&gt;Node5 -->
<g id="edge28" class="edge"><title>Node12&#45;&gt;Node5</title>
<path fill="none" stroke="#9a32cd" stroke-dasharray="5,2" d="M809.422,-640.737C860.289,-637.032 927.313,-624.667 974,-588 1033.14,-541.555 1056.61,-446.674 1063.03,-414.752"/>
<polygon fill="#9a32cd" stroke="#9a32cd" points="808.911,-637.262 799.151,-641.384 809.351,-644.248 808.911,-637.262"/>
<text text-anchor="middle" x="916" y="-639" font-family="FreeSans" font-size="10.00"> eventHandler_</text>
</g>
<!-- Node22 -->
<g id="node55" class="node"><title>Node22</title>
<a xlink:href="class_urho3_d_1_1_linked_list.html" target="_top" xlink:title="Urho3D::LinkedList\l\&lt; Urho3D::EventHandler \&gt;">
<polygon fill="none" stroke="black" points="992,-701 992,-735 1138,-735 1138,-701 992,-701"/>
<text text-anchor="start" x="1000" y="-722" font-family="FreeSans" font-size="10.00">Urho3D::LinkedList</text>
<text text-anchor="middle" x="1065" y="-709" font-family="FreeSans" font-size="10.00">&lt; Urho3D::EventHandler &gt;</text>
</a>
</g>
<!-- Node12&#45;&gt;Node22 -->
<g id="edge70" class="edge"><title>Node12&#45;&gt;Node22</title>
<path fill="none" stroke="#9a32cd" stroke-dasharray="5,2" d="M791.824,-653.87C846.807,-666.778 931.786,-686.727 992.354,-700.946"/>
<polygon fill="#9a32cd" stroke="#9a32cd" points="792.455,-650.423 781.919,-651.545 790.855,-657.238 792.455,-650.423"/>
<text text-anchor="middle" x="916" y="-699" font-family="FreeSans" font-size="10.00"> head_</text>
</g>
<!-- Node13 -->
<g id="node27" class="node"><title>Node13</title>
<a xlink:href="struct_urho3_d_1_1_linked_list_node.html" target="_top" xlink:title="Singly&#45;linked list node base class.">
<polygon fill="none" stroke="black" points="408,-673.5 408,-694.5 540,-694.5 540,-673.5 408,-673.5"/>
<text text-anchor="middle" x="474" y="-681.5" font-family="FreeSans" font-size="10.00">Urho3D::LinkedListNode</text>
</a>
</g>
<!-- Node13&#45;&gt;Node12 -->
<g id="edge30" class="edge"><title>Node13&#45;&gt;Node12</title>
<path fill="none" stroke="midnightblue" d="M522.637,-670.289C528.539,-668.324 534.442,-666.213 540,-664 548.31,-660.691 549.382,-657.393 558,-655 595.844,-644.492 639.798,-640.936 674.679,-640.035"/>
<polygon fill="midnightblue" stroke="midnightblue" points="521.225,-667.066 512.769,-673.449 523.36,-673.733 521.225,-667.066"/>
</g>
<!-- Node13&#45;&gt;Node13 -->
<g id="edge32" class="edge"><title>Node13&#45;&gt;Node13</title>
<path fill="none" stroke="#9a32cd" stroke-dasharray="5,2" d="M454.097,-704.427C455.632,-709.349 462.267,-713 474,-713 492.773,-713 498.493,-703.653 491.16,-694.708"/>
<polygon fill="#9a32cd" stroke="#9a32cd" points="457.492,-705.283 456.84,-694.708 450.755,-703.381 457.492,-705.283"/>
<text text-anchor="middle" x="474" y="-717" font-family="FreeSans" font-size="10.00"> next_</text>
</g>
<!-- Node14 -->
<g id="node31" class="node"><title>Node14</title>
<a xlink:href="class_urho3_d_1_1_string_hash.html" target="_top" xlink:title="32&#45;bit hash value for a string.">
<polygon fill="none" stroke="black" points="417.5,-602.5 417.5,-623.5 530.5,-623.5 530.5,-602.5 417.5,-602.5"/>
<text text-anchor="middle" x="474" y="-610.5" font-family="FreeSans" font-size="10.00">Urho3D::StringHash</text>
</a>
</g>
<!-- Node14&#45;&gt;Node12 -->
<g id="edge36" class="edge"><title>Node14&#45;&gt;Node12</title>
<path fill="none" stroke="#9a32cd" stroke-dasharray="5,2" d="M541.135,-610.555C564.855,-610.461 591.675,-611.232 616,-614 644.336,-617.224 675.754,-624.344 699.473,-630.463"/>
<polygon fill="#9a32cd" stroke="#9a32cd" points="540.794,-607.057 530.827,-610.649 540.858,-614.057 540.794,-607.057"/>
<text text-anchor="middle" x="587" y="-618" font-family="FreeSans" font-size="10.00"> eventType_</text>
</g>
<!-- Node14&#45;&gt;Node14 -->
<g id="edge38" class="edge"><title>Node14&#45;&gt;Node14</title>
<path fill="none" stroke="#9a32cd" stroke-dasharray="5,2" d="M454.097,-633.427C455.632,-638.349 462.267,-642 474,-642 492.773,-642 498.493,-632.653 491.16,-623.708"/>
<polygon fill="#9a32cd" stroke="#9a32cd" points="457.492,-634.283 456.84,-623.708 450.755,-632.381 457.492,-634.283"/>
<text text-anchor="middle" x="474" y="-646" font-family="FreeSans" font-size="10.00"> ZERO</text>
</g>
<!-- Node15&#45;&gt;Node5 -->
<g id="edge40" class="edge"><title>Node15&#45;&gt;Node5</title>
<path fill="none" stroke="#9a32cd" stroke-dasharray="5,2" d="M823.415,-26.5315C873.507,-32.4891 934.325,-48.1001 974,-87 1020.1,-132.197 1055.59,-343.734 1063.4,-393.498"/>
<polygon fill="#9a32cd" stroke="#9a32cd" points="823.543,-23.0251 813.225,-25.4332 822.793,-29.9848 823.543,-23.0251"/>
<text text-anchor="middle" x="916" y="-91" font-family="FreeSans" font-size="10.00"> eventReceivers_</text>
</g>
<!-- Node16&#45;&gt;Node5 -->
<g id="edge44" class="edge"><title>Node16&#45;&gt;Node5</title>
<path fill="none" stroke="#9a32cd" stroke-dasharray="5,2" d="M833.462,-418.824C893.614,-414.973 968.453,-410.181 1016.48,-407.107"/>
<polygon fill="#9a32cd" stroke="#9a32cd" points="832.934,-415.351 823.178,-419.482 833.381,-422.336 832.934,-415.351"/>
<text text-anchor="middle" x="916" y="-421" font-family="FreeSans" font-size="10.00"> globalVars_</text>
</g>
<!-- Node17&#45;&gt;Node5 -->
<g id="edge48" class="edge"><title>Node17&#45;&gt;Node5</title>
<path fill="none" stroke="#9a32cd" stroke-dasharray="5,2" d="M833.462,-377.175C893.614,-384.144 968.453,-392.815 1016.48,-398.378"/>
<polygon fill="#9a32cd" stroke="#9a32cd" points="833.515,-373.658 823.178,-375.984 832.709,-380.612 833.515,-373.658"/>
<text text-anchor="middle" x="916" y="-397" font-family="FreeSans" font-size="10.00"> subsystems_</text>
</g>
<!-- Node18&#45;&gt;Node5 -->
<g id="edge52" class="edge"><title>Node18&#45;&gt;Node5</title>
<path fill="none" stroke="#9a32cd" stroke-dasharray="5,2" d="M810.705,-521.178C858.954,-514.005 922.387,-500.595 974,-476 1007.1,-460.228 1039.13,-430.491 1054.88,-414.617"/>
<polygon fill="#9a32cd" stroke="#9a32cd" points="810.053,-517.736 800.65,-522.616 811.044,-524.665 810.053,-517.736"/>
<text text-anchor="middle" x="916" y="-517" font-family="FreeSans" font-size="10.00"> eventDataMaps_</text>
</g>
<!-- Node19&#45;&gt;Node5 -->
<g id="edge56" class="edge"><title>Node19&#45;&gt;Node5</title>
<path fill="none" stroke="#9a32cd" stroke-dasharray="5,2" d="M849.895,-172.918C892.454,-183.829 938.988,-201.717 974,-231 1028.41,-276.503 1054.63,-363.016 1062.43,-393.249"/>
<polygon fill="#9a32cd" stroke="#9a32cd" points="850.575,-169.481 840.029,-170.493 848.905,-176.279 850.575,-169.481"/>
<text text-anchor="middle" x="916" y="-235" font-family="FreeSans" font-size="10.00"> factories_</text>
</g>
<!-- Node20&#45;&gt;Node5 -->
<g id="edge60" class="edge"><title>Node20&#45;&gt;Node5</title>
<path fill="none" stroke="#9a32cd" stroke-dasharray="5,2" d="M823.299,-96.151C872.909,-103.908 933.269,-121.113 974,-159 1046.09,-226.06 1061.35,-355.47 1064.33,-393.343"/>
<polygon fill="#9a32cd" stroke="#9a32cd" points="823.609,-92.6592 813.208,-94.6787 822.598,-99.5859 823.609,-92.6592"/>
<text text-anchor="middle" x="916" y="-163" font-family="FreeSans" font-size="10.00"> objectCategories_</text>
</g>
<!-- Node21&#45;&gt;Node5 -->
<g id="edge64" class="edge"><title>Node21&#45;&gt;Node5</title>
<path fill="none" stroke="#9a32cd" stroke-dasharray="5,2" d="M838.531,-240.89C882.687,-252.332 933.475,-270.085 974,-297 1013.82,-323.443 1046.01,-372.117 1058.91,-393.48"/>
<polygon fill="#9a32cd" stroke="#9a32cd" points="839.185,-237.445 828.633,-238.401 837.478,-244.234 839.185,-237.445"/>
<text text-anchor="middle" x="916" y="-314" font-family="FreeSans" font-size="10.00"> attributes_</text>
<text text-anchor="middle" x="916" y="-301" font-family="FreeSans" font-size="10.00">networkAttributes_</text>
</g>
<!-- Node22&#45;&gt;Node2 -->
<g id="edge68" class="edge"><title>Node22&#45;&gt;Node2</title>
<path fill="none" stroke="#9a32cd" stroke-dasharray="5,2" d="M981.315,-728.337C978.85,-728.57 976.408,-728.792 974,-729 806.644,-743.449 607.032,-750.9 519.231,-753.684"/>
<polygon fill="#9a32cd" stroke="#9a32cd" points="981.935,-731.792 991.538,-727.317 981.24,-724.827 981.935,-731.792"/>
<text text-anchor="middle" x="737" y="-753" font-family="FreeSans" font-size="10.00"> eventHandlers_</text>
</g>
<!-- Node23 -->
<g id="node58" class="node"><title>Node23</title>
<a xlink:href="class_urho3_d_1_1_deserializer.html" target="_top" xlink:title="Abstract stream for reading.">
<polygon fill="none" stroke="black" points="416,-895.5 416,-916.5 532,-916.5 532,-895.5 416,-895.5"/>
<text text-anchor="middle" x="474" y="-903.5" font-family="FreeSans" font-size="10.00">Urho3D::Deserializer</text>
</a>
</g>
<!-- Node23&#45;&gt;Node1 -->
<g id="edge72" class="edge"><title>Node23&#45;&gt;Node1</title>
<path fill="none" stroke="midnightblue" d="M533.39,-893.354C579.805,-883.471 643.571,-869.894 687.307,-860.581"/>
<polygon fill="midnightblue" stroke="midnightblue" points="532.52,-889.961 523.468,-895.467 533.978,-896.807 532.52,-889.961"/>
</g>
<!-- Node24 -->
<g id="node60" class="node"><title>Node24</title>
<a xlink:href="class_urho3_d_1_1_serializer.html" target="_top" xlink:title="Abstract stream for writing.">
<polygon fill="none" stroke="black" points="422,-855.5 422,-876.5 526,-876.5 526,-855.5 422,-855.5"/>
<text text-anchor="middle" x="474" y="-863.5" font-family="FreeSans" font-size="10.00">Urho3D::Serializer</text>
</a>
</g>
<!-- Node24&#45;&gt;Node1 -->
<g id="edge74" class="edge"><title>Node24&#45;&gt;Node1</title>
<path fill="none" stroke="midnightblue" d="M536.414,-862.203C579.754,-859.566 637.078,-856.079 679.343,-853.508"/>
<polygon fill="midnightblue" stroke="midnightblue" points="536.044,-858.719 526.275,-862.82 536.469,-865.706 536.044,-858.719"/>
</g>
<!-- Node25 -->
<g id="node62" class="node"><title>Node25</title>
<a xlink:href="class_urho3_d_1_1_string.html" target="_top" xlink:title="String class.">
<polygon fill="none" stroke="black" points="430,-784.5 430,-805.5 518,-805.5 518,-784.5 430,-784.5"/>
<text text-anchor="middle" x="474" y="-792.5" font-family="FreeSans" font-size="10.00">Urho3D::String</text>
</a>
</g>
<!-- Node25&#45;&gt;Node1 -->
<g id="edge76" class="edge"><title>Node25&#45;&gt;Node1</title>
<path fill="none" stroke="#9a32cd" stroke-dasharray="5,2" d="M527.915,-806.275C574.417,-816 641.069,-829.938 686.537,-839.447"/>
<polygon fill="#9a32cd" stroke="#9a32cd" points="528.525,-802.827 518.02,-804.206 527.092,-809.679 528.525,-802.827"/>
<text text-anchor="middle" x="587" y="-828" font-family="FreeSans" font-size="10.00"> pipeName_</text>
</g>
<!-- Node25&#45;&gt;Node25 -->
<g id="edge78" class="edge"><title>Node25&#45;&gt;Node25</title>
<path fill="none" stroke="#9a32cd" stroke-dasharray="5,2" d="M454.097,-815.427C455.632,-820.349 462.267,-824 474,-824 492.773,-824 498.493,-814.653 491.16,-805.708"/>
<polygon fill="#9a32cd" stroke="#9a32cd" points="457.492,-816.283 456.84,-805.708 450.755,-814.381 457.492,-816.283"/>
<text text-anchor="middle" x="474" y="-828" font-family="FreeSans" font-size="10.00"> EMPTY</text>
</g>
</g>
</svg>
        <g id="navigator" transform="translate(0 0)" fill="#404254">
                <rect fill="#f2f5e9" fill-opacity="0.5" stroke="#606060" stroke-width=".5" x="0" y="0" width="60" height="60"/>
                <use id="zoomplus" xlink:href="#zoomPlus" x="17" y="9" onmousedown="handleZoom(evt,'in')"/>
                <use id="zoomminus" xlink:href="#zoomMin" x="42" y="9" onmousedown="handleZoom(evt,'out')"/>
                <use id="reset" xlink:href="#resetDef" x="30" y="36" onmousedown="handleReset()"/>
                <g id="arrowUp" xlink:href="#dirArrow" transform="translate(30 24)" onmousedown="handlePan(0,-1)">
                  <use xlink:href="#rim" fill="#404040">
                        <set attributeName="fill" to="#808080" begin="arrowUp.mouseover" end="arrowUp.mouseout"/>
                  </use>
                  <path fill="none" stroke="white" stroke-width="1.5" d="M0,-3.0v7 M-2.5,-0.5L0,-3.0L2.5,-0.5"/>
                </g>
                <g id="arrowRight" xlink:href="#dirArrow" transform="rotate(90) translate(36 -43)" onmousedown="handlePan(1,0)">
                  <use xlink:href="#rim" fill="#404040">
                        <set attributeName="fill" to="#808080" begin="arrowRight.mouseover" end="arrowRight.mouseout"/>
                  </use>
                  <path fill="none" stroke="white" stroke-width="1.5" d="M0,-3.0v7 M-2.5,-0.5L0,-3.0L2.5,-0.5"/>
                </g>
                <g id="arrowDown" xlink:href="#dirArrow" transform="rotate(180) translate(-30 -48)" onmousedown="handlePan(0,1)">
                  <use xlink:href="#rim" fill="#404040">
                        <set attributeName="fill" to="#808080" begin="arrowDown.mouseover" end="arrowDown.mouseout"/>
                  </use>
                  <path fill="none" stroke="white" stroke-width="1.5" d="M0,-3.0v7 M-2.5,-0.5L0,-3.0L2.5,-0.5"/>
                </g>
                <g id="arrowLeft" xlink:href="#dirArrow" transform="rotate(270) translate(-36 17)" onmousedown="handlePan(-1,0)">
                  <use xlink:href="#rim" fill="#404040">
                        <set attributeName="fill" to="#808080" begin="arrowLeft.mouseover" end="arrowLeft.mouseout"/>
                  </use>
                  <path fill="none" stroke="white" stroke-width="1.5" d="M0,-3.0v7 M-2.5,-0.5L0,-3.0L2.5,-0.5"/>
                </g>
        </g>
        <svg viewBox="0 0 15 15" width="100%" height="30px" preserveAspectRatio="xMaxYMin meet">
         <g id="arrow_out" transform="scale(0.3 0.3)">
          <a xlink:href="class_urho3_d_1_1_named_pipe__coll__graph_org.svg" target="_base">
           <rect id="button" ry="5" rx="5" y="6" x="6" height="38" width="38"
                fill="#f2f5e9" fill-opacity="0.5" stroke="#606060" stroke-width="1.0"/>
           <path id="arrow"
             d="M 11.500037,31.436501 C 11.940474,20.09759 22.043105,11.32322 32.158766,21.979434 L 37.068811,17.246167 C 37.068811,17.246167 37.088388,32 37.088388,32 L 22.160133,31.978069 C 22.160133,31.978069 26.997745,27.140456 26.997745,27.140456 C 18.528582,18.264221 13.291696,25.230495 11.500037,31.436501 z"
             style="fill:#404040;"/>
          </a>
         </g>
        </svg>
</svg>
