<?xml version="1.0" encoding="UTF-8" standalone="no"?>
<!DOCTYPE svg PUBLIC "-//W3C//DTD SVG 1.1//EN"
 "http://www.w3.org/Graphics/SVG/1.1/DTD/svg11.dtd">
<!-- Generated by graphviz version 2.26.3 (20100126.1600)
 -->
<!-- Title: Urho3D::Texture2D::SetSize Pages: 1 -->
<svg width="470pt" height="94pt"
 viewBox="0.00 0.00 470.00 94.00" xmlns="http://www.w3.org/2000/svg" xmlns:xlink="http://www.w3.org/1999/xlink">
<g id="graph1" class="graph" transform="scale(1 1) rotate(0) translate(4 90)">
<title>Urho3D::Texture2D::SetSize</title>
<!-- Node1 -->
<g id="node1" class="node"><title>Node1</title>
<polygon fill="#bfbfbf" stroke="black" points="0.5,-26 0.5,-60 113.5,-60 113.5,-26 0.5,-26"/>
<text text-anchor="start" x="8.5" y="-47" font-family="FreeSans" font-size="10.00">Urho3D::Texture2D::</text>
<text text-anchor="middle" x="57" y="-34" font-family="FreeSans" font-size="10.00">SetSize</text>
</g>
<!-- Node2 -->
<g id="node3" class="node"><title>Node2</title>
<a xlink:href="class_urho3_d_1_1_texture2_d.html#ab49167ad05742f9610fd938c2f9f29ce" target="_top" xlink:title="Set data from an image. Return true if successful. Optionally make a single channel image alpha&#45;only...">
<polygon fill="none" stroke="black" points="162.5,-52 162.5,-86 275.5,-86 275.5,-52 162.5,-52"/>
<text text-anchor="start" x="170.5" y="-73" font-family="FreeSans" font-size="10.00">Urho3D::Texture2D::</text>
<text text-anchor="middle" x="219" y="-60" font-family="FreeSans" font-size="10.00">SetData</text>
</a>
</g>
<!-- Node1&#45;&gt;Node2 -->
<g id="edge2" class="edge"><title>Node1&#45;&gt;Node2</title>
<path fill="none" stroke="midnightblue" d="M123.805,-53.7217C136.617,-55.778 149.918,-57.9128 162.372,-59.9116"/>
<polygon fill="midnightblue" stroke="midnightblue" points="124.088,-50.2225 113.66,-52.0935 122.979,-57.1341 124.088,-50.2225"/>
</g>
<!-- Node3 -->
<g id="node5" class="node"><title>Node3</title>
<a xlink:href="class_urho3_d_1_1_animation_set2_d.html#a3b678397fa1bdef4df12c0009df462f1" target="_top" xlink:title="Finish load scml.">
<polygon fill="none" stroke="black" points="150,-0 150,-34 288,-34 288,-0 150,-0"/>
<text text-anchor="start" x="158" y="-21" font-family="FreeSans" font-size="10.00">Urho3D::AnimationSet2D</text>
<text text-anchor="middle" x="219" y="-8" font-family="FreeSans" font-size="10.00">::EndLoadSpriter</text>
</a>
</g>
<!-- Node1&#45;&gt;Node3 -->
<g id="edge4" class="edge"><title>Node1&#45;&gt;Node3</title>
<path fill="none" stroke="midnightblue" d="M123.666,-32.3005C132.299,-30.915 141.155,-29.4936 149.828,-28.1018"/>
<polygon fill="midnightblue" stroke="midnightblue" points="122.979,-28.8659 113.66,-33.9065 124.088,-35.7775 122.979,-28.8659"/>
</g>
<!-- Node4 -->
<g id="node7" class="node"><title>Node4</title>
<a xlink:href="class_urho3_d_1_1_animation_set2_d.html#a57ba86fdfbd295f23a63f3650fcc6be7" target="_top" xlink:title="Finish resource loading. Always called from the main thread. Return true if successful.">
<polygon fill="none" stroke="black" points="324,-0 324,-34 462,-34 462,-0 324,-0"/>
<text text-anchor="start" x="332" y="-21" font-family="FreeSans" font-size="10.00">Urho3D::AnimationSet2D</text>
<text text-anchor="middle" x="393" y="-8" font-family="FreeSans" font-size="10.00">::EndLoad</text>
</a>
</g>
<!-- Node3&#45;&gt;Node4 -->
<g id="edge6" class="edge"><title>Node3&#45;&gt;Node4</title>
<path fill="none" stroke="midnightblue" d="M298.035,-17C306.625,-17 315.319,-17 323.779,-17"/>
<polygon fill="midnightblue" stroke="midnightblue" points="298.019,-13.5001 288.019,-17 298.019,-20.5001 298.019,-13.5001"/>
</g>
</g>
</svg>
