<?xml version="1.0" encoding="UTF-8" standalone="no"?>
<!DOCTYPE svg PUBLIC "-//W3C//DTD SVG 1.1//EN"
 "http://www.w3.org/Graphics/SVG/1.1/DTD/svg11.dtd">
<!-- Generated by graphviz version 2.36.0 (20140111.2315)
 -->
<!-- Title: Urho3D::VectorBuffer Pages: 1 -->
<svg width="384pt" height="166pt"
 viewBox="0.00 0.00 384.00 166.00" xmlns="http://www.w3.org/2000/svg" xmlns:xlink="http://www.w3.org/1999/xlink">
<g id="graph0" class="graph" transform="scale(1 1) rotate(0) translate(4 162)">
<title>Urho3D::VectorBuffer</title>
<!-- Node1 -->
<g id="node1" class="node"><title>Node1</title>
<polygon fill="#bfbfbf" stroke="black" points="202.5,-0.5 202.5,-19.5 321.5,-19.5 321.5,-0.5 202.5,-0.5"/>
<text text-anchor="middle" x="262" y="-7.5" font-family="FreeSans" font-size="10.00">Urho3D::VectorBuffer</text>
</g>
<!-- Node2 -->
<g id="node2" class="node"><title>Node2</title>
<g id="a_node2"><a xlink:href="class_urho3_d_1_1_abstract_file.html" target="_top" xlink:title="A common root class for objects that implement both Serializer and Deserializer. ">
<polygon fill="none" stroke="black" points="124.5,-74.5 124.5,-93.5 239.5,-93.5 239.5,-74.5 124.5,-74.5"/>
<text text-anchor="middle" x="182" y="-81.5" font-family="FreeSans" font-size="10.00">Urho3D::AbstractFile</text>
</a>
</g>
</g>
<!-- Node2&#45;&gt;Node1 -->
<g id="edge1" class="edge"><title>Node2&#45;&gt;Node1</title>
<path fill="none" stroke="midnightblue" d="M199.232,-67.4913C215.539,-52.8145 239.417,-31.325 252.521,-19.531"/>
<polygon fill="midnightblue" stroke="midnightblue" points="196.583,-65.1667 191.491,-74.4579 201.266,-70.3698 196.583,-65.1667"/>
</g>
<!-- Node3 -->
<g id="node3" class="node"><title>Node3</title>
<g id="a_node3"><a xlink:href="class_urho3_d_1_1_deserializer.html" target="_top" xlink:title="Abstract stream for reading. ">
<polygon fill="none" stroke="black" points="0,-138.5 0,-157.5 116,-157.5 116,-138.5 0,-138.5"/>
<text text-anchor="middle" x="58" y="-145.5" font-family="FreeSans" font-size="10.00">Urho3D::Deserializer</text>
</a>
</g>
</g>
<!-- Node3&#45;&gt;Node2 -->
<g id="edge2" class="edge"><title>Node3&#45;&gt;Node2</title>
<path fill="none" stroke="midnightblue" d="M84.2793,-133.86C108.603,-121.699 144.059,-103.971 164.905,-93.5476"/>
<polygon fill="midnightblue" stroke="midnightblue" points="82.6207,-130.776 75.2417,-138.379 85.7512,-137.037 82.6207,-130.776"/>
</g>
<!-- Node4 -->
<g id="node4" class="node"><title>Node4</title>
<g id="a_node4"><a xlink:href="class_urho3_d_1_1_serializer.html" target="_top" xlink:title="Abstract stream for writing. ">
<polygon fill="none" stroke="black" points="134,-138.5 134,-157.5 238,-157.5 238,-138.5 134,-138.5"/>
<text text-anchor="middle" x="186" y="-145.5" font-family="FreeSans" font-size="10.00">Urho3D::Serializer</text>
</a>
</g>
</g>
<!-- Node4&#45;&gt;Node2 -->
<g id="edge3" class="edge"><title>Node4&#45;&gt;Node2</title>
<path fill="none" stroke="midnightblue" d="M184.8,-128.396C184.053,-116.825 183.129,-102.495 182.551,-93.5476"/>
<polygon fill="midnightblue" stroke="midnightblue" points="181.307,-128.625 185.444,-138.379 188.293,-128.175 181.307,-128.625"/>
</g>
<!-- Node5 -->
<g id="node5" class="node"><title>Node5</title>
<g id="a_node5"><a xlink:href="class_urho3_d_1_1_p_o_d_vector.html" target="_top" xlink:title="Urho3D::PODVector\&lt;\l unsigned char \&gt;">
<polygon fill="none" stroke="black" points="257.5,-69 257.5,-99 376.5,-99 376.5,-69 257.5,-69"/>
<text text-anchor="start" x="265.5" y="-87" font-family="FreeSans" font-size="10.00">Urho3D::PODVector&lt;</text>
<text text-anchor="middle" x="317" y="-76" font-family="FreeSans" font-size="10.00"> unsigned char &gt;</text>
</a>
</g>
</g>
<!-- Node5&#45;&gt;Node1 -->
<g id="edge4" class="edge"><title>Node5&#45;&gt;Node1</title>
<path fill="none" stroke="#9a32cd" stroke-dasharray="5,2" d="M299.938,-60.6647C289.377,-46.8394 276.404,-29.8568 268.691,-19.7589"/>
<polygon fill="#9a32cd" stroke="#9a32cd" points="297.282,-62.953 306.134,-68.7751 302.845,-58.7037 297.282,-62.953"/>
<text text-anchor="middle" x="309.5" y="-41.5" font-family="FreeSans" font-size="10.00"> buffer_</text>
</g>
<!-- Node6 -->
<g id="node6" class="node"><title>Node6</title>
<g id="a_node6"><a xlink:href="class_urho3_d_1_1_vector_base.html" target="_top" xlink:title="Vector base class. ">
<polygon fill="none" stroke="black" points="260,-138.5 260,-157.5 374,-157.5 374,-138.5 260,-138.5"/>
<text text-anchor="middle" x="317" y="-145.5" font-family="FreeSans" font-size="10.00">Urho3D::VectorBase</text>
</a>
</g>
</g>
<!-- Node6&#45;&gt;Node5 -->
<g id="edge5" class="edge"><title>Node6&#45;&gt;Node5</title>
<path fill="none" stroke="midnightblue" d="M317,-128.183C317,-118.886 317,-107.851 317,-99.263"/>
<polygon fill="midnightblue" stroke="midnightblue" points="313.5,-128.379 317,-138.379 320.5,-128.379 313.5,-128.379"/>
</g>
</g>
</svg>
