<?xml version="1.0" encoding="UTF-8" standalone="no"?>
<!DOCTYPE svg PUBLIC "-//W3C//DTD SVG 1.1//EN"
 "http://www.w3.org/Graphics/SVG/1.1/DTD/svg11.dtd">
<!-- Generated by graphviz version 2.43.0 (0)
 -->
<!-- Title: Urho3D::Network::SetSimulatedLatency Pages: 1 -->
<svg width="369pt" height="96pt"
 viewBox="0.00 0.00 369.00 95.50" xmlns="http://www.w3.org/2000/svg" xmlns:xlink="http://www.w3.org/1999/xlink">
<g id="graph0" class="graph" transform="scale(1 1) rotate(0) translate(4 91.5)">
<title>Urho3D::Network::SetSimulatedLatency</title>
<!-- Node1 -->
<g id="node1" class="node">
<title>Node1</title>
<g id="a_node1"><a xlink:title=" ">
<polygon fill="#bfbfbf" stroke="black" points="0,-26 0,-56 172,-56 172,-26 0,-26"/>
<text text-anchor="start" x="8" y="-44" font-family="Helvetica,sans-Serif" font-size="10.00">Urho3D::Network::SetSimulated</text>
<text text-anchor="middle" x="86" y="-33" font-family="Helvetica,sans-Serif" font-size="10.00">Latency</text>
</a>
</g>
</g>
<!-- Node2 -->
<g id="node2" class="node">
<title>Node2</title>
<g id="a_node2"><a xlink:href="class_urho3_d_1_1_network.html#adac5fa1674e39763fbfb4c8301023621" target="_top" xlink:title="Reconfigure network simulator parameters on all existing connections.">
<polygon fill="none" stroke="black" points="208,-57 208,-87 361,-87 361,-57 208,-57"/>
<text text-anchor="start" x="216" y="-75" font-family="Helvetica,sans-Serif" font-size="10.00">Urho3D::Network::Configure</text>
<text text-anchor="middle" x="284.5" y="-64" font-family="Helvetica,sans-Serif" font-size="10.00">NetworkSimulator</text>
</a>
</g>
</g>
<!-- Node1&#45;&gt;Node2 -->
<g id="edge1" class="edge">
<title>Node1&#45;&gt;Node2</title>
<path fill="none" stroke="midnightblue" d="M172.04,-54.42C180.62,-55.77 189.33,-57.14 197.91,-58.5"/>
<polygon fill="midnightblue" stroke="midnightblue" points="197.48,-61.97 207.9,-60.07 198.57,-55.06 197.48,-61.97"/>
</g>
<!-- Node3 -->
<g id="node3" class="node">
<title>Node3</title>
<g id="a_node3"><a xlink:href="_math_defs_8h.html#a8096c22c3716e172f685af2a5f5e26bb" target="_top" xlink:title=" ">
<polygon fill="none" stroke="black" points="244.5,-0.5 244.5,-19.5 324.5,-19.5 324.5,-0.5 244.5,-0.5"/>
<text text-anchor="middle" x="284.5" y="-7.5" font-family="Helvetica,sans-Serif" font-size="10.00">Urho3D::Max</text>
</a>
</g>
</g>
<!-- Node1&#45;&gt;Node3 -->
<g id="edge2" class="edge">
<title>Node1&#45;&gt;Node3</title>
<path fill="none" stroke="midnightblue" d="M172.04,-27.58C193.31,-24.23 215.42,-20.74 234.28,-17.76"/>
<polygon fill="midnightblue" stroke="midnightblue" points="235.07,-21.18 244.4,-16.17 233.98,-14.27 235.07,-21.18"/>
</g>
<!-- Node3&#45;&gt;Node3 -->
<g id="edge3" class="edge">
<title>Node3&#45;&gt;Node3</title>
<path fill="none" stroke="midnightblue" d="M253.98,-19.76C239.14,-28.57 249.31,-38 284.5,-38 309.24,-38 321.62,-33.34 321.62,-27.5"/>
<polygon fill="midnightblue" stroke="midnightblue" points="324.17,-25.09 315.02,-19.76 318.84,-29.64 324.17,-25.09"/>
</g>
</g>
</svg>
