<?xml version="1.0" encoding="UTF-8" standalone="no"?>
<!DOCTYPE svg PUBLIC "-//W3C//DTD SVG 1.1//EN"
 "http://www.w3.org/Graphics/SVG/1.1/DTD/svg11.dtd">
<!-- Generated by graphviz version 2.26.3 (20100126.1600)
 -->
<!-- Title: Urho3D::ValueAnimationInfo::GetEventFrames Pages: 1 -->
<!--zoomable 94 -->
<svg id="main" version="1.1" xmlns="http://www.w3.org/2000/svg" xmlns:xlink="http://www.w3.org/1999/xlink" xml:space="preserve" onload="init(evt)">
        <defs>
                <circle id="rim" cx="0" cy="0" r="7"/>
                <circle id="rim2" cx="0" cy="0" r="3.5"/>
                <g id="zoomPlus">
                        <use xlink:href="#rim" fill="#404040">
                                <set attributeName="fill" to="#808080" begin="zoomplus.mouseover" end="zoomplus.mouseout"/>
                        </use>
                        <path d="M-4,0h8M0,-4v8" fill="none" stroke="white" stroke-width="1.5" pointer-events="none"/>
                </g>
                <g id="zoomMin">
                        <use xlink:href="#rim" fill="#404040">
                                <set attributeName="fill" to="#808080" begin="zoomminus.mouseover" end="zoomminus.mouseout"/>
                        </use>
                        <path d="M-4,0h8" fill="none" stroke="white" stroke-width="1.5" pointer-events="none"/>
                </g>
                <g id="dirArrow">
                        <path fill="none" stroke="white" stroke-width="1.5" d="M0,-3.0v7 M-2.5,-0.5L0,-3.0L2.5,-0.5"/>
                </g>
               <g id="resetDef">
                       <use xlink:href="#rim2" fill="#404040">
                               <set attributeName="fill" to="#808080" begin="reset.mouseover" end="reset.mouseout"/>
                       </use>
               </g>
        </defs>

<script type="text/javascript">
var viewWidth = 688;
var viewHeight = 94;
var sectionId = 'dynsection-2';
</script>
<script xlink:href="svgpan.js"/>
<svg id="graph" class="graph">
<g id="viewport">
<title>Urho3D::ValueAnimationInfo::GetEventFrames</title>
<!-- Node1 -->
<g id="node1" class="node"><title>Node1</title>
<polygon fill="#bfbfbf" stroke="black" points="0,-26 0,-60 152,-60 152,-26 0,-26"/>
<text text-anchor="start" x="8" y="-47" font-family="FreeSans" font-size="10.00">Urho3D::ValueAnimationInfo</text>
<text text-anchor="middle" x="76" y="-34" font-family="FreeSans" font-size="10.00">::GetEventFrames</text>
</g>
<!-- Node2 -->
<g id="node3" class="node"><title>Node2</title>
<a xlink:href="class_urho3_d_1_1_value_animation_info.html#a4ad1a89faaaf4bf79dd30b25224ffa15" target="_top" xlink:title="Set time position and apply. Return true when the animation is finished. No&#45;op when the target object...">
<polygon fill="none" stroke="black" points="188,-26 188,-60 340,-60 340,-26 188,-26"/>
<text text-anchor="start" x="196" y="-47" font-family="FreeSans" font-size="10.00">Urho3D::ValueAnimationInfo</text>
<text text-anchor="middle" x="264" y="-34" font-family="FreeSans" font-size="10.00">::SetTime</text>
</a>
</g>
<!-- Node1&#45;&gt;Node2 -->
<g id="edge2" class="edge"><title>Node1&#45;&gt;Node2</title>
<path fill="none" stroke="midnightblue" d="M162.424,-43C170.857,-43 179.372,-43 187.696,-43"/>
<polygon fill="midnightblue" stroke="midnightblue" points="162.196,-39.5001 152.196,-43 162.196,-46.5001 162.196,-39.5001"/>
</g>
<!-- Node3 -->
<g id="node5" class="node"><title>Node3</title>
<a xlink:href="class_urho3_d_1_1_animatable.html#ac86e3bc8579f43a701a3ab2e02dcc700" target="_top" xlink:title="Set attribute animation time position manually. Automatic update should be disabled in this case...">
<polygon fill="none" stroke="black" points="376.5,-52 376.5,-86 529.5,-86 529.5,-52 376.5,-52"/>
<text text-anchor="start" x="384.5" y="-73" font-family="FreeSans" font-size="10.00">Urho3D::Animatable</text>
<text text-anchor="middle" x="453" y="-60" font-family="FreeSans" font-size="10.00">::SetAttributeAnimationTime</text>
</a>
</g>
<!-- Node2&#45;&gt;Node3 -->
<g id="edge4" class="edge"><title>Node2&#45;&gt;Node3</title>
<path fill="none" stroke="midnightblue" d="M349.977,-54.8276C358.817,-56.0436 367.756,-57.2734 376.484,-58.4739"/>
<polygon fill="midnightblue" stroke="midnightblue" points="350.44,-51.3584 340.057,-53.4628 349.486,-58.2931 350.44,-51.3584"/>
</g>
<!-- Node5 -->
<g id="node9" class="node"><title>Node5</title>
<a xlink:href="class_urho3_d_1_1_value_animation_info.html#aa7ffdc6d200bba0eeef7949e48a4fb80" target="_top" xlink:title="Advance time position and apply. Return true when the animation is finished. No&#45;op when the target ob...">
<polygon fill="none" stroke="black" points="377,-0 377,-34 529,-34 529,-0 377,-0"/>
<text text-anchor="start" x="385" y="-21" font-family="FreeSans" font-size="10.00">Urho3D::ValueAnimationInfo</text>
<text text-anchor="middle" x="453" y="-8" font-family="FreeSans" font-size="10.00">::Update</text>
</a>
</g>
<!-- Node2&#45;&gt;Node5 -->
<g id="edge8" class="edge"><title>Node2&#45;&gt;Node5</title>
<path fill="none" stroke="midnightblue" d="M350.063,-31.1607C358.978,-29.9342 367.995,-28.6938 376.791,-27.4837"/>
<polygon fill="midnightblue" stroke="midnightblue" points="349.486,-27.7069 340.057,-32.5372 350.44,-34.6416 349.486,-27.7069"/>
</g>
<!-- Node4 -->
<g id="node7" class="node"><title>Node4</title>
<a xlink:href="class_urho3_d_1_1_animatable.html#adc97255cf6bf43a76a163ab4188ad15c" target="_top" xlink:title="Set time position of all attribute animations or an object animation manually. Automatic update shoul...">
<polygon fill="none" stroke="black" points="566,-52 566,-86 680,-86 680,-52 566,-52"/>
<text text-anchor="start" x="574" y="-73" font-family="FreeSans" font-size="10.00">Urho3D::Animatable</text>
<text text-anchor="middle" x="623" y="-60" font-family="FreeSans" font-size="10.00">::SetAnimationTime</text>
</a>
</g>
<!-- Node3&#45;&gt;Node4 -->
<g id="edge6" class="edge"><title>Node3&#45;&gt;Node4</title>
<path fill="none" stroke="midnightblue" d="M539.626,-69C548.565,-69 557.479,-69 565.974,-69"/>
<polygon fill="midnightblue" stroke="midnightblue" points="539.546,-65.5001 529.546,-69 539.546,-72.5001 539.546,-65.5001"/>
</g>
</g>
</svg>
        <g id="navigator" transform="translate(0 0)" fill="#404254">
                <rect fill="#f2f5e9" fill-opacity="0.5" stroke="#606060" stroke-width=".5" x="0" y="0" width="60" height="60"/>
                <use id="zoomplus" xlink:href="#zoomPlus" x="17" y="9" onmousedown="handleZoom(evt,'in')"/>
                <use id="zoomminus" xlink:href="#zoomMin" x="42" y="9" onmousedown="handleZoom(evt,'out')"/>
                <use id="reset" xlink:href="#resetDef" x="30" y="36" onmousedown="handleReset()"/>
                <g id="arrowUp" xlink:href="#dirArrow" transform="translate(30 24)" onmousedown="handlePan(0,-1)">
                  <use xlink:href="#rim" fill="#404040">
                        <set attributeName="fill" to="#808080" begin="arrowUp.mouseover" end="arrowUp.mouseout"/>
                  </use>
                  <path fill="none" stroke="white" stroke-width="1.5" d="M0,-3.0v7 M-2.5,-0.5L0,-3.0L2.5,-0.5"/>
                </g>
                <g id="arrowRight" xlink:href="#dirArrow" transform="rotate(90) translate(36 -43)" onmousedown="handlePan(1,0)">
                  <use xlink:href="#rim" fill="#404040">
                        <set attributeName="fill" to="#808080" begin="arrowRight.mouseover" end="arrowRight.mouseout"/>
                  </use>
                  <path fill="none" stroke="white" stroke-width="1.5" d="M0,-3.0v7 M-2.5,-0.5L0,-3.0L2.5,-0.5"/>
                </g>
                <g id="arrowDown" xlink:href="#dirArrow" transform="rotate(180) translate(-30 -48)" onmousedown="handlePan(0,1)">
                  <use xlink:href="#rim" fill="#404040">
                        <set attributeName="fill" to="#808080" begin="arrowDown.mouseover" end="arrowDown.mouseout"/>
                  </use>
                  <path fill="none" stroke="white" stroke-width="1.5" d="M0,-3.0v7 M-2.5,-0.5L0,-3.0L2.5,-0.5"/>
                </g>
                <g id="arrowLeft" xlink:href="#dirArrow" transform="rotate(270) translate(-36 17)" onmousedown="handlePan(-1,0)">
                  <use xlink:href="#rim" fill="#404040">
                        <set attributeName="fill" to="#808080" begin="arrowLeft.mouseover" end="arrowLeft.mouseout"/>
                  </use>
                  <path fill="none" stroke="white" stroke-width="1.5" d="M0,-3.0v7 M-2.5,-0.5L0,-3.0L2.5,-0.5"/>
                </g>
        </g>
        <svg viewBox="0 0 15 15" width="100%" height="30px" preserveAspectRatio="xMaxYMin meet">
         <g id="arrow_out" transform="scale(0.3 0.3)">
          <a xlink:href="class_urho3_d_1_1_value_animation_info_aa731dfd649db9179709f6b5c49e1f8b7_icgraph_org.svg" target="_base">
           <rect id="button" ry="5" rx="5" y="6" x="6" height="38" width="38"
                fill="#f2f5e9" fill-opacity="0.5" stroke="#606060" stroke-width="1.0"/>
           <path id="arrow"
             d="M 11.500037,31.436501 C 11.940474,20.09759 22.043105,11.32322 32.158766,21.979434 L 37.068811,17.246167 C 37.068811,17.246167 37.088388,32 37.088388,32 L 22.160133,31.978069 C 22.160133,31.978069 26.997745,27.140456 26.997745,27.140456 C 18.528582,18.264221 13.291696,25.230495 11.500037,31.436501 z"
             style="fill:#404040;"/>
          </a>
         </g>
        </svg>
</svg>
