<?xml version="1.0" encoding="UTF-8" standalone="no"?>
<!DOCTYPE svg PUBLIC "-//W3C//DTD SVG 1.1//EN"
 "http://www.w3.org/Graphics/SVG/1.1/DTD/svg11.dtd">
<!-- Generated by graphviz version 2.43.0 (0)
 -->
<!-- Title: Urho3D::Material::SetScene Pages: 1 -->
<!--zoomable 470 -->
<svg id="main" version="1.1" xmlns="http://www.w3.org/2000/svg" xmlns:xlink="http://www.w3.org/1999/xlink" xml:space="preserve" onload="init(evt)">
<style type="text/css"><![CDATA[
.edge:hover path { stroke: red; }
.edge:hover polygon { stroke: red; fill: red; }
]]></style>
<script type="text/javascript"><![CDATA[
var edges = document.getElementsByTagName('g');
if (edges && edges.length) {
  for (var i=0;i<edges.length;i++) {
    if (edges[i].id.substr(0,4)=='edge') {
      edges[i].setAttribute('class','edge');
    }
  }
}
]]></script>
        <defs>
                <circle id="rim" cx="0" cy="0" r="7"/>
                <circle id="rim2" cx="0" cy="0" r="3.5"/>
                <g id="zoomPlus">
                        <use xlink:href="#rim" fill="#404040">
                                <set attributeName="fill" to="#808080" begin="zoomplus.mouseover" end="zoomplus.mouseout"/>
                        </use>
                        <path d="M-4,0h8M0,-4v8" fill="none" stroke="white" stroke-width="1.5" pointer-events="none"/>
                </g>
                <g id="zoomMin">
                        <use xlink:href="#rim" fill="#404040">
                                <set attributeName="fill" to="#808080" begin="zoomminus.mouseover" end="zoomminus.mouseout"/>
                        </use>
                        <path d="M-4,0h8" fill="none" stroke="white" stroke-width="1.5" pointer-events="none"/>
                </g>
                <g id="dirArrow">
                        <path fill="none" stroke="white" stroke-width="1.5" d="M0,-3.0v7 M-2.5,-0.5L0,-3.0L2.5,-0.5"/>
                </g>
               <g id="resetDef">
                       <use xlink:href="#rim2" fill="#404040">
                               <set attributeName="fill" to="#808080" begin="reset.mouseover" end="reset.mouseout"/>
                       </use>
               </g>
        </defs>

<script type="text/javascript">
var viewWidth = 1099;
var viewHeight = 470;
var sectionId = 'dynsection-8';
</script>
<script xlink:href="svgpan.js"/>
<svg id="graph" class="graph">
<g id="viewport">
<title>Urho3D::Material::SetScene</title>
<!-- Node1 -->
<g id="node1" class="node">
<title>Node1</title>
<g id="a_node1"><a xlink:title=" ">
<polygon fill="#bfbfbf" stroke="black" points="0,-224 0,-243 151,-243 151,-224 0,-224"/>
<text text-anchor="middle" x="75.5" y="-231" font-family="Helvetica,sans-Serif" font-size="10.00">Urho3D::Material::SetScene</text>
</a>
</g>
</g>
<!-- Node2 -->
<g id="node2" class="node">
<title>Node2</title>
<g id="a_node2"><a xlink:href="class_urho3_d_1_1_object.html#a153b96c4397e045b2ca2b2d5471d097c" target="_top" xlink:title="Unsubscribe from an event.">
<polygon fill="none" stroke="black" points="364,-289.5 364,-319.5 521,-319.5 521,-289.5 364,-289.5"/>
<text text-anchor="start" x="372" y="-307.5" font-family="Helvetica,sans-Serif" font-size="10.00">Urho3D::Object::Unsubscribe</text>
<text text-anchor="middle" x="442.5" y="-296.5" font-family="Helvetica,sans-Serif" font-size="10.00">FromEvent</text>
</a>
</g>
</g>
<!-- Node1&#45;&gt;Node2 -->
<g id="edge1" class="edge">
<title>Node1&#45;&gt;Node2</title>
<path fill="none" stroke="midnightblue" d="M125.35,-243C183.79,-254.37 282.71,-273.61 354.36,-287.55"/>
<polygon fill="midnightblue" stroke="midnightblue" points="353.8,-291.01 364.28,-289.48 355.13,-284.13 353.8,-291.01"/>
</g>
<!-- Node11 -->
<g id="node11" class="node">
<title>Node11</title>
<g id="a_node11"><a xlink:href="class_urho3_d_1_1_material.html#a91ce30ee008cdd6eef192815dd62623c" target="_top" xlink:title="Update whether should be subscribed to scene or global update events for shader parameter animation.">
<polygon fill="none" stroke="black" points="187,-196.5 187,-226.5 328,-226.5 328,-196.5 187,-196.5"/>
<text text-anchor="start" x="195" y="-214.5" font-family="Helvetica,sans-Serif" font-size="10.00">Urho3D::Material::Update</text>
<text text-anchor="middle" x="257.5" y="-203.5" font-family="Helvetica,sans-Serif" font-size="10.00">EventSubscription</text>
</a>
</g>
</g>
<!-- Node1&#45;&gt;Node11 -->
<g id="edge10" class="edge">
<title>Node1&#45;&gt;Node11</title>
<path fill="none" stroke="midnightblue" d="M151.01,-224.39C159.56,-223.35 168.31,-222.28 176.92,-221.23"/>
<polygon fill="midnightblue" stroke="midnightblue" points="177.45,-224.69 186.95,-220 176.6,-217.74 177.45,-224.69"/>
</g>
<!-- Node3 -->
<g id="node3" class="node">
<title>Node3</title>
<g id="a_node3"><a xlink:href="class_urho3_d_1_1_object.html#a00bec56f305dd6636d186e5b351d0264" target="_top" xlink:title="Find the first event handler with no specific sender.">
<polygon fill="none" stroke="black" points="570.5,-333.5 570.5,-363.5 715.5,-363.5 715.5,-333.5 570.5,-333.5"/>
<text text-anchor="start" x="578.5" y="-351.5" font-family="Helvetica,sans-Serif" font-size="10.00">Urho3D::Object::FindEvent</text>
<text text-anchor="middle" x="643" y="-340.5" font-family="Helvetica,sans-Serif" font-size="10.00">Handler</text>
</a>
</g>
</g>
<!-- Node2&#45;&gt;Node3 -->
<g id="edge2" class="edge">
<title>Node2&#45;&gt;Node3</title>
<path fill="none" stroke="midnightblue" d="M511.26,-319.52C528.25,-323.29 546.62,-327.36 564.06,-331.22"/>
<polygon fill="midnightblue" stroke="midnightblue" points="563.69,-334.73 574.21,-333.47 565.21,-327.89 563.69,-334.73"/>
</g>
<!-- Node5 -->
<g id="node5" class="node">
<title>Node5</title>
<g id="a_node5"><a xlink:href="class_urho3_d_1_1_event_handler.html#a623bae83762aa730b7e1025437834b3a" target="_top" xlink:title="Return event sender. Null if the handler is non&#45;specific.">
<polygon fill="none" stroke="black" points="782,-260.5 782,-290.5 907,-290.5 907,-260.5 782,-260.5"/>
<text text-anchor="start" x="790" y="-278.5" font-family="Helvetica,sans-Serif" font-size="10.00">Urho3D::EventHandler</text>
<text text-anchor="middle" x="844.5" y="-267.5" font-family="Helvetica,sans-Serif" font-size="10.00">::GetSender</text>
</a>
</g>
</g>
<!-- Node2&#45;&gt;Node5 -->
<g id="edge4" class="edge">
<title>Node2&#45;&gt;Node5</title>
<path fill="none" stroke="midnightblue" d="M521.06,-299.25C578.49,-295.31 658.64,-289.73 729,-284.5 742.76,-283.48 757.45,-282.35 771.56,-281.25"/>
<polygon fill="midnightblue" stroke="midnightblue" points="772.01,-284.72 781.71,-280.45 771.46,-277.75 772.01,-284.72"/>
</g>
<!-- Node6 -->
<g id="node6" class="node">
<title>Node6</title>
<g id="a_node6"><a xlink:href="class_urho3_d_1_1_context.html#a7b5bd076e695054df7930255c3eee18b" target="_top" xlink:title="Remove event receiver from specific events.">
<polygon fill="none" stroke="black" points="557,-382.5 557,-412.5 729,-412.5 729,-382.5 557,-382.5"/>
<text text-anchor="start" x="565" y="-400.5" font-family="Helvetica,sans-Serif" font-size="10.00">Urho3D::Context::RemoveEvent</text>
<text text-anchor="middle" x="643" y="-389.5" font-family="Helvetica,sans-Serif" font-size="10.00">Receiver</text>
</a>
</g>
</g>
<!-- Node2&#45;&gt;Node6 -->
<g id="edge5" class="edge">
<title>Node2&#45;&gt;Node6</title>
<path fill="none" stroke="midnightblue" d="M464.8,-319.51C486.97,-334.59 523.13,-357.66 557,-372.5 562.42,-374.87 568.12,-377.1 573.91,-379.16"/>
<polygon fill="midnightblue" stroke="midnightblue" points="573.09,-382.58 583.68,-382.49 575.35,-375.95 573.09,-382.58"/>
</g>
<!-- Node4 -->
<g id="node4" class="node">
<title>Node4</title>
<g id="a_node4"><a xlink:href="class_urho3_d_1_1_event_handler.html#a9ca2279f2ae089c9c99965e3edfe6bf7" target="_top" xlink:title="Return event type.">
<polygon fill="none" stroke="black" points="782,-333.5 782,-363.5 907,-363.5 907,-333.5 782,-333.5"/>
<text text-anchor="start" x="790" y="-351.5" font-family="Helvetica,sans-Serif" font-size="10.00">Urho3D::EventHandler</text>
<text text-anchor="middle" x="844.5" y="-340.5" font-family="Helvetica,sans-Serif" font-size="10.00">::GetEventType</text>
</a>
</g>
</g>
<!-- Node3&#45;&gt;Node4 -->
<g id="edge3" class="edge">
<title>Node3&#45;&gt;Node4</title>
<path fill="none" stroke="midnightblue" d="M715.74,-348.5C733.94,-348.5 753.5,-348.5 771.7,-348.5"/>
<polygon fill="midnightblue" stroke="midnightblue" points="771.95,-352 781.95,-348.5 771.95,-345 771.95,-352"/>
</g>
<!-- Node7 -->
<g id="node7" class="node">
<title>Node7</title>
<g id="a_node7"><a xlink:href="class_urho3_d_1_1_context.html#a9fb05332cbe2a78d23bd6d3e92cfa817" target="_top" xlink:title="Return event receivers for a sender and event type, or null if they do not exist.">
<polygon fill="none" stroke="black" points="770,-382.5 770,-412.5 919,-412.5 919,-382.5 770,-382.5"/>
<text text-anchor="start" x="778" y="-400.5" font-family="Helvetica,sans-Serif" font-size="10.00">Urho3D::Context::GetEvent</text>
<text text-anchor="middle" x="844.5" y="-389.5" font-family="Helvetica,sans-Serif" font-size="10.00">Receivers</text>
</a>
</g>
</g>
<!-- Node6&#45;&gt;Node7 -->
<g id="edge6" class="edge">
<title>Node6&#45;&gt;Node7</title>
<path fill="none" stroke="midnightblue" d="M729.18,-397.5C739.35,-397.5 749.72,-397.5 759.87,-397.5"/>
<polygon fill="midnightblue" stroke="midnightblue" points="759.92,-401 769.92,-397.5 759.92,-394 759.92,-401"/>
</g>
<!-- Node10 -->
<g id="node10" class="node">
<title>Node10</title>
<g id="a_node10"><a xlink:href="class_urho3_d_1_1_event_receiver_group.html#a3074ee82cc374a0a9145fe8847086022" target="_top" xlink:title="Remove receiver. Leave holes during send, which requires later cleanup.">
<polygon fill="none" stroke="black" points="765,-431.5 765,-461.5 924,-461.5 924,-431.5 765,-431.5"/>
<text text-anchor="start" x="773" y="-449.5" font-family="Helvetica,sans-Serif" font-size="10.00">Urho3D::EventReceiverGroup</text>
<text text-anchor="middle" x="844.5" y="-438.5" font-family="Helvetica,sans-Serif" font-size="10.00">::Remove</text>
</a>
</g>
</g>
<!-- Node6&#45;&gt;Node10 -->
<g id="edge9" class="edge">
<title>Node6&#45;&gt;Node10</title>
<path fill="none" stroke="midnightblue" d="M705.21,-412.53C726.47,-417.76 750.48,-423.65 772.46,-429.05"/>
<polygon fill="midnightblue" stroke="midnightblue" points="771.86,-432.51 782.4,-431.49 773.53,-425.71 771.86,-432.51"/>
</g>
<!-- Node8 -->
<g id="node8" class="node">
<title>Node8</title>
<g id="a_node8"><a xlink:href="class_urho3_d_1_1_hash_map.html#a47eb201d8441d4e4be8626e615cb562d" target="_top" xlink:title="Return iterator to the end.">
<polygon fill="none" stroke="black" points="961,-407 961,-426 1090,-426 1090,-407 961,-407"/>
<text text-anchor="middle" x="1025.5" y="-414" font-family="Helvetica,sans-Serif" font-size="10.00">Urho3D::HashMap::End</text>
</a>
</g>
</g>
<!-- Node7&#45;&gt;Node8 -->
<g id="edge7" class="edge">
<title>Node7&#45;&gt;Node8</title>
<path fill="none" stroke="midnightblue" d="M919.08,-405.31C929.6,-406.43 940.43,-407.58 950.95,-408.69"/>
<polygon fill="midnightblue" stroke="midnightblue" points="950.61,-412.18 960.93,-409.75 951.35,-405.22 950.61,-412.18"/>
</g>
<!-- Node9 -->
<g id="node9" class="node">
<title>Node9</title>
<g id="a_node9"><a xlink:href="class_urho3_d_1_1_hash_map.html#a9dc4e5c0ad1feb3eec2d2f1f1714698d" target="_top" xlink:title="Return iterator to the pair with key, or end iterator if not found.">
<polygon fill="none" stroke="black" points="960,-369 960,-388 1091,-388 1091,-369 960,-369"/>
<text text-anchor="middle" x="1025.5" y="-376" font-family="Helvetica,sans-Serif" font-size="10.00">Urho3D::HashMap::Find</text>
</a>
</g>
</g>
<!-- Node7&#45;&gt;Node9 -->
<g id="edge8" class="edge">
<title>Node7&#45;&gt;Node9</title>
<path fill="none" stroke="midnightblue" d="M919.08,-389.69C929.21,-388.62 939.61,-387.51 949.76,-386.43"/>
<polygon fill="midnightblue" stroke="midnightblue" points="950.22,-389.9 959.8,-385.37 949.48,-382.94 950.22,-389.9"/>
</g>
<!-- Node11&#45;&gt;Node2 -->
<g id="edge24" class="edge">
<title>Node11&#45;&gt;Node2</title>
<path fill="none" stroke="midnightblue" d="M288.31,-226.65C319.41,-242.46 368.32,-267.31 402.49,-284.67"/>
<polygon fill="midnightblue" stroke="midnightblue" points="401.2,-287.95 411.7,-289.36 404.37,-281.71 401.2,-287.95"/>
</g>
<!-- Node12 -->
<g id="node12" class="node">
<title>Node12</title>
<g id="a_node12"><a xlink:href="class_urho3_d_1_1_material.html#ae986fec7e386899faf5002c532c56ee2" target="_top" xlink:title="Update shader parameter animations.">
<polygon fill="none" stroke="black" points="370,-146.5 370,-176.5 515,-176.5 515,-146.5 370,-146.5"/>
<text text-anchor="start" x="378" y="-164.5" font-family="Helvetica,sans-Serif" font-size="10.00">Urho3D::Material::Handle</text>
<text text-anchor="middle" x="442.5" y="-153.5" font-family="Helvetica,sans-Serif" font-size="10.00">AttributeAnimationUpdate</text>
</a>
</g>
</g>
<!-- Node11&#45;&gt;Node12 -->
<g id="edge11" class="edge">
<title>Node11&#45;&gt;Node12</title>
<path fill="none" stroke="midnightblue" d="M313.41,-196.5C333.31,-191.06 355.98,-184.87 376.66,-179.22"/>
<polygon fill="midnightblue" stroke="midnightblue" points="377.59,-182.59 386.32,-176.58 375.75,-175.84 377.59,-182.59"/>
</g>
<!-- Node19 -->
<g id="node19" class="node">
<title>Node19</title>
<g id="a_node19"><a xlink:href="class_urho3_d_1_1_object.html#a7d9d061f4cf32f5fd5531e11a72834b6" target="_top" xlink:title="Subscribe to an event that can be sent by any sender.">
<polygon fill="none" stroke="black" points="370.5,-196.5 370.5,-226.5 514.5,-226.5 514.5,-196.5 370.5,-196.5"/>
<text text-anchor="start" x="378.5" y="-214.5" font-family="Helvetica,sans-Serif" font-size="10.00">Urho3D::Object::Subscribe</text>
<text text-anchor="middle" x="442.5" y="-203.5" font-family="Helvetica,sans-Serif" font-size="10.00">ToEvent</text>
</a>
</g>
</g>
<!-- Node11&#45;&gt;Node19 -->
<g id="edge19" class="edge">
<title>Node11&#45;&gt;Node19</title>
<path fill="none" stroke="midnightblue" d="M328.21,-211.5C338.69,-211.5 349.59,-211.5 360.29,-211.5"/>
<polygon fill="midnightblue" stroke="midnightblue" points="360.47,-215 370.47,-211.5 360.47,-208 360.47,-215"/>
</g>
<!-- Node13 -->
<g id="node13" class="node">
<title>Node13</title>
<g id="a_node13"><a xlink:href="class_urho3_d_1_1_material.html#af87458615722fd8505c8d21460910d68" target="_top" xlink:title="Set shader parameter animation.">
<polygon fill="none" stroke="black" points="565.5,-98.5 565.5,-128.5 720.5,-128.5 720.5,-98.5 565.5,-98.5"/>
<text text-anchor="start" x="573.5" y="-116.5" font-family="Helvetica,sans-Serif" font-size="10.00">Urho3D::Material::SetShader</text>
<text text-anchor="middle" x="643" y="-105.5" font-family="Helvetica,sans-Serif" font-size="10.00">ParameterAnimation</text>
</a>
</g>
</g>
<!-- Node12&#45;&gt;Node13 -->
<g id="edge12" class="edge">
<title>Node12&#45;&gt;Node13</title>
<path fill="none" stroke="midnightblue" d="M505.76,-146.44C526.18,-141.51 549.03,-135.98 570.1,-130.89"/>
<polygon fill="midnightblue" stroke="midnightblue" points="571.06,-134.25 579.96,-128.5 569.42,-127.45 571.06,-134.25"/>
</g>
<!-- Node13&#45;&gt;Node11 -->
<g id="edge18" class="edge">
<title>Node13&#45;&gt;Node11</title>
<path fill="none" stroke="midnightblue" d="M565.34,-109.1C508.17,-108.34 429.05,-112.74 364,-136.5 332.46,-148.02 301.8,-171.64 281.73,-189.31"/>
<polygon fill="midnightblue" stroke="midnightblue" points="279.15,-186.93 274.07,-196.23 283.84,-192.13 279.15,-186.93"/>
</g>
<!-- Node14 -->
<g id="node14" class="node">
<title>Node14</title>
<g id="a_node14"><a xlink:href="class_urho3_d_1_1_value_animation_info.html#ac4017f6b992ba8953c30a251c3e1aed9" target="_top" xlink:title="Return animation.">
<polygon fill="none" stroke="black" points="767,-0.5 767,-30.5 922,-30.5 922,-0.5 767,-0.5"/>
<text text-anchor="start" x="775" y="-18.5" font-family="Helvetica,sans-Serif" font-size="10.00">Urho3D::ValueAnimationInfo</text>
<text text-anchor="middle" x="844.5" y="-7.5" font-family="Helvetica,sans-Serif" font-size="10.00">::GetAnimation</text>
</a>
</g>
</g>
<!-- Node13&#45;&gt;Node14 -->
<g id="edge13" class="edge">
<title>Node13&#45;&gt;Node14</title>
<path fill="none" stroke="midnightblue" d="M664.95,-98.42C688.39,-82.09 727.95,-56.17 765,-39.5 769.32,-37.56 773.84,-35.71 778.44,-33.97"/>
<polygon fill="midnightblue" stroke="midnightblue" points="779.72,-37.23 787.95,-30.56 777.36,-30.65 779.72,-37.23"/>
</g>
<!-- Node15 -->
<g id="node15" class="node">
<title>Node15</title>
<g id="a_node15"><a xlink:href="class_urho3_d_1_1_resource.html#a68469beaaa895a361a072023b26f7f42" target="_top" xlink:title=" ">
<polygon fill="none" stroke="black" points="766,-197 766,-216 923,-216 923,-197 766,-197"/>
<text text-anchor="middle" x="844.5" y="-204" font-family="Helvetica,sans-Serif" font-size="10.00">Urho3D::Resource::GetName</text>
</a>
</g>
</g>
<!-- Node13&#45;&gt;Node15 -->
<g id="edge14" class="edge">
<title>Node13&#45;&gt;Node15</title>
<path fill="none" stroke="midnightblue" d="M713.09,-128.65C718.7,-131.17 724.09,-134.09 729,-137.5 751.21,-152.9 742.6,-171.39 765,-186.5 768.71,-189 772.71,-191.19 776.86,-193.1"/>
<polygon fill="midnightblue" stroke="midnightblue" points="775.59,-196.36 786.17,-196.87 778.22,-189.87 775.59,-196.36"/>
</g>
<!-- Node16 -->
<g id="node16" class="node">
<title>Node16</title>
<g id="a_node16"><a xlink:href="class_urho3_d_1_1_material.html#a5abdbc00908155d2f3f0fd9b8fdfeb18" target="_top" xlink:title="Return shader parameter animation info.">
<polygon fill="none" stroke="black" points="766,-147.5 766,-177.5 923,-177.5 923,-147.5 766,-147.5"/>
<text text-anchor="start" x="774" y="-165.5" font-family="Helvetica,sans-Serif" font-size="10.00">Urho3D::Material::GetShader</text>
<text text-anchor="middle" x="844.5" y="-154.5" font-family="Helvetica,sans-Serif" font-size="10.00">ParameterAnimationInfo</text>
</a>
</g>
</g>
<!-- Node13&#45;&gt;Node16 -->
<g id="edge15" class="edge">
<title>Node13&#45;&gt;Node16</title>
<path fill="none" stroke="midnightblue" d="M705.21,-128.53C726.47,-133.76 750.48,-139.65 772.46,-145.05"/>
<polygon fill="midnightblue" stroke="midnightblue" points="771.86,-148.51 782.4,-147.49 773.53,-141.71 771.86,-148.51"/>
</g>
<!-- Node17 -->
<g id="node17" class="node">
<title>Node17</title>
<g id="a_node17"><a xlink:href="class_urho3_d_1_1_value_animation_info.html#aeb7780d1a07b86dfc2c23d8a81be9141" target="_top" xlink:title="Set speed.">
<polygon fill="none" stroke="black" points="767,-98.5 767,-128.5 922,-128.5 922,-98.5 767,-98.5"/>
<text text-anchor="start" x="775" y="-116.5" font-family="Helvetica,sans-Serif" font-size="10.00">Urho3D::ValueAnimationInfo</text>
<text text-anchor="middle" x="844.5" y="-105.5" font-family="Helvetica,sans-Serif" font-size="10.00">::SetSpeed</text>
</a>
</g>
</g>
<!-- Node13&#45;&gt;Node17 -->
<g id="edge16" class="edge">
<title>Node13&#45;&gt;Node17</title>
<path fill="none" stroke="midnightblue" d="M720.56,-113.5C732.41,-113.5 744.72,-113.5 756.77,-113.5"/>
<polygon fill="midnightblue" stroke="midnightblue" points="756.81,-117 766.81,-113.5 756.81,-110 756.81,-117"/>
</g>
<!-- Node18 -->
<g id="node18" class="node">
<title>Node18</title>
<g id="a_node18"><a xlink:href="class_urho3_d_1_1_value_animation_info.html#af35217023984ff6073326cae7a7405e6" target="_top" xlink:title="Set wrap mode.">
<polygon fill="none" stroke="black" points="767,-49.5 767,-79.5 922,-79.5 922,-49.5 767,-49.5"/>
<text text-anchor="start" x="775" y="-67.5" font-family="Helvetica,sans-Serif" font-size="10.00">Urho3D::ValueAnimationInfo</text>
<text text-anchor="middle" x="844.5" y="-56.5" font-family="Helvetica,sans-Serif" font-size="10.00">::SetWrapMode</text>
</a>
</g>
</g>
<!-- Node13&#45;&gt;Node18 -->
<g id="edge17" class="edge">
<title>Node13&#45;&gt;Node18</title>
<path fill="none" stroke="midnightblue" d="M705.21,-98.47C726.47,-93.24 750.48,-87.35 772.46,-81.95"/>
<polygon fill="midnightblue" stroke="midnightblue" points="773.53,-85.29 782.4,-79.51 771.86,-78.49 773.53,-85.29"/>
</g>
<!-- Node20 -->
<g id="node20" class="node">
<title>Node20</title>
<g id="a_node20"><a xlink:href="class_urho3_d_1_1_context.html#ae3e0c5db85e2395f3d34941003c816ad" target="_top" xlink:title="Add event receiver.">
<polygon fill="none" stroke="black" points="568,-196.5 568,-226.5 718,-226.5 718,-196.5 568,-196.5"/>
<text text-anchor="start" x="576" y="-214.5" font-family="Helvetica,sans-Serif" font-size="10.00">Urho3D::Context::AddEvent</text>
<text text-anchor="middle" x="643" y="-203.5" font-family="Helvetica,sans-Serif" font-size="10.00">Receiver</text>
</a>
</g>
</g>
<!-- Node19&#45;&gt;Node20 -->
<g id="edge20" class="edge">
<title>Node19&#45;&gt;Node20</title>
<path fill="none" stroke="midnightblue" d="M514.6,-211.5C528.48,-211.5 543.15,-211.5 557.42,-211.5"/>
<polygon fill="midnightblue" stroke="midnightblue" points="557.71,-215 567.71,-211.5 557.71,-208 557.71,-215"/>
</g>
<!-- Node21 -->
<g id="node21" class="node">
<title>Node21</title>
<g id="a_node21"><a xlink:href="class_urho3_d_1_1_object.html#ad9d3702ab78a9d8a8ddad6aae7144abb" target="_top" xlink:title="Find the first event handler with specific sender.">
<polygon fill="none" stroke="black" points="565.5,-147.5 565.5,-177.5 720.5,-177.5 720.5,-147.5 565.5,-147.5"/>
<text text-anchor="start" x="573.5" y="-165.5" font-family="Helvetica,sans-Serif" font-size="10.00">Urho3D::Object::FindSpecific</text>
<text text-anchor="middle" x="643" y="-154.5" font-family="Helvetica,sans-Serif" font-size="10.00">EventHandler</text>
</a>
</g>
</g>
<!-- Node19&#45;&gt;Node21 -->
<g id="edge21" class="edge">
<title>Node19&#45;&gt;Node21</title>
<path fill="none" stroke="midnightblue" d="M504.41,-196.47C525.55,-191.24 549.45,-185.35 571.32,-179.95"/>
<polygon fill="midnightblue" stroke="midnightblue" points="572.34,-183.3 581.21,-177.51 570.66,-176.5 572.34,-183.3"/>
</g>
<!-- Node22 -->
<g id="node22" class="node">
<title>Node22</title>
<g id="a_node22"><a xlink:href="class_urho3_d_1_1_event_handler.html#abe76f0245895dadac146b7a4b7d78713" target="_top" xlink:title="Set sender and event type.">
<polygon fill="none" stroke="black" points="572.5,-245.5 572.5,-275.5 713.5,-275.5 713.5,-245.5 572.5,-245.5"/>
<text text-anchor="start" x="580.5" y="-263.5" font-family="Helvetica,sans-Serif" font-size="10.00">Urho3D::EventHandler</text>
<text text-anchor="middle" x="643" y="-252.5" font-family="Helvetica,sans-Serif" font-size="10.00">::SetSenderAndEventType</text>
</a>
</g>
</g>
<!-- Node19&#45;&gt;Node22 -->
<g id="edge23" class="edge">
<title>Node19&#45;&gt;Node22</title>
<path fill="none" stroke="midnightblue" d="M504.41,-226.53C525.55,-231.76 549.45,-237.65 571.32,-243.05"/>
<polygon fill="midnightblue" stroke="midnightblue" points="570.66,-246.5 581.21,-245.49 572.34,-239.7 570.66,-246.5"/>
</g>
<!-- Node21&#45;&gt;Node5 -->
<g id="edge22" class="edge">
<title>Node21&#45;&gt;Node5</title>
<path fill="none" stroke="midnightblue" d="M710.94,-177.54C717.25,-180.09 723.38,-183.05 729,-186.5 749.11,-198.84 746.9,-210.37 765,-225.5 778.02,-236.38 793.56,-246.75 807.37,-255.19"/>
<polygon fill="midnightblue" stroke="midnightblue" points="805.77,-258.31 816.15,-260.45 809.37,-252.31 805.77,-258.31"/>
</g>
</g>
</svg>
        <g id="navigator" transform="translate(0 0)" fill="#404254">
                <rect fill="#f2f5e9" fill-opacity="0.5" stroke="#606060" stroke-width=".5" x="0" y="0" width="60" height="60"/>
                <use id="zoomplus" xlink:href="#zoomPlus" x="17" y="9" onmousedown="handleZoom(evt,'in')"/>
                <use id="zoomminus" xlink:href="#zoomMin" x="42" y="9" onmousedown="handleZoom(evt,'out')"/>
                <use id="reset" xlink:href="#resetDef" x="30" y="36" onmousedown="handleReset()"/>
                <g id="arrowUp" xlink:href="#dirArrow" transform="translate(30 24)" onmousedown="handlePan(0,-1)">
                  <use xlink:href="#rim" fill="#404040">
                        <set attributeName="fill" to="#808080" begin="arrowUp.mouseover" end="arrowUp.mouseout"/>
                  </use>
                  <path fill="none" stroke="white" stroke-width="1.5" d="M0,-3.0v7 M-2.5,-0.5L0,-3.0L2.5,-0.5"/>
                </g>
                <g id="arrowRight" xlink:href="#dirArrow" transform="rotate(90) translate(36 -43)" onmousedown="handlePan(1,0)">
                  <use xlink:href="#rim" fill="#404040">
                        <set attributeName="fill" to="#808080" begin="arrowRight.mouseover" end="arrowRight.mouseout"/>
                  </use>
                  <path fill="none" stroke="white" stroke-width="1.5" d="M0,-3.0v7 M-2.5,-0.5L0,-3.0L2.5,-0.5"/>
                </g>
                <g id="arrowDown" xlink:href="#dirArrow" transform="rotate(180) translate(-30 -48)" onmousedown="handlePan(0,1)">
                  <use xlink:href="#rim" fill="#404040">
                        <set attributeName="fill" to="#808080" begin="arrowDown.mouseover" end="arrowDown.mouseout"/>
                  </use>
                  <path fill="none" stroke="white" stroke-width="1.5" d="M0,-3.0v7 M-2.5,-0.5L0,-3.0L2.5,-0.5"/>
                </g>
                <g id="arrowLeft" xlink:href="#dirArrow" transform="rotate(270) translate(-36 17)" onmousedown="handlePan(-1,0)">
                  <use xlink:href="#rim" fill="#404040">
                        <set attributeName="fill" to="#808080" begin="arrowLeft.mouseover" end="arrowLeft.mouseout"/>
                  </use>
                  <path fill="none" stroke="white" stroke-width="1.5" d="M0,-3.0v7 M-2.5,-0.5L0,-3.0L2.5,-0.5"/>
                </g>
        </g>
        <svg viewBox="0 0 15 15" width="100%" height="30px" preserveAspectRatio="xMaxYMin meet">
         <g id="arrow_out" transform="scale(0.3 0.3)">
          <a xlink:href="class_urho3_d_1_1_material_acefba652015ea89aa6d99149e33e1257_cgraph_org.svg" target="_base">
           <rect id="button" ry="5" rx="5" y="6" x="6" height="38" width="38"
                fill="#f2f5e9" fill-opacity="0.5" stroke="#606060" stroke-width="1.0"/>
           <path id="arrow"
             d="M 11.500037,31.436501 C 11.940474,20.09759 22.043105,11.32322 32.158766,21.979434 L 37.068811,17.246167 C 37.068811,17.246167 37.088388,32 37.088388,32 L 22.160133,31.978069 C 22.160133,31.978069 26.997745,27.140456 26.997745,27.140456 C 18.528582,18.264221 13.291696,25.230495 11.500037,31.436501 z"
             style="fill:#404040;"/>
          </a>
         </g>
        </svg>
</svg>
