<?xml version="1.0" encoding="UTF-8" standalone="no"?>
<!DOCTYPE svg PUBLIC "-//W3C//DTD SVG 1.1//EN"
 "http://www.w3.org/Graphics/SVG/1.1/DTD/svg11.dtd">
<!-- Generated by graphviz version 2.43.0 (0)
 -->
<!-- Title: Urho3D::TileMapLayer2D::SetDrawOrder Pages: 1 -->
<svg width="867pt" height="137pt"
 viewBox="0.00 0.00 867.00 137.00" xmlns="http://www.w3.org/2000/svg" xmlns:xlink="http://www.w3.org/1999/xlink">
<g id="graph0" class="graph" transform="scale(1 1) rotate(0) translate(4 133)">
<title>Urho3D::TileMapLayer2D::SetDrawOrder</title>
<!-- Node1 -->
<g id="node1" class="node">
<title>Node1</title>
<g id="a_node1"><a xlink:title=" ">
<polygon fill="#bfbfbf" stroke="black" points="0,-24.5 0,-54.5 139,-54.5 139,-24.5 0,-24.5"/>
<text text-anchor="start" x="8" y="-42.5" font-family="Helvetica,sans-Serif" font-size="10.00">Urho3D::TileMapLayer2D</text>
<text text-anchor="middle" x="69.5" y="-31.5" font-family="Helvetica,sans-Serif" font-size="10.00">::SetDrawOrder</text>
</a>
</g>
</g>
<!-- Node2 -->
<g id="node2" class="node">
<title>Node2</title>
<g id="a_node2"><a xlink:href="class_urho3_d_1_1_drawable2_d.html#ac9f626566fe697b52a9a480124a9d17b" target="_top" xlink:title=" ">
<polygon fill="none" stroke="black" points="175,-24.5 175,-54.5 294,-54.5 294,-24.5 175,-24.5"/>
<text text-anchor="start" x="183" y="-42.5" font-family="Helvetica,sans-Serif" font-size="10.00">Urho3D::Drawable2D</text>
<text text-anchor="middle" x="234.5" y="-31.5" font-family="Helvetica,sans-Serif" font-size="10.00">::SetLayer</text>
</a>
</g>
</g>
<!-- Node1&#45;&gt;Node2 -->
<g id="edge1" class="edge">
<title>Node1&#45;&gt;Node2</title>
<path fill="none" stroke="midnightblue" d="M139.15,-39.5C147.63,-39.5 156.29,-39.5 164.77,-39.5"/>
<polygon fill="midnightblue" stroke="midnightblue" points="164.99,-43 174.99,-39.5 164.99,-36 164.99,-43"/>
</g>
<!-- Node3 -->
<g id="node3" class="node">
<title>Node3</title>
<g id="a_node3"><a xlink:href="class_urho3_d_1_1_component.html#aaf87acb64001774c62f0784254f9b291" target="_top" xlink:title="Mark for attribute check on the next network update.">
<polygon fill="none" stroke="black" points="334.5,-49.5 334.5,-79.5 456.5,-79.5 456.5,-49.5 334.5,-49.5"/>
<text text-anchor="start" x="342.5" y="-67.5" font-family="Helvetica,sans-Serif" font-size="10.00">Urho3D::Component::</text>
<text text-anchor="middle" x="395.5" y="-56.5" font-family="Helvetica,sans-Serif" font-size="10.00">MarkNetworkUpdate</text>
</a>
</g>
</g>
<!-- Node2&#45;&gt;Node3 -->
<g id="edge2" class="edge">
<title>Node2&#45;&gt;Node3</title>
<path fill="none" stroke="midnightblue" d="M294.25,-48.74C304.07,-50.28 314.35,-51.9 324.42,-53.48"/>
<polygon fill="midnightblue" stroke="midnightblue" points="323.97,-56.95 334.39,-55.05 325.06,-50.04 323.97,-56.95"/>
</g>
<!-- Node9 -->
<g id="node9" class="node">
<title>Node9</title>
<g id="a_node9"><a xlink:href="class_urho3_d_1_1_drawable2_d.html#a8decb5bbd0d13df6c899fca31ca9f2ad" target="_top" xlink:title="Handle draw order changed.">
<polygon fill="none" stroke="black" points="330,-0.5 330,-30.5 461,-30.5 461,-0.5 330,-0.5"/>
<text text-anchor="start" x="338" y="-18.5" font-family="Helvetica,sans-Serif" font-size="10.00">Urho3D::Drawable2D</text>
<text text-anchor="middle" x="395.5" y="-7.5" font-family="Helvetica,sans-Serif" font-size="10.00">::OnDrawOrderChanged</text>
</a>
</g>
</g>
<!-- Node2&#45;&gt;Node9 -->
<g id="edge8" class="edge">
<title>Node2&#45;&gt;Node9</title>
<path fill="none" stroke="midnightblue" d="M294.25,-30.63C302.58,-29.37 311.24,-28.07 319.82,-26.77"/>
<polygon fill="midnightblue" stroke="midnightblue" points="320.47,-30.21 329.83,-25.26 319.42,-23.29 320.47,-30.21"/>
</g>
<!-- Node4 -->
<g id="node4" class="node">
<title>Node4</title>
<g id="a_node4"><a xlink:href="class_urho3_d_1_1_component.html#a2c22f727341671a0420934f249ffe059" target="_top" xlink:title="Return the scene the node belongs to.">
<polygon fill="none" stroke="black" points="516.5,-98.5 516.5,-128.5 638.5,-128.5 638.5,-98.5 516.5,-98.5"/>
<text text-anchor="start" x="524.5" y="-116.5" font-family="Helvetica,sans-Serif" font-size="10.00">Urho3D::Component::</text>
<text text-anchor="middle" x="577.5" y="-105.5" font-family="Helvetica,sans-Serif" font-size="10.00">GetScene</text>
</a>
</g>
</g>
<!-- Node3&#45;&gt;Node4 -->
<g id="edge3" class="edge">
<title>Node3&#45;&gt;Node4</title>
<path fill="none" stroke="midnightblue" d="M451.97,-79.6C470.8,-84.73 491.99,-90.5 511.49,-95.8"/>
<polygon fill="midnightblue" stroke="midnightblue" points="510.64,-99.2 521.21,-98.45 512.48,-92.44 510.64,-99.2"/>
</g>
<!-- Node6 -->
<g id="node6" class="node">
<title>Node6</title>
<g id="a_node6"><a xlink:href="class_urho3_d_1_1_component.html#a8f1388c232ca01b7c7328c761aae6e76" target="_top" xlink:title=" ">
<polygon fill="none" stroke="black" points="516.5,-49.5 516.5,-79.5 638.5,-79.5 638.5,-49.5 516.5,-49.5"/>
<text text-anchor="start" x="524.5" y="-67.5" font-family="Helvetica,sans-Serif" font-size="10.00">Urho3D::Component::</text>
<text text-anchor="middle" x="577.5" y="-56.5" font-family="Helvetica,sans-Serif" font-size="10.00">IsReplicated</text>
</a>
</g>
</g>
<!-- Node3&#45;&gt;Node6 -->
<g id="edge5" class="edge">
<title>Node3&#45;&gt;Node6</title>
<path fill="none" stroke="midnightblue" d="M456.69,-64.5C472.6,-64.5 489.91,-64.5 506.3,-64.5"/>
<polygon fill="midnightblue" stroke="midnightblue" points="506.37,-68 516.37,-64.5 506.37,-61 506.37,-68"/>
</g>
<!-- Node8 -->
<g id="node8" class="node">
<title>Node8</title>
<g id="a_node8"><a xlink:href="class_urho3_d_1_1_scene.html#a00b724dfff718639b9de12d71139499c" target="_top" xlink:title="Mark for attribute check on the next network update.">
<polygon fill="none" stroke="black" points="497,-0.5 497,-30.5 658,-30.5 658,-0.5 497,-0.5"/>
<text text-anchor="start" x="505" y="-18.5" font-family="Helvetica,sans-Serif" font-size="10.00">Urho3D::Scene::MarkNetwork</text>
<text text-anchor="middle" x="577.5" y="-7.5" font-family="Helvetica,sans-Serif" font-size="10.00">Update</text>
</a>
</g>
</g>
<!-- Node3&#45;&gt;Node8 -->
<g id="edge7" class="edge">
<title>Node3&#45;&gt;Node8</title>
<path fill="none" stroke="midnightblue" d="M451.97,-49.4C470.8,-44.27 491.99,-38.5 511.49,-33.2"/>
<polygon fill="midnightblue" stroke="midnightblue" points="512.48,-36.56 521.21,-30.55 510.64,-29.8 512.48,-36.56"/>
</g>
<!-- Node5 -->
<g id="node5" class="node">
<title>Node5</title>
<g id="a_node5"><a xlink:href="class_urho3_d_1_1_node.html#a9c57bc1539c33614c36f8a1453d62e9a" target="_top" xlink:title=" ">
<polygon fill="none" stroke="black" points="708,-104 708,-123 845,-123 845,-104 708,-104"/>
<text text-anchor="middle" x="776.5" y="-111" font-family="Helvetica,sans-Serif" font-size="10.00">Urho3D::Node::GetScene</text>
</a>
</g>
</g>
<!-- Node4&#45;&gt;Node5 -->
<g id="edge4" class="edge">
<title>Node4&#45;&gt;Node5</title>
<path fill="none" stroke="midnightblue" d="M638.68,-113.5C657.27,-113.5 678.03,-113.5 697.64,-113.5"/>
<polygon fill="midnightblue" stroke="midnightblue" points="697.78,-117 707.78,-113.5 697.78,-110 697.78,-117"/>
</g>
<!-- Node7 -->
<g id="node7" class="node">
<title>Node7</title>
<g id="a_node7"><a xlink:href="class_urho3_d_1_1_scene.html#a97fb1222bd2f38e6c1c433c0b7e54d40" target="_top" xlink:title="Return whether the specified id is a replicated id.">
<polygon fill="none" stroke="black" points="694,-55 694,-74 859,-74 859,-55 694,-55"/>
<text text-anchor="middle" x="776.5" y="-62" font-family="Helvetica,sans-Serif" font-size="10.00">Urho3D::Scene::IsReplicatedID</text>
</a>
</g>
</g>
<!-- Node6&#45;&gt;Node7 -->
<g id="edge6" class="edge">
<title>Node6&#45;&gt;Node7</title>
<path fill="none" stroke="midnightblue" d="M638.68,-64.5C652.97,-64.5 668.54,-64.5 683.89,-64.5"/>
<polygon fill="midnightblue" stroke="midnightblue" points="683.92,-68 693.92,-64.5 683.92,-61 683.92,-68"/>
</g>
</g>
</svg>
