<?xml version="1.0" encoding="UTF-8" standalone="no"?>
<!DOCTYPE svg PUBLIC "-//W3C//DTD SVG 1.1//EN"
 "http://www.w3.org/Graphics/SVG/1.1/DTD/svg11.dtd">
<!-- Generated by graphviz version 2.43.0 (0)
 -->
<!-- Title: Urho3D::Text3D::SetMaterial Pages: 1 -->
<!--zoomable 180 -->
<svg id="main" version="1.1" xmlns="http://www.w3.org/2000/svg" xmlns:xlink="http://www.w3.org/1999/xlink" xml:space="preserve" onload="init(evt)">
<style type="text/css"><![CDATA[
.edge:hover path { stroke: red; }
.edge:hover polygon { stroke: red; fill: red; }
]]></style>
<script type="text/javascript"><![CDATA[
var edges = document.getElementsByTagName('g');
if (edges && edges.length) {
  for (var i=0;i<edges.length;i++) {
    if (edges[i].id.substr(0,4)=='edge') {
      edges[i].setAttribute('class','edge');
    }
  }
}
]]></script>
        <defs>
                <circle id="rim" cx="0" cy="0" r="7"/>
                <circle id="rim2" cx="0" cy="0" r="3.5"/>
                <g id="zoomPlus">
                        <use xlink:href="#rim" fill="#404040">
                                <set attributeName="fill" to="#808080" begin="zoomplus.mouseover" end="zoomplus.mouseout"/>
                        </use>
                        <path d="M-4,0h8M0,-4v8" fill="none" stroke="white" stroke-width="1.5" pointer-events="none"/>
                </g>
                <g id="zoomMin">
                        <use xlink:href="#rim" fill="#404040">
                                <set attributeName="fill" to="#808080" begin="zoomminus.mouseover" end="zoomminus.mouseout"/>
                        </use>
                        <path d="M-4,0h8" fill="none" stroke="white" stroke-width="1.5" pointer-events="none"/>
                </g>
                <g id="dirArrow">
                        <path fill="none" stroke="white" stroke-width="1.5" d="M0,-3.0v7 M-2.5,-0.5L0,-3.0L2.5,-0.5"/>
                </g>
               <g id="resetDef">
                       <use xlink:href="#rim2" fill="#404040">
                               <set attributeName="fill" to="#808080" begin="reset.mouseover" end="reset.mouseout"/>
                       </use>
               </g>
        </defs>

<script type="text/javascript">
var viewWidth = 759;
var viewHeight = 180;
var sectionId = 'dynsection-38';
</script>
<script xlink:href="svgpan.js"/>
<svg id="graph" class="graph">
<g id="viewport">
<title>Urho3D::Text3D::SetMaterial</title>
<!-- Node1 -->
<g id="node1" class="node">
<title>Node1</title>
<g id="a_node1"><a xlink:title=" ">
<polygon fill="#bfbfbf" stroke="black" points="0,-76.5 0,-95.5 155,-95.5 155,-76.5 0,-76.5"/>
<text text-anchor="middle" x="77.5" y="-83.5" font-family="Helvetica,sans-Serif" font-size="10.00">Urho3D::Text3D::SetMaterial</text>
</a>
</g>
</g>
<!-- Node2 -->
<g id="node2" class="node">
<title>Node2</title>
<g id="a_node2"><a xlink:href="class_urho3_d_1_1_text3_d.html#a63bf86fc02caa281fb5fc8a54356abfb" target="_top" xlink:title="Create materials for text rendering. May only be called from the main thread. Text UI batches must be...">
<polygon fill="none" stroke="black" points="191,-71 191,-101 346,-101 346,-71 191,-71"/>
<text text-anchor="start" x="199" y="-89" font-family="Helvetica,sans-Serif" font-size="10.00">Urho3D::Text3D::UpdateText</text>
<text text-anchor="middle" x="268.5" y="-78" font-family="Helvetica,sans-Serif" font-size="10.00">Materials</text>
</a>
</g>
</g>
<!-- Node1&#45;&gt;Node2 -->
<g id="edge1" class="edge">
<title>Node1&#45;&gt;Node2</title>
<path fill="none" stroke="midnightblue" d="M155.1,-86C163.56,-86 172.22,-86 180.79,-86"/>
<polygon fill="midnightblue" stroke="midnightblue" points="180.79,-89.5 190.79,-86 180.79,-82.5 180.79,-89.5"/>
</g>
<!-- Node3 -->
<g id="node3" class="node">
<title>Node3</title>
<g id="a_node3"><a xlink:href="class_urho3_d_1_1_text3_d.html#a732c2690b813bd90ff4ae9ed0f89c57f" target="_top" xlink:title=" ">
<polygon fill="none" stroke="black" points="397.5,-152.5 397.5,-171.5 534.5,-171.5 534.5,-152.5 397.5,-152.5"/>
<text text-anchor="middle" x="466" y="-159.5" font-family="Helvetica,sans-Serif" font-size="10.00">Urho3D::Text3D::GetFont</text>
</a>
</g>
</g>
<!-- Node2&#45;&gt;Node3 -->
<g id="edge2" class="edge">
<title>Node2&#45;&gt;Node3</title>
<path fill="none" stroke="midnightblue" d="M295.06,-101.23C317.36,-113.95 350.91,-131.76 382,-143 389.23,-145.62 396.95,-147.95 404.67,-150.02"/>
<polygon fill="midnightblue" stroke="midnightblue" points="403.84,-153.42 414.39,-152.49 405.56,-146.63 403.84,-153.42"/>
</g>
<!-- Node5 -->
<g id="node5" class="node">
<title>Node5</title>
<g id="a_node5"><a xlink:href="class_urho3_d_1_1_font.html#a893f986b9b7e2c29397707de1ae4bdff" target="_top" xlink:title="Is signed distance field font.">
<polygon fill="none" stroke="black" points="398.5,-114.5 398.5,-133.5 533.5,-133.5 533.5,-114.5 398.5,-114.5"/>
<text text-anchor="middle" x="466" y="-121.5" font-family="Helvetica,sans-Serif" font-size="10.00">Urho3D::Font::IsSDFFont</text>
</a>
</g>
</g>
<!-- Node2&#45;&gt;Node5 -->
<g id="edge4" class="edge">
<title>Node2&#45;&gt;Node5</title>
<path fill="none" stroke="midnightblue" d="M346.21,-100.91C366.15,-104.79 387.33,-108.9 406.19,-112.57"/>
<polygon fill="midnightblue" stroke="midnightblue" points="405.64,-116.03 416.12,-114.5 406.97,-109.16 405.64,-116.03"/>
</g>
<!-- Node6 -->
<g id="node6" class="node">
<title>Node6</title>
<g id="a_node6"><a xlink:href="class_urho3_d_1_1_pass.html#a653f75abd5e2aa50e90db33dbe24f3ed" target="_top" xlink:title=" ">
<polygon fill="none" stroke="black" points="387,-76.5 387,-95.5 545,-95.5 545,-76.5 387,-76.5"/>
<text text-anchor="middle" x="466" y="-83.5" font-family="Helvetica,sans-Serif" font-size="10.00">Urho3D::Pass::SetBlendMode</text>
</a>
</g>
</g>
<!-- Node2&#45;&gt;Node6 -->
<g id="edge5" class="edge">
<title>Node2&#45;&gt;Node6</title>
<path fill="none" stroke="midnightblue" d="M346.21,-86C356.23,-86 366.57,-86 376.77,-86"/>
<polygon fill="midnightblue" stroke="midnightblue" points="376.91,-89.5 386.91,-86 376.91,-82.5 376.91,-89.5"/>
</g>
<!-- Node7 -->
<g id="node7" class="node">
<title>Node7</title>
<g id="a_node7"><a xlink:href="class_urho3_d_1_1_pass.html#a4e3ae893279a7b7a613a3022258b80c5" target="_top" xlink:title=" ">
<polygon fill="none" stroke="black" points="386,-38.5 386,-57.5 546,-57.5 546,-38.5 386,-38.5"/>
<text text-anchor="middle" x="466" y="-45.5" font-family="Helvetica,sans-Serif" font-size="10.00">Urho3D::Pass::SetPixelShader</text>
</a>
</g>
</g>
<!-- Node2&#45;&gt;Node7 -->
<g id="edge6" class="edge">
<title>Node2&#45;&gt;Node7</title>
<path fill="none" stroke="midnightblue" d="M346.21,-71.09C366.15,-67.21 387.33,-63.1 406.19,-59.43"/>
<polygon fill="midnightblue" stroke="midnightblue" points="406.97,-62.84 416.12,-57.5 405.64,-55.97 406.97,-62.84"/>
</g>
<!-- Node9 -->
<g id="node9" class="node">
<title>Node9</title>
<g id="a_node9"><a xlink:href="class_urho3_d_1_1_pass.html#a30446a09f9bba7a2d798611253d97d74" target="_top" xlink:title=" ">
<polygon fill="none" stroke="black" points="382,-0.5 382,-19.5 550,-19.5 550,-0.5 382,-0.5"/>
<text text-anchor="middle" x="466" y="-7.5" font-family="Helvetica,sans-Serif" font-size="10.00">Urho3D::Pass::SetVertexShader</text>
</a>
</g>
</g>
<!-- Node2&#45;&gt;Node9 -->
<g id="edge8" class="edge">
<title>Node2&#45;&gt;Node9</title>
<path fill="none" stroke="midnightblue" d="M295.06,-70.77C317.36,-58.05 350.91,-40.24 382,-29 389.23,-26.38 396.95,-24.05 404.67,-21.98"/>
<polygon fill="midnightblue" stroke="midnightblue" points="405.56,-25.37 414.39,-19.51 403.84,-18.58 405.56,-25.37"/>
</g>
<!-- Node4 -->
<g id="node4" class="node">
<title>Node4</title>
<g id="a_node4"><a xlink:href="class_urho3_d_1_1_text.html#a4a5aed1fe91eeb555230fbcd46db590c" target="_top" xlink:title=" ">
<polygon fill="none" stroke="black" points="606.5,-152.5 606.5,-171.5 730.5,-171.5 730.5,-152.5 606.5,-152.5"/>
<text text-anchor="middle" x="668.5" y="-159.5" font-family="Helvetica,sans-Serif" font-size="10.00">Urho3D::Text::GetFont</text>
</a>
</g>
</g>
<!-- Node3&#45;&gt;Node4 -->
<g id="edge3" class="edge">
<title>Node3&#45;&gt;Node4</title>
<path fill="none" stroke="midnightblue" d="M534.6,-162C554.44,-162 576.2,-162 596.26,-162"/>
<polygon fill="midnightblue" stroke="midnightblue" points="596.26,-165.5 606.26,-162 596.26,-158.5 596.26,-165.5"/>
</g>
<!-- Node8 -->
<g id="node8" class="node">
<title>Node8</title>
<g id="a_node8"><a xlink:href="class_urho3_d_1_1_pass.html#a88670623f66ba1b156900449f6da9a3a" target="_top" xlink:title="Reset shader pointers.">
<polygon fill="none" stroke="black" points="586,-19.5 586,-38.5 751,-38.5 751,-19.5 586,-19.5"/>
<text text-anchor="middle" x="668.5" y="-26.5" font-family="Helvetica,sans-Serif" font-size="10.00">Urho3D::Pass::ReleaseShaders</text>
</a>
</g>
</g>
<!-- Node7&#45;&gt;Node8 -->
<g id="edge7" class="edge">
<title>Node7&#45;&gt;Node8</title>
<path fill="none" stroke="midnightblue" d="M546.24,-40.49C555.91,-39.57 565.85,-38.63 575.68,-37.7"/>
<polygon fill="midnightblue" stroke="midnightblue" points="576.25,-41.16 585.87,-36.74 575.59,-34.19 576.25,-41.16"/>
</g>
<!-- Node9&#45;&gt;Node8 -->
<g id="edge9" class="edge">
<title>Node9&#45;&gt;Node8</title>
<path fill="none" stroke="midnightblue" d="M550.29,-17.89C558.63,-18.68 567.12,-19.49 575.54,-20.29"/>
<polygon fill="midnightblue" stroke="midnightblue" points="575.47,-23.79 585.76,-21.25 576.14,-16.83 575.47,-23.79"/>
</g>
</g>
</svg>
        <g id="navigator" transform="translate(0 0)" fill="#404254">
                <rect fill="#f2f5e9" fill-opacity="0.5" stroke="#606060" stroke-width=".5" x="0" y="0" width="60" height="60"/>
                <use id="zoomplus" xlink:href="#zoomPlus" x="17" y="9" onmousedown="handleZoom(evt,'in')"/>
                <use id="zoomminus" xlink:href="#zoomMin" x="42" y="9" onmousedown="handleZoom(evt,'out')"/>
                <use id="reset" xlink:href="#resetDef" x="30" y="36" onmousedown="handleReset()"/>
                <g id="arrowUp" xlink:href="#dirArrow" transform="translate(30 24)" onmousedown="handlePan(0,-1)">
                  <use xlink:href="#rim" fill="#404040">
                        <set attributeName="fill" to="#808080" begin="arrowUp.mouseover" end="arrowUp.mouseout"/>
                  </use>
                  <path fill="none" stroke="white" stroke-width="1.5" d="M0,-3.0v7 M-2.5,-0.5L0,-3.0L2.5,-0.5"/>
                </g>
                <g id="arrowRight" xlink:href="#dirArrow" transform="rotate(90) translate(36 -43)" onmousedown="handlePan(1,0)">
                  <use xlink:href="#rim" fill="#404040">
                        <set attributeName="fill" to="#808080" begin="arrowRight.mouseover" end="arrowRight.mouseout"/>
                  </use>
                  <path fill="none" stroke="white" stroke-width="1.5" d="M0,-3.0v7 M-2.5,-0.5L0,-3.0L2.5,-0.5"/>
                </g>
                <g id="arrowDown" xlink:href="#dirArrow" transform="rotate(180) translate(-30 -48)" onmousedown="handlePan(0,1)">
                  <use xlink:href="#rim" fill="#404040">
                        <set attributeName="fill" to="#808080" begin="arrowDown.mouseover" end="arrowDown.mouseout"/>
                  </use>
                  <path fill="none" stroke="white" stroke-width="1.5" d="M0,-3.0v7 M-2.5,-0.5L0,-3.0L2.5,-0.5"/>
                </g>
                <g id="arrowLeft" xlink:href="#dirArrow" transform="rotate(270) translate(-36 17)" onmousedown="handlePan(-1,0)">
                  <use xlink:href="#rim" fill="#404040">
                        <set attributeName="fill" to="#808080" begin="arrowLeft.mouseover" end="arrowLeft.mouseout"/>
                  </use>
                  <path fill="none" stroke="white" stroke-width="1.5" d="M0,-3.0v7 M-2.5,-0.5L0,-3.0L2.5,-0.5"/>
                </g>
        </g>
        <svg viewBox="0 0 15 15" width="100%" height="30px" preserveAspectRatio="xMaxYMin meet">
         <g id="arrow_out" transform="scale(0.3 0.3)">
          <a xlink:href="class_urho3_d_1_1_text3_d_a94f9f160c95632a4dd1ce1f656eded13_cgraph_org.svg" target="_base">
           <rect id="button" ry="5" rx="5" y="6" x="6" height="38" width="38"
                fill="#f2f5e9" fill-opacity="0.5" stroke="#606060" stroke-width="1.0"/>
           <path id="arrow"
             d="M 11.500037,31.436501 C 11.940474,20.09759 22.043105,11.32322 32.158766,21.979434 L 37.068811,17.246167 C 37.068811,17.246167 37.088388,32 37.088388,32 L 22.160133,31.978069 C 22.160133,31.978069 26.997745,27.140456 26.997745,27.140456 C 18.528582,18.264221 13.291696,25.230495 11.500037,31.436501 z"
             style="fill:#404040;"/>
          </a>
         </g>
        </svg>
</svg>
