<?xml version="1.0" encoding="UTF-8" standalone="no"?>
<!DOCTYPE svg PUBLIC "-//W3C//DTD SVG 1.1//EN"
 "http://www.w3.org/Graphics/SVG/1.1/DTD/svg11.dtd">
<!-- Generated by graphviz version 2.43.0 (0)
 -->
<!-- Title: Urho3D::Renderer::GetScreenBuffer Pages: 1 -->
<svg width="375pt" height="145pt"
 viewBox="0.00 0.00 375.00 144.50" xmlns="http://www.w3.org/2000/svg" xmlns:xlink="http://www.w3.org/1999/xlink">
<g id="graph0" class="graph" transform="scale(1 1) rotate(0) translate(4 140.5)">
<title>Urho3D::Renderer::GetScreenBuffer</title>
<!-- Node1 -->
<g id="node1" class="node">
<title>Node1</title>
<g id="a_node1"><a xlink:title="Allocate a rendertarget or depth&#45;stencil texture for deferred rendering or postprocessing....">
<polygon fill="#bfbfbf" stroke="black" points="0,-49.5 0,-79.5 160,-79.5 160,-49.5 0,-49.5"/>
<text text-anchor="start" x="8" y="-67.5" font-family="Helvetica,sans-Serif" font-size="10.00">Urho3D::Renderer::GetScreen</text>
<text text-anchor="middle" x="80" y="-56.5" font-family="Helvetica,sans-Serif" font-size="10.00">Buffer</text>
</a>
</g>
</g>
<!-- Node2 -->
<g id="node2" class="node">
<title>Node2</title>
<g id="a_node2"><a xlink:href="_math_defs_8h.html#a937fef228b452d2488ce13d78f0bd810" target="_top" xlink:title="Clamp a number to a range.">
<polygon fill="none" stroke="black" points="236,-99 236,-118 327,-118 327,-99 236,-99"/>
<text text-anchor="middle" x="281.5" y="-106" font-family="Helvetica,sans-Serif" font-size="10.00">Urho3D::Clamp</text>
</a>
</g>
</g>
<!-- Node1&#45;&gt;Node2 -->
<g id="edge1" class="edge">
<title>Node1&#45;&gt;Node2</title>
<path fill="none" stroke="midnightblue" d="M149.1,-79.52C174.68,-85.16 203.36,-91.49 227.38,-96.78"/>
<polygon fill="midnightblue" stroke="midnightblue" points="226.85,-100.25 237.37,-98.99 228.36,-93.42 226.85,-100.25"/>
</g>
<!-- Node3 -->
<g id="node3" class="node">
<title>Node3</title>
<g id="a_node3"><a xlink:href="class_urho3_d_1_1_graphics.html#a609ba19c78432946e8334cc3a7bcb92e" target="_top" xlink:title="Return the API&#45;specific hardware depth&#45;stencil texture format.">
<polygon fill="none" stroke="black" points="204,-49.5 204,-79.5 359,-79.5 359,-49.5 204,-49.5"/>
<text text-anchor="start" x="212" y="-67.5" font-family="Helvetica,sans-Serif" font-size="10.00">Urho3D::Graphics::GetDepth</text>
<text text-anchor="middle" x="281.5" y="-56.5" font-family="Helvetica,sans-Serif" font-size="10.00">StencilFormat</text>
</a>
</g>
</g>
<!-- Node1&#45;&gt;Node3 -->
<g id="edge3" class="edge">
<title>Node1&#45;&gt;Node3</title>
<path fill="none" stroke="midnightblue" d="M160.13,-64.5C171.13,-64.5 182.47,-64.5 193.6,-64.5"/>
<polygon fill="midnightblue" stroke="midnightblue" points="193.74,-68 203.74,-64.5 193.74,-61 193.74,-68"/>
</g>
<!-- Node4 -->
<g id="node4" class="node">
<title>Node4</title>
<g id="a_node4"><a xlink:href="class_urho3_d_1_1_graphics.html#a1c014d24c89e047d834767e3c926630e" target="_top" xlink:title="Return the API&#45;specific readable hardware depth format, or 0 if not supported.">
<polygon fill="none" stroke="black" points="196,-0.5 196,-30.5 367,-30.5 367,-0.5 196,-0.5"/>
<text text-anchor="start" x="204" y="-18.5" font-family="Helvetica,sans-Serif" font-size="10.00">Urho3D::Graphics::GetReadable</text>
<text text-anchor="middle" x="281.5" y="-7.5" font-family="Helvetica,sans-Serif" font-size="10.00">DepthFormat</text>
</a>
</g>
</g>
<!-- Node1&#45;&gt;Node4 -->
<g id="edge4" class="edge">
<title>Node1&#45;&gt;Node4</title>
<path fill="none" stroke="midnightblue" d="M142.21,-49.47C163.47,-44.24 187.48,-38.35 209.46,-32.95"/>
<polygon fill="midnightblue" stroke="midnightblue" points="210.53,-36.29 219.4,-30.51 208.86,-29.49 210.53,-36.29"/>
</g>
<!-- Node2&#45;&gt;Node2 -->
<g id="edge2" class="edge">
<title>Node2&#45;&gt;Node2</title>
<path fill="none" stroke="midnightblue" d="M250.67,-118.26C235.68,-127.07 245.95,-136.5 281.5,-136.5 306.49,-136.5 318.99,-131.84 319,-126"/>
<polygon fill="midnightblue" stroke="midnightblue" points="321.5,-123.55 312.33,-118.26 316.2,-128.12 321.5,-123.55"/>
</g>
</g>
</svg>
