<?xml version="1.0" encoding="UTF-8" standalone="no"?>
<!DOCTYPE svg PUBLIC "-//W3C//DTD SVG 1.1//EN"
 "http://www.w3.org/Graphics/SVG/1.1/DTD/svg11.dtd">
<!-- Generated by graphviz version 2.43.0 (0)
 -->
<!-- Title: Urho3D::Texture2D::GetRenderSurface Pages: 1 -->
<svg width="500pt" height="137pt"
 viewBox="0.00 0.00 500.00 137.00" xmlns="http://www.w3.org/2000/svg" xmlns:xlink="http://www.w3.org/1999/xlink">
<g id="graph0" class="graph" transform="scale(1 1) rotate(0) translate(4 133)">
<title>Urho3D::Texture2D::GetRenderSurface</title>
<!-- Node1 -->
<g id="node1" class="node">
<title>Node1</title>
<g id="a_node1"><a xlink:title=" ">
<polygon fill="#bfbfbf" stroke="black" points="377,-49.5 377,-79.5 492,-79.5 492,-49.5 377,-49.5"/>
<text text-anchor="start" x="385" y="-67.5" font-family="Helvetica,sans-Serif" font-size="10.00">Urho3D::Texture2D::</text>
<text text-anchor="middle" x="434.5" y="-56.5" font-family="Helvetica,sans-Serif" font-size="10.00">GetRenderSurface</text>
</a>
</g>
</g>
<!-- Node2 -->
<g id="node2" class="node">
<title>Node2</title>
<g id="a_node2"><a xlink:href="class_urho3_d_1_1_graphics.html#abd08617bb78ea63930fed43edff8d3db" target="_top" xlink:title="Resolve multisampled backbuffer to a texture rendertarget. The texture&#39;s size should match the viewpo...">
<polygon fill="none" stroke="black" points="188.5,-98.5 188.5,-128.5 335.5,-128.5 335.5,-98.5 188.5,-98.5"/>
<text text-anchor="start" x="196.5" y="-116.5" font-family="Helvetica,sans-Serif" font-size="10.00">Urho3D::Graphics::Resolve</text>
<text text-anchor="middle" x="262" y="-105.5" font-family="Helvetica,sans-Serif" font-size="10.00">ToTexture</text>
</a>
</g>
</g>
<!-- Node1&#45;&gt;Node2 -->
<g id="edge1" class="edge">
<title>Node1&#45;&gt;Node2</title>
<path fill="none" stroke="midnightblue" d="M371.24,-82.39C352.9,-87.66 333.02,-93.38 315.37,-98.45"/>
<polygon fill="midnightblue" stroke="midnightblue" points="372.31,-85.73 380.95,-79.6 370.38,-79 372.31,-85.73"/>
</g>
<!-- Node4 -->
<g id="node4" class="node">
<title>Node4</title>
<g id="a_node4"><a xlink:href="class_urho3_d_1_1_graphics.html#a331dfe88f72d685e394780d3f5506e05" target="_top" xlink:title="Set depth&#45;stencil surface.">
<polygon fill="none" stroke="black" points="185.5,-49.5 185.5,-79.5 338.5,-79.5 338.5,-49.5 185.5,-49.5"/>
<text text-anchor="start" x="193.5" y="-67.5" font-family="Helvetica,sans-Serif" font-size="10.00">Urho3D::Graphics::SetDepth</text>
<text text-anchor="middle" x="262" y="-56.5" font-family="Helvetica,sans-Serif" font-size="10.00">Stencil</text>
</a>
</g>
</g>
<!-- Node1&#45;&gt;Node4 -->
<g id="edge3" class="edge">
<title>Node1&#45;&gt;Node4</title>
<path fill="none" stroke="midnightblue" d="M366.54,-64.5C357.39,-64.5 347.94,-64.5 338.64,-64.5"/>
<polygon fill="midnightblue" stroke="midnightblue" points="366.73,-68 376.73,-64.5 366.73,-61 366.73,-68"/>
</g>
<!-- Node5 -->
<g id="node5" class="node">
<title>Node5</title>
<g id="a_node5"><a xlink:href="class_urho3_d_1_1_graphics.html#ac5b4b8e93c09234e8ef16765622dda30" target="_top" xlink:title="Set rendertarget.">
<polygon fill="none" stroke="black" points="183,-0.5 183,-30.5 341,-30.5 341,-0.5 183,-0.5"/>
<text text-anchor="start" x="191" y="-18.5" font-family="Helvetica,sans-Serif" font-size="10.00">Urho3D::Graphics::SetRender</text>
<text text-anchor="middle" x="262" y="-7.5" font-family="Helvetica,sans-Serif" font-size="10.00">Target</text>
</a>
</g>
</g>
<!-- Node1&#45;&gt;Node5 -->
<g id="edge4" class="edge">
<title>Node1&#45;&gt;Node5</title>
<path fill="none" stroke="midnightblue" d="M371.24,-46.61C352.9,-41.34 333.02,-35.62 315.37,-30.55"/>
<polygon fill="midnightblue" stroke="midnightblue" points="370.38,-50 380.95,-49.4 372.31,-43.27 370.38,-50"/>
</g>
<!-- Node3 -->
<g id="node3" class="node">
<title>Node3</title>
<g id="a_node3"><a xlink:href="class_urho3_d_1_1_graphics.html#ae2c1387404dd5ed5c9dfd373e3c3f0e9" target="_top" xlink:title="Resolve a multisampled texture on itself.">
<polygon fill="none" stroke="black" points="0,-98.5 0,-128.5 147,-128.5 147,-98.5 0,-98.5"/>
<text text-anchor="start" x="8" y="-116.5" font-family="Helvetica,sans-Serif" font-size="10.00">Urho3D::Graphics::Resolve</text>
<text text-anchor="middle" x="73.5" y="-105.5" font-family="Helvetica,sans-Serif" font-size="10.00">ToTexture</text>
</a>
</g>
</g>
<!-- Node2&#45;&gt;Node3 -->
<g id="edge2" class="edge">
<title>Node2&#45;&gt;Node3</title>
<path fill="none" stroke="midnightblue" d="M178.14,-113.5C167.84,-113.5 157.38,-113.5 147.25,-113.5"/>
<polygon fill="midnightblue" stroke="midnightblue" points="178.36,-117 188.36,-113.5 178.36,-110 178.36,-117"/>
</g>
</g>
</svg>
