<?xml version="1.0" encoding="UTF-8" standalone="no"?>
<!DOCTYPE svg PUBLIC "-//W3C//DTD SVG 1.1//EN"
 "http://www.w3.org/Graphics/SVG/1.1/DTD/svg11.dtd">
<!-- Generated by graphviz version 2.36.0 (20140111.2315)
 -->
<!-- Title: Urho3D::StaticSprite2D Pages: 1 -->
<svg width="1528pt" height="671pt"
 viewBox="0.00 0.00 1528.00 671.00" xmlns="http://www.w3.org/2000/svg" xmlns:xlink="http://www.w3.org/1999/xlink">
<g id="graph0" class="graph" transform="scale(1 1) rotate(0) translate(4 667)">
<title>Urho3D::StaticSprite2D</title>
<!-- Node1 -->
<g id="node1" class="node"><title>Node1</title>
<polygon fill="#bfbfbf" stroke="black" points="1400,-183.5 1400,-202.5 1520,-202.5 1520,-183.5 1400,-183.5"/>
<text text-anchor="middle" x="1460" y="-190.5" font-family="Helvetica,sans-Serif" font-size="10.00">Urho3D::StaticSprite2D</text>
</g>
<!-- Node2 -->
<g id="node2" class="node"><title>Node2</title>
<g id="a_node2"><a xlink:href="class_urho3_d_1_1_drawable2_d.html" target="_top" xlink:title="Base class for 2D visible components. ">
<polygon fill="none" stroke="black" points="1220,-292.5 1220,-311.5 1330,-311.5 1330,-292.5 1220,-292.5"/>
<text text-anchor="middle" x="1275" y="-299.5" font-family="Helvetica,sans-Serif" font-size="10.00">Urho3D::Drawable2D</text>
</a>
</g>
</g>
<!-- Node2&#45;&gt;Node1 -->
<g id="edge1" class="edge"><title>Node2&#45;&gt;Node1</title>
<path fill="none" stroke="midnightblue" d="M1301.87,-287.45C1323.42,-275.247 1354.87,-257.256 1382,-241 1403.76,-227.965 1428.6,-212.34 1444.05,-202.539"/>
<polygon fill="midnightblue" stroke="midnightblue" points="1299.98,-284.497 1293,-292.463 1303.43,-290.591 1299.98,-284.497"/>
</g>
<!-- Node3 -->
<g id="node3" class="node"><title>Node3</title>
<g id="a_node3"><a xlink:href="class_urho3_d_1_1_drawable.html" target="_top" xlink:title="Base class for visible components. ">
<polygon fill="none" stroke="black" points="541,-386.5 541,-405.5 639,-405.5 639,-386.5 541,-386.5"/>
<text text-anchor="middle" x="590" y="-393.5" font-family="Helvetica,sans-Serif" font-size="10.00">Urho3D::Drawable</text>
</a>
</g>
</g>
<!-- Node3&#45;&gt;Node2 -->
<g id="edge2" class="edge"><title>Node3&#45;&gt;Node2</title>
<path fill="none" stroke="midnightblue" d="M610.258,-380.256C625.078,-369.113 646.585,-354.96 668,-348 894.283,-274.457 965.048,-331.586 1202,-310 1207.76,-309.475 1213.78,-308.881 1219.77,-308.258"/>
<polygon fill="midnightblue" stroke="midnightblue" points="608.108,-377.495 602.357,-386.393 612.401,-383.023 608.108,-377.495"/>
</g>
<!-- Node5 -->
<g id="node5" class="node"><title>Node5</title>
<g id="a_node5"><a xlink:href="class_urho3_d_1_1_zone.html" target="_top" xlink:title="Component that describes global rendering properties. ">
<polygon fill="none" stroke="red" points="788,-352.5 788,-371.5 866,-371.5 866,-352.5 788,-352.5"/>
<text text-anchor="middle" x="827" y="-359.5" font-family="Helvetica,sans-Serif" font-size="10.00">Urho3D::Zone</text>
</a>
</g>
</g>
<!-- Node3&#45;&gt;Node5 -->
<g id="edge5" class="edge"><title>Node3&#45;&gt;Node5</title>
<path fill="none" stroke="midnightblue" d="M649.215,-387.577C692.411,-381.328 750.092,-372.982 787.635,-367.551"/>
<polygon fill="midnightblue" stroke="midnightblue" points="648.519,-384.142 639.123,-389.038 649.521,-391.069 648.519,-384.142"/>
</g>
<!-- Node12 -->
<g id="node12" class="node"><title>Node12</title>
<g id="a_node12"><a xlink:href="class_urho3_d_1_1_light.html" target="_top" xlink:title="Light component. ">
<polygon fill="none" stroke="red" points="788.5,-431.5 788.5,-450.5 865.5,-450.5 865.5,-431.5 788.5,-431.5"/>
<text text-anchor="middle" x="827" y="-438.5" font-family="Helvetica,sans-Serif" font-size="10.00">Urho3D::Light</text>
</a>
</g>
</g>
<!-- Node3&#45;&gt;Node12 -->
<g id="edge16" class="edge"><title>Node3&#45;&gt;Node12</title>
<path fill="none" stroke="midnightblue" d="M649.282,-403.855C680.483,-408.423 719.489,-414.713 754,-422 766.649,-424.671 780.402,-428.154 792.467,-431.408"/>
<polygon fill="midnightblue" stroke="midnightblue" points="649.416,-400.338 639.018,-402.373 648.415,-407.267 649.416,-400.338"/>
</g>
<!-- Node16 -->
<g id="node16" class="node"><title>Node16</title>
<g id="a_node16"><a xlink:href="class_urho3_d_1_1_renderer2_d.html" target="_top" xlink:title="2D renderer component. ">
<polygon fill="none" stroke="red" points="772.5,-276.5 772.5,-295.5 881.5,-295.5 881.5,-276.5 772.5,-276.5"/>
<text text-anchor="middle" x="827" y="-283.5" font-family="Helvetica,sans-Serif" font-size="10.00">Urho3D::Renderer2D</text>
</a>
</g>
</g>
<!-- Node3&#45;&gt;Node16 -->
<g id="edge26" class="edge"><title>Node3&#45;&gt;Node16</title>
<path fill="none" stroke="midnightblue" d="M601.864,-377.676C614.873,-357.518 638.628,-325.881 668,-310 699.85,-292.78 740.286,-286.879 772.278,-285.233"/>
<polygon fill="midnightblue" stroke="midnightblue" points="598.822,-375.94 596.513,-386.281 604.766,-379.637 598.822,-375.94"/>
</g>
<!-- Node4 -->
<g id="node4" class="node"><title>Node4</title>
<g id="a_node4"><a xlink:href="class_urho3_d_1_1_component.html" target="_top" xlink:title="Base class for components. Components can be created to scene nodes. ">
<polygon fill="none" stroke="red" points="248.5,-463.5 248.5,-482.5 355.5,-482.5 355.5,-463.5 248.5,-463.5"/>
<text text-anchor="middle" x="302" y="-470.5" font-family="Helvetica,sans-Serif" font-size="10.00">Urho3D::Component</text>
</a>
</g>
</g>
<!-- Node4&#45;&gt;Node3 -->
<g id="edge3" class="edge"><title>Node4&#45;&gt;Node3</title>
<path fill="none" stroke="midnightblue" d="M365.705,-466.405C407.846,-460.813 464.205,-451.069 512,-435 534.3,-427.503 558.208,-414.533 573.365,-405.623"/>
<polygon fill="midnightblue" stroke="midnightblue" points="365.056,-462.959 355.583,-467.704 365.948,-469.902 365.056,-462.959"/>
</g>
<!-- Node5&#45;&gt;Node3 -->
<g id="edge4" class="edge"><title>Node5&#45;&gt;Node3</title>
<path fill="none" stroke="#9a32cd" stroke-dasharray="5,2" d="M777.487,-354.505C745.894,-351.15 704.012,-349.598 668,-358 644.627,-363.453 620.198,-377.077 605.285,-386.438"/>
<polygon fill="#9a32cd" stroke="#9a32cd" points="777.446,-358.024 787.783,-355.7 778.253,-351.071 777.446,-358.024"/>
<text text-anchor="middle" x="711" y="-361" font-family="Helvetica,sans-Serif" font-size="10.00"> zone_</text>
</g>
<!-- Node6 -->
<g id="node6" class="node"><title>Node6</title>
<g id="a_node6"><a xlink:href="class_urho3_d_1_1_bounding_box.html" target="_top" xlink:title="Three&#45;dimensional axis&#45;aligned bounding box. ">
<polygon fill="none" stroke="red" points="0,-285.5 0,-304.5 114,-304.5 114,-285.5 0,-285.5"/>
<text text-anchor="middle" x="57" y="-292.5" font-family="Helvetica,sans-Serif" font-size="10.00">Urho3D::BoundingBox</text>
</a>
</g>
</g>
<!-- Node6&#45;&gt;Node3 -->
<g id="edge18" class="edge"><title>Node6&#45;&gt;Node3</title>
<path fill="none" stroke="#9a32cd" stroke-dasharray="5,2" d="M124.391,-290.895C187.219,-288.427 283.872,-288.314 366,-304 433.806,-316.95 448.649,-329.577 512,-357 532.903,-366.048 556.129,-378.101 571.551,-386.4"/>
<polygon fill="#9a32cd" stroke="#9a32cd" points="124.063,-287.405 114.221,-291.326 124.36,-294.399 124.063,-287.405"/>
<text text-anchor="middle" x="302" y="-318" font-family="Helvetica,sans-Serif" font-size="10.00"> worldBoundingBox_</text>
<text text-anchor="middle" x="302" y="-307" font-family="Helvetica,sans-Serif" font-size="10.00">boundingBox_</text>
</g>
<!-- Node6&#45;&gt;Node5 -->
<g id="edge6" class="edge"><title>Node6&#45;&gt;Node5</title>
<path fill="none" stroke="#9a32cd" stroke-dasharray="5,2" d="M124.253,-286.545C126.867,-286.338 129.457,-286.154 132,-286 171.04,-283.635 180.889,-285.866 220,-286 284.89,-286.222 301.128,-285.445 366,-287 430.925,-288.556 447.593,-284.665 512,-293 615.233,-306.359 734.703,-336.874 791.963,-352.458"/>
<polygon fill="#9a32cd" stroke="#9a32cd" points="123.745,-283.077 114.097,-287.454 124.369,-290.049 123.745,-283.077"/>
<text text-anchor="middle" x="448" y="-296" font-family="Helvetica,sans-Serif" font-size="10.00"> lastWorldBoundingBox_</text>
</g>
<!-- Node13 -->
<g id="node13" class="node"><title>Node13</title>
<g id="a_node13"><a xlink:href="class_urho3_d_1_1_octant.html" target="_top" xlink:title="Octree octant ">
<polygon fill="none" stroke="red" points="259,-335.5 259,-354.5 345,-354.5 345,-335.5 259,-335.5"/>
<text text-anchor="middle" x="302" y="-342.5" font-family="Helvetica,sans-Serif" font-size="10.00">Urho3D::Octant</text>
</a>
</g>
</g>
<!-- Node6&#45;&gt;Node13 -->
<g id="edge20" class="edge"><title>Node6&#45;&gt;Node13</title>
<path fill="none" stroke="#9a32cd" stroke-dasharray="5,2" d="M114.283,-306.581C158.443,-315.667 218.938,-328.115 258.954,-336.349"/>
<polygon fill="#9a32cd" stroke="#9a32cd" points="114.779,-303.11 104.278,-304.522 113.368,-309.966 114.779,-303.11"/>
<text text-anchor="middle" x="176" y="-342" font-family="Helvetica,sans-Serif" font-size="10.00"> cullingBox_</text>
<text text-anchor="middle" x="176" y="-331" font-family="Helvetica,sans-Serif" font-size="10.00">worldBoundingBox_</text>
</g>
<!-- Node7 -->
<g id="node7" class="node"><title>Node7</title>
<g id="a_node7"><a xlink:href="class_urho3_d_1_1_color.html" target="_top" xlink:title="RGBA color. ">
<polygon fill="none" stroke="black" points="550,-465.5 550,-484.5 630,-484.5 630,-465.5 550,-465.5"/>
<text text-anchor="middle" x="590" y="-472.5" font-family="Helvetica,sans-Serif" font-size="10.00">Urho3D::Color</text>
</a>
</g>
</g>
<!-- Node7&#45;&gt;Node1 -->
<g id="edge43" class="edge"><title>Node7&#45;&gt;Node1</title>
<path fill="none" stroke="#9a32cd" stroke-dasharray="5,2" d="M605.289,-492.679C619.417,-508.843 642.562,-532.002 668,-544 732.241,-574.299 754.972,-568 826,-568 826,-568 826,-568 1276,-568 1443.7,-568 1457.75,-261.343 1458.9,-202.647"/>
<polygon fill="#9a32cd" stroke="#9a32cd" points="607.889,-490.334 598.758,-484.961 602.545,-494.855 607.889,-490.334"/>
<text text-anchor="middle" x="1037" y="-571" font-family="Helvetica,sans-Serif" font-size="10.00"> color_</text>
</g>
<!-- Node7&#45;&gt;Node5 -->
<g id="edge7" class="edge"><title>Node7&#45;&gt;Node5</title>
<path fill="none" stroke="#9a32cd" stroke-dasharray="5,2" d="M640.363,-472.945C682.103,-470.186 737.652,-463.781 754,-449 777.19,-428.033 750.79,-403.968 772,-381 776.383,-376.254 782.021,-372.693 787.995,-370.022"/>
<polygon fill="#9a32cd" stroke="#9a32cd" points="640.118,-469.453 630.35,-473.555 640.544,-476.44 640.118,-469.453"/>
<text text-anchor="middle" x="711" y="-507" font-family="Helvetica,sans-Serif" font-size="10.00"> ambientEndColor_</text>
<text text-anchor="middle" x="711" y="-496" font-family="Helvetica,sans-Serif" font-size="10.00">fogColor_</text>
<text text-anchor="middle" x="711" y="-485" font-family="Helvetica,sans-Serif" font-size="10.00">ambientColor_</text>
<text text-anchor="middle" x="711" y="-474" font-family="Helvetica,sans-Serif" font-size="10.00">ambientStartColor_</text>
</g>
<!-- Node7&#45;&gt;Node7 -->
<g id="edge8" class="edge"><title>Node7&#45;&gt;Node7</title>
<path fill="none" stroke="#9a32cd" stroke-dasharray="5,2" d="M567.679,-494.029C568.896,-499.128 576.337,-503 590,-503 611.328,-503 617.493,-493.565 608.495,-484.757"/>
<polygon fill="#9a32cd" stroke="#9a32cd" points="570.926,-495.336 571.505,-484.757 564.455,-492.666 570.926,-495.336"/>
<text text-anchor="middle" x="590" y="-616" font-family="Helvetica,sans-Serif" font-size="10.00"> TRANSPARENT_BLACK</text>
<text text-anchor="middle" x="590" y="-605" font-family="Helvetica,sans-Serif" font-size="10.00">CYAN</text>
<text text-anchor="middle" x="590" y="-594" font-family="Helvetica,sans-Serif" font-size="10.00">GRAY</text>
<text text-anchor="middle" x="590" y="-583" font-family="Helvetica,sans-Serif" font-size="10.00">YELLOW</text>
<text text-anchor="middle" x="590" y="-572" font-family="Helvetica,sans-Serif" font-size="10.00">MAGENTA</text>
<text text-anchor="middle" x="590" y="-561" font-family="Helvetica,sans-Serif" font-size="10.00">WHITE</text>
<text text-anchor="middle" x="590" y="-550" font-family="Helvetica,sans-Serif" font-size="10.00">BLUE</text>
<text text-anchor="middle" x="590" y="-539" font-family="Helvetica,sans-Serif" font-size="10.00">BLACK</text>
<text text-anchor="middle" x="590" y="-528" font-family="Helvetica,sans-Serif" font-size="10.00">RED</text>
<text text-anchor="middle" x="590" y="-517" font-family="Helvetica,sans-Serif" font-size="10.00">GREEN</text>
<text text-anchor="middle" x="590" y="-506" font-family="Helvetica,sans-Serif" font-size="10.00">...</text>
</g>
<!-- Node7&#45;&gt;Node12 -->
<g id="edge17" class="edge"><title>Node7&#45;&gt;Node12</title>
<path fill="none" stroke="#9a32cd" stroke-dasharray="5,2" d="M611.229,-490.866C626.024,-501.416 647.084,-514.336 668,-520 704.894,-529.99 719.036,-535.441 754,-520 786.593,-505.607 810.796,-468.366 820.861,-450.645"/>
<polygon fill="#9a32cd" stroke="#9a32cd" points="613.003,-487.825 602.883,-484.689 608.839,-493.452 613.003,-487.825"/>
<text text-anchor="middle" x="711" y="-532" font-family="Helvetica,sans-Serif" font-size="10.00"> color_</text>
</g>
<!-- Node8 -->
<g id="node8" class="node"><title>Node8</title>
<g id="a_node8"><a xlink:href="class_urho3_d_1_1_p_o_d_vector.html" target="_top" xlink:title="Urho3D::PODVector\&lt;\l Urho3D::Light * \&gt;">
<polygon fill="none" stroke="black" points="245.5,-551 245.5,-581 358.5,-581 358.5,-551 245.5,-551"/>
<text text-anchor="start" x="253.5" y="-569" font-family="Helvetica,sans-Serif" font-size="10.00">Urho3D::PODVector&lt;</text>
<text text-anchor="middle" x="302" y="-558" font-family="Helvetica,sans-Serif" font-size="10.00"> Urho3D::Light * &gt;</text>
</a>
</g>
</g>
<!-- Node8&#45;&gt;Node3 -->
<g id="edge9" class="edge"><title>Node8&#45;&gt;Node3</title>
<path fill="none" stroke="#9a32cd" stroke-dasharray="5,2" d="M368.739,-568.653C414.528,-566.897 473.977,-556.877 512,-521 533.803,-500.428 515.013,-481.96 530,-456 541.979,-435.251 562.824,-416.462 576.258,-405.638"/>
<polygon fill="#9a32cd" stroke="#9a32cd" points="368.505,-565.158 358.6,-568.917 368.688,-572.156 368.505,-565.158"/>
<text text-anchor="middle" x="448" y="-581" font-family="Helvetica,sans-Serif" font-size="10.00"> vertexLights_</text>
<text text-anchor="middle" x="448" y="-570" font-family="Helvetica,sans-Serif" font-size="10.00">lights_</text>
</g>
<!-- Node9 -->
<g id="node9" class="node"><title>Node9</title>
<g id="a_node9"><a xlink:href="class_urho3_d_1_1_vector_base.html" target="_top" xlink:title="Vector base class. ">
<polygon fill="none" stroke="black" points="3.5,-528.5 3.5,-547.5 110.5,-547.5 110.5,-528.5 3.5,-528.5"/>
<text text-anchor="middle" x="57" y="-535.5" font-family="Helvetica,sans-Serif" font-size="10.00">Urho3D::VectorBase</text>
</a>
</g>
</g>
<!-- Node9&#45;&gt;Node8 -->
<g id="edge10" class="edge"><title>Node9&#45;&gt;Node8</title>
<path fill="none" stroke="midnightblue" d="M120.798,-545.236C159.348,-549.678 208.278,-555.316 245.42,-559.596"/>
<polygon fill="midnightblue" stroke="midnightblue" points="121.062,-541.743 110.727,-544.076 120.261,-548.697 121.062,-541.743"/>
</g>
<!-- Node10 -->
<g id="node10" class="node"><title>Node10</title>
<g id="a_node10"><a xlink:href="class_urho3_d_1_1_p_o_d_vector.html" target="_top" xlink:title="Urho3D::PODVector\&lt;\l Urho3D::Camera * \&gt;">
<polygon fill="none" stroke="black" points="245.5,-502 245.5,-532 358.5,-532 358.5,-502 245.5,-502"/>
<text text-anchor="start" x="253.5" y="-520" font-family="Helvetica,sans-Serif" font-size="10.00">Urho3D::PODVector&lt;</text>
<text text-anchor="middle" x="302" y="-509" font-family="Helvetica,sans-Serif" font-size="10.00"> Urho3D::Camera * &gt;</text>
</a>
</g>
</g>
<!-- Node9&#45;&gt;Node10 -->
<g id="edge12" class="edge"><title>Node9&#45;&gt;Node10</title>
<path fill="none" stroke="midnightblue" d="M120.798,-532.573C159.348,-529.241 208.278,-525.013 245.42,-521.803"/>
<polygon fill="midnightblue" stroke="midnightblue" points="120.389,-529.095 110.727,-533.443 120.992,-536.069 120.389,-529.095"/>
</g>
<!-- Node11 -->
<g id="node11" class="node"><title>Node11</title>
<g id="a_node11"><a xlink:href="class_urho3_d_1_1_vector.html" target="_top" xlink:title="Urho3D::Vector\&lt; Urho3D\l::SourceBatch \&gt;">
<polygon fill="none" stroke="black" points="238,-414 238,-444 366,-444 366,-414 238,-414"/>
<text text-anchor="start" x="246" y="-432" font-family="Helvetica,sans-Serif" font-size="10.00">Urho3D::Vector&lt; Urho3D</text>
<text text-anchor="middle" x="302" y="-421" font-family="Helvetica,sans-Serif" font-size="10.00">::SourceBatch &gt;</text>
</a>
</g>
</g>
<!-- Node9&#45;&gt;Node11 -->
<g id="edge14" class="edge"><title>Node9&#45;&gt;Node11</title>
<path fill="none" stroke="midnightblue" d="M86.773,-523.933C122.113,-506.805 184.019,-477.282 238,-454 245.672,-450.691 253.934,-447.295 261.869,-444.114"/>
<polygon fill="midnightblue" stroke="midnightblue" points="85.0035,-520.902 77.5386,-528.42 88.0627,-527.198 85.0035,-520.902"/>
</g>
<!-- Node14 -->
<g id="node14" class="node"><title>Node14</title>
<g id="a_node14"><a xlink:href="class_urho3_d_1_1_vector.html" target="_top" xlink:title="Urho3D::Vector\&lt; Urho3D\l::SourceBatch2D \&gt;">
<polygon fill="none" stroke="black" points="384,-626 384,-656 512,-656 512,-626 384,-626"/>
<text text-anchor="start" x="392" y="-644" font-family="Helvetica,sans-Serif" font-size="10.00">Urho3D::Vector&lt; Urho3D</text>
<text text-anchor="middle" x="448" y="-633" font-family="Helvetica,sans-Serif" font-size="10.00">::SourceBatch2D &gt;</text>
</a>
</g>
</g>
<!-- Node9&#45;&gt;Node14 -->
<g id="edge23" class="edge"><title>Node9&#45;&gt;Node14</title>
<path fill="none" stroke="midnightblue" d="M91.6994,-551.208C104.246,-555.883 118.674,-560.975 132,-565 218.301,-591.064 319.989,-614.277 383.983,-627.996"/>
<polygon fill="midnightblue" stroke="midnightblue" points="92.6889,-547.84 82.0974,-547.576 90.2127,-554.387 92.6889,-547.84"/>
</g>
<!-- Node10&#45;&gt;Node3 -->
<g id="edge11" class="edge"><title>Node10&#45;&gt;Node3</title>
<path fill="none" stroke="#9a32cd" stroke-dasharray="5,2" d="M368.832,-508.515C411.501,-501.08 467.26,-487.628 512,-464 540.702,-448.842 567.512,-420.867 580.613,-405.961"/>
<polygon fill="#9a32cd" stroke="#9a32cd" points="368.119,-505.086 358.834,-510.19 369.275,-511.99 368.119,-505.086"/>
<text text-anchor="middle" x="448" y="-509" font-family="Helvetica,sans-Serif" font-size="10.00"> viewCameras_</text>
</g>
<!-- Node11&#45;&gt;Node3 -->
<g id="edge13" class="edge"><title>Node11&#45;&gt;Node3</title>
<path fill="none" stroke="#9a32cd" stroke-dasharray="5,2" d="M376.226,-420.551C427.895,-414.589 495.663,-406.77 540.686,-401.575"/>
<polygon fill="#9a32cd" stroke="#9a32cd" points="375.651,-417.094 366.118,-421.717 376.453,-424.048 375.651,-417.094"/>
<text text-anchor="middle" x="448" y="-423" font-family="Helvetica,sans-Serif" font-size="10.00"> batches_</text>
</g>
<!-- Node12&#45;&gt;Node3 -->
<g id="edge15" class="edge"><title>Node12&#45;&gt;Node3</title>
<path fill="none" stroke="#9a32cd" stroke-dasharray="5,2" d="M778.109,-436.248C746.607,-432.653 704.591,-426.964 668,-419 651.641,-415.439 633.7,-410.163 619.254,-405.562"/>
<polygon fill="#9a32cd" stroke="#9a32cd" points="778.041,-439.762 788.366,-437.387 778.814,-432.804 778.041,-439.762"/>
<text text-anchor="middle" x="711" y="-437" font-family="Helvetica,sans-Serif" font-size="10.00"> firstLight_</text>
</g>
<!-- Node13&#45;&gt;Node3 -->
<g id="edge19" class="edge"><title>Node13&#45;&gt;Node3</title>
<path fill="none" stroke="#9a32cd" stroke-dasharray="5,2" d="M355.069,-354.285C408.023,-363.728 489.407,-378.24 540.888,-387.421"/>
<polygon fill="#9a32cd" stroke="#9a32cd" points="355.659,-350.835 345.2,-352.525 354.431,-357.726 355.659,-350.835"/>
<text text-anchor="middle" x="448" y="-384" font-family="Helvetica,sans-Serif" font-size="10.00"> octant_</text>
</g>
<!-- Node13&#45;&gt;Node13 -->
<g id="edge21" class="edge"><title>Node13&#45;&gt;Node13</title>
<path fill="none" stroke="#9a32cd" stroke-dasharray="5,2" d="M278.563,-364.029C279.841,-369.128 287.654,-373 302,-373 324.395,-373 330.868,-363.565 321.42,-354.757"/>
<polygon fill="#9a32cd" stroke="#9a32cd" points="281.816,-365.324 282.58,-354.757 275.393,-362.541 281.816,-365.324"/>
<text text-anchor="middle" x="302" y="-387" font-family="Helvetica,sans-Serif" font-size="10.00"> parent_</text>
<text text-anchor="middle" x="302" y="-376" font-family="Helvetica,sans-Serif" font-size="10.00">children_</text>
</g>
<!-- Node14&#45;&gt;Node2 -->
<g id="edge22" class="edge"><title>Node14&#45;&gt;Node2</title>
<path fill="none" stroke="#9a32cd" stroke-dasharray="5,2" d="M522.443,-645.749C574.723,-648.725 646.648,-652 710,-652 710,-652 710,-652 1038,-652 1206.93,-652 1262.98,-368.254 1272.47,-311.726"/>
<polygon fill="#9a32cd" stroke="#9a32cd" points="522.443,-642.243 512.257,-645.159 522.038,-649.231 522.443,-642.243"/>
<text text-anchor="middle" x="827" y="-655" font-family="Helvetica,sans-Serif" font-size="10.00"> sourceBatches_</text>
</g>
<!-- Node15 -->
<g id="node15" class="node"><title>Node15</title>
<g id="a_node15"><a xlink:href="class_urho3_d_1_1_weak_ptr.html" target="_top" xlink:title="Urho3D::WeakPtr\&lt; Urho3D\l::Renderer2D \&gt;">
<polygon fill="none" stroke="black" points="968.5,-265 968.5,-295 1105.5,-295 1105.5,-265 968.5,-265"/>
<text text-anchor="start" x="976.5" y="-283" font-family="Helvetica,sans-Serif" font-size="10.00">Urho3D::WeakPtr&lt; Urho3D</text>
<text text-anchor="middle" x="1037" y="-272" font-family="Helvetica,sans-Serif" font-size="10.00">::Renderer2D &gt;</text>
</a>
</g>
</g>
<!-- Node15&#45;&gt;Node2 -->
<g id="edge24" class="edge"><title>Node15&#45;&gt;Node2</title>
<path fill="none" stroke="#9a32cd" stroke-dasharray="5,2" d="M1116.01,-287.272C1150.03,-290.443 1189.07,-294.083 1219.84,-296.951"/>
<polygon fill="#9a32cd" stroke="#9a32cd" points="1115.91,-283.748 1105.63,-286.304 1115.26,-290.717 1115.91,-283.748"/>
<text text-anchor="middle" x="1163" y="-298" font-family="Helvetica,sans-Serif" font-size="10.00"> renderer_</text>
</g>
<!-- Node16&#45;&gt;Node15 -->
<g id="edge25" class="edge"><title>Node16&#45;&gt;Node15</title>
<path fill="none" stroke="#9a32cd" stroke-dasharray="5,2" d="M891.746,-284.161C916.042,-283.46 943.803,-282.66 968.441,-281.949"/>
<polygon fill="#9a32cd" stroke="#9a32cd" points="891.46,-280.668 881.565,-284.455 891.662,-287.665 891.46,-280.668"/>
<text text-anchor="middle" x="925" y="-287" font-family="Helvetica,sans-Serif" font-size="10.00"> ptr_</text>
</g>
<!-- Node17 -->
<g id="node17" class="node"><title>Node17</title>
<g id="a_node17"><a xlink:href="class_urho3_d_1_1_shared_ptr.html" target="_top" xlink:title="Urho3D::SharedPtr\&lt;\l Urho3D::Material \&gt;">
<polygon fill="none" stroke="black" points="537,-0 537,-30 643,-30 643,-0 537,-0"/>
<text text-anchor="start" x="545" y="-18" font-family="Helvetica,sans-Serif" font-size="10.00">Urho3D::SharedPtr&lt;</text>
<text text-anchor="middle" x="590" y="-7" font-family="Helvetica,sans-Serif" font-size="10.00"> Urho3D::Material &gt;</text>
</a>
</g>
</g>
<!-- Node17&#45;&gt;Node1 -->
<g id="edge42" class="edge"><title>Node17&#45;&gt;Node1</title>
<path fill="none" stroke="#9a32cd" stroke-dasharray="5,2" d="M653.301,-8.85328C700.624,-4.7114 767.346,-0 826,-0 826,-0 826,-0 1276,-0 1378.28,-0 1440.57,-144.486 1455.5,-183.429"/>
<polygon fill="#9a32cd" stroke="#9a32cd" points="652.857,-5.37886 643.208,-9.75373 653.479,-12.3512 652.857,-5.37886"/>
<text text-anchor="middle" x="1037" y="-3" font-family="Helvetica,sans-Serif" font-size="10.00"> customMaterial_</text>
</g>
<!-- Node17&#45;&gt;Node16 -->
<g id="edge27" class="edge"><title>Node17&#45;&gt;Node16</title>
<path fill="none" stroke="#9a32cd" stroke-dasharray="5,2" d="M612.239,-37.9086C645.686,-74.8596 711.223,-150.891 754,-224 764.463,-241.882 756.931,-252.782 772,-267 776.12,-270.888 781.083,-273.986 786.308,-276.454"/>
<polygon fill="#9a32cd" stroke="#9a32cd" points="614.547,-35.2459 605.224,-30.2135 609.374,-39.9617 614.547,-35.2459"/>
<text text-anchor="middle" x="711" y="-227" font-family="Helvetica,sans-Serif" font-size="10.00"> material_</text>
</g>
<!-- Node18 -->
<g id="node18" class="node"><title>Node18</title>
<g id="a_node18"><a xlink:href="class_urho3_d_1_1_material.html" target="_top" xlink:title="Describes how to render 3D geometries. ">
<polygon fill="none" stroke="red" points="256.5,-10.5 256.5,-29.5 347.5,-29.5 347.5,-10.5 256.5,-10.5"/>
<text text-anchor="middle" x="302" y="-17.5" font-family="Helvetica,sans-Serif" font-size="10.00">Urho3D::Material</text>
</a>
</g>
</g>
<!-- Node18&#45;&gt;Node17 -->
<g id="edge28" class="edge"><title>Node18&#45;&gt;Node17</title>
<path fill="none" stroke="#9a32cd" stroke-dasharray="5,2" d="M357.98,-19.0388C409.586,-18.1366 486.22,-16.7969 536.876,-15.9113"/>
<polygon fill="#9a32cd" stroke="#9a32cd" points="357.625,-15.5444 347.688,-19.2188 357.747,-22.5433 357.625,-15.5444"/>
<text text-anchor="middle" x="448" y="-22" font-family="Helvetica,sans-Serif" font-size="10.00"> ptr_</text>
</g>
<!-- Node19 -->
<g id="node19" class="node"><title>Node19</title>
<g id="a_node19"><a xlink:href="class_urho3_d_1_1_resource.html" target="_top" xlink:title="Base class for resources. ">
<polygon fill="none" stroke="red" points="8,-33.5 8,-52.5 106,-52.5 106,-33.5 8,-33.5"/>
<text text-anchor="middle" x="57" y="-40.5" font-family="Helvetica,sans-Serif" font-size="10.00">Urho3D::Resource</text>
</a>
</g>
</g>
<!-- Node19&#45;&gt;Node18 -->
<g id="edge29" class="edge"><title>Node19&#45;&gt;Node18</title>
<path fill="none" stroke="midnightblue" d="M116.06,-37.5046C159.104,-33.4305 216.912,-27.959 256.368,-24.2244"/>
<polygon fill="midnightblue" stroke="midnightblue" points="115.635,-34.0291 106.009,-38.4559 116.294,-40.998 115.635,-34.0291"/>
</g>
<!-- Node24 -->
<g id="node24" class="node"><title>Node24</title>
<g id="a_node24"><a xlink:href="class_urho3_d_1_1_sprite2_d.html" target="_top" xlink:title="Sprite. ">
<polygon fill="none" stroke="red" points="989.5,-91.5 989.5,-110.5 1084.5,-110.5 1084.5,-91.5 989.5,-91.5"/>
<text text-anchor="middle" x="1037" y="-98.5" font-family="Helvetica,sans-Serif" font-size="10.00">Urho3D::Sprite2D</text>
</a>
</g>
</g>
<!-- Node19&#45;&gt;Node24 -->
<g id="edge38" class="edge"><title>Node19&#45;&gt;Node24</title>
<path fill="none" stroke="midnightblue" d="M116.482,-49.0147C165.659,-53.5525 237.846,-59 301,-59 301,-59 301,-59 828,-59 893.207,-59 967.678,-79.0778 1007.43,-91.4695"/>
<polygon fill="midnightblue" stroke="midnightblue" points="116.632,-45.5135 106.348,-48.0625 115.977,-52.4828 116.632,-45.5135"/>
</g>
<!-- Node20 -->
<g id="node20" class="node"><title>Node20</title>
<g id="a_node20"><a xlink:href="struct_urho3_d_1_1_ref_count.html" target="_top" xlink:title="Reference count structure. ">
<polygon fill="none" stroke="black" points="778,-390.5 778,-409.5 876,-409.5 876,-390.5 778,-390.5"/>
<text text-anchor="middle" x="827" y="-397.5" font-family="Helvetica,sans-Serif" font-size="10.00">Urho3D::RefCount</text>
</a>
</g>
</g>
<!-- Node20&#45;&gt;Node15 -->
<g id="edge30" class="edge"><title>Node20&#45;&gt;Node15</title>
<path fill="none" stroke="#9a32cd" stroke-dasharray="5,2" d="M869.052,-386.741C873.486,-384.96 877.88,-383.038 882,-381 933.298,-355.623 988.151,-316.354 1016.51,-295.028"/>
<polygon fill="#9a32cd" stroke="#9a32cd" points="867.484,-383.592 859.371,-390.406 869.962,-390.139 867.484,-383.592"/>
<text text-anchor="middle" x="925" y="-373" font-family="Helvetica,sans-Serif" font-size="10.00"> refCount_</text>
</g>
<!-- Node21 -->
<g id="node21" class="node"><title>Node21</title>
<g id="a_node21"><a xlink:href="class_urho3_d_1_1_rect.html" target="_top" xlink:title="Two&#45;dimensional bounding rectangle. ">
<polygon fill="none" stroke="black" points="1124.5,-133.5 1124.5,-152.5 1201.5,-152.5 1201.5,-133.5 1124.5,-133.5"/>
<text text-anchor="middle" x="1163" y="-140.5" font-family="Helvetica,sans-Serif" font-size="10.00">Urho3D::Rect</text>
</a>
</g>
</g>
<!-- Node21&#45;&gt;Node1 -->
<g id="edge31" class="edge"><title>Node21&#45;&gt;Node1</title>
<path fill="none" stroke="#9a32cd" stroke-dasharray="5,2" d="M1211.67,-151.08C1263.89,-159.931 1347.58,-174.116 1402.92,-183.495"/>
<polygon fill="#9a32cd" stroke="#9a32cd" points="1212.11,-147.604 1201.66,-149.383 1210.94,-154.505 1212.11,-147.604"/>
<text text-anchor="middle" x="1275" y="-185" font-family="Helvetica,sans-Serif" font-size="10.00"> drawRect_</text>
<text text-anchor="middle" x="1275" y="-174" font-family="Helvetica,sans-Serif" font-size="10.00">textureRect_</text>
</g>
<!-- Node21&#45;&gt;Node21 -->
<g id="edge32" class="edge"><title>Node21&#45;&gt;Node21</title>
<path fill="none" stroke="#9a32cd" stroke-dasharray="5,2" d="M1142.26,-162.4C1143.65,-167.315 1150.56,-171 1163,-171 1182.91,-171 1188.66,-161.565 1180.26,-152.757"/>
<polygon fill="#9a32cd" stroke="#9a32cd" points="1145.64,-163.351 1145.74,-152.757 1139.05,-160.977 1145.64,-163.351"/>
<text text-anchor="middle" x="1163" y="-196" font-family="Helvetica,sans-Serif" font-size="10.00"> POSITIVE</text>
<text text-anchor="middle" x="1163" y="-185" font-family="Helvetica,sans-Serif" font-size="10.00">ZERO</text>
<text text-anchor="middle" x="1163" y="-174" font-family="Helvetica,sans-Serif" font-size="10.00">FULL</text>
</g>
<!-- Node22 -->
<g id="node22" class="node"><title>Node22</title>
<g id="a_node22"><a xlink:href="class_urho3_d_1_1_vector2.html" target="_top" xlink:title="Two&#45;dimensional vector. ">
<polygon fill="none" stroke="black" points="782,-154.5 782,-173.5 872,-173.5 872,-154.5 782,-154.5"/>
<text text-anchor="middle" x="827" y="-161.5" font-family="Helvetica,sans-Serif" font-size="10.00">Urho3D::Vector2</text>
</a>
</g>
</g>
<!-- Node22&#45;&gt;Node1 -->
<g id="edge35" class="edge"><title>Node22&#45;&gt;Node1</title>
<path fill="none" stroke="#9a32cd" stroke-dasharray="5,2" d="M863.95,-176.62C875.35,-180.179 888.089,-183.702 900,-186 1079.4,-220.611 1297.23,-208.104 1399.96,-199.061"/>
<polygon fill="#9a32cd" stroke="#9a32cd" points="864.923,-173.256 854.331,-173.514 862.772,-179.918 864.923,-173.256"/>
<text text-anchor="middle" x="1163" y="-212" font-family="Helvetica,sans-Serif" font-size="10.00"> hotSpot_</text>
</g>
<!-- Node22&#45;&gt;Node21 -->
<g id="edge33" class="edge"><title>Node22&#45;&gt;Node21</title>
<path fill="none" stroke="#9a32cd" stroke-dasharray="5,2" d="M882.085,-160.599C950.016,-156.328 1064.83,-149.109 1124.09,-145.383"/>
<polygon fill="#9a32cd" stroke="#9a32cd" points="881.769,-157.112 872.008,-161.233 882.208,-164.099 881.769,-157.112"/>
<text text-anchor="middle" x="925" y="-174" font-family="Helvetica,sans-Serif" font-size="10.00"> max_</text>
<text text-anchor="middle" x="925" y="-163" font-family="Helvetica,sans-Serif" font-size="10.00">min_</text>
</g>
<!-- Node22&#45;&gt;Node22 -->
<g id="edge34" class="edge"><title>Node22&#45;&gt;Node22</title>
<path fill="none" stroke="#9a32cd" stroke-dasharray="5,2" d="M808.853,-183.4C810.065,-188.315 816.114,-192 827,-192 844.418,-192 849.453,-182.565 842.105,-173.757"/>
<polygon fill="#9a32cd" stroke="#9a32cd" points="812.224,-184.347 811.895,-173.757 805.548,-182.24 812.224,-184.347"/>
<text text-anchor="middle" x="827" y="-250" font-family="Helvetica,sans-Serif" font-size="10.00"> ONE</text>
<text text-anchor="middle" x="827" y="-239" font-family="Helvetica,sans-Serif" font-size="10.00">DOWN</text>
<text text-anchor="middle" x="827" y="-228" font-family="Helvetica,sans-Serif" font-size="10.00">RIGHT</text>
<text text-anchor="middle" x="827" y="-217" font-family="Helvetica,sans-Serif" font-size="10.00">LEFT</text>
<text text-anchor="middle" x="827" y="-206" font-family="Helvetica,sans-Serif" font-size="10.00">ZERO</text>
<text text-anchor="middle" x="827" y="-195" font-family="Helvetica,sans-Serif" font-size="10.00">UP</text>
</g>
<!-- Node22&#45;&gt;Node24 -->
<g id="edge41" class="edge"><title>Node22&#45;&gt;Node24</title>
<path fill="none" stroke="#9a32cd" stroke-dasharray="5,2" d="M870.222,-150.65C874.281,-148.921 878.271,-147.036 882,-145 890.896,-140.144 890.826,-135.308 900,-131 928.123,-117.792 962.279,-110.285 989.326,-106.083"/>
<polygon fill="#9a32cd" stroke="#9a32cd" points="868.735,-147.474 860.715,-154.397 871.302,-153.987 868.735,-147.474"/>
<text text-anchor="middle" x="925" y="-134" font-family="Helvetica,sans-Serif" font-size="10.00"> hotSpot_</text>
</g>
<!-- Node23 -->
<g id="node23" class="node"><title>Node23</title>
<g id="a_node23"><a xlink:href="class_urho3_d_1_1_shared_ptr.html" target="_top" xlink:title="Urho3D::SharedPtr\&lt;\l Urho3D::Sprite2D \&gt;">
<polygon fill="none" stroke="black" points="1221.5,-91 1221.5,-121 1328.5,-121 1328.5,-91 1221.5,-91"/>
<text text-anchor="start" x="1229.5" y="-109" font-family="Helvetica,sans-Serif" font-size="10.00">Urho3D::SharedPtr&lt;</text>
<text text-anchor="middle" x="1275" y="-98" font-family="Helvetica,sans-Serif" font-size="10.00"> Urho3D::Sprite2D &gt;</text>
</a>
</g>
</g>
<!-- Node23&#45;&gt;Node1 -->
<g id="edge36" class="edge"><title>Node23&#45;&gt;Node1</title>
<path fill="none" stroke="#9a32cd" stroke-dasharray="5,2" d="M1338.65,-118.924C1353.27,-123.079 1368.5,-128.374 1382,-135 1408.44,-147.979 1434.92,-170.526 1448.89,-183.35"/>
<polygon fill="#9a32cd" stroke="#9a32cd" points="1339.22,-115.453 1328.65,-116.227 1337.39,-122.212 1339.22,-115.453"/>
<text text-anchor="middle" x="1365" y="-138" font-family="Helvetica,sans-Serif" font-size="10.00"> sprite_</text>
</g>
<!-- Node24&#45;&gt;Node23 -->
<g id="edge37" class="edge"><title>Node24&#45;&gt;Node23</title>
<path fill="none" stroke="#9a32cd" stroke-dasharray="5,2" d="M1094.64,-102.2C1133.12,-103.015 1183.68,-104.086 1221.3,-104.883"/>
<polygon fill="#9a32cd" stroke="#9a32cd" points="1094.7,-98.7005 1084.63,-101.988 1094.55,-105.699 1094.7,-98.7005"/>
<text text-anchor="middle" x="1163" y="-108" font-family="Helvetica,sans-Serif" font-size="10.00"> ptr_</text>
</g>
<!-- Node25 -->
<g id="node25" class="node"><title>Node25</title>
<g id="a_node25"><a xlink:href="class_urho3_d_1_1_int_rect.html" target="_top" xlink:title="Two&#45;dimensional bounding rectangle with integer values. ">
<polygon fill="none" stroke="black" points="782.5,-87.5 782.5,-106.5 871.5,-106.5 871.5,-87.5 782.5,-87.5"/>
<text text-anchor="middle" x="827" y="-94.5" font-family="Helvetica,sans-Serif" font-size="10.00">Urho3D::IntRect</text>
</a>
</g>
</g>
<!-- Node25&#45;&gt;Node24 -->
<g id="edge39" class="edge"><title>Node25&#45;&gt;Node24</title>
<path fill="none" stroke="#9a32cd" stroke-dasharray="5,2" d="M881.893,-96.4612C903.12,-96.3899 927.709,-96.4819 950,-97 962.701,-97.2952 976.449,-97.8354 989.148,-98.4253"/>
<polygon fill="#9a32cd" stroke="#9a32cd" points="881.751,-92.9617 871.767,-96.5081 881.783,-99.9616 881.751,-92.9617"/>
<text text-anchor="middle" x="925" y="-100" font-family="Helvetica,sans-Serif" font-size="10.00"> rectangle_</text>
</g>
<!-- Node25&#45;&gt;Node25 -->
<g id="edge40" class="edge"><title>Node25&#45;&gt;Node25</title>
<path fill="none" stroke="#9a32cd" stroke-dasharray="5,2" d="M808.853,-116.4C810.065,-121.315 816.114,-125 827,-125 844.418,-125 849.453,-115.565 842.105,-106.757"/>
<polygon fill="#9a32cd" stroke="#9a32cd" points="812.224,-117.347 811.895,-106.757 805.548,-115.24 812.224,-117.347"/>
<text text-anchor="middle" x="827" y="-128" font-family="Helvetica,sans-Serif" font-size="10.00"> ZERO</text>
</g>
</g>
</svg>
