<?xml version="1.0" encoding="UTF-8" standalone="no"?>
<!DOCTYPE svg PUBLIC "-//W3C//DTD SVG 1.1//EN"
 "http://www.w3.org/Graphics/SVG/1.1/DTD/svg11.dtd">
<!-- Generated by graphviz version 2.36.0 (20140111.2315)
 -->
<!-- Title: Urho3D::Network Pages: 1 -->
<!--zoomable 1000 -->
<svg id="main" version="1.1" xmlns="http://www.w3.org/2000/svg" xmlns:xlink="http://www.w3.org/1999/xlink" xml:space="preserve" onload="init(evt)">
<style type="text/css"><![CDATA[
.edge:hover path { stroke: red; }
.edge:hover polygon { stroke: red; fill: red; }
]]></style>
<script type="text/javascript"><![CDATA[
var edges = document.getElementsByTagName('g');
if (edges && edges.length) {
  for (var i=0;i<edges.length;i++) {
    if (edges[i].id.substr(0,4)=='edge') {
      edges[i].setAttribute('class','edge');
    }
  }
}
]]></script>
        <defs>
                <circle id="rim" cx="0" cy="0" r="7"/>
                <circle id="rim2" cx="0" cy="0" r="3.5"/>
                <g id="zoomPlus">
                        <use xlink:href="#rim" fill="#404040">
                                <set attributeName="fill" to="#808080" begin="zoomplus.mouseover" end="zoomplus.mouseout"/>
                        </use>
                        <path d="M-4,0h8M0,-4v8" fill="none" stroke="white" stroke-width="1.5" pointer-events="none"/>
                </g>
                <g id="zoomMin">
                        <use xlink:href="#rim" fill="#404040">
                                <set attributeName="fill" to="#808080" begin="zoomminus.mouseover" end="zoomminus.mouseout"/>
                        </use>
                        <path d="M-4,0h8" fill="none" stroke="white" stroke-width="1.5" pointer-events="none"/>
                </g>
                <g id="dirArrow">
                        <path fill="none" stroke="white" stroke-width="1.5" d="M0,-3.0v7 M-2.5,-0.5L0,-3.0L2.5,-0.5"/>
                </g>
               <g id="resetDef">
                       <use xlink:href="#rim2" fill="#404040">
                               <set attributeName="fill" to="#808080" begin="reset.mouseover" end="reset.mouseout"/>
                       </use>
               </g>
        </defs>

<script type="text/javascript">
var viewWidth = 1692;
var viewHeight = 1000;
var sectionId = 'dynsection-1';
</script>
<script xlink:href="svgpan.js"/>
<svg id="graph" class="graph">
<g id="viewport">
<title>Urho3D::Network</title>
<!-- Node1 -->
<g id="node1" class="node"><title>Node1</title>
<polygon fill="#bfbfbf" stroke="black" points="1590.5,-600.554 1590.5,-619.554 1683.5,-619.554 1683.5,-600.554 1590.5,-600.554"/>
<text text-anchor="middle" x="1637" y="-607.554" font-family="Helvetica,sans-Serif" font-size="10.00">Urho3D::Network</text>
</g>
<!-- Node2 -->
<g id="node2" class="node"><title>Node2</title>
<g id="a_node2"><a xlink:href="class_urho3_d_1_1_object.html" target="_top" xlink:title="Base class for objects with type identification, subsystem access and event sending/receiving capabil...">
<polygon fill="none" stroke="black" points="872.5,-898.554 872.5,-917.554 957.5,-917.554 957.5,-898.554 872.5,-898.554"/>
<text text-anchor="middle" x="915" y="-905.554" font-family="Helvetica,sans-Serif" font-size="10.00">Urho3D::Object</text>
</a>
</g>
</g>
<!-- Node2&#45;&gt;Node1 -->
<g id="edge1" class="edge"><title>Node2&#45;&gt;Node1</title>
<path fill="none" stroke="midnightblue" d="M956.494,-920.409C1069,-952.011 1389.08,-1023.05 1572,-871.054 1612.19,-837.658 1631.05,-662.877 1635.13,-619.703"/>
<polygon fill="midnightblue" stroke="midnightblue" points="957.152,-916.956 946.575,-917.572 955.227,-923.687 957.152,-916.956"/>
</g>
<!-- Node25 -->
<g id="node25" class="node"><title>Node25</title>
<g id="a_node25"><a xlink:href="class_urho3_d_1_1_connection.html" target="_top" xlink:title="Connection to a remote network host. ">
<polygon fill="none" stroke="red" points="1132,-772.554 1132,-791.554 1238,-791.554 1238,-772.554 1132,-772.554"/>
<text text-anchor="middle" x="1185" y="-779.554" font-family="Helvetica,sans-Serif" font-size="10.00">Urho3D::Connection</text>
</a>
</g>
</g>
<!-- Node2&#45;&gt;Node25 -->
<g id="edge42" class="edge"><title>Node2&#45;&gt;Node25</title>
<path fill="none" stroke="midnightblue" d="M967.623,-898.331C1025.22,-887.417 1110.83,-870.973 1114,-869.054 1146.02,-849.693 1169.54,-810.076 1179.19,-791.75"/>
<polygon fill="midnightblue" stroke="midnightblue" points="966.75,-894.934 957.575,-900.232 968.051,-901.812 966.75,-894.934"/>
</g>
<!-- Node3 -->
<g id="node3" class="node"><title>Node3</title>
<g id="a_node3"><a xlink:href="class_urho3_d_1_1_ref_counted.html" target="_top" xlink:title="Base class for intrusively reference&#45;counted objects. These are noncopyable and non&#45;assignable. ">
<polygon fill="none" stroke="red" points="165.5,-950.554 165.5,-969.554 274.5,-969.554 274.5,-950.554 165.5,-950.554"/>
<text text-anchor="middle" x="220" y="-957.554" font-family="Helvetica,sans-Serif" font-size="10.00">Urho3D::RefCounted</text>
</a>
</g>
</g>
<!-- Node3&#45;&gt;Node2 -->
<g id="edge2" class="edge"><title>Node3&#45;&gt;Node2</title>
<path fill="none" stroke="midnightblue" d="M283.449,-971.204C399.572,-989.291 654.997,-1016.54 854,-948.054 873.177,-941.455 892.111,-927.189 903.429,-917.603"/>
<polygon fill="midnightblue" stroke="midnightblue" points="283.746,-967.708 273.321,-969.595 282.648,-974.621 283.746,-967.708"/>
</g>
<!-- Node4 -->
<g id="node4" class="node"><title>Node4</title>
<g id="a_node4"><a xlink:href="class_urho3_d_1_1_context.html" target="_top" xlink:title="Urho3D execution context. Provides access to subsystems, object factories and attributes, and event receivers. ">
<polygon fill="none" stroke="red" points="531.5,-885.554 531.5,-904.554 622.5,-904.554 622.5,-885.554 531.5,-885.554"/>
<text text-anchor="middle" x="577" y="-892.554" font-family="Helvetica,sans-Serif" font-size="10.00">Urho3D::Context</text>
</a>
</g>
</g>
<!-- Node3&#45;&gt;Node4 -->
<g id="edge4" class="edge"><title>Node3&#45;&gt;Node4</title>
<path fill="none" stroke="midnightblue" d="M283.156,-948.673C354.204,-935.664 468.74,-914.693 531.442,-903.212"/>
<polygon fill="midnightblue" stroke="midnightblue" points="282.206,-945.289 273,-950.533 283.467,-952.174 282.206,-945.289"/>
</g>
<!-- Node4&#45;&gt;Node2 -->
<g id="edge3" class="edge"><title>Node4&#45;&gt;Node2</title>
<path fill="none" stroke="#9a32cd" stroke-dasharray="5,2" d="M632.986,-897.181C700.077,-899.777 812.006,-904.108 872.37,-906.443"/>
<polygon fill="#9a32cd" stroke="#9a32cd" points="632.746,-893.67 622.618,-896.78 632.475,-900.664 632.746,-893.67"/>
<text text-anchor="middle" x="763" y="-909.054" font-family="Helvetica,sans-Serif" font-size="10.00"> context_</text>
</g>
<!-- Node5 -->
<g id="node5" class="node"><title>Node5</title>
<g id="a_node5"><a xlink:href="class_urho3_d_1_1_hash_map.html" target="_top" xlink:title="Urho3D::HashMap\&lt; StringHash,\l Variant \&gt;">
<polygon fill="none" stroke="black" points="140.5,-744.054 140.5,-774.054 299.5,-774.054 299.5,-744.054 140.5,-744.054"/>
<text text-anchor="start" x="148.5" y="-762.054" font-family="Helvetica,sans-Serif" font-size="10.00">Urho3D::HashMap&lt; StringHash,</text>
<text text-anchor="middle" x="220" y="-751.054" font-family="Helvetica,sans-Serif" font-size="10.00"> Variant &gt;</text>
</a>
</g>
</g>
<!-- Node5&#45;&gt;Node1 -->
<g id="edge35" class="edge"><title>Node5&#45;&gt;Node1</title>
<path fill="none" stroke="#9a32cd" stroke-dasharray="5,2" d="M259.816,-778.474C277.274,-786.627 298.337,-795.676 318,-802.054 429.523,-838.227 458.757,-857.054 576,-857.054 576,-857.054 576,-857.054 1410,-857.054 1489.34,-857.054 1518.11,-840.285 1572,-782.054 1617.66,-732.714 1631.53,-647.862 1635,-619.556"/>
<polygon fill="#9a32cd" stroke="#9a32cd" points="261.055,-775.188 250.52,-774.06 258.052,-781.511 261.055,-775.188"/>
<text text-anchor="middle" x="1045" y="-860.054" font-family="Helvetica,sans-Serif" font-size="10.00"> identity_</text>
</g>
<!-- Node5&#45;&gt;Node4 -->
<g id="edge5" class="edge"><title>Node5&#45;&gt;Node4</title>
<path fill="none" stroke="#9a32cd" stroke-dasharray="5,2" d="M234.156,-782.761C250.19,-809.1 279.922,-850.491 318,-870.054 354.125,-888.614 467.569,-893.43 531.341,-894.656"/>
<polygon fill="#9a32cd" stroke="#9a32cd" points="237.161,-780.966 229.064,-774.132 231.132,-784.523 237.161,-780.966"/>
<text text-anchor="middle" x="400" y="-897.054" font-family="Helvetica,sans-Serif" font-size="10.00"> globalVars_</text>
</g>
<!-- Node8 -->
<g id="node8" class="node"><title>Node8</title>
<g id="a_node8"><a xlink:href="class_urho3_d_1_1_scene.html" target="_top" xlink:title="Root scene node, represents the whole scene. ">
<polygon fill="none" stroke="black" points="873,-490.554 873,-509.554 957,-509.554 957,-490.554 873,-490.554"/>
<text text-anchor="middle" x="915" y="-497.554" font-family="Helvetica,sans-Serif" font-size="10.00">Urho3D::Scene</text>
</a>
</g>
</g>
<!-- Node5&#45;&gt;Node8 -->
<g id="edge22" class="edge"><title>Node5&#45;&gt;Node8</title>
<path fill="none" stroke="#9a32cd" stroke-dasharray="5,2" d="M241.626,-736.331C284.576,-690.722 388.892,-588.59 500,-544.054 567.091,-517.162 782.038,-505.433 872.867,-501.589"/>
<polygon fill="#9a32cd" stroke="#9a32cd" points="238.821,-734.208 234.565,-743.911 243.943,-738.979 238.821,-734.208"/>
<text text-anchor="middle" x="577" y="-547.054" font-family="Helvetica,sans-Serif" font-size="10.00"> smoothingData_</text>
</g>
<!-- Node9 -->
<g id="node9" class="node"><title>Node9</title>
<g id="a_node9"><a xlink:href="class_urho3_d_1_1_node.html" target="_top" xlink:title="Scene node that may contain components and child nodes. ">
<polygon fill="none" stroke="red" points="1145,-549.554 1145,-568.554 1225,-568.554 1225,-549.554 1145,-549.554"/>
<text text-anchor="middle" x="1185" y="-556.554" font-family="Helvetica,sans-Serif" font-size="10.00">Urho3D::Node</text>
</a>
</g>
</g>
<!-- Node5&#45;&gt;Node9 -->
<g id="edge11" class="edge"><title>Node5&#45;&gt;Node9</title>
<path fill="none" stroke="#9a32cd" stroke-dasharray="5,2" d="M309.708,-743.56C400.43,-728.352 545.588,-705.785 672,-694.054 735.339,-688.176 896.696,-699.032 958,-682.054 1046.25,-657.613 1138.09,-593.442 1171.17,-568.844"/>
<polygon fill="#9a32cd" stroke="#9a32cd" points="309.019,-740.126 299.738,-745.238 310.181,-747.029 309.019,-740.126"/>
<text text-anchor="middle" x="763" y="-697.054" font-family="Helvetica,sans-Serif" font-size="10.00"> vars_</text>
</g>
<!-- Node5&#45;&gt;Node25 -->
<g id="edge43" class="edge"><title>Node5&#45;&gt;Node25</title>
<path fill="none" stroke="#9a32cd" stroke-dasharray="5,2" d="M309.732,-775.471C364.378,-784.738 435.992,-795.376 500,-800.054 617.616,-808.65 923.03,-815.803 1114,-796.054 1123.49,-795.072 1133.61,-793.415 1143.11,-791.576"/>
<polygon fill="#9a32cd" stroke="#9a32cd" points="310.179,-771.996 299.732,-773.758 308.998,-778.896 310.179,-771.996"/>
<text text-anchor="middle" x="763" y="-812.054" font-family="Helvetica,sans-Serif" font-size="10.00"> identity_</text>
</g>
<!-- Node6 -->
<g id="node6" class="node"><title>Node6</title>
<g id="a_node6"><a xlink:href="class_urho3_d_1_1_hash_base.html" target="_top" xlink:title="Hash set/map base class. ">
<polygon fill="none" stroke="red" points="0,-362.554 0,-381.554 102,-381.554 102,-362.554 0,-362.554"/>
<text text-anchor="middle" x="51" y="-369.554" font-family="Helvetica,sans-Serif" font-size="10.00">Urho3D::HashBase</text>
</a>
</g>
</g>
<!-- Node6&#45;&gt;Node5 -->
<g id="edge6" class="edge"><title>Node6&#45;&gt;Node5</title>
<path fill="none" stroke="midnightblue" d="M60.1631,-390.971C89.0954,-458.018 186.409,-683.528 212.511,-744.017"/>
<polygon fill="midnightblue" stroke="midnightblue" points="63.3038,-389.415 56.1281,-381.62 56.8767,-392.189 63.3038,-389.415"/>
</g>
<!-- Node11 -->
<g id="node11" class="node"><title>Node11</title>
<g id="a_node11"><a xlink:href="class_urho3_d_1_1_hash_map.html" target="_top" xlink:title="Urho3D::HashMap\&lt; Urho3D\l::StringHash, Urho3D::\lPODVector\&lt; Urho3D::Node * \&gt; \&gt;">
<polygon fill="none" stroke="black" points="318,-444.554 318,-485.554 482,-485.554 482,-444.554 318,-444.554"/>
<text text-anchor="start" x="326" y="-473.554" font-family="Helvetica,sans-Serif" font-size="10.00">Urho3D::HashMap&lt; Urho3D</text>
<text text-anchor="start" x="326" y="-462.554" font-family="Helvetica,sans-Serif" font-size="10.00">::StringHash, Urho3D::</text>
<text text-anchor="middle" x="400" y="-451.554" font-family="Helvetica,sans-Serif" font-size="10.00">PODVector&lt; Urho3D::Node * &gt; &gt;</text>
</a>
</g>
</g>
<!-- Node6&#45;&gt;Node11 -->
<g id="edge15" class="edge"><title>Node6&#45;&gt;Node11</title>
<path fill="none" stroke="midnightblue" d="M78.2275,-386.285C95.3818,-395.083 118.516,-406.004 140,-413.054 198.175,-432.144 266.109,-445.464 317.803,-453.842"/>
<polygon fill="midnightblue" stroke="midnightblue" points="79.8451,-383.181 69.361,-381.654 76.6041,-389.386 79.8451,-383.181"/>
</g>
<!-- Node13 -->
<g id="node13" class="node"><title>Node13</title>
<g id="a_node13"><a xlink:href="class_urho3_d_1_1_hash_map.html" target="_top" xlink:title="Urho3D::HashMap\&lt; unsigned,\l Urho3D::Component * \&gt;">
<polygon fill="none" stroke="black" points="325.5,-401.054 325.5,-431.054 474.5,-431.054 474.5,-401.054 325.5,-401.054"/>
<text text-anchor="start" x="333.5" y="-419.054" font-family="Helvetica,sans-Serif" font-size="10.00">Urho3D::HashMap&lt; unsigned,</text>
<text text-anchor="middle" x="400" y="-408.054" font-family="Helvetica,sans-Serif" font-size="10.00"> Urho3D::Component * &gt;</text>
</a>
</g>
</g>
<!-- Node6&#45;&gt;Node13 -->
<g id="edge18" class="edge"><title>Node6&#45;&gt;Node13</title>
<path fill="none" stroke="midnightblue" d="M105.226,-383.519C110.209,-384.44 115.192,-385.302 120,-386.054 189.31,-396.89 268.924,-405.027 325.319,-410.074"/>
<polygon fill="midnightblue" stroke="midnightblue" points="105.534,-380.015 95.0537,-381.567 104.215,-386.889 105.534,-380.015"/>
</g>
<!-- Node15 -->
<g id="node15" class="node"><title>Node15</title>
<g id="a_node15"><a xlink:href="class_urho3_d_1_1_hash_map.html" target="_top" xlink:title="Urho3D::HashMap\&lt; Urho3D\l::StringHash, Urho3D::\lString \&gt;">
<polygon fill="none" stroke="black" points="329.5,-351.554 329.5,-392.554 470.5,-392.554 470.5,-351.554 329.5,-351.554"/>
<text text-anchor="start" x="337.5" y="-380.554" font-family="Helvetica,sans-Serif" font-size="10.00">Urho3D::HashMap&lt; Urho3D</text>
<text text-anchor="start" x="337.5" y="-369.554" font-family="Helvetica,sans-Serif" font-size="10.00">::StringHash, Urho3D::</text>
<text text-anchor="middle" x="400" y="-358.554" font-family="Helvetica,sans-Serif" font-size="10.00">String &gt;</text>
</a>
</g>
</g>
<!-- Node6&#45;&gt;Node15 -->
<g id="edge21" class="edge"><title>Node6&#45;&gt;Node15</title>
<path fill="none" stroke="midnightblue" d="M112.245,-372.054C172.736,-372.054 265.846,-372.054 329.444,-372.054"/>
<polygon fill="midnightblue" stroke="midnightblue" points="112.086,-368.554 102.086,-372.054 112.086,-375.554 112.086,-368.554"/>
</g>
<!-- Node17 -->
<g id="node17" class="node"><title>Node17</title>
<g id="a_node17"><a xlink:href="class_urho3_d_1_1_hash_set.html" target="_top" xlink:title="Urho3D::HashSet\&lt; unsigned \&gt;">
<polygon fill="none" stroke="black" points="501,-652.554 501,-671.554 653,-671.554 653,-652.554 501,-652.554"/>
<text text-anchor="middle" x="577" y="-659.554" font-family="Helvetica,sans-Serif" font-size="10.00">Urho3D::HashSet&lt; unsigned &gt;</text>
</a>
</g>
</g>
<!-- Node6&#45;&gt;Node17 -->
<g id="edge26" class="edge"><title>Node6&#45;&gt;Node17</title>
<path fill="none" stroke="midnightblue" d="M69.6104,-388.676C86.8037,-404.455 114.09,-428.33 140,-446.054 290.538,-549.031 330.141,-576.616 500,-643.054 509.373,-646.72 519.677,-649.854 529.592,-652.458"/>
<polygon fill="midnightblue" stroke="midnightblue" points="71.742,-385.879 62.0311,-381.643 66.9804,-391.011 71.742,-385.879"/>
</g>
<!-- Node19 -->
<g id="node19" class="node"><title>Node19</title>
<g id="a_node19"><a xlink:href="class_urho3_d_1_1_hash_set.html" target="_top" xlink:title="Urho3D::HashSet\&lt; Urho3D\l::StringHash \&gt;">
<polygon fill="none" stroke="black" points="151.5,-273.054 151.5,-303.054 288.5,-303.054 288.5,-273.054 151.5,-273.054"/>
<text text-anchor="start" x="159.5" y="-291.054" font-family="Helvetica,sans-Serif" font-size="10.00">Urho3D::HashSet&lt; Urho3D</text>
<text text-anchor="middle" x="220" y="-280.054" font-family="Helvetica,sans-Serif" font-size="10.00">::StringHash &gt;</text>
</a>
</g>
</g>
<!-- Node6&#45;&gt;Node19 -->
<g id="edge29" class="edge"><title>Node6&#45;&gt;Node19</title>
<path fill="none" stroke="midnightblue" d="M80.3172,-357.811C110.557,-342.6 158.281,-318.595 189.111,-303.088"/>
<polygon fill="midnightblue" stroke="midnightblue" points="78.5178,-354.798 71.157,-362.418 81.6633,-361.051 78.5178,-354.798"/>
</g>
<!-- Node20 -->
<g id="node20" class="node"><title>Node20</title>
<g id="a_node20"><a xlink:href="class_urho3_d_1_1_hash_map.html" target="_top" xlink:title="Urho3D::HashMap\&lt; unsigned,\l Urho3D::Node * \&gt;">
<polygon fill="none" stroke="black" points="325.5,-110.054 325.5,-140.054 474.5,-140.054 474.5,-110.054 325.5,-110.054"/>
<text text-anchor="start" x="333.5" y="-128.054" font-family="Helvetica,sans-Serif" font-size="10.00">Urho3D::HashMap&lt; unsigned,</text>
<text text-anchor="middle" x="400" y="-117.054" font-family="Helvetica,sans-Serif" font-size="10.00"> Urho3D::Node * &gt;</text>
</a>
</g>
</g>
<!-- Node6&#45;&gt;Node20 -->
<g id="edge31" class="edge"><title>Node6&#45;&gt;Node20</title>
<path fill="none" stroke="midnightblue" d="M63.919,-354.119C79.6236,-331.304 108.915,-291.463 140,-263.054 210.245,-198.856 230.719,-181.973 318,-144.054 321.18,-142.673 324.475,-141.383 327.836,-140.181"/>
<polygon fill="midnightblue" stroke="midnightblue" points="60.9482,-352.263 58.2324,-362.504 66.7417,-356.192 60.9482,-352.263"/>
</g>
<!-- Node22 -->
<g id="node22" class="node"><title>Node22</title>
<g id="a_node22"><a xlink:href="class_urho3_d_1_1_hash_map.html" target="_top" xlink:title="Urho3D::HashMap\&lt; SLNet\l::AddressOrGUID, Urho3D\l::SharedPtr\&lt; Urho3D::Connection \&gt; \&gt;">
<polygon fill="none" stroke="black" points="672,-73.554 672,-114.554 854,-114.554 854,-73.554 672,-73.554"/>
<text text-anchor="start" x="680" y="-102.554" font-family="Helvetica,sans-Serif" font-size="10.00">Urho3D::HashMap&lt; SLNet</text>
<text text-anchor="start" x="680" y="-91.554" font-family="Helvetica,sans-Serif" font-size="10.00">::AddressOrGUID, Urho3D</text>
<text text-anchor="middle" x="763" y="-80.554" font-family="Helvetica,sans-Serif" font-size="10.00">::SharedPtr&lt; Urho3D::Connection &gt; &gt;</text>
</a>
</g>
</g>
<!-- Node6&#45;&gt;Node22 -->
<g id="edge34" class="edge"><title>Node6&#45;&gt;Node22</title>
<path fill="none" stroke="midnightblue" d="M53.8447,-352.091C58.9869,-308.429 77.5075,-204.047 140,-150.054 217.428,-83.1574 518.81,-84.4645 671.811,-89.7678"/>
<polygon fill="midnightblue" stroke="midnightblue" points="50.3403,-351.948 52.7649,-362.262 57.3011,-352.688 50.3403,-351.948"/>
</g>
<!-- Node23 -->
<g id="node23" class="node"><title>Node23</title>
<g id="a_node23"><a xlink:href="class_urho3_d_1_1_hash_set.html" target="_top" xlink:title="Urho3D::HashSet\&lt; Urho3D\l::Scene * \&gt;">
<polygon fill="none" stroke="black" points="976.5,-35.054 976.5,-65.054 1113.5,-65.054 1113.5,-35.054 976.5,-35.054"/>
<text text-anchor="start" x="984.5" y="-53.054" font-family="Helvetica,sans-Serif" font-size="10.00">Urho3D::HashSet&lt; Urho3D</text>
<text text-anchor="middle" x="1045" y="-42.054" font-family="Helvetica,sans-Serif" font-size="10.00">::Scene * &gt;</text>
</a>
</g>
</g>
<!-- Node6&#45;&gt;Node23 -->
<g id="edge37" class="edge"><title>Node6&#45;&gt;Node23</title>
<path fill="none" stroke="midnightblue" d="M52.9991,-352.543C57.6829,-283.382 83.4346,-54.054 219,-54.054 219,-54.054 219,-54.054 764,-54.054 836.559,-54.054 919.685,-52.6944 976.393,-51.5605"/>
<polygon fill="midnightblue" stroke="midnightblue" points="49.5048,-352.345 52.3974,-362.537 56.4921,-352.765 49.5048,-352.345"/>
</g>
<!-- Node7 -->
<g id="node7" class="node"><title>Node7</title>
<g id="a_node7"><a xlink:href="class_urho3_d_1_1_linked_list.html" target="_top" xlink:title="Urho3D::LinkedList\l\&lt; Urho3D::EventHandler \&gt;">
<polygon fill="none" stroke="red" points="510,-924.054 510,-954.054 644,-954.054 644,-924.054 510,-924.054"/>
<text text-anchor="start" x="518" y="-942.054" font-family="Helvetica,sans-Serif" font-size="10.00">Urho3D::LinkedList</text>
<text text-anchor="middle" x="577" y="-931.054" font-family="Helvetica,sans-Serif" font-size="10.00">&lt; Urho3D::EventHandler &gt;</text>
</a>
</g>
</g>
<!-- Node7&#45;&gt;Node2 -->
<g id="edge7" class="edge"><title>Node7&#45;&gt;Node2</title>
<path fill="none" stroke="#9a32cd" stroke-dasharray="5,2" d="M654.313,-934.398C709.803,-930.666 786.676,-924.777 854,-917.054 859.965,-916.37 866.248,-915.544 872.412,-914.674"/>
<polygon fill="#9a32cd" stroke="#9a32cd" points="653.954,-930.914 644.208,-935.07 654.419,-937.899 653.954,-930.914"/>
<text text-anchor="middle" x="763" y="-936.054" font-family="Helvetica,sans-Serif" font-size="10.00"> eventHandlers_</text>
</g>
<!-- Node8&#45;&gt;Node1 -->
<g id="edge8" class="edge"><title>Node8&#45;&gt;Node1</title>
<path fill="none" stroke="#9a32cd" stroke-dasharray="5,2" d="M967.147,-502.105C1007.22,-504.09 1064.31,-507.748 1114,-514.054 1293.4,-536.821 1504.51,-581.098 1593.28,-600.527"/>
<polygon fill="#9a32cd" stroke="#9a32cd" points="967.241,-498.606 957.086,-501.624 966.907,-505.598 967.241,-498.606"/>
<text text-anchor="middle" x="1294" y="-551.054" font-family="Helvetica,sans-Serif" font-size="10.00"> scene_</text>
</g>
<!-- Node8&#45;&gt;Node9 -->
<g id="edge10" class="edge"><title>Node8&#45;&gt;Node9</title>
<path fill="none" stroke="#9a32cd" stroke-dasharray="5,2" d="M967.308,-509.567C970.247,-510.079 973.16,-510.578 976,-511.054 1037.18,-521.316 1054.04,-516.13 1114,-532.054 1130.74,-536.5 1148.98,-543.614 1162.65,-549.424"/>
<polygon fill="#9a32cd" stroke="#9a32cd" points="967.742,-506.089 957.285,-507.793 966.522,-512.982 967.742,-506.089"/>
<text text-anchor="middle" x="1045" y="-535.054" font-family="Helvetica,sans-Serif" font-size="10.00"> scene_</text>
</g>
<!-- Node9&#45;&gt;Node8 -->
<g id="edge9" class="edge"><title>Node9&#45;&gt;Node8</title>
<path fill="none" stroke="midnightblue" d="M1134.42,-563.478C1091.21,-565.54 1027.57,-564.19 976,-545.054 955.492,-537.443 936.061,-520.442 925.125,-509.652"/>
<polygon fill="midnightblue" stroke="midnightblue" points="1134.88,-566.957 1144.67,-562.906 1134.49,-559.968 1134.88,-566.957"/>
</g>
<!-- Node9&#45;&gt;Node9 -->
<g id="edge12" class="edge"><title>Node9&#45;&gt;Node9</title>
<path fill="none" stroke="#9a32cd" stroke-dasharray="5,2" d="M1165,-578.454C1166.34,-583.369 1173,-587.054 1185,-587.054 1204.2,-587.054 1209.74,-577.619 1201.65,-568.811"/>
<polygon fill="#9a32cd" stroke="#9a32cd" points="1168.38,-579.406 1168.35,-568.811 1161.76,-577.107 1168.38,-579.406"/>
<text text-anchor="middle" x="1185" y="-590.054" font-family="Helvetica,sans-Serif" font-size="10.00"> parent_</text>
</g>
<!-- Node10 -->
<g id="node10" class="node"><title>Node10</title>
<g id="a_node10"><a xlink:href="class_urho3_d_1_1_scene_resolver.html" target="_top" xlink:title="Utility class that resolves node &amp; component IDs after a scene or partial scene load. ">
<polygon fill="none" stroke="red" points="515.5,-316.554 515.5,-335.554 638.5,-335.554 638.5,-316.554 515.5,-316.554"/>
<text text-anchor="middle" x="577" y="-323.554" font-family="Helvetica,sans-Serif" font-size="10.00">Urho3D::SceneResolver</text>
</a>
</g>
</g>
<!-- Node10&#45;&gt;Node8 -->
<g id="edge13" class="edge"><title>Node10&#45;&gt;Node8</title>
<path fill="none" stroke="#9a32cd" stroke-dasharray="5,2" d="M630.626,-314.745C690.745,-305.005 789.157,-299.127 854,-347.054 902.184,-382.668 911.691,-462.808 913.552,-490.459"/>
<polygon fill="#9a32cd" stroke="#9a32cd" points="629.855,-311.326 620.59,-316.465 631.038,-318.226 629.855,-311.326"/>
<text text-anchor="middle" x="763" y="-350.054" font-family="Helvetica,sans-Serif" font-size="10.00"> resolver_</text>
</g>
<!-- Node11&#45;&gt;Node8 -->
<g id="edge14" class="edge"><title>Node11&#45;&gt;Node8</title>
<path fill="none" stroke="#9a32cd" stroke-dasharray="5,2" d="M492.307,-471.284C604.679,-478.95 790.67,-491.64 872.821,-497.245"/>
<polygon fill="#9a32cd" stroke="#9a32cd" points="492.218,-467.769 482.003,-470.581 491.742,-474.753 492.218,-467.769"/>
<text text-anchor="middle" x="577" y="-485.054" font-family="Helvetica,sans-Serif" font-size="10.00"> taggedNodes_</text>
</g>
<!-- Node12 -->
<g id="node12" class="node"><title>Node12</title>
<g id="a_node12"><a xlink:href="class_urho3_d_1_1_vector.html" target="_top" xlink:title="Urho3D::Vector\&lt; Urho3D\l::SharedPtr\&lt; Urho3D::Package\lFile \&gt; \&gt;">
<polygon fill="none" stroke="red" points="500.5,-218.554 500.5,-259.554 653.5,-259.554 653.5,-218.554 500.5,-218.554"/>
<text text-anchor="start" x="508.5" y="-247.554" font-family="Helvetica,sans-Serif" font-size="10.00">Urho3D::Vector&lt; Urho3D</text>
<text text-anchor="start" x="508.5" y="-236.554" font-family="Helvetica,sans-Serif" font-size="10.00">::SharedPtr&lt; Urho3D::Package</text>
<text text-anchor="middle" x="577" y="-225.554" font-family="Helvetica,sans-Serif" font-size="10.00">File &gt; &gt;</text>
</a>
</g>
</g>
<!-- Node12&#45;&gt;Node8 -->
<g id="edge16" class="edge"><title>Node12&#45;&gt;Node8</title>
<path fill="none" stroke="#9a32cd" stroke-dasharray="5,2" d="M663.914,-221.861C723.95,-215.055 802.312,-217.324 854,-261.054 890.334,-291.794 908.834,-449.641 913.053,-490.426"/>
<polygon fill="#9a32cd" stroke="#9a32cd" points="663.181,-218.424 653.687,-223.127 664.041,-225.371 663.181,-218.424"/>
<text text-anchor="middle" x="763" y="-264.054" font-family="Helvetica,sans-Serif" font-size="10.00"> requiredPackageFiles_</text>
</g>
<!-- Node13&#45;&gt;Node8 -->
<g id="edge17" class="edge"><title>Node13&#45;&gt;Node8</title>
<path fill="none" stroke="#9a32cd" stroke-dasharray="5,2" d="M484.672,-419.259C534.125,-421.918 597.857,-426.676 654,-435.054 744.113,-448.502 766.227,-455.617 854,-480.054 865.001,-483.117 876.966,-486.992 887.296,-490.514"/>
<polygon fill="#9a32cd" stroke="#9a32cd" points="484.83,-415.762 474.662,-418.738 484.467,-422.753 484.83,-415.762"/>
<text text-anchor="start" x="526.5" y="-460.054" font-family="Helvetica,sans-Serif" font-size="10.00"> replicatedComponents</text>
<text text-anchor="middle" x="577" y="-449.054" font-family="Helvetica,sans-Serif" font-size="10.00">_</text>
<text text-anchor="middle" x="577" y="-438.054" font-family="Helvetica,sans-Serif" font-size="10.00">localComponents_</text>
</g>
<!-- Node14 -->
<g id="node14" class="node"><title>Node14</title>
<g id="a_node14"><a xlink:href="class_urho3_d_1_1_p_o_d_vector.html" target="_top" xlink:title="Urho3D::PODVector\&lt;\l Urho3D::Component * \&gt;">
<polygon fill="none" stroke="red" points="514.5,-565.054 514.5,-595.054 639.5,-595.054 639.5,-565.054 514.5,-565.054"/>
<text text-anchor="start" x="522.5" y="-583.054" font-family="Helvetica,sans-Serif" font-size="10.00">Urho3D::PODVector&lt;</text>
<text text-anchor="middle" x="577" y="-572.054" font-family="Helvetica,sans-Serif" font-size="10.00"> Urho3D::Component * &gt;</text>
</a>
</g>
</g>
<!-- Node14&#45;&gt;Node8 -->
<g id="edge19" class="edge"><title>Node14&#45;&gt;Node8</title>
<path fill="none" stroke="#9a32cd" stroke-dasharray="5,2" d="M624.509,-561.536C639.473,-556.172 656.258,-550.768 672,-547.054 751.354,-528.334 775.065,-544.471 854,-524.054 867.686,-520.514 882.434,-514.645 893.884,-509.597"/>
<polygon fill="#9a32cd" stroke="#9a32cd" points="623.149,-558.306 614.967,-565.036 625.56,-564.878 623.149,-558.306"/>
<text text-anchor="middle" x="763" y="-550.054" font-family="Helvetica,sans-Serif" font-size="10.00"> delayedDirtyComponents_</text>
</g>
<!-- Node15&#45;&gt;Node8 -->
<g id="edge20" class="edge"><title>Node15&#45;&gt;Node8</title>
<path fill="none" stroke="#9a32cd" stroke-dasharray="5,2" d="M480.744,-366.971C575.336,-364.414 735.154,-371.266 854,-434.054 879.193,-447.364 899.167,-475.637 908.41,-490.487"/>
<polygon fill="#9a32cd" stroke="#9a32cd" points="480.555,-363.475 470.669,-367.286 480.773,-370.472 480.555,-363.475"/>
<text text-anchor="middle" x="577" y="-378.054" font-family="Helvetica,sans-Serif" font-size="10.00"> varNames_</text>
</g>
<!-- Node16 -->
<g id="node16" class="node"><title>Node16</title>
<g id="a_node16"><a xlink:href="class_urho3_d_1_1_string.html" target="_top" xlink:title="String class. ">
<polygon fill="none" stroke="black" points="536,-742.554 536,-761.554 618,-761.554 618,-742.554 536,-742.554"/>
<text text-anchor="middle" x="577" y="-749.554" font-family="Helvetica,sans-Serif" font-size="10.00">Urho3D::String</text>
</a>
</g>
</g>
<!-- Node16&#45;&gt;Node1 -->
<g id="edge39" class="edge"><title>Node16&#45;&gt;Node1</title>
<path fill="none" stroke="#9a32cd" stroke-dasharray="5,2" d="M628.596,-751.947C684.052,-751.386 775.577,-749.153 854,-741.054 1136.76,-711.854 1472.17,-644.524 1591.31,-619.578"/>
<polygon fill="#9a32cd" stroke="#9a32cd" points="628.306,-748.45 618.337,-752.036 628.367,-755.449 628.306,-748.45"/>
<text text-anchor="middle" x="1185" y="-729.054" font-family="Helvetica,sans-Serif" font-size="10.00"> guid_</text>
<text text-anchor="middle" x="1185" y="-718.054" font-family="Helvetica,sans-Serif" font-size="10.00">password_</text>
<text text-anchor="middle" x="1185" y="-707.054" font-family="Helvetica,sans-Serif" font-size="10.00">packageCacheDir_</text>
</g>
<!-- Node16&#45;&gt;Node8 -->
<g id="edge23" class="edge"><title>Node16&#45;&gt;Node8</title>
<path fill="none" stroke="#9a32cd" stroke-dasharray="5,2" d="M624.928,-740.058C639.902,-736.503 656.586,-732.824 672,-730.054 712.123,-722.844 823.507,-734.111 854,-707.054 878.672,-685.162 863.097,-666.815 872,-635.054 885.25,-587.785 903.432,-531.976 910.752,-509.822"/>
<polygon fill="#9a32cd" stroke="#9a32cd" points="623.77,-736.737 614.871,-742.487 625.413,-743.541 623.77,-736.737"/>
<text text-anchor="middle" x="763" y="-733.054" font-family="Helvetica,sans-Serif" font-size="10.00"> fileName_</text>
</g>
<!-- Node16&#45;&gt;Node16 -->
<g id="edge24" class="edge"><title>Node16&#45;&gt;Node16</title>
<path fill="none" stroke="#9a32cd" stroke-dasharray="5,2" d="M544.017,-769.945C544.5,-775.595 555.494,-780.054 577,-780.054 608.281,-780.054 617.323,-770.619 604.127,-761.811"/>
<polygon fill="#9a32cd" stroke="#9a32cd" points="546.871,-771.972 549.873,-761.811 541.19,-767.881 546.871,-771.972"/>
<text text-anchor="middle" x="577" y="-783.054" font-family="Helvetica,sans-Serif" font-size="10.00"> EMPTY</text>
</g>
<!-- Node16&#45;&gt;Node25 -->
<g id="edge44" class="edge"><title>Node16&#45;&gt;Node25</title>
<path fill="none" stroke="#9a32cd" stroke-dasharray="5,2" d="M628.163,-760.631C642.3,-762.747 657.718,-764.772 672,-766.054 839.63,-781.105 1039.23,-782.647 1131.91,-782.428"/>
<polygon fill="#9a32cd" stroke="#9a32cd" points="628.547,-757.149 618.13,-759.084 627.48,-764.067 628.547,-757.149"/>
<text text-anchor="middle" x="915" y="-784.054" font-family="Helvetica,sans-Serif" font-size="10.00"> sceneFileName_</text>
</g>
<!-- Node17&#45;&gt;Node8 -->
<g id="edge25" class="edge"><title>Node17&#45;&gt;Node8</title>
<path fill="none" stroke="#9a32cd" stroke-dasharray="5,2" d="M645.402,-648.307C648.407,-646.74 651.292,-644.996 654,-643.054 666.021,-634.431 659.486,-622.945 672,-615.054 740.967,-571.567 784.891,-635.315 854,-592.054 885.68,-572.223 904.021,-528.83 910.878,-509.578"/>
<polygon fill="#9a32cd" stroke="#9a32cd" points="643.776,-645.201 636.091,-652.495 646.647,-651.585 643.776,-645.201"/>
<text text-anchor="start" x="699.5" y="-640.054" font-family="Helvetica,sans-Serif" font-size="10.00"> networkUpdateNodes</text>
<text text-anchor="middle" x="763" y="-629.054" font-family="Helvetica,sans-Serif" font-size="10.00">_</text>
<text text-anchor="middle" x="763" y="-618.054" font-family="Helvetica,sans-Serif" font-size="10.00">networkUpdateComponents_</text>
</g>
<!-- Node17&#45;&gt;Node25 -->
<g id="edge45" class="edge"><title>Node17&#45;&gt;Node25</title>
<path fill="none" stroke="#9a32cd" stroke-dasharray="5,2" d="M663.318,-660.689C718.193,-661.207 790.796,-664.504 854,-676.054 972.981,-697.796 1108.56,-750.742 1161.32,-772.489"/>
<polygon fill="#9a32cd" stroke="#9a32cd" points="663.307,-657.189 653.285,-660.623 663.261,-664.189 663.307,-657.189"/>
<text text-anchor="middle" x="915" y="-704.054" font-family="Helvetica,sans-Serif" font-size="10.00"> nodesToProcess_</text>
</g>
<!-- Node18 -->
<g id="node18" class="node"><title>Node18</title>
<g id="a_node18"><a xlink:href="struct_urho3_d_1_1_async_progress.html" target="_top" xlink:title="Asynchronous loading progress of a scene. ">
<polygon fill="none" stroke="red" points="515.5,-278.554 515.5,-297.554 638.5,-297.554 638.5,-278.554 515.5,-278.554"/>
<text text-anchor="middle" x="577" y="-285.554" font-family="Helvetica,sans-Serif" font-size="10.00">Urho3D::AsyncProgress</text>
</a>
</g>
</g>
<!-- Node18&#45;&gt;Node8 -->
<g id="edge27" class="edge"><title>Node18&#45;&gt;Node8</title>
<path fill="none" stroke="#9a32cd" stroke-dasharray="5,2" d="M648.873,-280.41C719.914,-274.331 823.06,-270.31 854,-294.054 886.506,-319 907.454,-453.206 912.703,-490.458"/>
<polygon fill="#9a32cd" stroke="#9a32cd" points="648.288,-276.949 638.636,-281.319 648.907,-283.921 648.288,-276.949"/>
<text text-anchor="middle" x="763" y="-297.054" font-family="Helvetica,sans-Serif" font-size="10.00"> asyncProgress_</text>
</g>
<!-- Node19&#45;&gt;Node1 -->
<g id="edge38" class="edge"><title>Node19&#45;&gt;Node1</title>
<path fill="none" stroke="#9a32cd" stroke-dasharray="5,2" d="M250.992,-267.018C300.237,-233.856 402.519,-170.669 500,-146.054 617.243,-116.449 923.077,-133.054 1044,-133.054 1044,-133.054 1044,-133.054 1410,-133.054 1624.89,-133.054 1635.73,-533.297 1636.03,-600.526"/>
<polygon fill="#9a32cd" stroke="#9a32cd" points="248.727,-264.326 242.428,-272.845 252.665,-270.114 248.727,-264.326"/>
<text text-anchor="start" x="987.5" y="-158.054" font-family="Helvetica,sans-Serif" font-size="10.00"> blacklistedRemoteEvents</text>
<text text-anchor="middle" x="1045" y="-147.054" font-family="Helvetica,sans-Serif" font-size="10.00">_</text>
<text text-anchor="middle" x="1045" y="-136.054" font-family="Helvetica,sans-Serif" font-size="10.00">allowedRemoteEvents_</text>
</g>
<!-- Node19&#45;&gt;Node18 -->
<g id="edge28" class="edge"><title>Node19&#45;&gt;Node18</title>
<path fill="none" stroke="#9a32cd" stroke-dasharray="5,2" d="M298.83,-288.054C363.99,-288.054 455.665,-288.054 515.448,-288.054"/>
<polygon fill="#9a32cd" stroke="#9a32cd" points="298.608,-284.554 288.608,-288.054 298.608,-291.554 298.608,-284.554"/>
<text text-anchor="middle" x="400" y="-291.054" font-family="Helvetica,sans-Serif" font-size="10.00"> resources_</text>
</g>
<!-- Node20&#45;&gt;Node8 -->
<g id="edge30" class="edge"><title>Node20&#45;&gt;Node8</title>
<path fill="none" stroke="#9a32cd" stroke-dasharray="5,2" d="M484.761,-116.383C586.408,-110.849 756.289,-118.448 854,-215.054 894.451,-255.048 910.145,-444.896 913.353,-490.288"/>
<polygon fill="#9a32cd" stroke="#9a32cd" points="484.308,-112.904 474.535,-116.997 484.727,-119.892 484.308,-112.904"/>
<text text-anchor="middle" x="577" y="-138.054" font-family="Helvetica,sans-Serif" font-size="10.00"> replicatedNodes_</text>
<text text-anchor="middle" x="577" y="-127.054" font-family="Helvetica,sans-Serif" font-size="10.00">localNodes_</text>
</g>
<!-- Node21 -->
<g id="node21" class="node"><title>Node21</title>
<g id="a_node21"><a xlink:href="class_urho3_d_1_1_mutex.html" target="_top" xlink:title="Operating system mutual exclusion primitive. ">
<polygon fill="none" stroke="black" points="535.5,-614.554 535.5,-633.554 618.5,-633.554 618.5,-614.554 535.5,-614.554"/>
<text text-anchor="middle" x="577" y="-621.554" font-family="Helvetica,sans-Serif" font-size="10.00">Urho3D::Mutex</text>
</a>
</g>
</g>
<!-- Node21&#45;&gt;Node8 -->
<g id="edge32" class="edge"><title>Node21&#45;&gt;Node8</title>
<path fill="none" stroke="#9a32cd" stroke-dasharray="5,2" d="M628.397,-615.735C637.37,-612.907 646.3,-609.121 654,-604.054 664.843,-596.918 660.711,-587.461 672,-581.054 742.908,-540.809 780.481,-593.303 854,-558.054 877.254,-546.905 897.178,-523.219 907.16,-509.821"/>
<polygon fill="#9a32cd" stroke="#9a32cd" points="627.389,-612.382 618.699,-618.442 629.272,-619.124 627.389,-612.382"/>
<text text-anchor="middle" x="763" y="-584.054" font-family="Helvetica,sans-Serif" font-size="10.00"> sceneMutex_</text>
</g>
<!-- Node22&#45;&gt;Node1 -->
<g id="edge33" class="edge"><title>Node22&#45;&gt;Node1</title>
<path fill="none" stroke="#9a32cd" stroke-dasharray="5,2" d="M864.307,-94.054C917.672,-94.054 984.403,-94.054 1044,-94.054 1044,-94.054 1044,-94.054 1410,-94.054 1482.85,-94.054 1521.09,-66.938 1572,-119.054 1641.83,-190.543 1637.61,-537.172 1636.25,-600.208"/>
<polygon fill="#9a32cd" stroke="#9a32cd" points="864.161,-90.5541 854.161,-94.054 864.161,-97.5541 864.161,-90.5541"/>
<text text-anchor="middle" x="1185" y="-97.054" font-family="Helvetica,sans-Serif" font-size="10.00"> clientConnections_</text>
</g>
<!-- Node23&#45;&gt;Node1 -->
<g id="edge36" class="edge"><title>Node23&#45;&gt;Node1</title>
<path fill="none" stroke="#9a32cd" stroke-dasharray="5,2" d="M1103.76,-32.3178C1211.5,-3.19338 1443.79,40.2968 1572,-80.054 1611.62,-117.242 1632.36,-531.015 1635.56,-600.254"/>
<polygon fill="#9a32cd" stroke="#9a32cd" points="1102.75,-28.9655 1094.04,-34.998 1104.61,-35.7137 1102.75,-28.9655"/>
<text text-anchor="middle" x="1294" y="-7.05401" font-family="Helvetica,sans-Serif" font-size="10.00"> networkScenes_</text>
</g>
<!-- Node24 -->
<g id="node24" class="node"><title>Node24</title>
<g id="a_node24"><a xlink:href="class_urho3_d_1_1_shared_ptr.html" target="_top" xlink:title="Urho3D::SharedPtr\&lt;\l Urho3D::Connection \&gt;">
<polygon fill="none" stroke="black" points="1350,-755.054 1350,-785.054 1468,-785.054 1468,-755.054 1350,-755.054"/>
<text text-anchor="start" x="1358" y="-773.054" font-family="Helvetica,sans-Serif" font-size="10.00">Urho3D::SharedPtr&lt;</text>
<text text-anchor="middle" x="1409" y="-762.054" font-family="Helvetica,sans-Serif" font-size="10.00"> Urho3D::Connection &gt;</text>
</a>
</g>
</g>
<!-- Node24&#45;&gt;Node1 -->
<g id="edge40" class="edge"><title>Node24&#45;&gt;Node1</title>
<path fill="none" stroke="#9a32cd" stroke-dasharray="5,2" d="M1478.29,-768.387C1509.54,-764.547 1545.44,-755.462 1572,-735.054 1611.44,-704.749 1628.66,-643.367 1634.03,-619.68"/>
<polygon fill="#9a32cd" stroke="#9a32cd" points="1477.89,-764.91 1468.32,-769.457 1478.64,-771.87 1477.89,-764.91"/>
<text text-anchor="middle" x="1529" y="-770.054" font-family="Helvetica,sans-Serif" font-size="10.00"> serverConnection_</text>
</g>
<!-- Node25&#45;&gt;Node24 -->
<g id="edge41" class="edge"><title>Node25&#45;&gt;Node24</title>
<path fill="none" stroke="#9a32cd" stroke-dasharray="5,2" d="M1248.12,-778.696C1279.91,-776.978 1318.39,-774.898 1349.63,-773.209"/>
<polygon fill="#9a32cd" stroke="#9a32cd" points="1247.85,-775.206 1238.05,-779.241 1248.22,-782.196 1247.85,-775.206"/>
<text text-anchor="middle" x="1294" y="-782.054" font-family="Helvetica,sans-Serif" font-size="10.00"> ptr_</text>
</g>
</g>
</svg>
        <g id="navigator" transform="translate(0 0)" fill="#404254">
                <rect fill="#f2f5e9" fill-opacity="0.5" stroke="#606060" stroke-width=".5" x="0" y="0" width="60" height="60"/>
                <use id="zoomplus" xlink:href="#zoomPlus" x="17" y="9" onmousedown="handleZoom(evt,'in')"/>
                <use id="zoomminus" xlink:href="#zoomMin" x="42" y="9" onmousedown="handleZoom(evt,'out')"/>
                <use id="reset" xlink:href="#resetDef" x="30" y="36" onmousedown="handleReset()"/>
                <g id="arrowUp" xlink:href="#dirArrow" transform="translate(30 24)" onmousedown="handlePan(0,-1)">
                  <use xlink:href="#rim" fill="#404040">
                        <set attributeName="fill" to="#808080" begin="arrowUp.mouseover" end="arrowUp.mouseout"/>
                  </use>
                  <path fill="none" stroke="white" stroke-width="1.5" d="M0,-3.0v7 M-2.5,-0.5L0,-3.0L2.5,-0.5"/>
                </g>
                <g id="arrowRight" xlink:href="#dirArrow" transform="rotate(90) translate(36 -43)" onmousedown="handlePan(1,0)">
                  <use xlink:href="#rim" fill="#404040">
                        <set attributeName="fill" to="#808080" begin="arrowRight.mouseover" end="arrowRight.mouseout"/>
                  </use>
                  <path fill="none" stroke="white" stroke-width="1.5" d="M0,-3.0v7 M-2.5,-0.5L0,-3.0L2.5,-0.5"/>
                </g>
                <g id="arrowDown" xlink:href="#dirArrow" transform="rotate(180) translate(-30 -48)" onmousedown="handlePan(0,1)">
                  <use xlink:href="#rim" fill="#404040">
                        <set attributeName="fill" to="#808080" begin="arrowDown.mouseover" end="arrowDown.mouseout"/>
                  </use>
                  <path fill="none" stroke="white" stroke-width="1.5" d="M0,-3.0v7 M-2.5,-0.5L0,-3.0L2.5,-0.5"/>
                </g>
                <g id="arrowLeft" xlink:href="#dirArrow" transform="rotate(270) translate(-36 17)" onmousedown="handlePan(-1,0)">
                  <use xlink:href="#rim" fill="#404040">
                        <set attributeName="fill" to="#808080" begin="arrowLeft.mouseover" end="arrowLeft.mouseout"/>
                  </use>
                  <path fill="none" stroke="white" stroke-width="1.5" d="M0,-3.0v7 M-2.5,-0.5L0,-3.0L2.5,-0.5"/>
                </g>
        </g>
        <svg viewBox="0 0 15 15" width="100%" height="30px" preserveAspectRatio="xMaxYMin meet">
         <g id="arrow_out" transform="scale(0.3 0.3)">
          <a xlink:href="class_urho3_d_1_1_network__coll__graph_org.svg" target="_base">
           <rect id="button" ry="5" rx="5" y="6" x="6" height="38" width="38"
                fill="#f2f5e9" fill-opacity="0.5" stroke="#606060" stroke-width="1.0"/>
           <path id="arrow"
             d="M 11.500037,31.436501 C 11.940474,20.09759 22.043105,11.32322 32.158766,21.979434 L 37.068811,17.246167 C 37.068811,17.246167 37.088388,32 37.088388,32 L 22.160133,31.978069 C 22.160133,31.978069 26.997745,27.140456 26.997745,27.140456 C 18.528582,18.264221 13.291696,25.230495 11.500037,31.436501 z"
             style="fill:#404040;"/>
          </a>
         </g>
        </svg>
</svg>
