<?xml version="1.0" encoding="UTF-8" standalone="no"?>
<!DOCTYPE svg PUBLIC "-//W3C//DTD SVG 1.1//EN"
 "http://www.w3.org/Graphics/SVG/1.1/DTD/svg11.dtd">
<!-- Generated by graphviz version 2.36.0 (20140111.2315)
 -->
<!-- Title: Urho3D::File Pages: 1 -->
<!--zoomable 897 -->
<svg id="main" version="1.1" xmlns="http://www.w3.org/2000/svg" xmlns:xlink="http://www.w3.org/1999/xlink" xml:space="preserve" onload="init(evt)">
<style type="text/css"><![CDATA[
.edge:hover path { stroke: red; }
.edge:hover polygon { stroke: red; fill: red; }
]]></style>
<script type="text/javascript"><![CDATA[
var edges = document.getElementsByTagName('g');
if (edges && edges.length) {
  for (var i=0;i<edges.length;i++) {
    if (edges[i].id.substr(0,4)=='edge') {
      edges[i].setAttribute('class','edge');
    }
  }
}
]]></script>
        <defs>
                <circle id="rim" cx="0" cy="0" r="7"/>
                <circle id="rim2" cx="0" cy="0" r="3.5"/>
                <g id="zoomPlus">
                        <use xlink:href="#rim" fill="#404040">
                                <set attributeName="fill" to="#808080" begin="zoomplus.mouseover" end="zoomplus.mouseout"/>
                        </use>
                        <path d="M-4,0h8M0,-4v8" fill="none" stroke="white" stroke-width="1.5" pointer-events="none"/>
                </g>
                <g id="zoomMin">
                        <use xlink:href="#rim" fill="#404040">
                                <set attributeName="fill" to="#808080" begin="zoomminus.mouseover" end="zoomminus.mouseout"/>
                        </use>
                        <path d="M-4,0h8" fill="none" stroke="white" stroke-width="1.5" pointer-events="none"/>
                </g>
                <g id="dirArrow">
                        <path fill="none" stroke="white" stroke-width="1.5" d="M0,-3.0v7 M-2.5,-0.5L0,-3.0L2.5,-0.5"/>
                </g>
               <g id="resetDef">
                       <use xlink:href="#rim2" fill="#404040">
                               <set attributeName="fill" to="#808080" begin="reset.mouseover" end="reset.mouseout"/>
                       </use>
               </g>
        </defs>

<script type="text/javascript">
var viewWidth = 1260;
var viewHeight = 897;
var sectionId = 'dynsection-1';
</script>
<script xlink:href="svgpan.js"/>
<svg id="graph" class="graph">
<g id="viewport">
<title>Urho3D::File</title>
<!-- Node1 -->
<g id="node1" class="node"><title>Node1</title>
<polygon fill="#bfbfbf" stroke="black" points="790,-770.5 790,-789.5 864,-789.5 864,-770.5 790,-770.5"/>
<text text-anchor="middle" x="827" y="-777.5" font-family="FreeSans" font-size="10.00">Urho3D::File</text>
</g>
<!-- Node2 -->
<g id="node2" class="node"><title>Node2</title>
<g id="a_node2"><a xlink:href="class_urho3_d_1_1_object.html" target="_top" xlink:title="Base class for objects with type identification, subsystem access and event sending/receiving capabil...">
<polygon fill="none" stroke="black" points="495,-702.5 495,-721.5 585,-721.5 585,-702.5 495,-702.5"/>
<text text-anchor="middle" x="540" y="-709.5" font-family="FreeSans" font-size="10.00">Urho3D::Object</text>
</a>
</g>
</g>
<!-- Node2&#45;&gt;Node1 -->
<g id="edge1" class="edge"><title>Node2&#45;&gt;Node1</title>
<path fill="none" stroke="midnightblue" d="M590.788,-723.879C647.711,-737.461 739.51,-759.364 789.943,-771.397"/>
<polygon fill="midnightblue" stroke="midnightblue" points="591.467,-720.443 580.928,-721.527 589.843,-727.252 591.467,-720.443"/>
</g>
<!-- Node11 -->
<g id="node11" class="node"><title>Node11</title>
<g id="a_node11"><a xlink:href="class_urho3_d_1_1_event_handler.html" target="_top" xlink:title="Internal helper class for invoking event handler functions. ">
<polygon fill="none" stroke="black" points="765,-592.5 765,-611.5 889,-611.5 889,-592.5 765,-592.5"/>
<text text-anchor="middle" x="827" y="-599.5" font-family="FreeSans" font-size="10.00">Urho3D::EventHandler</text>
</a>
</g>
</g>
<!-- Node2&#45;&gt;Node11 -->
<g id="edge15" class="edge"><title>Node2&#45;&gt;Node11</title>
<path fill="none" stroke="#9a32cd" stroke-dasharray="5,2" d="M594.234,-701.417C598.538,-699.132 602.549,-696.36 606,-693 624.73,-674.762 604.271,-654.153 624,-637 644.648,-619.047 713.356,-610.034 764.948,-605.698"/>
<polygon fill="#9a32cd" stroke="#9a32cd" points="592.813,-698.218 585.076,-705.456 595.638,-704.623 592.813,-698.218"/>
<text text-anchor="middle" x="653" y="-651" font-family="FreeSans" font-size="10.00"> sender_</text>
<text text-anchor="middle" x="653" y="-640" font-family="FreeSans" font-size="10.00">receiver_</text>
</g>
<!-- Node3 -->
<g id="node3" class="node"><title>Node3</title>
<g id="a_node3"><a xlink:href="class_urho3_d_1_1_ref_counted.html" target="_top" xlink:title="Base class for intrusively reference&#45;counted objects. These are noncopyable and non&#45;assignable. ">
<polygon fill="none" stroke="black" points="189,-702.5 189,-721.5 303,-721.5 303,-702.5 189,-702.5"/>
<text text-anchor="middle" x="246" y="-709.5" font-family="FreeSans" font-size="10.00">Urho3D::RefCounted</text>
</a>
</g>
</g>
<!-- Node3&#45;&gt;Node2 -->
<g id="edge2" class="edge"><title>Node3&#45;&gt;Node2</title>
<path fill="none" stroke="midnightblue" d="M313.4,-712C368.932,-712 446.591,-712 494.79,-712"/>
<polygon fill="midnightblue" stroke="midnightblue" points="313.301,-708.5 303.301,-712 313.301,-715.5 313.301,-708.5"/>
</g>
<!-- Node5 -->
<g id="node5" class="node"><title>Node5</title>
<g id="a_node5"><a xlink:href="class_urho3_d_1_1_context.html" target="_top" xlink:title="Urho3D execution context. Provides access to subsystems, object factories and attributes, and event receivers. ">
<polygon fill="none" stroke="black" points="1130.5,-368.5 1130.5,-387.5 1227.5,-387.5 1227.5,-368.5 1130.5,-368.5"/>
<text text-anchor="middle" x="1179" y="-375.5" font-family="FreeSans" font-size="10.00">Urho3D::Context</text>
</a>
</g>
</g>
<!-- Node3&#45;&gt;Node5 -->
<g id="edge5" class="edge"><title>Node3&#45;&gt;Node5</title>
<path fill="none" stroke="midnightblue" d="M264.952,-695.002C301.127,-661.943 386.803,-589.558 474,-559 733.062,-468.213 854.586,-636.475 1088,-492 1131.1,-465.325 1162,-410.26 1173.29,-387.831"/>
<polygon fill="midnightblue" stroke="midnightblue" points="262.189,-692.79 257.231,-702.153 266.946,-697.926 262.189,-692.79"/>
</g>
<!-- Node4 -->
<g id="node4" class="node"><title>Node4</title>
<g id="a_node4"><a xlink:href="struct_urho3_d_1_1_ref_count.html" target="_top" xlink:title="Reference count structure. ">
<polygon fill="none" stroke="black" points="0,-725.5 0,-744.5 102,-744.5 102,-725.5 0,-725.5"/>
<text text-anchor="middle" x="51" y="-732.5" font-family="FreeSans" font-size="10.00">Urho3D::RefCount</text>
</a>
</g>
</g>
<!-- Node4&#45;&gt;Node3 -->
<g id="edge3" class="edge"><title>Node4&#45;&gt;Node3</title>
<path fill="none" stroke="#9a32cd" stroke-dasharray="5,2" d="M104.128,-723.545C109.472,-722.588 114.834,-721.715 120,-721 142.414,-717.899 167.247,-715.833 188.834,-714.471"/>
<polygon fill="#9a32cd" stroke="#9a32cd" points="103.106,-720.176 93.9288,-725.47 104.405,-727.054 103.106,-720.176"/>
<text text-anchor="middle" x="145" y="-724" font-family="FreeSans" font-size="10.00"> refCount_</text>
</g>
<!-- Node24 -->
<g id="node24" class="node"><title>Node24</title>
<g id="a_node24"><a xlink:href="class_urho3_d_1_1_shared_array_ptr.html" target="_top" xlink:title="Urho3D::SharedArrayPtr\l\&lt; unsigned char \&gt;">
<polygon fill="none" stroke="black" points="322.5,-745 322.5,-775 455.5,-775 455.5,-745 322.5,-745"/>
<text text-anchor="start" x="330.5" y="-763" font-family="FreeSans" font-size="10.00">Urho3D::SharedArrayPtr</text>
<text text-anchor="middle" x="389" y="-752" font-family="FreeSans" font-size="10.00">&lt; unsigned char &gt;</text>
</a>
</g>
</g>
<!-- Node4&#45;&gt;Node24 -->
<g id="edge36" class="edge"><title>Node4&#45;&gt;Node24</title>
<path fill="none" stroke="#9a32cd" stroke-dasharray="5,2" d="M112.614,-739.51C171.765,-743.911 261.492,-750.587 322.318,-755.113"/>
<polygon fill="#9a32cd" stroke="#9a32cd" points="112.535,-735.994 102.303,-738.743 112.015,-742.975 112.535,-735.994"/>
<text text-anchor="middle" x="145" y="-747" font-family="FreeSans" font-size="10.00"> refCount_</text>
</g>
<!-- Node5&#45;&gt;Node2 -->
<g id="edge4" class="edge"><title>Node5&#45;&gt;Node2</title>
<path fill="none" stroke="#9a32cd" stroke-dasharray="5,2" d="M1178.37,-397.707C1178.14,-449.213 1169.63,-588.194 1088,-651 1053.77,-677.334 742.722,-667.679 700,-674 655.64,-680.564 605.471,-693.5 573.56,-702.443"/>
<polygon fill="#9a32cd" stroke="#9a32cd" points="1181.87,-397.571 1178.31,-387.592 1174.87,-397.614 1181.87,-397.571"/>
<text text-anchor="middle" x="827" y="-677" font-family="FreeSans" font-size="10.00"> context_</text>
</g>
<!-- Node6 -->
<g id="node6" class="node"><title>Node6</title>
<g id="a_node6"><a xlink:href="class_urho3_d_1_1_hash_map.html" target="_top" xlink:title="Urho3D::HashMap\&lt; Urho3D\l::Object *, Urho3D::HashMap\l\&lt; Urho3D::StringHash, Urho3D\l::SharedPtr\&lt; Urho3D::EventReceiverGroup \&gt; \&gt; \&gt;">
<polygon fill="none" stroke="black" points="700,-312 700,-364 954,-364 954,-312 700,-312"/>
<text text-anchor="start" x="708" y="-352" font-family="FreeSans" font-size="10.00">Urho3D::HashMap&lt; Urho3D</text>
<text text-anchor="start" x="708" y="-341" font-family="FreeSans" font-size="10.00">::Object *, Urho3D::HashMap</text>
<text text-anchor="start" x="708" y="-330" font-family="FreeSans" font-size="10.00">&lt; Urho3D::StringHash, Urho3D</text>
<text text-anchor="middle" x="827" y="-319" font-family="FreeSans" font-size="10.00">::SharedPtr&lt; Urho3D::EventReceiverGroup &gt; &gt; &gt;</text>
</a>
</g>
</g>
<!-- Node6&#45;&gt;Node5 -->
<g id="edge6" class="edge"><title>Node6&#45;&gt;Node5</title>
<path fill="none" stroke="#9a32cd" stroke-dasharray="5,2" d="M964.453,-353.595C1023,-360.285 1087.6,-367.669 1130.25,-372.543"/>
<polygon fill="#9a32cd" stroke="#9a32cd" points="964.691,-350.099 954.358,-352.441 963.896,-357.054 964.691,-350.099"/>
<text text-anchor="middle" x="1030" y="-371" font-family="FreeSans" font-size="10.00"> specificEventReceivers_</text>
</g>
<!-- Node7 -->
<g id="node7" class="node"><title>Node7</title>
<g id="a_node7"><a xlink:href="class_urho3_d_1_1_hash_base.html" target="_top" xlink:title="Hash set/map base class. ">
<polygon fill="none" stroke="red" points="486,-191.5 486,-210.5 594,-210.5 594,-191.5 486,-191.5"/>
<text text-anchor="middle" x="540" y="-198.5" font-family="FreeSans" font-size="10.00">Urho3D::HashBase</text>
</a>
</g>
</g>
<!-- Node7&#45;&gt;Node6 -->
<g id="edge7" class="edge"><title>Node7&#45;&gt;Node6</title>
<path fill="none" stroke="midnightblue" d="M561.684,-216.912C591.008,-238.805 647.011,-278.202 700,-302 707.99,-305.588 716.427,-308.912 724.995,-311.968"/>
<polygon fill="midnightblue" stroke="midnightblue" points="563.563,-213.945 553.473,-210.716 559.347,-219.533 563.563,-213.945"/>
</g>
<!-- Node8 -->
<g id="node8" class="node"><title>Node8</title>
<g id="a_node8"><a xlink:href="class_urho3_d_1_1_hash_map.html" target="_top" xlink:title="Urho3D::HashMap\&lt; Urho3D\l::StringHash, Urho3D::\lSharedPtr\&lt; Urho3D::EventReceiver\lGroup \&gt; \&gt;">
<polygon fill="none" stroke="black" points="734.5,-241 734.5,-293 919.5,-293 919.5,-241 734.5,-241"/>
<text text-anchor="start" x="742.5" y="-281" font-family="FreeSans" font-size="10.00">Urho3D::HashMap&lt; Urho3D</text>
<text text-anchor="start" x="742.5" y="-270" font-family="FreeSans" font-size="10.00">::StringHash, Urho3D::</text>
<text text-anchor="start" x="742.5" y="-259" font-family="FreeSans" font-size="10.00">SharedPtr&lt; Urho3D::EventReceiver</text>
<text text-anchor="middle" x="827" y="-248" font-family="FreeSans" font-size="10.00">Group &gt; &gt;</text>
</a>
</g>
</g>
<!-- Node7&#45;&gt;Node8 -->
<g id="edge9" class="edge"><title>Node7&#45;&gt;Node8</title>
<path fill="none" stroke="midnightblue" d="M592.055,-212.823C631.505,-221.959 687.144,-234.844 734.264,-245.756"/>
<polygon fill="midnightblue" stroke="midnightblue" points="592.669,-209.373 582.137,-210.526 591.09,-216.192 592.669,-209.373"/>
</g>
<!-- Node14 -->
<g id="node14" class="node"><title>Node14</title>
<g id="a_node14"><a xlink:href="class_urho3_d_1_1_hash_map.html" target="_top" xlink:title="Urho3D::HashMap\&lt; StringHash,\l Variant \&gt;">
<polygon fill="none" stroke="black" points="741,-383 741,-413 913,-413 913,-383 741,-383"/>
<text text-anchor="start" x="749" y="-401" font-family="FreeSans" font-size="10.00">Urho3D::HashMap&lt; StringHash,</text>
<text text-anchor="middle" x="827" y="-390" font-family="FreeSans" font-size="10.00"> Variant &gt;</text>
</a>
</g>
</g>
<!-- Node7&#45;&gt;Node14 -->
<g id="edge19" class="edge"><title>Node7&#45;&gt;Node14</title>
<path fill="none" stroke="midnightblue" d="M552.107,-219.306C574.925,-255.187 630.799,-334.605 700,-373 712.481,-379.925 726.596,-384.95 740.748,-388.592"/>
<polygon fill="midnightblue" stroke="midnightblue" points="555.057,-217.423 546.796,-210.79 549.118,-221.127 555.057,-217.423"/>
</g>
<!-- Node15 -->
<g id="node15" class="node"><title>Node15</title>
<g id="a_node15"><a xlink:href="class_urho3_d_1_1_hash_map.html" target="_top" xlink:title="Urho3D::HashMap\&lt; Urho3D\l::StringHash, Urho3D::\lSharedPtr\&lt; Urho3D::Object \&gt; \&gt;">
<polygon fill="none" stroke="black" points="741,-180.5 741,-221.5 913,-221.5 913,-180.5 741,-180.5"/>
<text text-anchor="start" x="749" y="-209.5" font-family="FreeSans" font-size="10.00">Urho3D::HashMap&lt; Urho3D</text>
<text text-anchor="start" x="749" y="-198.5" font-family="FreeSans" font-size="10.00">::StringHash, Urho3D::</text>
<text text-anchor="middle" x="827" y="-187.5" font-family="FreeSans" font-size="10.00">SharedPtr&lt; Urho3D::Object &gt; &gt;</text>
</a>
</g>
</g>
<!-- Node7&#45;&gt;Node15 -->
<g id="edge21" class="edge"><title>Node7&#45;&gt;Node15</title>
<path fill="none" stroke="midnightblue" d="M604.467,-201C644.625,-201 697.032,-201 740.79,-201"/>
<polygon fill="midnightblue" stroke="midnightblue" points="604.272,-197.5 594.272,-201 604.272,-204.5 604.272,-197.5"/>
</g>
<!-- Node17 -->
<g id="node17" class="node"><title>Node17</title>
<g id="a_node17"><a xlink:href="class_urho3_d_1_1_hash_map.html" target="_top" xlink:title="Urho3D::HashMap\&lt; Urho3D\l::StringHash, Urho3D::\lSharedPtr\&lt; Urho3D::ObjectFactory \&gt; \&gt;">
<polygon fill="none" stroke="black" points="724,-60.5 724,-101.5 930,-101.5 930,-60.5 724,-60.5"/>
<text text-anchor="start" x="732" y="-89.5" font-family="FreeSans" font-size="10.00">Urho3D::HashMap&lt; Urho3D</text>
<text text-anchor="start" x="732" y="-78.5" font-family="FreeSans" font-size="10.00">::StringHash, Urho3D::</text>
<text text-anchor="middle" x="827" y="-67.5" font-family="FreeSans" font-size="10.00">SharedPtr&lt; Urho3D::ObjectFactory &gt; &gt;</text>
</a>
</g>
</g>
<!-- Node7&#45;&gt;Node17 -->
<g id="edge25" class="edge"><title>Node7&#45;&gt;Node17</title>
<path fill="none" stroke="midnightblue" d="M563.212,-185.736C593.065,-165.867 648.364,-131.29 700,-111 708.895,-107.505 718.309,-104.343 727.825,-101.501"/>
<polygon fill="midnightblue" stroke="midnightblue" points="561.14,-182.912 554.797,-191.399 565.047,-188.72 561.14,-182.912"/>
</g>
<!-- Node18 -->
<g id="node18" class="node"><title>Node18</title>
<g id="a_node18"><a xlink:href="class_urho3_d_1_1_hash_map.html" target="_top" xlink:title="Urho3D::HashMap\&lt; Urho3D\l::String, Urho3D::Vector\l\&lt; Urho3D::StringHash \&gt; \&gt;">
<polygon fill="none" stroke="black" points="751,-0.5 751,-41.5 903,-41.5 903,-0.5 751,-0.5"/>
<text text-anchor="start" x="759" y="-29.5" font-family="FreeSans" font-size="10.00">Urho3D::HashMap&lt; Urho3D</text>
<text text-anchor="start" x="759" y="-18.5" font-family="FreeSans" font-size="10.00">::String, Urho3D::Vector</text>
<text text-anchor="middle" x="827" y="-7.5" font-family="FreeSans" font-size="10.00">&lt; Urho3D::StringHash &gt; &gt;</text>
</a>
</g>
</g>
<!-- Node7&#45;&gt;Node18 -->
<g id="edge27" class="edge"><title>Node7&#45;&gt;Node18</title>
<path fill="none" stroke="midnightblue" d="M554.012,-183.229C578.599,-151.091 635.259,-83.6276 700,-51 715.663,-43.1064 733.478,-37.238 750.681,-32.8933"/>
<polygon fill="midnightblue" stroke="midnightblue" points="551.158,-181.201 547.948,-191.298 556.754,-185.407 551.158,-181.201"/>
</g>
<!-- Node19 -->
<g id="node19" class="node"><title>Node19</title>
<g id="a_node19"><a xlink:href="class_urho3_d_1_1_hash_map.html" target="_top" xlink:title="Urho3D::HashMap\&lt; Urho3D\l::StringHash, Urho3D::\lVector\&lt; Urho3D::AttributeInfo \&gt; \&gt;">
<polygon fill="none" stroke="black" points="735.5,-120.5 735.5,-161.5 918.5,-161.5 918.5,-120.5 735.5,-120.5"/>
<text text-anchor="start" x="743.5" y="-149.5" font-family="FreeSans" font-size="10.00">Urho3D::HashMap&lt; Urho3D</text>
<text text-anchor="start" x="743.5" y="-138.5" font-family="FreeSans" font-size="10.00">::StringHash, Urho3D::</text>
<text text-anchor="middle" x="827" y="-127.5" font-family="FreeSans" font-size="10.00">Vector&lt; Urho3D::AttributeInfo &gt; &gt;</text>
</a>
</g>
</g>
<!-- Node7&#45;&gt;Node19 -->
<g id="edge29" class="edge"><title>Node7&#45;&gt;Node19</title>
<path fill="none" stroke="midnightblue" d="M596.116,-189.397C635.571,-181.09 689.581,-169.72 735.337,-160.087"/>
<polygon fill="midnightblue" stroke="midnightblue" points="595.224,-186.008 586.159,-191.493 596.666,-192.858 595.224,-186.008"/>
</g>
<!-- Node8&#45;&gt;Node5 -->
<g id="edge8" class="edge"><title>Node8&#45;&gt;Node5</title>
<path fill="none" stroke="#9a32cd" stroke-dasharray="5,2" d="M929.531,-292.893C977.937,-306 1036.4,-322.944 1088,-341 1111.76,-349.315 1138.35,-360.485 1156.43,-368.37"/>
<polygon fill="#9a32cd" stroke="#9a32cd" points="930.241,-289.46 919.675,-290.24 928.421,-296.219 930.241,-289.46"/>
<text text-anchor="middle" x="1030" y="-344" font-family="FreeSans" font-size="10.00"> eventReceivers_</text>
</g>
<!-- Node9 -->
<g id="node9" class="node"><title>Node9</title>
<g id="a_node9"><a xlink:href="class_urho3_d_1_1_p_o_d_vector.html" target="_top" xlink:title="Urho3D::PODVector\&lt;\l Urho3D::Object * \&gt;">
<polygon fill="none" stroke="black" points="767.5,-432 767.5,-462 886.5,-462 886.5,-432 767.5,-432"/>
<text text-anchor="start" x="775.5" y="-450" font-family="FreeSans" font-size="10.00">Urho3D::PODVector&lt;</text>
<text text-anchor="middle" x="827" y="-439" font-family="FreeSans" font-size="10.00"> Urho3D::Object * &gt;</text>
</a>
</g>
</g>
<!-- Node9&#45;&gt;Node5 -->
<g id="edge10" class="edge"><title>Node9&#45;&gt;Node5</title>
<path fill="none" stroke="#9a32cd" stroke-dasharray="5,2" d="M896.42,-438.448C949.13,-431.258 1023.63,-419.787 1088,-405 1108.83,-400.215 1131.91,-393.257 1149.48,-387.603"/>
<polygon fill="#9a32cd" stroke="#9a32cd" points="895.952,-434.979 886.509,-439.784 896.887,-441.917 895.952,-434.979"/>
<text text-anchor="middle" x="1030" y="-430" font-family="FreeSans" font-size="10.00"> eventSenders_</text>
</g>
<!-- Node10 -->
<g id="node10" class="node"><title>Node10</title>
<g id="a_node10"><a xlink:href="class_urho3_d_1_1_vector_base.html" target="_top" xlink:title="Vector base class. ">
<polygon fill="none" stroke="black" points="483,-456.5 483,-475.5 597,-475.5 597,-456.5 483,-456.5"/>
<text text-anchor="middle" x="540" y="-463.5" font-family="FreeSans" font-size="10.00">Urho3D::VectorBase</text>
</a>
</g>
</g>
<!-- Node10&#45;&gt;Node9 -->
<g id="edge11" class="edge"><title>Node10&#45;&gt;Node9</title>
<path fill="none" stroke="midnightblue" d="M607.376,-461.575C655.805,-458.346 720.839,-454.011 767.361,-450.909"/>
<polygon fill="midnightblue" stroke="midnightblue" points="607.052,-458.089 597.307,-462.246 607.518,-465.073 607.052,-458.089"/>
</g>
<!-- Node16 -->
<g id="node16" class="node"><title>Node16</title>
<g id="a_node16"><a xlink:href="class_urho3_d_1_1_p_o_d_vector.html" target="_top" xlink:title="Urho3D::PODVector\&lt;\l Urho3D::HashMap * \&gt;">
<polygon fill="none" stroke="black" points="763.5,-481 763.5,-511 890.5,-511 890.5,-481 763.5,-481"/>
<text text-anchor="start" x="771.5" y="-499" font-family="FreeSans" font-size="10.00">Urho3D::PODVector&lt;</text>
<text text-anchor="middle" x="827" y="-488" font-family="FreeSans" font-size="10.00"> Urho3D::HashMap * &gt;</text>
</a>
</g>
</g>
<!-- Node10&#45;&gt;Node16 -->
<g id="edge23" class="edge"><title>Node10&#45;&gt;Node16</title>
<path fill="none" stroke="midnightblue" d="M607.399,-472.989C654.456,-477.943 717.181,-484.545 763.37,-489.407"/>
<polygon fill="midnightblue" stroke="midnightblue" points="607.618,-469.493 597.307,-471.927 606.885,-476.455 607.618,-469.493"/>
</g>
<!-- Node11&#45;&gt;Node5 -->
<g id="edge12" class="edge"><title>Node11&#45;&gt;Node5</title>
<path fill="none" stroke="#9a32cd" stroke-dasharray="5,2" d="M899.46,-605.237C955.845,-604.201 1033.77,-594.404 1088,-554 1146.62,-510.326 1170,-417.488 1176.2,-387.532"/>
<polygon fill="#9a32cd" stroke="#9a32cd" points="899.159,-601.74 889.193,-605.334 899.226,-608.739 899.159,-601.74"/>
<text text-anchor="middle" x="1030" y="-602" font-family="FreeSans" font-size="10.00"> eventHandler_</text>
</g>
<!-- Node20 -->
<g id="node20" class="node"><title>Node20</title>
<g id="a_node20"><a xlink:href="class_urho3_d_1_1_linked_list.html" target="_top" xlink:title="Urho3D::LinkedList\l\&lt; Urho3D::EventHandler \&gt;">
<polygon fill="none" stroke="black" points="1106,-656 1106,-686 1252,-686 1252,-656 1106,-656"/>
<text text-anchor="start" x="1114" y="-674" font-family="FreeSans" font-size="10.00">Urho3D::LinkedList</text>
<text text-anchor="middle" x="1179" y="-663" font-family="FreeSans" font-size="10.00">&lt; Urho3D::EventHandler &gt;</text>
</a>
</g>
</g>
<!-- Node11&#45;&gt;Node20 -->
<g id="edge31" class="edge"><title>Node11&#45;&gt;Node20</title>
<path fill="none" stroke="#9a32cd" stroke-dasharray="5,2" d="M886.416,-613.516C946.747,-625.41 1040.99,-643.989 1105.91,-656.789"/>
<polygon fill="#9a32cd" stroke="#9a32cd" points="886.787,-610.022 876.299,-611.522 885.433,-616.89 886.787,-610.022"/>
<text text-anchor="middle" x="1030" y="-656" font-family="FreeSans" font-size="10.00"> head_</text>
</g>
<!-- Node12 -->
<g id="node12" class="node"><title>Node12</title>
<g id="a_node12"><a xlink:href="struct_urho3_d_1_1_linked_list_node.html" target="_top" xlink:title="Singly&#45;linked list node base class. ">
<polygon fill="none" stroke="black" points="474,-568.5 474,-587.5 606,-587.5 606,-568.5 474,-568.5"/>
<text text-anchor="middle" x="540" y="-575.5" font-family="FreeSans" font-size="10.00">Urho3D::LinkedListNode</text>
</a>
</g>
</g>
<!-- Node12&#45;&gt;Node11 -->
<g id="edge13" class="edge"><title>Node12&#45;&gt;Node11</title>
<path fill="none" stroke="midnightblue" d="M616.284,-579.336C637.557,-580.075 660.708,-581.222 682,-583 709.265,-585.277 739.286,-589.037 764.828,-592.614"/>
<polygon fill="midnightblue" stroke="midnightblue" points="616.116,-575.829 606.008,-579.004 615.89,-582.825 616.116,-575.829"/>
</g>
<!-- Node12&#45;&gt;Node12 -->
<g id="edge14" class="edge"><title>Node12&#45;&gt;Node12</title>
<path fill="none" stroke="#9a32cd" stroke-dasharray="5,2" d="M519.26,-597.4C520.645,-602.315 527.559,-606 540,-606 559.906,-606 565.66,-596.565 557.262,-587.757"/>
<polygon fill="#9a32cd" stroke="#9a32cd" points="522.638,-598.351 522.738,-587.757 516.053,-595.977 522.638,-598.351"/>
<text text-anchor="middle" x="540" y="-609" font-family="FreeSans" font-size="10.00"> next_</text>
</g>
<!-- Node13 -->
<g id="node13" class="node"><title>Node13</title>
<g id="a_node13"><a xlink:href="class_urho3_d_1_1_string_hash.html" target="_top" xlink:title="32&#45;bit hash value for a string. ">
<polygon fill="none" stroke="black" points="483.5,-635.5 483.5,-654.5 596.5,-654.5 596.5,-635.5 483.5,-635.5"/>
<text text-anchor="middle" x="540" y="-642.5" font-family="FreeSans" font-size="10.00">Urho3D::StringHash</text>
</a>
</g>
</g>
<!-- Node13&#45;&gt;Node11 -->
<g id="edge16" class="edge"><title>Node13&#45;&gt;Node11</title>
<path fill="none" stroke="#9a32cd" stroke-dasharray="5,2" d="M596.267,-631.561C599.671,-629.913 602.949,-628.067 606,-626 616.746,-618.718 612.345,-608.714 624,-603 675.642,-577.681 744.018,-584.391 786.494,-592.485"/>
<polygon fill="#9a32cd" stroke="#9a32cd" points="594.873,-628.35 587.032,-635.475 597.605,-634.795 594.873,-628.35"/>
<text text-anchor="middle" x="653" y="-606" font-family="FreeSans" font-size="10.00"> eventType_</text>
</g>
<!-- Node13&#45;&gt;Node13 -->
<g id="edge17" class="edge"><title>Node13&#45;&gt;Node13</title>
<path fill="none" stroke="#9a32cd" stroke-dasharray="5,2" d="M519.26,-664.4C520.645,-669.315 527.559,-673 540,-673 559.906,-673 565.66,-663.565 557.262,-654.757"/>
<polygon fill="#9a32cd" stroke="#9a32cd" points="522.638,-665.351 522.738,-654.757 516.053,-662.977 522.638,-665.351"/>
<text text-anchor="middle" x="540" y="-676" font-family="FreeSans" font-size="10.00"> ZERO</text>
</g>
<!-- Node14&#45;&gt;Node5 -->
<g id="edge18" class="edge"><title>Node14&#45;&gt;Node5</title>
<path fill="none" stroke="#9a32cd" stroke-dasharray="5,2" d="M923.332,-392.552C990.371,-388.722 1077.24,-383.758 1130.23,-380.73"/>
<polygon fill="#9a32cd" stroke="#9a32cd" points="922.956,-389.068 913.172,-393.133 923.355,-396.057 922.956,-389.068"/>
<text text-anchor="middle" x="1030" y="-393" font-family="FreeSans" font-size="10.00"> globalVars_</text>
</g>
<!-- Node15&#45;&gt;Node5 -->
<g id="edge20" class="edge"><title>Node15&#45;&gt;Node5</title>
<path fill="none" stroke="#9a32cd" stroke-dasharray="5,2" d="M922.75,-221.527C933.374,-224.428 943.974,-227.595 954,-231 969.447,-236.246 1074.49,-281.86 1088,-291 1122.2,-314.134 1155.21,-350.852 1169.96,-368.247"/>
<polygon fill="#9a32cd" stroke="#9a32cd" points="923.565,-218.122 913.002,-218.937 921.768,-224.887 923.565,-218.122"/>
<text text-anchor="middle" x="1030" y="-294" font-family="FreeSans" font-size="10.00"> subsystems_</text>
</g>
<!-- Node16&#45;&gt;Node5 -->
<g id="edge22" class="edge"><title>Node16&#45;&gt;Node5</title>
<path fill="none" stroke="#9a32cd" stroke-dasharray="5,2" d="M900.757,-489.185C954.324,-482.22 1027.97,-468.494 1088,-442 1119.75,-427.988 1151.59,-401.797 1167.53,-387.653"/>
<polygon fill="#9a32cd" stroke="#9a32cd" points="900.147,-485.734 890.659,-490.45 901.017,-492.68 900.147,-485.734"/>
<text text-anchor="middle" x="1030" y="-480" font-family="FreeSans" font-size="10.00"> eventDataMaps_</text>
</g>
<!-- Node17&#45;&gt;Node5 -->
<g id="edge24" class="edge"><title>Node17&#45;&gt;Node5</title>
<path fill="none" stroke="#9a32cd" stroke-dasharray="5,2" d="M940.004,-85.3881C990.468,-92.7287 1047.64,-109.223 1088,-145 1158.74,-207.713 1174.26,-332.58 1177.32,-368.268"/>
<polygon fill="#9a32cd" stroke="#9a32cd" points="940.387,-81.908 930.008,-84.039 939.45,-88.8451 940.387,-81.908"/>
<text text-anchor="middle" x="1030" y="-148" font-family="FreeSans" font-size="10.00"> factories_</text>
</g>
<!-- Node18&#45;&gt;Node5 -->
<g id="edge26" class="edge"><title>Node18&#45;&gt;Node5</title>
<path fill="none" stroke="#9a32cd" stroke-dasharray="5,2" d="M913.38,-18.553C969.668,-21.5291 1041.34,-34.7447 1088,-78 1176.92,-160.44 1179.22,-326.895 1178.33,-368.44"/>
<polygon fill="#9a32cd" stroke="#9a32cd" points="913.199,-15.0422 903.058,-18.1115 912.9,-22.0358 913.199,-15.0422"/>
<text text-anchor="middle" x="1030" y="-81" font-family="FreeSans" font-size="10.00"> objectCategories_</text>
</g>
<!-- Node19&#45;&gt;Node5 -->
<g id="edge28" class="edge"><title>Node19&#45;&gt;Node5</title>
<path fill="none" stroke="#9a32cd" stroke-dasharray="5,2" d="M928.582,-149.335C980.943,-158.16 1043.2,-176.206 1088,-213 1140.95,-256.49 1167.59,-339.66 1175.46,-368.145"/>
<polygon fill="#9a32cd" stroke="#9a32cd" points="929.015,-145.86 918.588,-147.74 927.912,-152.772 929.015,-145.86"/>
<text text-anchor="middle" x="1030" y="-227" font-family="FreeSans" font-size="10.00"> attributes_</text>
<text text-anchor="middle" x="1030" y="-216" font-family="FreeSans" font-size="10.00">networkAttributes_</text>
</g>
<!-- Node20&#45;&gt;Node2 -->
<g id="edge30" class="edge"><title>Node20&#45;&gt;Node2</title>
<path fill="none" stroke="#9a32cd" stroke-dasharray="5,2" d="M1095.7,-678.411C1093.1,-678.614 1090.53,-678.811 1088,-679 901.335,-692.924 678.494,-704.938 585.343,-709.753"/>
<polygon fill="#9a32cd" stroke="#9a32cd" points="1096.12,-681.889 1105.8,-677.599 1095.56,-674.911 1096.12,-681.889"/>
<text text-anchor="middle" x="827" y="-707" font-family="FreeSans" font-size="10.00"> eventHandlers_</text>
</g>
<!-- Node21 -->
<g id="node21" class="node"><title>Node21</title>
<g id="a_node21"><a xlink:href="class_urho3_d_1_1_abstract_file.html" target="_top" xlink:title="A common root class for objects that implement both Serializer and Deserializer. ">
<polygon fill="none" stroke="black" points="482.5,-802.5 482.5,-821.5 597.5,-821.5 597.5,-802.5 482.5,-802.5"/>
<text text-anchor="middle" x="540" y="-809.5" font-family="FreeSans" font-size="10.00">Urho3D::AbstractFile</text>
</a>
</g>
</g>
<!-- Node21&#45;&gt;Node1 -->
<g id="edge32" class="edge"><title>Node21&#45;&gt;Node1</title>
<path fill="none" stroke="midnightblue" d="M607.627,-804.519C664.466,-798.137 744.039,-789.203 789.778,-784.067"/>
<polygon fill="midnightblue" stroke="midnightblue" points="607.195,-801.046 597.648,-805.64 607.976,-808.002 607.195,-801.046"/>
</g>
<!-- Node22 -->
<g id="node22" class="node"><title>Node22</title>
<g id="a_node22"><a xlink:href="class_urho3_d_1_1_deserializer.html" target="_top" xlink:title="Abstract stream for reading. ">
<polygon fill="none" stroke="black" points="188,-784.5 188,-803.5 304,-803.5 304,-784.5 188,-784.5"/>
<text text-anchor="middle" x="246" y="-791.5" font-family="FreeSans" font-size="10.00">Urho3D::Deserializer</text>
</a>
</g>
</g>
<!-- Node22&#45;&gt;Node21 -->
<g id="edge33" class="edge"><title>Node22&#45;&gt;Node21</title>
<path fill="none" stroke="midnightblue" d="M314.579,-798.166C365.419,-801.3 434.299,-805.546 482.287,-808.504"/>
<polygon fill="midnightblue" stroke="midnightblue" points="314.538,-794.657 304.341,-797.535 314.107,-801.643 314.538,-794.657"/>
</g>
<!-- Node23 -->
<g id="node23" class="node"><title>Node23</title>
<g id="a_node23"><a xlink:href="class_urho3_d_1_1_serializer.html" target="_top" xlink:title="Abstract stream for writing. ">
<polygon fill="none" stroke="black" points="194,-822.5 194,-841.5 298,-841.5 298,-822.5 194,-822.5"/>
<text text-anchor="middle" x="246" y="-829.5" font-family="FreeSans" font-size="10.00">Urho3D::Serializer</text>
</a>
</g>
</g>
<!-- Node23&#45;&gt;Node21 -->
<g id="edge34" class="edge"><title>Node23&#45;&gt;Node21</title>
<path fill="none" stroke="midnightblue" d="M308.49,-827.788C359.83,-824.272 432.432,-819.299 482.367,-815.879"/>
<polygon fill="midnightblue" stroke="midnightblue" points="307.934,-824.318 298.197,-828.493 308.412,-831.302 307.934,-824.318"/>
</g>
<!-- Node24&#45;&gt;Node1 -->
<g id="edge35" class="edge"><title>Node24&#45;&gt;Node1</title>
<path fill="none" stroke="#9a32cd" stroke-dasharray="5,2" d="M465.849,-763.479C560.66,-767.828 719.075,-775.095 789.885,-778.343"/>
<polygon fill="#9a32cd" stroke="#9a32cd" points="465.896,-759.978 455.746,-763.016 465.575,-766.971 465.896,-759.978"/>
<text text-anchor="middle" x="540" y="-784" font-family="FreeSans" font-size="10.00"> inputBuffer_</text>
<text text-anchor="middle" x="540" y="-773" font-family="FreeSans" font-size="10.00">readBuffer_</text>
</g>
<!-- Node25 -->
<g id="node25" class="node"><title>Node25</title>
<g id="a_node25"><a xlink:href="class_urho3_d_1_1_string.html" target="_top" xlink:title="String class. ">
<polygon fill="none" stroke="black" points="496,-840.5 496,-859.5 584,-859.5 584,-840.5 496,-840.5"/>
<text text-anchor="middle" x="540" y="-847.5" font-family="FreeSans" font-size="10.00">Urho3D::String</text>
</a>
</g>
</g>
<!-- Node25&#45;&gt;Node1 -->
<g id="edge37" class="edge"><title>Node25&#45;&gt;Node1</title>
<path fill="none" stroke="#9a32cd" stroke-dasharray="5,2" d="M589.541,-838.078C646.237,-824.152 738.731,-801.434 789.607,-788.939"/>
<polygon fill="#9a32cd" stroke="#9a32cd" points="588.609,-834.702 579.733,-840.487 590.279,-841.5 588.609,-834.702"/>
<text text-anchor="middle" x="653" y="-833" font-family="FreeSans" font-size="10.00"> fileName_</text>
</g>
<!-- Node25&#45;&gt;Node25 -->
<g id="edge38" class="edge"><title>Node25&#45;&gt;Node25</title>
<path fill="none" stroke="#9a32cd" stroke-dasharray="5,2" d="M519.26,-869.4C520.645,-874.315 527.559,-878 540,-878 559.906,-878 565.66,-868.565 557.262,-859.757"/>
<polygon fill="#9a32cd" stroke="#9a32cd" points="522.638,-870.351 522.738,-859.757 516.053,-867.977 522.638,-870.351"/>
<text text-anchor="middle" x="540" y="-881" font-family="FreeSans" font-size="10.00"> EMPTY</text>
</g>
</g>
</svg>
        <g id="navigator" transform="translate(0 0)" fill="#404254">
                <rect fill="#f2f5e9" fill-opacity="0.5" stroke="#606060" stroke-width=".5" x="0" y="0" width="60" height="60"/>
                <use id="zoomplus" xlink:href="#zoomPlus" x="17" y="9" onmousedown="handleZoom(evt,'in')"/>
                <use id="zoomminus" xlink:href="#zoomMin" x="42" y="9" onmousedown="handleZoom(evt,'out')"/>
                <use id="reset" xlink:href="#resetDef" x="30" y="36" onmousedown="handleReset()"/>
                <g id="arrowUp" xlink:href="#dirArrow" transform="translate(30 24)" onmousedown="handlePan(0,-1)">
                  <use xlink:href="#rim" fill="#404040">
                        <set attributeName="fill" to="#808080" begin="arrowUp.mouseover" end="arrowUp.mouseout"/>
                  </use>
                  <path fill="none" stroke="white" stroke-width="1.5" d="M0,-3.0v7 M-2.5,-0.5L0,-3.0L2.5,-0.5"/>
                </g>
                <g id="arrowRight" xlink:href="#dirArrow" transform="rotate(90) translate(36 -43)" onmousedown="handlePan(1,0)">
                  <use xlink:href="#rim" fill="#404040">
                        <set attributeName="fill" to="#808080" begin="arrowRight.mouseover" end="arrowRight.mouseout"/>
                  </use>
                  <path fill="none" stroke="white" stroke-width="1.5" d="M0,-3.0v7 M-2.5,-0.5L0,-3.0L2.5,-0.5"/>
                </g>
                <g id="arrowDown" xlink:href="#dirArrow" transform="rotate(180) translate(-30 -48)" onmousedown="handlePan(0,1)">
                  <use xlink:href="#rim" fill="#404040">
                        <set attributeName="fill" to="#808080" begin="arrowDown.mouseover" end="arrowDown.mouseout"/>
                  </use>
                  <path fill="none" stroke="white" stroke-width="1.5" d="M0,-3.0v7 M-2.5,-0.5L0,-3.0L2.5,-0.5"/>
                </g>
                <g id="arrowLeft" xlink:href="#dirArrow" transform="rotate(270) translate(-36 17)" onmousedown="handlePan(-1,0)">
                  <use xlink:href="#rim" fill="#404040">
                        <set attributeName="fill" to="#808080" begin="arrowLeft.mouseover" end="arrowLeft.mouseout"/>
                  </use>
                  <path fill="none" stroke="white" stroke-width="1.5" d="M0,-3.0v7 M-2.5,-0.5L0,-3.0L2.5,-0.5"/>
                </g>
        </g>
        <svg viewBox="0 0 15 15" width="100%" height="30px" preserveAspectRatio="xMaxYMin meet">
         <g id="arrow_out" transform="scale(0.3 0.3)">
          <a xlink:href="class_urho3_d_1_1_file__coll__graph_org.svg" target="_base">
           <rect id="button" ry="5" rx="5" y="6" x="6" height="38" width="38"
                fill="#f2f5e9" fill-opacity="0.5" stroke="#606060" stroke-width="1.0"/>
           <path id="arrow"
             d="M 11.500037,31.436501 C 11.940474,20.09759 22.043105,11.32322 32.158766,21.979434 L 37.068811,17.246167 C 37.068811,17.246167 37.088388,32 37.088388,32 L 22.160133,31.978069 C 22.160133,31.978069 26.997745,27.140456 26.997745,27.140456 C 18.528582,18.264221 13.291696,25.230495 11.500037,31.436501 z"
             style="fill:#404040;"/>
          </a>
         </g>
        </svg>
</svg>
