<?xml version="1.0" encoding="UTF-8" standalone="no"?>
<!DOCTYPE svg PUBLIC "-//W3C//DTD SVG 1.1//EN"
 "http://www.w3.org/Graphics/SVG/1.1/DTD/svg11.dtd">
<!-- Generated by graphviz version 2.40.1 (20161225.0304)
 -->
<!-- Title: Urho3D::BorderImage Pages: 1 -->
<svg width="1310pt" height="294pt"
 viewBox="0.00 0.00 1310.00 294.00" xmlns="http://www.w3.org/2000/svg" xmlns:xlink="http://www.w3.org/1999/xlink">
<g id="graph0" class="graph" transform="scale(1 1) rotate(0) translate(4 290)">
<title>Urho3D::BorderImage</title>
<!-- Node0 -->
<g id="node1" class="node">
<title>Node0</title>
<polygon fill="#bfbfbf" stroke="#000000" points="729,-133.5 729,-152.5 851,-152.5 851,-133.5 729,-133.5"/>
<text text-anchor="middle" x="790" y="-140.5" font-family="Helvetica,sans-Serif" font-size="10.00" fill="#000000">Urho3D::BorderImage</text>
</g>
<!-- Node6 -->
<g id="node7" class="node">
<title>Node6</title>
<g id="a_node7"><a xlink:href="class_urho3_d_1_1_button.html" target="_top" xlink:title="Push button UI element. ">
<polygon fill="none" stroke="#000000" points="900,-266.5 900,-285.5 992,-285.5 992,-266.5 900,-266.5"/>
<text text-anchor="middle" x="946" y="-273.5" font-family="Helvetica,sans-Serif" font-size="10.00" fill="#000000">Urho3D::Button</text>
</a>
</g>
</g>
<!-- Node0&#45;&gt;Node6 -->
<g id="edge6" class="edge">
<title>Node0&#45;&gt;Node6</title>
<path fill="none" stroke="#191970" d="M800.7518,-161.0499C816.579,-186.1177 848.4798,-231.2827 887,-257 892.7279,-260.8241 899.2793,-263.9236 905.8845,-266.4219"/>
<polygon fill="#191970" stroke="#191970" points="803.7163,-159.1889 795.4926,-152.5089 797.7557,-162.8592 803.7163,-159.1889"/>
</g>
<!-- Node9 -->
<g id="node10" class="node">
<title>Node9</title>
<g id="a_node10"><a xlink:href="class_urho3_d_1_1_check_box.html" target="_top" xlink:title="UI element that can be toggled between unchecked and checked state. ">
<polygon fill="none" stroke="#000000" points="892,-228.5 892,-247.5 1000,-247.5 1000,-228.5 892,-228.5"/>
<text text-anchor="middle" x="946" y="-235.5" font-family="Helvetica,sans-Serif" font-size="10.00" fill="#000000">Urho3D::CheckBox</text>
</a>
</g>
</g>
<!-- Node0&#45;&gt;Node9 -->
<g id="edge9" class="edge">
<title>Node0&#45;&gt;Node9</title>
<path fill="none" stroke="#191970" d="M807.2407,-159.6345C825.6674,-176.6231 856.3846,-202.7457 887,-219 893.9384,-222.6837 901.7172,-225.8115 909.293,-228.4009"/>
<polygon fill="#191970" stroke="#191970" points="809.5953,-157.0443 799.9079,-152.7541 804.8055,-162.1491 809.5953,-157.0443"/>
</g>
<!-- Node10 -->
<g id="node11" class="node">
<title>Node10</title>
<g id="a_node11"><a xlink:href="class_urho3_d_1_1_cursor.html" target="_top" xlink:title="Mouse cursor UI element. ">
<polygon fill="none" stroke="#000000" points="900.5,-190.5 900.5,-209.5 991.5,-209.5 991.5,-190.5 900.5,-190.5"/>
<text text-anchor="middle" x="946" y="-197.5" font-family="Helvetica,sans-Serif" font-size="10.00" fill="#000000">Urho3D::Cursor</text>
</a>
</g>
</g>
<!-- Node0&#45;&gt;Node10 -->
<g id="edge10" class="edge">
<title>Node0&#45;&gt;Node10</title>
<path fill="none" stroke="#191970" d="M822.8968,-156.4714C841.5871,-163.9778 865.4832,-173.3291 887,-181 896.1226,-184.2523 906.123,-187.5661 915.2566,-190.4963"/>
<polygon fill="#191970" stroke="#191970" points="823.9511,-153.1225 813.368,-152.6233 821.3299,-159.6133 823.9511,-153.1225"/>
</g>
<!-- Node11 -->
<g id="node12" class="node">
<title>Node11</title>
<g id="a_node12"><a xlink:href="class_urho3_d_1_1_line_edit.html" target="_top" xlink:title="Single&#45;line text editor UI element. ">
<polygon fill="none" stroke="#000000" points="897,-152.5 897,-171.5 995,-171.5 995,-152.5 897,-152.5"/>
<text text-anchor="middle" x="946" y="-159.5" font-family="Helvetica,sans-Serif" font-size="10.00" fill="#000000">Urho3D::LineEdit</text>
</a>
</g>
</g>
<!-- Node0&#45;&gt;Node11 -->
<g id="edge11" class="edge">
<title>Node0&#45;&gt;Node11</title>
<path fill="none" stroke="#191970" d="M861.1671,-151.6678C873.1135,-153.1228 885.2753,-154.604 896.5201,-155.9736"/>
<polygon fill="#191970" stroke="#191970" points="861.5574,-148.1895 851.2076,-150.4548 860.7111,-155.1382 861.5574,-148.1895"/>
</g>
<!-- Node12 -->
<g id="node13" class="node">
<title>Node12</title>
<g id="a_node13"><a xlink:href="class_urho3_d_1_1_progress_bar.html" target="_top" xlink:title="ProgressBar bar UI element. ">
<polygon fill="none" stroke="#000000" points="887,-114.5 887,-133.5 1005,-133.5 1005,-114.5 887,-114.5"/>
<text text-anchor="middle" x="946" y="-121.5" font-family="Helvetica,sans-Serif" font-size="10.00" fill="#000000">Urho3D::ProgressBar</text>
</a>
</g>
</g>
<!-- Node0&#45;&gt;Node12 -->
<g id="edge12" class="edge">
<title>Node0&#45;&gt;Node12</title>
<path fill="none" stroke="#191970" d="M861.1752,-134.3312C869.7305,-133.2892 878.3962,-132.2338 886.7563,-131.2156"/>
<polygon fill="#191970" stroke="#191970" points="860.7111,-130.8618 851.2076,-135.5452 861.5574,-137.8105 860.7111,-130.8618"/>
</g>
<!-- Node13 -->
<g id="node14" class="node">
<title>Node13</title>
<g id="a_node14"><a xlink:href="class_urho3_d_1_1_scroll_bar.html" target="_top" xlink:title="Scroll bar UI element with forward and back buttons. ">
<polygon fill="none" stroke="#000000" points="894.5,-76.5 894.5,-95.5 997.5,-95.5 997.5,-76.5 894.5,-76.5"/>
<text text-anchor="middle" x="946" y="-83.5" font-family="Helvetica,sans-Serif" font-size="10.00" fill="#000000">Urho3D::ScrollBar</text>
</a>
</g>
</g>
<!-- Node0&#45;&gt;Node13 -->
<g id="edge13" class="edge">
<title>Node0&#45;&gt;Node13</title>
<path fill="none" stroke="#191970" d="M822.8968,-129.5286C841.5871,-122.0222 865.4832,-112.6709 887,-105 896.1226,-101.7477 906.123,-98.4339 915.2566,-95.5037"/>
<polygon fill="#191970" stroke="#191970" points="821.3299,-126.3867 813.368,-133.3767 823.9511,-132.8775 821.3299,-126.3867"/>
</g>
<!-- Node14 -->
<g id="node15" class="node">
<title>Node14</title>
<g id="a_node15"><a xlink:href="class_urho3_d_1_1_slider.html" target="_top" xlink:title="Slider bar UI element. ">
<polygon fill="none" stroke="#000000" points="902.5,-38.5 902.5,-57.5 989.5,-57.5 989.5,-38.5 902.5,-38.5"/>
<text text-anchor="middle" x="946" y="-45.5" font-family="Helvetica,sans-Serif" font-size="10.00" fill="#000000">Urho3D::Slider</text>
</a>
</g>
</g>
<!-- Node0&#45;&gt;Node14 -->
<g id="edge14" class="edge">
<title>Node0&#45;&gt;Node14</title>
<path fill="none" stroke="#191970" d="M807.2407,-126.3655C825.6674,-109.3769 856.3846,-83.2543 887,-67 893.9384,-63.3163 901.7172,-60.1885 909.293,-57.5991"/>
<polygon fill="#191970" stroke="#191970" points="804.8055,-123.8509 799.9079,-133.2459 809.5953,-128.9557 804.8055,-123.8509"/>
</g>
<!-- Node15 -->
<g id="node16" class="node">
<title>Node15</title>
<g id="a_node16"><a xlink:href="class_urho3_d_1_1_window.html" target="_top" xlink:title="Window UI element that can optionally by moved or resized. ">
<polygon fill="none" stroke="#000000" points="897,-.5 897,-19.5 995,-19.5 995,-.5 897,-.5"/>
<text text-anchor="middle" x="946" y="-7.5" font-family="Helvetica,sans-Serif" font-size="10.00" fill="#000000">Urho3D::Window</text>
</a>
</g>
</g>
<!-- Node0&#45;&gt;Node15 -->
<g id="edge15" class="edge">
<title>Node0&#45;&gt;Node15</title>
<path fill="none" stroke="#191970" d="M800.7518,-124.9501C816.579,-99.8823 848.4798,-54.7173 887,-29 892.7279,-25.1759 899.2793,-22.0764 905.8845,-19.5781"/>
<polygon fill="#191970" stroke="#191970" points="797.7557,-123.1408 795.4926,-133.4911 803.7163,-126.8111 797.7557,-123.1408"/>
</g>
<!-- Node1 -->
<g id="node2" class="node">
<title>Node1</title>
<g id="a_node2"><a xlink:href="class_urho3_d_1_1_u_i_element.html" target="_top" xlink:title="Base class for UI elements. ">
<polygon fill="none" stroke="#000000" points="583,-133.5 583,-152.5 693,-152.5 693,-133.5 583,-133.5"/>
<text text-anchor="middle" x="638" y="-140.5" font-family="Helvetica,sans-Serif" font-size="10.00" fill="#000000">Urho3D::UIElement</text>
</a>
</g>
</g>
<!-- Node1&#45;&gt;Node0 -->
<g id="edge1" class="edge">
<title>Node1&#45;&gt;Node0</title>
<path fill="none" stroke="#191970" d="M703.4608,-143C711.8813,-143 720.4778,-143 728.826,-143"/>
<polygon fill="#191970" stroke="#191970" points="703.3055,-139.5001 693.3055,-143 703.3054,-146.5001 703.3055,-139.5001"/>
</g>
<!-- Node2 -->
<g id="node3" class="node">
<title>Node2</title>
<g id="a_node3"><a xlink:href="class_urho3_d_1_1_animatable.html" target="_top" xlink:title="Base class for animatable object, an animatable object can be set animation on it&#39;s attributes...">
<polygon fill="none" stroke="#000000" points="431,-133.5 431,-152.5 547,-152.5 547,-133.5 431,-133.5"/>
<text text-anchor="middle" x="489" y="-140.5" font-family="Helvetica,sans-Serif" font-size="10.00" fill="#000000">Urho3D::Animatable</text>
</a>
</g>
</g>
<!-- Node2&#45;&gt;Node1 -->
<g id="edge2" class="edge">
<title>Node2&#45;&gt;Node1</title>
<path fill="none" stroke="#191970" d="M557.071,-143C565.69,-143 574.4247,-143 582.809,-143"/>
<polygon fill="#191970" stroke="#191970" points="557.034,-139.5001 547.0339,-143 557.0339,-146.5001 557.034,-139.5001"/>
</g>
<!-- Node3 -->
<g id="node4" class="node">
<title>Node3</title>
<g id="a_node4"><a xlink:href="class_urho3_d_1_1_serializable.html" target="_top" xlink:title="Base class for objects with automatic serialization through attributes. ">
<polygon fill="none" stroke="#000000" points="279,-133.5 279,-152.5 395,-152.5 395,-133.5 279,-133.5"/>
<text text-anchor="middle" x="337" y="-140.5" font-family="Helvetica,sans-Serif" font-size="10.00" fill="#000000">Urho3D::Serializable</text>
</a>
</g>
</g>
<!-- Node3&#45;&gt;Node2 -->
<g id="edge3" class="edge">
<title>Node3&#45;&gt;Node2</title>
<path fill="none" stroke="#191970" d="M405.5423,-143C413.9862,-143 422.5541,-143 430.8236,-143"/>
<polygon fill="#191970" stroke="#191970" points="405.3325,-139.5001 395.3325,-143 405.3324,-146.5001 405.3325,-139.5001"/>
</g>
<!-- Node4 -->
<g id="node5" class="node">
<title>Node4</title>
<g id="a_node5"><a xlink:href="class_urho3_d_1_1_object.html" target="_top" xlink:title="Base class for objects with type identification, subsystem access and event sending/receiving capabil...">
<polygon fill="none" stroke="#000000" points="152,-133.5 152,-152.5 243,-152.5 243,-133.5 152,-133.5"/>
<text text-anchor="middle" x="197.5" y="-140.5" font-family="Helvetica,sans-Serif" font-size="10.00" fill="#000000">Urho3D::Object</text>
</a>
</g>
</g>
<!-- Node4&#45;&gt;Node3 -->
<g id="edge4" class="edge">
<title>Node4&#45;&gt;Node3</title>
<path fill="none" stroke="#191970" d="M253.4435,-143C261.6905,-143 270.2056,-143 278.5026,-143"/>
<polygon fill="#191970" stroke="#191970" points="253.1776,-139.5001 243.1775,-143 253.1775,-146.5001 253.1776,-139.5001"/>
</g>
<!-- Node5 -->
<g id="node6" class="node">
<title>Node5</title>
<g id="a_node6"><a xlink:href="class_urho3_d_1_1_ref_counted.html" target="_top" xlink:title="Base class for intrusively reference&#45;counted objects. These are noncopyable and non&#45;assignable. ">
<polygon fill="none" stroke="#000000" points="0,-133.5 0,-152.5 116,-152.5 116,-133.5 0,-133.5"/>
<text text-anchor="middle" x="58" y="-140.5" font-family="Helvetica,sans-Serif" font-size="10.00" fill="#000000">Urho3D::RefCounted</text>
</a>
</g>
</g>
<!-- Node5&#45;&gt;Node4 -->
<g id="edge5" class="edge">
<title>Node5&#45;&gt;Node4</title>
<path fill="none" stroke="#191970" d="M126.3805,-143C134.9604,-143 143.568,-143 151.6836,-143"/>
<polygon fill="#191970" stroke="#191970" points="126.3523,-139.5001 116.3523,-143 126.3522,-146.5001 126.3523,-139.5001"/>
</g>
<!-- Node7 -->
<g id="node8" class="node">
<title>Node7</title>
<g id="a_node8"><a xlink:href="class_urho3_d_1_1_menu.html" target="_top" xlink:title="Menu UI element that optionally shows a popup. ">
<polygon fill="none" stroke="#000000" points="1046.5,-266.5 1046.5,-285.5 1132.5,-285.5 1132.5,-266.5 1046.5,-266.5"/>
<text text-anchor="middle" x="1089.5" y="-273.5" font-family="Helvetica,sans-Serif" font-size="10.00" fill="#000000">Urho3D::Menu</text>
</a>
</g>
</g>
<!-- Node6&#45;&gt;Node7 -->
<g id="edge7" class="edge">
<title>Node6&#45;&gt;Node7</title>
<path fill="none" stroke="#191970" d="M1002.5985,-276C1017.1483,-276 1032.5692,-276 1046.3176,-276"/>
<polygon fill="#191970" stroke="#191970" points="1002.1942,-272.5001 992.1942,-276 1002.1942,-279.5001 1002.1942,-272.5001"/>
</g>
<!-- Node8 -->
<g id="node9" class="node">
<title>Node8</title>
<g id="a_node9"><a xlink:href="class_urho3_d_1_1_drop_down_list.html" target="_top" xlink:title="Menu UI element that displays a popup list view. ">
<polygon fill="none" stroke="#000000" points="1174,-266.5 1174,-285.5 1302,-285.5 1302,-266.5 1174,-266.5"/>
<text text-anchor="middle" x="1238" y="-273.5" font-family="Helvetica,sans-Serif" font-size="10.00" fill="#000000">Urho3D::DropDownList</text>
</a>
</g>
</g>
<!-- Node7&#45;&gt;Node8 -->
<g id="edge8" class="edge">
<title>Node7&#45;&gt;Node8</title>
<path fill="none" stroke="#191970" d="M1143.0488,-276C1153.0561,-276 1163.6086,-276 1173.8963,-276"/>
<polygon fill="#191970" stroke="#191970" points="1142.8516,-272.5001 1132.8515,-276 1142.8515,-279.5001 1142.8516,-272.5001"/>
</g>
<!-- Node16 -->
<g id="node17" class="node">
<title>Node16</title>
<g id="a_node17"><a xlink:href="class_urho3_d_1_1_view3_d.html" target="_top" xlink:title="UI element which renders a 3D scene. ">
<polygon fill="none" stroke="#000000" points="1041,-.5 1041,-19.5 1138,-19.5 1138,-.5 1041,-.5"/>
<text text-anchor="middle" x="1089.5" y="-7.5" font-family="Helvetica,sans-Serif" font-size="10.00" fill="#000000">Urho3D::View3D</text>
</a>
</g>
</g>
<!-- Node15&#45;&gt;Node16 -->
<g id="edge16" class="edge">
<title>Node15&#45;&gt;Node16</title>
<path fill="none" stroke="#191970" d="M1005.5962,-10C1017.3863,-10 1029.6274,-10 1040.9956,-10"/>
<polygon fill="#191970" stroke="#191970" points="1005.3846,-6.5001 995.3846,-10 1005.3845,-13.5001 1005.3846,-6.5001"/>
</g>
</g>
</svg>
