<?xml version="1.0" encoding="UTF-8" standalone="no"?>
<!DOCTYPE svg PUBLIC "-//W3C//DTD SVG 1.1//EN"
 "http://www.w3.org/Graphics/SVG/1.1/DTD/svg11.dtd">
<!-- Generated by graphviz version 2.43.0 (0)
 -->
<!-- Title: Urho3D::AnimatedModel Pages: 1 -->
<!--zoomable 845 -->
<svg id="main" version="1.1" xmlns="http://www.w3.org/2000/svg" xmlns:xlink="http://www.w3.org/1999/xlink" xml:space="preserve" onload="init(evt)">
<style type="text/css"><![CDATA[
.edge:hover path { stroke: red; }
.edge:hover polygon { stroke: red; fill: red; }
]]></style>
<script type="text/javascript"><![CDATA[
var edges = document.getElementsByTagName('g');
if (edges && edges.length) {
  for (var i=0;i<edges.length;i++) {
    if (edges[i].id.substr(0,4)=='edge') {
      edges[i].setAttribute('class','edge');
    }
  }
}
]]></script>
        <defs>
                <circle id="rim" cx="0" cy="0" r="7"/>
                <circle id="rim2" cx="0" cy="0" r="3.5"/>
                <g id="zoomPlus">
                        <use xlink:href="#rim" fill="#404040">
                                <set attributeName="fill" to="#808080" begin="zoomplus.mouseover" end="zoomplus.mouseout"/>
                        </use>
                        <path d="M-4,0h8M0,-4v8" fill="none" stroke="white" stroke-width="1.5" pointer-events="none"/>
                </g>
                <g id="zoomMin">
                        <use xlink:href="#rim" fill="#404040">
                                <set attributeName="fill" to="#808080" begin="zoomminus.mouseover" end="zoomminus.mouseout"/>
                        </use>
                        <path d="M-4,0h8" fill="none" stroke="white" stroke-width="1.5" pointer-events="none"/>
                </g>
                <g id="dirArrow">
                        <path fill="none" stroke="white" stroke-width="1.5" d="M0,-3.0v7 M-2.5,-0.5L0,-3.0L2.5,-0.5"/>
                </g>
               <g id="resetDef">
                       <use xlink:href="#rim2" fill="#404040">
                               <set attributeName="fill" to="#808080" begin="reset.mouseover" end="reset.mouseout"/>
                       </use>
               </g>
        </defs>

<script type="text/javascript">
var viewWidth = 1445;
var viewHeight = 845;
var sectionId = 'dynsection-1';
</script>
<script xlink:href="svgpan.js"/>
<svg id="graph" class="graph">
<g id="viewport">
<title>Urho3D::AnimatedModel</title>
<!-- Node1 -->
<g id="node1" class="node">
<title>Node1</title>
<g id="a_node1"><a xlink:title="Animated model component.">
<polygon fill="#bfbfbf" stroke="black" points="1300,-300.1 1300,-319.1 1437,-319.1 1437,-300.1 1300,-300.1"/>
<text text-anchor="middle" x="1368.5" y="-307.1" font-family="Helvetica,sans-Serif" font-size="10.00">Urho3D::AnimatedModel</text>
</a>
</g>
</g>
<!-- Node2 -->
<g id="node2" class="node">
<title>Node2</title>
<g id="a_node2"><a xlink:href="class_urho3_d_1_1_static_model.html" target="_top" xlink:title="Static model component.">
<polygon fill="none" stroke="black" points="986.5,-545.1 986.5,-564.1 1103.5,-564.1 1103.5,-545.1 986.5,-545.1"/>
<text text-anchor="middle" x="1045" y="-552.1" font-family="Helvetica,sans-Serif" font-size="10.00">Urho3D::StaticModel</text>
</a>
</g>
</g>
<!-- Node2&#45;&gt;Node1 -->
<g id="edge1" class="edge">
<title>Node2&#45;&gt;Node1</title>
<path fill="none" stroke="midnightblue" d="M1102.46,-542.48C1154.09,-529.03 1230.1,-502.97 1282,-457.6 1328.24,-417.16 1355.6,-345.35 1364.38,-319.34"/>
<polygon fill="midnightblue" stroke="midnightblue" points="1101.31,-539.16 1092.47,-545.01 1103.02,-545.95 1101.31,-539.16"/>
</g>
<!-- Node3 -->
<g id="node3" class="node">
<title>Node3</title>
<g id="a_node3"><a xlink:href="class_urho3_d_1_1_drawable.html" target="_top" xlink:title="Base class for visible components.">
<polygon fill="none" stroke="red" points="578,-659.1 578,-678.1 684,-678.1 684,-659.1 578,-659.1"/>
<text text-anchor="middle" x="631" y="-666.1" font-family="Helvetica,sans-Serif" font-size="10.00">Urho3D::Drawable</text>
</a>
</g>
</g>
<!-- Node3&#45;&gt;Node2 -->
<g id="edge2" class="edge">
<title>Node3&#45;&gt;Node2</title>
<path fill="none" stroke="midnightblue" d="M694.21,-661.64C767.69,-652.94 885.24,-637.4 927,-622.6 967.75,-608.16 1010.36,-579.34 1031.11,-564.28"/>
<polygon fill="midnightblue" stroke="midnightblue" points="693.67,-658.18 684.14,-662.82 694.48,-665.13 693.67,-658.18"/>
</g>
<!-- Node99 -->
<g id="node5" class="node">
<title>Node99</title>
<g id="a_node5"><a xlink:href="class_urho3_d_1_1_zone.html" target="_top" xlink:title="Component that describes global rendering properties.">
<polygon fill="none" stroke="red" points="1003,-686.1 1003,-705.1 1087,-705.1 1087,-686.1 1003,-686.1"/>
<text text-anchor="middle" x="1045" y="-693.1" font-family="Helvetica,sans-Serif" font-size="10.00">Urho3D::Zone</text>
</a>
</g>
</g>
<!-- Node3&#45;&gt;Node99 -->
<g id="edge5" class="edge">
<title>Node3&#45;&gt;Node99</title>
<path fill="none" stroke="midnightblue" d="M694.22,-678.81C702.21,-679.88 710.29,-680.85 718,-681.6 820.2,-691.49 941.1,-694.39 1002.99,-695.24"/>
<polygon fill="midnightblue" stroke="midnightblue" points="694.58,-675.32 684.19,-677.4 693.61,-682.25 694.58,-675.32"/>
</g>
<!-- Node4 -->
<g id="node4" class="node">
<title>Node4</title>
<g id="a_node4"><a xlink:href="class_urho3_d_1_1_component.html" target="_top" xlink:title="Base class for components. Components can be created to scene nodes.">
<polygon fill="none" stroke="red" points="192,-641.1 192,-660.1 308,-660.1 308,-641.1 192,-641.1"/>
<text text-anchor="middle" x="250" y="-648.1" font-family="Helvetica,sans-Serif" font-size="10.00">Urho3D::Component</text>
</a>
</g>
</g>
<!-- Node4&#45;&gt;Node3 -->
<g id="edge3" class="edge">
<title>Node4&#45;&gt;Node3</title>
<path fill="none" stroke="midnightblue" d="M318.32,-653.79C392.55,-657.32 510.36,-662.91 577.88,-666.12"/>
<polygon fill="midnightblue" stroke="midnightblue" points="318.31,-650.29 308.15,-653.31 317.97,-657.28 318.31,-650.29"/>
</g>
<!-- Node99&#45;&gt;Node3 -->
<g id="edge4" class="edge">
<title>Node99&#45;&gt;Node3</title>
<path fill="none" stroke="#9a32cd" stroke-dasharray="5,2" d="M998.85,-683.7C977.27,-678.6 950.98,-673.21 927,-670.6 842.35,-661.36 743.24,-663.28 684.14,-665.76"/>
<polygon fill="#9a32cd" stroke="#9a32cd" points="998.18,-687.14 1008.72,-686.09 999.83,-680.34 998.18,-687.14"/>
<text text-anchor="middle" x="822.5" y="-673.6" font-family="Helvetica,sans-Serif" font-size="10.00"> zone_</text>
</g>
<!-- Node147 -->
<g id="node6" class="node">
<title>Node147</title>
<g id="a_node6"><a xlink:href="class_urho3_d_1_1_bounding_box.html" target="_top" xlink:title="Three&#45;dimensional axis&#45;aligned bounding box.">
<polygon fill="none" stroke="black" points="188,-711.1 188,-730.1 312,-730.1 312,-711.1 188,-711.1"/>
<text text-anchor="middle" x="250" y="-718.1" font-family="Helvetica,sans-Serif" font-size="10.00">Urho3D::BoundingBox</text>
</a>
</g>
</g>
<!-- Node147&#45;&gt;Node1 -->
<g id="edge31" class="edge">
<title>Node147&#45;&gt;Node1</title>
<path fill="none" stroke="#9a32cd" stroke-dasharray="5,2" d="M291.11,-733.03C423.49,-771.57 854.53,-877.02 1145,-714.6 1305.35,-624.93 1356.87,-371.61 1365.95,-319.17"/>
<polygon fill="#9a32cd" stroke="#9a32cd" points="291.97,-729.63 281.38,-730.16 289.99,-736.35 291.97,-729.63"/>
<text text-anchor="middle" x="822.5" y="-804.6" font-family="Helvetica,sans-Serif" font-size="10.00"> boneBoundingBox_</text>
</g>
<!-- Node147&#45;&gt;Node3 -->
<g id="edge11" class="edge">
<title>Node147&#45;&gt;Node3</title>
<path fill="none" stroke="#9a32cd" stroke-dasharray="5,2" d="M277.93,-706.51C294.5,-698.57 316.43,-689.32 337,-684.6 419.67,-665.63 518.75,-664.57 577.92,-666.14"/>
<polygon fill="#9a32cd" stroke="#9a32cd" points="276.27,-703.43 268.85,-710.99 279.37,-709.71 276.27,-703.43"/>
<text text-anchor="middle" x="440.5" y="-698.6" font-family="Helvetica,sans-Serif" font-size="10.00"> worldBoundingBox_</text>
<text text-anchor="middle" x="440.5" y="-687.6" font-family="Helvetica,sans-Serif" font-size="10.00">boundingBox_</text>
</g>
<!-- Node147&#45;&gt;Node99 -->
<g id="edge6" class="edge">
<title>Node147&#45;&gt;Node99</title>
<path fill="none" stroke="#9a32cd" stroke-dasharray="5,2" d="M322.12,-718.8C445.33,-715.62 706.45,-708.57 927,-700.6 952.19,-699.68 980.43,-698.48 1002.85,-697.49"/>
<polygon fill="#9a32cd" stroke="#9a32cd" points="321.97,-715.3 312.06,-719.06 322.15,-722.3 321.97,-715.3"/>
<text text-anchor="middle" x="631" y="-714.6" font-family="Helvetica,sans-Serif" font-size="10.00"> lastWorldBoundingBox_</text>
</g>
<!-- Node78 -->
<g id="node7" class="node">
<title>Node78</title>
<g id="a_node7"><a xlink:href="class_urho3_d_1_1_vector3.html" target="_top" xlink:title="Three&#45;dimensional vector.">
<polygon fill="none" stroke="black" points="9,-711.1 9,-730.1 105,-730.1 105,-711.1 9,-711.1"/>
<text text-anchor="middle" x="57" y="-718.1" font-family="Helvetica,sans-Serif" font-size="10.00">Urho3D::Vector3</text>
</a>
</g>
</g>
<!-- Node78&#45;&gt;Node147 -->
<g id="edge7" class="edge">
<title>Node78&#45;&gt;Node147</title>
<path fill="none" stroke="#9a32cd" stroke-dasharray="5,2" d="M115.45,-720.6C138.32,-720.6 164.68,-720.6 187.9,-720.6"/>
<polygon fill="#9a32cd" stroke="#9a32cd" points="115.21,-717.1 105.21,-720.6 115.21,-724.1 115.21,-717.1"/>
<text text-anchor="middle" x="147.5" y="-734.6" font-family="Helvetica,sans-Serif" font-size="10.00"> max_</text>
<text text-anchor="middle" x="147.5" y="-723.6" font-family="Helvetica,sans-Serif" font-size="10.00">min_</text>
</g>
<!-- Node78&#45;&gt;Node78 -->
<g id="edge8" class="edge">
<title>Node78&#45;&gt;Node78</title>
<path fill="none" stroke="#9a32cd" stroke-dasharray="5,2" d="M40.33,-740C41.45,-744.91 47,-748.6 57,-748.6 73,-748.6 77.62,-739.16 70.87,-730.35"/>
<polygon fill="#9a32cd" stroke="#9a32cd" points="43.71,-740.93 43.13,-730.35 36.98,-738.98 43.71,-740.93"/>
<text text-anchor="middle" x="57" y="-828.6" font-family="Helvetica,sans-Serif" font-size="10.00"> ONE</text>
<text text-anchor="middle" x="57" y="-817.6" font-family="Helvetica,sans-Serif" font-size="10.00">DOWN</text>
<text text-anchor="middle" x="57" y="-806.6" font-family="Helvetica,sans-Serif" font-size="10.00">BACK</text>
<text text-anchor="middle" x="57" y="-795.6" font-family="Helvetica,sans-Serif" font-size="10.00">RIGHT</text>
<text text-anchor="middle" x="57" y="-784.6" font-family="Helvetica,sans-Serif" font-size="10.00">LEFT</text>
<text text-anchor="middle" x="57" y="-773.6" font-family="Helvetica,sans-Serif" font-size="10.00">ZERO</text>
<text text-anchor="middle" x="57" y="-762.6" font-family="Helvetica,sans-Serif" font-size="10.00">FORWARD</text>
<text text-anchor="middle" x="57" y="-751.6" font-family="Helvetica,sans-Serif" font-size="10.00">UP</text>
</g>
<!-- Node148 -->
<g id="node8" class="node">
<title>Node148</title>
<g id="a_node8"><a xlink:href="class_urho3_d_1_1_p_o_d_vector.html" target="_top" xlink:title=" ">
<polygon fill="none" stroke="black" points="190.5,-591.6 190.5,-621.6 309.5,-621.6 309.5,-591.6 190.5,-591.6"/>
<text text-anchor="start" x="198.5" y="-609.6" font-family="Helvetica,sans-Serif" font-size="10.00">Urho3D::PODVector&lt;</text>
<text text-anchor="middle" x="250" y="-598.6" font-family="Helvetica,sans-Serif" font-size="10.00"> Urho3D::Light * &gt;</text>
</a>
</g>
</g>
<!-- Node148&#45;&gt;Node3 -->
<g id="edge9" class="edge">
<title>Node148&#45;&gt;Node3</title>
<path fill="none" stroke="#9a32cd" stroke-dasharray="5,2" d="M319.77,-598.22C381.51,-593.76 473.08,-594.89 544,-628.6 554.51,-633.59 552.12,-641.46 562,-647.6 569.66,-652.36 578.48,-656.11 587.18,-659.04"/>
<polygon fill="#9a32cd" stroke="#9a32cd" points="319.44,-594.74 309.74,-599.02 319.99,-601.72 319.44,-594.74"/>
<text text-anchor="middle" x="440.5" y="-642.6" font-family="Helvetica,sans-Serif" font-size="10.00"> vertexLights_</text>
<text text-anchor="middle" x="440.5" y="-631.6" font-family="Helvetica,sans-Serif" font-size="10.00">lights_</text>
</g>
<!-- Node18 -->
<g id="node9" class="node">
<title>Node18</title>
<g id="a_node9"><a xlink:href="class_urho3_d_1_1_vector_base.html" target="_top" xlink:title="Vector base class.">
<polygon fill="none" stroke="black" points="0,-312.1 0,-331.1 114,-331.1 114,-312.1 0,-312.1"/>
<text text-anchor="middle" x="57" y="-319.1" font-family="Helvetica,sans-Serif" font-size="10.00">Urho3D::VectorBase</text>
</a>
</g>
</g>
<!-- Node18&#45;&gt;Node148 -->
<g id="edge10" class="edge">
<title>Node18&#45;&gt;Node148</title>
<path fill="none" stroke="midnightblue" d="M59.86,-341.27C64.7,-382.76 81.11,-480.44 132,-541.6 151.17,-564.64 180.73,-580.96 205.34,-591.49"/>
<polygon fill="midnightblue" stroke="midnightblue" points="63.32,-340.7 58.78,-331.13 56.35,-341.44 63.32,-340.7"/>
</g>
<!-- Node179 -->
<g id="node12" class="node">
<title>Node179</title>
<g id="a_node12"><a xlink:href="class_urho3_d_1_1_vector.html" target="_top" xlink:title=" ">
<polygon fill="none" stroke="black" points="363,-471.1 363,-512.1 518,-512.1 518,-471.1 363,-471.1"/>
<text text-anchor="start" x="371" y="-500.1" font-family="Helvetica,sans-Serif" font-size="10.00">Urho3D::Vector&lt; Urho3D</text>
<text text-anchor="start" x="371" y="-489.1" font-family="Helvetica,sans-Serif" font-size="10.00">::Vector&lt; Urho3D::SharedPtr</text>
<text text-anchor="middle" x="440.5" y="-478.1" font-family="Helvetica,sans-Serif" font-size="10.00">&lt; Urho3D::Geometry &gt; &gt; &gt;</text>
</a>
</g>
</g>
<!-- Node18&#45;&gt;Node179 -->
<g id="edge15" class="edge">
<title>Node18&#45;&gt;Node179</title>
<path fill="none" stroke="midnightblue" d="M62.31,-341.56C70.2,-372.79 90.15,-432.51 132,-460.6 200.06,-506.26 296.38,-508.47 363,-502.82"/>
<polygon fill="midnightblue" stroke="midnightblue" points="65.63,-340.39 59.93,-331.46 58.82,-341.99 65.63,-340.39"/>
</g>
<!-- Node184 -->
<g id="node13" class="node">
<title>Node184</title>
<g id="a_node13"><a xlink:href="class_urho3_d_1_1_p_o_d_vector.html" target="_top" xlink:title=" ">
<polygon fill="none" stroke="black" points="356,-537.1 356,-578.1 525,-578.1 525,-537.1 356,-537.1"/>
<text text-anchor="start" x="364" y="-566.1" font-family="Helvetica,sans-Serif" font-size="10.00">Urho3D::PODVector&lt;</text>
<text text-anchor="start" x="364" y="-555.1" font-family="Helvetica,sans-Serif" font-size="10.00"> Urho3D::StaticModelGeometry</text>
<text text-anchor="middle" x="440.5" y="-544.1" font-family="Helvetica,sans-Serif" font-size="10.00">Data &gt;</text>
</a>
</g>
</g>
<!-- Node18&#45;&gt;Node184 -->
<g id="edge17" class="edge">
<title>Node18&#45;&gt;Node184</title>
<path fill="none" stroke="midnightblue" d="M62.55,-340.91C71.14,-373.75 92.52,-441.03 132,-483.6 188.57,-544.59 285.88,-559.31 355.9,-561.16"/>
<polygon fill="midnightblue" stroke="midnightblue" points="65.94,-340.03 60.12,-331.18 59.15,-341.73 65.94,-340.03"/>
</g>
<!-- Node185 -->
<g id="node14" class="node">
<title>Node185</title>
<g id="a_node14"><a xlink:href="class_urho3_d_1_1_vector.html" target="_top" xlink:title=" ">
<polygon fill="none" stroke="black" points="735.5,-380.1 735.5,-421.1 909.5,-421.1 909.5,-380.1 735.5,-380.1"/>
<text text-anchor="start" x="743.5" y="-409.1" font-family="Helvetica,sans-Serif" font-size="10.00">Urho3D::Vector&lt; Urho3D</text>
<text text-anchor="start" x="743.5" y="-398.1" font-family="Helvetica,sans-Serif" font-size="10.00">::SharedPtr&lt; Urho3D::Animation</text>
<text text-anchor="middle" x="822.5" y="-387.1" font-family="Helvetica,sans-Serif" font-size="10.00">State &gt; &gt;</text>
</a>
</g>
</g>
<!-- Node18&#45;&gt;Node185 -->
<g id="edge19" class="edge">
<title>Node18&#45;&gt;Node185</title>
<path fill="none" stroke="midnightblue" d="M78.9,-337.1C102.36,-353.48 142.23,-378.33 181,-388.6 373.72,-439.61 610.58,-425.07 735.28,-411.76"/>
<polygon fill="midnightblue" stroke="midnightblue" points="80.93,-334.25 70.75,-331.29 76.86,-339.95 80.93,-334.25"/>
</g>
<!-- Node173 -->
<g id="node16" class="node">
<title>Node173</title>
<g id="a_node16"><a xlink:href="class_urho3_d_1_1_vector.html" target="_top" xlink:title=" ">
<polygon fill="none" stroke="black" points="181,-349.6 181,-379.6 319,-379.6 319,-349.6 181,-349.6"/>
<text text-anchor="start" x="189" y="-367.6" font-family="Helvetica,sans-Serif" font-size="10.00">Urho3D::Vector&lt; Urho3D</text>
<text text-anchor="middle" x="250" y="-356.6" font-family="Helvetica,sans-Serif" font-size="10.00">::Bone &gt;</text>
</a>
</g>
</g>
<!-- Node18&#45;&gt;Node173 -->
<g id="edge22" class="edge">
<title>Node18&#45;&gt;Node173</title>
<path fill="none" stroke="midnightblue" d="M110.3,-333.37C132.54,-338.38 158.74,-344.28 182.34,-349.59"/>
<polygon fill="midnightblue" stroke="midnightblue" points="110.91,-329.92 100.39,-331.14 109.38,-336.75 110.91,-329.92"/>
</g>
<!-- Node83 -->
<g id="node19" class="node">
<title>Node83</title>
<g id="a_node19"><a xlink:href="class_urho3_d_1_1_p_o_d_vector.html" target="_top" xlink:title=" ">
<polygon fill="none" stroke="black" points="190.5,-261.6 190.5,-291.6 309.5,-291.6 309.5,-261.6 190.5,-261.6"/>
<text text-anchor="start" x="198.5" y="-279.6" font-family="Helvetica,sans-Serif" font-size="10.00">Urho3D::PODVector&lt;</text>
<text text-anchor="middle" x="250" y="-268.6" font-family="Helvetica,sans-Serif" font-size="10.00"> unsigned char &gt;</text>
</a>
</g>
</g>
<!-- Node18&#45;&gt;Node83 -->
<g id="edge26" class="edge">
<title>Node18&#45;&gt;Node83</title>
<path fill="none" stroke="midnightblue" d="M108.57,-309.68C133.72,-303.76 164.26,-296.56 190.43,-290.4"/>
<polygon fill="midnightblue" stroke="midnightblue" points="107.44,-306.35 98.51,-312.05 109.04,-313.17 107.44,-306.35"/>
</g>
<!-- Node175 -->
<g id="node20" class="node">
<title>Node175</title>
<g id="a_node20"><a xlink:href="class_urho3_d_1_1_vector.html" target="_top" xlink:title=" ">
<polygon fill="none" stroke="black" points="746.5,-235.6 746.5,-265.6 898.5,-265.6 898.5,-235.6 746.5,-235.6"/>
<text text-anchor="start" x="754.5" y="-253.6" font-family="Helvetica,sans-Serif" font-size="10.00">Urho3D::Vector&lt; Urho3D</text>
<text text-anchor="middle" x="822.5" y="-242.6" font-family="Helvetica,sans-Serif" font-size="10.00">::PODVector&lt; unsigned &gt; &gt;</text>
</a>
</g>
</g>
<!-- Node18&#45;&gt;Node175 -->
<g id="edge28" class="edge">
<title>Node18&#45;&gt;Node175</title>
<path fill="none" stroke="midnightblue" d="M78.01,-305.82C101.23,-288.61 141.41,-262.1 181,-251.6 285.52,-223.85 600.94,-237.69 746.46,-245.94"/>
<polygon fill="midnightblue" stroke="midnightblue" points="75.83,-303.08 69.97,-311.91 80.06,-308.66 75.83,-303.08"/>
</g>
<!-- Node176 -->
<g id="node21" class="node">
<title>Node176</title>
<g id="a_node21"><a xlink:href="class_urho3_d_1_1_vector.html" target="_top" xlink:title=" ">
<polygon fill="none" stroke="black" points="337,-187.6 337,-217.6 544,-217.6 544,-187.6 337,-187.6"/>
<text text-anchor="start" x="345" y="-205.6" font-family="Helvetica,sans-Serif" font-size="10.00">Urho3D::Vector&lt; Urho3D</text>
<text text-anchor="middle" x="440.5" y="-194.6" font-family="Helvetica,sans-Serif" font-size="10.00">::SharedPtr&lt; Urho3D::VertexBuffer &gt; &gt;</text>
</a>
</g>
</g>
<!-- Node18&#45;&gt;Node176 -->
<g id="edge30" class="edge">
<title>Node18&#45;&gt;Node176</title>
<path fill="none" stroke="midnightblue" d="M65.38,-302.73C76.02,-278.42 98.18,-237.07 132,-218.6 198.39,-182.34 285.33,-181.27 349.82,-187.57"/>
<polygon fill="midnightblue" stroke="midnightblue" points="62.14,-301.42 61.53,-312 68.6,-304.11 62.14,-301.42"/>
</g>
<!-- Node186 -->
<g id="node22" class="node">
<title>Node186</title>
<g id="a_node22"><a xlink:href="class_urho3_d_1_1_vector.html" target="_top" xlink:title=" ">
<polygon fill="none" stroke="black" points="718,-147.6 718,-177.6 927,-177.6 927,-147.6 718,-147.6"/>
<text text-anchor="start" x="726" y="-165.6" font-family="Helvetica,sans-Serif" font-size="10.00">Urho3D::Vector&lt; Urho3D</text>
<text text-anchor="middle" x="822.5" y="-154.6" font-family="Helvetica,sans-Serif" font-size="10.00">::PODVector&lt; Urho3D::Matrix3x4 * &gt; &gt;</text>
</a>
</g>
</g>
<!-- Node18&#45;&gt;Node186 -->
<g id="edge33" class="edge">
<title>Node18&#45;&gt;Node186</title>
<path fill="none" stroke="midnightblue" d="M65.52,-302.46C76.55,-276.62 99.4,-230.6 132,-202.6 149.97,-187.16 157.86,-186.7 181,-181.6 366.76,-140.59 590.14,-145.89 717.99,-153.93"/>
<polygon fill="midnightblue" stroke="midnightblue" points="62.21,-301.31 61.64,-311.89 68.68,-303.97 62.21,-301.31"/>
</g>
<!-- Node187 -->
<g id="node23" class="node">
<title>Node187</title>
<g id="a_node23"><a xlink:href="class_urho3_d_1_1_vector.html" target="_top" xlink:title=" ">
<polygon fill="none" stroke="black" points="945,-103.6 945,-133.6 1145,-133.6 1145,-103.6 945,-103.6"/>
<text text-anchor="start" x="953" y="-121.6" font-family="Helvetica,sans-Serif" font-size="10.00">Urho3D::Vector&lt; Urho3D</text>
<text text-anchor="middle" x="1045" y="-110.6" font-family="Helvetica,sans-Serif" font-size="10.00">::PODVector&lt; Urho3D::Matrix3x4 &gt; &gt;</text>
</a>
</g>
</g>
<!-- Node18&#45;&gt;Node187 -->
<g id="edge35" class="edge">
<title>Node18&#45;&gt;Node187</title>
<path fill="none" stroke="midnightblue" d="M64.19,-302.17C74.3,-273.04 96.84,-217.71 132,-182.6 149.44,-165.17 157.32,-163.46 181,-156.6 321.52,-115.84 749.2,-115.13 944.65,-117.11"/>
<polygon fill="midnightblue" stroke="midnightblue" points="60.77,-301.37 60.92,-311.96 67.41,-303.58 60.77,-301.37"/>
</g>
<!-- Node181 -->
<g id="node24" class="node">
<title>Node181</title>
<g id="a_node24"><a xlink:href="class_urho3_d_1_1_vector.html" target="_top" xlink:title=" ">
<polygon fill="none" stroke="black" points="371.5,-61.6 371.5,-91.6 509.5,-91.6 509.5,-61.6 371.5,-61.6"/>
<text text-anchor="start" x="379.5" y="-79.6" font-family="Helvetica,sans-Serif" font-size="10.00">Urho3D::Vector&lt; Urho3D</text>
<text text-anchor="middle" x="440.5" y="-68.6" font-family="Helvetica,sans-Serif" font-size="10.00">::ModelMorph &gt;</text>
</a>
</g>
</g>
<!-- Node18&#45;&gt;Node181 -->
<g id="edge37" class="edge">
<title>Node18&#45;&gt;Node181</title>
<path fill="none" stroke="midnightblue" d="M58.11,-301.53C59.54,-257.74 69.68,-153.61 132,-104.6 199.63,-51.41 303.32,-53.9 371.28,-63.17"/>
<polygon fill="midnightblue" stroke="midnightblue" points="54.6,-301.67 57.9,-311.74 61.6,-301.81 54.6,-301.67"/>
</g>
<!-- Node188 -->
<g id="node25" class="node">
<title>Node188</title>
<g id="a_node25"><a xlink:href="class_urho3_d_1_1_p_o_d_vector.html" target="_top" xlink:title=" ">
<polygon fill="none" stroke="black" points="761,-429.6 761,-459.6 884,-459.6 884,-429.6 761,-429.6"/>
<text text-anchor="start" x="769" y="-447.6" font-family="Helvetica,sans-Serif" font-size="10.00">Urho3D::PODVector&lt;</text>
<text text-anchor="middle" x="822.5" y="-436.6" font-family="Helvetica,sans-Serif" font-size="10.00"> Urho3D::Matrix3x4 &gt;</text>
</a>
</g>
</g>
<!-- Node18&#45;&gt;Node188 -->
<g id="edge39" class="edge">
<title>Node18&#45;&gt;Node188</title>
<path fill="none" stroke="midnightblue" d="M72.8,-338.95C93.96,-362.15 135.36,-401.97 181,-415.6 386.32,-476.9 645.02,-462.41 760.72,-451.44"/>
<polygon fill="midnightblue" stroke="midnightblue" points="75.21,-336.38 65.96,-331.22 69.97,-341.03 75.21,-336.38"/>
</g>
<!-- Node169 -->
<g id="node10" class="node">
<title>Node169</title>
<g id="a_node10"><a xlink:href="struct_urho3_d_1_1_resource_ref_list.html" target="_top" xlink:title="List of typed resource references.">
<polygon fill="none" stroke="red" points="562,-475.1 562,-494.1 700,-494.1 700,-475.1 562,-475.1"/>
<text text-anchor="middle" x="631" y="-482.1" font-family="Helvetica,sans-Serif" font-size="10.00">Urho3D::ResourceRefList</text>
</a>
</g>
</g>
<!-- Node169&#45;&gt;Node2 -->
<g id="edge12" class="edge">
<title>Node169&#45;&gt;Node2</title>
<path fill="none" stroke="#9a32cd" stroke-dasharray="5,2" d="M710.19,-483.29C770.26,-483.94 854.88,-488.42 927,-505.6 963.85,-514.37 1004,-533.47 1026.38,-545.07"/>
<polygon fill="#9a32cd" stroke="#9a32cd" points="710.05,-479.79 700.02,-483.22 709.99,-486.79 710.05,-479.79"/>
<text text-anchor="middle" x="822.5" y="-508.6" font-family="Helvetica,sans-Serif" font-size="10.00"> materialsAttr_</text>
</g>
<!-- Node170 -->
<g id="node11" class="node">
<title>Node170</title>
<g id="a_node11"><a xlink:href="class_urho3_d_1_1_shared_ptr.html" target="_top" xlink:title=" ">
<polygon fill="none" stroke="red" points="573.5,-607.6 573.5,-637.6 688.5,-637.6 688.5,-607.6 573.5,-607.6"/>
<text text-anchor="start" x="581.5" y="-625.6" font-family="Helvetica,sans-Serif" font-size="10.00">Urho3D::SharedPtr&lt;</text>
<text text-anchor="middle" x="631" y="-614.6" font-family="Helvetica,sans-Serif" font-size="10.00"> Urho3D::Model &gt;</text>
</a>
</g>
</g>
<!-- Node170&#45;&gt;Node2 -->
<g id="edge13" class="edge">
<title>Node170&#45;&gt;Node2</title>
<path fill="none" stroke="#9a32cd" stroke-dasharray="5,2" d="M698.96,-613.91C705.39,-613.12 711.82,-612.33 718,-611.6 810.8,-600.56 835.34,-606.81 927,-588.6 957.91,-582.45 992.48,-571.94 1015.97,-564.23"/>
<polygon fill="#9a32cd" stroke="#9a32cd" points="698.37,-610.46 688.88,-615.18 699.24,-617.41 698.37,-610.46"/>
<text text-anchor="middle" x="822.5" y="-614.6" font-family="Helvetica,sans-Serif" font-size="10.00"> model_</text>
</g>
<!-- Node179&#45;&gt;Node2 -->
<g id="edge14" class="edge">
<title>Node179&#45;&gt;Node2</title>
<path fill="none" stroke="#9a32cd" stroke-dasharray="5,2" d="M528.4,-500.68C653.31,-513.74 880.21,-537.47 986.36,-548.57"/>
<polygon fill="#9a32cd" stroke="#9a32cd" points="528.42,-497.17 518.11,-499.61 527.69,-504.13 528.42,-497.17"/>
<text text-anchor="middle" x="631" y="-521.6" font-family="Helvetica,sans-Serif" font-size="10.00"> geometries_</text>
</g>
<!-- Node184&#45;&gt;Node2 -->
<g id="edge16" class="edge">
<title>Node184&#45;&gt;Node2</title>
<path fill="none" stroke="#9a32cd" stroke-dasharray="5,2" d="M535.31,-557.13C661.47,-556.5 881.96,-555.4 986.23,-554.88"/>
<polygon fill="#9a32cd" stroke="#9a32cd" points="535.26,-553.63 525.28,-557.18 535.29,-560.63 535.26,-553.63"/>
<text text-anchor="middle" x="631" y="-560.6" font-family="Helvetica,sans-Serif" font-size="10.00"> geometryData_</text>
</g>
<!-- Node185&#45;&gt;Node1 -->
<g id="edge18" class="edge">
<title>Node185&#45;&gt;Node1</title>
<path fill="none" stroke="#9a32cd" stroke-dasharray="5,2" d="M919.98,-401.22C1014.22,-399.41 1160.75,-390.06 1282,-353.6 1308.54,-345.61 1336.61,-329.48 1353.07,-319.13"/>
<polygon fill="#9a32cd" stroke="#9a32cd" points="919.83,-397.73 909.9,-401.39 919.95,-404.72 919.83,-397.73"/>
<text text-anchor="middle" x="1045" y="-403.6" font-family="Helvetica,sans-Serif" font-size="10.00"> animationStates_</text>
</g>
<!-- Node172 -->
<g id="node15" class="node">
<title>Node172</title>
<g id="a_node15"><a xlink:href="class_urho3_d_1_1_skeleton.html" target="_top" xlink:title="Hierarchical collection of bones.">
<polygon fill="none" stroke="black" points="994.5,-340.1 994.5,-359.1 1095.5,-359.1 1095.5,-340.1 994.5,-340.1"/>
<text text-anchor="middle" x="1045" y="-347.1" font-family="Helvetica,sans-Serif" font-size="10.00">Urho3D::Skeleton</text>
</a>
</g>
</g>
<!-- Node172&#45;&gt;Node1 -->
<g id="edge20" class="edge">
<title>Node172&#45;&gt;Node1</title>
<path fill="none" stroke="#9a32cd" stroke-dasharray="5,2" d="M1105.98,-343.87C1153.75,-339.09 1222.27,-331.77 1282,-323.6 1291.69,-322.27 1301.97,-320.71 1311.91,-319.13"/>
<polygon fill="#9a32cd" stroke="#9a32cd" points="1105.42,-340.4 1095.82,-344.88 1106.11,-347.37 1105.42,-340.4"/>
<text text-anchor="middle" x="1222.5" y="-341.6" font-family="Helvetica,sans-Serif" font-size="10.00"> skeleton_</text>
</g>
<!-- Node173&#45;&gt;Node172 -->
<g id="edge21" class="edge">
<title>Node173&#45;&gt;Node172</title>
<path fill="none" stroke="#9a32cd" stroke-dasharray="5,2" d="M329.69,-363.11C492.05,-360.04 860.18,-353.07 994.1,-350.54"/>
<polygon fill="#9a32cd" stroke="#9a32cd" points="329.23,-359.62 319.3,-363.3 329.36,-366.61 329.23,-359.62"/>
<text text-anchor="middle" x="631" y="-361.6" font-family="Helvetica,sans-Serif" font-size="10.00"> bones_</text>
</g>
<!-- Node82 -->
<g id="node17" class="node">
<title>Node82</title>
<g id="a_node17"><a xlink:href="class_urho3_d_1_1_vector_buffer.html" target="_top" xlink:title="Dynamically sized buffer that can be read and written to as a stream.">
<polygon fill="none" stroke="black" points="571.5,-300.1 571.5,-319.1 690.5,-319.1 690.5,-300.1 571.5,-300.1"/>
<text text-anchor="middle" x="631" y="-307.1" font-family="Helvetica,sans-Serif" font-size="10.00">Urho3D::VectorBuffer</text>
</a>
</g>
</g>
<!-- Node82&#45;&gt;Node1 -->
<g id="edge23" class="edge">
<title>Node82&#45;&gt;Node1</title>
<path fill="none" stroke="#9a32cd" stroke-dasharray="5,2" d="M700.85,-309.6C841.47,-309.6 1160.1,-309.6 1299.77,-309.6"/>
<polygon fill="#9a32cd" stroke="#9a32cd" points="700.64,-306.1 690.64,-309.6 700.64,-313.1 700.64,-306.1"/>
<text text-anchor="middle" x="1045" y="-312.6" font-family="Helvetica,sans-Serif" font-size="10.00"> attrBuffer_</text>
</g>
<!-- Node58 -->
<g id="node18" class="node">
<title>Node58</title>
<g id="a_node18"><a xlink:href="class_urho3_d_1_1_abstract_file.html" target="_top" xlink:title="A common root class for objects that implement both Serializer and Deserializer.">
<polygon fill="none" stroke="red" points="191.5,-311.1 191.5,-330.1 308.5,-330.1 308.5,-311.1 191.5,-311.1"/>
<text text-anchor="middle" x="250" y="-318.1" font-family="Helvetica,sans-Serif" font-size="10.00">Urho3D::AbstractFile</text>
</a>
</g>
</g>
<!-- Node58&#45;&gt;Node82 -->
<g id="edge24" class="edge">
<title>Node58&#45;&gt;Node82</title>
<path fill="none" stroke="midnightblue" d="M318.86,-318.63C390.74,-316.54 503.07,-313.28 571.27,-311.3"/>
<polygon fill="midnightblue" stroke="midnightblue" points="318.46,-315.14 308.56,-318.92 318.66,-322.13 318.46,-315.14"/>
</g>
<!-- Node83&#45;&gt;Node82 -->
<g id="edge25" class="edge">
<title>Node83&#45;&gt;Node82</title>
<path fill="none" stroke="#9a32cd" stroke-dasharray="5,2" d="M319.77,-280.22C379.22,-283.66 467.41,-289.52 544,-297.6 552.85,-298.53 562.18,-299.67 571.31,-300.87"/>
<polygon fill="#9a32cd" stroke="#9a32cd" points="319.93,-276.72 309.75,-279.64 319.53,-283.71 319.93,-276.72"/>
<text text-anchor="middle" x="440.5" y="-300.6" font-family="Helvetica,sans-Serif" font-size="10.00"> buffer_</text>
</g>
<!-- Node175&#45;&gt;Node1 -->
<g id="edge27" class="edge">
<title>Node175&#45;&gt;Node1</title>
<path fill="none" stroke="#9a32cd" stroke-dasharray="5,2" d="M908.82,-256.16C973.69,-260.72 1065.08,-267.83 1145,-276.6 1206.11,-283.3 1221.22,-286.41 1282,-295.6 1291.22,-296.99 1300.99,-298.53 1310.5,-300.06"/>
<polygon fill="#9a32cd" stroke="#9a32cd" points="908.86,-252.66 898.65,-255.45 908.38,-259.64 908.86,-252.66"/>
<text text-anchor="middle" x="1045" y="-279.6" font-family="Helvetica,sans-Serif" font-size="10.00"> geometryBoneMappings_</text>
</g>
<!-- Node176&#45;&gt;Node1 -->
<g id="edge29" class="edge">
<title>Node176&#45;&gt;Node1</title>
<path fill="none" stroke="#9a32cd" stroke-dasharray="5,2" d="M554.37,-199.17C717.97,-197.15 1029.1,-204.42 1282,-275.6 1304.76,-282 1329.78,-292.36 1346.84,-299.97"/>
<polygon fill="#9a32cd" stroke="#9a32cd" points="554.24,-195.67 544.29,-199.31 554.33,-202.67 554.24,-195.67"/>
<text text-anchor="middle" x="822.5" y="-216.6" font-family="Helvetica,sans-Serif" font-size="10.00"> morphVertexBuffers_</text>
</g>
<!-- Node186&#45;&gt;Node1 -->
<g id="edge32" class="edge">
<title>Node186&#45;&gt;Node1</title>
<path fill="none" stroke="#9a32cd" stroke-dasharray="5,2" d="M937.22,-160.07C1053.46,-159.37 1224.82,-164.08 1282,-195.6 1325.98,-219.84 1353.97,-277.32 1363.68,-300.08"/>
<polygon fill="#9a32cd" stroke="#9a32cd" points="937.17,-156.57 927.2,-160.15 937.22,-163.57 937.17,-156.57"/>
<text text-anchor="middle" x="1045" y="-170.6" font-family="Helvetica,sans-Serif" font-size="10.00"> geometrySkinMatrixPtrs_</text>
</g>
<!-- Node187&#45;&gt;Node1 -->
<g id="edge34" class="edge">
<title>Node187&#45;&gt;Node1</title>
<path fill="none" stroke="#9a32cd" stroke-dasharray="5,2" d="M1155.35,-109.97C1198.09,-111.72 1245.5,-120.51 1282,-145.6 1337.84,-183.97 1359.71,-270.5 1365.68,-299.73"/>
<polygon fill="#9a32cd" stroke="#9a32cd" points="1155.27,-106.47 1145.17,-109.68 1155.07,-113.46 1155.27,-106.47"/>
<text text-anchor="middle" x="1222.5" y="-148.6" font-family="Helvetica,sans-Serif" font-size="10.00"> geometrySkinMatrices_</text>
</g>
<!-- Node181&#45;&gt;Node1 -->
<g id="edge36" class="edge">
<title>Node181&#45;&gt;Node1</title>
<path fill="none" stroke="#9a32cd" stroke-dasharray="5,2" d="M499,-58.8C646,-17.1 1040.88,70.48 1282,-107.6 1348.17,-156.46 1363.55,-266.67 1366.74,-299.92"/>
<polygon fill="#9a32cd" stroke="#9a32cd" points="497.91,-55.47 489.27,-61.59 499.85,-62.2 497.91,-55.47"/>
<text text-anchor="middle" x="822.5" y="-15.6" font-family="Helvetica,sans-Serif" font-size="10.00"> morphs_</text>
</g>
<!-- Node188&#45;&gt;Node1 -->
<g id="edge38" class="edge">
<title>Node188&#45;&gt;Node1</title>
<path fill="none" stroke="#9a32cd" stroke-dasharray="5,2" d="M894.24,-448.84C988.12,-451.47 1156.61,-445.54 1282,-381.6 1314.16,-365.2 1344.72,-334.62 1359.03,-319.12"/>
<polygon fill="#9a32cd" stroke="#9a32cd" points="894.11,-445.34 884.01,-448.51 893.89,-452.33 894.11,-445.34"/>
<text text-anchor="middle" x="1045" y="-452.6" font-family="Helvetica,sans-Serif" font-size="10.00"> skinMatrices_</text>
</g>
</g>
</svg>
        <g id="navigator" transform="translate(0 0)" fill="#404254">
                <rect fill="#f2f5e9" fill-opacity="0.5" stroke="#606060" stroke-width=".5" x="0" y="0" width="60" height="60"/>
                <use id="zoomplus" xlink:href="#zoomPlus" x="17" y="9" onmousedown="handleZoom(evt,'in')"/>
                <use id="zoomminus" xlink:href="#zoomMin" x="42" y="9" onmousedown="handleZoom(evt,'out')"/>
                <use id="reset" xlink:href="#resetDef" x="30" y="36" onmousedown="handleReset()"/>
                <g id="arrowUp" xlink:href="#dirArrow" transform="translate(30 24)" onmousedown="handlePan(0,-1)">
                  <use xlink:href="#rim" fill="#404040">
                        <set attributeName="fill" to="#808080" begin="arrowUp.mouseover" end="arrowUp.mouseout"/>
                  </use>
                  <path fill="none" stroke="white" stroke-width="1.5" d="M0,-3.0v7 M-2.5,-0.5L0,-3.0L2.5,-0.5"/>
                </g>
                <g id="arrowRight" xlink:href="#dirArrow" transform="rotate(90) translate(36 -43)" onmousedown="handlePan(1,0)">
                  <use xlink:href="#rim" fill="#404040">
                        <set attributeName="fill" to="#808080" begin="arrowRight.mouseover" end="arrowRight.mouseout"/>
                  </use>
                  <path fill="none" stroke="white" stroke-width="1.5" d="M0,-3.0v7 M-2.5,-0.5L0,-3.0L2.5,-0.5"/>
                </g>
                <g id="arrowDown" xlink:href="#dirArrow" transform="rotate(180) translate(-30 -48)" onmousedown="handlePan(0,1)">
                  <use xlink:href="#rim" fill="#404040">
                        <set attributeName="fill" to="#808080" begin="arrowDown.mouseover" end="arrowDown.mouseout"/>
                  </use>
                  <path fill="none" stroke="white" stroke-width="1.5" d="M0,-3.0v7 M-2.5,-0.5L0,-3.0L2.5,-0.5"/>
                </g>
                <g id="arrowLeft" xlink:href="#dirArrow" transform="rotate(270) translate(-36 17)" onmousedown="handlePan(-1,0)">
                  <use xlink:href="#rim" fill="#404040">
                        <set attributeName="fill" to="#808080" begin="arrowLeft.mouseover" end="arrowLeft.mouseout"/>
                  </use>
                  <path fill="none" stroke="white" stroke-width="1.5" d="M0,-3.0v7 M-2.5,-0.5L0,-3.0L2.5,-0.5"/>
                </g>
        </g>
        <svg viewBox="0 0 15 15" width="100%" height="30px" preserveAspectRatio="xMaxYMin meet">
         <g id="arrow_out" transform="scale(0.3 0.3)">
          <a xlink:href="class_urho3_d_1_1_animated_model__coll__graph_org.svg" target="_base">
           <rect id="button" ry="5" rx="5" y="6" x="6" height="38" width="38"
                fill="#f2f5e9" fill-opacity="0.5" stroke="#606060" stroke-width="1.0"/>
           <path id="arrow"
             d="M 11.500037,31.436501 C 11.940474,20.09759 22.043105,11.32322 32.158766,21.979434 L 37.068811,17.246167 C 37.068811,17.246167 37.088388,32 37.088388,32 L 22.160133,31.978069 C 22.160133,31.978069 26.997745,27.140456 26.997745,27.140456 C 18.528582,18.264221 13.291696,25.230495 11.500037,31.436501 z"
             style="fill:#404040;"/>
          </a>
         </g>
        </svg>
</svg>
