<?xml version="1.0" encoding="UTF-8" standalone="no"?>
<!DOCTYPE svg PUBLIC "-//W3C//DTD SVG 1.1//EN"
 "http://www.w3.org/Graphics/SVG/1.1/DTD/svg11.dtd">
<!-- Generated by graphviz version 2.36.0 (20140111.2315)
 -->
<!-- Title: Urho3D::Animation::CreateTrack Pages: 1 -->
<svg width="398pt" height="38pt"
 viewBox="0.00 0.00 398.00 38.00" xmlns="http://www.w3.org/2000/svg" xmlns:xlink="http://www.w3.org/1999/xlink">
<g id="graph0" class="graph" transform="scale(1 1) rotate(0) translate(4 34)">
<title>Urho3D::Animation::CreateTrack</title>
<!-- Node1 -->
<g id="node1" class="node"><title>Node1</title>
<polygon fill="#bfbfbf" stroke="black" points="0,-0 0,-30 106,-30 106,-0 0,-0"/>
<text text-anchor="start" x="8" y="-18" font-family="Helvetica,sans-Serif" font-size="10.00">Urho3D::Animation::</text>
<text text-anchor="middle" x="53" y="-7" font-family="Helvetica,sans-Serif" font-size="10.00">CreateTrack</text>
</g>
<!-- Node2 -->
<g id="node2" class="node"><title>Node2</title>
<g id="a_node2"><a xlink:href="class_urho3_d_1_1_animation.html#a85ea89da6cbc133a83ce8a4ceec6871d" target="_top" xlink:title="Return animation track by index. ">
<polygon fill="none" stroke="black" points="142,-0 142,-30 248,-30 248,-0 142,-0"/>
<text text-anchor="start" x="150" y="-18" font-family="Helvetica,sans-Serif" font-size="10.00">Urho3D::Animation::</text>
<text text-anchor="middle" x="195" y="-7" font-family="Helvetica,sans-Serif" font-size="10.00">GetTrack</text>
</a>
</g>
</g>
<!-- Node1&#45;&gt;Node2 -->
<g id="edge1" class="edge"><title>Node1&#45;&gt;Node2</title>
<path fill="none" stroke="midnightblue" d="M106.131,-15C114.421,-15 123.07,-15 131.568,-15"/>
<polygon fill="midnightblue" stroke="midnightblue" points="131.826,-18.5001 141.826,-15 131.826,-11.5001 131.826,-18.5001"/>
</g>
<!-- Node3 -->
<g id="node3" class="node"><title>Node3</title>
<g id="a_node3"><a xlink:href="class_urho3_d_1_1_animation.html#a0418971fada298aee7d56883ceb8275f" target="_top" xlink:title="Return number of animation tracks. ">
<polygon fill="none" stroke="black" points="284,-0 284,-30 390,-30 390,-0 284,-0"/>
<text text-anchor="start" x="292" y="-18" font-family="Helvetica,sans-Serif" font-size="10.00">Urho3D::Animation::</text>
<text text-anchor="middle" x="337" y="-7" font-family="Helvetica,sans-Serif" font-size="10.00">GetNumTracks</text>
</a>
</g>
</g>
<!-- Node2&#45;&gt;Node3 -->
<g id="edge2" class="edge"><title>Node2&#45;&gt;Node3</title>
<path fill="none" stroke="midnightblue" d="M248.131,-15C256.421,-15 265.07,-15 273.568,-15"/>
<polygon fill="midnightblue" stroke="midnightblue" points="273.826,-18.5001 283.826,-15 273.826,-11.5001 273.826,-18.5001"/>
</g>
</g>
</svg>
