<?xml version="1.0" encoding="UTF-8" standalone="no"?>
<!DOCTYPE svg PUBLIC "-//W3C//DTD SVG 1.1//EN"
 "http://www.w3.org/Graphics/SVG/1.1/DTD/svg11.dtd">
<!-- Generated by graphviz version 2.43.0 (0)
 -->
<!-- Title: Urho3D::Drawable::GetLightMask Pages: 1 -->
<svg width="578pt" height="154pt"
 viewBox="0.00 0.00 578.00 153.50" xmlns="http://www.w3.org/2000/svg" xmlns:xlink="http://www.w3.org/1999/xlink">
<g id="graph0" class="graph" transform="scale(1 1) rotate(0) translate(4 149.5)">
<title>Urho3D::Drawable::GetLightMask</title>
<!-- Node1 -->
<g id="node1" class="node">
<title>Node1</title>
<g id="a_node1"><a xlink:title=" ">
<polygon fill="#bfbfbf" stroke="black" points="391,-69 391,-88 570,-88 570,-69 391,-69"/>
<text text-anchor="middle" x="480.5" y="-76" font-family="Helvetica,sans-Serif" font-size="10.00">Urho3D::Drawable::GetLightMask</text>
</a>
</g>
</g>
<!-- Node2 -->
<g id="node2" class="node">
<title>Node2</title>
<g id="a_node2"><a xlink:href="class_urho3_d_1_1_view.html#a04f740f7e5b23875ca299b917f835059" target="_top" xlink:title="Return the drawable&#39;s light mask, considering also its zone.">
<polygon fill="none" stroke="black" points="195,-126 195,-145 351,-145 351,-126 195,-126"/>
<text text-anchor="middle" x="273" y="-133" font-family="Helvetica,sans-Serif" font-size="10.00">Urho3D::View::GetLightMask</text>
</a>
</g>
</g>
<!-- Node1&#45;&gt;Node2 -->
<g id="edge1" class="edge">
<title>Node1&#45;&gt;Node2</title>
<path fill="none" stroke="midnightblue" d="M435.33,-90.75C397.37,-101.28 343.37,-116.26 308.51,-125.93"/>
<polygon fill="midnightblue" stroke="midnightblue" points="436.4,-94.09 445.1,-88.04 434.53,-87.34 436.4,-94.09"/>
</g>
<!-- Node3 -->
<g id="node3" class="node">
<title>Node3</title>
<g id="a_node3"><a xlink:href="class_urho3_d_1_1_view.html#ad5d5472594f2048969af6ea296e843e5" target="_top" xlink:title="Set up a directional light shadow camera.">
<polygon fill="none" stroke="black" points="0,-101.5 0,-131.5 155,-131.5 155,-101.5 0,-101.5"/>
<text text-anchor="start" x="8" y="-119.5" font-family="Helvetica,sans-Serif" font-size="10.00">Urho3D::View::SetupDirLight</text>
<text text-anchor="middle" x="77.5" y="-108.5" font-family="Helvetica,sans-Serif" font-size="10.00">ShadowCamera</text>
</a>
</g>
</g>
<!-- Node1&#45;&gt;Node3 -->
<g id="edge5" class="edge">
<title>Node1&#45;&gt;Node3</title>
<path fill="none" stroke="midnightblue" d="M380.4,-87.89C310.81,-94.49 219.1,-103.18 155.09,-109.24"/>
<polygon fill="midnightblue" stroke="midnightblue" points="380.88,-91.36 390.51,-86.93 380.22,-84.39 380.88,-91.36"/>
</g>
<!-- Node4 -->
<g id="node4" class="node">
<title>Node4</title>
<g id="a_node4"><a xlink:href="class_urho3_d_1_1_view.html#a8386e461553bac5a6b4512b8a9712e79" target="_top" xlink:title="Query for lit geometries and shadow casters for a light.">
<polygon fill="none" stroke="black" points="198,-50 198,-69 348,-69 348,-50 198,-50"/>
<text text-anchor="middle" x="273" y="-57" font-family="Helvetica,sans-Serif" font-size="10.00">Urho3D::View::ProcessLight</text>
</a>
</g>
</g>
<!-- Node1&#45;&gt;Node4 -->
<g id="edge3" class="edge">
<title>Node1&#45;&gt;Node4</title>
<path fill="none" stroke="midnightblue" d="M380.81,-69.38C369.83,-68.36 358.78,-67.34 348.18,-66.36"/>
<polygon fill="midnightblue" stroke="midnightblue" points="380.58,-72.87 390.86,-70.3 381.22,-65.9 380.58,-72.87"/>
</g>
<!-- Node5 -->
<g id="node5" class="node">
<title>Node5</title>
<g id="a_node5"><a xlink:href="class_urho3_d_1_1_view.html#a7d398cea4906919b033f5fc86f67d764" target="_top" xlink:title="Process shadow casters&#39; visibilities and build their combined view&#45; or projection&#45;space bounding box.">
<polygon fill="none" stroke="black" points="191,-0.5 191,-30.5 355,-30.5 355,-0.5 191,-0.5"/>
<text text-anchor="start" x="199" y="-18.5" font-family="Helvetica,sans-Serif" font-size="10.00">Urho3D::View::ProcessShadow</text>
<text text-anchor="middle" x="273" y="-7.5" font-family="Helvetica,sans-Serif" font-size="10.00">Casters</text>
</a>
</g>
</g>
<!-- Node1&#45;&gt;Node5 -->
<g id="edge4" class="edge">
<title>Node1&#45;&gt;Node5</title>
<path fill="none" stroke="midnightblue" d="M438.45,-65.91C405.23,-55.73 358.35,-41.36 323.14,-30.57"/>
<polygon fill="midnightblue" stroke="midnightblue" points="437.7,-69.35 448.29,-68.93 439.75,-62.65 437.7,-69.35"/>
</g>
<!-- Node2&#45;&gt;Node3 -->
<g id="edge2" class="edge">
<title>Node2&#45;&gt;Node3</title>
<path fill="none" stroke="midnightblue" d="M184.78,-126.94C174.94,-125.97 164.96,-124.99 155.27,-124.04"/>
<polygon fill="midnightblue" stroke="midnightblue" points="184.67,-130.44 194.97,-127.94 185.36,-123.48 184.67,-130.44"/>
</g>
</g>
</svg>
