<?xml version="1.0" encoding="UTF-8" standalone="no"?>
<!DOCTYPE svg PUBLIC "-//W3C//DTD SVG 1.1//EN"
 "http://www.w3.org/Graphics/SVG/1.1/DTD/svg11.dtd">
<!-- Generated by graphviz version 2.43.0 (0)
 -->
<!-- Title: Urho3D::Drawable::SetOccludee Pages: 1 -->
<!--zoomable 186 -->
<svg id="main" version="1.1" xmlns="http://www.w3.org/2000/svg" xmlns:xlink="http://www.w3.org/1999/xlink" xml:space="preserve" onload="init(evt)">
<style type="text/css"><![CDATA[
.edge:hover path { stroke: red; }
.edge:hover polygon { stroke: red; fill: red; }
]]></style>
<script type="text/javascript"><![CDATA[
var edges = document.getElementsByTagName('g');
if (edges && edges.length) {
  for (var i=0;i<edges.length;i++) {
    if (edges[i].id.substr(0,4)=='edge') {
      edges[i].setAttribute('class','edge');
    }
  }
}
]]></script>
        <defs>
                <circle id="rim" cx="0" cy="0" r="7"/>
                <circle id="rim2" cx="0" cy="0" r="3.5"/>
                <g id="zoomPlus">
                        <use xlink:href="#rim" fill="#404040">
                                <set attributeName="fill" to="#808080" begin="zoomplus.mouseover" end="zoomplus.mouseout"/>
                        </use>
                        <path d="M-4,0h8M0,-4v8" fill="none" stroke="white" stroke-width="1.5" pointer-events="none"/>
                </g>
                <g id="zoomMin">
                        <use xlink:href="#rim" fill="#404040">
                                <set attributeName="fill" to="#808080" begin="zoomminus.mouseover" end="zoomminus.mouseout"/>
                        </use>
                        <path d="M-4,0h8" fill="none" stroke="white" stroke-width="1.5" pointer-events="none"/>
                </g>
                <g id="dirArrow">
                        <path fill="none" stroke="white" stroke-width="1.5" d="M0,-3.0v7 M-2.5,-0.5L0,-3.0L2.5,-0.5"/>
                </g>
               <g id="resetDef">
                       <use xlink:href="#rim2" fill="#404040">
                               <set attributeName="fill" to="#808080" begin="reset.mouseover" end="reset.mouseout"/>
                       </use>
               </g>
        </defs>

<script type="text/javascript">
var viewWidth = 779;
var viewHeight = 186;
var sectionId = 'dynsection-20';
</script>
<script xlink:href="svgpan.js"/>
<svg id="graph" class="graph">
<g id="viewport">
<title>Urho3D::Drawable::SetOccludee</title>
<!-- Node1 -->
<g id="node1" class="node">
<title>Node1</title>
<g id="a_node1"><a xlink:title=" ">
<polygon fill="#bfbfbf" stroke="black" points="0,-101 0,-120 173,-120 173,-101 0,-101"/>
<text text-anchor="middle" x="86.5" y="-108" font-family="Helvetica,sans-Serif" font-size="10.00">Urho3D::Drawable::SetOccludee</text>
</a>
</g>
</g>
<!-- Node2 -->
<g id="node2" class="node">
<title>Node2</title>
<g id="a_node2"><a xlink:href="class_urho3_d_1_1_octant.html#a360158ca482e5cd6fc8412e9510ed582" target="_top" xlink:title="Return octree root.">
<polygon fill="none" stroke="black" points="222.5,-145 222.5,-164 359.5,-164 359.5,-145 222.5,-145"/>
<text text-anchor="middle" x="291" y="-152" font-family="Helvetica,sans-Serif" font-size="10.00">Urho3D::Octant::GetRoot</text>
</a>
</g>
</g>
<!-- Node1&#45;&gt;Node2 -->
<g id="edge1" class="edge">
<title>Node1&#45;&gt;Node2</title>
<path fill="none" stroke="midnightblue" d="M131.44,-120.05C162.22,-126.74 203.54,-135.71 236.28,-142.83"/>
<polygon fill="midnightblue" stroke="midnightblue" points="235.63,-146.27 246.15,-144.97 237.12,-139.43 235.63,-146.27"/>
</g>
<!-- Node3 -->
<g id="node3" class="node">
<title>Node3</title>
<g id="a_node3"><a xlink:href="class_urho3_d_1_1_component.html#aaf87acb64001774c62f0784254f9b291" target="_top" xlink:title="Mark for attribute check on the next network update.">
<polygon fill="none" stroke="black" points="230,-95.5 230,-125.5 352,-125.5 352,-95.5 230,-95.5"/>
<text text-anchor="start" x="238" y="-113.5" font-family="Helvetica,sans-Serif" font-size="10.00">Urho3D::Component::</text>
<text text-anchor="middle" x="291" y="-102.5" font-family="Helvetica,sans-Serif" font-size="10.00">MarkNetworkUpdate</text>
</a>
</g>
</g>
<!-- Node1&#45;&gt;Node3 -->
<g id="edge2" class="edge">
<title>Node1&#45;&gt;Node3</title>
<path fill="none" stroke="midnightblue" d="M173.08,-110.5C188.61,-110.5 204.64,-110.5 219.66,-110.5"/>
<polygon fill="midnightblue" stroke="midnightblue" points="219.88,-114 229.88,-110.5 219.88,-107 219.88,-114"/>
</g>
<!-- Node9 -->
<g id="node9" class="node">
<title>Node9</title>
<g id="a_node9"><a xlink:href="class_urho3_d_1_1_octree.html#a578eb27fbff722b23eecfd03ef0e5571" target="_top" xlink:title="Mark drawable object as requiring an update and a reinsertion.">
<polygon fill="none" stroke="black" points="209,-55 209,-74 373,-74 373,-55 209,-55"/>
<text text-anchor="middle" x="291" y="-62" font-family="Helvetica,sans-Serif" font-size="10.00">Urho3D::Octree::QueueUpdate</text>
</a>
</g>
</g>
<!-- Node1&#45;&gt;Node9 -->
<g id="edge8" class="edge">
<title>Node1&#45;&gt;Node9</title>
<path fill="none" stroke="midnightblue" d="M129.46,-100.97C160.95,-93.81 204.27,-83.97 237.97,-76.32"/>
<polygon fill="midnightblue" stroke="midnightblue" points="239.12,-79.65 248.1,-74.02 237.57,-72.82 239.12,-79.65"/>
</g>
<!-- Node4 -->
<g id="node4" class="node">
<title>Node4</title>
<g id="a_node4"><a xlink:href="class_urho3_d_1_1_component.html#a2c22f727341671a0420934f249ffe059" target="_top" xlink:title="Return the scene the node belongs to.">
<polygon fill="none" stroke="black" points="428.5,-49.5 428.5,-79.5 550.5,-79.5 550.5,-49.5 428.5,-49.5"/>
<text text-anchor="start" x="436.5" y="-67.5" font-family="Helvetica,sans-Serif" font-size="10.00">Urho3D::Component::</text>
<text text-anchor="middle" x="489.5" y="-56.5" font-family="Helvetica,sans-Serif" font-size="10.00">GetScene</text>
</a>
</g>
</g>
<!-- Node3&#45;&gt;Node4 -->
<g id="edge3" class="edge">
<title>Node3&#45;&gt;Node4</title>
<path fill="none" stroke="midnightblue" d="M352.02,-96.45C372.97,-91.55 396.66,-86 418.36,-80.92"/>
<polygon fill="midnightblue" stroke="midnightblue" points="419.23,-84.31 428.17,-78.62 417.63,-77.5 419.23,-84.31"/>
</g>
<!-- Node6 -->
<g id="node6" class="node">
<title>Node6</title>
<g id="a_node6"><a xlink:href="class_urho3_d_1_1_component.html#a8f1388c232ca01b7c7328c761aae6e76" target="_top" xlink:title=" ">
<polygon fill="none" stroke="black" points="428.5,-147.5 428.5,-177.5 550.5,-177.5 550.5,-147.5 428.5,-147.5"/>
<text text-anchor="start" x="436.5" y="-165.5" font-family="Helvetica,sans-Serif" font-size="10.00">Urho3D::Component::</text>
<text text-anchor="middle" x="489.5" y="-154.5" font-family="Helvetica,sans-Serif" font-size="10.00">IsReplicated</text>
</a>
</g>
</g>
<!-- Node3&#45;&gt;Node6 -->
<g id="edge5" class="edge">
<title>Node3&#45;&gt;Node6</title>
<path fill="none" stroke="midnightblue" d="M348.84,-125.54C371.65,-131.58 398.1,-138.58 421.82,-144.85"/>
<polygon fill="midnightblue" stroke="midnightblue" points="421.23,-148.32 431.79,-147.49 423.02,-141.55 421.23,-148.32"/>
</g>
<!-- Node8 -->
<g id="node8" class="node">
<title>Node8</title>
<g id="a_node8"><a xlink:href="class_urho3_d_1_1_scene.html#a00b724dfff718639b9de12d71139499c" target="_top" xlink:title="Mark for attribute check on the next network update.">
<polygon fill="none" stroke="black" points="409,-98.5 409,-128.5 570,-128.5 570,-98.5 409,-98.5"/>
<text text-anchor="start" x="417" y="-116.5" font-family="Helvetica,sans-Serif" font-size="10.00">Urho3D::Scene::MarkNetwork</text>
<text text-anchor="middle" x="489.5" y="-105.5" font-family="Helvetica,sans-Serif" font-size="10.00">Update</text>
</a>
</g>
</g>
<!-- Node3&#45;&gt;Node8 -->
<g id="edge7" class="edge">
<title>Node3&#45;&gt;Node8</title>
<path fill="none" stroke="midnightblue" d="M352.02,-111.42C366.75,-111.64 382.82,-111.89 398.61,-112.13"/>
<polygon fill="midnightblue" stroke="midnightblue" points="398.87,-115.63 408.93,-112.29 398.98,-108.63 398.87,-115.63"/>
</g>
<!-- Node5 -->
<g id="node5" class="node">
<title>Node5</title>
<g id="a_node5"><a xlink:href="class_urho3_d_1_1_node.html#a9c57bc1539c33614c36f8a1453d62e9a" target="_top" xlink:title=" ">
<polygon fill="none" stroke="black" points="620,-55 620,-74 757,-74 757,-55 620,-55"/>
<text text-anchor="middle" x="688.5" y="-62" font-family="Helvetica,sans-Serif" font-size="10.00">Urho3D::Node::GetScene</text>
</a>
</g>
</g>
<!-- Node4&#45;&gt;Node5 -->
<g id="edge4" class="edge">
<title>Node4&#45;&gt;Node5</title>
<path fill="none" stroke="midnightblue" d="M550.68,-64.5C569.27,-64.5 590.03,-64.5 609.64,-64.5"/>
<polygon fill="midnightblue" stroke="midnightblue" points="609.78,-68 619.78,-64.5 609.78,-61 609.78,-68"/>
</g>
<!-- Node7 -->
<g id="node7" class="node">
<title>Node7</title>
<g id="a_node7"><a xlink:href="class_urho3_d_1_1_scene.html#a97fb1222bd2f38e6c1c433c0b7e54d40" target="_top" xlink:title="Return whether the specified id is a replicated id.">
<polygon fill="none" stroke="black" points="606,-153 606,-172 771,-172 771,-153 606,-153"/>
<text text-anchor="middle" x="688.5" y="-160" font-family="Helvetica,sans-Serif" font-size="10.00">Urho3D::Scene::IsReplicatedID</text>
</a>
</g>
</g>
<!-- Node6&#45;&gt;Node7 -->
<g id="edge6" class="edge">
<title>Node6&#45;&gt;Node7</title>
<path fill="none" stroke="midnightblue" d="M550.68,-162.5C564.97,-162.5 580.54,-162.5 595.89,-162.5"/>
<polygon fill="midnightblue" stroke="midnightblue" points="595.92,-166 605.92,-162.5 595.92,-159 595.92,-166"/>
</g>
<!-- Node9&#45;&gt;Node4 -->
<g id="edge9" class="edge">
<title>Node9&#45;&gt;Node4</title>
<path fill="none" stroke="midnightblue" d="M373.06,-64.5C387.95,-64.5 403.38,-64.5 417.93,-64.5"/>
<polygon fill="midnightblue" stroke="midnightblue" points="418.34,-68 428.34,-64.5 418.34,-61 418.34,-68"/>
</g>
<!-- Node10 -->
<g id="node10" class="node">
<title>Node10</title>
<g id="a_node10"><a xlink:href="class_urho3_d_1_1_scene.html#a5a3132086218d7b7e6d8f3ccd50f7249" target="_top" xlink:title="Return threaded update flag.">
<polygon fill="none" stroke="black" points="415,-0.5 415,-30.5 564,-30.5 564,-0.5 415,-0.5"/>
<text text-anchor="start" x="423" y="-18.5" font-family="Helvetica,sans-Serif" font-size="10.00">Urho3D::Scene::IsThreaded</text>
<text text-anchor="middle" x="489.5" y="-7.5" font-family="Helvetica,sans-Serif" font-size="10.00">Update</text>
</a>
</g>
</g>
<!-- Node9&#45;&gt;Node10 -->
<g id="edge10" class="edge">
<title>Node9&#45;&gt;Node10</title>
<path fill="none" stroke="midnightblue" d="M330.35,-54.94C355.34,-48.71 388.68,-40.39 418.31,-33"/>
<polygon fill="midnightblue" stroke="midnightblue" points="419.34,-36.35 428.2,-30.54 417.65,-29.56 419.34,-36.35"/>
</g>
</g>
</svg>
        <g id="navigator" transform="translate(0 0)" fill="#404254">
                <rect fill="#f2f5e9" fill-opacity="0.5" stroke="#606060" stroke-width=".5" x="0" y="0" width="60" height="60"/>
                <use id="zoomplus" xlink:href="#zoomPlus" x="17" y="9" onmousedown="handleZoom(evt,'in')"/>
                <use id="zoomminus" xlink:href="#zoomMin" x="42" y="9" onmousedown="handleZoom(evt,'out')"/>
                <use id="reset" xlink:href="#resetDef" x="30" y="36" onmousedown="handleReset()"/>
                <g id="arrowUp" xlink:href="#dirArrow" transform="translate(30 24)" onmousedown="handlePan(0,-1)">
                  <use xlink:href="#rim" fill="#404040">
                        <set attributeName="fill" to="#808080" begin="arrowUp.mouseover" end="arrowUp.mouseout"/>
                  </use>
                  <path fill="none" stroke="white" stroke-width="1.5" d="M0,-3.0v7 M-2.5,-0.5L0,-3.0L2.5,-0.5"/>
                </g>
                <g id="arrowRight" xlink:href="#dirArrow" transform="rotate(90) translate(36 -43)" onmousedown="handlePan(1,0)">
                  <use xlink:href="#rim" fill="#404040">
                        <set attributeName="fill" to="#808080" begin="arrowRight.mouseover" end="arrowRight.mouseout"/>
                  </use>
                  <path fill="none" stroke="white" stroke-width="1.5" d="M0,-3.0v7 M-2.5,-0.5L0,-3.0L2.5,-0.5"/>
                </g>
                <g id="arrowDown" xlink:href="#dirArrow" transform="rotate(180) translate(-30 -48)" onmousedown="handlePan(0,1)">
                  <use xlink:href="#rim" fill="#404040">
                        <set attributeName="fill" to="#808080" begin="arrowDown.mouseover" end="arrowDown.mouseout"/>
                  </use>
                  <path fill="none" stroke="white" stroke-width="1.5" d="M0,-3.0v7 M-2.5,-0.5L0,-3.0L2.5,-0.5"/>
                </g>
                <g id="arrowLeft" xlink:href="#dirArrow" transform="rotate(270) translate(-36 17)" onmousedown="handlePan(-1,0)">
                  <use xlink:href="#rim" fill="#404040">
                        <set attributeName="fill" to="#808080" begin="arrowLeft.mouseover" end="arrowLeft.mouseout"/>
                  </use>
                  <path fill="none" stroke="white" stroke-width="1.5" d="M0,-3.0v7 M-2.5,-0.5L0,-3.0L2.5,-0.5"/>
                </g>
        </g>
        <svg viewBox="0 0 15 15" width="100%" height="30px" preserveAspectRatio="xMaxYMin meet">
         <g id="arrow_out" transform="scale(0.3 0.3)">
          <a xlink:href="class_urho3_d_1_1_drawable_aa1e97bbb2427a3626a5b6816dfc888d6_cgraph_org.svg" target="_base">
           <rect id="button" ry="5" rx="5" y="6" x="6" height="38" width="38"
                fill="#f2f5e9" fill-opacity="0.5" stroke="#606060" stroke-width="1.0"/>
           <path id="arrow"
             d="M 11.500037,31.436501 C 11.940474,20.09759 22.043105,11.32322 32.158766,21.979434 L 37.068811,17.246167 C 37.068811,17.246167 37.088388,32 37.088388,32 L 22.160133,31.978069 C 22.160133,31.978069 26.997745,27.140456 26.997745,27.140456 C 18.528582,18.264221 13.291696,25.230495 11.500037,31.436501 z"
             style="fill:#404040;"/>
          </a>
         </g>
        </svg>
</svg>
