<?xml version="1.0" encoding="UTF-8" standalone="no"?>
<!DOCTYPE svg PUBLIC "-//W3C//DTD SVG 1.1//EN"
 "http://www.w3.org/Graphics/SVG/1.1/DTD/svg11.dtd">
<!-- Generated by graphviz version 2.36.0 (20140111.2315)
 -->
<!-- Title: Urho3D::AnimationSet2D Pages: 1 -->
<svg width="2158pt" height="659pt"
 viewBox="0.00 0.00 2158.00 659.00" xmlns="http://www.w3.org/2000/svg" xmlns:xlink="http://www.w3.org/1999/xlink">
<g id="graph0" class="graph" transform="scale(1 1) rotate(0) translate(4 655)">
<title>Urho3D::AnimationSet2D</title>
<!-- Node1 -->
<g id="node1" class="node"><title>Node1</title>
<polygon fill="#bfbfbf" stroke="black" points="2012,-454.5 2012,-473.5 2150,-473.5 2150,-454.5 2012,-454.5"/>
<text text-anchor="middle" x="2081" y="-461.5" font-family="FreeSans" font-size="10.00">Urho3D::AnimationSet2D</text>
</g>
<!-- Node2 -->
<g id="node2" class="node"><title>Node2</title>
<g id="a_node2"><a xlink:href="class_urho3_d_1_1_resource.html" target="_top" xlink:title="Base class for resources. ">
<polygon fill="none" stroke="black" points="681.5,-285.5 681.5,-304.5 784.5,-304.5 784.5,-285.5 681.5,-285.5"/>
<text text-anchor="middle" x="733" y="-292.5" font-family="FreeSans" font-size="10.00">Urho3D::Resource</text>
</a>
</g>
</g>
<!-- Node2&#45;&gt;Node1 -->
<g id="edge1" class="edge"><title>Node2&#45;&gt;Node1</title>
<path fill="none" stroke="midnightblue" d="M756.054,-310.5C771.268,-321.233 791.928,-335.892 810,-349 925.489,-432.766 925.331,-540 1068,-540 1068,-540 1068,-540 1883,-540 1955.95,-540 2034.53,-494.076 2065.9,-473.625"/>
<polygon fill="midnightblue" stroke="midnightblue" points="757.978,-307.573 747.787,-304.675 753.946,-313.296 757.978,-307.573"/>
</g>
<!-- Node11 -->
<g id="node11" class="node"><title>Node11</title>
<g id="a_node11"><a xlink:href="class_urho3_d_1_1_sprite2_d.html" target="_top" xlink:title="Sprite. ">
<polygon fill="none" stroke="black" points="1622.5,-248.5 1622.5,-267.5 1723.5,-267.5 1723.5,-248.5 1622.5,-248.5"/>
<text text-anchor="middle" x="1673" y="-255.5" font-family="FreeSans" font-size="10.00">Urho3D::Sprite2D</text>
</a>
</g>
</g>
<!-- Node2&#45;&gt;Node11 -->
<g id="edge14" class="edge"><title>Node2&#45;&gt;Node11</title>
<path fill="none" stroke="midnightblue" d="M774.746,-307.29C884.042,-338.441 1192.35,-414.347 1442,-361 1528.21,-342.577 1621.2,-289.343 1656.89,-267.512"/>
<polygon fill="midnightblue" stroke="midnightblue" points="775.677,-303.917 765.099,-304.509 773.738,-310.643 775.677,-303.917"/>
</g>
<!-- Node15 -->
<g id="node15" class="node"><title>Node15</title>
<g id="a_node15"><a xlink:href="class_urho3_d_1_1_sprite_sheet2_d.html" target="_top" xlink:title="Sprite sheet. ">
<polygon fill="none" stroke="red" points="1004,-154.5 1004,-173.5 1134,-173.5 1134,-154.5 1004,-154.5"/>
<text text-anchor="middle" x="1069" y="-161.5" font-family="FreeSans" font-size="10.00">Urho3D::SpriteSheet2D</text>
</a>
</g>
</g>
<!-- Node2&#45;&gt;Node15 -->
<g id="edge21" class="edge"><title>Node2&#45;&gt;Node15</title>
<path fill="none" stroke="midnightblue" d="M778.763,-282.646C829.898,-267.909 915.593,-241.296 986,-210 1010.31,-199.193 1036.91,-183.499 1053.02,-173.523"/>
<polygon fill="midnightblue" stroke="midnightblue" points="777.664,-279.32 769.011,-285.433 779.588,-286.05 777.664,-279.32"/>
</g>
<!-- Node3 -->
<g id="node3" class="node"><title>Node3</title>
<g id="a_node3"><a xlink:href="class_urho3_d_1_1_object.html" target="_top" xlink:title="Base class for objects with type identification, subsystem access and event sending/receiving capabil...">
<polygon fill="none" stroke="black" points="426,-196.5 426,-215.5 516,-215.5 516,-196.5 426,-196.5"/>
<text text-anchor="middle" x="471" y="-203.5" font-family="FreeSans" font-size="10.00">Urho3D::Object</text>
</a>
</g>
</g>
<!-- Node3&#45;&gt;Node2 -->
<g id="edge2" class="edge"><title>Node3&#45;&gt;Node2</title>
<path fill="none" stroke="midnightblue" d="M517.292,-218.309C550.892,-227.762 597.669,-241.601 638,-256 663.292,-265.03 691.689,-277.086 710.586,-285.391"/>
<polygon fill="midnightblue" stroke="midnightblue" points="517.882,-214.84 507.309,-215.521 515.999,-221.582 517.882,-214.84"/>
</g>
<!-- Node4 -->
<g id="node4" class="node"><title>Node4</title>
<g id="a_node4"><a xlink:href="class_urho3_d_1_1_ref_counted.html" target="_top" xlink:title="Base class for intrusively reference&#45;counted objects. These are noncopyable and non&#45;assignable. ">
<polygon fill="none" stroke="red" points="0,-218.5 0,-237.5 114,-237.5 114,-218.5 0,-218.5"/>
<text text-anchor="middle" x="57" y="-225.5" font-family="FreeSans" font-size="10.00">Urho3D::RefCounted</text>
</a>
</g>
</g>
<!-- Node4&#45;&gt;Node3 -->
<g id="edge3" class="edge"><title>Node4&#45;&gt;Node3</title>
<path fill="none" stroke="midnightblue" d="M124.354,-230.513C192.706,-232.192 302.196,-232.348 396,-221 406.801,-219.693 418.377,-217.657 429.09,-215.502"/>
<polygon fill="midnightblue" stroke="midnightblue" points="124.249,-227.009 114.16,-230.243 124.064,-234.006 124.249,-227.009"/>
</g>
<!-- Node5 -->
<g id="node5" class="node"><title>Node5</title>
<g id="a_node5"><a xlink:href="class_urho3_d_1_1_context.html" target="_top" xlink:title="Urho3D execution context. Provides access to subsystems, object factories and attributes, and event receivers. ">
<polygon fill="none" stroke="red" points="176.5,-196.5 176.5,-215.5 273.5,-215.5 273.5,-196.5 176.5,-196.5"/>
<text text-anchor="middle" x="225" y="-203.5" font-family="FreeSans" font-size="10.00">Urho3D::Context</text>
</a>
</g>
</g>
<!-- Node4&#45;&gt;Node5 -->
<g id="edge5" class="edge"><title>Node4&#45;&gt;Node5</title>
<path fill="none" stroke="midnightblue" d="M124.321,-219.211C141.753,-216.9 160.208,-214.454 176.438,-212.303"/>
<polygon fill="midnightblue" stroke="midnightblue" points="123.653,-215.768 114.2,-220.552 124.573,-222.708 123.653,-215.768"/>
</g>
<!-- Node5&#45;&gt;Node3 -->
<g id="edge4" class="edge"><title>Node5&#45;&gt;Node3</title>
<path fill="none" stroke="#9a32cd" stroke-dasharray="5,2" d="M283.774,-206C327.265,-206 385.99,-206 425.78,-206"/>
<polygon fill="#9a32cd" stroke="#9a32cd" points="283.625,-202.5 273.625,-206 283.625,-209.5 283.625,-202.5"/>
<text text-anchor="middle" x="356" y="-209" font-family="FreeSans" font-size="10.00"> context_</text>
</g>
<!-- Node6 -->
<g id="node6" class="node"><title>Node6</title>
<g id="a_node6"><a xlink:href="class_urho3_d_1_1_linked_list.html" target="_top" xlink:title="Urho3D::LinkedList\l\&lt; Urho3D::EventHandler \&gt;">
<polygon fill="none" stroke="red" points="152,-147 152,-177 298,-177 298,-147 152,-147"/>
<text text-anchor="start" x="160" y="-165" font-family="FreeSans" font-size="10.00">Urho3D::LinkedList</text>
<text text-anchor="middle" x="225" y="-154" font-family="FreeSans" font-size="10.00">&lt; Urho3D::EventHandler &gt;</text>
</a>
</g>
</g>
<!-- Node6&#45;&gt;Node3 -->
<g id="edge6" class="edge"><title>Node6&#45;&gt;Node3</title>
<path fill="none" stroke="#9a32cd" stroke-dasharray="5,2" d="M308.169,-175.488C336.079,-180.21 367.428,-185.668 396,-191 405.665,-192.803 416.018,-194.838 425.827,-196.813"/>
<polygon fill="#9a32cd" stroke="#9a32cd" points="308.495,-171.994 298.053,-173.783 307.332,-178.897 308.495,-171.994"/>
<text text-anchor="middle" x="356" y="-194" font-family="FreeSans" font-size="10.00"> eventHandlers_</text>
</g>
<!-- Node7 -->
<g id="node7" class="node"><title>Node7</title>
<g id="a_node7"><a xlink:href="class_urho3_d_1_1_timer.html" target="_top" xlink:title="Low&#45;resolution operating system timer. ">
<polygon fill="none" stroke="black" points="428,-301.5 428,-320.5 514,-320.5 514,-301.5 428,-301.5"/>
<text text-anchor="middle" x="471" y="-308.5" font-family="FreeSans" font-size="10.00">Urho3D::Timer</text>
</a>
</g>
</g>
<!-- Node7&#45;&gt;Node2 -->
<g id="edge7" class="edge"><title>Node7&#45;&gt;Node2</title>
<path fill="none" stroke="#9a32cd" stroke-dasharray="5,2" d="M521.765,-299.537C529.827,-298.078 538.115,-296.813 546,-296 591.613,-291.3 643.852,-291.506 681.333,-292.622"/>
<polygon fill="#9a32cd" stroke="#9a32cd" points="520.881,-296.143 511.722,-301.47 522.203,-303.017 520.881,-296.143"/>
<text text-anchor="middle" x="592" y="-299" font-family="FreeSans" font-size="10.00"> useTimer_</text>
</g>
<!-- Node8 -->
<g id="node8" class="node"><title>Node8</title>
<g id="a_node8"><a xlink:href="class_urho3_d_1_1_string.html" target="_top" xlink:title="String class. ">
<polygon fill="none" stroke="black" points="427,-460.5 427,-479.5 515,-479.5 515,-460.5 427,-460.5"/>
<text text-anchor="middle" x="471" y="-467.5" font-family="FreeSans" font-size="10.00">Urho3D::String</text>
</a>
</g>
</g>
<!-- Node8&#45;&gt;Node1 -->
<g id="edge35" class="edge"><title>Node8&#45;&gt;Node1</title>
<path fill="none" stroke="#9a32cd" stroke-dasharray="5,2" d="M491.853,-485.876C533.644,-517.641 634.864,-586 732,-586 732,-586 732,-586 1883,-586 1968.28,-586 2047.42,-502.333 2072.1,-473.573"/>
<polygon fill="#9a32cd" stroke="#9a32cd" points="493.911,-483.042 483.86,-479.691 489.627,-488.579 493.911,-483.042"/>
<text text-anchor="middle" x="1369" y="-589" font-family="FreeSans" font-size="10.00"> spriteSheetFilePath_</text>
</g>
<!-- Node8&#45;&gt;Node2 -->
<g id="edge8" class="edge"><title>Node8&#45;&gt;Node2</title>
<path fill="none" stroke="#9a32cd" stroke-dasharray="5,2" d="M476.557,-450.311C484.789,-419.44 505.204,-360.076 546,-330 556.844,-322.006 630.128,-309.89 681.401,-302.214"/>
<polygon fill="#9a32cd" stroke="#9a32cd" points="473.093,-449.737 474.061,-460.288 479.884,-451.436 473.093,-449.737"/>
<text text-anchor="middle" x="592" y="-333" font-family="FreeSans" font-size="10.00"> name_</text>
</g>
<!-- Node8&#45;&gt;Node8 -->
<g id="edge9" class="edge"><title>Node8&#45;&gt;Node8</title>
<path fill="none" stroke="#9a32cd" stroke-dasharray="5,2" d="M449.89,-489.4C451.3,-494.315 458.336,-498 471,-498 491.262,-498 497.119,-488.565 488.571,-479.757"/>
<polygon fill="#9a32cd" stroke="#9a32cd" points="453.269,-490.351 453.429,-479.757 446.698,-487.939 453.269,-490.351"/>
<text text-anchor="middle" x="471" y="-501" font-family="FreeSans" font-size="10.00"> EMPTY</text>
</g>
<!-- Node8&#45;&gt;Node15 -->
<g id="edge25" class="edge"><title>Node8&#45;&gt;Node15</title>
<path fill="none" stroke="#9a32cd" stroke-dasharray="5,2" d="M518.075,-457.769C612.213,-431.297 830.813,-362.133 986,-253 1019,-229.796 1048.62,-191.335 1061.37,-173.555"/>
<polygon fill="#9a32cd" stroke="#9a32cd" points="516.984,-454.439 508.289,-460.492 518.861,-461.183 516.984,-454.439"/>
<text text-anchor="middle" x="733" y="-416" font-family="FreeSans" font-size="10.00"> loadTextureName_</text>
</g>
<!-- Node25 -->
<g id="node25" class="node"><title>Node25</title>
<g id="a_node25"><a xlink:href="struct_urho3_d_1_1_spriter_1_1_spriter_data.html" target="_top" xlink:title="Spriter data. ">
<polygon fill="none" stroke="red" points="656.5,-618.5 656.5,-637.5 809.5,-637.5 809.5,-618.5 656.5,-618.5"/>
<text text-anchor="middle" x="733" y="-625.5" font-family="FreeSans" font-size="10.00">Urho3D::Spriter::SpriterData</text>
</a>
</g>
</g>
<!-- Node8&#45;&gt;Node25 -->
<g id="edge38" class="edge"><title>Node8&#45;&gt;Node25</title>
<path fill="none" stroke="#9a32cd" stroke-dasharray="5,2" d="M477.302,-489.538C486.264,-518.54 507.326,-572.41 546,-599 577.913,-620.942 620.135,-628.784 656.285,-630.878"/>
<polygon fill="#9a32cd" stroke="#9a32cd" points="480.607,-488.37 474.448,-479.749 473.887,-490.329 480.607,-488.37"/>
<text text-anchor="middle" x="592" y="-643" font-family="FreeSans" font-size="10.00"> generatorVersion_</text>
<text text-anchor="middle" x="592" y="-632" font-family="FreeSans" font-size="10.00">generator_</text>
</g>
<!-- Node9 -->
<g id="node9" class="node"><title>Node9</title>
<g id="a_node9"><a xlink:href="class_urho3_d_1_1_string_hash.html" target="_top" xlink:title="32&#45;bit hash value for a string. ">
<polygon fill="none" stroke="black" points="414.5,-234.5 414.5,-253.5 527.5,-253.5 527.5,-234.5 414.5,-234.5"/>
<text text-anchor="middle" x="471" y="-241.5" font-family="FreeSans" font-size="10.00">Urho3D::StringHash</text>
</a>
</g>
</g>
<!-- Node9&#45;&gt;Node2 -->
<g id="edge10" class="edge"><title>Node9&#45;&gt;Node2</title>
<path fill="none" stroke="#9a32cd" stroke-dasharray="5,2" d="M530.434,-255.462C576.458,-264.49 639.865,-276.927 683.199,-285.427"/>
<polygon fill="#9a32cd" stroke="#9a32cd" points="531.086,-252.023 520.599,-253.533 529.738,-258.892 531.086,-252.023"/>
<text text-anchor="middle" x="592" y="-279" font-family="FreeSans" font-size="10.00"> nameHash_</text>
</g>
<!-- Node9&#45;&gt;Node9 -->
<g id="edge11" class="edge"><title>Node9&#45;&gt;Node9</title>
<path fill="none" stroke="#9a32cd" stroke-dasharray="5,2" d="M449.89,-263.4C451.3,-268.315 458.336,-272 471,-272 491.262,-272 497.119,-262.565 488.571,-253.757"/>
<polygon fill="#9a32cd" stroke="#9a32cd" points="453.269,-264.351 453.429,-253.757 446.698,-261.939 453.269,-264.351"/>
<text text-anchor="middle" x="471" y="-275" font-family="FreeSans" font-size="10.00"> ZERO</text>
</g>
<!-- Node10 -->
<g id="node10" class="node"><title>Node10</title>
<g id="a_node10"><a xlink:href="class_urho3_d_1_1_shared_ptr.html" target="_top" xlink:title="Urho3D::SharedPtr\&lt;\l Urho3D::Sprite2D \&gt;">
<polygon fill="none" stroke="black" points="1824,-247 1824,-277 1940,-277 1940,-247 1824,-247"/>
<text text-anchor="start" x="1832" y="-265" font-family="FreeSans" font-size="10.00">Urho3D::SharedPtr&lt;</text>
<text text-anchor="middle" x="1882" y="-254" font-family="FreeSans" font-size="10.00"> Urho3D::Sprite2D &gt;</text>
</a>
</g>
</g>
<!-- Node10&#45;&gt;Node1 -->
<g id="edge12" class="edge"><title>Node10&#45;&gt;Node1</title>
<path fill="none" stroke="#9a32cd" stroke-dasharray="5,2" d="M1904.94,-284.492C1947.65,-328.294 2040.44,-423.436 2070.44,-454.195"/>
<polygon fill="#9a32cd" stroke="#9a32cd" points="1907.29,-281.898 1897.81,-277.183 1902.28,-286.786 1907.29,-281.898"/>
<text text-anchor="middle" x="1976" y="-379" font-family="FreeSans" font-size="10.00"> sprite_</text>
</g>
<!-- Node11&#45;&gt;Node10 -->
<g id="edge13" class="edge"><title>Node11&#45;&gt;Node10</title>
<path fill="none" stroke="#9a32cd" stroke-dasharray="5,2" d="M1733.76,-259.155C1762.08,-259.702 1795.77,-260.353 1823.76,-260.894"/>
<polygon fill="#9a32cd" stroke="#9a32cd" points="1733.65,-255.652 1723.58,-258.958 1733.51,-262.651 1733.65,-255.652"/>
<text text-anchor="middle" x="1774" y="-264" font-family="FreeSans" font-size="10.00"> ptr_</text>
</g>
<!-- Node12 -->
<g id="node12" class="node"><title>Node12</title>
<g id="a_node12"><a xlink:href="class_urho3_d_1_1_int_rect.html" target="_top" xlink:title="Two&#45;dimensional bounding rectangle with integer values. ">
<polygon fill="none" stroke="black" points="1323,-93.5 1323,-112.5 1415,-112.5 1415,-93.5 1323,-93.5"/>
<text text-anchor="middle" x="1369" y="-100.5" font-family="FreeSans" font-size="10.00">Urho3D::IntRect</text>
</a>
</g>
</g>
<!-- Node12&#45;&gt;Node11 -->
<g id="edge15" class="edge"><title>Node12&#45;&gt;Node11</title>
<path fill="none" stroke="#9a32cd" stroke-dasharray="5,2" d="M1425.43,-103.795C1476.01,-107.029 1550.77,-118.348 1604,-155 1638.94,-179.06 1660.51,-227.517 1668.49,-248.24"/>
<polygon fill="#9a32cd" stroke="#9a32cd" points="1425.51,-100.294 1415.33,-103.236 1425.12,-107.283 1425.51,-100.294"/>
<text text-anchor="middle" x="1532" y="-158" font-family="FreeSans" font-size="10.00"> rectangle_</text>
</g>
<!-- Node12&#45;&gt;Node12 -->
<g id="edge16" class="edge"><title>Node12&#45;&gt;Node12</title>
<path fill="none" stroke="#9a32cd" stroke-dasharray="5,2" d="M1340.25,-121.654C1341.46,-126.937 1351.04,-131 1369,-131 1396.37,-131 1404.28,-121.565 1392.74,-112.757"/>
<polygon fill="#9a32cd" stroke="#9a32cd" points="1343.41,-123.188 1345.26,-112.757 1337.31,-119.753 1343.41,-123.188"/>
<text text-anchor="middle" x="1369" y="-134" font-family="FreeSans" font-size="10.00"> ZERO</text>
</g>
<!-- Node13 -->
<g id="node13" class="node"><title>Node13</title>
<g id="a_node13"><a xlink:href="class_urho3_d_1_1_vector2.html" target="_top" xlink:title="Two&#45;dimensional vector. ">
<polygon fill="none" stroke="black" points="1321,-408.5 1321,-427.5 1417,-427.5 1417,-408.5 1321,-408.5"/>
<text text-anchor="middle" x="1369" y="-415.5" font-family="FreeSans" font-size="10.00">Urho3D::Vector2</text>
</a>
</g>
</g>
<!-- Node13&#45;&gt;Node11 -->
<g id="edge17" class="edge"><title>Node13&#45;&gt;Node11</title>
<path fill="none" stroke="#9a32cd" stroke-dasharray="5,2" d="M1427.3,-426.643C1478.19,-431.174 1552.3,-429.729 1604,-394 1648.95,-362.935 1665.67,-293.188 1670.42,-267.626"/>
<polygon fill="#9a32cd" stroke="#9a32cd" points="1427.43,-423.138 1417.13,-425.63 1426.73,-430.104 1427.43,-423.138"/>
<text text-anchor="middle" x="1532" y="-432" font-family="FreeSans" font-size="10.00"> hotSpot_</text>
</g>
<!-- Node13&#45;&gt;Node13 -->
<g id="edge18" class="edge"><title>Node13&#45;&gt;Node13</title>
<path fill="none" stroke="#9a32cd" stroke-dasharray="5,2" d="M1340.25,-436.654C1341.46,-441.937 1351.04,-446 1369,-446 1396.37,-446 1404.28,-436.565 1392.74,-427.757"/>
<polygon fill="#9a32cd" stroke="#9a32cd" points="1343.41,-438.188 1345.26,-427.757 1337.31,-434.753 1343.41,-438.188"/>
<text text-anchor="middle" x="1369" y="-504" font-family="FreeSans" font-size="10.00"> ONE</text>
<text text-anchor="middle" x="1369" y="-493" font-family="FreeSans" font-size="10.00">DOWN</text>
<text text-anchor="middle" x="1369" y="-482" font-family="FreeSans" font-size="10.00">RIGHT</text>
<text text-anchor="middle" x="1369" y="-471" font-family="FreeSans" font-size="10.00">LEFT</text>
<text text-anchor="middle" x="1369" y="-460" font-family="FreeSans" font-size="10.00">ZERO</text>
<text text-anchor="middle" x="1369" y="-449" font-family="FreeSans" font-size="10.00">UP</text>
</g>
<!-- Node14 -->
<g id="node14" class="node"><title>Node14</title>
<g id="a_node14"><a xlink:href="class_urho3_d_1_1_weak_ptr.html" target="_top" xlink:title="Urho3D::WeakPtr\&lt; Urho3D\l::SpriteSheet2D \&gt;">
<polygon fill="none" stroke="red" points="1296,-161 1296,-191 1442,-191 1442,-161 1296,-161"/>
<text text-anchor="start" x="1304" y="-179" font-family="FreeSans" font-size="10.00">Urho3D::WeakPtr&lt; Urho3D</text>
<text text-anchor="middle" x="1369" y="-168" font-family="FreeSans" font-size="10.00">::SpriteSheet2D &gt;</text>
</a>
</g>
</g>
<!-- Node14&#45;&gt;Node11 -->
<g id="edge19" class="edge"><title>Node14&#45;&gt;Node11</title>
<path fill="none" stroke="#9a32cd" stroke-dasharray="5,2" d="M1452.09,-169.746C1498.5,-169.319 1556.55,-174.143 1604,-195 1630.81,-206.786 1653.87,-233.656 1664.96,-248.205"/>
<polygon fill="#9a32cd" stroke="#9a32cd" points="1452.01,-166.247 1442.07,-169.92 1452.13,-173.246 1452.01,-166.247"/>
<text text-anchor="middle" x="1532" y="-198" font-family="FreeSans" font-size="10.00"> spriteSheet_</text>
</g>
<!-- Node15&#45;&gt;Node14 -->
<g id="edge20" class="edge"><title>Node15&#45;&gt;Node14</title>
<path fill="none" stroke="#9a32cd" stroke-dasharray="5,2" d="M1144.57,-167.003C1190.9,-168.868 1250.14,-171.254 1295.98,-173.1"/>
<polygon fill="#9a32cd" stroke="#9a32cd" points="1144.43,-163.494 1134.29,-166.589 1144.15,-170.489 1144.43,-163.494"/>
<text text-anchor="middle" x="1215" y="-176" font-family="FreeSans" font-size="10.00"> ptr_</text>
</g>
<!-- Node22 -->
<g id="node22" class="node"><title>Node22</title>
<g id="a_node22"><a xlink:href="class_urho3_d_1_1_shared_ptr.html" target="_top" xlink:title="Urho3D::SharedPtr\&lt;\l Urho3D::SpriteSheet2D \&gt;">
<polygon fill="none" stroke="black" points="1460,-57 1460,-87 1604,-87 1604,-57 1460,-57"/>
<text text-anchor="start" x="1468" y="-75" font-family="FreeSans" font-size="10.00">Urho3D::SharedPtr&lt;</text>
<text text-anchor="middle" x="1532" y="-64" font-family="FreeSans" font-size="10.00"> Urho3D::SpriteSheet2D &gt;</text>
</a>
</g>
</g>
<!-- Node15&#45;&gt;Node22 -->
<g id="edge32" class="edge"><title>Node15&#45;&gt;Node22</title>
<path fill="none" stroke="#9a32cd" stroke-dasharray="5,2" d="M1099.83,-150.296C1142.34,-131.499 1223.28,-98.4106 1296,-84 1350.3,-73.2406 1412.95,-70.5092 1459.91,-70.3217"/>
<polygon fill="#9a32cd" stroke="#9a32cd" points="1098.32,-147.137 1090.61,-154.412 1101.17,-153.528 1098.32,-147.137"/>
<text text-anchor="middle" x="1215" y="-131" font-family="FreeSans" font-size="10.00"> ptr_</text>
</g>
<!-- Node16 -->
<g id="node16" class="node"><title>Node16</title>
<g id="a_node16"><a xlink:href="class_urho3_d_1_1_hash_map.html" target="_top" xlink:title="Urho3D::HashMap\&lt; Urho3D\l::String, Urho3D::SharedPtr\l\&lt; Urho3D::Sprite2D \&gt; \&gt;">
<polygon fill="none" stroke="black" points="657,-47.5 657,-88.5 809,-88.5 809,-47.5 657,-47.5"/>
<text text-anchor="start" x="665" y="-76.5" font-family="FreeSans" font-size="10.00">Urho3D::HashMap&lt; Urho3D</text>
<text text-anchor="start" x="665" y="-65.5" font-family="FreeSans" font-size="10.00">::String, Urho3D::SharedPtr</text>
<text text-anchor="middle" x="733" y="-54.5" font-family="FreeSans" font-size="10.00">&lt; Urho3D::Sprite2D &gt; &gt;</text>
</a>
</g>
</g>
<!-- Node16&#45;&gt;Node15 -->
<g id="edge22" class="edge"><title>Node16&#45;&gt;Node15</title>
<path fill="none" stroke="#9a32cd" stroke-dasharray="5,2" d="M819.156,-75.084C869.035,-81.2092 932.532,-92.4731 986,-113 1012.92,-123.335 1040.68,-142.804 1056,-154.469"/>
<polygon fill="#9a32cd" stroke="#9a32cd" points="819.39,-71.5874 809.049,-73.8898 818.569,-78.5391 819.39,-71.5874"/>
<text text-anchor="middle" x="907" y="-116" font-family="FreeSans" font-size="10.00"> spriteMapping_</text>
</g>
<!-- Node17 -->
<g id="node17" class="node"><title>Node17</title>
<g id="a_node17"><a xlink:href="class_urho3_d_1_1_hash_base.html" target="_top" xlink:title="Hash set/map base class. ">
<polygon fill="none" stroke="red" points="417,-27.5 417,-46.5 525,-46.5 525,-27.5 417,-27.5"/>
<text text-anchor="middle" x="471" y="-34.5" font-family="FreeSans" font-size="10.00">Urho3D::HashBase</text>
</a>
</g>
</g>
<!-- Node17&#45;&gt;Node16 -->
<g id="edge23" class="edge"><title>Node17&#45;&gt;Node16</title>
<path fill="none" stroke="midnightblue" d="M535.295,-44.5467C571.898,-48.9109 618.178,-54.429 656.651,-59.0161"/>
<polygon fill="midnightblue" stroke="midnightblue" points="535.586,-41.0567 525.242,-43.3481 534.758,-48.0075 535.586,-41.0567"/>
</g>
<!-- Node23 -->
<g id="node23" class="node"><title>Node23</title>
<g id="a_node23"><a xlink:href="class_urho3_d_1_1_hash_map.html" target="_top" xlink:title="Urho3D::HashMap\&lt; int,\l Urho3D::SharedPtr\&lt; Urho3D\l::Sprite2D \&gt; \&gt;">
<polygon fill="none" stroke="black" points="828,-0.5 828,-41.5 986,-41.5 986,-0.5 828,-0.5"/>
<text text-anchor="start" x="836" y="-29.5" font-family="FreeSans" font-size="10.00">Urho3D::HashMap&lt; int,</text>
<text text-anchor="start" x="836" y="-18.5" font-family="FreeSans" font-size="10.00"> Urho3D::SharedPtr&lt; Urho3D</text>
<text text-anchor="middle" x="907" y="-7.5" font-family="FreeSans" font-size="10.00">::Sprite2D &gt; &gt;</text>
</a>
</g>
</g>
<!-- Node17&#45;&gt;Node23 -->
<g id="edge34" class="edge"><title>Node17&#45;&gt;Node23</title>
<path fill="none" stroke="midnightblue" d="M535.32,-34.6656C612.807,-31.809 744.002,-26.9723 827.736,-23.8853"/>
<polygon fill="midnightblue" stroke="midnightblue" points="535.081,-31.172 525.217,-35.0381 535.339,-38.1672 535.081,-31.172"/>
</g>
<!-- Node18 -->
<g id="node18" class="node"><title>Node18</title>
<g id="a_node18"><a xlink:href="class_urho3_d_1_1_shared_ptr.html" target="_top" xlink:title="Urho3D::SharedPtr\&lt;\l Urho3D::JSONFile \&gt;">
<polygon fill="none" stroke="red" points="675,-156 675,-186 791,-186 791,-156 675,-156"/>
<text text-anchor="start" x="683" y="-174" font-family="FreeSans" font-size="10.00">Urho3D::SharedPtr&lt;</text>
<text text-anchor="middle" x="733" y="-163" font-family="FreeSans" font-size="10.00"> Urho3D::JSONFile &gt;</text>
</a>
</g>
</g>
<!-- Node18&#45;&gt;Node15 -->
<g id="edge24" class="edge"><title>Node18&#45;&gt;Node15</title>
<path fill="none" stroke="#9a32cd" stroke-dasharray="5,2" d="M801.176,-162.979C810.182,-162.16 819.308,-161.461 828,-161 898.124,-157.281 915.79,-159.716 986,-161 991.84,-161.107 997.912,-161.256 1003.99,-161.432"/>
<polygon fill="#9a32cd" stroke="#9a32cd" points="800.708,-159.508 791.088,-163.948 801.377,-166.476 800.708,-159.508"/>
<text text-anchor="middle" x="907" y="-164" font-family="FreeSans" font-size="10.00"> loadJSONFile_</text>
</g>
<!-- Node19 -->
<g id="node19" class="node"><title>Node19</title>
<g id="a_node19"><a xlink:href="class_urho3_d_1_1_shared_ptr.html" target="_top" xlink:title="Urho3D::SharedPtr\&lt;\l Urho3D::XMLFile \&gt;">
<polygon fill="none" stroke="red" points="675,-107 675,-137 791,-137 791,-107 675,-107"/>
<text text-anchor="start" x="683" y="-125" font-family="FreeSans" font-size="10.00">Urho3D::SharedPtr&lt;</text>
<text text-anchor="middle" x="733" y="-114" font-family="FreeSans" font-size="10.00"> Urho3D::XMLFile &gt;</text>
</a>
</g>
</g>
<!-- Node19&#45;&gt;Node15 -->
<g id="edge26" class="edge"><title>Node19&#45;&gt;Node15</title>
<path fill="none" stroke="#9a32cd" stroke-dasharray="5,2" d="M801.3,-125.635C852.239,-128.992 923.812,-135.005 986,-145 1001.01,-147.412 1017.35,-151 1031.47,-154.41"/>
<polygon fill="#9a32cd" stroke="#9a32cd" points="801.279,-122.126 791.075,-124.978 800.83,-129.112 801.279,-122.126"/>
<text text-anchor="middle" x="907" y="-148" font-family="FreeSans" font-size="10.00"> loadXMLFile_</text>
</g>
<!-- Node20 -->
<g id="node20" class="node"><title>Node20</title>
<g id="a_node20"><a xlink:href="class_urho3_d_1_1_shared_ptr.html" target="_top" xlink:title="Urho3D::SharedPtr\&lt;\l Urho3D::Texture2D \&gt;">
<polygon fill="none" stroke="red" points="672,-205 672,-235 794,-235 794,-205 672,-205"/>
<text text-anchor="start" x="680" y="-223" font-family="FreeSans" font-size="10.00">Urho3D::SharedPtr&lt;</text>
<text text-anchor="middle" x="733" y="-212" font-family="FreeSans" font-size="10.00"> Urho3D::Texture2D &gt;</text>
</a>
</g>
</g>
<!-- Node20&#45;&gt;Node11 -->
<g id="edge30" class="edge"><title>Node20&#45;&gt;Node11</title>
<path fill="none" stroke="#9a32cd" stroke-dasharray="5,2" d="M804.191,-220.592C931.423,-221.952 1208.6,-226.238 1442,-239 1504.21,-242.402 1575.71,-248.681 1622.25,-253.087"/>
<polygon fill="#9a32cd" stroke="#9a32cd" points="804.224,-217.092 794.188,-220.488 804.151,-224.092 804.224,-217.092"/>
<text text-anchor="middle" x="1215" y="-246" font-family="FreeSans" font-size="10.00"> loadTexture_</text>
<text text-anchor="middle" x="1215" y="-235" font-family="FreeSans" font-size="10.00">texture_</text>
</g>
<!-- Node20&#45;&gt;Node15 -->
<g id="edge27" class="edge"><title>Node20&#45;&gt;Node15</title>
<path fill="none" stroke="#9a32cd" stroke-dasharray="5,2" d="M795.647,-202.368C806.377,-199.654 817.471,-197.071 828,-195 860.566,-188.595 944.354,-178.288 1003.73,-171.335"/>
<polygon fill="#9a32cd" stroke="#9a32cd" points="794.726,-198.991 785.922,-204.885 796.481,-205.767 794.726,-198.991"/>
<text text-anchor="middle" x="907" y="-198" font-family="FreeSans" font-size="10.00"> texture_</text>
</g>
<!-- Node21 -->
<g id="node21" class="node"><title>Node21</title>
<g id="a_node21"><a xlink:href="class_urho3_d_1_1_int_vector2.html" target="_top" xlink:title="Two&#45;dimensional vector with integer values. ">
<polygon fill="none" stroke="black" points="1315,-248.5 1315,-267.5 1423,-267.5 1423,-248.5 1315,-248.5"/>
<text text-anchor="middle" x="1369" y="-255.5" font-family="FreeSans" font-size="10.00">Urho3D::IntVector2</text>
</a>
</g>
</g>
<!-- Node21&#45;&gt;Node11 -->
<g id="edge28" class="edge"><title>Node21&#45;&gt;Node11</title>
<path fill="none" stroke="#9a32cd" stroke-dasharray="5,2" d="M1433.49,-258C1489.7,-258 1570.61,-258 1622.24,-258"/>
<polygon fill="#9a32cd" stroke="#9a32cd" points="1433.3,-254.5 1423.3,-258 1433.3,-261.5 1433.3,-254.5"/>
<text text-anchor="middle" x="1532" y="-261" font-family="FreeSans" font-size="10.00"> offset_</text>
</g>
<!-- Node21&#45;&gt;Node21 -->
<g id="edge29" class="edge"><title>Node21&#45;&gt;Node21</title>
<path fill="none" stroke="#9a32cd" stroke-dasharray="5,2" d="M1340.25,-276.654C1341.46,-281.937 1351.04,-286 1369,-286 1396.37,-286 1404.28,-276.565 1392.74,-267.757"/>
<polygon fill="#9a32cd" stroke="#9a32cd" points="1343.41,-278.188 1345.26,-267.757 1337.31,-274.753 1343.41,-278.188"/>
<text text-anchor="middle" x="1369" y="-344" font-family="FreeSans" font-size="10.00"> ONE</text>
<text text-anchor="middle" x="1369" y="-333" font-family="FreeSans" font-size="10.00">DOWN</text>
<text text-anchor="middle" x="1369" y="-322" font-family="FreeSans" font-size="10.00">RIGHT</text>
<text text-anchor="middle" x="1369" y="-311" font-family="FreeSans" font-size="10.00">LEFT</text>
<text text-anchor="middle" x="1369" y="-300" font-family="FreeSans" font-size="10.00">ZERO</text>
<text text-anchor="middle" x="1369" y="-289" font-family="FreeSans" font-size="10.00">UP</text>
</g>
<!-- Node22&#45;&gt;Node1 -->
<g id="edge31" class="edge"><title>Node22&#45;&gt;Node1</title>
<path fill="none" stroke="#9a32cd" stroke-dasharray="5,2" d="M1614.08,-88.8883C1702.38,-110.65 1843.83,-155.728 1940,-237 2016.74,-301.855 2063.97,-419.865 2076.59,-454.316"/>
<polygon fill="#9a32cd" stroke="#9a32cd" points="1614.66,-85.4267 1604.11,-86.4754 1613.01,-92.2302 1614.66,-85.4267"/>
<text text-anchor="middle" x="1774" y="-156" font-family="FreeSans" font-size="10.00"> spriteSheet_</text>
</g>
<!-- Node23&#45;&gt;Node1 -->
<g id="edge33" class="edge"><title>Node23&#45;&gt;Node1</title>
<path fill="none" stroke="#9a32cd" stroke-dasharray="5,2" d="M996.668,-22.7712C1057.76,-23.8414 1140.8,-25 1214,-25 1214,-25 1214,-25 1883,-25 2078.06,-25 2081.18,-390.223 2080.22,-454.423"/>
<polygon fill="#9a32cd" stroke="#9a32cd" points="996.353,-19.2652 986.292,-22.5867 996.228,-26.2641 996.353,-19.2652"/>
<text text-anchor="middle" x="1532" y="-28" font-family="FreeSans" font-size="10.00"> spriterFileSprites_</text>
</g>
<!-- Node24 -->
<g id="node24" class="node"><title>Node24</title>
<g id="a_node24"><a xlink:href="class_urho3_d_1_1_unique_ptr.html" target="_top" xlink:title="Urho3D::UniquePtr\&lt;\l Spriter::SpriterData \&gt;">
<polygon fill="none" stroke="black" points="1152.5,-615 1152.5,-645 1277.5,-645 1277.5,-615 1152.5,-615"/>
<text text-anchor="start" x="1160.5" y="-633" font-family="FreeSans" font-size="10.00">Urho3D::UniquePtr&lt;</text>
<text text-anchor="middle" x="1215" y="-622" font-family="FreeSans" font-size="10.00"> Spriter::SpriterData &gt;</text>
</a>
</g>
</g>
<!-- Node24&#45;&gt;Node1 -->
<g id="edge36" class="edge"><title>Node24&#45;&gt;Node1</title>
<path fill="none" stroke="#9a32cd" stroke-dasharray="5,2" d="M1287.92,-630.716C1351.77,-631.29 1447.59,-632 1531,-632 1531,-632 1531,-632 1883,-632 1934.34,-632 1952.94,-630.818 1994,-600 2040.03,-565.458 2067.67,-498.444 2076.71,-473.584"/>
<polygon fill="#9a32cd" stroke="#9a32cd" points="1287.6,-627.213 1277.57,-630.622 1287.53,-634.213 1287.6,-627.213"/>
<text text-anchor="middle" x="1673" y="-635" font-family="FreeSans" font-size="10.00"> spriterData_</text>
</g>
<!-- Node25&#45;&gt;Node24 -->
<g id="edge37" class="edge"><title>Node25&#45;&gt;Node24</title>
<path fill="none" stroke="#9a32cd" stroke-dasharray="5,2" d="M819.748,-628.357C915.365,-628.756 1067.66,-629.39 1152.26,-629.743"/>
<polygon fill="#9a32cd" stroke="#9a32cd" points="819.543,-624.856 809.528,-628.315 819.513,-631.856 819.543,-624.856"/>
<text text-anchor="middle" x="907" y="-632" font-family="FreeSans" font-size="10.00"> ptr_</text>
</g>
</g>
</svg>
