<?xml version="1.0" encoding="UTF-8" standalone="no"?>
<!DOCTYPE svg PUBLIC "-//W3C//DTD SVG 1.1//EN"
 "http://www.w3.org/Graphics/SVG/1.1/DTD/svg11.dtd">
<!-- Generated by graphviz version 2.40.1 (20161225.0304)
 -->
<!-- Title: Urho3D::ConstraintPulley2D Pages: 1 -->
<svg width="2445pt" height="641pt"
 viewBox="0.00 0.00 2445.00 640.50" xmlns="http://www.w3.org/2000/svg" xmlns:xlink="http://www.w3.org/1999/xlink">
<g id="graph0" class="graph" transform="scale(1 1) rotate(0) translate(4 636.5)">
<title>Urho3D::ConstraintPulley2D</title>
<!-- Node7 -->
<g id="node1" class="node">
<title>Node7</title>
<polygon fill="#bfbfbf" stroke="#000000" points="2284,-372 2284,-391 2437,-391 2437,-372 2284,-372"/>
<text text-anchor="middle" x="2360.5" y="-379" font-family="Helvetica,sans-Serif" font-size="10.00" fill="#000000">Urho3D::ConstraintPulley2D</text>
</g>
<!-- Node8 -->
<g id="node2" class="node">
<title>Node8</title>
<g id="a_node2"><a xlink:href="class_urho3_d_1_1_constraint2_d.html" target="_top" xlink:title="2D physics constraint component. ">
<polygon fill="none" stroke="#000000" points="2023,-473 2023,-492 2146,-492 2146,-473 2023,-473"/>
<text text-anchor="middle" x="2084.5" y="-480" font-family="Helvetica,sans-Serif" font-size="10.00" fill="#000000">Urho3D::Constraint2D</text>
</a>
</g>
</g>
<!-- Node8&#45;&gt;Node7 -->
<g id="edge1" class="edge">
<title>Node8&#45;&gt;Node7</title>
<path fill="none" stroke="#191970" d="M2120.0153,-469.5035C2176.2947,-448.9084 2284.6746,-409.2477 2334.4025,-391.0502"/>
<polygon fill="#191970" stroke="#191970" points="2118.6536,-466.2747 2110.4654,-472.9982 2121.0592,-472.8484 2118.6536,-466.2747"/>
</g>
<!-- Node166 -->
<g id="node25" class="node">
<title>Node166</title>
<g id="a_node25"><a xlink:href="class_urho3_d_1_1_weak_ptr.html" target="_top" xlink:title="Urho3D::WeakPtr\&lt; Urho3D\l::Constraint2D \&gt;">
<polygon fill="none" stroke="#000000" points="2286.5,-501.5 2286.5,-531.5 2434.5,-531.5 2434.5,-501.5 2286.5,-501.5"/>
<text text-anchor="start" x="2294.5" y="-519.5" font-family="Helvetica,sans-Serif" font-size="10.00" fill="#000000">Urho3D::WeakPtr&lt; Urho3D</text>
<text text-anchor="middle" x="2360.5" y="-508.5" font-family="Helvetica,sans-Serif" font-size="10.00" fill="#000000">::Constraint2D &gt;</text>
</a>
</g>
</g>
<!-- Node8&#45;&gt;Node166 -->
<g id="edge37" class="edge">
<title>Node8&#45;&gt;Node166</title>
<path fill="none" stroke="#9a32cd" stroke-dasharray="5,2" d="M2156.2569,-493.4597C2158.8695,-493.8178 2161.457,-494.1658 2164,-494.5 2204.3317,-499.7997 2249.4286,-504.9069 2286.2375,-508.8643"/>
<polygon fill="#9a32cd" stroke="#9a32cd" points="2156.4862,-489.9577 2146.0972,-492.0358 2155.5146,-496.8899 2156.4862,-489.9577"/>
<text text-anchor="middle" x="2215" y="-510.5" font-family="Helvetica,sans-Serif" font-size="10.00" fill="#000000"> ptr_</text>
</g>
<!-- Node9 -->
<g id="node3" class="node">
<title>Node9</title>
<g id="a_node3"><a xlink:href="class_urho3_d_1_1_component.html" target="_top" xlink:title="Base class for components. Components can be created to scene nodes. ">
<polygon fill="none" stroke="#000000" points="868,-494 868,-513 984,-513 984,-494 868,-494"/>
<text text-anchor="middle" x="926" y="-501" font-family="Helvetica,sans-Serif" font-size="10.00" fill="#000000">Urho3D::Component</text>
</a>
</g>
</g>
<!-- Node9&#45;&gt;Node8 -->
<g id="edge2" class="edge">
<title>Node9&#45;&gt;Node8</title>
<path fill="none" stroke="#191970" d="M951.3479,-488.7761C961.5219,-482.831 973.3419,-475.8798 984,-469.5 992.0445,-464.6847 993.1246,-461.5214 1002,-458.5 1056.8024,-439.8439 1073.6091,-444.5 1131.5,-444.5 1131.5,-444.5 1131.5,-444.5 1852,-444.5 1922.3483,-444.5 2003.1203,-461.6538 2048.5528,-472.911"/>
<polygon fill="#191970" stroke="#191970" points="949.4232,-485.8467 942.5477,-493.9076 952.9494,-491.8937 949.4232,-485.8467"/>
</g>
<!-- Node104 -->
<g id="node20" class="node">
<title>Node104</title>
<g id="a_node20"><a xlink:href="class_urho3_d_1_1_rigid_body2_d.html" target="_top" xlink:title="2D rigid body component. ">
<polygon fill="none" stroke="#ff0000" points="1545.5,-525 1545.5,-544 1667.5,-544 1667.5,-525 1545.5,-525"/>
<text text-anchor="middle" x="1606.5" y="-532" font-family="Helvetica,sans-Serif" font-size="10.00" fill="#000000">Urho3D::RigidBody2D</text>
</a>
</g>
</g>
<!-- Node9&#45;&gt;Node104 -->
<g id="edge27" class="edge">
<title>Node9&#45;&gt;Node104</title>
<path fill="none" stroke="#191970" d="M994.0638,-510.3346C1053.1911,-515.9749 1141.1623,-523.654 1218,-527.5 1333.5473,-533.2835 1468.6363,-534.4596 1545.227,-534.6059"/>
<polygon fill="#191970" stroke="#191970" points="994.3883,-506.8498 984.0994,-509.3774 993.7188,-513.8177 994.3883,-506.8498"/>
</g>
<!-- Node106 -->
<g id="node22" class="node">
<title>Node106</title>
<g id="a_node22"><a xlink:href="class_urho3_d_1_1_physics_world2_d.html" target="_top" xlink:title="2D physics simulation world component. Should be added only to the root scene node. ">
<polygon fill="none" stroke="#ff0000" points="1063,-473 1063,-492 1200,-492 1200,-473 1063,-473"/>
<text text-anchor="middle" x="1131.5" y="-480" font-family="Helvetica,sans-Serif" font-size="10.00" fill="#000000">Urho3D::PhysicsWorld2D</text>
</a>
</g>
</g>
<!-- Node9&#45;&gt;Node106 -->
<g id="edge30" class="edge">
<title>Node9&#45;&gt;Node106</title>
<path fill="none" stroke="#191970" d="M994.3087,-496.5196C1016.2872,-494.2736 1040.6431,-491.7846 1062.6596,-489.5348"/>
<polygon fill="#191970" stroke="#191970" points="993.6564,-493.0679 984.064,-497.5664 994.3681,-500.0316 993.6564,-493.0679"/>
</g>
<!-- Node10 -->
<g id="node4" class="node">
<title>Node10</title>
<g id="a_node4"><a xlink:href="class_urho3_d_1_1_animatable.html" target="_top" xlink:title="Base class for animatable object, an animatable object can be set animation on it&#39;s attributes...">
<polygon fill="none" stroke="#000000" points="429.5,-537 429.5,-556 545.5,-556 545.5,-537 429.5,-537"/>
<text text-anchor="middle" x="487.5" y="-544" font-family="Helvetica,sans-Serif" font-size="10.00" fill="#000000">Urho3D::Animatable</text>
</a>
</g>
</g>
<!-- Node10&#45;&gt;Node9 -->
<g id="edge3" class="edge">
<title>Node10&#45;&gt;Node9</title>
<path fill="none" stroke="#191970" d="M555.8847,-539.7941C641.6577,-531.3831 787.2327,-517.1077 867.8794,-509.1994"/>
<polygon fill="#191970" stroke="#191970" points="555.3401,-536.3306 545.7294,-540.7899 556.0233,-543.2972 555.3401,-536.3306"/>
</g>
<!-- Node49 -->
<g id="node9" class="node">
<title>Node49</title>
<g id="a_node9"><a xlink:href="class_urho3_d_1_1_node.html" target="_top" xlink:title="Scene node that may contain components and child nodes. ">
<polygon fill="none" stroke="#000000" points="710,-250 710,-269 795,-269 795,-250 710,-250"/>
<text text-anchor="middle" x="752.5" y="-257" font-family="Helvetica,sans-Serif" font-size="10.00" fill="#000000">Urho3D::Node</text>
</a>
</g>
</g>
<!-- Node10&#45;&gt;Node49 -->
<g id="edge9" class="edge">
<title>Node10&#45;&gt;Node49</title>
<path fill="none" stroke="#191970" d="M555.9129,-542.3408C601.243,-535.8248 658.3538,-519.725 692,-480.5 720.554,-447.2115 744.8034,-307.3108 750.9797,-269.1504"/>
<polygon fill="#191970" stroke="#191970" points="555.3055,-538.8903 545.8453,-543.6606 556.2154,-545.831 555.3055,-538.8903"/>
</g>
<!-- Node11 -->
<g id="node5" class="node">
<title>Node11</title>
<g id="a_node5"><a xlink:href="class_urho3_d_1_1_serializable.html" target="_top" xlink:title="Base class for objects with automatic serialization through attributes. ">
<polygon fill="none" stroke="#ff0000" points="44.5,-613 44.5,-632 160.5,-632 160.5,-613 44.5,-613"/>
<text text-anchor="middle" x="102.5" y="-620" font-family="Helvetica,sans-Serif" font-size="10.00" fill="#000000">Urho3D::Serializable</text>
</a>
</g>
</g>
<!-- Node11&#45;&gt;Node10 -->
<g id="edge4" class="edge">
<title>Node11&#45;&gt;Node10</title>
<path fill="none" stroke="#191970" d="M170.7452,-614.0049C224.6239,-606.7458 301.5331,-595.1571 368,-580.5 398.9639,-573.672 433.7701,-563.4748 457.7963,-556.0291"/>
<polygon fill="#191970" stroke="#191970" points="170.0737,-610.5634 160.6239,-615.3542 170.9987,-617.502 170.0737,-610.5634"/>
</g>
<!-- Node41 -->
<g id="node6" class="node">
<title>Node41</title>
<g id="a_node6"><a xlink:href="class_urho3_d_1_1_hash_map.html" target="_top" xlink:title="Urho3D::HashMap\&lt; Urho3D\l::String, Urho3D::SharedPtr\l\&lt; Urho3D::AttributeAnimationInfo \&gt; \&gt;">
<polygon fill="none" stroke="#ff0000" points="0,-553 0,-594 205,-594 205,-553 0,-553"/>
<text text-anchor="start" x="8" y="-582" font-family="Helvetica,sans-Serif" font-size="10.00" fill="#000000">Urho3D::HashMap&lt; Urho3D</text>
<text text-anchor="start" x="8" y="-571" font-family="Helvetica,sans-Serif" font-size="10.00" fill="#000000">::String, Urho3D::SharedPtr</text>
<text text-anchor="middle" x="102.5" y="-560" font-family="Helvetica,sans-Serif" font-size="10.00" fill="#000000">&lt; Urho3D::AttributeAnimationInfo &gt; &gt;</text>
</a>
</g>
</g>
<!-- Node41&#45;&gt;Node10 -->
<g id="edge5" class="edge">
<title>Node41&#45;&gt;Node10</title>
<path fill="none" stroke="#9a32cd" stroke-dasharray="5,2" d="M215.3895,-565.5831C285.5552,-560.6624 372.8499,-554.5404 429.3485,-550.5782"/>
<polygon fill="#9a32cd" stroke="#9a32cd" points="214.8978,-562.1089 205.1672,-566.3 215.3876,-569.0917 214.8978,-562.1089"/>
<text text-anchor="middle" x="295.5" y="-568.5" font-family="Helvetica,sans-Serif" font-size="10.00" fill="#000000"> attributeAnimationInfos_</text>
</g>
<!-- Node42 -->
<g id="node7" class="node">
<title>Node42</title>
<g id="a_node7"><a xlink:href="class_urho3_d_1_1_hash_set.html" target="_top" xlink:title="Urho3D::HashSet\&lt; const\l Urho3D::AttributeInfo *\&gt;">
<polygon fill="none" stroke="#ff0000" points="32.5,-503.5 32.5,-533.5 172.5,-533.5 172.5,-503.5 32.5,-503.5"/>
<text text-anchor="start" x="40.5" y="-521.5" font-family="Helvetica,sans-Serif" font-size="10.00" fill="#000000">Urho3D::HashSet&lt; const</text>
<text text-anchor="middle" x="102.5" y="-510.5" font-family="Helvetica,sans-Serif" font-size="10.00" fill="#000000"> Urho3D::AttributeInfo *&gt;</text>
</a>
</g>
</g>
<!-- Node42&#45;&gt;Node10 -->
<g id="edge6" class="edge">
<title>Node42&#45;&gt;Node10</title>
<path fill="none" stroke="#9a32cd" stroke-dasharray="5,2" d="M182.8296,-524.3422C256.4879,-529.6991 363.7981,-537.5035 429.4444,-542.2778"/>
<polygon fill="#9a32cd" stroke="#9a32cd" points="182.8948,-520.8377 172.6673,-523.6031 182.387,-527.8193 182.8948,-520.8377"/>
<text text-anchor="middle" x="295.5" y="-540.5" font-family="Helvetica,sans-Serif" font-size="10.00" fill="#000000"> animatedNetworkAttributes_</text>
</g>
<!-- Node43 -->
<g id="node8" class="node">
<title>Node43</title>
<g id="a_node8"><a xlink:href="class_urho3_d_1_1_shared_ptr.html" target="_top" xlink:title="Urho3D::SharedPtr\&lt;\l Urho3D::ObjectAnimation \&gt;">
<polygon fill="none" stroke="#ff0000" points="25,-454.5 25,-484.5 180,-484.5 180,-454.5 25,-454.5"/>
<text text-anchor="start" x="33" y="-472.5" font-family="Helvetica,sans-Serif" font-size="10.00" fill="#000000">Urho3D::SharedPtr&lt;</text>
<text text-anchor="middle" x="102.5" y="-461.5" font-family="Helvetica,sans-Serif" font-size="10.00" fill="#000000"> Urho3D::ObjectAnimation &gt;</text>
</a>
</g>
</g>
<!-- Node43&#45;&gt;Node10 -->
<g id="edge7" class="edge">
<title>Node43&#45;&gt;Node10</title>
<path fill="none" stroke="#9a32cd" stroke-dasharray="5,2" d="M190.109,-473.8799C243.2488,-478.9764 311.4802,-489.9456 368,-513.5 377.1089,-517.2961 376.9497,-522.5662 386,-526.5 399.5068,-532.3708 414.7747,-536.5326 429.2897,-539.4779"/>
<polygon fill="#9a32cd" stroke="#9a32cd" points="190.305,-470.3834 180.0298,-472.9659 189.6728,-477.3548 190.305,-470.3834"/>
<text text-anchor="middle" x="295.5" y="-516.5" font-family="Helvetica,sans-Serif" font-size="10.00" fill="#000000"> objectAnimation_</text>
</g>
<!-- Node49&#45;&gt;Node9 -->
<g id="edge8" class="edge">
<title>Node49&#45;&gt;Node9</title>
<path fill="none" stroke="#9a32cd" stroke-dasharray="5,2" d="M758.9805,-278.4942C773.2767,-318.1162 810.854,-410.7679 868,-469.5 878.0932,-479.8733 892.0165,-488.1745 903.6915,-493.9772"/>
<polygon fill="#9a32cd" stroke="#9a32cd" points="762.2604,-277.2707 755.6382,-269.0004 755.6576,-279.5952 762.2604,-277.2707"/>
<text text-anchor="middle" x="831.5" y="-448.5" font-family="Helvetica,sans-Serif" font-size="10.00" fill="#000000"> node_</text>
</g>
<!-- Node49&#45;&gt;Node49 -->
<g id="edge21" class="edge">
<title>Node49&#45;&gt;Node49</title>
<path fill="none" stroke="#9a32cd" stroke-dasharray="5,2" d="M738.1358,-279.2663C739.264,-283.9965 744.0521,-287.5 752.5,-287.5 766.3633,-287.5 770.3706,-278.0653 764.5221,-269.2571"/>
<polygon fill="#9a32cd" stroke="#9a32cd" points="741.6074,-279.7915 740.4779,-269.2571 734.7915,-278.1966 741.6074,-279.7915"/>
<text text-anchor="middle" x="752.5" y="-290.5" font-family="Helvetica,sans-Serif" font-size="10.00" fill="#000000"> parent_</text>
</g>
<!-- Node50 -->
<g id="node10" class="node">
<title>Node50</title>
<g id="a_node10"><a xlink:href="class_urho3_d_1_1_scene.html" target="_top" xlink:title="Root scene node, represents the whole scene. ">
<polygon fill="none" stroke="#ff0000" points="881.5,-217 881.5,-236 970.5,-236 970.5,-217 881.5,-217"/>
<text text-anchor="middle" x="926" y="-224" font-family="Helvetica,sans-Serif" font-size="10.00" fill="#000000">Urho3D::Scene</text>
</a>
</g>
</g>
<!-- Node49&#45;&gt;Node50 -->
<g id="edge11" class="edge">
<title>Node49&#45;&gt;Node50</title>
<path fill="none" stroke="#191970" d="M788.9669,-246.8799C796.8236,-244.4905 805.1327,-242.208 813,-240.5 835.3123,-235.656 860.4931,-232.3332 881.4122,-230.1449"/>
<polygon fill="#191970" stroke="#191970" points="787.8041,-243.5767 779.3244,-249.9285 789.9144,-250.251 787.8041,-243.5767"/>
</g>
<!-- Node50&#45;&gt;Node49 -->
<g id="edge10" class="edge">
<title>Node50&#45;&gt;Node49</title>
<path fill="none" stroke="#9a32cd" stroke-dasharray="5,2" d="M871.5893,-236.849C847.018,-241.5225 818.407,-246.9644 795.3877,-251.3427"/>
<polygon fill="#9a32cd" stroke="#9a32cd" points="872.3203,-240.2728 881.4902,-234.9658 871.0123,-233.3961 872.3203,-240.2728"/>
<text text-anchor="middle" x="831.5" y="-251.5" font-family="Helvetica,sans-Serif" font-size="10.00" fill="#000000"> scene_</text>
</g>
<!-- Node27 -->
<g id="node11" class="node">
<title>Node27</title>
<g id="a_node11"><a xlink:href="class_urho3_d_1_1_hash_map.html" target="_top" xlink:title="Urho3D::HashMap\&lt; StringHash,\l Variant \&gt;">
<polygon fill="none" stroke="#ff0000" points="401.5,-.5 401.5,-30.5 573.5,-30.5 573.5,-.5 401.5,-.5"/>
<text text-anchor="start" x="409.5" y="-18.5" font-family="Helvetica,sans-Serif" font-size="10.00" fill="#000000">Urho3D::HashMap&lt; StringHash,</text>
<text text-anchor="middle" x="487.5" y="-7.5" font-family="Helvetica,sans-Serif" font-size="10.00" fill="#000000"> Variant &gt;</text>
</a>
</g>
</g>
<!-- Node27&#45;&gt;Node49 -->
<g id="edge20" class="edge">
<title>Node27&#45;&gt;Node49</title>
<path fill="none" stroke="#9a32cd" stroke-dasharray="5,2" d="M583.4787,-31.9466C628.5949,-41.4927 675.9677,-54.7451 692,-70.5 718.7849,-96.8215 743.8239,-215.3692 750.6671,-249.9831"/>
<polygon fill="#9a32cd" stroke="#9a32cd" points="584.0984,-28.5008 573.5972,-29.9056 582.6824,-35.3561 584.0984,-28.5008"/>
<text text-anchor="middle" x="649.5" y="-73.5" font-family="Helvetica,sans-Serif" font-size="10.00" fill="#000000"> vars_</text>
</g>
<!-- Node27&#45;&gt;Node50 -->
<g id="edge12" class="edge">
<title>Node27&#45;&gt;Node50</title>
<path fill="none" stroke="#9a32cd" stroke-dasharray="5,2" d="M583.7847,-12.8379C618.9347,-14.8336 658.3055,-20.6543 692,-34.5 796.5035,-77.4425 890.5228,-183.6798 917.9578,-216.6075"/>
<polygon fill="#9a32cd" stroke="#9a32cd" points="583.6617,-9.3284 573.5083,-12.3547 583.3329,-16.3207 583.6617,-9.3284"/>
<text text-anchor="middle" x="752.5" y="-99.5" font-family="Helvetica,sans-Serif" font-size="10.00" fill="#000000"> smoothingData_</text>
</g>
<!-- Node80 -->
<g id="node12" class="node">
<title>Node80</title>
<g id="a_node12"><a xlink:href="class_urho3_d_1_1_quaternion.html" target="_top" xlink:title="Rotation represented as a four&#45;dimensional normalized vector. ">
<polygon fill="none" stroke="#000000" points="431,-99 431,-118 544,-118 544,-99 431,-99"/>
<text text-anchor="middle" x="487.5" y="-106" font-family="Helvetica,sans-Serif" font-size="10.00" fill="#000000">Urho3D::Quaternion</text>
</a>
</g>
</g>
<!-- Node80&#45;&gt;Node49 -->
<g id="edge13" class="edge">
<title>Node80&#45;&gt;Node49</title>
<path fill="none" stroke="#9a32cd" stroke-dasharray="5,2" d="M536.9771,-120.8361C580.5607,-133.3199 644.3431,-155.6498 692,-189.5 715.8339,-206.4289 736.3576,-234.6673 746.2314,-249.5781"/>
<polygon fill="#9a32cd" stroke="#9a32cd" points="537.7502,-117.4181 527.1772,-118.0973 535.866,-124.1598 537.7502,-117.4181"/>
<text text-anchor="middle" x="649.5" y="-203.5" font-family="Helvetica,sans-Serif" font-size="10.00" fill="#000000"> worldRotation_</text>
<text text-anchor="middle" x="649.5" y="-192.5" font-family="Helvetica,sans-Serif" font-size="10.00" fill="#000000">rotation_</text>
</g>
<!-- Node80&#45;&gt;Node80 -->
<g id="edge14" class="edge">
<title>Node80&#45;&gt;Node80</title>
<path fill="none" stroke="#9a32cd" stroke-dasharray="5,2" d="M457.1856,-126.7746C458.0499,-132.241 468.1547,-136.5 487.5,-136.5 516.293,-136.5 524.6159,-127.0653 512.4689,-118.2571"/>
<polygon fill="#9a32cd" stroke="#9a32cd" points="460.1799,-128.5877 462.5311,-118.2571 454.2508,-124.8667 460.1799,-128.5877"/>
<text text-anchor="middle" x="487.5" y="-139.5" font-family="Helvetica,sans-Serif" font-size="10.00" fill="#000000"> IDENTITY</text>
</g>
<!-- Node81 -->
<g id="node13" class="node">
<title>Node81</title>
<g id="a_node13"><a xlink:href="class_urho3_d_1_1_vector.html" target="_top" xlink:title="Urho3D::Vector\&lt; Urho3D\l::WeakPtr\&lt; Urho3D::Component \&gt; \&gt;">
<polygon fill="none" stroke="#ff0000" points="389.5,-49.5 389.5,-79.5 585.5,-79.5 585.5,-49.5 389.5,-49.5"/>
<text text-anchor="start" x="397.5" y="-67.5" font-family="Helvetica,sans-Serif" font-size="10.00" fill="#000000">Urho3D::Vector&lt; Urho3D</text>
<text text-anchor="middle" x="487.5" y="-56.5" font-family="Helvetica,sans-Serif" font-size="10.00" fill="#000000">::WeakPtr&lt; Urho3D::Component &gt; &gt;</text>
</a>
</g>
</g>
<!-- Node81&#45;&gt;Node49 -->
<g id="edge15" class="edge">
<title>Node81&#45;&gt;Node49</title>
<path fill="none" stroke="#9a32cd" stroke-dasharray="5,2" d="M595.7582,-80.5586C629.9701,-90.2235 665.6778,-105.7042 692,-130.5 728.7315,-165.1015 745.3403,-226.4731 750.572,-249.9777"/>
<polygon fill="#9a32cd" stroke="#9a32cd" points="596.2457,-77.066 585.6809,-77.8631 594.4369,-83.8283 596.2457,-77.066"/>
<text text-anchor="middle" x="649.5" y="-133.5" font-family="Helvetica,sans-Serif" font-size="10.00" fill="#000000"> listeners_</text>
</g>
<!-- Node82 -->
<g id="node14" class="node">
<title>Node82</title>
<g id="a_node14"><a xlink:href="class_urho3_d_1_1_vector.html" target="_top" xlink:title="Urho3D::Vector\&lt; Urho3D\l::SharedPtr\&lt; Urho3D::Component \&gt; \&gt;">
<polygon fill="none" stroke="#ff0000" points="386,-487.5 386,-517.5 589,-517.5 589,-487.5 386,-487.5"/>
<text text-anchor="start" x="394" y="-505.5" font-family="Helvetica,sans-Serif" font-size="10.00" fill="#000000">Urho3D::Vector&lt; Urho3D</text>
<text text-anchor="middle" x="487.5" y="-494.5" font-family="Helvetica,sans-Serif" font-size="10.00" fill="#000000">::SharedPtr&lt; Urho3D::Component &gt; &gt;</text>
</a>
</g>
</g>
<!-- Node82&#45;&gt;Node49 -->
<g id="edge16" class="edge">
<title>Node82&#45;&gt;Node49</title>
<path fill="none" stroke="#9a32cd" stroke-dasharray="5,2" d="M577.6468,-483.5297C581.5722,-481.7013 585.3778,-479.6971 589,-477.5 676.776,-424.2593 733.2224,-304.6406 748.3838,-269.4299"/>
<polygon fill="#9a32cd" stroke="#9a32cd" points="576.1456,-480.3644 568.2999,-487.4845 578.8734,-486.811 576.1456,-480.3644"/>
<text text-anchor="middle" x="649.5" y="-468.5" font-family="Helvetica,sans-Serif" font-size="10.00" fill="#000000"> components_</text>
</g>
<!-- Node83 -->
<g id="node15" class="node">
<title>Node83</title>
<g id="a_node15"><a xlink:href="class_urho3_d_1_1_vector3.html" target="_top" xlink:title="Three&#45;dimensional vector. ">
<polygon fill="none" stroke="#000000" points="439.5,-343 439.5,-362 535.5,-362 535.5,-343 439.5,-343"/>
<text text-anchor="middle" x="487.5" y="-350" font-family="Helvetica,sans-Serif" font-size="10.00" fill="#000000">Urho3D::Vector3</text>
</a>
</g>
</g>
<!-- Node83&#45;&gt;Node49 -->
<g id="edge17" class="edge">
<title>Node83&#45;&gt;Node49</title>
<path fill="none" stroke="#9a32cd" stroke-dasharray="5,2" d="M545.9597,-346.2293C588.1925,-340.0233 645.7076,-328.0461 692,-305.5 711.6919,-295.9093 731.2844,-279.4149 742.6265,-269.0026"/>
<polygon fill="#9a32cd" stroke="#9a32cd" points="545.2563,-342.7936 535.8397,-347.6494 546.2291,-349.7257 545.2563,-342.7936"/>
<text text-anchor="middle" x="649.5" y="-348.5" font-family="Helvetica,sans-Serif" font-size="10.00" fill="#000000"> scale_</text>
<text text-anchor="middle" x="649.5" y="-337.5" font-family="Helvetica,sans-Serif" font-size="10.00" fill="#000000">position_</text>
</g>
<!-- Node83&#45;&gt;Node83 -->
<g id="edge18" class="edge">
<title>Node83&#45;&gt;Node83</title>
<path fill="none" stroke="#9a32cd" stroke-dasharray="5,2" d="M457.1856,-370.7746C458.0499,-376.241 468.1547,-380.5 487.5,-380.5 516.293,-380.5 524.6159,-371.0653 512.4689,-362.2571"/>
<polygon fill="#9a32cd" stroke="#9a32cd" points="460.1799,-372.5877 462.5311,-362.2571 454.2508,-368.8667 460.1799,-372.5877"/>
<text text-anchor="middle" x="487.5" y="-460.5" font-family="Helvetica,sans-Serif" font-size="10.00" fill="#000000"> ONE</text>
<text text-anchor="middle" x="487.5" y="-449.5" font-family="Helvetica,sans-Serif" font-size="10.00" fill="#000000">DOWN</text>
<text text-anchor="middle" x="487.5" y="-438.5" font-family="Helvetica,sans-Serif" font-size="10.00" fill="#000000">BACK</text>
<text text-anchor="middle" x="487.5" y="-427.5" font-family="Helvetica,sans-Serif" font-size="10.00" fill="#000000">RIGHT</text>
<text text-anchor="middle" x="487.5" y="-416.5" font-family="Helvetica,sans-Serif" font-size="10.00" fill="#000000">LEFT</text>
<text text-anchor="middle" x="487.5" y="-405.5" font-family="Helvetica,sans-Serif" font-size="10.00" fill="#000000">ZERO</text>
<text text-anchor="middle" x="487.5" y="-394.5" font-family="Helvetica,sans-Serif" font-size="10.00" fill="#000000">FORWARD</text>
<text text-anchor="middle" x="487.5" y="-383.5" font-family="Helvetica,sans-Serif" font-size="10.00" fill="#000000">UP</text>
</g>
<!-- Node84 -->
<g id="node16" class="node">
<title>Node84</title>
<g id="a_node16"><a xlink:href="class_urho3_d_1_1_unique_ptr.html" target="_top" xlink:title="Urho3D::UniquePtr\&lt;\l Urho3D::NodeImpl \&gt;">
<polygon fill="none" stroke="#ff0000" points="427,-293.5 427,-323.5 548,-323.5 548,-293.5 427,-293.5"/>
<text text-anchor="start" x="435" y="-311.5" font-family="Helvetica,sans-Serif" font-size="10.00" fill="#000000">Urho3D::UniquePtr&lt;</text>
<text text-anchor="middle" x="487.5" y="-300.5" font-family="Helvetica,sans-Serif" font-size="10.00" fill="#000000"> Urho3D::NodeImpl &gt;</text>
</a>
</g>
</g>
<!-- Node84&#45;&gt;Node49 -->
<g id="edge19" class="edge">
<title>Node84&#45;&gt;Node49</title>
<path fill="none" stroke="#9a32cd" stroke-dasharray="5,2" d="M558.1966,-298.1421C597.7005,-292.0049 647.7427,-283.6509 692,-274.5 699.842,-272.8785 708.2056,-270.9411 716.1339,-269.0059"/>
<polygon fill="#9a32cd" stroke="#9a32cd" points="557.4808,-294.711 548.1306,-299.6935 558.5471,-301.6294 557.4808,-294.711"/>
<text text-anchor="middle" x="649.5" y="-293.5" font-family="Helvetica,sans-Serif" font-size="10.00" fill="#000000"> impl_</text>
</g>
<!-- Node101 -->
<g id="node17" class="node">
<title>Node101</title>
<g id="a_node17"><a xlink:href="class_urho3_d_1_1_vector.html" target="_top" xlink:title="Urho3D::Vector\&lt; Urho3D\l::SharedPtr\&lt; Urho3D::Node \&gt; \&gt;">
<polygon fill="none" stroke="#ff0000" points="401.5,-244.5 401.5,-274.5 573.5,-274.5 573.5,-244.5 401.5,-244.5"/>
<text text-anchor="start" x="409.5" y="-262.5" font-family="Helvetica,sans-Serif" font-size="10.00" fill="#000000">Urho3D::Vector&lt; Urho3D</text>
<text text-anchor="middle" x="487.5" y="-251.5" font-family="Helvetica,sans-Serif" font-size="10.00" fill="#000000">::SharedPtr&lt; Urho3D::Node &gt; &gt;</text>
</a>
</g>
</g>
<!-- Node101&#45;&gt;Node49 -->
<g id="edge22" class="edge">
<title>Node101&#45;&gt;Node49</title>
<path fill="none" stroke="#9a32cd" stroke-dasharray="5,2" d="M583.555,-259.5C626.9019,-259.5 675.8916,-259.5 709.9117,-259.5"/>
<polygon fill="#9a32cd" stroke="#9a32cd" points="583.5379,-256.0001 573.5379,-259.5 583.5379,-263.0001 583.5379,-256.0001"/>
<text text-anchor="middle" x="649.5" y="-262.5" font-family="Helvetica,sans-Serif" font-size="10.00" fill="#000000"> children_</text>
</g>
<!-- Node102 -->
<g id="node18" class="node">
<title>Node102</title>
<g id="a_node18"><a xlink:href="class_urho3_d_1_1_matrix3x4.html" target="_top" xlink:title="3x4 matrix for scene node transform calculations. ">
<polygon fill="none" stroke="#000000" points="433.5,-166 433.5,-185 541.5,-185 541.5,-166 433.5,-166"/>
<text text-anchor="middle" x="487.5" y="-173" font-family="Helvetica,sans-Serif" font-size="10.00" fill="#000000">Urho3D::Matrix3x4</text>
</a>
</g>
</g>
<!-- Node102&#45;&gt;Node49 -->
<g id="edge23" class="edge">
<title>Node102&#45;&gt;Node49</title>
<path fill="none" stroke="#9a32cd" stroke-dasharray="5,2" d="M527.4519,-188.164C580.9006,-205.1062 674.4866,-234.7712 722.3873,-249.9548"/>
<polygon fill="#9a32cd" stroke="#9a32cd" points="528.231,-184.7394 517.6409,-185.0541 526.1158,-191.4122 528.231,-184.7394"/>
<text text-anchor="middle" x="649.5" y="-242.5" font-family="Helvetica,sans-Serif" font-size="10.00" fill="#000000"> worldTransform_</text>
</g>
<!-- Node102&#45;&gt;Node102 -->
<g id="edge24" class="edge">
<title>Node102&#45;&gt;Node102</title>
<path fill="none" stroke="#9a32cd" stroke-dasharray="5,2" d="M457.1856,-193.7746C458.0499,-199.241 468.1547,-203.5 487.5,-203.5 516.293,-203.5 524.6159,-194.0653 512.4689,-185.2571"/>
<polygon fill="#9a32cd" stroke="#9a32cd" points="460.1799,-195.5877 462.5311,-185.2571 454.2508,-191.8667 460.1799,-195.5877"/>
<text text-anchor="middle" x="487.5" y="-217.5" font-family="Helvetica,sans-Serif" font-size="10.00" fill="#000000"> IDENTITY</text>
<text text-anchor="middle" x="487.5" y="-206.5" font-family="Helvetica,sans-Serif" font-size="10.00" fill="#000000">ZERO</text>
</g>
<!-- Node103 -->
<g id="node19" class="node">
<title>Node103</title>
<g id="a_node19"><a xlink:href="class_urho3_d_1_1_weak_ptr.html" target="_top" xlink:title="Urho3D::WeakPtr\&lt; Urho3D\l::RigidBody2D \&gt;">
<polygon fill="none" stroke="#000000" points="1778,-519.5 1778,-549.5 1926,-549.5 1926,-519.5 1778,-519.5"/>
<text text-anchor="start" x="1786" y="-537.5" font-family="Helvetica,sans-Serif" font-size="10.00" fill="#000000">Urho3D::WeakPtr&lt; Urho3D</text>
<text text-anchor="middle" x="1852" y="-526.5" font-family="Helvetica,sans-Serif" font-size="10.00" fill="#000000">::RigidBody2D &gt;</text>
</a>
</g>
</g>
<!-- Node103&#45;&gt;Node8 -->
<g id="edge25" class="edge">
<title>Node103&#45;&gt;Node8</title>
<path fill="none" stroke="#9a32cd" stroke-dasharray="5,2" d="M1929.1589,-517.243C1966.7257,-508.8409 2010.4565,-499.0603 2041.9299,-492.0211"/>
<polygon fill="#9a32cd" stroke="#9a32cd" points="1928.2436,-513.8611 1919.2486,-519.4594 1929.7715,-520.6923 1928.2436,-513.8611"/>
<text text-anchor="middle" x="1974.5" y="-527.5" font-family="Helvetica,sans-Serif" font-size="10.00" fill="#000000"> otherBody_</text>
<text text-anchor="middle" x="1974.5" y="-516.5" font-family="Helvetica,sans-Serif" font-size="10.00" fill="#000000">ownerBody_</text>
</g>
<!-- Node104&#45;&gt;Node103 -->
<g id="edge26" class="edge">
<title>Node104&#45;&gt;Node103</title>
<path fill="none" stroke="#9a32cd" stroke-dasharray="5,2" d="M1677.9083,-534.5C1709.2582,-534.5 1746.0581,-534.5 1777.7284,-534.5"/>
<polygon fill="#9a32cd" stroke="#9a32cd" points="1677.5009,-531.0001 1667.5008,-534.5 1677.5008,-538.0001 1677.5009,-531.0001"/>
<text text-anchor="middle" x="1723.5" y="-537.5" font-family="Helvetica,sans-Serif" font-size="10.00" fill="#000000"> ptr_</text>
</g>
<!-- Node105 -->
<g id="node21" class="node">
<title>Node105</title>
<g id="a_node21"><a xlink:href="class_urho3_d_1_1_weak_ptr.html" target="_top" xlink:title="Urho3D::WeakPtr\&lt; Urho3D\l::PhysicsWorld2D \&gt;">
<polygon fill="none" stroke="#000000" points="1287,-478.5 1287,-508.5 1435,-508.5 1435,-478.5 1287,-478.5"/>
<text text-anchor="start" x="1295" y="-496.5" font-family="Helvetica,sans-Serif" font-size="10.00" fill="#000000">Urho3D::WeakPtr&lt; Urho3D</text>
<text text-anchor="middle" x="1361" y="-485.5" font-family="Helvetica,sans-Serif" font-size="10.00" fill="#000000">::PhysicsWorld2D &gt;</text>
</a>
</g>
</g>
<!-- Node105&#45;&gt;Node8 -->
<g id="edge35" class="edge">
<title>Node105&#45;&gt;Node8</title>
<path fill="none" stroke="#9a32cd" stroke-dasharray="5,2" d="M1445.3606,-492.2174C1592.6241,-489.9784 1893.2412,-485.4079 2022.8127,-483.4379"/>
<polygon fill="#9a32cd" stroke="#9a32cd" points="1444.9727,-488.7228 1435.0271,-492.3745 1445.0792,-495.722 1444.9727,-488.7228"/>
<text text-anchor="middle" x="1723.5" y="-492.5" font-family="Helvetica,sans-Serif" font-size="10.00" fill="#000000"> physicsWorld_</text>
</g>
<!-- Node105&#45;&gt;Node104 -->
<g id="edge28" class="edge">
<title>Node105&#45;&gt;Node104</title>
<path fill="none" stroke="#9a32cd" stroke-dasharray="5,2" d="M1445.3098,-503.9047C1471.2605,-507.4689 1499.8707,-511.7657 1526,-516.5 1539.3868,-518.9255 1553.9238,-522.0296 1566.9138,-524.9747"/>
<polygon fill="#9a32cd" stroke="#9a32cd" points="1445.5076,-500.3996 1435.1281,-502.5247 1444.5674,-507.3362 1445.5076,-500.3996"/>
<text text-anchor="middle" x="1489.5" y="-519.5" font-family="Helvetica,sans-Serif" font-size="10.00" fill="#000000"> physicsWorld_</text>
</g>
<!-- Node106&#45;&gt;Node105 -->
<g id="edge29" class="edge">
<title>Node106&#45;&gt;Node105</title>
<path fill="none" stroke="#9a32cd" stroke-dasharray="5,2" d="M1210.3095,-480.8903C1229.5248,-480.9419 1250.0129,-481.3689 1269,-482.5 1274.7807,-482.8444 1280.7549,-483.3094 1286.7539,-483.8544"/>
<polygon fill="#9a32cd" stroke="#9a32cd" points="1210.0862,-477.3904 1200.0886,-480.897 1210.0909,-484.3904 1210.0862,-477.3904"/>
<text text-anchor="middle" x="1243.5" y="-485.5" font-family="Helvetica,sans-Serif" font-size="10.00" fill="#000000"> ptr_</text>
</g>
<!-- Node110 -->
<g id="node23" class="node">
<title>Node110</title>
<g id="a_node23"><a xlink:href="class_urho3_d_1_1_vector2.html" target="_top" xlink:title="Two&#45;dimensional vector. ">
<polygon fill="none" stroke="#000000" points="878,-357 878,-376 974,-376 974,-357 878,-357"/>
<text text-anchor="middle" x="926" y="-364" font-family="Helvetica,sans-Serif" font-size="10.00" fill="#000000">Urho3D::Vector2</text>
</a>
</g>
</g>
<!-- Node110&#45;&gt;Node7 -->
<g id="edge39" class="edge">
<title>Node110&#45;&gt;Node7</title>
<path fill="none" stroke="#9a32cd" stroke-dasharray="5,2" d="M984.188,-359.5476C1025.2843,-355.2308 1081.6861,-350.5 1131.5,-350.5 1131.5,-350.5 1131.5,-350.5 2084.5,-350.5 2162.4926,-350.5 2252.1119,-362.8757 2307.5297,-371.9883"/>
<polygon fill="#9a32cd" stroke="#9a32cd" points="983.6519,-356.085 974.0829,-360.633 984.3995,-363.0449 983.6519,-356.085"/>
<text text-anchor="middle" x="1606.5" y="-408.5" font-family="Helvetica,sans-Serif" font-size="10.00" fill="#000000"> otherBodyAnchor_</text>
<text text-anchor="start" x="1544" y="-397.5" font-family="Helvetica,sans-Serif" font-size="10.00" fill="#000000">ownerBodyGroundAnchor</text>
<text text-anchor="middle" x="1606.5" y="-386.5" font-family="Helvetica,sans-Serif" font-size="10.00" fill="#000000">_</text>
<text text-anchor="start" x="1544" y="-375.5" font-family="Helvetica,sans-Serif" font-size="10.00" fill="#000000">ownerBodyAnchor</text>
<text text-anchor="middle" x="1606.5" y="-364.5" font-family="Helvetica,sans-Serif" font-size="10.00" fill="#000000">_</text>
<text text-anchor="middle" x="1606.5" y="-353.5" font-family="Helvetica,sans-Serif" font-size="10.00" fill="#000000">otherBodyGroundAnchor_</text>
</g>
<!-- Node110&#45;&gt;Node106 -->
<g id="edge31" class="edge">
<title>Node110&#45;&gt;Node106</title>
<path fill="none" stroke="#9a32cd" stroke-dasharray="5,2" d="M952.1276,-381.2484C994.889,-405.3862 1078.6453,-452.6647 1114.526,-472.9186"/>
<polygon fill="#9a32cd" stroke="#9a32cd" points="953.5963,-378.0584 943.1674,-376.1906 950.1553,-384.1542 953.5963,-378.0584"/>
<text text-anchor="middle" x="1023.5" y="-434.5" font-family="Helvetica,sans-Serif" font-size="10.00" fill="#000000"> gravity_</text>
</g>
<!-- Node110&#45;&gt;Node110 -->
<g id="edge32" class="edge">
<title>Node110&#45;&gt;Node110</title>
<path fill="none" stroke="#9a32cd" stroke-dasharray="5,2" d="M908.5934,-385.9C909.7559,-390.8146 915.5581,-394.5 926,-394.5 942.707,-394.5 947.5364,-385.0653 940.4881,-376.2571"/>
<polygon fill="#9a32cd" stroke="#9a32cd" points="911.965,-386.8422 911.5119,-376.2571 905.2651,-384.8144 911.965,-386.8422"/>
<text text-anchor="middle" x="926" y="-452.5" font-family="Helvetica,sans-Serif" font-size="10.00" fill="#000000"> ONE</text>
<text text-anchor="middle" x="926" y="-441.5" font-family="Helvetica,sans-Serif" font-size="10.00" fill="#000000">DOWN</text>
<text text-anchor="middle" x="926" y="-430.5" font-family="Helvetica,sans-Serif" font-size="10.00" fill="#000000">RIGHT</text>
<text text-anchor="middle" x="926" y="-419.5" font-family="Helvetica,sans-Serif" font-size="10.00" fill="#000000">LEFT</text>
<text text-anchor="middle" x="926" y="-408.5" font-family="Helvetica,sans-Serif" font-size="10.00" fill="#000000">ZERO</text>
<text text-anchor="middle" x="926" y="-397.5" font-family="Helvetica,sans-Serif" font-size="10.00" fill="#000000">UP</text>
</g>
<!-- Node14 -->
<g id="node24" class="node">
<title>Node14</title>
<g id="a_node24"><a xlink:href="struct_urho3_d_1_1_ref_count.html" target="_top" xlink:title="Reference count structure. ">
<polygon fill="none" stroke="#000000" points="1079.5,-570 1079.5,-589 1183.5,-589 1183.5,-570 1079.5,-570"/>
<text text-anchor="middle" x="1131.5" y="-577" font-family="Helvetica,sans-Serif" font-size="10.00" fill="#000000">Urho3D::RefCount</text>
</a>
</g>
</g>
<!-- Node14&#45;&gt;Node103 -->
<g id="edge34" class="edge">
<title>Node14&#45;&gt;Node103</title>
<path fill="none" stroke="#9a32cd" stroke-dasharray="5,2" d="M1194.0052,-578.8714C1307.1892,-577.2096 1553.5098,-571.1903 1760,-549.5 1765.794,-548.8914 1771.7779,-548.1573 1777.7835,-547.3451"/>
<polygon fill="#9a32cd" stroke="#9a32cd" points="1193.7492,-575.3746 1183.7994,-579.0147 1193.8475,-582.3739 1193.7492,-575.3746"/>
<text text-anchor="middle" x="1489.5" y="-574.5" font-family="Helvetica,sans-Serif" font-size="10.00" fill="#000000"> refCount_</text>
</g>
<!-- Node14&#45;&gt;Node105 -->
<g id="edge33" class="edge">
<title>Node14&#45;&gt;Node105</title>
<path fill="none" stroke="#9a32cd" stroke-dasharray="5,2" d="M1166.3611,-566.4366C1207.8783,-550.8789 1277.0903,-524.9433 1320.819,-508.5569"/>
<polygon fill="#9a32cd" stroke="#9a32cd" points="1165.0734,-563.1814 1156.9374,-569.9679 1167.5297,-569.7363 1165.0734,-563.1814"/>
<text text-anchor="middle" x="1243.5" y="-550.5" font-family="Helvetica,sans-Serif" font-size="10.00" fill="#000000"> refCount_</text>
</g>
<!-- Node14&#45;&gt;Node166 -->
<g id="edge38" class="edge">
<title>Node14&#45;&gt;Node166</title>
<path fill="none" stroke="#9a32cd" stroke-dasharray="5,2" d="M1176.9355,-591.543C1222.9742,-602.6736 1296.4199,-617.5 1361,-617.5 1361,-617.5 1361,-617.5 2084.5,-617.5 2183.2319,-617.5 2290.3942,-559.7963 2336.8347,-531.6207"/>
<polygon fill="#9a32cd" stroke="#9a32cd" points="1177.5227,-588.0831 1166.9757,-589.089 1175.848,-594.8798 1177.5227,-588.0831"/>
<text text-anchor="middle" x="1723.5" y="-620.5" font-family="Helvetica,sans-Serif" font-size="10.00" fill="#000000"> refCount_</text>
</g>
<!-- Node166&#45;&gt;Node8 -->
<g id="edge36" class="edge">
<title>Node166&#45;&gt;Node8</title>
<path fill="none" stroke="#9a32cd" stroke-dasharray="5,2" d="M2316.7749,-497.8524C2301.0638,-492.0631 2283.0181,-486.4342 2266,-483.5 2226.5631,-476.7004 2181.5862,-476.4012 2146.2718,-477.8262"/>
<polygon fill="#9a32cd" stroke="#9a32cd" points="2315.6347,-501.1633 2326.2255,-501.4551 2318.1282,-494.6225 2315.6347,-501.1633"/>
<text text-anchor="middle" x="2215" y="-486.5" font-family="Helvetica,sans-Serif" font-size="10.00" fill="#000000"> attachedConstraint_</text>
</g>
</g>
</svg>
