<?xml version="1.0" encoding="UTF-8" standalone="no"?>
<!DOCTYPE svg PUBLIC "-//W3C//DTD SVG 1.1//EN"
 "http://www.w3.org/Graphics/SVG/1.1/DTD/svg11.dtd">
<!-- Generated by graphviz version 2.43.0 (0)
 -->
<!-- Title: Urho3D::RigidBody::SetAngularVelocity Pages: 1 -->
<!--zoomable 529 -->
<svg id="main" version="1.1" xmlns="http://www.w3.org/2000/svg" xmlns:xlink="http://www.w3.org/1999/xlink" xml:space="preserve" onload="init(evt)">
<style type="text/css"><![CDATA[
.edge:hover path { stroke: red; }
.edge:hover polygon { stroke: red; fill: red; }
]]></style>
<script type="text/javascript"><![CDATA[
var edges = document.getElementsByTagName('g');
if (edges && edges.length) {
  for (var i=0;i<edges.length;i++) {
    if (edges[i].id.substr(0,4)=='edge') {
      edges[i].setAttribute('class','edge');
    }
  }
}
]]></script>
        <defs>
                <circle id="rim" cx="0" cy="0" r="7"/>
                <circle id="rim2" cx="0" cy="0" r="3.5"/>
                <g id="zoomPlus">
                        <use xlink:href="#rim" fill="#404040">
                                <set attributeName="fill" to="#808080" begin="zoomplus.mouseover" end="zoomplus.mouseout"/>
                        </use>
                        <path d="M-4,0h8M0,-4v8" fill="none" stroke="white" stroke-width="1.5" pointer-events="none"/>
                </g>
                <g id="zoomMin">
                        <use xlink:href="#rim" fill="#404040">
                                <set attributeName="fill" to="#808080" begin="zoomminus.mouseover" end="zoomminus.mouseout"/>
                        </use>
                        <path d="M-4,0h8" fill="none" stroke="white" stroke-width="1.5" pointer-events="none"/>
                </g>
                <g id="dirArrow">
                        <path fill="none" stroke="white" stroke-width="1.5" d="M0,-3.0v7 M-2.5,-0.5L0,-3.0L2.5,-0.5"/>
                </g>
               <g id="resetDef">
                       <use xlink:href="#rim2" fill="#404040">
                               <set attributeName="fill" to="#808080" begin="reset.mouseover" end="reset.mouseout"/>
                       </use>
               </g>
        </defs>

<script type="text/javascript">
var viewWidth = 484;
var viewHeight = 529;
var sectionId = 'dynsection-27';
</script>
<script xlink:href="svgpan.js"/>
<svg id="graph" class="graph">
<g id="viewport">
<title>Urho3D::RigidBody::SetAngularVelocity</title>
<!-- Node1 -->
<g id="node1" class="node">
<title>Node1</title>
<g id="a_node1"><a xlink:title=" ">
<polygon fill="#bfbfbf" stroke="black" points="362,-44.5 362,-74.5 476,-74.5 476,-44.5 362,-44.5"/>
<text text-anchor="start" x="370" y="-62.5" font-family="Helvetica,sans-Serif" font-size="10.00">Urho3D::RigidBody::</text>
<text text-anchor="middle" x="419" y="-51.5" font-family="Helvetica,sans-Serif" font-size="10.00">SetAngularVelocity</text>
</a>
</g>
</g>
<!-- Node2 -->
<g id="node2" class="node">
<title>Node2</title>
<g id="a_node2"><a xlink:href="class_urho3_d_1_1_rigid_body.html#a84c961b128867e4b196defc0973d3e03" target="_top" xlink:title="Create the rigid body, or re&#45;add to the physics world with changed flags. Calls UpdateMass().">
<polygon fill="none" stroke="black" points="197,-245.5 197,-275.5 311,-275.5 311,-245.5 197,-245.5"/>
<text text-anchor="start" x="205" y="-263.5" font-family="Helvetica,sans-Serif" font-size="10.00">Urho3D::RigidBody::</text>
<text text-anchor="middle" x="254" y="-252.5" font-family="Helvetica,sans-Serif" font-size="10.00">AddBodyToWorld</text>
</a>
</g>
</g>
<!-- Node1&#45;&gt;Node2 -->
<g id="edge1" class="edge">
<title>Node1&#45;&gt;Node2</title>
<path fill="none" stroke="midnightblue" d="M399.32,-82.53C365.6,-124.12 295.42,-210.65 267.17,-245.49"/>
<polygon fill="midnightblue" stroke="midnightblue" points="402.17,-84.58 405.75,-74.61 396.73,-80.17 402.17,-84.58"/>
</g>
<!-- Node13 -->
<g id="node13" class="node">
<title>Node13</title>
<g id="a_node13"><a xlink:href="class_urho3_d_1_1_rigid_body.html#a290f1f44cc003d8c7c5c419b3bfd4c3a" target="_top" xlink:title="Register object factory.">
<polygon fill="none" stroke="black" points="16,-0.5 16,-30.5 130,-30.5 130,-0.5 16,-0.5"/>
<text text-anchor="start" x="24" y="-18.5" font-family="Helvetica,sans-Serif" font-size="10.00">Urho3D::RigidBody::</text>
<text text-anchor="middle" x="73" y="-7.5" font-family="Helvetica,sans-Serif" font-size="10.00">RegisterObject</text>
</a>
</g>
</g>
<!-- Node1&#45;&gt;Node13 -->
<g id="edge12" class="edge">
<title>Node1&#45;&gt;Node13</title>
<path fill="none" stroke="midnightblue" d="M351.81,-56.27C304.35,-53.38 238.99,-48.21 182,-39.5 165.01,-36.9 146.69,-33.19 130.06,-29.46"/>
<polygon fill="midnightblue" stroke="midnightblue" points="351.77,-59.77 361.96,-56.87 352.19,-52.79 351.77,-59.77"/>
</g>
<!-- Node14 -->
<g id="node14" class="node">
<title>Node14</title>
<g id="a_node14"><a xlink:href="class_urho3_d_1_1_rigid_body.html#a3daa1d0c6bbb44a9810d5f9303030970" target="_top" xlink:title="Set network angular velocity attribute.">
<polygon fill="none" stroke="black" points="182,-0.5 182,-30.5 326,-30.5 326,-0.5 182,-0.5"/>
<text text-anchor="start" x="190" y="-18.5" font-family="Helvetica,sans-Serif" font-size="10.00">Urho3D::RigidBody::</text>
<text text-anchor="middle" x="254" y="-7.5" font-family="Helvetica,sans-Serif" font-size="10.00">SetNetAngularVelocityAttr</text>
</a>
</g>
</g>
<!-- Node1&#45;&gt;Node14 -->
<g id="edge13" class="edge">
<title>Node1&#45;&gt;Node14</title>
<path fill="none" stroke="midnightblue" d="M352.42,-41.8C338.58,-38.06 324.1,-34.15 310.67,-30.53"/>
<polygon fill="midnightblue" stroke="midnightblue" points="351.79,-45.25 362.36,-44.48 353.62,-38.5 351.79,-45.25"/>
</g>
<!-- Node3 -->
<g id="node3" class="node">
<title>Node3</title>
<g id="a_node3"><a xlink:href="class_urho3_d_1_1_rigid_body.html#a1686b217b7bae694bd1f7473982c3bde" target="_top" xlink:title="Apply attribute changes that can not be applied immediately. Called after scene load or a network upd...">
<polygon fill="none" stroke="black" points="16,-490.5 16,-520.5 130,-520.5 130,-490.5 16,-490.5"/>
<text text-anchor="start" x="24" y="-508.5" font-family="Helvetica,sans-Serif" font-size="10.00">Urho3D::RigidBody::</text>
<text text-anchor="middle" x="73" y="-497.5" font-family="Helvetica,sans-Serif" font-size="10.00">ApplyAttributes</text>
</a>
</g>
</g>
<!-- Node2&#45;&gt;Node3 -->
<g id="edge2" class="edge">
<title>Node2&#45;&gt;Node3</title>
<path fill="none" stroke="midnightblue" d="M247.67,-285.49C236.68,-331.01 207.22,-427.71 146,-481.5 141.35,-485.59 135.98,-488.98 130.31,-491.8"/>
<polygon fill="midnightblue" stroke="midnightblue" points="251.12,-286.11 249.96,-275.58 244.3,-284.53 251.12,-286.11"/>
</g>
<!-- Node4 -->
<g id="node4" class="node">
<title>Node4</title>
<g id="a_node4"><a xlink:href="class_urho3_d_1_1_rigid_body.html#a35e4e2fa8e216fdf3ac1f20a86820e28" target="_top" xlink:title="Handle scene being assigned.">
<polygon fill="none" stroke="black" points="16,-441.5 16,-471.5 130,-471.5 130,-441.5 16,-441.5"/>
<text text-anchor="start" x="24" y="-459.5" font-family="Helvetica,sans-Serif" font-size="10.00">Urho3D::RigidBody::</text>
<text text-anchor="middle" x="73" y="-448.5" font-family="Helvetica,sans-Serif" font-size="10.00">OnSceneSet</text>
</a>
</g>
</g>
<!-- Node2&#45;&gt;Node4 -->
<g id="edge3" class="edge">
<title>Node2&#45;&gt;Node4</title>
<path fill="none" stroke="midnightblue" d="M244.03,-285.15C229.26,-322.37 196.35,-392.78 146,-432.5 141.24,-436.25 135.87,-439.43 130.26,-442.13"/>
<polygon fill="midnightblue" stroke="midnightblue" points="247.38,-286.18 247.71,-275.59 240.85,-283.66 247.38,-286.18"/>
</g>
<!-- Node5 -->
<g id="node5" class="node">
<title>Node5</title>
<g id="a_node5"><a xlink:href="class_urho3_d_1_1_rigid_body.html#a8dcd771562cd610ae04f1bd46772fd28" target="_top" xlink:title="Handle enabled/disabled state change.">
<polygon fill="none" stroke="black" points="16,-392.5 16,-422.5 130,-422.5 130,-392.5 16,-392.5"/>
<text text-anchor="start" x="24" y="-410.5" font-family="Helvetica,sans-Serif" font-size="10.00">Urho3D::RigidBody::</text>
<text text-anchor="middle" x="73" y="-399.5" font-family="Helvetica,sans-Serif" font-size="10.00">OnSetEnabled</text>
</a>
</g>
</g>
<!-- Node2&#45;&gt;Node5 -->
<g id="edge4" class="edge">
<title>Node2&#45;&gt;Node5</title>
<path fill="none" stroke="midnightblue" d="M238.08,-284.31C219.64,-311.9 185.77,-356.97 146,-383.5 140.96,-386.86 135.4,-389.79 129.68,-392.34"/>
<polygon fill="midnightblue" stroke="midnightblue" points="241.19,-285.96 243.73,-275.67 235.33,-282.13 241.19,-285.96"/>
</g>
<!-- Node6 -->
<g id="node6" class="node">
<title>Node6</title>
<g id="a_node6"><a xlink:href="class_urho3_d_1_1_rigid_body.html#ab383b16970f61b3d10f776ce6d616abf" target="_top" xlink:title="Readd rigid body to the physics world to clean up internal state like stale contacts.">
<polygon fill="none" stroke="black" points="16,-343.5 16,-373.5 130,-373.5 130,-343.5 16,-343.5"/>
<text text-anchor="start" x="24" y="-361.5" font-family="Helvetica,sans-Serif" font-size="10.00">Urho3D::RigidBody::</text>
<text text-anchor="middle" x="73" y="-350.5" font-family="Helvetica,sans-Serif" font-size="10.00">ReAddBodyToWorld</text>
</a>
</g>
</g>
<!-- Node2&#45;&gt;Node6 -->
<g id="edge5" class="edge">
<title>Node2&#45;&gt;Node6</title>
<path fill="none" stroke="midnightblue" d="M226.63,-281.91C205.74,-298.06 175.3,-319.86 146,-334.5 139.4,-337.8 132.24,-340.8 125.09,-343.48"/>
<polygon fill="midnightblue" stroke="midnightblue" points="228.98,-284.51 234.69,-275.59 224.66,-279 228.98,-284.51"/>
</g>
<!-- Node7 -->
<g id="node7" class="node">
<title>Node7</title>
<g id="a_node7"><a xlink:href="class_urho3_d_1_1_rigid_body.html#a24a23993e8838edd5584aac3cda90b8e" target="_top" xlink:title=" ">
<polygon fill="none" stroke="black" points="16,-294.5 16,-324.5 130,-324.5 130,-294.5 16,-294.5"/>
<text text-anchor="start" x="24" y="-312.5" font-family="Helvetica,sans-Serif" font-size="10.00">Urho3D::RigidBody::</text>
<text text-anchor="middle" x="73" y="-301.5" font-family="Helvetica,sans-Serif" font-size="10.00">SetCollisionLayer</text>
</a>
</g>
</g>
<!-- Node2&#45;&gt;Node7 -->
<g id="edge6" class="edge">
<title>Node2&#45;&gt;Node7</title>
<path fill="none" stroke="midnightblue" d="M188.16,-278.25C168.76,-283.56 147.69,-289.33 128.98,-294.45"/>
<polygon fill="midnightblue" stroke="midnightblue" points="189.11,-281.62 197.83,-275.6 187.26,-274.87 189.11,-281.62"/>
</g>
<!-- Node8 -->
<g id="node8" class="node">
<title>Node8</title>
<g id="a_node8"><a xlink:href="class_urho3_d_1_1_rigid_body.html#a2d5d30087883edbc985db5dfcda9e3a4" target="_top" xlink:title="Set collision group and mask.">
<polygon fill="none" stroke="black" points="0,-245.5 0,-275.5 146,-275.5 146,-245.5 0,-245.5"/>
<text text-anchor="start" x="8" y="-263.5" font-family="Helvetica,sans-Serif" font-size="10.00">Urho3D::RigidBody::</text>
<text text-anchor="middle" x="73" y="-252.5" font-family="Helvetica,sans-Serif" font-size="10.00">SetCollisionLayerAndMask</text>
</a>
</g>
</g>
<!-- Node2&#45;&gt;Node8 -->
<g id="edge7" class="edge">
<title>Node2&#45;&gt;Node8</title>
<path fill="none" stroke="midnightblue" d="M186.47,-260.5C173.3,-260.5 159.41,-260.5 146.07,-260.5"/>
<polygon fill="midnightblue" stroke="midnightblue" points="186.85,-264 196.85,-260.5 186.85,-257 186.85,-264"/>
</g>
<!-- Node9 -->
<g id="node9" class="node">
<title>Node9</title>
<g id="a_node9"><a xlink:href="class_urho3_d_1_1_rigid_body.html#a2858781be70b1e682c0eae44e5d048c0" target="_top" xlink:title=" ">
<polygon fill="none" stroke="black" points="16,-196.5 16,-226.5 130,-226.5 130,-196.5 16,-196.5"/>
<text text-anchor="start" x="24" y="-214.5" font-family="Helvetica,sans-Serif" font-size="10.00">Urho3D::RigidBody::</text>
<text text-anchor="middle" x="73" y="-203.5" font-family="Helvetica,sans-Serif" font-size="10.00">SetCollisionMask</text>
</a>
</g>
</g>
<!-- Node2&#45;&gt;Node9 -->
<g id="edge8" class="edge">
<title>Node2&#45;&gt;Node9</title>
<path fill="none" stroke="midnightblue" d="M188.16,-242.75C168.76,-237.44 147.69,-231.67 128.98,-226.55"/>
<polygon fill="midnightblue" stroke="midnightblue" points="187.26,-246.13 197.83,-245.4 189.11,-239.38 187.26,-246.13"/>
</g>
<!-- Node10 -->
<g id="node10" class="node">
<title>Node10</title>
<g id="a_node10"><a xlink:href="class_urho3_d_1_1_rigid_body.html#a6c5c56ca86c34e33b38918bb331bbc8d" target="_top" xlink:title=" ">
<polygon fill="none" stroke="black" points="16,-147.5 16,-177.5 130,-177.5 130,-147.5 16,-147.5"/>
<text text-anchor="start" x="24" y="-165.5" font-family="Helvetica,sans-Serif" font-size="10.00">Urho3D::RigidBody::</text>
<text text-anchor="middle" x="73" y="-154.5" font-family="Helvetica,sans-Serif" font-size="10.00">SetKinematic</text>
</a>
</g>
</g>
<!-- Node2&#45;&gt;Node10 -->
<g id="edge9" class="edge">
<title>Node2&#45;&gt;Node10</title>
<path fill="none" stroke="midnightblue" d="M226.15,-239.22C205.22,-223.38 174.95,-202.08 146,-187.5 138.79,-183.87 130.93,-180.55 123.14,-177.6"/>
<polygon fill="midnightblue" stroke="midnightblue" points="224.17,-242.11 234.24,-245.42 228.43,-236.56 224.17,-242.11"/>
</g>
<!-- Node11 -->
<g id="node11" class="node">
<title>Node11</title>
<g id="a_node11"><a xlink:href="class_urho3_d_1_1_rigid_body.html#a6325b57ef1e750c7f2f6b9ba4123760b" target="_top" xlink:title=" ">
<polygon fill="none" stroke="black" points="16,-98.5 16,-128.5 130,-128.5 130,-98.5 16,-98.5"/>
<text text-anchor="start" x="24" y="-116.5" font-family="Helvetica,sans-Serif" font-size="10.00">Urho3D::RigidBody::</text>
<text text-anchor="middle" x="73" y="-105.5" font-family="Helvetica,sans-Serif" font-size="10.00">SetMass</text>
</a>
</g>
</g>
<!-- Node2&#45;&gt;Node11 -->
<g id="edge10" class="edge">
<title>Node2&#45;&gt;Node11</title>
<path fill="none" stroke="midnightblue" d="M237.68,-236.54C219.08,-209.22 185.26,-164.93 146,-138.5 140.29,-134.66 133.93,-131.34 127.42,-128.5"/>
<polygon fill="midnightblue" stroke="midnightblue" points="234.93,-238.72 243.4,-245.1 240.76,-234.84 234.93,-238.72"/>
</g>
<!-- Node12 -->
<g id="node12" class="node">
<title>Node12</title>
<g id="a_node12"><a xlink:href="class_urho3_d_1_1_rigid_body.html#ab4879b880e0ee7c2a32d37207cd1b3f5" target="_top" xlink:title=" ">
<polygon fill="none" stroke="black" points="16,-49.5 16,-79.5 130,-79.5 130,-49.5 16,-49.5"/>
<text text-anchor="start" x="24" y="-67.5" font-family="Helvetica,sans-Serif" font-size="10.00">Urho3D::RigidBody::</text>
<text text-anchor="middle" x="73" y="-56.5" font-family="Helvetica,sans-Serif" font-size="10.00">SetTrigger</text>
</a>
</g>
</g>
<!-- Node2&#45;&gt;Node12 -->
<g id="edge11" class="edge">
<title>Node2&#45;&gt;Node12</title>
<path fill="none" stroke="midnightblue" d="M243.82,-235.79C228.86,-198.82 195.81,-129.2 146,-89.5 141.14,-85.62 135.63,-82.33 129.89,-79.53"/>
<polygon fill="midnightblue" stroke="midnightblue" points="240.64,-237.28 247.55,-245.3 247.15,-234.72 240.64,-237.28"/>
</g>
<!-- Node14&#45;&gt;Node13 -->
<g id="edge14" class="edge">
<title>Node14&#45;&gt;Node13</title>
<path fill="none" stroke="midnightblue" d="M171.78,-15.5C157.66,-15.5 143.27,-15.5 130.01,-15.5"/>
<polygon fill="midnightblue" stroke="midnightblue" points="172,-19 182,-15.5 172,-12 172,-19"/>
</g>
</g>
</svg>
        <g id="navigator" transform="translate(0 0)" fill="#404254">
                <rect fill="#f2f5e9" fill-opacity="0.5" stroke="#606060" stroke-width=".5" x="0" y="0" width="60" height="60"/>
                <use id="zoomplus" xlink:href="#zoomPlus" x="17" y="9" onmousedown="handleZoom(evt,'in')"/>
                <use id="zoomminus" xlink:href="#zoomMin" x="42" y="9" onmousedown="handleZoom(evt,'out')"/>
                <use id="reset" xlink:href="#resetDef" x="30" y="36" onmousedown="handleReset()"/>
                <g id="arrowUp" xlink:href="#dirArrow" transform="translate(30 24)" onmousedown="handlePan(0,-1)">
                  <use xlink:href="#rim" fill="#404040">
                        <set attributeName="fill" to="#808080" begin="arrowUp.mouseover" end="arrowUp.mouseout"/>
                  </use>
                  <path fill="none" stroke="white" stroke-width="1.5" d="M0,-3.0v7 M-2.5,-0.5L0,-3.0L2.5,-0.5"/>
                </g>
                <g id="arrowRight" xlink:href="#dirArrow" transform="rotate(90) translate(36 -43)" onmousedown="handlePan(1,0)">
                  <use xlink:href="#rim" fill="#404040">
                        <set attributeName="fill" to="#808080" begin="arrowRight.mouseover" end="arrowRight.mouseout"/>
                  </use>
                  <path fill="none" stroke="white" stroke-width="1.5" d="M0,-3.0v7 M-2.5,-0.5L0,-3.0L2.5,-0.5"/>
                </g>
                <g id="arrowDown" xlink:href="#dirArrow" transform="rotate(180) translate(-30 -48)" onmousedown="handlePan(0,1)">
                  <use xlink:href="#rim" fill="#404040">
                        <set attributeName="fill" to="#808080" begin="arrowDown.mouseover" end="arrowDown.mouseout"/>
                  </use>
                  <path fill="none" stroke="white" stroke-width="1.5" d="M0,-3.0v7 M-2.5,-0.5L0,-3.0L2.5,-0.5"/>
                </g>
                <g id="arrowLeft" xlink:href="#dirArrow" transform="rotate(270) translate(-36 17)" onmousedown="handlePan(-1,0)">
                  <use xlink:href="#rim" fill="#404040">
                        <set attributeName="fill" to="#808080" begin="arrowLeft.mouseover" end="arrowLeft.mouseout"/>
                  </use>
                  <path fill="none" stroke="white" stroke-width="1.5" d="M0,-3.0v7 M-2.5,-0.5L0,-3.0L2.5,-0.5"/>
                </g>
        </g>
        <svg viewBox="0 0 15 15" width="100%" height="30px" preserveAspectRatio="xMaxYMin meet">
         <g id="arrow_out" transform="scale(0.3 0.3)">
          <a xlink:href="class_urho3_d_1_1_rigid_body_a0df5cff91b5c733ed89b5a1e653fa9ca_icgraph_org.svg" target="_base">
           <rect id="button" ry="5" rx="5" y="6" x="6" height="38" width="38"
                fill="#f2f5e9" fill-opacity="0.5" stroke="#606060" stroke-width="1.0"/>
           <path id="arrow"
             d="M 11.500037,31.436501 C 11.940474,20.09759 22.043105,11.32322 32.158766,21.979434 L 37.068811,17.246167 C 37.068811,17.246167 37.088388,32 37.088388,32 L 22.160133,31.978069 C 22.160133,31.978069 26.997745,27.140456 26.997745,27.140456 C 18.528582,18.264221 13.291696,25.230495 11.500037,31.436501 z"
             style="fill:#404040;"/>
          </a>
         </g>
        </svg>
</svg>
