<?xml version="1.0" encoding="UTF-8" standalone="no"?>
<!DOCTYPE svg PUBLIC "-//W3C//DTD SVG 1.1//EN"
 "http://www.w3.org/Graphics/SVG/1.1/DTD/svg11.dtd">
<!-- Generated by graphviz version 2.26.3 (20100126.1600)
 -->
<!-- Title: Urho3D::Texture2D Pages: 1 -->
<svg width="1862pt" height="520pt"
 viewBox="0.00 0.00 1862.00 520.00" xmlns="http://www.w3.org/2000/svg" xmlns:xlink="http://www.w3.org/1999/xlink">
<g id="graph1" class="graph" transform="scale(1 1) rotate(0) translate(4 516)">
<title>Urho3D::Texture2D</title>
<!-- Node1 -->
<g id="node1" class="node"><title>Node1</title>
<polygon fill="#bfbfbf" stroke="black" points="1746.5,-296.5 1746.5,-317.5 1853.5,-317.5 1853.5,-296.5 1746.5,-296.5"/>
<text text-anchor="middle" x="1800" y="-304.5" font-family="FreeSans" font-size="10.00">Urho3D::Texture2D</text>
</g>
<!-- Node2 -->
<g id="node2" class="node"><title>Node2</title>
<a xlink:href="class_urho3_d_1_1_texture.html" target="_top" xlink:title="Base class for texture resources.">
<polygon fill="none" stroke="black" points="949,-172.5 949,-193.5 1043,-193.5 1043,-172.5 949,-172.5"/>
<text text-anchor="middle" x="996" y="-180.5" font-family="FreeSans" font-size="10.00">Urho3D::Texture</text>
</a>
</g>
<!-- Node2&#45;&gt;Node1 -->
<g id="edge2" class="edge"><title>Node2&#45;&gt;Node1</title>
<path fill="none" stroke="midnightblue" d="M1053.61,-181.59C1188.96,-178.81 1523.93,-175.175 1632,-204 1697.45,-221.458 1762.16,-273.526 1788.12,-296.223"/>
<polygon fill="midnightblue" stroke="midnightblue" points="1053.37,-178.094 1043.45,-181.805 1053.52,-185.093 1053.37,-178.094"/>
</g>
<!-- Node14 -->
<g id="node29" class="node"><title>Node14</title>
<a xlink:href="class_urho3_d_1_1_shared_ptr.html" target="_top" xlink:title="Urho3D::SharedPtr\&lt;\l Urho3D::Texture \&gt;">
<polygon fill="none" stroke="black" points="1211,-112 1211,-146 1327,-146 1327,-112 1211,-112"/>
<text text-anchor="start" x="1219" y="-133" font-family="FreeSans" font-size="10.00">Urho3D::SharedPtr&lt;</text>
<text text-anchor="middle" x="1269" y="-120" font-family="FreeSans" font-size="10.00"> Urho3D::Texture &gt;</text>
</a>
</g>
<!-- Node2&#45;&gt;Node14 -->
<g id="edge34" class="edge"><title>Node2&#45;&gt;Node14</title>
<path fill="none" stroke="#9a32cd" stroke-dasharray="5,2" d="M1019.61,-166.796C1041.43,-152.871 1075.33,-133.836 1108,-126 1141.44,-117.981 1179.91,-118.36 1210.86,-120.919"/>
<polygon fill="#9a32cd" stroke="#9a32cd" points="1017.49,-164.001 1011.04,-172.403 1021.32,-169.859 1017.49,-164.001"/>
<text text-anchor="middle" x="1147" y="-130" font-family="FreeSans" font-size="10.00"> ptr_</text>
</g>
<!-- Node20 -->
<g id="node45" class="node"><title>Node20</title>
<a xlink:href="class_urho3_d_1_1_render_surface.html" target="_top" xlink:title="Color or depth&#45;stencil surface that can be rendered into.">
<polygon fill="none" stroke="black" points="1204.5,-241.5 1204.5,-262.5 1333.5,-262.5 1333.5,-241.5 1204.5,-241.5"/>
<text text-anchor="middle" x="1269" y="-249.5" font-family="FreeSans" font-size="10.00">Urho3D::RenderSurface</text>
</a>
</g>
<!-- Node2&#45;&gt;Node20 -->
<g id="edge60" class="edge"><title>Node2&#45;&gt;Node20</title>
<path fill="none" stroke="#9a32cd" stroke-dasharray="5,2" d="M1053.06,-193.565C1091,-201.019 1141.8,-211.818 1186,-224 1204.33,-229.051 1224.54,-235.845 1240.44,-241.476"/>
<polygon fill="#9a32cd" stroke="#9a32cd" points="1053.69,-190.123 1043.21,-191.649 1052.36,-196.994 1053.69,-190.123"/>
<text text-anchor="middle" x="1147" y="-228" font-family="FreeSans" font-size="10.00"> parentTexture_</text>
</g>
<!-- Node3 -->
<g id="node4" class="node"><title>Node3</title>
<a xlink:href="class_urho3_d_1_1_resource.html" target="_top" xlink:title="Base class for resources.">
<polygon fill="none" stroke="black" points="677.5,-364.5 677.5,-385.5 780.5,-385.5 780.5,-364.5 677.5,-364.5"/>
<text text-anchor="middle" x="729" y="-372.5" font-family="FreeSans" font-size="10.00">Urho3D::Resource</text>
</a>
</g>
<!-- Node3&#45;&gt;Node2 -->
<g id="edge4" class="edge"><title>Node3&#45;&gt;Node2</title>
<path fill="none" stroke="midnightblue" d="M743.458,-355.899C770.649,-321.323 832.921,-248.305 902,-209 916.275,-200.878 933.228,-195.178 948.78,-191.231"/>
<polygon fill="midnightblue" stroke="midnightblue" points="740.387,-354.148 737.029,-364.197 745.92,-358.436 740.387,-354.148"/>
</g>
<!-- Node17 -->
<g id="node37" class="node"><title>Node17</title>
<a xlink:href="class_urho3_d_1_1_image.html" target="_top" xlink:title="Image resource.">
<polygon fill="none" stroke="black" points="951.5,-352.5 951.5,-373.5 1040.5,-373.5 1040.5,-352.5 951.5,-352.5"/>
<text text-anchor="middle" x="996" y="-360.5" font-family="FreeSans" font-size="10.00">Urho3D::Image</text>
</a>
</g>
<!-- Node3&#45;&gt;Node17 -->
<g id="edge44" class="edge"><title>Node3&#45;&gt;Node17</title>
<path fill="none" stroke="midnightblue" d="M790.984,-372.214C840.099,-370.007 907.538,-366.976 951.438,-365.003"/>
<polygon fill="midnightblue" stroke="midnightblue" points="790.63,-368.727 780.797,-372.672 790.944,-375.719 790.63,-368.727"/>
</g>
<!-- Node24 -->
<g id="node56" class="node"><title>Node24</title>
<a xlink:href="class_urho3_d_1_1_x_m_l_file.html" target="_top" xlink:title="XML document resource.">
<polygon fill="none" stroke="black" points="949,-401.5 949,-422.5 1043,-422.5 1043,-401.5 949,-401.5"/>
<text text-anchor="middle" x="996" y="-409.5" font-family="FreeSans" font-size="10.00">Urho3D::XMLFile</text>
</a>
</g>
<!-- Node3&#45;&gt;Node24 -->
<g id="edge68" class="edge"><title>Node3&#45;&gt;Node24</title>
<path fill="none" stroke="midnightblue" d="M790.792,-383.563C838.959,-390.238 904.835,-399.367 948.822,-405.462"/>
<polygon fill="midnightblue" stroke="midnightblue" points="791.183,-380.084 780.797,-382.178 790.222,-387.017 791.183,-380.084"/>
</g>
<!-- Node4 -->
<g id="node6" class="node"><title>Node4</title>
<a xlink:href="class_urho3_d_1_1_object.html" target="_top" xlink:title="Base class for objects with type identification, subsystem access and event sending/receiving capabil...">
<polygon fill="none" stroke="black" points="442,-419.5 442,-440.5 532,-440.5 532,-419.5 442,-419.5"/>
<text text-anchor="middle" x="487" y="-427.5" font-family="FreeSans" font-size="10.00">Urho3D::Object</text>
</a>
</g>
<!-- Node4&#45;&gt;Node3 -->
<g id="edge6" class="edge"><title>Node4&#45;&gt;Node3</title>
<path fill="none" stroke="midnightblue" d="M542.243,-421.376C571.508,-416.344 607.935,-409.343 640,-401 648.161,-398.877 649.939,-397.477 658,-395 668.405,-391.802 679.728,-388.523 690.212,-385.569"/>
<polygon fill="midnightblue" stroke="midnightblue" points="541.485,-417.954 532.209,-423.072 542.652,-424.856 541.485,-417.954"/>
</g>
<!-- Node5 -->
<g id="node8" class="node"><title>Node5</title>
<a xlink:href="class_urho3_d_1_1_ref_counted.html" target="_top" xlink:title="Base class for intrusively reference&#45;counted objects. These are noncopyable and non&#45;assignable.">
<polygon fill="none" stroke="red" points="0,-399.5 0,-420.5 114,-420.5 114,-399.5 0,-399.5"/>
<text text-anchor="middle" x="57" y="-407.5" font-family="FreeSans" font-size="10.00">Urho3D::RefCounted</text>
</a>
</g>
<!-- Node5&#45;&gt;Node4 -->
<g id="edge8" class="edge"><title>Node5&#45;&gt;Node4</title>
<path fill="none" stroke="midnightblue" d="M109.145,-422.71C122.994,-425.609 137.995,-428.326 152,-430 255.081,-442.324 377.282,-437.462 441.824,-433.388"/>
<polygon fill="midnightblue" stroke="midnightblue" points="109.809,-419.272 99.2952,-420.579 108.329,-426.114 109.809,-419.272"/>
</g>
<!-- Node6 -->
<g id="node10" class="node"><title>Node6</title>
<a xlink:href="class_urho3_d_1_1_context.html" target="_top" xlink:title="Urho3D execution context. Provides access to subsystems, object factories and attributes, and event receivers.">
<polygon fill="none" stroke="red" points="176.5,-399.5 176.5,-420.5 273.5,-420.5 273.5,-399.5 176.5,-399.5"/>
<text text-anchor="middle" x="225" y="-407.5" font-family="FreeSans" font-size="10.00">Urho3D::Context</text>
</a>
</g>
<!-- Node5&#45;&gt;Node6 -->
<g id="edge12" class="edge"><title>Node5&#45;&gt;Node6</title>
<path fill="none" stroke="midnightblue" d="M124.425,-410C141.777,-410 160.111,-410 176.305,-410"/>
<polygon fill="midnightblue" stroke="midnightblue" points="124.346,-406.5 114.346,-410 124.346,-413.5 124.346,-406.5"/>
</g>
<!-- Node5&#45;&gt;Node20 -->
<g id="edge54" class="edge"><title>Node5&#45;&gt;Node20</title>
<path fill="none" stroke="midnightblue" d="M69.3175,-390.645C94.0557,-354.419 153.568,-280 225,-280 225,-280 225,-280 996,-280 1067.59,-280 1149.18,-270.355 1204.38,-262.386"/>
<polygon fill="midnightblue" stroke="midnightblue" points="66.1466,-389.094 63.5349,-399.362 71.9797,-392.963 66.1466,-389.094"/>
</g>
<!-- Node6&#45;&gt;Node4 -->
<g id="edge10" class="edge"><title>Node6&#45;&gt;Node4</title>
<path fill="none" stroke="#9a32cd" stroke-dasharray="5,2" d="M284.037,-413.886C316.993,-416.119 358.789,-419.059 396,-422 410.862,-423.175 427.078,-424.565 441.652,-425.855"/>
<polygon fill="#9a32cd" stroke="#9a32cd" points="283.877,-410.367 273.664,-413.186 283.406,-417.351 283.877,-410.367"/>
<text text-anchor="middle" x="356" y="-426" font-family="FreeSans" font-size="10.00"> context_</text>
</g>
<!-- Node7 -->
<g id="node13" class="node"><title>Node7</title>
<a xlink:href="class_urho3_d_1_1_linked_list.html" target="_top" xlink:title="Urho3D::LinkedList\l\&lt; Urho3D::EventHandler \&gt;">
<polygon fill="none" stroke="red" points="152,-347 152,-381 298,-381 298,-347 152,-347"/>
<text text-anchor="start" x="160" y="-368" font-family="FreeSans" font-size="10.00">Urho3D::LinkedList</text>
<text text-anchor="middle" x="225" y="-355" font-family="FreeSans" font-size="10.00">&lt; Urho3D::EventHandler &gt;</text>
</a>
</g>
<!-- Node7&#45;&gt;Node4 -->
<g id="edge14" class="edge"><title>Node7&#45;&gt;Node4</title>
<path fill="none" stroke="#9a32cd" stroke-dasharray="5,2" d="M308.087,-375.038C336.577,-380.375 368.257,-388.073 396,-399 404.723,-402.436 405.394,-406.28 414,-410 422.805,-413.806 432.525,-417.068 441.921,-419.786"/>
<polygon fill="#9a32cd" stroke="#9a32cd" points="308.616,-371.577 298.154,-373.247 307.374,-378.466 308.616,-371.577"/>
<text text-anchor="middle" x="356" y="-403" font-family="FreeSans" font-size="10.00"> eventHandlers_</text>
</g>
<!-- Node8 -->
<g id="node15" class="node"><title>Node8</title>
<a xlink:href="class_urho3_d_1_1_timer.html" target="_top" xlink:title="Low&#45;resolution operating system timer.">
<polygon fill="none" stroke="black" points="444,-379.5 444,-400.5 530,-400.5 530,-379.5 444,-379.5"/>
<text text-anchor="middle" x="487" y="-387.5" font-family="FreeSans" font-size="10.00">Urho3D::Timer</text>
</a>
</g>
<!-- Node8&#45;&gt;Node3 -->
<g id="edge16" class="edge"><title>Node8&#45;&gt;Node3</title>
<path fill="none" stroke="#9a32cd" stroke-dasharray="5,2" d="M540.283,-386.697C581.041,-384.171 636.918,-380.708 677.282,-378.206"/>
<polygon fill="#9a32cd" stroke="#9a32cd" points="540.029,-383.206 530.265,-387.318 540.462,-390.193 540.029,-383.206"/>
<text text-anchor="middle" x="609" y="-388" font-family="FreeSans" font-size="10.00"> useTimer_</text>
</g>
<!-- Node9 -->
<g id="node17" class="node"><title>Node9</title>
<a xlink:href="class_urho3_d_1_1_string.html" target="_top" xlink:title="String class.">
<polygon fill="none" stroke="black" points="443,-308.5 443,-329.5 531,-329.5 531,-308.5 443,-308.5"/>
<text text-anchor="middle" x="487" y="-316.5" font-family="FreeSans" font-size="10.00">Urho3D::String</text>
</a>
</g>
<!-- Node9&#45;&gt;Node3 -->
<g id="edge18" class="edge"><title>Node9&#45;&gt;Node3</title>
<path fill="none" stroke="#9a32cd" stroke-dasharray="5,2" d="M541.079,-331.514C583.933,-341.431 643.125,-355.128 683.555,-364.484"/>
<polygon fill="#9a32cd" stroke="#9a32cd" points="541.637,-328.051 531.105,-329.206 540.059,-334.871 541.637,-328.051"/>
<text text-anchor="middle" x="609" y="-357" font-family="FreeSans" font-size="10.00"> name_</text>
</g>
<!-- Node9&#45;&gt;Node9 -->
<g id="edge20" class="edge"><title>Node9&#45;&gt;Node9</title>
<path fill="none" stroke="#9a32cd" stroke-dasharray="5,2" d="M464.517,-339.427C466.251,-344.349 473.746,-348 487,-348 508.207,-348 514.669,-338.653 506.385,-329.708"/>
<polygon fill="#9a32cd" stroke="#9a32cd" points="467.912,-340.299 467.615,-329.708 461.243,-338.172 467.912,-340.299"/>
<text text-anchor="middle" x="487" y="-352" font-family="FreeSans" font-size="10.00"> EMPTY</text>
</g>
<!-- Node10 -->
<g id="node20" class="node"><title>Node10</title>
<a xlink:href="class_urho3_d_1_1_string_hash.html" target="_top" xlink:title="32&#45;bit hash value for a string.">
<polygon fill="none" stroke="black" points="430.5,-459.5 430.5,-480.5 543.5,-480.5 543.5,-459.5 430.5,-459.5"/>
<text text-anchor="middle" x="487" y="-467.5" font-family="FreeSans" font-size="10.00">Urho3D::StringHash</text>
</a>
</g>
<!-- Node10&#45;&gt;Node3 -->
<g id="edge22" class="edge"><title>Node10&#45;&gt;Node3</title>
<path fill="none" stroke="#9a32cd" stroke-dasharray="5,2" d="M537.534,-456.723C545.094,-454.573 552.772,-452.296 560,-450 596.045,-438.55 610.042,-444.083 640,-421 651.133,-412.422 646.561,-403.165 658,-395 663.837,-390.834 670.518,-387.533 677.394,-384.919"/>
<polygon fill="#9a32cd" stroke="#9a32cd" points="536.403,-453.406 527.714,-459.468 538.287,-460.147 536.403,-453.406"/>
<text text-anchor="middle" x="609" y="-448" font-family="FreeSans" font-size="10.00"> nameHash_</text>
</g>
<!-- Node10&#45;&gt;Node10 -->
<g id="edge24" class="edge"><title>Node10&#45;&gt;Node10</title>
<path fill="none" stroke="#9a32cd" stroke-dasharray="5,2" d="M464.517,-490.427C466.251,-495.349 473.746,-499 487,-499 508.207,-499 514.669,-489.653 506.385,-480.708"/>
<polygon fill="#9a32cd" stroke="#9a32cd" points="467.912,-491.299 467.615,-480.708 461.243,-489.172 467.912,-491.299"/>
<text text-anchor="middle" x="487" y="-503" font-family="FreeSans" font-size="10.00"> ZERO</text>
</g>
<!-- Node11 -->
<g id="node23" class="node"><title>Node11</title>
<a xlink:href="class_urho3_d_1_1_g_p_u_object.html" target="_top" xlink:title="Base class for GPU resources.">
<polygon fill="none" stroke="black" points="673.5,-201.5 673.5,-222.5 784.5,-222.5 784.5,-201.5 673.5,-201.5"/>
<text text-anchor="middle" x="729" y="-209.5" font-family="FreeSans" font-size="10.00">Urho3D::GPUObject</text>
</a>
</g>
<!-- Node11&#45;&gt;Node2 -->
<g id="edge26" class="edge"><title>Node11&#45;&gt;Node2</title>
<path fill="none" stroke="midnightblue" d="M794.596,-204.875C842.407,-199.682 906.055,-192.769 948.896,-188.116"/>
<polygon fill="midnightblue" stroke="midnightblue" points="794.211,-201.397 784.647,-205.956 794.966,-208.356 794.211,-201.397"/>
</g>
<!-- Node12 -->
<g id="node25" class="node"><title>Node12</title>
<a xlink:href="class_urho3_d_1_1_weak_ptr.html" target="_top" xlink:title="Urho3D::WeakPtr\&lt; Urho3D\l::Graphics \&gt;">
<polygon fill="none" stroke="red" points="414,-163 414,-197 560,-197 560,-163 414,-163"/>
<text text-anchor="start" x="422" y="-184" font-family="FreeSans" font-size="10.00">Urho3D::WeakPtr&lt; Urho3D</text>
<text text-anchor="middle" x="487" y="-171" font-family="FreeSans" font-size="10.00">::Graphics &gt;</text>
</a>
</g>
<!-- Node12&#45;&gt;Node11 -->
<g id="edge28" class="edge"><title>Node12&#45;&gt;Node11</title>
<path fill="none" stroke="#9a32cd" stroke-dasharray="5,2" d="M570.092,-190.8C592.766,-193.764 617.33,-196.99 640,-200 650.819,-201.436 662.376,-202.985 673.458,-204.476"/>
<polygon fill="#9a32cd" stroke="#9a32cd" points="570.532,-187.327 560.162,-189.503 569.625,-194.268 570.532,-187.327"/>
<text text-anchor="middle" x="609" y="-204" font-family="FreeSans" font-size="10.00"> graphics_</text>
</g>
<!-- Node13 -->
<g id="node27" class="node"><title>Node13</title>
<a xlink:href="union_urho3_d_1_1_g_p_u_object_handle.html" target="_top" xlink:title="API&#45;specific GPU object representation.">
<polygon fill="none" stroke="black" points="414.5,-215.5 414.5,-236.5 559.5,-236.5 559.5,-215.5 414.5,-215.5"/>
<text text-anchor="middle" x="487" y="-223.5" font-family="FreeSans" font-size="10.00">Urho3D::GPUObjectHandle</text>
</a>
</g>
<!-- Node13&#45;&gt;Node11 -->
<g id="edge30" class="edge"><title>Node13&#45;&gt;Node11</title>
<path fill="none" stroke="#9a32cd" stroke-dasharray="5,2" d="M569.598,-221.222C603.823,-219.242 642.621,-216.997 673.371,-215.218"/>
<polygon fill="#9a32cd" stroke="#9a32cd" points="569.389,-217.728 559.608,-221.8 569.793,-224.716 569.389,-217.728"/>
<text text-anchor="middle" x="609" y="-224" font-family="FreeSans" font-size="10.00"> object_</text>
</g>
<!-- Node14&#45;&gt;Node2 -->
<g id="edge32" class="edge"><title>Node14&#45;&gt;Node2</title>
<path fill="none" stroke="#9a32cd" stroke-dasharray="5,2" d="M1200.75,-139.355C1172.03,-143.995 1138.31,-149.814 1108,-156 1084.19,-160.86 1057.75,-167.189 1036.54,-172.497"/>
<polygon fill="#9a32cd" stroke="#9a32cd" points="1201.37,-142.801 1210.69,-137.764 1200.26,-135.889 1201.37,-142.801"/>
<text text-anchor="middle" x="1147" y="-160" font-family="FreeSans" font-size="10.00"> backupTexture_</text>
</g>
<!-- Node15 -->
<g id="node32" class="node"><title>Node15</title>
<a xlink:href="class_urho3_d_1_1_color.html" target="_top" xlink:title="RGBA color.">
<polygon fill="none" stroke="black" points="687,-0.5 687,-21.5 771,-21.5 771,-0.5 687,-0.5"/>
<text text-anchor="middle" x="729" y="-8.5" font-family="FreeSans" font-size="10.00">Urho3D::Color</text>
</a>
</g>
<!-- Node15&#45;&gt;Node2 -->
<g id="edge36" class="edge"><title>Node15&#45;&gt;Node2</title>
<path fill="none" stroke="#9a32cd" stroke-dasharray="5,2" d="M753.908,-27.0457C807.874,-61.81 934.363,-143.294 979.574,-172.418"/>
<polygon fill="#9a32cd" stroke="#9a32cd" points="755.602,-23.9737 745.3,-21.5005 751.811,-29.8584 755.602,-23.9737"/>
<text text-anchor="middle" x="851" y="-112" font-family="FreeSans" font-size="10.00"> borderColor_</text>
</g>
<!-- Node15&#45;&gt;Node15 -->
<g id="edge38" class="edge"><title>Node15&#45;&gt;Node15</title>
<path fill="none" stroke="#9a32cd" stroke-dasharray="5,2" d="M706.885,-31.4266C708.591,-36.3489 715.963,-40 729,-40 749.859,-40 756.215,-30.6531 748.067,-21.7079"/>
<polygon fill="#9a32cd" stroke="#9a32cd" points="710.28,-32.297 709.933,-21.7079 703.601,-30.2023 710.28,-32.297"/>
<text text-anchor="middle" x="729" y="-174" font-family="FreeSans" font-size="10.00"> CYAN</text>
<text text-anchor="middle" x="729" y="-161" font-family="FreeSans" font-size="10.00">GRAY</text>
<text text-anchor="middle" x="729" y="-148" font-family="FreeSans" font-size="10.00">YELLOW</text>
<text text-anchor="middle" x="729" y="-135" font-family="FreeSans" font-size="10.00">MAGENTA</text>
<text text-anchor="middle" x="729" y="-122" font-family="FreeSans" font-size="10.00">WHITE</text>
<text text-anchor="middle" x="729" y="-109" font-family="FreeSans" font-size="10.00">TRANSPARENT</text>
<text text-anchor="middle" x="729" y="-96" font-family="FreeSans" font-size="10.00">BLUE</text>
<text text-anchor="middle" x="729" y="-83" font-family="FreeSans" font-size="10.00">BLACK</text>
<text text-anchor="middle" x="729" y="-70" font-family="FreeSans" font-size="10.00">RED</text>
<text text-anchor="middle" x="729" y="-57" font-family="FreeSans" font-size="10.00">GREEN</text>
<text text-anchor="middle" x="729" y="-44" font-family="FreeSans" font-size="10.00">...</text>
</g>
<!-- Node16 -->
<g id="node35" class="node"><title>Node16</title>
<a xlink:href="class_urho3_d_1_1_shared_ptr.html" target="_top" xlink:title="Urho3D::SharedPtr\&lt;\l Urho3D::Image \&gt;">
<polygon fill="none" stroke="black" points="1211,-325 1211,-359 1327,-359 1327,-325 1211,-325"/>
<text text-anchor="start" x="1219" y="-346" font-family="FreeSans" font-size="10.00">Urho3D::SharedPtr&lt;</text>
<text text-anchor="middle" x="1269" y="-333" font-family="FreeSans" font-size="10.00"> Urho3D::Image &gt;</text>
</a>
</g>
<!-- Node16&#45;&gt;Node1 -->
<g id="edge40" class="edge"><title>Node16&#45;&gt;Node1</title>
<path fill="none" stroke="#9a32cd" stroke-dasharray="5,2" d="M1337.12,-337.51C1444.03,-330.463 1649.02,-316.951 1746.27,-310.542"/>
<polygon fill="#9a32cd" stroke="#9a32cd" points="1336.84,-334.021 1327.09,-338.171 1337.3,-341.006 1336.84,-334.021"/>
<text text-anchor="middle" x="1559" y="-331" font-family="FreeSans" font-size="10.00"> loadImage_</text>
</g>
<!-- Node16&#45;&gt;Node17 -->
<g id="edge48" class="edge"><title>Node16&#45;&gt;Node17</title>
<path fill="none" stroke="#9a32cd" stroke-dasharray="5,2" d="M1200.78,-347.248C1150.74,-351.097 1084.22,-356.214 1040.77,-359.556"/>
<polygon fill="#9a32cd" stroke="#9a32cd" points="1201.17,-350.728 1210.87,-346.471 1200.63,-343.749 1201.17,-350.728"/>
<text text-anchor="middle" x="1147" y="-371" font-family="FreeSans" font-size="10.00"> nextLevel_</text>
<text text-anchor="middle" x="1147" y="-358" font-family="FreeSans" font-size="10.00">nextSibling_</text>
</g>
<!-- Node17&#45;&gt;Node16 -->
<g id="edge42" class="edge"><title>Node17&#45;&gt;Node16</title>
<path fill="none" stroke="#9a32cd" stroke-dasharray="5,2" d="M1031.62,-348.828C1053.31,-340.969 1081.8,-331.998 1108,-328 1142.27,-322.77 1151.45,-325.107 1186,-328 1194.01,-328.671 1202.41,-329.699 1210.66,-330.901"/>
<polygon fill="#9a32cd" stroke="#9a32cd" points="1030.32,-345.576 1022.17,-352.338 1032.76,-352.139 1030.32,-345.576"/>
<text text-anchor="middle" x="1147" y="-332" font-family="FreeSans" font-size="10.00"> ptr_</text>
</g>
<!-- Node18 -->
<g id="node40" class="node"><title>Node18</title>
<a xlink:href="class_urho3_d_1_1_shared_array_ptr.html" target="_top" xlink:title="Urho3D::SharedArrayPtr\l\&lt; unsigned char \&gt;">
<polygon fill="none" stroke="red" points="662.5,-404 662.5,-438 795.5,-438 795.5,-404 662.5,-404"/>
<text text-anchor="start" x="670.5" y="-425" font-family="FreeSans" font-size="10.00">Urho3D::SharedArrayPtr</text>
<text text-anchor="middle" x="729" y="-412" font-family="FreeSans" font-size="10.00">&lt; unsigned char &gt;</text>
</a>
</g>
<!-- Node18&#45;&gt;Node17 -->
<g id="edge46" class="edge"><title>Node18&#45;&gt;Node17</title>
<path fill="none" stroke="#9a32cd" stroke-dasharray="5,2" d="M805.58,-404.365C852.825,-394.102 911.773,-381.297 951.464,-372.674"/>
<polygon fill="#9a32cd" stroke="#9a32cd" points="804.716,-400.971 795.687,-406.514 806.202,-407.811 804.716,-400.971"/>
<text text-anchor="middle" x="851" y="-404" font-family="FreeSans" font-size="10.00"> data_</text>
</g>
<!-- Node19 -->
<g id="node43" class="node"><title>Node19</title>
<a xlink:href="class_urho3_d_1_1_shared_ptr.html" target="_top" xlink:title="Urho3D::SharedPtr\&lt;\l Urho3D::RenderSurface \&gt;">
<polygon fill="none" stroke="black" points="1487.5,-213 1487.5,-247 1630.5,-247 1630.5,-213 1487.5,-213"/>
<text text-anchor="start" x="1495.5" y="-234" font-family="FreeSans" font-size="10.00">Urho3D::SharedPtr&lt;</text>
<text text-anchor="middle" x="1559" y="-221" font-family="FreeSans" font-size="10.00"> Urho3D::RenderSurface &gt;</text>
</a>
</g>
<!-- Node19&#45;&gt;Node1 -->
<g id="edge50" class="edge"><title>Node19&#45;&gt;Node1</title>
<path fill="none" stroke="#9a32cd" stroke-dasharray="5,2" d="M1622.16,-250.18C1668.61,-265.022 1729.89,-284.6 1767.05,-296.471"/>
<polygon fill="#9a32cd" stroke="#9a32cd" points="1623.08,-246.798 1612.49,-247.089 1620.95,-253.466 1623.08,-246.798"/>
<text text-anchor="middle" x="1689" y="-286" font-family="FreeSans" font-size="10.00"> renderSurface_</text>
</g>
<!-- Node20&#45;&gt;Node19 -->
<g id="edge52" class="edge"><title>Node20&#45;&gt;Node19</title>
<path fill="none" stroke="#9a32cd" stroke-dasharray="5,2" d="M1297.2,-236.786C1312.85,-229.205 1332.96,-220.85 1352,-217 1396.47,-208.007 1447.31,-211.016 1487.48,-216.391"/>
<polygon fill="#9a32cd" stroke="#9a32cd" points="1295.45,-233.748 1288.08,-241.359 1298.59,-240.006 1295.45,-233.748"/>
<text text-anchor="middle" x="1410" y="-221" font-family="FreeSans" font-size="10.00"> ptr_</text>
</g>
<!-- Node21 -->
<g id="node48" class="node"><title>Node21</title>
<a xlink:href="class_urho3_d_1_1_weak_ptr.html" target="_top" xlink:title="Urho3D::WeakPtr\&lt; Urho3D\l::RenderSurface \&gt;">
<polygon fill="none" stroke="red" points="1486,-267 1486,-301 1632,-301 1632,-267 1486,-267"/>
<text text-anchor="start" x="1494" y="-288" font-family="FreeSans" font-size="10.00">Urho3D::WeakPtr&lt; Urho3D</text>
<text text-anchor="middle" x="1559" y="-275" font-family="FreeSans" font-size="10.00">::RenderSurface &gt;</text>
</a>
</g>
<!-- Node20&#45;&gt;Node21 -->
<g id="edge58" class="edge"><title>Node20&#45;&gt;Node21</title>
<path fill="none" stroke="#9a32cd" stroke-dasharray="5,2" d="M1343.84,-249.17C1346.59,-249.106 1349.32,-249.048 1352,-249 1403.55,-248.069 1417.33,-239.494 1468,-249 1476.44,-250.583 1477.99,-252.907 1486,-256 1495.12,-259.521 1504.88,-263.276 1514.2,-266.856"/>
<polygon fill="#9a32cd" stroke="#9a32cd" points="1343.69,-245.673 1333.79,-249.432 1343.88,-252.67 1343.69,-245.673"/>
<text text-anchor="middle" x="1410" y="-253" font-family="FreeSans" font-size="10.00"> ptr_</text>
</g>
<!-- Node21&#45;&gt;Node20 -->
<g id="edge56" class="edge"><title>Node21&#45;&gt;Node20</title>
<path fill="none" stroke="#9a32cd" stroke-dasharray="5,2" d="M1475.13,-278.246C1437.41,-275.263 1392.39,-271.155 1352,-266 1344.17,-265.001 1335.95,-263.801 1327.86,-262.528"/>
<polygon fill="#9a32cd" stroke="#9a32cd" points="1475.32,-281.772 1485.56,-279.058 1475.86,-274.793 1475.32,-281.772"/>
<text text-anchor="start" x="1362" y="-307" font-family="FreeSans" font-size="10.00"> linkedDepthStencil</text>
<text text-anchor="middle" x="1410" y="-294" font-family="FreeSans" font-size="10.00">_</text>
<text text-anchor="middle" x="1410" y="-281" font-family="FreeSans" font-size="10.00">linkedRenderTarget_</text>
</g>
<!-- Node22 -->
<g id="node52" class="node"><title>Node22</title>
<a xlink:href="class_urho3_d_1_1_vector.html" target="_top" xlink:title="Urho3D::Vector\&lt; Urho3D\l::SharedPtr\&lt; Urho3D::Viewport \&gt; \&gt;">
<polygon fill="none" stroke="red" points="902,-218 902,-252 1090,-252 1090,-218 902,-218"/>
<text text-anchor="start" x="910" y="-239" font-family="FreeSans" font-size="10.00">Urho3D::Vector&lt; Urho3D</text>
<text text-anchor="middle" x="996" y="-226" font-family="FreeSans" font-size="10.00">::SharedPtr&lt; Urho3D::Viewport &gt; &gt;</text>
</a>
</g>
<!-- Node22&#45;&gt;Node20 -->
<g id="edge62" class="edge"><title>Node22&#45;&gt;Node20</title>
<path fill="none" stroke="#9a32cd" stroke-dasharray="5,2" d="M1100.57,-241.512C1135.48,-243.686 1173.34,-246.043 1204.3,-247.971"/>
<polygon fill="#9a32cd" stroke="#9a32cd" points="1100.53,-238.003 1090.33,-240.874 1100.1,-244.989 1100.53,-238.003"/>
<text text-anchor="middle" x="1147" y="-250" font-family="FreeSans" font-size="10.00"> viewports_</text>
</g>
<!-- Node23 -->
<g id="node54" class="node"><title>Node23</title>
<a xlink:href="class_urho3_d_1_1_shared_ptr.html" target="_top" xlink:title="Urho3D::SharedPtr\&lt;\l Urho3D::XMLFile \&gt;">
<polygon fill="none" stroke="black" points="1352,-389 1352,-423 1468,-423 1468,-389 1352,-389"/>
<text text-anchor="start" x="1360" y="-410" font-family="FreeSans" font-size="10.00">Urho3D::SharedPtr&lt;</text>
<text text-anchor="middle" x="1410" y="-397" font-family="FreeSans" font-size="10.00"> Urho3D::XMLFile &gt;</text>
</a>
</g>
<!-- Node23&#45;&gt;Node1 -->
<g id="edge64" class="edge"><title>Node23&#45;&gt;Node1</title>
<path fill="none" stroke="#9a32cd" stroke-dasharray="5,2" d="M1478.57,-403.878C1544.56,-399.856 1646.12,-388.398 1728,-356 1751.06,-346.877 1774.12,-329.333 1787.72,-317.902"/>
<polygon fill="#9a32cd" stroke="#9a32cd" points="1478.07,-400.4 1468.29,-404.461 1478.47,-407.389 1478.07,-400.4"/>
<text text-anchor="middle" x="1559" y="-407" font-family="FreeSans" font-size="10.00"> loadParameters_</text>
</g>
<!-- Node24&#45;&gt;Node23 -->
<g id="edge66" class="edge"><title>Node24&#45;&gt;Node23</title>
<path fill="none" stroke="#9a32cd" stroke-dasharray="5,2" d="M1053.29,-411.17C1131.92,-410.03 1272.5,-407.993 1351.67,-406.845"/>
<polygon fill="#9a32cd" stroke="#9a32cd" points="1053.04,-407.673 1043.09,-411.318 1053.14,-414.672 1053.04,-407.673"/>
<text text-anchor="middle" x="1147" y="-414" font-family="FreeSans" font-size="10.00"> ptr_</text>
</g>
<!-- Node25 -->
<g id="node59" class="node"><title>Node25</title>
<a xlink:href="class_urho3_d_1_1_unique_ptr.html" target="_top" xlink:title="Urho3D::UniquePtr\&lt;\l pugi::xml_document \&gt;">
<polygon fill="none" stroke="black" points="665,-456 665,-490 793,-490 793,-456 665,-456"/>
<text text-anchor="start" x="673" y="-477" font-family="FreeSans" font-size="10.00">Urho3D::UniquePtr&lt;</text>
<text text-anchor="middle" x="729" y="-464" font-family="FreeSans" font-size="10.00"> pugi::xml_document &gt;</text>
</a>
</g>
<!-- Node25&#45;&gt;Node24 -->
<g id="edge70" class="edge"><title>Node25&#45;&gt;Node24</title>
<path fill="none" stroke="#9a32cd" stroke-dasharray="5,2" d="M803.125,-456.065C850.128,-445.327 909.464,-431.77 949.826,-422.549"/>
<polygon fill="#9a32cd" stroke="#9a32cd" points="802.262,-452.672 793.293,-458.311 803.821,-459.496 802.262,-452.672"/>
<text text-anchor="middle" x="851" y="-455" font-family="FreeSans" font-size="10.00"> document_</text>
</g>
</g>
</svg>
