<?xml version="1.0" encoding="UTF-8" standalone="no"?>
<!DOCTYPE svg PUBLIC "-//W3C//DTD SVG 1.1//EN"
 "http://www.w3.org/Graphics/SVG/1.1/DTD/svg11.dtd">
<!-- Generated by graphviz version 2.43.0 (0)
 -->
<!-- Title: Urho3D::Node::GetWorldScale Pages: 1 -->
<!--zoomable 803 -->
<svg id="main" version="1.1" xmlns="http://www.w3.org/2000/svg" xmlns:xlink="http://www.w3.org/1999/xlink" xml:space="preserve" onload="init(evt)">
<style type="text/css"><![CDATA[
.edge:hover path { stroke: red; }
.edge:hover polygon { stroke: red; fill: red; }
]]></style>
<script type="text/javascript"><![CDATA[
var edges = document.getElementsByTagName('g');
if (edges && edges.length) {
  for (var i=0;i<edges.length;i++) {
    if (edges[i].id.substr(0,4)=='edge') {
      edges[i].setAttribute('class','edge');
    }
  }
}
]]></script>
        <defs>
                <circle id="rim" cx="0" cy="0" r="7"/>
                <circle id="rim2" cx="0" cy="0" r="3.5"/>
                <g id="zoomPlus">
                        <use xlink:href="#rim" fill="#404040">
                                <set attributeName="fill" to="#808080" begin="zoomplus.mouseover" end="zoomplus.mouseout"/>
                        </use>
                        <path d="M-4,0h8M0,-4v8" fill="none" stroke="white" stroke-width="1.5" pointer-events="none"/>
                </g>
                <g id="zoomMin">
                        <use xlink:href="#rim" fill="#404040">
                                <set attributeName="fill" to="#808080" begin="zoomminus.mouseover" end="zoomminus.mouseout"/>
                        </use>
                        <path d="M-4,0h8" fill="none" stroke="white" stroke-width="1.5" pointer-events="none"/>
                </g>
                <g id="dirArrow">
                        <path fill="none" stroke="white" stroke-width="1.5" d="M0,-3.0v7 M-2.5,-0.5L0,-3.0L2.5,-0.5"/>
                </g>
               <g id="resetDef">
                       <use xlink:href="#rim2" fill="#404040">
                               <set attributeName="fill" to="#808080" begin="reset.mouseover" end="reset.mouseout"/>
                       </use>
               </g>
        </defs>

<script type="text/javascript">
var viewWidth = 517;
var viewHeight = 803;
var sectionId = 'dynsection-16';
</script>
<script xlink:href="svgpan.js"/>
<svg id="graph" class="graph">
<g id="viewport">
<title>Urho3D::Node::GetWorldScale</title>
<!-- Node1 -->
<g id="node1" class="node">
<title>Node1</title>
<g id="a_node1"><a xlink:title=" ">
<polygon fill="#bfbfbf" stroke="black" points="347,-383 347,-402 509,-402 509,-383 347,-383"/>
<text text-anchor="middle" x="428" y="-390" font-family="Helvetica,sans-Serif" font-size="10.00">Urho3D::Node::GetWorldScale</text>
</a>
</g>
</g>
<!-- Node2 -->
<g id="node2" class="node">
<title>Node2</title>
<g id="a_node2"><a xlink:href="class_urho3_d_1_1_dynamic_navigation_mesh.html#a2b7ade339dad6d4a0360e5c5aff707dc" target="_top" xlink:title="Allocate the navigation mesh without building any tiles. Bounding box is not padded....">
<polygon fill="none" stroke="black" points="152.5,-764.5 152.5,-794.5 308.5,-794.5 308.5,-764.5 152.5,-764.5"/>
<text text-anchor="start" x="160.5" y="-782.5" font-family="Helvetica,sans-Serif" font-size="10.00">Urho3D::DynamicNavigation</text>
<text text-anchor="middle" x="230.5" y="-771.5" font-family="Helvetica,sans-Serif" font-size="10.00">Mesh::Allocate</text>
</a>
</g>
</g>
<!-- Node1&#45;&gt;Node2 -->
<g id="edge1" class="edge">
<title>Node1&#45;&gt;Node2</title>
<path fill="none" stroke="midnightblue" d="M426.75,-412.4C424.9,-473.01 410.9,-657.19 311,-755.5 307.51,-758.94 303.54,-761.89 299.28,-764.41"/>
<polygon fill="midnightblue" stroke="midnightblue" points="430.26,-412.35 426.98,-402.27 423.26,-412.19 430.26,-412.35"/>
</g>
<!-- Node3 -->
<g id="node3" class="node">
<title>Node3</title>
<g id="a_node3"><a xlink:href="class_urho3_d_1_1_navigation_mesh.html#ae96147f96c4694884d56a1f527e15f55" target="_top" xlink:title="Allocate the navigation mesh without building any tiles. Bounding box is not padded....">
<polygon fill="none" stroke="black" points="161,-715.5 161,-745.5 300,-745.5 300,-715.5 161,-715.5"/>
<text text-anchor="start" x="169" y="-733.5" font-family="Helvetica,sans-Serif" font-size="10.00">Urho3D::NavigationMesh</text>
<text text-anchor="middle" x="230.5" y="-722.5" font-family="Helvetica,sans-Serif" font-size="10.00">::Allocate</text>
</a>
</g>
</g>
<!-- Node1&#45;&gt;Node3 -->
<g id="edge2" class="edge">
<title>Node1&#45;&gt;Node3</title>
<path fill="none" stroke="midnightblue" d="M425.63,-412.22C420.72,-467.16 399.31,-623.4 311,-706.5 307.33,-709.96 303.17,-712.92 298.73,-715.45"/>
<polygon fill="midnightblue" stroke="midnightblue" points="429.13,-412.34 426.44,-402.09 422.15,-411.78 429.13,-412.34"/>
</g>
<!-- Node4 -->
<g id="node4" class="node">
<title>Node4</title>
<g id="a_node4"><a xlink:href="class_urho3_d_1_1_constraint.html#a83814fcb7cbae0372f386b96d969cabd" target="_top" xlink:title="Apply constraint frames.">
<polygon fill="none" stroke="black" points="175.5,-666.5 175.5,-696.5 285.5,-696.5 285.5,-666.5 175.5,-666.5"/>
<text text-anchor="start" x="183.5" y="-684.5" font-family="Helvetica,sans-Serif" font-size="10.00">Urho3D::Constraint</text>
<text text-anchor="middle" x="230.5" y="-673.5" font-family="Helvetica,sans-Serif" font-size="10.00">::ApplyFrames</text>
</a>
</g>
</g>
<!-- Node1&#45;&gt;Node4 -->
<g id="edge3" class="edge">
<title>Node1&#45;&gt;Node4</title>
<path fill="none" stroke="midnightblue" d="M424.14,-412.04C415.95,-460.89 387.85,-589.32 311,-657.5 303.77,-663.91 294.89,-668.61 285.7,-672.05"/>
<polygon fill="midnightblue" stroke="midnightblue" points="427.6,-412.56 425.71,-402.13 420.69,-411.47 427.6,-412.56"/>
</g>
<!-- Node10 -->
<g id="node10" class="node">
<title>Node10</title>
<g id="a_node10"><a xlink:href="class_urho3_d_1_1_dynamic_navigation_mesh.html#ac50303ab43f4c6b1b19867e6a3389af3" target="_top" xlink:title="Build/rebuild the entire navigation mesh.">
<polygon fill="none" stroke="black" points="152.5,-617.5 152.5,-647.5 308.5,-647.5 308.5,-617.5 152.5,-617.5"/>
<text text-anchor="start" x="160.5" y="-635.5" font-family="Helvetica,sans-Serif" font-size="10.00">Urho3D::DynamicNavigation</text>
<text text-anchor="middle" x="230.5" y="-624.5" font-family="Helvetica,sans-Serif" font-size="10.00">Mesh::Build</text>
</a>
</g>
</g>
<!-- Node1&#45;&gt;Node10 -->
<g id="edge9" class="edge">
<title>Node1&#45;&gt;Node10</title>
<path fill="none" stroke="midnightblue" d="M422.01,-412.07C410.19,-454.4 376.47,-554.95 311,-608.5 306.76,-611.97 302.03,-614.94 297.04,-617.48"/>
<polygon fill="midnightblue" stroke="midnightblue" points="425.39,-412.97 424.6,-402.41 418.63,-411.16 425.39,-412.97"/>
</g>
<!-- Node11 -->
<g id="node11" class="node">
<title>Node11</title>
<g id="a_node11"><a xlink:href="class_urho3_d_1_1_navigation_mesh.html#a38f762e87f10300096e08666fbafb443" target="_top" xlink:title="Rebuild the navigation mesh. Return true if successful.">
<polygon fill="none" stroke="black" points="161,-568.5 161,-598.5 300,-598.5 300,-568.5 161,-568.5"/>
<text text-anchor="start" x="169" y="-586.5" font-family="Helvetica,sans-Serif" font-size="10.00">Urho3D::NavigationMesh</text>
<text text-anchor="middle" x="230.5" y="-575.5" font-family="Helvetica,sans-Serif" font-size="10.00">::Build</text>
</a>
</g>
</g>
<!-- Node1&#45;&gt;Node11 -->
<g id="edge10" class="edge">
<title>Node1&#45;&gt;Node11</title>
<path fill="none" stroke="midnightblue" d="M418.97,-411.55C403.36,-446.24 365.61,-519.82 311,-559.5 306.33,-562.89 301.19,-565.81 295.82,-568.32"/>
<polygon fill="midnightblue" stroke="midnightblue" points="422.29,-412.67 423.09,-402.11 415.88,-409.87 422.29,-412.67"/>
</g>
<!-- Node12 -->
<g id="node12" class="node">
<title>Node12</title>
<g id="a_node12"><a xlink:href="class_urho3_d_1_1_text3_d.html#aa77a802e886bfb646350e8d0a0a70958" target="_top" xlink:title="Recalculate camera facing and fixed screen size.">
<polygon fill="none" stroke="black" points="158,-519.5 158,-549.5 303,-549.5 303,-519.5 158,-519.5"/>
<text text-anchor="start" x="166" y="-537.5" font-family="Helvetica,sans-Serif" font-size="10.00">Urho3D::Text3D::Calculate</text>
<text text-anchor="middle" x="230.5" y="-526.5" font-family="Helvetica,sans-Serif" font-size="10.00">FixedScreenSize</text>
</a>
</g>
</g>
<!-- Node1&#45;&gt;Node12 -->
<g id="edge11" class="edge">
<title>Node1&#45;&gt;Node12</title>
<path fill="none" stroke="midnightblue" d="M414.33,-410.16C394.93,-435.92 355.43,-483.65 311,-510.5 305.32,-513.93 299.12,-516.9 292.76,-519.47"/>
<polygon fill="midnightblue" stroke="midnightblue" points="417.2,-412.15 420.32,-402.03 411.57,-408 417.2,-412.15"/>
</g>
<!-- Node13 -->
<g id="node13" class="node">
<title>Node13</title>
<g id="a_node13"><a xlink:href="class_urho3_d_1_1_constraint.html#ac35c8dbd49e89d58bd3a27b7dcd050d1" target="_top" xlink:title="Create the constraint.">
<polygon fill="none" stroke="red" points="175.5,-470.5 175.5,-500.5 285.5,-500.5 285.5,-470.5 175.5,-470.5"/>
<text text-anchor="start" x="183.5" y="-488.5" font-family="Helvetica,sans-Serif" font-size="10.00">Urho3D::Constraint</text>
<text text-anchor="middle" x="230.5" y="-477.5" font-family="Helvetica,sans-Serif" font-size="10.00">::CreateConstraint</text>
</a>
</g>
</g>
<!-- Node1&#45;&gt;Node13 -->
<g id="edge12" class="edge">
<title>Node1&#45;&gt;Node13</title>
<path fill="none" stroke="midnightblue" d="M404.31,-407.89C381.5,-422.84 344.95,-445.44 311,-460.5 302.8,-464.14 293.91,-467.48 285.14,-470.45"/>
<polygon fill="midnightblue" stroke="midnightblue" points="406.51,-410.62 412.91,-402.18 402.64,-404.79 406.51,-410.62"/>
</g>
<!-- Node29 -->
<g id="node16" class="node">
<title>Node29</title>
<g id="a_node16"><a xlink:href="class_urho3_d_1_1_collision_shape.html#a603207bf68d4a4ed1bdecd8430fa1568" target="_top" xlink:title="Visualize the component as debug geometry.">
<polygon fill="none" stroke="black" points="165,-421.5 165,-451.5 296,-451.5 296,-421.5 165,-421.5"/>
<text text-anchor="start" x="173" y="-439.5" font-family="Helvetica,sans-Serif" font-size="10.00">Urho3D::CollisionShape</text>
<text text-anchor="middle" x="230.5" y="-428.5" font-family="Helvetica,sans-Serif" font-size="10.00">::DrawDebugGeometry</text>
</a>
</g>
</g>
<!-- Node1&#45;&gt;Node29 -->
<g id="edge16" class="edge">
<title>Node1&#45;&gt;Node29</title>
<path fill="none" stroke="midnightblue" d="M374.56,-404.3C350.44,-409.73 321.6,-416.22 296.15,-421.95"/>
<polygon fill="midnightblue" stroke="midnightblue" points="375.59,-407.66 384.58,-402.05 374.05,-400.83 375.59,-407.66"/>
</g>
<!-- Node30 -->
<g id="node17" class="node">
<title>Node30</title>
<g id="a_node17"><a xlink:href="class_urho3_d_1_1_terrain.html#a95868faa09f0c2ce2d51aa8021c3ddbf" target="_top" xlink:title="Return height at world coordinates.">
<polygon fill="none" stroke="red" points="156.5,-383 156.5,-402 304.5,-402 304.5,-383 156.5,-383"/>
<text text-anchor="middle" x="230.5" y="-390" font-family="Helvetica,sans-Serif" font-size="10.00">Urho3D::Terrain::GetHeight</text>
</a>
</g>
</g>
<!-- Node1&#45;&gt;Node30 -->
<g id="edge17" class="edge">
<title>Node1&#45;&gt;Node30</title>
<path fill="none" stroke="midnightblue" d="M336.66,-392.5C325.9,-392.5 315.02,-392.5 304.55,-392.5"/>
<polygon fill="midnightblue" stroke="midnightblue" points="336.92,-396 346.92,-392.5 336.92,-389 336.92,-396"/>
</g>
<!-- Node32 -->
<g id="node18" class="node">
<title>Node32</title>
<g id="a_node18"><a xlink:href="class_urho3_d_1_1_collision_shape.html#a91f197c52c26622c4d06b50cba5b7d54" target="_top" xlink:title=" ">
<polygon fill="none" stroke="black" points="164.5,-333.5 164.5,-363.5 296.5,-363.5 296.5,-333.5 164.5,-333.5"/>
<text text-anchor="start" x="172.5" y="-351.5" font-family="Helvetica,sans-Serif" font-size="10.00">Urho3D::CollisionShape</text>
<text text-anchor="middle" x="230.5" y="-340.5" font-family="Helvetica,sans-Serif" font-size="10.00">::GetWorldBoundingBox</text>
</a>
</g>
</g>
<!-- Node1&#45;&gt;Node32 -->
<g id="edge18" class="edge">
<title>Node1&#45;&gt;Node32</title>
<path fill="none" stroke="midnightblue" d="M374.6,-380.71C350.6,-375.3 321.9,-368.85 296.53,-363.14"/>
<polygon fill="midnightblue" stroke="midnightblue" points="374.05,-384.17 384.58,-382.95 375.59,-377.34 374.05,-384.17"/>
</g>
<!-- Node33 -->
<g id="node19" class="node">
<title>Node33</title>
<g id="a_node19"><a xlink:href="class_urho3_d_1_1_collision_shape.html#a61df21132c5462e779a85b7c0ebf2fad" target="_top" xlink:title="Handle node transform being dirtied.">
<polygon fill="none" stroke="black" points="165,-284.5 165,-314.5 296,-314.5 296,-284.5 165,-284.5"/>
<text text-anchor="start" x="173" y="-302.5" font-family="Helvetica,sans-Serif" font-size="10.00">Urho3D::CollisionShape</text>
<text text-anchor="middle" x="230.5" y="-291.5" font-family="Helvetica,sans-Serif" font-size="10.00">::OnMarkedDirty</text>
</a>
</g>
</g>
<!-- Node1&#45;&gt;Node33 -->
<g id="edge19" class="edge">
<title>Node1&#45;&gt;Node33</title>
<path fill="none" stroke="midnightblue" d="M404.76,-377.03C382.03,-361.78 345.3,-338.61 311,-323.5 303.61,-320.25 295.65,-317.27 287.72,-314.6"/>
<polygon fill="midnightblue" stroke="midnightblue" points="403.07,-380.12 413.31,-382.85 407.01,-374.33 403.07,-380.12"/>
</g>
<!-- Node34 -->
<g id="node20" class="node">
<title>Node34</title>
<g id="a_node20"><a xlink:href="class_urho3_d_1_1_constraint.html#add04d343e4a403b0d105d577d85ad26f" target="_top" xlink:title="Handle node being assigned.">
<polygon fill="none" stroke="black" points="175.5,-235.5 175.5,-265.5 285.5,-265.5 285.5,-235.5 175.5,-235.5"/>
<text text-anchor="start" x="183.5" y="-253.5" font-family="Helvetica,sans-Serif" font-size="10.00">Urho3D::Constraint</text>
<text text-anchor="middle" x="230.5" y="-242.5" font-family="Helvetica,sans-Serif" font-size="10.00">::OnNodeSet</text>
</a>
</g>
</g>
<!-- Node1&#45;&gt;Node34 -->
<g id="edge20" class="edge">
<title>Node1&#45;&gt;Node34</title>
<path fill="none" stroke="midnightblue" d="M414.33,-374.84C394.93,-349.08 355.43,-301.35 311,-274.5 303.23,-269.8 294.46,-265.96 285.67,-262.84"/>
<polygon fill="midnightblue" stroke="midnightblue" points="411.57,-377 420.32,-382.97 417.2,-372.85 411.57,-377"/>
</g>
<!-- Node35 -->
<g id="node21" class="node">
<title>Node35</title>
<g id="a_node21"><a xlink:href="class_urho3_d_1_1_collision_shape.html#a5c1e0baeb586e2e3edad2c7b7872fe4d" target="_top" xlink:title="Handle node being assigned.">
<polygon fill="none" stroke="black" points="165,-186.5 165,-216.5 296,-216.5 296,-186.5 165,-186.5"/>
<text text-anchor="start" x="173" y="-204.5" font-family="Helvetica,sans-Serif" font-size="10.00">Urho3D::CollisionShape</text>
<text text-anchor="middle" x="230.5" y="-193.5" font-family="Helvetica,sans-Serif" font-size="10.00">::OnNodeSet</text>
</a>
</g>
</g>
<!-- Node1&#45;&gt;Node35 -->
<g id="edge21" class="edge">
<title>Node1&#45;&gt;Node35</title>
<path fill="none" stroke="midnightblue" d="M418.97,-373.45C403.36,-338.76 365.61,-265.18 311,-225.5 306.33,-222.11 301.19,-219.19 295.82,-216.68"/>
<polygon fill="midnightblue" stroke="midnightblue" points="415.88,-375.13 423.09,-382.89 422.29,-372.33 415.88,-375.13"/>
</g>
<!-- Node36 -->
<g id="node22" class="node">
<title>Node36</title>
<g id="a_node22"><a xlink:href="class_urho3_d_1_1_node.html#a88196c33c41b9f1aa96c359a6d4e9009" target="_top" xlink:title=" ">
<polygon fill="none" stroke="black" points="150,-148 150,-167 311,-167 311,-148 150,-148"/>
<text text-anchor="middle" x="230.5" y="-155" font-family="Helvetica,sans-Serif" font-size="10.00">Urho3D::Node::SetWorldScale</text>
</a>
</g>
</g>
<!-- Node1&#45;&gt;Node36 -->
<g id="edge22" class="edge">
<title>Node1&#45;&gt;Node36</title>
<path fill="none" stroke="midnightblue" d="M422.32,-372.96C411.05,-330.24 378.18,-228.24 311,-176.5 305.94,-172.6 300.2,-169.49 294.18,-167"/>
<polygon fill="midnightblue" stroke="midnightblue" points="419,-374.07 424.84,-382.91 425.78,-372.36 419,-374.07"/>
</g>
<!-- Node37 -->
<g id="node23" class="node">
<title>Node37</title>
<g id="a_node23"><a xlink:href="class_urho3_d_1_1_particle_emitter.html#a482ed0bdc3327f8c7c5e856e4e39a812" target="_top" xlink:title="Update before octree reinsertion. Is called from a worker thread.">
<polygon fill="none" stroke="black" points="165,-98.5 165,-128.5 296,-128.5 296,-98.5 165,-98.5"/>
<text text-anchor="start" x="173" y="-116.5" font-family="Helvetica,sans-Serif" font-size="10.00">Urho3D::ParticleEmitter</text>
<text text-anchor="middle" x="230.5" y="-105.5" font-family="Helvetica,sans-Serif" font-size="10.00">::Update</text>
</a>
</g>
</g>
<!-- Node1&#45;&gt;Node37 -->
<g id="edge23" class="edge">
<title>Node1&#45;&gt;Node37</title>
<path fill="none" stroke="midnightblue" d="M423.65,-372.87C414.54,-325.44 384.83,-203.72 311,-138.5 306.55,-134.57 301.49,-131.26 296.13,-128.47"/>
<polygon fill="midnightblue" stroke="midnightblue" points="420.22,-373.57 425.46,-382.78 427.11,-372.31 420.22,-373.57"/>
</g>
<!-- Node38 -->
<g id="node24" class="node">
<title>Node38</title>
<g id="a_node24"><a xlink:href="class_urho3_d_1_1_particle_emitter2_d.html#a59d6b326bcbe8273a103208935845cef" target="_top" xlink:title="Update.">
<polygon fill="none" stroke="red" points="162,-49.5 162,-79.5 299,-79.5 299,-49.5 162,-49.5"/>
<text text-anchor="start" x="170" y="-67.5" font-family="Helvetica,sans-Serif" font-size="10.00">Urho3D::ParticleEmitter2</text>
<text text-anchor="middle" x="230.5" y="-56.5" font-family="Helvetica,sans-Serif" font-size="10.00">D::Update</text>
</a>
</g>
</g>
<!-- Node1&#45;&gt;Node38 -->
<g id="edge24" class="edge">
<title>Node1&#45;&gt;Node38</title>
<path fill="none" stroke="midnightblue" d="M425.35,-372.7C419.77,-318.86 396.89,-168.47 311,-88.5 307.31,-85.06 303.14,-82.11 298.69,-79.59"/>
<polygon fill="midnightblue" stroke="midnightblue" points="421.89,-373.3 426.31,-382.93 428.85,-372.64 421.89,-373.3"/>
</g>
<!-- Node42 -->
<g id="node25" class="node">
<title>Node42</title>
<g id="a_node25"><a xlink:href="class_urho3_d_1_1_collision_shape.html#a5ecb900b219e57ddf9696a1fb194f33a" target="_top" xlink:title="Update the collision shape after attribute changes.">
<polygon fill="none" stroke="red" points="165,-0.5 165,-30.5 296,-30.5 296,-0.5 165,-0.5"/>
<text text-anchor="start" x="173" y="-18.5" font-family="Helvetica,sans-Serif" font-size="10.00">Urho3D::CollisionShape</text>
<text text-anchor="middle" x="230.5" y="-7.5" font-family="Helvetica,sans-Serif" font-size="10.00">::UpdateShape</text>
</a>
</g>
</g>
<!-- Node1&#45;&gt;Node42 -->
<g id="edge25" class="edge">
<title>Node1&#45;&gt;Node42</title>
<path fill="none" stroke="midnightblue" d="M426.55,-372.77C424.11,-313.42 408.6,-134.75 311,-39.5 306.67,-35.27 301.62,-31.78 296.2,-28.91"/>
<polygon fill="midnightblue" stroke="midnightblue" points="423.06,-373.11 426.89,-382.99 430.06,-372.88 423.06,-373.11"/>
</g>
<!-- Node5 -->
<g id="node5" class="node">
<title>Node5</title>
<g id="a_node5"><a xlink:href="class_urho3_d_1_1_constraint.html#a8c9d37e56291499492b0dfdb90a6d841" target="_top" xlink:title="Apply attribute changes that can not be applied immediately. Called after scene load or a network upd...">
<polygon fill="none" stroke="black" points="2,-549.5 2,-579.5 112,-579.5 112,-549.5 2,-549.5"/>
<text text-anchor="start" x="10" y="-567.5" font-family="Helvetica,sans-Serif" font-size="10.00">Urho3D::Constraint</text>
<text text-anchor="middle" x="57" y="-556.5" font-family="Helvetica,sans-Serif" font-size="10.00">::ApplyAttributes</text>
</a>
</g>
</g>
<!-- Node4&#45;&gt;Node5 -->
<g id="edge4" class="edge">
<title>Node4&#45;&gt;Node5</title>
<path fill="none" stroke="midnightblue" d="M165.71,-666.8C160.13,-664.19 154.79,-661.12 150,-657.5 126.38,-639.68 134.79,-622.55 114,-601.5 105.73,-593.13 95.27,-585.6 85.63,-579.56"/>
<polygon fill="midnightblue" stroke="midnightblue" points="164.69,-670.17 175.27,-670.78 167.38,-663.71 164.69,-670.17"/>
</g>
<!-- Node6 -->
<g id="node6" class="node">
<title>Node6</title>
<g id="a_node6"><a xlink:href="class_urho3_d_1_1_constraint.html#afd7cb84a78ab3d9baf45a192ac9042b9" target="_top" xlink:title=" ">
<polygon fill="none" stroke="black" points="2,-757.5 2,-787.5 112,-787.5 112,-757.5 2,-757.5"/>
<text text-anchor="start" x="10" y="-775.5" font-family="Helvetica,sans-Serif" font-size="10.00">Urho3D::Constraint</text>
<text text-anchor="middle" x="57" y="-764.5" font-family="Helvetica,sans-Serif" font-size="10.00">::SetOtherPosition</text>
</a>
</g>
</g>
<!-- Node4&#45;&gt;Node6 -->
<g id="edge5" class="edge">
<title>Node4&#45;&gt;Node6</title>
<path fill="none" stroke="midnightblue" d="M165.94,-697.87C160.35,-700.37 154.95,-703.23 150,-706.5 129.48,-720.04 133.81,-733.95 114,-748.5 109.48,-751.82 104.43,-754.79 99.27,-757.42"/>
<polygon fill="midnightblue" stroke="midnightblue" points="167.52,-701 175.46,-693.99 164.88,-694.52 167.52,-701"/>
</g>
<!-- Node7 -->
<g id="node7" class="node">
<title>Node7</title>
<g id="a_node7"><a xlink:href="class_urho3_d_1_1_constraint.html#a28da226e75bf05a50ee8157a9122a657" target="_top" xlink:title=" ">
<polygon fill="none" stroke="black" points="2,-708.5 2,-738.5 112,-738.5 112,-708.5 2,-708.5"/>
<text text-anchor="start" x="10" y="-726.5" font-family="Helvetica,sans-Serif" font-size="10.00">Urho3D::Constraint</text>
<text text-anchor="middle" x="57" y="-715.5" font-family="Helvetica,sans-Serif" font-size="10.00">::SetOtherRotation</text>
</a>
</g>
</g>
<!-- Node4&#45;&gt;Node7 -->
<g id="edge6" class="edge">
<title>Node4&#45;&gt;Node7</title>
<path fill="none" stroke="midnightblue" d="M165.14,-697.26C147.71,-701.53 129.02,-706.11 112.2,-710.23"/>
<polygon fill="midnightblue" stroke="midnightblue" points="166.36,-700.57 175.24,-694.79 164.69,-693.77 166.36,-700.57"/>
</g>
<!-- Node8 -->
<g id="node8" class="node">
<title>Node8</title>
<g id="a_node8"><a xlink:href="class_urho3_d_1_1_constraint.html#ad1407c23b8e6f5cef1039388d973c3fa" target="_top" xlink:title=" ">
<polygon fill="none" stroke="black" points="2,-659.5 2,-689.5 112,-689.5 112,-659.5 2,-659.5"/>
<text text-anchor="start" x="10" y="-677.5" font-family="Helvetica,sans-Serif" font-size="10.00">Urho3D::Constraint</text>
<text text-anchor="middle" x="57" y="-666.5" font-family="Helvetica,sans-Serif" font-size="10.00">::SetPosition</text>
</a>
</g>
</g>
<!-- Node4&#45;&gt;Node8 -->
<g id="edge7" class="edge">
<title>Node4&#45;&gt;Node8</title>
<path fill="none" stroke="midnightblue" d="M165.14,-678.87C147.71,-678.16 129.02,-677.4 112.2,-676.71"/>
<polygon fill="midnightblue" stroke="midnightblue" points="165.1,-682.37 175.24,-679.29 165.39,-675.38 165.1,-682.37"/>
</g>
<!-- Node9 -->
<g id="node9" class="node">
<title>Node9</title>
<g id="a_node9"><a xlink:href="class_urho3_d_1_1_constraint.html#a3cf783146fde0269d3c0d0b1cdaff7df" target="_top" xlink:title=" ">
<polygon fill="none" stroke="black" points="2,-610.5 2,-640.5 112,-640.5 112,-610.5 2,-610.5"/>
<text text-anchor="start" x="10" y="-628.5" font-family="Helvetica,sans-Serif" font-size="10.00">Urho3D::Constraint</text>
<text text-anchor="middle" x="57" y="-617.5" font-family="Helvetica,sans-Serif" font-size="10.00">::SetRotation</text>
</a>
</g>
</g>
<!-- Node4&#45;&gt;Node9 -->
<g id="edge8" class="edge">
<title>Node4&#45;&gt;Node9</title>
<path fill="none" stroke="midnightblue" d="M168.64,-663.41C162.33,-661.45 156.03,-659.46 150,-657.5 133.59,-652.17 115.66,-646.01 100.01,-640.52"/>
<polygon fill="midnightblue" stroke="midnightblue" points="167.92,-666.85 178.51,-666.45 169.98,-660.16 167.92,-666.85"/>
</g>
<!-- Node13&#45;&gt;Node5 -->
<g id="edge14" class="edge">
<title>Node13&#45;&gt;Node5</title>
<path fill="none" stroke="midnightblue" d="M166.39,-503.89C160.79,-505.96 155.25,-508.17 150,-510.5 125.12,-521.54 98.47,-537.71 80.3,-549.47"/>
<polygon fill="midnightblue" stroke="midnightblue" points="167.6,-507.18 175.86,-500.54 165.26,-500.58 167.6,-507.18"/>
</g>
<!-- Node14 -->
<g id="node14" class="node">
<title>Node14</title>
<g id="a_node14"><a xlink:href="class_urho3_d_1_1_rigid_body.html#a84c961b128867e4b196defc0973d3e03" target="_top" xlink:title="Create the rigid body, or re&#45;add to the physics world with changed flags. Calls UpdateMass().">
<polygon fill="none" stroke="red" points="0,-476.5 0,-506.5 114,-506.5 114,-476.5 0,-476.5"/>
<text text-anchor="start" x="8" y="-494.5" font-family="Helvetica,sans-Serif" font-size="10.00">Urho3D::RigidBody::</text>
<text text-anchor="middle" x="57" y="-483.5" font-family="Helvetica,sans-Serif" font-size="10.00">AddBodyToWorld</text>
</a>
</g>
</g>
<!-- Node13&#45;&gt;Node14 -->
<g id="edge13" class="edge">
<title>Node13&#45;&gt;Node14</title>
<path fill="none" stroke="midnightblue" d="M165.02,-487.76C148.33,-488.34 130.5,-488.96 114.27,-489.53"/>
<polygon fill="midnightblue" stroke="midnightblue" points="165.36,-491.25 175.24,-487.4 165.12,-484.25 165.36,-491.25"/>
</g>
<!-- Node25 -->
<g id="node15" class="node">
<title>Node25</title>
<g id="a_node15"><a xlink:href="class_urho3_d_1_1_constraint.html#a66bfd223d10b2693717d8c0679f40418" target="_top" xlink:title="Handle scene being assigned.">
<polygon fill="none" stroke="black" points="2,-427.5 2,-457.5 112,-457.5 112,-427.5 2,-427.5"/>
<text text-anchor="start" x="10" y="-445.5" font-family="Helvetica,sans-Serif" font-size="10.00">Urho3D::Constraint</text>
<text text-anchor="middle" x="57" y="-434.5" font-family="Helvetica,sans-Serif" font-size="10.00">::OnSceneSet</text>
</a>
</g>
</g>
<!-- Node13&#45;&gt;Node25 -->
<g id="edge15" class="edge">
<title>Node13&#45;&gt;Node25</title>
<path fill="none" stroke="midnightblue" d="M165.14,-469.36C147.71,-464.99 129.02,-460.31 112.2,-456.09"/>
<polygon fill="midnightblue" stroke="midnightblue" points="164.69,-472.86 175.24,-471.89 166.39,-466.07 164.69,-472.86"/>
</g>
</g>
</svg>
        <g id="navigator" transform="translate(0 0)" fill="#404254">
                <rect fill="#f2f5e9" fill-opacity="0.5" stroke="#606060" stroke-width=".5" x="0" y="0" width="60" height="60"/>
                <use id="zoomplus" xlink:href="#zoomPlus" x="17" y="9" onmousedown="handleZoom(evt,'in')"/>
                <use id="zoomminus" xlink:href="#zoomMin" x="42" y="9" onmousedown="handleZoom(evt,'out')"/>
                <use id="reset" xlink:href="#resetDef" x="30" y="36" onmousedown="handleReset()"/>
                <g id="arrowUp" xlink:href="#dirArrow" transform="translate(30 24)" onmousedown="handlePan(0,-1)">
                  <use xlink:href="#rim" fill="#404040">
                        <set attributeName="fill" to="#808080" begin="arrowUp.mouseover" end="arrowUp.mouseout"/>
                  </use>
                  <path fill="none" stroke="white" stroke-width="1.5" d="M0,-3.0v7 M-2.5,-0.5L0,-3.0L2.5,-0.5"/>
                </g>
                <g id="arrowRight" xlink:href="#dirArrow" transform="rotate(90) translate(36 -43)" onmousedown="handlePan(1,0)">
                  <use xlink:href="#rim" fill="#404040">
                        <set attributeName="fill" to="#808080" begin="arrowRight.mouseover" end="arrowRight.mouseout"/>
                  </use>
                  <path fill="none" stroke="white" stroke-width="1.5" d="M0,-3.0v7 M-2.5,-0.5L0,-3.0L2.5,-0.5"/>
                </g>
                <g id="arrowDown" xlink:href="#dirArrow" transform="rotate(180) translate(-30 -48)" onmousedown="handlePan(0,1)">
                  <use xlink:href="#rim" fill="#404040">
                        <set attributeName="fill" to="#808080" begin="arrowDown.mouseover" end="arrowDown.mouseout"/>
                  </use>
                  <path fill="none" stroke="white" stroke-width="1.5" d="M0,-3.0v7 M-2.5,-0.5L0,-3.0L2.5,-0.5"/>
                </g>
                <g id="arrowLeft" xlink:href="#dirArrow" transform="rotate(270) translate(-36 17)" onmousedown="handlePan(-1,0)">
                  <use xlink:href="#rim" fill="#404040">
                        <set attributeName="fill" to="#808080" begin="arrowLeft.mouseover" end="arrowLeft.mouseout"/>
                  </use>
                  <path fill="none" stroke="white" stroke-width="1.5" d="M0,-3.0v7 M-2.5,-0.5L0,-3.0L2.5,-0.5"/>
                </g>
        </g>
        <svg viewBox="0 0 15 15" width="100%" height="30px" preserveAspectRatio="xMaxYMin meet">
         <g id="arrow_out" transform="scale(0.3 0.3)">
          <a xlink:href="class_urho3_d_1_1_node_a8ae450b752efd7da057b842882d28a23_icgraph_org.svg" target="_base">
           <rect id="button" ry="5" rx="5" y="6" x="6" height="38" width="38"
                fill="#f2f5e9" fill-opacity="0.5" stroke="#606060" stroke-width="1.0"/>
           <path id="arrow"
             d="M 11.500037,31.436501 C 11.940474,20.09759 22.043105,11.32322 32.158766,21.979434 L 37.068811,17.246167 C 37.068811,17.246167 37.088388,32 37.088388,32 L 22.160133,31.978069 C 22.160133,31.978069 26.997745,27.140456 26.997745,27.140456 C 18.528582,18.264221 13.291696,25.230495 11.500037,31.436501 z"
             style="fill:#404040;"/>
          </a>
         </g>
        </svg>
</svg>
