<?xml version="1.0" encoding="UTF-8" standalone="no"?>
<!DOCTYPE svg PUBLIC "-//W3C//DTD SVG 1.1//EN"
 "http://www.w3.org/Graphics/SVG/1.1/DTD/svg11.dtd">
<!-- Generated by graphviz version 2.26.3 (20100126.1600)
 -->
<!-- Title: Urho3D::Graphics::Clear Pages: 1 -->
<svg width="804pt" height="904pt"
 viewBox="0.00 0.00 804.00 904.00" xmlns="http://www.w3.org/2000/svg" xmlns:xlink="http://www.w3.org/1999/xlink">
<g id="graph1" class="graph" transform="scale(1 1) rotate(0) translate(4 900)">
<title>Urho3D::Graphics::Clear</title>
<!-- Node1 -->
<g id="node1" class="node"><title>Node1</title>
<polygon fill="#bfbfbf" stroke="black" points="0,-756.5 0,-777.5 132,-777.5 132,-756.5 0,-756.5"/>
<text text-anchor="middle" x="66" y="-764.5" font-family="FreeSans" font-size="10.00">Urho3D::Graphics::Clear</text>
</g>
<!-- Node2 -->
<g id="node3" class="node"><title>Node2</title>
<a xlink:href="class_urho3_d_1_1_graphics.html#a3dd369dc58e2db876d8d001ba24762a5" target="_top" xlink:title="Process dirtied state before draw.">
<polygon fill="none" stroke="red" points="172.5,-469.5 172.5,-490.5 341.5,-490.5 341.5,-469.5 172.5,-469.5"/>
<text text-anchor="middle" x="257" y="-477.5" font-family="FreeSans" font-size="10.00">Urho3D::Graphics::PrepareDraw</text>
</a>
</g>
<!-- Node1&#45;&gt;Node2 -->
<g id="edge2" class="edge"><title>Node1&#45;&gt;Node2</title>
<path fill="none" stroke="midnightblue" d="M73.0243,-756.445C101.336,-713.903 207.317,-554.655 244.228,-499.192"/>
<polygon fill="midnightblue" stroke="midnightblue" points="247.285,-500.915 249.912,-490.651 241.458,-497.037 247.285,-500.915"/>
</g>
<!-- Node4 -->
<g id="node7" class="node"><title>Node4</title>
<a xlink:href="class_urho3_d_1_1_graphics.html#a016c9d34850452e2e97a51f520d15443" target="_top" xlink:title="Return current rendertarget width and height.">
<polygon fill="none" stroke="red" points="396,-782 396,-816 554,-816 554,-782 396,-782"/>
<text text-anchor="start" x="404" y="-803" font-family="FreeSans" font-size="10.00">Urho3D::Graphics::GetRender</text>
<text text-anchor="middle" x="475" y="-790" font-family="FreeSans" font-size="10.00">TargetDimensions</text>
</a>
</g>
<!-- Node1&#45;&gt;Node4 -->
<g id="edge52" class="edge"><title>Node1&#45;&gt;Node4</title>
<path fill="none" stroke="midnightblue" d="M132.237,-770.883C189.003,-774.357 272.931,-779.841 346,-786 358.869,-787.085 372.449,-788.336 385.776,-789.625"/>
<polygon fill="midnightblue" stroke="midnightblue" points="385.608,-793.126 395.901,-790.616 386.289,-786.159 385.608,-793.126"/>
</g>
<!-- Node21 -->
<g id="node45" class="node"><title>Node21</title>
<a xlink:href="class_urho3_d_1_1_graphics.html#a491fe007ce9f8dce215ba00f5c27ff0d" target="_top" xlink:title="Set color write on/off.">
<polygon fill="none" stroke="black" points="182.5,-417 182.5,-451 331.5,-451 331.5,-417 182.5,-417"/>
<text text-anchor="start" x="190.5" y="-438" font-family="FreeSans" font-size="10.00">Urho3D::Graphics::SetColor</text>
<text text-anchor="middle" x="257" y="-425" font-family="FreeSans" font-size="10.00">Write</text>
</a>
</g>
<!-- Node1&#45;&gt;Node21 -->
<g id="edge48" class="edge"><title>Node1&#45;&gt;Node21</title>
<path fill="none" stroke="midnightblue" d="M68.1915,-756.187C78.3881,-706.866 122.614,-503.756 168,-460 169.876,-458.191 171.87,-456.508 173.961,-454.94"/>
<polygon fill="midnightblue" stroke="midnightblue" points="175.955,-457.819 182.454,-449.452 172.155,-451.94 175.955,-457.819"/>
</g>
<!-- Node22 -->
<g id="node47" class="node"><title>Node22</title>
<a xlink:href="class_urho3_d_1_1_graphics.html#abce9b1421f7b2d1179659ca887171f2a" target="_top" xlink:title="Set depth write on/off.">
<polygon fill="none" stroke="black" points="180.5,-365 180.5,-399 333.5,-399 333.5,-365 180.5,-365"/>
<text text-anchor="start" x="188.5" y="-386" font-family="FreeSans" font-size="10.00">Urho3D::Graphics::SetDepth</text>
<text text-anchor="middle" x="257" y="-373" font-family="FreeSans" font-size="10.00">Write</text>
</a>
</g>
<!-- Node1&#45;&gt;Node22 -->
<g id="edge50" class="edge"><title>Node1&#45;&gt;Node22</title>
<path fill="none" stroke="midnightblue" d="M67.6357,-756.232C76.0627,-702.096 116.192,-460.193 168,-408 169.247,-406.743 170.552,-405.547 171.906,-404.407"/>
<polygon fill="midnightblue" stroke="midnightblue" points="174.075,-407.159 180.159,-398.486 169.994,-401.472 174.075,-407.159"/>
</g>
<!-- Node23 -->
<g id="node50" class="node"><title>Node23</title>
<a xlink:href="class_urho3_d_1_1_graphics.html#a27670beb9e90540f69da3d24da2d07bd" target="_top" xlink:title="Set scissor test.">
<polygon fill="none" stroke="red" points="168.5,-795.5 168.5,-816.5 345.5,-816.5 345.5,-795.5 168.5,-795.5"/>
<text text-anchor="middle" x="257" y="-803.5" font-family="FreeSans" font-size="10.00">Urho3D::Graphics::SetScissorTest</text>
</a>
</g>
<!-- Node1&#45;&gt;Node23 -->
<g id="edge54" class="edge"><title>Node1&#45;&gt;Node23</title>
<path fill="none" stroke="midnightblue" d="M117.436,-777.503C141.529,-782.422 170.414,-788.32 195.64,-793.471"/>
<polygon fill="midnightblue" stroke="midnightblue" points="194.974,-796.907 205.472,-795.479 196.375,-790.049 194.974,-796.907"/>
</g>
<!-- Node24 -->
<g id="node53" class="node"><title>Node24</title>
<a xlink:href="class_urho3_d_1_1_int_rect.html#ac268b351be57db860350147b5eb771ef" target="_top" xlink:title="Return width.">
<polygon fill="none" stroke="black" points="413,-874.5 413,-895.5 537,-895.5 537,-874.5 413,-874.5"/>
<text text-anchor="middle" x="475" y="-882.5" font-family="FreeSans" font-size="10.00">Urho3D::IntRect::Width</text>
</a>
</g>
<!-- Node1&#45;&gt;Node24 -->
<g id="edge62" class="edge"><title>Node1&#45;&gt;Node24</title>
<path fill="none" stroke="midnightblue" d="M75.0954,-777.783C91.4972,-796.385 128.059,-834.131 168,-851 243.729,-882.983 338.848,-888.854 402.98,-888.417"/>
<polygon fill="midnightblue" stroke="midnightblue" points="403.042,-891.916 412.999,-888.295 402.957,-884.917 403.042,-891.916"/>
</g>
<!-- Node25 -->
<g id="node55" class="node"><title>Node25</title>
<a xlink:href="class_urho3_d_1_1_int_rect.html#a69df34bbfeb4f2473fd1bb532e038770" target="_top" xlink:title="Return height.">
<polygon fill="none" stroke="black" points="410.5,-834.5 410.5,-855.5 539.5,-855.5 539.5,-834.5 410.5,-834.5"/>
<text text-anchor="middle" x="475" y="-842.5" font-family="FreeSans" font-size="10.00">Urho3D::IntRect::Height</text>
</a>
</g>
<!-- Node1&#45;&gt;Node25 -->
<g id="edge64" class="edge"><title>Node1&#45;&gt;Node25</title>
<path fill="none" stroke="midnightblue" d="M79.5588,-777.636C98.2457,-791.611 133.531,-815.597 168,-826 244.636,-849.129 336.787,-851.686 400.006,-849.832"/>
<polygon fill="midnightblue" stroke="midnightblue" points="400.412,-853.321 410.288,-849.485 400.175,-846.325 400.412,-853.321"/>
</g>
<!-- Node3 -->
<g id="node5" class="node"><title>Node3</title>
<a xlink:href="class_urho3_d_1_1_graphics.html#aecd0066098f01560de4784346ace7a2f" target="_top" xlink:title="Bind a framebuffer using either extension or core functionality. Used only on OpenGL.">
<polygon fill="none" stroke="black" points="382,-52.5 382,-73.5 568,-73.5 568,-52.5 382,-52.5"/>
<text text-anchor="middle" x="475" y="-60.5" font-family="FreeSans" font-size="10.00">Urho3D::Graphics::BindFramebuffer</text>
</a>
</g>
<!-- Node2&#45;&gt;Node3 -->
<g id="edge4" class="edge"><title>Node2&#45;&gt;Node3</title>
<path fill="none" stroke="midnightblue" d="M334.878,-469.344C338.989,-466.767 342.754,-463.683 346,-460 401.65,-396.866 326.06,-145.876 382,-83 383.029,-81.8433 384.108,-80.7444 385.23,-79.7008"/>
<polygon fill="midnightblue" stroke="midnightblue" points="387.412,-82.4389 393.232,-73.5858 383.161,-76.8771 387.412,-82.4389"/>
</g>
<!-- Node2&#45;&gt;Node4 -->
<g id="edge6" class="edge"><title>Node2&#45;&gt;Node4</title>
<path fill="none" stroke="midnightblue" d="M258.256,-490.701C263.839,-533.324 290.328,-692.584 382,-773 383.56,-774.368 385.186,-775.665 386.868,-776.894"/>
<polygon fill="midnightblue" stroke="midnightblue" points="385.384,-780.096 395.705,-782.49 389.13,-774.183 385.384,-780.096"/>
</g>
<!-- Node5 -->
<g id="node9" class="node"><title>Node5</title>
<a xlink:href="class_urho3_d_1_1_render_surface.html#a3a7c4f50c5887e1d74f30b6350a2619c" target="_top" xlink:title="Return parent texture.">
<polygon fill="none" stroke="black" points="410.5,-0 410.5,-34 539.5,-34 539.5,-0 410.5,-0"/>
<text text-anchor="start" x="418.5" y="-21" font-family="FreeSans" font-size="10.00">Urho3D::RenderSurface</text>
<text text-anchor="middle" x="475" y="-8" font-family="FreeSans" font-size="10.00">::GetParentTexture</text>
</a>
</g>
<!-- Node2&#45;&gt;Node5 -->
<g id="edge8" class="edge"><title>Node2&#45;&gt;Node5</title>
<path fill="none" stroke="midnightblue" d="M334.917,-469.378C339.018,-466.793 342.77,-463.698 346,-460 407.186,-389.947 322.641,-114.607 382,-43 387.191,-36.7381 393.754,-31.9159 400.984,-28.2125"/>
<polygon fill="midnightblue" stroke="midnightblue" points="402.671,-31.2953 410.444,-24.0958 399.878,-24.8767 402.671,-31.2953"/>
</g>
<!-- Node6 -->
<g id="node11" class="node"><title>Node6</title>
<a xlink:href="class_urho3_d_1_1_texture.html#a2f053f59f1001c8c85c9382d07900211" target="_top" xlink:title="Return API&#45;specific texture format.">
<polygon fill="none" stroke="black" points="399,-742.5 399,-763.5 551,-763.5 551,-742.5 399,-742.5"/>
<text text-anchor="middle" x="475" y="-750.5" font-family="FreeSans" font-size="10.00">Urho3D::Texture::GetFormat</text>
</a>
</g>
<!-- Node2&#45;&gt;Node6 -->
<g id="edge10" class="edge"><title>Node2&#45;&gt;Node6</title>
<path fill="none" stroke="midnightblue" d="M258.876,-490.73C266.343,-530.048 297.749,-667.36 382,-733 384.461,-734.917 387.065,-736.661 389.778,-738.245"/>
<polygon fill="midnightblue" stroke="midnightblue" points="388.265,-741.402 398.77,-742.784 391.42,-735.153 388.265,-741.402"/>
</g>
<!-- Node7 -->
<g id="node13" class="node"><title>Node7</title>
<a xlink:href="class_urho3_d_1_1_graphics.html#a36e7c254c8eb1a1f977d150b0d7f6f6c" target="_top" xlink:title="Create a framebuffer using either extension or core functionality. Used only on OpenGL.">
<polygon fill="none" stroke="black" points="405,-690 405,-724 545,-724 545,-690 405,-690"/>
<text text-anchor="start" x="413" y="-711" font-family="FreeSans" font-size="10.00">Urho3D::Graphics::Create</text>
<text text-anchor="middle" x="475" y="-698" font-family="FreeSans" font-size="10.00">Framebuffer</text>
</a>
</g>
<!-- Node2&#45;&gt;Node7 -->
<g id="edge12" class="edge"><title>Node2&#45;&gt;Node7</title>
<path fill="none" stroke="midnightblue" d="M260.469,-490.662C271.942,-524.209 311.978,-628.481 382,-681 386.168,-684.126 390.695,-686.877 395.432,-689.296"/>
<polygon fill="midnightblue" stroke="midnightblue" points="394.21,-692.586 404.761,-693.554 397.116,-686.218 394.21,-692.586"/>
</g>
<!-- Node8 -->
<g id="node15" class="node"><title>Node8</title>
<a xlink:href="class_urho3_d_1_1_render_surface.html#a5c60fb09e5a2dd4545148d5a06d57d4b" target="_top" xlink:title="Return OpenGL renderbuffer if created.">
<polygon fill="none" stroke="black" points="410.5,-638 410.5,-672 539.5,-672 539.5,-638 410.5,-638"/>
<text text-anchor="start" x="418.5" y="-659" font-family="FreeSans" font-size="10.00">Urho3D::RenderSurface</text>
<text text-anchor="middle" x="475" y="-646" font-family="FreeSans" font-size="10.00">::GetRenderBuffer</text>
</a>
</g>
<!-- Node2&#45;&gt;Node8 -->
<g id="edge14" class="edge"><title>Node2&#45;&gt;Node8</title>
<path fill="none" stroke="midnightblue" d="M262.752,-490.518C278.224,-517.796 323.541,-591.308 382,-629 387.775,-632.723 394.084,-635.921 400.609,-638.666"/>
<polygon fill="midnightblue" stroke="midnightblue" points="399.695,-642.063 410.285,-642.371 402.198,-635.526 399.695,-642.063"/>
</g>
<!-- Node9 -->
<g id="node17" class="node"><title>Node9</title>
<a xlink:href="class_urho3_d_1_1_texture.html#a0c6760bb91c25cb9b5387eb9cae27a50" target="_top" xlink:title="Return whether the parameters are dirty.">
<polygon fill="none" stroke="black" points="613.5,-431 613.5,-465 786.5,-465 786.5,-431 613.5,-431"/>
<text text-anchor="start" x="621.5" y="-452" font-family="FreeSans" font-size="10.00">Urho3D::Texture::GetParameters</text>
<text text-anchor="middle" x="700" y="-439" font-family="FreeSans" font-size="10.00">Dirty</text>
</a>
</g>
<!-- Node2&#45;&gt;Node9 -->
<g id="edge16" class="edge"><title>Node2&#45;&gt;Node9</title>
<path fill="none" stroke="midnightblue" d="M341.629,-473.887C416.257,-468.496 524.976,-460.643 603.075,-455.001"/>
<polygon fill="midnightblue" stroke="midnightblue" points="603.682,-458.467 613.404,-454.255 603.177,-451.485 603.682,-458.467"/>
</g>
<!-- Node10 -->
<g id="node19" class="node"><title>Node10</title>
<a xlink:href="class_urho3_d_1_1_graphics.html#a8b325a50b867fe7866389f94e8a8575a" target="_top" xlink:title="Bind texture unit 0 for update. Called by Texture. Used only on OpenGL.">
<polygon fill="none" stroke="red" points="396,-586 396,-620 554,-620 554,-586 396,-586"/>
<text text-anchor="start" x="404" y="-607" font-family="FreeSans" font-size="10.00">Urho3D::Graphics::SetTexture</text>
<text text-anchor="middle" x="475" y="-594" font-family="FreeSans" font-size="10.00">ForUpdate</text>
</a>
</g>
<!-- Node2&#45;&gt;Node10 -->
<g id="edge18" class="edge"><title>Node2&#45;&gt;Node10</title>
<path fill="none" stroke="midnightblue" d="M268.913,-490.792C290.2,-509.589 336.784,-548.568 382,-572 389.198,-575.73 396.937,-579.145 404.766,-582.233"/>
<polygon fill="midnightblue" stroke="midnightblue" points="403.739,-585.587 414.331,-585.838 406.208,-579.036 403.739,-585.587"/>
</g>
<!-- Node11 -->
<g id="node21" class="node"><title>Node11</title>
<a xlink:href="class_urho3_d_1_1_g_p_u_object.html#aead9180b607d1e02a2f94c54e6b275c1" target="_top" xlink:title="Return the object name. Applicable only on OpenGL.">
<polygon fill="none" stroke="black" points="641.5,-541 641.5,-575 758.5,-575 758.5,-541 641.5,-541"/>
<text text-anchor="start" x="649.5" y="-562" font-family="FreeSans" font-size="10.00">Urho3D::GPUObject::</text>
<text text-anchor="middle" x="700" y="-549" font-family="FreeSans" font-size="10.00">GetGPUObjectName</text>
</a>
</g>
<!-- Node2&#45;&gt;Node11 -->
<g id="edge34" class="edge"><title>Node2&#45;&gt;Node11</title>
<path fill="none" stroke="midnightblue" d="M274.004,-490.619C297.344,-504.574 341.081,-528.537 382,-539 465.795,-560.426 565.881,-562.765 631.084,-561.341"/>
<polygon fill="midnightblue" stroke="midnightblue" points="631.334,-564.836 641.242,-561.083 631.156,-557.838 631.334,-564.836"/>
</g>
<!-- Node12 -->
<g id="node23" class="node"><title>Node12</title>
<a xlink:href="class_urho3_d_1_1_texture.html#a7eaf51cf81ac775bdc87e00ec1a47979" target="_top" xlink:title="Update dirty parameters to the texture object. Called by Graphics when assigning the texture...">
<polygon fill="none" stroke="red" points="604.5,-495.5 604.5,-516.5 795.5,-516.5 795.5,-495.5 604.5,-495.5"/>
<text text-anchor="middle" x="700" y="-503.5" font-family="FreeSans" font-size="10.00">Urho3D::Texture::UpdateParameters</text>
</a>
</g>
<!-- Node2&#45;&gt;Node12 -->
<g id="edge22" class="edge"><title>Node2&#45;&gt;Node12</title>
<path fill="none" stroke="midnightblue" d="M341.629,-484.967C413.373,-489.178 516.623,-495.237 593.887,-499.772"/>
<polygon fill="midnightblue" stroke="midnightblue" points="593.943,-503.281 604.131,-500.373 594.353,-496.293 593.943,-503.281"/>
</g>
<!-- Node13 -->
<g id="node25" class="node"><title>Node13</title>
<a xlink:href="class_urho3_d_1_1_graphics.html#ab7a2098ed479f28acbd7b3549c5dc205" target="_top" xlink:title="Set texture.">
<polygon fill="none" stroke="red" points="396,-508.5 396,-529.5 554,-529.5 554,-508.5 396,-508.5"/>
<text text-anchor="middle" x="475" y="-516.5" font-family="FreeSans" font-size="10.00">Urho3D::Graphics::SetTexture</text>
</a>
</g>
<!-- Node2&#45;&gt;Node13 -->
<g id="edge24" class="edge"><title>Node2&#45;&gt;Node13</title>
<path fill="none" stroke="midnightblue" d="M315.707,-490.503C343.571,-495.487 377.051,-501.477 406.11,-506.676"/>
<polygon fill="midnightblue" stroke="midnightblue" points="405.728,-510.163 416.188,-508.479 406.961,-503.272 405.728,-510.163"/>
</g>
<!-- Node14 -->
<g id="node30" class="node"><title>Node14</title>
<a xlink:href="class_urho3_d_1_1_graphics.html#a5f50cd062d2ef3cde9fa62a708bb2acb" target="_top" xlink:title="Bind a framebuffer color attachment using either extension or core functionality. Used only on OpenGL...">
<polygon fill="none" stroke="black" points="398.5,-380 398.5,-414 551.5,-414 551.5,-380 398.5,-380"/>
<text text-anchor="start" x="406.5" y="-401" font-family="FreeSans" font-size="10.00">Urho3D::Graphics::BindColor</text>
<text text-anchor="middle" x="475" y="-388" font-family="FreeSans" font-size="10.00">Attachment</text>
</a>
</g>
<!-- Node2&#45;&gt;Node14 -->
<g id="edge32" class="edge"><title>Node2&#45;&gt;Node14</title>
<path fill="none" stroke="midnightblue" d="M322.046,-469.442C330.34,-466.931 338.531,-463.83 346,-460 365.049,-450.232 363.467,-438.715 382,-428 388.382,-424.31 395.266,-420.982 402.3,-417.998"/>
<polygon fill="midnightblue" stroke="midnightblue" points="403.965,-421.102 411.952,-414.141 401.368,-414.602 403.965,-421.102"/>
</g>
<!-- Node15 -->
<g id="node33" class="node"><title>Node15</title>
<a xlink:href="class_urho3_d_1_1_graphics.html#ae19c4b22ebcbf2242f462b2e330ad166" target="_top" xlink:title="Bind a framebuffer depth attachment using either extension or core functionality. Used only on OpenGL...">
<polygon fill="none" stroke="black" points="396,-328 396,-362 554,-362 554,-328 396,-328"/>
<text text-anchor="start" x="404" y="-349" font-family="FreeSans" font-size="10.00">Urho3D::Graphics::BindDepth</text>
<text text-anchor="middle" x="475" y="-336" font-family="FreeSans" font-size="10.00">Attachment</text>
</a>
</g>
<!-- Node2&#45;&gt;Node15 -->
<g id="edge36" class="edge"><title>Node2&#45;&gt;Node15</title>
<path fill="none" stroke="midnightblue" d="M331.152,-469.457C336.497,-466.905 341.532,-463.792 346,-460 378.532,-432.39 350.19,-399.439 382,-371 383.547,-369.617 385.161,-368.307 386.833,-367.067"/>
<polygon fill="midnightblue" stroke="midnightblue" points="389.102,-369.769 395.627,-361.421 385.321,-363.879 389.102,-369.769"/>
</g>
<!-- Node16 -->
<g id="node35" class="node"><title>Node16</title>
<a xlink:href="class_urho3_d_1_1_graphics.html#a620884eac01f008636eda07edd907aa5" target="_top" xlink:title="Bind a framebuffer stencil attachment using either extension or core functionality. Used only on OpenGL.">
<polygon fill="none" stroke="black" points="394.5,-276 394.5,-310 555.5,-310 555.5,-276 394.5,-276"/>
<text text-anchor="start" x="402.5" y="-297" font-family="FreeSans" font-size="10.00">Urho3D::Graphics::BindStencil</text>
<text text-anchor="middle" x="475" y="-284" font-family="FreeSans" font-size="10.00">Attachment</text>
</a>
</g>
<!-- Node2&#45;&gt;Node16 -->
<g id="edge38" class="edge"><title>Node2&#45;&gt;Node16</title>
<path fill="none" stroke="midnightblue" d="M332.994,-469.429C337.732,-466.86 342.138,-463.752 346,-460 392.39,-414.933 336.787,-365.248 382,-319 383.249,-317.723 384.555,-316.506 385.911,-315.349"/>
<polygon fill="midnightblue" stroke="midnightblue" points="388.15,-318.048 394.18,-309.336 384.034,-312.386 388.15,-318.048"/>
</g>
<!-- Node17 -->
<g id="node37" class="node"><title>Node17</title>
<a xlink:href="class_urho3_d_1_1_texture.html#af0adf78530abb05a692b52c0df297c9f" target="_top" xlink:title="Return whether is using sRGB sampling and writing.">
<polygon fill="none" stroke="black" points="403,-236.5 403,-257.5 547,-257.5 547,-236.5 403,-236.5"/>
<text text-anchor="middle" x="475" y="-244.5" font-family="FreeSans" font-size="10.00">Urho3D::Texture::GetSRGB</text>
</a>
</g>
<!-- Node2&#45;&gt;Node17 -->
<g id="edge40" class="edge"><title>Node2&#45;&gt;Node17</title>
<path fill="none" stroke="midnightblue" d="M333.688,-469.476C338.202,-466.887 342.373,-463.762 346,-460 406.56,-397.18 321.151,-329.54 382,-267 385.487,-263.416 389.451,-260.399 393.729,-257.867"/>
<polygon fill="midnightblue" stroke="midnightblue" points="395.496,-260.898 402.902,-253.322 392.387,-254.626 395.496,-260.898"/>
</g>
<!-- Node18 -->
<g id="node39" class="node"><title>Node18</title>
<a xlink:href="class_urho3_d_1_1_vertex_buffer.html#abadb9352441a825a9ba8ba23d43b5992" target="_top" xlink:title="Return vertex elements.">
<polygon fill="none" stroke="black" points="415.5,-184 415.5,-218 534.5,-218 534.5,-184 415.5,-184"/>
<text text-anchor="start" x="423.5" y="-205" font-family="FreeSans" font-size="10.00">Urho3D::VertexBuffer</text>
<text text-anchor="middle" x="475" y="-192" font-family="FreeSans" font-size="10.00">::GetElements</text>
</a>
</g>
<!-- Node2&#45;&gt;Node18 -->
<g id="edge42" class="edge"><title>Node2&#45;&gt;Node18</title>
<path fill="none" stroke="midnightblue" d="M334.229,-469.364C338.554,-466.792 342.54,-463.703 346,-460 417.542,-383.439 312.456,-305.38 382,-227 388.441,-219.74 396.725,-214.434 405.689,-210.57"/>
<polygon fill="midnightblue" stroke="midnightblue" points="407.062,-213.794 415.227,-207.043 404.634,-207.228 407.062,-213.794"/>
</g>
<!-- Node19 -->
<g id="node41" class="node"><title>Node19</title>
<a xlink:href="class_urho3_d_1_1_p_o_d_vector.html#ac564a928bd75354adfdeb2b7fd225149" target="_top" xlink:title="Return iterator to the beginning.">
<polygon fill="none" stroke="black" points="416.5,-132 416.5,-166 533.5,-166 533.5,-132 416.5,-132"/>
<text text-anchor="start" x="424.5" y="-153" font-family="FreeSans" font-size="10.00">Urho3D::PODVector::</text>
<text text-anchor="middle" x="475" y="-140" font-family="FreeSans" font-size="10.00">Begin</text>
</a>
</g>
<!-- Node2&#45;&gt;Node19 -->
<g id="edge44" class="edge"><title>Node2&#45;&gt;Node19</title>
<path fill="none" stroke="midnightblue" d="M334.347,-469.473C338.644,-466.875 342.591,-463.75 346,-460 431.871,-365.52 298.593,-271.663 382,-175 388.654,-167.289 397.386,-161.774 406.837,-157.846"/>
<polygon fill="midnightblue" stroke="midnightblue" points="408.223,-161.068 416.477,-154.425 405.882,-154.471 408.223,-161.068"/>
</g>
<!-- Node20 -->
<g id="node43" class="node"><title>Node20</title>
<a xlink:href="class_urho3_d_1_1_p_o_d_vector.html#ad9cedde70f6aac8dde2b7bfba7ca4fbb" target="_top" xlink:title="Return iterator to the end.">
<polygon fill="none" stroke="black" points="407.5,-92.5 407.5,-113.5 542.5,-113.5 542.5,-92.5 407.5,-92.5"/>
<text text-anchor="middle" x="475" y="-100.5" font-family="FreeSans" font-size="10.00">Urho3D::PODVector::End</text>
</a>
</g>
<!-- Node2&#45;&gt;Node20 -->
<g id="edge46" class="edge"><title>Node2&#45;&gt;Node20</title>
<path fill="none" stroke="midnightblue" d="M334.83,-469.301C338.952,-466.735 342.733,-463.665 346,-460 446.235,-347.562 281.247,-234.974 382,-123 386.422,-118.085 391.735,-114.219 397.553,-111.193"/>
<polygon fill="midnightblue" stroke="midnightblue" points="399.255,-114.27 407.054,-107.099 396.485,-107.842 399.255,-114.27"/>
</g>
<!-- Node10&#45;&gt;Node11 -->
<g id="edge20" class="edge"><title>Node10&#45;&gt;Node11</title>
<path fill="none" stroke="midnightblue" d="M554.01,-587.198C579.273,-582.145 607.015,-576.597 631.468,-571.706"/>
<polygon fill="midnightblue" stroke="midnightblue" points="632.254,-575.119 641.373,-569.725 630.881,-568.255 632.254,-575.119"/>
</g>
<!-- Node13&#45;&gt;Node9 -->
<g id="edge28" class="edge"><title>Node13&#45;&gt;Node9</title>
<path fill="none" stroke="midnightblue" d="M508.685,-508.371C542.279,-497.77 594.716,-481.223 636.203,-468.131"/>
<polygon fill="midnightblue" stroke="midnightblue" points="637.472,-471.401 645.955,-465.054 635.365,-464.726 637.472,-471.401"/>
</g>
<!-- Node13&#45;&gt;Node11 -->
<g id="edge26" class="edge"><title>Node13&#45;&gt;Node11</title>
<path fill="none" stroke="midnightblue" d="M535.592,-529.503C565.061,-534.611 600.616,-540.773 631.112,-546.059"/>
<polygon fill="midnightblue" stroke="midnightblue" points="630.793,-549.556 641.244,-547.816 631.989,-542.659 630.793,-549.556"/>
</g>
<!-- Node13&#45;&gt;Node12 -->
<g id="edge30" class="edge"><title>Node13&#45;&gt;Node12</title>
<path fill="none" stroke="midnightblue" d="M554.01,-514.435C566.926,-513.689 580.489,-512.905 593.93,-512.128"/>
<polygon fill="midnightblue" stroke="midnightblue" points="594.39,-515.608 604.172,-511.537 593.987,-508.619 594.39,-515.608"/>
</g>
<!-- Node23&#45;&gt;Node4 -->
<g id="edge56" class="edge"><title>Node23&#45;&gt;Node4</title>
<path fill="none" stroke="midnightblue" d="M345.669,-803.153C358.914,-802.728 372.574,-802.289 385.829,-801.863"/>
<polygon fill="midnightblue" stroke="midnightblue" points="385.991,-805.36 395.873,-801.541 385.766,-798.364 385.991,-805.36"/>
</g>
<!-- Node23&#45;&gt;Node24 -->
<g id="edge58" class="edge"><title>Node23&#45;&gt;Node24</title>
<path fill="none" stroke="midnightblue" d="M275.915,-816.613C299.916,-829.681 342.904,-851.765 382,-865 389.674,-867.598 397.821,-869.934 405.979,-872.014"/>
<polygon fill="midnightblue" stroke="midnightblue" points="405.361,-875.466 415.904,-874.425 407.013,-868.663 405.361,-875.466"/>
</g>
<!-- Node23&#45;&gt;Node25 -->
<g id="edge60" class="edge"><title>Node23&#45;&gt;Node25</title>
<path fill="none" stroke="midnightblue" d="M315.707,-816.503C343.571,-821.487 377.051,-827.477 406.11,-832.676"/>
<polygon fill="midnightblue" stroke="midnightblue" points="405.728,-836.163 416.188,-834.479 406.961,-829.272 405.728,-836.163"/>
</g>
</g>
</svg>
