<?xml version="1.0" encoding="UTF-8" standalone="no"?>
<!DOCTYPE svg PUBLIC "-//W3C//DTD SVG 1.1//EN"
 "http://www.w3.org/Graphics/SVG/1.1/DTD/svg11.dtd">
<!-- Generated by graphviz version 2.36.0 (20140111.2315)
 -->
<!-- Title: Urho3D::TmxFile2D Pages: 1 -->
<svg width="2398pt" height="349pt"
 viewBox="0.00 0.00 2398.00 349.00" xmlns="http://www.w3.org/2000/svg" xmlns:xlink="http://www.w3.org/1999/xlink">
<g id="graph0" class="graph" transform="scale(1 1) rotate(0) translate(4 345)">
<title>Urho3D::TmxFile2D</title>
<!-- Node1 -->
<g id="node1" class="node"><title>Node1</title>
<polygon fill="#bfbfbf" stroke="black" points="2282,-154.5 2282,-173.5 2390,-173.5 2390,-154.5 2282,-154.5"/>
<text text-anchor="middle" x="2336" y="-161.5" font-family="FreeSans" font-size="10.00">Urho3D::TmxFile2D</text>
</g>
<!-- Node2 -->
<g id="node2" class="node"><title>Node2</title>
<g id="a_node2"><a xlink:href="class_urho3_d_1_1_resource.html" target="_top" xlink:title="Base class for resources. ">
<polygon fill="none" stroke="black" points="1516.5,-207.5 1516.5,-226.5 1619.5,-226.5 1619.5,-207.5 1516.5,-207.5"/>
<text text-anchor="middle" x="1568" y="-214.5" font-family="FreeSans" font-size="10.00">Urho3D::Resource</text>
</a>
</g>
</g>
<!-- Node2&#45;&gt;Node1 -->
<g id="edge1" class="edge"><title>Node2&#45;&gt;Node1</title>
<path fill="none" stroke="midnightblue" d="M1618.89,-228.682C1721.79,-251.057 1964.81,-295.016 2166,-263 2211.25,-255.799 2224.61,-254.4 2264,-231 2290.52,-215.247 2315.22,-188.029 2327.28,-173.61"/>
<polygon fill="midnightblue" stroke="midnightblue" points="1619.6,-225.255 1609.08,-226.522 1618.1,-232.091 1619.6,-225.255"/>
</g>
<!-- Node24 -->
<g id="node24" class="node"><title>Node24</title>
<g id="a_node24"><a xlink:href="class_urho3_d_1_1_x_m_l_file.html" target="_top" xlink:title="XML document resource. ">
<polygon fill="none" stroke="black" points="1808,-156.5 1808,-175.5 1902,-175.5 1902,-156.5 1808,-156.5"/>
<text text-anchor="middle" x="1855" y="-163.5" font-family="FreeSans" font-size="10.00">Urho3D::XMLFile</text>
</a>
</g>
</g>
<!-- Node2&#45;&gt;Node24 -->
<g id="edge34" class="edge"><title>Node2&#45;&gt;Node24</title>
<path fill="none" stroke="midnightblue" d="M1629.93,-207.118C1672.12,-200.15 1729.55,-190.415 1780,-181 1789.15,-179.293 1798.92,-177.379 1808.25,-175.504"/>
<polygon fill="midnightblue" stroke="midnightblue" points="1629.11,-203.705 1619.81,-208.784 1630.25,-210.612 1629.11,-203.705"/>
</g>
<!-- Node3 -->
<g id="node3" class="node"><title>Node3</title>
<g id="a_node3"><a xlink:href="class_urho3_d_1_1_object.html" target="_top" xlink:title="Base class for objects with type identification, subsystem access and event sending/receiving capabil...">
<polygon fill="none" stroke="black" points="1208,-259.5 1208,-278.5 1298,-278.5 1298,-259.5 1208,-259.5"/>
<text text-anchor="middle" x="1253" y="-266.5" font-family="FreeSans" font-size="10.00">Urho3D::Object</text>
</a>
</g>
</g>
<!-- Node3&#45;&gt;Node2 -->
<g id="edge2" class="edge"><title>Node3&#45;&gt;Node2</title>
<path fill="none" stroke="midnightblue" d="M1308.07,-265.995C1355.4,-262.642 1425.82,-255.896 1486,-243 1505.06,-238.915 1526,-232.13 1541.82,-226.516"/>
<polygon fill="midnightblue" stroke="midnightblue" points="1307.77,-262.507 1298.03,-266.68 1308.25,-269.491 1307.77,-262.507"/>
</g>
<!-- Node4 -->
<g id="node4" class="node"><title>Node4</title>
<g id="a_node4"><a xlink:href="class_urho3_d_1_1_ref_counted.html" target="_top" xlink:title="Base class for intrusively reference&#45;counted objects. These are noncopyable and non&#45;assignable. ">
<polygon fill="none" stroke="black" points="484,-250.5 484,-269.5 598,-269.5 598,-250.5 484,-250.5"/>
<text text-anchor="middle" x="541" y="-257.5" font-family="FreeSans" font-size="10.00">Urho3D::RefCounted</text>
</a>
</g>
</g>
<!-- Node4&#45;&gt;Node3 -->
<g id="edge3" class="edge"><title>Node4&#45;&gt;Node3</title>
<path fill="none" stroke="midnightblue" d="M608.325,-261.37C700.617,-263.218 873.01,-266.453 1020,-268 1085.45,-268.689 1161.29,-268.906 1207.95,-268.973"/>
<polygon fill="midnightblue" stroke="midnightblue" points="608.358,-257.87 598.289,-261.169 608.217,-264.869 608.358,-257.87"/>
</g>
<!-- Node6 -->
<g id="node6" class="node"><title>Node6</title>
<g id="a_node6"><a xlink:href="class_urho3_d_1_1_context.html" target="_top" xlink:title="Urho3D execution context. Provides access to subsystems, object factories and attributes, and event receivers. ">
<polygon fill="none" stroke="red" points="880.5,-184.5 880.5,-203.5 977.5,-203.5 977.5,-184.5 880.5,-184.5"/>
<text text-anchor="middle" x="929" y="-191.5" font-family="FreeSans" font-size="10.00">Urho3D::Context</text>
</a>
</g>
</g>
<!-- Node4&#45;&gt;Node6 -->
<g id="edge6" class="edge"><title>Node4&#45;&gt;Node6</title>
<path fill="none" stroke="midnightblue" d="M607.828,-248.744C685.185,-235.518 811.665,-213.892 880.212,-202.171"/>
<polygon fill="midnightblue" stroke="midnightblue" points="606.983,-245.338 597.715,-250.474 608.162,-252.238 606.983,-245.338"/>
</g>
<!-- Node5 -->
<g id="node5" class="node"><title>Node5</title>
<g id="a_node5"><a xlink:href="struct_urho3_d_1_1_ref_count.html" target="_top" xlink:title="Reference count structure. ">
<polygon fill="none" stroke="black" points="223,-321.5 223,-340.5 325,-340.5 325,-321.5 223,-321.5"/>
<text text-anchor="middle" x="274" y="-328.5" font-family="FreeSans" font-size="10.00">Urho3D::RefCount</text>
</a>
</g>
</g>
<!-- Node5&#45;&gt;Node4 -->
<g id="edge4" class="edge"><title>Node5&#45;&gt;Node4</title>
<path fill="none" stroke="#9a32cd" stroke-dasharray="5,2" d="M320.428,-318.829C372.493,-304.879 456.746,-282.306 504.323,-269.559"/>
<polygon fill="#9a32cd" stroke="#9a32cd" points="319.218,-315.529 310.464,-321.498 321.029,-322.291 319.218,-315.529"/>
<text text-anchor="middle" x="371" y="-314" font-family="FreeSans" font-size="10.00"> refCount_</text>
</g>
<!-- Node6&#45;&gt;Node3 -->
<g id="edge5" class="edge"><title>Node6&#45;&gt;Node3</title>
<path fill="none" stroke="#9a32cd" stroke-dasharray="5,2" d="M988.065,-190.922C1040.76,-190.642 1119.01,-196.683 1178,-229 1188.78,-234.906 1185.82,-243.114 1196,-250 1201.61,-253.796 1208.05,-256.897 1214.52,-259.41"/>
<polygon fill="#9a32cd" stroke="#9a32cd" points="987.833,-187.425 977.88,-191.056 987.925,-194.424 987.833,-187.425"/>
<text text-anchor="middle" x="1099" y="-232" font-family="FreeSans" font-size="10.00"> context_</text>
</g>
<!-- Node7 -->
<g id="node7" class="node"><title>Node7</title>
<g id="a_node7"><a xlink:href="class_urho3_d_1_1_hash_map.html" target="_top" xlink:title="Urho3D::HashMap\&lt; Urho3D\l::Object *, Urho3D::HashMap\l\&lt; Urho3D::StringHash, Urho3D\l::SharedPtr\&lt; Urho3D::EventReceiverGroup \&gt; \&gt; \&gt;">
<polygon fill="none" stroke="black" points="414,-97 414,-149 668,-149 668,-97 414,-97"/>
<text text-anchor="start" x="422" y="-137" font-family="FreeSans" font-size="10.00">Urho3D::HashMap&lt; Urho3D</text>
<text text-anchor="start" x="422" y="-126" font-family="FreeSans" font-size="10.00">::Object *, Urho3D::HashMap</text>
<text text-anchor="start" x="422" y="-115" font-family="FreeSans" font-size="10.00">&lt; Urho3D::StringHash, Urho3D</text>
<text text-anchor="middle" x="541" y="-104" font-family="FreeSans" font-size="10.00">::SharedPtr&lt; Urho3D::EventReceiverGroup &gt; &gt; &gt;</text>
</a>
</g>
</g>
<!-- Node7&#45;&gt;Node6 -->
<g id="edge7" class="edge"><title>Node7&#45;&gt;Node6</title>
<path fill="none" stroke="#9a32cd" stroke-dasharray="5,2" d="M677.988,-148.013C748.448,-160.974 830.047,-175.983 880.346,-185.235"/>
<polygon fill="#9a32cd" stroke="#9a32cd" points="678.592,-144.566 668.124,-146.199 677.326,-151.45 678.592,-144.566"/>
<text text-anchor="middle" x="762" y="-180" font-family="FreeSans" font-size="10.00"> specificEventReceivers_</text>
</g>
<!-- Node8 -->
<g id="node8" class="node"><title>Node8</title>
<g id="a_node8"><a xlink:href="class_urho3_d_1_1_hash_base.html" target="_top" xlink:title="Hash set/map base class. ">
<polygon fill="none" stroke="black" points="220,-113.5 220,-132.5 328,-132.5 328,-113.5 220,-113.5"/>
<text text-anchor="middle" x="274" y="-120.5" font-family="FreeSans" font-size="10.00">Urho3D::HashBase</text>
</a>
</g>
</g>
<!-- Node8&#45;&gt;Node7 -->
<g id="edge8" class="edge"><title>Node8&#45;&gt;Node7</title>
<path fill="none" stroke="midnightblue" d="M338.478,-123C361.223,-123 387.731,-123 413.906,-123"/>
<polygon fill="midnightblue" stroke="midnightblue" points="338.308,-119.5 328.308,-123 338.308,-126.5 338.308,-119.5"/>
</g>
<!-- Node11 -->
<g id="node11" class="node"><title>Node11</title>
<g id="a_node11"><a xlink:href="class_urho3_d_1_1_hash_map.html" target="_top" xlink:title="Urho3D::HashMap\&lt; Urho3D\l::StringHash, Urho3D::\lSharedPtr\&lt; Urho3D::EventReceiver\lGroup \&gt; \&gt;">
<polygon fill="none" stroke="black" points="448.5,-168 448.5,-220 633.5,-220 633.5,-168 448.5,-168"/>
<text text-anchor="start" x="456.5" y="-208" font-family="FreeSans" font-size="10.00">Urho3D::HashMap&lt; Urho3D</text>
<text text-anchor="start" x="456.5" y="-197" font-family="FreeSans" font-size="10.00">::StringHash, Urho3D::</text>
<text text-anchor="start" x="456.5" y="-186" font-family="FreeSans" font-size="10.00">SharedPtr&lt; Urho3D::EventReceiver</text>
<text text-anchor="middle" x="541" y="-175" font-family="FreeSans" font-size="10.00">Group &gt; &gt;</text>
</a>
</g>
</g>
<!-- Node8&#45;&gt;Node11 -->
<g id="edge14" class="edge"><title>Node8&#45;&gt;Node11</title>
<path fill="none" stroke="midnightblue" d="M320.397,-135.163C355.447,-144.554 405.098,-157.856 448.324,-169.438"/>
<polygon fill="midnightblue" stroke="midnightblue" points="321.029,-131.709 310.464,-132.502 319.218,-138.471 321.029,-131.709"/>
</g>
<!-- Node16 -->
<g id="node16" class="node"><title>Node16</title>
<g id="a_node16"><a xlink:href="class_urho3_d_1_1_hash_map.html" target="_top" xlink:title="Urho3D::HashMap\&lt; Urho3D\l::String, Urho3D::SharedPtr\l\&lt; Urho3D::XMLFile \&gt; \&gt;">
<polygon fill="none" stroke="black" points="686,-298.5 686,-339.5 838,-339.5 838,-298.5 686,-298.5"/>
<text text-anchor="start" x="694" y="-327.5" font-family="FreeSans" font-size="10.00">Urho3D::HashMap&lt; Urho3D</text>
<text text-anchor="start" x="694" y="-316.5" font-family="FreeSans" font-size="10.00">::String, Urho3D::SharedPtr</text>
<text text-anchor="middle" x="762" y="-305.5" font-family="FreeSans" font-size="10.00">&lt; Urho3D::XMLFile &gt; &gt;</text>
</a>
</g>
</g>
<!-- Node8&#45;&gt;Node16 -->
<g id="edge22" class="edge"><title>Node8&#45;&gt;Node16</title>
<path fill="none" stroke="midnightblue" d="M285.398,-141.819C305.333,-175.851 352.466,-247.053 414,-279 499.441,-323.358 612.352,-328.084 685.808,-325.272"/>
<polygon fill="midnightblue" stroke="midnightblue" points="288.303,-139.847 280.302,-132.901 282.225,-143.32 288.303,-139.847"/>
</g>
<!-- Node19 -->
<g id="node19" class="node"><title>Node19</title>
<g id="a_node19"><a xlink:href="class_urho3_d_1_1_hash_map.html" target="_top" xlink:title="Urho3D::HashMap\&lt; int,\l Urho3D::SharedPtr\&lt; Urho3D\l::PropertySet2D \&gt; \&gt;">
<polygon fill="none" stroke="black" points="1020,-40.5 1020,-81.5 1178,-81.5 1178,-40.5 1020,-40.5"/>
<text text-anchor="start" x="1028" y="-69.5" font-family="FreeSans" font-size="10.00">Urho3D::HashMap&lt; int,</text>
<text text-anchor="start" x="1028" y="-58.5" font-family="FreeSans" font-size="10.00"> Urho3D::SharedPtr&lt; Urho3D</text>
<text text-anchor="middle" x="1099" y="-47.5" font-family="FreeSans" font-size="10.00">::PropertySet2D &gt; &gt;</text>
</a>
</g>
</g>
<!-- Node8&#45;&gt;Node19 -->
<g id="edge26" class="edge"><title>Node8&#45;&gt;Node19</title>
<path fill="none" stroke="midnightblue" d="M313.852,-110.535C341.474,-102.268 379.623,-92.0448 414,-87 631.663,-55.0581 892.212,-55.717 1019.8,-58.5302"/>
<polygon fill="midnightblue" stroke="midnightblue" points="312.726,-107.219 304.179,-113.479 314.764,-113.916 312.726,-107.219"/>
</g>
<!-- Node22 -->
<g id="node22" class="node"><title>Node22</title>
<g id="a_node22"><a xlink:href="class_urho3_d_1_1_hash_map.html" target="_top" xlink:title="Urho3D::HashMap\&lt; int,\l Urho3D::SharedPtr\&lt; Urho3D\l::Sprite2D \&gt; \&gt;">
<polygon fill="none" stroke="black" points="1328,-0.5 1328,-41.5 1486,-41.5 1486,-0.5 1328,-0.5"/>
<text text-anchor="start" x="1336" y="-29.5" font-family="FreeSans" font-size="10.00">Urho3D::HashMap&lt; int,</text>
<text text-anchor="start" x="1336" y="-18.5" font-family="FreeSans" font-size="10.00"> Urho3D::SharedPtr&lt; Urho3D</text>
<text text-anchor="middle" x="1407" y="-7.5" font-family="FreeSans" font-size="10.00">::Sprite2D &gt; &gt;</text>
</a>
</g>
</g>
<!-- Node8&#45;&gt;Node22 -->
<g id="edge31" class="edge"><title>Node8&#45;&gt;Node22</title>
<path fill="none" stroke="midnightblue" d="M297.464,-107.827C341.788,-79.408 444.501,-21 540,-21 540,-21 540,-21 1100,-21 1177.43,-21 1265.88,-21 1327.7,-21"/>
<polygon fill="midnightblue" stroke="midnightblue" points="295.379,-105.009 288.916,-113.404 299.204,-110.871 295.379,-105.009"/>
</g>
<!-- Node9 -->
<g id="node9" class="node"><title>Node9</title>
<g id="a_node9"><a xlink:href="struct_urho3_d_1_1_hash_node_base.html" target="_top" xlink:title="Hash set/map node base class. ">
<polygon fill="none" stroke="black" points="0,-155.5 0,-174.5 134,-174.5 134,-155.5 0,-155.5"/>
<text text-anchor="middle" x="67" y="-162.5" font-family="FreeSans" font-size="10.00">Urho3D::HashNodeBase</text>
</a>
</g>
</g>
<!-- Node9&#45;&gt;Node8 -->
<g id="edge9" class="edge"><title>Node9&#45;&gt;Node8</title>
<path fill="none" stroke="#9a32cd" stroke-dasharray="5,2" d="M124.619,-153.4C156.608,-146.846 196.11,-138.753 226.312,-132.565"/>
<polygon fill="#9a32cd" stroke="#9a32cd" points="123.612,-150.034 114.518,-155.47 125.017,-156.891 123.612,-150.034"/>
<text text-anchor="middle" x="177" y="-173" font-family="FreeSans" font-size="10.00"> ptrs_</text>
<text text-anchor="middle" x="177" y="-162" font-family="FreeSans" font-size="10.00">tail_</text>
<text text-anchor="middle" x="177" y="-151" font-family="FreeSans" font-size="10.00">head_</text>
</g>
<!-- Node9&#45;&gt;Node9 -->
<g id="edge10" class="edge"><title>Node9&#45;&gt;Node9</title>
<path fill="none" stroke="#9a32cd" stroke-dasharray="5,2" d="M46.6306,-184.4C47.991,-189.315 54.7808,-193 67,-193 86.5508,-193 92.2022,-183.565 83.9542,-174.757"/>
<polygon fill="#9a32cd" stroke="#9a32cd" points="50.0065,-185.352 50.0458,-174.757 43.4081,-183.015 50.0065,-185.352"/>
<text text-anchor="middle" x="67" y="-218" font-family="FreeSans" font-size="10.00"> next_</text>
<text text-anchor="middle" x="67" y="-207" font-family="FreeSans" font-size="10.00">prev_</text>
<text text-anchor="middle" x="67" y="-196" font-family="FreeSans" font-size="10.00">down_</text>
</g>
<!-- Node10 -->
<g id="node10" class="node"><title>Node10</title>
<g id="a_node10"><a xlink:href="struct_urho3_d_1_1_allocator_block.html" target="_top" xlink:title="Allocator memory block. ">
<polygon fill="none" stroke="red" points="3.5,-88.5 3.5,-107.5 130.5,-107.5 130.5,-88.5 3.5,-88.5"/>
<text text-anchor="middle" x="67" y="-95.5" font-family="FreeSans" font-size="10.00">Urho3D::AllocatorBlock</text>
</a>
</g>
</g>
<!-- Node10&#45;&gt;Node8 -->
<g id="edge11" class="edge"><title>Node10&#45;&gt;Node8</title>
<path fill="none" stroke="#9a32cd" stroke-dasharray="5,2" d="M140.821,-106.881C166.852,-110.055 195.677,-113.57 219.749,-116.506"/>
<polygon fill="#9a32cd" stroke="#9a32cd" points="140.971,-103.373 130.621,-105.637 140.123,-110.322 140.971,-103.373"/>
<text text-anchor="middle" x="177" y="-118" font-family="FreeSans" font-size="10.00"> allocator_</text>
</g>
<!-- Node10&#45;&gt;Node10 -->
<g id="edge12" class="edge"><title>Node10&#45;&gt;Node10</title>
<path fill="none" stroke="#9a32cd" stroke-dasharray="5,2" d="M46.6306,-117.4C47.991,-122.315 54.7808,-126 67,-126 86.5508,-126 92.2022,-116.565 83.9542,-107.757"/>
<polygon fill="#9a32cd" stroke="#9a32cd" points="50.0065,-118.352 50.0458,-107.757 43.4081,-116.015 50.0065,-118.352"/>
<text text-anchor="middle" x="67" y="-129" font-family="FreeSans" font-size="10.00"> next_</text>
</g>
<!-- Node11&#45;&gt;Node6 -->
<g id="edge13" class="edge"><title>Node11&#45;&gt;Node6</title>
<path fill="none" stroke="#9a32cd" stroke-dasharray="5,2" d="M644.117,-194C720.629,-194 821.837,-194 880.444,-194"/>
<polygon fill="#9a32cd" stroke="#9a32cd" points="643.966,-190.5 633.966,-194 643.966,-197.5 643.966,-190.5"/>
<text text-anchor="middle" x="762" y="-197" font-family="FreeSans" font-size="10.00"> eventReceivers_</text>
</g>
<!-- Node12 -->
<g id="node12" class="node"><title>Node12</title>
<g id="a_node12"><a xlink:href="class_urho3_d_1_1_linked_list.html" target="_top" xlink:title="Urho3D::LinkedList\l\&lt; Urho3D::EventHandler \&gt;">
<polygon fill="none" stroke="red" points="856,-223 856,-253 1002,-253 1002,-223 856,-223"/>
<text text-anchor="start" x="864" y="-241" font-family="FreeSans" font-size="10.00">Urho3D::LinkedList</text>
<text text-anchor="middle" x="929" y="-230" font-family="FreeSans" font-size="10.00">&lt; Urho3D::EventHandler &gt;</text>
</a>
</g>
</g>
<!-- Node12&#45;&gt;Node3 -->
<g id="edge15" class="edge"><title>Node12&#45;&gt;Node3</title>
<path fill="none" stroke="#9a32cd" stroke-dasharray="5,2" d="M1012.16,-242.551C1060.53,-245.665 1122.86,-250.429 1178,-257 1187.69,-258.155 1198.06,-259.663 1207.87,-261.219"/>
<polygon fill="#9a32cd" stroke="#9a32cd" points="1012.25,-239.05 1002.05,-241.911 1011.81,-246.036 1012.25,-239.05"/>
<text text-anchor="middle" x="1099" y="-260" font-family="FreeSans" font-size="10.00"> eventHandlers_</text>
</g>
<!-- Node13 -->
<g id="node13" class="node"><title>Node13</title>
<g id="a_node13"><a xlink:href="class_urho3_d_1_1_timer.html" target="_top" xlink:title="Low&#45;resolution operating system timer. ">
<polygon fill="none" stroke="black" points="1210,-221.5 1210,-240.5 1296,-240.5 1296,-221.5 1210,-221.5"/>
<text text-anchor="middle" x="1253" y="-228.5" font-family="FreeSans" font-size="10.00">Urho3D::Timer</text>
</a>
</g>
</g>
<!-- Node13&#45;&gt;Node2 -->
<g id="edge16" class="edge"><title>Node13&#45;&gt;Node2</title>
<path fill="none" stroke="#9a32cd" stroke-dasharray="5,2" d="M1306.34,-228.659C1364.77,-226.045 1458.69,-221.844 1516.41,-219.263"/>
<polygon fill="#9a32cd" stroke="#9a32cd" points="1306.05,-225.168 1296.21,-229.112 1306.36,-232.161 1306.05,-225.168"/>
<text text-anchor="middle" x="1407" y="-231" font-family="FreeSans" font-size="10.00"> useTimer_</text>
</g>
<!-- Node14 -->
<g id="node14" class="node"><title>Node14</title>
<g id="a_node14"><a xlink:href="class_urho3_d_1_1_string.html" target="_top" xlink:title="String class. ">
<polygon fill="none" stroke="black" points="1209,-154.5 1209,-173.5 1297,-173.5 1297,-154.5 1209,-154.5"/>
<text text-anchor="middle" x="1253" y="-161.5" font-family="FreeSans" font-size="10.00">Urho3D::String</text>
</a>
</g>
</g>
<!-- Node14&#45;&gt;Node2 -->
<g id="edge17" class="edge"><title>Node14&#45;&gt;Node2</title>
<path fill="none" stroke="#9a32cd" stroke-dasharray="5,2" d="M1307.34,-173.033C1365.87,-182.943 1459.11,-198.731 1516.49,-208.447"/>
<polygon fill="#9a32cd" stroke="#9a32cd" points="1307.64,-169.533 1297.19,-171.314 1306.47,-176.434 1307.64,-169.533"/>
<text text-anchor="middle" x="1407" y="-206" font-family="FreeSans" font-size="10.00"> name_</text>
</g>
<!-- Node14&#45;&gt;Node14 -->
<g id="edge18" class="edge"><title>Node14&#45;&gt;Node14</title>
<path fill="none" stroke="#9a32cd" stroke-dasharray="5,2" d="M1224.25,-182.654C1225.46,-187.937 1235.04,-192 1253,-192 1280.37,-192 1288.28,-182.565 1276.74,-173.757"/>
<polygon fill="#9a32cd" stroke="#9a32cd" points="1227.41,-184.188 1229.26,-173.757 1221.31,-180.753 1227.41,-184.188"/>
<text text-anchor="middle" x="1253" y="-195" font-family="FreeSans" font-size="10.00"> EMPTY</text>
</g>
<!-- Node15 -->
<g id="node15" class="node"><title>Node15</title>
<g id="a_node15"><a xlink:href="class_urho3_d_1_1_string_hash.html" target="_top" xlink:title="32&#45;bit hash value for a string. ">
<polygon fill="none" stroke="black" points="1196.5,-87.5 1196.5,-106.5 1309.5,-106.5 1309.5,-87.5 1196.5,-87.5"/>
<text text-anchor="middle" x="1253" y="-94.5" font-family="FreeSans" font-size="10.00">Urho3D::StringHash</text>
</a>
</g>
</g>
<!-- Node15&#45;&gt;Node2 -->
<g id="edge19" class="edge"><title>Node15&#45;&gt;Node2</title>
<path fill="none" stroke="#9a32cd" stroke-dasharray="5,2" d="M1319.99,-102.804C1369.7,-109.994 1437.37,-126.073 1486,-162 1497.9,-170.791 1492.71,-180.445 1504,-190 1512.9,-197.532 1524.22,-203.254 1534.8,-207.448"/>
<polygon fill="#9a32cd" stroke="#9a32cd" points="1320.36,-99.3226 1309.98,-101.441 1319.41,-106.259 1320.36,-99.3226"/>
<text text-anchor="middle" x="1407" y="-165" font-family="FreeSans" font-size="10.00"> nameHash_</text>
</g>
<!-- Node15&#45;&gt;Node15 -->
<g id="edge20" class="edge"><title>Node15&#45;&gt;Node15</title>
<path fill="none" stroke="#9a32cd" stroke-dasharray="5,2" d="M1224.25,-115.654C1225.46,-120.937 1235.04,-125 1253,-125 1280.37,-125 1288.28,-115.565 1276.74,-106.757"/>
<polygon fill="#9a32cd" stroke="#9a32cd" points="1227.41,-117.188 1229.26,-106.757 1221.31,-113.753 1227.41,-117.188"/>
<text text-anchor="middle" x="1253" y="-128" font-family="FreeSans" font-size="10.00"> ZERO</text>
</g>
<!-- Node16&#45;&gt;Node1 -->
<g id="edge21" class="edge"><title>Node16&#45;&gt;Node1</title>
<path fill="none" stroke="#9a32cd" stroke-dasharray="5,2" d="M848.36,-319.79C916.059,-320.349 1013.08,-321 1098,-321 1098,-321 1098,-321 2069,-321 2159.81,-321 2190.02,-312.658 2264,-260 2296.93,-236.559 2320.89,-193.128 2330.44,-173.762"/>
<polygon fill="#9a32cd" stroke="#9a32cd" points="848.201,-316.289 838.172,-319.705 848.142,-323.289 848.201,-316.289"/>
<text text-anchor="middle" x="1568" y="-324" font-family="FreeSans" font-size="10.00"> tsxXMLFiles_</text>
</g>
<!-- Node17 -->
<g id="node17" class="node"><title>Node17</title>
<g id="a_node17"><a xlink:href="class_urho3_d_1_1_vector.html" target="_top" xlink:title="Urho3D::Vector\&lt; Urho3D\l::TmxLayer2D * \&gt;">
<polygon fill="none" stroke="black" points="1999,-224 1999,-254 2137,-254 2137,-224 1999,-224"/>
<text text-anchor="start" x="2007" y="-242" font-family="FreeSans" font-size="10.00">Urho3D::Vector&lt; Urho3D</text>
<text text-anchor="middle" x="2068" y="-231" font-family="FreeSans" font-size="10.00">::TmxLayer2D * &gt;</text>
</a>
</g>
</g>
<!-- Node17&#45;&gt;Node1 -->
<g id="edge23" class="edge"><title>Node17&#45;&gt;Node1</title>
<path fill="none" stroke="#9a32cd" stroke-dasharray="5,2" d="M2146.98,-224.234C2182.99,-216.594 2226.08,-206.283 2264,-194 2281.57,-188.309 2300.83,-180.036 2314.85,-173.618"/>
<polygon fill="#9a32cd" stroke="#9a32cd" points="2146.09,-220.844 2137.02,-226.317 2147.52,-227.696 2146.09,-220.844"/>
<text text-anchor="middle" x="2224" y="-219" font-family="FreeSans" font-size="10.00"> layers_</text>
</g>
<!-- Node18 -->
<g id="node18" class="node"><title>Node18</title>
<g id="a_node18"><a xlink:href="class_urho3_d_1_1_vector_base.html" target="_top" xlink:title="Vector base class. ">
<polygon fill="none" stroke="black" points="1798,-216.5 1798,-235.5 1912,-235.5 1912,-216.5 1798,-216.5"/>
<text text-anchor="middle" x="1855" y="-223.5" font-family="FreeSans" font-size="10.00">Urho3D::VectorBase</text>
</a>
</g>
</g>
<!-- Node18&#45;&gt;Node17 -->
<g id="edge24" class="edge"><title>Node18&#45;&gt;Node17</title>
<path fill="none" stroke="midnightblue" d="M1922.48,-230.096C1946.82,-231.595 1974.38,-233.294 1998.86,-234.802"/>
<polygon fill="midnightblue" stroke="midnightblue" points="1922.46,-226.588 1912.27,-229.467 1922.03,-233.575 1922.46,-226.588"/>
</g>
<!-- Node20 -->
<g id="node20" class="node"><title>Node20</title>
<g id="a_node20"><a xlink:href="class_urho3_d_1_1_vector.html" target="_top" xlink:title="Urho3D::Vector\&lt; Urho3D\l::SharedPtr\&lt; Urho3D::Texture2D \&gt; \&gt;">
<polygon fill="none" stroke="black" points="1970.5,-175 1970.5,-205 2165.5,-205 2165.5,-175 1970.5,-175"/>
<text text-anchor="start" x="1978.5" y="-193" font-family="FreeSans" font-size="10.00">Urho3D::Vector&lt; Urho3D</text>
<text text-anchor="middle" x="2068" y="-182" font-family="FreeSans" font-size="10.00">::SharedPtr&lt; Urho3D::Texture2D &gt; &gt;</text>
</a>
</g>
</g>
<!-- Node18&#45;&gt;Node20 -->
<g id="edge28" class="edge"><title>Node18&#45;&gt;Node20</title>
<path fill="none" stroke="midnightblue" d="M1921.61,-214.806C1939.8,-211.703 1959.84,-208.283 1979.08,-205"/>
<polygon fill="midnightblue" stroke="midnightblue" points="1920.98,-211.362 1911.71,-216.494 1922.16,-218.263 1920.98,-211.362"/>
</g>
<!-- Node19&#45;&gt;Node1 -->
<g id="edge25" class="edge"><title>Node19&#45;&gt;Node1</title>
<path fill="none" stroke="#9a32cd" stroke-dasharray="5,2" d="M1188.67,-60.1144C1249.76,-59.5793 1332.8,-59 1406,-59 1406,-59 1406,-59 2069,-59 2158.25,-59 2184.92,-65.6198 2264,-107 2288.37,-119.752 2312.41,-141.502 2325.31,-154.127"/>
<polygon fill="#9a32cd" stroke="#9a32cd" points="1188.26,-56.6178 1178.29,-60.2067 1188.33,-63.6175 1188.26,-56.6178"/>
<text text-anchor="middle" x="1715" y="-62" font-family="FreeSans" font-size="10.00"> gidToPropertySetMapping_</text>
</g>
<!-- Node20&#45;&gt;Node1 -->
<g id="edge27" class="edge"><title>Node20&#45;&gt;Node1</title>
<path fill="none" stroke="#9a32cd" stroke-dasharray="5,2" d="M2175.99,-179.543C2212.44,-175.979 2251.62,-172.15 2281.96,-169.184"/>
<polygon fill="#9a32cd" stroke="#9a32cd" points="2175.4,-176.084 2165.78,-180.54 2176.08,-183.05 2175.4,-176.084"/>
<text text-anchor="middle" x="2224" y="-182" font-family="FreeSans" font-size="10.00"> tileSetTextures_</text>
</g>
<!-- Node21 -->
<g id="node21" class="node"><title>Node21</title>
<g id="a_node21"><a xlink:href="struct_urho3_d_1_1_tile_map_info2_d.html" target="_top" xlink:title="Tile map information. ">
<polygon fill="none" stroke="black" points="2005,-87.5 2005,-106.5 2131,-106.5 2131,-87.5 2005,-87.5"/>
<text text-anchor="middle" x="2068" y="-94.5" font-family="FreeSans" font-size="10.00">Urho3D::TileMapInfo2D</text>
</a>
</g>
</g>
<!-- Node21&#45;&gt;Node1 -->
<g id="edge29" class="edge"><title>Node21&#45;&gt;Node1</title>
<path fill="none" stroke="#9a32cd" stroke-dasharray="5,2" d="M2141.41,-103.722C2178.66,-108.467 2224.43,-116.312 2264,-129 2283.76,-135.337 2304.91,-146.375 2318.94,-154.364"/>
<polygon fill="#9a32cd" stroke="#9a32cd" points="2141.49,-100.206 2131.14,-102.465 2140.64,-107.155 2141.49,-100.206"/>
<text text-anchor="middle" x="2224" y="-132" font-family="FreeSans" font-size="10.00"> info_</text>
</g>
<!-- Node22&#45;&gt;Node1 -->
<g id="edge30" class="edge"><title>Node22&#45;&gt;Node1</title>
<path fill="none" stroke="#9a32cd" stroke-dasharray="5,2" d="M1496.67,-20.5572C1557.76,-20.2897 1640.8,-20 1714,-20 1714,-20 1714,-20 2069,-20 2156.38,-20 2190.92,2.89736 2264,-45 2304.85,-71.7711 2325.56,-130.912 2332.38,-154.253"/>
<polygon fill="#9a32cd" stroke="#9a32cd" points="1496.28,-17.0588 1486.3,-20.6033 1496.31,-24.0587 1496.28,-17.0588"/>
<text text-anchor="middle" x="1855" y="-23" font-family="FreeSans" font-size="10.00"> gidToSpriteMapping_</text>
</g>
<!-- Node23 -->
<g id="node23" class="node"><title>Node23</title>
<g id="a_node23"><a xlink:href="class_urho3_d_1_1_shared_ptr.html" target="_top" xlink:title="Urho3D::SharedPtr\&lt;\l Urho3D::XMLFile \&gt;">
<polygon fill="none" stroke="black" points="2010,-126 2010,-156 2126,-156 2126,-126 2010,-126"/>
<text text-anchor="start" x="2018" y="-144" font-family="FreeSans" font-size="10.00">Urho3D::SharedPtr&lt;</text>
<text text-anchor="middle" x="2068" y="-133" font-family="FreeSans" font-size="10.00"> Urho3D::XMLFile &gt;</text>
</a>
</g>
</g>
<!-- Node23&#45;&gt;Node1 -->
<g id="edge32" class="edge"><title>Node23&#45;&gt;Node1</title>
<path fill="none" stroke="#9a32cd" stroke-dasharray="5,2" d="M2136.68,-141.656C2174.29,-142.638 2221.87,-144.902 2264,-150 2273.11,-151.102 2282.79,-152.713 2291.99,-154.455"/>
<polygon fill="#9a32cd" stroke="#9a32cd" points="2136.43,-138.149 2126.35,-141.411 2136.27,-145.147 2136.43,-138.149"/>
<text text-anchor="middle" x="2224" y="-153" font-family="FreeSans" font-size="10.00"> loadXMLFile_</text>
</g>
<!-- Node24&#45;&gt;Node23 -->
<g id="edge33" class="edge"><title>Node24&#45;&gt;Node23</title>
<path fill="none" stroke="#9a32cd" stroke-dasharray="5,2" d="M1912,-159.366C1942.19,-155.788 1979.37,-151.382 2009.76,-147.782"/>
<polygon fill="#9a32cd" stroke="#9a32cd" points="1911.56,-155.892 1902.04,-160.545 1912.39,-162.844 1911.56,-155.892"/>
<text text-anchor="middle" x="1941" y="-161" font-family="FreeSans" font-size="10.00"> ptr_</text>
</g>
<!-- Node25 -->
<g id="node25" class="node"><title>Node25</title>
<g id="a_node25"><a xlink:href="class_urho3_d_1_1_unique_ptr.html" target="_top" xlink:title="Urho3D::UniquePtr\&lt;\l pugi::xml_document \&gt;">
<polygon fill="none" stroke="black" points="1504,-151 1504,-181 1632,-181 1632,-151 1504,-151"/>
<text text-anchor="start" x="1512" y="-169" font-family="FreeSans" font-size="10.00">Urho3D::UniquePtr&lt;</text>
<text text-anchor="middle" x="1568" y="-158" font-family="FreeSans" font-size="10.00"> pugi::xml_document &gt;</text>
</a>
</g>
</g>
<!-- Node25&#45;&gt;Node24 -->
<g id="edge35" class="edge"><title>Node25&#45;&gt;Node24</title>
<path fill="none" stroke="#9a32cd" stroke-dasharray="5,2" d="M1642.45,-166C1694.61,-166 1763.05,-166 1807.75,-166"/>
<polygon fill="#9a32cd" stroke="#9a32cd" points="1642.25,-162.5 1632.25,-166 1642.25,-169.5 1642.25,-162.5"/>
<text text-anchor="middle" x="1715" y="-169" font-family="FreeSans" font-size="10.00"> document_</text>
</g>
</g>
</svg>
