<?xml version="1.0" encoding="UTF-8" standalone="no"?>
<!DOCTYPE svg PUBLIC "-//W3C//DTD SVG 1.1//EN"
 "http://www.w3.org/Graphics/SVG/1.1/DTD/svg11.dtd">
<!-- Generated by graphviz version 2.26.3 (20100126.1600)
 -->
<!-- Title: Urho3D::ScriptInstance Pages: 1 -->
<svg width="1572pt" height="694pt"
 viewBox="0.00 0.00 1572.00 694.34" xmlns="http://www.w3.org/2000/svg" xmlns:xlink="http://www.w3.org/1999/xlink">
<g id="graph1" class="graph" transform="scale(1 1) rotate(0) translate(4 690.337)">
<title>Urho3D::ScriptInstance</title>
<!-- Node1 -->
<g id="node1" class="node"><title>Node1</title>
<polygon fill="#bfbfbf" stroke="black" points="1436,-412.837 1436,-433.837 1564,-433.837 1564,-412.837 1436,-412.837"/>
<text text-anchor="middle" x="1500" y="-420.837" font-family="FreeSans" font-size="10.00">Urho3D::ScriptInstance</text>
</g>
<!-- Node2 -->
<g id="node2" class="node"><title>Node2</title>
<a xlink:href="class_urho3_d_1_1_component.html" target="_top" xlink:title="Base class for components. Components can be created to scene nodes.">
<polygon fill="none" stroke="black" points="1219,-243.837 1219,-264.837 1335,-264.837 1335,-243.837 1219,-243.837"/>
<text text-anchor="middle" x="1277" y="-251.837" font-family="FreeSans" font-size="10.00">Urho3D::Component</text>
</a>
</g>
<!-- Node2&#45;&gt;Node1 -->
<g id="edge2" class="edge"><title>Node2&#45;&gt;Node1</title>
<path fill="none" stroke="midnightblue" d="M1305.43,-270.121C1319.21,-278.105 1335.8,-288.228 1350,-298.337 1404.41,-337.062 1463.9,-390.209 1488.44,-412.65"/>
<polygon fill="midnightblue" stroke="midnightblue" points="1306.83,-266.888 1296.41,-264.963 1303.36,-272.965 1306.83,-266.888"/>
</g>
<!-- Node3 -->
<g id="node4" class="node"><title>Node3</title>
<a xlink:href="class_urho3_d_1_1_animatable.html" target="_top" xlink:title="Base class for animatable object, an animatable object can be set animation on it&#39;s attributes...">
<polygon fill="none" stroke="black" points="581,-100.837 581,-121.837 695,-121.837 695,-100.837 581,-100.837"/>
<text text-anchor="middle" x="638" y="-108.837" font-family="FreeSans" font-size="10.00">Urho3D::Animatable</text>
</a>
</g>
<!-- Node3&#45;&gt;Node2 -->
<g id="edge4" class="edge"><title>Node3&#45;&gt;Node2</title>
<path fill="none" stroke="midnightblue" d="M705.345,-110.01C757.763,-110.171 832.097,-113.025 896,-125.337 1035.55,-152.224 1193.99,-217.88 1253.11,-243.679"/>
<polygon fill="midnightblue" stroke="midnightblue" points="705.162,-106.51 695.163,-110.012 705.163,-113.51 705.162,-106.51"/>
</g>
<!-- Node9 -->
<g id="node17" class="node"><title>Node9</title>
<a xlink:href="class_urho3_d_1_1_node.html" target="_top" xlink:title="Scene node that may contain components and child nodes.">
<polygon fill="none" stroke="red" points="922.5,-269.837 922.5,-290.837 1007.5,-290.837 1007.5,-269.837 922.5,-269.837"/>
<text text-anchor="middle" x="965" y="-277.837" font-family="FreeSans" font-size="10.00">Urho3D::Node</text>
</a>
</g>
<!-- Node3&#45;&gt;Node9 -->
<g id="edge20" class="edge"><title>Node3&#45;&gt;Node9</title>
<path fill="none" stroke="midnightblue" d="M705.435,-116.828C771.369,-123.335 866.08,-136.068 896,-157.337 936.111,-185.852 955.772,-245.416 962.368,-269.693"/>
<polygon fill="midnightblue" stroke="midnightblue" points="705.404,-113.309 695.115,-115.837 704.734,-120.277 705.404,-113.309"/>
</g>
<!-- Node4 -->
<g id="node6" class="node"><title>Node4</title>
<a xlink:href="class_urho3_d_1_1_serializable.html" target="_top" xlink:title="Base class for objects with automatic serialization through attributes.">
<polygon fill="none" stroke="red" points="190,-148.837 190,-169.837 304,-169.837 304,-148.837 190,-148.837"/>
<text text-anchor="middle" x="247" y="-156.837" font-family="FreeSans" font-size="10.00">Urho3D::Serializable</text>
</a>
</g>
<!-- Node4&#45;&gt;Node3 -->
<g id="edge6" class="edge"><title>Node4&#45;&gt;Node3</title>
<path fill="none" stroke="midnightblue" d="M314.051,-151.233C368.898,-144.588 448.475,-134.916 518,-126.337 538.525,-123.805 561.021,-121 580.932,-118.508"/>
<polygon fill="midnightblue" stroke="midnightblue" points="313.612,-147.76 304.105,-152.437 314.453,-154.709 313.612,-147.76"/>
</g>
<!-- Node5 -->
<g id="node8" class="node"><title>Node5</title>
<a xlink:href="class_urho3_d_1_1_hash_map.html" target="_top" xlink:title="Urho3D::HashMap\&lt; Urho3D\l::String, Urho3D::SharedPtr\l\&lt; Urho3D::AttributeAnimationInfo \&gt; \&gt;">
<polygon fill="none" stroke="black" points="146.5,-82.8373 146.5,-129.837 347.5,-129.837 347.5,-82.8373 146.5,-82.8373"/>
<text text-anchor="start" x="154.5" y="-116.837" font-family="FreeSans" font-size="10.00">Urho3D::HashMap&lt; Urho3D</text>
<text text-anchor="start" x="154.5" y="-103.837" font-family="FreeSans" font-size="10.00">::String, Urho3D::SharedPtr</text>
<text text-anchor="middle" x="247" y="-90.8373" font-family="FreeSans" font-size="10.00">&lt; Urho3D::AttributeAnimationInfo &gt; &gt;</text>
</a>
</g>
<!-- Node5&#45;&gt;Node3 -->
<g id="edge8" class="edge"><title>Node5&#45;&gt;Node3</title>
<path fill="none" stroke="#9a32cd" stroke-dasharray="5,2" d="M357.818,-107.754C430.533,-108.684 522.622,-109.862 580.944,-110.608"/>
<polygon fill="#9a32cd" stroke="#9a32cd" points="357.736,-104.253 347.692,-107.625 357.647,-111.253 357.736,-104.253"/>
<text text-anchor="middle" x="442" y="-113.337" font-family="FreeSans" font-size="10.00"> attributeAnimationInfos_</text>
</g>
<!-- Node6 -->
<g id="node10" class="node"><title>Node6</title>
<a xlink:href="class_urho3_d_1_1_hash_base.html" target="_top" xlink:title="Hash set/map base class.">
<polygon fill="none" stroke="red" points="0,-62.8373 0,-83.8373 108,-83.8373 108,-62.8373 0,-62.8373"/>
<text text-anchor="middle" x="54" y="-70.8373" font-family="FreeSans" font-size="10.00">Urho3D::HashBase</text>
</a>
</g>
<!-- Node6&#45;&gt;Node5 -->
<g id="edge10" class="edge"><title>Node6&#45;&gt;Node5</title>
<path fill="none" stroke="midnightblue" d="M118.124,-84.3016C127.259,-85.8634 136.831,-87.5001 146.457,-89.146"/>
<polygon fill="midnightblue" stroke="midnightblue" points="118.465,-80.809 108.018,-82.5735 117.285,-87.7089 118.465,-80.809"/>
</g>
<!-- Node8 -->
<g id="node14" class="node"><title>Node8</title>
<a xlink:href="class_urho3_d_1_1_hash_set.html" target="_top" xlink:title="Urho3D::HashSet\&lt; const\l Urho3D::AttributeInfo * \&gt;">
<polygon fill="none" stroke="black" points="176.5,-240.337 176.5,-274.337 317.5,-274.337 317.5,-240.337 176.5,-240.337"/>
<text text-anchor="start" x="184.5" y="-261.337" font-family="FreeSans" font-size="10.00">Urho3D::HashSet&lt; const</text>
<text text-anchor="middle" x="247" y="-248.337" font-family="FreeSans" font-size="10.00"> Urho3D::AttributeInfo * &gt;</text>
</a>
</g>
<!-- Node6&#45;&gt;Node8 -->
<g id="edge16" class="edge"><title>Node6&#45;&gt;Node8</title>
<path fill="none" stroke="midnightblue" d="M60.1704,-93.8961C71.4565,-127.88 98.7196,-195.563 146,-231.337 154.952,-238.111 165.492,-243.128 176.326,-246.843"/>
<polygon fill="midnightblue" stroke="midnightblue" points="63.4302,-92.5973 57.0624,-84.1296 56.7598,-94.7201 63.4302,-92.5973"/>
</g>
<!-- Node19 -->
<g id="node44" class="node"><title>Node19</title>
<a xlink:href="class_urho3_d_1_1_hash_map.html" target="_top" xlink:title="Urho3D::HashMap\&lt; Urho3D\l::AttributeInfo *, unsigned \&gt;">
<polygon fill="none" stroke="black" points="366,-43.3373 366,-77.3373 518,-77.3373 518,-43.3373 366,-43.3373"/>
<text text-anchor="start" x="374" y="-64.3373" font-family="FreeSans" font-size="10.00">Urho3D::HashMap&lt; Urho3D</text>
<text text-anchor="middle" x="442" y="-51.3373" font-family="FreeSans" font-size="10.00">::AttributeInfo *, unsigned &gt;</text>
</a>
</g>
<!-- Node6&#45;&gt;Node19 -->
<g id="edge54" class="edge"><title>Node6&#45;&gt;Node19</title>
<path fill="none" stroke="midnightblue" d="M118.509,-71.1759C186.49,-68.8982 293.511,-65.3124 365.653,-62.8953"/>
<polygon fill="midnightblue" stroke="midnightblue" points="118.235,-67.683 108.358,-71.516 118.47,-74.6791 118.235,-67.683"/>
</g>
<!-- Node22 -->
<g id="node54" class="node"><title>Node22</title>
<a xlink:href="class_urho3_d_1_1_hash_map.html" target="_top" xlink:title="Urho3D::HashMap\&lt; Urho3D\l::String, Urho3D::Variant \&gt;">
<polygon fill="none" stroke="black" points="1034,-3.33728 1034,-37.3373 1186,-37.3373 1186,-3.33728 1034,-3.33728"/>
<text text-anchor="start" x="1042" y="-24.3373" font-family="FreeSans" font-size="10.00">Urho3D::HashMap&lt; Urho3D</text>
<text text-anchor="middle" x="1110" y="-11.3373" font-family="FreeSans" font-size="10.00">::String, Urho3D::Variant &gt;</text>
</a>
</g>
<!-- Node6&#45;&gt;Node22 -->
<g id="edge68" class="edge"><title>Node6&#45;&gt;Node22</title>
<path fill="none" stroke="midnightblue" d="M84.4133,-58.4455C121.767,-41.5569 187.507,-16.3373 247,-16.3373 247,-16.3373 247,-16.3373 827,-16.3373 897.02,-16.3373 976.775,-17.5767 1033.73,-18.6757"/>
<polygon fill="midnightblue" stroke="midnightblue" points="82.712,-55.376 75.1041,-62.7496 85.6497,-61.7298 82.712,-55.376"/>
</g>
<!-- Node7 -->
<g id="node12" class="node"><title>Node7</title>
<a xlink:href="class_urho3_d_1_1_shared_ptr.html" target="_top" xlink:title="Urho3D::SharedPtr\&lt;\l Urho3D::ObjectAnimation \&gt;">
<polygon fill="none" stroke="red" points="170.5,-188.337 170.5,-222.337 323.5,-222.337 323.5,-188.337 170.5,-188.337"/>
<text text-anchor="start" x="178.5" y="-209.337" font-family="FreeSans" font-size="10.00">Urho3D::SharedPtr&lt;</text>
<text text-anchor="middle" x="247" y="-196.337" font-family="FreeSans" font-size="10.00"> Urho3D::ObjectAnimation &gt;</text>
</a>
</g>
<!-- Node7&#45;&gt;Node3 -->
<g id="edge12" class="edge"><title>Node7&#45;&gt;Node3</title>
<path fill="none" stroke="#9a32cd" stroke-dasharray="5,2" d="M333.896,-200.179C389.331,-193.886 461.174,-179.983 518,-149.337 527.958,-143.967 526.015,-136.657 536,-131.337 549.697,-124.04 565.702,-119.389 580.919,-116.429"/>
<polygon fill="#9a32cd" stroke="#9a32cd" points="333.313,-196.721 323.743,-201.268 334.059,-203.681 333.313,-196.721"/>
<text text-anchor="middle" x="442" y="-199.337" font-family="FreeSans" font-size="10.00"> objectAnimation_</text>
</g>
<!-- Node8&#45;&gt;Node3 -->
<g id="edge14" class="edge"><title>Node8&#45;&gt;Node3</title>
<path fill="none" stroke="#9a32cd" stroke-dasharray="5,2" d="M327.891,-253.71C397.622,-248.875 491.187,-237.737 518,-212.337 544.773,-186.976 509.599,-157.085 536,-131.337 547.95,-119.683 564.581,-113.839 580.95,-111.129"/>
<polygon fill="#9a32cd" stroke="#9a32cd" points="327.533,-250.226 317.786,-254.378 327.996,-257.21 327.533,-250.226"/>
<text text-anchor="middle" x="442" y="-253.337" font-family="FreeSans" font-size="10.00"> animatedNetworkAttributes_</text>
</g>
<!-- Node9&#45;&gt;Node2 -->
<g id="edge18" class="edge"><title>Node9&#45;&gt;Node2</title>
<path fill="none" stroke="#9a32cd" stroke-dasharray="5,2" d="M997.548,-265.947C1008.86,-261.651 1021.77,-257.51 1034,-255.337 1096.31,-244.266 1169.02,-245.825 1218.56,-249.015"/>
<polygon fill="#9a32cd" stroke="#9a32cd" points="996.076,-262.766 988.08,-269.717 998.666,-269.27 996.076,-262.766"/>
<text text-anchor="middle" x="1110" y="-259.337" font-family="FreeSans" font-size="10.00"> node_</text>
</g>
<!-- Node9&#45;&gt;Node9 -->
<g id="edge48" class="edge"><title>Node9&#45;&gt;Node9</title>
<path fill="none" stroke="#9a32cd" stroke-dasharray="5,2" d="M939.433,-300.392C941.11,-305.501 949.633,-309.337 965,-309.337 988.988,-309.337 996.297,-299.99 986.927,-291.045"/>
<polygon fill="#9a32cd" stroke="#9a32cd" points="942.706,-301.634 943.073,-291.045 936.183,-299.093 942.706,-301.634"/>
<text text-anchor="middle" x="965" y="-313.337" font-family="FreeSans" font-size="10.00"> parent_</text>
</g>
<!-- Node10 -->
<g id="node20" class="node"><title>Node10</title>
<a xlink:href="class_urho3_d_1_1_scene.html" target="_top" xlink:title="Root scene node, represents the whole scene.">
<polygon fill="none" stroke="red" points="1232.5,-307.837 1232.5,-328.837 1321.5,-328.837 1321.5,-307.837 1232.5,-307.837"/>
<text text-anchor="middle" x="1277" y="-315.837" font-family="FreeSans" font-size="10.00">Urho3D::Scene</text>
</a>
</g>
<!-- Node9&#45;&gt;Node10 -->
<g id="edge24" class="edge"><title>Node9&#45;&gt;Node10</title>
<path fill="none" stroke="midnightblue" d="M999.624,-294.482C1010.46,-298.334 1022.57,-302.066 1034,-304.337 1102.18,-317.885 1183.07,-319.802 1232.19,-319.442"/>
<polygon fill="midnightblue" stroke="midnightblue" points="1000.68,-291.142 990.091,-290.949 998.252,-297.706 1000.68,-291.142"/>
</g>
<!-- Node10&#45;&gt;Node9 -->
<g id="edge22" class="edge"><title>Node10&#45;&gt;Node9</title>
<path fill="none" stroke="#9a32cd" stroke-dasharray="5,2" d="M1238.36,-304.653C1222.36,-299.572 1203.49,-294.323 1186,-291.337 1124.65,-280.865 1052.45,-279.242 1007.7,-279.462"/>
<polygon fill="#9a32cd" stroke="#9a32cd" points="1237.32,-307.996 1247.91,-307.774 1239.49,-301.342 1237.32,-307.996"/>
<text text-anchor="middle" x="1110" y="-295.337" font-family="FreeSans" font-size="10.00"> scene_</text>
</g>
<!-- Node11 -->
<g id="node23" class="node"><title>Node11</title>
<a xlink:href="class_urho3_d_1_1_string.html" target="_top" xlink:title="String class.">
<polygon fill="none" stroke="black" points="921,-355.837 921,-376.837 1009,-376.837 1009,-355.837 921,-355.837"/>
<text text-anchor="middle" x="965" y="-363.837" font-family="FreeSans" font-size="10.00">Urho3D::String</text>
</a>
</g>
<!-- Node11&#45;&gt;Node1 -->
<g id="edge64" class="edge"><title>Node11&#45;&gt;Node1</title>
<path fill="none" stroke="#9a32cd" stroke-dasharray="5,2" d="M1019.36,-372.129C1118.78,-382.722 1329.44,-405.165 1435.76,-416.493"/>
<polygon fill="#9a32cd" stroke="#9a32cd" points="1019.55,-368.63 1009.24,-371.05 1018.81,-375.59 1019.55,-368.63"/>
<text text-anchor="middle" x="1277" y="-410.337" font-family="FreeSans" font-size="10.00"> className_</text>
</g>
<!-- Node11&#45;&gt;Node10 -->
<g id="edge26" class="edge"><title>Node11&#45;&gt;Node10</title>
<path fill="none" stroke="#9a32cd" stroke-dasharray="5,2" d="M1019.15,-358.007C1079.57,-348.712 1176.2,-333.845 1232.43,-325.195"/>
<polygon fill="#9a32cd" stroke="#9a32cd" points="1018.39,-354.582 1009.04,-359.562 1019.46,-361.501 1018.39,-354.582"/>
<text text-anchor="middle" x="1110" y="-358.337" font-family="FreeSans" font-size="10.00"> fileName_</text>
</g>
<!-- Node11&#45;&gt;Node11 -->
<g id="edge28" class="edge"><title>Node11&#45;&gt;Node11</title>
<path fill="none" stroke="#9a32cd" stroke-dasharray="5,2" d="M939.433,-386.392C941.11,-391.501 949.633,-395.337 965,-395.337 988.988,-395.337 996.297,-385.99 986.927,-377.045"/>
<polygon fill="#9a32cd" stroke="#9a32cd" points="942.706,-387.634 943.073,-377.045 936.183,-385.093 942.706,-387.634"/>
<text text-anchor="middle" x="965" y="-399.337" font-family="FreeSans" font-size="10.00"> EMPTY</text>
</g>
<!-- Node12 -->
<g id="node26" class="node"><title>Node12</title>
<a xlink:href="class_urho3_d_1_1_quaternion.html" target="_top" xlink:title="Rotation represented as a four&#45;dimensional normalized vector.">
<polygon fill="none" stroke="black" points="581.5,-192.837 581.5,-213.837 694.5,-213.837 694.5,-192.837 581.5,-192.837"/>
<text text-anchor="middle" x="638" y="-200.837" font-family="FreeSans" font-size="10.00">Urho3D::Quaternion</text>
</a>
</g>
<!-- Node12&#45;&gt;Node9 -->
<g id="edge30" class="edge"><title>Node12&#45;&gt;Node9</title>
<path fill="none" stroke="#9a32cd" stroke-dasharray="5,2" d="M704.979,-211.235C757.654,-218.471 832.498,-231.03 896,-250.337 912.622,-255.391 930.596,-263.291 944.032,-269.716"/>
<polygon fill="#9a32cd" stroke="#9a32cd" points="705.127,-207.724 694.75,-209.859 704.193,-214.661 705.127,-207.724"/>
<text text-anchor="middle" x="827" y="-267.337" font-family="FreeSans" font-size="10.00"> worldRotation_</text>
<text text-anchor="middle" x="827" y="-254.337" font-family="FreeSans" font-size="10.00">rotation_</text>
</g>
<!-- Node12&#45;&gt;Node12 -->
<g id="edge32" class="edge"><title>Node12&#45;&gt;Node12</title>
<path fill="none" stroke="#9a32cd" stroke-dasharray="5,2" d="M602.902,-222.636C604.344,-228.118 616.043,-232.337 638,-232.337 670.68,-232.337 680.637,-222.99 667.871,-214.045"/>
<polygon fill="#9a32cd" stroke="#9a32cd" points="605.921,-224.407 608.129,-214.045 599.941,-220.769 605.921,-224.407"/>
<text text-anchor="middle" x="638" y="-236.337" font-family="FreeSans" font-size="10.00"> IDENTITY</text>
</g>
<!-- Node13 -->
<g id="node29" class="node"><title>Node13</title>
<a xlink:href="class_urho3_d_1_1_vector.html" target="_top" xlink:title="Urho3D::Vector\&lt; Urho3D\l::WeakPtr\&lt; Urho3D::Component \&gt; \&gt;">
<polygon fill="none" stroke="black" points="541,-315.337 541,-349.337 735,-349.337 735,-315.337 541,-315.337"/>
<text text-anchor="start" x="549" y="-336.337" font-family="FreeSans" font-size="10.00">Urho3D::Vector&lt; Urho3D</text>
<text text-anchor="middle" x="638" y="-323.337" font-family="FreeSans" font-size="10.00">::WeakPtr&lt; Urho3D::Component &gt; &gt;</text>
</a>
</g>
<!-- Node13&#45;&gt;Node9 -->
<g id="edge34" class="edge"><title>Node13&#45;&gt;Node9</title>
<path fill="none" stroke="#9a32cd" stroke-dasharray="5,2" d="M745.28,-320.385C791.794,-314.532 846.772,-306.713 896,-297.337 905.574,-295.514 915.811,-293.197 925.388,-290.865"/>
<polygon fill="#9a32cd" stroke="#9a32cd" points="744.675,-316.933 735.184,-321.641 745.539,-323.879 744.675,-316.933"/>
<text text-anchor="middle" x="827" y="-321.337" font-family="FreeSans" font-size="10.00"> listeners_</text>
</g>
<!-- Node14 -->
<g id="node31" class="node"><title>Node14</title>
<a xlink:href="class_urho3_d_1_1_vector_base.html" target="_top" xlink:title="Vector base class.">
<polygon fill="none" stroke="black" points="190,-480.837 190,-501.837 304,-501.837 304,-480.837 190,-480.837"/>
<text text-anchor="middle" x="247" y="-488.837" font-family="FreeSans" font-size="10.00">Urho3D::VectorBase</text>
</a>
</g>
<!-- Node14&#45;&gt;Node13 -->
<g id="edge36" class="edge"><title>Node14&#45;&gt;Node13</title>
<path fill="none" stroke="midnightblue" d="M275.944,-475.866C327.172,-448.975 437.692,-393.162 536,-358.337 545.13,-355.103 554.851,-352.094 564.528,-349.355"/>
<polygon fill="midnightblue" stroke="midnightblue" points="274.008,-472.93 266.797,-480.691 277.274,-479.121 274.008,-472.93"/>
</g>
<!-- Node15 -->
<g id="node33" class="node"><title>Node15</title>
<a xlink:href="class_urho3_d_1_1_vector.html" target="_top" xlink:title="Urho3D::Vector\&lt; Urho3D\l::SharedPtr\&lt; Urho3D::Component \&gt; \&gt;">
<polygon fill="none" stroke="black" points="536.5,-263.337 536.5,-297.337 739.5,-297.337 739.5,-263.337 536.5,-263.337"/>
<text text-anchor="start" x="544.5" y="-284.337" font-family="FreeSans" font-size="10.00">Urho3D::Vector&lt; Urho3D</text>
<text text-anchor="middle" x="638" y="-271.337" font-family="FreeSans" font-size="10.00">::SharedPtr&lt; Urho3D::Component &gt; &gt;</text>
</a>
</g>
<!-- Node14&#45;&gt;Node15 -->
<g id="edge40" class="edge"><title>Node14&#45;&gt;Node15</title>
<path fill="none" stroke="midnightblue" d="M259.851,-472.103C279.526,-444.076 319.734,-392.121 366,-362.337 417.321,-329.3 482.584,-309.042 536.318,-296.928"/>
<polygon fill="midnightblue" stroke="midnightblue" points="256.773,-470.401 253.987,-480.623 262.54,-474.37 256.773,-470.401"/>
</g>
<!-- Node20 -->
<g id="node47" class="node"><title>Node20</title>
<a xlink:href="class_urho3_d_1_1_vector.html" target="_top" xlink:title="Urho3D::Vector\&lt; Urho3D\l::DelayedCall \&gt;">
<polygon fill="none" stroke="black" points="569,-569.337 569,-603.337 707,-603.337 707,-569.337 569,-569.337"/>
<text text-anchor="start" x="577" y="-590.337" font-family="FreeSans" font-size="10.00">Urho3D::Vector&lt; Urho3D</text>
<text text-anchor="middle" x="638" y="-577.337" font-family="FreeSans" font-size="10.00">::DelayedCall &gt;</text>
</a>
</g>
<!-- Node14&#45;&gt;Node20 -->
<g id="edge58" class="edge"><title>Node14&#45;&gt;Node20</title>
<path fill="none" stroke="midnightblue" d="M300.221,-504.268C369.871,-521.191 492.074,-550.882 568.832,-569.532"/>
<polygon fill="midnightblue" stroke="midnightblue" points="300.881,-500.827 290.338,-501.867 299.229,-507.629 300.881,-500.827"/>
</g>
<!-- Node21 -->
<g id="node50" class="node"><title>Node21</title>
<a xlink:href="class_urho3_d_1_1_vector.html" target="_top" xlink:title="Urho3D::Vector\&lt; Urho3D\l::AttributeInfo \&gt;">
<polygon fill="none" stroke="black" points="758,-612.337 758,-646.337 896,-646.337 896,-612.337 758,-612.337"/>
<text text-anchor="start" x="766" y="-633.337" font-family="FreeSans" font-size="10.00">Urho3D::Vector&lt; Urho3D</text>
<text text-anchor="middle" x="827" y="-620.337" font-family="FreeSans" font-size="10.00">::AttributeInfo &gt;</text>
</a>
</g>
<!-- Node14&#45;&gt;Node21 -->
<g id="edge62" class="edge"><title>Node14&#45;&gt;Node21</title>
<path fill="none" stroke="midnightblue" d="M274.403,-506.72C298.203,-519.754 333.809,-538.48 366,-552.337 439.595,-584.017 457.455,-596.512 536,-612.337 610.787,-627.406 698.403,-630.623 757.806,-630.721"/>
<polygon fill="midnightblue" stroke="midnightblue" points="276.032,-503.621 265.585,-501.855 272.651,-509.75 276.032,-503.621"/>
</g>
<!-- Node15&#45;&gt;Node9 -->
<g id="edge38" class="edge"><title>Node15&#45;&gt;Node9</title>
<path fill="none" stroke="#9a32cd" stroke-dasharray="5,2" d="M749.877,-280.337C809.303,-280.337 878.867,-280.337 922.439,-280.337"/>
<polygon fill="#9a32cd" stroke="#9a32cd" points="749.672,-276.837 739.672,-280.337 749.672,-283.837 749.672,-276.837"/>
<text text-anchor="middle" x="827" y="-284.337" font-family="FreeSans" font-size="10.00"> components_</text>
</g>
<!-- Node16 -->
<g id="node36" class="node"><title>Node16</title>
<a xlink:href="class_urho3_d_1_1_vector3.html" target="_top" xlink:title="Three&#45;dimensional vector.">
<polygon fill="none" stroke="black" points="590,-367.837 590,-388.837 686,-388.837 686,-367.837 590,-367.837"/>
<text text-anchor="middle" x="638" y="-375.837" font-family="FreeSans" font-size="10.00">Urho3D::Vector3</text>
</a>
</g>
<!-- Node16&#45;&gt;Node9 -->
<g id="edge42" class="edge"><title>Node16&#45;&gt;Node9</title>
<path fill="none" stroke="#9a32cd" stroke-dasharray="5,2" d="M696.213,-376.532C750.095,-373.012 831.392,-362.917 896,-334.337 919.649,-323.876 942.317,-303.496 954.878,-290.983"/>
<polygon fill="#9a32cd" stroke="#9a32cd" points="695.922,-373.044 686.148,-377.134 696.34,-380.031 695.922,-373.044"/>
<text text-anchor="middle" x="827" y="-386.337" font-family="FreeSans" font-size="10.00"> scale_</text>
<text text-anchor="middle" x="827" y="-373.337" font-family="FreeSans" font-size="10.00">position_</text>
</g>
<!-- Node16&#45;&gt;Node16 -->
<g id="edge44" class="edge"><title>Node16&#45;&gt;Node16</title>
<path fill="none" stroke="#9a32cd" stroke-dasharray="5,2" d="M602.902,-397.636C604.344,-403.118 616.043,-407.337 638,-407.337 670.68,-407.337 680.637,-397.99 667.871,-389.045"/>
<polygon fill="#9a32cd" stroke="#9a32cd" points="605.921,-399.407 608.129,-389.045 599.941,-395.769 605.921,-399.407"/>
<text text-anchor="middle" x="638" y="-502.337" font-family="FreeSans" font-size="10.00"> ONE</text>
<text text-anchor="middle" x="638" y="-489.337" font-family="FreeSans" font-size="10.00">DOWN</text>
<text text-anchor="middle" x="638" y="-476.337" font-family="FreeSans" font-size="10.00">BACK</text>
<text text-anchor="middle" x="638" y="-463.337" font-family="FreeSans" font-size="10.00">RIGHT</text>
<text text-anchor="middle" x="638" y="-450.337" font-family="FreeSans" font-size="10.00">LEFT</text>
<text text-anchor="middle" x="638" y="-437.337" font-family="FreeSans" font-size="10.00">ZERO</text>
<text text-anchor="middle" x="638" y="-424.337" font-family="FreeSans" font-size="10.00">FORWARD</text>
<text text-anchor="middle" x="638" y="-411.337" font-family="FreeSans" font-size="10.00">UP</text>
</g>
<!-- Node17 -->
<g id="node39" class="node"><title>Node17</title>
<a xlink:href="class_urho3_d_1_1_unique_ptr.html" target="_top" xlink:title="Urho3D::UniquePtr\&lt;\l Urho3D::NodeImpl \&gt;">
<polygon fill="none" stroke="red" points="578.5,-140.337 578.5,-174.337 697.5,-174.337 697.5,-140.337 578.5,-140.337"/>
<text text-anchor="start" x="586.5" y="-161.337" font-family="FreeSans" font-size="10.00">Urho3D::UniquePtr&lt;</text>
<text text-anchor="middle" x="638" y="-148.337" font-family="FreeSans" font-size="10.00"> Urho3D::NodeImpl &gt;</text>
</a>
</g>
<!-- Node17&#45;&gt;Node9 -->
<g id="edge46" class="edge"><title>Node17&#45;&gt;Node9</title>
<path fill="none" stroke="#9a32cd" stroke-dasharray="5,2" d="M707.776,-157.18C762.197,-159.859 838.018,-169.934 896,-202.337 925.355,-218.743 948.478,-252.485 958.929,-269.711"/>
<polygon fill="#9a32cd" stroke="#9a32cd" points="707.67,-153.673 697.532,-156.751 707.376,-160.667 707.67,-153.673"/>
<text text-anchor="middle" x="827" y="-206.337" font-family="FreeSans" font-size="10.00"> impl_</text>
</g>
<!-- Node18 -->
<g id="node42" class="node"><title>Node18</title>
<a xlink:href="class_urho3_d_1_1_script_event_listener.html" target="_top" xlink:title="Interface class for allowing script objects or functions to subscribe to events.">
<polygon fill="none" stroke="black" points="562,-529.837 562,-550.837 714,-550.837 714,-529.837 562,-529.837"/>
<text text-anchor="middle" x="638" y="-537.837" font-family="FreeSans" font-size="10.00">Urho3D::ScriptEventListener</text>
</a>
</g>
<!-- Node18&#45;&gt;Node1 -->
<g id="edge50" class="edge"><title>Node18&#45;&gt;Node1</title>
<path fill="none" stroke="midnightblue" d="M717.257,-527.356C725.033,-525.322 732.73,-522.994 740,-520.337 748.596,-517.196 749.333,-513.275 758,-510.337 883.22,-467.902 1279.59,-437.878 1435.82,-427.411"/>
<polygon fill="midnightblue" stroke="midnightblue" points="716.266,-523.996 707.389,-529.779 717.935,-530.794 716.266,-523.996"/>
</g>
<!-- Node24 -->
<g id="node59" class="node"><title>Node24</title>
<a xlink:href="class_urho3_d_1_1_script_file.html" target="_top" xlink:title="Script file resource.">
<polygon fill="none" stroke="red" points="914,-496.837 914,-517.837 1016,-517.837 1016,-496.837 914,-496.837"/>
<text text-anchor="middle" x="965" y="-504.837" font-family="FreeSans" font-size="10.00">Urho3D::ScriptFile</text>
</a>
</g>
<!-- Node18&#45;&gt;Node24 -->
<g id="edge74" class="edge"><title>Node18&#45;&gt;Node24</title>
<path fill="none" stroke="midnightblue" d="M724.516,-531.606C784.739,-525.529 863.018,-517.629 913.633,-512.521"/>
<polygon fill="midnightblue" stroke="midnightblue" points="723.852,-528.155 714.254,-532.642 724.555,-535.12 723.852,-528.155"/>
</g>
<!-- Node19&#45;&gt;Node1 -->
<g id="edge52" class="edge"><title>Node19&#45;&gt;Node1</title>
<path fill="none" stroke="#9a32cd" stroke-dasharray="5,2" d="M528.591,-62.8106C606.615,-64.825 724.474,-67.3373 827,-67.3373 827,-67.3373 827,-67.3373 1277,-67.3373 1444.37,-67.3373 1490.87,-353.449 1498.71,-412.683"/>
<polygon fill="#9a32cd" stroke="#9a32cd" points="528.416,-59.3049 518.328,-62.5425 528.233,-66.3025 528.416,-59.3049"/>
<text text-anchor="middle" x="965" y="-71.3373" font-family="FreeSans" font-size="10.00"> idAttributes_</text>
</g>
<!-- Node20&#45;&gt;Node1 -->
<g id="edge56" class="edge"><title>Node20&#45;&gt;Node1</title>
<path fill="none" stroke="#9a32cd" stroke-dasharray="5,2" d="M717.18,-592.288C851.096,-599.773 1129.28,-604.121 1350,-533.337 1382.37,-522.958 1390.1,-517.756 1418,-498.337 1446.5,-478.498 1475.46,-449.479 1490.15,-433.997"/>
<polygon fill="#9a32cd" stroke="#9a32cd" points="717.197,-588.783 707.011,-591.698 716.792,-595.771 717.197,-588.783"/>
<text text-anchor="middle" x="1110" y="-593.337" font-family="FreeSans" font-size="10.00"> delayedCalls_</text>
</g>
<!-- Node20&#45;&gt;Node24 -->
<g id="edge76" class="edge"><title>Node20&#45;&gt;Node24</title>
<path fill="none" stroke="#9a32cd" stroke-dasharray="5,2" d="M716.958,-568.24C730.629,-565.202 744.716,-562.131 758,-559.337 819.159,-546.477 835.775,-549.032 896,-532.337 910.366,-528.355 926.013,-522.791 938.769,-517.923"/>
<polygon fill="#9a32cd" stroke="#9a32cd" points="716.091,-564.848 707.094,-570.443 717.617,-571.679 716.091,-564.848"/>
<text text-anchor="middle" x="827" y="-563.337" font-family="FreeSans" font-size="10.00"> delayedCalls_</text>
</g>
<!-- Node21&#45;&gt;Node1 -->
<g id="edge60" class="edge"><title>Node21&#45;&gt;Node1</title>
<path fill="none" stroke="#9a32cd" stroke-dasharray="5,2" d="M902.651,-648.576C1023.07,-674.545 1260.77,-706.292 1418,-600.337 1477.26,-560.403 1494.54,-466.055 1498.78,-434.12"/>
<polygon fill="#9a32cd" stroke="#9a32cd" points="903.296,-645.134 892.778,-646.402 901.792,-651.97 903.296,-645.134"/>
<text text-anchor="middle" x="1110" y="-677.337" font-family="FreeSans" font-size="10.00"> attributeInfos_</text>
</g>
<!-- Node22&#45;&gt;Node1 -->
<g id="edge66" class="edge"><title>Node22&#45;&gt;Node1</title>
<path fill="none" stroke="#9a32cd" stroke-dasharray="5,2" d="M1196.09,-3.58128C1265.4,4.51405 1360.46,2.55116 1418,-53.3373 1471.69,-105.48 1494.71,-357.15 1499.17,-412.54"/>
<polygon fill="#9a32cd" stroke="#9a32cd" points="1195.54,-0.122496 1186.05,-4.84344 1196.41,-7.06775 1195.54,-0.122496"/>
<text text-anchor="middle" x="1277" y="-17.3373" font-family="FreeSans" font-size="10.00"> storedAttributes_</text>
</g>
<!-- Node23 -->
<g id="node57" class="node"><title>Node23</title>
<a xlink:href="class_urho3_d_1_1_weak_ptr.html" target="_top" xlink:title="Urho3D::WeakPtr\&lt; Urho3D\l::ScriptFile \&gt;">
<polygon fill="none" stroke="black" points="1204,-490.337 1204,-524.337 1350,-524.337 1350,-490.337 1204,-490.337"/>
<text text-anchor="start" x="1212" y="-511.337" font-family="FreeSans" font-size="10.00">Urho3D::WeakPtr&lt; Urho3D</text>
<text text-anchor="middle" x="1277" y="-498.337" font-family="FreeSans" font-size="10.00">::ScriptFile &gt;</text>
</a>
</g>
<!-- Node23&#45;&gt;Node1 -->
<g id="edge70" class="edge"><title>Node23&#45;&gt;Node1</title>
<path fill="none" stroke="#9a32cd" stroke-dasharray="5,2" d="M1350.56,-487.447C1372.52,-480.83 1396.47,-472.933 1418,-464.337 1440.32,-455.427 1464.84,-442.763 1481.2,-433.874"/>
<polygon fill="#9a32cd" stroke="#9a32cd" points="1349.54,-484.097 1340.95,-490.298 1351.54,-490.807 1349.54,-484.097"/>
<text text-anchor="middle" x="1393" y="-485.337" font-family="FreeSans" font-size="10.00"> scriptFile_</text>
</g>
<!-- Node24&#45;&gt;Node23 -->
<g id="edge72" class="edge"><title>Node24&#45;&gt;Node23</title>
<path fill="none" stroke="#9a32cd" stroke-dasharray="5,2" d="M1026.38,-507.337C1077.35,-507.337 1149.97,-507.337 1203.93,-507.337"/>
<polygon fill="#9a32cd" stroke="#9a32cd" points="1026.17,-503.837 1016.17,-507.337 1026.17,-510.837 1026.17,-503.837"/>
<text text-anchor="middle" x="1110" y="-511.337" font-family="FreeSans" font-size="10.00"> ptr_</text>
</g>
<!-- Node25 -->
<g id="node63" class="node"><title>Node25</title>
<a xlink:href="struct_urho3_d_1_1_ref_count.html" target="_top" xlink:title="Reference count structure.">
<polygon fill="none" stroke="black" points="914,-536.837 914,-557.837 1016,-557.837 1016,-536.837 914,-536.837"/>
<text text-anchor="middle" x="965" y="-544.837" font-family="FreeSans" font-size="10.00">Urho3D::RefCount</text>
</a>
</g>
<!-- Node25&#45;&gt;Node23 -->
<g id="edge78" class="edge"><title>Node25&#45;&gt;Node23</title>
<path fill="none" stroke="#9a32cd" stroke-dasharray="5,2" d="M1026.12,-542.316C1070.58,-538.338 1132.17,-532.154 1186,-524.337 1191.73,-523.506 1197.64,-522.572 1203.58,-521.581"/>
<polygon fill="#9a32cd" stroke="#9a32cd" points="1025.71,-538.839 1016.06,-543.205 1026.33,-545.812 1025.71,-538.839"/>
<text text-anchor="middle" x="1110" y="-544.337" font-family="FreeSans" font-size="10.00"> refCount_</text>
</g>
</g>
</svg>
