<?xml version="1.0" encoding="UTF-8" standalone="no"?>
<!DOCTYPE svg PUBLIC "-//W3C//DTD SVG 1.1//EN"
 "http://www.w3.org/Graphics/SVG/1.1/DTD/svg11.dtd">
<!-- Generated by graphviz version 2.36.0 (20140111.2315)
 -->
<!-- Title: Urho3D::Camera::ScreenToWorldPoint Pages: 1 -->
<svg width="948pt" height="310pt"
 viewBox="0.00 0.00 948.00 309.57" xmlns="http://www.w3.org/2000/svg" xmlns:xlink="http://www.w3.org/1999/xlink">
<g id="graph0" class="graph" transform="scale(1 1) rotate(0) translate(4 305.575)">
<title>Urho3D::Camera::ScreenToWorldPoint</title>
<!-- Node1 -->
<g id="node1" class="node"><title>Node1</title>
<polygon fill="#bfbfbf" stroke="black" points="0.5,-150 0.5,-180 139.5,-180 139.5,-150 0.5,-150"/>
<text text-anchor="start" x="8.5" y="-168" font-family="Helvetica,sans-Serif" font-size="10.00">Urho3D::Camera::ScreenTo</text>
<text text-anchor="middle" x="70" y="-157" font-family="Helvetica,sans-Serif" font-size="10.00">WorldPoint</text>
</g>
<!-- Node2 -->
<g id="node2" class="node"><title>Node2</title>
<g id="a_node2"><a xlink:href="class_urho3_d_1_1_camera.html#a7d3b6c67dcbe20cd1c8f00545a9144dc" target="_top" xlink:title="Return ray corresponding to normalized screen coordinates (0 &#45; 1), with origin on the near clip plane...">
<polygon fill="none" stroke="black" points="176.5,-155.5 176.5,-174.5 337.5,-174.5 337.5,-155.5 176.5,-155.5"/>
<text text-anchor="middle" x="257" y="-162.5" font-family="Helvetica,sans-Serif" font-size="10.00">Urho3D::Camera::GetScreenRay</text>
</a>
</g>
</g>
<!-- Node1&#45;&gt;Node2 -->
<g id="edge1" class="edge"><title>Node1&#45;&gt;Node2</title>
<path fill="none" stroke="midnightblue" d="M139.624,-165C148.291,-165 157.258,-165 166.191,-165"/>
<polygon fill="midnightblue" stroke="midnightblue" points="166.245,-168.5 176.245,-165 166.245,-161.5 166.245,-168.5"/>
</g>
<!-- Node6 -->
<g id="node6" class="node"><title>Node6</title>
<g id="a_node6"><a xlink:href="class_urho3_d_1_1_camera.html#acc01c6201d2489565fa9e9b4966e23ad" target="_top" xlink:title="Return near clip distance. If a custom projection matrix is in use, is calculated from it instead of ...">
<polygon fill="none" stroke="black" points="578.5,-237.5 578.5,-256.5 729.5,-256.5 729.5,-237.5 578.5,-237.5"/>
<text text-anchor="middle" x="654" y="-244.5" font-family="Helvetica,sans-Serif" font-size="10.00">Urho3D::Camera::GetNearClip</text>
</a>
</g>
</g>
<!-- Node1&#45;&gt;Node6 -->
<g id="edge18" class="edge"><title>Node1&#45;&gt;Node6</title>
<path fill="none" stroke="midnightblue" d="M97.0313,-180.004C148.103,-208.475 265.894,-269.418 374,-291 446.35,-305.444 467.49,-304.619 540,-291 570.46,-285.279 603.256,-271.587 625.628,-260.984"/>
<polygon fill="midnightblue" stroke="midnightblue" points="627.366,-264.031 634.834,-256.516 624.309,-257.734 627.366,-264.031"/>
</g>
<!-- Node10 -->
<g id="node10" class="node"><title>Node10</title>
<g id="a_node10"><a xlink:href="class_urho3_d_1_1_camera.html#ac362ac9c057c3546e19cedaf23185438" target="_top" xlink:title="Return view matrix. ">
<polygon fill="none" stroke="black" points="390,-57.5 390,-76.5 524,-76.5 524,-57.5 390,-57.5"/>
<text text-anchor="middle" x="457" y="-64.5" font-family="Helvetica,sans-Serif" font-size="10.00">Urho3D::Camera::GetView</text>
</a>
</g>
</g>
<!-- Node1&#45;&gt;Node10 -->
<g id="edge17" class="edge"><title>Node1&#45;&gt;Node10</title>
<path fill="none" stroke="midnightblue" d="M130.313,-149.902C206.809,-130.43 338.343,-96.9491 408.565,-79.0744"/>
<polygon fill="midnightblue" stroke="midnightblue" points="409.639,-82.4126 418.467,-76.5539 407.912,-75.629 409.639,-82.4126"/>
</g>
<!-- Node3 -->
<g id="node3" class="node"><title>Node3</title>
<g id="a_node3"><a xlink:href="class_urho3_d_1_1_camera.html#aa342ca178488ff7b172b37d57d88ce8f" target="_top" xlink:title="Return if projection parameters are valid for rendering and raycasting. ">
<polygon fill="none" stroke="black" points="382.5,-213 382.5,-243 531.5,-243 531.5,-213 382.5,-213"/>
<text text-anchor="start" x="390.5" y="-231" font-family="Helvetica,sans-Serif" font-size="10.00">Urho3D::Camera::IsProjection</text>
<text text-anchor="middle" x="457" y="-220" font-family="Helvetica,sans-Serif" font-size="10.00">Valid</text>
</a>
</g>
</g>
<!-- Node2&#45;&gt;Node3 -->
<g id="edge2" class="edge"><title>Node2&#45;&gt;Node3</title>
<path fill="none" stroke="midnightblue" d="M286.55,-174.534C309.997,-182.321 344.095,-193.544 374,-203 381.203,-205.277 388.773,-207.635 396.282,-209.95"/>
<polygon fill="midnightblue" stroke="midnightblue" points="395.494,-213.37 406.081,-212.961 397.55,-206.678 395.494,-213.37"/>
</g>
<!-- Node7 -->
<g id="node7" class="node"><title>Node7</title>
<g id="a_node7"><a xlink:href="class_urho3_d_1_1_node.html#a92372a305fa427e9ce58df7f37a684ba" target="_top" xlink:title="Return position in world space. ">
<polygon fill="none" stroke="black" points="773,-95.5 773,-114.5 935,-114.5 935,-95.5 773,-95.5"/>
<text text-anchor="middle" x="854" y="-102.5" font-family="Helvetica,sans-Serif" font-size="10.00">Urho3D::Node::GetWorldPosition</text>
</a>
</g>
</g>
<!-- Node2&#45;&gt;Node7 -->
<g id="edge7" class="edge"><title>Node2&#45;&gt;Node7</title>
<path fill="none" stroke="midnightblue" d="M337.627,-156.97C447.979,-145.842 646.863,-125.787 762.643,-114.112"/>
<polygon fill="midnightblue" stroke="midnightblue" points="763.296,-117.564 772.894,-113.078 762.594,-110.599 763.296,-117.564"/>
</g>
<!-- Node8 -->
<g id="node8" class="node"><title>Node8</title>
<g id="a_node8"><a xlink:href="class_urho3_d_1_1_node.html#a5b5facfe755828260527fb74074cd4e5" target="_top" xlink:title="Return direction in world space. ">
<polygon fill="none" stroke="black" points="374,-262.5 374,-281.5 540,-281.5 540,-262.5 374,-262.5"/>
<text text-anchor="middle" x="457" y="-269.5" font-family="Helvetica,sans-Serif" font-size="10.00">Urho3D::Node::GetWorldDirection</text>
</a>
</g>
</g>
<!-- Node2&#45;&gt;Node8 -->
<g id="edge8" class="edge"><title>Node2&#45;&gt;Node8</title>
<path fill="none" stroke="midnightblue" d="M267.931,-174.722C286.899,-192.739 330.299,-231.353 374,-252 380.142,-254.902 386.749,-257.409 393.451,-259.568"/>
<polygon fill="midnightblue" stroke="midnightblue" points="392.711,-263 403.294,-262.489 394.703,-256.289 392.711,-263"/>
</g>
<!-- Node9 -->
<g id="node9" class="node"><title>Node9</title>
<g id="a_node9"><a xlink:href="class_urho3_d_1_1_camera.html#aee38458687851d257e385a30114a7993" target="_top" xlink:title="Return projection matrix. It&#39;s in D3D convention with depth range 0 &#45; 1. ">
<polygon fill="none" stroke="black" points="576,-149.5 576,-168.5 732,-168.5 732,-149.5 576,-149.5"/>
<text text-anchor="middle" x="654" y="-156.5" font-family="Helvetica,sans-Serif" font-size="10.00">Urho3D::Camera::GetProjection</text>
</a>
</g>
</g>
<!-- Node2&#45;&gt;Node9 -->
<g id="edge9" class="edge"><title>Node2&#45;&gt;Node9</title>
<path fill="none" stroke="midnightblue" d="M337.934,-163.786C403.976,-162.783 497.594,-161.361 565.608,-160.327"/>
<polygon fill="midnightblue" stroke="midnightblue" points="565.927,-163.823 575.873,-160.172 565.821,-156.824 565.927,-163.823"/>
</g>
<!-- Node2&#45;&gt;Node10 -->
<g id="edge11" class="edge"><title>Node2&#45;&gt;Node10</title>
<path fill="none" stroke="midnightblue" d="M275.734,-155.372C292.117,-146.345 317.019,-132.284 338,-119 354.458,-108.58 356.567,-102.692 374,-94 385.213,-88.4093 397.846,-83.5908 409.776,-79.6364"/>
<polygon fill="midnightblue" stroke="midnightblue" points="411.115,-82.8834 419.586,-76.5198 408.996,-76.212 411.115,-82.8834"/>
</g>
<!-- Node14 -->
<g id="node14" class="node"><title>Node14</title>
<g id="a_node14"><a xlink:href="class_urho3_d_1_1_vector3.html#a8e105f7e81efd8f80910eb7c7a098ab7" target="_top" xlink:title="Return normalized to unit length. ">
<polygon fill="none" stroke="black" points="384,-174.5 384,-193.5 530,-193.5 530,-174.5 384,-174.5"/>
<text text-anchor="middle" x="457" y="-181.5" font-family="Helvetica,sans-Serif" font-size="10.00">Urho3D::Vector3::Normalized</text>
</a>
</g>
</g>
<!-- Node2&#45;&gt;Node14 -->
<g id="edge16" class="edge"><title>Node2&#45;&gt;Node14</title>
<path fill="none" stroke="midnightblue" d="M337.678,-172.646C349.6,-173.79 361.91,-174.971 373.88,-176.12"/>
<polygon fill="midnightblue" stroke="midnightblue" points="373.552,-179.604 383.84,-177.076 374.22,-172.636 373.552,-179.604"/>
</g>
<!-- Node4 -->
<g id="node4" class="node"><title>Node4</title>
<g id="a_node4"><a xlink:href="class_urho3_d_1_1_camera.html#a2ce91bcd0b92b35b95ae8fe81950dab3" target="_top" xlink:title="Return far clip distance. If a custom projection matrix is in use, is calculated from it instead of t...">
<polygon fill="none" stroke="black" points="582,-199.5 582,-218.5 726,-218.5 726,-199.5 582,-199.5"/>
<text text-anchor="middle" x="654" y="-206.5" font-family="Helvetica,sans-Serif" font-size="10.00">Urho3D::Camera::GetFarClip</text>
</a>
</g>
</g>
<!-- Node3&#45;&gt;Node4 -->
<g id="edge3" class="edge"><title>Node3&#45;&gt;Node4</title>
<path fill="none" stroke="midnightblue" d="M531.721,-220.817C544.785,-219.544 558.455,-218.212 571.714,-216.92"/>
<polygon fill="midnightblue" stroke="midnightblue" points="572.142,-220.395 581.756,-215.942 571.463,-213.428 572.142,-220.395"/>
</g>
<!-- Node3&#45;&gt;Node6 -->
<g id="edge5" class="edge"><title>Node3&#45;&gt;Node6</title>
<path fill="none" stroke="midnightblue" d="M531.721,-235.183C543.602,-236.341 555.984,-237.547 568.102,-238.728"/>
<polygon fill="midnightblue" stroke="midnightblue" points="567.91,-242.226 578.203,-239.712 568.589,-235.259 567.91,-242.226"/>
</g>
<!-- Node5 -->
<g id="node5" class="node"><title>Node5</title>
<g id="a_node5"><a xlink:href="class_urho3_d_1_1_camera.html#a146d6fb7fea96d7a404503695f1be54b" target="_top" xlink:title="Recalculate projection matrix. ">
<polygon fill="none" stroke="black" points="768,-199.5 768,-218.5 940,-218.5 940,-199.5 768,-199.5"/>
<text text-anchor="middle" x="854" y="-206.5" font-family="Helvetica,sans-Serif" font-size="10.00">Urho3D::Camera::UpdateProjection</text>
</a>
</g>
</g>
<!-- Node4&#45;&gt;Node5 -->
<g id="edge4" class="edge"><title>Node4&#45;&gt;Node5</title>
<path fill="none" stroke="midnightblue" d="M726.203,-209C736.453,-209 747.136,-209 757.761,-209"/>
<polygon fill="midnightblue" stroke="midnightblue" points="757.914,-212.5 767.914,-209 757.914,-205.5 757.914,-212.5"/>
</g>
<!-- Node6&#45;&gt;Node5 -->
<g id="edge6" class="edge"><title>Node6&#45;&gt;Node5</title>
<path fill="none" stroke="midnightblue" d="M704.708,-237.46C731.541,-232.31 764.859,-225.916 793.113,-220.494"/>
<polygon fill="midnightblue" stroke="midnightblue" points="794.11,-223.866 803.271,-218.544 792.791,-216.991 794.11,-223.866"/>
</g>
<!-- Node9&#45;&gt;Node5 -->
<g id="edge10" class="edge"><title>Node9&#45;&gt;Node5</title>
<path fill="none" stroke="midnightblue" d="M692.708,-168.522C724.673,-176.594 770.691,-188.215 805.228,-196.936"/>
<polygon fill="midnightblue" stroke="midnightblue" points="804.543,-200.373 815.095,-199.428 806.257,-193.586 804.543,-200.373"/>
</g>
<!-- Node11 -->
<g id="node11" class="node"><title>Node11</title>
<g id="a_node11"><a xlink:href="class_urho3_d_1_1_camera.html#aea08392686708a220a06f4b32a64d610" target="_top" xlink:title="Get effective world transform for matrix and frustum calculations including reflection but excluding ...">
<polygon fill="none" stroke="black" points="578,-49 578,-79 730,-79 730,-49 578,-49"/>
<text text-anchor="start" x="586" y="-67" font-family="Helvetica,sans-Serif" font-size="10.00">Urho3D::Camera::GetEffective</text>
<text text-anchor="middle" x="654" y="-56" font-family="Helvetica,sans-Serif" font-size="10.00">WorldTransform</text>
</a>
</g>
</g>
<!-- Node10&#45;&gt;Node11 -->
<g id="edge12" class="edge"><title>Node10&#45;&gt;Node11</title>
<path fill="none" stroke="midnightblue" d="M524.018,-65.9843C538.113,-65.7675 553.19,-65.5355 567.886,-65.3094"/>
<polygon fill="midnightblue" stroke="midnightblue" points="568.038,-68.8076 577.983,-65.1541 567.93,-61.8085 568.038,-68.8076"/>
</g>
<!-- Node13 -->
<g id="node13" class="node"><title>Node13</title>
<g id="a_node13"><a xlink:href="class_urho3_d_1_1_matrix3x4.html#adbf4f5c122e4dbee49ab99550cc70315" target="_top" xlink:title="Return inverse. ">
<polygon fill="none" stroke="black" points="601.5,-0 601.5,-30 706.5,-30 706.5,-0 601.5,-0"/>
<text text-anchor="start" x="609.5" y="-18" font-family="Helvetica,sans-Serif" font-size="10.00">Urho3D::Matrix3x4::</text>
<text text-anchor="middle" x="654" y="-7" font-family="Helvetica,sans-Serif" font-size="10.00">Inverse</text>
</a>
</g>
</g>
<!-- Node10&#45;&gt;Node13 -->
<g id="edge15" class="edge"><title>Node10&#45;&gt;Node13</title>
<path fill="none" stroke="midnightblue" d="M493.766,-57.4624C521.068,-50.1818 559.342,-39.9756 591.523,-31.3939"/>
<polygon fill="midnightblue" stroke="midnightblue" points="592.535,-34.7464 601.295,-28.7879 590.731,-27.9828 592.535,-34.7464"/>
</g>
<!-- Node11&#45;&gt;Node7 -->
<g id="edge13" class="edge"><title>Node11&#45;&gt;Node7</title>
<path fill="none" stroke="midnightblue" d="M727.604,-79.0341C750.471,-83.7692 775.365,-88.924 796.901,-93.3835"/>
<polygon fill="midnightblue" stroke="midnightblue" points="796.357,-96.8451 806.859,-95.4455 797.776,-89.9905 796.357,-96.8451"/>
</g>
<!-- Node12 -->
<g id="node12" class="node"><title>Node12</title>
<g id="a_node12"><a xlink:href="class_urho3_d_1_1_node.html#aa0f97335ff8b25e10e0a89ee9a87a253" target="_top" xlink:title="Return rotation in world space. ">
<polygon fill="none" stroke="black" points="772,-54.5 772,-73.5 936,-73.5 936,-54.5 772,-54.5"/>
<text text-anchor="middle" x="854" y="-61.5" font-family="Helvetica,sans-Serif" font-size="10.00">Urho3D::Node::GetWorldRotation</text>
</a>
</g>
</g>
<!-- Node11&#45;&gt;Node12 -->
<g id="edge14" class="edge"><title>Node11&#45;&gt;Node12</title>
<path fill="none" stroke="midnightblue" d="M730.138,-64C740.501,-64 751.235,-64 761.848,-64"/>
<polygon fill="midnightblue" stroke="midnightblue" points="761.97,-67.5001 771.97,-64 761.97,-60.5001 761.97,-67.5001"/>
</g>
</g>
</svg>
