<?xml version="1.0" encoding="UTF-8" standalone="no"?>
<!DOCTYPE svg PUBLIC "-//W3C//DTD SVG 1.1//EN"
 "http://www.w3.org/Graphics/SVG/1.1/DTD/svg11.dtd">
<!-- Generated by graphviz version 2.43.0 (0)
 -->
<!-- Title: Urho3D::JSONValue::IsObject Pages: 1 -->
<svg width="645pt" height="225pt"
 viewBox="0.00 0.00 645.00 225.00" xmlns="http://www.w3.org/2000/svg" xmlns:xlink="http://www.w3.org/1999/xlink">
<g id="graph0" class="graph" transform="scale(1 1) rotate(0) translate(4 221)">
<title>Urho3D::JSONValue::IsObject</title>
<!-- Node1 -->
<g id="node1" class="node">
<title>Node1</title>
<g id="a_node1"><a xlink:title=" ">
<polygon fill="#bfbfbf" stroke="black" points="521,-88.5 521,-118.5 637,-118.5 637,-88.5 521,-88.5"/>
<text text-anchor="start" x="529" y="-106.5" font-family="Helvetica,sans-Serif" font-size="10.00">Urho3D::JSONValue::</text>
<text text-anchor="middle" x="579" y="-95.5" font-family="Helvetica,sans-Serif" font-size="10.00">IsObject</text>
</a>
</g>
</g>
<!-- Node2 -->
<g id="node2" class="node">
<title>Node2</title>
<g id="a_node2"><a xlink:href="class_urho3_d_1_1_j_s_o_n_value.html#a3d948e7d1271800c7ef95070baa42cf3" target="_top" xlink:title="Return a variant map.">
<polygon fill="none" stroke="black" points="348.5,-186.5 348.5,-216.5 464.5,-216.5 464.5,-186.5 348.5,-186.5"/>
<text text-anchor="start" x="356.5" y="-204.5" font-family="Helvetica,sans-Serif" font-size="10.00">Urho3D::JSONValue::</text>
<text text-anchor="middle" x="406.5" y="-193.5" font-family="Helvetica,sans-Serif" font-size="10.00">GetVariantMap</text>
</a>
</g>
</g>
<!-- Node1&#45;&gt;Node2 -->
<g id="edge1" class="edge">
<title>Node1&#45;&gt;Node2</title>
<path fill="none" stroke="midnightblue" d="M555.24,-125.64C537.39,-141.95 511.26,-163.62 485,-177.5 478.65,-180.86 471.75,-183.83 464.78,-186.44"/>
<polygon fill="midnightblue" stroke="midnightblue" points="557.9,-127.95 562.83,-118.57 553.12,-122.83 557.9,-127.95"/>
</g>
<!-- Node3 -->
<g id="node3" class="node">
<title>Node3</title>
<g id="a_node3"><a xlink:href="class_urho3_d_1_1_object_animation.html#a6abe177f7630bc448bf4ffe7d0a0695c" target="_top" xlink:title="Load from JSON data. Return true if successful.">
<polygon fill="none" stroke="black" points="336,-137.5 336,-167.5 477,-167.5 477,-137.5 336,-137.5"/>
<text text-anchor="start" x="344" y="-155.5" font-family="Helvetica,sans-Serif" font-size="10.00">Urho3D::ObjectAnimation</text>
<text text-anchor="middle" x="406.5" y="-144.5" font-family="Helvetica,sans-Serif" font-size="10.00">::LoadJSON</text>
</a>
</g>
</g>
<!-- Node1&#45;&gt;Node3 -->
<g id="edge2" class="edge">
<title>Node1&#45;&gt;Node3</title>
<path fill="none" stroke="midnightblue" d="M515.74,-121.39C497.4,-126.66 477.52,-132.38 459.87,-137.45"/>
<polygon fill="midnightblue" stroke="midnightblue" points="516.81,-124.73 525.45,-118.6 514.88,-118 516.81,-124.73"/>
</g>
<!-- Node4 -->
<g id="node4" class="node">
<title>Node4</title>
<g id="a_node4"><a xlink:href="class_urho3_d_1_1_serializable.html#a7363a7dda75d1dc158a0841d459b32e4" target="_top" xlink:title="Load from JSON data. Return true if successful.">
<polygon fill="none" stroke="black" points="348.5,-88.5 348.5,-118.5 464.5,-118.5 464.5,-88.5 348.5,-88.5"/>
<text text-anchor="start" x="356.5" y="-106.5" font-family="Helvetica,sans-Serif" font-size="10.00">Urho3D::Serializable</text>
<text text-anchor="middle" x="406.5" y="-95.5" font-family="Helvetica,sans-Serif" font-size="10.00">::LoadJSON</text>
</a>
</g>
</g>
<!-- Node1&#45;&gt;Node4 -->
<g id="edge3" class="edge">
<title>Node1&#45;&gt;Node4</title>
<path fill="none" stroke="midnightblue" d="M510.4,-103.5C495.23,-103.5 479.29,-103.5 464.6,-103.5"/>
<polygon fill="midnightblue" stroke="midnightblue" points="510.75,-107 520.75,-103.5 510.75,-100 510.75,-107"/>
</g>
<!-- Node5 -->
<g id="node5" class="node">
<title>Node5</title>
<g id="a_node5"><a xlink:href="class_urho3_d_1_1_animatable.html#ad1b16987196e91435eb8af471b7a2714" target="_top" xlink:title="Load from JSON data. Return true if successful.">
<polygon fill="none" stroke="black" points="175,-68.5 175,-98.5 291,-98.5 291,-68.5 175,-68.5"/>
<text text-anchor="start" x="183" y="-86.5" font-family="Helvetica,sans-Serif" font-size="10.00">Urho3D::Animatable</text>
<text text-anchor="middle" x="233" y="-75.5" font-family="Helvetica,sans-Serif" font-size="10.00">::LoadJSON</text>
</a>
</g>
</g>
<!-- Node1&#45;&gt;Node5 -->
<g id="edge7" class="edge">
<title>Node1&#45;&gt;Node5</title>
<path fill="none" stroke="midnightblue" d="M519.43,-86C508.1,-83.3 496.26,-80.93 485,-79.5 418.85,-71.1 342.11,-74.17 291.08,-78"/>
<polygon fill="midnightblue" stroke="midnightblue" points="518.67,-89.42 529.22,-88.45 520.37,-82.62 518.67,-89.42"/>
</g>
<!-- Node8 -->
<g id="node8" class="node">
<title>Node8</title>
<g id="a_node8"><a xlink:href="class_urho3_d_1_1_localization.html#acb70ed7f552a4059a78030e782702c20" target="_top" xlink:title="Load strings from JSONValue.">
<polygon fill="none" stroke="black" points="328,-0.5 328,-30.5 485,-30.5 485,-0.5 328,-0.5"/>
<text text-anchor="start" x="336" y="-18.5" font-family="Helvetica,sans-Serif" font-size="10.00">Urho3D::Localization</text>
<text text-anchor="middle" x="406.5" y="-7.5" font-family="Helvetica,sans-Serif" font-size="10.00">::LoadMultipleLanguageJSON</text>
</a>
</g>
</g>
<!-- Node1&#45;&gt;Node8 -->
<g id="edge8" class="edge">
<title>Node1&#45;&gt;Node8</title>
<path fill="none" stroke="midnightblue" d="M547.73,-82.59C529.94,-70.83 506.74,-56.37 485,-45.5 474.16,-40.08 462.09,-34.99 450.76,-30.59"/>
<polygon fill="midnightblue" stroke="midnightblue" points="546.25,-85.81 556.5,-88.47 550.14,-79.99 546.25,-85.81"/>
</g>
<!-- Node4&#45;&gt;Node5 -->
<g id="edge4" class="edge">
<title>Node4&#45;&gt;Node5</title>
<path fill="none" stroke="midnightblue" d="M338.3,-95.66C322.71,-93.84 306.26,-91.93 291.15,-90.16"/>
<polygon fill="midnightblue" stroke="midnightblue" points="338.05,-99.16 348.39,-96.84 338.87,-92.21 338.05,-99.16"/>
</g>
<!-- Node6 -->
<g id="node6" class="node">
<title>Node6</title>
<g id="a_node6"><a xlink:href="class_urho3_d_1_1_animated_model.html#ab15e3ce26d49e3a40458e56372bade50" target="_top" xlink:title="Load from JSON data. Return true if successful.">
<polygon fill="none" stroke="black" points="0.5,-90.5 0.5,-120.5 137.5,-120.5 137.5,-90.5 0.5,-90.5"/>
<text text-anchor="start" x="8.5" y="-108.5" font-family="Helvetica,sans-Serif" font-size="10.00">Urho3D::AnimatedModel</text>
<text text-anchor="middle" x="69" y="-97.5" font-family="Helvetica,sans-Serif" font-size="10.00">::LoadJSON</text>
</a>
</g>
</g>
<!-- Node5&#45;&gt;Node6 -->
<g id="edge5" class="edge">
<title>Node5&#45;&gt;Node6</title>
<path fill="none" stroke="midnightblue" d="M164.87,-92.62C155.89,-93.84 146.68,-95.09 137.69,-96.31"/>
<polygon fill="midnightblue" stroke="midnightblue" points="165.45,-96.07 174.88,-91.26 164.5,-89.13 165.45,-96.07"/>
</g>
<!-- Node7 -->
<g id="node7" class="node">
<title>Node7</title>
<g id="a_node7"><a xlink:href="class_urho3_d_1_1_node.html#a5e1c150d8d013c7550537c5251bf86f7" target="_top" xlink:title="Load components from XML data and optionally load child nodes.">
<polygon fill="none" stroke="black" points="0,-52 0,-71 138,-71 138,-52 0,-52"/>
<text text-anchor="middle" x="69" y="-59" font-family="Helvetica,sans-Serif" font-size="10.00">Urho3D::Node::LoadJSON</text>
</a>
</g>
</g>
<!-- Node5&#45;&gt;Node7 -->
<g id="edge6" class="edge">
<title>Node5&#45;&gt;Node7</title>
<path fill="none" stroke="midnightblue" d="M164.74,-74.37C155.99,-73.18 147.02,-71.96 138.26,-70.77"/>
<polygon fill="midnightblue" stroke="midnightblue" points="164.5,-77.87 174.88,-75.74 165.45,-70.93 164.5,-77.87"/>
</g>
<!-- Node9 -->
<g id="node9" class="node">
<title>Node9</title>
<g id="a_node9"><a xlink:href="class_urho3_d_1_1_localization.html#a57e97253b396ac80ab7def55fcc5760b" target="_top" xlink:title="Load strings from JSONFile. The file should be UTF8 without BOM.">
<polygon fill="none" stroke="black" points="174,-0.5 174,-30.5 292,-30.5 292,-0.5 174,-0.5"/>
<text text-anchor="start" x="182" y="-18.5" font-family="Helvetica,sans-Serif" font-size="10.00">Urho3D::Localization</text>
<text text-anchor="middle" x="233" y="-7.5" font-family="Helvetica,sans-Serif" font-size="10.00">::LoadJSONFile</text>
</a>
</g>
</g>
<!-- Node8&#45;&gt;Node9 -->
<g id="edge9" class="edge">
<title>Node8&#45;&gt;Node9</title>
<path fill="none" stroke="midnightblue" d="M317.65,-15.5C309.02,-15.5 300.42,-15.5 292.2,-15.5"/>
<polygon fill="midnightblue" stroke="midnightblue" points="317.78,-19 327.78,-15.5 317.78,-12 317.78,-19"/>
</g>
</g>
</svg>
