<?xml version="1.0" encoding="UTF-8" standalone="no"?>
<!DOCTYPE svg PUBLIC "-//W3C//DTD SVG 1.1//EN"
 "http://www.w3.org/Graphics/SVG/1.1/DTD/svg11.dtd">
<!-- Generated by graphviz version 2.43.0 (0)
 -->
<!-- Title: Urho3D::Obstacle::GetRadius Pages: 1 -->
<svg width="550pt" height="210pt"
 viewBox="0.00 0.00 550.00 210.00" xmlns="http://www.w3.org/2000/svg" xmlns:xlink="http://www.w3.org/1999/xlink">
<g id="graph0" class="graph" transform="scale(1 1) rotate(0) translate(4 206)">
<title>Urho3D::Obstacle::GetRadius</title>
<!-- Node1 -->
<g id="node1" class="node">
<title>Node1</title>
<g id="a_node1"><a xlink:title=" ">
<polygon fill="#bfbfbf" stroke="black" points="384,-79 384,-98 542,-98 542,-79 384,-79"/>
<text text-anchor="middle" x="463" y="-86" font-family="Helvetica,sans-Serif" font-size="10.00">Urho3D::Obstacle::GetRadius</text>
</a>
</g>
</g>
<!-- Node2 -->
<g id="node2" class="node">
<title>Node2</title>
<g id="a_node2"><a xlink:href="class_urho3_d_1_1_dynamic_navigation_mesh.html#ab1e71b3f3f22ad18dd5278522c022f45" target="_top" xlink:title="Used by Obstacle class to add itself to the tile cache, if &#39;silent&#39; an event will not be raised.">
<polygon fill="none" stroke="black" points="192,-147.5 192,-177.5 348,-177.5 348,-147.5 192,-147.5"/>
<text text-anchor="start" x="200" y="-165.5" font-family="Helvetica,sans-Serif" font-size="10.00">Urho3D::DynamicNavigation</text>
<text text-anchor="middle" x="270" y="-154.5" font-family="Helvetica,sans-Serif" font-size="10.00">Mesh::AddObstacle</text>
</a>
</g>
</g>
<!-- Node1&#45;&gt;Node2 -->
<g id="edge1" class="edge">
<title>Node1&#45;&gt;Node2</title>
<path fill="none" stroke="midnightblue" d="M432.96,-102.31C410.14,-112.89 377.4,-127.51 348,-138.5 339.74,-141.59 330.88,-144.61 322.22,-147.41"/>
<polygon fill="midnightblue" stroke="midnightblue" points="434.52,-105.44 442.1,-98.04 431.56,-99.1 434.52,-105.44"/>
</g>
<!-- Node6 -->
<g id="node6" class="node">
<title>Node6</title>
<g id="a_node6"><a xlink:href="class_urho3_d_1_1_dynamic_navigation_mesh.html#a2a4d9936b66f8f056928dd48b07ef9a2" target="_top" xlink:title="Return whether the Obstacle is touching the given tile.">
<polygon fill="none" stroke="black" points="192,-98.5 192,-128.5 348,-128.5 348,-98.5 192,-98.5"/>
<text text-anchor="start" x="200" y="-116.5" font-family="Helvetica,sans-Serif" font-size="10.00">Urho3D::DynamicNavigation</text>
<text text-anchor="middle" x="270" y="-105.5" font-family="Helvetica,sans-Serif" font-size="10.00">Mesh::IsObstacleInTile</text>
</a>
</g>
</g>
<!-- Node1&#45;&gt;Node6 -->
<g id="edge5" class="edge">
<title>Node1&#45;&gt;Node6</title>
<path fill="none" stroke="midnightblue" d="M379.1,-99.35C368.88,-100.69 358.46,-102.05 348.32,-103.38"/>
<polygon fill="midnightblue" stroke="midnightblue" points="379.79,-102.79 389.25,-98.02 378.88,-95.85 379.79,-102.79"/>
</g>
<!-- Node7 -->
<g id="node7" class="node">
<title>Node7</title>
<g id="a_node7"><a xlink:href="class_urho3_d_1_1_obstacle.html#a709237eb5c9ddc9c3657715c9d3e05a9" target="_top" xlink:title="Register Obstacle with engine context.">
<polygon fill="none" stroke="black" points="195.5,-49.5 195.5,-79.5 344.5,-79.5 344.5,-49.5 195.5,-49.5"/>
<text text-anchor="start" x="203.5" y="-67.5" font-family="Helvetica,sans-Serif" font-size="10.00">Urho3D::Obstacle::Register</text>
<text text-anchor="middle" x="270" y="-56.5" font-family="Helvetica,sans-Serif" font-size="10.00">Object</text>
</a>
</g>
</g>
<!-- Node1&#45;&gt;Node7 -->
<g id="edge6" class="edge">
<title>Node1&#45;&gt;Node7</title>
<path fill="none" stroke="midnightblue" d="M376.24,-77.72C365.75,-76.41 355.1,-75.07 344.8,-73.77"/>
<polygon fill="midnightblue" stroke="midnightblue" points="375.88,-81.21 386.24,-78.98 376.75,-74.26 375.88,-81.21"/>
</g>
<!-- Node8 -->
<g id="node8" class="node">
<title>Node8</title>
<g id="a_node8"><a xlink:href="class_urho3_d_1_1_dynamic_navigation_mesh.html#a655c1809aa420bcd25af47879dc42f2b" target="_top" xlink:title="Used by Obstacle class to remove itself from the tile cache, if &#39;silent&#39; an event will not be raised.">
<polygon fill="none" stroke="black" points="192,-0.5 192,-30.5 348,-30.5 348,-0.5 192,-0.5"/>
<text text-anchor="start" x="200" y="-18.5" font-family="Helvetica,sans-Serif" font-size="10.00">Urho3D::DynamicNavigation</text>
<text text-anchor="middle" x="270" y="-7.5" font-family="Helvetica,sans-Serif" font-size="10.00">Mesh::RemoveObstacle</text>
</a>
</g>
</g>
<!-- Node1&#45;&gt;Node8 -->
<g id="edge7" class="edge">
<title>Node1&#45;&gt;Node8</title>
<path fill="none" stroke="midnightblue" d="M431.62,-74.88C408.81,-64.86 376.71,-51.18 348,-40.5 338.91,-37.12 329.13,-33.74 319.68,-30.62"/>
<polygon fill="midnightblue" stroke="midnightblue" points="430.22,-78.09 440.78,-78.93 433.05,-71.69 430.22,-78.09"/>
</g>
<!-- Node3 -->
<g id="node3" class="node">
<title>Node3</title>
<g id="a_node3"><a xlink:href="class_urho3_d_1_1_dynamic_navigation_mesh.html#a2b7ade339dad6d4a0360e5c5aff707dc" target="_top" xlink:title="Allocate the navigation mesh without building any tiles. Bounding box is not padded....">
<polygon fill="none" stroke="black" points="0,-171.5 0,-201.5 156,-201.5 156,-171.5 0,-171.5"/>
<text text-anchor="start" x="8" y="-189.5" font-family="Helvetica,sans-Serif" font-size="10.00">Urho3D::DynamicNavigation</text>
<text text-anchor="middle" x="78" y="-178.5" font-family="Helvetica,sans-Serif" font-size="10.00">Mesh::Allocate</text>
</a>
</g>
</g>
<!-- Node2&#45;&gt;Node3 -->
<g id="edge2" class="edge">
<title>Node2&#45;&gt;Node3</title>
<path fill="none" stroke="midnightblue" d="M181.94,-173.5C173.32,-174.59 164.62,-175.68 156.12,-176.76"/>
<polygon fill="midnightblue" stroke="midnightblue" points="182.51,-176.95 191.99,-172.23 181.63,-170.01 182.51,-176.95"/>
</g>
<!-- Node4 -->
<g id="node4" class="node">
<title>Node4</title>
<g id="a_node4"><a xlink:href="class_urho3_d_1_1_dynamic_navigation_mesh.html#ac50303ab43f4c6b1b19867e6a3389af3" target="_top" xlink:title="Build/rebuild the entire navigation mesh.">
<polygon fill="none" stroke="black" points="0,-122.5 0,-152.5 156,-152.5 156,-122.5 0,-122.5"/>
<text text-anchor="start" x="8" y="-140.5" font-family="Helvetica,sans-Serif" font-size="10.00">Urho3D::DynamicNavigation</text>
<text text-anchor="middle" x="78" y="-129.5" font-family="Helvetica,sans-Serif" font-size="10.00">Mesh::Build</text>
</a>
</g>
</g>
<!-- Node2&#45;&gt;Node4 -->
<g id="edge3" class="edge">
<title>Node2&#45;&gt;Node4</title>
<path fill="none" stroke="midnightblue" d="M181.94,-151.04C173.32,-149.91 164.62,-148.77 156.12,-147.65"/>
<polygon fill="midnightblue" stroke="midnightblue" points="181.62,-154.53 191.99,-152.37 182.54,-147.59 181.62,-154.53"/>
</g>
<!-- Node5 -->
<g id="node5" class="node">
<title>Node5</title>
<g id="a_node5"><a xlink:href="class_urho3_d_1_1_dynamic_navigation_mesh.html#ad1de8246e40e3151be5097345c56c637" target="_top" xlink:title="Used by Obstacle class to update itself.">
<polygon fill="none" stroke="black" points="0,-49.5 0,-79.5 156,-79.5 156,-49.5 0,-49.5"/>
<text text-anchor="start" x="8" y="-67.5" font-family="Helvetica,sans-Serif" font-size="10.00">Urho3D::DynamicNavigation</text>
<text text-anchor="middle" x="78" y="-56.5" font-family="Helvetica,sans-Serif" font-size="10.00">Mesh::ObstacleChanged</text>
</a>
</g>
</g>
<!-- Node2&#45;&gt;Node5 -->
<g id="edge4" class="edge">
<title>Node2&#45;&gt;Node5</title>
<path fill="none" stroke="midnightblue" d="M203.9,-143.79C199.82,-142.13 195.82,-140.37 192,-138.5 174.5,-129.95 172.22,-124.29 156,-113.5 138.58,-101.92 118.66,-89.25 103.44,-79.7"/>
<polygon fill="midnightblue" stroke="midnightblue" points="202.93,-147.16 213.52,-147.45 205.43,-140.62 202.93,-147.16"/>
</g>
<!-- Node8&#45;&gt;Node5 -->
<g id="edge8" class="edge">
<title>Node8&#45;&gt;Node5</title>
<path fill="none" stroke="midnightblue" d="M200.95,-33.05C180.09,-38.43 157.33,-44.3 137.19,-49.49"/>
<polygon fill="midnightblue" stroke="midnightblue" points="201.89,-36.42 210.7,-30.53 200.15,-29.64 201.89,-36.42"/>
</g>
</g>
</svg>
