<?xml version="1.0" encoding="UTF-8" standalone="no"?>
<!DOCTYPE svg PUBLIC "-//W3C//DTD SVG 1.1//EN"
 "http://www.w3.org/Graphics/SVG/1.1/DTD/svg11.dtd">
<!-- Generated by graphviz version 2.43.0 (0)
 -->
<!-- Title: Urho3D::RibbonTrail::SetEndScale Pages: 1 -->
<!--zoomable 163 -->
<svg id="main" version="1.1" xmlns="http://www.w3.org/2000/svg" xmlns:xlink="http://www.w3.org/1999/xlink" xml:space="preserve" onload="init(evt)">
<style type="text/css"><![CDATA[
.edge:hover path { stroke: red; }
.edge:hover polygon { stroke: red; fill: red; }
]]></style>
<script type="text/javascript"><![CDATA[
var edges = document.getElementsByTagName('g');
if (edges && edges.length) {
  for (var i=0;i<edges.length;i++) {
    if (edges[i].id.substr(0,4)=='edge') {
      edges[i].setAttribute('class','edge');
    }
  }
}
]]></script>
        <defs>
                <circle id="rim" cx="0" cy="0" r="7"/>
                <circle id="rim2" cx="0" cy="0" r="3.5"/>
                <g id="zoomPlus">
                        <use xlink:href="#rim" fill="#404040">
                                <set attributeName="fill" to="#808080" begin="zoomplus.mouseover" end="zoomplus.mouseout"/>
                        </use>
                        <path d="M-4,0h8M0,-4v8" fill="none" stroke="white" stroke-width="1.5" pointer-events="none"/>
                </g>
                <g id="zoomMin">
                        <use xlink:href="#rim" fill="#404040">
                                <set attributeName="fill" to="#808080" begin="zoomminus.mouseover" end="zoomminus.mouseout"/>
                        </use>
                        <path d="M-4,0h8" fill="none" stroke="white" stroke-width="1.5" pointer-events="none"/>
                </g>
                <g id="dirArrow">
                        <path fill="none" stroke="white" stroke-width="1.5" d="M0,-3.0v7 M-2.5,-0.5L0,-3.0L2.5,-0.5"/>
                </g>
               <g id="resetDef">
                       <use xlink:href="#rim2" fill="#404040">
                               <set attributeName="fill" to="#808080" begin="reset.mouseover" end="reset.mouseout"/>
                       </use>
               </g>
        </defs>

<script type="text/javascript">
var viewWidth = 1184;
var viewHeight = 163;
var sectionId = 'dynsection-9';
</script>
<script xlink:href="svgpan.js"/>
<svg id="graph" class="graph">
<g id="viewport">
<title>Urho3D::RibbonTrail::SetEndScale</title>
<!-- Node1 -->
<g id="node1" class="node">
<title>Node1</title>
<g id="a_node1"><a xlink:title=" ">
<polygon fill="#bfbfbf" stroke="black" points="0,-48.5 0,-78.5 113,-78.5 113,-48.5 0,-48.5"/>
<text text-anchor="start" x="8" y="-66.5" font-family="Helvetica,sans-Serif" font-size="10.00">Urho3D::RibbonTrail</text>
<text text-anchor="middle" x="56.5" y="-55.5" font-family="Helvetica,sans-Serif" font-size="10.00">::SetEndScale</text>
</a>
</g>
</g>
<!-- Node2 -->
<g id="node2" class="node">
<title>Node2</title>
<g id="a_node2"><a xlink:href="class_urho3_d_1_1_ribbon_trail.html#ad39bbe48e48acc6d1067e1cb3cc12938" target="_top" xlink:title="Mark for bounding box and vertex buffer update. Call after modifying the trails.">
<polygon fill="none" stroke="black" points="149,-48.5 149,-78.5 262,-78.5 262,-48.5 149,-48.5"/>
<text text-anchor="start" x="157" y="-66.5" font-family="Helvetica,sans-Serif" font-size="10.00">Urho3D::RibbonTrail</text>
<text text-anchor="middle" x="205.5" y="-55.5" font-family="Helvetica,sans-Serif" font-size="10.00">::Commit</text>
</a>
</g>
</g>
<!-- Node1&#45;&gt;Node2 -->
<g id="edge1" class="edge">
<title>Node1&#45;&gt;Node2</title>
<path fill="none" stroke="midnightblue" d="M113.07,-63.5C121.49,-63.5 130.24,-63.5 138.84,-63.5"/>
<polygon fill="midnightblue" stroke="midnightblue" points="138.85,-67 148.85,-63.5 138.85,-60 138.85,-67"/>
</g>
<!-- Node3 -->
<g id="node3" class="node">
<title>Node3</title>
<g id="a_node3"><a xlink:href="class_urho3_d_1_1_component.html#aaf87acb64001774c62f0784254f9b291" target="_top" xlink:title="Mark for attribute check on the next network update.">
<polygon fill="none" stroke="black" points="298,-73.5 298,-103.5 420,-103.5 420,-73.5 298,-73.5"/>
<text text-anchor="start" x="306" y="-91.5" font-family="Helvetica,sans-Serif" font-size="10.00">Urho3D::Component::</text>
<text text-anchor="middle" x="359" y="-80.5" font-family="Helvetica,sans-Serif" font-size="10.00">MarkNetworkUpdate</text>
</a>
</g>
</g>
<!-- Node2&#45;&gt;Node3 -->
<g id="edge2" class="edge">
<title>Node2&#45;&gt;Node3</title>
<path fill="none" stroke="midnightblue" d="M262.05,-72.67C270.43,-74.05 279.16,-75.49 287.8,-76.92"/>
<polygon fill="midnightblue" stroke="midnightblue" points="287.42,-80.4 297.86,-78.58 288.56,-73.49 287.42,-80.4"/>
</g>
<!-- Node9 -->
<g id="node9" class="node">
<title>Node9</title>
<g id="a_node9"><a xlink:href="class_urho3_d_1_1_ribbon_trail.html#acec816736eed7f59ab63aafaa0da4fc2" target="_top" xlink:title="Mark vertex buffer to need an update.">
<polygon fill="none" stroke="black" points="301,-24.5 301,-54.5 417,-54.5 417,-24.5 301,-24.5"/>
<text text-anchor="start" x="309" y="-42.5" font-family="Helvetica,sans-Serif" font-size="10.00">Urho3D::RibbonTrail</text>
<text text-anchor="middle" x="359" y="-31.5" font-family="Helvetica,sans-Serif" font-size="10.00">::MarkPositionsDirty</text>
</a>
</g>
</g>
<!-- Node2&#45;&gt;Node9 -->
<g id="edge8" class="edge">
<title>Node2&#45;&gt;Node9</title>
<path fill="none" stroke="midnightblue" d="M262.05,-54.7C271.45,-53.21 281.3,-51.65 290.96,-50.12"/>
<polygon fill="midnightblue" stroke="midnightblue" points="291.6,-53.56 300.93,-48.54 290.51,-46.65 291.6,-53.56"/>
</g>
<!-- Node4 -->
<g id="node4" class="node">
<title>Node4</title>
<g id="a_node4"><a xlink:href="class_urho3_d_1_1_component.html#a2c22f727341671a0420934f249ffe059" target="_top" xlink:title="Return the scene the node belongs to.">
<polygon fill="none" stroke="black" points="867.5,-95.5 867.5,-125.5 989.5,-125.5 989.5,-95.5 867.5,-95.5"/>
<text text-anchor="start" x="875.5" y="-113.5" font-family="Helvetica,sans-Serif" font-size="10.00">Urho3D::Component::</text>
<text text-anchor="middle" x="928.5" y="-102.5" font-family="Helvetica,sans-Serif" font-size="10.00">GetScene</text>
</a>
</g>
</g>
<!-- Node3&#45;&gt;Node4 -->
<g id="edge3" class="edge">
<title>Node3&#45;&gt;Node4</title>
<path fill="none" stroke="midnightblue" d="M381.66,-103.67C400.37,-115.78 428.62,-131.8 456,-138.5 595.29,-172.6 764.3,-147.04 857.43,-127.43"/>
<polygon fill="midnightblue" stroke="midnightblue" points="858.26,-130.83 867.3,-125.31 856.79,-123.98 858.26,-130.83"/>
</g>
<!-- Node6 -->
<g id="node6" class="node">
<title>Node6</title>
<g id="a_node6"><a xlink:href="class_urho3_d_1_1_component.html#a8f1388c232ca01b7c7328c761aae6e76" target="_top" xlink:title=" ">
<polygon fill="none" stroke="black" points="475.5,-98.5 475.5,-128.5 597.5,-128.5 597.5,-98.5 475.5,-98.5"/>
<text text-anchor="start" x="483.5" y="-116.5" font-family="Helvetica,sans-Serif" font-size="10.00">Urho3D::Component::</text>
<text text-anchor="middle" x="536.5" y="-105.5" font-family="Helvetica,sans-Serif" font-size="10.00">IsReplicated</text>
</a>
</g>
</g>
<!-- Node3&#45;&gt;Node6 -->
<g id="edge5" class="edge">
<title>Node3&#45;&gt;Node6</title>
<path fill="none" stroke="midnightblue" d="M420.4,-97.1C434.82,-99.16 450.33,-101.37 465.16,-103.48"/>
<polygon fill="midnightblue" stroke="midnightblue" points="464.9,-106.98 475.29,-104.92 465.88,-100.05 464.9,-106.98"/>
</g>
<!-- Node8 -->
<g id="node8" class="node">
<title>Node8</title>
<g id="a_node8"><a xlink:href="class_urho3_d_1_1_scene.html#a00b724dfff718639b9de12d71139499c" target="_top" xlink:title="Mark for attribute check on the next network update.">
<polygon fill="none" stroke="black" points="456,-49.5 456,-79.5 617,-79.5 617,-49.5 456,-49.5"/>
<text text-anchor="start" x="464" y="-67.5" font-family="Helvetica,sans-Serif" font-size="10.00">Urho3D::Scene::MarkNetwork</text>
<text text-anchor="middle" x="536.5" y="-56.5" font-family="Helvetica,sans-Serif" font-size="10.00">Update</text>
</a>
</g>
</g>
<!-- Node3&#45;&gt;Node8 -->
<g id="edge7" class="edge">
<title>Node3&#45;&gt;Node8</title>
<path fill="none" stroke="midnightblue" d="M420.4,-80.24C428.59,-79.12 437.14,-77.95 445.72,-76.78"/>
<polygon fill="midnightblue" stroke="midnightblue" points="446.34,-80.23 455.78,-75.4 445.39,-73.29 446.34,-80.23"/>
</g>
<!-- Node5 -->
<g id="node5" class="node">
<title>Node5</title>
<g id="a_node5"><a xlink:href="class_urho3_d_1_1_node.html#a9c57bc1539c33614c36f8a1453d62e9a" target="_top" xlink:title=" ">
<polygon fill="none" stroke="black" points="1039,-101 1039,-120 1176,-120 1176,-101 1039,-101"/>
<text text-anchor="middle" x="1107.5" y="-108" font-family="Helvetica,sans-Serif" font-size="10.00">Urho3D::Node::GetScene</text>
</a>
</g>
</g>
<!-- Node4&#45;&gt;Node5 -->
<g id="edge4" class="edge">
<title>Node4&#45;&gt;Node5</title>
<path fill="none" stroke="midnightblue" d="M989.92,-110.5C1002.32,-110.5 1015.55,-110.5 1028.48,-110.5"/>
<polygon fill="midnightblue" stroke="midnightblue" points="1028.76,-114 1038.76,-110.5 1028.76,-107 1028.76,-114"/>
</g>
<!-- Node7 -->
<g id="node7" class="node">
<title>Node7</title>
<g id="a_node7"><a xlink:href="class_urho3_d_1_1_scene.html#a97fb1222bd2f38e6c1c433c0b7e54d40" target="_top" xlink:title="Return whether the specified id is a replicated id.">
<polygon fill="none" stroke="black" points="653,-104 653,-123 818,-123 818,-104 653,-104"/>
<text text-anchor="middle" x="735.5" y="-111" font-family="Helvetica,sans-Serif" font-size="10.00">Urho3D::Scene::IsReplicatedID</text>
</a>
</g>
</g>
<!-- Node6&#45;&gt;Node7 -->
<g id="edge6" class="edge">
<title>Node6&#45;&gt;Node7</title>
<path fill="none" stroke="midnightblue" d="M597.68,-113.5C611.97,-113.5 627.54,-113.5 642.89,-113.5"/>
<polygon fill="midnightblue" stroke="midnightblue" points="642.92,-117 652.92,-113.5 642.92,-110 642.92,-117"/>
</g>
<!-- Node10 -->
<g id="node10" class="node">
<title>Node10</title>
<g id="a_node10"><a xlink:href="class_urho3_d_1_1_drawable.html#a04a978441415a93f044721f6473df0e3" target="_top" xlink:title="Handle node transform being dirtied.">
<polygon fill="none" stroke="black" points="456,-0.5 456,-30.5 617,-30.5 617,-0.5 456,-0.5"/>
<text text-anchor="start" x="464" y="-18.5" font-family="Helvetica,sans-Serif" font-size="10.00">Urho3D::Drawable::OnMarked</text>
<text text-anchor="middle" x="536.5" y="-7.5" font-family="Helvetica,sans-Serif" font-size="10.00">Dirty</text>
</a>
</g>
</g>
<!-- Node9&#45;&gt;Node10 -->
<g id="edge9" class="edge">
<title>Node9&#45;&gt;Node10</title>
<path fill="none" stroke="midnightblue" d="M417.47,-31.64C426.59,-30.39 436.22,-29.08 445.87,-27.76"/>
<polygon fill="midnightblue" stroke="midnightblue" points="446.49,-31.21 455.92,-26.38 445.54,-24.27 446.49,-31.21"/>
</g>
<!-- Node11 -->
<g id="node11" class="node">
<title>Node11</title>
<g id="a_node11"><a xlink:href="class_urho3_d_1_1_octant.html#a360158ca482e5cd6fc8412e9510ed582" target="_top" xlink:title="Return octree root.">
<polygon fill="none" stroke="black" points="667,-44 667,-63 804,-63 804,-44 667,-44"/>
<text text-anchor="middle" x="735.5" y="-51" font-family="Helvetica,sans-Serif" font-size="10.00">Urho3D::Octant::GetRoot</text>
</a>
</g>
</g>
<!-- Node10&#45;&gt;Node11 -->
<g id="edge10" class="edge">
<title>Node10&#45;&gt;Node11</title>
<path fill="none" stroke="midnightblue" d="M615.36,-30.52C635.32,-34.37 656.47,-38.45 675.32,-42.09"/>
<polygon fill="midnightblue" stroke="midnightblue" points="674.76,-45.54 685.25,-44 676.09,-38.67 674.76,-45.54"/>
</g>
<!-- Node12 -->
<g id="node12" class="node">
<title>Node12</title>
<g id="a_node12"><a xlink:href="class_urho3_d_1_1_octree.html#a578eb27fbff722b23eecfd03ef0e5571" target="_top" xlink:title="Mark drawable object as requiring an update and a reinsertion.">
<polygon fill="none" stroke="black" points="653.5,-6 653.5,-25 817.5,-25 817.5,-6 653.5,-6"/>
<text text-anchor="middle" x="735.5" y="-13" font-family="Helvetica,sans-Serif" font-size="10.00">Urho3D::Octree::QueueUpdate</text>
</a>
</g>
</g>
<!-- Node10&#45;&gt;Node12 -->
<g id="edge11" class="edge">
<title>Node10&#45;&gt;Node12</title>
<path fill="none" stroke="midnightblue" d="M617.06,-15.5C625.66,-15.5 634.45,-15.5 643.17,-15.5"/>
<polygon fill="midnightblue" stroke="midnightblue" points="643.36,-19 653.36,-15.5 643.36,-12 643.36,-19"/>
</g>
<!-- Node12&#45;&gt;Node4 -->
<g id="edge12" class="edge">
<title>Node12&#45;&gt;Node4</title>
<path fill="none" stroke="midnightblue" d="M790.49,-25.05C799.87,-27.56 809.37,-30.67 818,-34.5 849.37,-48.43 881.14,-71.73 902.32,-88.86"/>
<polygon fill="midnightblue" stroke="midnightblue" points="900.23,-91.67 910.17,-95.33 904.68,-86.27 900.23,-91.67"/>
</g>
<!-- Node13 -->
<g id="node13" class="node">
<title>Node13</title>
<g id="a_node13"><a xlink:href="class_urho3_d_1_1_scene.html#a5a3132086218d7b7e6d8f3ccd50f7249" target="_top" xlink:title="Return threaded update flag.">
<polygon fill="none" stroke="black" points="854,-0.5 854,-30.5 1003,-30.5 1003,-0.5 854,-0.5"/>
<text text-anchor="start" x="862" y="-18.5" font-family="Helvetica,sans-Serif" font-size="10.00">Urho3D::Scene::IsThreaded</text>
<text text-anchor="middle" x="928.5" y="-7.5" font-family="Helvetica,sans-Serif" font-size="10.00">Update</text>
</a>
</g>
</g>
<!-- Node12&#45;&gt;Node13 -->
<g id="edge13" class="edge">
<title>Node12&#45;&gt;Node13</title>
<path fill="none" stroke="midnightblue" d="M817.5,-15.5C826.2,-15.5 835.06,-15.5 843.79,-15.5"/>
<polygon fill="midnightblue" stroke="midnightblue" points="843.95,-19 853.95,-15.5 843.95,-12 843.95,-19"/>
</g>
</g>
</svg>
        <g id="navigator" transform="translate(0 0)" fill="#404254">
                <rect fill="#f2f5e9" fill-opacity="0.5" stroke="#606060" stroke-width=".5" x="0" y="0" width="60" height="60"/>
                <use id="zoomplus" xlink:href="#zoomPlus" x="17" y="9" onmousedown="handleZoom(evt,'in')"/>
                <use id="zoomminus" xlink:href="#zoomMin" x="42" y="9" onmousedown="handleZoom(evt,'out')"/>
                <use id="reset" xlink:href="#resetDef" x="30" y="36" onmousedown="handleReset()"/>
                <g id="arrowUp" xlink:href="#dirArrow" transform="translate(30 24)" onmousedown="handlePan(0,-1)">
                  <use xlink:href="#rim" fill="#404040">
                        <set attributeName="fill" to="#808080" begin="arrowUp.mouseover" end="arrowUp.mouseout"/>
                  </use>
                  <path fill="none" stroke="white" stroke-width="1.5" d="M0,-3.0v7 M-2.5,-0.5L0,-3.0L2.5,-0.5"/>
                </g>
                <g id="arrowRight" xlink:href="#dirArrow" transform="rotate(90) translate(36 -43)" onmousedown="handlePan(1,0)">
                  <use xlink:href="#rim" fill="#404040">
                        <set attributeName="fill" to="#808080" begin="arrowRight.mouseover" end="arrowRight.mouseout"/>
                  </use>
                  <path fill="none" stroke="white" stroke-width="1.5" d="M0,-3.0v7 M-2.5,-0.5L0,-3.0L2.5,-0.5"/>
                </g>
                <g id="arrowDown" xlink:href="#dirArrow" transform="rotate(180) translate(-30 -48)" onmousedown="handlePan(0,1)">
                  <use xlink:href="#rim" fill="#404040">
                        <set attributeName="fill" to="#808080" begin="arrowDown.mouseover" end="arrowDown.mouseout"/>
                  </use>
                  <path fill="none" stroke="white" stroke-width="1.5" d="M0,-3.0v7 M-2.5,-0.5L0,-3.0L2.5,-0.5"/>
                </g>
                <g id="arrowLeft" xlink:href="#dirArrow" transform="rotate(270) translate(-36 17)" onmousedown="handlePan(-1,0)">
                  <use xlink:href="#rim" fill="#404040">
                        <set attributeName="fill" to="#808080" begin="arrowLeft.mouseover" end="arrowLeft.mouseout"/>
                  </use>
                  <path fill="none" stroke="white" stroke-width="1.5" d="M0,-3.0v7 M-2.5,-0.5L0,-3.0L2.5,-0.5"/>
                </g>
        </g>
        <svg viewBox="0 0 15 15" width="100%" height="30px" preserveAspectRatio="xMaxYMin meet">
         <g id="arrow_out" transform="scale(0.3 0.3)">
          <a xlink:href="class_urho3_d_1_1_ribbon_trail_af96e2f9d3631b55a562fa1103c4e27db_cgraph_org.svg" target="_base">
           <rect id="button" ry="5" rx="5" y="6" x="6" height="38" width="38"
                fill="#f2f5e9" fill-opacity="0.5" stroke="#606060" stroke-width="1.0"/>
           <path id="arrow"
             d="M 11.500037,31.436501 C 11.940474,20.09759 22.043105,11.32322 32.158766,21.979434 L 37.068811,17.246167 C 37.068811,17.246167 37.088388,32 37.088388,32 L 22.160133,31.978069 C 22.160133,31.978069 26.997745,27.140456 26.997745,27.140456 C 18.528582,18.264221 13.291696,25.230495 11.500037,31.436501 z"
             style="fill:#404040;"/>
          </a>
         </g>
        </svg>
</svg>
