<?xml version="1.0" encoding="UTF-8" standalone="no"?>
<!DOCTYPE svg PUBLIC "-//W3C//DTD SVG 1.1//EN"
 "http://www.w3.org/Graphics/SVG/1.1/DTD/svg11.dtd">
<!-- Generated by graphviz version 2.36.0 (20140111.2315)
 -->
<!-- Title: Urho3D::TmxImageLayer2D Pages: 1 -->
<svg width="1314pt" height="1020pt"
 viewBox="0.00 0.00 1314.00 1020.09" xmlns="http://www.w3.org/2000/svg" xmlns:xlink="http://www.w3.org/1999/xlink">
<g id="graph0" class="graph" transform="scale(1 1) rotate(0) translate(4 1016.09)">
<title>Urho3D::TmxImageLayer2D</title>
<!-- Node1 -->
<g id="node1" class="node"><title>Node1</title>
<polygon fill="#bfbfbf" stroke="black" points="1166,-80.588 1166,-99.588 1306,-99.588 1306,-80.588 1166,-80.588"/>
<text text-anchor="middle" x="1236" y="-87.588" font-family="Helvetica,sans-Serif" font-size="10.00">Urho3D::TmxImageLayer2D</text>
</g>
<!-- Node2 -->
<g id="node2" class="node"><title>Node2</title>
<g id="a_node2"><a xlink:href="class_urho3_d_1_1_tmx_layer2_d.html" target="_top" xlink:title="Tmx layer. ">
<polygon fill="none" stroke="black" points="1014.5,-754.588 1014.5,-773.588 1127.5,-773.588 1127.5,-754.588 1014.5,-754.588"/>
<text text-anchor="middle" x="1071" y="-761.588" font-family="Helvetica,sans-Serif" font-size="10.00">Urho3D::TmxLayer2D</text>
</a>
</g>
</g>
<!-- Node2&#45;&gt;Node1 -->
<g id="edge1" class="edge"><title>Node2&#45;&gt;Node1</title>
<path fill="none" stroke="midnightblue" d="M1076.68,-744.723C1101.26,-643.09 1214.91,-173.179 1232.66,-99.7495"/>
<polygon fill="midnightblue" stroke="midnightblue" points="1073.25,-744.018 1074.3,-754.56 1080.06,-745.663 1073.25,-744.018"/>
</g>
<!-- Node3 -->
<g id="node3" class="node"><title>Node3</title>
<g id="a_node3"><a xlink:href="class_urho3_d_1_1_ref_counted.html" target="_top" xlink:title="Base class for intrusively reference&#45;counted objects. These are noncopyable and non&#45;assignable. ">
<polygon fill="none" stroke="black" points="217.5,-992.588 217.5,-1011.59 326.5,-1011.59 326.5,-992.588 217.5,-992.588"/>
<text text-anchor="middle" x="272" y="-999.588" font-family="Helvetica,sans-Serif" font-size="10.00">Urho3D::RefCounted</text>
</a>
</g>
</g>
<!-- Node3&#45;&gt;Node2 -->
<g id="edge2" class="edge"><title>Node3&#45;&gt;Node2</title>
<path fill="none" stroke="midnightblue" d="M336.827,-1000.1C386.314,-998.277 456.579,-995.097 518,-990.088 741.149,-971.891 808.479,-953.409 996,-831.088 1022.13,-814.045 1048.1,-787.845 1061.21,-773.791"/>
<polygon fill="midnightblue" stroke="midnightblue" points="336.462,-996.607 326.594,-1000.46 336.713,-1003.6 336.462,-996.607"/>
</g>
<!-- Node6 -->
<g id="node6" class="node"><title>Node6</title>
<g id="a_node6"><a xlink:href="class_urho3_d_1_1_property_set2_d.html" target="_top" xlink:title="Property set. ">
<polygon fill="none" stroke="black" points="536.5,-945.588 536.5,-964.588 657.5,-964.588 657.5,-945.588 536.5,-945.588"/>
<text text-anchor="middle" x="597" y="-952.588" font-family="Helvetica,sans-Serif" font-size="10.00">Urho3D::PropertySet2D</text>
</a>
</g>
</g>
<!-- Node3&#45;&gt;Node6 -->
<g id="edge6" class="edge"><title>Node3&#45;&gt;Node6</title>
<path fill="none" stroke="midnightblue" d="M336.471,-993.212C385.948,-986.246 456.369,-976.231 518,-967.088 523.963,-966.203 530.181,-965.268 536.389,-964.326"/>
<polygon fill="midnightblue" stroke="midnightblue" points="335.968,-989.748 326.553,-994.607 336.943,-996.68 335.968,-989.748"/>
</g>
<!-- Node4 -->
<g id="node4" class="node"><title>Node4</title>
<g id="a_node4"><a xlink:href="struct_urho3_d_1_1_ref_count.html" target="_top" xlink:title="Reference count structure. ">
<polygon fill="none" stroke="black" points="0,-904.588 0,-923.588 98,-923.588 98,-904.588 0,-904.588"/>
<text text-anchor="middle" x="49" y="-911.588" font-family="Helvetica,sans-Serif" font-size="10.00">Urho3D::RefCount</text>
</a>
</g>
</g>
<!-- Node4&#45;&gt;Node3 -->
<g id="edge3" class="edge"><title>Node4&#45;&gt;Node3</title>
<path fill="none" stroke="#9a32cd" stroke-dasharray="5,2" d="M73.5659,-928.872C98.9598,-944.206 140.992,-967.887 180,-982.088 191.856,-986.404 204.935,-989.947 217.391,-992.787"/>
<polygon fill="#9a32cd" stroke="#9a32cd" points="75.3566,-925.864 64.9994,-923.633 71.7046,-931.836 75.3566,-925.864"/>
<text text-anchor="middle" x="139" y="-977.088" font-family="Helvetica,sans-Serif" font-size="10.00"> refCount_</text>
</g>
<!-- Node8 -->
<g id="node8" class="node"><title>Node8</title>
<g id="a_node8"><a xlink:href="class_urho3_d_1_1_weak_ptr.html" target="_top" xlink:title="Urho3D::WeakPtr\&lt; Urho3D\l::TmxFile2D \&gt;">
<polygon fill="none" stroke="black" points="732.5,-749.088 732.5,-779.088 869.5,-779.088 869.5,-749.088 732.5,-749.088"/>
<text text-anchor="start" x="740.5" y="-767.088" font-family="Helvetica,sans-Serif" font-size="10.00">Urho3D::WeakPtr&lt; Urho3D</text>
<text text-anchor="middle" x="801" y="-756.088" font-family="Helvetica,sans-Serif" font-size="10.00">::TmxFile2D &gt;</text>
</a>
</g>
</g>
<!-- Node4&#45;&gt;Node8 -->
<g id="edge20" class="edge"><title>Node4&#45;&gt;Node8</title>
<path fill="none" stroke="#9a32cd" stroke-dasharray="5,2" d="M108.243,-912.729C171.454,-910.708 275.252,-905.792 364,-894.088 433.218,-884.959 450.677,-881.585 518,-863.088 607.06,-838.619 708.606,-800.315 762.219,-779.245"/>
<polygon fill="#9a32cd" stroke="#9a32cd" points="107.961,-909.236 98.0729,-913.041 108.175,-916.233 107.961,-909.236"/>
<text text-anchor="middle" x="450" y="-895.088" font-family="Helvetica,sans-Serif" font-size="10.00"> refCount_</text>
</g>
<!-- Node23 -->
<g id="node23" class="node"><title>Node23</title>
<g id="a_node23"><a xlink:href="class_urho3_d_1_1_weak_ptr.html" target="_top" xlink:title="Urho3D::WeakPtr\&lt; Urho3D\l::SpriteSheet2D \&gt;">
<polygon fill="none" stroke="red" points="203.5,-468.088 203.5,-498.088 340.5,-498.088 340.5,-468.088 203.5,-468.088"/>
<text text-anchor="start" x="211.5" y="-486.088" font-family="Helvetica,sans-Serif" font-size="10.00">Urho3D::WeakPtr&lt; Urho3D</text>
<text text-anchor="middle" x="272" y="-475.088" font-family="Helvetica,sans-Serif" font-size="10.00">::SpriteSheet2D &gt;</text>
</a>
</g>
</g>
<!-- Node4&#45;&gt;Node23 -->
<g id="edge30" class="edge"><title>Node4&#45;&gt;Node23</title>
<path fill="none" stroke="#9a32cd" stroke-dasharray="5,2" d="M50.0449,-894.213C51.3175,-828.582 64.5829,-616.731 180,-507.088 186.634,-500.786 194.72,-496.093 203.305,-492.606"/>
<polygon fill="#9a32cd" stroke="#9a32cd" points="46.543,-894.359 49.9258,-904.4 53.5425,-894.441 46.543,-894.359"/>
<text text-anchor="middle" x="139" y="-593.088" font-family="Helvetica,sans-Serif" font-size="10.00"> refCount_</text>
</g>
<!-- Node5 -->
<g id="node5" class="node"><title>Node5</title>
<g id="a_node5"><a xlink:href="class_urho3_d_1_1_shared_ptr.html" target="_top" xlink:title="Urho3D::SharedPtr\&lt;\l Urho3D::PropertySet2D \&gt;">
<polygon fill="none" stroke="black" points="734.5,-825.088 734.5,-855.088 867.5,-855.088 867.5,-825.088 734.5,-825.088"/>
<text text-anchor="start" x="742.5" y="-843.088" font-family="Helvetica,sans-Serif" font-size="10.00">Urho3D::SharedPtr&lt;</text>
<text text-anchor="middle" x="801" y="-832.088" font-family="Helvetica,sans-Serif" font-size="10.00"> Urho3D::PropertySet2D &gt;</text>
</a>
</g>
</g>
<!-- Node5&#45;&gt;Node2 -->
<g id="edge4" class="edge"><title>Node5&#45;&gt;Node2</title>
<path fill="none" stroke="#9a32cd" stroke-dasharray="5,2" d="M864.689,-822.311C918.261,-807.119 993.291,-785.841 1036.24,-773.661"/>
<polygon fill="#9a32cd" stroke="#9a32cd" points="863.614,-818.977 854.948,-825.073 865.524,-825.712 863.614,-818.977"/>
<text text-anchor="middle" x="942" y="-819.088" font-family="Helvetica,sans-Serif" font-size="10.00"> propertySet_</text>
</g>
<!-- Node6&#45;&gt;Node5 -->
<g id="edge5" class="edge"><title>Node6&#45;&gt;Node5</title>
<path fill="none" stroke="#9a32cd" stroke-dasharray="5,2" d="M667.464,-945.659C683.407,-941.694 699.825,-936.069 714,-928.088 746.761,-909.643 775.124,-874.966 789.652,-855.094"/>
<polygon fill="#9a32cd" stroke="#9a32cd" points="666.586,-942.269 657.622,-947.918 668.152,-949.091 666.586,-942.269"/>
<text text-anchor="middle" x="695" y="-945.088" font-family="Helvetica,sans-Serif" font-size="10.00"> ptr_</text>
</g>
<!-- Node7 -->
<g id="node7" class="node"><title>Node7</title>
<g id="a_node7"><a xlink:href="class_urho3_d_1_1_hash_map.html" target="_top" xlink:title="Urho3D::HashMap\&lt; Urho3D\l::String, Urho3D::String \&gt;">
<polygon fill="none" stroke="red" points="201.5,-943.088 201.5,-973.088 342.5,-973.088 342.5,-943.088 201.5,-943.088"/>
<text text-anchor="start" x="209.5" y="-961.088" font-family="Helvetica,sans-Serif" font-size="10.00">Urho3D::HashMap&lt; Urho3D</text>
<text text-anchor="middle" x="272" y="-950.088" font-family="Helvetica,sans-Serif" font-size="10.00">::String, Urho3D::String &gt;</text>
</a>
</g>
</g>
<!-- Node7&#45;&gt;Node6 -->
<g id="edge7" class="edge"><title>Node7&#45;&gt;Node6</title>
<path fill="none" stroke="#9a32cd" stroke-dasharray="5,2" d="M352.93,-956.496C362.721,-956.338 372.589,-956.196 382,-956.088 434.197,-955.487 493.559,-955.245 536.499,-955.148"/>
<polygon fill="#9a32cd" stroke="#9a32cd" points="352.715,-952.999 342.775,-956.666 352.833,-959.998 352.715,-952.999"/>
<text text-anchor="middle" x="450" y="-959.088" font-family="Helvetica,sans-Serif" font-size="10.00"> nameToValueMapping_</text>
</g>
<!-- Node8&#45;&gt;Node2 -->
<g id="edge8" class="edge"><title>Node8&#45;&gt;Node2</title>
<path fill="none" stroke="#9a32cd" stroke-dasharray="5,2" d="M879.777,-764.088C922.781,-764.088 975.223,-764.088 1014.14,-764.088"/>
<polygon fill="#9a32cd" stroke="#9a32cd" points="879.628,-760.588 869.628,-764.088 879.628,-767.588 879.628,-760.588"/>
<text text-anchor="middle" x="942" y="-767.088" font-family="Helvetica,sans-Serif" font-size="10.00"> tmxFile_</text>
</g>
<!-- Node9 -->
<g id="node9" class="node"><title>Node9</title>
<g id="a_node9"><a xlink:href="class_urho3_d_1_1_tmx_file2_d.html" target="_top" xlink:title="Tile map file. ">
<polygon fill="none" stroke="black" points="545,-674.588 545,-693.588 649,-693.588 649,-674.588 545,-674.588"/>
<text text-anchor="middle" x="597" y="-681.588" font-family="Helvetica,sans-Serif" font-size="10.00">Urho3D::TmxFile2D</text>
</a>
</g>
</g>
<!-- Node9&#45;&gt;Node8 -->
<g id="edge9" class="edge"><title>Node9&#45;&gt;Node8</title>
<path fill="none" stroke="#9a32cd" stroke-dasharray="5,2" d="M631.937,-697.528C667.939,-711.787 724.684,-734.26 762.119,-749.086"/>
<polygon fill="#9a32cd" stroke="#9a32cd" points="632.952,-694.166 622.366,-693.738 630.375,-700.674 632.952,-694.166"/>
<text text-anchor="middle" x="695" y="-732.088" font-family="Helvetica,sans-Serif" font-size="10.00"> ptr_</text>
</g>
<!-- Node10 -->
<g id="node10" class="node"><title>Node10</title>
<g id="a_node10"><a xlink:href="class_urho3_d_1_1_resource.html" target="_top" xlink:title="Base class for resources. ">
<polygon fill="none" stroke="red" points="223,-391.588 223,-410.588 321,-410.588 321,-391.588 223,-391.588"/>
<text text-anchor="middle" x="272" y="-398.588" font-family="Helvetica,sans-Serif" font-size="10.00">Urho3D::Resource</text>
</a>
</g>
</g>
<!-- Node10&#45;&gt;Node9 -->
<g id="edge10" class="edge"><title>Node10&#45;&gt;Node9</title>
<path fill="none" stroke="midnightblue" d="M324.663,-389.803C378.955,-381.145 463.842,-377.116 518,-421.088 538.844,-438.011 583.488,-629.186 593.83,-674.499"/>
<polygon fill="midnightblue" stroke="midnightblue" points="323.834,-386.393 314.564,-391.523 325.009,-393.294 323.834,-386.393"/>
</g>
<!-- Node20 -->
<g id="node20" class="node"><title>Node20</title>
<g id="a_node20"><a xlink:href="class_urho3_d_1_1_sprite2_d.html" target="_top" xlink:title="Sprite. ">
<polygon fill="none" stroke="black" points="549.5,-203.588 549.5,-222.588 644.5,-222.588 644.5,-203.588 549.5,-203.588"/>
<text text-anchor="middle" x="597" y="-210.588" font-family="Helvetica,sans-Serif" font-size="10.00">Urho3D::Sprite2D</text>
</a>
</g>
</g>
<!-- Node10&#45;&gt;Node20 -->
<g id="edge24" class="edge"><title>Node10&#45;&gt;Node20</title>
<path fill="none" stroke="midnightblue" d="M331.312,-394.435C384.596,-385.835 463.203,-366.548 518,-324.088 555.049,-295.38 581.631,-244.231 591.632,-222.877"/>
<polygon fill="midnightblue" stroke="midnightblue" points="330.691,-390.989 321.339,-395.968 331.754,-397.908 330.691,-390.989"/>
</g>
<!-- Node11 -->
<g id="node11" class="node"><title>Node11</title>
<g id="a_node11"><a xlink:href="class_urho3_d_1_1_string.html" target="_top" xlink:title="String class. ">
<polygon fill="none" stroke="black" points="8,-391.588 8,-410.588 90,-410.588 90,-391.588 8,-391.588"/>
<text text-anchor="middle" x="49" y="-398.588" font-family="Helvetica,sans-Serif" font-size="10.00">Urho3D::String</text>
</a>
</g>
</g>
<!-- Node11&#45;&gt;Node1 -->
<g id="edge35" class="edge"><title>Node11&#45;&gt;Node1</title>
<path fill="none" stroke="#9a32cd" stroke-dasharray="5,2" d="M50.3424,-381.053C52.576,-317.607 68.5689,-119.513 180,-21.088 210.966,6.26413 229.683,-2.08804 271,-2.08804 271,-2.08804 271,-2.08804 1072,-2.08804 1137.28,-2.08804 1201.53,-57.4224 1225.33,-80.3343"/>
<polygon fill="#9a32cd" stroke="#9a32cd" points="46.8376,-381.187 50.0656,-391.278 53.835,-381.376 46.8376,-381.187"/>
<text text-anchor="middle" x="695" y="-5.08804" font-family="Helvetica,sans-Serif" font-size="10.00"> source_</text>
</g>
<!-- Node11&#45;&gt;Node2 -->
<g id="edge21" class="edge"><title>Node11&#45;&gt;Node2</title>
<path fill="none" stroke="#9a32cd" stroke-dasharray="5,2" d="M94.0048,-413.201C138.335,-424.324 208.878,-439.088 271,-439.088 271,-439.088 271,-439.088 802,-439.088 969.841,-439.088 1052.14,-700.285 1067.37,-754.361"/>
<polygon fill="#9a32cd" stroke="#9a32cd" points="94.6947,-409.765 84.1392,-410.677 92.9595,-416.547 94.6947,-409.765"/>
<text text-anchor="middle" x="597" y="-442.088" font-family="Helvetica,sans-Serif" font-size="10.00"> name_</text>
</g>
<!-- Node11&#45;&gt;Node10 -->
<g id="edge11" class="edge"><title>Node11&#45;&gt;Node10</title>
<path fill="none" stroke="#9a32cd" stroke-dasharray="5,2" d="M100.028,-401.088C136.796,-401.088 186.474,-401.088 222.804,-401.088"/>
<polygon fill="#9a32cd" stroke="#9a32cd" points="100.021,-397.588 90.0214,-401.088 100.021,-404.588 100.021,-397.588"/>
<text text-anchor="middle" x="139" y="-404.088" font-family="Helvetica,sans-Serif" font-size="10.00"> name_</text>
</g>
<!-- Node11&#45;&gt;Node11 -->
<g id="edge12" class="edge"><title>Node11&#45;&gt;Node11</title>
<path fill="none" stroke="#9a32cd" stroke-dasharray="5,2" d="M32.3341,-420.488C33.4472,-425.403 39.0024,-429.088 49,-429.088 64.9961,-429.088 69.62,-419.653 62.8716,-410.845"/>
<polygon fill="#9a32cd" stroke="#9a32cd" points="35.7068,-421.424 35.1284,-410.845 28.9834,-419.476 35.7068,-421.424"/>
<text text-anchor="middle" x="49" y="-432.088" font-family="Helvetica,sans-Serif" font-size="10.00"> EMPTY</text>
</g>
<!-- Node12 -->
<g id="node12" class="node"><title>Node12</title>
<g id="a_node12"><a xlink:href="class_urho3_d_1_1_hash_map.html" target="_top" xlink:title="Urho3D::HashMap\&lt; Urho3D\l::String, Urho3D::SharedPtr\l\&lt; Urho3D::XMLFile \&gt; \&gt;">
<polygon fill="none" stroke="red" points="201.5,-565.588 201.5,-606.588 342.5,-606.588 342.5,-565.588 201.5,-565.588"/>
<text text-anchor="start" x="209.5" y="-594.588" font-family="Helvetica,sans-Serif" font-size="10.00">Urho3D::HashMap&lt; Urho3D</text>
<text text-anchor="start" x="209.5" y="-583.588" font-family="Helvetica,sans-Serif" font-size="10.00">::String, Urho3D::SharedPtr</text>
<text text-anchor="middle" x="272" y="-572.588" font-family="Helvetica,sans-Serif" font-size="10.00">&lt; Urho3D::XMLFile &gt; &gt;</text>
</a>
</g>
</g>
<!-- Node12&#45;&gt;Node9 -->
<g id="edge13" class="edge"><title>Node12&#45;&gt;Node9</title>
<path fill="none" stroke="#9a32cd" stroke-dasharray="5,2" d="M352.539,-595.71C401.45,-603.306 464.74,-616.199 518,-637.088 542.58,-646.728 568.284,-663.792 583.185,-674.491"/>
<polygon fill="#9a32cd" stroke="#9a32cd" points="353.054,-592.248 342.643,-594.215 352.008,-599.17 353.054,-592.248"/>
<text text-anchor="middle" x="450" y="-640.088" font-family="Helvetica,sans-Serif" font-size="10.00"> tsxXMLFiles_</text>
</g>
<!-- Node13 -->
<g id="node13" class="node"><title>Node13</title>
<g id="a_node13"><a xlink:href="class_urho3_d_1_1_vector.html" target="_top" xlink:title="Urho3D::Vector\&lt; Urho3D\l::TmxLayer2D * \&gt;">
<polygon fill="none" stroke="red" points="208,-517.088 208,-547.088 336,-547.088 336,-517.088 208,-517.088"/>
<text text-anchor="start" x="216" y="-535.088" font-family="Helvetica,sans-Serif" font-size="10.00">Urho3D::Vector&lt; Urho3D</text>
<text text-anchor="middle" x="272" y="-524.088" font-family="Helvetica,sans-Serif" font-size="10.00">::TmxLayer2D * &gt;</text>
</a>
</g>
</g>
<!-- Node13&#45;&gt;Node9 -->
<g id="edge14" class="edge"><title>Node13&#45;&gt;Node9</title>
<path fill="none" stroke="#9a32cd" stroke-dasharray="5,2" d="M346.245,-535.835C397.631,-541.362 466.143,-554.779 518,-587.088 553.948,-609.485 580.573,-654.446 591.079,-674.292"/>
<polygon fill="#9a32cd" stroke="#9a32cd" points="346.505,-532.343 336.206,-534.831 345.809,-539.308 346.505,-532.343"/>
<text text-anchor="middle" x="450" y="-590.088" font-family="Helvetica,sans-Serif" font-size="10.00"> layers_</text>
</g>
<!-- Node14 -->
<g id="node14" class="node"><title>Node14</title>
<g id="a_node14"><a xlink:href="class_urho3_d_1_1_hash_map.html" target="_top" xlink:title="Urho3D::HashMap\&lt; unsigned,\l Urho3D::SharedPtr\&lt; Urho3D\l::PropertySet2D \&gt; \&gt;">
<polygon fill="none" stroke="red" points="197.5,-844.588 197.5,-885.588 346.5,-885.588 346.5,-844.588 197.5,-844.588"/>
<text text-anchor="start" x="205.5" y="-873.588" font-family="Helvetica,sans-Serif" font-size="10.00">Urho3D::HashMap&lt; unsigned,</text>
<text text-anchor="start" x="205.5" y="-862.588" font-family="Helvetica,sans-Serif" font-size="10.00"> Urho3D::SharedPtr&lt; Urho3D</text>
<text text-anchor="middle" x="272" y="-851.588" font-family="Helvetica,sans-Serif" font-size="10.00">::PropertySet2D &gt; &gt;</text>
</a>
</g>
</g>
<!-- Node14&#45;&gt;Node9 -->
<g id="edge15" class="edge"><title>Node14&#45;&gt;Node9</title>
<path fill="none" stroke="#9a32cd" stroke-dasharray="5,2" d="M356.461,-854.109C406.858,-844.276 470.334,-825.934 518,-792.088 555.528,-765.441 581.844,-714.961 591.703,-693.803"/>
<polygon fill="#9a32cd" stroke="#9a32cd" points="355.748,-850.682 346.564,-855.964 357.038,-857.562 355.748,-850.682"/>
<text text-anchor="middle" x="450" y="-851.088" font-family="Helvetica,sans-Serif" font-size="10.00"> gidToPropertySetMapping_</text>
</g>
<!-- Node15 -->
<g id="node15" class="node"><title>Node15</title>
<g id="a_node15"><a xlink:href="class_urho3_d_1_1_hash_map.html" target="_top" xlink:title="Urho3D::HashMap\&lt; unsigned,\l Urho3D::Vector\&lt; Urho3D\l::SharedPtr\&lt; Urho3D::TileMapObject2\lD \&gt; \&gt; \&gt;">
<polygon fill="none" stroke="red" points="180.5,-773.088 180.5,-825.088 363.5,-825.088 363.5,-773.088 180.5,-773.088"/>
<text text-anchor="start" x="188.5" y="-813.088" font-family="Helvetica,sans-Serif" font-size="10.00">Urho3D::HashMap&lt; unsigned,</text>
<text text-anchor="start" x="188.5" y="-802.088" font-family="Helvetica,sans-Serif" font-size="10.00"> Urho3D::Vector&lt; Urho3D</text>
<text text-anchor="start" x="188.5" y="-791.088" font-family="Helvetica,sans-Serif" font-size="10.00">::SharedPtr&lt; Urho3D::TileMapObject2</text>
<text text-anchor="middle" x="272" y="-780.088" font-family="Helvetica,sans-Serif" font-size="10.00">D &gt; &gt; &gt;</text>
</a>
</g>
</g>
<!-- Node15&#45;&gt;Node9 -->
<g id="edge16" class="edge"><title>Node15&#45;&gt;Node9</title>
<path fill="none" stroke="#9a32cd" stroke-dasharray="5,2" d="M373.542,-779.84C418.798,-769.311 472.222,-754.24 518,-734.088 542.88,-723.136 568.903,-704.854 583.718,-693.692"/>
<polygon fill="#9a32cd" stroke="#9a32cd" points="372.687,-776.445 363.718,-782.084 374.247,-783.269 372.687,-776.445"/>
<text text-anchor="middle" x="450" y="-780.088" font-family="Helvetica,sans-Serif" font-size="10.00"> gidToCollisionShapeMapping_</text>
</g>
<!-- Node16 -->
<g id="node16" class="node"><title>Node16</title>
<g id="a_node16"><a xlink:href="class_urho3_d_1_1_hash_map.html" target="_top" xlink:title="Urho3D::HashMap\&lt; unsigned,\l Urho3D::SharedPtr\&lt; Urho3D\l::Sprite2D \&gt; \&gt;">
<polygon fill="none" stroke="red" points="197.5,-712.588 197.5,-753.588 346.5,-753.588 346.5,-712.588 197.5,-712.588"/>
<text text-anchor="start" x="205.5" y="-741.588" font-family="Helvetica,sans-Serif" font-size="10.00">Urho3D::HashMap&lt; unsigned,</text>
<text text-anchor="start" x="205.5" y="-730.588" font-family="Helvetica,sans-Serif" font-size="10.00"> Urho3D::SharedPtr&lt; Urho3D</text>
<text text-anchor="middle" x="272" y="-719.588" font-family="Helvetica,sans-Serif" font-size="10.00">::Sprite2D &gt; &gt;</text>
</a>
</g>
</g>
<!-- Node16&#45;&gt;Node9 -->
<g id="edge17" class="edge"><title>Node16&#45;&gt;Node9</title>
<path fill="none" stroke="#9a32cd" stroke-dasharray="5,2" d="M356.508,-722.596C403.954,-716.36 464.405,-707.954 518,-699.088 527.932,-697.445 538.542,-695.519 548.635,-693.606"/>
<polygon fill="#9a32cd" stroke="#9a32cd" points="356.05,-719.126 346.588,-723.893 356.958,-726.067 356.05,-719.126"/>
<text text-anchor="middle" x="450" y="-722.088" font-family="Helvetica,sans-Serif" font-size="10.00"> gidToSpriteMapping_</text>
</g>
<!-- Node17 -->
<g id="node17" class="node"><title>Node17</title>
<g id="a_node17"><a xlink:href="struct_urho3_d_1_1_tile_map_info2_d.html" target="_top" xlink:title="Tile map information. ">
<polygon fill="none" stroke="black" points="212,-674.588 212,-693.588 332,-693.588 332,-674.588 212,-674.588"/>
<text text-anchor="middle" x="272" y="-681.588" font-family="Helvetica,sans-Serif" font-size="10.00">Urho3D::TileMapInfo2D</text>
</a>
</g>
</g>
<!-- Node17&#45;&gt;Node9 -->
<g id="edge18" class="edge"><title>Node17&#45;&gt;Node9</title>
<path fill="none" stroke="#9a32cd" stroke-dasharray="5,2" d="M342.523,-684.088C403.326,-684.088 490.222,-684.088 544.845,-684.088"/>
<polygon fill="#9a32cd" stroke="#9a32cd" points="342.243,-680.588 332.243,-684.088 342.243,-687.588 342.243,-680.588"/>
<text text-anchor="middle" x="450" y="-687.088" font-family="Helvetica,sans-Serif" font-size="10.00"> info_</text>
</g>
<!-- Node18 -->
<g id="node18" class="node"><title>Node18</title>
<g id="a_node18"><a xlink:href="class_urho3_d_1_1_shared_ptr.html" target="_top" xlink:title="Urho3D::SharedPtr\&lt;\l Urho3D::XMLFile \&gt;">
<polygon fill="none" stroke="red" points="219,-625.088 219,-655.088 325,-655.088 325,-625.088 219,-625.088"/>
<text text-anchor="start" x="227" y="-643.088" font-family="Helvetica,sans-Serif" font-size="10.00">Urho3D::SharedPtr&lt;</text>
<text text-anchor="middle" x="272" y="-632.088" font-family="Helvetica,sans-Serif" font-size="10.00"> Urho3D::XMLFile &gt;</text>
</a>
</g>
</g>
<!-- Node18&#45;&gt;Node9 -->
<g id="edge19" class="edge"><title>Node18&#45;&gt;Node9</title>
<path fill="none" stroke="#9a32cd" stroke-dasharray="5,2" d="M335.493,-646.228C385.103,-651.405 456.159,-659.495 518,-669.088 528.22,-670.673 539.147,-672.617 549.489,-674.574"/>
<polygon fill="#9a32cd" stroke="#9a32cd" points="335.551,-642.716 325.244,-645.168 334.83,-649.679 335.551,-642.716"/>
<text text-anchor="middle" x="450" y="-672.088" font-family="Helvetica,sans-Serif" font-size="10.00"> loadXMLFile_</text>
</g>
<!-- Node19 -->
<g id="node19" class="node"><title>Node19</title>
<g id="a_node19"><a xlink:href="class_urho3_d_1_1_shared_ptr.html" target="_top" xlink:title="Urho3D::SharedPtr\&lt;\l Urho3D::Sprite2D \&gt;">
<polygon fill="none" stroke="black" points="888.5,-116.088 888.5,-146.088 995.5,-146.088 995.5,-116.088 888.5,-116.088"/>
<text text-anchor="start" x="896.5" y="-134.088" font-family="Helvetica,sans-Serif" font-size="10.00">Urho3D::SharedPtr&lt;</text>
<text text-anchor="middle" x="942" y="-123.088" font-family="Helvetica,sans-Serif" font-size="10.00"> Urho3D::Sprite2D &gt;</text>
</a>
</g>
</g>
<!-- Node19&#45;&gt;Node1 -->
<g id="edge22" class="edge"><title>Node19&#45;&gt;Node1</title>
<path fill="none" stroke="#9a32cd" stroke-dasharray="5,2" d="M1005.7,-122.284C1053.23,-115.611 1118.45,-106.453 1167.18,-99.6101"/>
<polygon fill="#9a32cd" stroke="#9a32cd" points="1004.96,-118.854 995.541,-123.711 1005.93,-125.786 1004.96,-118.854"/>
<text text-anchor="middle" x="1071" y="-125.088" font-family="Helvetica,sans-Serif" font-size="10.00"> sprite_</text>
</g>
<!-- Node20&#45;&gt;Node19 -->
<g id="edge23" class="edge"><title>Node20&#45;&gt;Node19</title>
<path fill="none" stroke="#9a32cd" stroke-dasharray="5,2" d="M647.897,-201.159C712.04,-185.825 822.923,-159.316 888.364,-143.672"/>
<polygon fill="#9a32cd" stroke="#9a32cd" points="646.93,-197.792 638.018,-203.521 648.558,-204.6 646.93,-197.792"/>
<text text-anchor="middle" x="695" y="-197.088" font-family="Helvetica,sans-Serif" font-size="10.00"> ptr_</text>
</g>
<!-- Node21 -->
<g id="node21" class="node"><title>Node21</title>
<g id="a_node21"><a xlink:href="class_urho3_d_1_1_int_rect.html" target="_top" xlink:title="Two&#45;dimensional bounding rectangle with integer values. ">
<polygon fill="none" stroke="black" points="227.5,-324.588 227.5,-343.588 316.5,-343.588 316.5,-324.588 227.5,-324.588"/>
<text text-anchor="middle" x="272" y="-331.588" font-family="Helvetica,sans-Serif" font-size="10.00">Urho3D::IntRect</text>
</a>
</g>
</g>
<!-- Node21&#45;&gt;Node20 -->
<g id="edge25" class="edge"><title>Node21&#45;&gt;Node20</title>
<path fill="none" stroke="#9a32cd" stroke-dasharray="5,2" d="M326.36,-324.887C338.841,-322.203 351.993,-318.934 364,-315.088 446.545,-288.644 539.434,-242.497 577.865,-222.63"/>
<polygon fill="#9a32cd" stroke="#9a32cd" points="325.616,-321.467 316.529,-326.915 327.03,-328.323 325.616,-321.467"/>
<text text-anchor="middle" x="450" y="-312.088" font-family="Helvetica,sans-Serif" font-size="10.00"> rectangle_</text>
</g>
<!-- Node21&#45;&gt;Node21 -->
<g id="edge26" class="edge"><title>Node21&#45;&gt;Node21</title>
<path fill="none" stroke="#9a32cd" stroke-dasharray="5,2" d="M247.447,-353.117C248.786,-358.216 256.97,-362.088 272,-362.088 295.461,-362.088 302.243,-352.653 292.345,-343.845"/>
<polygon fill="#9a32cd" stroke="#9a32cd" points="250.709,-354.398 251.655,-343.845 244.335,-351.504 250.709,-354.398"/>
<text text-anchor="middle" x="272" y="-365.088" font-family="Helvetica,sans-Serif" font-size="10.00"> ZERO</text>
</g>
<!-- Node22 -->
<g id="node22" class="node"><title>Node22</title>
<g id="a_node22"><a xlink:href="class_urho3_d_1_1_vector2.html" target="_top" xlink:title="Two&#45;dimensional vector. ">
<polygon fill="none" stroke="black" points="227,-30.588 227,-49.588 317,-49.588 317,-30.588 227,-30.588"/>
<text text-anchor="middle" x="272" y="-37.588" font-family="Helvetica,sans-Serif" font-size="10.00">Urho3D::Vector2</text>
</a>
</g>
</g>
<!-- Node22&#45;&gt;Node1 -->
<g id="edge34" class="edge"><title>Node22&#45;&gt;Node1</title>
<path fill="none" stroke="#9a32cd" stroke-dasharray="5,2" d="M327.364,-45.7846C391.499,-52.0035 501.381,-61.088 596,-61.088 596,-61.088 596,-61.088 1072,-61.088 1117.27,-61.088 1168.53,-72.0649 1201.28,-80.512"/>
<polygon fill="#9a32cd" stroke="#9a32cd" points="327.383,-42.2697 317.088,-44.7747 326.698,-49.2361 327.383,-42.2697"/>
<text text-anchor="middle" x="801" y="-64.088" font-family="Helvetica,sans-Serif" font-size="10.00"> position_</text>
</g>
<!-- Node22&#45;&gt;Node20 -->
<g id="edge27" class="edge"><title>Node22&#45;&gt;Node20</title>
<path fill="none" stroke="#9a32cd" stroke-dasharray="5,2" d="M306.385,-53.517C354.506,-73.3975 445.538,-112.983 518,-156.088 542.793,-170.837 569.481,-191.498 584.325,-203.468"/>
<polygon fill="#9a32cd" stroke="#9a32cd" points="307.651,-50.2532 297.071,-49.694 304.993,-56.7289 307.651,-50.2532"/>
<text text-anchor="middle" x="450" y="-159.088" font-family="Helvetica,sans-Serif" font-size="10.00"> hotSpot_</text>
</g>
<!-- Node22&#45;&gt;Node22 -->
<g id="edge28" class="edge"><title>Node22&#45;&gt;Node22</title>
<path fill="none" stroke="#9a32cd" stroke-dasharray="5,2" d="M247.447,-59.1172C248.786,-64.216 256.97,-68.088 272,-68.088 295.461,-68.088 302.243,-58.6533 292.345,-49.8451"/>
<polygon fill="#9a32cd" stroke="#9a32cd" points="250.709,-60.3976 251.655,-49.8451 244.335,-57.5045 250.709,-60.3976"/>
<text text-anchor="middle" x="272" y="-126.088" font-family="Helvetica,sans-Serif" font-size="10.00"> ONE</text>
<text text-anchor="middle" x="272" y="-115.088" font-family="Helvetica,sans-Serif" font-size="10.00">DOWN</text>
<text text-anchor="middle" x="272" y="-104.088" font-family="Helvetica,sans-Serif" font-size="10.00">RIGHT</text>
<text text-anchor="middle" x="272" y="-93.088" font-family="Helvetica,sans-Serif" font-size="10.00">LEFT</text>
<text text-anchor="middle" x="272" y="-82.088" font-family="Helvetica,sans-Serif" font-size="10.00">ZERO</text>
<text text-anchor="middle" x="272" y="-71.088" font-family="Helvetica,sans-Serif" font-size="10.00">UP</text>
</g>
<!-- Node23&#45;&gt;Node20 -->
<g id="edge29" class="edge"><title>Node23&#45;&gt;Node20</title>
<path fill="none" stroke="#9a32cd" stroke-dasharray="5,2" d="M340.116,-464.944C393.788,-447.556 468.067,-416.673 518,-368.088 562.909,-324.391 586.333,-249.378 593.538,-222.784"/>
<polygon fill="#9a32cd" stroke="#9a32cd" points="338.823,-461.682 330.344,-468.035 340.934,-468.356 338.823,-461.682"/>
<text text-anchor="middle" x="450" y="-451.088" font-family="Helvetica,sans-Serif" font-size="10.00"> spriteSheet_</text>
</g>
<!-- Node24 -->
<g id="node24" class="node"><title>Node24</title>
<g id="a_node24"><a xlink:href="class_urho3_d_1_1_int_vector2.html" target="_top" xlink:title="Two&#45;dimensional vector with integer values. ">
<polygon fill="none" stroke="black" points="221.5,-202.588 221.5,-221.588 322.5,-221.588 322.5,-202.588 221.5,-202.588"/>
<text text-anchor="middle" x="272" y="-209.588" font-family="Helvetica,sans-Serif" font-size="10.00">Urho3D::IntVector2</text>
</a>
</g>
</g>
<!-- Node24&#45;&gt;Node20 -->
<g id="edge31" class="edge"><title>Node24&#45;&gt;Node20</title>
<path fill="none" stroke="#9a32cd" stroke-dasharray="5,2" d="M332.875,-212.273C395.421,-212.467 492.22,-212.767 549.331,-212.944"/>
<polygon fill="#9a32cd" stroke="#9a32cd" points="332.772,-208.773 322.761,-212.242 332.75,-215.773 332.772,-208.773"/>
<text text-anchor="middle" x="450" y="-216.088" font-family="Helvetica,sans-Serif" font-size="10.00"> offset_</text>
</g>
<!-- Node24&#45;&gt;Node24 -->
<g id="edge32" class="edge"><title>Node24&#45;&gt;Node24</title>
<path fill="none" stroke="#9a32cd" stroke-dasharray="5,2" d="M247.447,-231.117C248.786,-236.216 256.97,-240.088 272,-240.088 295.461,-240.088 302.243,-230.653 292.345,-221.845"/>
<polygon fill="#9a32cd" stroke="#9a32cd" points="250.709,-232.398 251.655,-221.845 244.335,-229.504 250.709,-232.398"/>
<text text-anchor="middle" x="272" y="-298.088" font-family="Helvetica,sans-Serif" font-size="10.00"> ONE</text>
<text text-anchor="middle" x="272" y="-287.088" font-family="Helvetica,sans-Serif" font-size="10.00">DOWN</text>
<text text-anchor="middle" x="272" y="-276.088" font-family="Helvetica,sans-Serif" font-size="10.00">RIGHT</text>
<text text-anchor="middle" x="272" y="-265.088" font-family="Helvetica,sans-Serif" font-size="10.00">LEFT</text>
<text text-anchor="middle" x="272" y="-254.088" font-family="Helvetica,sans-Serif" font-size="10.00">ZERO</text>
<text text-anchor="middle" x="272" y="-243.088" font-family="Helvetica,sans-Serif" font-size="10.00">UP</text>
</g>
<!-- Node25 -->
<g id="node25" class="node"><title>Node25</title>
<g id="a_node25"><a xlink:href="class_urho3_d_1_1_shared_ptr.html" target="_top" xlink:title="Urho3D::SharedPtr\&lt;\l Urho3D::Texture2D \&gt;">
<polygon fill="none" stroke="red" points="215,-153.088 215,-183.088 329,-183.088 329,-153.088 215,-153.088"/>
<text text-anchor="start" x="223" y="-171.088" font-family="Helvetica,sans-Serif" font-size="10.00">Urho3D::SharedPtr&lt;</text>
<text text-anchor="middle" x="272" y="-160.088" font-family="Helvetica,sans-Serif" font-size="10.00"> Urho3D::Texture2D &gt;</text>
</a>
</g>
</g>
<!-- Node25&#45;&gt;Node20 -->
<g id="edge33" class="edge"><title>Node25&#45;&gt;Node20</title>
<path fill="none" stroke="#9a32cd" stroke-dasharray="5,2" d="M339.767,-168.878C389.373,-170.522 458.466,-175.046 518,-187.088 536.748,-190.88 557.24,-197.826 572.514,-203.585"/>
<polygon fill="#9a32cd" stroke="#9a32cd" points="339.589,-165.371 329.488,-168.569 339.379,-172.368 339.589,-165.371"/>
<text text-anchor="middle" x="450" y="-201.088" font-family="Helvetica,sans-Serif" font-size="10.00"> loadTexture_</text>
<text text-anchor="middle" x="450" y="-190.088" font-family="Helvetica,sans-Serif" font-size="10.00">texture_</text>
</g>
</g>
</svg>
