<?xml version="1.0" encoding="UTF-8" standalone="no"?>
<!DOCTYPE svg PUBLIC "-//W3C//DTD SVG 1.1//EN"
 "http://www.w3.org/Graphics/SVG/1.1/DTD/svg11.dtd">
<!-- Generated by graphviz version 2.26.3 (20100126.1600)
 -->
<!-- Title: Urho3D::TerrainPatch Pages: 1 -->
<svg width="1416pt" height="801pt"
 viewBox="0.00 0.00 1416.00 801.00" xmlns="http://www.w3.org/2000/svg" xmlns:xlink="http://www.w3.org/1999/xlink">
<g id="graph1" class="graph" transform="scale(1 1) rotate(0) translate(4 797)">
<title>Urho3D::TerrainPatch</title>
<!-- Node1 -->
<g id="node1" class="node"><title>Node1</title>
<polygon fill="#bfbfbf" stroke="black" points="1072.5,-291.5 1072.5,-312.5 1189.5,-312.5 1189.5,-291.5 1072.5,-291.5"/>
<text text-anchor="middle" x="1131" y="-299.5" font-family="FreeSans" font-size="10.00">Urho3D::TerrainPatch</text>
</g>
<!-- Node20 -->
<g id="node53" class="node"><title>Node20</title>
<a xlink:href="class_urho3_d_1_1_weak_ptr.html" target="_top" xlink:title="Urho3D::WeakPtr\&lt; Urho3D\l::TerrainPatch \&gt;">
<polygon fill="none" stroke="black" points="1262,-249 1262,-283 1408,-283 1408,-249 1262,-249"/>
<text text-anchor="start" x="1270" y="-270" font-family="FreeSans" font-size="10.00">Urho3D::WeakPtr&lt; Urho3D</text>
<text text-anchor="middle" x="1335" y="-257" font-family="FreeSans" font-size="10.00">::TerrainPatch &gt;</text>
</a>
</g>
<!-- Node1&#45;&gt;Node20 -->
<g id="edge70" class="edge"><title>Node1&#45;&gt;Node20</title>
<path fill="none" stroke="#9a32cd" stroke-dasharray="5,2" d="M1156.19,-286.341C1170.74,-278.226 1189.73,-269.161 1208,-265 1225.2,-261.082 1244.05,-259.711 1261.84,-259.677"/>
<polygon fill="#9a32cd" stroke="#9a32cd" points="1154.23,-283.436 1147.32,-291.475 1157.73,-289.493 1154.23,-283.436"/>
<text text-anchor="middle" x="1226" y="-269" font-family="FreeSans" font-size="10.00"> ptr_</text>
</g>
<!-- Node2 -->
<g id="node2" class="node"><title>Node2</title>
<a xlink:href="class_urho3_d_1_1_drawable.html" target="_top" xlink:title="Base class for visible components.">
<polygon fill="none" stroke="black" points="815,-495.5 815,-516.5 919,-516.5 919,-495.5 815,-495.5"/>
<text text-anchor="middle" x="867" y="-503.5" font-family="FreeSans" font-size="10.00">Urho3D::Drawable</text>
</a>
</g>
<!-- Node2&#45;&gt;Node1 -->
<g id="edge2" class="edge"><title>Node2&#45;&gt;Node1</title>
<path fill="none" stroke="midnightblue" d="M928.977,-495.796C968.368,-486.691 1018.45,-469.974 1054,-440 1096.58,-404.096 1120.05,-338.359 1127.94,-312.679"/>
<polygon fill="midnightblue" stroke="midnightblue" points="928.219,-492.379 919.207,-497.951 929.727,-499.215 928.219,-492.379"/>
</g>
<!-- Node6 -->
<g id="node12" class="node"><title>Node6</title>
<a xlink:href="class_urho3_d_1_1_zone.html" target="_top" xlink:title="Component that describes global rendering properties.">
<polygon fill="none" stroke="red" points="528.5,-380.5 528.5,-401.5 613.5,-401.5 613.5,-380.5 528.5,-380.5"/>
<text text-anchor="middle" x="571" y="-388.5" font-family="FreeSans" font-size="10.00">Urho3D::Zone</text>
</a>
</g>
<!-- Node2&#45;&gt;Node6 -->
<g id="edge16" class="edge"><title>Node2&#45;&gt;Node6</title>
<path fill="none" stroke="midnightblue" d="M845.141,-489.088C830.959,-477.302 812.804,-460.589 800,-443 789.001,-427.892 797.452,-415.511 782,-405 732.217,-371.136 659.624,-374.915 613.877,-382.004"/>
<polygon fill="midnightblue" stroke="midnightblue" points="842.99,-491.85 852.962,-495.428 847.398,-486.412 842.99,-491.85"/>
</g>
<!-- Node15 -->
<g id="node34" class="node"><title>Node15</title>
<a xlink:href="class_urho3_d_1_1_light.html" target="_top" xlink:title="Light component.">
<polygon fill="none" stroke="red" points="1089.5,-528.5 1089.5,-549.5 1172.5,-549.5 1172.5,-528.5 1089.5,-528.5"/>
<text text-anchor="middle" x="1131" y="-536.5" font-family="FreeSans" font-size="10.00">Urho3D::Light</text>
</a>
</g>
<!-- Node2&#45;&gt;Node15 -->
<g id="edge42" class="edge"><title>Node2&#45;&gt;Node15</title>
<path fill="none" stroke="midnightblue" d="M929.273,-508.054C965.788,-509.907 1012.71,-513.408 1054,-520 1067.05,-522.084 1081.14,-525.277 1093.66,-528.454"/>
<polygon fill="midnightblue" stroke="midnightblue" points="929.42,-504.557 919.264,-507.574 929.085,-511.549 929.42,-504.557"/>
</g>
<!-- Node3 -->
<g id="node4" class="node"><title>Node3</title>
<a xlink:href="class_urho3_d_1_1_component.html" target="_top" xlink:title="Base class for components. Components can be created to scene nodes.">
<polygon fill="none" stroke="black" points="513,-251.5 513,-272.5 629,-272.5 629,-251.5 513,-251.5"/>
<text text-anchor="middle" x="571" y="-259.5" font-family="FreeSans" font-size="10.00">Urho3D::Component</text>
</a>
</g>
<!-- Node3&#45;&gt;Node2 -->
<g id="edge4" class="edge"><title>Node3&#45;&gt;Node2</title>
<path fill="none" stroke="midnightblue" d="M636.81,-277.044C639.33,-278.542 641.741,-280.189 644,-282 657.342,-292.693 648.663,-305.3 662,-316 705.144,-350.614 744.466,-308.37 782,-349 810.864,-380.245 779.507,-405.725 800,-443 812.231,-465.246 835.114,-484.161 850.7,-495.301"/>
<polygon fill="midnightblue" stroke="midnightblue" points="638.385,-273.918 627.885,-272.502 635.21,-280.157 638.385,-273.918"/>
</g>
<!-- Node18 -->
<g id="node45" class="node"><title>Node18</title>
<a xlink:href="class_urho3_d_1_1_terrain.html" target="_top" xlink:title="Heightmap terrain component.">
<polygon fill="none" stroke="red" points="821.5,-141.5 821.5,-162.5 912.5,-162.5 912.5,-141.5 821.5,-141.5"/>
<text text-anchor="middle" x="867" y="-149.5" font-family="FreeSans" font-size="10.00">Urho3D::Terrain</text>
</a>
</g>
<!-- Node3&#45;&gt;Node18 -->
<g id="edge58" class="edge"><title>Node3&#45;&gt;Node18</title>
<path fill="none" stroke="midnightblue" d="M639.05,-259.251C681.817,-255.344 737.176,-246.19 782,-225 814.183,-209.786 843.789,-179.02 858.057,-162.711"/>
<polygon fill="midnightblue" stroke="midnightblue" points="638.692,-255.769 629.02,-260.094 639.277,-262.745 638.692,-255.769"/>
</g>
<!-- Node4 -->
<g id="node6" class="node"><title>Node4</title>
<a xlink:href="class_urho3_d_1_1_animatable.html" target="_top" xlink:title="Base class for animatable object, an animatable object can be set animation on it&#39;s attributes...">
<polygon fill="none" stroke="red" points="0,-217.5 0,-238.5 114,-238.5 114,-217.5 0,-217.5"/>
<text text-anchor="middle" x="57" y="-225.5" font-family="FreeSans" font-size="10.00">Urho3D::Animatable</text>
</a>
</g>
<!-- Node4&#45;&gt;Node3 -->
<g id="edge6" class="edge"><title>Node4&#45;&gt;Node3</title>
<path fill="none" stroke="midnightblue" d="M124.338,-237.172C126.924,-237.463 129.485,-237.74 132,-238 162.143,-241.115 169.755,-241.114 200,-243 310.554,-249.895 439.756,-256.09 512.823,-259.421"/>
<polygon fill="midnightblue" stroke="midnightblue" points="124.626,-233.682 114.287,-235.993 123.811,-240.634 124.626,-233.682"/>
</g>
<!-- Node5 -->
<g id="node8" class="node"><title>Node5</title>
<a xlink:href="class_urho3_d_1_1_node.html" target="_top" xlink:title="Scene node that may contain components and child nodes.">
<polygon fill="none" stroke="red" points="230.5,-181.5 230.5,-202.5 315.5,-202.5 315.5,-181.5 230.5,-181.5"/>
<text text-anchor="middle" x="273" y="-189.5" font-family="FreeSans" font-size="10.00">Urho3D::Node</text>
</a>
</g>
<!-- Node4&#45;&gt;Node5 -->
<g id="edge10" class="edge"><title>Node4&#45;&gt;Node5</title>
<path fill="none" stroke="midnightblue" d="M102.174,-214.801C111.948,-212.27 122.271,-209.839 132,-208 164.801,-201.801 202.381,-197.681 230.492,-195.177"/>
<polygon fill="midnightblue" stroke="midnightblue" points="100.993,-211.494 92.2346,-217.455 102.799,-218.257 100.993,-211.494"/>
</g>
<!-- Node5&#45;&gt;Node3 -->
<g id="edge8" class="edge"><title>Node5&#45;&gt;Node3</title>
<path fill="none" stroke="#9a32cd" stroke-dasharray="5,2" d="M325.583,-200.434C367.782,-207.796 428.303,-219.694 480,-235 488.23,-237.437 489.85,-239.307 498,-242 508.106,-245.34 519.126,-248.568 529.468,-251.422"/>
<polygon fill="#9a32cd" stroke="#9a32cd" points="325.982,-196.951 315.533,-198.706 324.796,-203.85 325.982,-196.951"/>
<text text-anchor="middle" x="422" y="-239" font-family="FreeSans" font-size="10.00"> node_</text>
</g>
<!-- Node5&#45;&gt;Node5 -->
<g id="edge12" class="edge"><title>Node5&#45;&gt;Node5</title>
<path fill="none" stroke="#9a32cd" stroke-dasharray="5,2" d="M251.622,-212.427C253.272,-217.349 260.397,-221 273,-221 293.164,-221 299.308,-211.653 291.431,-202.708"/>
<polygon fill="#9a32cd" stroke="#9a32cd" points="255.017,-213.293 254.569,-202.708 248.318,-211.262 255.017,-213.293"/>
<text text-anchor="middle" x="273" y="-225" font-family="FreeSans" font-size="10.00"> parent_</text>
</g>
<!-- Node6&#45;&gt;Node2 -->
<g id="edge14" class="edge"><title>Node6&#45;&gt;Node2</title>
<path fill="none" stroke="#9a32cd" stroke-dasharray="5,2" d="M623.953,-397.554C684.184,-405.155 775.144,-417.137 782,-421 793.006,-427.202 791.38,-433.764 800,-443 818.085,-462.376 840.887,-483.113 854.685,-495.3"/>
<polygon fill="#9a32cd" stroke="#9a32cd" points="624.189,-394.057 613.83,-396.282 623.315,-401.002 624.189,-394.057"/>
<text text-anchor="middle" x="722" y="-425" font-family="FreeSans" font-size="10.00"> zone_</text>
</g>
<!-- Node7 -->
<g id="node15" class="node"><title>Node7</title>
<a xlink:href="class_urho3_d_1_1_weak_ptr.html" target="_top" xlink:title="Urho3D::WeakPtr\&lt; Urho3D\l::Zone \&gt;">
<polygon fill="none" stroke="black" points="200,-290 200,-324 346,-324 346,-290 200,-290"/>
<text text-anchor="start" x="208" y="-311" font-family="FreeSans" font-size="10.00">Urho3D::WeakPtr&lt; Urho3D</text>
<text text-anchor="middle" x="273" y="-298" font-family="FreeSans" font-size="10.00">::Zone &gt;</text>
</a>
</g>
<!-- Node6&#45;&gt;Node7 -->
<g id="edge20" class="edge"><title>Node6&#45;&gt;Node7</title>
<path fill="none" stroke="#9a32cd" stroke-dasharray="5,2" d="M518.143,-380.077C476.032,-370.933 415.761,-356.858 364,-341 348.036,-336.109 330.81,-329.916 315.685,-324.16"/>
<polygon fill="#9a32cd" stroke="#9a32cd" points="517.662,-383.553 528.175,-382.236 519.135,-376.71 517.662,-383.553"/>
<text text-anchor="middle" x="422" y="-374" font-family="FreeSans" font-size="10.00"> ptr_</text>
</g>
<!-- Node7&#45;&gt;Node6 -->
<g id="edge18" class="edge"><title>Node7&#45;&gt;Node6</title>
<path fill="none" stroke="#9a32cd" stroke-dasharray="5,2" d="M331.128,-287.42C376.362,-276.113 438.259,-269.751 480,-302 505.08,-321.377 475.727,-348.453 498,-371 506.127,-379.227 517.292,-384.161 528.447,-387.094"/>
<polygon fill="#9a32cd" stroke="#9a32cd" points="330.229,-284.037 321.454,-289.975 332.017,-290.805 330.229,-284.037"/>
<text text-anchor="start" x="365.5" y="-332" font-family="FreeSans" font-size="10.00"> lastAmbientEndZone</text>
<text text-anchor="middle" x="422" y="-319" font-family="FreeSans" font-size="10.00">_</text>
<text text-anchor="middle" x="422" y="-306" font-family="FreeSans" font-size="10.00">lastAmbientStartZone_</text>
</g>
<!-- Node8 -->
<g id="node18" class="node"><title>Node8</title>
<a xlink:href="struct_urho3_d_1_1_ref_count.html" target="_top" xlink:title="Reference count structure.">
<polygon fill="none" stroke="black" points="6,-68.5 6,-89.5 108,-89.5 108,-68.5 6,-68.5"/>
<text text-anchor="middle" x="57" y="-76.5" font-family="FreeSans" font-size="10.00">Urho3D::RefCount</text>
</a>
</g>
<!-- Node8&#45;&gt;Node7 -->
<g id="edge22" class="edge"><title>Node8&#45;&gt;Node7</title>
<path fill="none" stroke="#9a32cd" stroke-dasharray="5,2" d="M71.9086,-97.6849C97.1101,-128.895 150.258,-193.124 200,-243 216.663,-259.708 236.933,-277.282 251.881,-289.778"/>
<polygon fill="#9a32cd" stroke="#9a32cd" points="74.5609,-95.3979 65.5677,-89.7968 69.1052,-99.7837 74.5609,-95.3979"/>
<text text-anchor="middle" x="157" y="-225" font-family="FreeSans" font-size="10.00"> refCount_</text>
</g>
<!-- Node17 -->
<g id="node43" class="node"><title>Node17</title>
<a xlink:href="class_urho3_d_1_1_weak_ptr.html" target="_top" xlink:title="Urho3D::WeakPtr\&lt; Urho3D\l::Terrain \&gt;">
<polygon fill="none" stroke="black" points="498,-62 498,-96 644,-96 644,-62 498,-62"/>
<text text-anchor="start" x="506" y="-83" font-family="FreeSans" font-size="10.00">Urho3D::WeakPtr&lt; Urho3D</text>
<text text-anchor="middle" x="571" y="-70" font-family="FreeSans" font-size="10.00">::Terrain &gt;</text>
</a>
</g>
<!-- Node8&#45;&gt;Node17 -->
<g id="edge66" class="edge"><title>Node8&#45;&gt;Node17</title>
<path fill="none" stroke="#9a32cd" stroke-dasharray="5,2" d="M118.197,-79C213.258,-79 396.037,-79 497.894,-79"/>
<polygon fill="#9a32cd" stroke="#9a32cd" points="118.163,-75.5001 108.163,-79 118.163,-82.5001 118.163,-75.5001"/>
<text text-anchor="middle" x="273" y="-83" font-family="FreeSans" font-size="10.00"> refCount_</text>
</g>
<!-- Node8&#45;&gt;Node20 -->
<g id="edge72" class="edge"><title>Node8&#45;&gt;Node20</title>
<path fill="none" stroke="#9a32cd" stroke-dasharray="5,2" d="M82.2491,-63.1571C121.486,-40.0956 200.177,-0 273,-0 273,-0 273,-0 1131,-0 1257,-0 1315.79,-190.247 1330.93,-248.956"/>
<polygon fill="#9a32cd" stroke="#9a32cd" points="80.3726,-60.2013 73.5963,-68.3457 83.9725,-66.2047 80.3726,-60.2013"/>
<text text-anchor="middle" x="722" y="-4" font-family="FreeSans" font-size="10.00"> refCount_</text>
</g>
<!-- Node9 -->
<g id="node20" class="node"><title>Node9</title>
<a xlink:href="class_urho3_d_1_1_shared_ptr.html" target="_top" xlink:title="Urho3D::SharedPtr\&lt;\l Urho3D::Texture \&gt;">
<polygon fill="none" stroke="red" points="215,-721 215,-755 331,-755 331,-721 215,-721"/>
<text text-anchor="start" x="223" y="-742" font-family="FreeSans" font-size="10.00">Urho3D::SharedPtr&lt;</text>
<text text-anchor="middle" x="273" y="-729" font-family="FreeSans" font-size="10.00"> Urho3D::Texture &gt;</text>
</a>
</g>
<!-- Node9&#45;&gt;Node6 -->
<g id="edge24" class="edge"><title>Node9&#45;&gt;Node6</title>
<path fill="none" stroke="#9a32cd" stroke-dasharray="5,2" d="M299.316,-713.849C313.636,-700.27 331.363,-682.729 346,-666 411.204,-591.476 429.187,-572.991 480,-488 489.796,-471.615 486.206,-464.012 498,-449 513.6,-429.143 537.295,-411.949 553.426,-401.546"/>
<polygon fill="#9a32cd" stroke="#9a32cd" points="296.644,-711.557 291.752,-720.955 301.437,-716.659 296.644,-711.557"/>
<text text-anchor="middle" x="422" y="-649" font-family="FreeSans" font-size="10.00"> zoneTexture_</text>
</g>
<!-- Node9&#45;&gt;Node15 -->
<g id="edge44" class="edge"><title>Node9&#45;&gt;Node15</title>
<path fill="none" stroke="#9a32cd" stroke-dasharray="5,2" d="M340.912,-751.495C440.176,-768.44 629.638,-790.191 782,-745 927.362,-701.885 1075.3,-585.382 1118.47,-549.599"/>
<polygon fill="#9a32cd" stroke="#9a32cd" points="341.462,-748.038 331.009,-749.769 340.26,-754.934 341.462,-748.038"/>
<text text-anchor="middle" x="722" y="-784" font-family="FreeSans" font-size="10.00"> shapeTexture_</text>
<text text-anchor="middle" x="722" y="-771" font-family="FreeSans" font-size="10.00">rampTexture_</text>
</g>
<!-- Node10 -->
<g id="node22" class="node"><title>Node10</title>
<a xlink:href="class_urho3_d_1_1_bounding_box.html" target="_top" xlink:title="Three&#45;dimensional axis&#45;aligned bounding box.">
<polygon fill="none" stroke="red" points="212,-424.5 212,-445.5 334,-445.5 334,-424.5 212,-424.5"/>
<text text-anchor="middle" x="273" y="-432.5" font-family="FreeSans" font-size="10.00">Urho3D::BoundingBox</text>
</a>
</g>
<!-- Node10&#45;&gt;Node2 -->
<g id="edge46" class="edge"><title>Node10&#45;&gt;Node2</title>
<path fill="none" stroke="#9a32cd" stroke-dasharray="5,2" d="M297.567,-451.151C315.477,-462.462 340.604,-477.392 364,-488 421.217,-513.943 435.998,-522.867 498,-533 612.424,-551.7 748.935,-530.607 819.503,-516.54"/>
<polygon fill="#9a32cd" stroke="#9a32cd" points="299.215,-448.051 288.906,-445.608 295.442,-453.946 299.215,-448.051"/>
<text text-anchor="middle" x="571" y="-557" font-family="FreeSans" font-size="10.00"> worldBoundingBox_</text>
<text text-anchor="middle" x="571" y="-544" font-family="FreeSans" font-size="10.00">boundingBox_</text>
</g>
<!-- Node10&#45;&gt;Node6 -->
<g id="edge26" class="edge"><title>Node10&#45;&gt;Node6</title>
<path fill="none" stroke="#9a32cd" stroke-dasharray="5,2" d="M344.116,-424.5C401.494,-416.028 480.308,-404.391 528.339,-397.299"/>
<polygon fill="#9a32cd" stroke="#9a32cd" points="343.405,-421.067 334.024,-425.99 344.428,-427.991 343.405,-421.067"/>
<text text-anchor="middle" x="422" y="-424" font-family="FreeSans" font-size="10.00"> lastWorldBoundingBox_</text>
</g>
<!-- Node16 -->
<g id="node39" class="node"><title>Node16</title>
<a xlink:href="class_urho3_d_1_1_octant.html" target="_top" xlink:title="Octree octant">
<polygon fill="none" stroke="red" points="525,-458.5 525,-479.5 617,-479.5 617,-458.5 525,-458.5"/>
<text text-anchor="middle" x="571" y="-466.5" font-family="FreeSans" font-size="10.00">Urho3D::Octant</text>
</a>
</g>
<!-- Node10&#45;&gt;Node16 -->
<g id="edge50" class="edge"><title>Node10&#45;&gt;Node16</title>
<path fill="none" stroke="#9a32cd" stroke-dasharray="5,2" d="M344.221,-443.126C400.159,-449.508 476.42,-458.209 524.688,-463.716"/>
<polygon fill="#9a32cd" stroke="#9a32cd" points="344.356,-439.619 334.024,-441.962 343.563,-446.574 344.356,-439.619"/>
<text text-anchor="middle" x="422" y="-475" font-family="FreeSans" font-size="10.00"> cullingBox_</text>
<text text-anchor="middle" x="422" y="-462" font-family="FreeSans" font-size="10.00">worldBoundingBox_</text>
</g>
<!-- Node11 -->
<g id="node24" class="node"><title>Node11</title>
<a xlink:href="class_urho3_d_1_1_p_o_d_vector.html" target="_top" xlink:title="Urho3D::PODVector\&lt;\l Urho3D::Light * \&gt;">
<polygon fill="none" stroke="black" points="511.5,-708 511.5,-742 630.5,-742 630.5,-708 511.5,-708"/>
<text text-anchor="start" x="519.5" y="-729" font-family="FreeSans" font-size="10.00">Urho3D::PODVector&lt;</text>
<text text-anchor="middle" x="571" y="-716" font-family="FreeSans" font-size="10.00"> Urho3D::Light * &gt;</text>
</a>
</g>
<!-- Node11&#45;&gt;Node2 -->
<g id="edge28" class="edge"><title>Node11&#45;&gt;Node2</title>
<path fill="none" stroke="#9a32cd" stroke-dasharray="5,2" d="M640.604,-718.255C693.297,-711.923 760.201,-700.87 782,-684 838.874,-639.987 859.637,-548.404 865.262,-516.913"/>
<polygon fill="#9a32cd" stroke="#9a32cd" points="640.136,-714.785 630.609,-719.42 640.947,-721.738 640.136,-714.785"/>
<text text-anchor="middle" x="722" y="-732" font-family="FreeSans" font-size="10.00"> vertexLights_</text>
<text text-anchor="middle" x="722" y="-719" font-family="FreeSans" font-size="10.00">lights_</text>
</g>
<!-- Node12 -->
<g id="node26" class="node"><title>Node12</title>
<a xlink:href="class_urho3_d_1_1_vector_base.html" target="_top" xlink:title="Vector base class.">
<polygon fill="none" stroke="black" points="216,-635.5 216,-656.5 330,-656.5 330,-635.5 216,-635.5"/>
<text text-anchor="middle" x="273" y="-643.5" font-family="FreeSans" font-size="10.00">Urho3D::VectorBase</text>
</a>
</g>
<!-- Node12&#45;&gt;Node11 -->
<g id="edge30" class="edge"><title>Node12&#45;&gt;Node11</title>
<path fill="none" stroke="midnightblue" d="M317.384,-659.578C332.173,-663.993 348.761,-668.827 364,-673 413.498,-686.554 470.026,-700.662 511.489,-710.758"/>
<polygon fill="midnightblue" stroke="midnightblue" points="318.055,-656.125 307.471,-656.602 316.042,-662.83 318.055,-656.125"/>
</g>
<!-- Node13 -->
<g id="node28" class="node"><title>Node13</title>
<a xlink:href="class_urho3_d_1_1_p_o_d_vector.html" target="_top" xlink:title="Urho3D::PODVector\&lt;\l Urho3D::Camera * \&gt;">
<polygon fill="none" stroke="black" points="511,-656 511,-690 631,-690 631,-656 511,-656"/>
<text text-anchor="start" x="519" y="-677" font-family="FreeSans" font-size="10.00">Urho3D::PODVector&lt;</text>
<text text-anchor="middle" x="571" y="-664" font-family="FreeSans" font-size="10.00"> Urho3D::Camera * &gt;</text>
</a>
</g>
<!-- Node12&#45;&gt;Node13 -->
<g id="edge34" class="edge"><title>Node12&#45;&gt;Node13</title>
<path fill="none" stroke="midnightblue" d="M340.09,-652.079C391.327,-656.721 461.31,-663.062 510.764,-667.542"/>
<polygon fill="midnightblue" stroke="midnightblue" points="340.38,-648.591 330.105,-651.174 339.748,-655.562 340.38,-648.591"/>
</g>
<!-- Node14 -->
<g id="node31" class="node"><title>Node14</title>
<a xlink:href="class_urho3_d_1_1_vector.html" target="_top" xlink:title="Urho3D::Vector\&lt; Urho3D\l::SourceBatch \&gt;">
<polygon fill="none" stroke="black" points="502,-604 502,-638 640,-638 640,-604 502,-604"/>
<text text-anchor="start" x="510" y="-625" font-family="FreeSans" font-size="10.00">Urho3D::Vector&lt; Urho3D</text>
<text text-anchor="middle" x="571" y="-612" font-family="FreeSans" font-size="10.00">::SourceBatch &gt;</text>
</a>
</g>
<!-- Node12&#45;&gt;Node14 -->
<g id="edge38" class="edge"><title>Node12&#45;&gt;Node14</title>
<path fill="none" stroke="midnightblue" d="M340.127,-640.369C388.328,-636.325 453.107,-630.89 501.779,-626.807"/>
<polygon fill="midnightblue" stroke="midnightblue" points="339.777,-636.885 330.105,-641.209 340.362,-643.861 339.777,-636.885"/>
</g>
<!-- Node25 -->
<g id="node66" class="node"><title>Node25</title>
<a xlink:href="class_urho3_d_1_1_p_o_d_vector.html" target="_top" xlink:title="Urho3D::PODVector\&lt;\l float \&gt;">
<polygon fill="none" stroke="black" points="662.5,-442 662.5,-476 781.5,-476 781.5,-442 662.5,-442"/>
<text text-anchor="start" x="670.5" y="-463" font-family="FreeSans" font-size="10.00">Urho3D::PODVector&lt;</text>
<text text-anchor="middle" x="722" y="-450" font-family="FreeSans" font-size="10.00"> float &gt;</text>
</a>
</g>
<!-- Node12&#45;&gt;Node25 -->
<g id="edge86" class="edge"><title>Node12&#45;&gt;Node25</title>
<path fill="none" stroke="midnightblue" d="M279.056,-625.623C290.15,-591.955 317.017,-524.965 364,-490 406.547,-458.336 431.818,-484.165 480,-462 488.965,-457.876 488.61,-452.036 498,-449 559.741,-429.036 579.243,-444.866 644,-449 649.995,-449.383 656.233,-449.929 662.454,-450.572"/>
<polygon fill="midnightblue" stroke="midnightblue" points="275.674,-624.711 276.003,-635.301 282.349,-626.817 275.674,-624.711"/>
</g>
<!-- Node13&#45;&gt;Node2 -->
<g id="edge32" class="edge"><title>Node13&#45;&gt;Node2</title>
<path fill="none" stroke="#9a32cd" stroke-dasharray="5,2" d="M641.409,-670.032C685,-665.268 740.396,-653.666 782,-626 824.518,-597.726 852.482,-540.388 862.681,-516.656"/>
<polygon fill="#9a32cd" stroke="#9a32cd" points="641.053,-666.55 631.449,-671.025 641.747,-673.515 641.053,-666.55"/>
<text text-anchor="middle" x="722" y="-671" font-family="FreeSans" font-size="10.00"> viewCameras_</text>
</g>
<!-- Node14&#45;&gt;Node2 -->
<g id="edge36" class="edge"><title>Node14&#45;&gt;Node2</title>
<path fill="none" stroke="#9a32cd" stroke-dasharray="5,2" d="M650.03,-612.106C690.9,-605.381 740.73,-593.781 782,-574 812.675,-559.297 842.236,-531.652 857.084,-516.534"/>
<polygon fill="#9a32cd" stroke="#9a32cd" points="649.445,-608.655 640.113,-613.672 650.537,-615.57 649.445,-608.655"/>
<text text-anchor="middle" x="722" y="-613" font-family="FreeSans" font-size="10.00"> batches_</text>
</g>
<!-- Node15&#45;&gt;Node2 -->
<g id="edge40" class="edge"><title>Node15&#45;&gt;Node2</title>
<path fill="none" stroke="#9a32cd" stroke-dasharray="5,2" d="M1079.2,-532.723C1043.46,-528.369 994.834,-522.404 952,-517 941.371,-515.659 929.997,-514.202 919.138,-512.801"/>
<polygon fill="#9a32cd" stroke="#9a32cd" points="1079.05,-536.23 1089.4,-533.963 1079.89,-529.281 1079.05,-536.23"/>
<text text-anchor="middle" x="1003" y="-533" font-family="FreeSans" font-size="10.00"> firstLight_</text>
</g>
<!-- Node16&#45;&gt;Node2 -->
<g id="edge48" class="edge"><title>Node16&#45;&gt;Node2</title>
<path fill="none" stroke="#9a32cd" stroke-dasharray="5,2" d="M627.204,-477.257C638.707,-478.882 650.739,-480.537 662,-482 713.881,-488.742 773.262,-495.6 814.715,-500.249"/>
<polygon fill="#9a32cd" stroke="#9a32cd" points="627.657,-473.786 617.263,-475.84 626.669,-480.716 627.657,-473.786"/>
<text text-anchor="middle" x="722" y="-500" font-family="FreeSans" font-size="10.00"> octant_</text>
</g>
<!-- Node16&#45;&gt;Node16 -->
<g id="edge52" class="edge"><title>Node16&#45;&gt;Node16</title>
<path fill="none" stroke="#9a32cd" stroke-dasharray="5,2" d="M543.58,-489.055C545.379,-494.164 554.519,-498 571,-498 596.727,-498 604.565,-488.653 594.516,-479.708"/>
<polygon fill="#9a32cd" stroke="#9a32cd" points="546.86,-490.284 547.484,-479.708 540.401,-487.587 546.86,-490.284"/>
<text text-anchor="middle" x="571" y="-515" font-family="FreeSans" font-size="10.00"> parent_</text>
<text text-anchor="middle" x="571" y="-502" font-family="FreeSans" font-size="10.00">children_</text>
</g>
<!-- Node17&#45;&gt;Node1 -->
<g id="edge54" class="edge"><title>Node17&#45;&gt;Node1</title>
<path fill="none" stroke="#9a32cd" stroke-dasharray="5,2" d="M654.463,-62.3748C693.445,-57.1334 740.341,-54.4457 782,-62 852.992,-74.8732 872.63,-81.0629 934,-119 1017.38,-170.546 1096.53,-260.667 1122.28,-291.39"/>
<polygon fill="#9a32cd" stroke="#9a32cd" points="653.618,-58.9598 644.211,-63.8356 654.605,-65.8898 653.618,-58.9598"/>
<text text-anchor="middle" x="867" y="-123" font-family="FreeSans" font-size="10.00"> owner_</text>
</g>
<!-- Node17&#45;&gt;Node18 -->
<g id="edge60" class="edge"><title>Node17&#45;&gt;Node18</title>
<path fill="none" stroke="#9a32cd" stroke-dasharray="5,2" d="M654.289,-91.8906C712.596,-100.936 780.39,-111.506 782,-112 805.857,-119.314 831.559,-132.173 848.379,-141.337"/>
<polygon fill="#9a32cd" stroke="#9a32cd" points="654.697,-88.4122 644.279,-90.3382 653.624,-95.3295 654.697,-88.4122"/>
<text text-anchor="middle" x="722" y="-155" font-family="FreeSans" font-size="10.00"> south_</text>
<text text-anchor="middle" x="722" y="-142" font-family="FreeSans" font-size="10.00">west_</text>
<text text-anchor="middle" x="722" y="-129" font-family="FreeSans" font-size="10.00">north_</text>
<text text-anchor="middle" x="722" y="-116" font-family="FreeSans" font-size="10.00">east_</text>
</g>
<!-- Node18&#45;&gt;Node17 -->
<g id="edge56" class="edge"><title>Node18&#45;&gt;Node17</title>
<path fill="none" stroke="#9a32cd" stroke-dasharray="5,2" d="M852.057,-133.405C836.644,-115.842 810.843,-90.6516 782,-80 738.186,-63.8196 685.676,-63.5083 644,-67.2726"/>
<polygon fill="#9a32cd" stroke="#9a32cd" points="849.624,-135.948 858.757,-141.318 854.966,-131.424 849.624,-135.948"/>
<text text-anchor="middle" x="722" y="-84" font-family="FreeSans" font-size="10.00"> ptr_</text>
</g>
<!-- Node19 -->
<g id="node49" class="node"><title>Node19</title>
<a xlink:href="class_urho3_d_1_1_int_vector2.html" target="_top" xlink:title="Two&#45;dimensional vector with integer values.">
<polygon fill="none" stroke="black" points="517,-180.5 517,-201.5 625,-201.5 625,-180.5 517,-180.5"/>
<text text-anchor="middle" x="571" y="-188.5" font-family="FreeSans" font-size="10.00">Urho3D::IntVector2</text>
</a>
</g>
<!-- Node19&#45;&gt;Node1 -->
<g id="edge82" class="edge"><title>Node19&#45;&gt;Node1</title>
<path fill="none" stroke="#9a32cd" stroke-dasharray="5,2" d="M604.346,-205.462C621.323,-212.307 642.457,-220.048 662,-225 780.323,-254.984 813.638,-242.695 934,-263 984.538,-271.526 1041.99,-283.119 1081.76,-291.447"/>
<polygon fill="#9a32cd" stroke="#9a32cd" points="605.453,-202.132 594.873,-201.563 602.788,-208.605 605.453,-202.132"/>
<text text-anchor="middle" x="867" y="-267" font-family="FreeSans" font-size="10.00"> coordinates_</text>
</g>
<!-- Node19&#45;&gt;Node18 -->
<g id="edge62" class="edge"><title>Node19&#45;&gt;Node18</title>
<path fill="none" stroke="#9a32cd" stroke-dasharray="5,2" d="M635.419,-185.284C677.29,-181.247 733.005,-175.27 782,-168 794.774,-166.104 808.558,-163.677 821.232,-161.288"/>
<polygon fill="#9a32cd" stroke="#9a32cd" points="634.979,-181.81 625.356,-186.243 635.643,-188.778 634.979,-181.81"/>
<text text-anchor="middle" x="722" y="-212" font-family="FreeSans" font-size="10.00"> numVertices_</text>
<text text-anchor="middle" x="722" y="-199" font-family="FreeSans" font-size="10.00">numPatches_</text>
<text text-anchor="middle" x="722" y="-186" font-family="FreeSans" font-size="10.00">lastNumVertices_</text>
</g>
<!-- Node19&#45;&gt;Node19 -->
<g id="edge64" class="edge"><title>Node19&#45;&gt;Node19</title>
<path fill="none" stroke="#9a32cd" stroke-dasharray="5,2" d="M543.58,-211.055C545.379,-216.164 554.519,-220 571,-220 596.727,-220 604.565,-210.653 594.516,-201.708"/>
<polygon fill="#9a32cd" stroke="#9a32cd" points="546.86,-212.284 547.484,-201.708 540.401,-209.587 546.86,-212.284"/>
<text text-anchor="middle" x="571" y="-224" font-family="FreeSans" font-size="10.00"> ZERO</text>
</g>
<!-- Node20&#45;&gt;Node1 -->
<g id="edge68" class="edge"><title>Node20&#45;&gt;Node1</title>
<path fill="none" stroke="#9a32cd" stroke-dasharray="5,2" d="M1251.7,-280.699C1230.91,-284.368 1209.05,-288.226 1189.73,-291.636"/>
<polygon fill="#9a32cd" stroke="#9a32cd" points="1252.57,-284.101 1261.81,-278.916 1251.35,-277.207 1252.57,-284.101"/>
<text text-anchor="middle" x="1226" y="-331" font-family="FreeSans" font-size="10.00"> south_</text>
<text text-anchor="middle" x="1226" y="-318" font-family="FreeSans" font-size="10.00">west_</text>
<text text-anchor="middle" x="1226" y="-305" font-family="FreeSans" font-size="10.00">north_</text>
<text text-anchor="middle" x="1226" y="-292" font-family="FreeSans" font-size="10.00">east_</text>
</g>
<!-- Node21 -->
<g id="node57" class="node"><title>Node21</title>
<a xlink:href="class_urho3_d_1_1_shared_ptr.html" target="_top" xlink:title="Urho3D::SharedPtr\&lt;\l Urho3D::Geometry \&gt;">
<polygon fill="none" stroke="black" points="806,-342 806,-376 928,-376 928,-342 806,-342"/>
<text text-anchor="start" x="814" y="-363" font-family="FreeSans" font-size="10.00">Urho3D::SharedPtr&lt;</text>
<text text-anchor="middle" x="867" y="-350" font-family="FreeSans" font-size="10.00"> Urho3D::Geometry &gt;</text>
</a>
</g>
<!-- Node21&#45;&gt;Node1 -->
<g id="edge74" class="edge"><title>Node21&#45;&gt;Node1</title>
<path fill="none" stroke="#9a32cd" stroke-dasharray="5,2" d="M938.182,-343.889C973.094,-336.448 1015.76,-327.311 1054,-319 1063.5,-316.936 1073.65,-314.709 1083.36,-312.568"/>
<polygon fill="#9a32cd" stroke="#9a32cd" points="937.132,-340.534 928.081,-346.04 938.591,-347.38 937.132,-340.534"/>
<text text-anchor="middle" x="1003" y="-370" font-family="FreeSans" font-size="10.00"> occlusionGeometry_</text>
<text text-anchor="middle" x="1003" y="-357" font-family="FreeSans" font-size="10.00">geometry_</text>
<text text-anchor="middle" x="1003" y="-344" font-family="FreeSans" font-size="10.00">maxLodGeometry_</text>
</g>
<!-- Node22 -->
<g id="node59" class="node"><title>Node22</title>
<a xlink:href="class_urho3_d_1_1_geometry.html" target="_top" xlink:title="Defines one or more vertex buffers, an index buffer and a draw range.">
<polygon fill="none" stroke="red" points="517.5,-340.5 517.5,-361.5 624.5,-361.5 624.5,-340.5 517.5,-340.5"/>
<text text-anchor="middle" x="571" y="-348.5" font-family="FreeSans" font-size="10.00">Urho3D::Geometry</text>
</a>
</g>
<!-- Node22&#45;&gt;Node21 -->
<g id="edge76" class="edge"><title>Node22&#45;&gt;Node21</title>
<path fill="none" stroke="#9a32cd" stroke-dasharray="5,2" d="M634.784,-352.724C685.468,-354.094 755.902,-355.997 805.877,-357.348"/>
<polygon fill="#9a32cd" stroke="#9a32cd" points="634.694,-349.22 624.603,-352.449 634.505,-356.218 634.694,-349.22"/>
<text text-anchor="middle" x="722" y="-360" font-family="FreeSans" font-size="10.00"> ptr_</text>
</g>
<!-- Node23 -->
<g id="node61" class="node"><title>Node23</title>
<a xlink:href="class_urho3_d_1_1_shared_ptr.html" target="_top" xlink:title="Urho3D::SharedPtr\&lt;\l Urho3D::VertexBuffer \&gt;">
<polygon fill="none" stroke="black" points="800.5,-285 800.5,-319 933.5,-319 933.5,-285 800.5,-285"/>
<text text-anchor="start" x="808.5" y="-306" font-family="FreeSans" font-size="10.00">Urho3D::SharedPtr&lt;</text>
<text text-anchor="middle" x="867" y="-293" font-family="FreeSans" font-size="10.00"> Urho3D::VertexBuffer &gt;</text>
</a>
</g>
<!-- Node23&#45;&gt;Node1 -->
<g id="edge78" class="edge"><title>Node23&#45;&gt;Node1</title>
<path fill="none" stroke="#9a32cd" stroke-dasharray="5,2" d="M943.854,-302C984.9,-302 1034.62,-302 1072.49,-302"/>
<polygon fill="#9a32cd" stroke="#9a32cd" points="943.618,-298.5 933.618,-302 943.618,-305.5 943.618,-298.5"/>
<text text-anchor="middle" x="1003" y="-306" font-family="FreeSans" font-size="10.00"> vertexBuffer_</text>
</g>
<!-- Node24 -->
<g id="node63" class="node"><title>Node24</title>
<a xlink:href="class_urho3_d_1_1_vertex_buffer.html" target="_top" xlink:title="Hardware vertex buffer.">
<polygon fill="none" stroke="red" points="511.5,-291.5 511.5,-312.5 630.5,-312.5 630.5,-291.5 511.5,-291.5"/>
<text text-anchor="middle" x="571" y="-299.5" font-family="FreeSans" font-size="10.00">Urho3D::VertexBuffer</text>
</a>
</g>
<!-- Node24&#45;&gt;Node23 -->
<g id="edge80" class="edge"><title>Node24&#45;&gt;Node23</title>
<path fill="none" stroke="#9a32cd" stroke-dasharray="5,2" d="M640.591,-302C688.841,-302 752.723,-302 800.326,-302"/>
<polygon fill="#9a32cd" stroke="#9a32cd" points="640.544,-298.5 630.544,-302 640.544,-305.5 640.544,-298.5"/>
<text text-anchor="middle" x="722" y="-306" font-family="FreeSans" font-size="10.00"> ptr_</text>
</g>
<!-- Node25&#45;&gt;Node1 -->
<g id="edge84" class="edge"><title>Node25&#45;&gt;Node1</title>
<path fill="none" stroke="#9a32cd" stroke-dasharray="5,2" d="M791.577,-454.789C861.84,-447.948 971.489,-430.01 1054,-383 1085.53,-365.039 1112.08,-330.097 1124.1,-312.567"/>
<polygon fill="#9a32cd" stroke="#9a32cd" points="791.139,-451.314 781.504,-455.719 791.783,-458.284 791.139,-451.314"/>
<text text-anchor="middle" x="867" y="-457" font-family="FreeSans" font-size="10.00"> lodErrors_</text>
</g>
</g>
</svg>
