<?xml version="1.0" encoding="UTF-8" standalone="no"?>
<!DOCTYPE svg PUBLIC "-//W3C//DTD SVG 1.1//EN"
 "http://www.w3.org/Graphics/SVG/1.1/DTD/svg11.dtd">
<!-- Generated by graphviz version 2.43.0 (0)
 -->
<!-- Title: Urho3D::DecalSet::SetMaxVertices Pages: 1 -->
<svg width="1688pt" height="172pt"
 viewBox="0.00 0.00 1688.00 171.56" xmlns="http://www.w3.org/2000/svg" xmlns:xlink="http://www.w3.org/1999/xlink">
<g id="graph0" class="graph" transform="scale(1 1) rotate(0) translate(4 167.56)">
<title>Urho3D::DecalSet::SetMaxVertices</title>
<!-- Node1 -->
<g id="node1" class="node">
<title>Node1</title>
<g id="a_node1"><a xlink:title=" ">
<polygon fill="#bfbfbf" stroke="black" points="0,-73.5 0,-103.5 146,-103.5 146,-73.5 0,-73.5"/>
<text text-anchor="start" x="8" y="-91.5" font-family="Helvetica,sans-Serif" font-size="10.00">Urho3D::DecalSet::SetMax</text>
<text text-anchor="middle" x="73" y="-80.5" font-family="Helvetica,sans-Serif" font-size="10.00">Vertices</text>
</a>
</g>
</g>
<!-- Node2 -->
<g id="node2" class="node">
<title>Node2</title>
<g id="a_node2"><a xlink:href="_math_defs_8h.html#a937fef228b452d2488ce13d78f0bd810" target="_top" xlink:title=" ">
<polygon fill="none" stroke="black" points="211,-123 211,-142 302,-142 302,-123 211,-123"/>
<text text-anchor="middle" x="256.5" y="-130" font-family="Helvetica,sans-Serif" font-size="10.00">Urho3D::Clamp</text>
</a>
</g>
</g>
<!-- Node1&#45;&gt;Node2 -->
<g id="edge1" class="edge">
<title>Node1&#45;&gt;Node2</title>
<path fill="none" stroke="midnightblue" d="M135.95,-103.52C158.92,-109.09 184.62,-115.32 206.29,-120.57"/>
<polygon fill="midnightblue" stroke="midnightblue" points="205.72,-124.03 216.26,-122.99 207.37,-117.23 205.72,-124.03"/>
</g>
<!-- Node3 -->
<g id="node3" class="node">
<title>Node3</title>
<g id="a_node3"><a xlink:href="class_urho3_d_1_1_component.html#aaf87acb64001774c62f0784254f9b291" target="_top" xlink:title="Mark for attribute check on the next network update.">
<polygon fill="none" stroke="black" points="195.5,-73.5 195.5,-103.5 317.5,-103.5 317.5,-73.5 195.5,-73.5"/>
<text text-anchor="start" x="203.5" y="-91.5" font-family="Helvetica,sans-Serif" font-size="10.00">Urho3D::Component::</text>
<text text-anchor="middle" x="256.5" y="-80.5" font-family="Helvetica,sans-Serif" font-size="10.00">MarkNetworkUpdate</text>
</a>
</g>
</g>
<!-- Node1&#45;&gt;Node3 -->
<g id="edge3" class="edge">
<title>Node1&#45;&gt;Node3</title>
<path fill="none" stroke="midnightblue" d="M146.26,-88.5C159.13,-88.5 172.51,-88.5 185.33,-88.5"/>
<polygon fill="midnightblue" stroke="midnightblue" points="185.46,-92 195.46,-88.5 185.46,-85 185.46,-92"/>
</g>
<!-- Node9 -->
<g id="node9" class="node">
<title>Node9</title>
<g id="a_node9"><a xlink:href="class_urho3_d_1_1_decal_set.html#a18384b227e33e1a36084ae9805bb8d18" target="_top" xlink:title="Remove n oldest decals.">
<polygon fill="none" stroke="black" points="182,-24.5 182,-54.5 331,-54.5 331,-24.5 182,-24.5"/>
<text text-anchor="start" x="190" y="-42.5" font-family="Helvetica,sans-Serif" font-size="10.00">Urho3D::DecalSet::Remove</text>
<text text-anchor="middle" x="256.5" y="-31.5" font-family="Helvetica,sans-Serif" font-size="10.00">Decals</text>
</a>
</g>
</g>
<!-- Node1&#45;&gt;Node9 -->
<g id="edge9" class="edge">
<title>Node1&#45;&gt;Node9</title>
<path fill="none" stroke="midnightblue" d="M129.94,-73.4C148.92,-68.27 170.29,-62.5 189.95,-57.2"/>
<polygon fill="midnightblue" stroke="midnightblue" points="191.01,-60.54 199.75,-54.55 189.18,-53.78 191.01,-60.54"/>
</g>
<!-- Node2&#45;&gt;Node2 -->
<g id="edge2" class="edge">
<title>Node2&#45;&gt;Node2</title>
<path fill="none" stroke="midnightblue" d="M228.45,-142.26C214.8,-151.07 224.15,-160.5 256.5,-160.5 278.74,-160.5 290.11,-156.04 290.61,-150.39"/>
<polygon fill="midnightblue" stroke="midnightblue" points="293.33,-148.19 284.55,-142.26 287.72,-152.37 293.33,-148.19"/>
</g>
<!-- Node4 -->
<g id="node4" class="node">
<title>Node4</title>
<g id="a_node4"><a xlink:href="class_urho3_d_1_1_component.html#a2c22f727341671a0420934f249ffe059" target="_top" xlink:title="Return the scene the node belongs to.">
<polygon fill="none" stroke="black" points="1371.5,-125.5 1371.5,-155.5 1493.5,-155.5 1493.5,-125.5 1371.5,-125.5"/>
<text text-anchor="start" x="1379.5" y="-143.5" font-family="Helvetica,sans-Serif" font-size="10.00">Urho3D::Component::</text>
<text text-anchor="middle" x="1432.5" y="-132.5" font-family="Helvetica,sans-Serif" font-size="10.00">GetScene</text>
</a>
</g>
</g>
<!-- Node3&#45;&gt;Node4 -->
<g id="edge4" class="edge">
<title>Node3&#45;&gt;Node4</title>
<path fill="none" stroke="midnightblue" d="M308.08,-103.62C315.91,-106.55 323.78,-109.86 331,-113.5 348.39,-122.28 348.62,-132.05 367,-138.5 484.49,-179.72 521.99,-157.5 646.5,-157.5 646.5,-157.5 646.5,-157.5 1042.5,-157.5 1153.94,-157.5 1283.16,-150.45 1361.05,-145.43"/>
<polygon fill="midnightblue" stroke="midnightblue" points="1361.48,-148.91 1371.23,-144.77 1361.02,-141.93 1361.48,-148.91"/>
</g>
<!-- Node6 -->
<g id="node6" class="node">
<title>Node6</title>
<g id="a_node6"><a xlink:href="class_urho3_d_1_1_component.html#a8f1388c232ca01b7c7328c761aae6e76" target="_top" xlink:title=" ">
<polygon fill="none" stroke="black" points="386.5,-98.5 386.5,-128.5 508.5,-128.5 508.5,-98.5 386.5,-98.5"/>
<text text-anchor="start" x="394.5" y="-116.5" font-family="Helvetica,sans-Serif" font-size="10.00">Urho3D::Component::</text>
<text text-anchor="middle" x="447.5" y="-105.5" font-family="Helvetica,sans-Serif" font-size="10.00">IsReplicated</text>
</a>
</g>
</g>
<!-- Node3&#45;&gt;Node6 -->
<g id="edge6" class="edge">
<title>Node3&#45;&gt;Node6</title>
<path fill="none" stroke="midnightblue" d="M317.56,-96.44C336.25,-98.92 357.01,-101.66 376.32,-104.22"/>
<polygon fill="midnightblue" stroke="midnightblue" points="375.9,-107.69 386.27,-105.53 376.82,-100.75 375.9,-107.69"/>
</g>
<!-- Node8 -->
<g id="node8" class="node">
<title>Node8</title>
<g id="a_node8"><a xlink:href="class_urho3_d_1_1_scene.html#a00b724dfff718639b9de12d71139499c" target="_top" xlink:title="Mark for attribute check on the next network update.">
<polygon fill="none" stroke="black" points="367,-49.5 367,-79.5 528,-79.5 528,-49.5 367,-49.5"/>
<text text-anchor="start" x="375" y="-67.5" font-family="Helvetica,sans-Serif" font-size="10.00">Urho3D::Scene::MarkNetwork</text>
<text text-anchor="middle" x="447.5" y="-56.5" font-family="Helvetica,sans-Serif" font-size="10.00">Update</text>
</a>
</g>
</g>
<!-- Node3&#45;&gt;Node8 -->
<g id="edge8" class="edge">
<title>Node3&#45;&gt;Node8</title>
<path fill="none" stroke="midnightblue" d="M317.56,-80.87C330.05,-79.29 343.47,-77.58 356.76,-75.9"/>
<polygon fill="midnightblue" stroke="midnightblue" points="357.41,-79.34 366.89,-74.61 356.52,-72.4 357.41,-79.34"/>
</g>
<!-- Node5 -->
<g id="node5" class="node">
<title>Node5</title>
<g id="a_node5"><a xlink:href="class_urho3_d_1_1_node.html#a9c57bc1539c33614c36f8a1453d62e9a" target="_top" xlink:title=" ">
<polygon fill="none" stroke="black" points="1543,-131 1543,-150 1680,-150 1680,-131 1543,-131"/>
<text text-anchor="middle" x="1611.5" y="-138" font-family="Helvetica,sans-Serif" font-size="10.00">Urho3D::Node::GetScene</text>
</a>
</g>
</g>
<!-- Node4&#45;&gt;Node5 -->
<g id="edge5" class="edge">
<title>Node4&#45;&gt;Node5</title>
<path fill="none" stroke="midnightblue" d="M1493.92,-140.5C1506.32,-140.5 1519.55,-140.5 1532.48,-140.5"/>
<polygon fill="midnightblue" stroke="midnightblue" points="1532.76,-144 1542.76,-140.5 1532.76,-137 1532.76,-144"/>
</g>
<!-- Node7 -->
<g id="node7" class="node">
<title>Node7</title>
<g id="a_node7"><a xlink:href="class_urho3_d_1_1_scene.html#a97fb1222bd2f38e6c1c433c0b7e54d40" target="_top" xlink:title="Return whether the specified id is a replicated id.">
<polygon fill="none" stroke="black" points="565,-104 565,-123 730,-123 730,-104 565,-104"/>
<text text-anchor="middle" x="647.5" y="-111" font-family="Helvetica,sans-Serif" font-size="10.00">Urho3D::Scene::IsReplicatedID</text>
</a>
</g>
</g>
<!-- Node6&#45;&gt;Node7 -->
<g id="edge7" class="edge">
<title>Node6&#45;&gt;Node7</title>
<path fill="none" stroke="midnightblue" d="M508.71,-113.5C523.18,-113.5 538.96,-113.5 554.51,-113.5"/>
<polygon fill="midnightblue" stroke="midnightblue" points="554.67,-117 564.67,-113.5 554.67,-110 554.67,-117"/>
</g>
<!-- Node10 -->
<g id="node10" class="node">
<title>Node10</title>
<g id="a_node10"><a xlink:href="class_urho3_d_1_1_decal_set.html#adfa06ddf66c7c8d2feb6418dac3bf5d6" target="_top" xlink:title="Remove a decal by iterator and return iterator to the next decal.">
<polygon fill="none" stroke="black" points="373,-0.5 373,-30.5 522,-30.5 522,-0.5 373,-0.5"/>
<text text-anchor="start" x="381" y="-18.5" font-family="Helvetica,sans-Serif" font-size="10.00">Urho3D::DecalSet::Remove</text>
<text text-anchor="middle" x="447.5" y="-7.5" font-family="Helvetica,sans-Serif" font-size="10.00">Decal</text>
</a>
</g>
</g>
<!-- Node9&#45;&gt;Node10 -->
<g id="edge10" class="edge">
<title>Node9&#45;&gt;Node10</title>
<path fill="none" stroke="midnightblue" d="M331.11,-30.15C341.48,-28.84 352.2,-27.47 362.74,-26.14"/>
<polygon fill="midnightblue" stroke="midnightblue" points="363.3,-29.59 372.78,-24.86 362.42,-22.65 363.3,-29.59"/>
</g>
<!-- Node11 -->
<g id="node11" class="node">
<title>Node11</title>
<g id="a_node11"><a xlink:href="class_urho3_d_1_1_decal_set.html#a41027d16a7e3f21f99bf61cbfbb66770" target="_top" xlink:title="Mark decals and the bounding box dirty.">
<polygon fill="none" stroke="black" points="564,-27.5 564,-57.5 731,-57.5 731,-27.5 564,-27.5"/>
<text text-anchor="start" x="572" y="-45.5" font-family="Helvetica,sans-Serif" font-size="10.00">Urho3D::DecalSet::MarkDecals</text>
<text text-anchor="middle" x="647.5" y="-34.5" font-family="Helvetica,sans-Serif" font-size="10.00">Dirty</text>
</a>
</g>
</g>
<!-- Node10&#45;&gt;Node11 -->
<g id="edge11" class="edge">
<title>Node10&#45;&gt;Node11</title>
<path fill="none" stroke="midnightblue" d="M522.23,-25.55C532.48,-26.95 543.11,-28.4 553.65,-29.84"/>
<polygon fill="midnightblue" stroke="midnightblue" points="553.34,-33.33 563.72,-31.21 554.28,-26.39 553.34,-33.33"/>
</g>
<!-- Node12 -->
<g id="node12" class="node">
<title>Node12</title>
<g id="a_node12"><a xlink:href="class_urho3_d_1_1_decal_set.html#a06bdbc9b9b8c5ec4e59625e5fb745284" target="_top" xlink:title="Handle node transform being dirtied.">
<polygon fill="none" stroke="black" points="767,-57.5 767,-87.5 925,-87.5 925,-57.5 767,-57.5"/>
<text text-anchor="start" x="775" y="-75.5" font-family="Helvetica,sans-Serif" font-size="10.00">Urho3D::DecalSet::OnMarked</text>
<text text-anchor="middle" x="846" y="-64.5" font-family="Helvetica,sans-Serif" font-size="10.00">Dirty</text>
</a>
</g>
</g>
<!-- Node11&#45;&gt;Node12 -->
<g id="edge12" class="edge">
<title>Node11&#45;&gt;Node12</title>
<path fill="none" stroke="midnightblue" d="M731.26,-55.14C739.71,-56.42 748.31,-57.74 756.81,-59.04"/>
<polygon fill="midnightblue" stroke="midnightblue" points="756.31,-62.5 766.72,-60.55 757.36,-55.58 756.31,-62.5"/>
</g>
<!-- Node13 -->
<g id="node13" class="node">
<title>Node13</title>
<g id="a_node13"><a xlink:href="class_urho3_d_1_1_drawable.html#a04a978441415a93f044721f6473df0e3" target="_top" xlink:title="Handle node transform being dirtied.">
<polygon fill="none" stroke="black" points="961,-63.5 961,-93.5 1122,-93.5 1122,-63.5 961,-63.5"/>
<text text-anchor="start" x="969" y="-81.5" font-family="Helvetica,sans-Serif" font-size="10.00">Urho3D::Drawable::OnMarked</text>
<text text-anchor="middle" x="1041.5" y="-70.5" font-family="Helvetica,sans-Serif" font-size="10.00">Dirty</text>
</a>
</g>
</g>
<!-- Node12&#45;&gt;Node13 -->
<g id="edge13" class="edge">
<title>Node12&#45;&gt;Node13</title>
<path fill="none" stroke="midnightblue" d="M925.15,-74.92C933.59,-75.18 942.23,-75.45 950.8,-75.72"/>
<polygon fill="midnightblue" stroke="midnightblue" points="950.7,-79.22 960.8,-76.03 950.91,-72.22 950.7,-79.22"/>
</g>
<!-- Node14 -->
<g id="node14" class="node">
<title>Node14</title>
<g id="a_node14"><a xlink:href="class_urho3_d_1_1_octant.html#a360158ca482e5cd6fc8412e9510ed582" target="_top" xlink:title="Return octree root.">
<polygon fill="none" stroke="black" points="1171.5,-107 1171.5,-126 1308.5,-126 1308.5,-107 1171.5,-107"/>
<text text-anchor="middle" x="1240" y="-114" font-family="Helvetica,sans-Serif" font-size="10.00">Urho3D::Octant::GetRoot</text>
</a>
</g>
</g>
<!-- Node13&#45;&gt;Node14 -->
<g id="edge14" class="edge">
<title>Node13&#45;&gt;Node14</title>
<path fill="none" stroke="midnightblue" d="M1120.16,-93.52C1140.08,-97.37 1161.17,-101.45 1179.97,-105.09"/>
<polygon fill="midnightblue" stroke="midnightblue" points="1179.39,-108.54 1189.87,-107 1180.72,-101.66 1179.39,-108.54"/>
</g>
<!-- Node15 -->
<g id="node15" class="node">
<title>Node15</title>
<g id="a_node15"><a xlink:href="class_urho3_d_1_1_octree.html#a578eb27fbff722b23eecfd03ef0e5571" target="_top" xlink:title="Mark drawable object as requiring an update and a reinsertion.">
<polygon fill="none" stroke="black" points="1158,-69 1158,-88 1322,-88 1322,-69 1158,-69"/>
<text text-anchor="middle" x="1240" y="-76" font-family="Helvetica,sans-Serif" font-size="10.00">Urho3D::Octree::QueueUpdate</text>
</a>
</g>
</g>
<!-- Node13&#45;&gt;Node15 -->
<g id="edge15" class="edge">
<title>Node13&#45;&gt;Node15</title>
<path fill="none" stroke="midnightblue" d="M1122.14,-78.5C1130.63,-78.5 1139.31,-78.5 1147.91,-78.5"/>
<polygon fill="midnightblue" stroke="midnightblue" points="1147.97,-82 1157.97,-78.5 1147.97,-75 1147.97,-82"/>
</g>
<!-- Node15&#45;&gt;Node4 -->
<g id="edge16" class="edge">
<title>Node15&#45;&gt;Node4</title>
<path fill="none" stroke="midnightblue" d="M1286.72,-88.01C1298.32,-90.76 1310.69,-93.97 1322,-97.5 1343.95,-104.35 1367.77,-113.49 1387.57,-121.58"/>
<polygon fill="midnightblue" stroke="midnightblue" points="1386.36,-124.87 1396.94,-125.45 1389.04,-118.4 1386.36,-124.87"/>
</g>
<!-- Node16 -->
<g id="node16" class="node">
<title>Node16</title>
<g id="a_node16"><a xlink:href="class_urho3_d_1_1_scene.html#a5a3132086218d7b7e6d8f3ccd50f7249" target="_top" xlink:title="Return threaded update flag.">
<polygon fill="none" stroke="black" points="1358,-63.5 1358,-93.5 1507,-93.5 1507,-63.5 1358,-63.5"/>
<text text-anchor="start" x="1366" y="-81.5" font-family="Helvetica,sans-Serif" font-size="10.00">Urho3D::Scene::IsThreaded</text>
<text text-anchor="middle" x="1432.5" y="-70.5" font-family="Helvetica,sans-Serif" font-size="10.00">Update</text>
</a>
</g>
</g>
<!-- Node15&#45;&gt;Node16 -->
<g id="edge17" class="edge">
<title>Node15&#45;&gt;Node16</title>
<path fill="none" stroke="midnightblue" d="M1322.07,-78.5C1330.49,-78.5 1339.06,-78.5 1347.52,-78.5"/>
<polygon fill="midnightblue" stroke="midnightblue" points="1347.75,-82 1357.75,-78.5 1347.75,-75 1347.75,-82"/>
</g>
</g>
</svg>
