<?xml version="1.0" encoding="UTF-8" standalone="no"?>
<!DOCTYPE svg PUBLIC "-//W3C//DTD SVG 1.1//EN"
 "http://www.w3.org/Graphics/SVG/1.1/DTD/svg11.dtd">
<!-- Generated by graphviz version 2.26.3 (20100126.1600)
 -->
<!-- Title: Urho3D::ParticleEmitter Pages: 1 -->
<svg width="1366pt" height="782pt"
 viewBox="0.00 0.00 1366.00 782.09" xmlns="http://www.w3.org/2000/svg" xmlns:xlink="http://www.w3.org/1999/xlink">
<g id="graph1" class="graph" transform="scale(1 1) rotate(0) translate(4 778.094)">
<title>Urho3D::ParticleEmitter</title>
<!-- Node1 -->
<g id="node1" class="node"><title>Node1</title>
<polygon fill="#bfbfbf" stroke="black" points="1228.5,-242.594 1228.5,-263.594 1357.5,-263.594 1357.5,-242.594 1228.5,-242.594"/>
<text text-anchor="middle" x="1293" y="-250.594" font-family="FreeSans" font-size="10.00">Urho3D::ParticleEmitter</text>
</g>
<!-- Node2 -->
<g id="node2" class="node"><title>Node2</title>
<a xlink:href="class_urho3_d_1_1_billboard_set.html" target="_top" xlink:title="Billboard component.">
<polygon fill="none" stroke="black" points="1072.5,-242.594 1072.5,-263.594 1189.5,-263.594 1189.5,-242.594 1072.5,-242.594"/>
<text text-anchor="middle" x="1131" y="-250.594" font-family="FreeSans" font-size="10.00">Urho3D::BillboardSet</text>
</a>
</g>
<!-- Node2&#45;&gt;Node1 -->
<g id="edge2" class="edge"><title>Node2&#45;&gt;Node1</title>
<path fill="none" stroke="midnightblue" d="M1200.03,-253.094C1209.42,-253.094 1219.04,-253.094 1228.35,-253.094"/>
<polygon fill="midnightblue" stroke="midnightblue" points="1199.94,-249.594 1189.94,-253.094 1199.94,-256.594 1199.94,-249.594"/>
</g>
<!-- Node3 -->
<g id="node4" class="node"><title>Node3</title>
<a xlink:href="class_urho3_d_1_1_drawable.html" target="_top" xlink:title="Base class for visible components.">
<polygon fill="none" stroke="black" points="797,-521.594 797,-542.594 901,-542.594 901,-521.594 797,-521.594"/>
<text text-anchor="middle" x="849" y="-529.594" font-family="FreeSans" font-size="10.00">Urho3D::Drawable</text>
</a>
</g>
<!-- Node3&#45;&gt;Node2 -->
<g id="edge4" class="edge"><title>Node3&#45;&gt;Node2</title>
<path fill="none" stroke="midnightblue" d="M893.471,-518.529C952.856,-500.339 1051,-469.977 1054,-467.094 1114.88,-408.502 1127.78,-298.327 1130.38,-263.753"/>
<polygon fill="midnightblue" stroke="midnightblue" points="892.118,-515.283 883.58,-521.556 894.166,-521.977 892.118,-515.283"/>
</g>
<!-- Node5 -->
<g id="node8" class="node"><title>Node5</title>
<a xlink:href="class_urho3_d_1_1_zone.html" target="_top" xlink:title="Component that describes global rendering properties.">
<polygon fill="none" stroke="red" points="1088.5,-572.594 1088.5,-593.594 1173.5,-593.594 1173.5,-572.594 1088.5,-572.594"/>
<text text-anchor="middle" x="1131" y="-580.594" font-family="FreeSans" font-size="10.00">Urho3D::Zone</text>
</a>
</g>
<!-- Node3&#45;&gt;Node5 -->
<g id="edge10" class="edge"><title>Node3&#45;&gt;Node5</title>
<path fill="none" stroke="midnightblue" d="M911.16,-543.336C964.969,-553.067 1041.35,-566.881 1088.46,-575.401"/>
<polygon fill="midnightblue" stroke="midnightblue" points="911.515,-539.843 901.052,-541.508 910.269,-546.732 911.515,-539.843"/>
</g>
<!-- Node13 -->
<g id="node29" class="node"><title>Node13</title>
<a xlink:href="class_urho3_d_1_1_light.html" target="_top" xlink:title="Light component.">
<polygon fill="none" stroke="red" points="1089.5,-495.594 1089.5,-516.594 1172.5,-516.594 1172.5,-495.594 1089.5,-495.594"/>
<text text-anchor="middle" x="1131" y="-503.594" font-family="FreeSans" font-size="10.00">Urho3D::Light</text>
</a>
</g>
<!-- Node3&#45;&gt;Node13 -->
<g id="edge36" class="edge"><title>Node3&#45;&gt;Node13</title>
<path fill="none" stroke="midnightblue" d="M911.116,-522.818C918.812,-521.818 926.581,-520.88 934,-520.094 987.532,-514.42 1049.5,-510.44 1089.42,-508.21"/>
<polygon fill="midnightblue" stroke="midnightblue" points="910.522,-519.366 901.074,-524.161 911.449,-526.304 910.522,-519.366"/>
</g>
<!-- Node4 -->
<g id="node6" class="node"><title>Node4</title>
<a xlink:href="class_urho3_d_1_1_component.html" target="_top" xlink:title="Base class for components. Components can be created to scene nodes.">
<polygon fill="none" stroke="red" points="481,-667.594 481,-688.594 597,-688.594 597,-667.594 481,-667.594"/>
<text text-anchor="middle" x="539" y="-675.594" font-family="FreeSans" font-size="10.00">Urho3D::Component</text>
</a>
</g>
<!-- Node4&#45;&gt;Node3 -->
<g id="edge6" class="edge"><title>Node4&#45;&gt;Node3</title>
<path fill="none" stroke="midnightblue" d="M607.475,-677.859C654.441,-674.887 716.592,-665.207 764,-637.094 803.54,-613.647 832.36,-564.554 843.697,-542.83"/>
<polygon fill="midnightblue" stroke="midnightblue" points="607.188,-674.369 597.393,-678.409 607.569,-681.359 607.188,-674.369"/>
</g>
<!-- Node5&#45;&gt;Node3 -->
<g id="edge8" class="edge"><title>Node5&#45;&gt;Node3</title>
<path fill="none" stroke="#9a32cd" stroke-dasharray="5,2" d="M1078.18,-588.354C1037.96,-590.788 981.59,-590.79 934,-578.094 907.25,-570.958 879.671,-553.911 863.445,-542.694"/>
<polygon fill="#9a32cd" stroke="#9a32cd" points="1078.56,-591.837 1088.3,-587.67 1078.09,-584.852 1078.56,-591.837"/>
<text text-anchor="middle" x="994" y="-593.094" font-family="FreeSans" font-size="10.00"> zone_</text>
</g>
<!-- Node6 -->
<g id="node11" class="node"><title>Node6</title>
<a xlink:href="class_urho3_d_1_1_bounding_box.html" target="_top" xlink:title="Three&#45;dimensional axis&#45;aligned bounding box.">
<polygon fill="none" stroke="black" points="218,-596.594 218,-617.594 340,-617.594 340,-596.594 218,-596.594"/>
<text text-anchor="middle" x="279" y="-604.594" font-family="FreeSans" font-size="10.00">Urho3D::BoundingBox</text>
</a>
</g>
<!-- Node6&#45;&gt;Node3 -->
<g id="edge40" class="edge"><title>Node6&#45;&gt;Node3</title>
<path fill="none" stroke="#9a32cd" stroke-dasharray="5,2" d="M350.606,-609.626C381.768,-610.288 418.701,-610.479 452,-609.094 521.514,-606.203 539.445,-607.958 608,-596.094 683.929,-582.954 770.783,-557.146 816.661,-542.638"/>
<polygon fill="#9a32cd" stroke="#9a32cd" points="350.352,-606.12 340.273,-609.386 350.189,-613.118 350.352,-606.12"/>
<text text-anchor="middle" x="539" y="-625.094" font-family="FreeSans" font-size="10.00"> worldBoundingBox_</text>
<text text-anchor="middle" x="539" y="-612.094" font-family="FreeSans" font-size="10.00">boundingBox_</text>
</g>
<!-- Node6&#45;&gt;Node5 -->
<g id="edge12" class="edge"><title>Node6&#45;&gt;Node5</title>
<path fill="none" stroke="#9a32cd" stroke-dasharray="5,2" d="M303.577,-623.243C338.733,-645.278 406.197,-683.672 470,-698.094 598.145,-727.061 926.828,-639.073 1054,-606.094 1068.32,-602.382 1083.98,-597.8 1097.42,-593.706"/>
<polygon fill="#9a32cd" stroke="#9a32cd" points="305.269,-620.171 294.952,-617.757 301.511,-626.077 305.269,-620.171"/>
<text text-anchor="middle" x="695" y="-701.094" font-family="FreeSans" font-size="10.00"> lastWorldBoundingBox_</text>
</g>
<!-- Node14 -->
<g id="node34" class="node"><title>Node14</title>
<a xlink:href="class_urho3_d_1_1_octant.html" target="_top" xlink:title="Octree octant">
<polygon fill="none" stroke="red" points="493,-521.594 493,-542.594 585,-542.594 585,-521.594 493,-521.594"/>
<text text-anchor="middle" x="539" y="-529.594" font-family="FreeSans" font-size="10.00">Urho3D::Octant</text>
</a>
</g>
<!-- Node6&#45;&gt;Node14 -->
<g id="edge46" class="edge"><title>Node6&#45;&gt;Node14</title>
<path fill="none" stroke="#9a32cd" stroke-dasharray="5,2" d="M322.929,-593.576C334.335,-590.113 346.615,-586.427 358,-583.094 407.192,-568.693 464.123,-552.774 500.8,-542.615"/>
<polygon fill="#9a32cd" stroke="#9a32cd" points="321.72,-590.285 313.174,-596.547 323.76,-596.981 321.72,-590.285"/>
<text text-anchor="middle" x="405" y="-600.094" font-family="FreeSans" font-size="10.00"> cullingBox_</text>
<text text-anchor="middle" x="405" y="-587.094" font-family="FreeSans" font-size="10.00">worldBoundingBox_</text>
</g>
<!-- Node7 -->
<g id="node13" class="node"><title>Node7</title>
<a xlink:href="class_urho3_d_1_1_vector3.html" target="_top" xlink:title="Three&#45;dimensional vector.">
<polygon fill="none" stroke="black" points="4,-551.594 4,-572.594 100,-572.594 100,-551.594 4,-551.594"/>
<text text-anchor="middle" x="52" y="-559.594" font-family="FreeSans" font-size="10.00">Urho3D::Vector3</text>
</a>
</g>
<!-- Node7&#45;&gt;Node2 -->
<g id="edge64" class="edge"><title>Node7&#45;&gt;Node2</title>
<path fill="none" stroke="#9a32cd" stroke-dasharray="5,2" d="M60.1543,-542.171C79.804,-496.925 134.416,-386.378 218,-335.094 361.871,-246.82 894.181,-248.535 1072.42,-251.716"/>
<polygon fill="#9a32cd" stroke="#9a32cd" points="56.8816,-540.924 56.2018,-551.497 63.3266,-543.656 56.8816,-540.924"/>
<text text-anchor="middle" x="539" y="-276.094" font-family="FreeSans" font-size="10.00"> previousOffset_</text>
</g>
<!-- Node7&#45;&gt;Node6 -->
<g id="edge14" class="edge"><title>Node7&#45;&gt;Node6</title>
<path fill="none" stroke="#9a32cd" stroke-dasharray="5,2" d="M110.386,-573.668C145.99,-580.726 191.149,-589.679 225.77,-596.542"/>
<polygon fill="#9a32cd" stroke="#9a32cd" points="110.631,-570.149 100.141,-571.637 109.269,-577.015 110.631,-570.149"/>
<text text-anchor="middle" x="161" y="-608.094" font-family="FreeSans" font-size="10.00"> max_</text>
<text text-anchor="middle" x="161" y="-595.094" font-family="FreeSans" font-size="10.00">min_</text>
</g>
<!-- Node7&#45;&gt;Node7 -->
<g id="edge16" class="edge"><title>Node7&#45;&gt;Node7</title>
<path fill="none" stroke="#9a32cd" stroke-dasharray="5,2" d="M32.0968,-582.521C33.6322,-587.443 40.2666,-591.094 52,-591.094 70.7734,-591.094 76.4935,-581.747 69.1601,-572.802"/>
<polygon fill="#9a32cd" stroke="#9a32cd" points="35.4918,-583.377 34.8399,-572.802 28.755,-581.475 35.4918,-583.377"/>
<text text-anchor="middle" x="52" y="-686.094" font-family="FreeSans" font-size="10.00"> ONE</text>
<text text-anchor="middle" x="52" y="-673.094" font-family="FreeSans" font-size="10.00">DOWN</text>
<text text-anchor="middle" x="52" y="-660.094" font-family="FreeSans" font-size="10.00">BACK</text>
<text text-anchor="middle" x="52" y="-647.094" font-family="FreeSans" font-size="10.00">RIGHT</text>
<text text-anchor="middle" x="52" y="-634.094" font-family="FreeSans" font-size="10.00">LEFT</text>
<text text-anchor="middle" x="52" y="-621.094" font-family="FreeSans" font-size="10.00">ZERO</text>
<text text-anchor="middle" x="52" y="-608.094" font-family="FreeSans" font-size="10.00">FORWARD</text>
<text text-anchor="middle" x="52" y="-595.094" font-family="FreeSans" font-size="10.00">UP</text>
</g>
<!-- Node7&#45;&gt;Node14 -->
<g id="edge44" class="edge"><title>Node7&#45;&gt;Node14</title>
<path fill="none" stroke="#9a32cd" stroke-dasharray="5,2" d="M110.035,-558.519C207.84,-552.494 403.539,-540.439 492.758,-534.943"/>
<polygon fill="#9a32cd" stroke="#9a32cd" points="109.794,-555.027 100.028,-559.135 110.225,-562.014 109.794,-555.027"/>
<text text-anchor="middle" x="279" y="-568.094" font-family="FreeSans" font-size="10.00"> center_</text>
<text text-anchor="middle" x="279" y="-555.094" font-family="FreeSans" font-size="10.00">halfSize_</text>
</g>
<!-- Node25 -->
<g id="node64" class="node"><title>Node25</title>
<a xlink:href="class_urho3_d_1_1_particle_effect.html" target="_top" xlink:title="Particle effect definition.">
<polygon fill="none" stroke="red" points="218.5,-690.594 218.5,-711.594 339.5,-711.594 339.5,-690.594 218.5,-690.594"/>
<text text-anchor="middle" x="279" y="-698.594" font-family="FreeSans" font-size="10.00">Urho3D::ParticleEffect</text>
</a>
</g>
<!-- Node7&#45;&gt;Node25 -->
<g id="edge82" class="edge"><title>Node7&#45;&gt;Node25</title>
<path fill="none" stroke="#9a32cd" stroke-dasharray="5,2" d="M70.9272,-580.114C84.5018,-592.506 103.575,-608.869 122,-621.094 166.1,-650.353 222.295,-676.601 254.098,-690.546"/>
<polygon fill="#9a32cd" stroke="#9a32cd" points="72.9521,-577.218 63.2405,-572.983 68.1915,-582.35 72.9521,-577.218"/>
<text text-anchor="middle" x="161" y="-706.094" font-family="FreeSans" font-size="10.00"> constantForce_</text>
<text text-anchor="middle" x="161" y="-693.094" font-family="FreeSans" font-size="10.00">directionMax_</text>
<text text-anchor="middle" x="161" y="-680.094" font-family="FreeSans" font-size="10.00">emitterSize_</text>
<text text-anchor="middle" x="161" y="-667.094" font-family="FreeSans" font-size="10.00">directionMin_</text>
</g>
<!-- Node8 -->
<g id="node16" class="node"><title>Node8</title>
<a xlink:href="class_urho3_d_1_1_matrix3x4.html" target="_top" xlink:title="3x4 matrix for scene node transform calculations.">
<polygon fill="none" stroke="black" points="796,-406.594 796,-427.594 902,-427.594 902,-406.594 796,-406.594"/>
<text text-anchor="middle" x="849" y="-414.594" font-family="FreeSans" font-size="10.00">Urho3D::Matrix3x4</text>
</a>
</g>
<!-- Node8&#45;&gt;Node2 -->
<g id="edge72" class="edge"><title>Node8&#45;&gt;Node2</title>
<path fill="none" stroke="#9a32cd" stroke-dasharray="5,2" d="M881.294,-402.555C896.966,-395.92 916.211,-388.382 934,-383.094 986.135,-367.596 1008.21,-388.443 1054,-359.094 1091.53,-335.037 1116.73,-285.682 1126.48,-263.868"/>
<polygon fill="#9a32cd" stroke="#9a32cd" points="879.842,-399.369 872.043,-406.541 882.612,-405.798 879.842,-399.369"/>
<text text-anchor="middle" x="994" y="-387.094" font-family="FreeSans" font-size="10.00"> transforms_</text>
</g>
<!-- Node8&#45;&gt;Node5 -->
<g id="edge18" class="edge"><title>Node8&#45;&gt;Node5</title>
<path fill="none" stroke="#9a32cd" stroke-dasharray="5,2" d="M904.977,-430.267C948.972,-442.725 1009.97,-464.85 1054,-500.094 1064.97,-508.876 1062.9,-515.382 1072,-526.094 1086.75,-543.463 1106.11,-561.386 1118.56,-572.386"/>
<polygon fill="#9a32cd" stroke="#9a32cd" points="905.872,-426.883 895.302,-427.605 904.015,-433.633 905.872,-426.883"/>
<text text-anchor="middle" x="994" y="-504.094" font-family="FreeSans" font-size="10.00"> inverseWorld_</text>
</g>
<!-- Node8&#45;&gt;Node8 -->
<g id="edge20" class="edge"><title>Node8&#45;&gt;Node8</title>
<path fill="none" stroke="#9a32cd" stroke-dasharray="5,2" d="M822.322,-437.149C824.072,-442.258 832.964,-446.094 849,-446.094 874.031,-446.094 881.658,-436.747 871.88,-427.802"/>
<polygon fill="#9a32cd" stroke="#9a32cd" points="825.598,-438.384 826.12,-427.802 819.113,-435.749 825.598,-438.384"/>
<text text-anchor="middle" x="849" y="-463.094" font-family="FreeSans" font-size="10.00"> IDENTITY</text>
<text text-anchor="middle" x="849" y="-450.094" font-family="FreeSans" font-size="10.00">ZERO</text>
</g>
<!-- Node8&#45;&gt;Node13 -->
<g id="edge38" class="edge"><title>Node8&#45;&gt;Node13</title>
<path fill="none" stroke="#9a32cd" stroke-dasharray="5,2" d="M907.305,-405.035C949.895,-399.09 1007.99,-397.083 1054,-418.094 1089.45,-434.287 1115.04,-475.69 1125.62,-495.38"/>
<polygon fill="#9a32cd" stroke="#9a32cd" points="906.742,-401.581 897.375,-406.531 907.785,-408.502 906.742,-401.581"/>
<text text-anchor="middle" x="994" y="-422.094" font-family="FreeSans" font-size="10.00"> volumeTransform_</text>
</g>
<!-- Node9 -->
<g id="node19" class="node"><title>Node9</title>
<a xlink:href="class_urho3_d_1_1_p_o_d_vector.html" target="_top" xlink:title="Urho3D::PODVector\&lt;\l Urho3D::Light * \&gt;">
<polygon fill="none" stroke="black" points="479.5,-365.094 479.5,-399.094 598.5,-399.094 598.5,-365.094 479.5,-365.094"/>
<text text-anchor="start" x="487.5" y="-386.094" font-family="FreeSans" font-size="10.00">Urho3D::PODVector&lt;</text>
<text text-anchor="middle" x="539" y="-373.094" font-family="FreeSans" font-size="10.00"> Urho3D::Light * &gt;</text>
</a>
</g>
<!-- Node9&#45;&gt;Node3 -->
<g id="edge22" class="edge"><title>Node9&#45;&gt;Node3</title>
<path fill="none" stroke="#9a32cd" stroke-dasharray="5,2" d="M609.235,-373.335C658.351,-371.251 722.36,-377.218 764,-414.094 787.083,-434.536 764.812,-455.496 782,-481.094 793.816,-498.692 813.742,-512.716 828.799,-521.57"/>
<polygon fill="#9a32cd" stroke="#9a32cd" points="608.789,-369.854 598.994,-373.893 609.17,-376.843 608.789,-369.854"/>
<text text-anchor="middle" x="695" y="-431.094" font-family="FreeSans" font-size="10.00"> vertexLights_</text>
<text text-anchor="middle" x="695" y="-418.094" font-family="FreeSans" font-size="10.00">lights_</text>
</g>
<!-- Node10 -->
<g id="node21" class="node"><title>Node10</title>
<a xlink:href="class_urho3_d_1_1_vector_base.html" target="_top" xlink:title="Vector base class.">
<polygon fill="none" stroke="black" points="222,-344.594 222,-365.594 336,-365.594 336,-344.594 222,-344.594"/>
<text text-anchor="middle" x="279" y="-352.594" font-family="FreeSans" font-size="10.00">Urho3D::VectorBase</text>
</a>
</g>
<!-- Node10&#45;&gt;Node9 -->
<g id="edge24" class="edge"><title>Node10&#45;&gt;Node9</title>
<path fill="none" stroke="midnightblue" d="M346.013,-362.053C387.231,-366.333 439.589,-371.771 479.366,-375.901"/>
<polygon fill="midnightblue" stroke="midnightblue" points="346.366,-358.571 336.058,-361.019 345.643,-365.534 346.366,-358.571"/>
</g>
<!-- Node11 -->
<g id="node23" class="node"><title>Node11</title>
<a xlink:href="class_urho3_d_1_1_p_o_d_vector.html" target="_top" xlink:title="Urho3D::PODVector\&lt;\l Urho3D::Camera * \&gt;">
<polygon fill="none" stroke="black" points="479,-469.094 479,-503.094 599,-503.094 599,-469.094 479,-469.094"/>
<text text-anchor="start" x="487" y="-490.094" font-family="FreeSans" font-size="10.00">Urho3D::PODVector&lt;</text>
<text text-anchor="middle" x="539" y="-477.094" font-family="FreeSans" font-size="10.00"> Urho3D::Camera * &gt;</text>
</a>
</g>
<!-- Node10&#45;&gt;Node11 -->
<g id="edge28" class="edge"><title>Node10&#45;&gt;Node11</title>
<path fill="none" stroke="midnightblue" d="M301.175,-371.776C316.655,-383.036 338.04,-397.839 358,-409.094 405.643,-435.96 419.492,-439.106 470,-460.094 477.211,-463.091 484.903,-466.135 492.438,-469.035"/>
<polygon fill="midnightblue" stroke="midnightblue" points="302.927,-368.719 292.799,-365.609 298.777,-374.356 302.927,-368.719"/>
</g>
<!-- Node12 -->
<g id="node26" class="node"><title>Node12</title>
<a xlink:href="class_urho3_d_1_1_vector.html" target="_top" xlink:title="Urho3D::Vector\&lt; Urho3D\l::SourceBatch \&gt;">
<polygon fill="none" stroke="black" points="470,-417.094 470,-451.094 608,-451.094 608,-417.094 470,-417.094"/>
<text text-anchor="start" x="478" y="-438.094" font-family="FreeSans" font-size="10.00">Urho3D::Vector&lt; Urho3D</text>
<text text-anchor="middle" x="539" y="-425.094" font-family="FreeSans" font-size="10.00">::SourceBatch &gt;</text>
</a>
</g>
<!-- Node10&#45;&gt;Node12 -->
<g id="edge32" class="edge"><title>Node10&#45;&gt;Node12</title>
<path fill="none" stroke="midnightblue" d="M318.613,-369.062C331.166,-373.373 345.126,-378.047 358,-382.094 397.3,-394.447 441.761,-407.237 476.782,-417.041"/>
<polygon fill="midnightblue" stroke="midnightblue" points="319.49,-365.662 308.896,-365.702 317.203,-372.278 319.49,-365.662"/>
</g>
<!-- Node15 -->
<g id="node39" class="node"><title>Node15</title>
<a xlink:href="class_urho3_d_1_1_vector.html" target="_top" xlink:title="Urho3D::Vector\&lt; Urho3D\l::Billboard * \&gt;">
<polygon fill="none" stroke="black" points="626,-327.094 626,-361.094 764,-361.094 764,-327.094 626,-327.094"/>
<text text-anchor="start" x="634" y="-348.094" font-family="FreeSans" font-size="10.00">Urho3D::Vector&lt; Urho3D</text>
<text text-anchor="middle" x="695" y="-335.094" font-family="FreeSans" font-size="10.00">::Billboard * &gt;</text>
</a>
</g>
<!-- Node10&#45;&gt;Node15 -->
<g id="edge52" class="edge"><title>Node10&#45;&gt;Node15</title>
<path fill="none" stroke="midnightblue" d="M346.454,-353.31C423.275,-351.279 548.154,-347.977 625.725,-345.926"/>
<polygon fill="midnightblue" stroke="midnightblue" points="346.31,-349.813 336.406,-353.576 346.495,-356.81 346.31,-349.813"/>
</g>
<!-- Node19 -->
<g id="node48" class="node"><title>Node19</title>
<a xlink:href="class_urho3_d_1_1_p_o_d_vector.html" target="_top" xlink:title="Urho3D::PODVector\&lt;\l Urho3D::Billboard \&gt;">
<polygon fill="none" stroke="black" points="635.5,-282.094 635.5,-316.094 754.5,-316.094 754.5,-282.094 635.5,-282.094"/>
<text text-anchor="start" x="643.5" y="-303.094" font-family="FreeSans" font-size="10.00">Urho3D::PODVector&lt;</text>
<text text-anchor="middle" x="695" y="-290.094" font-family="FreeSans" font-size="10.00"> Urho3D::Billboard &gt;</text>
</a>
</g>
<!-- Node10&#45;&gt;Node19 -->
<g id="edge62" class="edge"><title>Node10&#45;&gt;Node19</title>
<path fill="none" stroke="midnightblue" d="M346.392,-346.022C426.521,-335.235 559.002,-317.402 635.495,-307.104"/>
<polygon fill="midnightblue" stroke="midnightblue" points="345.85,-342.563 336.406,-347.366 346.784,-349.501 345.85,-342.563"/>
</g>
<!-- Node23 -->
<g id="node59" class="node"><title>Node23</title>
<a xlink:href="class_urho3_d_1_1_p_o_d_vector.html" target="_top" xlink:title="Urho3D::PODVector\&lt;\l Urho3D::Particle \&gt;">
<polygon fill="none" stroke="black" points="934.5,-4.09406 934.5,-38.0941 1053.5,-38.0941 1053.5,-4.09406 934.5,-4.09406"/>
<text text-anchor="start" x="942.5" y="-25.0941" font-family="FreeSans" font-size="10.00">Urho3D::PODVector&lt;</text>
<text text-anchor="middle" x="994" y="-12.0941" font-family="FreeSans" font-size="10.00"> Urho3D::Particle &gt;</text>
</a>
</g>
<!-- Node10&#45;&gt;Node23 -->
<g id="edge76" class="edge"><title>Node10&#45;&gt;Node23</title>
<path fill="none" stroke="midnightblue" d="M285.648,-334.896C304.56,-281.019 364.234,-133.678 470,-70.0941 617.414,18.5284 831.374,3.30989 934.298,-10.9522"/>
<polygon fill="midnightblue" stroke="midnightblue" points="282.332,-333.778 282.408,-344.372 288.955,-336.043 282.332,-333.778"/>
</g>
<!-- Node11&#45;&gt;Node3 -->
<g id="edge26" class="edge"><title>Node11&#45;&gt;Node3</title>
<path fill="none" stroke="#9a32cd" stroke-dasharray="5,2" d="M609.449,-493.905C653.893,-499.146 712.439,-506.626 764,-515.094 775.435,-516.972 787.681,-519.258 799.215,-521.537"/>
<polygon fill="#9a32cd" stroke="#9a32cd" points="609.668,-490.407 599.329,-492.721 608.855,-497.359 609.668,-490.407"/>
<text text-anchor="middle" x="695" y="-519.094" font-family="FreeSans" font-size="10.00"> viewCameras_</text>
</g>
<!-- Node12&#45;&gt;Node3 -->
<g id="edge30" class="edge"><title>Node12&#45;&gt;Node3</title>
<path fill="none" stroke="#9a32cd" stroke-dasharray="5,2" d="M618.102,-442.819C662.158,-449.415 717.362,-460.603 764,-479.094 791.159,-489.862 819.279,-509.322 835.401,-521.429"/>
<polygon fill="#9a32cd" stroke="#9a32cd" points="618.418,-439.328 608.02,-441.36 617.415,-446.256 618.418,-439.328"/>
<text text-anchor="middle" x="695" y="-483.094" font-family="FreeSans" font-size="10.00"> batches_</text>
</g>
<!-- Node13&#45;&gt;Node3 -->
<g id="edge34" class="edge"><title>Node13&#45;&gt;Node3</title>
<path fill="none" stroke="#9a32cd" stroke-dasharray="5,2" d="M1079.05,-514.012C1070.69,-515.144 1062.11,-516.219 1054,-517.094 1002.2,-522.682 942.807,-526.775 901.33,-529.261"/>
<polygon fill="#9a32cd" stroke="#9a32cd" points="1079.68,-517.458 1089.1,-512.613 1078.72,-510.525 1079.68,-517.458"/>
<text text-anchor="middle" x="994" y="-530.094" font-family="FreeSans" font-size="10.00"> firstLight_</text>
</g>
<!-- Node14&#45;&gt;Node3 -->
<g id="edge42" class="edge"><title>Node14&#45;&gt;Node3</title>
<path fill="none" stroke="#9a32cd" stroke-dasharray="5,2" d="M595.426,-532.094C652.865,-532.094 741.173,-532.094 796.971,-532.094"/>
<polygon fill="#9a32cd" stroke="#9a32cd" points="595.075,-528.594 585.075,-532.094 595.075,-535.594 595.075,-528.594"/>
<text text-anchor="middle" x="695" y="-536.094" font-family="FreeSans" font-size="10.00"> octant_</text>
</g>
<!-- Node14&#45;&gt;Node14 -->
<g id="edge48" class="edge"><title>Node14&#45;&gt;Node14</title>
<path fill="none" stroke="#9a32cd" stroke-dasharray="5,2" d="M514.305,-552.521C516.21,-557.443 524.442,-561.094 539,-561.094 562.293,-561.094 569.39,-551.747 560.291,-542.802"/>
<polygon fill="#9a32cd" stroke="#9a32cd" points="517.707,-553.397 517.709,-542.802 511.1,-551.083 517.707,-553.397"/>
<text text-anchor="middle" x="539" y="-578.094" font-family="FreeSans" font-size="10.00"> parent_</text>
<text text-anchor="middle" x="539" y="-565.094" font-family="FreeSans" font-size="10.00">children_</text>
</g>
<!-- Node15&#45;&gt;Node2 -->
<g id="edge50" class="edge"><title>Node15&#45;&gt;Node2</title>
<path fill="none" stroke="#9a32cd" stroke-dasharray="5,2" d="M774.159,-337.623C847.81,-330.181 960.016,-315.189 1054,-287.094 1074.02,-281.109 1095.7,-271.201 1110.94,-263.621"/>
<polygon fill="#9a32cd" stroke="#9a32cd" points="773.636,-334.158 764.029,-338.624 774.324,-341.124 773.636,-334.158"/>
<text text-anchor="middle" x="849" y="-340.094" font-family="FreeSans" font-size="10.00"> sortedBillboards_</text>
</g>
<!-- Node16 -->
<g id="node42" class="node"><title>Node16</title>
<a xlink:href="class_urho3_d_1_1_vector_buffer.html" target="_top" xlink:title="Dynamically sized buffer that can be read and written to as a stream.">
<polygon fill="none" stroke="red" points="789.5,-99.5941 789.5,-120.594 908.5,-120.594 908.5,-99.5941 789.5,-99.5941"/>
<text text-anchor="middle" x="849" y="-107.594" font-family="FreeSans" font-size="10.00">Urho3D::VectorBuffer</text>
</a>
</g>
<!-- Node16&#45;&gt;Node2 -->
<g id="edge54" class="edge"><title>Node16&#45;&gt;Node2</title>
<path fill="none" stroke="#9a32cd" stroke-dasharray="5,2" d="M919.063,-108.991C961.044,-111.36 1013.88,-119.924 1054,-145.094 1092.43,-169.201 1117.31,-220.161 1126.74,-242.37"/>
<polygon fill="#9a32cd" stroke="#9a32cd" points="919.063,-105.488 908.913,-108.526 918.742,-112.48 919.063,-105.488"/>
<text text-anchor="middle" x="994" y="-149.094" font-family="FreeSans" font-size="10.00"> attrBuffer_</text>
</g>
<!-- Node17 -->
<g id="node44" class="node"><title>Node17</title>
<a xlink:href="class_urho3_d_1_1_deserializer.html" target="_top" xlink:title="Abstract stream for reading.">
<polygon fill="none" stroke="black" points="481,-119.594 481,-140.594 597,-140.594 597,-119.594 481,-119.594"/>
<text text-anchor="middle" x="539" y="-127.594" font-family="FreeSans" font-size="10.00">Urho3D::Deserializer</text>
</a>
</g>
<!-- Node17&#45;&gt;Node16 -->
<g id="edge56" class="edge"><title>Node17&#45;&gt;Node16</title>
<path fill="none" stroke="midnightblue" d="M607.565,-125.671C662.019,-122.157 737.395,-117.294 789.369,-113.941"/>
<polygon fill="midnightblue" stroke="midnightblue" points="607.063,-122.196 597.309,-126.332 607.513,-129.181 607.063,-122.196"/>
</g>
<!-- Node18 -->
<g id="node46" class="node"><title>Node18</title>
<a xlink:href="class_urho3_d_1_1_serializer.html" target="_top" xlink:title="Abstract stream for writing.">
<polygon fill="none" stroke="black" points="487,-79.5941 487,-100.594 591,-100.594 591,-79.5941 487,-79.5941"/>
<text text-anchor="middle" x="539" y="-87.5941" font-family="FreeSans" font-size="10.00">Urho3D::Serializer</text>
</a>
</g>
<!-- Node18&#45;&gt;Node16 -->
<g id="edge58" class="edge"><title>Node18&#45;&gt;Node16</title>
<path fill="none" stroke="midnightblue" d="M601.518,-94.1275C656.327,-97.6636 735.458,-102.769 789.386,-106.248"/>
<polygon fill="midnightblue" stroke="midnightblue" points="601.441,-90.6153 591.237,-93.4642 600.991,-97.6008 601.441,-90.6153"/>
</g>
<!-- Node19&#45;&gt;Node2 -->
<g id="edge60" class="edge"><title>Node19&#45;&gt;Node2</title>
<path fill="none" stroke="#9a32cd" stroke-dasharray="5,2" d="M764.95,-294.75C837.454,-289.804 953.969,-280.618 1054,-267.094 1061.27,-266.111 1068.9,-264.92 1076.41,-263.652"/>
<polygon fill="#9a32cd" stroke="#9a32cd" points="764.321,-291.284 754.579,-295.449 764.792,-298.268 764.321,-291.284"/>
<text text-anchor="middle" x="849" y="-297.094" font-family="FreeSans" font-size="10.00"> billboards_</text>
</g>
<!-- Node20 -->
<g id="node52" class="node"><title>Node20</title>
<a xlink:href="class_urho3_d_1_1_shared_ptr.html" target="_top" xlink:title="Urho3D::SharedPtr\&lt;\l Urho3D::IndexBuffer \&gt;">
<polygon fill="none" stroke="red" points="785,-47.0941 785,-81.0941 913,-81.0941 913,-47.0941 785,-47.0941"/>
<text text-anchor="start" x="793" y="-68.0941" font-family="FreeSans" font-size="10.00">Urho3D::SharedPtr&lt;</text>
<text text-anchor="middle" x="849" y="-55.0941" font-family="FreeSans" font-size="10.00"> Urho3D::IndexBuffer &gt;</text>
</a>
</g>
<!-- Node20&#45;&gt;Node2 -->
<g id="edge66" class="edge"><title>Node20&#45;&gt;Node2</title>
<path fill="none" stroke="#9a32cd" stroke-dasharray="5,2" d="M923.504,-57.8666C965.633,-58.165 1017.09,-65.3726 1054,-93.0941 1069.59,-104.802 1063.7,-115.455 1072,-133.094 1091.18,-173.844 1115.17,-221.746 1125.67,-242.558"/>
<polygon fill="#9a32cd" stroke="#9a32cd" points="923.266,-54.3678 913.287,-57.926 923.307,-61.3677 923.266,-54.3678"/>
<text text-anchor="middle" x="994" y="-97.0941" font-family="FreeSans" font-size="10.00"> indexBuffer_</text>
</g>
<!-- Node21 -->
<g id="node54" class="node"><title>Node21</title>
<a xlink:href="class_urho3_d_1_1_shared_ptr.html" target="_top" xlink:title="Urho3D::SharedPtr\&lt;\l Urho3D::Geometry \&gt;">
<polygon fill="none" stroke="red" points="788,-191.094 788,-225.094 910,-225.094 910,-191.094 788,-191.094"/>
<text text-anchor="start" x="796" y="-212.094" font-family="FreeSans" font-size="10.00">Urho3D::SharedPtr&lt;</text>
<text text-anchor="middle" x="849" y="-199.094" font-family="FreeSans" font-size="10.00"> Urho3D::Geometry &gt;</text>
</a>
</g>
<!-- Node21&#45;&gt;Node2 -->
<g id="edge68" class="edge"><title>Node21&#45;&gt;Node2</title>
<path fill="none" stroke="#9a32cd" stroke-dasharray="5,2" d="M920.268,-209.985C959.991,-212.126 1010.15,-216.636 1054,-226.094 1071.73,-229.917 1090.98,-236.667 1105.79,-242.461"/>
<polygon fill="#9a32cd" stroke="#9a32cd" points="920.305,-206.482 910.142,-209.478 919.955,-213.474 920.305,-206.482"/>
<text text-anchor="middle" x="994" y="-230.094" font-family="FreeSans" font-size="10.00"> geometry_</text>
</g>
<!-- Node22 -->
<g id="node56" class="node"><title>Node22</title>
<a xlink:href="class_urho3_d_1_1_shared_ptr.html" target="_top" xlink:title="Urho3D::SharedPtr\&lt;\l Urho3D::VertexBuffer \&gt;">
<polygon fill="none" stroke="red" points="782.5,-139.094 782.5,-173.094 915.5,-173.094 915.5,-139.094 782.5,-139.094"/>
<text text-anchor="start" x="790.5" y="-160.094" font-family="FreeSans" font-size="10.00">Urho3D::SharedPtr&lt;</text>
<text text-anchor="middle" x="849" y="-147.094" font-family="FreeSans" font-size="10.00"> Urho3D::VertexBuffer &gt;</text>
</a>
</g>
<!-- Node22&#45;&gt;Node2 -->
<g id="edge70" class="edge"><title>Node22&#45;&gt;Node2</title>
<path fill="none" stroke="#9a32cd" stroke-dasharray="5,2" d="M925.699,-161.11C965.359,-165.863 1013.75,-175.109 1054,-193.094 1080.92,-205.125 1106.82,-228.52 1120.65,-242.273"/>
<polygon fill="#9a32cd" stroke="#9a32cd" points="925.88,-157.609 915.551,-159.969 925.097,-164.565 925.88,-157.609"/>
<text text-anchor="middle" x="994" y="-197.094" font-family="FreeSans" font-size="10.00"> vertexBuffer_</text>
</g>
<!-- Node23&#45;&gt;Node1 -->
<g id="edge74" class="edge"><title>Node23&#45;&gt;Node1</title>
<path fill="none" stroke="#9a32cd" stroke-dasharray="5,2" d="M1037.72,-43.0388C1043.31,-46.2384 1048.86,-49.6284 1054,-53.0941 1148.2,-116.626 1248.68,-210.508 1281.75,-242.196"/>
<polygon fill="#9a32cd" stroke="#9a32cd" points="1039.42,-39.9789 1028.98,-38.1839 1036.02,-46.0987 1039.42,-39.9789"/>
<text text-anchor="middle" x="1131" y="-160.094" font-family="FreeSans" font-size="10.00"> particles_</text>
</g>
<!-- Node24 -->
<g id="node62" class="node"><title>Node24</title>
<a xlink:href="class_urho3_d_1_1_shared_ptr.html" target="_top" xlink:title="Urho3D::SharedPtr\&lt;\l Urho3D::ParticleEffect \&gt;">
<polygon fill="none" stroke="black" points="627.5,-738.094 627.5,-772.094 762.5,-772.094 762.5,-738.094 627.5,-738.094"/>
<text text-anchor="start" x="635.5" y="-759.094" font-family="FreeSans" font-size="10.00">Urho3D::SharedPtr&lt;</text>
<text text-anchor="middle" x="695" y="-746.094" font-family="FreeSans" font-size="10.00"> Urho3D::ParticleEffect &gt;</text>
</a>
</g>
<!-- Node24&#45;&gt;Node1 -->
<g id="edge78" class="edge"><title>Node24&#45;&gt;Node1</title>
<path fill="none" stroke="#9a32cd" stroke-dasharray="5,2" d="M773.02,-764.587C848.23,-770.421 963.62,-770.476 1054,-731.094 1250.06,-645.665 1286.82,-326.559 1292.19,-263.835"/>
<polygon fill="#9a32cd" stroke="#9a32cd" points="772.936,-761.069 762.681,-763.729 772.357,-768.045 772.936,-761.069"/>
<text text-anchor="middle" x="994" y="-765.094" font-family="FreeSans" font-size="10.00"> effect_</text>
</g>
<!-- Node25&#45;&gt;Node24 -->
<g id="edge80" class="edge"><title>Node25&#45;&gt;Node24</title>
<path fill="none" stroke="#9a32cd" stroke-dasharray="5,2" d="M310.898,-715.641C325.037,-721.448 342.052,-727.578 358,-731.094 449.79,-751.332 558.716,-755.638 627.356,-756.027"/>
<polygon fill="#9a32cd" stroke="#9a32cd" points="312.19,-712.388 301.617,-711.709 309.46,-718.833 312.19,-712.388"/>
<text text-anchor="middle" x="405" y="-749.094" font-family="FreeSans" font-size="10.00"> ptr_</text>
</g>
</g>
</svg>
