<?xml version="1.0" encoding="UTF-8" standalone="no"?>
<!DOCTYPE svg PUBLIC "-//W3C//DTD SVG 1.1//EN"
 "http://www.w3.org/Graphics/SVG/1.1/DTD/svg11.dtd">
<!-- Generated by graphviz version 2.43.0 (0)
 -->
<!-- Title: Source/Urho3D/Input Pages: 1 -->
<svg width="182pt" height="223pt"
 viewBox="0.00 0.00 182.00 223.00" xmlns="http://www.w3.org/2000/svg" xmlns:xlink="http://www.w3.org/1999/xlink">
<g id="graph0" class="graph" transform="scale(1 1) rotate(0) translate(4 219)">
<title>Source/Urho3D/Input</title>
<g id="clust1" class="cluster">
<title>clusterdir_254f5dc83c613aac4a45a9941d3165f4</title>
<g id="a_clust1"><a xlink:href="dir_254f5dc83c613aac4a45a9941d3165f4.html" target="_top" xlink:title="Urho3D">
<polygon fill="#ddddee" stroke="black" points="40,-136 40,-207 110,-207 110,-136 40,-136"/>
<text text-anchor="middle" x="75" y="-195" font-family="Helvetica,sans-Serif" font-size="10.00">Urho3D</text>
</a>
</g>
</g>
<!-- dir_4efb128f65960c64f5a4f317d40f1ce7 -->
<g id="node1" class="node">
<title>dir_4efb128f65960c64f5a4f317d40f1ce7</title>
<g id="a_node1"><a xlink:href="dir_4efb128f65960c64f5a4f317d40f1ce7.html" target="_top" xlink:title="Input">
<polygon fill="#eeeeff" stroke="black" points="102,-180 48,-180 48,-144 102,-144 102,-180"/>
<text text-anchor="middle" x="75" y="-159.5" font-family="Helvetica,sans-Serif" font-size="10.00">Input</text>
</a>
</g>
</g>
<!-- dir_53df83d7960db824e11408b8bebd620b -->
<g id="node2" class="node">
<title>dir_53df83d7960db824e11408b8bebd620b</title>
<g id="a_node2"><a xlink:href="dir_53df83d7960db824e11408b8bebd620b.html" target="_top" xlink:title="Math">
<polygon fill="none" stroke="black" points="54,-108 0,-108 0,-72 54,-72 54,-108"/>
<text text-anchor="middle" x="27" y="-87.5" font-family="Helvetica,sans-Serif" font-size="10.00">Math</text>
</a>
</g>
</g>
<!-- dir_4efb128f65960c64f5a4f317d40f1ce7&#45;&gt;dir_53df83d7960db824e11408b8bebd620b -->
<g id="edge4" class="edge">
<title>dir_4efb128f65960c64f5a4f317d40f1ce7&#45;&gt;dir_53df83d7960db824e11408b8bebd620b</title>
<path fill="none" stroke="black" d="M63.13,-143.7C57.5,-135.47 50.65,-125.48 44.43,-116.42"/>
<polygon fill="black" stroke="black" points="47.27,-114.37 38.73,-108.1 41.5,-118.33 47.27,-114.37"/>
<g id="a_edge4&#45;headlabel"><a xlink:href="dir_000019_000022.html" target="_top" xlink:title="1">
<text text-anchor="middle" x="51.65" y="-113.23" font-family="Helvetica,sans-Serif" font-size="10.00">1</text>
</a>
</g>
</g>
<!-- dir_561d7927a8a40d54e996309e2c764a4d -->
<g id="node3" class="node">
<title>dir_561d7927a8a40d54e996309e2c764a4d</title>
<g id="a_node3"><a xlink:href="dir_561d7927a8a40d54e996309e2c764a4d.html" target="_top" xlink:title="Resource">
<polygon fill="none" stroke="black" points="172,-108 110,-108 110,-72 172,-72 172,-108"/>
<text text-anchor="middle" x="141" y="-87.5" font-family="Helvetica,sans-Serif" font-size="10.00">Resource</text>
</a>
</g>
</g>
<!-- dir_4efb128f65960c64f5a4f317d40f1ce7&#45;&gt;dir_561d7927a8a40d54e996309e2c764a4d -->
<g id="edge5" class="edge">
<title>dir_4efb128f65960c64f5a4f317d40f1ce7&#45;&gt;dir_561d7927a8a40d54e996309e2c764a4d</title>
<path fill="none" stroke="black" d="M91.31,-143.7C99.31,-135.22 109.07,-124.86 117.82,-115.58"/>
<polygon fill="black" stroke="black" points="120.56,-117.78 124.87,-108.1 115.47,-112.98 120.56,-117.78"/>
<g id="a_edge5&#45;headlabel"><a xlink:href="dir_000019_000026.html" target="_top" xlink:title="1">
<text text-anchor="middle" x="120.16" y="-119.84" font-family="Helvetica,sans-Serif" font-size="10.00">1</text>
</a>
</g>
</g>
<!-- dir_ee6d1758829962e826b9f262c35102e3 -->
<g id="node4" class="node">
<title>dir_ee6d1758829962e826b9f262c35102e3</title>
<g id="a_node4"><a xlink:href="dir_ee6d1758829962e826b9f262c35102e3.html" target="_top" xlink:title="UI">
<polygon fill="none" stroke="black" points="174,-180 120,-180 120,-144 174,-144 174,-180"/>
<text text-anchor="middle" x="147" y="-159.5" font-family="Helvetica,sans-Serif" font-size="10.00">UI</text>
</a>
</g>
</g>
<!-- dir_4efb128f65960c64f5a4f317d40f1ce7&#45;&gt;dir_ee6d1758829962e826b9f262c35102e3 -->
<g id="edge6" class="edge">
<title>dir_4efb128f65960c64f5a4f317d40f1ce7&#45;&gt;dir_ee6d1758829962e826b9f262c35102e3</title>
<path fill="none" stroke="black" d="M102.28,-162C104.74,-162 107.19,-162 109.65,-162"/>
<polygon fill="black" stroke="black" points="109.75,-165.5 119.75,-162 109.75,-158.5 109.75,-165.5"/>
<g id="a_edge6&#45;headlabel"><a xlink:href="dir_000019_000028.html" target="_top" xlink:title="3">
<text text-anchor="middle" x="106.15" y="-165.84" font-family="Helvetica,sans-Serif" font-size="10.00">3</text>
</a>
</g>
</g>
<!-- dir_4e5d8950ce7828572856a10542d32daa -->
<g id="node5" class="node">
<title>dir_4e5d8950ce7828572856a10542d32daa</title>
<g id="a_node5"><a xlink:href="dir_4e5d8950ce7828572856a10542d32daa.html" target="_top" xlink:title="Core">
<polygon fill="none" stroke="black" points="138,-36 84,-36 84,0 138,0 138,-36"/>
<text text-anchor="middle" x="111" y="-15.5" font-family="Helvetica,sans-Serif" font-size="10.00">Core</text>
</a>
</g>
</g>
<!-- dir_4efb128f65960c64f5a4f317d40f1ce7&#45;&gt;dir_4e5d8950ce7828572856a10542d32daa -->
<g id="edge7" class="edge">
<title>dir_4efb128f65960c64f5a4f317d40f1ce7&#45;&gt;dir_4e5d8950ce7828572856a10542d32daa</title>
<path fill="none" stroke="black" d="M79.34,-143.87C85.5,-119.56 96.85,-74.82 104.15,-46.01"/>
<polygon fill="black" stroke="black" points="107.58,-46.74 106.64,-36.19 100.79,-45.02 107.58,-46.74"/>
<g id="a_edge7&#45;headlabel"><a xlink:href="dir_000019_000011.html" target="_top" xlink:title="1">
<text text-anchor="middle" x="109.45" y="-48.42" font-family="Helvetica,sans-Serif" font-size="10.00">1</text>
</a>
</g>
</g>
<!-- dir_561d7927a8a40d54e996309e2c764a4d&#45;&gt;dir_4e5d8950ce7828572856a10542d32daa -->
<g id="edge1" class="edge">
<title>dir_561d7927a8a40d54e996309e2c764a4d&#45;&gt;dir_4e5d8950ce7828572856a10542d32daa</title>
<path fill="none" stroke="black" d="M133.58,-71.7C130.21,-63.81 126.13,-54.3 122.38,-45.55"/>
<polygon fill="black" stroke="black" points="125.49,-43.92 118.33,-36.1 119.05,-46.67 125.49,-43.92"/>
<g id="a_edge1&#45;headlabel"><a xlink:href="dir_000026_000011.html" target="_top" xlink:title="2">
<text text-anchor="middle" x="129.51" y="-43.6" font-family="Helvetica,sans-Serif" font-size="10.00">2</text>
</a>
</g>
</g>
<!-- dir_ee6d1758829962e826b9f262c35102e3&#45;&gt;dir_4efb128f65960c64f5a4f317d40f1ce7 -->
<g id="edge3" class="edge">
<title>dir_ee6d1758829962e826b9f262c35102e3&#45;&gt;dir_4efb128f65960c64f5a4f317d40f1ce7</title>
<path fill="none" stroke="black" d="M119.75,-162C117.29,-162 114.84,-162 112.38,-162"/>
<polygon fill="black" stroke="black" points="112.28,-158.5 102.28,-162 112.28,-165.5 112.28,-158.5"/>
<g id="a_edge3&#45;headlabel"><a xlink:href="dir_000028_000019.html" target="_top" xlink:title="5">
<text text-anchor="middle" x="115.88" y="-153.16" font-family="Helvetica,sans-Serif" font-size="10.00">5</text>
</a>
</g>
</g>
<!-- dir_ee6d1758829962e826b9f262c35102e3&#45;&gt;dir_561d7927a8a40d54e996309e2c764a4d -->
<g id="edge2" class="edge">
<title>dir_ee6d1758829962e826b9f262c35102e3&#45;&gt;dir_561d7927a8a40d54e996309e2c764a4d</title>
<path fill="none" stroke="black" d="M145.52,-143.7C144.86,-135.98 144.06,-126.71 143.32,-118.11"/>
<polygon fill="black" stroke="black" points="146.81,-117.77 142.47,-108.1 139.83,-118.37 146.81,-117.77"/>
<g id="a_edge2&#45;headlabel"><a xlink:href="dir_000028_000026.html" target="_top" xlink:title="14">
<text text-anchor="middle" x="149.94" y="-118.61" font-family="Helvetica,sans-Serif" font-size="10.00">14</text>
</a>
</g>
</g>
</g>
</svg>
