<?xml version="1.0" encoding="UTF-8" standalone="no"?>
<!DOCTYPE svg PUBLIC "-//W3C//DTD SVG 1.1//EN"
 "http://www.w3.org/Graphics/SVG/1.1/DTD/svg11.dtd">
<!-- Generated by graphviz version 2.40.1 (20161225.0304)
 -->
<!-- Title: Source/Urho3D Pages: 1 -->
<svg width="766pt" height="615pt"
 viewBox="0.00 0.00 766.00 615.00" xmlns="http://www.w3.org/2000/svg" xmlns:xlink="http://www.w3.org/1999/xlink">
<g id="graph0" class="graph" transform="scale(1 1) rotate(0) translate(4 611)">
<title>Source/Urho3D</title>
<g id="clust1" class="cluster">
<title>clusterdir_74389ed8173ad57b461b9d623a1f3867</title>
<g id="a_clust1"><a xlink:href="dir_74389ed8173ad57b461b9d623a1f3867.html" target="_top" xlink:title="Source">
<polygon fill="#ddddee" stroke="#000000" points="8,-8 8,-599 750,-599 750,-8 8,-8"/>
<text text-anchor="middle" x="379" y="-587" font-family="Helvetica,sans-Serif" font-size="10.00" fill="#000000">Source</text>
</a>
</g>
</g>
<g id="clust2" class="cluster">
<title>clusterdir_254f5dc83c613aac4a45a9941d3165f4</title>
<g id="a_clust2"><a xlink:href="dir_254f5dc83c613aac4a45a9941d3165f4.html" target="_top">
<polygon fill="#eeeeff" stroke="#000000" points="16,-16 16,-572 742,-572 742,-16 16,-16"/>
</a>
</g>
</g>
<!-- dir_254f5dc83c613aac4a45a9941d3165f4 -->
<g id="node1" class="node">
<title>dir_254f5dc83c613aac4a45a9941d3165f4</title>
<text text-anchor="middle" x="707" y="-543.5" font-family="Helvetica,sans-Serif" font-size="10.00" fill="#000000">Urho3D</text>
</g>
<!-- dir_06e9c2ed922cabaad78aff669900e63f -->
<g id="node2" class="node">
<title>dir_06e9c2ed922cabaad78aff669900e63f</title>
<g id="a_node2"><a xlink:href="dir_06e9c2ed922cabaad78aff669900e63f.html" target="_top" xlink:title="AngelScript">
<polygon fill="#ffffff" stroke="#000000" points="476,-348 404,-348 404,-312 476,-312 476,-348"/>
<text text-anchor="middle" x="440" y="-327.5" font-family="Helvetica,sans-Serif" font-size="10.00" fill="#000000">AngelScript</text>
</a>
</g>
</g>
<!-- dir_561d7927a8a40d54e996309e2c764a4d -->
<g id="node18" class="node">
<title>dir_561d7927a8a40d54e996309e2c764a4d</title>
<g id="a_node18"><a xlink:href="dir_561d7927a8a40d54e996309e2c764a4d.html" target="_top" xlink:title="Resource">
<polygon fill="#ffffff" stroke="#000000" points="351.5,-204 290.5,-204 290.5,-168 351.5,-168 351.5,-204"/>
<text text-anchor="middle" x="321" y="-183.5" font-family="Helvetica,sans-Serif" font-size="10.00" fill="#000000">Resource</text>
</a>
</g>
</g>
<!-- dir_06e9c2ed922cabaad78aff669900e63f&#45;&gt;dir_561d7927a8a40d54e996309e2c764a4d -->
<g id="edge43" class="edge">
<title>dir_06e9c2ed922cabaad78aff669900e63f&#45;&gt;dir_561d7927a8a40d54e996309e2c764a4d</title>
<path fill="none" stroke="#000000" d="M424.9286,-311.7623C404.0949,-286.5518 366.3773,-240.9103 342.5647,-212.0952"/>
<polygon fill="#000000" stroke="#000000" points="345.0173,-209.5685 335.9491,-204.0896 339.6213,-214.0277 345.0173,-209.5685"/>
<g id="a_edge43&#45;headlabel"><a xlink:href="dir_000002_000021.html" target="_top" xlink:title="4">
<text text-anchor="middle" x="349.4957" y="-208.0308" font-family="Helvetica,sans-Serif" font-size="10.00" fill="#000000">4</text>
</a>
</g>
</g>
<!-- dir_f107037b8850a7d09c856996640cb9e6 -->
<g id="node19" class="node">
<title>dir_f107037b8850a7d09c856996640cb9e6</title>
<g id="a_node19"><a xlink:href="dir_f107037b8850a7d09c856996640cb9e6.html" target="_top" xlink:title="Scene">
<polygon fill="#ffffff" stroke="#000000" points="467,-276 413,-276 413,-240 467,-240 467,-276"/>
<text text-anchor="middle" x="440" y="-255.5" font-family="Helvetica,sans-Serif" font-size="10.00" fill="#000000">Scene</text>
</a>
</g>
</g>
<!-- dir_06e9c2ed922cabaad78aff669900e63f&#45;&gt;dir_f107037b8850a7d09c856996640cb9e6 -->
<g id="edge42" class="edge">
<title>dir_06e9c2ed922cabaad78aff669900e63f&#45;&gt;dir_f107037b8850a7d09c856996640cb9e6</title>
<path fill="none" stroke="#000000" d="M440,-311.8314C440,-304.131 440,-294.9743 440,-286.4166"/>
<polygon fill="#000000" stroke="#000000" points="443.5001,-286.4132 440,-276.4133 436.5001,-286.4133 443.5001,-286.4132"/>
<g id="a_edge42&#45;headlabel"><a xlink:href="dir_000002_000022.html" target="_top" xlink:title="3">
<text text-anchor="middle" x="446.3393" y="-287.5079" font-family="Helvetica,sans-Serif" font-size="10.00" fill="#000000">3</text>
</a>
</g>
</g>
<!-- dir_6fa1b99c12a4a13b65d0edbff0320c44 -->
<g id="node3" class="node">
<title>dir_6fa1b99c12a4a13b65d0edbff0320c44</title>
<g id="a_node3"><a xlink:href="dir_6fa1b99c12a4a13b65d0edbff0320c44.html" target="_top" xlink:title="Audio">
<polygon fill="#ffffff" stroke="#000000" points="386,-348 332,-348 332,-312 386,-312 386,-348"/>
<text text-anchor="middle" x="359" y="-327.5" font-family="Helvetica,sans-Serif" font-size="10.00" fill="#000000">Audio</text>
</a>
</g>
</g>
<!-- dir_6fa1b99c12a4a13b65d0edbff0320c44&#45;&gt;dir_561d7927a8a40d54e996309e2c764a4d -->
<g id="edge47" class="edge">
<title>dir_6fa1b99c12a4a13b65d0edbff0320c44&#45;&gt;dir_561d7927a8a40d54e996309e2c764a4d</title>
<path fill="none" stroke="#000000" d="M354.1873,-311.7623C347.6773,-287.0928 336.0047,-242.8598 328.3818,-213.9731"/>
<polygon fill="#000000" stroke="#000000" points="331.7094,-212.8656 325.7736,-204.0896 324.9411,-214.6517 331.7094,-212.8656"/>
<g id="a_edge47&#45;headlabel"><a xlink:href="dir_000003_000021.html" target="_top" xlink:title="3">
<text text-anchor="middle" x="335.3718" y="-213.1168" font-family="Helvetica,sans-Serif" font-size="10.00" fill="#000000">3</text>
</a>
</g>
</g>
<!-- dir_6fa1b99c12a4a13b65d0edbff0320c44&#45;&gt;dir_f107037b8850a7d09c856996640cb9e6 -->
<g id="edge46" class="edge">
<title>dir_6fa1b99c12a4a13b65d0edbff0320c44&#45;&gt;dir_f107037b8850a7d09c856996640cb9e6</title>
<path fill="none" stroke="#000000" d="M379.4397,-311.8314C389.3205,-303.0485 401.3324,-292.3712 412.045,-282.8489"/>
<polygon fill="#000000" stroke="#000000" points="414.418,-285.4224 419.5668,-276.1628 409.7674,-280.1906 414.418,-285.4224"/>
<g id="a_edge46&#45;headlabel"><a xlink:href="dir_000003_000022.html" target="_top" xlink:title="4">
<text text-anchor="middle" x="413.6177" y="-287.4326" font-family="Helvetica,sans-Serif" font-size="10.00" fill="#000000">4</text>
</a>
</g>
</g>
<!-- dir_bd96d631e44c45c3664d5ff4048bf1f2 -->
<g id="node4" class="node">
<title>dir_bd96d631e44c45c3664d5ff4048bf1f2</title>
<g id="a_node4"><a xlink:href="dir_bd96d631e44c45c3664d5ff4048bf1f2.html" target="_top" xlink:title="Base">
<polygon fill="#ffffff" stroke="#000000" points="662,-564 608,-564 608,-528 662,-528 662,-564"/>
<text text-anchor="middle" x="635" y="-543.5" font-family="Helvetica,sans-Serif" font-size="10.00" fill="#000000">Base</text>
</a>
</g>
</g>
<!-- dir_2892fa4eac3a971fa207357899090240 -->
<g id="node5" class="node">
<title>dir_2892fa4eac3a971fa207357899090240</title>
<g id="a_node5"><a xlink:href="dir_2892fa4eac3a971fa207357899090240.html" target="_top" xlink:title="Container">
<polygon fill="#ffffff" stroke="#000000" points="590,-564 526,-564 526,-528 590,-528 590,-564"/>
<text text-anchor="middle" x="558" y="-543.5" font-family="Helvetica,sans-Serif" font-size="10.00" fill="#000000">Container</text>
</a>
</g>
</g>
<!-- dir_4e5d8950ce7828572856a10542d32daa -->
<g id="node6" class="node">
<title>dir_4e5d8950ce7828572856a10542d32daa</title>
<g id="a_node6"><a xlink:href="dir_4e5d8950ce7828572856a10542d32daa.html" target="_top" xlink:title="Core">
<polygon fill="#ffffff" stroke="#000000" points="371,-60 317,-60 317,-24 371,-24 371,-60"/>
<text text-anchor="middle" x="344" y="-39.5" font-family="Helvetica,sans-Serif" font-size="10.00" fill="#000000">Core</text>
</a>
</g>
</g>
<!-- dir_846c32220fce8a5a8e702a2b5d449ce5 -->
<g id="node7" class="node">
<title>dir_846c32220fce8a5a8e702a2b5d449ce5</title>
<g id="a_node7"><a xlink:href="dir_846c32220fce8a5a8e702a2b5d449ce5.html" target="_top" xlink:title="Database">
<polygon fill="#ffffff" stroke="#ff0000" points="473.5,-132 410.5,-132 410.5,-96 473.5,-96 473.5,-132"/>
<text text-anchor="middle" x="442" y="-111.5" font-family="Helvetica,sans-Serif" font-size="10.00" fill="#000000">Database</text>
</a>
</g>
</g>
<!-- dir_846c32220fce8a5a8e702a2b5d449ce5&#45;&gt;dir_4e5d8950ce7828572856a10542d32daa -->
<g id="edge5" class="edge">
<title>dir_846c32220fce8a5a8e702a2b5d449ce5&#45;&gt;dir_4e5d8950ce7828572856a10542d32daa</title>
<path fill="none" stroke="#000000" d="M417.2705,-95.8314C405.0838,-86.8779 390.2177,-75.9558 377.0688,-66.2955"/>
<polygon fill="#000000" stroke="#000000" points="378.8527,-63.263 368.7216,-60.1628 374.7082,-68.9042 378.8527,-63.263"/>
<g id="a_edge5&#45;headlabel"><a xlink:href="dir_000007_000006.html" target="_top" xlink:title="2">
<text text-anchor="middle" x="383.4306" y="-60.6032" font-family="Helvetica,sans-Serif" font-size="10.00" fill="#000000">2</text>
</a>
</g>
</g>
<!-- dir_654e36da17c29576cc104b20606f4061 -->
<g id="node8" class="node">
<title>dir_654e36da17c29576cc104b20606f4061</title>
<g id="a_node8"><a xlink:href="dir_654e36da17c29576cc104b20606f4061.html" target="_top" xlink:title="Engine">
<polygon fill="#ffffff" stroke="#000000" points="508,-564 454,-564 454,-528 508,-528 508,-564"/>
<text text-anchor="middle" x="481" y="-543.5" font-family="Helvetica,sans-Serif" font-size="10.00" fill="#000000">Engine</text>
</a>
</g>
</g>
<!-- dir_0b08ad81b2411064c424e6b216671a38 -->
<g id="node9" class="node">
<title>dir_0b08ad81b2411064c424e6b216671a38</title>
<g id="a_node9"><a xlink:href="dir_0b08ad81b2411064c424e6b216671a38.html" target="_top" xlink:title="Graphics">
<polygon fill="#ffffff" stroke="#ff0000" points="613.5,-348 554.5,-348 554.5,-312 613.5,-312 613.5,-348"/>
<text text-anchor="middle" x="584" y="-327.5" font-family="Helvetica,sans-Serif" font-size="10.00" fill="#000000">Graphics</text>
</a>
</g>
</g>
<!-- dir_654e36da17c29576cc104b20606f4061&#45;&gt;dir_0b08ad81b2411064c424e6b216671a38 -->
<g id="edge10" class="edge">
<title>dir_654e36da17c29576cc104b20606f4061&#45;&gt;dir_0b08ad81b2411064c424e6b216671a38</title>
<path fill="none" stroke="#000000" d="M504.9845,-527.762C531.848,-505.6664 573.867,-465.6767 591,-420 598.4423,-400.1587 596.07,-376.1692 592.1746,-357.9487"/>
<polygon fill="#000000" stroke="#000000" points="595.5772,-357.1284 589.8375,-348.223 588.771,-358.764 595.5772,-357.1284"/>
<g id="a_edge10&#45;headlabel"><a xlink:href="dir_000010_000011.html" target="_top" xlink:title="2">
<text text-anchor="middle" x="599.1777" y="-357.4601" font-family="Helvetica,sans-Serif" font-size="10.00" fill="#000000">2</text>
</a>
</g>
</g>
<!-- dir_4efb128f65960c64f5a4f317d40f1ce7 -->
<g id="node11" class="node">
<title>dir_4efb128f65960c64f5a4f317d40f1ce7</title>
<g id="a_node11"><a xlink:href="dir_4efb128f65960c64f5a4f317d40f1ce7.html" target="_top" xlink:title="Input">
<polygon fill="#ffffff" stroke="#000000" points="422,-492 368,-492 368,-456 422,-456 422,-492"/>
<text text-anchor="middle" x="395" y="-471.5" font-family="Helvetica,sans-Serif" font-size="10.00" fill="#000000">Input</text>
</a>
</g>
</g>
<!-- dir_654e36da17c29576cc104b20606f4061&#45;&gt;dir_4efb128f65960c64f5a4f317d40f1ce7 -->
<g id="edge9" class="edge">
<title>dir_654e36da17c29576cc104b20606f4061&#45;&gt;dir_4efb128f65960c64f5a4f317d40f1ce7</title>
<path fill="none" stroke="#000000" d="M459.2986,-527.8314C448.8079,-519.0485 436.0545,-508.3712 424.6806,-498.8489"/>
<polygon fill="#000000" stroke="#000000" points="426.6089,-495.8986 416.6945,-492.1628 422.1153,-501.2659 426.6089,-495.8986"/>
<g id="a_edge9&#45;headlabel"><a xlink:href="dir_000010_000014.html" target="_top" xlink:title="2">
<text text-anchor="middle" x="431.1877" y="-493.529" font-family="Helvetica,sans-Serif" font-size="10.00" fill="#000000">2</text>
</a>
</g>
</g>
<!-- dir_654e36da17c29576cc104b20606f4061&#45;&gt;dir_561d7927a8a40d54e996309e2c764a4d -->
<g id="edge7" class="edge">
<title>dir_654e36da17c29576cc104b20606f4061&#45;&gt;dir_561d7927a8a40d54e996309e2c764a4d</title>
<path fill="none" stroke="#000000" d="M508.0132,-531.5504C527.9848,-520.7984 555.7978,-505.68 580,-492 642.1342,-456.8793 713,-473.3731 713,-402 713,-402 713,-402 713,-330 713,-255.7745 462.2329,-208.1646 361.8358,-192.0778"/>
<polygon fill="#000000" stroke="#000000" points="362.1828,-188.5893 351.7596,-190.4886 361.0922,-195.5039 362.1828,-188.5893"/>
<g id="a_edge7&#45;headlabel"><a xlink:href="dir_000010_000021.html" target="_top" xlink:title="3">
<text text-anchor="middle" x="366.1758" y="-183.8447" font-family="Helvetica,sans-Serif" font-size="10.00" fill="#000000">3</text>
</a>
</g>
</g>
<!-- dir_654e36da17c29576cc104b20606f4061&#45;&gt;dir_f107037b8850a7d09c856996640cb9e6 -->
<g id="edge6" class="edge">
<title>dir_654e36da17c29576cc104b20606f4061&#45;&gt;dir_f107037b8850a7d09c856996640cb9e6</title>
<path fill="none" stroke="#000000" d="M508.0798,-533.0119C525.5193,-523.5729 547.706,-509.4215 563,-492 590.8167,-460.3139 648.2452,-345.7707 623,-312 618.5259,-306.0149 529.4156,-281.6323 477.2222,-267.7654"/>
<polygon fill="#000000" stroke="#000000" points="477.8746,-264.3175 467.3118,-265.1408 476.0825,-271.0843 477.8746,-264.3175"/>
<g id="a_edge6&#45;headlabel"><a xlink:href="dir_000010_000022.html" target="_top" xlink:title="1">
<text text-anchor="middle" x="482.0763" y="-259.9931" font-family="Helvetica,sans-Serif" font-size="10.00" fill="#000000">1</text>
</a>
</g>
</g>
<!-- dir_ee6d1758829962e826b9f262c35102e3 -->
<g id="node20" class="node">
<title>dir_ee6d1758829962e826b9f262c35102e3</title>
<g id="a_node20"><a xlink:href="dir_ee6d1758829962e826b9f262c35102e3.html" target="_top" xlink:title="UI">
<polygon fill="#ffffff" stroke="#000000" points="422,-420 368,-420 368,-384 422,-384 422,-420"/>
<text text-anchor="middle" x="395" y="-399.5" font-family="Helvetica,sans-Serif" font-size="10.00" fill="#000000">UI</text>
</a>
</g>
</g>
<!-- dir_654e36da17c29576cc104b20606f4061&#45;&gt;dir_ee6d1758829962e826b9f262c35102e3 -->
<g id="edge8" class="edge">
<title>dir_654e36da17c29576cc104b20606f4061&#45;&gt;dir_ee6d1758829962e826b9f262c35102e3</title>
<path fill="none" stroke="#000000" d="M471.4608,-527.8247C461.6977,-509.4697 445.8886,-480.4179 431,-456 425.5146,-447.0037 419.2329,-437.3742 413.4687,-428.7746"/>
<polygon fill="#000000" stroke="#000000" points="416.2071,-426.5761 407.7041,-420.2555 410.4096,-430.4991 416.2071,-426.5761"/>
<g id="a_edge8&#45;headlabel"><a xlink:href="dir_000010_000023.html" target="_top" xlink:title="8">
<text text-anchor="middle" x="420.573" y="-425.4621" font-family="Helvetica,sans-Serif" font-size="10.00" fill="#000000">8</text>
</a>
</g>
</g>
<!-- dir_2da6ff67029b0bd58e515d6bb52d1aac -->
<g id="node12" class="node">
<title>dir_2da6ff67029b0bd58e515d6bb52d1aac</title>
<g id="a_node12"><a xlink:href="dir_2da6ff67029b0bd58e515d6bb52d1aac.html" target="_top" xlink:title="IO">
<polygon fill="#ffffff" stroke="#000000" points="325,-132 271,-132 271,-96 325,-96 325,-132"/>
<text text-anchor="middle" x="298" y="-111.5" font-family="Helvetica,sans-Serif" font-size="10.00" fill="#000000">IO</text>
</a>
</g>
</g>
<!-- dir_0b08ad81b2411064c424e6b216671a38&#45;&gt;dir_2da6ff67029b0bd58e515d6bb52d1aac -->
<g id="edge41" class="edge">
<title>dir_0b08ad81b2411064c424e6b216671a38&#45;&gt;dir_2da6ff67029b0bd58e515d6bb52d1aac</title>
<path fill="none" stroke="#000000" d="M571.0623,-311.9545C556.6416,-292.6498 531.9206,-261.8627 506,-240 451.1277,-193.7181 377.3932,-153.3338 334.0559,-131.4285"/>
<polygon fill="#000000" stroke="#000000" points="335.5357,-128.2553 325.0267,-126.91 332.4031,-134.5153 335.5357,-128.2553"/>
<g id="a_edge41&#45;headlabel"><a xlink:href="dir_000011_000015.html" target="_top" xlink:title="4">
<text text-anchor="middle" x="340.0209" y="-124.8249" font-family="Helvetica,sans-Serif" font-size="10.00" fill="#000000">4</text>
</a>
</g>
</g>
<!-- dir_53df83d7960db824e11408b8bebd620b -->
<g id="node14" class="node">
<title>dir_53df83d7960db824e11408b8bebd620b</title>
<g id="a_node14"><a xlink:href="dir_53df83d7960db824e11408b8bebd620b.html" target="_top" xlink:title="Math">
<polygon fill="#ffffff" stroke="#000000" points="646,-204 592,-204 592,-168 646,-168 646,-204"/>
<text text-anchor="middle" x="619" y="-183.5" font-family="Helvetica,sans-Serif" font-size="10.00" fill="#000000">Math</text>
</a>
</g>
</g>
<!-- dir_0b08ad81b2411064c424e6b216671a38&#45;&gt;dir_53df83d7960db824e11408b8bebd620b -->
<g id="edge38" class="edge">
<title>dir_0b08ad81b2411064c424e6b216671a38&#45;&gt;dir_53df83d7960db824e11408b8bebd620b</title>
<path fill="none" stroke="#000000" d="M588.4328,-311.7623C594.4288,-287.0928 605.1799,-242.8598 612.201,-213.9731"/>
<polygon fill="#000000" stroke="#000000" points="615.6423,-214.6334 614.6032,-204.0896 608.8404,-212.9801 615.6423,-214.6334"/>
<g id="a_edge38&#45;headlabel"><a xlink:href="dir_000011_000017.html" target="_top" xlink:title="8">
<text text-anchor="middle" x="617.5524" y="-216.2968" font-family="Helvetica,sans-Serif" font-size="10.00" fill="#000000">8</text>
</a>
</g>
</g>
<!-- dir_0b08ad81b2411064c424e6b216671a38&#45;&gt;dir_561d7927a8a40d54e996309e2c764a4d -->
<g id="edge39" class="edge">
<title>dir_0b08ad81b2411064c424e6b216671a38&#45;&gt;dir_561d7927a8a40d54e996309e2c764a4d</title>
<path fill="none" stroke="#000000" d="M566.4147,-311.8494C546.2036,-291.8732 511.2607,-259.9549 476,-240 439.5236,-219.3571 393.7966,-204.6093 361.4895,-195.7969"/>
<polygon fill="#000000" stroke="#000000" points="362.0638,-192.3282 351.5004,-193.1443 360.2671,-199.0937 362.0638,-192.3282"/>
<g id="a_edge39&#45;headlabel"><a xlink:href="dir_000011_000021.html" target="_top" xlink:title="42">
<text text-anchor="middle" x="366.2667" y="-188.0065" font-family="Helvetica,sans-Serif" font-size="10.00" fill="#000000">42</text>
</a>
</g>
</g>
<!-- dir_0b08ad81b2411064c424e6b216671a38&#45;&gt;dir_f107037b8850a7d09c856996640cb9e6 -->
<g id="edge37" class="edge">
<title>dir_0b08ad81b2411064c424e6b216671a38&#45;&gt;dir_f107037b8850a7d09c856996640cb9e6</title>
<path fill="none" stroke="#000000" d="M554.1631,-315.0816C531.6181,-303.809 500.5572,-288.2786 476.5255,-276.2627"/>
<polygon fill="#000000" stroke="#000000" points="477.8728,-273.0233 467.3632,-271.6816 474.7422,-279.2843 477.8728,-273.0233"/>
<g id="a_edge37&#45;headlabel"><a xlink:href="dir_000011_000022.html" target="_top" xlink:title="30">
<text text-anchor="middle" x="482.3576" y="-269.5913" font-family="Helvetica,sans-Serif" font-size="10.00" fill="#000000">30</text>
</a>
</g>
</g>
<!-- dir_0b08ad81b2411064c424e6b216671a38&#45;&gt;dir_ee6d1758829962e826b9f262c35102e3 -->
<g id="edge40" class="edge">
<title>dir_0b08ad81b2411064c424e6b216671a38&#45;&gt;dir_ee6d1758829962e826b9f262c35102e3</title>
<path fill="none" stroke="#000000" d="M554.2223,-341.6152C524.7366,-351.7873 478.8929,-367.4889 440,-384 437.196,-385.1904 434.3031,-386.4973 431.3883,-387.8466"/>
<polygon fill="#000000" stroke="#000000" points="429.6538,-384.7942 422.0869,-392.2099 432.6267,-391.1316 429.6538,-384.7942"/>
<g id="a_edge40&#45;headlabel"><a xlink:href="dir_000011_000023.html" target="_top" xlink:title="1">
<text text-anchor="middle" x="431.7023" y="-378.1971" font-family="Helvetica,sans-Serif" font-size="10.00" fill="#000000">1</text>
</a>
</g>
</g>
<!-- dir_98f0fd35f219a5098ca4a7bf9e7f8f55 -->
<g id="node10" class="node">
<title>dir_98f0fd35f219a5098ca4a7bf9e7f8f55</title>
<g id="a_node10"><a xlink:href="dir_98f0fd35f219a5098ca4a7bf9e7f8f55.html" target="_top" xlink:title="IK">
<polygon fill="#ffffff" stroke="#000000" points="582,-420 528,-420 528,-384 582,-384 582,-420"/>
<text text-anchor="middle" x="555" y="-399.5" font-family="Helvetica,sans-Serif" font-size="10.00" fill="#000000">IK</text>
</a>
</g>
</g>
<!-- dir_98f0fd35f219a5098ca4a7bf9e7f8f55&#45;&gt;dir_0b08ad81b2411064c424e6b216671a38 -->
<g id="edge26" class="edge">
<title>dir_98f0fd35f219a5098ca4a7bf9e7f8f55&#45;&gt;dir_0b08ad81b2411064c424e6b216671a38</title>
<path fill="none" stroke="#000000" d="M562.3179,-383.8314C565.4876,-375.9617 569.27,-366.5712 572.7813,-357.8533"/>
<polygon fill="#000000" stroke="#000000" points="576.0939,-358.9968 576.5835,-348.4133 569.6008,-356.3815 576.0939,-358.9968"/>
<g id="a_edge26&#45;headlabel"><a xlink:href="dir_000013_000011.html" target="_top" xlink:title="2">
<text text-anchor="middle" x="577.3847" y="-360.8919" font-family="Helvetica,sans-Serif" font-size="10.00" fill="#000000">2</text>
</a>
</g>
</g>
<!-- dir_98f0fd35f219a5098ca4a7bf9e7f8f55&#45;&gt;dir_f107037b8850a7d09c856996640cb9e6 -->
<g id="edge25" class="edge">
<title>dir_98f0fd35f219a5098ca4a7bf9e7f8f55&#45;&gt;dir_f107037b8850a7d09c856996640cb9e6</title>
<path fill="none" stroke="#000000" d="M547.8833,-383.8022C539.8284,-364.6456 525.3999,-334.2398 507,-312 497.9692,-301.0845 486.4355,-290.8462 475.4924,-282.2812"/>
<polygon fill="#000000" stroke="#000000" points="477.3766,-279.3178 467.2905,-276.0741 473.1524,-284.8996 477.3766,-279.3178"/>
<g id="a_edge25&#45;headlabel"><a xlink:href="dir_000013_000022.html" target="_top" xlink:title="5">
<text text-anchor="middle" x="481.9563" y="-276.723" font-family="Helvetica,sans-Serif" font-size="10.00" fill="#000000">5</text>
</a>
</g>
</g>
<!-- dir_4efb128f65960c64f5a4f317d40f1ce7&#45;&gt;dir_4e5d8950ce7828572856a10542d32daa -->
<g id="edge36" class="edge">
<title>dir_4efb128f65960c64f5a4f317d40f1ce7&#45;&gt;dir_4e5d8950ce7828572856a10542d32daa</title>
<path fill="none" stroke="#000000" d="M367.793,-469.4954C282.3461,-454.5879 25,-403.5823 25,-330 25,-330 25,-330 25,-186 25,-124.7532 222.8137,-70.671 306.8973,-50.449"/>
<polygon fill="#000000" stroke="#000000" points="307.8812,-53.8128 316.8022,-48.0974 306.2642,-47.0021 307.8812,-53.8128"/>
<g id="a_edge36&#45;headlabel"><a xlink:href="dir_000014_000006.html" target="_top" xlink:title="1">
<text text-anchor="middle" x="305.0397" y="-54.9056" font-family="Helvetica,sans-Serif" font-size="10.00" fill="#000000">1</text>
</a>
</g>
</g>
<!-- dir_4efb128f65960c64f5a4f317d40f1ce7&#45;&gt;dir_53df83d7960db824e11408b8bebd620b -->
<g id="edge33" class="edge">
<title>dir_4efb128f65960c64f5a4f317d40f1ce7&#45;&gt;dir_53df83d7960db824e11408b8bebd620b</title>
<path fill="none" stroke="#000000" d="M422.2828,-473.2698C490.3738,-470.8421 665.0493,-460.6953 703,-420 757.7503,-361.2901 758.9787,-309.0304 718,-240 704.5933,-217.4159 678.0525,-203.6726 655.8239,-195.7062"/>
<polygon fill="#000000" stroke="#000000" points="656.889,-192.372 646.2955,-192.5391 654.6811,-199.0146 656.889,-192.372"/>
<g id="a_edge33&#45;headlabel"><a xlink:href="dir_000014_000017.html" target="_top" xlink:title="1">
<text text-anchor="middle" x="661.1957" y="-188.3114" font-family="Helvetica,sans-Serif" font-size="10.00" fill="#000000">1</text>
</a>
</g>
</g>
<!-- dir_4efb128f65960c64f5a4f317d40f1ce7&#45;&gt;dir_561d7927a8a40d54e996309e2c764a4d -->
<g id="edge34" class="edge">
<title>dir_4efb128f65960c64f5a4f317d40f1ce7&#45;&gt;dir_561d7927a8a40d54e996309e2c764a4d</title>
<path fill="none" stroke="#000000" d="M367.8073,-467.8228C318.8741,-455.0732 217.1609,-420.7327 175,-348 140.8066,-289.0121 226.9655,-232.8504 281.0743,-204.728"/>
<polygon fill="#000000" stroke="#000000" points="282.785,-207.7848 290.1138,-200.1337 279.6133,-201.5445 282.785,-207.7848"/>
<g id="a_edge34&#45;headlabel"><a xlink:href="dir_000014_000021.html" target="_top" xlink:title="1">
<text text-anchor="middle" x="280.867" y="-209.4445" font-family="Helvetica,sans-Serif" font-size="10.00" fill="#000000">1</text>
</a>
</g>
</g>
<!-- dir_4efb128f65960c64f5a4f317d40f1ce7&#45;&gt;dir_ee6d1758829962e826b9f262c35102e3 -->
<g id="edge35" class="edge">
<title>dir_4efb128f65960c64f5a4f317d40f1ce7&#45;&gt;dir_ee6d1758829962e826b9f262c35102e3</title>
<path fill="none" stroke="#000000" d="M389.0476,-455.8314C388.2972,-448.131 388.0763,-438.9743 388.3849,-430.4166"/>
<polygon fill="#000000" stroke="#000000" points="391.8792,-430.6161 389.024,-420.4133 384.8935,-430.1697 391.8792,-430.6161"/>
<g id="a_edge35&#45;headlabel"><a xlink:href="dir_000014_000023.html" target="_top" xlink:title="3">
<text text-anchor="middle" x="394.4836" y="-431.8844" font-family="Helvetica,sans-Serif" font-size="10.00" fill="#000000">3</text>
</a>
</g>
</g>
<!-- dir_2da6ff67029b0bd58e515d6bb52d1aac&#45;&gt;dir_4e5d8950ce7828572856a10542d32daa -->
<g id="edge32" class="edge">
<title>dir_2da6ff67029b0bd58e515d6bb52d1aac&#45;&gt;dir_4e5d8950ce7828572856a10542d32daa</title>
<path fill="none" stroke="#000000" d="M309.6077,-95.8314C314.7978,-87.7079 321.0232,-77.9637 326.7425,-69.0118"/>
<polygon fill="#000000" stroke="#000000" points="329.8015,-70.7246 332.236,-60.4133 323.9026,-66.9559 329.8015,-70.7246"/>
<g id="a_edge32&#45;headlabel"><a xlink:href="dir_000015_000006.html" target="_top" xlink:title="2">
<text text-anchor="middle" x="330.2589" y="-72.7824" font-family="Helvetica,sans-Serif" font-size="10.00" fill="#000000">2</text>
</a>
</g>
</g>
<!-- dir_ab211c45a8e07fffde8b7a666ea0a0fb -->
<g id="node13" class="node">
<title>dir_ab211c45a8e07fffde8b7a666ea0a0fb</title>
<g id="a_node13"><a xlink:href="dir_ab211c45a8e07fffde8b7a666ea0a0fb.html" target="_top" xlink:title="LuaScript">
<polygon fill="#ffffff" stroke="#000000" points="146,-348 84,-348 84,-312 146,-312 146,-348"/>
<text text-anchor="middle" x="115" y="-327.5" font-family="Helvetica,sans-Serif" font-size="10.00" fill="#000000">LuaScript</text>
</a>
</g>
</g>
<!-- dir_ab211c45a8e07fffde8b7a666ea0a0fb&#45;&gt;dir_2da6ff67029b0bd58e515d6bb52d1aac -->
<g id="edge13" class="edge">
<title>dir_ab211c45a8e07fffde8b7a666ea0a0fb&#45;&gt;dir_2da6ff67029b0bd58e515d6bb52d1aac</title>
<path fill="none" stroke="#000000" d="M130.2877,-311.9555C162.7163,-273.6791 238.4982,-184.2316 276.0745,-139.8793"/>
<polygon fill="#000000" stroke="#000000" points="278.8333,-142.0374 282.6271,-132.1451 273.4924,-137.5125 278.8333,-142.0374"/>
<g id="a_edge13&#45;headlabel"><a xlink:href="dir_000016_000015.html" target="_top" xlink:title="1">
<text text-anchor="middle" x="278.6761" y="-144.1154" font-family="Helvetica,sans-Serif" font-size="10.00" fill="#000000">1</text>
</a>
</g>
</g>
<!-- dir_ab211c45a8e07fffde8b7a666ea0a0fb&#45;&gt;dir_561d7927a8a40d54e996309e2c764a4d -->
<g id="edge12" class="edge">
<title>dir_ab211c45a8e07fffde8b7a666ea0a0fb&#45;&gt;dir_561d7927a8a40d54e996309e2c764a4d</title>
<path fill="none" stroke="#000000" d="M121.7185,-311.9267C130.0992,-291.7167 146.2763,-259.2964 170,-240 201.9626,-214.0023 247.4302,-200.0167 280.1087,-192.8431"/>
<polygon fill="#000000" stroke="#000000" points="281.153,-196.2012 290.2359,-190.7467 279.734,-189.3465 281.153,-196.2012"/>
<g id="a_edge12&#45;headlabel"><a xlink:href="dir_000016_000021.html" target="_top" xlink:title="3">
<text text-anchor="middle" x="278.2085" y="-197.2101" font-family="Helvetica,sans-Serif" font-size="10.00" fill="#000000">3</text>
</a>
</g>
</g>
<!-- dir_ab211c45a8e07fffde8b7a666ea0a0fb&#45;&gt;dir_f107037b8850a7d09c856996640cb9e6 -->
<g id="edge11" class="edge">
<title>dir_ab211c45a8e07fffde8b7a666ea0a0fb&#45;&gt;dir_f107037b8850a7d09c856996640cb9e6</title>
<path fill="none" stroke="#000000" d="M146.3026,-320.0261C155.5009,-317.2538 165.6129,-314.3593 175,-312 255.5163,-291.7631 351.2293,-273.72 402.7352,-264.4944"/>
<polygon fill="#000000" stroke="#000000" points="403.4995,-267.9135 412.7315,-262.7154 402.2729,-261.0217 403.4995,-267.9135"/>
<g id="a_edge11&#45;headlabel"><a xlink:href="dir_000016_000022.html" target="_top" xlink:title="3">
<text text-anchor="middle" x="400.4579" y="-268.8386" font-family="Helvetica,sans-Serif" font-size="10.00" fill="#000000">3</text>
</a>
</g>
</g>
<!-- dir_117832022884e4568a2a018de0ca94c2 -->
<g id="node15" class="node">
<title>dir_117832022884e4568a2a018de0ca94c2</title>
<g id="a_node15"><a xlink:href="dir_117832022884e4568a2a018de0ca94c2.html" target="_top" xlink:title="Navigation">
<polygon fill="#ffffff" stroke="#000000" points="510,-420 440,-420 440,-384 510,-384 510,-420"/>
<text text-anchor="middle" x="475" y="-399.5" font-family="Helvetica,sans-Serif" font-size="10.00" fill="#000000">Navigation</text>
</a>
</g>
</g>
<!-- dir_117832022884e4568a2a018de0ca94c2&#45;&gt;dir_0b08ad81b2411064c424e6b216671a38 -->
<g id="edge24" class="edge">
<title>dir_117832022884e4568a2a018de0ca94c2&#45;&gt;dir_0b08ad81b2411064c424e6b216671a38</title>
<path fill="none" stroke="#000000" d="M502.5053,-383.8314C516.318,-374.7074 533.2256,-363.539 548.0529,-353.7449"/>
<polygon fill="#000000" stroke="#000000" points="550.0886,-356.5949 556.5035,-348.1628 546.2304,-350.7541 550.0886,-356.5949"/>
<g id="a_edge24&#45;headlabel"><a xlink:href="dir_000018_000011.html" target="_top" xlink:title="1">
<text text-anchor="middle" x="548.6541" y="-358.4451" font-family="Helvetica,sans-Serif" font-size="10.00" fill="#000000">1</text>
</a>
</g>
</g>
<!-- dir_117832022884e4568a2a018de0ca94c2&#45;&gt;dir_f107037b8850a7d09c856996640cb9e6 -->
<g id="edge23" class="edge">
<title>dir_117832022884e4568a2a018de0ca94c2&#45;&gt;dir_f107037b8850a7d09c856996640cb9e6</title>
<path fill="none" stroke="#000000" d="M487.1614,-383.8701C497.9955,-365.2985 510.622,-335.8503 500,-312 494.6014,-299.8781 484.988,-289.3358 475.0163,-280.863"/>
<polygon fill="#000000" stroke="#000000" points="477.0267,-277.9904 467.016,-274.521 472.6782,-283.4759 477.0267,-277.9904"/>
<g id="a_edge23&#45;headlabel"><a xlink:href="dir_000018_000022.html" target="_top" xlink:title="17">
<text text-anchor="middle" x="481.6074" y="-275.4984" font-family="Helvetica,sans-Serif" font-size="10.00" fill="#000000">17</text>
</a>
</g>
</g>
<!-- dir_ce1cad6f4299f5779eefa9b0082fe699 -->
<g id="node16" class="node">
<title>dir_ce1cad6f4299f5779eefa9b0082fe699</title>
<g id="a_node16"><a xlink:href="dir_ce1cad6f4299f5779eefa9b0082fe699.html" target="_top" xlink:title="Network">
<polygon fill="#ffffff" stroke="#000000" points="242,-348 184,-348 184,-312 242,-312 242,-348"/>
<text text-anchor="middle" x="213" y="-327.5" font-family="Helvetica,sans-Serif" font-size="10.00" fill="#000000">Network</text>
</a>
</g>
</g>
<!-- dir_ce1cad6f4299f5779eefa9b0082fe699&#45;&gt;dir_2da6ff67029b0bd58e515d6bb52d1aac -->
<g id="edge16" class="edge">
<title>dir_ce1cad6f4299f5779eefa9b0082fe699&#45;&gt;dir_2da6ff67029b0bd58e515d6bb52d1aac</title>
<path fill="none" stroke="#000000" d="M220.1009,-311.9555C234.9758,-274.1556 269.4894,-186.4506 287.156,-141.5564"/>
<polygon fill="#000000" stroke="#000000" points="290.4546,-142.7322 290.8596,-132.1451 283.9408,-140.1688 290.4546,-142.7322"/>
<g id="a_edge16&#45;headlabel"><a xlink:href="dir_000019_000015.html" target="_top" xlink:title="1">
<text text-anchor="middle" x="291.7804" y="-144.6168" font-family="Helvetica,sans-Serif" font-size="10.00" fill="#000000">1</text>
</a>
</g>
</g>
<!-- dir_ce1cad6f4299f5779eefa9b0082fe699&#45;&gt;dir_561d7927a8a40d54e996309e2c764a4d -->
<g id="edge15" class="edge">
<title>dir_ce1cad6f4299f5779eefa9b0082fe699&#45;&gt;dir_561d7927a8a40d54e996309e2c764a4d</title>
<path fill="none" stroke="#000000" d="M226.6783,-311.7623C245.5861,-286.5518 279.8173,-240.9103 301.4286,-212.0952"/>
<polygon fill="#000000" stroke="#000000" points="304.2328,-214.1897 307.4328,-204.0896 298.6327,-209.9896 304.2328,-214.1897"/>
<g id="a_edge15&#45;headlabel"><a xlink:href="dir_000019_000021.html" target="_top" xlink:title="1">
<text text-anchor="middle" x="304.3474" y="-216.2689" font-family="Helvetica,sans-Serif" font-size="10.00" fill="#000000">1</text>
</a>
</g>
</g>
<!-- dir_ce1cad6f4299f5779eefa9b0082fe699&#45;&gt;dir_f107037b8850a7d09c856996640cb9e6 -->
<g id="edge14" class="edge">
<title>dir_ce1cad6f4299f5779eefa9b0082fe699&#45;&gt;dir_f107037b8850a7d09c856996640cb9e6</title>
<path fill="none" stroke="#000000" d="M242.2525,-315.5608C245.1805,-314.2918 248.1309,-313.081 251,-312 302.7398,-292.5051 364.6932,-276.0566 403.2071,-266.6072"/>
<polygon fill="#000000" stroke="#000000" points="404.0536,-270.0034 412.9465,-264.2444 402.4032,-263.2007 404.0536,-270.0034"/>
<g id="a_edge14&#45;headlabel"><a xlink:href="dir_000019_000022.html" target="_top" xlink:title="4">
<text text-anchor="middle" x="401.2296" y="-271.11" font-family="Helvetica,sans-Serif" font-size="10.00" fill="#000000">4</text>
</a>
</g>
</g>
<!-- dir_8d623e65e651fe084f4b872325ca978b -->
<g id="node17" class="node">
<title>dir_8d623e65e651fe084f4b872325ca978b</title>
<g id="a_node17"><a xlink:href="dir_8d623e65e651fe084f4b872325ca978b.html" target="_top" xlink:title="Physics">
<polygon fill="#ffffff" stroke="#000000" points="314,-348 260,-348 260,-312 314,-312 314,-348"/>
<text text-anchor="middle" x="287" y="-327.5" font-family="Helvetica,sans-Serif" font-size="10.00" fill="#000000">Physics</text>
</a>
</g>
</g>
<!-- dir_8d623e65e651fe084f4b872325ca978b&#45;&gt;dir_561d7927a8a40d54e996309e2c764a4d -->
<g id="edge45" class="edge">
<title>dir_8d623e65e651fe084f4b872325ca978b&#45;&gt;dir_561d7927a8a40d54e996309e2c764a4d</title>
<path fill="none" stroke="#000000" d="M291.3061,-311.7623C297.1309,-287.0928 307.5748,-242.8598 314.3952,-213.9731"/>
<polygon fill="#000000" stroke="#000000" points="317.8372,-214.6263 316.7288,-204.0896 311.0245,-213.0177 317.8372,-214.6263"/>
<g id="a_edge45&#45;headlabel"><a xlink:href="dir_000020_000021.html" target="_top" xlink:title="2">
<text text-anchor="middle" x="319.7745" y="-216.2772" font-family="Helvetica,sans-Serif" font-size="10.00" fill="#000000">2</text>
</a>
</g>
</g>
<!-- dir_8d623e65e651fe084f4b872325ca978b&#45;&gt;dir_f107037b8850a7d09c856996640cb9e6 -->
<g id="edge44" class="edge">
<title>dir_8d623e65e651fe084f4b872325ca978b&#45;&gt;dir_f107037b8850a7d09c856996640cb9e6</title>
<path fill="none" stroke="#000000" d="M314.0822,-316.3456C317.0846,-314.8656 320.1029,-313.3924 323,-312 349.9373,-299.0533 380.6225,-284.9133 403.8081,-274.3513"/>
<polygon fill="#000000" stroke="#000000" points="405.2802,-277.5269 412.935,-270.2019 402.3831,-271.1545 405.2802,-277.5269"/>
<g id="a_edge44&#45;headlabel"><a xlink:href="dir_000020_000022.html" target="_top" xlink:title="11">
<text text-anchor="middle" x="403.183" y="-279.0992" font-family="Helvetica,sans-Serif" font-size="10.00" fill="#000000">11</text>
</a>
</g>
</g>
<!-- dir_561d7927a8a40d54e996309e2c764a4d&#45;&gt;dir_4e5d8950ce7828572856a10542d32daa -->
<g id="edge22" class="edge">
<title>dir_561d7927a8a40d54e996309e2c764a4d&#45;&gt;dir_4e5d8950ce7828572856a10542d32daa</title>
<path fill="none" stroke="#000000" d="M326.0301,-167.6257C328.7211,-157.2361 331.9031,-143.9677 334,-132 337.6119,-111.3852 340.1715,-87.8728 341.7965,-70.0511"/>
<polygon fill="#000000" stroke="#000000" points="345.2889,-70.2894 342.6673,-60.024 338.3151,-69.6836 345.2889,-70.2894"/>
<g id="a_edge22&#45;headlabel"><a xlink:href="dir_000021_000006.html" target="_top" xlink:title="2">
<text text-anchor="middle" x="347.8066" y="-71.6161" font-family="Helvetica,sans-Serif" font-size="10.00" fill="#000000">2</text>
</a>
</g>
</g>
<!-- dir_561d7927a8a40d54e996309e2c764a4d&#45;&gt;dir_2da6ff67029b0bd58e515d6bb52d1aac -->
<g id="edge21" class="edge">
<title>dir_561d7927a8a40d54e996309e2c764a4d&#45;&gt;dir_2da6ff67029b0bd58e515d6bb52d1aac</title>
<path fill="none" stroke="#000000" d="M315.1961,-167.8314C312.7092,-160.0463 309.7469,-150.7729 306.9875,-142.1347"/>
<polygon fill="#000000" stroke="#000000" points="310.2591,-140.874 303.882,-132.4133 303.591,-143.0041 310.2591,-140.874"/>
<g id="a_edge21&#45;headlabel"><a xlink:href="dir_000021_000015.html" target="_top" xlink:title="3">
<text text-anchor="middle" x="314.0574" y="-140.9342" font-family="Helvetica,sans-Serif" font-size="10.00" fill="#000000">3</text>
</a>
</g>
</g>
<!-- dir_f107037b8850a7d09c856996640cb9e6&#45;&gt;dir_4e5d8950ce7828572856a10542d32daa -->
<g id="edge4" class="edge">
<title>dir_f107037b8850a7d09c856996640cb9e6&#45;&gt;dir_4e5d8950ce7828572856a10542d32daa</title>
<path fill="none" stroke="#000000" d="M431.9802,-239.9555C415.1803,-202.1556 376.2002,-114.4506 356.2473,-69.5564"/>
<polygon fill="#000000" stroke="#000000" points="359.3243,-67.8617 352.0645,-60.1451 352.9276,-70.7047 359.3243,-67.8617"/>
<g id="a_edge4&#45;headlabel"><a xlink:href="dir_000022_000006.html" target="_top" xlink:title="5">
<text text-anchor="middle" x="363.3787" y="-67.4934" font-family="Helvetica,sans-Serif" font-size="10.00" fill="#000000">5</text>
</a>
</g>
</g>
<!-- dir_f107037b8850a7d09c856996640cb9e6&#45;&gt;dir_2da6ff67029b0bd58e515d6bb52d1aac -->
<g id="edge3" class="edge">
<title>dir_f107037b8850a7d09c856996640cb9e6&#45;&gt;dir_2da6ff67029b0bd58e515d6bb52d1aac</title>
<path fill="none" stroke="#000000" d="M420.1441,-239.7961C409.542,-229.678 396.5431,-216.6144 386,-204 373.5077,-189.0535 374.0567,-182.4561 361,-168 351.6129,-157.6068 340.2697,-147.3197 329.81,-138.5569"/>
<polygon fill="#000000" stroke="#000000" points="331.9823,-135.8119 322.0306,-132.1767 327.5432,-141.2244 331.9823,-135.8119"/>
<g id="a_edge3&#45;headlabel"><a xlink:href="dir_000022_000015.html" target="_top" xlink:title="1">
<text text-anchor="middle" x="336.5621" y="-133.3961" font-family="Helvetica,sans-Serif" font-size="10.00" fill="#000000">1</text>
</a>
</g>
</g>
<!-- dir_f107037b8850a7d09c856996640cb9e6&#45;&gt;dir_53df83d7960db824e11408b8bebd620b -->
<g id="edge1" class="edge">
<title>dir_f107037b8850a7d09c856996640cb9e6&#45;&gt;dir_53df83d7960db824e11408b8bebd620b</title>
<path fill="none" stroke="#000000" d="M467.1862,-247.0647C497.8965,-234.712 548.0389,-214.543 582.2276,-200.7911"/>
<polygon fill="#000000" stroke="#000000" points="583.8803,-203.899 591.8517,-196.92 581.268,-197.4046 583.8803,-203.899"/>
<g id="a_edge1&#45;headlabel"><a xlink:href="dir_000022_000017.html" target="_top" xlink:title="1">
<text text-anchor="middle" x="581.6049" y="-205.3745" font-family="Helvetica,sans-Serif" font-size="10.00" fill="#000000">1</text>
</a>
</g>
</g>
<!-- dir_f107037b8850a7d09c856996640cb9e6&#45;&gt;dir_561d7927a8a40d54e996309e2c764a4d -->
<g id="edge2" class="edge">
<title>dir_f107037b8850a7d09c856996640cb9e6&#45;&gt;dir_561d7927a8a40d54e996309e2c764a4d</title>
<path fill="none" stroke="#000000" d="M412.9971,-241.6621C397.2304,-232.1226 377.0721,-219.926 359.6459,-209.3824"/>
<polygon fill="#000000" stroke="#000000" points="361.1877,-206.2245 350.82,-204.0423 357.564,-212.2136 361.1877,-206.2245"/>
<g id="a_edge2&#45;headlabel"><a xlink:href="dir_000022_000021.html" target="_top" xlink:title="8">
<text text-anchor="middle" x="365.7329" y="-203.156" font-family="Helvetica,sans-Serif" font-size="10.00" fill="#000000">8</text>
</a>
</g>
</g>
<!-- dir_ee6d1758829962e826b9f262c35102e3&#45;&gt;dir_0b08ad81b2411064c424e6b216671a38 -->
<g id="edge31" class="edge">
<title>dir_ee6d1758829962e826b9f262c35102e3&#45;&gt;dir_0b08ad81b2411064c424e6b216671a38</title>
<path fill="none" stroke="#000000" d="M422.3892,-383.8349C463.1265,-366.567 511.3995,-350.2023 544.665,-340.1455"/>
<polygon fill="#000000" stroke="#000000" points="545.8906,-343.4327 554.482,-337.2329 543.8995,-336.7218 545.8906,-343.4327"/>
<g id="a_edge31&#45;headlabel"><a xlink:href="dir_000023_000011.html" target="_top" xlink:title="12">
<text text-anchor="middle" x="543.2521" y="-344.6771" font-family="Helvetica,sans-Serif" font-size="10.00" fill="#000000">12</text>
</a>
</g>
</g>
<!-- dir_ee6d1758829962e826b9f262c35102e3&#45;&gt;dir_4efb128f65960c64f5a4f317d40f1ce7 -->
<g id="edge30" class="edge">
<title>dir_ee6d1758829962e826b9f262c35102e3&#45;&gt;dir_4efb128f65960c64f5a4f317d40f1ce7</title>
<path fill="none" stroke="#000000" d="M400.976,-420.4133C401.7071,-428.0593 401.9203,-437.1084 401.6155,-445.5726"/>
<polygon fill="#000000" stroke="#000000" points="398.1048,-445.6264 400.9524,-455.8314 405.0902,-446.078 398.1048,-445.6264"/>
<g id="a_edge30&#45;headlabel"><a xlink:href="dir_000023_000014.html" target="_top" xlink:title="5">
<text text-anchor="middle" x="395.5032" y="-439.3562" font-family="Helvetica,sans-Serif" font-size="10.00" fill="#000000">5</text>
</a>
</g>
</g>
<!-- dir_ee6d1758829962e826b9f262c35102e3&#45;&gt;dir_2da6ff67029b0bd58e515d6bb52d1aac -->
<g id="edge29" class="edge">
<title>dir_ee6d1758829962e826b9f262c35102e3&#45;&gt;dir_2da6ff67029b0bd58e515d6bb52d1aac</title>
<path fill="none" stroke="#000000" d="M367.9179,-399.621C291.9285,-392.6745 80.9424,-371.4256 61,-348 -14.9842,-258.7443 177.9932,-164.1113 261.6059,-128.5886"/>
<polygon fill="#000000" stroke="#000000" points="263.1301,-131.7448 270.9997,-124.6511 260.4241,-125.2889 263.1301,-131.7448"/>
<g id="a_edge29&#45;headlabel"><a xlink:href="dir_000023_000015.html" target="_top" xlink:title="2">
<text text-anchor="middle" x="260.9125" y="-133.2528" font-family="Helvetica,sans-Serif" font-size="10.00" fill="#000000">2</text>
</a>
</g>
</g>
<!-- dir_ee6d1758829962e826b9f262c35102e3&#45;&gt;dir_561d7927a8a40d54e996309e2c764a4d -->
<g id="edge28" class="edge">
<title>dir_ee6d1758829962e826b9f262c35102e3&#45;&gt;dir_561d7927a8a40d54e996309e2c764a4d</title>
<path fill="none" stroke="#000000" d="M367.996,-399.429C294.3027,-392.1427 93.9599,-370.4274 75,-348 36.0476,-301.9236 125.5706,-246.773 136,-240 180.4337,-211.1444 240.6807,-197.3254 280.1775,-190.9815"/>
<polygon fill="#000000" stroke="#000000" points="280.881,-194.4149 290.2429,-189.4545 279.831,-187.4941 280.881,-194.4149"/>
<g id="a_edge28&#45;headlabel"><a xlink:href="dir_000023_000021.html" target="_top" xlink:title="14">
<text text-anchor="middle" x="277.7529" y="-195.2612" font-family="Helvetica,sans-Serif" font-size="10.00" fill="#000000">14</text>
</a>
</g>
</g>
<!-- dir_ee6d1758829962e826b9f262c35102e3&#45;&gt;dir_f107037b8850a7d09c856996640cb9e6 -->
<g id="edge27" class="edge">
<title>dir_ee6d1758829962e826b9f262c35102e3&#45;&gt;dir_f107037b8850a7d09c856996640cb9e6</title>
<path fill="none" stroke="#000000" d="M422.4349,-387.3316C447.5774,-373.6074 481.4313,-354.303 485,-348 496.9423,-326.9075 482.7204,-302.241 467.1877,-284.0706"/>
<polygon fill="#000000" stroke="#000000" points="469.3641,-281.2614 460.0481,-276.2154 464.184,-285.9696 469.3641,-281.2614"/>
<g id="a_edge27&#45;headlabel"><a xlink:href="dir_000023_000022.html" target="_top" xlink:title="5">
<text text-anchor="middle" x="473.8829" y="-279.5118" font-family="Helvetica,sans-Serif" font-size="10.00" fill="#000000">5</text>
</a>
</g>
</g>
<!-- dir_20d80c9287f85693fcfcb75c53ed922f -->
<g id="node21" class="node">
<title>dir_20d80c9287f85693fcfcb75c53ed922f</title>
<g id="a_node21"><a xlink:href="dir_20d80c9287f85693fcfcb75c53ed922f.html" target="_top" xlink:title="Urho2D">
<polygon fill="#ffffff" stroke="#000000" points="694,-420 640,-420 640,-384 694,-384 694,-420"/>
<text text-anchor="middle" x="667" y="-399.5" font-family="Helvetica,sans-Serif" font-size="10.00" fill="#000000">Urho2D</text>
</a>
</g>
</g>
<!-- dir_20d80c9287f85693fcfcb75c53ed922f&#45;&gt;dir_0b08ad81b2411064c424e6b216671a38 -->
<g id="edge20" class="edge">
<title>dir_20d80c9287f85693fcfcb75c53ed922f&#45;&gt;dir_0b08ad81b2411064c424e6b216671a38</title>
<path fill="none" stroke="#000000" d="M646.0556,-383.8314C635.9309,-375.0485 623.6223,-364.3712 612.6452,-354.8489"/>
<polygon fill="#000000" stroke="#000000" points="614.7851,-352.0718 604.9377,-348.1628 610.1981,-357.3595 614.7851,-352.0718"/>
<g id="a_edge20&#45;headlabel"><a xlink:href="dir_000024_000011.html" target="_top" xlink:title="10">
<text text-anchor="middle" x="619.3609" y="-349.7825" font-family="Helvetica,sans-Serif" font-size="10.00" fill="#000000">10</text>
</a>
</g>
</g>
<!-- dir_20d80c9287f85693fcfcb75c53ed922f&#45;&gt;dir_53df83d7960db824e11408b8bebd620b -->
<g id="edge18" class="edge">
<title>dir_20d80c9287f85693fcfcb75c53ed922f&#45;&gt;dir_53df83d7960db824e11408b8bebd620b</title>
<path fill="none" stroke="#000000" d="M673.5167,-383.8009C683.4989,-352.7908 699.3017,-288.3733 678,-240 672.8411,-228.2848 663.7467,-218.0045 654.2203,-209.6448"/>
<polygon fill="#000000" stroke="#000000" points="656.1514,-206.7029 646.1934,-203.0851 651.7219,-212.1231 656.1514,-206.7029"/>
<g id="a_edge18&#45;headlabel"><a xlink:href="dir_000024_000017.html" target="_top" xlink:title="2">
<text text-anchor="middle" x="660.7314" y="-204.2789" font-family="Helvetica,sans-Serif" font-size="10.00" fill="#000000">2</text>
</a>
</g>
</g>
<!-- dir_20d80c9287f85693fcfcb75c53ed922f&#45;&gt;dir_561d7927a8a40d54e996309e2c764a4d -->
<g id="edge19" class="edge">
<title>dir_20d80c9287f85693fcfcb75c53ed922f&#45;&gt;dir_561d7927a8a40d54e996309e2c764a4d</title>
<path fill="none" stroke="#000000" d="M668.8161,-383.9318C669.8164,-364.3232 668.4732,-333.008 653,-312 617.1933,-263.3854 441.8206,-215.4006 361.4154,-195.5418"/>
<polygon fill="#000000" stroke="#000000" points="362.1834,-192.1266 351.6381,-193.1503 360.5201,-198.9261 362.1834,-192.1266"/>
<g id="a_edge19&#45;headlabel"><a xlink:href="dir_000024_000021.html" target="_top" xlink:title="16">
<text text-anchor="middle" x="366.3497" y="-187.7226" font-family="Helvetica,sans-Serif" font-size="10.00" fill="#000000">16</text>
</a>
</g>
</g>
<!-- dir_20d80c9287f85693fcfcb75c53ed922f&#45;&gt;dir_f107037b8850a7d09c856996640cb9e6 -->
<g id="edge17" class="edge">
<title>dir_20d80c9287f85693fcfcb75c53ed922f&#45;&gt;dir_f107037b8850a7d09c856996640cb9e6</title>
<path fill="none" stroke="#000000" d="M666.1088,-383.7974C664.1227,-363.4687 657.8209,-330.9396 638,-312 614.9841,-290.0075 527.6307,-272.4073 476.9693,-263.7828"/>
<polygon fill="#000000" stroke="#000000" points="477.4936,-260.3219 467.0541,-262.1295 476.3422,-267.2266 477.4936,-260.3219"/>
<g id="a_edge17&#45;headlabel"><a xlink:href="dir_000024_000022.html" target="_top" xlink:title="24">
<text text-anchor="middle" x="481.5062" y="-255.6124" font-family="Helvetica,sans-Serif" font-size="10.00" fill="#000000">24</text>
</a>
</g>
</g>
</g>
</svg>
