<?xml version="1.0" encoding="UTF-8" standalone="no"?>
<!DOCTYPE svg PUBLIC "-//W3C//DTD SVG 1.1//EN"
 "http://www.w3.org/Graphics/SVG/1.1/DTD/svg11.dtd">
<!-- Generated by graphviz version 2.36.0 (20140111.2315)
 -->
<!-- Title: Source/Urho3D Pages: 1 -->
<svg width="1526pt" height="159pt"
 viewBox="0.00 0.00 1526.00 159.00" xmlns="http://www.w3.org/2000/svg" xmlns:xlink="http://www.w3.org/1999/xlink">
<g id="graph0" class="graph" transform="scale(1 1) rotate(0) translate(4 155)">
<title>Source/Urho3D</title>
<g id="clust1" class="cluster"><title>clusterdir_74389ed8173ad57b461b9d623a1f3867</title>
<g id="a_clust1"><a xlink:href="dir_74389ed8173ad57b461b9d623a1f3867.html" target="_top" xlink:title="Source">
<polygon fill="#ddddee" stroke="black" points="8,-56 8,-143 1510,-143 1510,-56 8,-56"/>
<text text-anchor="middle" x="759" y="-131" font-family="Helvetica,sans-Serif" font-size="10.00">Source</text>
</a>
</g>
</g>
<g id="clust2" class="cluster"><title>clusterdir_254f5dc83c613aac4a45a9941d3165f4</title>
<g id="a_clust2"><a xlink:href="dir_254f5dc83c613aac4a45a9941d3165f4.html" target="_top">
<polygon fill="#eeeeff" stroke="black" points="16,-64 16,-116 1502,-116 1502,-64 16,-64"/>
</a>
</g>
</g>
<!-- dir_254f5dc83c613aac4a45a9941d3165f4 -->
<g id="node1" class="node"><title>dir_254f5dc83c613aac4a45a9941d3165f4</title>
<text text-anchor="middle" x="1467" y="-87.5" font-family="Helvetica,sans-Serif" font-size="10.00">Urho3D</text>
</g>
<!-- dir_06e9c2ed922cabaad78aff669900e63f -->
<g id="node2" class="node"><title>dir_06e9c2ed922cabaad78aff669900e63f</title>
<g id="a_node2"><a xlink:href="dir_06e9c2ed922cabaad78aff669900e63f.html" target="_top" xlink:title="AngelScript">
<polygon fill="white" stroke="black" points="1421.25,-108 1354.75,-108 1354.75,-72 1421.25,-72 1421.25,-108"/>
<text text-anchor="middle" x="1388" y="-87.5" font-family="Helvetica,sans-Serif" font-size="10.00">AngelScript</text>
</a>
</g>
</g>
<!-- dir_6fa1b99c12a4a13b65d0edbff0320c44 -->
<g id="node3" class="node"><title>dir_6fa1b99c12a4a13b65d0edbff0320c44</title>
<g id="a_node3"><a xlink:href="dir_6fa1b99c12a4a13b65d0edbff0320c44.html" target="_top" xlink:title="Audio">
<polygon fill="white" stroke="black" points="1336,-108 1282,-108 1282,-72 1336,-72 1336,-108"/>
<text text-anchor="middle" x="1309" y="-87.5" font-family="Helvetica,sans-Serif" font-size="10.00">Audio</text>
</a>
</g>
</g>
<!-- dir_2892fa4eac3a971fa207357899090240 -->
<g id="node4" class="node"><title>dir_2892fa4eac3a971fa207357899090240</title>
<g id="a_node4"><a xlink:href="dir_2892fa4eac3a971fa207357899090240.html" target="_top" xlink:title="Container">
<polygon fill="white" stroke="black" points="1263.25,-108 1204.75,-108 1204.75,-72 1263.25,-72 1263.25,-108"/>
<text text-anchor="middle" x="1234" y="-87.5" font-family="Helvetica,sans-Serif" font-size="10.00">Container</text>
</a>
</g>
</g>
<!-- dir_4e5d8950ce7828572856a10542d32daa -->
<g id="node5" class="node"><title>dir_4e5d8950ce7828572856a10542d32daa</title>
<g id="a_node5"><a xlink:href="dir_4e5d8950ce7828572856a10542d32daa.html" target="_top" xlink:title="Core">
<polygon fill="white" stroke="black" points="1186,-108 1132,-108 1132,-72 1186,-72 1186,-108"/>
<text text-anchor="middle" x="1159" y="-87.5" font-family="Helvetica,sans-Serif" font-size="10.00">Core</text>
</a>
</g>
</g>
<!-- dir_846c32220fce8a5a8e702a2b5d449ce5 -->
<g id="node6" class="node"><title>dir_846c32220fce8a5a8e702a2b5d449ce5</title>
<g id="a_node6"><a xlink:href="dir_846c32220fce8a5a8e702a2b5d449ce5.html" target="_top" xlink:title="Database">
<polygon fill="white" stroke="red" points="1113.25,-108 1054.75,-108 1054.75,-72 1113.25,-72 1113.25,-108"/>
<text text-anchor="middle" x="1084" y="-87.5" font-family="Helvetica,sans-Serif" font-size="10.00">Database</text>
</a>
</g>
</g>
<!-- dir_654e36da17c29576cc104b20606f4061 -->
<g id="node7" class="node"><title>dir_654e36da17c29576cc104b20606f4061</title>
<g id="a_node7"><a xlink:href="dir_654e36da17c29576cc104b20606f4061.html" target="_top" xlink:title="Engine">
<polygon fill="white" stroke="black" points="1036,-108 982,-108 982,-72 1036,-72 1036,-108"/>
<text text-anchor="middle" x="1009" y="-87.5" font-family="Helvetica,sans-Serif" font-size="10.00">Engine</text>
</a>
</g>
</g>
<!-- dir_0b08ad81b2411064c424e6b216671a38 -->
<g id="node8" class="node"><title>dir_0b08ad81b2411064c424e6b216671a38</title>
<g id="a_node8"><a xlink:href="dir_0b08ad81b2411064c424e6b216671a38.html" target="_top" xlink:title="Graphics">
<polygon fill="white" stroke="red" points="963.5,-108 908.5,-108 908.5,-72 963.5,-72 963.5,-108"/>
<text text-anchor="middle" x="936" y="-87.5" font-family="Helvetica,sans-Serif" font-size="10.00">Graphics</text>
</a>
</g>
</g>
<!-- dir_98f0fd35f219a5098ca4a7bf9e7f8f55 -->
<g id="node9" class="node"><title>dir_98f0fd35f219a5098ca4a7bf9e7f8f55</title>
<g id="a_node9"><a xlink:href="dir_98f0fd35f219a5098ca4a7bf9e7f8f55.html" target="_top" xlink:title="IK">
<polygon fill="white" stroke="black" points="890,-108 836,-108 836,-72 890,-72 890,-108"/>
<text text-anchor="middle" x="863" y="-87.5" font-family="Helvetica,sans-Serif" font-size="10.00">IK</text>
</a>
</g>
</g>
<!-- dir_4efb128f65960c64f5a4f317d40f1ce7 -->
<g id="node10" class="node"><title>dir_4efb128f65960c64f5a4f317d40f1ce7</title>
<g id="a_node10"><a xlink:href="dir_4efb128f65960c64f5a4f317d40f1ce7.html" target="_top" xlink:title="Input">
<polygon fill="white" stroke="black" points="818,-108 764,-108 764,-72 818,-72 818,-108"/>
<text text-anchor="middle" x="791" y="-87.5" font-family="Helvetica,sans-Serif" font-size="10.00">Input</text>
</a>
</g>
</g>
<!-- dir_2da6ff67029b0bd58e515d6bb52d1aac -->
<g id="node11" class="node"><title>dir_2da6ff67029b0bd58e515d6bb52d1aac</title>
<g id="a_node11"><a xlink:href="dir_2da6ff67029b0bd58e515d6bb52d1aac.html" target="_top" xlink:title="IO">
<polygon fill="white" stroke="black" points="746,-108 692,-108 692,-72 746,-72 746,-108"/>
<text text-anchor="middle" x="719" y="-87.5" font-family="Helvetica,sans-Serif" font-size="10.00">IO</text>
</a>
</g>
</g>
<!-- dir_ab211c45a8e07fffde8b7a666ea0a0fb -->
<g id="node12" class="node"><title>dir_ab211c45a8e07fffde8b7a666ea0a0fb</title>
<g id="a_node12"><a xlink:href="dir_ab211c45a8e07fffde8b7a666ea0a0fb.html" target="_top" xlink:title="LuaScript">
<polygon fill="white" stroke="black" points="673.5,-108 616.5,-108 616.5,-72 673.5,-72 673.5,-108"/>
<text text-anchor="middle" x="645" y="-87.5" font-family="Helvetica,sans-Serif" font-size="10.00">LuaScript</text>
</a>
</g>
</g>
<!-- dir_53df83d7960db824e11408b8bebd620b -->
<g id="node13" class="node"><title>dir_53df83d7960db824e11408b8bebd620b</title>
<g id="a_node13"><a xlink:href="dir_53df83d7960db824e11408b8bebd620b.html" target="_top" xlink:title="Math">
<polygon fill="white" stroke="black" points="598,-108 544,-108 544,-72 598,-72 598,-108"/>
<text text-anchor="middle" x="571" y="-87.5" font-family="Helvetica,sans-Serif" font-size="10.00">Math</text>
</a>
</g>
</g>
<!-- dir_117832022884e4568a2a018de0ca94c2 -->
<g id="node14" class="node"><title>dir_117832022884e4568a2a018de0ca94c2</title>
<g id="a_node14"><a xlink:href="dir_117832022884e4568a2a018de0ca94c2.html" target="_top" xlink:title="Navigation">
<polygon fill="white" stroke="black" points="525.25,-108 462.75,-108 462.75,-72 525.25,-72 525.25,-108"/>
<text text-anchor="middle" x="494" y="-87.5" font-family="Helvetica,sans-Serif" font-size="10.00">Navigation</text>
</a>
</g>
</g>
<!-- dir_ce1cad6f4299f5779eefa9b0082fe699 -->
<g id="node15" class="node"><title>dir_ce1cad6f4299f5779eefa9b0082fe699</title>
<g id="a_node15"><a xlink:href="dir_ce1cad6f4299f5779eefa9b0082fe699.html" target="_top" xlink:title="Network">
<polygon fill="white" stroke="black" points="444,-108 390,-108 390,-72 444,-72 444,-108"/>
<text text-anchor="middle" x="417" y="-87.5" font-family="Helvetica,sans-Serif" font-size="10.00">Network</text>
</a>
</g>
</g>
<!-- dir_8d623e65e651fe084f4b872325ca978b -->
<g id="node16" class="node"><title>dir_8d623e65e651fe084f4b872325ca978b</title>
<g id="a_node16"><a xlink:href="dir_8d623e65e651fe084f4b872325ca978b.html" target="_top" xlink:title="Physics">
<polygon fill="white" stroke="black" points="372,-108 318,-108 318,-72 372,-72 372,-108"/>
<text text-anchor="middle" x="345" y="-87.5" font-family="Helvetica,sans-Serif" font-size="10.00">Physics</text>
</a>
</g>
</g>
<!-- dir_561d7927a8a40d54e996309e2c764a4d -->
<g id="node17" class="node"><title>dir_561d7927a8a40d54e996309e2c764a4d</title>
<g id="a_node17"><a xlink:href="dir_561d7927a8a40d54e996309e2c764a4d.html" target="_top" xlink:title="Resource">
<polygon fill="white" stroke="black" points="299.25,-108 240.75,-108 240.75,-72 299.25,-72 299.25,-108"/>
<text text-anchor="middle" x="270" y="-87.5" font-family="Helvetica,sans-Serif" font-size="10.00">Resource</text>
</a>
</g>
</g>
<!-- dir_fd2244d5b8a70de183e6299f6cb7004e -->
<g id="node21" class="node"><title>dir_fd2244d5b8a70de183e6299f6cb7004e</title>
<g id="a_node21"><a xlink:href="dir_fd2244d5b8a70de183e6299f6cb7004e.html" target="_top" xlink:title="ThirdParty">
<polygon fill="none" stroke="red" points="300.5,-36 239.5,-36 239.5,-0 300.5,-0 300.5,-36"/>
<text text-anchor="middle" x="270" y="-15.5" font-family="Helvetica,sans-Serif" font-size="10.00">ThirdParty</text>
</a>
</g>
</g>
<!-- dir_561d7927a8a40d54e996309e2c764a4d&#45;&gt;dir_fd2244d5b8a70de183e6299f6cb7004e -->
<g id="edge1" class="edge"><title>dir_561d7927a8a40d54e996309e2c764a4d&#45;&gt;dir_fd2244d5b8a70de183e6299f6cb7004e</title>
<path fill="none" stroke="black" d="M270,-71.6966C270,-63.9827 270,-54.7125 270,-46.1124"/>
<polygon fill="black" stroke="black" points="273.5,-46.1043 270,-36.1043 266.5,-46.1044 273.5,-46.1043"/>
<g id="a_edge1&#45;headlabel"><a xlink:href="dir_000027_000001.html" target="_top" xlink:title="1">
<text text-anchor="middle" x="276.339" y="-47.199" font-family="Helvetica,sans-Serif" font-size="10.00">1</text>
</a>
</g>
</g>
<!-- dir_f107037b8850a7d09c856996640cb9e6 -->
<g id="node18" class="node"><title>dir_f107037b8850a7d09c856996640cb9e6</title>
<g id="a_node18"><a xlink:href="dir_f107037b8850a7d09c856996640cb9e6.html" target="_top" xlink:title="Scene">
<polygon fill="white" stroke="black" points="222,-108 168,-108 168,-72 222,-72 222,-108"/>
<text text-anchor="middle" x="195" y="-87.5" font-family="Helvetica,sans-Serif" font-size="10.00">Scene</text>
</a>
</g>
</g>
<!-- dir_ee6d1758829962e826b9f262c35102e3 -->
<g id="node19" class="node"><title>dir_ee6d1758829962e826b9f262c35102e3</title>
<g id="a_node19"><a xlink:href="dir_ee6d1758829962e826b9f262c35102e3.html" target="_top" xlink:title="UI">
<polygon fill="white" stroke="black" points="150,-108 96,-108 96,-72 150,-72 150,-108"/>
<text text-anchor="middle" x="123" y="-87.5" font-family="Helvetica,sans-Serif" font-size="10.00">UI</text>
</a>
</g>
</g>
<!-- dir_20d80c9287f85693fcfcb75c53ed922f -->
<g id="node20" class="node"><title>dir_20d80c9287f85693fcfcb75c53ed922f</title>
<g id="a_node20"><a xlink:href="dir_20d80c9287f85693fcfcb75c53ed922f.html" target="_top" xlink:title="Urho2D">
<polygon fill="white" stroke="black" points="78,-108 24,-108 24,-72 78,-72 78,-108"/>
<text text-anchor="middle" x="51" y="-87.5" font-family="Helvetica,sans-Serif" font-size="10.00">Urho2D</text>
</a>
</g>
</g>
</g>
</svg>
