<?xml version="1.0" encoding="UTF-8" standalone="no"?>
<!DOCTYPE svg PUBLIC "-//W3C//DTD SVG 1.1//EN"
 "http://www.w3.org/Graphics/SVG/1.1/DTD/svg11.dtd">
<!-- Generated by graphviz version 2.36.0 (20140111.2315)
 -->
<!-- Title: Source/ThirdParty/rapidjson/include/rapidjson/error/error.h Pages: 1 -->
<svg width="168pt" height="186pt"
 viewBox="0.00 0.00 168.00 186.00" xmlns="http://www.w3.org/2000/svg" xmlns:xlink="http://www.w3.org/1999/xlink">
<g id="graph0" class="graph" transform="scale(1 1) rotate(0) translate(4 182)">
<title>Source/ThirdParty/rapidjson/include/rapidjson/error/error.h</title>
<!-- Node1 -->
<g id="node1" class="node"><title>Node1</title>
<polygon fill="#bfbfbf" stroke="black" points="6.5,-136.5 6.5,-177.5 153.5,-177.5 153.5,-136.5 6.5,-136.5"/>
<text text-anchor="start" x="14.5" y="-165.5" font-family="FreeSans" font-size="10.00">Source/ThirdParty/rapidjson</text>
<text text-anchor="start" x="14.5" y="-154.5" font-family="FreeSans" font-size="10.00">/include/rapidjson/error</text>
<text text-anchor="middle" x="80" y="-143.5" font-family="FreeSans" font-size="10.00">/error.h</text>
</g>
<!-- Node2 -->
<g id="node2" class="node"><title>Node2</title>
<g id="a_node2"><a xlink:href="reader_8h.html" target="_top" xlink:title="Source/ThirdParty/rapidjson\l/include/rapidjson/reader.h">
<polygon fill="none" stroke="black" points="6.5,-69 6.5,-99 153.5,-99 153.5,-69 6.5,-69"/>
<text text-anchor="start" x="14.5" y="-87" font-family="FreeSans" font-size="10.00">Source/ThirdParty/rapidjson</text>
<text text-anchor="middle" x="80" y="-76" font-family="FreeSans" font-size="10.00">/include/rapidjson/reader.h</text>
</a>
</g>
</g>
<!-- Node1&#45;&gt;Node2 -->
<g id="edge1" class="edge"><title>Node1&#45;&gt;Node2</title>
<path fill="none" stroke="midnightblue" d="M80,-126.019C80,-116.657 80,-106.77 80,-99.0485"/>
<polygon fill="midnightblue" stroke="midnightblue" points="76.5001,-126.223 80,-136.223 83.5001,-126.223 76.5001,-126.223"/>
</g>
<!-- Node3 -->
<g id="node3" class="node"><title>Node3</title>
<g id="a_node3"><a xlink:href="document_8h.html" target="_top" xlink:title="Source/ThirdParty/rapidjson\l/include/rapidjson/document.h">
<polygon fill="none" stroke="black" points="-0.5,-1 -0.5,-31 160.5,-31 160.5,-1 -0.5,-1"/>
<text text-anchor="start" x="7.5" y="-19" font-family="FreeSans" font-size="10.00">Source/ThirdParty/rapidjson</text>
<text text-anchor="middle" x="80" y="-8" font-family="FreeSans" font-size="10.00">/include/rapidjson/document.h</text>
</a>
</g>
</g>
<!-- Node2&#45;&gt;Node3 -->
<g id="edge2" class="edge"><title>Node2&#45;&gt;Node3</title>
<path fill="none" stroke="midnightblue" d="M80,-58.5322C80,-49.3606 80,-39.2449 80,-31.2931"/>
<polygon fill="midnightblue" stroke="midnightblue" points="76.5001,-58.6789 80,-68.679 83.5001,-58.679 76.5001,-58.6789"/>
</g>
</g>
</svg>
