<?xml version="1.0" encoding="UTF-8" standalone="no"?>
<!DOCTYPE svg PUBLIC "-//W3C//DTD SVG 1.1//EN"
 "http://www.w3.org/Graphics/SVG/1.1/DTD/svg11.dtd">
<!-- Generated by graphviz version 2.36.0 (20140111.2315)
 -->
<!-- Title: Graphical Class Hierarchy Pages: 1 -->
<svg width="324pt" height="191pt"
 viewBox="0.00 0.00 324.00 191.00" xmlns="http://www.w3.org/2000/svg" xmlns:xlink="http://www.w3.org/1999/xlink">
<g id="graph0" class="graph" transform="scale(1 1) rotate(0) translate(4 187)">
<title>Graphical Class Hierarchy</title>
<!-- Node1 -->
<g id="node1" class="node"><title>Node1</title>
<g id="a_node1"><a xlink:href="class_urho3_d_1_1_octree_query.html" target="_top" xlink:title="Base class for octree queries. ">
<polygon fill="none" stroke="black" points="0,-76.5 0,-95.5 120,-95.5 120,-76.5 0,-76.5"/>
<text text-anchor="middle" x="60" y="-83.5" font-family="FreeSans" font-size="10.00">Urho3D::OctreeQuery</text>
</a>
</g>
</g>
<!-- Node2 -->
<g id="node2" class="node"><title>Node2</title>
<g id="a_node2"><a xlink:href="class_urho3_d_1_1_all_content_octree_query.html" target="_top" xlink:title="Urho3D::AllContentOctree\lQuery">
<polygon fill="none" stroke="black" points="165.5,-153 165.5,-183 306.5,-183 306.5,-153 165.5,-153"/>
<text text-anchor="start" x="173.5" y="-171" font-family="FreeSans" font-size="10.00">Urho3D::AllContentOctree</text>
<text text-anchor="middle" x="236" y="-160" font-family="FreeSans" font-size="10.00">Query</text>
</a>
</g>
</g>
<!-- Node1&#45;&gt;Node2 -->
<g id="edge1" class="edge"><title>Node1&#45;&gt;Node2</title>
<path fill="none" stroke="midnightblue" d="M83.0219,-101.244C101.778,-113.723 129.779,-131.182 156,-143 164,-146.606 172.673,-149.913 181.244,-152.858"/>
<polygon fill="midnightblue" stroke="midnightblue" points="84.8526,-98.2573 74.6055,-95.5652 80.9372,-104.06 84.8526,-98.2573"/>
</g>
<!-- Node3 -->
<g id="node3" class="node"><title>Node3</title>
<g id="a_node3"><a xlink:href="class_urho3_d_1_1_box_octree_query.html" target="_top" xlink:title="Bounding box octree query. ">
<polygon fill="none" stroke="black" points="167,-114.5 167,-133.5 305,-133.5 305,-114.5 167,-114.5"/>
<text text-anchor="middle" x="236" y="-121.5" font-family="FreeSans" font-size="10.00">Urho3D::BoxOctreeQuery</text>
</a>
</g>
</g>
<!-- Node1&#45;&gt;Node3 -->
<g id="edge2" class="edge"><title>Node1&#45;&gt;Node3</title>
<path fill="none" stroke="midnightblue" d="M114.814,-97.7526C139.418,-103.126 168.187,-109.409 191.408,-114.48"/>
<polygon fill="midnightblue" stroke="midnightblue" points="115.424,-94.3033 104.908,-95.589 113.93,-101.142 115.424,-94.3033"/>
</g>
<!-- Node4 -->
<g id="node4" class="node"><title>Node4</title>
<g id="a_node4"><a xlink:href="class_urho3_d_1_1_frustum_octree_query.html" target="_top" xlink:title="Frustum octree query. ">
<polygon fill="none" stroke="black" points="156.5,-76.5 156.5,-95.5 315.5,-95.5 315.5,-76.5 156.5,-76.5"/>
<text text-anchor="middle" x="236" y="-83.5" font-family="FreeSans" font-size="10.00">Urho3D::FrustumOctreeQuery</text>
</a>
</g>
</g>
<!-- Node1&#45;&gt;Node4 -->
<g id="edge3" class="edge"><title>Node1&#45;&gt;Node4</title>
<path fill="none" stroke="midnightblue" d="M130.629,-86C139.133,-86 147.867,-86 156.489,-86"/>
<polygon fill="midnightblue" stroke="midnightblue" points="130.394,-82.5001 120.394,-86 130.394,-89.5001 130.394,-82.5001"/>
</g>
<!-- Node5 -->
<g id="node5" class="node"><title>Node5</title>
<g id="a_node5"><a xlink:href="class_urho3_d_1_1_point_octree_query.html" target="_top" xlink:title="Point octree query. ">
<polygon fill="none" stroke="black" points="164,-38.5 164,-57.5 308,-57.5 308,-38.5 164,-38.5"/>
<text text-anchor="middle" x="236" y="-45.5" font-family="FreeSans" font-size="10.00">Urho3D::PointOctreeQuery</text>
</a>
</g>
</g>
<!-- Node1&#45;&gt;Node5 -->
<g id="edge4" class="edge"><title>Node1&#45;&gt;Node5</title>
<path fill="none" stroke="midnightblue" d="M114.814,-74.2474C139.418,-68.8742 168.187,-62.5914 191.408,-57.5201"/>
<polygon fill="midnightblue" stroke="midnightblue" points="113.93,-70.8579 104.908,-76.411 115.424,-77.6967 113.93,-70.8579"/>
</g>
<!-- Node6 -->
<g id="node6" class="node"><title>Node6</title>
<g id="a_node6"><a xlink:href="class_urho3_d_1_1_sphere_octree_query.html" target="_top" xlink:title="Sphere octree query. ">
<polygon fill="none" stroke="black" points="158.5,-0.5 158.5,-19.5 313.5,-19.5 313.5,-0.5 158.5,-0.5"/>
<text text-anchor="middle" x="236" y="-7.5" font-family="FreeSans" font-size="10.00">Urho3D::SphereOctreeQuery</text>
</a>
</g>
</g>
<!-- Node1&#45;&gt;Node6 -->
<g id="edge5" class="edge"><title>Node1&#45;&gt;Node6</title>
<path fill="none" stroke="midnightblue" d="M82.4941,-70.4924C101.124,-57.7058 129.226,-39.9498 156,-29 165.14,-25.2621 175.188,-22.1478 184.964,-19.5955"/>
<polygon fill="midnightblue" stroke="midnightblue" points="80.3488,-67.7216 74.1567,-76.3186 84.3585,-73.4594 80.3488,-67.7216"/>
</g>
</g>
</svg>
