<?xml version="1.0" encoding="UTF-8" standalone="no"?>
<!DOCTYPE svg PUBLIC "-//W3C//DTD SVG 1.1//EN"
 "http://www.w3.org/Graphics/SVG/1.1/DTD/svg11.dtd">
<!-- Generated by graphviz version 2.43.0 (0)
 -->
<!-- Title: Urho3D::LightBatchQueue Pages: 1 -->
<svg width="1376pt" height="770pt"
 viewBox="0.00 0.00 1376.00 769.65" xmlns="http://www.w3.org/2000/svg" xmlns:xlink="http://www.w3.org/1999/xlink">
<g id="graph0" class="graph" transform="scale(1 1) rotate(0) translate(4 765.65)">
<title>Urho3D::LightBatchQueue</title>
<!-- Node1 -->
<g id="node1" class="node">
<title>Node1</title>
<g id="a_node1"><a xlink:title="Queue for light related draw calls.">
<polygon fill="#bfbfbf" stroke="black" points="817.5,-332.5 817.5,-351.5 960.5,-351.5 960.5,-332.5 817.5,-332.5"/>
<text text-anchor="middle" x="889" y="-339.5" font-family="Helvetica,sans-Serif" font-size="10.00">Urho3D::LightBatchQueue</text>
</a>
</g>
</g>
<!-- Node92 -->
<g id="node21" class="node">
<title>Node92</title>
<g id="a_node21"><a xlink:href="class_urho3_d_1_1_light.html" target="_top" xlink:title="Light component.">
<polygon fill="none" stroke="red" points="1091,-353.5 1091,-372.5 1174,-372.5 1174,-353.5 1091,-353.5"/>
<text text-anchor="middle" x="1132.5" y="-360.5" font-family="Helvetica,sans-Serif" font-size="10.00">Urho3D::Light</text>
</a>
</g>
</g>
<!-- Node1&#45;&gt;Node92 -->
<g id="edge34" class="edge">
<title>Node1&#45;&gt;Node92</title>
<path fill="none" stroke="#9a32cd" stroke-dasharray="5,2" d="M936.56,-330.34C974.04,-322.93 1027.74,-316.8 1073,-329 1090.47,-333.71 1108.09,-345.05 1119.36,-353.35"/>
<polygon fill="#9a32cd" stroke="#9a32cd" points="935.52,-326.98 926.44,-332.45 936.95,-333.83 935.52,-326.98"/>
<text text-anchor="middle" x="1029" y="-332" font-family="Helvetica,sans-Serif" font-size="10.00"> lightQueue_</text>
</g>
<!-- Node2 -->
<g id="node2" class="node">
<title>Node2</title>
<g id="a_node2"><a xlink:href="class_urho3_d_1_1_vector.html" target="_top" xlink:title=" ">
<polygon fill="none" stroke="black" points="418,-678 418,-708 556,-708 556,-678 418,-678"/>
<text text-anchor="start" x="426" y="-696" font-family="Helvetica,sans-Serif" font-size="10.00">Urho3D::Vector&lt; Urho3D</text>
<text text-anchor="middle" x="487" y="-685" font-family="Helvetica,sans-Serif" font-size="10.00">::ShadowBatchQueue &gt;</text>
</a>
</g>
</g>
<!-- Node2&#45;&gt;Node1 -->
<g id="edge1" class="edge">
<title>Node2&#45;&gt;Node1</title>
<path fill="none" stroke="#9a32cd" stroke-dasharray="5,2" d="M554.15,-671.19C554.79,-670.48 555.41,-669.75 556,-669 606.16,-605.04 523.02,-550.31 574,-487 638.17,-407.31 720.55,-488.25 793,-416 811.21,-397.84 792.15,-378.5 811,-361 815.14,-357.16 819.92,-354.06 825.05,-351.57"/>
<polygon fill="#9a32cd" stroke="#9a32cd" points="551.69,-668.7 546.49,-677.93 556.31,-673.96 551.69,-668.7"/>
<text text-anchor="middle" x="633.5" y="-490" font-family="Helvetica,sans-Serif" font-size="10.00"> shadowSplits_</text>
</g>
<!-- Node3 -->
<g id="node3" class="node">
<title>Node3</title>
<g id="a_node3"><a xlink:href="class_urho3_d_1_1_vector_base.html" target="_top" xlink:title="Vector base class.">
<polygon fill="none" stroke="black" points="3.5,-650.5 3.5,-669.5 117.5,-669.5 117.5,-650.5 3.5,-650.5"/>
<text text-anchor="middle" x="60.5" y="-657.5" font-family="Helvetica,sans-Serif" font-size="10.00">Urho3D::VectorBase</text>
</a>
</g>
</g>
<!-- Node3&#45;&gt;Node2 -->
<g id="edge2" class="edge">
<title>Node3&#45;&gt;Node2</title>
<path fill="none" stroke="midnightblue" d="M121.4,-671.22C127.34,-672.22 133.28,-673.16 139,-674 181.93,-680.3 192.73,-681.86 236,-685 297.39,-689.46 367.45,-691.43 417.75,-692.3"/>
<polygon fill="midnightblue" stroke="midnightblue" points="121.9,-667.76 111.45,-669.52 120.71,-674.66 121.9,-667.76"/>
</g>
<!-- Node4 -->
<g id="node4" class="node">
<title>Node4</title>
<g id="a_node4"><a xlink:href="class_urho3_d_1_1_p_o_d_vector.html" target="_top" xlink:title=" ">
<polygon fill="none" stroke="black" points="574,-507 574,-537 693,-537 693,-507 574,-507"/>
<text text-anchor="start" x="582" y="-525" font-family="Helvetica,sans-Serif" font-size="10.00">Urho3D::PODVector&lt;</text>
<text text-anchor="middle" x="633.5" y="-514" font-family="Helvetica,sans-Serif" font-size="10.00"> Urho3D::Light * &gt;</text>
</a>
</g>
</g>
<!-- Node3&#45;&gt;Node4 -->
<g id="edge4" class="edge">
<title>Node3&#45;&gt;Node4</title>
<path fill="none" stroke="midnightblue" d="M88.58,-674.57C168.26,-715.27 405.76,-820.64 556,-718 617.83,-675.76 629.69,-575.48 631.96,-537.21"/>
<polygon fill="midnightblue" stroke="midnightblue" points="89.72,-671.23 79.24,-669.73 86.5,-677.44 89.72,-671.23"/>
</g>
<!-- Node13 -->
<g id="node9" class="node">
<title>Node13</title>
<g id="a_node9"><a xlink:href="class_urho3_d_1_1_p_o_d_vector.html" target="_top" xlink:title=" ">
<polygon fill="none" stroke="black" points="248.5,-645 248.5,-675 387.5,-675 387.5,-645 248.5,-645"/>
<text text-anchor="start" x="256.5" y="-663" font-family="Helvetica,sans-Serif" font-size="10.00">Urho3D::PODVector&lt;</text>
<text text-anchor="middle" x="318" y="-652" font-family="Helvetica,sans-Serif" font-size="10.00"> Urho3D::BatchGroup * &gt;</text>
</a>
</g>
</g>
<!-- Node3&#45;&gt;Node13 -->
<g id="edge10" class="edge">
<title>Node3&#45;&gt;Node13</title>
<path fill="none" stroke="midnightblue" d="M127.76,-660C164.8,-660 210.9,-660 248.32,-660"/>
<polygon fill="midnightblue" stroke="midnightblue" points="127.57,-656.5 117.57,-660 127.57,-663.5 127.57,-656.5"/>
</g>
<!-- Node14 -->
<g id="node10" class="node">
<title>Node14</title>
<g id="a_node10"><a xlink:href="class_urho3_d_1_1_p_o_d_vector.html" target="_top" xlink:title=" ">
<polygon fill="none" stroke="black" points="258.5,-253 258.5,-283 377.5,-283 377.5,-253 258.5,-253"/>
<text text-anchor="start" x="266.5" y="-271" font-family="Helvetica,sans-Serif" font-size="10.00">Urho3D::PODVector&lt;</text>
<text text-anchor="middle" x="318" y="-260" font-family="Helvetica,sans-Serif" font-size="10.00"> Urho3D::Batch &gt;</text>
</a>
</g>
</g>
<!-- Node3&#45;&gt;Node14 -->
<g id="edge12" class="edge">
<title>Node3&#45;&gt;Node14</title>
<path fill="none" stroke="midnightblue" d="M65.04,-640.53C77.12,-579.66 122.48,-391.2 236,-293 242.46,-287.42 250.14,-283.08 258.17,-279.71"/>
<polygon fill="midnightblue" stroke="midnightblue" points="61.6,-639.88 63.16,-650.36 68.47,-641.19 61.6,-639.88"/>
</g>
<!-- Node17 -->
<g id="node13" class="node">
<title>Node17</title>
<g id="a_node13"><a xlink:href="class_urho3_d_1_1_p_o_d_vector.html" target="_top" xlink:title=" ">
<polygon fill="none" stroke="black" points="258.5,-528 258.5,-558 377.5,-558 377.5,-528 258.5,-528"/>
<text text-anchor="start" x="266.5" y="-546" font-family="Helvetica,sans-Serif" font-size="10.00">Urho3D::PODVector&lt;</text>
<text text-anchor="middle" x="318" y="-535" font-family="Helvetica,sans-Serif" font-size="10.00"> Urho3D::Batch * &gt;</text>
</a>
</g>
</g>
<!-- Node3&#45;&gt;Node17 -->
<g id="edge18" class="edge">
<title>Node3&#45;&gt;Node17</title>
<path fill="none" stroke="midnightblue" d="M86.36,-644.99C119.59,-625.39 180.7,-590.88 236,-568 244.7,-564.4 254.12,-561.04 263.34,-558.02"/>
<polygon fill="midnightblue" stroke="midnightblue" points="84.18,-642.22 77.37,-650.34 87.76,-648.24 84.18,-642.22"/>
</g>
<!-- Node4&#45;&gt;Node1 -->
<g id="edge3" class="edge">
<title>Node4&#45;&gt;Node1</title>
<path fill="none" stroke="#9a32cd" stroke-dasharray="5,2" d="M689.46,-503.73C696.69,-501.42 704.01,-499.12 711,-497 747.22,-486.01 767.82,-502.26 793,-474 826.82,-436.02 776.58,-398.44 811,-361 814.45,-357.25 818.51,-354.19 822.93,-351.69"/>
<polygon fill="#9a32cd" stroke="#9a32cd" points="688.15,-500.48 679.71,-506.88 690.3,-507.14 688.15,-500.48"/>
<text text-anchor="middle" x="752" y="-500" font-family="Helvetica,sans-Serif" font-size="10.00"> vertexLights_</text>
</g>
<!-- Node93 -->
<g id="node22" class="node">
<title>Node93</title>
<g id="a_node22"><a xlink:href="class_urho3_d_1_1_drawable.html" target="_top" xlink:title="Base class for visible components.">
<polygon fill="none" stroke="red" points="1262,-379.5 1262,-398.5 1368,-398.5 1368,-379.5 1262,-379.5"/>
<text text-anchor="middle" x="1315" y="-386.5" font-family="Helvetica,sans-Serif" font-size="10.00">Urho3D::Drawable</text>
</a>
</g>
</g>
<!-- Node4&#45;&gt;Node93 -->
<g id="edge31" class="edge">
<title>Node4&#45;&gt;Node93</title>
<path fill="none" stroke="#9a32cd" stroke-dasharray="5,2" d="M703.37,-516.99C731.24,-514.68 763.7,-511.64 793,-508 918.08,-492.45 950.24,-491.57 1073,-463 1152.08,-444.6 1243.09,-414.01 1287.23,-398.56"/>
<polygon fill="#9a32cd" stroke="#9a32cd" points="703,-513.51 693.32,-517.81 703.57,-520.49 703,-513.51"/>
<text text-anchor="middle" x="1029" y="-495" font-family="Helvetica,sans-Serif" font-size="10.00"> vertexLights_</text>
<text text-anchor="middle" x="1029" y="-484" font-family="Helvetica,sans-Serif" font-size="10.00">lights_</text>
</g>
<!-- Node5 -->
<g id="node5" class="node">
<title>Node5</title>
<g id="a_node5"><a xlink:href="struct_urho3_d_1_1_batch_queue.html" target="_top" xlink:title="Queue that contains both instanced and non&#45;instanced draw calls.">
<polygon fill="none" stroke="black" points="574,-407.5 574,-426.5 693,-426.5 693,-407.5 574,-407.5"/>
<text text-anchor="middle" x="633.5" y="-414.5" font-family="Helvetica,sans-Serif" font-size="10.00">Urho3D::BatchQueue</text>
</a>
</g>
</g>
<!-- Node5&#45;&gt;Node1 -->
<g id="edge5" class="edge">
<title>Node5&#45;&gt;Node1</title>
<path fill="none" stroke="#9a32cd" stroke-dasharray="5,2" d="M672.26,-404.23C707.85,-392.38 762.78,-374.58 811,-361 822.66,-357.71 835.41,-354.44 847.11,-351.56"/>
<polygon fill="#9a32cd" stroke="#9a32cd" points="671.13,-400.92 662.76,-407.41 673.35,-407.56 671.13,-400.92"/>
<text text-anchor="middle" x="752" y="-404" font-family="Helvetica,sans-Serif" font-size="10.00"> litBaseBatches_</text>
<text text-anchor="middle" x="752" y="-393" font-family="Helvetica,sans-Serif" font-size="10.00">litBatches_</text>
</g>
<!-- Node6 -->
<g id="node6" class="node">
<title>Node6</title>
<g id="a_node6"><a xlink:href="class_urho3_d_1_1_hash_map.html" target="_top" xlink:title=" ">
<polygon fill="none" stroke="red" points="237.5,-479 237.5,-509 398.5,-509 398.5,-479 237.5,-479"/>
<text text-anchor="start" x="245.5" y="-497" font-family="Helvetica,sans-Serif" font-size="10.00">Urho3D::HashMap&lt; unsigned</text>
<text text-anchor="middle" x="318" y="-486" font-family="Helvetica,sans-Serif" font-size="10.00"> short, unsigned short &gt;</text>
</a>
</g>
</g>
<!-- Node6&#45;&gt;Node5 -->
<g id="edge6" class="edge">
<title>Node6&#45;&gt;Node5</title>
<path fill="none" stroke="#9a32cd" stroke-dasharray="5,2" d="M408.62,-483.41C453.61,-476.58 508.51,-465.93 556,-450 564.48,-447.16 565.86,-444.7 574,-441 585.09,-435.96 597.57,-430.78 608.13,-426.53"/>
<polygon fill="#9a32cd" stroke="#9a32cd" points="407.97,-479.97 398.59,-484.89 409,-486.89 407.97,-479.97"/>
<text text-anchor="middle" x="487" y="-495" font-family="Helvetica,sans-Serif" font-size="10.00"> materialRemapping_</text>
<text text-anchor="middle" x="487" y="-484" font-family="Helvetica,sans-Serif" font-size="10.00">geometryRemapping_</text>
</g>
<!-- Node11 -->
<g id="node7" class="node">
<title>Node11</title>
<g id="a_node7"><a xlink:href="class_urho3_d_1_1_hash_map.html" target="_top" xlink:title=" ">
<polygon fill="none" stroke="red" points="236,-430 236,-460 400,-460 400,-430 236,-430"/>
<text text-anchor="start" x="244" y="-448" font-family="Helvetica,sans-Serif" font-size="10.00">Urho3D::HashMap&lt; unsigned,</text>
<text text-anchor="middle" x="318" y="-437" font-family="Helvetica,sans-Serif" font-size="10.00"> unsigned &gt;</text>
</a>
</g>
</g>
<!-- Node11&#45;&gt;Node5 -->
<g id="edge7" class="edge">
<title>Node11&#45;&gt;Node5</title>
<path fill="none" stroke="#9a32cd" stroke-dasharray="5,2" d="M410.2,-436.85C463.02,-432.14 527.95,-426.34 573.97,-422.23"/>
<polygon fill="#9a32cd" stroke="#9a32cd" points="409.79,-433.38 400.14,-437.75 410.41,-440.35 409.79,-433.38"/>
<text text-anchor="middle" x="487" y="-438" font-family="Helvetica,sans-Serif" font-size="10.00"> shaderRemapping_</text>
</g>
<!-- Node12 -->
<g id="node8" class="node">
<title>Node12</title>
<g id="a_node8"><a xlink:href="class_urho3_d_1_1_hash_map.html" target="_top" xlink:title=" ">
<polygon fill="none" stroke="red" points="241.5,-369.5 241.5,-410.5 394.5,-410.5 394.5,-369.5 241.5,-369.5"/>
<text text-anchor="start" x="249.5" y="-398.5" font-family="Helvetica,sans-Serif" font-size="10.00">Urho3D::HashMap&lt; Urho3D</text>
<text text-anchor="start" x="249.5" y="-387.5" font-family="Helvetica,sans-Serif" font-size="10.00">::BatchGroupKey, Urho3D</text>
<text text-anchor="middle" x="318" y="-376.5" font-family="Helvetica,sans-Serif" font-size="10.00">::BatchGroup &gt;</text>
</a>
</g>
</g>
<!-- Node12&#45;&gt;Node5 -->
<g id="edge8" class="edge">
<title>Node12&#45;&gt;Node5</title>
<path fill="none" stroke="#9a32cd" stroke-dasharray="5,2" d="M405.09,-397.41C458.79,-402.04 526.48,-407.87 573.99,-411.96"/>
<polygon fill="#9a32cd" stroke="#9a32cd" points="405.15,-393.91 394.89,-396.54 404.55,-400.88 405.15,-393.91"/>
<text text-anchor="middle" x="487" y="-412" font-family="Helvetica,sans-Serif" font-size="10.00"> batchGroups_</text>
</g>
<!-- Node13&#45;&gt;Node5 -->
<g id="edge9" class="edge">
<title>Node13&#45;&gt;Node5</title>
<path fill="none" stroke="#9a32cd" stroke-dasharray="5,2" d="M397.9,-656.75C458.32,-652.48 534.82,-642.65 556,-620 583.31,-590.8 550.1,-473.05 574,-441 578.73,-434.66 585.42,-429.99 592.6,-426.55"/>
<polygon fill="#9a32cd" stroke="#9a32cd" points="397.33,-653.28 387.59,-657.43 397.8,-660.26 397.33,-653.28"/>
<text text-anchor="middle" x="487" y="-657" font-family="Helvetica,sans-Serif" font-size="10.00"> sortedBatchGroups_</text>
</g>
<!-- Node14&#45;&gt;Node1 -->
<g id="edge28" class="edge">
<title>Node14&#45;&gt;Node1</title>
<path fill="none" stroke="#9a32cd" stroke-dasharray="5,2" d="M387.73,-271.56C435.13,-274.42 499.52,-279.11 556,-286 657.54,-298.39 775.4,-320.01 839.82,-332.45"/>
<polygon fill="#9a32cd" stroke="#9a32cd" points="387.77,-268.05 377.58,-270.96 387.36,-275.04 387.77,-268.05"/>
<text text-anchor="middle" x="633.5" y="-308" font-family="Helvetica,sans-Serif" font-size="10.00"> volumeBatches_</text>
</g>
<!-- Node14&#45;&gt;Node5 -->
<g id="edge11" class="edge">
<title>Node14&#45;&gt;Node5</title>
<path fill="none" stroke="#9a32cd" stroke-dasharray="5,2" d="M387.77,-279.38C452.56,-290.51 541.77,-307.05 556,-316 592.87,-339.18 618.47,-386.92 628.18,-407.37"/>
<polygon fill="#9a32cd" stroke="#9a32cd" points="388.04,-275.88 377.6,-277.64 386.87,-282.78 388.04,-275.88"/>
<text text-anchor="middle" x="487" y="-319" font-family="Helvetica,sans-Serif" font-size="10.00"> batches_</text>
</g>
<!-- Node15 -->
<g id="node11" class="node">
<title>Node15</title>
<g id="a_node11"><a xlink:href="class_urho3_d_1_1_string.html" target="_top" xlink:title="String class.">
<polygon fill="none" stroke="black" points="274,-302.5 274,-321.5 362,-321.5 362,-302.5 274,-302.5"/>
<text text-anchor="middle" x="318" y="-309.5" font-family="Helvetica,sans-Serif" font-size="10.00">Urho3D::String</text>
</a>
</g>
</g>
<!-- Node15&#45;&gt;Node5 -->
<g id="edge13" class="edge">
<title>Node15&#45;&gt;Node5</title>
<path fill="none" stroke="#9a32cd" stroke-dasharray="5,2" d="M372.17,-320.98C421.12,-330.28 495.16,-347 556,-372 579.37,-381.6 604.2,-397.37 619.02,-407.46"/>
<polygon fill="#9a32cd" stroke="#9a32cd" points="372.59,-317.5 362.12,-319.1 371.31,-324.38 372.59,-317.5"/>
<text text-anchor="middle" x="487" y="-386" font-family="Helvetica,sans-Serif" font-size="10.00"> psExtraDefines_</text>
<text text-anchor="middle" x="487" y="-375" font-family="Helvetica,sans-Serif" font-size="10.00">vsExtraDefines_</text>
</g>
<!-- Node15&#45;&gt;Node15 -->
<g id="edge14" class="edge">
<title>Node15&#45;&gt;Node15</title>
<path fill="none" stroke="#9a32cd" stroke-dasharray="5,2" d="M292.33,-331.03C293.73,-336.13 302.29,-340 318,-340 342.53,-340 349.62,-330.57 339.27,-321.76"/>
<polygon fill="#9a32cd" stroke="#9a32cd" points="295.61,-332.29 296.73,-321.76 289.28,-329.29 295.61,-332.29"/>
<text text-anchor="middle" x="318" y="-343" font-family="Helvetica,sans-Serif" font-size="10.00"> EMPTY</text>
</g>
<!-- Node16 -->
<g id="node12" class="node">
<title>Node16</title>
<g id="a_node12"><a xlink:href="class_urho3_d_1_1_string_hash.html" target="_top" xlink:title="32&#45;bit hash value for a string.">
<polygon fill="none" stroke="black" points="261.5,-577.5 261.5,-596.5 374.5,-596.5 374.5,-577.5 261.5,-577.5"/>
<text text-anchor="middle" x="318" y="-584.5" font-family="Helvetica,sans-Serif" font-size="10.00">Urho3D::StringHash</text>
</a>
</g>
</g>
<!-- Node16&#45;&gt;Node5 -->
<g id="edge15" class="edge">
<title>Node16&#45;&gt;Node5</title>
<path fill="none" stroke="#9a32cd" stroke-dasharray="5,2" d="M384.71,-586.05C446.31,-583.71 532.38,-576.22 556,-553 591.95,-517.65 542.68,-480.5 574,-441 578.98,-434.72 585.88,-430.07 593.19,-426.63"/>
<polygon fill="#9a32cd" stroke="#9a32cd" points="384.53,-582.55 374.66,-586.4 384.77,-589.55 384.53,-582.55"/>
<text text-anchor="start" x="435" y="-608" font-family="Helvetica,sans-Serif" font-size="10.00"> psExtraDefinesHash</text>
<text text-anchor="middle" x="487" y="-597" font-family="Helvetica,sans-Serif" font-size="10.00">_</text>
<text text-anchor="middle" x="487" y="-586" font-family="Helvetica,sans-Serif" font-size="10.00">vsExtraDefinesHash_</text>
</g>
<!-- Node16&#45;&gt;Node16 -->
<g id="edge16" class="edge">
<title>Node16&#45;&gt;Node16</title>
<path fill="none" stroke="#9a32cd" stroke-dasharray="5,2" d="M292.33,-606.03C293.73,-611.13 302.29,-615 318,-615 342.53,-615 349.62,-605.57 339.27,-596.76"/>
<polygon fill="#9a32cd" stroke="#9a32cd" points="295.61,-607.29 296.73,-596.76 289.28,-604.29 295.61,-607.29"/>
<text text-anchor="middle" x="318" y="-618" font-family="Helvetica,sans-Serif" font-size="10.00"> ZERO</text>
</g>
<!-- Node17&#45;&gt;Node5 -->
<g id="edge17" class="edge">
<title>Node17&#45;&gt;Node5</title>
<path fill="none" stroke="#9a32cd" stroke-dasharray="5,2" d="M387.89,-540.71C448.83,-537.26 531.73,-528.62 556,-507 578.7,-486.78 553.86,-463.78 574,-441 579.6,-434.67 587.12,-429.97 594.9,-426.5"/>
<polygon fill="#9a32cd" stroke="#9a32cd" points="387.35,-537.23 377.55,-541.26 387.72,-544.22 387.35,-537.23"/>
<text text-anchor="middle" x="487" y="-541" font-family="Helvetica,sans-Serif" font-size="10.00"> sortedBatches_</text>
</g>
<!-- Node18 -->
<g id="node14" class="node">
<title>Node18</title>
<g id="a_node14"><a xlink:href="class_urho3_d_1_1_texture2_d.html" target="_top" xlink:title="2D texture resource.">
<polygon fill="none" stroke="black" points="579,-121.5 579,-140.5 688,-140.5 688,-121.5 579,-121.5"/>
<text text-anchor="middle" x="633.5" y="-128.5" font-family="Helvetica,sans-Serif" font-size="10.00">Urho3D::Texture2D</text>
</a>
</g>
</g>
<!-- Node18&#45;&gt;Node1 -->
<g id="edge19" class="edge">
<title>Node18&#45;&gt;Node1</title>
<path fill="none" stroke="#9a32cd" stroke-dasharray="5,2" d="M657.6,-146.26C689.23,-167.5 747.28,-207.82 793,-247 826.83,-275.99 863.06,-314.6 879.28,-332.34"/>
<polygon fill="#9a32cd" stroke="#9a32cd" points="659.31,-143.19 649.05,-140.54 655.42,-149.01 659.31,-143.19"/>
<text text-anchor="middle" x="752" y="-250" font-family="Helvetica,sans-Serif" font-size="10.00"> shadowMap_</text>
</g>
<!-- Node19 -->
<g id="node15" class="node">
<title>Node19</title>
<g id="a_node15"><a xlink:href="class_urho3_d_1_1_texture.html" target="_top" xlink:title="Base class for texture resources.">
<polygon fill="none" stroke="red" points="270.5,-28.5 270.5,-47.5 365.5,-47.5 365.5,-28.5 270.5,-28.5"/>
<text text-anchor="middle" x="318" y="-35.5" font-family="Helvetica,sans-Serif" font-size="10.00">Urho3D::Texture</text>
</a>
</g>
</g>
<!-- Node19&#45;&gt;Node18 -->
<g id="edge20" class="edge">
<title>Node19&#45;&gt;Node18</title>
<path fill="none" stroke="midnightblue" d="M375.89,-46.88C424.61,-55.44 496.18,-70.32 556,-92 577.86,-99.93 601.49,-112.67 616.61,-121.42"/>
<polygon fill="midnightblue" stroke="midnightblue" points="376.3,-43.4 365.85,-45.15 375.11,-50.3 376.3,-43.4"/>
</g>
<!-- Node87 -->
<g id="node16" class="node">
<title>Node87</title>
<g id="a_node16"><a xlink:href="class_urho3_d_1_1_shared_ptr.html" target="_top" xlink:title=" ">
<polygon fill="none" stroke="black" points="3,-18 3,-48 118,-48 118,-18 3,-18"/>
<text text-anchor="start" x="11" y="-36" font-family="Helvetica,sans-Serif" font-size="10.00">Urho3D::SharedPtr&lt;</text>
<text text-anchor="middle" x="60.5" y="-25" font-family="Helvetica,sans-Serif" font-size="10.00"> Urho3D::Texture &gt;</text>
</a>
</g>
</g>
<!-- Node19&#45;&gt;Node87 -->
<g id="edge22" class="edge">
<title>Node19&#45;&gt;Node87</title>
<path fill="none" stroke="#9a32cd" stroke-dasharray="5,2" d="M260.43,-43.57C225.42,-46.19 179.55,-48.12 139,-45 132.21,-44.48 125.12,-43.7 118.1,-42.79"/>
<polygon fill="#9a32cd" stroke="#9a32cd" points="260.78,-47.05 270.47,-42.78 260.23,-40.08 260.78,-47.05"/>
<text text-anchor="middle" x="178.5" y="-50" font-family="Helvetica,sans-Serif" font-size="10.00"> ptr_</text>
</g>
<!-- Node87&#45;&gt;Node19 -->
<g id="edge21" class="edge">
<title>Node87&#45;&gt;Node19</title>
<path fill="none" stroke="#9a32cd" stroke-dasharray="5,2" d="M128.02,-32.93C155.83,-33.03 188.49,-33.31 218,-34 235.11,-34.4 253.88,-35.09 270.43,-35.79"/>
<polygon fill="#9a32cd" stroke="#9a32cd" points="128.02,-29.43 118.01,-32.9 128,-36.43 128.02,-29.43"/>
<text text-anchor="middle" x="178.5" y="-37" font-family="Helvetica,sans-Serif" font-size="10.00"> backupTexture_</text>
</g>
<!-- Node87&#45;&gt;Node92 -->
<g id="edge37" class="edge">
<title>Node87&#45;&gt;Node92</title>
<path fill="none" stroke="#9a32cd" stroke-dasharray="5,2" d="M128.04,-19.65C179.42,-10.5 252.43,0 317,0 317,0 317,0 890,0 1064.85,0 1120.79,-295.56 1130.04,-353.29"/>
<polygon fill="#9a32cd" stroke="#9a32cd" points="127.27,-16.23 118.06,-21.46 128.52,-23.12 127.27,-16.23"/>
<text text-anchor="middle" x="633.5" y="-14" font-family="Helvetica,sans-Serif" font-size="10.00"> shapeTexture_</text>
<text text-anchor="middle" x="633.5" y="-3" font-family="Helvetica,sans-Serif" font-size="10.00">rampTexture_</text>
</g>
<!-- Node88 -->
<g id="node17" class="node">
<title>Node88</title>
<g id="a_node17"><a xlink:href="class_urho3_d_1_1_color.html" target="_top" xlink:title="RGBA color.">
<polygon fill="none" stroke="red" points="18,-177.5 18,-196.5 103,-196.5 103,-177.5 18,-177.5"/>
<text text-anchor="middle" x="60.5" y="-184.5" font-family="Helvetica,sans-Serif" font-size="10.00">Urho3D::Color</text>
</a>
</g>
</g>
<!-- Node88&#45;&gt;Node19 -->
<g id="edge23" class="edge">
<title>Node88&#45;&gt;Node19</title>
<path fill="none" stroke="#9a32cd" stroke-dasharray="5,2" d="M78.56,-170.42C108.1,-142.65 171.81,-86.85 236,-57 246.74,-52.01 258.91,-48.26 270.49,-45.48"/>
<polygon fill="#9a32cd" stroke="#9a32cd" points="75.99,-168.04 71.16,-177.47 80.81,-173.11 75.99,-168.04"/>
<text text-anchor="middle" x="178.5" y="-120" font-family="Helvetica,sans-Serif" font-size="10.00"> borderColor_</text>
</g>
<!-- Node88&#45;&gt;Node88 -->
<g id="edge24" class="edge">
<title>Node88&#45;&gt;Node88</title>
<path fill="none" stroke="#9a32cd" stroke-dasharray="5,2" d="M38.55,-206.03C39.75,-211.13 47.06,-215 60.5,-215 81.47,-215 87.54,-205.57 78.69,-196.76"/>
<polygon fill="#9a32cd" stroke="#9a32cd" points="41.8,-207.34 42.31,-196.76 35.31,-204.71 41.8,-207.34"/>
<text text-anchor="middle" x="60.5" y="-328" font-family="Helvetica,sans-Serif" font-size="10.00"> TRANSPARENT_BLACK</text>
<text text-anchor="middle" x="60.5" y="-317" font-family="Helvetica,sans-Serif" font-size="10.00">CYAN</text>
<text text-anchor="middle" x="60.5" y="-306" font-family="Helvetica,sans-Serif" font-size="10.00">GRAY</text>
<text text-anchor="middle" x="60.5" y="-295" font-family="Helvetica,sans-Serif" font-size="10.00">YELLOW</text>
<text text-anchor="middle" x="60.5" y="-284" font-family="Helvetica,sans-Serif" font-size="10.00">MAGENTA</text>
<text text-anchor="middle" x="60.5" y="-273" font-family="Helvetica,sans-Serif" font-size="10.00">WHITE</text>
<text text-anchor="middle" x="60.5" y="-262" font-family="Helvetica,sans-Serif" font-size="10.00">BLUE</text>
<text text-anchor="middle" x="60.5" y="-251" font-family="Helvetica,sans-Serif" font-size="10.00">BLACK</text>
<text text-anchor="middle" x="60.5" y="-240" font-family="Helvetica,sans-Serif" font-size="10.00">RED</text>
<text text-anchor="middle" x="60.5" y="-229" font-family="Helvetica,sans-Serif" font-size="10.00">GREEN</text>
<text text-anchor="middle" x="60.5" y="-218" font-family="Helvetica,sans-Serif" font-size="10.00">...</text>
</g>
<!-- Node88&#45;&gt;Node92 -->
<g id="edge38" class="edge">
<title>Node88&#45;&gt;Node92</title>
<path fill="none" stroke="#9a32cd" stroke-dasharray="5,2" d="M111.79,-198.64C163.09,-209.49 245.15,-224 317,-224 317,-224 317,-224 890,-224 994.01,-224 1093.65,-322.04 1122.9,-353.45"/>
<polygon fill="#9a32cd" stroke="#9a32cd" points="112.46,-195.21 101.95,-196.53 110.99,-202.05 112.46,-195.21"/>
<text text-anchor="middle" x="633.5" y="-227" font-family="Helvetica,sans-Serif" font-size="10.00"> color_</text>
</g>
<!-- Node55 -->
<g id="node18" class="node">
<title>Node55</title>
<g id="a_node18"><a xlink:href="class_urho3_d_1_1_shared_ptr.html" target="_top" xlink:title=" ">
<polygon fill="none" stroke="red" points="260.5,-116 260.5,-146 375.5,-146 375.5,-116 260.5,-116"/>
<text text-anchor="start" x="268.5" y="-134" font-family="Helvetica,sans-Serif" font-size="10.00">Urho3D::SharedPtr&lt;</text>
<text text-anchor="middle" x="318" y="-123" font-family="Helvetica,sans-Serif" font-size="10.00"> Urho3D::Image &gt;</text>
</a>
</g>
</g>
<!-- Node55&#45;&gt;Node18 -->
<g id="edge25" class="edge">
<title>Node55&#45;&gt;Node18</title>
<path fill="none" stroke="#9a32cd" stroke-dasharray="5,2" d="M385.86,-131C443.42,-131 525.39,-131 578.77,-131"/>
<polygon fill="#9a32cd" stroke="#9a32cd" points="385.77,-127.5 375.77,-131 385.77,-134.5 385.77,-127.5"/>
<text text-anchor="middle" x="487" y="-134" font-family="Helvetica,sans-Serif" font-size="10.00"> loadImage_</text>
</g>
<!-- Node90 -->
<g id="node19" class="node">
<title>Node90</title>
<g id="a_node19"><a xlink:href="class_urho3_d_1_1_shared_ptr.html" target="_top" xlink:title=" ">
<polygon fill="none" stroke="red" points="245.5,-67 245.5,-97 390.5,-97 390.5,-67 245.5,-67"/>
<text text-anchor="start" x="253.5" y="-85" font-family="Helvetica,sans-Serif" font-size="10.00">Urho3D::SharedPtr&lt;</text>
<text text-anchor="middle" x="318" y="-74" font-family="Helvetica,sans-Serif" font-size="10.00"> Urho3D::RenderSurface &gt;</text>
</a>
</g>
</g>
<!-- Node90&#45;&gt;Node18 -->
<g id="edge26" class="edge">
<title>Node90&#45;&gt;Node18</title>
<path fill="none" stroke="#9a32cd" stroke-dasharray="5,2" d="M400.87,-92.69C446.6,-98.93 504.57,-107.27 556,-116 565.74,-117.65 576.15,-119.58 586.05,-121.5"/>
<polygon fill="#9a32cd" stroke="#9a32cd" points="401.09,-89.19 390.71,-91.32 400.15,-96.13 401.09,-89.19"/>
<text text-anchor="middle" x="487" y="-119" font-family="Helvetica,sans-Serif" font-size="10.00"> renderSurface_</text>
</g>
<!-- Node91 -->
<g id="node20" class="node">
<title>Node91</title>
<g id="a_node20"><a xlink:href="class_urho3_d_1_1_shared_ptr.html" target="_top" xlink:title=" ">
<polygon fill="none" stroke="red" points="260.5,-165 260.5,-195 375.5,-195 375.5,-165 260.5,-165"/>
<text text-anchor="start" x="268.5" y="-183" font-family="Helvetica,sans-Serif" font-size="10.00">Urho3D::SharedPtr&lt;</text>
<text text-anchor="middle" x="318" y="-172" font-family="Helvetica,sans-Serif" font-size="10.00"> Urho3D::XMLFile &gt;</text>
</a>
</g>
</g>
<!-- Node91&#45;&gt;Node18 -->
<g id="edge27" class="edge">
<title>Node91&#45;&gt;Node18</title>
<path fill="none" stroke="#9a32cd" stroke-dasharray="5,2" d="M385.8,-171.34C433.36,-164.96 498.73,-155.72 556,-146 565.74,-144.35 576.15,-142.42 586.05,-140.5"/>
<polygon fill="#9a32cd" stroke="#9a32cd" points="385.08,-167.91 375.63,-172.7 386.01,-174.85 385.08,-167.91"/>
<text text-anchor="middle" x="487" y="-170" font-family="Helvetica,sans-Serif" font-size="10.00"> loadParameters_</text>
</g>
<!-- Node92&#45;&gt;Node1 -->
<g id="edge29" class="edge">
<title>Node92&#45;&gt;Node1</title>
<path fill="none" stroke="#9a32cd" stroke-dasharray="5,2" d="M1080.67,-353.03C1078.08,-352.65 1075.51,-352.3 1073,-352 1036.04,-347.54 994.64,-345.06 960.58,-343.69"/>
<polygon fill="#9a32cd" stroke="#9a32cd" points="1080.27,-356.51 1090.69,-354.62 1081.37,-349.59 1080.27,-356.51"/>
<text text-anchor="middle" x="1029" y="-355" font-family="Helvetica,sans-Serif" font-size="10.00"> light_</text>
</g>
<!-- Node92&#45;&gt;Node93 -->
<g id="edge32" class="edge">
<title>Node92&#45;&gt;Node93</title>
<path fill="none" stroke="#9a32cd" stroke-dasharray="5,2" d="M1184.42,-358.46C1203.27,-357.85 1224.74,-358.42 1244,-362 1261.93,-365.34 1281.18,-373.1 1294.95,-379.45"/>
<polygon fill="#9a32cd" stroke="#9a32cd" points="1184.07,-354.97 1174.24,-358.91 1184.38,-361.97 1184.07,-354.97"/>
<text text-anchor="middle" x="1218" y="-365" font-family="Helvetica,sans-Serif" font-size="10.00"> firstLight_</text>
</g>
<!-- Node93&#45;&gt;Node92 -->
<g id="edge30" class="edge">
<title>Node93&#45;&gt;Node92</title>
<path fill="none" stroke="midnightblue" d="M1251.77,-382.93C1232.56,-380.77 1211.36,-378.09 1192,-375 1186.16,-374.07 1180.03,-372.96 1174.01,-371.79"/>
<polygon fill="midnightblue" stroke="midnightblue" points="1251.6,-386.43 1261.92,-384.04 1252.36,-379.47 1251.6,-386.43"/>
</g>
<!-- Node164 -->
<g id="node23" class="node">
<title>Node164</title>
<g id="a_node23"><a xlink:href="struct_urho3_d_1_1_cascade_parameters.html" target="_top" xlink:title="Cascaded shadow map parameters.">
<polygon fill="none" stroke="red" points="811,-446.5 811,-465.5 967,-465.5 967,-446.5 811,-446.5"/>
<text text-anchor="middle" x="889" y="-453.5" font-family="Helvetica,sans-Serif" font-size="10.00">Urho3D::CascadeParameters</text>
</a>
</g>
</g>
<!-- Node164&#45;&gt;Node92 -->
<g id="edge33" class="edge">
<title>Node164&#45;&gt;Node92</title>
<path fill="none" stroke="#9a32cd" stroke-dasharray="5,2" d="M977.34,-449.94C1008.86,-445.06 1043.82,-436.38 1073,-421 1095.52,-409.13 1115.01,-385.73 1124.79,-372.57"/>
<polygon fill="#9a32cd" stroke="#9a32cd" points="976.64,-446.5 967.24,-451.39 977.64,-453.43 976.64,-446.5"/>
<text text-anchor="middle" x="1029" y="-451" font-family="Helvetica,sans-Serif" font-size="10.00"> shadowCascade_</text>
</g>
<!-- Node165 -->
<g id="node24" class="node">
<title>Node165</title>
<g id="a_node24"><a xlink:href="struct_urho3_d_1_1_focus_parameters.html" target="_top" xlink:title="Shadow map focusing parameters.">
<polygon fill="none" stroke="black" points="817.5,-408.5 817.5,-427.5 960.5,-427.5 960.5,-408.5 817.5,-408.5"/>
<text text-anchor="middle" x="889" y="-415.5" font-family="Helvetica,sans-Serif" font-size="10.00">Urho3D::FocusParameters</text>
</a>
</g>
</g>
<!-- Node165&#45;&gt;Node92 -->
<g id="edge35" class="edge">
<title>Node165&#45;&gt;Node92</title>
<path fill="none" stroke="#9a32cd" stroke-dasharray="5,2" d="M971.09,-409C1003.21,-404.32 1040.22,-397.54 1073,-388 1086.57,-384.05 1101.2,-377.8 1112.43,-372.54"/>
<polygon fill="#9a32cd" stroke="#9a32cd" points="970.25,-405.58 960.84,-410.44 971.23,-412.51 970.25,-405.58"/>
<text text-anchor="middle" x="1029" y="-409" font-family="Helvetica,sans-Serif" font-size="10.00"> shadowFocus_</text>
</g>
<!-- Node166 -->
<g id="node25" class="node">
<title>Node166</title>
<g id="a_node25"><a xlink:href="struct_urho3_d_1_1_bias_parameters.html" target="_top" xlink:title="Depth bias parameters. Used both by lights (for shadow mapping) and materials.">
<polygon fill="none" stroke="black" points="821,-370.5 821,-389.5 957,-389.5 957,-370.5 821,-370.5"/>
<text text-anchor="middle" x="889" y="-377.5" font-family="Helvetica,sans-Serif" font-size="10.00">Urho3D::BiasParameters</text>
</a>
</g>
</g>
<!-- Node166&#45;&gt;Node92 -->
<g id="edge36" class="edge">
<title>Node166&#45;&gt;Node92</title>
<path fill="none" stroke="#9a32cd" stroke-dasharray="5,2" d="M967.51,-374.54C1008.46,-371.66 1057.07,-368.24 1090.68,-365.87"/>
<polygon fill="#9a32cd" stroke="#9a32cd" points="967,-371.07 957.27,-375.26 967.49,-378.05 967,-371.07"/>
<text text-anchor="middle" x="1029" y="-376" font-family="Helvetica,sans-Serif" font-size="10.00"> shadowBias_</text>
</g>
</g>
</svg>
