<?xml version="1.0" encoding="UTF-8" standalone="no"?>
<!DOCTYPE svg PUBLIC "-//W3C//DTD SVG 1.1//EN"
 "http://www.w3.org/Graphics/SVG/1.1/DTD/svg11.dtd">
<!-- Generated by graphviz version 2.43.0 (0)
 -->
<!-- Title: Urho3D::TileMapInfo2D::GetMapHeight Pages: 1 -->
<svg width="863pt" height="181pt"
 viewBox="0.00 0.00 863.00 181.00" xmlns="http://www.w3.org/2000/svg" xmlns:xlink="http://www.w3.org/1999/xlink">
<g id="graph0" class="graph" transform="scale(1 1) rotate(0) translate(4 177)">
<title>Urho3D::TileMapInfo2D::GetMapHeight</title>
<!-- Node1 -->
<g id="node1" class="node">
<title>Node1</title>
<g id="a_node1"><a xlink:title=" ">
<polygon fill="#bfbfbf" stroke="black" points="724,-71.5 724,-101.5 855,-101.5 855,-71.5 724,-71.5"/>
<text text-anchor="start" x="732" y="-89.5" font-family="Helvetica,sans-Serif" font-size="10.00">Urho3D::TileMapInfo2D</text>
<text text-anchor="middle" x="789.5" y="-78.5" font-family="Helvetica,sans-Serif" font-size="10.00">::GetMapHeight</text>
</a>
</g>
</g>
<!-- Node2 -->
<g id="node2" class="node">
<title>Node2</title>
<g id="a_node2"><a xlink:href="struct_urho3_d_1_1_tile_map_info2_d.html#a7ebc1b77bd654ff5f322d0c887a9d1ae" target="_top" xlink:title="Convert tmx position to Urho position.">
<polygon fill="none" stroke="black" points="546.5,-137.5 546.5,-167.5 677.5,-167.5 677.5,-137.5 546.5,-137.5"/>
<text text-anchor="start" x="554.5" y="-155.5" font-family="Helvetica,sans-Serif" font-size="10.00">Urho3D::TileMapInfo2D</text>
<text text-anchor="middle" x="612" y="-144.5" font-family="Helvetica,sans-Serif" font-size="10.00">::ConvertPosition</text>
</a>
</g>
</g>
<!-- Node1&#45;&gt;Node2 -->
<g id="edge1" class="edge">
<title>Node1&#45;&gt;Node2</title>
<path fill="none" stroke="midnightblue" d="M738.55,-105.28C711.47,-115.47 678.46,-127.88 653.08,-137.43"/>
<polygon fill="midnightblue" stroke="midnightblue" points="740.11,-108.44 748.24,-101.64 737.64,-101.89 740.11,-108.44"/>
</g>
<!-- Node5 -->
<g id="node5" class="node">
<title>Node5</title>
<g id="a_node5"><a xlink:href="class_urho3_d_1_1_tmx_file2_d.html#ac547014321b24294a62bbf61b271768d" target="_top" xlink:title="Load tile set.">
<polygon fill="none" stroke="black" points="172.5,-93.5 172.5,-123.5 290.5,-123.5 290.5,-93.5 172.5,-93.5"/>
<text text-anchor="start" x="180.5" y="-111.5" font-family="Helvetica,sans-Serif" font-size="10.00">Urho3D::TmxFile2D::</text>
<text text-anchor="middle" x="231.5" y="-100.5" font-family="Helvetica,sans-Serif" font-size="10.00">LoadTileSet</text>
</a>
</g>
</g>
<!-- Node1&#45;&gt;Node5 -->
<g id="edge8" class="edge">
<title>Node1&#45;&gt;Node5</title>
<path fill="none" stroke="midnightblue" d="M713.69,-89.46C601.56,-93.9 392.26,-102.18 290.72,-106.2"/>
<polygon fill="midnightblue" stroke="midnightblue" points="714.05,-92.95 723.9,-89.06 713.77,-85.95 714.05,-92.95"/>
</g>
<!-- Node7 -->
<g id="node7" class="node">
<title>Node7</title>
<g id="a_node7"><a xlink:href="class_urho3_d_1_1_tile_map2_d.html#a4ed5cbef75e154a2cd2b7bdf3b1742f2" target="_top" xlink:title="Visualize the component as debug geometry.">
<polygon fill="none" stroke="black" points="551,-49.5 551,-79.5 673,-79.5 673,-49.5 551,-49.5"/>
<text text-anchor="start" x="559" y="-67.5" font-family="Helvetica,sans-Serif" font-size="10.00">Urho3D::TileMap2D::</text>
<text text-anchor="middle" x="612" y="-56.5" font-family="Helvetica,sans-Serif" font-size="10.00">DrawDebugGeometry</text>
</a>
</g>
</g>
<!-- Node1&#45;&gt;Node7 -->
<g id="edge6" class="edge">
<title>Node1&#45;&gt;Node7</title>
<path fill="none" stroke="midnightblue" d="M713.47,-77.09C700.03,-75.41 686.18,-73.67 673.22,-72.05"/>
<polygon fill="midnightblue" stroke="midnightblue" points="713.29,-80.6 723.65,-78.37 714.16,-73.65 713.29,-80.6"/>
</g>
<!-- Node8 -->
<g id="node8" class="node">
<title>Node8</title>
<g id="a_node8"><a xlink:href="class_urho3_d_1_1_tmx_image_layer2_d.html#a0d5a9a200d752fc699e2b37866354078" target="_top" xlink:title="Load from XML element.">
<polygon fill="none" stroke="black" points="536,-0.5 536,-30.5 688,-30.5 688,-0.5 536,-0.5"/>
<text text-anchor="start" x="544" y="-18.5" font-family="Helvetica,sans-Serif" font-size="10.00">Urho3D::TmxImageLayer2D</text>
<text text-anchor="middle" x="612" y="-7.5" font-family="Helvetica,sans-Serif" font-size="10.00">::Load</text>
</a>
</g>
</g>
<!-- Node1&#45;&gt;Node8 -->
<g id="edge7" class="edge">
<title>Node1&#45;&gt;Node8</title>
<path fill="none" stroke="midnightblue" d="M749.37,-66.78C730.98,-57.88 708.62,-47.58 688,-39.5 680.11,-36.41 671.64,-33.4 663.34,-30.63"/>
<polygon fill="midnightblue" stroke="midnightblue" points="748.07,-70.04 758.59,-71.29 751.15,-63.75 748.07,-70.04"/>
</g>
<!-- Node3 -->
<g id="node3" class="node">
<title>Node3</title>
<g id="a_node3"><a xlink:href="class_urho3_d_1_1_tmx_object_group2_d.html#ab375c16809923627cf58560b9829708c" target="_top" xlink:title="Store object.">
<polygon fill="none" stroke="black" points="345,-137.5 345,-167.5 500,-167.5 500,-137.5 345,-137.5"/>
<text text-anchor="start" x="353" y="-155.5" font-family="Helvetica,sans-Serif" font-size="10.00">Urho3D::TmxObjectGroup2D</text>
<text text-anchor="middle" x="422.5" y="-144.5" font-family="Helvetica,sans-Serif" font-size="10.00">::StoreObject</text>
</a>
</g>
</g>
<!-- Node2&#45;&gt;Node3 -->
<g id="edge2" class="edge">
<title>Node2&#45;&gt;Node3</title>
<path fill="none" stroke="midnightblue" d="M536.17,-152.5C524.3,-152.5 512.01,-152.5 500.1,-152.5"/>
<polygon fill="midnightblue" stroke="midnightblue" points="536.47,-156 546.47,-152.5 536.47,-149 536.47,-156"/>
</g>
<!-- Node4 -->
<g id="node4" class="node">
<title>Node4</title>
<g id="a_node4"><a xlink:href="class_urho3_d_1_1_tmx_object_group2_d.html#a238e23b0d0d2b5c44e40d2ced5abd9d0" target="_top" xlink:title="Load from XML element.">
<polygon fill="none" stroke="black" points="154,-142.5 154,-172.5 309,-172.5 309,-142.5 154,-142.5"/>
<text text-anchor="start" x="162" y="-160.5" font-family="Helvetica,sans-Serif" font-size="10.00">Urho3D::TmxObjectGroup2D</text>
<text text-anchor="middle" x="231.5" y="-149.5" font-family="Helvetica,sans-Serif" font-size="10.00">::Load</text>
</a>
</g>
</g>
<!-- Node3&#45;&gt;Node4 -->
<g id="edge3" class="edge">
<title>Node3&#45;&gt;Node4</title>
<path fill="none" stroke="midnightblue" d="M334.9,-154.79C326.33,-155.02 317.67,-155.25 309.21,-155.47"/>
<polygon fill="midnightblue" stroke="midnightblue" points="335,-158.29 344.9,-154.53 334.81,-151.29 335,-158.29"/>
</g>
<!-- Node3&#45;&gt;Node5 -->
<g id="edge4" class="edge">
<title>Node3&#45;&gt;Node5</title>
<path fill="none" stroke="midnightblue" d="M347.02,-135.16C328.3,-130.8 308.49,-126.19 290.7,-122.05"/>
<polygon fill="midnightblue" stroke="midnightblue" points="346.45,-138.62 356.99,-137.48 348.04,-131.8 346.45,-138.62"/>
</g>
<!-- Node6 -->
<g id="node6" class="node">
<title>Node6</title>
<g id="a_node6"><a xlink:href="class_urho3_d_1_1_tmx_file2_d.html#a77e4d39d96cfe2323c7dd9f8a34b1806" target="_top" xlink:title="Finish resource loading. Always called from the main thread. Return true if successful.">
<polygon fill="none" stroke="black" points="0,-93.5 0,-123.5 118,-123.5 118,-93.5 0,-93.5"/>
<text text-anchor="start" x="8" y="-111.5" font-family="Helvetica,sans-Serif" font-size="10.00">Urho3D::TmxFile2D::</text>
<text text-anchor="middle" x="59" y="-100.5" font-family="Helvetica,sans-Serif" font-size="10.00">EndLoad</text>
</a>
</g>
</g>
<!-- Node5&#45;&gt;Node6 -->
<g id="edge5" class="edge">
<title>Node5&#45;&gt;Node6</title>
<path fill="none" stroke="midnightblue" d="M161.9,-108.5C147.42,-108.5 132.28,-108.5 118.23,-108.5"/>
<polygon fill="midnightblue" stroke="midnightblue" points="162.3,-112 172.3,-108.5 162.3,-105 162.3,-112"/>
</g>
</g>
</svg>
