<?xml version="1.0" encoding="UTF-8" standalone="no"?>
<!DOCTYPE svg PUBLIC "-//W3C//DTD SVG 1.1//EN"
 "http://www.w3.org/Graphics/SVG/1.1/DTD/svg11.dtd">
<!-- Generated by graphviz version 2.36.0 (20140111.2315)
 -->
<!-- Title: internal::Schema&lt; SchemaDocumentType &gt;::SchemaArray Pages: 1 -->
<svg width="1282pt" height="414pt"
 viewBox="0.00 0.00 1282.00 414.00" xmlns="http://www.w3.org/2000/svg" xmlns:xlink="http://www.w3.org/1999/xlink">
<g id="graph0" class="graph" transform="scale(1 1) rotate(0) translate(4 410)">
<title>internal::Schema&lt; SchemaDocumentType &gt;::SchemaArray</title>
<!-- Node1 -->
<g id="node1" class="node"><title>Node1</title>
<polygon fill="#bfbfbf" stroke="black" points="588,-293 588,-323 746,-323 746,-293 588,-293"/>
<text text-anchor="start" x="596" y="-311" font-family="Helvetica,sans-Serif" font-size="10.00">internal::Schema&lt; Schema</text>
<text text-anchor="middle" x="667" y="-300" font-family="Helvetica,sans-Serif" font-size="10.00">DocumentType &gt;::SchemaArray</text>
</g>
<!-- Node2 -->
<g id="node2" class="node"><title>Node2</title>
<g id="a_node2"><a xlink:href="classinternal_1_1_schema.html" target="_top" xlink:title="internal::Schema\&lt; Schema\lDocumentType \&gt;">
<polygon fill="none" stroke="black" points="836.5,-270 836.5,-300 971.5,-300 971.5,-270 836.5,-270"/>
<text text-anchor="start" x="844.5" y="-288" font-family="Helvetica,sans-Serif" font-size="10.00">internal::Schema&lt; Schema</text>
<text text-anchor="middle" x="904" y="-277" font-family="Helvetica,sans-Serif" font-size="10.00">DocumentType &gt;</text>
</a>
</g>
</g>
<!-- Node1&#45;&gt;Node2 -->
<g id="edge18" class="edge"><title>Node1&#45;&gt;Node2</title>
<path fill="none" stroke="#9a32cd" stroke-dasharray="5,2" d="M756.304,-311.875C776.637,-311.694 798.125,-310.642 818,-308 830.578,-306.328 843.935,-303.323 856.244,-300.024"/>
<polygon fill="#9a32cd" stroke="#9a32cd" points="756.104,-308.375 746.111,-311.895 756.118,-315.375 756.104,-308.375"/>
<text text-anchor="middle" x="791" y="-337" font-family="Helvetica,sans-Serif" font-size="10.00"> oneOf_</text>
<text text-anchor="middle" x="791" y="-326" font-family="Helvetica,sans-Serif" font-size="10.00">allOf_</text>
<text text-anchor="middle" x="791" y="-315" font-family="Helvetica,sans-Serif" font-size="10.00">anyOf_</text>
</g>
<!-- Node2&#45;&gt;Node1 -->
<g id="edge1" class="edge"><title>Node2&#45;&gt;Node1</title>
<path fill="none" stroke="#9a32cd" stroke-dasharray="5,2" d="M826.062,-291.255C805.86,-293.004 784.102,-294.981 764,-297 758.158,-297.587 752.119,-298.219 746.046,-298.872"/>
<polygon fill="#9a32cd" stroke="#9a32cd" points="826.488,-294.732 836.152,-290.39 825.889,-287.758 826.488,-294.732"/>
<text text-anchor="middle" x="791" y="-300" font-family="Helvetica,sans-Serif" font-size="10.00"> schemas</text>
</g>
<!-- Node2&#45;&gt;Node2 -->
<g id="edge2" class="edge"><title>Node2&#45;&gt;Node2</title>
<path fill="none" stroke="#9a32cd" stroke-dasharray="5,2" d="M884.396,-310.598C887.075,-314.97 893.609,-318 904,-318 921.5,-318 928.062,-309.406 923.688,-300.275"/>
<polygon fill="#9a32cd" stroke="#9a32cd" points="887.893,-310.247 884.312,-300.275 880.893,-310.303 887.893,-310.247"/>
<text text-anchor="start" x="851" y="-398" font-family="Helvetica,sans-Serif" font-size="10.00"> additionalItemsSchema</text>
<text text-anchor="middle" x="904" y="-387" font-family="Helvetica,sans-Serif" font-size="10.00">_</text>
<text text-anchor="middle" x="904" y="-376" font-family="Helvetica,sans-Serif" font-size="10.00">itemsTuple_</text>
<text text-anchor="start" x="851" y="-365" font-family="Helvetica,sans-Serif" font-size="10.00">additionalProperties</text>
<text text-anchor="middle" x="904" y="-354" font-family="Helvetica,sans-Serif" font-size="10.00">Schema_</text>
<text text-anchor="middle" x="904" y="-343" font-family="Helvetica,sans-Serif" font-size="10.00">itemsList_</text>
<text text-anchor="middle" x="904" y="-332" font-family="Helvetica,sans-Serif" font-size="10.00">not_</text>
<text text-anchor="middle" x="904" y="-321" font-family="Helvetica,sans-Serif" font-size="10.00">typeless_</text>
</g>
<!-- Node3 -->
<g id="node3" class="node"><title>Node3</title>
<g id="a_node3"><a xlink:href="structinternal_1_1_schema_1_1_property.html" target="_top" xlink:title="internal::Schema\&lt; Schema\lDocumentType \&gt;::Property">
<polygon fill="none" stroke="black" points="1122.5,-188 1122.5,-218 1257.5,-218 1257.5,-188 1122.5,-188"/>
<text text-anchor="start" x="1130.5" y="-206" font-family="Helvetica,sans-Serif" font-size="10.00">internal::Schema&lt; Schema</text>
<text text-anchor="middle" x="1190" y="-195" font-family="Helvetica,sans-Serif" font-size="10.00">DocumentType &gt;::Property</text>
</a>
</g>
</g>
<!-- Node2&#45;&gt;Node3 -->
<g id="edge4" class="edge"><title>Node2&#45;&gt;Node3</title>
<path fill="none" stroke="#9a32cd" stroke-dasharray="5,2" d="M981.581,-268.152C1014.55,-260.388 1053.4,-250.556 1088,-240 1109.08,-233.569 1132.18,-225.206 1150.97,-218.058"/>
<polygon fill="#9a32cd" stroke="#9a32cd" points="980.491,-264.812 971.548,-270.494 982.082,-271.629 980.491,-264.812"/>
<text text-anchor="middle" x="1039" y="-280" font-family="Helvetica,sans-Serif" font-size="10.00"> schema</text>
<text text-anchor="middle" x="1039" y="-269" font-family="Helvetica,sans-Serif" font-size="10.00">dependenciesSchema</text>
</g>
<!-- Node17 -->
<g id="node17" class="node"><title>Node17</title>
<g id="a_node17"><a xlink:href="structinternal_1_1_schema_1_1_pattern_property.html" target="_top" xlink:title="internal::Schema\&lt; Schema\lDocumentType \&gt;::PatternProperty">
<polygon fill="none" stroke="black" points="1106.5,-292 1106.5,-322 1273.5,-322 1273.5,-292 1106.5,-292"/>
<text text-anchor="start" x="1114.5" y="-310" font-family="Helvetica,sans-Serif" font-size="10.00">internal::Schema&lt; Schema</text>
<text text-anchor="middle" x="1190" y="-299" font-family="Helvetica,sans-Serif" font-size="10.00">DocumentType &gt;::PatternProperty</text>
</a>
</g>
</g>
<!-- Node2&#45;&gt;Node17 -->
<g id="edge21" class="edge"><title>Node2&#45;&gt;Node17</title>
<path fill="none" stroke="#9a32cd" stroke-dasharray="5,2" d="M981.709,-290.942C1020.25,-293.928 1066.99,-297.548 1106.32,-300.595"/>
<polygon fill="#9a32cd" stroke="#9a32cd" points="981.826,-287.441 971.585,-290.158 981.285,-294.42 981.826,-287.441"/>
<text text-anchor="middle" x="1039" y="-302" font-family="Helvetica,sans-Serif" font-size="10.00"> schema</text>
</g>
<!-- Node3&#45;&gt;Node2 -->
<g id="edge3" class="edge"><title>Node3&#45;&gt;Node2</title>
<path fill="none" stroke="#9a32cd" stroke-dasharray="5,2" d="M1112.42,-203.043C1074.27,-205.508 1028.24,-212.273 990,-229 980.459,-233.173 980.464,-237.933 972,-244 959.143,-253.216 944.181,-262.499 931.662,-269.895"/>
<polygon fill="#9a32cd" stroke="#9a32cd" points="1112.66,-206.536 1122.45,-202.482 1112.27,-199.546 1112.66,-206.536"/>
<text text-anchor="middle" x="1039" y="-232" font-family="Helvetica,sans-Serif" font-size="10.00"> properties_</text>
</g>
<!-- Node4 -->
<g id="node4" class="node"><title>Node4</title>
<g id="a_node4"><a xlink:href="class_generic_value.html" target="_top" xlink:title="GenericValue\&lt; EncodingType,\l AllocatorType \&gt;">
<polygon fill="none" stroke="black" points="592.5,-143 592.5,-173 741.5,-173 741.5,-143 592.5,-143"/>
<text text-anchor="start" x="600.5" y="-161" font-family="Helvetica,sans-Serif" font-size="10.00">GenericValue&lt; EncodingType,</text>
<text text-anchor="middle" x="667" y="-150" font-family="Helvetica,sans-Serif" font-size="10.00"> AllocatorType &gt;</text>
</a>
</g>
</g>
<!-- Node4&#45;&gt;Node2 -->
<g id="edge23" class="edge"><title>Node4&#45;&gt;Node2</title>
<path fill="none" stroke="#9a32cd" stroke-dasharray="5,2" d="M717.664,-176.893C747.831,-189.393 786.474,-207.271 818,-228 826.944,-233.88 827.401,-237.626 836,-244 848.599,-253.339 863.399,-262.561 875.88,-269.887"/>
<polygon fill="#9a32cd" stroke="#9a32cd" points="718.768,-173.564 708.187,-173.027 716.124,-180.045 718.768,-173.564"/>
<text text-anchor="middle" x="791" y="-253" font-family="Helvetica,sans-Serif" font-size="10.00"> multipleOf_</text>
<text text-anchor="middle" x="791" y="-242" font-family="Helvetica,sans-Serif" font-size="10.00">minimum_</text>
<text text-anchor="middle" x="791" y="-231" font-family="Helvetica,sans-Serif" font-size="10.00">maximum_</text>
</g>
<!-- Node4&#45;&gt;Node3 -->
<g id="edge5" class="edge"><title>Node4&#45;&gt;Node3</title>
<path fill="none" stroke="#9a32cd" stroke-dasharray="5,2" d="M751.602,-165.221C854.701,-174.126 1027.87,-189.083 1122.43,-197.25"/>
<polygon fill="#9a32cd" stroke="#9a32cd" points="751.806,-161.726 741.542,-164.352 751.203,-168.7 751.806,-161.726"/>
<text text-anchor="middle" x="904" y="-188" font-family="Helvetica,sans-Serif" font-size="10.00"> name</text>
</g>
<!-- Node5 -->
<g id="node5" class="node"><title>Node5</title>
<g id="a_node5"><a xlink:href="union_generic_value_1_1_data.html" target="_top" xlink:title="GenericValue\&lt; Encoding,\l Allocator \&gt;::Data">
<polygon fill="none" stroke="black" points="396,-98 396,-128 524,-128 524,-98 396,-98"/>
<text text-anchor="start" x="404" y="-116" font-family="Helvetica,sans-Serif" font-size="10.00">GenericValue&lt; Encoding,</text>
<text text-anchor="middle" x="460" y="-105" font-family="Helvetica,sans-Serif" font-size="10.00"> Allocator &gt;::Data</text>
</a>
</g>
</g>
<!-- Node5&#45;&gt;Node4 -->
<g id="edge6" class="edge"><title>Node5&#45;&gt;Node4</title>
<path fill="none" stroke="#9a32cd" stroke-dasharray="5,2" d="M534.128,-129.053C554.709,-133.57 577.016,-138.467 597.327,-142.925"/>
<polygon fill="#9a32cd" stroke="#9a32cd" points="534.697,-125.594 524.179,-126.869 533.196,-132.431 534.697,-125.594"/>
<text text-anchor="middle" x="556" y="-140" font-family="Helvetica,sans-Serif" font-size="10.00"> data_</text>
</g>
<!-- Node8 -->
<g id="node8" class="node"><title>Node8</title>
<g id="a_node8"><a xlink:href="class_generic_value.html" target="_top" xlink:title="Represents a JSON value. Use Value for UTF8 encoding and default allocator. ">
<polygon fill="none" stroke="black" points="603,-46 603,-76 731,-76 731,-46 603,-46"/>
<text text-anchor="start" x="611" y="-64" font-family="Helvetica,sans-Serif" font-size="10.00">GenericValue&lt; Encoding,</text>
<text text-anchor="middle" x="667" y="-53" font-family="Helvetica,sans-Serif" font-size="10.00"> Allocator &gt;</text>
</a>
</g>
</g>
<!-- Node5&#45;&gt;Node8 -->
<g id="edge10" class="edge"><title>Node5&#45;&gt;Node8</title>
<path fill="none" stroke="#9a32cd" stroke-dasharray="5,2" d="M517.129,-95.0013C525.436,-92.5343 533.918,-90.1231 542,-88 561.711,-82.8222 583.367,-77.8611 602.989,-73.6361"/>
<polygon fill="#9a32cd" stroke="#9a32cd" points="516.056,-91.6694 507.493,-97.9091 518.078,-98.3709 516.056,-91.6694"/>
<text text-anchor="middle" x="556" y="-91" font-family="Helvetica,sans-Serif" font-size="10.00"> data_</text>
</g>
<!-- Node6 -->
<g id="node6" class="node"><title>Node6</title>
<g id="a_node6"><a xlink:href="struct_generic_value_1_1_string.html" target="_top" xlink:title="GenericValue\&lt; Encoding,\l Allocator \&gt;::String">
<polygon fill="none" stroke="black" points="218,-196 218,-226 346,-226 346,-196 218,-196"/>
<text text-anchor="start" x="226" y="-214" font-family="Helvetica,sans-Serif" font-size="10.00">GenericValue&lt; Encoding,</text>
<text text-anchor="middle" x="282" y="-203" font-family="Helvetica,sans-Serif" font-size="10.00"> Allocator &gt;::String</text>
</a>
</g>
</g>
<!-- Node6&#45;&gt;Node5 -->
<g id="edge7" class="edge"><title>Node6&#45;&gt;Node5</title>
<path fill="none" stroke="#9a32cd" stroke-dasharray="5,2" d="M333.741,-191.88C337.935,-189.994 342.069,-188.025 346,-186 379.844,-168.567 416.401,-143.739 438.496,-128"/>
<polygon fill="#9a32cd" stroke="#9a32cd" points="332.313,-188.685 324.523,-195.866 335.091,-195.11 332.313,-188.685"/>
<text text-anchor="middle" x="371" y="-179" font-family="Helvetica,sans-Serif" font-size="10.00"> s</text>
</g>
<!-- Node7 -->
<g id="node7" class="node"><title>Node7</title>
<g id="a_node7"><a xlink:href="struct_generic_value_1_1_array_data.html" target="_top" xlink:title="GenericValue\&lt; Encoding,\l Allocator \&gt;::ArrayData">
<polygon fill="none" stroke="black" points="840,-69 840,-99 968,-99 968,-69 840,-69"/>
<text text-anchor="start" x="848" y="-87" font-family="Helvetica,sans-Serif" font-size="10.00">GenericValue&lt; Encoding,</text>
<text text-anchor="middle" x="904" y="-76" font-family="Helvetica,sans-Serif" font-size="10.00"> Allocator &gt;::ArrayData</text>
</a>
</g>
</g>
<!-- Node7&#45;&gt;Node5 -->
<g id="edge8" class="edge"><title>Node7&#45;&gt;Node5</title>
<path fill="none" stroke="#9a32cd" stroke-dasharray="5,2" d="M829.865,-90.12C825.852,-90.4255 821.877,-90.7209 818,-91 715.185,-98.4007 595.6,-105.454 524.224,-109.499"/>
<polygon fill="#9a32cd" stroke="#9a32cd" points="830.184,-93.6059 839.884,-89.3434 829.643,-86.6268 830.184,-93.6059"/>
<text text-anchor="middle" x="667" y="-109" font-family="Helvetica,sans-Serif" font-size="10.00"> a</text>
</g>
<!-- Node8&#45;&gt;Node7 -->
<g id="edge9" class="edge"><title>Node8&#45;&gt;Node7</title>
<path fill="none" stroke="#9a32cd" stroke-dasharray="5,2" d="M741.325,-68.1764C772.827,-71.2597 809.288,-74.8282 839.602,-77.7951"/>
<polygon fill="#9a32cd" stroke="#9a32cd" points="741.578,-64.6846 731.285,-67.1938 740.896,-71.6513 741.578,-64.6846"/>
<text text-anchor="middle" x="791" y="-79" font-family="Helvetica,sans-Serif" font-size="10.00"> elements</text>
</g>
<!-- Node9 -->
<g id="node9" class="node"><title>Node9</title>
<g id="a_node9"><a xlink:href="struct_generic_value_1_1_object_data.html" target="_top" xlink:title="GenericValue\&lt; Encoding,\l Allocator \&gt;::ObjectData">
<polygon fill="none" stroke="black" points="218,-147 218,-177 346,-177 346,-147 218,-147"/>
<text text-anchor="start" x="226" y="-165" font-family="Helvetica,sans-Serif" font-size="10.00">GenericValue&lt; Encoding,</text>
<text text-anchor="middle" x="282" y="-154" font-family="Helvetica,sans-Serif" font-size="10.00"> Allocator &gt;::ObjectData</text>
</a>
</g>
</g>
<!-- Node9&#45;&gt;Node5 -->
<g id="edge11" class="edge"><title>Node9&#45;&gt;Node5</title>
<path fill="none" stroke="#9a32cd" stroke-dasharray="5,2" d="M347.011,-144.179C366.014,-138.888 386.632,-133.148 404.937,-128.052"/>
<polygon fill="#9a32cd" stroke="#9a32cd" points="345.937,-140.845 337.242,-146.899 347.814,-147.588 345.937,-140.845"/>
<text text-anchor="middle" x="371" y="-142" font-family="Helvetica,sans-Serif" font-size="10.00"> o</text>
</g>
<!-- Node10 -->
<g id="node10" class="node"><title>Node10</title>
<g id="a_node10"><a xlink:href="struct_generic_member.html" target="_top" xlink:title="Name&#45;value pair in a JSON object value. ">
<polygon fill="none" stroke="black" points="0,-147 0,-177 138,-177 138,-147 0,-147"/>
<text text-anchor="start" x="8" y="-165" font-family="Helvetica,sans-Serif" font-size="10.00">GenericMember&lt; Encoding,</text>
<text text-anchor="middle" x="69" y="-154" font-family="Helvetica,sans-Serif" font-size="10.00"> Allocator &gt;</text>
</a>
</g>
</g>
<!-- Node10&#45;&gt;Node9 -->
<g id="edge12" class="edge"><title>Node10&#45;&gt;Node9</title>
<path fill="none" stroke="#9a32cd" stroke-dasharray="5,2" d="M148.237,-162C171.119,-162 195.838,-162 217.673,-162"/>
<polygon fill="#9a32cd" stroke="#9a32cd" points="148.214,-158.5 138.214,-162 148.214,-165.5 148.214,-158.5"/>
<text text-anchor="middle" x="178" y="-165" font-family="Helvetica,sans-Serif" font-size="10.00"> members</text>
</g>
<!-- Node11 -->
<g id="node11" class="node"><title>Node11</title>
<g id="a_node11"><a xlink:href="union_generic_value_1_1_number.html" target="_top" xlink:title="GenericValue\&lt; Encoding,\l Allocator \&gt;::Number">
<polygon fill="none" stroke="black" points="218,-98 218,-128 346,-128 346,-98 218,-98"/>
<text text-anchor="start" x="226" y="-116" font-family="Helvetica,sans-Serif" font-size="10.00">GenericValue&lt; Encoding,</text>
<text text-anchor="middle" x="282" y="-105" font-family="Helvetica,sans-Serif" font-size="10.00"> Allocator &gt;::Number</text>
</a>
</g>
</g>
<!-- Node11&#45;&gt;Node5 -->
<g id="edge13" class="edge"><title>Node11&#45;&gt;Node5</title>
<path fill="none" stroke="#9a32cd" stroke-dasharray="5,2" d="M356.42,-113C369.507,-113 383.036,-113 395.806,-113"/>
<polygon fill="#9a32cd" stroke="#9a32cd" points="356.043,-109.5 346.043,-113 356.043,-116.5 356.043,-109.5"/>
<text text-anchor="middle" x="371" y="-116" font-family="Helvetica,sans-Serif" font-size="10.00"> n</text>
</g>
<!-- Node12 -->
<g id="node12" class="node"><title>Node12</title>
<g id="a_node12"><a xlink:href="struct_generic_value_1_1_number_1_1_u.html" target="_top" xlink:title="GenericValue\&lt; Encoding,\l Allocator \&gt;::Number::U">
<polygon fill="none" stroke="black" points="5,-49 5,-79 133,-79 133,-49 5,-49"/>
<text text-anchor="start" x="13" y="-67" font-family="Helvetica,sans-Serif" font-size="10.00">GenericValue&lt; Encoding,</text>
<text text-anchor="middle" x="69" y="-56" font-family="Helvetica,sans-Serif" font-size="10.00"> Allocator &gt;::Number::U</text>
</a>
</g>
</g>
<!-- Node12&#45;&gt;Node11 -->
<g id="edge14" class="edge"><title>Node12&#45;&gt;Node11</title>
<path fill="none" stroke="#9a32cd" stroke-dasharray="5,2" d="M142.949,-80.9407C167.36,-86.6096 194.348,-92.8771 217.939,-98.3556"/>
<polygon fill="#9a32cd" stroke="#9a32cd" points="143.554,-77.4881 133.021,-78.6352 141.97,-84.3067 143.554,-77.4881"/>
<text text-anchor="middle" x="178" y="-96" font-family="Helvetica,sans-Serif" font-size="10.00"> u</text>
</g>
<!-- Node13 -->
<g id="node13" class="node"><title>Node13</title>
<g id="a_node13"><a xlink:href="struct_generic_value_1_1_number_1_1_i.html" target="_top" xlink:title="GenericValue\&lt; Encoding,\l Allocator \&gt;::Number::I">
<polygon fill="none" stroke="black" points="5,-98 5,-128 133,-128 133,-98 5,-98"/>
<text text-anchor="start" x="13" y="-116" font-family="Helvetica,sans-Serif" font-size="10.00">GenericValue&lt; Encoding,</text>
<text text-anchor="middle" x="69" y="-105" font-family="Helvetica,sans-Serif" font-size="10.00"> Allocator &gt;::Number::I</text>
</a>
</g>
</g>
<!-- Node13&#45;&gt;Node11 -->
<g id="edge15" class="edge"><title>Node13&#45;&gt;Node11</title>
<path fill="none" stroke="#9a32cd" stroke-dasharray="5,2" d="M143.274,-113C167.599,-113 194.453,-113 217.939,-113"/>
<polygon fill="#9a32cd" stroke="#9a32cd" points="143.021,-109.5 133.021,-113 143.021,-116.5 143.021,-109.5"/>
<text text-anchor="middle" x="178" y="-116" font-family="Helvetica,sans-Serif" font-size="10.00"> i</text>
</g>
<!-- Node14 -->
<g id="node14" class="node"><title>Node14</title>
<g id="a_node14"><a xlink:href="struct_generic_value_1_1_short_string.html" target="_top" xlink:title="GenericValue\&lt; Encoding,\l Allocator \&gt;::ShortString">
<polygon fill="none" stroke="black" points="218,-49 218,-79 346,-79 346,-49 218,-49"/>
<text text-anchor="start" x="226" y="-67" font-family="Helvetica,sans-Serif" font-size="10.00">GenericValue&lt; Encoding,</text>
<text text-anchor="middle" x="282" y="-56" font-family="Helvetica,sans-Serif" font-size="10.00"> Allocator &gt;::ShortString</text>
</a>
</g>
</g>
<!-- Node14&#45;&gt;Node5 -->
<g id="edge16" class="edge"><title>Node14&#45;&gt;Node5</title>
<path fill="none" stroke="#9a32cd" stroke-dasharray="5,2" d="M347.011,-81.8212C366.014,-87.1118 386.632,-92.8522 404.937,-97.9484"/>
<polygon fill="#9a32cd" stroke="#9a32cd" points="347.814,-78.4118 337.242,-79.1014 345.937,-85.1554 347.814,-78.4118"/>
<text text-anchor="middle" x="371" y="-93" font-family="Helvetica,sans-Serif" font-size="10.00"> ss</text>
</g>
<!-- Node15 -->
<g id="node15" class="node"><title>Node15</title>
<g id="a_node15"><a xlink:href="struct_generic_value_1_1_flag.html" target="_top" xlink:title="GenericValue\&lt; Encoding,\l Allocator \&gt;::Flag">
<polygon fill="none" stroke="black" points="218,-0 218,-30 346,-30 346,-0 218,-0"/>
<text text-anchor="start" x="226" y="-18" font-family="Helvetica,sans-Serif" font-size="10.00">GenericValue&lt; Encoding,</text>
<text text-anchor="middle" x="282" y="-7" font-family="Helvetica,sans-Serif" font-size="10.00"> Allocator &gt;::Flag</text>
</a>
</g>
</g>
<!-- Node15&#45;&gt;Node5 -->
<g id="edge17" class="edge"><title>Node15&#45;&gt;Node5</title>
<path fill="none" stroke="#9a32cd" stroke-dasharray="5,2" d="M335.672,-34.0769C339.205,-35.6585 342.677,-37.3041 346,-39 380.256,-56.4819 416.996,-81.9348 438.98,-97.9712"/>
<polygon fill="#9a32cd" stroke="#9a32cd" points="336.811,-30.7577 326.24,-30.0493 334.062,-37.1953 336.811,-30.7577"/>
<text text-anchor="middle" x="371" y="-59" font-family="Helvetica,sans-Serif" font-size="10.00"> f</text>
</g>
<!-- Node16 -->
<g id="node16" class="node"><title>Node16</title>
<g id="a_node16"><a xlink:href="classinternal_1_1_generic_regex.html" target="_top" xlink:title="Regular expression engine with subset of ECMAscript grammar. ">
<polygon fill="none" stroke="black" points="607.5,-235 607.5,-265 726.5,-265 726.5,-235 607.5,-235"/>
<text text-anchor="start" x="615.5" y="-253" font-family="Helvetica,sans-Serif" font-size="10.00">internal::GenericRegex</text>
<text text-anchor="middle" x="667" y="-242" font-family="Helvetica,sans-Serif" font-size="10.00">&lt; Encoding, Allocator &gt;</text>
</a>
</g>
</g>
<!-- Node16&#45;&gt;Node2 -->
<g id="edge19" class="edge"><title>Node16&#45;&gt;Node2</title>
<path fill="none" stroke="#9a32cd" stroke-dasharray="5,2" d="M736.681,-260.229C768.097,-264.908 805.176,-270.43 836.342,-275.072"/>
<polygon fill="#9a32cd" stroke="#9a32cd" points="737.101,-256.753 726.694,-258.742 736.07,-263.677 737.101,-256.753"/>
<text text-anchor="middle" x="791" y="-275" font-family="Helvetica,sans-Serif" font-size="10.00"> pattern_</text>
</g>
<!-- Node16&#45;&gt;Node17 -->
<g id="edge22" class="edge"><title>Node16&#45;&gt;Node17</title>
<path fill="none" stroke="#9a32cd" stroke-dasharray="5,2" d="M736.837,-236.658C821.405,-223.013 968.37,-208.289 1088,-243 1120.7,-252.487 1152.95,-276.084 1171.91,-291.82"/>
<polygon fill="#9a32cd" stroke="#9a32cd" points="736.133,-233.227 726.839,-238.313 737.277,-240.133 736.133,-233.227"/>
<text text-anchor="middle" x="904" y="-228" font-family="Helvetica,sans-Serif" font-size="10.00"> pattern</text>
</g>
<!-- Node17&#45;&gt;Node2 -->
<g id="edge20" class="edge"><title>Node17&#45;&gt;Node2</title>
<path fill="none" stroke="#9a32cd" stroke-dasharray="5,2" d="M1095.83,-322.177C1062.24,-325.141 1024.19,-325.584 990,-319 970.803,-315.303 950.431,-307.31 934.445,-300.002"/>
<polygon fill="#9a32cd" stroke="#9a32cd" points="1096.49,-325.629 1106.1,-321.181 1095.81,-318.662 1096.49,-325.629"/>
<text text-anchor="middle" x="1039" y="-328" font-family="Helvetica,sans-Serif" font-size="10.00"> patternProperties_</text>
</g>
</g>
</svg>
