<?xml version="1.0" encoding="UTF-8" standalone="no"?>
<!DOCTYPE svg PUBLIC "-//W3C//DTD SVG 1.1//EN"
 "http://www.w3.org/Graphics/SVG/1.1/DTD/svg11.dtd">
<!-- Generated by graphviz version 2.26.3 (20100126.1600)
 -->
<!-- Title: Urho3D::PackageDownload Pages: 1 -->
<!--zoomable 856 -->
<svg id="main" version="1.1" xmlns="http://www.w3.org/2000/svg" xmlns:xlink="http://www.w3.org/1999/xlink" xml:space="preserve" onload="init(evt)">
        <defs>
                <circle id="rim" cx="0" cy="0" r="7"/>
                <circle id="rim2" cx="0" cy="0" r="3.5"/>
                <g id="zoomPlus">
                        <use xlink:href="#rim" fill="#404040">
                                <set attributeName="fill" to="#808080" begin="zoomplus.mouseover" end="zoomplus.mouseout"/>
                        </use>
                        <path d="M-4,0h8M0,-4v8" fill="none" stroke="white" stroke-width="1.5" pointer-events="none"/>
                </g>
                <g id="zoomMin">
                        <use xlink:href="#rim" fill="#404040">
                                <set attributeName="fill" to="#808080" begin="zoomminus.mouseover" end="zoomminus.mouseout"/>
                        </use>
                        <path d="M-4,0h8" fill="none" stroke="white" stroke-width="1.5" pointer-events="none"/>
                </g>
                <g id="dirArrow">
                        <path fill="none" stroke="white" stroke-width="1.5" d="M0,-3.0v7 M-2.5,-0.5L0,-3.0L2.5,-0.5"/>
                </g>
               <g id="resetDef">
                       <use xlink:href="#rim2" fill="#404040">
                               <set attributeName="fill" to="#808080" begin="reset.mouseover" end="reset.mouseout"/>
                       </use>
               </g>
        </defs>

<script type="text/javascript">
var viewWidth = 1538;
var viewHeight = 856;
var sectionId = 'dynsection-0';
</script>
<script xlink:href="svgpan.js"/>
<svg id="graph" class="graph">
<g id="viewport">
<title>Urho3D::PackageDownload</title>
<!-- Node1 -->
<g id="node1" class="node"><title>Node1</title>
<polygon fill="#bfbfbf" stroke="black" points="1384,-712.154 1384,-733.154 1530,-733.154 1530,-712.154 1384,-712.154"/>
<text text-anchor="middle" x="1457" y="-720.154" font-family="FreeSans" font-size="10.00">Urho3D::PackageDownload</text>
</g>
<!-- Node2 -->
<g id="node2" class="node"><title>Node2</title>
<a xlink:href="class_urho3_d_1_1_shared_ptr.html" target="_top" xlink:title="Urho3D::SharedPtr\&lt;\l Urho3D::File \&gt;">
<polygon fill="none" stroke="black" points="1195,-705.654 1195,-739.654 1311,-739.654 1311,-705.654 1195,-705.654"/>
<text text-anchor="start" x="1203" y="-726.654" font-family="FreeSans" font-size="10.00">Urho3D::SharedPtr&lt;</text>
<text text-anchor="middle" x="1253" y="-713.654" font-family="FreeSans" font-size="10.00"> Urho3D::File &gt;</text>
</a>
</g>
<!-- Node2&#45;&gt;Node1 -->
<g id="edge2" class="edge"><title>Node2&#45;&gt;Node1</title>
<path fill="none" stroke="#9a32cd" stroke-dasharray="5,2" d="M1321.19,-722.654C1341.31,-722.654 1363.4,-722.654 1383.82,-722.654"/>
<polygon fill="#9a32cd" stroke="#9a32cd" points="1321.19,-719.154 1311.19,-722.654 1321.19,-726.154 1321.19,-719.154"/>
<text text-anchor="middle" x="1355" y="-726.654" font-family="FreeSans" font-size="10.00"> file_</text>
</g>
<!-- Node3 -->
<g id="node4" class="node"><title>Node3</title>
<a xlink:href="class_urho3_d_1_1_file.html" target="_top" xlink:title="File opened either through the filesystem or from within a package file.">
<polygon fill="none" stroke="black" points="812,-712.154 812,-733.154 886,-733.154 886,-712.154 812,-712.154"/>
<text text-anchor="middle" x="849" y="-720.154" font-family="FreeSans" font-size="10.00">Urho3D::File</text>
</a>
</g>
<!-- Node3&#45;&gt;Node2 -->
<g id="edge4" class="edge"><title>Node3&#45;&gt;Node2</title>
<path fill="none" stroke="#9a32cd" stroke-dasharray="5,2" d="M896.289,-722.654C970.568,-722.654 1114.4,-722.654 1194.87,-722.654"/>
<polygon fill="#9a32cd" stroke="#9a32cd" points="896.283,-719.154 886.283,-722.654 896.283,-726.154 896.283,-719.154"/>
<text text-anchor="middle" x="1078" y="-726.654" font-family="FreeSans" font-size="10.00"> ptr_</text>
</g>
<!-- Node4 -->
<g id="node6" class="node"><title>Node4</title>
<a xlink:href="class_urho3_d_1_1_object.html" target="_top" xlink:title="Base class for objects with type identification, subsystem access and event sending/receiving capabil...">
<polygon fill="none" stroke="black" points="531,-594.154 531,-615.154 621,-615.154 621,-594.154 531,-594.154"/>
<text text-anchor="middle" x="576" y="-602.154" font-family="FreeSans" font-size="10.00">Urho3D::Object</text>
</a>
</g>
<!-- Node4&#45;&gt;Node3 -->
<g id="edge6" class="edge"><title>Node4&#45;&gt;Node3</title>
<path fill="none" stroke="midnightblue" d="M604.63,-620.142C618.741,-627.57 636.102,-636.406 652,-643.654 710.843,-670.481 781.592,-697.654 820.268,-712.09"/>
<polygon fill="midnightblue" stroke="midnightblue" points="605.912,-616.86 595.439,-615.261 602.629,-623.042 605.912,-616.86"/>
</g>
<!-- Node15 -->
<g id="node33" class="node"><title>Node15</title>
<a xlink:href="class_urho3_d_1_1_event_handler.html" target="_top" xlink:title="Internal helper class for invoking event handler functions.">
<polygon fill="none" stroke="red" points="787,-577.154 787,-598.154 911,-598.154 911,-577.154 787,-577.154"/>
<text text-anchor="middle" x="849" y="-585.154" font-family="FreeSans" font-size="10.00">Urho3D::EventHandler</text>
</a>
</g>
<!-- Node4&#45;&gt;Node15 -->
<g id="edge40" class="edge"><title>Node4&#45;&gt;Node15</title>
<path fill="none" stroke="#9a32cd" stroke-dasharray="5,2" d="M631.353,-595.05C638.288,-594.102 645.297,-593.266 652,-592.654 696.974,-588.551 747.944,-587.35 786.771,-587.149"/>
<polygon fill="#9a32cd" stroke="#9a32cd" points="630.686,-591.61 621.29,-596.506 631.689,-598.537 630.686,-591.61"/>
<text text-anchor="middle" x="678" y="-609.654" font-family="FreeSans" font-size="10.00"> sender_</text>
<text text-anchor="middle" x="678" y="-596.654" font-family="FreeSans" font-size="10.00">receiver_</text>
</g>
<!-- Node5 -->
<g id="node8" class="node"><title>Node5</title>
<a xlink:href="class_urho3_d_1_1_ref_counted.html" target="_top" xlink:title="Base class for intrusively reference&#45;counted objects. These are noncopyable and non&#45;assignable.">
<polygon fill="none" stroke="black" points="224,-594.154 224,-615.154 338,-615.154 338,-594.154 224,-594.154"/>
<text text-anchor="middle" x="281" y="-602.154" font-family="FreeSans" font-size="10.00">Urho3D::RefCounted</text>
</a>
</g>
<!-- Node5&#45;&gt;Node4 -->
<g id="edge8" class="edge"><title>Node5&#45;&gt;Node4</title>
<path fill="none" stroke="midnightblue" d="M348.406,-604.654C404.351,-604.654 482.36,-604.654 530.985,-604.654"/>
<polygon fill="midnightblue" stroke="midnightblue" points="348.229,-601.154 338.229,-604.654 348.229,-608.154 348.229,-601.154"/>
</g>
<!-- Node7 -->
<g id="node12" class="node"><title>Node7</title>
<a xlink:href="class_urho3_d_1_1_context.html" target="_top" xlink:title="Urho3D execution context. Provides access to subsystems, object factories and attributes, and event receivers.">
<polygon fill="none" stroke="red" points="1204.5,-319.154 1204.5,-340.154 1301.5,-340.154 1301.5,-319.154 1204.5,-319.154"/>
<text text-anchor="middle" x="1253" y="-327.154" font-family="FreeSans" font-size="10.00">Urho3D::Context</text>
</a>
</g>
<!-- Node5&#45;&gt;Node7 -->
<g id="edge14" class="edge"><title>Node5&#45;&gt;Node7</title>
<path fill="none" stroke="midnightblue" d="M348.354,-594.205C542.205,-563.745 1092.11,-474.498 1162,-431.654 1201.25,-407.592 1233.27,-361.422 1246.48,-340.471"/>
<polygon fill="midnightblue" stroke="midnightblue" points="347.632,-590.775 338.296,-595.783 348.717,-597.69 347.632,-590.775"/>
</g>
<!-- Node6 -->
<g id="node10" class="node"><title>Node6</title>
<a xlink:href="struct_urho3_d_1_1_ref_count.html" target="_top" xlink:title="Reference count structure.">
<polygon fill="none" stroke="black" points="13,-620.154 13,-641.154 115,-641.154 115,-620.154 13,-620.154"/>
<text text-anchor="middle" x="64" y="-628.154" font-family="FreeSans" font-size="10.00">Urho3D::RefCount</text>
</a>
</g>
<!-- Node6&#45;&gt;Node5 -->
<g id="edge10" class="edge"><title>Node6&#45;&gt;Node5</title>
<path fill="none" stroke="#9a32cd" stroke-dasharray="5,2" d="M122.918,-618.288C130.658,-616.919 138.503,-615.66 146,-614.654 171.39,-611.249 199.632,-608.931 223.696,-607.391"/>
<polygon fill="#9a32cd" stroke="#9a32cd" points="122.044,-614.89 112.84,-620.138 123.308,-621.775 122.044,-614.89"/>
<text text-anchor="middle" x="171" y="-618.654" font-family="FreeSans" font-size="10.00"> refCount_</text>
</g>
<!-- Node23 -->
<g id="node54" class="node"><title>Node23</title>
<a xlink:href="class_urho3_d_1_1_shared_array_ptr.html" target="_top" xlink:title="Urho3D::SharedArrayPtr\l\&lt; unsigned char \&gt;">
<polygon fill="none" stroke="black" points="366.5,-644.654 366.5,-678.654 499.5,-678.654 499.5,-644.654 366.5,-644.654"/>
<text text-anchor="start" x="374.5" y="-665.654" font-family="FreeSans" font-size="10.00">Urho3D::SharedArrayPtr</text>
<text text-anchor="middle" x="433" y="-652.654" font-family="FreeSans" font-size="10.00">&lt; unsigned char &gt;</text>
</a>
</g>
<!-- Node6&#45;&gt;Node23 -->
<g id="edge66" class="edge"><title>Node6&#45;&gt;Node23</title>
<path fill="none" stroke="#9a32cd" stroke-dasharray="5,2" d="M125.637,-635.832C192.16,-641.421 297.749,-650.292 366.21,-656.043"/>
<polygon fill="#9a32cd" stroke="#9a32cd" points="125.566,-632.314 115.308,-634.965 124.98,-639.29 125.566,-632.314"/>
<text text-anchor="middle" x="171" y="-645.654" font-family="FreeSans" font-size="10.00"> refCount_</text>
</g>
<!-- Node7&#45;&gt;Node4 -->
<g id="edge12" class="edge"><title>Node7&#45;&gt;Node4</title>
<path fill="none" stroke="#9a32cd" stroke-dasharray="5,2" d="M1249.52,-350.297C1241.71,-389.574 1218.79,-474.618 1162,-513.654 1081.07,-569.282 818.015,-534.046 722,-554.654 678.253,-564.044 629.452,-582.461 600.807,-594.131"/>
<polygon fill="#9a32cd" stroke="#9a32cd" points="1252.99,-350.77 1251.38,-340.3 1246.11,-349.493 1252.99,-350.77"/>
<text text-anchor="middle" x="849" y="-558.654" font-family="FreeSans" font-size="10.00"> context_</text>
</g>
<!-- Node8 -->
<g id="node15" class="node"><title>Node8</title>
<a xlink:href="class_urho3_d_1_1_hash_map.html" target="_top" xlink:title="Urho3D::HashMap\&lt; Urho3D\l::Object *, Urho3D::HashMap\l\&lt; Urho3D::StringHash, Urho3D\l::SharedPtr\&lt; Urho3D::EventReceiverGroup \&gt; \&gt; \&gt;">
<polygon fill="none" stroke="black" points="722,-97.6542 722,-157.654 976,-157.654 976,-97.6542 722,-97.6542"/>
<text text-anchor="start" x="730" y="-144.654" font-family="FreeSans" font-size="10.00">Urho3D::HashMap&lt; Urho3D</text>
<text text-anchor="start" x="730" y="-131.654" font-family="FreeSans" font-size="10.00">::Object *, Urho3D::HashMap</text>
<text text-anchor="start" x="730" y="-118.654" font-family="FreeSans" font-size="10.00">&lt; Urho3D::StringHash, Urho3D</text>
<text text-anchor="middle" x="849" y="-105.654" font-family="FreeSans" font-size="10.00">::SharedPtr&lt; Urho3D::EventReceiverGroup &gt; &gt; &gt;</text>
</a>
</g>
<!-- Node8&#45;&gt;Node7 -->
<g id="edge16" class="edge"><title>Node8&#45;&gt;Node7</title>
<path fill="none" stroke="#9a32cd" stroke-dasharray="5,2" d="M986.08,-134.372C1044.33,-142.692 1110.53,-159.873 1162,-194.654 1209.54,-226.781 1238.91,-292.845 1249.03,-318.822"/>
<polygon fill="#9a32cd" stroke="#9a32cd" points="986.433,-130.888 976.054,-133.015 985.494,-137.825 986.433,-130.888"/>
<text text-anchor="middle" x="1078" y="-198.654" font-family="FreeSans" font-size="10.00"> specificEventReceivers_</text>
</g>
<!-- Node9 -->
<g id="node17" class="node"><title>Node9</title>
<a xlink:href="class_urho3_d_1_1_hash_base.html" target="_top" xlink:title="Hash set/map base class.">
<polygon fill="none" stroke="black" points="522,-219.154 522,-240.154 630,-240.154 630,-219.154 522,-219.154"/>
<text text-anchor="middle" x="576" y="-227.154" font-family="FreeSans" font-size="10.00">Urho3D::HashBase</text>
</a>
</g>
<!-- Node9&#45;&gt;Node8 -->
<g id="edge18" class="edge"><title>Node9&#45;&gt;Node8</title>
<path fill="none" stroke="midnightblue" d="M607.76,-214.752C637.064,-201.291 681.965,-181.389 722,-166.654 730.225,-163.627 738.807,-160.639 747.458,-157.746"/>
<polygon fill="midnightblue" stroke="midnightblue" points="606.059,-211.682 598.449,-219.054 608.995,-218.037 606.059,-211.682"/>
</g>
<!-- Node13 -->
<g id="node28" class="node"><title>Node13</title>
<a xlink:href="class_urho3_d_1_1_hash_map.html" target="_top" xlink:title="Urho3D::HashMap\&lt; Urho3D\l::StringHash, Urho3D::\lSharedPtr\&lt; Urho3D::EventReceiver\lGroup \&gt; \&gt;">
<polygon fill="none" stroke="black" points="756.5,-411.654 756.5,-471.654 941.5,-471.654 941.5,-411.654 756.5,-411.654"/>
<text text-anchor="start" x="764.5" y="-458.654" font-family="FreeSans" font-size="10.00">Urho3D::HashMap&lt; Urho3D</text>
<text text-anchor="start" x="764.5" y="-445.654" font-family="FreeSans" font-size="10.00">::StringHash, Urho3D::</text>
<text text-anchor="start" x="764.5" y="-432.654" font-family="FreeSans" font-size="10.00">SharedPtr&lt; Urho3D::EventReceiver</text>
<text text-anchor="middle" x="849" y="-419.654" font-family="FreeSans" font-size="10.00">Group &gt; &gt;</text>
</a>
</g>
<!-- Node9&#45;&gt;Node13 -->
<g id="edge34" class="edge"><title>Node9&#45;&gt;Node13</title>
<path fill="none" stroke="midnightblue" d="M587.211,-249.609C608.588,-285.794 658.736,-362.222 722,-402.654 732.495,-409.361 744.213,-414.974 756.171,-419.656"/>
<polygon fill="midnightblue" stroke="midnightblue" points="589.997,-247.435 581.958,-240.534 583.939,-250.942 589.997,-247.435"/>
</g>
<!-- Node16 -->
<g id="node36" class="node"><title>Node16</title>
<a xlink:href="class_urho3_d_1_1_hash_map.html" target="_top" xlink:title="Urho3D::HashMap\&lt; StringHash,\l Variant \&gt;">
<polygon fill="none" stroke="black" points="763,-241.654 763,-275.654 935,-275.654 935,-241.654 763,-241.654"/>
<text text-anchor="start" x="771" y="-262.654" font-family="FreeSans" font-size="10.00">Urho3D::HashMap&lt; StringHash,</text>
<text text-anchor="middle" x="849" y="-249.654" font-family="FreeSans" font-size="10.00"> Variant &gt;</text>
</a>
</g>
<!-- Node9&#45;&gt;Node16 -->
<g id="edge44" class="edge"><title>Node9&#45;&gt;Node16</title>
<path fill="none" stroke="midnightblue" d="M640.309,-236.486C676.889,-240.371 723.181,-245.289 762.866,-249.504"/>
<polygon fill="midnightblue" stroke="midnightblue" points="640.576,-232.994 630.262,-235.418 639.837,-239.955 640.576,-232.994"/>
</g>
<!-- Node17 -->
<g id="node39" class="node"><title>Node17</title>
<a xlink:href="class_urho3_d_1_1_hash_map.html" target="_top" xlink:title="Urho3D::HashMap\&lt; Urho3D\l::StringHash, Urho3D::\lSharedPtr\&lt; Urho3D::Object \&gt; \&gt;">
<polygon fill="none" stroke="black" points="763,-176.154 763,-223.154 935,-223.154 935,-176.154 763,-176.154"/>
<text text-anchor="start" x="771" y="-210.154" font-family="FreeSans" font-size="10.00">Urho3D::HashMap&lt; Urho3D</text>
<text text-anchor="start" x="771" y="-197.154" font-family="FreeSans" font-size="10.00">::StringHash, Urho3D::</text>
<text text-anchor="middle" x="849" y="-184.154" font-family="FreeSans" font-size="10.00">SharedPtr&lt; Urho3D::Object &gt; &gt;</text>
</a>
</g>
<!-- Node9&#45;&gt;Node17 -->
<g id="edge48" class="edge"><title>Node9&#45;&gt;Node17</title>
<path fill="none" stroke="midnightblue" d="M640.309,-222.587C676.889,-218.568 723.181,-213.481 762.866,-209.12"/>
<polygon fill="midnightblue" stroke="midnightblue" points="639.82,-219.12 630.262,-223.691 640.585,-226.078 639.82,-219.12"/>
</g>
<!-- Node19 -->
<g id="node44" class="node"><title>Node19</title>
<a xlink:href="class_urho3_d_1_1_hash_map.html" target="_top" xlink:title="Urho3D::HashMap\&lt; Urho3D\l::StringHash, Urho3D::\lSharedPtr\&lt; Urho3D::ObjectFactory \&gt; \&gt;">
<polygon fill="none" stroke="black" points="746,-346.154 746,-393.154 952,-393.154 952,-346.154 746,-346.154"/>
<text text-anchor="start" x="754" y="-380.154" font-family="FreeSans" font-size="10.00">Urho3D::HashMap&lt; Urho3D</text>
<text text-anchor="start" x="754" y="-367.154" font-family="FreeSans" font-size="10.00">::StringHash, Urho3D::</text>
<text text-anchor="middle" x="849" y="-354.154" font-family="FreeSans" font-size="10.00">SharedPtr&lt; Urho3D::ObjectFactory &gt; &gt;</text>
</a>
</g>
<!-- Node9&#45;&gt;Node19 -->
<g id="edge54" class="edge"><title>Node9&#45;&gt;Node19</title>
<path fill="none" stroke="midnightblue" d="M594.838,-247.174C621.275,-270.844 671.794,-312.813 722,-336.654 729.614,-340.27 737.68,-343.53 745.908,-346.461"/>
<polygon fill="midnightblue" stroke="midnightblue" points="596.888,-244.308 587.132,-240.178 592.183,-249.491 596.888,-244.308"/>
</g>
<!-- Node25 -->
<g id="node61" class="node"><title>Node25</title>
<a xlink:href="class_urho3_d_1_1_hash_set.html" target="_top" xlink:title="Urho3D::HashSet\&lt; unsigned \&gt;">
<polygon fill="none" stroke="black" points="994.5,-13.1542 994.5,-34.1542 1161.5,-34.1542 1161.5,-13.1542 994.5,-13.1542"/>
<text text-anchor="middle" x="1078" y="-21.1542" font-family="FreeSans" font-size="10.00">Urho3D::HashSet&lt; unsigned &gt;</text>
</a>
</g>
<!-- Node9&#45;&gt;Node25 -->
<g id="edge76" class="edge"><title>Node9&#45;&gt;Node25</title>
<path fill="none" stroke="midnightblue" d="M583.915,-209.89C601.566,-168.824 648.474,-74.917 722,-36.6542 821.576,15.1646 958.903,0.0405008 1030.4,-13.1507"/>
<polygon fill="midnightblue" stroke="midnightblue" points="580.682,-208.549 580.06,-219.126 587.142,-211.246 580.682,-208.549"/>
</g>
<!-- Node10 -->
<g id="node19" class="node"><title>Node10</title>
<a xlink:href="struct_urho3_d_1_1_hash_node_base.html" target="_top" xlink:title="Hash set/map node base class.">
<polygon fill="none" stroke="black" points="214,-254.154 214,-275.154 348,-275.154 348,-254.154 214,-254.154"/>
<text text-anchor="middle" x="281" y="-262.154" font-family="FreeSans" font-size="10.00">Urho3D::HashNodeBase</text>
</a>
</g>
<!-- Node10&#45;&gt;Node9 -->
<g id="edge20" class="edge"><title>Node10&#45;&gt;Node9</title>
<path fill="none" stroke="#9a32cd" stroke-dasharray="5,2" d="M358.38,-255.474C409.771,-249.376 475.963,-241.523 521.784,-236.087"/>
<polygon fill="#9a32cd" stroke="#9a32cd" points="357.827,-252.015 348.309,-256.668 358.652,-258.966 357.827,-252.015"/>
<text text-anchor="middle" x="433" y="-284.654" font-family="FreeSans" font-size="10.00"> ptrs_</text>
<text text-anchor="middle" x="433" y="-271.654" font-family="FreeSans" font-size="10.00">tail_</text>
<text text-anchor="middle" x="433" y="-258.654" font-family="FreeSans" font-size="10.00">head_</text>
</g>
<!-- Node10&#45;&gt;Node10 -->
<g id="edge22" class="edge"><title>Node10&#45;&gt;Node10</title>
<path fill="none" stroke="#9a32cd" stroke-dasharray="5,2" d="M260.728,-285.081C262.292,-290.003 269.049,-293.654 281,-293.654 300.121,-293.654 305.947,-284.307 298.478,-275.362"/>
<polygon fill="#9a32cd" stroke="#9a32cd" points="264.123,-285.94 263.522,-275.362 257.395,-284.006 264.123,-285.94"/>
<text text-anchor="middle" x="281" y="-323.654" font-family="FreeSans" font-size="10.00"> next_</text>
<text text-anchor="middle" x="281" y="-310.654" font-family="FreeSans" font-size="10.00">prev_</text>
<text text-anchor="middle" x="281" y="-297.654" font-family="FreeSans" font-size="10.00">down_</text>
</g>
<!-- Node11 -->
<g id="node22" class="node"><title>Node11</title>
<a xlink:href="struct_urho3_d_1_1_allocator_block.html" target="_top" xlink:title="Allocator memory block.">
<polygon fill="none" stroke="black" points="217.5,-183.154 217.5,-204.154 344.5,-204.154 344.5,-183.154 217.5,-183.154"/>
<text text-anchor="middle" x="281" y="-191.154" font-family="FreeSans" font-size="10.00">Urho3D::AllocatorBlock</text>
</a>
</g>
<!-- Node11&#45;&gt;Node9 -->
<g id="edge24" class="edge"><title>Node11&#45;&gt;Node9</title>
<path fill="none" stroke="#9a32cd" stroke-dasharray="5,2" d="M354.797,-202.66C406.692,-208.993 474.97,-217.325 521.866,-223.048"/>
<polygon fill="#9a32cd" stroke="#9a32cd" points="354.998,-199.159 344.647,-201.421 354.15,-206.107 354.998,-199.159"/>
<text text-anchor="middle" x="433" y="-224.654" font-family="FreeSans" font-size="10.00"> allocator_</text>
</g>
<!-- Node11&#45;&gt;Node11 -->
<g id="edge26" class="edge"><title>Node11&#45;&gt;Node11</title>
<path fill="none" stroke="#9a32cd" stroke-dasharray="5,2" d="M260.728,-214.081C262.292,-219.003 269.049,-222.654 281,-222.654 300.121,-222.654 305.947,-213.307 298.478,-204.362"/>
<polygon fill="#9a32cd" stroke="#9a32cd" points="264.123,-214.94 263.522,-204.362 257.395,-213.006 264.123,-214.94"/>
<text text-anchor="middle" x="281" y="-226.654" font-family="FreeSans" font-size="10.00"> next_</text>
</g>
<!-- Node12 -->
<g id="node25" class="node"><title>Node12</title>
<a xlink:href="struct_urho3_d_1_1_allocator_node.html" target="_top" xlink:title="Allocator node.">
<polygon fill="none" stroke="black" points="0.5,-183.154 0.5,-204.154 127.5,-204.154 127.5,-183.154 0.5,-183.154"/>
<text text-anchor="middle" x="64" y="-191.154" font-family="FreeSans" font-size="10.00">Urho3D::AllocatorNode</text>
</a>
</g>
<!-- Node12&#45;&gt;Node11 -->
<g id="edge28" class="edge"><title>Node12&#45;&gt;Node11</title>
<path fill="none" stroke="#9a32cd" stroke-dasharray="5,2" d="M137.765,-193.654C163.616,-193.654 192.409,-193.654 217.36,-193.654"/>
<polygon fill="#9a32cd" stroke="#9a32cd" points="137.641,-190.154 127.641,-193.654 137.641,-197.154 137.641,-190.154"/>
<text text-anchor="middle" x="171" y="-197.654" font-family="FreeSans" font-size="10.00"> free_</text>
</g>
<!-- Node12&#45;&gt;Node12 -->
<g id="edge30" class="edge"><title>Node12&#45;&gt;Node12</title>
<path fill="none" stroke="#9a32cd" stroke-dasharray="5,2" d="M44.4653,-214.081C45.9723,-219.003 52.4839,-222.654 64,-222.654 82.4258,-222.654 88.0399,-213.307 80.8423,-204.362"/>
<polygon fill="#9a32cd" stroke="#9a32cd" points="47.8609,-214.934 47.1577,-204.362 41.1149,-213.065 47.8609,-214.934"/>
<text text-anchor="middle" x="64" y="-226.654" font-family="FreeSans" font-size="10.00"> next_</text>
</g>
<!-- Node13&#45;&gt;Node7 -->
<g id="edge32" class="edge"><title>Node13&#45;&gt;Node7</title>
<path fill="none" stroke="#9a32cd" stroke-dasharray="5,2" d="M951.982,-424.336C1013.77,-412.544 1093.42,-394.854 1162,-371.654 1187.38,-363.067 1215.16,-349.613 1233.26,-340.254"/>
<polygon fill="#9a32cd" stroke="#9a32cd" points="951.011,-420.958 941.834,-426.251 952.309,-427.836 951.011,-420.958"/>
<text text-anchor="middle" x="1078" y="-418.654" font-family="FreeSans" font-size="10.00"> eventReceivers_</text>
</g>
<!-- Node14 -->
<g id="node31" class="node"><title>Node14</title>
<a xlink:href="class_urho3_d_1_1_p_o_d_vector.html" target="_top" xlink:title="Urho3D::PODVector\&lt;\l Urho3D::Object * \&gt;">
<polygon fill="none" stroke="red" points="789.5,-293.654 789.5,-327.654 908.5,-327.654 908.5,-293.654 789.5,-293.654"/>
<text text-anchor="start" x="797.5" y="-314.654" font-family="FreeSans" font-size="10.00">Urho3D::PODVector&lt;</text>
<text text-anchor="middle" x="849" y="-301.654" font-family="FreeSans" font-size="10.00"> Urho3D::Object * &gt;</text>
</a>
</g>
<!-- Node14&#45;&gt;Node7 -->
<g id="edge36" class="edge"><title>Node14&#45;&gt;Node7</title>
<path fill="none" stroke="#9a32cd" stroke-dasharray="5,2" d="M919.019,-313.075C982.468,-315.384 1078.53,-319.17 1162,-323.654 1175.75,-324.393 1190.67,-325.323 1204.37,-326.228"/>
<polygon fill="#9a32cd" stroke="#9a32cd" points="918.853,-309.567 908.733,-312.703 918.6,-316.562 918.853,-309.567"/>
<text text-anchor="middle" x="1078" y="-327.654" font-family="FreeSans" font-size="10.00"> eventSenders_</text>
</g>
<!-- Node15&#45;&gt;Node7 -->
<g id="edge38" class="edge"><title>Node15&#45;&gt;Node7</title>
<path fill="none" stroke="#9a32cd" stroke-dasharray="5,2" d="M921.293,-582.469C1007.75,-575.68 1143.22,-562.948 1162,-548.654 1232.61,-494.925 1248.83,-376.466 1252.19,-340.329"/>
<polygon fill="#9a32cd" stroke="#9a32cd" points="920.964,-578.984 911.265,-583.247 921.506,-585.963 920.964,-578.984"/>
<text text-anchor="middle" x="1078" y="-580.654" font-family="FreeSans" font-size="10.00"> eventHandler_</text>
</g>
<!-- Node20 -->
<g id="node47" class="node"><title>Node20</title>
<a xlink:href="class_urho3_d_1_1_linked_list.html" target="_top" xlink:title="Urho3D::LinkedList\l\&lt; Urho3D::EventHandler \&gt;">
<polygon fill="none" stroke="black" points="1180,-603.654 1180,-637.654 1326,-637.654 1326,-603.654 1180,-603.654"/>
<text text-anchor="start" x="1188" y="-624.654" font-family="FreeSans" font-size="10.00">Urho3D::LinkedList</text>
<text text-anchor="middle" x="1253" y="-611.654" font-family="FreeSans" font-size="10.00">&lt; Urho3D::EventHandler &gt;</text>
</a>
</g>
<!-- Node15&#45;&gt;Node20 -->
<g id="edge58" class="edge"><title>Node15&#45;&gt;Node20</title>
<path fill="none" stroke="#9a32cd" stroke-dasharray="5,2" d="M921.49,-590.679C985.014,-593.713 1079.78,-599.168 1162,-607.654 1167.71,-608.244 1173.62,-608.925 1179.55,-609.66"/>
<polygon fill="#9a32cd" stroke="#9a32cd" points="921.332,-587.168 911.179,-590.195 921.003,-594.16 921.332,-587.168"/>
<text text-anchor="middle" x="1078" y="-611.654" font-family="FreeSans" font-size="10.00"> head_</text>
</g>
<!-- Node16&#45;&gt;Node7 -->
<g id="edge42" class="edge"><title>Node16&#45;&gt;Node7</title>
<path fill="none" stroke="#9a32cd" stroke-dasharray="5,2" d="M945.339,-266.544C1007.66,-272.806 1090.26,-283.283 1162,-299.654 1183.73,-304.613 1207.65,-312.6 1225.5,-319.087"/>
<polygon fill="#9a32cd" stroke="#9a32cd" points="945.419,-263.035 935.124,-265.537 944.733,-270.001 945.419,-263.035"/>
<text text-anchor="middle" x="1078" y="-303.654" font-family="FreeSans" font-size="10.00"> globalVars_</text>
</g>
<!-- Node17&#45;&gt;Node7 -->
<g id="edge46" class="edge"><title>Node17&#45;&gt;Node7</title>
<path fill="none" stroke="#9a32cd" stroke-dasharray="5,2" d="M945.167,-204.866C1009.04,-211.238 1093.43,-225.366 1162,-256.654 1195.72,-272.042 1227.73,-302.733 1243.25,-318.985"/>
<polygon fill="#9a32cd" stroke="#9a32cd" points="945.384,-201.371 935.097,-203.908 944.721,-208.339 945.384,-201.371"/>
<text text-anchor="middle" x="1078" y="-260.654" font-family="FreeSans" font-size="10.00"> subsystems_</text>
</g>
<!-- Node18 -->
<g id="node42" class="node"><title>Node18</title>
<a xlink:href="class_urho3_d_1_1_p_o_d_vector.html" target="_top" xlink:title="Urho3D::PODVector\&lt;\l Urho3D::HashMap * \&gt;">
<polygon fill="none" stroke="red" points="785.5,-45.6542 785.5,-79.6542 912.5,-79.6542 912.5,-45.6542 785.5,-45.6542"/>
<text text-anchor="start" x="793.5" y="-66.6542" font-family="FreeSans" font-size="10.00">Urho3D::PODVector&lt;</text>
<text text-anchor="middle" x="849" y="-53.6542" font-family="FreeSans" font-size="10.00"> Urho3D::HashMap * &gt;</text>
</a>
</g>
<!-- Node18&#45;&gt;Node7 -->
<g id="edge50" class="edge"><title>Node18&#45;&gt;Node7</title>
<path fill="none" stroke="#9a32cd" stroke-dasharray="5,2" d="M923.141,-57.7385C992.129,-57.1137 1094.21,-66.7602 1162,-120.654 1170.54,-127.442 1231.88,-277.591 1248.73,-319.103"/>
<polygon fill="#9a32cd" stroke="#9a32cd" points="922.727,-54.2448 912.787,-57.9114 922.844,-61.2439 922.727,-54.2448"/>
<text text-anchor="middle" x="1078" y="-124.654" font-family="FreeSans" font-size="10.00"> eventDataMaps_</text>
</g>
<!-- Node19&#45;&gt;Node7 -->
<g id="edge52" class="edge"><title>Node19&#45;&gt;Node7</title>
<path fill="none" stroke="#9a32cd" stroke-dasharray="5,2" d="M962.358,-358.431C1042.13,-350.532 1144.91,-340.356 1204.44,-334.463"/>
<polygon fill="#9a32cd" stroke="#9a32cd" points="961.86,-354.963 952.253,-359.431 962.55,-361.929 961.86,-354.963"/>
<text text-anchor="middle" x="1078" y="-358.654" font-family="FreeSans" font-size="10.00"> factories_</text>
</g>
<!-- Node20&#45;&gt;Node4 -->
<g id="edge56" class="edge"><title>Node20&#45;&gt;Node4</title>
<path fill="none" stroke="#9a32cd" stroke-dasharray="5,2" d="M1169.46,-625.14C1053.16,-630.3 836.027,-636.005 652,-618.654 641.982,-617.71 631.311,-616.117 621.229,-614.337"/>
<polygon fill="#9a32cd" stroke="#9a32cd" points="1169.87,-628.624 1179.71,-624.675 1169.56,-621.632 1169.87,-628.624"/>
<text text-anchor="middle" x="849" y="-634.654" font-family="FreeSans" font-size="10.00"> eventHandlers_</text>
</g>
<!-- Node21 -->
<g id="node50" class="node"><title>Node21</title>
<a xlink:href="class_urho3_d_1_1_deserializer.html" target="_top" xlink:title="Abstract stream for reading.">
<polygon fill="none" stroke="black" points="518,-752.154 518,-773.154 634,-773.154 634,-752.154 518,-752.154"/>
<text text-anchor="middle" x="576" y="-760.154" font-family="FreeSans" font-size="10.00">Urho3D::Deserializer</text>
</a>
</g>
<!-- Node21&#45;&gt;Node3 -->
<g id="edge60" class="edge"><title>Node21&#45;&gt;Node3</title>
<path fill="none" stroke="midnightblue" d="M644.243,-752.655C697.286,-744.883 768.845,-734.399 811.805,-728.104"/>
<polygon fill="midnightblue" stroke="midnightblue" points="643.617,-749.209 634.23,-754.122 644.632,-756.136 643.617,-749.209"/>
</g>
<!-- Node22 -->
<g id="node52" class="node"><title>Node22</title>
<a xlink:href="class_urho3_d_1_1_serializer.html" target="_top" xlink:title="Abstract stream for writing.">
<polygon fill="none" stroke="black" points="524,-712.154 524,-733.154 628,-733.154 628,-712.154 524,-712.154"/>
<text text-anchor="middle" x="576" y="-720.154" font-family="FreeSans" font-size="10.00">Urho3D::Serializer</text>
</a>
</g>
<!-- Node22&#45;&gt;Node3 -->
<g id="edge62" class="edge"><title>Node22&#45;&gt;Node3</title>
<path fill="none" stroke="midnightblue" d="M638.372,-722.654C691.873,-722.654 767.18,-722.654 811.753,-722.654"/>
<polygon fill="midnightblue" stroke="midnightblue" points="638.314,-719.154 628.314,-722.654 638.314,-726.154 638.314,-719.154"/>
</g>
<!-- Node23&#45;&gt;Node3 -->
<g id="edge64" class="edge"><title>Node23&#45;&gt;Node3</title>
<path fill="none" stroke="#9a32cd" stroke-dasharray="5,2" d="M510.142,-664.945C547.652,-667.173 593.316,-670.812 634,-676.654 697.099,-685.716 769.367,-702.53 811.99,-713.126"/>
<polygon fill="#9a32cd" stroke="#9a32cd" points="509.973,-661.43 499.79,-664.354 509.574,-668.419 509.973,-661.43"/>
<text text-anchor="middle" x="576" y="-693.654" font-family="FreeSans" font-size="10.00"> inputBuffer_</text>
<text text-anchor="middle" x="576" y="-680.654" font-family="FreeSans" font-size="10.00">readBuffer_</text>
</g>
<!-- Node24 -->
<g id="node57" class="node"><title>Node24</title>
<a xlink:href="class_urho3_d_1_1_string.html" target="_top" xlink:title="String class.">
<polygon fill="none" stroke="black" points="532,-795.154 532,-816.154 620,-816.154 620,-795.154 532,-795.154"/>
<text text-anchor="middle" x="576" y="-803.154" font-family="FreeSans" font-size="10.00">Urho3D::String</text>
</a>
</g>
<!-- Node24&#45;&gt;Node1 -->
<g id="edge72" class="edge"><title>Node24&#45;&gt;Node1</title>
<path fill="none" stroke="#9a32cd" stroke-dasharray="5,2" d="M630.51,-803.756C754.51,-798.948 1067.03,-784.065 1326,-748.654 1354.49,-744.759 1386.11,-738.537 1411.15,-733.157"/>
<polygon fill="#9a32cd" stroke="#9a32cd" points="630.013,-800.272 620.154,-804.151 630.28,-807.267 630.013,-800.272"/>
<text text-anchor="middle" x="1078" y="-786.654" font-family="FreeSans" font-size="10.00"> name_</text>
</g>
<!-- Node24&#45;&gt;Node3 -->
<g id="edge68" class="edge"><title>Node24&#45;&gt;Node3</title>
<path fill="none" stroke="#9a32cd" stroke-dasharray="5,2" d="M618.604,-792.078C629.483,-788.645 641.166,-784.987 652,-781.654 708.134,-764.386 773.47,-744.949 813.003,-733.26"/>
<polygon fill="#9a32cd" stroke="#9a32cd" points="617.365,-788.798 608.886,-795.152 619.476,-795.473 617.365,-788.798"/>
<text text-anchor="middle" x="678" y="-785.654" font-family="FreeSans" font-size="10.00"> fileName_</text>
</g>
<!-- Node24&#45;&gt;Node24 -->
<g id="edge70" class="edge"><title>Node24&#45;&gt;Node24</title>
<path fill="none" stroke="#9a32cd" stroke-dasharray="5,2" d="M557.202,-826.081C558.653,-831.003 564.918,-834.654 576,-834.654 593.73,-834.654 599.133,-825.307 592.207,-816.362"/>
<polygon fill="#9a32cd" stroke="#9a32cd" points="560.599,-826.926 559.793,-816.362 553.836,-825.123 560.599,-826.926"/>
<text text-anchor="middle" x="576" y="-838.654" font-family="FreeSans" font-size="10.00"> EMPTY</text>
</g>
<!-- Node25&#45;&gt;Node1 -->
<g id="edge74" class="edge"><title>Node25&#45;&gt;Node1</title>
<path fill="none" stroke="#9a32cd" stroke-dasharray="5,2" d="M1127.01,-37.9272C1139.22,-42.9245 1151.74,-49.4107 1162,-57.6542 1262.41,-138.358 1269.98,-180.646 1326,-296.654 1401.54,-453.081 1445.33,-662.764 1454.97,-711.997"/>
<polygon fill="#9a32cd" stroke="#9a32cd" points="1127.92,-34.5296 1117.33,-34.2336 1125.43,-41.0694 1127.92,-34.5296"/>
<text text-anchor="middle" x="1253" y="-300.654" font-family="FreeSans" font-size="10.00"> receivedFragments_</text>
</g>
</g>
</svg>
        <g id="navigator" transform="translate(0 0)" fill="#404254">
                <rect fill="#f2f5e9" fill-opacity="0.5" stroke="#606060" stroke-width=".5" x="0" y="0" width="60" height="60"/>
                <use id="zoomplus" xlink:href="#zoomPlus" x="17" y="9" onmousedown="handleZoom(evt,'in')"/>
                <use id="zoomminus" xlink:href="#zoomMin" x="42" y="9" onmousedown="handleZoom(evt,'out')"/>
                <use id="reset" xlink:href="#resetDef" x="30" y="36" onmousedown="handleReset()"/>
                <g id="arrowUp" xlink:href="#dirArrow" transform="translate(30 24)" onmousedown="handlePan(0,-1)">
                  <use xlink:href="#rim" fill="#404040">
                        <set attributeName="fill" to="#808080" begin="arrowUp.mouseover" end="arrowUp.mouseout"/>
                  </use>
                  <path fill="none" stroke="white" stroke-width="1.5" d="M0,-3.0v7 M-2.5,-0.5L0,-3.0L2.5,-0.5"/>
                </g>
                <g id="arrowRight" xlink:href="#dirArrow" transform="rotate(90) translate(36 -43)" onmousedown="handlePan(1,0)">
                  <use xlink:href="#rim" fill="#404040">
                        <set attributeName="fill" to="#808080" begin="arrowRight.mouseover" end="arrowRight.mouseout"/>
                  </use>
                  <path fill="none" stroke="white" stroke-width="1.5" d="M0,-3.0v7 M-2.5,-0.5L0,-3.0L2.5,-0.5"/>
                </g>
                <g id="arrowDown" xlink:href="#dirArrow" transform="rotate(180) translate(-30 -48)" onmousedown="handlePan(0,1)">
                  <use xlink:href="#rim" fill="#404040">
                        <set attributeName="fill" to="#808080" begin="arrowDown.mouseover" end="arrowDown.mouseout"/>
                  </use>
                  <path fill="none" stroke="white" stroke-width="1.5" d="M0,-3.0v7 M-2.5,-0.5L0,-3.0L2.5,-0.5"/>
                </g>
                <g id="arrowLeft" xlink:href="#dirArrow" transform="rotate(270) translate(-36 17)" onmousedown="handlePan(-1,0)">
                  <use xlink:href="#rim" fill="#404040">
                        <set attributeName="fill" to="#808080" begin="arrowLeft.mouseover" end="arrowLeft.mouseout"/>
                  </use>
                  <path fill="none" stroke="white" stroke-width="1.5" d="M0,-3.0v7 M-2.5,-0.5L0,-3.0L2.5,-0.5"/>
                </g>
        </g>
        <svg viewBox="0 0 15 15" width="100%" height="30px" preserveAspectRatio="xMaxYMin meet">
         <g id="arrow_out" transform="scale(0.3 0.3)">
          <a xlink:href="struct_urho3_d_1_1_package_download__coll__graph_org.svg" target="_base">
           <rect id="button" ry="5" rx="5" y="6" x="6" height="38" width="38"
                fill="#f2f5e9" fill-opacity="0.5" stroke="#606060" stroke-width="1.0"/>
           <path id="arrow"
             d="M 11.500037,31.436501 C 11.940474,20.09759 22.043105,11.32322 32.158766,21.979434 L 37.068811,17.246167 C 37.068811,17.246167 37.088388,32 37.088388,32 L 22.160133,31.978069 C 22.160133,31.978069 26.997745,27.140456 26.997745,27.140456 C 18.528582,18.264221 13.291696,25.230495 11.500037,31.436501 z"
             style="fill:#404040;"/>
          </a>
         </g>
        </svg>
</svg>
