<?xml version="1.0" encoding="UTF-8" standalone="no"?>
<!DOCTYPE svg PUBLIC "-//W3C//DTD SVG 1.1//EN"
 "http://www.w3.org/Graphics/SVG/1.1/DTD/svg11.dtd">
<!-- Generated by graphviz version 2.36.0 (20140111.2315)
 -->
<!-- Title: Urho3D::NodeImpl Pages: 1 -->
<!--zoomable 926 -->
<svg id="main" version="1.1" xmlns="http://www.w3.org/2000/svg" xmlns:xlink="http://www.w3.org/1999/xlink" xml:space="preserve" onload="init(evt)">
<style type="text/css"><![CDATA[
.edge:hover path { stroke: red; }
.edge:hover polygon { stroke: red; fill: red; }
]]></style>
<script type="text/javascript"><![CDATA[
var edges = document.getElementsByTagName('g');
if (edges && edges.length) {
  for (var i=0;i<edges.length;i++) {
    if (edges[i].id.substr(0,4)=='edge') {
      edges[i].setAttribute('class','edge');
    }
  }
}
]]></script>
        <defs>
                <circle id="rim" cx="0" cy="0" r="7"/>
                <circle id="rim2" cx="0" cy="0" r="3.5"/>
                <g id="zoomPlus">
                        <use xlink:href="#rim" fill="#404040">
                                <set attributeName="fill" to="#808080" begin="zoomplus.mouseover" end="zoomplus.mouseout"/>
                        </use>
                        <path d="M-4,0h8M0,-4v8" fill="none" stroke="white" stroke-width="1.5" pointer-events="none"/>
                </g>
                <g id="zoomMin">
                        <use xlink:href="#rim" fill="#404040">
                                <set attributeName="fill" to="#808080" begin="zoomminus.mouseover" end="zoomminus.mouseout"/>
                        </use>
                        <path d="M-4,0h8" fill="none" stroke="white" stroke-width="1.5" pointer-events="none"/>
                </g>
                <g id="dirArrow">
                        <path fill="none" stroke="white" stroke-width="1.5" d="M0,-3.0v7 M-2.5,-0.5L0,-3.0L2.5,-0.5"/>
                </g>
               <g id="resetDef">
                       <use xlink:href="#rim2" fill="#404040">
                               <set attributeName="fill" to="#808080" begin="reset.mouseover" end="reset.mouseout"/>
                       </use>
               </g>
        </defs>

<script type="text/javascript">
var viewWidth = 1174;
var viewHeight = 926;
var sectionId = 'dynsection-0';
</script>
<script xlink:href="svgpan.js"/>
<svg id="graph" class="graph">
<g id="viewport">
<title>Urho3D::NodeImpl</title>
<!-- Node1 -->
<g id="node1" class="node"><title>Node1</title>
<polygon fill="#bfbfbf" stroke="black" points="1060.5,-781.001 1060.5,-800.001 1165.5,-800.001 1165.5,-781.001 1060.5,-781.001"/>
<text text-anchor="middle" x="1113" y="-788.001" font-family="FreeSans" font-size="10.00">Urho3D::NodeImpl</text>
</g>
<!-- Node2 -->
<g id="node2" class="node"><title>Node2</title>
<g id="a_node2"><a xlink:href="class_urho3_d_1_1_p_o_d_vector.html" target="_top" xlink:title="Urho3D::PODVector\&lt;\l Urho3D::Node * \&gt;">
<polygon fill="none" stroke="black" points="353.5,-886.501 353.5,-916.501 472.5,-916.501 472.5,-886.501 353.5,-886.501"/>
<text text-anchor="start" x="361.5" y="-904.501" font-family="FreeSans" font-size="10.00">Urho3D::PODVector&lt;</text>
<text text-anchor="middle" x="413" y="-893.501" font-family="FreeSans" font-size="10.00"> Urho3D::Node * &gt;</text>
</a>
</g>
</g>
<!-- Node2&#45;&gt;Node1 -->
<g id="edge1" class="edge"><title>Node2&#45;&gt;Node1</title>
<path fill="none" stroke="#9a32cd" stroke-dasharray="5,2" d="M482.957,-903.334C587.367,-904.964 791.479,-903.663 962,-875.501 998.501,-869.472 1009.58,-870.315 1042,-852.501 1067.33,-838.586 1091.28,-814.047 1103.52,-800.385"/>
<polygon fill="#9a32cd" stroke="#9a32cd" points="482.922,-899.833 472.863,-903.163 482.802,-906.832 482.922,-899.833"/>
<text text-anchor="middle" x="759" y="-904.501" font-family="FreeSans" font-size="10.00"> dependencyNodes_</text>
</g>
<!-- Node3 -->
<g id="node3" class="node"><title>Node3</title>
<g id="a_node3"><a xlink:href="class_urho3_d_1_1_vector_base.html" target="_top" xlink:title="Vector base class. ">
<polygon fill="none" stroke="black" points="1,-824.001 1,-843.001 115,-843.001 115,-824.001 1,-824.001"/>
<text text-anchor="middle" x="58" y="-831.001" font-family="FreeSans" font-size="10.00">Urho3D::VectorBase</text>
</a>
</g>
</g>
<!-- Node3&#45;&gt;Node2 -->
<g id="edge2" class="edge"><title>Node3&#45;&gt;Node2</title>
<path fill="none" stroke="midnightblue" d="M82.1996,-848.472C96.5463,-856.976 115.667,-866.995 134,-872.501 207.431,-894.552 296.117,-900.43 353.255,-901.699"/>
<polygon fill="midnightblue" stroke="midnightblue" points="83.8751,-845.394 73.5174,-843.164 80.2242,-851.366 83.8751,-845.394"/>
</g>
<!-- Node8 -->
<g id="node8" class="node"><title>Node8</title>
<g id="a_node8"><a xlink:href="class_urho3_d_1_1_p_o_d_vector.html" target="_top" xlink:title="Urho3D::PODVector\&lt;\l unsigned char \&gt;">
<polygon fill="none" stroke="black" points="180.5,-744.501 180.5,-774.501 299.5,-774.501 299.5,-744.501 180.5,-744.501"/>
<text text-anchor="start" x="188.5" y="-762.501" font-family="FreeSans" font-size="10.00">Urho3D::PODVector&lt;</text>
<text text-anchor="middle" x="240" y="-751.501" font-family="FreeSans" font-size="10.00"> unsigned char &gt;</text>
</a>
</g>
</g>
<!-- Node3&#45;&gt;Node8 -->
<g id="edge8" class="edge"><title>Node3&#45;&gt;Node8</title>
<path fill="none" stroke="midnightblue" d="M86.0229,-819.228C104.802,-809.605 130.567,-796.985 154,-787.501 165.378,-782.896 177.828,-778.466 189.605,-774.543"/>
<polygon fill="midnightblue" stroke="midnightblue" points="84.162,-816.25 76.8889,-823.954 87.3789,-822.467 84.162,-816.25"/>
</g>
<!-- Node11 -->
<g id="node11" class="node"><title>Node11</title>
<g id="a_node11"><a xlink:href="class_urho3_d_1_1_vector.html" target="_top" xlink:title="Urho3D::Vector\&lt; String \&gt;">
<polygon fill="none" stroke="black" points="688.5,-851.001 688.5,-870.001 829.5,-870.001 829.5,-851.001 688.5,-851.001"/>
<text text-anchor="middle" x="759" y="-858.001" font-family="FreeSans" font-size="10.00">Urho3D::Vector&lt; String &gt;</text>
</a>
</g>
</g>
<!-- Node3&#45;&gt;Node11 -->
<g id="edge14" class="edge"><title>Node3&#45;&gt;Node11</title>
<path fill="none" stroke="midnightblue" d="M125.015,-836.05C257.231,-841.158 553.393,-852.597 688.464,-857.815"/>
<polygon fill="midnightblue" stroke="midnightblue" points="125.148,-832.553 115.021,-835.664 124.878,-839.548 125.148,-832.553"/>
</g>
<!-- Node21 -->
<g id="node21" class="node"><title>Node21</title>
<g id="a_node21"><a xlink:href="class_urho3_d_1_1_vector.html" target="_top" xlink:title="Urho3D::Vector\&lt; Urho3D\l::RemoteEvent \&gt;">
<polygon fill="none" stroke="black" points="344,-682.501 344,-712.501 482,-712.501 482,-682.501 344,-682.501"/>
<text text-anchor="start" x="352" y="-700.501" font-family="FreeSans" font-size="10.00">Urho3D::Vector&lt; Urho3D</text>
<text text-anchor="middle" x="413" y="-689.501" font-family="FreeSans" font-size="10.00">::RemoteEvent &gt;</text>
</a>
</g>
</g>
<!-- Node3&#45;&gt;Node21 -->
<g id="edge28" class="edge"><title>Node3&#45;&gt;Node21</title>
<path fill="none" stroke="midnightblue" d="M70.6405,-815.371C86.4816,-792.372 117.121,-753.43 154,-734.501 213.278,-704.074 289.722,-696.408 343.973,-695.386"/>
<polygon fill="midnightblue" stroke="midnightblue" points="67.6038,-813.615 64.958,-823.875 73.424,-817.505 67.6038,-813.615"/>
</g>
<!-- Node4 -->
<g id="node4" class="node"><title>Node4</title>
<g id="a_node4"><a xlink:href="class_urho3_d_1_1_vector_buffer.html" target="_top" xlink:title="Dynamically sized buffer that can be read and written to as a stream. ">
<polygon fill="none" stroke="black" points="525.5,-654.001 525.5,-673.001 644.5,-673.001 644.5,-654.001 525.5,-654.001"/>
<text text-anchor="middle" x="585" y="-661.001" font-family="FreeSans" font-size="10.00">Urho3D::VectorBuffer</text>
</a>
</g>
</g>
<!-- Node4&#45;&gt;Node1 -->
<g id="edge3" class="edge"><title>Node4&#45;&gt;Node1</title>
<path fill="none" stroke="#9a32cd" stroke-dasharray="5,2" d="M641.733,-675.289C651.206,-677.526 660.915,-679.966 670,-682.501 678.122,-684.767 679.74,-686.802 688,-688.501 807.703,-713.108 844.698,-677.229 962,-711.501 1015.96,-727.266 1072.9,-763.482 1098.34,-780.857"/>
<polygon fill="#9a32cd" stroke="#9a32cd" points="642.514,-671.877 631.982,-673.036 640.937,-678.698 642.514,-671.877"/>
<text text-anchor="middle" x="905" y="-714.501" font-family="FreeSans" font-size="10.00"> attrBuffer_</text>
</g>
<!-- Node12 -->
<g id="node12" class="node"><title>Node12</title>
<g id="a_node12"><a xlink:href="class_urho3_d_1_1_connection.html" target="_top" xlink:title="Connection to a remote network host. ">
<polygon fill="none" stroke="black" points="848.5,-499.001 848.5,-518.001 961.5,-518.001 961.5,-499.001 848.5,-499.001"/>
<text text-anchor="middle" x="905" y="-506.001" font-family="FreeSans" font-size="10.00">Urho3D::Connection</text>
</a>
</g>
</g>
<!-- Node4&#45;&gt;Node12 -->
<g id="edge23" class="edge"><title>Node4&#45;&gt;Node12</title>
<path fill="none" stroke="#9a32cd" stroke-dasharray="5,2" d="M642.871,-652.004C657.555,-649.13 673.351,-646.122 688,-643.501 750.934,-632.237 776.304,-655.203 830,-620.501 869.343,-595.074 892.524,-540.531 900.669,-518.267"/>
<polygon fill="#9a32cd" stroke="#9a32cd" points="642.046,-648.599 632.911,-653.965 643.398,-655.467 642.046,-648.599"/>
<text text-anchor="middle" x="759" y="-646.501" font-family="FreeSans" font-size="10.00"> msg_</text>
</g>
<!-- Node5 -->
<g id="node5" class="node"><title>Node5</title>
<g id="a_node5"><a xlink:href="class_urho3_d_1_1_abstract_file.html" target="_top" xlink:title="A common root class for objects that implement both Serializer and Deserializer. ">
<polygon fill="none" stroke="black" points="182.5,-654.001 182.5,-673.001 297.5,-673.001 297.5,-654.001 182.5,-654.001"/>
<text text-anchor="middle" x="240" y="-661.001" font-family="FreeSans" font-size="10.00">Urho3D::AbstractFile</text>
</a>
</g>
</g>
<!-- Node5&#45;&gt;Node4 -->
<g id="edge4" class="edge"><title>Node5&#45;&gt;Node4</title>
<path fill="none" stroke="midnightblue" d="M307.895,-663.501C371.077,-663.501 464.906,-663.501 525.265,-663.501"/>
<polygon fill="midnightblue" stroke="midnightblue" points="307.64,-660.001 297.639,-663.501 307.639,-667.001 307.64,-660.001"/>
</g>
<!-- Node6 -->
<g id="node6" class="node"><title>Node6</title>
<g id="a_node6"><a xlink:href="class_urho3_d_1_1_deserializer.html" target="_top" xlink:title="Abstract stream for reading. ">
<polygon fill="none" stroke="black" points="0,-625.001 0,-644.001 116,-644.001 116,-625.001 0,-625.001"/>
<text text-anchor="middle" x="58" y="-632.001" font-family="FreeSans" font-size="10.00">Urho3D::Deserializer</text>
</a>
</g>
</g>
<!-- Node6&#45;&gt;Node5 -->
<g id="edge5" class="edge"><title>Node6&#45;&gt;Node5</title>
<path fill="none" stroke="midnightblue" d="M126.515,-645.378C144.923,-648.344 164.672,-651.525 182.405,-654.382"/>
<polygon fill="midnightblue" stroke="midnightblue" points="126.877,-641.891 116.448,-643.756 125.764,-648.802 126.877,-641.891"/>
</g>
<!-- Node7 -->
<g id="node7" class="node"><title>Node7</title>
<g id="a_node7"><a xlink:href="class_urho3_d_1_1_serializer.html" target="_top" xlink:title="Abstract stream for writing. ">
<polygon fill="none" stroke="black" points="6,-663.001 6,-682.001 110,-682.001 110,-663.001 6,-663.001"/>
<text text-anchor="middle" x="58" y="-670.001" font-family="FreeSans" font-size="10.00">Urho3D::Serializer</text>
</a>
</g>
</g>
<!-- Node7&#45;&gt;Node5 -->
<g id="edge6" class="edge"><title>Node7&#45;&gt;Node5</title>
<path fill="none" stroke="midnightblue" d="M120.109,-669.445C140.268,-668.437 162.591,-667.321 182.398,-666.331"/>
<polygon fill="midnightblue" stroke="midnightblue" points="119.912,-665.95 110.099,-669.946 120.262,-672.942 119.912,-665.95"/>
</g>
<!-- Node8&#45;&gt;Node4 -->
<g id="edge7" class="edge"><title>Node8&#45;&gt;Node4</title>
<path fill="none" stroke="#9a32cd" stroke-dasharray="5,2" d="M309.666,-749.066C378.408,-738.387 474.999,-722.65 482,-717.501 496.091,-707.136 486.172,-693.213 500,-682.501 507.447,-676.732 516.315,-672.652 525.455,-669.778"/>
<polygon fill="#9a32cd" stroke="#9a32cd" points="309.086,-745.614 299.739,-750.603 310.157,-752.532 309.086,-745.614"/>
<text text-anchor="middle" x="413" y="-746.501" font-family="FreeSans" font-size="10.00"> buffer_</text>
</g>
<!-- Node9 -->
<g id="node9" class="node"><title>Node9</title>
<g id="a_node9"><a xlink:href="class_urho3_d_1_1_string.html" target="_top" xlink:title="String class. ">
<polygon fill="none" stroke="black" points="541,-730.001 541,-749.001 629,-749.001 629,-730.001 541,-730.001"/>
<text text-anchor="middle" x="585" y="-737.001" font-family="FreeSans" font-size="10.00">Urho3D::String</text>
</a>
</g>
</g>
<!-- Node9&#45;&gt;Node1 -->
<g id="edge9" class="edge"><title>Node9&#45;&gt;Node1</title>
<path fill="none" stroke="#9a32cd" stroke-dasharray="5,2" d="M614.172,-753.301C634.246,-762.444 662.146,-773.771 688,-779.501 819.562,-808.654 979.696,-801.748 1060.32,-795.439"/>
<polygon fill="#9a32cd" stroke="#9a32cd" points="615.532,-750.074 604.989,-749.023 612.575,-756.419 615.532,-750.074"/>
<text text-anchor="middle" x="905" y="-804.501" font-family="FreeSans" font-size="10.00"> name_</text>
</g>
<!-- Node9&#45;&gt;Node9 -->
<g id="edge10" class="edge"><title>Node9&#45;&gt;Node9</title>
<path fill="none" stroke="#9a32cd" stroke-dasharray="5,2" d="M552.814,-757.775C553.732,-763.242 564.461,-767.501 585,-767.501 615.57,-767.501 624.407,-758.066 611.51,-749.258"/>
<polygon fill="#9a32cd" stroke="#9a32cd" points="555.857,-759.52 558.49,-749.258 550.032,-755.639 555.857,-759.52"/>
<text text-anchor="middle" x="585" y="-770.501" font-family="FreeSans" font-size="10.00"> EMPTY</text>
</g>
<!-- Node9&#45;&gt;Node12 -->
<g id="edge33" class="edge"><title>Node9&#45;&gt;Node12</title>
<path fill="none" stroke="#9a32cd" stroke-dasharray="5,2" d="M639.431,-749.444C693.278,-756.286 775.938,-757.697 830,-715.501 838.349,-708.984 887.867,-558.103 900.873,-518.14"/>
<polygon fill="#9a32cd" stroke="#9a32cd" points="639.777,-745.959 629.394,-748.063 638.824,-752.893 639.777,-745.959"/>
<text text-anchor="middle" x="759" y="-767.501" font-family="FreeSans" font-size="10.00"> sceneFileName_</text>
<text text-anchor="middle" x="759" y="-756.501" font-family="FreeSans" font-size="10.00">address_</text>
</g>
<!-- Node10 -->
<g id="node10" class="node"><title>Node10</title>
<g id="a_node10"><a xlink:href="class_urho3_d_1_1_string_hash.html" target="_top" xlink:title="32&#45;bit hash value for a string. ">
<polygon fill="none" stroke="black" points="848.5,-732.001 848.5,-751.001 961.5,-751.001 961.5,-732.001 848.5,-732.001"/>
<text text-anchor="middle" x="905" y="-739.001" font-family="FreeSans" font-size="10.00">Urho3D::StringHash</text>
</a>
</g>
</g>
<!-- Node10&#45;&gt;Node1 -->
<g id="edge11" class="edge"><title>Node10&#45;&gt;Node1</title>
<path fill="none" stroke="#9a32cd" stroke-dasharray="5,2" d="M956.374,-753.483C991.915,-761.937 1038.89,-773.109 1071.89,-780.961"/>
<polygon fill="#9a32cd" stroke="#9a32cd" points="956.746,-749.974 946.208,-751.065 955.127,-756.784 956.746,-749.974"/>
<text text-anchor="middle" x="1011" y="-776.501" font-family="FreeSans" font-size="10.00"> nameHash_</text>
</g>
<!-- Node10&#45;&gt;Node10 -->
<g id="edge12" class="edge"><title>Node10&#45;&gt;Node10</title>
<path fill="none" stroke="#9a32cd" stroke-dasharray="5,2" d="M885.371,-760.901C886.682,-765.815 893.225,-769.501 905,-769.501 923.84,-769.501 929.286,-760.066 921.338,-751.258"/>
<polygon fill="#9a32cd" stroke="#9a32cd" points="888.745,-761.852 888.662,-751.258 882.12,-759.591 888.745,-761.852"/>
<text text-anchor="middle" x="905" y="-772.501" font-family="FreeSans" font-size="10.00"> ZERO</text>
</g>
<!-- Node11&#45;&gt;Node1 -->
<g id="edge13" class="edge"><title>Node11&#45;&gt;Node1</title>
<path fill="none" stroke="#9a32cd" stroke-dasharray="5,2" d="M839.852,-860.693C897.332,-858.76 976.038,-851.817 1042,-830.501 1063.31,-823.614 1085.33,-809.711 1098.84,-800.252"/>
<polygon fill="#9a32cd" stroke="#9a32cd" points="839.629,-857.198 829.736,-860.989 839.834,-864.195 839.629,-857.198"/>
<text text-anchor="middle" x="905" y="-863.501" font-family="FreeSans" font-size="10.00"> tags_</text>
</g>
<!-- Node12&#45;&gt;Node1 -->
<g id="edge15" class="edge"><title>Node12&#45;&gt;Node1</title>
<path fill="none" stroke="#9a32cd" stroke-dasharray="5,2" d="M921.239,-525.95C947.211,-556.006 1001.2,-619.873 1042,-677.501 1068.14,-714.415 1095.28,-761.043 1106.57,-780.872"/>
<polygon fill="#9a32cd" stroke="#9a32cd" points="923.604,-523.336 914.407,-518.077 918.317,-527.923 923.604,-523.336"/>
<text text-anchor="middle" x="1011" y="-680.501" font-family="FreeSans" font-size="10.00"> owner_</text>
</g>
<!-- Node13 -->
<g id="node13" class="node"><title>Node13</title>
<g id="a_node13"><a xlink:href="class_urho3_d_1_1_object.html" target="_top" xlink:title="Base class for objects with type identification, subsystem access and event sending/receiving capabil...">
<polygon fill="none" stroke="red" points="540,-518.001 540,-537.001 630,-537.001 630,-518.001 540,-518.001"/>
<text text-anchor="middle" x="585" y="-525.001" font-family="FreeSans" font-size="10.00">Urho3D::Object</text>
</a>
</g>
</g>
<!-- Node13&#45;&gt;Node12 -->
<g id="edge16" class="edge"><title>Node13&#45;&gt;Node12</title>
<path fill="none" stroke="midnightblue" d="M640.293,-524.257C698.329,-520.789 789.873,-515.319 848.404,-511.822"/>
<polygon fill="midnightblue" stroke="midnightblue" points="639.99,-520.768 630.217,-524.859 640.408,-527.756 639.99,-520.768"/>
</g>
<!-- Node14 -->
<g id="node14" class="node"><title>Node14</title>
<g id="a_node14"><a xlink:href="struct_urho3_d_1_1_scene_replication_state.html" target="_top" xlink:title="Per&#45;user scene network replication state. ">
<polygon fill="none" stroke="red" points="515,-421.501 515,-451.501 655,-451.501 655,-421.501 515,-421.501"/>
<text text-anchor="start" x="523" y="-439.501" font-family="FreeSans" font-size="10.00">Urho3D::SceneReplication</text>
<text text-anchor="middle" x="585" y="-428.501" font-family="FreeSans" font-size="10.00">State</text>
</a>
</g>
</g>
<!-- Node14&#45;&gt;Node12 -->
<g id="edge17" class="edge"><title>Node14&#45;&gt;Node12</title>
<path fill="none" stroke="#9a32cd" stroke-dasharray="5,2" d="M665.203,-436.619C713.886,-438.787 776.893,-445.412 830,-463.501 853.769,-471.597 878.018,-488.28 892.006,-498.901"/>
<polygon fill="#9a32cd" stroke="#9a32cd" points="665.17,-433.115 655.04,-436.221 664.896,-440.11 665.17,-433.115"/>
<text text-anchor="middle" x="759" y="-466.501" font-family="FreeSans" font-size="10.00"> sceneState_</text>
</g>
<!-- Node15 -->
<g id="node15" class="node"><title>Node15</title>
<g id="a_node15"><a xlink:href="class_urho3_d_1_1_hash_set.html" target="_top" xlink:title="Urho3D::HashSet\&lt; unsigned \&gt;">
<polygon fill="none" stroke="red" points="156.5,-109.001 156.5,-128.001 323.5,-128.001 323.5,-109.001 156.5,-109.001"/>
<text text-anchor="middle" x="240" y="-116.001" font-family="FreeSans" font-size="10.00">Urho3D::HashSet&lt; unsigned &gt;</text>
</a>
</g>
</g>
<!-- Node15&#45;&gt;Node12 -->
<g id="edge35" class="edge"><title>Node15&#45;&gt;Node12</title>
<path fill="none" stroke="#9a32cd" stroke-dasharray="5,2" d="M267.941,-104.269C363.581,-55.8615 688.604,90.1412 830,-81.5005 885.252,-148.572 901.044,-442.274 903.601,-498.998"/>
<polygon fill="#9a32cd" stroke="#9a32cd" points="266.219,-101.218 258.916,-108.894 269.411,-107.448 266.219,-101.218"/>
<text text-anchor="middle" x="585" y="-19.5005" font-family="FreeSans" font-size="10.00"> nodesToProcess_</text>
</g>
<!-- Node15&#45;&gt;Node14 -->
<g id="edge18" class="edge"><title>Node15&#45;&gt;Node14</title>
<path fill="none" stroke="#9a32cd" stroke-dasharray="5,2" d="M251.877,-136.762C283.427,-188.138 380.376,-335.147 500,-411.501 506.028,-415.348 512.674,-418.626 519.508,-421.413"/>
<polygon fill="#9a32cd" stroke="#9a32cd" points="254.781,-134.8 246.603,-128.064 248.795,-138.43 254.781,-134.8"/>
<text text-anchor="middle" x="413" y="-397.501" font-family="FreeSans" font-size="10.00"> dirtyNodes_</text>
</g>
<!-- Node16 -->
<g id="node16" class="node"><title>Node16</title>
<g id="a_node16"><a xlink:href="class_urho3_d_1_1_weak_ptr.html" target="_top" xlink:title="Urho3D::WeakPtr\&lt; Urho3D\l::Scene \&gt;">
<polygon fill="none" stroke="red" points="512,-372.501 512,-402.501 658,-402.501 658,-372.501 512,-372.501"/>
<text text-anchor="start" x="520" y="-390.501" font-family="FreeSans" font-size="10.00">Urho3D::WeakPtr&lt; Urho3D</text>
<text text-anchor="middle" x="585" y="-379.501" font-family="FreeSans" font-size="10.00">::Scene &gt;</text>
</a>
</g>
</g>
<!-- Node16&#45;&gt;Node12 -->
<g id="edge19" class="edge"><title>Node16&#45;&gt;Node12</title>
<path fill="none" stroke="#9a32cd" stroke-dasharray="5,2" d="M668.272,-385.605C717.845,-387.76 780.707,-396.541 830,-423.501 863.131,-441.62 888.366,-480.731 898.78,-498.883"/>
<polygon fill="#9a32cd" stroke="#9a32cd" points="668.342,-382.106 658.225,-385.251 668.095,-389.101 668.342,-382.106"/>
<text text-anchor="middle" x="759" y="-426.501" font-family="FreeSans" font-size="10.00"> scene_</text>
</g>
<!-- Node17 -->
<g id="node17" class="node"><title>Node17</title>
<g id="a_node17"><a xlink:href="class_urho3_d_1_1_quaternion.html" target="_top" xlink:title="Rotation represented as a four&#45;dimensional normalized vector. ">
<polygon fill="none" stroke="black" points="528.5,-305.001 528.5,-324.001 641.5,-324.001 641.5,-305.001 528.5,-305.001"/>
<text text-anchor="middle" x="585" y="-312.001" font-family="FreeSans" font-size="10.00">Urho3D::Quaternion</text>
</a>
</g>
</g>
<!-- Node17&#45;&gt;Node12 -->
<g id="edge20" class="edge"><title>Node17&#45;&gt;Node12</title>
<path fill="none" stroke="#9a32cd" stroke-dasharray="5,2" d="M651.923,-315.825C704.902,-320.019 778.689,-333.256 830,-372.501 873.983,-406.14 895.098,-473.704 901.668,-498.813"/>
<polygon fill="#9a32cd" stroke="#9a32cd" points="651.838,-312.311 641.618,-315.102 651.348,-319.294 651.838,-312.311"/>
<text text-anchor="middle" x="759" y="-375.501" font-family="FreeSans" font-size="10.00"> rotation_</text>
</g>
<!-- Node17&#45;&gt;Node17 -->
<g id="edge21" class="edge"><title>Node17&#45;&gt;Node17</title>
<path fill="none" stroke="#9a32cd" stroke-dasharray="5,2" d="M552.814,-332.775C553.732,-338.242 564.461,-342.501 585,-342.501 615.57,-342.501 624.407,-333.066 611.51,-324.258"/>
<polygon fill="#9a32cd" stroke="#9a32cd" points="555.857,-334.52 558.49,-324.258 550.032,-330.639 555.857,-334.52"/>
<text text-anchor="middle" x="585" y="-345.501" font-family="FreeSans" font-size="10.00"> IDENTITY</text>
</g>
<!-- Node18 -->
<g id="node18" class="node"><title>Node18</title>
<g id="a_node18"><a xlink:href="class_urho3_d_1_1_hash_map.html" target="_top" xlink:title="Urho3D::HashMap\&lt; Urho3D\l::StringHash, Urho3D::\lPackageUpload \&gt;">
<polygon fill="none" stroke="red" points="509,-245.001 509,-286.001 661,-286.001 661,-245.001 509,-245.001"/>
<text text-anchor="start" x="517" y="-274.001" font-family="FreeSans" font-size="10.00">Urho3D::HashMap&lt; Urho3D</text>
<text text-anchor="start" x="517" y="-263.001" font-family="FreeSans" font-size="10.00">::StringHash, Urho3D::</text>
<text text-anchor="middle" x="585" y="-252.001" font-family="FreeSans" font-size="10.00">PackageUpload &gt;</text>
</a>
</g>
</g>
<!-- Node18&#45;&gt;Node12 -->
<g id="edge22" class="edge"><title>Node18&#45;&gt;Node12</title>
<path fill="none" stroke="#9a32cd" stroke-dasharray="5,2" d="M671.363,-259.538C722.691,-260.479 786.319,-270.223 830,-306.501 891.774,-357.803 901.982,-465.412 903.667,-498.564"/>
<polygon fill="#9a32cd" stroke="#9a32cd" points="671.297,-256.038 661.271,-259.462 671.244,-263.037 671.297,-256.038"/>
<text text-anchor="middle" x="759" y="-309.501" font-family="FreeSans" font-size="10.00"> uploads_</text>
</g>
<!-- Node19 -->
<g id="node19" class="node"><title>Node19</title>
<g id="a_node19"><a xlink:href="class_urho3_d_1_1_hash_map.html" target="_top" xlink:title="Urho3D::HashMap\&lt; Urho3D\l::StringHash, Urho3D::\lPackageDownload \&gt;">
<polygon fill="none" stroke="red" points="509,-185.001 509,-226.001 661,-226.001 661,-185.001 509,-185.001"/>
<text text-anchor="start" x="517" y="-214.001" font-family="FreeSans" font-size="10.00">Urho3D::HashMap&lt; Urho3D</text>
<text text-anchor="start" x="517" y="-203.001" font-family="FreeSans" font-size="10.00">::StringHash, Urho3D::</text>
<text text-anchor="middle" x="585" y="-192.001" font-family="FreeSans" font-size="10.00">PackageDownload &gt;</text>
</a>
</g>
</g>
<!-- Node19&#45;&gt;Node12 -->
<g id="edge24" class="edge"><title>Node19&#45;&gt;Node12</title>
<path fill="none" stroke="#9a32cd" stroke-dasharray="5,2" d="M671.232,-197.976C723.121,-198.121 787.397,-207.413 830,-245.501 869.605,-280.908 896.557,-455.712 902.677,-498.859"/>
<polygon fill="#9a32cd" stroke="#9a32cd" points="671,-194.478 661.03,-198.063 671.059,-201.477 671,-194.478"/>
<text text-anchor="middle" x="759" y="-248.501" font-family="FreeSans" font-size="10.00"> downloads_</text>
</g>
<!-- Node20 -->
<g id="node20" class="node"><title>Node20</title>
<g id="a_node20"><a xlink:href="class_urho3_d_1_1_vector3.html" target="_top" xlink:title="Three&#45;dimensional vector. ">
<polygon fill="none" stroke="black" points="537,-41.0005 537,-60.0005 633,-60.0005 633,-41.0005 537,-41.0005"/>
<text text-anchor="middle" x="585" y="-48.0005" font-family="FreeSans" font-size="10.00">Urho3D::Vector3</text>
</a>
</g>
</g>
<!-- Node20&#45;&gt;Node12 -->
<g id="edge25" class="edge"><title>Node20&#45;&gt;Node12</title>
<path fill="none" stroke="#9a32cd" stroke-dasharray="5,2" d="M632.617,-63.071C688.344,-80.582 780.29,-117.811 830,-183.501 869.634,-235.874 897.164,-450.904 902.892,-498.95"/>
<polygon fill="#9a32cd" stroke="#9a32cd" points="633.575,-59.7039 622.988,-60.1282 631.529,-66.3982 633.575,-59.7039"/>
<text text-anchor="middle" x="759" y="-186.501" font-family="FreeSans" font-size="10.00"> position_</text>
</g>
<!-- Node20&#45;&gt;Node20 -->
<g id="edge26" class="edge"><title>Node20&#45;&gt;Node20</title>
<path fill="none" stroke="#9a32cd" stroke-dasharray="5,2" d="M552.814,-68.7751C553.732,-74.2415 564.461,-78.5005 585,-78.5005 615.57,-78.5005 624.407,-69.0658 611.51,-60.2576"/>
<polygon fill="#9a32cd" stroke="#9a32cd" points="555.857,-70.5202 558.49,-60.2576 550.032,-66.6386 555.857,-70.5202"/>
<text text-anchor="middle" x="585" y="-158.501" font-family="FreeSans" font-size="10.00"> ONE</text>
<text text-anchor="middle" x="585" y="-147.501" font-family="FreeSans" font-size="10.00">DOWN</text>
<text text-anchor="middle" x="585" y="-136.501" font-family="FreeSans" font-size="10.00">BACK</text>
<text text-anchor="middle" x="585" y="-125.501" font-family="FreeSans" font-size="10.00">RIGHT</text>
<text text-anchor="middle" x="585" y="-114.501" font-family="FreeSans" font-size="10.00">LEFT</text>
<text text-anchor="middle" x="585" y="-103.501" font-family="FreeSans" font-size="10.00">ZERO</text>
<text text-anchor="middle" x="585" y="-92.5005" font-family="FreeSans" font-size="10.00">FORWARD</text>
<text text-anchor="middle" x="585" y="-81.5005" font-family="FreeSans" font-size="10.00">UP</text>
</g>
<!-- Node21&#45;&gt;Node12 -->
<g id="edge27" class="edge"><title>Node21&#45;&gt;Node12</title>
<path fill="none" stroke="#9a32cd" stroke-dasharray="5,2" d="M416.25,-672.285C421.72,-627.944 440.053,-536.977 500,-497.501 555.67,-460.84 751.245,-484.657 848.388,-499.374"/>
<polygon fill="#9a32cd" stroke="#9a32cd" points="412.741,-672.169 415.119,-682.493 419.699,-672.94 412.741,-672.169"/>
<text text-anchor="middle" x="585" y="-500.501" font-family="FreeSans" font-size="10.00"> remoteEvents_</text>
</g>
<!-- Node22 -->
<g id="node22" class="node"><title>Node22</title>
<g id="a_node22"><a xlink:href="class_urho3_d_1_1_controls.html" target="_top" xlink:title="Controls sent over the network. ">
<polygon fill="none" stroke="black" points="535.5,-692.001 535.5,-711.001 634.5,-711.001 634.5,-692.001 535.5,-692.001"/>
<text text-anchor="middle" x="585" y="-699.001" font-family="FreeSans" font-size="10.00">Urho3D::Controls</text>
</a>
</g>
</g>
<!-- Node22&#45;&gt;Node12 -->
<g id="edge29" class="edge"><title>Node22&#45;&gt;Node12</title>
<path fill="none" stroke="#9a32cd" stroke-dasharray="5,2" d="M644.877,-704.124C698.263,-703.51 776.553,-694.794 830,-654.501 877.198,-618.918 896.551,-544.774 902.149,-518.221"/>
<polygon fill="#9a32cd" stroke="#9a32cd" points="644.539,-700.625 634.546,-704.146 644.554,-707.625 644.539,-700.625"/>
<text text-anchor="middle" x="759" y="-704.501" font-family="FreeSans" font-size="10.00"> controls_</text>
</g>
<!-- Node23 -->
<g id="node23" class="node"><title>Node23</title>
<g id="a_node23"><a xlink:href="class_urho3_d_1_1_hash_map.html" target="_top" xlink:title="Urho3D::HashMap\&lt; StringHash,\l Variant \&gt;">
<polygon fill="none" stroke="red" points="154,-797.501 154,-827.501 326,-827.501 326,-797.501 154,-797.501"/>
<text text-anchor="start" x="162" y="-815.501" font-family="FreeSans" font-size="10.00">Urho3D::HashMap&lt; StringHash,</text>
<text text-anchor="middle" x="240" y="-804.501" font-family="FreeSans" font-size="10.00"> Variant &gt;</text>
</a>
</g>
</g>
<!-- Node23&#45;&gt;Node12 -->
<g id="edge31" class="edge"><title>Node23&#45;&gt;Node12</title>
<path fill="none" stroke="#9a32cd" stroke-dasharray="5,2" d="M336.585,-820.326C484.328,-830.255 758.606,-839.371 830,-777.501 859.182,-752.211 838.369,-729.896 848,-692.501 865.322,-625.242 891.464,-545.81 900.659,-518.387"/>
<polygon fill="#9a32cd" stroke="#9a32cd" points="336.387,-816.804 326.171,-819.611 335.907,-823.788 336.387,-816.804"/>
<text text-anchor="middle" x="585" y="-830.501" font-family="FreeSans" font-size="10.00"> identity_</text>
</g>
<!-- Node23&#45;&gt;Node22 -->
<g id="edge30" class="edge"><title>Node23&#45;&gt;Node22</title>
<path fill="none" stroke="#9a32cd" stroke-dasharray="5,2" d="M317.318,-795.166C387.284,-779.214 480.32,-757.826 482,-756.501 496.047,-745.424 485.921,-731.536 500,-720.501 510.12,-712.568 522.921,-707.821 535.458,-705.014"/>
<polygon fill="#9a32cd" stroke="#9a32cd" points="316.149,-791.843 307.176,-797.477 317.704,-798.668 316.149,-791.843"/>
<text text-anchor="middle" x="413" y="-792.501" font-family="FreeSans" font-size="10.00"> extraData_</text>
</g>
<!-- Node24 -->
<g id="node24" class="node"><title>Node24</title>
<g id="a_node24"><a xlink:href="class_urho3_d_1_1_timer.html" target="_top" xlink:title="Low&#45;resolution operating system timer. ">
<polygon fill="none" stroke="black" points="542,-616.001 542,-635.001 628,-635.001 628,-616.001 542,-616.001"/>
<text text-anchor="middle" x="585" y="-623.001" font-family="FreeSans" font-size="10.00">Urho3D::Timer</text>
</a>
</g>
</g>
<!-- Node24&#45;&gt;Node12 -->
<g id="edge32" class="edge"><title>Node24&#45;&gt;Node12</title>
<path fill="none" stroke="#9a32cd" stroke-dasharray="5,2" d="M638.432,-617.225C709.819,-605.944 828.937,-587.061 830,-586.501 861.374,-569.963 886.94,-535.008 898.036,-518.083"/>
<polygon fill="#9a32cd" stroke="#9a32cd" points="637.597,-613.814 628.266,-618.832 638.689,-620.728 637.597,-613.814"/>
<text text-anchor="middle" x="759" y="-612.501" font-family="FreeSans" font-size="10.00"> statsTimer_</text>
</g>
<!-- Node25 -->
<g id="node25" class="node"><title>Node25</title>
<g id="a_node25"><a xlink:href="class_urho3_d_1_1_hash_map.html" target="_top" xlink:title="Urho3D::HashMap\&lt; unsigned,\l Urho3D::PODVector\&lt; unsigned\l char \&gt; \&gt;">
<polygon fill="none" stroke="red" points="500.5,-556.001 500.5,-597.001 669.5,-597.001 669.5,-556.001 500.5,-556.001"/>
<text text-anchor="start" x="508.5" y="-585.001" font-family="FreeSans" font-size="10.00">Urho3D::HashMap&lt; unsigned,</text>
<text text-anchor="start" x="508.5" y="-574.001" font-family="FreeSans" font-size="10.00"> Urho3D::PODVector&lt; unsigned</text>
<text text-anchor="middle" x="585" y="-563.001" font-family="FreeSans" font-size="10.00"> char &gt; &gt;</text>
</a>
</g>
</g>
<!-- Node25&#45;&gt;Node12 -->
<g id="edge34" class="edge"><title>Node25&#45;&gt;Node12</title>
<path fill="none" stroke="#9a32cd" stroke-dasharray="5,2" d="M679.418,-561.953C725.093,-554.16 780.712,-543.659 830,-531.501 845.413,-527.698 862.339,-522.515 876.109,-518.031"/>
<polygon fill="#9a32cd" stroke="#9a32cd" points="678.807,-558.506 669.531,-563.624 679.974,-565.408 678.807,-558.506"/>
<text text-anchor="middle" x="759" y="-574.501" font-family="FreeSans" font-size="10.00"> nodeLatestData_</text>
<text text-anchor="middle" x="759" y="-563.501" font-family="FreeSans" font-size="10.00">componentLatestData_</text>
</g>
</g>
</svg>
        <g id="navigator" transform="translate(0 0)" fill="#404254">
                <rect fill="#f2f5e9" fill-opacity="0.5" stroke="#606060" stroke-width=".5" x="0" y="0" width="60" height="60"/>
                <use id="zoomplus" xlink:href="#zoomPlus" x="17" y="9" onmousedown="handleZoom(evt,'in')"/>
                <use id="zoomminus" xlink:href="#zoomMin" x="42" y="9" onmousedown="handleZoom(evt,'out')"/>
                <use id="reset" xlink:href="#resetDef" x="30" y="36" onmousedown="handleReset()"/>
                <g id="arrowUp" xlink:href="#dirArrow" transform="translate(30 24)" onmousedown="handlePan(0,-1)">
                  <use xlink:href="#rim" fill="#404040">
                        <set attributeName="fill" to="#808080" begin="arrowUp.mouseover" end="arrowUp.mouseout"/>
                  </use>
                  <path fill="none" stroke="white" stroke-width="1.5" d="M0,-3.0v7 M-2.5,-0.5L0,-3.0L2.5,-0.5"/>
                </g>
                <g id="arrowRight" xlink:href="#dirArrow" transform="rotate(90) translate(36 -43)" onmousedown="handlePan(1,0)">
                  <use xlink:href="#rim" fill="#404040">
                        <set attributeName="fill" to="#808080" begin="arrowRight.mouseover" end="arrowRight.mouseout"/>
                  </use>
                  <path fill="none" stroke="white" stroke-width="1.5" d="M0,-3.0v7 M-2.5,-0.5L0,-3.0L2.5,-0.5"/>
                </g>
                <g id="arrowDown" xlink:href="#dirArrow" transform="rotate(180) translate(-30 -48)" onmousedown="handlePan(0,1)">
                  <use xlink:href="#rim" fill="#404040">
                        <set attributeName="fill" to="#808080" begin="arrowDown.mouseover" end="arrowDown.mouseout"/>
                  </use>
                  <path fill="none" stroke="white" stroke-width="1.5" d="M0,-3.0v7 M-2.5,-0.5L0,-3.0L2.5,-0.5"/>
                </g>
                <g id="arrowLeft" xlink:href="#dirArrow" transform="rotate(270) translate(-36 17)" onmousedown="handlePan(-1,0)">
                  <use xlink:href="#rim" fill="#404040">
                        <set attributeName="fill" to="#808080" begin="arrowLeft.mouseover" end="arrowLeft.mouseout"/>
                  </use>
                  <path fill="none" stroke="white" stroke-width="1.5" d="M0,-3.0v7 M-2.5,-0.5L0,-3.0L2.5,-0.5"/>
                </g>
        </g>
        <svg viewBox="0 0 15 15" width="100%" height="30px" preserveAspectRatio="xMaxYMin meet">
         <g id="arrow_out" transform="scale(0.3 0.3)">
          <a xlink:href="struct_urho3_d_1_1_node_impl__coll__graph_org.svg" target="_base">
           <rect id="button" ry="5" rx="5" y="6" x="6" height="38" width="38"
                fill="#f2f5e9" fill-opacity="0.5" stroke="#606060" stroke-width="1.0"/>
           <path id="arrow"
             d="M 11.500037,31.436501 C 11.940474,20.09759 22.043105,11.32322 32.158766,21.979434 L 37.068811,17.246167 C 37.068811,17.246167 37.088388,32 37.088388,32 L 22.160133,31.978069 C 22.160133,31.978069 26.997745,27.140456 26.997745,27.140456 C 18.528582,18.264221 13.291696,25.230495 11.500037,31.436501 z"
             style="fill:#404040;"/>
          </a>
         </g>
        </svg>
</svg>
