<?xml version="1.0" encoding="UTF-8" standalone="no"?>
<!DOCTYPE svg PUBLIC "-//W3C//DTD SVG 1.1//EN"
 "http://www.w3.org/Graphics/SVG/1.1/DTD/svg11.dtd">
<!-- Generated by graphviz version 2.43.0 (0)
 -->
<!-- Title: Urho3D::Spriter::TimelineKey Pages: 1 -->
<svg width="346pt" height="241pt"
 viewBox="0.00 0.00 345.50 241.00" xmlns="http://www.w3.org/2000/svg" xmlns:xlink="http://www.w3.org/1999/xlink">
<g id="graph0" class="graph" transform="scale(1 1) rotate(0) translate(4 237)">
<title>Urho3D::Spriter::TimelineKey</title>
<!-- Node1 -->
<g id="node1" class="node">
<title>Node1</title>
<g id="a_node1"><a xlink:title="Timeline key.">
<polygon fill="#bfbfbf" stroke="black" points="84.5,-0.5 84.5,-19.5 242.5,-19.5 242.5,-0.5 84.5,-0.5"/>
<text text-anchor="middle" x="163.5" y="-7.5" font-family="Helvetica,sans-Serif" font-size="10.00">Urho3D::Spriter::TimelineKey</text>
</a>
</g>
</g>
<!-- Node2 -->
<g id="node2" class="node">
<title>Node2</title>
<g id="a_node2"><a xlink:href="struct_urho3_d_1_1_spriter_1_1_timeline.html" target="_top" xlink:title="Timeline.">
<polygon fill="none" stroke="black" points="93.5,-67.5 93.5,-86.5 233.5,-86.5 233.5,-67.5 93.5,-67.5"/>
<text text-anchor="middle" x="163.5" y="-74.5" font-family="Helvetica,sans-Serif" font-size="10.00">Urho3D::Spriter::Timeline</text>
</a>
</g>
</g>
<!-- Node2&#45;&gt;Node1 -->
<g id="edge1" class="edge">
<title>Node2&#45;&gt;Node1</title>
<path fill="none" stroke="#9a32cd" stroke-dasharray="5,2" d="M163.5,-57.04C163.5,-44.67 163.5,-29.12 163.5,-19.63"/>
<polygon fill="#9a32cd" stroke="#9a32cd" points="160,-57.23 163.5,-67.23 167,-57.23 160,-57.23"/>
<text text-anchor="middle" x="188" y="-41" font-family="Helvetica,sans-Serif" font-size="10.00"> timeline_</text>
</g>
<!-- Node3 -->
<g id="node3" class="node">
<title>Node3</title>
<g id="a_node3"><a xlink:href="class_urho3_d_1_1_p_o_d_vector.html" target="_top" xlink:title=" ">
<polygon fill="none" stroke="black" points="0,-134.5 0,-175.5 177,-175.5 177,-134.5 0,-134.5"/>
<text text-anchor="start" x="8" y="-163.5" font-family="Helvetica,sans-Serif" font-size="10.00">Urho3D::PODVector&lt;</text>
<text text-anchor="start" x="8" y="-152.5" font-family="Helvetica,sans-Serif" font-size="10.00"> Urho3D::Spriter::SpatialTimeline</text>
<text text-anchor="middle" x="88.5" y="-141.5" font-family="Helvetica,sans-Serif" font-size="10.00">Key * &gt;</text>
</a>
</g>
</g>
<!-- Node3&#45;&gt;Node2 -->
<g id="edge2" class="edge">
<title>Node3&#45;&gt;Node2</title>
<path fill="none" stroke="#9a32cd" stroke-dasharray="5,2" d="M114.92,-127.23C129,-112.96 145.37,-96.37 155.06,-86.55"/>
<polygon fill="#9a32cd" stroke="#9a32cd" points="112.35,-124.85 107.81,-134.43 117.33,-129.77 112.35,-124.85"/>
<text text-anchor="middle" x="151" y="-108" font-family="Helvetica,sans-Serif" font-size="10.00"> keys_</text>
</g>
<!-- Node4 -->
<g id="node4" class="node">
<title>Node4</title>
<g id="a_node4"><a xlink:href="class_urho3_d_1_1_vector_base.html" target="_top" xlink:title="Vector base class.">
<polygon fill="none" stroke="black" points="31.5,-213.5 31.5,-232.5 145.5,-232.5 145.5,-213.5 31.5,-213.5"/>
<text text-anchor="middle" x="88.5" y="-220.5" font-family="Helvetica,sans-Serif" font-size="10.00">Urho3D::VectorBase</text>
</a>
</g>
</g>
<!-- Node4&#45;&gt;Node3 -->
<g id="edge3" class="edge">
<title>Node4&#45;&gt;Node3</title>
<path fill="none" stroke="midnightblue" d="M88.5,-203.25C88.5,-194.65 88.5,-184.45 88.5,-175.74"/>
<polygon fill="midnightblue" stroke="midnightblue" points="85,-203.37 88.5,-213.37 92,-203.37 85,-203.37"/>
</g>
<!-- Node5 -->
<g id="node5" class="node">
<title>Node5</title>
<g id="a_node5"><a xlink:href="class_urho3_d_1_1_string.html" target="_top" xlink:title="String class.">
<polygon fill="none" stroke="black" points="194.5,-145.5 194.5,-164.5 282.5,-164.5 282.5,-145.5 194.5,-145.5"/>
<text text-anchor="middle" x="238.5" y="-152.5" font-family="Helvetica,sans-Serif" font-size="10.00">Urho3D::String</text>
</a>
</g>
</g>
<!-- Node5&#45;&gt;Node2 -->
<g id="edge4" class="edge">
<title>Node5&#45;&gt;Node2</title>
<path fill="none" stroke="#9a32cd" stroke-dasharray="5,2" d="M222.59,-137.88C207.13,-122.22 184.27,-99.04 172,-86.62"/>
<polygon fill="#9a32cd" stroke="#9a32cd" points="220.38,-140.62 229.9,-145.28 225.36,-135.71 220.38,-140.62"/>
<text text-anchor="middle" x="219" y="-108" font-family="Helvetica,sans-Serif" font-size="10.00"> name_</text>
</g>
<!-- Node5&#45;&gt;Node5 -->
<g id="edge5" class="edge">
<title>Node5&#45;&gt;Node5</title>
<path fill="none" stroke="#9a32cd" stroke-dasharray="5,2" d="M292.76,-160.6C297.52,-159.42 300.5,-157.55 300.5,-155 300.5,-150.92 292.87,-148.59 282.52,-148.02"/>
<polygon fill="#9a32cd" stroke="#9a32cd" points="291.96,-157.17 282.52,-161.98 292.9,-164.11 291.96,-157.17"/>
<text text-anchor="middle" x="319" y="-152.5" font-family="Helvetica,sans-Serif" font-size="10.00"> EMPTY</text>
</g>
</g>
</svg>
