<?xml version="1.0" encoding="UTF-8" standalone="no"?>
<!DOCTYPE svg PUBLIC "-//W3C//DTD SVG 1.1//EN"
 "http://www.w3.org/Graphics/SVG/1.1/DTD/svg11.dtd">
<!-- Generated by graphviz version 2.26.3 (20100126.1600)
 -->
<!-- Title: Urho3D::ShadowBatchQueue Pages: 1 -->
<svg width="1192pt" height="904pt"
 viewBox="0.00 0.00 1192.00 904.00" xmlns="http://www.w3.org/2000/svg" xmlns:xlink="http://www.w3.org/1999/xlink">
<g id="graph1" class="graph" transform="scale(1 1) rotate(0) translate(4 900)">
<title>Urho3D::ShadowBatchQueue</title>
<!-- Node1 -->
<g id="node1" class="node"><title>Node1</title>
<polygon fill="#bfbfbf" stroke="black" points="1028,-622.5 1028,-643.5 1184,-643.5 1184,-622.5 1028,-622.5"/>
<text text-anchor="middle" x="1106" y="-630.5" font-family="FreeSans" font-size="10.00">Urho3D::ShadowBatchQueue</text>
</g>
<!-- Node2 -->
<g id="node2" class="node"><title>Node2</title>
<a xlink:href="class_urho3_d_1_1_int_rect.html" target="_top" xlink:title="Two&#45;dimensional bounding rectangle with integer values.">
<polygon fill="none" stroke="black" points="800,-662.5 800,-683.5 892,-683.5 892,-662.5 800,-662.5"/>
<text text-anchor="middle" x="846" y="-670.5" font-family="FreeSans" font-size="10.00">Urho3D::IntRect</text>
</a>
</g>
<!-- Node2&#45;&gt;Node1 -->
<g id="edge2" class="edge"><title>Node2&#45;&gt;Node1</title>
<path fill="none" stroke="#9a32cd" stroke-dasharray="5,2" d="M902.303,-665.042C933.969,-660.496 974.214,-654.6 1010,-649 1021.02,-647.276 1032.74,-645.377 1044.06,-643.509"/>
<polygon fill="#9a32cd" stroke="#9a32cd" points="901.742,-661.587 892.339,-666.469 902.734,-668.516 901.742,-661.587"/>
<text text-anchor="middle" x="967" y="-665" font-family="FreeSans" font-size="10.00"> shadowViewport_</text>
</g>
<!-- Node2&#45;&gt;Node2 -->
<g id="edge4" class="edge"><title>Node2&#45;&gt;Node2</title>
<path fill="none" stroke="#9a32cd" stroke-dasharray="5,2" d="M823.885,-693.427C825.591,-698.349 832.963,-702 846,-702 866.859,-702 873.215,-692.653 865.067,-683.708"/>
<polygon fill="#9a32cd" stroke="#9a32cd" points="827.28,-694.297 826.933,-683.708 820.601,-692.202 827.28,-694.297"/>
<text text-anchor="middle" x="846" y="-706" font-family="FreeSans" font-size="10.00"> ZERO</text>
</g>
<!-- Node3 -->
<g id="node5" class="node"><title>Node3</title>
<a xlink:href="struct_urho3_d_1_1_batch_queue.html" target="_top" xlink:title="Queue that contains both instanced and non&#45;instanced draw calls.">
<polygon fill="none" stroke="black" points="786.5,-622.5 786.5,-643.5 905.5,-643.5 905.5,-622.5 786.5,-622.5"/>
<text text-anchor="middle" x="846" y="-630.5" font-family="FreeSans" font-size="10.00">Urho3D::BatchQueue</text>
</a>
</g>
<!-- Node3&#45;&gt;Node1 -->
<g id="edge6" class="edge"><title>Node3&#45;&gt;Node1</title>
<path fill="none" stroke="#9a32cd" stroke-dasharray="5,2" d="M915.669,-633C950.269,-633 992.197,-633 1027.88,-633"/>
<polygon fill="#9a32cd" stroke="#9a32cd" points="915.649,-629.5 905.649,-633 915.649,-636.5 915.649,-629.5"/>
<text text-anchor="middle" x="967" y="-637" font-family="FreeSans" font-size="10.00"> shadowBatches_</text>
</g>
<!-- Node4 -->
<g id="node7" class="node"><title>Node4</title>
<a xlink:href="class_urho3_d_1_1_hash_map.html" target="_top" xlink:title="Urho3D::HashMap\&lt; unsigned\l short, unsigned short \&gt;">
<polygon fill="none" stroke="black" points="483.5,-786 483.5,-820 642.5,-820 642.5,-786 483.5,-786"/>
<text text-anchor="start" x="491.5" y="-807" font-family="FreeSans" font-size="10.00">Urho3D::HashMap&lt; unsigned</text>
<text text-anchor="middle" x="563" y="-794" font-family="FreeSans" font-size="10.00"> short, unsigned short &gt;</text>
</a>
</g>
<!-- Node4&#45;&gt;Node3 -->
<g id="edge8" class="edge"><title>Node4&#45;&gt;Node3</title>
<path fill="none" stroke="#9a32cd" stroke-dasharray="5,2" d="M652.79,-790.459C700.209,-781.99 751.866,-769.2 768,-752 798.595,-719.382 756.698,-686.785 786,-653 789.309,-649.184 793.367,-646.094 797.796,-643.592"/>
<polygon fill="#9a32cd" stroke="#9a32cd" points="652.004,-787.043 642.75,-792.201 653.201,-793.94 652.004,-787.043"/>
<text text-anchor="middle" x="715" y="-805" font-family="FreeSans" font-size="10.00"> materialRemapping_</text>
<text text-anchor="middle" x="715" y="-792" font-family="FreeSans" font-size="10.00">geometryRemapping_</text>
</g>
<!-- Node5 -->
<g id="node9" class="node"><title>Node5</title>
<a xlink:href="class_urho3_d_1_1_hash_base.html" target="_top" xlink:title="Hash set/map base class.">
<polygon fill="none" stroke="black" points="255,-740.5 255,-761.5 363,-761.5 363,-740.5 255,-740.5"/>
<text text-anchor="middle" x="309" y="-748.5" font-family="FreeSans" font-size="10.00">Urho3D::HashBase</text>
</a>
</g>
<!-- Node5&#45;&gt;Node4 -->
<g id="edge10" class="edge"><title>Node5&#45;&gt;Node4</title>
<path fill="none" stroke="midnightblue" d="M370.613,-763.614C404.454,-770.542 446.811,-779.213 483.161,-786.655"/>
<polygon fill="midnightblue" stroke="midnightblue" points="370.899,-760.1 360.401,-761.523 369.495,-766.958 370.899,-760.1"/>
</g>
<!-- Node8 -->
<g id="node17" class="node"><title>Node8</title>
<a xlink:href="class_urho3_d_1_1_hash_map.html" target="_top" xlink:title="Urho3D::HashMap\&lt; unsigned,\l unsigned \&gt;">
<polygon fill="none" stroke="black" points="482,-734 482,-768 644,-768 644,-734 482,-734"/>
<text text-anchor="start" x="490" y="-755" font-family="FreeSans" font-size="10.00">Urho3D::HashMap&lt; unsigned,</text>
<text text-anchor="middle" x="563" y="-742" font-family="FreeSans" font-size="10.00"> unsigned &gt;</text>
</a>
</g>
<!-- Node5&#45;&gt;Node8 -->
<g id="edge22" class="edge"><title>Node5&#45;&gt;Node8</title>
<path fill="none" stroke="midnightblue" d="M373.588,-751C406.508,-751 446.874,-751 481.871,-751"/>
<polygon fill="midnightblue" stroke="midnightblue" points="373.178,-747.5 363.178,-751 373.178,-754.5 373.178,-747.5"/>
</g>
<!-- Node9 -->
<g id="node20" class="node"><title>Node9</title>
<a xlink:href="class_urho3_d_1_1_hash_map.html" target="_top" xlink:title="Urho3D::HashMap\&lt; Urho3D\l::BatchGroupKey, Urho3D\l::BatchGroup \&gt;">
<polygon fill="none" stroke="black" points="487,-668.5 487,-715.5 639,-715.5 639,-668.5 487,-668.5"/>
<text text-anchor="start" x="495" y="-702.5" font-family="FreeSans" font-size="10.00">Urho3D::HashMap&lt; Urho3D</text>
<text text-anchor="start" x="495" y="-689.5" font-family="FreeSans" font-size="10.00">::BatchGroupKey, Urho3D</text>
<text text-anchor="middle" x="563" y="-676.5" font-family="FreeSans" font-size="10.00">::BatchGroup &gt;</text>
</a>
</g>
<!-- Node5&#45;&gt;Node9 -->
<g id="edge26" class="edge"><title>Node5&#45;&gt;Node9</title>
<path fill="none" stroke="midnightblue" d="M364.217,-738.174C400.116,-729.835 447.408,-718.85 486.858,-709.687"/>
<polygon fill="midnightblue" stroke="midnightblue" points="363.359,-734.78 354.41,-740.452 364.943,-741.599 363.359,-734.78"/>
</g>
<!-- Node6 -->
<g id="node11" class="node"><title>Node6</title>
<a xlink:href="struct_urho3_d_1_1_hash_node_base.html" target="_top" xlink:title="Hash set/map node base class.">
<polygon fill="none" stroke="black" points="0,-700.5 0,-721.5 134,-721.5 134,-700.5 0,-700.5"/>
<text text-anchor="middle" x="67" y="-708.5" font-family="FreeSans" font-size="10.00">Urho3D::HashNodeBase</text>
</a>
</g>
<!-- Node6&#45;&gt;Node5 -->
<g id="edge12" class="edge"><title>Node6&#45;&gt;Node5</title>
<path fill="none" stroke="#9a32cd" stroke-dasharray="5,2" d="M144.273,-717.193C172.643,-720.149 204.924,-724.313 234,-730 247.801,-732.699 262.767,-736.671 275.673,-740.436"/>
<polygon fill="#9a32cd" stroke="#9a32cd" points="144.311,-713.679 134.011,-716.159 143.609,-720.644 144.311,-713.679"/>
<text text-anchor="middle" x="193" y="-760" font-family="FreeSans" font-size="10.00"> ptrs_</text>
<text text-anchor="middle" x="193" y="-747" font-family="FreeSans" font-size="10.00">tail_</text>
<text text-anchor="middle" x="193" y="-734" font-family="FreeSans" font-size="10.00">head_</text>
</g>
<!-- Node6&#45;&gt;Node6 -->
<g id="edge14" class="edge"><title>Node6&#45;&gt;Node6</title>
<path fill="none" stroke="#9a32cd" stroke-dasharray="5,2" d="M43.7796,-731.427C45.5709,-736.349 53.311,-740 67,-740 88.9023,-740 95.5757,-730.653 87.0201,-721.708"/>
<polygon fill="#9a32cd" stroke="#9a32cd" points="47.1765,-732.301 46.9799,-721.708 40.5277,-730.111 47.1765,-732.301"/>
<text text-anchor="middle" x="67" y="-770" font-family="FreeSans" font-size="10.00"> next_</text>
<text text-anchor="middle" x="67" y="-757" font-family="FreeSans" font-size="10.00">prev_</text>
<text text-anchor="middle" x="67" y="-744" font-family="FreeSans" font-size="10.00">down_</text>
</g>
<!-- Node7 -->
<g id="node14" class="node"><title>Node7</title>
<a xlink:href="struct_urho3_d_1_1_allocator_block.html" target="_top" xlink:title="Allocator memory block.">
<polygon fill="none" stroke="red" points="3.5,-797.5 3.5,-818.5 130.5,-818.5 130.5,-797.5 3.5,-797.5"/>
<text text-anchor="middle" x="67" y="-805.5" font-family="FreeSans" font-size="10.00">Urho3D::AllocatorBlock</text>
</a>
</g>
<!-- Node7&#45;&gt;Node5 -->
<g id="edge16" class="edge"><title>Node7&#45;&gt;Node5</title>
<path fill="none" stroke="#9a32cd" stroke-dasharray="5,2" d="M122.164,-795.207C154.717,-787.635 196.716,-777.827 234,-769 244.164,-766.594 255.096,-763.983 265.386,-761.515"/>
<polygon fill="#9a32cd" stroke="#9a32cd" points="121.328,-791.808 112.381,-797.481 122.913,-798.626 121.328,-791.808"/>
<text text-anchor="middle" x="193" y="-791" font-family="FreeSans" font-size="10.00"> allocator_</text>
</g>
<!-- Node7&#45;&gt;Node7 -->
<g id="edge18" class="edge"><title>Node7&#45;&gt;Node7</title>
<path fill="none" stroke="#9a32cd" stroke-dasharray="5,2" d="M43.7796,-828.427C45.5709,-833.349 53.311,-837 67,-837 88.9023,-837 95.5757,-827.653 87.0201,-818.708"/>
<polygon fill="#9a32cd" stroke="#9a32cd" points="47.1765,-829.301 46.9799,-818.708 40.5277,-827.111 47.1765,-829.301"/>
<text text-anchor="middle" x="67" y="-841" font-family="FreeSans" font-size="10.00"> next_</text>
</g>
<!-- Node8&#45;&gt;Node3 -->
<g id="edge20" class="edge"><title>Node8&#45;&gt;Node3</title>
<path fill="none" stroke="#9a32cd" stroke-dasharray="5,2" d="M654.375,-738.304C692.811,-729.205 735.949,-713.629 768,-687 781.151,-676.074 772.954,-664.052 786,-653 790.524,-649.167 795.809,-646.062 801.333,-643.547"/>
<polygon fill="#9a32cd" stroke="#9a32cd" points="653.184,-734.984 644.195,-740.591 654.719,-741.814 653.184,-734.984"/>
<text text-anchor="middle" x="715" y="-739" font-family="FreeSans" font-size="10.00"> shaderRemapping_</text>
</g>
<!-- Node9&#45;&gt;Node3 -->
<g id="edge24" class="edge"><title>Node9&#45;&gt;Node3</title>
<path fill="none" stroke="#9a32cd" stroke-dasharray="5,2" d="M649.599,-674.508C686.16,-667.058 729.175,-658.208 768,-650 777.763,-647.936 788.204,-645.688 798.17,-643.523"/>
<polygon fill="#9a32cd" stroke="#9a32cd" points="648.568,-671.146 639.467,-676.57 649.964,-678.005 648.568,-671.146"/>
<text text-anchor="middle" x="715" y="-674" font-family="FreeSans" font-size="10.00"> batchGroups_</text>
</g>
<!-- Node10 -->
<g id="node23" class="node"><title>Node10</title>
<a xlink:href="class_urho3_d_1_1_p_o_d_vector.html" target="_top" xlink:title="Urho3D::PODVector\&lt;\l Urho3D::BatchGroup * \&gt;">
<polygon fill="none" stroke="black" points="493.5,-564 493.5,-598 632.5,-598 632.5,-564 493.5,-564"/>
<text text-anchor="start" x="501.5" y="-585" font-family="FreeSans" font-size="10.00">Urho3D::PODVector&lt;</text>
<text text-anchor="middle" x="563" y="-572" font-family="FreeSans" font-size="10.00"> Urho3D::BatchGroup * &gt;</text>
</a>
</g>
<!-- Node10&#45;&gt;Node3 -->
<g id="edge28" class="edge"><title>Node10&#45;&gt;Node3</title>
<path fill="none" stroke="#9a32cd" stroke-dasharray="5,2" d="M642.863,-593.769C680.843,-600.062 726.843,-608.006 768,-616 778.204,-617.982 789.124,-620.262 799.464,-622.495"/>
<polygon fill="#9a32cd" stroke="#9a32cd" points="643.319,-590.297 632.883,-592.122 642.179,-597.203 643.319,-590.297"/>
<text text-anchor="middle" x="715" y="-620" font-family="FreeSans" font-size="10.00"> sortedBatchGroups_</text>
</g>
<!-- Node11 -->
<g id="node25" class="node"><title>Node11</title>
<a xlink:href="class_urho3_d_1_1_vector_base.html" target="_top" xlink:title="Vector base class.">
<polygon fill="none" stroke="black" points="252,-570.5 252,-591.5 366,-591.5 366,-570.5 252,-570.5"/>
<text text-anchor="middle" x="309" y="-578.5" font-family="FreeSans" font-size="10.00">Urho3D::VectorBase</text>
</a>
</g>
<!-- Node11&#45;&gt;Node10 -->
<g id="edge30" class="edge"><title>Node11&#45;&gt;Node10</title>
<path fill="none" stroke="midnightblue" d="M376.407,-581C412.408,-581 456.672,-581 493.051,-581"/>
<polygon fill="midnightblue" stroke="midnightblue" points="376.003,-577.5 366.003,-581 376.003,-584.5 376.003,-577.5"/>
</g>
<!-- Node12 -->
<g id="node27" class="node"><title>Node12</title>
<a xlink:href="class_urho3_d_1_1_p_o_d_vector.html" target="_top" xlink:title="Urho3D::PODVector\&lt;\l Urho3D::Batch \&gt;">
<polygon fill="none" stroke="black" points="503.5,-512 503.5,-546 622.5,-546 622.5,-512 503.5,-512"/>
<text text-anchor="start" x="511.5" y="-533" font-family="FreeSans" font-size="10.00">Urho3D::PODVector&lt;</text>
<text text-anchor="middle" x="563" y="-520" font-family="FreeSans" font-size="10.00"> Urho3D::Batch &gt;</text>
</a>
</g>
<!-- Node11&#45;&gt;Node12 -->
<g id="edge34" class="edge"><title>Node11&#45;&gt;Node12</title>
<path fill="none" stroke="midnightblue" d="M370.376,-568.435C410.702,-560.179 463.199,-549.432 503.202,-541.242"/>
<polygon fill="midnightblue" stroke="midnightblue" points="369.495,-565.042 360.401,-570.477 370.9,-571.9 369.495,-565.042"/>
</g>
<!-- Node15 -->
<g id="node36" class="node"><title>Node15</title>
<a xlink:href="class_urho3_d_1_1_p_o_d_vector.html" target="_top" xlink:title="Urho3D::PODVector\&lt;\l Urho3D::Batch * \&gt;">
<polygon fill="none" stroke="black" points="503.5,-616 503.5,-650 622.5,-650 622.5,-616 503.5,-616"/>
<text text-anchor="start" x="511.5" y="-637" font-family="FreeSans" font-size="10.00">Urho3D::PODVector&lt;</text>
<text text-anchor="middle" x="563" y="-624" font-family="FreeSans" font-size="10.00"> Urho3D::Batch * &gt;</text>
</a>
</g>
<!-- Node11&#45;&gt;Node15 -->
<g id="edge46" class="edge"><title>Node11&#45;&gt;Node15</title>
<path fill="none" stroke="midnightblue" d="M370.376,-593.565C410.702,-601.821 463.199,-612.568 503.202,-620.758"/>
<polygon fill="midnightblue" stroke="midnightblue" points="370.9,-590.1 360.401,-591.523 369.495,-596.958 370.9,-590.1"/>
</g>
<!-- Node12&#45;&gt;Node3 -->
<g id="edge32" class="edge"><title>Node12&#45;&gt;Node3</title>
<path fill="none" stroke="#9a32cd" stroke-dasharray="5,2" d="M632.786,-540.021C673.41,-547.974 724.941,-560.754 768,-580 793.111,-591.224 818.855,-610.541 833.588,-622.496"/>
<polygon fill="#9a32cd" stroke="#9a32cd" points="633.182,-536.534 622.704,-538.102 631.873,-543.41 633.182,-536.534"/>
<text text-anchor="middle" x="715" y="-584" font-family="FreeSans" font-size="10.00"> batches_</text>
</g>
<!-- Node13 -->
<g id="node30" class="node"><title>Node13</title>
<a xlink:href="class_urho3_d_1_1_string.html" target="_top" xlink:title="String class.">
<polygon fill="none" stroke="black" points="519,-441.5 519,-462.5 607,-462.5 607,-441.5 519,-441.5"/>
<text text-anchor="middle" x="563" y="-449.5" font-family="FreeSans" font-size="10.00">Urho3D::String</text>
</a>
</g>
<!-- Node13&#45;&gt;Node3 -->
<g id="edge36" class="edge"><title>Node13&#45;&gt;Node3</title>
<path fill="none" stroke="#9a32cd" stroke-dasharray="5,2" d="M617.283,-458.76C661.463,-466.507 723.56,-482.725 768,-516 806.693,-544.971 832.193,-599.118 841.761,-622.166"/>
<polygon fill="#9a32cd" stroke="#9a32cd" points="617.741,-455.289 607.302,-457.1 616.592,-462.194 617.741,-455.289"/>
<text text-anchor="middle" x="715" y="-533" font-family="FreeSans" font-size="10.00"> psExtraDefines_</text>
<text text-anchor="middle" x="715" y="-520" font-family="FreeSans" font-size="10.00">vsExtraDefines_</text>
</g>
<!-- Node13&#45;&gt;Node13 -->
<g id="edge38" class="edge"><title>Node13&#45;&gt;Node13</title>
<path fill="none" stroke="#9a32cd" stroke-dasharray="5,2" d="M537.433,-472.055C539.11,-477.164 547.633,-481 563,-481 586.988,-481 594.297,-471.653 584.927,-462.708"/>
<polygon fill="#9a32cd" stroke="#9a32cd" points="540.706,-473.296 541.073,-462.708 534.183,-470.756 540.706,-473.296"/>
<text text-anchor="middle" x="563" y="-485" font-family="FreeSans" font-size="10.00"> EMPTY</text>
</g>
<!-- Node14 -->
<g id="node33" class="node"><title>Node14</title>
<a xlink:href="class_urho3_d_1_1_string_hash.html" target="_top" xlink:title="32&#45;bit hash value for a string.">
<polygon fill="none" stroke="black" points="506.5,-838.5 506.5,-859.5 619.5,-859.5 619.5,-838.5 506.5,-838.5"/>
<text text-anchor="middle" x="563" y="-846.5" font-family="FreeSans" font-size="10.00">Urho3D::StringHash</text>
</a>
</g>
<!-- Node14&#45;&gt;Node3 -->
<g id="edge40" class="edge"><title>Node14&#45;&gt;Node3</title>
<path fill="none" stroke="#9a32cd" stroke-dasharray="5,2" d="M629.718,-858.076C675.141,-860.219 733.133,-854.342 768,-818 819.071,-764.769 739.681,-710.413 786,-653 789.102,-649.154 792.968,-646.043 797.233,-643.526"/>
<polygon fill="#9a32cd" stroke="#9a32cd" points="629.838,-854.577 619.644,-857.462 629.412,-861.564 629.838,-854.577"/>
<text text-anchor="start" x="664" y="-887" font-family="FreeSans" font-size="10.00"> psExtraDefinesHash</text>
<text text-anchor="middle" x="715" y="-874" font-family="FreeSans" font-size="10.00">_</text>
<text text-anchor="middle" x="715" y="-861" font-family="FreeSans" font-size="10.00">vsExtraDefinesHash_</text>
</g>
<!-- Node14&#45;&gt;Node14 -->
<g id="edge42" class="edge"><title>Node14&#45;&gt;Node14</title>
<path fill="none" stroke="#9a32cd" stroke-dasharray="5,2" d="M537.433,-869.055C539.11,-874.164 547.633,-878 563,-878 586.988,-878 594.297,-868.653 584.927,-859.708"/>
<polygon fill="#9a32cd" stroke="#9a32cd" points="540.706,-870.296 541.073,-859.708 534.183,-867.756 540.706,-870.296"/>
<text text-anchor="middle" x="563" y="-882" font-family="FreeSans" font-size="10.00"> ZERO</text>
</g>
<!-- Node15&#45;&gt;Node3 -->
<g id="edge44" class="edge"><title>Node15&#45;&gt;Node3</title>
<path fill="none" stroke="#9a32cd" stroke-dasharray="5,2" d="M632.806,-633C679.964,-633 741.56,-633 786.41,-633"/>
<polygon fill="#9a32cd" stroke="#9a32cd" points="632.671,-629.5 622.671,-633 632.671,-636.5 632.671,-629.5"/>
<text text-anchor="middle" x="715" y="-637" font-family="FreeSans" font-size="10.00"> sortedBatches_</text>
</g>
<!-- Node16 -->
<g id="node39" class="node"><title>Node16</title>
<a xlink:href="class_urho3_d_1_1_camera.html" target="_top" xlink:title="Camera component.">
<polygon fill="none" stroke="black" points="797,-285.5 797,-306.5 895,-306.5 895,-285.5 797,-285.5"/>
<text text-anchor="middle" x="846" y="-293.5" font-family="FreeSans" font-size="10.00">Urho3D::Camera</text>
</a>
</g>
<!-- Node16&#45;&gt;Node1 -->
<g id="edge48" class="edge"><title>Node16&#45;&gt;Node1</title>
<path fill="none" stroke="#9a32cd" stroke-dasharray="5,2" d="M860.675,-315.021C908.785,-377.379 1060.77,-574.378 1097.8,-622.377"/>
<polygon fill="#9a32cd" stroke="#9a32cd" points="863.236,-312.61 854.356,-306.831 857.694,-316.886 863.236,-312.61"/>
<text text-anchor="middle" x="967" y="-508" font-family="FreeSans" font-size="10.00"> shadowCamera_</text>
</g>
<!-- Node17 -->
<g id="node41" class="node"><title>Node17</title>
<a xlink:href="class_urho3_d_1_1_component.html" target="_top" xlink:title="Base class for components. Components can be created to scene nodes.">
<polygon fill="none" stroke="black" points="505,-401.5 505,-422.5 621,-422.5 621,-401.5 505,-401.5"/>
<text text-anchor="middle" x="563" y="-409.5" font-family="FreeSans" font-size="10.00">Urho3D::Component</text>
</a>
</g>
<!-- Node17&#45;&gt;Node16 -->
<g id="edge50" class="edge"><title>Node17&#45;&gt;Node16</title>
<path fill="none" stroke="midnightblue" d="M631.104,-413.427C672.821,-411.624 726.067,-404.352 768,-382 801.797,-363.985 828.392,-325.339 839.859,-306.609"/>
<polygon fill="midnightblue" stroke="midnightblue" points="630.91,-409.931 621.033,-413.767 631.146,-416.927 630.91,-409.931"/>
</g>
<!-- Node18 -->
<g id="node43" class="node"><title>Node18</title>
<a xlink:href="class_urho3_d_1_1_animatable.html" target="_top" xlink:title="Base class for animatable object, an animatable object can be set animation on it&#39;s attributes...">
<polygon fill="none" stroke="red" points="10,-466.5 10,-487.5 124,-487.5 124,-466.5 10,-466.5"/>
<text text-anchor="middle" x="67" y="-474.5" font-family="FreeSans" font-size="10.00">Urho3D::Animatable</text>
</a>
</g>
<!-- Node18&#45;&gt;Node17 -->
<g id="edge52" class="edge"><title>Node18&#45;&gt;Node17</title>
<path fill="none" stroke="midnightblue" d="M134.293,-475.908C195.113,-474.166 286.954,-469.658 366,-458 381.071,-455.777 466.2,-435.439 519.504,-422.56"/>
<polygon fill="midnightblue" stroke="midnightblue" points="133.96,-472.415 124.058,-476.183 134.148,-479.413 133.96,-472.415"/>
</g>
<!-- Node19 -->
<g id="node45" class="node"><title>Node19</title>
<a xlink:href="class_urho3_d_1_1_node.html" target="_top" xlink:title="Scene node that may contain components and child nodes.">
<polygon fill="none" stroke="red" points="266.5,-396.5 266.5,-417.5 351.5,-417.5 351.5,-396.5 266.5,-396.5"/>
<text text-anchor="middle" x="309" y="-404.5" font-family="FreeSans" font-size="10.00">Urho3D::Node</text>
</a>
</g>
<!-- Node18&#45;&gt;Node19 -->
<g id="edge56" class="edge"><title>Node18&#45;&gt;Node19</title>
<path fill="none" stroke="midnightblue" d="M113.291,-463.61C159.663,-450.197 230.088,-429.826 272.607,-417.527"/>
<polygon fill="midnightblue" stroke="midnightblue" points="112.126,-460.304 103.492,-466.445 114.071,-467.028 112.126,-460.304"/>
</g>
<!-- Node19&#45;&gt;Node17 -->
<g id="edge54" class="edge"><title>Node19&#45;&gt;Node17</title>
<path fill="none" stroke="#9a32cd" stroke-dasharray="5,2" d="M361.737,-408.038C403.419,-408.859 461.554,-410.003 504.631,-410.851"/>
<polygon fill="#9a32cd" stroke="#9a32cd" points="361.581,-404.534 351.514,-407.837 361.443,-411.533 361.581,-404.534"/>
<text text-anchor="middle" x="424" y="-413" font-family="FreeSans" font-size="10.00"> node_</text>
</g>
<!-- Node19&#45;&gt;Node19 -->
<g id="edge62" class="edge"><title>Node19&#45;&gt;Node19</title>
<path fill="none" stroke="#9a32cd" stroke-dasharray="5,2" d="M287.991,-427.427C289.612,-432.349 296.615,-436 309,-436 328.816,-436 334.854,-426.653 327.113,-417.708"/>
<polygon fill="#9a32cd" stroke="#9a32cd" points="291.385,-428.291 290.887,-417.708 284.677,-426.292 291.385,-428.291"/>
<text text-anchor="middle" x="309" y="-440" font-family="FreeSans" font-size="10.00"> parent_</text>
</g>
<!-- Node20 -->
<g id="node48" class="node"><title>Node20</title>
<a xlink:href="class_urho3_d_1_1_vector3.html" target="_top" xlink:title="Three&#45;dimensional vector.">
<polygon fill="none" stroke="black" points="19,-220.5 19,-241.5 115,-241.5 115,-220.5 19,-220.5"/>
<text text-anchor="middle" x="67" y="-228.5" font-family="FreeSans" font-size="10.00">Urho3D::Vector3</text>
</a>
</g>
<!-- Node20&#45;&gt;Node19 -->
<g id="edge58" class="edge"><title>Node20&#45;&gt;Node19</title>
<path fill="none" stroke="#9a32cd" stroke-dasharray="5,2" d="M85.2709,-248.58C102.033,-264.347 127.851,-287.743 152,-306 199.829,-342.158 260.521,-378.802 290.506,-396.346"/>
<polygon fill="#9a32cd" stroke="#9a32cd" points="87.4805,-245.851 77.8169,-241.508 82.6627,-250.93 87.4805,-245.851"/>
<text text-anchor="middle" x="193" y="-377" font-family="FreeSans" font-size="10.00"> scale_</text>
<text text-anchor="middle" x="193" y="-364" font-family="FreeSans" font-size="10.00">position_</text>
</g>
<!-- Node20&#45;&gt;Node20 -->
<g id="edge60" class="edge"><title>Node20&#45;&gt;Node20</title>
<path fill="none" stroke="#9a32cd" stroke-dasharray="5,2" d="M43.7796,-251.427C45.5709,-256.349 53.311,-260 67,-260 88.9023,-260 95.5757,-250.653 87.0201,-241.708"/>
<polygon fill="#9a32cd" stroke="#9a32cd" points="47.1765,-252.301 46.9799,-241.708 40.5277,-250.111 47.1765,-252.301"/>
<text text-anchor="middle" x="67" y="-355" font-family="FreeSans" font-size="10.00"> ONE</text>
<text text-anchor="middle" x="67" y="-342" font-family="FreeSans" font-size="10.00">DOWN</text>
<text text-anchor="middle" x="67" y="-329" font-family="FreeSans" font-size="10.00">BACK</text>
<text text-anchor="middle" x="67" y="-316" font-family="FreeSans" font-size="10.00">RIGHT</text>
<text text-anchor="middle" x="67" y="-303" font-family="FreeSans" font-size="10.00">LEFT</text>
<text text-anchor="middle" x="67" y="-290" font-family="FreeSans" font-size="10.00">ZERO</text>
<text text-anchor="middle" x="67" y="-277" font-family="FreeSans" font-size="10.00">FORWARD</text>
<text text-anchor="middle" x="67" y="-264" font-family="FreeSans" font-size="10.00">UP</text>
</g>
<!-- Node22 -->
<g id="node55" class="node"><title>Node22</title>
<a xlink:href="class_urho3_d_1_1_plane.html" target="_top" xlink:title="Surface in three&#45;dimensional space.">
<polygon fill="none" stroke="black" points="266,-210.5 266,-231.5 352,-231.5 352,-210.5 266,-210.5"/>
<text text-anchor="middle" x="309" y="-218.5" font-family="FreeSans" font-size="10.00">Urho3D::Plane</text>
</a>
</g>
<!-- Node20&#45;&gt;Node22 -->
<g id="edge72" class="edge"><title>Node20&#45;&gt;Node22</title>
<path fill="none" stroke="#9a32cd" stroke-dasharray="5,2" d="M125.212,-228.595C168.517,-226.805 226.663,-224.402 265.86,-222.783"/>
<polygon fill="#9a32cd" stroke="#9a32cd" points="124.948,-225.102 115.101,-229.012 125.237,-232.096 124.948,-225.102"/>
<text text-anchor="middle" x="193" y="-244" font-family="FreeSans" font-size="10.00"> normal_</text>
<text text-anchor="middle" x="193" y="-231" font-family="FreeSans" font-size="10.00">absNormal_</text>
</g>
<!-- Node23 -->
<g id="node59" class="node"><title>Node23</title>
<a xlink:href="class_urho3_d_1_1_frustum.html" target="_top" xlink:title="Convex constructed of 6 planes.">
<polygon fill="none" stroke="black" points="514,-285.5 514,-306.5 612,-306.5 612,-285.5 514,-285.5"/>
<text text-anchor="middle" x="563" y="-293.5" font-family="FreeSans" font-size="10.00">Urho3D::Frustum</text>
</a>
</g>
<!-- Node20&#45;&gt;Node23 -->
<g id="edge78" class="edge"><title>Node20&#45;&gt;Node23</title>
<path fill="none" stroke="#9a32cd" stroke-dasharray="5,2" d="M107.585,-244.752C121.543,-249.123 137.346,-253.679 152,-257 280.445,-286.11 436.248,-293.524 513.96,-295.39"/>
<polygon fill="#9a32cd" stroke="#9a32cd" points="108.381,-241.332 97.7901,-241.622 106.25,-248 108.381,-241.332"/>
<text text-anchor="middle" x="309" y="-291" font-family="FreeSans" font-size="10.00"> vertices_</text>
</g>
<!-- Node21 -->
<g id="node52" class="node"><title>Node21</title>
<a xlink:href="class_urho3_d_1_1_matrix3x4.html" target="_top" xlink:title="3x4 matrix for scene node transform calculations.">
<polygon fill="none" stroke="black" points="14,-382.5 14,-403.5 120,-403.5 120,-382.5 14,-382.5"/>
<text text-anchor="middle" x="67" y="-390.5" font-family="FreeSans" font-size="10.00">Urho3D::Matrix3x4</text>
</a>
</g>
<!-- Node21&#45;&gt;Node16 -->
<g id="edge88" class="edge"><title>Node21&#45;&gt;Node16</title>
<path fill="none" stroke="#9a32cd" stroke-dasharray="5,2" d="M130.022,-387.957C253.154,-377.63 534.093,-351.735 768,-313 778.802,-311.211 790.365,-308.907 801.191,-306.577"/>
<polygon fill="#9a32cd" stroke="#9a32cd" points="129.69,-384.472 120.016,-388.791 130.272,-391.448 129.69,-384.472"/>
<text text-anchor="middle" x="424" y="-380" font-family="FreeSans" font-size="10.00"> view_</text>
<text text-anchor="middle" x="424" y="-367" font-family="FreeSans" font-size="10.00">reflectionMatrix_</text>
</g>
<!-- Node21&#45;&gt;Node19 -->
<g id="edge64" class="edge"><title>Node21&#45;&gt;Node19</title>
<path fill="none" stroke="#9a32cd" stroke-dasharray="5,2" d="M130.174,-396.655C173.11,-399.139 228.747,-402.357 266.479,-404.54"/>
<polygon fill="#9a32cd" stroke="#9a32cd" points="130.293,-393.156 120.108,-396.072 129.889,-400.144 130.293,-393.156"/>
<text text-anchor="middle" x="193" y="-406" font-family="FreeSans" font-size="10.00"> worldTransform_</text>
</g>
<!-- Node21&#45;&gt;Node21 -->
<g id="edge66" class="edge"><title>Node21&#45;&gt;Node21</title>
<path fill="none" stroke="#9a32cd" stroke-dasharray="5,2" d="M43.7796,-413.427C45.5709,-418.349 53.311,-422 67,-422 88.9023,-422 95.5757,-412.653 87.0201,-403.708"/>
<polygon fill="#9a32cd" stroke="#9a32cd" points="47.1765,-414.301 46.9799,-403.708 40.5277,-412.111 47.1765,-414.301"/>
<text text-anchor="middle" x="67" y="-439" font-family="FreeSans" font-size="10.00"> IDENTITY</text>
<text text-anchor="middle" x="67" y="-426" font-family="FreeSans" font-size="10.00">ZERO</text>
</g>
<!-- Node22&#45;&gt;Node16 -->
<g id="edge68" class="edge"><title>Node22&#45;&gt;Node16</title>
<path fill="none" stroke="#9a32cd" stroke-dasharray="5,2" d="M362.263,-223.347C428.58,-226.788 545.181,-234.546 644,-250 701.39,-258.975 766.762,-274.933 807.206,-285.492"/>
<polygon fill="#9a32cd" stroke="#9a32cd" points="362.226,-219.841 352.062,-222.831 361.872,-226.832 362.226,-219.841"/>
<text text-anchor="middle" x="563" y="-267" font-family="FreeSans" font-size="10.00"> clipPlane_</text>
<text text-anchor="middle" x="563" y="-254" font-family="FreeSans" font-size="10.00">reflectionPlane_</text>
</g>
<!-- Node22&#45;&gt;Node22 -->
<g id="edge70" class="edge"><title>Node22&#45;&gt;Node22</title>
<path fill="none" stroke="#9a32cd" stroke-dasharray="5,2" d="M287.991,-241.427C289.612,-246.349 296.615,-250 309,-250 328.816,-250 334.854,-240.653 327.113,-231.708"/>
<polygon fill="#9a32cd" stroke="#9a32cd" points="291.385,-242.291 290.887,-231.708 284.677,-240.292 291.385,-242.291"/>
<text text-anchor="middle" x="309" y="-254" font-family="FreeSans" font-size="10.00"> UP</text>
</g>
<!-- Node22&#45;&gt;Node23 -->
<g id="edge76" class="edge"><title>Node22&#45;&gt;Node23</title>
<path fill="none" stroke="#9a32cd" stroke-dasharray="5,2" d="M344.664,-235.15C357.027,-239.831 371.037,-244.89 384,-249 429.022,-263.275 481.36,-276.653 517.767,-285.458"/>
<polygon fill="#9a32cd" stroke="#9a32cd" points="345.744,-231.815 335.154,-231.501 343.237,-238.351 345.744,-231.815"/>
<text text-anchor="middle" x="424" y="-275" font-family="FreeSans" font-size="10.00"> planes_</text>
</g>
<!-- Node23&#45;&gt;Node16 -->
<g id="edge74" class="edge"><title>Node23&#45;&gt;Node16</title>
<path fill="none" stroke="#9a32cd" stroke-dasharray="5,2" d="M622.332,-296C674.086,-296 748.28,-296 796.796,-296"/>
<polygon fill="#9a32cd" stroke="#9a32cd" points="622.295,-292.5 612.295,-296 622.295,-299.5 622.295,-292.5"/>
<text text-anchor="middle" x="715" y="-300" font-family="FreeSans" font-size="10.00"> frustum_</text>
</g>
<!-- Node24 -->
<g id="node63" class="node"><title>Node24</title>
<a xlink:href="class_urho3_d_1_1_vector2.html" target="_top" xlink:title="Two&#45;dimensional vector.">
<polygon fill="none" stroke="black" points="515,-84.5 515,-105.5 611,-105.5 611,-84.5 515,-84.5"/>
<text text-anchor="middle" x="563" y="-92.5" font-family="FreeSans" font-size="10.00">Urho3D::Vector2</text>
</a>
</g>
<!-- Node24&#45;&gt;Node16 -->
<g id="edge80" class="edge"><title>Node24&#45;&gt;Node16</title>
<path fill="none" stroke="#9a32cd" stroke-dasharray="5,2" d="M596.193,-109.784C638.451,-129.47 712.613,-166.973 768,-211 797.005,-234.056 824.823,-268.179 838.022,-285.333"/>
<polygon fill="#9a32cd" stroke="#9a32cd" points="597.47,-106.519 586.923,-105.513 594.541,-112.877 597.47,-106.519"/>
<text text-anchor="middle" x="715" y="-215" font-family="FreeSans" font-size="10.00"> projectionOffset_</text>
</g>
<!-- Node24&#45;&gt;Node24 -->
<g id="edge82" class="edge"><title>Node24&#45;&gt;Node24</title>
<path fill="none" stroke="#9a32cd" stroke-dasharray="5,2" d="M537.433,-115.055C539.11,-120.164 547.633,-124 563,-124 586.988,-124 594.297,-114.653 584.927,-105.708"/>
<polygon fill="#9a32cd" stroke="#9a32cd" points="540.706,-116.296 541.073,-105.708 534.183,-113.756 540.706,-116.296"/>
<text text-anchor="middle" x="563" y="-193" font-family="FreeSans" font-size="10.00"> ONE</text>
<text text-anchor="middle" x="563" y="-180" font-family="FreeSans" font-size="10.00">DOWN</text>
<text text-anchor="middle" x="563" y="-167" font-family="FreeSans" font-size="10.00">RIGHT</text>
<text text-anchor="middle" x="563" y="-154" font-family="FreeSans" font-size="10.00">LEFT</text>
<text text-anchor="middle" x="563" y="-141" font-family="FreeSans" font-size="10.00">ZERO</text>
<text text-anchor="middle" x="563" y="-128" font-family="FreeSans" font-size="10.00">UP</text>
</g>
<!-- Node25 -->
<g id="node66" class="node"><title>Node25</title>
<a xlink:href="class_urho3_d_1_1_matrix4.html" target="_top" xlink:title="4x4 matrix for arbitrary linear transforms including projection.">
<polygon fill="none" stroke="black" points="515.5,-0.5 515.5,-21.5 610.5,-21.5 610.5,-0.5 515.5,-0.5"/>
<text text-anchor="middle" x="563" y="-8.5" font-family="FreeSans" font-size="10.00">Urho3D::Matrix4</text>
</a>
</g>
<!-- Node25&#45;&gt;Node16 -->
<g id="edge84" class="edge"><title>Node25&#45;&gt;Node16</title>
<path fill="none" stroke="#9a32cd" stroke-dasharray="5,2" d="M603.123,-25.2505C648.356,-43.0869 721.619,-77.5522 768,-128 813.052,-177.002 836.245,-256.601 843.473,-285.277"/>
<polygon fill="#9a32cd" stroke="#9a32cd" points="604.23,-21.9263 593.641,-21.5931 601.711,-28.4573 604.23,-21.9263"/>
<text text-anchor="middle" x="715" y="-132" font-family="FreeSans" font-size="10.00"> projection_</text>
</g>
<!-- Node25&#45;&gt;Node25 -->
<g id="edge86" class="edge"><title>Node25&#45;&gt;Node25</title>
<path fill="none" stroke="#9a32cd" stroke-dasharray="5,2" d="M537.433,-31.0551C539.11,-36.164 547.633,-40 563,-40 586.988,-40 594.297,-30.6531 584.927,-21.7079"/>
<polygon fill="#9a32cd" stroke="#9a32cd" points="540.706,-32.2963 541.073,-21.7079 534.183,-29.7561 540.706,-32.2963"/>
<text text-anchor="middle" x="563" y="-57" font-family="FreeSans" font-size="10.00"> IDENTITY</text>
<text text-anchor="middle" x="563" y="-44" font-family="FreeSans" font-size="10.00">ZERO</text>
</g>
</g>
</svg>
