<?xml version="1.0" encoding="UTF-8" standalone="no"?>
<!DOCTYPE svg PUBLIC "-//W3C//DTD SVG 1.1//EN"
 "http://www.w3.org/Graphics/SVG/1.1/DTD/svg11.dtd">
<!-- Generated by graphviz version 2.36.0 (20140111.2315)
 -->
<!-- Title: Urho3D::NodeReplicationState Pages: 1 -->
<svg width="1330pt" height="1060pt"
 viewBox="0.00 0.00 1330.00 1060.38" xmlns="http://www.w3.org/2000/svg" xmlns:xlink="http://www.w3.org/1999/xlink">
<g id="graph0" class="graph" transform="scale(1 1) rotate(0) translate(4 1056.38)">
<title>Urho3D::NodeReplicationState</title>
<!-- Node1 -->
<g id="node1" class="node"><title>Node1</title>
<polygon fill="#bfbfbf" stroke="black" points="1160,-123.726 1160,-142.726 1322,-142.726 1322,-123.726 1160,-123.726"/>
<text text-anchor="middle" x="1241" y="-130.726" font-family="FreeSans" font-size="10.00">Urho3D::NodeReplicationState</text>
</g>
<!-- Node2 -->
<g id="node2" class="node"><title>Node2</title>
<g id="a_node2"><a xlink:href="struct_urho3_d_1_1_replication_state.html" target="_top" xlink:title="Base class for per&#45;user network replication states. ">
<polygon fill="none" stroke="black" points="165.5,-886.726 165.5,-905.726 302.5,-905.726 302.5,-886.726 165.5,-886.726"/>
<text text-anchor="middle" x="234" y="-893.726" font-family="FreeSans" font-size="10.00">Urho3D::ReplicationState</text>
</a>
</g>
</g>
<!-- Node2&#45;&gt;Node1 -->
<g id="edge1" class="edge"><title>Node2&#45;&gt;Node1</title>
<path fill="none" stroke="midnightblue" d="M310.844,-909.712C314.755,-911.61 318.505,-913.77 322,-916.226 334.103,-924.734 327.015,-937.137 340,-944.226 616.124,-1094.98 805.994,-1096.62 1046,-893.226 1169.37,-788.68 1230.8,-223.991 1239.04,-142.922"/>
<polygon fill="midnightblue" stroke="midnightblue" points="312.045,-906.42 301.472,-905.742 309.315,-912.866 312.045,-906.42"/>
</g>
<!-- Node5 -->
<g id="node5" class="node"><title>Node5</title>
<g id="a_node5"><a xlink:href="struct_urho3_d_1_1_scene_replication_state.html" target="_top" xlink:title="Per&#45;user scene network replication state. ">
<polygon fill="none" stroke="black" points="513,-892.226 513,-922.226 653,-922.226 653,-892.226 513,-892.226"/>
<text text-anchor="start" x="521" y="-910.226" font-family="FreeSans" font-size="10.00">Urho3D::SceneReplication</text>
<text text-anchor="middle" x="583" y="-899.226" font-family="FreeSans" font-size="10.00">State</text>
</a>
</g>
</g>
<!-- Node2&#45;&gt;Node5 -->
<g id="edge5" class="edge"><title>Node2&#45;&gt;Node5</title>
<path fill="none" stroke="midnightblue" d="M312.92,-898.696C372.979,-900.6 455.25,-903.208 512.959,-905.038"/>
<polygon fill="midnightblue" stroke="midnightblue" points="312.835,-895.192 302.729,-898.373 312.613,-902.188 312.835,-895.192"/>
</g>
<!-- Node3 -->
<g id="node3" class="node"><title>Node3</title>
<g id="a_node3"><a xlink:href="class_urho3_d_1_1_connection.html" target="_top" xlink:title="Connection to a remote network host. ">
<polygon fill="none" stroke="red" points="916.5,-543.726 916.5,-562.726 1029.5,-562.726 1029.5,-543.726 916.5,-543.726"/>
<text text-anchor="middle" x="973" y="-550.726" font-family="FreeSans" font-size="10.00">Urho3D::Connection</text>
</a>
</g>
</g>
<!-- Node3&#45;&gt;Node2 -->
<g id="edge2" class="edge"><title>Node3&#45;&gt;Node2</title>
<path fill="none" stroke="#9a32cd" stroke-dasharray="5,2" d="M972.54,-573.015C972.768,-625.376 965.362,-767.925 882,-832.226 834.242,-869.064 399.294,-851.178 340,-862.226 311.368,-867.561 279.72,-878.547 258.731,-886.593"/>
<polygon fill="#9a32cd" stroke="#9a32cd" points="976.035,-572.702 972.386,-562.756 969.036,-572.807 976.035,-572.702"/>
<text text-anchor="middle" x="583" y="-860.226" font-family="FreeSans" font-size="10.00"> connection_</text>
</g>
<!-- Node4 -->
<g id="node4" class="node"><title>Node4</title>
<g id="a_node4"><a xlink:href="class_urho3_d_1_1_object.html" target="_top" xlink:title="Base class for objects with type identification, subsystem access and event sending/receiving capabil...">
<polygon fill="none" stroke="red" points="538,-505.726 538,-524.726 628,-524.726 628,-505.726 538,-505.726"/>
<text text-anchor="middle" x="583" y="-512.726" font-family="FreeSans" font-size="10.00">Urho3D::Object</text>
</a>
</g>
</g>
<!-- Node4&#45;&gt;Node3 -->
<g id="edge3" class="edge"><title>Node4&#45;&gt;Node3</title>
<path fill="none" stroke="midnightblue" d="M638.103,-520.525C711.546,-527.718 842.127,-540.507 916.359,-547.777"/>
<polygon fill="midnightblue" stroke="midnightblue" points="638.424,-517.04 628.131,-519.548 637.742,-524.006 638.424,-517.04"/>
</g>
<!-- Node5&#45;&gt;Node1 -->
<g id="edge30" class="edge"><title>Node5&#45;&gt;Node1</title>
<path fill="none" stroke="#9a32cd" stroke-dasharray="5,2" d="M662.022,-923.759C726.223,-932.913 816.923,-935.187 882,-893.226 1171.28,-706.698 1231.45,-218.193 1239.08,-143.002"/>
<polygon fill="#9a32cd" stroke="#9a32cd" points="662.364,-920.271 651.953,-922.236 661.318,-927.192 662.364,-920.271"/>
<text text-anchor="middle" x="973" y="-881.226" font-family="FreeSans" font-size="10.00"> sceneState_</text>
</g>
<!-- Node5&#45;&gt;Node3 -->
<g id="edge4" class="edge"><title>Node5&#45;&gt;Node3</title>
<path fill="none" stroke="#9a32cd" stroke-dasharray="5,2" d="M642.54,-889.502C652.95,-886.77 663.743,-884.204 674,-882.226 719.662,-873.419 846.355,-889.094 882,-859.226 930.068,-818.949 963.531,-610.404 970.605,-562.875"/>
<polygon fill="#9a32cd" stroke="#9a32cd" points="641.447,-886.172 632.706,-892.159 643.273,-892.929 641.447,-886.172"/>
<text text-anchor="middle" x="778" y="-885.226" font-family="FreeSans" font-size="10.00"> sceneState_</text>
</g>
<!-- Node6 -->
<g id="node6" class="node"><title>Node6</title>
<g id="a_node6"><a xlink:href="class_urho3_d_1_1_hash_map.html" target="_top" xlink:title="Urho3D::HashMap\&lt; unsigned,\l Urho3D::NodeReplicationState \&gt;">
<polygon fill="none" stroke="black" points="146,-925.226 146,-955.226 322,-955.226 322,-925.226 146,-925.226"/>
<text text-anchor="start" x="154" y="-943.226" font-family="FreeSans" font-size="10.00">Urho3D::HashMap&lt; unsigned,</text>
<text text-anchor="middle" x="234" y="-932.226" font-family="FreeSans" font-size="10.00"> Urho3D::NodeReplicationState &gt;</text>
</a>
</g>
</g>
<!-- Node6&#45;&gt;Node5 -->
<g id="edge6" class="edge"><title>Node6&#45;&gt;Node5</title>
<path fill="none" stroke="#9a32cd" stroke-dasharray="5,2" d="M332.309,-930.972C389.781,-925.506 461.172,-918.717 512.878,-913.8"/>
<polygon fill="#9a32cd" stroke="#9a32cd" points="331.739,-927.51 322.115,-931.941 332.401,-934.479 331.739,-927.51"/>
<text text-anchor="middle" x="416" y="-932.226" font-family="FreeSans" font-size="10.00"> nodeStates_</text>
</g>
<!-- Node7 -->
<g id="node7" class="node"><title>Node7</title>
<g id="a_node7"><a xlink:href="class_urho3_d_1_1_hash_base.html" target="_top" xlink:title="Hash set/map base class. ">
<polygon fill="none" stroke="red" points="0,-513.726 0,-532.726 108,-532.726 108,-513.726 0,-513.726"/>
<text text-anchor="middle" x="54" y="-520.726" font-family="FreeSans" font-size="10.00">Urho3D::HashBase</text>
</a>
</g>
</g>
<!-- Node7&#45;&gt;Node6 -->
<g id="edge7" class="edge"><title>Node7&#45;&gt;Node6</title>
<path fill="none" stroke="midnightblue" d="M56.967,-543.051C64.4774,-614.86 93.5928,-860.036 146,-915.226 149.679,-919.101 153.916,-922.387 158.497,-925.173"/>
<polygon fill="midnightblue" stroke="midnightblue" points="60.4112,-542.325 55.9133,-532.732 53.4474,-543.036 60.4112,-542.325"/>
</g>
<!-- Node8 -->
<g id="node8" class="node"><title>Node8</title>
<g id="a_node8"><a xlink:href="class_urho3_d_1_1_hash_set.html" target="_top" xlink:title="Urho3D::HashSet\&lt; unsigned \&gt;">
<polygon fill="none" stroke="black" points="150.5,-703.726 150.5,-722.726 317.5,-722.726 317.5,-703.726 150.5,-703.726"/>
<text text-anchor="middle" x="234" y="-710.726" font-family="FreeSans" font-size="10.00">Urho3D::HashSet&lt; unsigned &gt;</text>
</a>
</g>
</g>
<!-- Node7&#45;&gt;Node8 -->
<g id="edge9" class="edge"><title>Node7&#45;&gt;Node8</title>
<path fill="none" stroke="midnightblue" d="M70.3992,-540.381C84.702,-556.258 106.644,-580.471 126,-601.226 161.764,-639.577 205.127,-684.487 223.761,-703.712"/>
<polygon fill="midnightblue" stroke="midnightblue" points="72.9603,-537.995 63.6702,-532.901 67.7561,-542.676 72.9603,-537.995"/>
</g>
<!-- Node12 -->
<g id="node12" class="node"><title>Node12</title>
<g id="a_node12"><a xlink:href="class_urho3_d_1_1_hash_map.html" target="_top" xlink:title="Urho3D::HashMap\&lt; Urho3D\l::StringHash, Urho3D::\lPackageUpload \&gt;">
<polygon fill="none" stroke="black" points="340,-593.726 340,-634.726 492,-634.726 492,-593.726 340,-593.726"/>
<text text-anchor="start" x="348" y="-622.726" font-family="FreeSans" font-size="10.00">Urho3D::HashMap&lt; Urho3D</text>
<text text-anchor="start" x="348" y="-611.726" font-family="FreeSans" font-size="10.00">::StringHash, Urho3D::</text>
<text text-anchor="middle" x="416" y="-600.726" font-family="FreeSans" font-size="10.00">PackageUpload &gt;</text>
</a>
</g>
</g>
<!-- Node7&#45;&gt;Node12 -->
<g id="edge15" class="edge"><title>Node7&#45;&gt;Node12</title>
<path fill="none" stroke="midnightblue" d="M102.904,-535.335C163.515,-550.656 268.582,-577.215 339.901,-595.243"/>
<polygon fill="midnightblue" stroke="midnightblue" points="103.399,-531.85 92.8459,-532.793 101.683,-538.637 103.399,-531.85"/>
</g>
<!-- Node14 -->
<g id="node14" class="node"><title>Node14</title>
<g id="a_node14"><a xlink:href="class_urho3_d_1_1_hash_map.html" target="_top" xlink:title="Urho3D::HashMap\&lt; Urho3D\l::StringHash, Urho3D::\lPackageDownload \&gt;">
<polygon fill="none" stroke="black" points="340,-482.726 340,-523.726 492,-523.726 492,-482.726 340,-482.726"/>
<text text-anchor="start" x="348" y="-511.726" font-family="FreeSans" font-size="10.00">Urho3D::HashMap&lt; Urho3D</text>
<text text-anchor="start" x="348" y="-500.726" font-family="FreeSans" font-size="10.00">::StringHash, Urho3D::</text>
<text text-anchor="middle" x="416" y="-489.726" font-family="FreeSans" font-size="10.00">PackageDownload &gt;</text>
</a>
</g>
</g>
<!-- Node7&#45;&gt;Node14 -->
<g id="edge18" class="edge"><title>Node7&#45;&gt;Node14</title>
<path fill="none" stroke="midnightblue" d="M118.126,-519.719C179.908,-516.287 274.05,-511.057 339.703,-507.409"/>
<polygon fill="midnightblue" stroke="midnightblue" points="117.91,-516.226 108.119,-520.275 118.298,-523.215 117.91,-516.226"/>
</g>
<!-- Node18 -->
<g id="node18" class="node"><title>Node18</title>
<g id="a_node18"><a xlink:href="class_urho3_d_1_1_hash_map.html" target="_top" xlink:title="Urho3D::HashMap\&lt; StringHash,\l Variant \&gt;">
<polygon fill="none" stroke="black" points="148,-253.226 148,-283.226 320,-283.226 320,-253.226 148,-253.226"/>
<text text-anchor="start" x="156" y="-271.226" font-family="FreeSans" font-size="10.00">Urho3D::HashMap&lt; StringHash,</text>
<text text-anchor="middle" x="234" y="-260.226" font-family="FreeSans" font-size="10.00"> Variant &gt;</text>
</a>
</g>
</g>
<!-- Node7&#45;&gt;Node18 -->
<g id="edge24" class="edge"><title>Node7&#45;&gt;Node18</title>
<path fill="none" stroke="midnightblue" d="M56.9829,-503.67C62.5257,-459.444 82.2267,-351.099 146,-293.226 150.306,-289.319 155.185,-286.018 160.38,-283.231"/>
<polygon fill="midnightblue" stroke="midnightblue" points="53.4964,-503.353 55.8375,-513.686 60.4511,-504.148 53.4964,-503.353"/>
</g>
<!-- Node22 -->
<g id="node22" class="node"><title>Node22</title>
<g id="a_node22"><a xlink:href="class_urho3_d_1_1_hash_set.html" target="_top" xlink:title="Urho3D::HashSet\&lt; Urho3D\l::StringHash \&gt;">
<polygon fill="none" stroke="black" points="703.5,-83.2262 703.5,-113.226 852.5,-113.226 852.5,-83.2262 703.5,-83.2262"/>
<text text-anchor="start" x="711.5" y="-101.226" font-family="FreeSans" font-size="10.00">Urho3D::HashSet&lt; Urho3D</text>
<text text-anchor="middle" x="778" y="-90.2262" font-family="FreeSans" font-size="10.00">::StringHash &gt;</text>
</a>
</g>
</g>
<!-- Node7&#45;&gt;Node22 -->
<g id="edge33" class="edge"><title>Node7&#45;&gt;Node22</title>
<path fill="none" stroke="midnightblue" d="M55.898,-503.473C59.2093,-453.386 74.6298,-319.966 146,-243.226 292.018,-86.2216 570.766,-82.6867 703.376,-91.0846"/>
<polygon fill="midnightblue" stroke="midnightblue" points="52.3959,-503.412 55.3239,-513.594 59.3847,-503.809 52.3959,-503.412"/>
</g>
<!-- Node25 -->
<g id="node25" class="node"><title>Node25</title>
<g id="a_node25"><a xlink:href="class_urho3_d_1_1_hash_map.html" target="_top" xlink:title="Urho3D::HashMap\&lt; unsigned,\l Urho3D::ComponentReplicationState \&gt;">
<polygon fill="none" stroke="black" points="674.5,-39.2262 674.5,-69.2262 881.5,-69.2262 881.5,-39.2262 674.5,-39.2262"/>
<text text-anchor="start" x="682.5" y="-57.2262" font-family="FreeSans" font-size="10.00">Urho3D::HashMap&lt; unsigned,</text>
<text text-anchor="middle" x="778" y="-46.2262" font-family="FreeSans" font-size="10.00"> Urho3D::ComponentReplicationState &gt;</text>
</a>
</g>
</g>
<!-- Node7&#45;&gt;Node25 -->
<g id="edge42" class="edge"><title>Node7&#45;&gt;Node25</title>
<path fill="none" stroke="midnightblue" d="M56.141,-503.066C60.9767,-425.51 82.535,-147.996 146,-93.2262 313.434,51.2674 608.221,-7.54142 726.147,-39.1299"/>
<polygon fill="midnightblue" stroke="midnightblue" points="52.628,-503.181 55.5251,-513.372 59.6155,-503.599 52.628,-503.181"/>
</g>
<!-- Node8&#45;&gt;Node3 -->
<g id="edge29" class="edge"><title>Node8&#45;&gt;Node3</title>
<path fill="none" stroke="#9a32cd" stroke-dasharray="5,2" d="M327.762,-714.078C483.022,-714.094 787.78,-707.688 882,-659.226 925.151,-637.032 956.024,-584.344 967.298,-562.729"/>
<polygon fill="#9a32cd" stroke="#9a32cd" points="327.758,-710.578 317.755,-714.068 327.751,-717.578 327.758,-710.578"/>
<text text-anchor="middle" x="583" y="-713.226" font-family="FreeSans" font-size="10.00"> nodesToProcess_</text>
</g>
<!-- Node8&#45;&gt;Node5 -->
<g id="edge8" class="edge"><title>Node8&#45;&gt;Node5</title>
<path fill="none" stroke="#9a32cd" stroke-dasharray="5,2" d="M261.289,-727.924C325.58,-763.868 490.226,-855.918 555.124,-892.201"/>
<polygon fill="#9a32cd" stroke="#9a32cd" points="262.644,-724.672 252.208,-722.847 259.228,-730.782 262.644,-724.672"/>
<text text-anchor="middle" x="416" y="-857.226" font-family="FreeSans" font-size="10.00"> dirtyNodes_</text>
</g>
<!-- Node9 -->
<g id="node9" class="node"><title>Node9</title>
<g id="a_node9"><a xlink:href="class_urho3_d_1_1_weak_ptr.html" target="_top" xlink:title="Urho3D::WeakPtr\&lt; Urho3D\l::Scene \&gt;">
<polygon fill="none" stroke="red" points="510,-163.226 510,-193.226 656,-193.226 656,-163.226 510,-163.226"/>
<text text-anchor="start" x="518" y="-181.226" font-family="FreeSans" font-size="10.00">Urho3D::WeakPtr&lt; Urho3D</text>
<text text-anchor="middle" x="583" y="-170.226" font-family="FreeSans" font-size="10.00">::Scene &gt;</text>
</a>
</g>
</g>
<!-- Node9&#45;&gt;Node3 -->
<g id="edge10" class="edge"><title>Node9&#45;&gt;Node3</title>
<path fill="none" stroke="#9a32cd" stroke-dasharray="5,2" d="M666.283,-182.508C751.615,-187.302 873.787,-195.307 882,-202.226 936.968,-248.533 965.512,-491.815 971.01,-543.548"/>
<polygon fill="#9a32cd" stroke="#9a32cd" points="666.248,-179.001 656.069,-181.94 665.859,-185.99 666.248,-179.001"/>
<text text-anchor="middle" x="778" y="-205.226" font-family="FreeSans" font-size="10.00"> scene_</text>
</g>
<!-- Node10 -->
<g id="node10" class="node"><title>Node10</title>
<g id="a_node10"><a xlink:href="struct_urho3_d_1_1_ref_count.html" target="_top" xlink:title="Reference count structure. ">
<polygon fill="none" stroke="black" points="183,-102.726 183,-121.726 285,-121.726 285,-102.726 183,-102.726"/>
<text text-anchor="middle" x="234" y="-109.726" font-family="FreeSans" font-size="10.00">Urho3D::RefCount</text>
</a>
</g>
</g>
<!-- Node10&#45;&gt;Node9 -->
<g id="edge11" class="edge"><title>Node10&#45;&gt;Node9</title>
<path fill="none" stroke="#9a32cd" stroke-dasharray="5,2" d="M278.625,-124.401C297.417,-129.397 319.696,-134.989 340,-139.226 396.76,-151.071 461.652,-161.355 509.941,-168.384"/>
<polygon fill="#9a32cd" stroke="#9a32cd" points="279.428,-120.993 268.862,-121.777 277.611,-127.753 279.428,-120.993"/>
<text text-anchor="middle" x="416" y="-169.226" font-family="FreeSans" font-size="10.00"> refCount_</text>
</g>
<!-- Node23 -->
<g id="node23" class="node"><title>Node23</title>
<g id="a_node23"><a xlink:href="class_urho3_d_1_1_weak_ptr.html" target="_top" xlink:title="Urho3D::WeakPtr\&lt; Urho3D\l::Node \&gt;">
<polygon fill="none" stroke="black" points="900,-144.226 900,-174.226 1046,-174.226 1046,-144.226 900,-144.226"/>
<text text-anchor="start" x="908" y="-162.226" font-family="FreeSans" font-size="10.00">Urho3D::WeakPtr&lt; Urho3D</text>
<text text-anchor="middle" x="973" y="-151.226" font-family="FreeSans" font-size="10.00">::Node &gt;</text>
</a>
</g>
</g>
<!-- Node10&#45;&gt;Node23 -->
<g id="edge40" class="edge"><title>Node10&#45;&gt;Node23</title>
<path fill="none" stroke="#9a32cd" stroke-dasharray="5,2" d="M295.329,-113.908C409.878,-117.453 666.679,-127.079 882,-147.226 887.807,-147.77 893.816,-148.407 899.846,-149.099"/>
<polygon fill="#9a32cd" stroke="#9a32cd" points="295.124,-110.401 285.022,-113.594 294.911,-117.397 295.124,-110.401"/>
<text text-anchor="middle" x="583" y="-133.226" font-family="FreeSans" font-size="10.00"> refCount_</text>
</g>
<!-- Node11 -->
<g id="node11" class="node"><title>Node11</title>
<g id="a_node11"><a xlink:href="class_urho3_d_1_1_quaternion.html" target="_top" xlink:title="Rotation represented as a four&#45;dimensional normalized vector. ">
<polygon fill="none" stroke="black" points="177.5,-446.726 177.5,-465.726 290.5,-465.726 290.5,-446.726 177.5,-446.726"/>
<text text-anchor="middle" x="234" y="-453.726" font-family="FreeSans" font-size="10.00">Urho3D::Quaternion</text>
</a>
</g>
</g>
<!-- Node11&#45;&gt;Node3 -->
<g id="edge12" class="edge"><title>Node11&#45;&gt;Node3</title>
<path fill="none" stroke="#9a32cd" stroke-dasharray="5,2" d="M300.933,-452.612C443.924,-445.683 778.037,-434.656 882,-476.226 918.468,-490.808 950.618,-526.494 964.593,-543.675"/>
<polygon fill="#9a32cd" stroke="#9a32cd" points="300.379,-449.135 290.564,-453.124 300.724,-456.127 300.379,-449.135"/>
<text text-anchor="middle" x="583" y="-451.226" font-family="FreeSans" font-size="10.00"> rotation_</text>
</g>
<!-- Node11&#45;&gt;Node11 -->
<g id="edge13" class="edge"><title>Node11&#45;&gt;Node11</title>
<path fill="none" stroke="#9a32cd" stroke-dasharray="5,2" d="M214.371,-475.626C215.682,-480.541 222.225,-484.226 234,-484.226 252.84,-484.226 258.286,-474.791 250.338,-465.983"/>
<polygon fill="#9a32cd" stroke="#9a32cd" points="217.745,-476.578 217.662,-465.983 211.12,-474.317 217.745,-476.578"/>
<text text-anchor="middle" x="234" y="-487.226" font-family="FreeSans" font-size="10.00"> IDENTITY</text>
</g>
<!-- Node24 -->
<g id="node24" class="node"><title>Node24</title>
<g id="a_node24"><a xlink:href="class_urho3_d_1_1_node.html" target="_top" xlink:title="Scene node that may contain components and child nodes. ">
<polygon fill="none" stroke="red" points="540.5,-297.726 540.5,-316.726 625.5,-316.726 625.5,-297.726 540.5,-297.726"/>
<text text-anchor="middle" x="583" y="-304.726" font-family="FreeSans" font-size="10.00">Urho3D::Node</text>
</a>
</g>
</g>
<!-- Node11&#45;&gt;Node24 -->
<g id="edge36" class="edge"><title>Node11&#45;&gt;Node24</title>
<path fill="none" stroke="#9a32cd" stroke-dasharray="5,2" d="M300.583,-447.571C308.164,-444.957 315.497,-441.582 322,-437.226 333.677,-429.405 329.121,-420.124 340,-411.226 357.964,-396.533 499.608,-339.747 557.487,-316.864"/>
<polygon fill="#9a32cd" stroke="#9a32cd" points="299.458,-444.254 290.892,-450.489 301.476,-450.957 299.458,-444.254"/>
<text text-anchor="middle" x="416" y="-425.226" font-family="FreeSans" font-size="10.00"> worldRotation_</text>
<text text-anchor="middle" x="416" y="-414.226" font-family="FreeSans" font-size="10.00">rotation_</text>
</g>
<!-- Node12&#45;&gt;Node3 -->
<g id="edge14" class="edge"><title>Node12&#45;&gt;Node3</title>
<path fill="none" stroke="#9a32cd" stroke-dasharray="5,2" d="M495.455,-636.859C500.351,-637.791 505.227,-638.596 510,-639.226 674.01,-660.886 727.729,-685.968 882,-626.226 917.458,-612.495 949.616,-579.249 964.019,-562.788"/>
<polygon fill="#9a32cd" stroke="#9a32cd" points="495.908,-633.378 485.406,-634.782 494.491,-640.234 495.908,-633.378"/>
<text text-anchor="middle" x="583" y="-663.226" font-family="FreeSans" font-size="10.00"> uploads_</text>
</g>
<!-- Node13 -->
<g id="node13" class="node"><title>Node13</title>
<g id="a_node13"><a xlink:href="class_urho3_d_1_1_vector_buffer.html" target="_top" xlink:title="Dynamically sized buffer that can be read and written to as a stream. ">
<polygon fill="none" stroke="red" points="523.5,-792.726 523.5,-811.726 642.5,-811.726 642.5,-792.726 523.5,-792.726"/>
<text text-anchor="middle" x="583" y="-799.726" font-family="FreeSans" font-size="10.00">Urho3D::VectorBuffer</text>
</a>
</g>
</g>
<!-- Node13&#45;&gt;Node3 -->
<g id="edge16" class="edge"><title>Node13&#45;&gt;Node3</title>
<path fill="none" stroke="#9a32cd" stroke-dasharray="5,2" d="M644.77,-813.068C709.992,-821.16 813.443,-823.335 882,-772.226 953.845,-718.667 968.593,-597.516 971.389,-562.729"/>
<polygon fill="#9a32cd" stroke="#9a32cd" points="645.014,-809.57 634.641,-811.726 644.095,-816.51 645.014,-809.57"/>
<text text-anchor="middle" x="778" y="-820.226" font-family="FreeSans" font-size="10.00"> msg_</text>
</g>
<!-- Node14&#45;&gt;Node3 -->
<g id="edge17" class="edge"><title>Node14&#45;&gt;Node3</title>
<path fill="none" stroke="#9a32cd" stroke-dasharray="5,2" d="M502.284,-486.062C504.881,-485.75 507.457,-485.47 510,-485.226 675.347,-469.372 721.049,-480.165 882,-521.226 905.139,-527.129 930.723,-536.516 948.68,-543.6"/>
<polygon fill="#9a32cd" stroke="#9a32cd" points="501.645,-482.616 492.196,-487.409 502.572,-489.555 501.645,-482.616"/>
<text text-anchor="middle" x="583" y="-488.226" font-family="FreeSans" font-size="10.00"> downloads_</text>
</g>
<!-- Node15 -->
<g id="node15" class="node"><title>Node15</title>
<g id="a_node15"><a xlink:href="class_urho3_d_1_1_vector3.html" target="_top" xlink:title="Three&#45;dimensional vector. ">
<polygon fill="none" stroke="black" points="186,-302.726 186,-321.726 282,-321.726 282,-302.726 186,-302.726"/>
<text text-anchor="middle" x="234" y="-309.726" font-family="FreeSans" font-size="10.00">Urho3D::Vector3</text>
</a>
</g>
</g>
<!-- Node15&#45;&gt;Node3 -->
<g id="edge19" class="edge"><title>Node15&#45;&gt;Node3</title>
<path fill="none" stroke="#9a32cd" stroke-dasharray="5,2" d="M276.646,-324.552C295.844,-330.022 318.986,-336.316 340,-341.226 578.851,-397.032 670.718,-320.631 882,-445.226 924.047,-470.022 955.327,-521.992 967,-543.543"/>
<polygon fill="#9a32cd" stroke="#9a32cd" points="277.576,-321.178 266.998,-321.779 275.642,-327.906 277.576,-321.178"/>
<text text-anchor="middle" x="583" y="-373.226" font-family="FreeSans" font-size="10.00"> position_</text>
</g>
<!-- Node15&#45;&gt;Node15 -->
<g id="edge20" class="edge"><title>Node15&#45;&gt;Node15</title>
<path fill="none" stroke="#9a32cd" stroke-dasharray="5,2" d="M214.371,-331.626C215.682,-336.541 222.225,-340.226 234,-340.226 252.84,-340.226 258.286,-330.791 250.338,-321.983"/>
<polygon fill="#9a32cd" stroke="#9a32cd" points="217.745,-332.578 217.662,-321.983 211.12,-330.317 217.745,-332.578"/>
<text text-anchor="middle" x="234" y="-420.226" font-family="FreeSans" font-size="10.00"> ONE</text>
<text text-anchor="middle" x="234" y="-409.226" font-family="FreeSans" font-size="10.00">DOWN</text>
<text text-anchor="middle" x="234" y="-398.226" font-family="FreeSans" font-size="10.00">BACK</text>
<text text-anchor="middle" x="234" y="-387.226" font-family="FreeSans" font-size="10.00">RIGHT</text>
<text text-anchor="middle" x="234" y="-376.226" font-family="FreeSans" font-size="10.00">LEFT</text>
<text text-anchor="middle" x="234" y="-365.226" font-family="FreeSans" font-size="10.00">ZERO</text>
<text text-anchor="middle" x="234" y="-354.226" font-family="FreeSans" font-size="10.00">FORWARD</text>
<text text-anchor="middle" x="234" y="-343.226" font-family="FreeSans" font-size="10.00">UP</text>
</g>
<!-- Node15&#45;&gt;Node24 -->
<g id="edge37" class="edge"><title>Node15&#45;&gt;Node24</title>
<path fill="none" stroke="#9a32cd" stroke-dasharray="5,2" d="M292.433,-313.67C344.529,-314.689 423.437,-315.509 492,-313.226 507.808,-312.7 525.151,-311.655 540.358,-310.582"/>
<polygon fill="#9a32cd" stroke="#9a32cd" points="292.452,-310.17 282.383,-313.464 292.309,-317.168 292.452,-310.17"/>
<text text-anchor="middle" x="416" y="-329.226" font-family="FreeSans" font-size="10.00"> scale_</text>
<text text-anchor="middle" x="416" y="-318.226" font-family="FreeSans" font-size="10.00">position_</text>
</g>
<!-- Node16 -->
<g id="node16" class="node"><title>Node16</title>
<g id="a_node16"><a xlink:href="class_urho3_d_1_1_vector.html" target="_top" xlink:title="Urho3D::Vector\&lt; Urho3D\l::RemoteEvent \&gt;">
<polygon fill="none" stroke="red" points="514,-743.226 514,-773.226 652,-773.226 652,-743.226 514,-743.226"/>
<text text-anchor="start" x="522" y="-761.226" font-family="FreeSans" font-size="10.00">Urho3D::Vector&lt; Urho3D</text>
<text text-anchor="middle" x="583" y="-750.226" font-family="FreeSans" font-size="10.00">::RemoteEvent &gt;</text>
</a>
</g>
</g>
<!-- Node16&#45;&gt;Node3 -->
<g id="edge21" class="edge"><title>Node16&#45;&gt;Node3</title>
<path fill="none" stroke="#9a32cd" stroke-dasharray="5,2" d="M662.335,-758.335C738.432,-756.999 847.403,-750.822 882,-727.226 941.848,-686.409 964.41,-593.058 970.301,-562.85"/>
<polygon fill="#9a32cd" stroke="#9a32cd" points="662.24,-754.836 652.294,-758.487 662.346,-761.835 662.24,-754.836"/>
<text text-anchor="middle" x="778" y="-760.226" font-family="FreeSans" font-size="10.00"> remoteEvents_</text>
</g>
<!-- Node17 -->
<g id="node17" class="node"><title>Node17</title>
<g id="a_node17"><a xlink:href="class_urho3_d_1_1_controls.html" target="_top" xlink:title="Controls sent over the network. ">
<polygon fill="none" stroke="black" points="533.5,-212.726 533.5,-231.726 632.5,-231.726 632.5,-212.726 533.5,-212.726"/>
<text text-anchor="middle" x="583" y="-219.726" font-family="FreeSans" font-size="10.00">Urho3D::Controls</text>
</a>
</g>
</g>
<!-- Node17&#45;&gt;Node3 -->
<g id="edge22" class="edge"><title>Node17&#45;&gt;Node3</title>
<path fill="none" stroke="#9a32cd" stroke-dasharray="5,2" d="M643.059,-218.681C719.34,-215.377 846.544,-214.596 882,-243.226 931.378,-283.099 963.833,-495.087 970.657,-543.414"/>
<polygon fill="#9a32cd" stroke="#9a32cd" points="642.476,-215.204 632.648,-219.162 642.799,-222.197 642.476,-215.204"/>
<text text-anchor="middle" x="778" y="-246.226" font-family="FreeSans" font-size="10.00"> controls_</text>
</g>
<!-- Node18&#45;&gt;Node3 -->
<g id="edge25" class="edge"><title>Node18&#45;&gt;Node3</title>
<path fill="none" stroke="#9a32cd" stroke-dasharray="5,2" d="M330.278,-260.582C416.323,-255.957 545.946,-254.678 656,-277.226 762.078,-298.959 802.802,-294.385 882,-368.226 937.644,-420.106 962.998,-513.726 969.945,-543.712"/>
<polygon fill="#9a32cd" stroke="#9a32cd" points="330.054,-257.089 320.266,-261.146 330.447,-264.078 330.054,-257.089"/>
<text text-anchor="middle" x="583" y="-280.226" font-family="FreeSans" font-size="10.00"> identity_</text>
</g>
<!-- Node18&#45;&gt;Node17 -->
<g id="edge23" class="edge"><title>Node18&#45;&gt;Node17</title>
<path fill="none" stroke="#9a32cd" stroke-dasharray="5,2" d="M301.437,-250.851C314.171,-247.963 327.447,-245.254 340,-243.226 406.403,-232.5 484.003,-226.988 533.071,-224.356"/>
<polygon fill="#9a32cd" stroke="#9a32cd" points="300.312,-247.519 291.366,-253.194 301.899,-254.337 300.312,-247.519"/>
<text text-anchor="middle" x="416" y="-246.226" font-family="FreeSans" font-size="10.00"> extraData_</text>
</g>
<!-- Node18&#45;&gt;Node24 -->
<g id="edge38" class="edge"><title>Node18&#45;&gt;Node24</title>
<path fill="none" stroke="#9a32cd" stroke-dasharray="5,2" d="M330.315,-278.939C399.052,-286.664 488.493,-296.717 540.152,-302.523"/>
<polygon fill="#9a32cd" stroke="#9a32cd" points="330.659,-275.455 320.33,-277.817 329.877,-282.412 330.659,-275.455"/>
<text text-anchor="middle" x="416" y="-300.226" font-family="FreeSans" font-size="10.00"> vars_</text>
</g>
<!-- Node19 -->
<g id="node19" class="node"><title>Node19</title>
<g id="a_node19"><a xlink:href="class_urho3_d_1_1_timer.html" target="_top" xlink:title="Low&#45;resolution operating system timer. ">
<polygon fill="none" stroke="black" points="540,-610.726 540,-629.726 626,-629.726 626,-610.726 540,-610.726"/>
<text text-anchor="middle" x="583" y="-617.726" font-family="FreeSans" font-size="10.00">Urho3D::Timer</text>
</a>
</g>
</g>
<!-- Node19&#45;&gt;Node3 -->
<g id="edge26" class="edge"><title>Node19&#45;&gt;Node3</title>
<path fill="none" stroke="#9a32cd" stroke-dasharray="5,2" d="M636.238,-615.349C696.048,-609.233 796.762,-597.303 882,-579.226 902.683,-574.84 925.569,-568.204 943.086,-562.734"/>
<polygon fill="#9a32cd" stroke="#9a32cd" points="635.878,-611.868 626.28,-616.352 636.58,-618.832 635.878,-611.868"/>
<text text-anchor="middle" x="778" y="-614.226" font-family="FreeSans" font-size="10.00"> statsTimer_</text>
</g>
<!-- Node20 -->
<g id="node20" class="node"><title>Node20</title>
<g id="a_node20"><a xlink:href="class_urho3_d_1_1_string.html" target="_top" xlink:title="String class. ">
<polygon fill="none" stroke="black" points="539,-543.726 539,-562.726 627,-562.726 627,-543.726 539,-543.726"/>
<text text-anchor="middle" x="583" y="-550.726" font-family="FreeSans" font-size="10.00">Urho3D::String</text>
</a>
</g>
</g>
<!-- Node20&#45;&gt;Node3 -->
<g id="edge27" class="edge"><title>Node20&#45;&gt;Node3</title>
<path fill="none" stroke="#9a32cd" stroke-dasharray="5,2" d="M637.385,-553.226C710.678,-553.226 841.83,-553.226 916.312,-553.226"/>
<polygon fill="#9a32cd" stroke="#9a32cd" points="637.005,-549.726 627.005,-553.226 637.005,-556.726 637.005,-549.726"/>
<text text-anchor="middle" x="778" y="-567.226" font-family="FreeSans" font-size="10.00"> sceneFileName_</text>
<text text-anchor="middle" x="778" y="-556.226" font-family="FreeSans" font-size="10.00">address_</text>
</g>
<!-- Node20&#45;&gt;Node20 -->
<g id="edge28" class="edge"><title>Node20&#45;&gt;Node20</title>
<path fill="none" stroke="#9a32cd" stroke-dasharray="5,2" d="M551.937,-571.501C552.823,-576.967 563.177,-581.226 583,-581.226 612.504,-581.226 621.032,-571.791 608.585,-562.983"/>
<polygon fill="#9a32cd" stroke="#9a32cd" points="554.949,-573.287 557.415,-562.983 549.062,-569.501 554.949,-573.287"/>
<text text-anchor="middle" x="583" y="-584.226" font-family="FreeSans" font-size="10.00"> EMPTY</text>
</g>
<!-- Node21 -->
<g id="node21" class="node"><title>Node21</title>
<g id="a_node21"><a xlink:href="struct_urho3_d_1_1_dirty_bits.html" target="_top" xlink:title="Dirty attribute bits structure for network replication. ">
<polygon fill="none" stroke="black" points="923,-11.7262 923,-30.7262 1023,-30.7262 1023,-11.7262 923,-11.7262"/>
<text text-anchor="middle" x="973" y="-18.7262" font-family="FreeSans" font-size="10.00">Urho3D::DirtyBits</text>
</a>
</g>
</g>
<!-- Node21&#45;&gt;Node1 -->
<g id="edge31" class="edge"><title>Node21&#45;&gt;Node1</title>
<path fill="none" stroke="#9a32cd" stroke-dasharray="5,2" d="M1033.31,-19.8344C1066.64,-21.1676 1108.2,-26.4642 1142,-42.2262 1183.03,-61.3615 1218.42,-104.145 1232.95,-123.448"/>
<polygon fill="#9a32cd" stroke="#9a32cd" points="1033.35,-16.3341 1023.25,-19.5408 1033.14,-23.3311 1033.35,-16.3341"/>
<text text-anchor="middle" x="1103" y="-45.2262" font-family="FreeSans" font-size="10.00"> dirtyAttributes_</text>
</g>
<!-- Node22&#45;&gt;Node1 -->
<g id="edge32" class="edge"><title>Node22&#45;&gt;Node1</title>
<path fill="none" stroke="#9a32cd" stroke-dasharray="5,2" d="M862.623,-104.575C947.048,-110.985 1076.53,-120.815 1159.73,-127.132"/>
<polygon fill="#9a32cd" stroke="#9a32cd" points="862.793,-101.078 852.557,-103.811 862.263,-108.058 862.793,-101.078"/>
<text text-anchor="middle" x="973" y="-121.226" font-family="FreeSans" font-size="10.00"> dirtyVars_</text>
</g>
<!-- Node23&#45;&gt;Node1 -->
<g id="edge34" class="edge"><title>Node23&#45;&gt;Node1</title>
<path fill="none" stroke="#9a32cd" stroke-dasharray="5,2" d="M1056.38,-151.174C1089.28,-147.959 1127.03,-144.268 1159.72,-141.073"/>
<polygon fill="#9a32cd" stroke="#9a32cd" points="1055.95,-147.7 1046.33,-152.156 1056.63,-154.666 1055.95,-147.7"/>
<text text-anchor="middle" x="1103" y="-153.226" font-family="FreeSans" font-size="10.00"> node_</text>
</g>
<!-- Node24&#45;&gt;Node23 -->
<g id="edge35" class="edge"><title>Node24&#45;&gt;Node23</title>
<path fill="none" stroke="#9a32cd" stroke-dasharray="5,2" d="M635.031,-298.054C642.999,-294.579 650.425,-289.798 656,-283.226 688.898,-244.445 635.93,-203.945 674,-170.226 706.216,-141.693 822.267,-145.58 899.679,-151.813"/>
<polygon fill="#9a32cd" stroke="#9a32cd" points="633.681,-294.821 625.508,-301.563 636.101,-301.39 633.681,-294.821"/>
<text text-anchor="middle" x="778" y="-173.226" font-family="FreeSans" font-size="10.00"> ptr_</text>
</g>
<!-- Node24&#45;&gt;Node24 -->
<g id="edge39" class="edge"><title>Node24&#45;&gt;Node24</title>
<path fill="none" stroke="#9a32cd" stroke-dasharray="5,2" d="M551.937,-325.501C552.823,-330.967 563.177,-335.226 583,-335.226 612.504,-335.226 621.032,-325.791 608.585,-316.983"/>
<polygon fill="#9a32cd" stroke="#9a32cd" points="554.949,-327.287 557.415,-316.983 549.062,-323.501 554.949,-327.287"/>
<text text-anchor="middle" x="583" y="-338.226" font-family="FreeSans" font-size="10.00"> parent_</text>
</g>
<!-- Node25&#45;&gt;Node1 -->
<g id="edge41" class="edge"><title>Node25&#45;&gt;Node1</title>
<path fill="none" stroke="#9a32cd" stroke-dasharray="5,2" d="M891.654,-69.1967C939.366,-75.9214 995.496,-84.339 1046,-93.2262 1098.33,-102.434 1158.15,-115.097 1197.37,-123.691"/>
<polygon fill="#9a32cd" stroke="#9a32cd" points="891.995,-65.7103 881.605,-67.7879 891.023,-72.6425 891.995,-65.7103"/>
<text text-anchor="middle" x="973" y="-96.2262" font-family="FreeSans" font-size="10.00"> componentStates_</text>
</g>
</g>
</svg>
