<?xml version="1.0" encoding="UTF-8" standalone="no"?>
<!DOCTYPE svg PUBLIC "-//W3C//DTD SVG 1.1//EN"
 "http://www.w3.org/Graphics/SVG/1.1/DTD/svg11.dtd">
<!-- Generated by graphviz version 2.36.0 (20140111.2315)
 -->
<!-- Title: Urho3D::BatchQueue Pages: 1 -->
<!--zoomable 467 -->
<svg id="main" version="1.1" xmlns="http://www.w3.org/2000/svg" xmlns:xlink="http://www.w3.org/1999/xlink" xml:space="preserve" onload="init(evt)">
<style type="text/css"><![CDATA[
.edge:hover path { stroke: red; }
.edge:hover polygon { stroke: red; fill: red; }
]]></style>
<script type="text/javascript"><![CDATA[
var edges = document.getElementsByTagName('g');
if (edges && edges.length) {
  for (var i=0;i<edges.length;i++) {
    if (edges[i].id.substr(0,4)=='edge') {
      edges[i].setAttribute('class','edge');
    }
  }
}
]]></script>
        <defs>
                <circle id="rim" cx="0" cy="0" r="7"/>
                <circle id="rim2" cx="0" cy="0" r="3.5"/>
                <g id="zoomPlus">
                        <use xlink:href="#rim" fill="#404040">
                                <set attributeName="fill" to="#808080" begin="zoomplus.mouseover" end="zoomplus.mouseout"/>
                        </use>
                        <path d="M-4,0h8M0,-4v8" fill="none" stroke="white" stroke-width="1.5" pointer-events="none"/>
                </g>
                <g id="zoomMin">
                        <use xlink:href="#rim" fill="#404040">
                                <set attributeName="fill" to="#808080" begin="zoomminus.mouseover" end="zoomminus.mouseout"/>
                        </use>
                        <path d="M-4,0h8" fill="none" stroke="white" stroke-width="1.5" pointer-events="none"/>
                </g>
                <g id="dirArrow">
                        <path fill="none" stroke="white" stroke-width="1.5" d="M0,-3.0v7 M-2.5,-0.5L0,-3.0L2.5,-0.5"/>
                </g>
               <g id="resetDef">
                       <use xlink:href="#rim2" fill="#404040">
                               <set attributeName="fill" to="#808080" begin="reset.mouseover" end="reset.mouseout"/>
                       </use>
               </g>
        </defs>

<script type="text/javascript">
var viewWidth = 936;
var viewHeight = 467;
var sectionId = 'dynsection-0';
</script>
<script xlink:href="svgpan.js"/>
<svg id="graph" class="graph">
<g id="viewport">
<title>Urho3D::BatchQueue</title>
<!-- Node1 -->
<g id="node1" class="node"><title>Node1</title>
<polygon fill="#bfbfbf" stroke="black" points="818,-213.5 818,-232.5 928,-232.5 928,-213.5 818,-213.5"/>
<text text-anchor="middle" x="873" y="-220.5" font-family="Helvetica,sans-Serif" font-size="10.00">Urho3D::BatchQueue</text>
</g>
<!-- Node2 -->
<g id="node2" class="node"><title>Node2</title>
<g id="a_node2"><a xlink:href="class_urho3_d_1_1_hash_map.html" target="_top" xlink:title="Urho3D::HashMap\&lt; unsigned\l short, unsigned short \&gt;">
<polygon fill="none" stroke="black" points="536,-390 536,-420 682,-420 682,-390 536,-390"/>
<text text-anchor="start" x="544" y="-408" font-family="Helvetica,sans-Serif" font-size="10.00">Urho3D::HashMap&lt; unsigned</text>
<text text-anchor="middle" x="609" y="-397" font-family="Helvetica,sans-Serif" font-size="10.00"> short, unsigned short &gt;</text>
</a>
</g>
</g>
<!-- Node2&#45;&gt;Node1 -->
<g id="edge1" class="edge"><title>Node2&#45;&gt;Node1</title>
<path fill="none" stroke="#9a32cd" stroke-dasharray="5,2" d="M692.377,-395.891C728.409,-388.514 769.355,-375.162 800,-351 840.845,-318.796 862.314,-256.636 869.35,-232.712"/>
<polygon fill="#9a32cd" stroke="#9a32cd" points="691.516,-392.492 682.357,-397.817 692.838,-399.366 691.516,-392.492"/>
<text text-anchor="middle" x="751" y="-407" font-family="Helvetica,sans-Serif" font-size="10.00"> materialRemapping_</text>
<text text-anchor="middle" x="751" y="-396" font-family="Helvetica,sans-Serif" font-size="10.00">geometryRemapping_</text>
</g>
<!-- Node3 -->
<g id="node3" class="node"><title>Node3</title>
<g id="a_node3"><a xlink:href="class_urho3_d_1_1_hash_base.html" target="_top" xlink:title="Hash set/map base class. ">
<polygon fill="none" stroke="black" points="391,-346.5 391,-365.5 493,-365.5 493,-346.5 391,-346.5"/>
<text text-anchor="middle" x="442" y="-353.5" font-family="Helvetica,sans-Serif" font-size="10.00">Urho3D::HashBase</text>
</a>
</g>
</g>
<!-- Node3&#45;&gt;Node2 -->
<g id="edge2" class="edge"><title>Node3&#45;&gt;Node2</title>
<path fill="none" stroke="midnightblue" d="M484.937,-368.454C506.977,-374.999 534.159,-383.071 557.365,-389.963"/>
<polygon fill="midnightblue" stroke="midnightblue" points="485.788,-365.056 475.205,-365.564 483.795,-371.766 485.788,-365.056"/>
</g>
<!-- Node7 -->
<g id="node7" class="node"><title>Node7</title>
<g id="a_node7"><a xlink:href="class_urho3_d_1_1_hash_map.html" target="_top" xlink:title="Urho3D::HashMap\&lt; unsigned,\l unsigned \&gt;">
<polygon fill="none" stroke="black" points="534.5,-341 534.5,-371 683.5,-371 683.5,-341 534.5,-341"/>
<text text-anchor="start" x="542.5" y="-359" font-family="Helvetica,sans-Serif" font-size="10.00">Urho3D::HashMap&lt; unsigned,</text>
<text text-anchor="middle" x="609" y="-348" font-family="Helvetica,sans-Serif" font-size="10.00"> unsigned &gt;</text>
</a>
</g>
</g>
<!-- Node3&#45;&gt;Node7 -->
<g id="edge10" class="edge"><title>Node3&#45;&gt;Node7</title>
<path fill="none" stroke="midnightblue" d="M503.591,-356C513.554,-356 523.976,-356 534.217,-356"/>
<polygon fill="midnightblue" stroke="midnightblue" points="503.402,-352.5 493.402,-356 503.402,-359.5 503.402,-352.5"/>
</g>
<!-- Node8 -->
<g id="node8" class="node"><title>Node8</title>
<g id="a_node8"><a xlink:href="class_urho3_d_1_1_hash_map.html" target="_top" xlink:title="Urho3D::HashMap\&lt; Urho3D\l::BatchGroupKey, Urho3D\l::BatchGroup \&gt;">
<polygon fill="none" stroke="black" points="538.5,-281.5 538.5,-322.5 679.5,-322.5 679.5,-281.5 538.5,-281.5"/>
<text text-anchor="start" x="546.5" y="-310.5" font-family="Helvetica,sans-Serif" font-size="10.00">Urho3D::HashMap&lt; Urho3D</text>
<text text-anchor="start" x="546.5" y="-299.5" font-family="Helvetica,sans-Serif" font-size="10.00">::BatchGroupKey, Urho3D</text>
<text text-anchor="middle" x="609" y="-288.5" font-family="Helvetica,sans-Serif" font-size="10.00">::BatchGroup &gt;</text>
</a>
</g>
</g>
<!-- Node3&#45;&gt;Node8 -->
<g id="edge12" class="edge"><title>Node3&#45;&gt;Node8</title>
<path fill="none" stroke="midnightblue" d="M481.867,-343.28C500.786,-337.088 524.003,-329.49 545.338,-322.507"/>
<polygon fill="midnightblue" stroke="midnightblue" points="480.534,-340.033 472.119,-346.47 482.712,-346.686 480.534,-340.033"/>
</g>
<!-- Node4 -->
<g id="node4" class="node"><title>Node4</title>
<g id="a_node4"><a xlink:href="struct_urho3_d_1_1_hash_node_base.html" target="_top" xlink:title="Hash set/map node base class. ">
<polygon fill="none" stroke="black" points="180.5,-388.5 180.5,-407.5 305.5,-407.5 305.5,-388.5 180.5,-388.5"/>
<text text-anchor="middle" x="243" y="-395.5" font-family="Helvetica,sans-Serif" font-size="10.00">Urho3D::HashNodeBase</text>
</a>
</g>
</g>
<!-- Node4&#45;&gt;Node3 -->
<g id="edge3" class="edge"><title>Node4&#45;&gt;Node3</title>
<path fill="none" stroke="#9a32cd" stroke-dasharray="5,2" d="M298.809,-386.315C329.479,-379.776 367.237,-371.726 396.134,-365.565"/>
<polygon fill="#9a32cd" stroke="#9a32cd" points="297.753,-382.961 288.702,-388.47 299.212,-389.807 297.753,-382.961"/>
<text text-anchor="middle" x="347" y="-405" font-family="Helvetica,sans-Serif" font-size="10.00"> ptrs_</text>
<text text-anchor="middle" x="347" y="-394" font-family="Helvetica,sans-Serif" font-size="10.00">tail_</text>
<text text-anchor="middle" x="347" y="-383" font-family="Helvetica,sans-Serif" font-size="10.00">head_</text>
</g>
<!-- Node4&#45;&gt;Node4 -->
<g id="edge4" class="edge"><title>Node4&#45;&gt;Node4</title>
<path fill="none" stroke="#9a32cd" stroke-dasharray="5,2" d="M225.593,-417.4C226.756,-422.315 232.558,-426 243,-426 259.707,-426 264.536,-416.565 257.488,-407.757"/>
<polygon fill="#9a32cd" stroke="#9a32cd" points="228.965,-418.342 228.512,-407.757 222.265,-416.314 228.965,-418.342"/>
<text text-anchor="middle" x="243" y="-451" font-family="Helvetica,sans-Serif" font-size="10.00"> next_</text>
<text text-anchor="middle" x="243" y="-440" font-family="Helvetica,sans-Serif" font-size="10.00">prev_</text>
<text text-anchor="middle" x="243" y="-429" font-family="Helvetica,sans-Serif" font-size="10.00">down_</text>
</g>
<!-- Node5 -->
<g id="node5" class="node"><title>Node5</title>
<g id="a_node5"><a xlink:href="struct_urho3_d_1_1_allocator_block.html" target="_top" xlink:title="Allocator memory block. ">
<polygon fill="none" stroke="black" points="183.5,-321.5 183.5,-340.5 302.5,-340.5 302.5,-321.5 183.5,-321.5"/>
<text text-anchor="middle" x="243" y="-328.5" font-family="Helvetica,sans-Serif" font-size="10.00">Urho3D::AllocatorBlock</text>
</a>
</g>
</g>
<!-- Node5&#45;&gt;Node3 -->
<g id="edge5" class="edge"><title>Node5&#45;&gt;Node3</title>
<path fill="none" stroke="#9a32cd" stroke-dasharray="5,2" d="M312.658,-339.713C338.43,-342.984 367.212,-346.636 390.978,-349.652"/>
<polygon fill="#9a32cd" stroke="#9a32cd" points="312.934,-336.22 302.573,-338.433 312.053,-343.164 312.934,-336.22"/>
<text text-anchor="middle" x="347" y="-349" font-family="Helvetica,sans-Serif" font-size="10.00"> allocator_</text>
</g>
<!-- Node5&#45;&gt;Node5 -->
<g id="edge6" class="edge"><title>Node5&#45;&gt;Node5</title>
<path fill="none" stroke="#9a32cd" stroke-dasharray="5,2" d="M225.593,-350.4C226.756,-355.315 232.558,-359 243,-359 259.707,-359 264.536,-349.565 257.488,-340.757"/>
<polygon fill="#9a32cd" stroke="#9a32cd" points="228.965,-351.342 228.512,-340.757 222.265,-349.314 228.965,-351.342"/>
<text text-anchor="middle" x="243" y="-362" font-family="Helvetica,sans-Serif" font-size="10.00"> next_</text>
</g>
<!-- Node6 -->
<g id="node6" class="node"><title>Node6</title>
<g id="a_node6"><a xlink:href="struct_urho3_d_1_1_allocator_node.html" target="_top" xlink:title="Allocator node. ">
<polygon fill="none" stroke="black" points="0,-321.5 0,-340.5 118,-340.5 118,-321.5 0,-321.5"/>
<text text-anchor="middle" x="59" y="-328.5" font-family="Helvetica,sans-Serif" font-size="10.00">Urho3D::AllocatorNode</text>
</a>
</g>
</g>
<!-- Node6&#45;&gt;Node5 -->
<g id="edge7" class="edge"><title>Node6&#45;&gt;Node5</title>
<path fill="none" stroke="#9a32cd" stroke-dasharray="5,2" d="M128.266,-331C146.34,-331 165.693,-331 183.216,-331"/>
<polygon fill="#9a32cd" stroke="#9a32cd" points="128.086,-327.5 118.086,-331 128.086,-334.5 128.086,-327.5"/>
<text text-anchor="middle" x="149" y="-334" font-family="Helvetica,sans-Serif" font-size="10.00"> free_</text>
</g>
<!-- Node6&#45;&gt;Node6 -->
<g id="edge8" class="edge"><title>Node6&#45;&gt;Node6</title>
<path fill="none" stroke="#9a32cd" stroke-dasharray="5,2" d="M42.3341,-350.4C43.4472,-355.315 49.0024,-359 59,-359 74.9961,-359 79.62,-349.565 72.8716,-340.757"/>
<polygon fill="#9a32cd" stroke="#9a32cd" points="45.7068,-351.336 45.1284,-340.757 38.9834,-349.388 45.7068,-351.336"/>
<text text-anchor="middle" x="59" y="-362" font-family="Helvetica,sans-Serif" font-size="10.00"> next_</text>
</g>
<!-- Node7&#45;&gt;Node1 -->
<g id="edge9" class="edge"><title>Node7&#45;&gt;Node1</title>
<path fill="none" stroke="#9a32cd" stroke-dasharray="5,2" d="M693.611,-339.617C728.211,-330.467 767.707,-316.803 800,-297 828.422,-279.571 853.551,-248.404 865.169,-232.663"/>
<polygon fill="#9a32cd" stroke="#9a32cd" points="692.342,-336.329 683.52,-342.197 694.075,-343.111 692.342,-336.329"/>
<text text-anchor="middle" x="751" y="-339" font-family="Helvetica,sans-Serif" font-size="10.00"> shaderRemapping_</text>
</g>
<!-- Node8&#45;&gt;Node1 -->
<g id="edge11" class="edge"><title>Node8&#45;&gt;Node1</title>
<path fill="none" stroke="#9a32cd" stroke-dasharray="5,2" d="M689.863,-285.532C724.165,-277.618 764.455,-267.189 800,-255 818.374,-248.699 838.517,-239.543 852.813,-232.637"/>
<polygon fill="#9a32cd" stroke="#9a32cd" points="688.864,-282.17 679.89,-287.802 690.417,-288.996 688.864,-282.17"/>
<text text-anchor="middle" x="751" y="-285" font-family="Helvetica,sans-Serif" font-size="10.00"> batchGroups_</text>
</g>
<!-- Node9 -->
<g id="node9" class="node"><title>Node9</title>
<g id="a_node9"><a xlink:href="class_urho3_d_1_1_p_o_d_vector.html" target="_top" xlink:title="Urho3D::PODVector\&lt;\l Urho3D::BatchGroup * \&gt;">
<polygon fill="none" stroke="black" points="545.5,-233 545.5,-263 672.5,-263 672.5,-233 545.5,-233"/>
<text text-anchor="start" x="553.5" y="-251" font-family="Helvetica,sans-Serif" font-size="10.00">Urho3D::PODVector&lt;</text>
<text text-anchor="middle" x="609" y="-240" font-family="Helvetica,sans-Serif" font-size="10.00"> Urho3D::BatchGroup * &gt;</text>
</a>
</g>
</g>
<!-- Node9&#45;&gt;Node1 -->
<g id="edge13" class="edge"><title>Node9&#45;&gt;Node1</title>
<path fill="none" stroke="#9a32cd" stroke-dasharray="5,2" d="M682.823,-241.051C725.567,-236.973 778.681,-231.904 817.738,-228.178"/>
<polygon fill="#9a32cd" stroke="#9a32cd" points="682.378,-237.578 672.756,-242.012 683.043,-244.546 682.378,-237.578"/>
<text text-anchor="middle" x="751" y="-243" font-family="Helvetica,sans-Serif" font-size="10.00"> sortedBatchGroups_</text>
</g>
<!-- Node10 -->
<g id="node10" class="node"><title>Node10</title>
<g id="a_node10"><a xlink:href="class_urho3_d_1_1_vector_base.html" target="_top" xlink:title="Vector base class. ">
<polygon fill="none" stroke="black" points="388.5,-189.5 388.5,-208.5 495.5,-208.5 495.5,-189.5 388.5,-189.5"/>
<text text-anchor="middle" x="442" y="-196.5" font-family="Helvetica,sans-Serif" font-size="10.00">Urho3D::VectorBase</text>
</a>
</g>
</g>
<!-- Node10&#45;&gt;Node9 -->
<g id="edge14" class="edge"><title>Node10&#45;&gt;Node9</title>
<path fill="none" stroke="midnightblue" d="M484.937,-211.454C506.977,-217.999 534.159,-226.071 557.365,-232.963"/>
<polygon fill="midnightblue" stroke="midnightblue" points="485.788,-208.056 475.205,-208.564 483.795,-214.766 485.788,-208.056"/>
</g>
<!-- Node11 -->
<g id="node11" class="node"><title>Node11</title>
<g id="a_node11"><a xlink:href="class_urho3_d_1_1_p_o_d_vector.html" target="_top" xlink:title="Urho3D::PODVector\&lt;\l Urho3D::Batch \&gt;">
<polygon fill="none" stroke="black" points="552.5,-184 552.5,-214 665.5,-214 665.5,-184 552.5,-184"/>
<text text-anchor="start" x="560.5" y="-202" font-family="Helvetica,sans-Serif" font-size="10.00">Urho3D::PODVector&lt;</text>
<text text-anchor="middle" x="609" y="-191" font-family="Helvetica,sans-Serif" font-size="10.00"> Urho3D::Batch &gt;</text>
</a>
</g>
</g>
<!-- Node10&#45;&gt;Node11 -->
<g id="edge16" class="edge"><title>Node10&#45;&gt;Node11</title>
<path fill="none" stroke="midnightblue" d="M506.053,-199C521.321,-199 537.531,-199 552.426,-199"/>
<polygon fill="midnightblue" stroke="midnightblue" points="505.661,-195.5 495.661,-199 505.661,-202.5 505.661,-195.5"/>
</g>
<!-- Node14 -->
<g id="node14" class="node"><title>Node14</title>
<g id="a_node14"><a xlink:href="class_urho3_d_1_1_p_o_d_vector.html" target="_top" xlink:title="Urho3D::PODVector\&lt;\l Urho3D::Batch * \&gt;">
<polygon fill="none" stroke="black" points="552.5,-135 552.5,-165 665.5,-165 665.5,-135 552.5,-135"/>
<text text-anchor="start" x="560.5" y="-153" font-family="Helvetica,sans-Serif" font-size="10.00">Urho3D::PODVector&lt;</text>
<text text-anchor="middle" x="609" y="-142" font-family="Helvetica,sans-Serif" font-size="10.00"> Urho3D::Batch * &gt;</text>
</a>
</g>
</g>
<!-- Node10&#45;&gt;Node14 -->
<g id="edge22" class="edge"><title>Node10&#45;&gt;Node14</title>
<path fill="none" stroke="midnightblue" d="M484.937,-186.546C506.977,-180.001 534.159,-171.929 557.365,-165.037"/>
<polygon fill="midnightblue" stroke="midnightblue" points="483.795,-183.234 475.205,-189.436 485.788,-189.944 483.795,-183.234"/>
</g>
<!-- Node11&#45;&gt;Node1 -->
<g id="edge15" class="edge"><title>Node11&#45;&gt;Node1</title>
<path fill="none" stroke="#9a32cd" stroke-dasharray="5,2" d="M675.896,-201.506C712.525,-203.314 758.88,-206.287 800,-211 806.043,-211.693 812.351,-212.547 818.613,-213.479"/>
<polygon fill="#9a32cd" stroke="#9a32cd" points="675.99,-198.006 665.835,-201.026 675.657,-204.998 675.99,-198.006"/>
<text text-anchor="middle" x="751" y="-214" font-family="Helvetica,sans-Serif" font-size="10.00"> batches_</text>
</g>
<!-- Node12 -->
<g id="node12" class="node"><title>Node12</title>
<g id="a_node12"><a xlink:href="class_urho3_d_1_1_string.html" target="_top" xlink:title="String class. ">
<polygon fill="none" stroke="black" points="568,-67.5 568,-86.5 650,-86.5 650,-67.5 568,-67.5"/>
<text text-anchor="middle" x="609" y="-74.5" font-family="Helvetica,sans-Serif" font-size="10.00">Urho3D::String</text>
</a>
</g>
</g>
<!-- Node12&#45;&gt;Node1 -->
<g id="edge17" class="edge"><title>Node12&#45;&gt;Node1</title>
<path fill="none" stroke="#9a32cd" stroke-dasharray="5,2" d="M660.145,-85.5729C700.494,-94.2232 757.306,-110.488 800,-139 830.509,-159.374 855.572,-196.105 866.332,-213.444"/>
<polygon fill="#9a32cd" stroke="#9a32cd" points="660.762,-82.1263 650.261,-83.5349 659.348,-88.9821 660.762,-82.1263"/>
<text text-anchor="middle" x="751" y="-153" font-family="Helvetica,sans-Serif" font-size="10.00"> psExtraDefines_</text>
<text text-anchor="middle" x="751" y="-142" font-family="Helvetica,sans-Serif" font-size="10.00">vsExtraDefines_</text>
</g>
<!-- Node12&#45;&gt;Node12 -->
<g id="edge18" class="edge"><title>Node12&#45;&gt;Node12</title>
<path fill="none" stroke="#9a32cd" stroke-dasharray="5,2" d="M591.593,-96.4C592.756,-101.315 598.558,-105 609,-105 625.707,-105 630.536,-95.5653 623.488,-86.7571"/>
<polygon fill="#9a32cd" stroke="#9a32cd" points="594.965,-97.3422 594.512,-86.7571 588.265,-95.3144 594.965,-97.3422"/>
<text text-anchor="middle" x="609" y="-108" font-family="Helvetica,sans-Serif" font-size="10.00"> EMPTY</text>
</g>
<!-- Node13 -->
<g id="node13" class="node"><title>Node13</title>
<g id="a_node13"><a xlink:href="class_urho3_d_1_1_string_hash.html" target="_top" xlink:title="32&#45;bit hash value for a string. ">
<polygon fill="none" stroke="black" points="556.5,-0.5 556.5,-19.5 661.5,-19.5 661.5,-0.5 556.5,-0.5"/>
<text text-anchor="middle" x="609" y="-7.5" font-family="Helvetica,sans-Serif" font-size="10.00">Urho3D::StringHash</text>
</a>
</g>
</g>
<!-- Node13&#45;&gt;Node1 -->
<g id="edge19" class="edge"><title>Node13&#45;&gt;Node1</title>
<path fill="none" stroke="#9a32cd" stroke-dasharray="5,2" d="M671.624,-13.0642C712.25,-18.0592 764.343,-30.5127 800,-61 849.124,-103.003 866.104,-185.107 870.62,-213.256"/>
<polygon fill="#9a32cd" stroke="#9a32cd" points="671.885,-9.57173 661.56,-11.9486 671.113,-16.5291 671.885,-9.57173"/>
<text text-anchor="start" x="702.5" y="-86" font-family="Helvetica,sans-Serif" font-size="10.00"> psExtraDefinesHash</text>
<text text-anchor="middle" x="751" y="-75" font-family="Helvetica,sans-Serif" font-size="10.00">_</text>
<text text-anchor="middle" x="751" y="-64" font-family="Helvetica,sans-Serif" font-size="10.00">vsExtraDefinesHash_</text>
</g>
<!-- Node13&#45;&gt;Node13 -->
<g id="edge20" class="edge"><title>Node13&#45;&gt;Node13</title>
<path fill="none" stroke="#9a32cd" stroke-dasharray="5,2" d="M591.593,-29.4C592.756,-34.3146 598.558,-38 609,-38 625.707,-38 630.536,-28.5653 623.488,-19.7571"/>
<polygon fill="#9a32cd" stroke="#9a32cd" points="594.965,-30.3422 594.512,-19.7571 588.265,-28.3144 594.965,-30.3422"/>
<text text-anchor="middle" x="609" y="-41" font-family="Helvetica,sans-Serif" font-size="10.00"> ZERO</text>
</g>
<!-- Node14&#45;&gt;Node1 -->
<g id="edge21" class="edge"><title>Node14&#45;&gt;Node1</title>
<path fill="none" stroke="#9a32cd" stroke-dasharray="5,2" d="M675.964,-159.554C712.989,-165.901 759.704,-175.565 800,-189 819.409,-195.471 840.441,-205.824 854.732,-213.407"/>
<polygon fill="#9a32cd" stroke="#9a32cd" points="676.232,-156.05 665.791,-157.851 675.076,-162.954 676.232,-156.05"/>
<text text-anchor="middle" x="751" y="-192" font-family="Helvetica,sans-Serif" font-size="10.00"> sortedBatches_</text>
</g>
</g>
</svg>
        <g id="navigator" transform="translate(0 0)" fill="#404254">
                <rect fill="#f2f5e9" fill-opacity="0.5" stroke="#606060" stroke-width=".5" x="0" y="0" width="60" height="60"/>
                <use id="zoomplus" xlink:href="#zoomPlus" x="17" y="9" onmousedown="handleZoom(evt,'in')"/>
                <use id="zoomminus" xlink:href="#zoomMin" x="42" y="9" onmousedown="handleZoom(evt,'out')"/>
                <use id="reset" xlink:href="#resetDef" x="30" y="36" onmousedown="handleReset()"/>
                <g id="arrowUp" xlink:href="#dirArrow" transform="translate(30 24)" onmousedown="handlePan(0,-1)">
                  <use xlink:href="#rim" fill="#404040">
                        <set attributeName="fill" to="#808080" begin="arrowUp.mouseover" end="arrowUp.mouseout"/>
                  </use>
                  <path fill="none" stroke="white" stroke-width="1.5" d="M0,-3.0v7 M-2.5,-0.5L0,-3.0L2.5,-0.5"/>
                </g>
                <g id="arrowRight" xlink:href="#dirArrow" transform="rotate(90) translate(36 -43)" onmousedown="handlePan(1,0)">
                  <use xlink:href="#rim" fill="#404040">
                        <set attributeName="fill" to="#808080" begin="arrowRight.mouseover" end="arrowRight.mouseout"/>
                  </use>
                  <path fill="none" stroke="white" stroke-width="1.5" d="M0,-3.0v7 M-2.5,-0.5L0,-3.0L2.5,-0.5"/>
                </g>
                <g id="arrowDown" xlink:href="#dirArrow" transform="rotate(180) translate(-30 -48)" onmousedown="handlePan(0,1)">
                  <use xlink:href="#rim" fill="#404040">
                        <set attributeName="fill" to="#808080" begin="arrowDown.mouseover" end="arrowDown.mouseout"/>
                  </use>
                  <path fill="none" stroke="white" stroke-width="1.5" d="M0,-3.0v7 M-2.5,-0.5L0,-3.0L2.5,-0.5"/>
                </g>
                <g id="arrowLeft" xlink:href="#dirArrow" transform="rotate(270) translate(-36 17)" onmousedown="handlePan(-1,0)">
                  <use xlink:href="#rim" fill="#404040">
                        <set attributeName="fill" to="#808080" begin="arrowLeft.mouseover" end="arrowLeft.mouseout"/>
                  </use>
                  <path fill="none" stroke="white" stroke-width="1.5" d="M0,-3.0v7 M-2.5,-0.5L0,-3.0L2.5,-0.5"/>
                </g>
        </g>
        <svg viewBox="0 0 15 15" width="100%" height="30px" preserveAspectRatio="xMaxYMin meet">
         <g id="arrow_out" transform="scale(0.3 0.3)">
          <a xlink:href="struct_urho3_d_1_1_batch_queue__coll__graph_org.svg" target="_base">
           <rect id="button" ry="5" rx="5" y="6" x="6" height="38" width="38"
                fill="#f2f5e9" fill-opacity="0.5" stroke="#606060" stroke-width="1.0"/>
           <path id="arrow"
             d="M 11.500037,31.436501 C 11.940474,20.09759 22.043105,11.32322 32.158766,21.979434 L 37.068811,17.246167 C 37.068811,17.246167 37.088388,32 37.088388,32 L 22.160133,31.978069 C 22.160133,31.978069 26.997745,27.140456 26.997745,27.140456 C 18.528582,18.264221 13.291696,25.230495 11.500037,31.436501 z"
             style="fill:#404040;"/>
          </a>
         </g>
        </svg>
</svg>
