<?xml version="1.0" encoding="UTF-8" standalone="no"?>
<!DOCTYPE svg PUBLIC "-//W3C//DTD SVG 1.1//EN"
 "http://www.w3.org/Graphics/SVG/1.1/DTD/svg11.dtd">
<!-- Generated by graphviz version 2.40.1 (20161225.0304)
 -->
<!-- Title: Urho3D::BatchGroupKey Pages: 1 -->
<svg width="1699pt" height="665pt"
 viewBox="0.00 0.00 1699.00 665.00" xmlns="http://www.w3.org/2000/svg" xmlns:xlink="http://www.w3.org/1999/xlink">
<g id="graph0" class="graph" transform="scale(1 1) rotate(0) translate(4 661)">
<title>Urho3D::BatchGroupKey</title>
<!-- Node1 -->
<g id="node1" class="node">
<title>Node1</title>
<polygon fill="#bfbfbf" stroke="#000000" points="1550,-357 1550,-376 1684,-376 1684,-357 1550,-357"/>
<text text-anchor="middle" x="1617" y="-364" font-family="Helvetica,sans-Serif" font-size="10.00" fill="#000000">Urho3D::BatchGroupKey</text>
</g>
<!-- Node2 -->
<g id="node2" class="node">
<title>Node2</title>
<g id="a_node2"><a xlink:href="struct_urho3_d_1_1_light_batch_queue.html" target="_top" xlink:title="Queue for light related draw calls. ">
<polygon fill="none" stroke="#000000" points="458,-402 458,-421 601,-421 601,-402 458,-402"/>
<text text-anchor="middle" x="529.5" y="-409" font-family="Helvetica,sans-Serif" font-size="10.00" fill="#000000">Urho3D::LightBatchQueue</text>
</a>
</g>
</g>
<!-- Node2&#45;&gt;Node1 -->
<g id="edge1" class="edge">
<title>Node2&#45;&gt;Node1</title>
<path fill="none" stroke="#9a32cd" stroke-dasharray="5,2" d="M578.6633,-399.7135C638.6739,-386.3805 743.4245,-366.5 834.5,-366.5 834.5,-366.5 834.5,-366.5 1344.5,-366.5 1414.5174,-366.5 1494.6544,-366.5 1549.8085,-366.5"/>
<polygon fill="#9a32cd" stroke="#9a32cd" points="577.6948,-396.3439 568.7088,-401.9567 579.2336,-403.1727 577.6948,-396.3439"/>
<text text-anchor="middle" x="1148" y="-369.5" font-family="Helvetica,sans-Serif" font-size="10.00" fill="#000000"> lightQueue_</text>
</g>
<!-- Node93 -->
<g id="node8" class="node">
<title>Node93</title>
<g id="a_node8"><a xlink:href="class_urho3_d_1_1_light.html" target="_top" xlink:title="Light component. ">
<polygon fill="none" stroke="#ff0000" points="793,-415 793,-434 876,-434 876,-415 793,-415"/>
<text text-anchor="middle" x="834.5" y="-422" font-family="Helvetica,sans-Serif" font-size="10.00" fill="#000000">Urho3D::Light</text>
</a>
</g>
</g>
<!-- Node2&#45;&gt;Node93 -->
<g id="edge23" class="edge">
<title>Node2&#45;&gt;Node93</title>
<path fill="none" stroke="#9a32cd" stroke-dasharray="5,2" d="M611.0015,-414.9738C669.6754,-417.4747 746.4001,-420.7449 792.9856,-422.7305"/>
<polygon fill="#9a32cd" stroke="#9a32cd" points="611.149,-411.477 601.0089,-414.5479 610.8508,-418.4707 611.149,-411.477"/>
<text text-anchor="middle" x="666" y="-421.5" font-family="Helvetica,sans-Serif" font-size="10.00" fill="#000000"> lightQueue_</text>
</g>
<!-- Node3 -->
<g id="node3" class="node">
<title>Node3</title>
<g id="a_node3"><a xlink:href="class_urho3_d_1_1_p_o_d_vector.html" target="_top" xlink:title="Urho3D::PODVector\&lt;\l Urho3D::Light *\&gt;">
<polygon fill="none" stroke="#ff0000" points="211.5,-297.5 211.5,-327.5 330.5,-327.5 330.5,-297.5 211.5,-297.5"/>
<text text-anchor="start" x="219.5" y="-315.5" font-family="Helvetica,sans-Serif" font-size="10.00" fill="#000000">Urho3D::PODVector&lt;</text>
<text text-anchor="middle" x="271" y="-304.5" font-family="Helvetica,sans-Serif" font-size="10.00" fill="#000000"> Urho3D::Light *&gt;</text>
</a>
</g>
</g>
<!-- Node3&#45;&gt;Node2 -->
<g id="edge2" class="edge">
<title>Node3&#45;&gt;Node2</title>
<path fill="none" stroke="#9a32cd" stroke-dasharray="5,2" d="M340.9595,-309.4321C374.3539,-311.5301 412.8495,-319.61 440,-342.5 458.0573,-357.7237 440.5982,-376.5311 458,-392.5 462.1639,-396.321 467.0086,-399.3898 472.1771,-401.8521"/>
<polygon fill="#9a32cd" stroke="#9a32cd" points="340.9281,-305.927 330.7777,-308.9633 340.6061,-312.9196 340.9281,-305.927"/>
<text text-anchor="middle" x="399" y="-345.5" font-family="Helvetica,sans-Serif" font-size="10.00" fill="#000000"> vertexLights_</text>
</g>
<!-- Node94 -->
<g id="node9" class="node">
<title>Node94</title>
<g id="a_node9"><a xlink:href="class_urho3_d_1_1_drawable.html" target="_top" xlink:title="Base class for visible components. ">
<polygon fill="none" stroke="#ff0000" points="1095,-418 1095,-437 1201,-437 1201,-418 1095,-418"/>
<text text-anchor="middle" x="1148" y="-425" font-family="Helvetica,sans-Serif" font-size="10.00" fill="#000000">Urho3D::Drawable</text>
</a>
</g>
</g>
<!-- Node3&#45;&gt;Node94 -->
<g id="edge10" class="edge">
<title>Node3&#45;&gt;Node94</title>
<path fill="none" stroke="#9a32cd" stroke-dasharray="5,2" d="M341.152,-309.8721C346.8515,-309.7222 352.5223,-309.5944 358,-309.5 394.439,-308.8719 403.5599,-308.9343 440,-309.5 511.5814,-310.6112 529.6774,-308.3172 601,-314.5 805.8712,-332.2598 856.7806,-347.5172 1056,-398.5 1077.9025,-404.1051 1102.2892,-411.8633 1120.449,-417.9449"/>
<polygon fill="#9a32cd" stroke="#9a32cd" points="340.7943,-306.3808 330.8977,-310.1633 340.993,-313.378 340.7943,-306.3808"/>
<text text-anchor="middle" x="666" y="-339.5" font-family="Helvetica,sans-Serif" font-size="10.00" fill="#000000"> vertexLights_</text>
<text text-anchor="middle" x="666" y="-328.5" font-family="Helvetica,sans-Serif" font-size="10.00" fill="#000000">lights_</text>
</g>
<!-- Node5 -->
<g id="node4" class="node">
<title>Node5</title>
<g id="a_node4"><a xlink:href="class_urho3_d_1_1_vector.html" target="_top" xlink:title="Urho3D::Vector\&lt; Urho3D\l::ShadowBatchQueue \&gt;">
<polygon fill="none" stroke="#ff0000" points="202,-436.5 202,-466.5 340,-466.5 340,-436.5 202,-436.5"/>
<text text-anchor="start" x="210" y="-454.5" font-family="Helvetica,sans-Serif" font-size="10.00" fill="#000000">Urho3D::Vector&lt; Urho3D</text>
<text text-anchor="middle" x="271" y="-443.5" font-family="Helvetica,sans-Serif" font-size="10.00" fill="#000000">::ShadowBatchQueue &gt;</text>
</a>
</g>
</g>
<!-- Node5&#45;&gt;Node2 -->
<g id="edge3" class="edge">
<title>Node5&#45;&gt;Node2</title>
<path fill="none" stroke="#9a32cd" stroke-dasharray="5,2" d="M350.478,-442.3014C378.7969,-438.7208 410.882,-434.3174 440,-429.5 454.6986,-427.0682 470.6699,-423.9954 484.9975,-421.0801"/>
<polygon fill="#9a32cd" stroke="#9a32cd" points="349.7162,-438.8693 340.2275,-443.5826 350.5844,-445.8153 349.7162,-438.8693"/>
<text text-anchor="middle" x="399" y="-443.5" font-family="Helvetica,sans-Serif" font-size="10.00" fill="#000000"> shadowSplits_</text>
</g>
<!-- Node6 -->
<g id="node5" class="node">
<title>Node6</title>
<g id="a_node5"><a xlink:href="struct_urho3_d_1_1_batch_queue.html" target="_top" xlink:title="Queue that contains both instanced and non&#45;instanced draw calls. ">
<polygon fill="none" stroke="#ff0000" points="211.5,-397 211.5,-416 330.5,-416 330.5,-397 211.5,-397"/>
<text text-anchor="middle" x="271" y="-404" font-family="Helvetica,sans-Serif" font-size="10.00" fill="#000000">Urho3D::BatchQueue</text>
</a>
</g>
</g>
<!-- Node6&#45;&gt;Node2 -->
<g id="edge4" class="edge">
<title>Node6&#45;&gt;Node2</title>
<path fill="none" stroke="#9a32cd" stroke-dasharray="5,2" d="M340.9351,-406.3065C371.3734,-406.3793 407.4547,-406.6768 440,-407.5 445.753,-407.6455 451.7127,-407.8325 457.699,-408.046"/>
<polygon fill="#9a32cd" stroke="#9a32cd" points="340.8479,-402.8064 330.8422,-406.29 340.8364,-409.8064 340.8479,-402.8064"/>
<text text-anchor="middle" x="399" y="-421.5" font-family="Helvetica,sans-Serif" font-size="10.00" fill="#000000"> litBaseBatches_</text>
<text text-anchor="middle" x="399" y="-410.5" font-family="Helvetica,sans-Serif" font-size="10.00" fill="#000000">litBatches_</text>
</g>
<!-- Node15 -->
<g id="node6" class="node">
<title>Node15</title>
<g id="a_node6"><a xlink:href="class_urho3_d_1_1_p_o_d_vector.html" target="_top" xlink:title="Urho3D::PODVector\&lt;\l Urho3D::Batch \&gt;">
<polygon fill="none" stroke="#ff0000" points="0,-368.5 0,-398.5 119,-398.5 119,-368.5 0,-368.5"/>
<text text-anchor="start" x="8" y="-386.5" font-family="Helvetica,sans-Serif" font-size="10.00" fill="#000000">Urho3D::PODVector&lt;</text>
<text text-anchor="middle" x="59.5" y="-375.5" font-family="Helvetica,sans-Serif" font-size="10.00" fill="#000000"> Urho3D::Batch &gt;</text>
</a>
</g>
</g>
<!-- Node15&#45;&gt;Node2 -->
<g id="edge7" class="edge">
<title>Node15&#45;&gt;Node2</title>
<path fill="none" stroke="#9a32cd" stroke-dasharray="5,2" d="M129.1852,-379.392C152.3438,-378.2095 178.273,-377.0824 202,-376.5 263.3149,-374.9949 278.9222,-370.9069 340,-376.5 392.3067,-381.2899 451.7295,-393.3687 489.8668,-401.9945"/>
<polygon fill="#9a32cd" stroke="#9a32cd" points="128.9057,-375.9017 119.1021,-379.919 129.2712,-382.8922 128.9057,-375.9017"/>
<text text-anchor="middle" x="271" y="-379.5" font-family="Helvetica,sans-Serif" font-size="10.00" fill="#000000"> volumeBatches_</text>
</g>
<!-- Node15&#45;&gt;Node6 -->
<g id="edge5" class="edge">
<title>Node15&#45;&gt;Node6</title>
<path fill="none" stroke="#9a32cd" stroke-dasharray="5,2" d="M129.258,-391.086C155.8293,-393.9755 185.8428,-397.2394 211.3883,-400.0174"/>
<polygon fill="#9a32cd" stroke="#9a32cd" points="129.5792,-387.6004 119.2593,-389.9987 128.8223,-394.5593 129.5792,-387.6004"/>
<text text-anchor="middle" x="160.5" y="-398.5" font-family="Helvetica,sans-Serif" font-size="10.00" fill="#000000"> batches_</text>
</g>
<!-- Node19 -->
<g id="node7" class="node">
<title>Node19</title>
<g id="a_node7"><a xlink:href="class_urho3_d_1_1_texture2_d.html" target="_top" xlink:title="2D texture resource. ">
<polygon fill="none" stroke="#ff0000" points="216.5,-486 216.5,-505 325.5,-505 325.5,-486 216.5,-486"/>
<text text-anchor="middle" x="271" y="-493" font-family="Helvetica,sans-Serif" font-size="10.00" fill="#000000">Urho3D::Texture2D</text>
</a>
</g>
</g>
<!-- Node19&#45;&gt;Node2 -->
<g id="edge6" class="edge">
<title>Node19&#45;&gt;Node2</title>
<path fill="none" stroke="#9a32cd" stroke-dasharray="5,2" d="M335.4337,-487.9009C368.117,-482.1856 407.6363,-472.3294 440,-455.5 449.4964,-450.5618 448.8746,-445.0942 458,-439.5 470.3883,-431.9056 485.1894,-425.7021 498.1028,-421.082"/>
<polygon fill="#9a32cd" stroke="#9a32cd" points="334.8178,-484.4552 325.5256,-489.5448 335.9636,-491.3608 334.8178,-484.4552"/>
<text text-anchor="middle" x="399" y="-485.5" font-family="Helvetica,sans-Serif" font-size="10.00" fill="#000000"> shadowMap_</text>
</g>
<!-- Node93&#45;&gt;Node2 -->
<g id="edge8" class="edge">
<title>Node93&#45;&gt;Node2</title>
<path fill="none" stroke="#9a32cd" stroke-dasharray="5,2" d="M786.361,-412.7462C764.1736,-407.9097 737.4026,-402.8871 713,-400.5 671.4207,-396.4327 660.6997,-397.9471 619,-400.5 612.9059,-400.8731 606.5915,-401.3878 600.2652,-401.9923"/>
<polygon fill="#9a32cd" stroke="#9a32cd" points="785.6852,-416.1815 796.2076,-414.9452 787.2109,-409.3498 785.6852,-416.1815"/>
<text text-anchor="middle" x="666" y="-403.5" font-family="Helvetica,sans-Serif" font-size="10.00" fill="#000000"> light_</text>
</g>
<!-- Node93&#45;&gt;Node94 -->
<g id="edge21" class="edge">
<title>Node93&#45;&gt;Node94</title>
<path fill="none" stroke="#9a32cd" stroke-dasharray="5,2" d="M886.2208,-424.4819C931.1126,-424.5263 997.8527,-424.7368 1056,-425.5 1068.6199,-425.6656 1082.2122,-425.9195 1094.9748,-426.1914"/>
<polygon fill="#9a32cd" stroke="#9a32cd" points="886.145,-420.9819 876.1424,-424.4743 886.1397,-427.9819 886.145,-420.9819"/>
<text text-anchor="middle" x="1006" y="-428.5" font-family="Helvetica,sans-Serif" font-size="10.00" fill="#000000"> firstLight_</text>
</g>
<!-- Node94&#45;&gt;Node93 -->
<g id="edge9" class="edge">
<title>Node94&#45;&gt;Node93</title>
<path fill="none" stroke="#191970" d="M1106.1082,-415.2911C1090.521,-411.3309 1072.5899,-407.456 1056,-405.5 993.5212,-398.1335 920.8067,-407.8506 876.2207,-415.8828"/>
<polygon fill="#191970" stroke="#191970" points="1105.4138,-418.7274 1115.9752,-417.8864 1107.1945,-411.9576 1105.4138,-418.7274"/>
</g>
<!-- Node157 -->
<g id="node10" class="node">
<title>Node157</title>
<g id="a_node10"><a xlink:href="class_urho3_d_1_1_zone.html" target="_top" xlink:title="Component that describes global rendering properties. ">
<polygon fill="none" stroke="#000000" points="1302.5,-459 1302.5,-478 1386.5,-478 1386.5,-459 1302.5,-459"/>
<text text-anchor="middle" x="1344.5" y="-466" font-family="Helvetica,sans-Serif" font-size="10.00" fill="#000000">Urho3D::Zone</text>
</a>
</g>
</g>
<!-- Node94&#45;&gt;Node157 -->
<g id="edge12" class="edge">
<title>Node94&#45;&gt;Node157</title>
<path fill="none" stroke="#191970" d="M1189.6445,-439.8909C1205.3336,-444.2747 1223.3963,-448.9848 1240,-452.5 1260.3798,-456.8146 1283.2298,-460.4485 1302.3535,-463.1571"/>
<polygon fill="#191970" stroke="#191970" points="1190.2922,-436.4365 1179.7165,-437.0731 1188.3808,-443.1706 1190.2922,-436.4365"/>
</g>
<!-- Node157&#45;&gt;Node1 -->
<g id="edge27" class="edge">
<title>Node157&#45;&gt;Node1</title>
<path fill="none" stroke="#9a32cd" stroke-dasharray="5,2" d="M1386.7293,-455.8723C1423.6034,-444.5127 1478.3677,-426.8337 1525,-408.5 1550.491,-398.4781 1579.0779,-385.0742 1597.5219,-376.1316"/>
<polygon fill="#9a32cd" stroke="#9a32cd" points="1385.3625,-452.6302 1376.8249,-458.904 1387.4114,-459.3237 1385.3625,-452.6302"/>
<text text-anchor="middle" x="1468.5" y="-449.5" font-family="Helvetica,sans-Serif" font-size="10.00" fill="#000000"> zone_</text>
</g>
<!-- Node157&#45;&gt;Node94 -->
<g id="edge11" class="edge">
<title>Node157&#45;&gt;Node94</title>
<path fill="none" stroke="#9a32cd" stroke-dasharray="5,2" d="M1315.3287,-454.8122C1303.6471,-449.8695 1289.9164,-444.7199 1277,-441.5 1252.5186,-435.3972 1224.767,-431.9546 1201.2925,-430.0127"/>
<polygon fill="#9a32cd" stroke="#9a32cd" points="1314.0321,-458.0652 1324.5964,-458.8685 1316.8389,-451.6525 1314.0321,-458.0652"/>
<text text-anchor="middle" x="1258.5" y="-444.5" font-family="Helvetica,sans-Serif" font-size="10.00" fill="#000000"> zone_</text>
</g>
<!-- Node158 -->
<g id="node11" class="node">
<title>Node158</title>
<g id="a_node11"><a xlink:href="class_urho3_d_1_1_weak_ptr.html" target="_top" xlink:title="Urho3D::WeakPtr\&lt; Urho3D\l::Zone \&gt;">
<polygon fill="none" stroke="#ff0000" points="1543,-470.5 1543,-500.5 1691,-500.5 1691,-470.5 1543,-470.5"/>
<text text-anchor="start" x="1551" y="-488.5" font-family="Helvetica,sans-Serif" font-size="10.00" fill="#000000">Urho3D::WeakPtr&lt; Urho3D</text>
<text text-anchor="middle" x="1617" y="-477.5" font-family="Helvetica,sans-Serif" font-size="10.00" fill="#000000">::Zone &gt;</text>
</a>
</g>
</g>
<!-- Node157&#45;&gt;Node158 -->
<g id="edge14" class="edge">
<title>Node157&#45;&gt;Node158</title>
<path fill="none" stroke="#9a32cd" stroke-dasharray="5,2" d="M1396.9868,-467.6465C1402.0604,-467.5868 1407.129,-467.5361 1412,-467.5 1462.2208,-467.128 1475.0119,-462.6558 1525,-467.5 1532.4516,-468.2221 1540.1958,-469.2659 1547.8867,-470.4924"/>
<polygon fill="#9a32cd" stroke="#9a32cd" points="1396.5814,-464.1513 1386.6273,-467.7796 1396.6715,-471.1507 1396.5814,-464.1513"/>
<text text-anchor="middle" x="1468.5" y="-470.5" font-family="Helvetica,sans-Serif" font-size="10.00" fill="#000000"> ptr_</text>
</g>
<!-- Node158&#45;&gt;Node157 -->
<g id="edge13" class="edge">
<title>Node158&#45;&gt;Node157</title>
<path fill="none" stroke="#9a32cd" stroke-dasharray="5,2" d="M1532.5572,-486.3134C1495.4883,-485.9299 1451.5015,-484.4699 1412,-480.5 1403.8284,-479.6788 1395.1582,-478.4285 1386.8517,-477.0401"/>
<polygon fill="#9a32cd" stroke="#9a32cd" points="1532.7923,-489.8153 1542.8196,-486.3942 1532.8475,-482.8155 1532.7923,-489.8153"/>
<text text-anchor="start" x="1412" y="-510.5" font-family="Helvetica,sans-Serif" font-size="10.00" fill="#000000"> lastAmbientEndZone</text>
<text text-anchor="middle" x="1468.5" y="-499.5" font-family="Helvetica,sans-Serif" font-size="10.00" fill="#000000">_</text>
<text text-anchor="middle" x="1468.5" y="-488.5" font-family="Helvetica,sans-Serif" font-size="10.00" fill="#000000">lastAmbientStartZone_</text>
</g>
<!-- Node88 -->
<g id="node12" class="node">
<title>Node88</title>
<g id="a_node12"><a xlink:href="class_urho3_d_1_1_shared_ptr.html" target="_top" xlink:title="Urho3D::SharedPtr\&lt;\l Urho3D::Texture \&gt;">
<polygon fill="none" stroke="#ff0000" points="472,-626.5 472,-656.5 587,-656.5 587,-626.5 472,-626.5"/>
<text text-anchor="start" x="480" y="-644.5" font-family="Helvetica,sans-Serif" font-size="10.00" fill="#000000">Urho3D::SharedPtr&lt;</text>
<text text-anchor="middle" x="529.5" y="-633.5" font-family="Helvetica,sans-Serif" font-size="10.00" fill="#000000"> Urho3D::Texture &gt;</text>
</a>
</g>
</g>
<!-- Node88&#45;&gt;Node93 -->
<g id="edge24" class="edge">
<title>Node88&#45;&gt;Node93</title>
<path fill="none" stroke="#9a32cd" stroke-dasharray="5,2" d="M592.035,-622.0068C595.1512,-620.3075 598.1612,-618.4747 601,-616.5 605.6481,-613.2667 726.3353,-462.7094 731,-459.5 749.4397,-446.813 772.8703,-438.3856 792.773,-432.9865"/>
<polygon fill="#9a32cd" stroke="#9a32cd" points="590.4474,-618.8872 583.0263,-626.4488 593.5431,-625.1655 590.4474,-618.8872"/>
<text text-anchor="middle" x="666" y="-606.5" font-family="Helvetica,sans-Serif" font-size="10.00" fill="#000000"> shapeTexture_</text>
<text text-anchor="middle" x="666" y="-595.5" font-family="Helvetica,sans-Serif" font-size="10.00" fill="#000000">rampTexture_</text>
</g>
<!-- Node88&#45;&gt;Node157 -->
<g id="edge15" class="edge">
<title>Node88&#45;&gt;Node157</title>
<path fill="none" stroke="#9a32cd" stroke-dasharray="5,2" d="M597.1237,-633.7931C631.8464,-629.548 674.7785,-623.8544 713,-617.5 965.2733,-575.5588 1035.8098,-588.5185 1277,-503.5 1295.6744,-496.9173 1315.6391,-486.0324 1328.9706,-478.147"/>
<polygon fill="#9a32cd" stroke="#9a32cd" points="596.6003,-630.3308 587.0934,-635.0071 597.4415,-637.2801 596.6003,-630.3308"/>
<text text-anchor="middle" x="1006" y="-585.5" font-family="Helvetica,sans-Serif" font-size="10.00" fill="#000000"> zoneTexture_</text>
</g>
<!-- Node159 -->
<g id="node13" class="node">
<title>Node159</title>
<g id="a_node13"><a xlink:href="class_urho3_d_1_1_bounding_box.html" target="_top" xlink:title="Three&#45;dimensional axis&#45;aligned bounding box. ">
<polygon fill="none" stroke="#ff0000" points="772.5,-469 772.5,-488 896.5,-488 896.5,-469 772.5,-469"/>
<text text-anchor="middle" x="834.5" y="-476" font-family="Helvetica,sans-Serif" font-size="10.00" fill="#000000">Urho3D::BoundingBox</text>
</a>
</g>
</g>
<!-- Node159&#45;&gt;Node94 -->
<g id="edge22" class="edge">
<title>Node159&#45;&gt;Node94</title>
<path fill="none" stroke="#9a32cd" stroke-dasharray="5,2" d="M903.2235,-467.3201C960.9063,-457.9363 1042.1225,-444.7241 1094.9098,-436.1367"/>
<polygon fill="#9a32cd" stroke="#9a32cd" points="902.4074,-463.9068 893.0992,-468.9671 903.5315,-470.8159 902.4074,-463.9068"/>
<text text-anchor="middle" x="1006" y="-471.5" font-family="Helvetica,sans-Serif" font-size="10.00" fill="#000000"> worldBoundingBox_</text>
<text text-anchor="middle" x="1006" y="-460.5" font-family="Helvetica,sans-Serif" font-size="10.00" fill="#000000">boundingBox_</text>
</g>
<!-- Node159&#45;&gt;Node157 -->
<g id="edge16" class="edge">
<title>Node159&#45;&gt;Node157</title>
<path fill="none" stroke="#9a32cd" stroke-dasharray="5,2" d="M907.0566,-480.5846C923.169,-480.9658 940.1637,-481.3045 956,-481.5 1000.4411,-482.0486 1011.5668,-482.5006 1056,-481.5 1143.7186,-479.5247 1246.3256,-474.1751 1302.4748,-470.9876"/>
<polygon fill="#9a32cd" stroke="#9a32cd" points="906.6995,-477.0749 896.6168,-480.329 906.5281,-484.0728 906.6995,-477.0749"/>
<text text-anchor="middle" x="1148" y="-483.5" font-family="Helvetica,sans-Serif" font-size="10.00" fill="#000000"> lastWorldBoundingBox_</text>
</g>
<!-- Node89 -->
<g id="node14" class="node">
<title>Node89</title>
<g id="a_node14"><a xlink:href="class_urho3_d_1_1_color.html" target="_top" xlink:title="RGBA color. ">
<polygon fill="none" stroke="#ff0000" points="487,-449 487,-468 572,-468 572,-449 487,-449"/>
<text text-anchor="middle" x="529.5" y="-456" font-family="Helvetica,sans-Serif" font-size="10.00" fill="#000000">Urho3D::Color</text>
</a>
</g>
</g>
<!-- Node89&#45;&gt;Node93 -->
<g id="edge25" class="edge">
<title>Node89&#45;&gt;Node93</title>
<path fill="none" stroke="#9a32cd" stroke-dasharray="5,2" d="M582.2,-452.6252C641.8319,-445.9778 737.7624,-435.2839 792.5486,-429.1766"/>
<polygon fill="#9a32cd" stroke="#9a32cd" points="581.7807,-449.1502 572.2301,-453.7366 582.5563,-456.1071 581.7807,-449.1502"/>
<text text-anchor="middle" x="666" y="-450.5" font-family="Helvetica,sans-Serif" font-size="10.00" fill="#000000"> color_</text>
</g>
<!-- Node89&#45;&gt;Node157 -->
<g id="edge17" class="edge">
<title>Node89&#45;&gt;Node157</title>
<path fill="none" stroke="#9a32cd" stroke-dasharray="5,2" d="M576.9507,-470.3479C617.5484,-479.8415 677.702,-492.3896 731,-497.5 772.147,-501.4454 1197.2596,-497.5986 1222,-495.5 1253.1393,-492.8587 1287.8596,-484.6948 1312.3619,-478.0296"/>
<polygon fill="#9a32cd" stroke="#9a32cd" points="577.6041,-466.9059 567.0666,-468.0065 575.9905,-473.7174 577.6041,-466.9059"/>
<text text-anchor="middle" x="1006" y="-534.5" font-family="Helvetica,sans-Serif" font-size="10.00" fill="#000000"> ambientEndColor_</text>
<text text-anchor="middle" x="1006" y="-523.5" font-family="Helvetica,sans-Serif" font-size="10.00" fill="#000000">fogColor_</text>
<text text-anchor="middle" x="1006" y="-512.5" font-family="Helvetica,sans-Serif" font-size="10.00" fill="#000000">ambientColor_</text>
<text text-anchor="middle" x="1006" y="-501.5" font-family="Helvetica,sans-Serif" font-size="10.00" fill="#000000">ambientStartColor_</text>
</g>
<!-- Node89&#45;&gt;Node89 -->
<g id="edge18" class="edge">
<title>Node89&#45;&gt;Node89</title>
<path fill="none" stroke="#9a32cd" stroke-dasharray="5,2" d="M505.3186,-477.5292C506.6376,-482.628 514.6981,-486.5 529.5,-486.5 552.6055,-486.5 559.2844,-477.0653 549.5368,-468.2571"/>
<polygon fill="#9a32cd" stroke="#9a32cd" points="508.5776,-478.8148 509.4632,-468.2571 502.187,-475.9582 508.5776,-478.8148"/>
<text text-anchor="middle" x="529.5" y="-599.5" font-family="Helvetica,sans-Serif" font-size="10.00" fill="#000000"> TRANSPARENT_BLACK</text>
<text text-anchor="middle" x="529.5" y="-588.5" font-family="Helvetica,sans-Serif" font-size="10.00" fill="#000000">CYAN</text>
<text text-anchor="middle" x="529.5" y="-577.5" font-family="Helvetica,sans-Serif" font-size="10.00" fill="#000000">GRAY</text>
<text text-anchor="middle" x="529.5" y="-566.5" font-family="Helvetica,sans-Serif" font-size="10.00" fill="#000000">YELLOW</text>
<text text-anchor="middle" x="529.5" y="-555.5" font-family="Helvetica,sans-Serif" font-size="10.00" fill="#000000">MAGENTA</text>
<text text-anchor="middle" x="529.5" y="-544.5" font-family="Helvetica,sans-Serif" font-size="10.00" fill="#000000">WHITE</text>
<text text-anchor="middle" x="529.5" y="-533.5" font-family="Helvetica,sans-Serif" font-size="10.00" fill="#000000">BLUE</text>
<text text-anchor="middle" x="529.5" y="-522.5" font-family="Helvetica,sans-Serif" font-size="10.00" fill="#000000">BLACK</text>
<text text-anchor="middle" x="529.5" y="-511.5" font-family="Helvetica,sans-Serif" font-size="10.00" fill="#000000">RED</text>
<text text-anchor="middle" x="529.5" y="-500.5" font-family="Helvetica,sans-Serif" font-size="10.00" fill="#000000">GREEN</text>
<text text-anchor="middle" x="529.5" y="-489.5" font-family="Helvetica,sans-Serif" font-size="10.00" fill="#000000">...</text>
</g>
<!-- Node156 -->
<g id="node15" class="node">
<title>Node156</title>
<g id="a_node15"><a xlink:href="class_urho3_d_1_1_matrix3x4.html" target="_top" xlink:title="3x4 matrix for scene node transform calculations. ">
<polygon fill="none" stroke="#000000" points="475.5,-324 475.5,-343 583.5,-343 583.5,-324 475.5,-324"/>
<text text-anchor="middle" x="529.5" y="-331" font-family="Helvetica,sans-Serif" font-size="10.00" fill="#000000">Urho3D::Matrix3x4</text>
</a>
</g>
</g>
<!-- Node156&#45;&gt;Node93 -->
<g id="edge26" class="edge">
<title>Node156&#45;&gt;Node93</title>
<path fill="none" stroke="#9a32cd" stroke-dasharray="5,2" d="M578.4454,-345.5504C615.5679,-354.9361 667.75,-368.657 713,-382.5 746.2937,-392.6853 784.1283,-406.0534 808.6063,-414.9432"/>
<polygon fill="#9a32cd" stroke="#9a32cd" points="578.9443,-342.067 568.3925,-343.0217 577.2366,-348.8555 578.9443,-342.067"/>
<text text-anchor="middle" x="666" y="-385.5" font-family="Helvetica,sans-Serif" font-size="10.00" fill="#000000"> volumeTransform_</text>
</g>
<!-- Node156&#45;&gt;Node157 -->
<g id="edge19" class="edge">
<title>Node156&#45;&gt;Node157</title>
<path fill="none" stroke="#9a32cd" stroke-dasharray="5,2" d="M570.6669,-321.1787C585.7269,-317.2582 602.9962,-313.4381 619,-311.5 660.4748,-306.4773 671.2441,-310.1478 713,-311.5 939.5784,-318.8372 1017.3609,-246.958 1222,-344.5 1265.1546,-365.0698 1261.0588,-389.8336 1295,-423.5 1307.6984,-436.0956 1323.032,-449.8216 1333.235,-458.7599"/>
<polygon fill="#9a32cd" stroke="#9a32cd" points="569.3783,-317.9013 560.6365,-323.8871 571.2032,-324.6592 569.3783,-317.9013"/>
<text text-anchor="middle" x="1006" y="-298.5" font-family="Helvetica,sans-Serif" font-size="10.00" fill="#000000"> inverseWorld_</text>
</g>
<!-- Node156&#45;&gt;Node156 -->
<g id="edge20" class="edge">
<title>Node156&#45;&gt;Node156</title>
<path fill="none" stroke="#9a32cd" stroke-dasharray="5,2" d="M505.3186,-352.5292C506.6376,-357.628 514.6981,-361.5 529.5,-361.5 552.6055,-361.5 559.2844,-352.0653 549.5368,-343.2571"/>
<polygon fill="#9a32cd" stroke="#9a32cd" points="508.5776,-353.8148 509.4632,-343.2571 502.187,-350.9582 508.5776,-353.8148"/>
<text text-anchor="middle" x="529.5" y="-375.5" font-family="Helvetica,sans-Serif" font-size="10.00" fill="#000000"> IDENTITY</text>
<text text-anchor="middle" x="529.5" y="-364.5" font-family="Helvetica,sans-Serif" font-size="10.00" fill="#000000">ZERO</text>
</g>
<!-- Node168 -->
<g id="node16" class="node">
<title>Node168</title>
<g id="a_node16"><a xlink:href="class_urho3_d_1_1_geometry.html" target="_top" xlink:title="Defines one or more vertex buffers, an index buffer and a draw range. ">
<polygon fill="none" stroke="#000000" points="1094,-116 1094,-135 1202,-135 1202,-116 1094,-116"/>
<text text-anchor="middle" x="1148" y="-123" font-family="Helvetica,sans-Serif" font-size="10.00" fill="#000000">Urho3D::Geometry</text>
</a>
</g>
</g>
<!-- Node168&#45;&gt;Node1 -->
<g id="edge28" class="edge">
<title>Node168&#45;&gt;Node1</title>
<path fill="none" stroke="#9a32cd" stroke-dasharray="5,2" d="M1212.2602,-133.895C1292.8587,-147.2446 1431.768,-179.8885 1525,-254.5 1564.0969,-285.7884 1598.0026,-336.1106 1611.1629,-356.9686"/>
<polygon fill="#9a32cd" stroke="#9a32cd" points="1212.6754,-130.4169 1202.2468,-132.2862 1211.5649,-137.3283 1212.6754,-130.4169"/>
<text text-anchor="middle" x="1344.5" y="-185.5" font-family="Helvetica,sans-Serif" font-size="10.00" fill="#000000"> geometry_</text>
</g>
<!-- Node23 -->
<g id="node17" class="node">
<title>Node23</title>
<g id="a_node17"><a xlink:href="class_urho3_d_1_1_object.html" target="_top" xlink:title="Base class for objects with type identification, subsystem access and event sending/receiving capabil...">
<polygon fill="none" stroke="#ff0000" points="789,-197 789,-216 880,-216 880,-197 789,-197"/>
<text text-anchor="middle" x="834.5" y="-204" font-family="Helvetica,sans-Serif" font-size="10.00" fill="#000000">Urho3D::Object</text>
</a>
</g>
</g>
<!-- Node23&#45;&gt;Node168 -->
<g id="edge29" class="edge">
<title>Node23&#45;&gt;Node168</title>
<path fill="none" stroke="#191970" d="M889.9945,-198.4922C935.2339,-191.2476 1000.4904,-179.1565 1056,-162.5 1059.4833,-161.4548 1098.4618,-145.6647 1124.5526,-135.0532"/>
<polygon fill="#191970" stroke="#191970" points="889.4202,-195.0394 880.0865,-200.0526 890.5093,-201.9542 889.4202,-195.0394"/>
</g>
<!-- Node22 -->
<g id="node23" class="node">
<title>Node22</title>
<g id="a_node23"><a xlink:href="class_urho3_d_1_1_resource.html" target="_top" xlink:title="Base class for resources. ">
<polygon fill="none" stroke="#ff0000" points="1096,-165 1096,-184 1200,-184 1200,-165 1096,-165"/>
<text text-anchor="middle" x="1148" y="-172" font-family="Helvetica,sans-Serif" font-size="10.00" fill="#000000">Urho3D::Resource</text>
</a>
</g>
</g>
<!-- Node23&#45;&gt;Node22 -->
<g id="edge36" class="edge">
<title>Node23&#45;&gt;Node22</title>
<path fill="none" stroke="#191970" d="M890.177,-204.9862C935.0869,-203.2834 999.8056,-199.7419 1056,-192.5 1072.1416,-190.4198 1089.7106,-187.2182 1105.1289,-184.0886"/>
<polygon fill="#191970" stroke="#191970" points="889.9234,-201.493 880.0562,-205.3515 890.176,-208.4884 889.9234,-201.493"/>
</g>
<!-- Node56 -->
<g id="node18" class="node">
<title>Node56</title>
<g id="a_node18"><a xlink:href="class_urho3_d_1_1_shared_array_ptr.html" target="_top" xlink:title="Urho3D::SharedArrayPtr\l\&lt; unsigned char \&gt;">
<polygon fill="none" stroke="#ff0000" points="768,-.5 768,-30.5 901,-30.5 901,-.5 768,-.5"/>
<text text-anchor="start" x="776" y="-18.5" font-family="Helvetica,sans-Serif" font-size="10.00" fill="#000000">Urho3D::SharedArrayPtr</text>
<text text-anchor="middle" x="834.5" y="-7.5" font-family="Helvetica,sans-Serif" font-size="10.00" fill="#000000">&lt; unsigned char &gt;</text>
</a>
</g>
</g>
<!-- Node56&#45;&gt;Node168 -->
<g id="edge30" class="edge">
<title>Node56&#45;&gt;Node168</title>
<path fill="none" stroke="#9a32cd" stroke-dasharray="5,2" d="M911.1686,-22.5865C954.9618,-28.6083 1010.1162,-39.6012 1056,-59.5 1089.0028,-73.8126 1121.834,-101.3887 1137.8745,-115.952"/>
<polygon fill="#9a32cd" stroke="#9a32cd" points="911.5226,-19.103 901.1514,-21.2679 910.609,-26.0431 911.5226,-19.103"/>
<text text-anchor="middle" x="1006" y="-73.5" font-family="Helvetica,sans-Serif" font-size="10.00" fill="#000000"> rawVertexData_</text>
<text text-anchor="middle" x="1006" y="-62.5" font-family="Helvetica,sans-Serif" font-size="10.00" fill="#000000">rawIndexData_</text>
</g>
<!-- Node169 -->
<g id="node19" class="node">
<title>Node169</title>
<g id="a_node19"><a xlink:href="class_urho3_d_1_1_shared_ptr.html" target="_top" xlink:title="Urho3D::SharedPtr\&lt;\l Urho3D::IndexBuffer \&gt;">
<polygon fill="none" stroke="#ff0000" points="769.5,-147.5 769.5,-177.5 899.5,-177.5 899.5,-147.5 769.5,-147.5"/>
<text text-anchor="start" x="777.5" y="-165.5" font-family="Helvetica,sans-Serif" font-size="10.00" fill="#000000">Urho3D::SharedPtr&lt;</text>
<text text-anchor="middle" x="834.5" y="-154.5" font-family="Helvetica,sans-Serif" font-size="10.00" fill="#000000"> Urho3D::IndexBuffer &gt;</text>
</a>
</g>
</g>
<!-- Node169&#45;&gt;Node168 -->
<g id="edge31" class="edge">
<title>Node169&#45;&gt;Node168</title>
<path fill="none" stroke="#9a32cd" stroke-dasharray="5,2" d="M909.8441,-153.6077C966.633,-146.9054 1043.1527,-137.8743 1093.9579,-131.8782"/>
<polygon fill="#9a32cd" stroke="#9a32cd" points="909.3591,-150.1406 899.8383,-154.7886 910.1796,-157.0923 909.3591,-150.1406"/>
<text text-anchor="middle" x="1006" y="-150.5" font-family="Helvetica,sans-Serif" font-size="10.00" fill="#000000"> indexBuffer_</text>
</g>
<!-- Node170 -->
<g id="node20" class="node">
<title>Node170</title>
<g id="a_node20"><a xlink:href="class_urho3_d_1_1_vector.html" target="_top" xlink:title="Urho3D::Vector\&lt; Urho3D\l::SharedPtr\&lt; Urho3D::VertexBuffer \&gt; \&gt;">
<polygon fill="none" stroke="#ff0000" points="731,-98.5 731,-128.5 938,-128.5 938,-98.5 731,-98.5"/>
<text text-anchor="start" x="739" y="-116.5" font-family="Helvetica,sans-Serif" font-size="10.00" fill="#000000">Urho3D::Vector&lt; Urho3D</text>
<text text-anchor="middle" x="834.5" y="-105.5" font-family="Helvetica,sans-Serif" font-size="10.00" fill="#000000">::SharedPtr&lt; Urho3D::VertexBuffer &gt; &gt;</text>
</a>
</g>
</g>
<!-- Node170&#45;&gt;Node168 -->
<g id="edge32" class="edge">
<title>Node170&#45;&gt;Node168</title>
<path fill="none" stroke="#9a32cd" stroke-dasharray="5,2" d="M948.1939,-117.8519C997.8832,-119.7539 1053.8301,-121.8954 1093.8565,-123.4275"/>
<polygon fill="#9a32cd" stroke="#9a32cd" points="948.1471,-114.3477 938.0205,-117.4625 947.8792,-121.3425 948.1471,-114.3477"/>
<text text-anchor="middle" x="1006" y="-125.5" font-family="Helvetica,sans-Serif" font-size="10.00" fill="#000000"> vertexBuffers_</text>
</g>
<!-- Node60 -->
<g id="node21" class="node">
<title>Node60</title>
<g id="a_node21"><a xlink:href="class_urho3_d_1_1_p_o_d_vector.html" target="_top" xlink:title="Urho3D::PODVector\&lt;\l Urho3D::VertexElement \&gt;">
<polygon fill="none" stroke="#ff0000" points="761.5,-49.5 761.5,-79.5 907.5,-79.5 907.5,-49.5 761.5,-49.5"/>
<text text-anchor="start" x="769.5" y="-67.5" font-family="Helvetica,sans-Serif" font-size="10.00" fill="#000000">Urho3D::PODVector&lt;</text>
<text text-anchor="middle" x="834.5" y="-56.5" font-family="Helvetica,sans-Serif" font-size="10.00" fill="#000000"> Urho3D::VertexElement &gt;</text>
</a>
</g>
</g>
<!-- Node60&#45;&gt;Node168 -->
<g id="edge33" class="edge">
<title>Node60&#45;&gt;Node168</title>
<path fill="none" stroke="#9a32cd" stroke-dasharray="5,2" d="M917.6392,-77.9151C959.2932,-84.9466 1010.4366,-94.05 1056,-103.5 1074.01,-107.2353 1093.8706,-111.9132 1110.5153,-115.9939"/>
<polygon fill="#9a32cd" stroke="#9a32cd" points="917.9793,-74.4233 907.5377,-76.219 916.8201,-81.3266 917.9793,-74.4233"/>
<text text-anchor="middle" x="1006" y="-106.5" font-family="Helvetica,sans-Serif" font-size="10.00" fill="#000000"> rawElements_</text>
</g>
<!-- Node171 -->
<g id="node22" class="node">
<title>Node171</title>
<g id="a_node22"><a xlink:href="class_urho3_d_1_1_material.html" target="_top" xlink:title="Describes how to render 3D geometries. ">
<polygon fill="none" stroke="#ff0000" points="1295,-209 1295,-228 1394,-228 1394,-209 1295,-209"/>
<text text-anchor="middle" x="1344.5" y="-216" font-family="Helvetica,sans-Serif" font-size="10.00" fill="#000000">Urho3D::Material</text>
</a>
</g>
</g>
<!-- Node171&#45;&gt;Node1 -->
<g id="edge34" class="edge">
<title>Node171&#45;&gt;Node1</title>
<path fill="none" stroke="#9a32cd" stroke-dasharray="5,2" d="M1371.268,-233.0382C1426.7427,-263.1676 1552.9501,-331.7133 1599.4089,-356.946"/>
<polygon fill="#9a32cd" stroke="#9a32cd" points="1372.8375,-229.9078 1362.3795,-228.2107 1369.4966,-236.0591 1372.8375,-229.9078"/>
<text text-anchor="middle" x="1468.5" y="-316.5" font-family="Helvetica,sans-Serif" font-size="10.00" fill="#000000"> material_</text>
</g>
<!-- Node22&#45;&gt;Node171 -->
<g id="edge35" class="edge">
<title>Node22&#45;&gt;Node171</title>
<path fill="none" stroke="#191970" d="M1200.6267,-186.2841C1232.3474,-193.3869 1272.2237,-202.316 1301.9456,-208.9713"/>
<polygon fill="#191970" stroke="#191970" points="1201.1607,-182.8171 1190.6376,-184.0473 1199.6311,-189.6479 1201.1607,-182.8171"/>
</g>
<!-- Node148 -->
<g id="node24" class="node">
<title>Node148</title>
<g id="a_node24"><a xlink:href="class_urho3_d_1_1_weak_ptr.html" target="_top" xlink:title="Urho3D::WeakPtr\&lt; Urho3D\l::Scene \&gt;">
<polygon fill="none" stroke="#ff0000" points="1074,-203.5 1074,-233.5 1222,-233.5 1222,-203.5 1074,-203.5"/>
<text text-anchor="start" x="1082" y="-221.5" font-family="Helvetica,sans-Serif" font-size="10.00" fill="#000000">Urho3D::WeakPtr&lt; Urho3D</text>
<text text-anchor="middle" x="1148" y="-210.5" font-family="Helvetica,sans-Serif" font-size="10.00" fill="#000000">::Scene &gt;</text>
</a>
</g>
</g>
<!-- Node148&#45;&gt;Node171 -->
<g id="edge37" class="edge">
<title>Node148&#45;&gt;Node171</title>
<path fill="none" stroke="#9a32cd" stroke-dasharray="5,2" d="M1232.1059,-218.5C1253.5394,-218.5 1275.8901,-218.5 1294.9623,-218.5"/>
<polygon fill="#9a32cd" stroke="#9a32cd" points="1232.0083,-215.0001 1222.0082,-218.5 1232.0082,-222.0001 1232.0083,-215.0001"/>
<text text-anchor="middle" x="1258.5" y="-221.5" font-family="Helvetica,sans-Serif" font-size="10.00" fill="#000000"> scene_</text>
</g>
<!-- Node176 -->
<g id="node25" class="node">
<title>Node176</title>
<g id="a_node25"><a xlink:href="class_urho3_d_1_1_pass.html" target="_top" xlink:title="Material rendering pass, which defines shaders and render state. ">
<polygon fill="none" stroke="#ff0000" points="1304,-395 1304,-414 1385,-414 1385,-395 1304,-395"/>
<text text-anchor="middle" x="1344.5" y="-402" font-family="Helvetica,sans-Serif" font-size="10.00" fill="#000000">Urho3D::Pass</text>
</a>
</g>
</g>
<!-- Node176&#45;&gt;Node1 -->
<g id="edge38" class="edge">
<title>Node176&#45;&gt;Node1</title>
<path fill="none" stroke="#9a32cd" stroke-dasharray="5,2" d="M1395.0899,-397.4453C1438.689,-391.3654 1501.976,-382.5401 1549.8173,-375.8686"/>
<polygon fill="#9a32cd" stroke="#9a32cd" points="1394.4225,-394.0044 1385.0018,-398.852 1395.3893,-400.9373 1394.4225,-394.0044"/>
<text text-anchor="middle" x="1468.5" y="-396.5" font-family="Helvetica,sans-Serif" font-size="10.00" fill="#000000"> pass_</text>
</g>
</g>
</svg>
