<?xml version="1.0" encoding="UTF-8" standalone="no"?>
<!DOCTYPE svg PUBLIC "-//W3C//DTD SVG 1.1//EN"
 "http://www.w3.org/Graphics/SVG/1.1/DTD/svg11.dtd">
<!-- Generated by graphviz version 2.26.3 (20100126.1600)
 -->
<!-- Title: Urho3D::PhysicsRaycastResult Pages: 1 -->
<svg width="2096pt" height="526pt"
 viewBox="0.00 0.00 2096.00 525.98" xmlns="http://www.w3.org/2000/svg" xmlns:xlink="http://www.w3.org/1999/xlink">
<g id="graph1" class="graph" transform="scale(1 1) rotate(0) translate(4 521.982)">
<title>Urho3D::PhysicsRaycastResult</title>
<!-- Node1 -->
<g id="node1" class="node"><title>Node1</title>
<polygon fill="#bfbfbf" stroke="black" points="1926.5,-408.482 1926.5,-429.482 2087.5,-429.482 2087.5,-408.482 1926.5,-408.482"/>
<text text-anchor="middle" x="2007" y="-416.482" font-family="FreeSans" font-size="10.00">Urho3D::PhysicsRaycastResult</text>
</g>
<!-- Node2 -->
<g id="node2" class="node"><title>Node2</title>
<a xlink:href="class_urho3_d_1_1_vector3.html" target="_top" xlink:title="Three&#45;dimensional vector.">
<polygon fill="none" stroke="black" points="429,-374.482 429,-395.482 525,-395.482 525,-374.482 429,-374.482"/>
<text text-anchor="middle" x="477" y="-382.482" font-family="FreeSans" font-size="10.00">Urho3D::Vector3</text>
</a>
</g>
<!-- Node2&#45;&gt;Node1 -->
<g id="edge2" class="edge"><title>Node2&#45;&gt;Node1</title>
<path fill="none" stroke="#9a32cd" stroke-dasharray="5,2" d="M506.105,-400.072C560.133,-426.64 680.249,-478.982 788,-478.982 788,-478.982 788,-478.982 1805,-478.982 1873.59,-478.982 1950.07,-446.796 1986.09,-429.571"/>
<polygon fill="#9a32cd" stroke="#9a32cd" points="507.616,-396.915 497.105,-395.582 504.491,-403.178 507.616,-396.915"/>
<text text-anchor="middle" x="1287" y="-495.982" font-family="FreeSans" font-size="10.00"> normal_</text>
<text text-anchor="middle" x="1287" y="-482.982" font-family="FreeSans" font-size="10.00">position_</text>
</g>
<!-- Node2&#45;&gt;Node2 -->
<g id="edge4" class="edge"><title>Node2&#45;&gt;Node2</title>
<path fill="none" stroke="#9a32cd" stroke-dasharray="5,2" d="M444.624,-404.661C446.359,-409.957 457.151,-413.982 477,-413.982 507.246,-413.982 516.462,-404.635 504.647,-395.69"/>
<polygon fill="#9a32cd" stroke="#9a32cd" points="447.786,-406.168 449.353,-395.69 441.594,-402.904 447.786,-406.168"/>
<text text-anchor="middle" x="477" y="-508.982" font-family="FreeSans" font-size="10.00"> ONE</text>
<text text-anchor="middle" x="477" y="-495.982" font-family="FreeSans" font-size="10.00">DOWN</text>
<text text-anchor="middle" x="477" y="-482.982" font-family="FreeSans" font-size="10.00">BACK</text>
<text text-anchor="middle" x="477" y="-469.982" font-family="FreeSans" font-size="10.00">RIGHT</text>
<text text-anchor="middle" x="477" y="-456.982" font-family="FreeSans" font-size="10.00">LEFT</text>
<text text-anchor="middle" x="477" y="-443.982" font-family="FreeSans" font-size="10.00">ZERO</text>
<text text-anchor="middle" x="477" y="-430.982" font-family="FreeSans" font-size="10.00">FORWARD</text>
<text text-anchor="middle" x="477" y="-417.982" font-family="FreeSans" font-size="10.00">UP</text>
</g>
<!-- Node3 -->
<g id="node5" class="node"><title>Node3</title>
<a xlink:href="class_urho3_d_1_1_rigid_body.html" target="_top" xlink:title="Physics rigid body component.">
<polygon fill="none" stroke="black" points="1752,-255.482 1752,-276.482 1858,-276.482 1858,-255.482 1752,-255.482"/>
<text text-anchor="middle" x="1805" y="-263.482" font-family="FreeSans" font-size="10.00">Urho3D::RigidBody</text>
</a>
</g>
<!-- Node2&#45;&gt;Node3 -->
<g id="edge68" class="edge"><title>Node2&#45;&gt;Node3</title>
<path fill="none" stroke="#9a32cd" stroke-dasharray="5,2" d="M535.207,-390.026C703.049,-403.4 1202.02,-434.943 1610,-376.982 1666.7,-368.928 1685.1,-371.779 1734,-341.982 1762.37,-324.695 1786.64,-292.996 1798.04,-276.533"/>
<polygon fill="#9a32cd" stroke="#9a32cd" points="535.353,-386.526 525.104,-389.21 534.79,-393.503 535.353,-386.526"/>
<text text-anchor="middle" x="1150" y="-439.982" font-family="FreeSans" font-size="10.00"> centerOfMass_</text>
<text text-anchor="middle" x="1150" y="-426.982" font-family="FreeSans" font-size="10.00">gravityOverride_</text>
<text text-anchor="middle" x="1150" y="-413.982" font-family="FreeSans" font-size="10.00">lastPosition_</text>
</g>
<!-- Node10 -->
<g id="node19" class="node"><title>Node10</title>
<a xlink:href="class_urho3_d_1_1_node.html" target="_top" xlink:title="Scene node that may contain components and child nodes.">
<polygon fill="none" stroke="red" points="745.5,-206.482 745.5,-227.482 830.5,-227.482 830.5,-206.482 745.5,-206.482"/>
<text text-anchor="middle" x="788" y="-214.482" font-family="FreeSans" font-size="10.00">Urho3D::Node</text>
</a>
</g>
<!-- Node2&#45;&gt;Node10 -->
<g id="edge36" class="edge"><title>Node2&#45;&gt;Node10</title>
<path fill="none" stroke="#9a32cd" stroke-dasharray="5,2" d="M505.359,-369.663C567.721,-335.975 715.437,-256.18 768.553,-227.487"/>
<polygon fill="#9a32cd" stroke="#9a32cd" points="503.589,-366.641 496.454,-374.473 506.916,-372.8 503.589,-366.641"/>
<text text-anchor="middle" x="652" y="-336.982" font-family="FreeSans" font-size="10.00"> scale_</text>
<text text-anchor="middle" x="652" y="-323.982" font-family="FreeSans" font-size="10.00">position_</text>
</g>
<!-- Node25 -->
<g id="node61" class="node"><title>Node25</title>
<a xlink:href="class_urho3_d_1_1_smoothed_transform.html" target="_top" xlink:title="Transform smoothing component for network updates.">
<polygon fill="none" stroke="black" points="1208.5,-276.482 1208.5,-297.482 1365.5,-297.482 1365.5,-276.482 1208.5,-276.482"/>
<text text-anchor="middle" x="1287" y="-284.482" font-family="FreeSans" font-size="10.00">Urho3D::SmoothedTransform</text>
</a>
</g>
<!-- Node2&#45;&gt;Node25 -->
<g id="edge80" class="edge"><title>Node2&#45;&gt;Node25</title>
<path fill="none" stroke="#9a32cd" stroke-dasharray="5,2" d="M535.563,-377.897C678.738,-360.574 1046.58,-316.07 1208.5,-296.48"/>
<polygon fill="#9a32cd" stroke="#9a32cd" points="534.751,-374.469 525.243,-379.145 535.591,-381.419 534.751,-374.469"/>
<text text-anchor="middle" x="903" y="-340.982" font-family="FreeSans" font-size="10.00"> targetPosition_</text>
</g>
<!-- Node3&#45;&gt;Node1 -->
<g id="edge6" class="edge"><title>Node3&#45;&gt;Node1</title>
<path fill="none" stroke="#9a32cd" stroke-dasharray="5,2" d="M1827.04,-282.673C1868.82,-314.32 1958.46,-382.219 1993.02,-408.392"/>
<polygon fill="#9a32cd" stroke="#9a32cd" points="1828.97,-279.746 1818.88,-276.499 1824.74,-285.326 1828.97,-279.746"/>
<text text-anchor="middle" x="1892" y="-345.982" font-family="FreeSans" font-size="10.00"> body_</text>
</g>
<!-- Node4 -->
<g id="node7" class="node"><title>Node4</title>
<a xlink:href="class_urho3_d_1_1_component.html" target="_top" xlink:title="Base class for components. Components can be created to scene nodes.">
<polygon fill="none" stroke="black" points="968,-179.482 968,-200.482 1084,-200.482 1084,-179.482 968,-179.482"/>
<text text-anchor="middle" x="1026" y="-187.482" font-family="FreeSans" font-size="10.00">Urho3D::Component</text>
</a>
</g>
<!-- Node4&#45;&gt;Node3 -->
<g id="edge8" class="edge"><title>Node4&#45;&gt;Node3</title>
<path fill="none" stroke="midnightblue" d="M1093.94,-202.146C1128.09,-208.015 1170.16,-214.873 1208,-219.982 1321.38,-235.292 1349.96,-237.797 1464,-246.982 1565.66,-255.17 1684.64,-260.932 1751.79,-263.832"/>
<polygon fill="midnightblue" stroke="midnightblue" points="1094.52,-198.694 1084.07,-200.44 1093.32,-205.592 1094.52,-198.694"/>
</g>
<!-- Node21 -->
<g id="node48" class="node"><title>Node21</title>
<a xlink:href="class_urho3_d_1_1_physics_world.html" target="_top" xlink:title="Physics simulation world component. Should be added only to the root scene node.">
<polygon fill="none" stroke="red" points="1227,-145.482 1227,-166.482 1347,-166.482 1347,-145.482 1227,-145.482"/>
<text text-anchor="middle" x="1287" y="-153.482" font-family="FreeSans" font-size="10.00">Urho3D::PhysicsWorld</text>
</a>
</g>
<!-- Node4&#45;&gt;Node21 -->
<g id="edge58" class="edge"><title>Node4&#45;&gt;Node21</title>
<path fill="none" stroke="midnightblue" d="M1094.29,-181.995C1123.75,-178.461 1158.59,-174.164 1190,-169.982 1201.89,-168.399 1214.59,-166.626 1226.75,-164.888"/>
<polygon fill="midnightblue" stroke="midnightblue" points="1093.62,-178.55 1084.1,-183.212 1094.45,-185.5 1093.62,-178.55"/>
</g>
<!-- Node4&#45;&gt;Node25 -->
<g id="edge76" class="edge"><title>Node4&#45;&gt;Node25</title>
<path fill="none" stroke="midnightblue" d="M1069.76,-204.738C1077.68,-208.607 1085.48,-213.323 1092,-218.982 1103.46,-228.924 1097.62,-239.216 1110,-247.982 1126.63,-259.755 1171.73,-269.597 1212.24,-276.449"/>
<polygon fill="midnightblue" stroke="midnightblue" points="1071.04,-201.476 1060.48,-200.579 1068.18,-207.864 1071.04,-201.476"/>
</g>
<!-- Node5 -->
<g id="node9" class="node"><title>Node5</title>
<a xlink:href="class_urho3_d_1_1_animatable.html" target="_top" xlink:title="Base class for animatable object, an animatable object can be set animation on it&#39;s attributes...">
<polygon fill="none" stroke="black" points="420,-174.482 420,-195.482 534,-195.482 534,-174.482 420,-174.482"/>
<text text-anchor="middle" x="477" y="-182.482" font-family="FreeSans" font-size="10.00">Urho3D::Animatable</text>
</a>
</g>
<!-- Node5&#45;&gt;Node4 -->
<g id="edge10" class="edge"><title>Node5&#45;&gt;Node4</title>
<path fill="none" stroke="midnightblue" d="M544.518,-184.697C591.487,-184.569 655.557,-184.533 712,-184.982 801.275,-185.693 904.814,-187.54 967.842,-188.779"/>
<polygon fill="midnightblue" stroke="midnightblue" points="544.454,-181.198 534.465,-184.727 544.475,-188.198 544.454,-181.198"/>
</g>
<!-- Node5&#45;&gt;Node10 -->
<g id="edge22" class="edge"><title>Node5&#45;&gt;Node10</title>
<path fill="none" stroke="midnightblue" d="M544.359,-185.908C591.515,-187.308 655.869,-190.727 712,-198.982 724.208,-200.778 737.34,-203.571 749.196,-206.426"/>
<polygon fill="midnightblue" stroke="midnightblue" points="544.359,-182.406 534.267,-185.631 544.167,-189.404 544.359,-182.406"/>
</g>
<!-- Node6 -->
<g id="node11" class="node"><title>Node6</title>
<a xlink:href="class_urho3_d_1_1_serializable.html" target="_top" xlink:title="Base class for objects with automatic serialization through attributes.">
<polygon fill="none" stroke="red" points="44,-174.482 44,-195.482 158,-195.482 158,-174.482 44,-174.482"/>
<text text-anchor="middle" x="101" y="-182.482" font-family="FreeSans" font-size="10.00">Urho3D::Serializable</text>
</a>
</g>
<!-- Node6&#45;&gt;Node5 -->
<g id="edge12" class="edge"><title>Node6&#45;&gt;Node5</title>
<path fill="none" stroke="midnightblue" d="M168.388,-184.982C240.139,-184.982 352.455,-184.982 419.974,-184.982"/>
<polygon fill="midnightblue" stroke="midnightblue" points="168.106,-181.482 158.106,-184.982 168.106,-188.482 168.106,-181.482"/>
</g>
<!-- Node7 -->
<g id="node13" class="node"><title>Node7</title>
<a xlink:href="class_urho3_d_1_1_hash_map.html" target="_top" xlink:title="Urho3D::HashMap\&lt; Urho3D\l::String, Urho3D::SharedPtr\l\&lt; Urho3D::AttributeAnimationInfo \&gt; \&gt;">
<polygon fill="none" stroke="red" points="0.5,-108.482 0.5,-155.482 201.5,-155.482 201.5,-108.482 0.5,-108.482"/>
<text text-anchor="start" x="8.5" y="-142.482" font-family="FreeSans" font-size="10.00">Urho3D::HashMap&lt; Urho3D</text>
<text text-anchor="start" x="8.5" y="-129.482" font-family="FreeSans" font-size="10.00">::String, Urho3D::SharedPtr</text>
<text text-anchor="middle" x="101" y="-116.482" font-family="FreeSans" font-size="10.00">&lt; Urho3D::AttributeAnimationInfo &gt; &gt;</text>
</a>
</g>
<!-- Node7&#45;&gt;Node5 -->
<g id="edge14" class="edge"><title>Node7&#45;&gt;Node5</title>
<path fill="none" stroke="#9a32cd" stroke-dasharray="5,2" d="M211.816,-147.025C258.231,-153.389 312.748,-160.945 362,-167.982 380.88,-170.68 401.492,-173.702 419.985,-176.442"/>
<polygon fill="#9a32cd" stroke="#9a32cd" points="212.117,-143.534 201.735,-145.645 211.167,-150.469 212.117,-143.534"/>
<text text-anchor="middle" x="291" y="-171.982" font-family="FreeSans" font-size="10.00"> attributeAnimationInfos_</text>
</g>
<!-- Node8 -->
<g id="node15" class="node"><title>Node8</title>
<a xlink:href="class_urho3_d_1_1_shared_ptr.html" target="_top" xlink:title="Urho3D::SharedPtr\&lt;\l Urho3D::ObjectAnimation \&gt;">
<polygon fill="none" stroke="red" points="24.5,-265.982 24.5,-299.982 177.5,-299.982 177.5,-265.982 24.5,-265.982"/>
<text text-anchor="start" x="32.5" y="-286.982" font-family="FreeSans" font-size="10.00">Urho3D::SharedPtr&lt;</text>
<text text-anchor="middle" x="101" y="-273.982" font-family="FreeSans" font-size="10.00"> Urho3D::ObjectAnimation &gt;</text>
</a>
</g>
<!-- Node8&#45;&gt;Node5 -->
<g id="edge16" class="edge"><title>Node8&#45;&gt;Node5</title>
<path fill="none" stroke="#9a32cd" stroke-dasharray="5,2" d="M187.778,-271.528C239.108,-263.562 305.019,-251.246 362,-233.982 395.855,-223.725 433.22,-206.665 455.9,-195.623"/>
<polygon fill="#9a32cd" stroke="#9a32cd" points="187.071,-268.095 177.713,-273.063 188.127,-275.015 187.071,-268.095"/>
<text text-anchor="middle" x="291" y="-269.982" font-family="FreeSans" font-size="10.00"> objectAnimation_</text>
</g>
<!-- Node9 -->
<g id="node17" class="node"><title>Node9</title>
<a xlink:href="class_urho3_d_1_1_hash_set.html" target="_top" xlink:title="Urho3D::HashSet\&lt; const\l Urho3D::AttributeInfo * \&gt;">
<polygon fill="none" stroke="red" points="30.5,-213.982 30.5,-247.982 171.5,-247.982 171.5,-213.982 30.5,-213.982"/>
<text text-anchor="start" x="38.5" y="-234.982" font-family="FreeSans" font-size="10.00">Urho3D::HashSet&lt; const</text>
<text text-anchor="middle" x="101" y="-221.982" font-family="FreeSans" font-size="10.00"> Urho3D::AttributeInfo * &gt;</text>
</a>
</g>
<!-- Node9&#45;&gt;Node5 -->
<g id="edge18" class="edge"><title>Node9&#45;&gt;Node5</title>
<path fill="none" stroke="#9a32cd" stroke-dasharray="5,2" d="M182.061,-221.065C253.717,-212.299 356.428,-199.733 419.809,-191.979"/>
<polygon fill="#9a32cd" stroke="#9a32cd" points="181.224,-217.641 171.723,-222.33 182.074,-224.59 181.224,-217.641"/>
<text text-anchor="middle" x="291" y="-220.982" font-family="FreeSans" font-size="10.00"> animatedNetworkAttributes_</text>
</g>
<!-- Node10&#45;&gt;Node4 -->
<g id="edge20" class="edge"><title>Node10&#45;&gt;Node4</title>
<path fill="none" stroke="#9a32cd" stroke-dasharray="5,2" d="M840.386,-207.435C848.283,-206.166 856.345,-204.966 864,-203.982 898.299,-199.574 936.868,-196.179 967.765,-193.837"/>
<polygon fill="#9a32cd" stroke="#9a32cd" points="839.808,-203.983 830.514,-209.068 840.951,-210.889 839.808,-203.983"/>
<text text-anchor="middle" x="903" y="-207.982" font-family="FreeSans" font-size="10.00"> node_</text>
</g>
<!-- Node10&#45;&gt;Node10 -->
<g id="edge38" class="edge"><title>Node10&#45;&gt;Node10</title>
<path fill="none" stroke="#9a32cd" stroke-dasharray="5,2" d="M766.991,-237.409C768.612,-242.331 775.615,-245.982 788,-245.982 807.816,-245.982 813.854,-236.635 806.113,-227.69"/>
<polygon fill="#9a32cd" stroke="#9a32cd" points="770.385,-238.273 769.887,-227.69 763.677,-236.274 770.385,-238.273"/>
<text text-anchor="middle" x="788" y="-249.982" font-family="FreeSans" font-size="10.00"> parent_</text>
</g>
<!-- Node11 -->
<g id="node22" class="node"><title>Node11</title>
<a xlink:href="class_urho3_d_1_1_scene.html" target="_top" xlink:title="Root scene node, represents the whole scene.">
<polygon fill="none" stroke="red" points="981.5,-228.482 981.5,-249.482 1070.5,-249.482 1070.5,-228.482 981.5,-228.482"/>
<text text-anchor="middle" x="1026" y="-236.482" font-family="FreeSans" font-size="10.00">Urho3D::Scene</text>
</a>
</g>
<!-- Node10&#45;&gt;Node11 -->
<g id="edge26" class="edge"><title>Node10&#45;&gt;Node11</title>
<path fill="none" stroke="midnightblue" d="M825.482,-230.708C837.602,-234.499 851.215,-238.09 864,-239.982 903.369,-245.809 948.71,-244.889 981.394,-242.9"/>
<polygon fill="midnightblue" stroke="midnightblue" points="826.295,-227.291 815.703,-227.508 824.119,-233.944 826.295,-227.291"/>
</g>
<!-- Node11&#45;&gt;Node10 -->
<g id="edge24" class="edge"><title>Node11&#45;&gt;Node10</title>
<path fill="none" stroke="#9a32cd" stroke-dasharray="5,2" d="M971.207,-230.534C961.494,-229.214 951.461,-227.964 942,-226.982 904.424,-223.084 861.523,-220.446 830.562,-218.863"/>
<polygon fill="#9a32cd" stroke="#9a32cd" points="970.789,-234.009 981.177,-231.927 971.758,-227.077 970.789,-234.009"/>
<text text-anchor="middle" x="903" y="-230.982" font-family="FreeSans" font-size="10.00"> scene_</text>
</g>
<!-- Node12 -->
<g id="node25" class="node"><title>Node12</title>
<a xlink:href="class_urho3_d_1_1_quaternion.html" target="_top" xlink:title="Rotation represented as a four&#45;dimensional normalized vector.">
<polygon fill="none" stroke="black" points="420.5,-248.482 420.5,-269.482 533.5,-269.482 533.5,-248.482 420.5,-248.482"/>
<text text-anchor="middle" x="477" y="-256.482" font-family="FreeSans" font-size="10.00">Urho3D::Quaternion</text>
</a>
</g>
<!-- Node12&#45;&gt;Node3 -->
<g id="edge42" class="edge"><title>Node12&#45;&gt;Node3</title>
<path fill="none" stroke="#9a32cd" stroke-dasharray="5,2" d="M500.643,-275.053C523.076,-289.37 558.281,-309.48 592,-318.982 742.076,-361.273 786.605,-330.186 942,-342.982 1034.56,-350.604 1057.13,-362.982 1150,-362.982 1150,-362.982 1150,-362.982 1537,-362.982 1637.7,-362.982 1747.65,-301.688 1788.51,-276.548"/>
<polygon fill="#9a32cd" stroke="#9a32cd" points="502.424,-272.036 492.135,-269.508 498.602,-277.901 502.424,-272.036"/>
<text text-anchor="middle" x="1150" y="-366.982" font-family="FreeSans" font-size="10.00"> lastRotation_</text>
</g>
<!-- Node12&#45;&gt;Node10 -->
<g id="edge28" class="edge"><title>Node12&#45;&gt;Node10</title>
<path fill="none" stroke="#9a32cd" stroke-dasharray="5,2" d="M509.639,-244.438C532.255,-235.161 563.338,-223.975 592,-218.982 644.131,-209.901 705.247,-211.114 745.199,-213.466"/>
<polygon fill="#9a32cd" stroke="#9a32cd" points="508.055,-241.307 500.19,-248.405 510.765,-247.761 508.055,-241.307"/>
<text text-anchor="middle" x="652" y="-235.982" font-family="FreeSans" font-size="10.00"> worldRotation_</text>
<text text-anchor="middle" x="652" y="-222.982" font-family="FreeSans" font-size="10.00">rotation_</text>
</g>
<!-- Node12&#45;&gt;Node12 -->
<g id="edge30" class="edge"><title>Node12&#45;&gt;Node12</title>
<path fill="none" stroke="#9a32cd" stroke-dasharray="5,2" d="M444.624,-278.661C446.359,-283.957 457.151,-287.982 477,-287.982 507.246,-287.982 516.462,-278.635 504.647,-269.69"/>
<polygon fill="#9a32cd" stroke="#9a32cd" points="447.786,-280.168 449.353,-269.69 441.594,-276.904 447.786,-280.168"/>
<text text-anchor="middle" x="477" y="-291.982" font-family="FreeSans" font-size="10.00"> IDENTITY</text>
</g>
<!-- Node12&#45;&gt;Node25 -->
<g id="edge78" class="edge"><title>Node12&#45;&gt;Node25</title>
<path fill="none" stroke="#9a32cd" stroke-dasharray="5,2" d="M543.754,-261.383C594.764,-263.212 666.819,-265.781 730,-267.982 900.432,-273.92 1100.21,-280.688 1208.13,-284.328"/>
<polygon fill="#9a32cd" stroke="#9a32cd" points="543.64,-257.877 533.521,-261.016 543.389,-264.873 543.64,-257.877"/>
<text text-anchor="middle" x="903" y="-278.982" font-family="FreeSans" font-size="10.00"> targetRotation_</text>
</g>
<!-- Node13 -->
<g id="node28" class="node"><title>Node13</title>
<a xlink:href="class_urho3_d_1_1_vector.html" target="_top" xlink:title="Urho3D::Vector\&lt; Urho3D\l::WeakPtr\&lt; Urho3D::Component \&gt; \&gt;">
<polygon fill="none" stroke="black" points="380,-104.982 380,-138.982 574,-138.982 574,-104.982 380,-104.982"/>
<text text-anchor="start" x="388" y="-125.982" font-family="FreeSans" font-size="10.00">Urho3D::Vector&lt; Urho3D</text>
<text text-anchor="middle" x="477" y="-112.982" font-family="FreeSans" font-size="10.00">::WeakPtr&lt; Urho3D::Component &gt; &gt;</text>
</a>
</g>
<!-- Node13&#45;&gt;Node10 -->
<g id="edge32" class="edge"><title>Node13&#45;&gt;Node10</title>
<path fill="none" stroke="#9a32cd" stroke-dasharray="5,2" d="M584.23,-137.214C625.083,-144.965 671.526,-156.185 712,-171.982 734.712,-180.847 758.529,-196.059 773.317,-206.314"/>
<polygon fill="#9a32cd" stroke="#9a32cd" points="584.715,-133.744 574.245,-135.366 583.441,-140.627 584.715,-133.744"/>
<text text-anchor="middle" x="652" y="-175.982" font-family="FreeSans" font-size="10.00"> listeners_</text>
</g>
<!-- Node14 -->
<g id="node30" class="node"><title>Node14</title>
<a xlink:href="class_urho3_d_1_1_vector_base.html" target="_top" xlink:title="Vector base class.">
<polygon fill="none" stroke="black" points="44,-64.4822 44,-85.4822 158,-85.4822 158,-64.4822 44,-64.4822"/>
<text text-anchor="middle" x="101" y="-72.4822" font-family="FreeSans" font-size="10.00">Urho3D::VectorBase</text>
</a>
</g>
<!-- Node14&#45;&gt;Node13 -->
<g id="edge34" class="edge"><title>Node14&#45;&gt;Node13</title>
<path fill="none" stroke="midnightblue" d="M168.041,-83.3623C226.925,-90.7229 313.325,-101.523 379.796,-109.832"/>
<polygon fill="midnightblue" stroke="midnightblue" points="168.463,-79.8879 158.106,-82.1205 167.595,-86.8339 168.463,-79.8879"/>
</g>
<!-- Node19 -->
<g id="node43" class="node"><title>Node19</title>
<a xlink:href="class_urho3_d_1_1_p_o_d_vector.html" target="_top" xlink:title="Urho3D::PODVector\&lt;\l unsigned char \&gt;">
<polygon fill="none" stroke="black" points="592.5,-58.9822 592.5,-92.9822 711.5,-92.9822 711.5,-58.9822 592.5,-58.9822"/>
<text text-anchor="start" x="600.5" y="-79.9822" font-family="FreeSans" font-size="10.00">Urho3D::PODVector&lt;</text>
<text text-anchor="middle" x="652" y="-66.9822" font-family="FreeSans" font-size="10.00"> unsigned char &gt;</text>
</a>
</g>
<!-- Node14&#45;&gt;Node19 -->
<g id="edge52" class="edge"><title>Node14&#45;&gt;Node19</title>
<path fill="none" stroke="midnightblue" d="M168.319,-75.1044C276.816,-75.3013 488.63,-75.6857 592.154,-75.8736"/>
<polygon fill="midnightblue" stroke="midnightblue" points="168.155,-71.6042 158.149,-75.0859 168.143,-78.6042 168.155,-71.6042"/>
</g>
<!-- Node22 -->
<g id="node52" class="node"><title>Node22</title>
<a xlink:href="class_urho3_d_1_1_p_o_d_vector.html" target="_top" xlink:title="Urho3D::PODVector\&lt;\l Urho3D::Constraint * \&gt;">
<polygon fill="none" stroke="black" points="960.5,-38.9822 960.5,-72.9822 1091.5,-72.9822 1091.5,-38.9822 960.5,-38.9822"/>
<text text-anchor="start" x="968.5" y="-59.9822" font-family="FreeSans" font-size="10.00">Urho3D::PODVector&lt;</text>
<text text-anchor="middle" x="1026" y="-46.9822" font-family="FreeSans" font-size="10.00"> Urho3D::Constraint * &gt;</text>
</a>
</g>
<!-- Node14&#45;&gt;Node22 -->
<g id="edge64" class="edge"><title>Node14&#45;&gt;Node22</title>
<path fill="none" stroke="midnightblue" d="M156.452,-62.2739C280.331,-35.5909 588.88,21.3889 846,-8.9822 890.744,-14.2674 940.173,-27.7487 975.895,-38.9243"/>
<polygon fill="midnightblue" stroke="midnightblue" points="155.475,-58.9045 146.448,-64.4499 156.963,-65.7446 155.475,-58.9045"/>
</g>
<!-- Node15 -->
<g id="node34" class="node"><title>Node15</title>
<polygon fill="none" stroke="#bfbfbf" points="1494.5,-429.482 1494.5,-450.482 1579.5,-450.482 1579.5,-429.482 1494.5,-429.482"/>
<text text-anchor="middle" x="1537" y="-437.482" font-family="FreeSans" font-size="10.00">btMotionState</text>
</g>
<!-- Node15&#45;&gt;Node3 -->
<g id="edge40" class="edge"><title>Node15&#45;&gt;Node3</title>
<path fill="none" stroke="midnightblue" d="M1589.89,-446.321C1632.68,-448.604 1692.45,-445.033 1734,-414.982 1781.83,-380.388 1798.66,-304.988 1803.41,-276.855"/>
<polygon fill="midnightblue" stroke="midnightblue" points="1589.88,-442.812 1579.67,-445.648 1589.42,-449.797 1589.88,-442.812"/>
</g>
<!-- Node16 -->
<g id="node37" class="node"><title>Node16</title>
<a xlink:href="class_urho3_d_1_1_vector_buffer.html" target="_top" xlink:title="Dynamically sized buffer that can be read and written to as a stream.">
<polygon fill="none" stroke="black" points="966.5,-106.482 966.5,-127.482 1085.5,-127.482 1085.5,-106.482 966.5,-106.482"/>
<text text-anchor="middle" x="1026" y="-114.482" font-family="FreeSans" font-size="10.00">Urho3D::VectorBuffer</text>
</a>
</g>
<!-- Node16&#45;&gt;Node3 -->
<g id="edge44" class="edge"><title>Node16&#45;&gt;Node3</title>
<path fill="none" stroke="#9a32cd" stroke-dasharray="5,2" d="M1095.94,-115.591C1205.96,-114.413 1425.88,-116.146 1610,-142.982 1666.21,-151.176 1686.46,-142.886 1734,-173.982 1766.25,-195.076 1789.9,-235.906 1799.83,-255.281"/>
<polygon fill="#9a32cd" stroke="#9a32cd" points="1095.6,-112.095 1085.64,-115.713 1095.68,-119.094 1095.6,-112.095"/>
<text text-anchor="middle" x="1415" y="-129.982" font-family="FreeSans" font-size="10.00"> attrBuffer_</text>
</g>
<!-- Node16&#45;&gt;Node21 -->
<g id="edge60" class="edge"><title>Node16&#45;&gt;Node21</title>
<path fill="none" stroke="#9a32cd" stroke-dasharray="5,2" d="M1095.62,-128.723C1100.49,-129.501 1105.31,-130.261 1110,-130.982 1148.8,-136.955 1192.47,-143.129 1226.73,-147.848"/>
<polygon fill="#9a32cd" stroke="#9a32cd" points="1096.06,-125.248 1085.63,-127.107 1094.94,-132.158 1096.06,-125.248"/>
<text text-anchor="middle" x="1150" y="-146.982" font-family="FreeSans" font-size="10.00"> contacts_</text>
</g>
<!-- Node17 -->
<g id="node39" class="node"><title>Node17</title>
<a xlink:href="class_urho3_d_1_1_deserializer.html" target="_top" xlink:title="Abstract stream for reading.">
<polygon fill="none" stroke="black" points="730,-18.4822 730,-39.4822 846,-39.4822 846,-18.4822 730,-18.4822"/>
<text text-anchor="middle" x="788" y="-26.4822" font-family="FreeSans" font-size="10.00">Urho3D::Deserializer</text>
</a>
</g>
<!-- Node17&#45;&gt;Node16 -->
<g id="edge46" class="edge"><title>Node17&#45;&gt;Node16</title>
<path fill="none" stroke="midnightblue" d="M856.423,-34.3518C884.396,-38.8426 916.179,-47.0421 942,-61.9822 952.351,-67.9713 950.573,-74.6238 960,-81.9822 972.575,-91.7983 988.303,-100.261 1001.25,-106.406"/>
<polygon fill="midnightblue" stroke="midnightblue" points="856.711,-30.8565 846.307,-32.8595 855.689,-37.7815 856.711,-30.8565"/>
</g>
<!-- Node18 -->
<g id="node41" class="node"><title>Node18</title>
<a xlink:href="class_urho3_d_1_1_serializer.html" target="_top" xlink:title="Abstract stream for writing.">
<polygon fill="none" stroke="black" points="736,-107.482 736,-128.482 840,-128.482 840,-107.482 736,-107.482"/>
<text text-anchor="middle" x="788" y="-115.482" font-family="FreeSans" font-size="10.00">Urho3D::Serializer</text>
</a>
</g>
<!-- Node18&#45;&gt;Node16 -->
<g id="edge48" class="edge"><title>Node18&#45;&gt;Node16</title>
<path fill="none" stroke="midnightblue" d="M850.556,-117.719C886.361,-117.569 931.037,-117.381 966.346,-117.233"/>
<polygon fill="midnightblue" stroke="midnightblue" points="850.215,-114.221 840.23,-117.763 850.245,-121.221 850.215,-114.221"/>
</g>
<!-- Node19&#45;&gt;Node16 -->
<g id="edge50" class="edge"><title>Node19&#45;&gt;Node16</title>
<path fill="none" stroke="#9a32cd" stroke-dasharray="5,2" d="M721.774,-77.0348C758.778,-78.1438 804.957,-80.4014 846,-84.9822 890.477,-89.9463 940.565,-99.1496 976.59,-106.417"/>
<polygon fill="#9a32cd" stroke="#9a32cd" points="721.685,-73.5311 711.592,-76.7516 721.49,-80.5284 721.685,-73.5311"/>
<text text-anchor="middle" x="788" y="-88.9822" font-family="FreeSans" font-size="10.00"> buffer_</text>
</g>
<!-- Node20 -->
<g id="node46" class="node"><title>Node20</title>
<a xlink:href="class_urho3_d_1_1_weak_ptr.html" target="_top" xlink:title="Urho3D::WeakPtr\&lt; Urho3D\l::PhysicsWorld \&gt;">
<polygon fill="none" stroke="black" points="1464,-151.982 1464,-185.982 1610,-185.982 1610,-151.982 1464,-151.982"/>
<text text-anchor="start" x="1472" y="-172.982" font-family="FreeSans" font-size="10.00">Urho3D::WeakPtr&lt; Urho3D</text>
<text text-anchor="middle" x="1537" y="-159.982" font-family="FreeSans" font-size="10.00">::PhysicsWorld &gt;</text>
</a>
</g>
<!-- Node20&#45;&gt;Node3 -->
<g id="edge54" class="edge"><title>Node20&#45;&gt;Node3</title>
<path fill="none" stroke="#9a32cd" stroke-dasharray="5,2" d="M1620.37,-176.329C1656.57,-181.802 1698.68,-191.347 1734,-207.982 1758.77,-219.648 1782.3,-241.82 1795.08,-255.114"/>
<polygon fill="#9a32cd" stroke="#9a32cd" points="1620.72,-172.843 1610.32,-174.89 1619.73,-179.773 1620.72,-172.843"/>
<text text-anchor="middle" x="1681" y="-211.982" font-family="FreeSans" font-size="10.00"> physicsWorld_</text>
</g>
<!-- Node21&#45;&gt;Node20 -->
<g id="edge56" class="edge"><title>Node21&#45;&gt;Node20</title>
<path fill="none" stroke="#9a32cd" stroke-dasharray="5,2" d="M1357.11,-153.05C1384.83,-152.541 1416.95,-152.761 1446,-154.982 1451.74,-155.421 1457.66,-156.013 1463.6,-156.707"/>
<polygon fill="#9a32cd" stroke="#9a32cd" points="1357.03,-149.551 1347.11,-153.268 1357.18,-156.549 1357.03,-149.551"/>
<text text-anchor="middle" x="1415" y="-158.982" font-family="FreeSans" font-size="10.00"> ptr_</text>
</g>
<!-- Node22&#45;&gt;Node3 -->
<g id="edge70" class="edge"><title>Node22&#45;&gt;Node3</title>
<path fill="none" stroke="#9a32cd" stroke-dasharray="5,2" d="M1101.73,-44.0943C1240.31,-26.5669 1538.38,-8.87613 1734,-141.982 1775.22,-170.032 1795.48,-230.477 1802.28,-255.155"/>
<polygon fill="#9a32cd" stroke="#9a32cd" points="1101.1,-40.6472 1091.63,-45.4075 1102,-47.5888 1101.1,-40.6472"/>
<text text-anchor="middle" x="1415" y="-45.9822" font-family="FreeSans" font-size="10.00"> constraints_</text>
</g>
<!-- Node22&#45;&gt;Node21 -->
<g id="edge62" class="edge"><title>Node22&#45;&gt;Node21</title>
<path fill="none" stroke="#9a32cd" stroke-dasharray="5,2" d="M1086.76,-76.3559C1117.83,-87.0559 1156.14,-100.682 1190,-113.982 1215.45,-123.979 1244.13,-136.567 1263.67,-145.343"/>
<polygon fill="#9a32cd" stroke="#9a32cd" points="1087.53,-72.9219 1076.94,-72.9889 1085.26,-79.5434 1087.53,-72.9219"/>
<text text-anchor="middle" x="1150" y="-117.982" font-family="FreeSans" font-size="10.00"> constraints_</text>
</g>
<!-- Node23 -->
<g id="node55" class="node"><title>Node23</title>
<a xlink:href="struct_urho3_d_1_1_ref_count.html" target="_top" xlink:title="Reference count structure.">
<polygon fill="none" stroke="black" points="1236,-189.482 1236,-210.482 1338,-210.482 1338,-189.482 1236,-189.482"/>
<text text-anchor="middle" x="1287" y="-197.482" font-family="FreeSans" font-size="10.00">Urho3D::RefCount</text>
</a>
</g>
<!-- Node23&#45;&gt;Node20 -->
<g id="edge66" class="edge"><title>Node23&#45;&gt;Node20</title>
<path fill="none" stroke="#9a32cd" stroke-dasharray="5,2" d="M1348.23,-192.39C1383.07,-188.07 1426.92,-182.632 1463.6,-178.084"/>
<polygon fill="#9a32cd" stroke="#9a32cd" points="1347.69,-188.93 1338.19,-193.634 1348.55,-195.877 1347.69,-188.93"/>
<text text-anchor="middle" x="1415" y="-191.982" font-family="FreeSans" font-size="10.00"> refCount_</text>
</g>
<!-- Node24 -->
<g id="node59" class="node"><title>Node24</title>
<a xlink:href="class_urho3_d_1_1_weak_ptr.html" target="_top" xlink:title="Urho3D::WeakPtr\&lt; Urho3D\l::SmoothedTransform \&gt;">
<polygon fill="none" stroke="black" points="1464,-203.982 1464,-237.982 1610,-237.982 1610,-203.982 1464,-203.982"/>
<text text-anchor="start" x="1472" y="-224.982" font-family="FreeSans" font-size="10.00">Urho3D::WeakPtr&lt; Urho3D</text>
<text text-anchor="middle" x="1537" y="-211.982" font-family="FreeSans" font-size="10.00">::SmoothedTransform &gt;</text>
</a>
</g>
<!-- Node23&#45;&gt;Node24 -->
<g id="edge82" class="edge"><title>Node23&#45;&gt;Node24</title>
<path fill="none" stroke="#9a32cd" stroke-dasharray="5,2" d="M1348.23,-205.126C1383.07,-208.052 1426.92,-211.736 1463.6,-214.816"/>
<polygon fill="#9a32cd" stroke="#9a32cd" points="1348.45,-201.632 1338.19,-204.283 1347.87,-208.607 1348.45,-201.632"/>
<text text-anchor="middle" x="1415" y="-216.982" font-family="FreeSans" font-size="10.00"> refCount_</text>
</g>
<!-- Node24&#45;&gt;Node3 -->
<g id="edge72" class="edge"><title>Node24&#45;&gt;Node3</title>
<path fill="none" stroke="#9a32cd" stroke-dasharray="5,2" d="M1620.54,-223.584C1655.89,-225.977 1697.3,-230.496 1734,-238.982 1750.57,-242.815 1768.47,-249.641 1782.15,-255.47"/>
<polygon fill="#9a32cd" stroke="#9a32cd" points="1620.46,-220.072 1610.26,-222.936 1620.02,-227.058 1620.46,-220.072"/>
<text text-anchor="middle" x="1681" y="-242.982" font-family="FreeSans" font-size="10.00"> smoothedTransform_</text>
</g>
<!-- Node25&#45;&gt;Node24 -->
<g id="edge74" class="edge"><title>Node25&#45;&gt;Node24</title>
<path fill="none" stroke="#9a32cd" stroke-dasharray="5,2" d="M1336.93,-273.8C1375.85,-263.526 1430.18,-249.183 1472.4,-238.036"/>
<polygon fill="#9a32cd" stroke="#9a32cd" points="1335.67,-270.515 1326.89,-276.451 1337.45,-277.283 1335.67,-270.515"/>
<text text-anchor="middle" x="1415" y="-262.982" font-family="FreeSans" font-size="10.00"> ptr_</text>
</g>
</g>
</svg>
