<?xml version="1.0" encoding="UTF-8" standalone="no"?>
<!DOCTYPE svg PUBLIC "-//W3C//DTD SVG 1.1//EN"
 "http://www.w3.org/Graphics/SVG/1.1/DTD/svg11.dtd">
<!-- Generated by graphviz version 2.36.0 (20140111.2315)
 -->
<!-- Title: Urho3D::Particle2D Pages: 1 -->
<svg width="520pt" height="207pt"
 viewBox="0.00 0.00 520.00 206.50" xmlns="http://www.w3.org/2000/svg" xmlns:xlink="http://www.w3.org/1999/xlink">
<g id="graph0" class="graph" transform="scale(1 1) rotate(0) translate(4 202.5)">
<title>Urho3D::Particle2D</title>
<!-- Node1 -->
<g id="node1" class="node"><title>Node1</title>
<polygon fill="#bfbfbf" stroke="black" points="153,-0.5 153,-19.5 255,-19.5 255,-0.5 153,-0.5"/>
<text text-anchor="middle" x="204" y="-7.5" font-family="Helvetica,sans-Serif" font-size="10.00">Urho3D::Particle2D</text>
</g>
<!-- Node2 -->
<g id="node2" class="node"><title>Node2</title>
<g id="a_node2"><a xlink:href="class_urho3_d_1_1_vector2.html" target="_top" xlink:title="Two&#45;dimensional vector. ">
<polygon fill="none" stroke="black" points="0,-128.5 0,-147.5 90,-147.5 90,-128.5 0,-128.5"/>
<text text-anchor="middle" x="45" y="-135.5" font-family="Helvetica,sans-Serif" font-size="10.00">Urho3D::Vector2</text>
</a>
</g>
</g>
<!-- Node2&#45;&gt;Node1 -->
<g id="edge1" class="edge"><title>Node2&#45;&gt;Node1</title>
<path fill="none" stroke="#9a32cd" stroke-dasharray="5,2" d="M60.8524,-121.11C81.7975,-100.57 120.336,-64.3216 157,-38 166.479,-31.1949 177.802,-24.6475 186.959,-19.7048"/>
<polygon fill="#9a32cd" stroke="#9a32cd" points="58.1327,-118.877 53.487,-128.399 63.0567,-123.853 58.1327,-118.877"/>
<text text-anchor="middle" x="178.5" y="-52" font-family="Helvetica,sans-Serif" font-size="10.00"> velocity_</text>
<text text-anchor="middle" x="178.5" y="-41" font-family="Helvetica,sans-Serif" font-size="10.00">startPos_</text>
</g>
<!-- Node2&#45;&gt;Node2 -->
<g id="edge2" class="edge"><title>Node2&#45;&gt;Node2</title>
<path fill="none" stroke="#9a32cd" stroke-dasharray="5,2" d="M66.9036,-151.547C86.7363,-158.169 108,-153.654 108,-138 108,-119.867 79.4679,-116.68 57.6787,-128.438"/>
<polygon fill="#9a32cd" stroke="#9a32cd" points="68.2468,-148.314 57.6787,-147.562 65.4711,-154.741 68.2468,-148.314"/>
<text text-anchor="middle" x="124.5" y="-163" font-family="Helvetica,sans-Serif" font-size="10.00"> ONE</text>
<text text-anchor="middle" x="124.5" y="-152" font-family="Helvetica,sans-Serif" font-size="10.00">DOWN</text>
<text text-anchor="middle" x="124.5" y="-141" font-family="Helvetica,sans-Serif" font-size="10.00">RIGHT</text>
<text text-anchor="middle" x="124.5" y="-130" font-family="Helvetica,sans-Serif" font-size="10.00">LEFT</text>
<text text-anchor="middle" x="124.5" y="-119" font-family="Helvetica,sans-Serif" font-size="10.00">ZERO</text>
<text text-anchor="middle" x="124.5" y="-108" font-family="Helvetica,sans-Serif" font-size="10.00">UP</text>
</g>
<!-- Node3 -->
<g id="node3" class="node"><title>Node3</title>
<g id="a_node3"><a xlink:href="class_urho3_d_1_1_vector3.html" target="_top" xlink:title="Three&#45;dimensional vector. ">
<polygon fill="none" stroke="black" points="159,-128.5 159,-147.5 249,-147.5 249,-128.5 159,-128.5"/>
<text text-anchor="middle" x="204" y="-135.5" font-family="Helvetica,sans-Serif" font-size="10.00">Urho3D::Vector3</text>
</a>
</g>
</g>
<!-- Node3&#45;&gt;Node1 -->
<g id="edge3" class="edge"><title>Node3&#45;&gt;Node1</title>
<path fill="none" stroke="#9a32cd" stroke-dasharray="5,2" d="M204,-118.011C204,-90.3091 204,-39.9226 204,-19.7211"/>
<polygon fill="#9a32cd" stroke="#9a32cd" points="200.5,-118.339 204,-128.34 207.5,-118.34 200.5,-118.339"/>
<text text-anchor="middle" x="225.5" y="-46.5" font-family="Helvetica,sans-Serif" font-size="10.00"> position_</text>
</g>
<!-- Node3&#45;&gt;Node3 -->
<g id="edge4" class="edge"><title>Node3&#45;&gt;Node3</title>
<path fill="none" stroke="#9a32cd" stroke-dasharray="5,2" d="M225.904,-151.547C245.736,-158.169 267,-153.654 267,-138 267,-119.867 238.468,-116.68 216.679,-128.438"/>
<polygon fill="#9a32cd" stroke="#9a32cd" points="227.247,-148.314 216.679,-147.562 224.471,-154.741 227.247,-148.314"/>
<text text-anchor="middle" x="293.5" y="-174" font-family="Helvetica,sans-Serif" font-size="10.00"> ONE</text>
<text text-anchor="middle" x="293.5" y="-163" font-family="Helvetica,sans-Serif" font-size="10.00">DOWN</text>
<text text-anchor="middle" x="293.5" y="-152" font-family="Helvetica,sans-Serif" font-size="10.00">BACK</text>
<text text-anchor="middle" x="293.5" y="-141" font-family="Helvetica,sans-Serif" font-size="10.00">RIGHT</text>
<text text-anchor="middle" x="293.5" y="-130" font-family="Helvetica,sans-Serif" font-size="10.00">LEFT</text>
<text text-anchor="middle" x="293.5" y="-119" font-family="Helvetica,sans-Serif" font-size="10.00">ZERO</text>
<text text-anchor="middle" x="293.5" y="-108" font-family="Helvetica,sans-Serif" font-size="10.00">FORWARD</text>
<text text-anchor="middle" x="293.5" y="-97" font-family="Helvetica,sans-Serif" font-size="10.00">UP</text>
</g>
<!-- Node4 -->
<g id="node4" class="node"><title>Node4</title>
<g id="a_node4"><a xlink:href="class_urho3_d_1_1_color.html" target="_top" xlink:title="RGBA color. ">
<polygon fill="none" stroke="black" points="338,-128.5 338,-147.5 418,-147.5 418,-128.5 338,-128.5"/>
<text text-anchor="middle" x="378" y="-135.5" font-family="Helvetica,sans-Serif" font-size="10.00">Urho3D::Color</text>
</a>
</g>
</g>
<!-- Node4&#45;&gt;Node1 -->
<g id="edge5" class="edge"><title>Node4&#45;&gt;Node1</title>
<path fill="none" stroke="#9a32cd" stroke-dasharray="5,2" d="M366.756,-120.19C357.657,-107.482 343.937,-90.1999 329,-78 296.581,-51.5217 252.096,-30.6643 225.867,-19.6389"/>
<polygon fill="#9a32cd" stroke="#9a32cd" points="363.942,-122.273 372.516,-128.496 369.694,-118.284 363.942,-122.273"/>
<text text-anchor="middle" x="328" y="-52" font-family="Helvetica,sans-Serif" font-size="10.00"> color_</text>
<text text-anchor="middle" x="328" y="-41" font-family="Helvetica,sans-Serif" font-size="10.00">colorDelta_</text>
</g>
<!-- Node4&#45;&gt;Node4 -->
<g id="edge6" class="edge"><title>Node4&#45;&gt;Node4</title>
<path fill="none" stroke="#9a32cd" stroke-dasharray="5,2" d="M398.909,-151.81C416.952,-158.045 436,-153.441 436,-138 436,-119.867 409.732,-116.68 389.672,-128.438"/>
<polygon fill="#9a32cd" stroke="#9a32cd" points="400.22,-148.561 389.672,-147.562 397.295,-154.92 400.22,-148.561"/>
<text text-anchor="middle" x="474" y="-190.5" font-family="Helvetica,sans-Serif" font-size="10.00"> CYAN</text>
<text text-anchor="middle" x="474" y="-179.5" font-family="Helvetica,sans-Serif" font-size="10.00">GRAY</text>
<text text-anchor="middle" x="474" y="-168.5" font-family="Helvetica,sans-Serif" font-size="10.00">YELLOW</text>
<text text-anchor="middle" x="474" y="-157.5" font-family="Helvetica,sans-Serif" font-size="10.00">MAGENTA</text>
<text text-anchor="middle" x="474" y="-146.5" font-family="Helvetica,sans-Serif" font-size="10.00">WHITE</text>
<text text-anchor="middle" x="474" y="-135.5" font-family="Helvetica,sans-Serif" font-size="10.00">TRANSPARENT</text>
<text text-anchor="middle" x="474" y="-124.5" font-family="Helvetica,sans-Serif" font-size="10.00">BLUE</text>
<text text-anchor="middle" x="474" y="-113.5" font-family="Helvetica,sans-Serif" font-size="10.00">BLACK</text>
<text text-anchor="middle" x="474" y="-102.5" font-family="Helvetica,sans-Serif" font-size="10.00">RED</text>
<text text-anchor="middle" x="474" y="-91.5" font-family="Helvetica,sans-Serif" font-size="10.00">GREEN</text>
<text text-anchor="middle" x="474" y="-80.5" font-family="Helvetica,sans-Serif" font-size="10.00">...</text>
</g>
</g>
</svg>
