<?xml version="1.0" encoding="UTF-8" standalone="no"?>
<!DOCTYPE svg PUBLIC "-//W3C//DTD SVG 1.1//EN"
 "http://www.w3.org/Graphics/SVG/1.1/DTD/svg11.dtd">
<!-- Generated by graphviz version 2.36.0 (20140111.2315)
 -->
<!-- Title: GenericValue&lt; Encoding, Allocator &gt;::ArrayData Pages: 1 -->
<!--zoomable 283 -->
<svg id="main" version="1.1" xmlns="http://www.w3.org/2000/svg" xmlns:xlink="http://www.w3.org/1999/xlink" xml:space="preserve" onload="init(evt)">
<style type="text/css"><![CDATA[
.edge:hover path { stroke: red; }
.edge:hover polygon { stroke: red; fill: red; }
]]></style>
<script type="text/javascript"><![CDATA[
var edges = document.getElementsByTagName('g');
if (edges && edges.length) {
  for (var i=0;i<edges.length;i++) {
    if (edges[i].id.substr(0,4)=='edge') {
      edges[i].setAttribute('class','edge');
    }
  }
}
]]></script>
        <defs>
                <circle id="rim" cx="0" cy="0" r="7"/>
                <circle id="rim2" cx="0" cy="0" r="3.5"/>
                <g id="zoomPlus">
                        <use xlink:href="#rim" fill="#404040">
                                <set attributeName="fill" to="#808080" begin="zoomplus.mouseover" end="zoomplus.mouseout"/>
                        </use>
                        <path d="M-4,0h8M0,-4v8" fill="none" stroke="white" stroke-width="1.5" pointer-events="none"/>
                </g>
                <g id="zoomMin">
                        <use xlink:href="#rim" fill="#404040">
                                <set attributeName="fill" to="#808080" begin="zoomminus.mouseover" end="zoomminus.mouseout"/>
                        </use>
                        <path d="M-4,0h8" fill="none" stroke="white" stroke-width="1.5" pointer-events="none"/>
                </g>
                <g id="dirArrow">
                        <path fill="none" stroke="white" stroke-width="1.5" d="M0,-3.0v7 M-2.5,-0.5L0,-3.0L2.5,-0.5"/>
                </g>
               <g id="resetDef">
                       <use xlink:href="#rim2" fill="#404040">
                               <set attributeName="fill" to="#808080" begin="reset.mouseover" end="reset.mouseout"/>
                       </use>
               </g>
        </defs>

<script type="text/javascript">
var viewWidth = 724;
var viewHeight = 283;
var sectionId = 'dynsection-0';
</script>
<script xlink:href="svgpan.js"/>
<svg id="graph" class="graph">
<g id="viewport">
<title>GenericValue&lt; Encoding, Allocator &gt;::ArrayData</title>
<!-- Node1 -->
<g id="node1" class="node"><title>Node1</title>
<polygon fill="#bfbfbf" stroke="black" points="218,-245 218,-275 346,-275 346,-245 218,-245"/>
<text text-anchor="start" x="226" y="-263" font-family="Helvetica,sans-Serif" font-size="10.00">GenericValue&lt; Encoding,</text>
<text text-anchor="middle" x="282" y="-252" font-family="Helvetica,sans-Serif" font-size="10.00"> Allocator &gt;::ArrayData</text>
</g>
<!-- Node3 -->
<g id="node3" class="node"><title>Node3</title>
<g id="a_node3"><a xlink:href="union_generic_value_1_1_data.html" target="_top" xlink:title="GenericValue\&lt; Encoding,\l Allocator \&gt;::Data">
<polygon fill="none" stroke="black" points="396,-147 396,-177 524,-177 524,-147 396,-147"/>
<text text-anchor="start" x="404" y="-165" font-family="Helvetica,sans-Serif" font-size="10.00">GenericValue&lt; Encoding,</text>
<text text-anchor="middle" x="460" y="-154" font-family="Helvetica,sans-Serif" font-size="10.00"> Allocator &gt;::Data</text>
</a>
</g>
</g>
<!-- Node1&#45;&gt;Node3 -->
<g id="edge4" class="edge"><title>Node1&#45;&gt;Node3</title>
<path fill="none" stroke="#9a32cd" stroke-dasharray="5,2" d="M333.741,-240.88C337.935,-238.994 342.069,-237.025 346,-235 379.844,-217.567 416.401,-192.739 438.496,-177"/>
<polygon fill="#9a32cd" stroke="#9a32cd" points="332.313,-237.685 324.523,-244.866 335.091,-244.11 332.313,-237.685"/>
<text text-anchor="middle" x="371" y="-227" font-family="Helvetica,sans-Serif" font-size="10.00"> a</text>
</g>
<!-- Node2 -->
<g id="node2" class="node"><title>Node2</title>
<g id="a_node2"><a xlink:href="class_generic_value.html" target="_top" xlink:title="Represents a JSON value. Use Value for UTF8 encoding and default allocator. ">
<polygon fill="none" stroke="black" points="588,-214 588,-244 716,-244 716,-214 588,-214"/>
<text text-anchor="start" x="596" y="-232" font-family="Helvetica,sans-Serif" font-size="10.00">GenericValue&lt; Encoding,</text>
<text text-anchor="middle" x="652" y="-221" font-family="Helvetica,sans-Serif" font-size="10.00"> Allocator &gt;</text>
</a>
</g>
</g>
<!-- Node2&#45;&gt;Node1 -->
<g id="edge1" class="edge"><title>Node2&#45;&gt;Node1</title>
<path fill="none" stroke="#9a32cd" stroke-dasharray="5,2" d="M577.787,-235.167C510.108,-240.869 410.57,-249.254 346.261,-254.671"/>
<polygon fill="#9a32cd" stroke="#9a32cd" points="578.278,-238.638 587.949,-234.311 577.691,-231.663 578.278,-238.638"/>
<text text-anchor="middle" x="460" y="-253" font-family="Helvetica,sans-Serif" font-size="10.00"> elements</text>
</g>
<!-- Node3&#45;&gt;Node2 -->
<g id="edge2" class="edge"><title>Node3&#45;&gt;Node2</title>
<path fill="none" stroke="#9a32cd" stroke-dasharray="5,2" d="M513.456,-180.498C543.266,-191.01 580.12,-204.006 608.174,-213.898"/>
<polygon fill="#9a32cd" stroke="#9a32cd" points="514.235,-177.061 503.64,-177.036 511.907,-183.663 514.235,-177.061"/>
<text text-anchor="middle" x="556" y="-203" font-family="Helvetica,sans-Serif" font-size="10.00"> data_</text>
</g>
<!-- Node4 -->
<g id="node4" class="node"><title>Node4</title>
<g id="a_node4"><a xlink:href="struct_generic_value_1_1_string.html" target="_top" xlink:title="GenericValue\&lt; Encoding,\l Allocator \&gt;::String">
<polygon fill="none" stroke="black" points="218,-196 218,-226 346,-226 346,-196 218,-196"/>
<text text-anchor="start" x="226" y="-214" font-family="Helvetica,sans-Serif" font-size="10.00">GenericValue&lt; Encoding,</text>
<text text-anchor="middle" x="282" y="-203" font-family="Helvetica,sans-Serif" font-size="10.00"> Allocator &gt;::String</text>
</a>
</g>
</g>
<!-- Node4&#45;&gt;Node3 -->
<g id="edge3" class="edge"><title>Node4&#45;&gt;Node3</title>
<path fill="none" stroke="#9a32cd" stroke-dasharray="5,2" d="M347.011,-193.179C366.014,-187.888 386.632,-182.148 404.937,-177.052"/>
<polygon fill="#9a32cd" stroke="#9a32cd" points="345.937,-189.845 337.242,-195.899 347.814,-196.588 345.937,-189.845"/>
<text text-anchor="middle" x="371" y="-191" font-family="Helvetica,sans-Serif" font-size="10.00"> s</text>
</g>
<!-- Node5 -->
<g id="node5" class="node"><title>Node5</title>
<g id="a_node5"><a xlink:href="struct_generic_value_1_1_object_data.html" target="_top" xlink:title="GenericValue\&lt; Encoding,\l Allocator \&gt;::ObjectData">
<polygon fill="none" stroke="black" points="218,-147 218,-177 346,-177 346,-147 218,-147"/>
<text text-anchor="start" x="226" y="-165" font-family="Helvetica,sans-Serif" font-size="10.00">GenericValue&lt; Encoding,</text>
<text text-anchor="middle" x="282" y="-154" font-family="Helvetica,sans-Serif" font-size="10.00"> Allocator &gt;::ObjectData</text>
</a>
</g>
</g>
<!-- Node5&#45;&gt;Node3 -->
<g id="edge5" class="edge"><title>Node5&#45;&gt;Node3</title>
<path fill="none" stroke="#9a32cd" stroke-dasharray="5,2" d="M356.42,-162C369.507,-162 383.036,-162 395.806,-162"/>
<polygon fill="#9a32cd" stroke="#9a32cd" points="356.043,-158.5 346.043,-162 356.043,-165.5 356.043,-158.5"/>
<text text-anchor="middle" x="371" y="-165" font-family="Helvetica,sans-Serif" font-size="10.00"> o</text>
</g>
<!-- Node6 -->
<g id="node6" class="node"><title>Node6</title>
<g id="a_node6"><a xlink:href="struct_generic_member.html" target="_top" xlink:title="Name&#45;value pair in a JSON object value. ">
<polygon fill="none" stroke="black" points="0,-147 0,-177 138,-177 138,-147 0,-147"/>
<text text-anchor="start" x="8" y="-165" font-family="Helvetica,sans-Serif" font-size="10.00">GenericMember&lt; Encoding,</text>
<text text-anchor="middle" x="69" y="-154" font-family="Helvetica,sans-Serif" font-size="10.00"> Allocator &gt;</text>
</a>
</g>
</g>
<!-- Node6&#45;&gt;Node5 -->
<g id="edge6" class="edge"><title>Node6&#45;&gt;Node5</title>
<path fill="none" stroke="#9a32cd" stroke-dasharray="5,2" d="M148.237,-162C171.119,-162 195.838,-162 217.673,-162"/>
<polygon fill="#9a32cd" stroke="#9a32cd" points="148.214,-158.5 138.214,-162 148.214,-165.5 148.214,-158.5"/>
<text text-anchor="middle" x="178" y="-165" font-family="Helvetica,sans-Serif" font-size="10.00"> members</text>
</g>
<!-- Node7 -->
<g id="node7" class="node"><title>Node7</title>
<g id="a_node7"><a xlink:href="union_generic_value_1_1_number.html" target="_top" xlink:title="GenericValue\&lt; Encoding,\l Allocator \&gt;::Number">
<polygon fill="none" stroke="black" points="218,-98 218,-128 346,-128 346,-98 218,-98"/>
<text text-anchor="start" x="226" y="-116" font-family="Helvetica,sans-Serif" font-size="10.00">GenericValue&lt; Encoding,</text>
<text text-anchor="middle" x="282" y="-105" font-family="Helvetica,sans-Serif" font-size="10.00"> Allocator &gt;::Number</text>
</a>
</g>
</g>
<!-- Node7&#45;&gt;Node3 -->
<g id="edge7" class="edge"><title>Node7&#45;&gt;Node3</title>
<path fill="none" stroke="#9a32cd" stroke-dasharray="5,2" d="M347.011,-130.821C366.014,-136.112 386.632,-141.852 404.937,-146.948"/>
<polygon fill="#9a32cd" stroke="#9a32cd" points="347.814,-127.412 337.242,-128.101 345.937,-134.155 347.814,-127.412"/>
<text text-anchor="middle" x="371" y="-142" font-family="Helvetica,sans-Serif" font-size="10.00"> n</text>
</g>
<!-- Node8 -->
<g id="node8" class="node"><title>Node8</title>
<g id="a_node8"><a xlink:href="struct_generic_value_1_1_number_1_1_u.html" target="_top" xlink:title="GenericValue\&lt; Encoding,\l Allocator \&gt;::Number::U">
<polygon fill="none" stroke="black" points="5,-98 5,-128 133,-128 133,-98 5,-98"/>
<text text-anchor="start" x="13" y="-116" font-family="Helvetica,sans-Serif" font-size="10.00">GenericValue&lt; Encoding,</text>
<text text-anchor="middle" x="69" y="-105" font-family="Helvetica,sans-Serif" font-size="10.00"> Allocator &gt;::Number::U</text>
</a>
</g>
</g>
<!-- Node8&#45;&gt;Node7 -->
<g id="edge8" class="edge"><title>Node8&#45;&gt;Node7</title>
<path fill="none" stroke="#9a32cd" stroke-dasharray="5,2" d="M143.274,-113C167.599,-113 194.453,-113 217.939,-113"/>
<polygon fill="#9a32cd" stroke="#9a32cd" points="143.021,-109.5 133.021,-113 143.021,-116.5 143.021,-109.5"/>
<text text-anchor="middle" x="178" y="-116" font-family="Helvetica,sans-Serif" font-size="10.00"> u</text>
</g>
<!-- Node9 -->
<g id="node9" class="node"><title>Node9</title>
<g id="a_node9"><a xlink:href="struct_generic_value_1_1_number_1_1_i.html" target="_top" xlink:title="GenericValue\&lt; Encoding,\l Allocator \&gt;::Number::I">
<polygon fill="none" stroke="black" points="5,-49 5,-79 133,-79 133,-49 5,-49"/>
<text text-anchor="start" x="13" y="-67" font-family="Helvetica,sans-Serif" font-size="10.00">GenericValue&lt; Encoding,</text>
<text text-anchor="middle" x="69" y="-56" font-family="Helvetica,sans-Serif" font-size="10.00"> Allocator &gt;::Number::I</text>
</a>
</g>
</g>
<!-- Node9&#45;&gt;Node7 -->
<g id="edge9" class="edge"><title>Node9&#45;&gt;Node7</title>
<path fill="none" stroke="#9a32cd" stroke-dasharray="5,2" d="M142.949,-80.9407C167.36,-86.6096 194.348,-92.8771 217.939,-98.3556"/>
<polygon fill="#9a32cd" stroke="#9a32cd" points="143.554,-77.4881 133.021,-78.6352 141.97,-84.3067 143.554,-77.4881"/>
<text text-anchor="middle" x="178" y="-96" font-family="Helvetica,sans-Serif" font-size="10.00"> i</text>
</g>
<!-- Node10 -->
<g id="node10" class="node"><title>Node10</title>
<g id="a_node10"><a xlink:href="struct_generic_value_1_1_short_string.html" target="_top" xlink:title="GenericValue\&lt; Encoding,\l Allocator \&gt;::ShortString">
<polygon fill="none" stroke="black" points="218,-49 218,-79 346,-79 346,-49 218,-49"/>
<text text-anchor="start" x="226" y="-67" font-family="Helvetica,sans-Serif" font-size="10.00">GenericValue&lt; Encoding,</text>
<text text-anchor="middle" x="282" y="-56" font-family="Helvetica,sans-Serif" font-size="10.00"> Allocator &gt;::ShortString</text>
</a>
</g>
</g>
<!-- Node10&#45;&gt;Node3 -->
<g id="edge10" class="edge"><title>Node10&#45;&gt;Node3</title>
<path fill="none" stroke="#9a32cd" stroke-dasharray="5,2" d="M335.672,-83.0769C339.205,-84.6585 342.677,-86.3041 346,-88 380.256,-105.482 416.996,-130.935 438.98,-146.971"/>
<polygon fill="#9a32cd" stroke="#9a32cd" points="336.811,-79.7577 326.24,-79.0493 334.062,-86.1953 336.811,-79.7577"/>
<text text-anchor="middle" x="371" y="-108" font-family="Helvetica,sans-Serif" font-size="10.00"> ss</text>
</g>
<!-- Node11 -->
<g id="node11" class="node"><title>Node11</title>
<g id="a_node11"><a xlink:href="struct_generic_value_1_1_flag.html" target="_top" xlink:title="GenericValue\&lt; Encoding,\l Allocator \&gt;::Flag">
<polygon fill="none" stroke="black" points="218,-0 218,-30 346,-30 346,-0 218,-0"/>
<text text-anchor="start" x="226" y="-18" font-family="Helvetica,sans-Serif" font-size="10.00">GenericValue&lt; Encoding,</text>
<text text-anchor="middle" x="282" y="-7" font-family="Helvetica,sans-Serif" font-size="10.00"> Allocator &gt;::Flag</text>
</a>
</g>
</g>
<!-- Node11&#45;&gt;Node3 -->
<g id="edge11" class="edge"><title>Node11&#45;&gt;Node3</title>
<path fill="none" stroke="#9a32cd" stroke-dasharray="5,2" d="M338.994,-34.6797C341.413,-36.0425 343.761,-37.482 346,-39 390.881,-69.4327 430.489,-121.036 448.579,-146.643"/>
<polygon fill="#9a32cd" stroke="#9a32cd" points="340.488,-31.5125 329.991,-30.0773 337.302,-37.7454 340.488,-31.5125"/>
<text text-anchor="middle" x="371" y="-68" font-family="Helvetica,sans-Serif" font-size="10.00"> f</text>
</g>
</g>
</svg>
        <g id="navigator" transform="translate(0 0)" fill="#404254">
                <rect fill="#f2f5e9" fill-opacity="0.5" stroke="#606060" stroke-width=".5" x="0" y="0" width="60" height="60"/>
                <use id="zoomplus" xlink:href="#zoomPlus" x="17" y="9" onmousedown="handleZoom(evt,'in')"/>
                <use id="zoomminus" xlink:href="#zoomMin" x="42" y="9" onmousedown="handleZoom(evt,'out')"/>
                <use id="reset" xlink:href="#resetDef" x="30" y="36" onmousedown="handleReset()"/>
                <g id="arrowUp" xlink:href="#dirArrow" transform="translate(30 24)" onmousedown="handlePan(0,-1)">
                  <use xlink:href="#rim" fill="#404040">
                        <set attributeName="fill" to="#808080" begin="arrowUp.mouseover" end="arrowUp.mouseout"/>
                  </use>
                  <path fill="none" stroke="white" stroke-width="1.5" d="M0,-3.0v7 M-2.5,-0.5L0,-3.0L2.5,-0.5"/>
                </g>
                <g id="arrowRight" xlink:href="#dirArrow" transform="rotate(90) translate(36 -43)" onmousedown="handlePan(1,0)">
                  <use xlink:href="#rim" fill="#404040">
                        <set attributeName="fill" to="#808080" begin="arrowRight.mouseover" end="arrowRight.mouseout"/>
                  </use>
                  <path fill="none" stroke="white" stroke-width="1.5" d="M0,-3.0v7 M-2.5,-0.5L0,-3.0L2.5,-0.5"/>
                </g>
                <g id="arrowDown" xlink:href="#dirArrow" transform="rotate(180) translate(-30 -48)" onmousedown="handlePan(0,1)">
                  <use xlink:href="#rim" fill="#404040">
                        <set attributeName="fill" to="#808080" begin="arrowDown.mouseover" end="arrowDown.mouseout"/>
                  </use>
                  <path fill="none" stroke="white" stroke-width="1.5" d="M0,-3.0v7 M-2.5,-0.5L0,-3.0L2.5,-0.5"/>
                </g>
                <g id="arrowLeft" xlink:href="#dirArrow" transform="rotate(270) translate(-36 17)" onmousedown="handlePan(-1,0)">
                  <use xlink:href="#rim" fill="#404040">
                        <set attributeName="fill" to="#808080" begin="arrowLeft.mouseover" end="arrowLeft.mouseout"/>
                  </use>
                  <path fill="none" stroke="white" stroke-width="1.5" d="M0,-3.0v7 M-2.5,-0.5L0,-3.0L2.5,-0.5"/>
                </g>
        </g>
        <svg viewBox="0 0 15 15" width="100%" height="30px" preserveAspectRatio="xMaxYMin meet">
         <g id="arrow_out" transform="scale(0.3 0.3)">
          <a xlink:href="struct_generic_value_1_1_array_data__coll__graph_org.svg" target="_base">
           <rect id="button" ry="5" rx="5" y="6" x="6" height="38" width="38"
                fill="#f2f5e9" fill-opacity="0.5" stroke="#606060" stroke-width="1.0"/>
           <path id="arrow"
             d="M 11.500037,31.436501 C 11.940474,20.09759 22.043105,11.32322 32.158766,21.979434 L 37.068811,17.246167 C 37.068811,17.246167 37.088388,32 37.088388,32 L 22.160133,31.978069 C 22.160133,31.978069 26.997745,27.140456 26.997745,27.140456 C 18.528582,18.264221 13.291696,25.230495 11.500037,31.436501 z"
             style="fill:#404040;"/>
          </a>
         </g>
        </svg>
</svg>
