<?xml version="1.0" encoding="UTF-8" standalone="no"?>
<!DOCTYPE svg PUBLIC "-//W3C//DTD SVG 1.1//EN"
 "http://www.w3.org/Graphics/SVG/1.1/DTD/svg11.dtd">
<!-- Generated by graphviz version 2.26.3 (20100126.1600)
 -->
<!-- Title: Urho3D::ShaderParameter Pages: 1 -->
<svg width="1822pt" height="1063pt"
 viewBox="0.00 0.00 1822.00 1063.49" xmlns="http://www.w3.org/2000/svg" xmlns:xlink="http://www.w3.org/1999/xlink">
<g id="graph1" class="graph" transform="scale(1 1) rotate(0) translate(4 1059.49)">
<title>Urho3D::ShaderParameter</title>
<!-- Node1 -->
<g id="node1" class="node"><title>Node1</title>
<polygon fill="#bfbfbf" stroke="black" points="1670,-912.99 1670,-933.99 1814,-933.99 1814,-912.99 1670,-912.99"/>
<text text-anchor="middle" x="1742" y="-920.99" font-family="FreeSans" font-size="10.00">Urho3D::ShaderParameter</text>
</g>
<!-- Node2 -->
<g id="node2" class="node"><title>Node2</title>
<a xlink:href="class_urho3_d_1_1_constant_buffer.html" target="_top" xlink:title="Hardware constant buffer.">
<polygon fill="none" stroke="black" points="1452.5,-847.99 1452.5,-868.99 1583.5,-868.99 1583.5,-847.99 1452.5,-847.99"/>
<text text-anchor="middle" x="1518" y="-855.99" font-family="FreeSans" font-size="10.00">Urho3D::ConstantBuffer</text>
</a>
</g>
<!-- Node2&#45;&gt;Node1 -->
<g id="edge2" class="edge"><title>Node2&#45;&gt;Node1</title>
<path fill="none" stroke="#9a32cd" stroke-dasharray="5,2" d="M1564.17,-871.888C1606.05,-884.041 1666.97,-901.718 1705.53,-912.906"/>
<polygon fill="#9a32cd" stroke="#9a32cd" points="1565.07,-868.504 1554.49,-869.078 1563.12,-875.226 1565.07,-868.504"/>
<text text-anchor="middle" x="1627" y="-900.49" font-family="FreeSans" font-size="10.00"> bufferPtr_</text>
</g>
<!-- Node3 -->
<g id="node4" class="node"><title>Node3</title>
<a xlink:href="class_urho3_d_1_1_object.html" target="_top" xlink:title="Base class for objects with type identification, subsystem access and event sending/receiving capabil...">
<polygon fill="none" stroke="black" points="484,-769.99 484,-790.99 574,-790.99 574,-769.99 484,-769.99"/>
<text text-anchor="middle" x="529" y="-777.99" font-family="FreeSans" font-size="10.00">Urho3D::Object</text>
</a>
</g>
<!-- Node3&#45;&gt;Node2 -->
<g id="edge4" class="edge"><title>Node3&#45;&gt;Node2</title>
<path fill="none" stroke="midnightblue" d="M584.414,-789.078C591.006,-789.963 597.647,-790.792 604,-791.49 921.101,-826.32 1302.15,-847.69 1452.46,-855.319"/>
<polygon fill="midnightblue" stroke="midnightblue" points="584.531,-785.561 574.144,-787.652 583.568,-792.494 584.531,-785.561"/>
</g>
<!-- Node11 -->
<g id="node21" class="node"><title>Node11</title>
<a xlink:href="class_urho3_d_1_1_event_handler.html" target="_top" xlink:title="Internal helper class for invoking event handler functions.">
<polygon fill="none" stroke="red" points="753,-722.99 753,-743.99 877,-743.99 877,-722.99 753,-722.99"/>
<text text-anchor="middle" x="815" y="-730.99" font-family="FreeSans" font-size="10.00">Urho3D::EventHandler</text>
</a>
</g>
<!-- Node3&#45;&gt;Node11 -->
<g id="edge24" class="edge"><title>Node3&#45;&gt;Node11</title>
<path fill="none" stroke="#9a32cd" stroke-dasharray="5,2" d="M552.553,-764.316C566.772,-755.498 585.641,-745.405 604,-740.49 652.86,-727.411 710.357,-726.398 752.981,-728.244"/>
<polygon fill="#9a32cd" stroke="#9a32cd" points="550.451,-761.506 543.933,-769.858 554.237,-767.394 550.451,-761.506"/>
<text text-anchor="middle" x="649" y="-757.49" font-family="FreeSans" font-size="10.00"> sender_</text>
<text text-anchor="middle" x="649" y="-744.49" font-family="FreeSans" font-size="10.00">receiver_</text>
</g>
<!-- Node22 -->
<g id="node52" class="node"><title>Node22</title>
<a xlink:href="class_urho3_d_1_1_graphics.html" target="_top" xlink:title="Graphics subsystem. Manages the application window, rendering state and GPU resources.">
<polygon fill="none" stroke="red" points="764.5,-852.99 764.5,-873.99 865.5,-873.99 865.5,-852.99 764.5,-852.99"/>
<text text-anchor="middle" x="815" y="-860.99" font-family="FreeSans" font-size="10.00">Urho3D::Graphics</text>
</a>
</g>
<!-- Node3&#45;&gt;Node22 -->
<g id="edge64" class="edge"><title>Node3&#45;&gt;Node22</title>
<path fill="none" stroke="midnightblue" d="M556.912,-795.767C570.757,-802.855 587.921,-810.922 604,-816.49 657.373,-834.971 720.916,-847.967 764.225,-855.539"/>
<polygon fill="midnightblue" stroke="midnightblue" points="558.395,-792.593 547.912,-791.06 555.151,-798.796 558.395,-792.593"/>
</g>
<!-- Node4 -->
<g id="node6" class="node"><title>Node4</title>
<a xlink:href="class_urho3_d_1_1_ref_counted.html" target="_top" xlink:title="Base class for intrusively reference&#45;counted objects. These are noncopyable and non&#45;assignable.">
<polygon fill="none" stroke="black" points="188,-769.99 188,-790.99 302,-790.99 302,-769.99 188,-769.99"/>
<text text-anchor="middle" x="245" y="-777.99" font-family="FreeSans" font-size="10.00">Urho3D::RefCounted</text>
</a>
</g>
<!-- Node4&#45;&gt;Node3 -->
<g id="edge6" class="edge"><title>Node4&#45;&gt;Node3</title>
<path fill="none" stroke="midnightblue" d="M312.436,-780.49C365.317,-780.49 437.457,-780.49 483.642,-780.49"/>
<polygon fill="midnightblue" stroke="midnightblue" points="312.13,-776.99 302.13,-780.49 312.13,-783.99 312.13,-776.99"/>
</g>
<!-- Node6 -->
<g id="node10" class="node"><title>Node6</title>
<a xlink:href="class_urho3_d_1_1_context.html" target="_top" xlink:title="Urho3D execution context. Provides access to subsystems, object factories and attributes, and event receivers.">
<polygon fill="none" stroke="black" points="1094.5,-392.99 1094.5,-413.99 1191.5,-413.99 1191.5,-392.99 1094.5,-392.99"/>
<text text-anchor="middle" x="1143" y="-400.99" font-family="FreeSans" font-size="10.00">Urho3D::Context</text>
</a>
</g>
<!-- Node4&#45;&gt;Node6 -->
<g id="edge12" class="edge"><title>Node4&#45;&gt;Node6</title>
<path fill="none" stroke="midnightblue" d="M249.155,-759.941C270.051,-658.689 366.804,-214.284 472,-128.49 671.776,34.4394 858.98,48.3893 1052,-122.49 1094.91,-160.475 1132.26,-346.316 1141.05,-392.89"/>
<polygon fill="midnightblue" stroke="midnightblue" points="245.705,-759.346 247.129,-769.844 252.563,-760.749 245.705,-759.346"/>
</g>
<!-- Node5 -->
<g id="node8" class="node"><title>Node5</title>
<a xlink:href="struct_urho3_d_1_1_ref_count.html" target="_top" xlink:title="Reference count structure.">
<polygon fill="none" stroke="black" points="0,-987.99 0,-1008.99 102,-1008.99 102,-987.99 0,-987.99"/>
<text text-anchor="middle" x="51" y="-995.99" font-family="FreeSans" font-size="10.00">Urho3D::RefCount</text>
</a>
</g>
<!-- Node5&#45;&gt;Node4 -->
<g id="edge8" class="edge"><title>Node5&#45;&gt;Node4</title>
<path fill="none" stroke="#9a32cd" stroke-dasharray="5,2" d="M67.1187,-980.377C106.097,-936.576 204.527,-825.97 235.51,-791.154"/>
<polygon fill="#9a32cd" stroke="#9a32cd" points="64.3903,-978.178 60.357,-987.975 69.6196,-982.832 64.3903,-978.178"/>
<text text-anchor="middle" x="145" y="-918.49" font-family="FreeSans" font-size="10.00"> refCount_</text>
</g>
<!-- Node21 -->
<g id="node50" class="node"><title>Node21</title>
<a xlink:href="class_urho3_d_1_1_weak_ptr.html" target="_top" xlink:title="Urho3D::WeakPtr\&lt; Urho3D\l::Graphics \&gt;">
<polygon fill="none" stroke="black" points="1070,-861.49 1070,-895.49 1216,-895.49 1216,-861.49 1070,-861.49"/>
<text text-anchor="start" x="1078" y="-882.49" font-family="FreeSans" font-size="10.00">Urho3D::WeakPtr&lt; Urho3D</text>
<text text-anchor="middle" x="1143" y="-869.49" font-family="FreeSans" font-size="10.00">::Graphics &gt;</text>
</a>
</g>
<!-- Node5&#45;&gt;Node21 -->
<g id="edge70" class="edge"><title>Node5&#45;&gt;Node21</title>
<path fill="none" stroke="#9a32cd" stroke-dasharray="5,2" d="M112.45,-1001.25C227.247,-1005.48 481.853,-1010.48 694,-983.49 837.74,-965.206 1002.67,-920.288 1086.98,-895.538"/>
<polygon fill="#9a32cd" stroke="#9a32cd" points="112.239,-997.74 102.113,-1000.86 111.973,-1004.73 112.239,-997.74"/>
<text text-anchor="middle" x="529" y="-1004.49" font-family="FreeSans" font-size="10.00"> refCount_</text>
</g>
<!-- Node25 -->
<g id="node61" class="node"><title>Node25</title>
<a xlink:href="class_urho3_d_1_1_shared_array_ptr.html" target="_top" xlink:title="Urho3D::SharedArrayPtr\l\&lt; unsigned char \&gt;">
<polygon fill="none" stroke="black" points="320.5,-1021.49 320.5,-1055.49 453.5,-1055.49 453.5,-1021.49 320.5,-1021.49"/>
<text text-anchor="start" x="328.5" y="-1042.49" font-family="FreeSans" font-size="10.00">Urho3D::SharedArrayPtr</text>
<text text-anchor="middle" x="387" y="-1029.49" font-family="FreeSans" font-size="10.00">&lt; unsigned char &gt;</text>
</a>
</g>
<!-- Node5&#45;&gt;Node25 -->
<g id="edge76" class="edge"><title>Node5&#45;&gt;Node25</title>
<path fill="none" stroke="#9a32cd" stroke-dasharray="5,2" d="M110.024,-1010.88C113.393,-1011.46 116.736,-1012 120,-1012.49 187.938,-1022.66 266.226,-1029.74 320.382,-1033.92"/>
<polygon fill="#9a32cd" stroke="#9a32cd" points="110.354,-1007.39 99.8918,-1009.06 109.113,-1014.27 110.354,-1007.39"/>
<text text-anchor="middle" x="145" y="-1022.49" font-family="FreeSans" font-size="10.00"> refCount_</text>
</g>
<!-- Node6&#45;&gt;Node3 -->
<g id="edge10" class="edge"><title>Node6&#45;&gt;Node3</title>
<path fill="none" stroke="#9a32cd" stroke-dasharray="5,2" d="M1139.51,-424.254C1131.52,-465.611 1108.04,-558.817 1052,-611.49 902.457,-752.06 790.568,-637.96 604,-723.49 578.429,-735.213 553.363,-756.914 539.666,-769.893"/>
<polygon fill="#9a32cd" stroke="#9a32cd" points="1142.99,-424.722 1141.34,-414.257 1136.1,-423.467 1142.99,-424.722"/>
<text text-anchor="middle" x="815" y="-695.49" font-family="FreeSans" font-size="10.00"> context_</text>
</g>
<!-- Node7 -->
<g id="node13" class="node"><title>Node7</title>
<a xlink:href="class_urho3_d_1_1_p_o_d_vector.html" target="_top" xlink:title="Urho3D::PODVector\&lt;\l Urho3D::Object * \&gt;">
<polygon fill="none" stroke="black" points="755.5,-105.49 755.5,-139.49 874.5,-139.49 874.5,-105.49 755.5,-105.49"/>
<text text-anchor="start" x="763.5" y="-126.49" font-family="FreeSans" font-size="10.00">Urho3D::PODVector&lt;</text>
<text text-anchor="middle" x="815" y="-113.49" font-family="FreeSans" font-size="10.00"> Urho3D::Object * &gt;</text>
</a>
</g>
<!-- Node7&#45;&gt;Node6 -->
<g id="edge14" class="edge"><title>Node7&#45;&gt;Node6</title>
<path fill="none" stroke="#9a32cd" stroke-dasharray="5,2" d="M884.69,-120.375C936.41,-122.445 1005.71,-133.362 1052,-172.49 1123.11,-232.592 1139,-355.724 1142.24,-392.735"/>
<polygon fill="#9a32cd" stroke="#9a32cd" points="884.692,-116.873 874.592,-120.073 884.483,-123.87 884.692,-116.873"/>
<text text-anchor="middle" x="994" y="-176.49" font-family="FreeSans" font-size="10.00"> eventSenders_</text>
</g>
<!-- Node8 -->
<g id="node15" class="node"><title>Node8</title>
<a xlink:href="class_urho3_d_1_1_vector_base.html" target="_top" xlink:title="Vector base class.">
<polygon fill="none" stroke="black" points="472,-137.99 472,-158.99 586,-158.99 586,-137.99 472,-137.99"/>
<text text-anchor="middle" x="529" y="-145.99" font-family="FreeSans" font-size="10.00">Urho3D::VectorBase</text>
</a>
</g>
<!-- Node8&#45;&gt;Node7 -->
<g id="edge16" class="edge"><title>Node8&#45;&gt;Node7</title>
<path fill="none" stroke="midnightblue" d="M596.235,-142.378C644.522,-137.988 709.014,-132.125 755.449,-127.904"/>
<polygon fill="midnightblue" stroke="midnightblue" points="595.831,-138.9 586.189,-143.291 596.465,-145.871 595.831,-138.9"/>
</g>
<!-- Node15 -->
<g id="node33" class="node"><title>Node15</title>
<a xlink:href="class_urho3_d_1_1_p_o_d_vector.html" target="_top" xlink:title="Urho3D::PODVector\&lt;\l Urho3D::HashMap * \&gt;">
<polygon fill="none" stroke="black" points="751.5,-157.49 751.5,-191.49 878.5,-191.49 878.5,-157.49 751.5,-157.49"/>
<text text-anchor="start" x="759.5" y="-178.49" font-family="FreeSans" font-size="10.00">Urho3D::PODVector&lt;</text>
<text text-anchor="middle" x="815" y="-165.49" font-family="FreeSans" font-size="10.00"> Urho3D::HashMap * &gt;</text>
</a>
</g>
<!-- Node8&#45;&gt;Node15 -->
<g id="edge40" class="edge"><title>Node8&#45;&gt;Node15</title>
<path fill="none" stroke="midnightblue" d="M596.256,-154.604C643.166,-158.869 705.362,-164.523 751.44,-168.712"/>
<polygon fill="midnightblue" stroke="midnightblue" points="596.465,-151.109 586.189,-153.689 595.831,-158.08 596.465,-151.109"/>
</g>
<!-- Node9 -->
<g id="node17" class="node"><title>Node9</title>
<a xlink:href="class_urho3_d_1_1_hash_map.html" target="_top" xlink:title="Urho3D::HashMap\&lt; Urho3D\l::Object *, Urho3D::HashMap\l\&lt; Urho3D::StringHash, Urho3D\l::EventReceiverGroup \&gt; \&gt;">
<polygon fill="none" stroke="black" points="731.5,-591.49 731.5,-651.49 898.5,-651.49 898.5,-591.49 731.5,-591.49"/>
<text text-anchor="start" x="739.5" y="-638.49" font-family="FreeSans" font-size="10.00">Urho3D::HashMap&lt; Urho3D</text>
<text text-anchor="start" x="739.5" y="-625.49" font-family="FreeSans" font-size="10.00">::Object *, Urho3D::HashMap</text>
<text text-anchor="start" x="739.5" y="-612.49" font-family="FreeSans" font-size="10.00">&lt; Urho3D::StringHash, Urho3D</text>
<text text-anchor="middle" x="815" y="-599.49" font-family="FreeSans" font-size="10.00">::EventReceiverGroup &gt; &gt;</text>
</a>
</g>
<!-- Node9&#45;&gt;Node6 -->
<g id="edge18" class="edge"><title>Node9&#45;&gt;Node6</title>
<path fill="none" stroke="#9a32cd" stroke-dasharray="5,2" d="M908.486,-603.446C955.099,-590.99 1010.27,-570.692 1052,-538.49 1097.2,-503.607 1127.73,-439.72 1138.59,-414.32"/>
<polygon fill="#9a32cd" stroke="#9a32cd" points="907.48,-600.091 898.677,-605.986 909.235,-606.867 907.48,-600.091"/>
<text text-anchor="middle" x="994" y="-598.49" font-family="FreeSans" font-size="10.00"> specificEventReceivers_</text>
</g>
<!-- Node10 -->
<g id="node19" class="node"><title>Node10</title>
<a xlink:href="class_urho3_d_1_1_hash_base.html" target="_top" xlink:title="Hash set/map base class.">
<polygon fill="none" stroke="red" points="475,-413.99 475,-434.99 583,-434.99 583,-413.99 475,-413.99"/>
<text text-anchor="middle" x="529" y="-421.99" font-family="FreeSans" font-size="10.00">Urho3D::HashBase</text>
</a>
</g>
<!-- Node10&#45;&gt;Node9 -->
<g id="edge20" class="edge"><title>Node10&#45;&gt;Node9</title>
<path fill="none" stroke="midnightblue" d="M544.918,-442.452C574.637,-474.941 641.926,-543.69 712,-582.49 718.189,-585.917 724.741,-589.168 731.421,-592.222"/>
<polygon fill="midnightblue" stroke="midnightblue" points="547.495,-440.084 538.192,-435.014 542.303,-444.779 547.495,-440.084"/>
</g>
<!-- Node12 -->
<g id="node24" class="node"><title>Node12</title>
<a xlink:href="class_urho3_d_1_1_hash_map.html" target="_top" xlink:title="Urho3D::HashMap\&lt; Urho3D\l::StringHash, Urho3D::\lEventReceiverGroup \&gt;">
<polygon fill="none" stroke="black" points="739,-459.99 739,-506.99 891,-506.99 891,-459.99 739,-459.99"/>
<text text-anchor="start" x="747" y="-493.99" font-family="FreeSans" font-size="10.00">Urho3D::HashMap&lt; Urho3D</text>
<text text-anchor="start" x="747" y="-480.99" font-family="FreeSans" font-size="10.00">::StringHash, Urho3D::</text>
<text text-anchor="middle" x="815" y="-467.99" font-family="FreeSans" font-size="10.00">EventReceiverGroup &gt;</text>
</a>
</g>
<!-- Node10&#45;&gt;Node12 -->
<g id="edge28" class="edge"><title>Node10&#45;&gt;Node12</title>
<path fill="none" stroke="midnightblue" d="M589.997,-437.073C633.458,-446.039 692.185,-458.154 738.743,-467.759"/>
<polygon fill="midnightblue" stroke="midnightblue" points="590.632,-433.631 580.131,-435.038 589.218,-440.486 590.632,-433.631"/>
</g>
<!-- Node13 -->
<g id="node27" class="node"><title>Node13</title>
<a xlink:href="class_urho3_d_1_1_hash_map.html" target="_top" xlink:title="Urho3D::HashMap\&lt; StringHash,\l Variant \&gt;">
<polygon fill="none" stroke="black" points="729,-407.49 729,-441.49 901,-441.49 901,-407.49 729,-407.49"/>
<text text-anchor="start" x="737" y="-428.49" font-family="FreeSans" font-size="10.00">Urho3D::HashMap&lt; StringHash,</text>
<text text-anchor="middle" x="815" y="-415.49" font-family="FreeSans" font-size="10.00"> Variant &gt;</text>
</a>
</g>
<!-- Node10&#45;&gt;Node13 -->
<g id="edge32" class="edge"><title>Node10&#45;&gt;Node13</title>
<path fill="none" stroke="midnightblue" d="M593.291,-424.49C633.287,-424.49 685.215,-424.49 728.761,-424.49"/>
<polygon fill="midnightblue" stroke="midnightblue" points="593.131,-420.99 583.131,-424.49 593.131,-427.99 593.131,-420.99"/>
</g>
<!-- Node14 -->
<g id="node30" class="node"><title>Node14</title>
<a xlink:href="class_urho3_d_1_1_hash_map.html" target="_top" xlink:title="Urho3D::HashMap\&lt; Urho3D\l::StringHash, Urho3D::\lSharedPtr\&lt; Urho3D::Object \&gt; \&gt;">
<polygon fill="none" stroke="black" points="729,-341.99 729,-388.99 901,-388.99 901,-341.99 729,-341.99"/>
<text text-anchor="start" x="737" y="-375.99" font-family="FreeSans" font-size="10.00">Urho3D::HashMap&lt; Urho3D</text>
<text text-anchor="start" x="737" y="-362.99" font-family="FreeSans" font-size="10.00">::StringHash, Urho3D::</text>
<text text-anchor="middle" x="815" y="-349.99" font-family="FreeSans" font-size="10.00">SharedPtr&lt; Urho3D::Object &gt; &gt;</text>
</a>
</g>
<!-- Node10&#45;&gt;Node14 -->
<g id="edge36" class="edge"><title>Node10&#45;&gt;Node14</title>
<path fill="none" stroke="midnightblue" d="M590.12,-411.881C630.581,-403.534 684.232,-392.467 728.982,-383.235"/>
<polygon fill="midnightblue" stroke="midnightblue" points="589.218,-408.494 580.131,-413.942 590.632,-415.349 589.218,-408.494"/>
</g>
<!-- Node16 -->
<g id="node36" class="node"><title>Node16</title>
<a xlink:href="class_urho3_d_1_1_hash_map.html" target="_top" xlink:title="Urho3D::HashMap\&lt; Urho3D\l::StringHash, Urho3D::\lSharedPtr\&lt; Urho3D::ObjectFactory \&gt; \&gt;">
<polygon fill="none" stroke="black" points="712,-209.99 712,-256.99 918,-256.99 918,-209.99 712,-209.99"/>
<text text-anchor="start" x="720" y="-243.99" font-family="FreeSans" font-size="10.00">Urho3D::HashMap&lt; Urho3D</text>
<text text-anchor="start" x="720" y="-230.99" font-family="FreeSans" font-size="10.00">::StringHash, Urho3D::</text>
<text text-anchor="middle" x="815" y="-217.99" font-family="FreeSans" font-size="10.00">SharedPtr&lt; Urho3D::ObjectFactory &gt; &gt;</text>
</a>
</g>
<!-- Node10&#45;&gt;Node16 -->
<g id="edge44" class="edge"><title>Node10&#45;&gt;Node16</title>
<path fill="none" stroke="midnightblue" d="M542.884,-405.488C557.015,-386.897 580.174,-358.406 604,-337.49 647.169,-299.593 660.171,-291.259 712,-266.49 719.031,-263.13 726.489,-259.992 734.051,-257.093"/>
<polygon fill="midnightblue" stroke="midnightblue" points="539.897,-403.638 536.709,-413.742 545.502,-407.832 539.897,-403.638"/>
</g>
<!-- Node17 -->
<g id="node39" class="node"><title>Node17</title>
<a xlink:href="class_urho3_d_1_1_hash_map.html" target="_top" xlink:title="Urho3D::HashMap\&lt; Urho3D\l::String, Urho3D::Vector\l\&lt; Urho3D::StringHash \&gt; \&gt;">
<polygon fill="none" stroke="black" points="739,-525.99 739,-572.99 891,-572.99 891,-525.99 739,-525.99"/>
<text text-anchor="start" x="747" y="-559.99" font-family="FreeSans" font-size="10.00">Urho3D::HashMap&lt; Urho3D</text>
<text text-anchor="start" x="747" y="-546.99" font-family="FreeSans" font-size="10.00">::String, Urho3D::Vector</text>
<text text-anchor="middle" x="815" y="-533.99" font-family="FreeSans" font-size="10.00">&lt; Urho3D::StringHash &gt; &gt;</text>
</a>
</g>
<!-- Node10&#45;&gt;Node17 -->
<g id="edge48" class="edge"><title>Node10&#45;&gt;Node17</title>
<path fill="none" stroke="midnightblue" d="M558.058,-439.8C571.927,-447.057 588.781,-455.8 604,-463.49 651.722,-487.603 662.408,-496.502 712,-516.49 720.621,-519.965 729.759,-523.329 738.892,-526.497"/>
<polygon fill="midnightblue" stroke="midnightblue" points="559.471,-436.59 548.99,-435.046 556.221,-442.789 559.471,-436.59"/>
</g>
<!-- Node18 -->
<g id="node42" class="node"><title>Node18</title>
<a xlink:href="class_urho3_d_1_1_hash_map.html" target="_top" xlink:title="Urho3D::HashMap\&lt; Urho3D\l::StringHash, Urho3D::\lVector\&lt; Urho3D::AttributeInfo \&gt; \&gt;">
<polygon fill="none" stroke="black" points="723.5,-275.99 723.5,-322.99 906.5,-322.99 906.5,-275.99 723.5,-275.99"/>
<text text-anchor="start" x="731.5" y="-309.99" font-family="FreeSans" font-size="10.00">Urho3D::HashMap&lt; Urho3D</text>
<text text-anchor="start" x="731.5" y="-296.99" font-family="FreeSans" font-size="10.00">::StringHash, Urho3D::</text>
<text text-anchor="middle" x="815" y="-283.99" font-family="FreeSans" font-size="10.00">Vector&lt; Urho3D::AttributeInfo &gt; &gt;</text>
</a>
</g>
<!-- Node10&#45;&gt;Node18 -->
<g id="edge52" class="edge"><title>Node10&#45;&gt;Node18</title>
<path fill="none" stroke="midnightblue" d="M556.706,-408.85C592.015,-389.321 655.283,-355.667 712,-332.49 719.996,-329.222 728.444,-326.064 736.923,-323.08"/>
<polygon fill="midnightblue" stroke="midnightblue" points="554.554,-406.042 547.517,-413.963 557.957,-412.159 554.554,-406.042"/>
</g>
<!-- Node11&#45;&gt;Node6 -->
<g id="edge22" class="edge"><title>Node11&#45;&gt;Node6</title>
<path fill="none" stroke="#9a32cd" stroke-dasharray="5,2" d="M887.374,-725.441C952.416,-717.588 1039.58,-705.281 1052,-694.49 1096.75,-655.603 1132.86,-461.971 1141.19,-414.171"/>
<polygon fill="#9a32cd" stroke="#9a32cd" points="886.655,-722.002 877.141,-726.662 887.485,-728.953 886.655,-722.002"/>
<text text-anchor="middle" x="994" y="-722.49" font-family="FreeSans" font-size="10.00"> eventHandler_</text>
</g>
<!-- Node19 -->
<g id="node45" class="node"><title>Node19</title>
<a xlink:href="class_urho3_d_1_1_linked_list.html" target="_top" xlink:title="Urho3D::LinkedList\l\&lt; Urho3D::EventHandler \&gt;">
<polygon fill="none" stroke="black" points="1070,-731.49 1070,-765.49 1216,-765.49 1216,-731.49 1070,-731.49"/>
<text text-anchor="start" x="1078" y="-752.49" font-family="FreeSans" font-size="10.00">Urho3D::LinkedList</text>
<text text-anchor="middle" x="1143" y="-739.49" font-family="FreeSans" font-size="10.00">&lt; Urho3D::EventHandler &gt;</text>
</a>
</g>
<!-- Node11&#45;&gt;Node19 -->
<g id="edge56" class="edge"><title>Node11&#45;&gt;Node19</title>
<path fill="none" stroke="#9a32cd" stroke-dasharray="5,2" d="M887.298,-736.796C941.467,-739.274 1015.31,-742.65 1069.71,-745.138"/>
<polygon fill="#9a32cd" stroke="#9a32cd" points="887.229,-733.29 877.08,-736.329 886.91,-740.282 887.229,-733.29"/>
<text text-anchor="middle" x="994" y="-747.49" font-family="FreeSans" font-size="10.00"> head_</text>
</g>
<!-- Node12&#45;&gt;Node6 -->
<g id="edge26" class="edge"><title>Node12&#45;&gt;Node6</title>
<path fill="none" stroke="#9a32cd" stroke-dasharray="5,2" d="M901.085,-467.709C946.296,-458.822 1002.45,-446.839 1052,-433.49 1072.88,-427.864 1096.02,-420.216 1113.74,-414.05"/>
<polygon fill="#9a32cd" stroke="#9a32cd" points="900.168,-464.322 891.023,-469.671 901.508,-471.192 900.168,-464.322"/>
<text text-anchor="middle" x="994" y="-463.49" font-family="FreeSans" font-size="10.00"> eventReceivers_</text>
</g>
<!-- Node13&#45;&gt;Node6 -->
<g id="edge30" class="edge"><title>Node13&#45;&gt;Node6</title>
<path fill="none" stroke="#9a32cd" stroke-dasharray="5,2" d="M911.462,-418.314C971.614,-414.463 1046.45,-409.671 1094.48,-406.597"/>
<polygon fill="#9a32cd" stroke="#9a32cd" points="910.934,-414.841 901.178,-418.972 911.381,-421.826 910.934,-414.841"/>
<text text-anchor="middle" x="994" y="-420.49" font-family="FreeSans" font-size="10.00"> globalVars_</text>
</g>
<!-- Node14&#45;&gt;Node6 -->
<g id="edge34" class="edge"><title>Node14&#45;&gt;Node6</title>
<path fill="none" stroke="#9a32cd" stroke-dasharray="5,2" d="M911.462,-376.665C971.614,-383.634 1046.45,-392.305 1094.48,-397.868"/>
<polygon fill="#9a32cd" stroke="#9a32cd" points="911.515,-373.148 901.178,-375.474 910.709,-380.102 911.515,-373.148"/>
<text text-anchor="middle" x="994" y="-396.49" font-family="FreeSans" font-size="10.00"> subsystems_</text>
</g>
<!-- Node15&#45;&gt;Node6 -->
<g id="edge38" class="edge"><title>Node15&#45;&gt;Node6</title>
<path fill="none" stroke="#9a32cd" stroke-dasharray="5,2" d="M888.787,-179.567C939.389,-186.416 1005.52,-202.384 1052,-239.49 1104.93,-281.745 1131.92,-363.601 1140.18,-392.812"/>
<polygon fill="#9a32cd" stroke="#9a32cd" points="888.921,-176.056 878.562,-178.277 888.045,-183.001 888.921,-176.056"/>
<text text-anchor="middle" x="994" y="-243.49" font-family="FreeSans" font-size="10.00"> eventDataMaps_</text>
</g>
<!-- Node16&#45;&gt;Node6 -->
<g id="edge42" class="edge"><title>Node16&#45;&gt;Node6</title>
<path fill="none" stroke="#9a32cd" stroke-dasharray="5,2" d="M928.054,-252.264C969.218,-262.521 1014.75,-278.092 1052,-301.49 1090.99,-325.979 1123.14,-371.929 1136.43,-392.749"/>
<polygon fill="#9a32cd" stroke="#9a32cd" points="928.786,-248.84 918.245,-249.898 927.145,-255.645 928.786,-248.84"/>
<text text-anchor="middle" x="994" y="-305.49" font-family="FreeSans" font-size="10.00"> factories_</text>
</g>
<!-- Node17&#45;&gt;Node6 -->
<g id="edge46" class="edge"><title>Node17&#45;&gt;Node6</title>
<path fill="none" stroke="#9a32cd" stroke-dasharray="5,2" d="M900.981,-531.338C947.383,-519.519 1004.68,-501.575 1052,-476.49 1084.39,-459.32 1116.47,-429.937 1132.48,-414.194"/>
<polygon fill="#9a32cd" stroke="#9a32cd" points="900.107,-527.949 891.253,-533.767 901.803,-534.74 900.107,-527.949"/>
<text text-anchor="middle" x="994" y="-525.49" font-family="FreeSans" font-size="10.00"> objectCategories_</text>
</g>
<!-- Node18&#45;&gt;Node6 -->
<g id="edge50" class="edge"><title>Node18&#45;&gt;Node6</title>
<path fill="none" stroke="#9a32cd" stroke-dasharray="5,2" d="M916.553,-314.076C959.27,-322.057 1008.95,-333.807 1052,-350.49 1080.64,-361.588 1110.88,-380.945 1128.29,-392.942"/>
<polygon fill="#9a32cd" stroke="#9a32cd" points="917.17,-310.63 906.704,-312.279 915.913,-317.517 917.17,-310.63"/>
<text text-anchor="middle" x="994" y="-367.49" font-family="FreeSans" font-size="10.00"> attributes_</text>
<text text-anchor="middle" x="994" y="-354.49" font-family="FreeSans" font-size="10.00">networkAttributes_</text>
</g>
<!-- Node19&#45;&gt;Node3 -->
<g id="edge54" class="edge"><title>Node19&#45;&gt;Node3</title>
<path fill="none" stroke="#9a32cd" stroke-dasharray="5,2" d="M1059.6,-759.798C1057.04,-760.046 1054.5,-760.278 1052,-760.49 875.674,-775.455 664.95,-779.225 574.209,-780.173"/>
<polygon fill="#9a32cd" stroke="#9a32cd" points="1059.97,-763.279 1069.56,-758.77 1059.25,-756.316 1059.97,-763.279"/>
<text text-anchor="middle" x="815" y="-781.49" font-family="FreeSans" font-size="10.00"> eventHandlers_</text>
</g>
<!-- Node20 -->
<g id="node48" class="node"><title>Node20</title>
<a xlink:href="class_urho3_d_1_1_g_p_u_object.html" target="_top" xlink:title="Base class for GPU resources.">
<polygon fill="none" stroke="black" points="1302.5,-783.99 1302.5,-804.99 1413.5,-804.99 1413.5,-783.99 1302.5,-783.99"/>
<text text-anchor="middle" x="1358" y="-791.99" font-family="FreeSans" font-size="10.00">Urho3D::GPUObject</text>
</a>
</g>
<!-- Node20&#45;&gt;Node2 -->
<g id="edge58" class="edge"><title>Node20&#45;&gt;Node2</title>
<path fill="none" stroke="midnightblue" d="M1402.8,-808.262C1413.13,-811.703 1424.01,-815.545 1434,-819.49 1455.83,-828.115 1480.08,-839.587 1496.89,-847.853"/>
<polygon fill="midnightblue" stroke="midnightblue" points="1403.71,-804.876 1393.11,-805.095 1401.53,-811.529 1403.71,-804.876"/>
</g>
<!-- Node21&#45;&gt;Node20 -->
<g id="edge60" class="edge"><title>Node21&#45;&gt;Node20</title>
<path fill="none" stroke="#9a32cd" stroke-dasharray="5,2" d="M1196.19,-857.71C1238.95,-841.004 1297.26,-818.221 1330.95,-805.059"/>
<polygon fill="#9a32cd" stroke="#9a32cd" points="1194.81,-854.491 1186.77,-861.39 1197.36,-861.011 1194.81,-854.491"/>
<text text-anchor="middle" x="1259" y="-845.49" font-family="FreeSans" font-size="10.00"> graphics_</text>
</g>
<!-- Node22&#45;&gt;Node21 -->
<g id="edge62" class="edge"><title>Node22&#45;&gt;Node21</title>
<path fill="none" stroke="#9a32cd" stroke-dasharray="5,2" d="M875.803,-866.271C930.672,-868.78 1011.5,-872.476 1069.88,-875.146"/>
<polygon fill="#9a32cd" stroke="#9a32cd" points="875.681,-862.761 865.531,-865.801 875.361,-869.754 875.681,-862.761"/>
<text text-anchor="middle" x="994" y="-877.49" font-family="FreeSans" font-size="10.00"> ptr_</text>
</g>
<!-- Node23 -->
<g id="node55" class="node"><title>Node23</title>
<a xlink:href="class_urho3_d_1_1_string.html" target="_top" xlink:title="String class.">
<polygon fill="none" stroke="black" points="485,-880.99 485,-901.99 573,-901.99 573,-880.99 485,-880.99"/>
<text text-anchor="middle" x="529" y="-888.99" font-family="FreeSans" font-size="10.00">Urho3D::String</text>
</a>
</g>
<!-- Node23&#45;&gt;Node1 -->
<g id="edge78" class="edge"><title>Node23&#45;&gt;Node1</title>
<path fill="none" stroke="#9a32cd" stroke-dasharray="5,2" d="M544.07,-910.054C557.837,-925.446 579.702,-946.248 604,-955.49 766.043,-1017.13 820.63,-963.49 994,-963.49 994,-963.49 994,-963.49 1518,-963.49 1585.16,-963.49 1661.9,-945.851 1705.88,-933.999"/>
<polygon fill="#9a32cd" stroke="#9a32cd" points="546.464,-907.469 537.291,-902.166 541.155,-912.032 546.464,-907.469"/>
<text text-anchor="middle" x="1259" y="-967.49" font-family="FreeSans" font-size="10.00"> name_</text>
</g>
<!-- Node23&#45;&gt;Node22 -->
<g id="edge66" class="edge"><title>Node23&#45;&gt;Node22</title>
<path fill="none" stroke="#9a32cd" stroke-dasharray="5,2" d="M561.495,-877.06C574.449,-872.037 589.666,-867.027 604,-864.49 658.108,-854.915 721.249,-856.217 764.261,-858.938"/>
<polygon fill="#9a32cd" stroke="#9a32cd" points="560.043,-873.872 552.082,-880.863 562.665,-880.362 560.043,-873.872"/>
<text text-anchor="middle" x="649" y="-946.49" font-family="FreeSans" font-size="10.00"> lastShaderName_</text>
<text text-anchor="middle" x="649" y="-933.49" font-family="FreeSans" font-size="10.00">windowTitle_</text>
<text text-anchor="middle" x="649" y="-920.49" font-family="FreeSans" font-size="10.00">shaderCacheDir_</text>
<text text-anchor="middle" x="649" y="-907.49" font-family="FreeSans" font-size="10.00">apiName_</text>
<text text-anchor="middle" x="649" y="-894.49" font-family="FreeSans" font-size="10.00">shaderPath_</text>
<text text-anchor="middle" x="649" y="-881.49" font-family="FreeSans" font-size="10.00">orientations_</text>
<text text-anchor="middle" x="649" y="-868.49" font-family="FreeSans" font-size="10.00">shaderExtension_</text>
</g>
<!-- Node23&#45;&gt;Node23 -->
<g id="edge68" class="edge"><title>Node23&#45;&gt;Node23</title>
<path fill="none" stroke="#9a32cd" stroke-dasharray="5,2" d="M506.885,-911.917C508.591,-916.839 515.963,-920.49 529,-920.49 549.859,-920.49 556.215,-911.143 548.067,-902.198"/>
<polygon fill="#9a32cd" stroke="#9a32cd" points="510.28,-912.787 509.933,-902.198 503.601,-910.692 510.28,-912.787"/>
<text text-anchor="middle" x="529" y="-924.49" font-family="FreeSans" font-size="10.00"> EMPTY</text>
</g>
<!-- Node24 -->
<g id="node59" class="node"><title>Node24</title>
<a xlink:href="union_urho3_d_1_1_g_p_u_object_handle.html" target="_top" xlink:title="API&#45;specific GPU object representation.">
<polygon fill="none" stroke="black" points="1070.5,-783.99 1070.5,-804.99 1215.5,-804.99 1215.5,-783.99 1070.5,-783.99"/>
<text text-anchor="middle" x="1143" y="-791.99" font-family="FreeSans" font-size="10.00">Urho3D::GPUObjectHandle</text>
</a>
</g>
<!-- Node24&#45;&gt;Node20 -->
<g id="edge72" class="edge"><title>Node24&#45;&gt;Node20</title>
<path fill="none" stroke="#9a32cd" stroke-dasharray="5,2" d="M1225.86,-794.49C1251.44,-794.49 1278.99,-794.49 1302.28,-794.49"/>
<polygon fill="#9a32cd" stroke="#9a32cd" points="1225.79,-790.99 1215.79,-794.49 1225.79,-797.99 1225.79,-790.99"/>
<text text-anchor="middle" x="1259" y="-798.49" font-family="FreeSans" font-size="10.00"> object_</text>
</g>
<!-- Node25&#45;&gt;Node2 -->
<g id="edge74" class="edge"><title>Node25&#45;&gt;Node2</title>
<path fill="none" stroke="#9a32cd" stroke-dasharray="5,2" d="M463.6,-1044.02C620.771,-1053.11 989.689,-1062.76 1284,-980.49 1373.13,-955.575 1467.29,-894.019 1503.05,-869.159"/>
<polygon fill="#9a32cd" stroke="#9a32cd" points="463.746,-1040.52 453.556,-1043.42 463.331,-1047.51 463.746,-1040.52"/>
<text text-anchor="middle" x="994" y="-1042.49" font-family="FreeSans" font-size="10.00"> shadowData_</text>
</g>
</g>
</svg>
