<?xml version="1.0" encoding="UTF-8" standalone="no"?>
<!DOCTYPE svg PUBLIC "-//W3C//DTD SVG 1.1//EN"
 "http://www.w3.org/Graphics/SVG/1.1/DTD/svg11.dtd">
<!-- Generated by graphviz version 2.40.1 (20161225.0304)
 -->
<!-- Title: Urho3D::NodeImpl Pages: 1 -->
<!--zoomable 1109 -->
<svg id="main" version="1.1" xmlns="http://www.w3.org/2000/svg" xmlns:xlink="http://www.w3.org/1999/xlink" xml:space="preserve" onload="init(evt)">
<style type="text/css"><![CDATA[
.edge:hover path { stroke: red; }
.edge:hover polygon { stroke: red; fill: red; }
]]></style>
<script type="text/javascript"><![CDATA[
var edges = document.getElementsByTagName('g');
if (edges && edges.length) {
  for (var i=0;i<edges.length;i++) {
    if (edges[i].id.substr(0,4)=='edge') {
      edges[i].setAttribute('class','edge');
    }
  }
}
]]></script>
        <defs>
                <circle id="rim" cx="0" cy="0" r="7"/>
                <circle id="rim2" cx="0" cy="0" r="3.5"/>
                <g id="zoomPlus">
                        <use xlink:href="#rim" fill="#404040">
                                <set attributeName="fill" to="#808080" begin="zoomplus.mouseover" end="zoomplus.mouseout"/>
                        </use>
                        <path d="M-4,0h8M0,-4v8" fill="none" stroke="white" stroke-width="1.5" pointer-events="none"/>
                </g>
                <g id="zoomMin">
                        <use xlink:href="#rim" fill="#404040">
                                <set attributeName="fill" to="#808080" begin="zoomminus.mouseover" end="zoomminus.mouseout"/>
                        </use>
                        <path d="M-4,0h8" fill="none" stroke="white" stroke-width="1.5" pointer-events="none"/>
                </g>
                <g id="dirArrow">
                        <path fill="none" stroke="white" stroke-width="1.5" d="M0,-3.0v7 M-2.5,-0.5L0,-3.0L2.5,-0.5"/>
                </g>
               <g id="resetDef">
                       <use xlink:href="#rim2" fill="#404040">
                               <set attributeName="fill" to="#808080" begin="reset.mouseover" end="reset.mouseout"/>
                       </use>
               </g>
        </defs>

<script type="text/javascript">
var viewWidth = 1155;
var viewHeight = 1109;
var sectionId = 'dynsection-0';
</script>
<script xlink:href="svgpan.js"/>
<svg id="graph" class="graph">
<g id="viewport">
<title>Urho3D::NodeImpl</title>
<!-- Node1 -->
<g id="node1" class="node">
<title>Node1</title>
<polygon fill="#bfbfbf" stroke="#000000" points="1040,-341.5 1040,-360.5 1147,-360.5 1147,-341.5 1040,-341.5"/>
<text text-anchor="middle" x="1093.5" y="-348.5" font-family="Helvetica,sans-Serif" font-size="10.00" fill="#000000">Urho3D::NodeImpl</text>
</g>
<!-- Node2 -->
<g id="node2" class="node">
<title>Node2</title>
<g id="a_node2"><a xlink:href="class_urho3_d_1_1_vector_buffer.html" target="_top" xlink:title="Dynamically sized buffer that can be read and written to as a stream. ">
<polygon fill="none" stroke="#000000" points="529.5,-1011.5 529.5,-1030.5 648.5,-1030.5 648.5,-1011.5 529.5,-1011.5"/>
<text text-anchor="middle" x="589" y="-1018.5" font-family="Helvetica,sans-Serif" font-size="10.00" fill="#000000">Urho3D::VectorBuffer</text>
</a>
</g>
</g>
<!-- Node2&#45;&gt;Node1 -->
<g id="edge1" class="edge">
<title>Node2&#45;&gt;Node1</title>
<path fill="none" stroke="#9a32cd" stroke-dasharray="5,2" d="M646.1873,-1031.8411C694.5586,-1037.7129 763.4007,-1037.9427 811,-1004 1046.3359,-836.1837 1087.48,-429.5684 1092.8136,-360.9207"/>
<polygon fill="#9a32cd" stroke="#9a32cd" points="646.5651,-1028.3606 636.1912,-1030.5128 645.643,-1035.2996 646.5651,-1028.3606"/>
<text text-anchor="middle" x="886" y="-987" font-family="Helvetica,sans-Serif" font-size="10.00" fill="#000000"> attrBuffer_</text>
</g>
<!-- Node12 -->
<g id="node11" class="node">
<title>Node12</title>
<g id="a_node11"><a xlink:href="class_urho3_d_1_1_connection.html" target="_top" xlink:title="Connection to a remote network host. ">
<polygon fill="none" stroke="#000000" points="829,-556.5 829,-575.5 943,-575.5 943,-556.5 829,-556.5"/>
<text text-anchor="middle" x="886" y="-563.5" font-family="Helvetica,sans-Serif" font-size="10.00" fill="#000000">Urho3D::Connection</text>
</a>
</g>
</g>
<!-- Node2&#45;&gt;Node12 -->
<g id="edge22" class="edge">
<title>Node2&#45;&gt;Node12</title>
<path fill="none" stroke="#9a32cd" stroke-dasharray="5,2" d="M658.3684,-1011.6081C664.0048,-1009.0731 669.3211,-1005.9181 674,-1002 689.8842,-988.6986 675.9247,-972.0698 692,-959 733.7965,-925.0179 772.7374,-973.9171 811,-936 864.3058,-883.1755 882.2581,-628.7885 885.452,-575.7163"/>
<polygon fill="#9a32cd" stroke="#9a32cd" points="656.7362,-1008.4845 648.6367,-1015.3144 659.2276,-1015.0261 656.7362,-1008.4845"/>
<text text-anchor="middle" x="751.5" y="-962" font-family="Helvetica,sans-Serif" font-size="10.00" fill="#000000"> msg_</text>
</g>
<!-- Node3 -->
<g id="node3" class="node">
<title>Node3</title>
<g id="a_node3"><a xlink:href="class_urho3_d_1_1_abstract_file.html" target="_top" xlink:title="A common root class for objects that implement both Serializer and Deserializer. ">
<polygon fill="none" stroke="#ff0000" points="183,-1011.5 183,-1030.5 299,-1030.5 299,-1011.5 183,-1011.5"/>
<text text-anchor="middle" x="241" y="-1018.5" font-family="Helvetica,sans-Serif" font-size="10.00" fill="#000000">Urho3D::AbstractFile</text>
</a>
</g>
</g>
<!-- Node3&#45;&gt;Node2 -->
<g id="edge2" class="edge">
<title>Node3&#45;&gt;Node2</title>
<path fill="none" stroke="#191970" d="M309.2593,-1021C373.3529,-1021 468.2808,-1021 529.3961,-1021"/>
<polygon fill="#191970" stroke="#191970" points="309.2474,-1017.5001 299.2474,-1021 309.2473,-1024.5001 309.2474,-1017.5001"/>
</g>
<!-- Node4 -->
<g id="node4" class="node">
<title>Node4</title>
<g id="a_node4"><a xlink:href="class_urho3_d_1_1_deserializer.html" target="_top" xlink:title="Abstract stream for reading. ">
<polygon fill="none" stroke="#000000" points="0,-1011.5 0,-1030.5 118,-1030.5 118,-1011.5 0,-1011.5"/>
<text text-anchor="middle" x="59" y="-1018.5" font-family="Helvetica,sans-Serif" font-size="10.00" fill="#000000">Urho3D::Deserializer</text>
</a>
</g>
</g>
<!-- Node4&#45;&gt;Node3 -->
<g id="edge3" class="edge">
<title>Node4&#45;&gt;Node3</title>
<path fill="none" stroke="#191970" d="M128.2382,-1021C146.2439,-1021 165.4572,-1021 182.8276,-1021"/>
<polygon fill="#191970" stroke="#191970" points="128.0902,-1017.5001 118.0902,-1021 128.0901,-1024.5001 128.0902,-1017.5001"/>
</g>
<!-- Node6 -->
<g id="node5" class="node">
<title>Node6</title>
<g id="a_node5"><a xlink:href="class_urho3_d_1_1_p_o_d_vector.html" target="_top" xlink:title="Urho3D::PODVector\&lt;\l unsigned char \&gt;">
<polygon fill="none" stroke="#000000" points="181.5,-794 181.5,-824 300.5,-824 300.5,-794 181.5,-794"/>
<text text-anchor="start" x="189.5" y="-812" font-family="Helvetica,sans-Serif" font-size="10.00" fill="#000000">Urho3D::PODVector&lt;</text>
<text text-anchor="middle" x="241" y="-801" font-family="Helvetica,sans-Serif" font-size="10.00" fill="#000000"> unsigned char &gt;</text>
</a>
</g>
</g>
<!-- Node6&#45;&gt;Node2 -->
<g id="edge4" class="edge">
<title>Node6&#45;&gt;Node2</title>
<path fill="none" stroke="#9a32cd" stroke-dasharray="5,2" d="M263.8173,-830.9889C306.9979,-871.3255 405.2201,-957.1157 504,-1002 512.5353,-1005.8783 521.9219,-1008.9925 531.247,-1011.4852"/>
<polygon fill="#9a32cd" stroke="#9a32cd" points="266.0855,-828.3171 256.4074,-824.0062 261.2848,-833.4116 266.0855,-828.3171"/>
<text text-anchor="middle" x="415.5" y="-993" font-family="Helvetica,sans-Serif" font-size="10.00" fill="#000000"> buffer_</text>
</g>
<!-- Node7 -->
<g id="node6" class="node">
<title>Node7</title>
<g id="a_node6"><a xlink:href="class_urho3_d_1_1_vector_base.html" target="_top" xlink:title="Vector base class. ">
<polygon fill="none" stroke="#000000" points="2,-354.5 2,-373.5 116,-373.5 116,-354.5 2,-354.5"/>
<text text-anchor="middle" x="59" y="-361.5" font-family="Helvetica,sans-Serif" font-size="10.00" fill="#000000">Urho3D::VectorBase</text>
</a>
</g>
</g>
<!-- Node7&#45;&gt;Node6 -->
<g id="edge5" class="edge">
<title>Node7&#45;&gt;Node6</title>
<path fill="none" stroke="#191970" d="M61.958,-383.5611C70.5226,-436.5674 98.4123,-586.4683 155,-698 174.1924,-735.8274 207.025,-773.5124 226.0892,-793.7733"/>
<polygon fill="#191970" stroke="#191970" points="65.389,-382.848 60.3812,-373.5114 58.4737,-383.9331 65.389,-382.848"/>
</g>
<!-- Node8 -->
<g id="node7" class="node">
<title>Node8</title>
<g id="a_node7"><a xlink:href="class_urho3_d_1_1_p_o_d_vector.html" target="_top" xlink:title="Urho3D::PODVector\&lt;\l Urho3D::Node *\&gt;">
<polygon fill="none" stroke="#000000" points="692,-112 692,-142 811,-142 811,-112 692,-112"/>
<text text-anchor="start" x="700" y="-130" font-family="Helvetica,sans-Serif" font-size="10.00" fill="#000000">Urho3D::PODVector&lt;</text>
<text text-anchor="middle" x="751.5" y="-119" font-family="Helvetica,sans-Serif" font-size="10.00" fill="#000000"> Urho3D::Node *&gt;</text>
</a>
</g>
</g>
<!-- Node7&#45;&gt;Node8 -->
<g id="edge7" class="edge">
<title>Node7&#45;&gt;Node8</title>
<path fill="none" stroke="#191970" d="M80.0244,-348.3704C141.3317,-303.8942 326.8032,-177.0732 504,-134 566.7588,-118.7445 641.1054,-118.9851 691.8193,-121.787"/>
<polygon fill="#191970" stroke="#191970" points="77.9013,-345.5869 71.8957,-354.3152 82.0336,-351.2371 77.9013,-345.5869"/>
</g>
<!-- Node11 -->
<g id="node10" class="node">
<title>Node11</title>
<g id="a_node10"><a xlink:href="class_urho3_d_1_1_vector.html" target="_top" xlink:title="Urho3D::Vector\&lt; String \&gt;">
<polygon fill="none" stroke="#000000" points="345,-67.5 345,-86.5 486,-86.5 486,-67.5 345,-67.5"/>
<text text-anchor="middle" x="415.5" y="-74.5" font-family="Helvetica,sans-Serif" font-size="10.00" fill="#000000">Urho3D::Vector&lt; String &gt;</text>
</a>
</g>
</g>
<!-- Node7&#45;&gt;Node11 -->
<g id="edge13" class="edge">
<title>Node7&#45;&gt;Node11</title>
<path fill="none" stroke="#191970" d="M61.8734,-344.2943C70.4049,-288.6932 97.4202,-132.5711 136,-101 203.8441,-45.481 314.463,-56.1704 374.1635,-67.4103"/>
<polygon fill="#191970" stroke="#191970" points="58.3976,-343.8725 60.3756,-354.2811 65.3202,-344.9108 58.3976,-343.8725"/>
</g>
<!-- Node90 -->
<g id="node20" class="node">
<title>Node90</title>
<g id="a_node20"><a xlink:href="class_urho3_d_1_1_vector.html" target="_top" xlink:title="Urho3D::Vector\&lt; Urho3D\l::RemoteEvent \&gt;">
<polygon fill="none" stroke="#000000" points="346.5,-510 346.5,-540 484.5,-540 484.5,-510 346.5,-510"/>
<text text-anchor="start" x="354.5" y="-528" font-family="Helvetica,sans-Serif" font-size="10.00" fill="#000000">Urho3D::Vector&lt; Urho3D</text>
<text text-anchor="middle" x="415.5" y="-517" font-family="Helvetica,sans-Serif" font-size="10.00" fill="#000000">::RemoteEvent &gt;</text>
</a>
</g>
</g>
<!-- Node7&#45;&gt;Node90 -->
<g id="edge27" class="edge">
<title>Node7&#45;&gt;Node90</title>
<path fill="none" stroke="#191970" d="M84.5823,-378.5928C133.7629,-406.1948 245.4583,-466.7082 345,-505 349.5122,-506.7358 354.2383,-508.3969 359.0152,-509.9673"/>
<polygon fill="#191970" stroke="#191970" points="86.0313,-375.3918 75.6018,-373.5275 82.5924,-381.4888 86.0313,-375.3918"/>
</g>
<!-- Node8&#45;&gt;Node1 -->
<g id="edge6" class="edge">
<title>Node8&#45;&gt;Node1</title>
<path fill="none" stroke="#9a32cd" stroke-dasharray="5,2" d="M789.761,-146.821C796.8945,-150.7291 804.2306,-154.8944 811,-159 917.9846,-223.8865 1040.5244,-312.2443 1080.299,-341.3026"/>
<polygon fill="#9a32cd" stroke="#9a32cd" points="791.3538,-143.7035 780.8916,-142.0323 788.0281,-149.863 791.3538,-143.7035"/>
<text text-anchor="middle" x="886" y="-245" font-family="Helvetica,sans-Serif" font-size="10.00" fill="#000000"> dependencyNodes_</text>
</g>
<!-- Node9 -->
<g id="node8" class="node">
<title>Node9</title>
<g id="a_node8"><a xlink:href="class_urho3_d_1_1_string.html" target="_top" xlink:title="String class. ">
<polygon fill="none" stroke="#000000" points="545,-1052.5 545,-1071.5 633,-1071.5 633,-1052.5 545,-1052.5"/>
<text text-anchor="middle" x="589" y="-1059.5" font-family="Helvetica,sans-Serif" font-size="10.00" fill="#000000">Urho3D::String</text>
</a>
</g>
</g>
<!-- Node9&#45;&gt;Node1 -->
<g id="edge8" class="edge">
<title>Node9&#45;&gt;Node1</title>
<path fill="none" stroke="#9a32cd" stroke-dasharray="5,2" d="M643.665,-1068.8392C720.6288,-1075.2191 860.7032,-1074.4341 943,-999 1043.4647,-906.9131 1086.6006,-433.9063 1092.7274,-360.5611"/>
<polygon fill="#9a32cd" stroke="#9a32cd" points="643.5106,-1065.3111 633.2366,-1067.8984 642.8816,-1072.2828 643.5106,-1065.3111"/>
<text text-anchor="middle" x="886" y="-1059" font-family="Helvetica,sans-Serif" font-size="10.00" fill="#000000"> name_</text>
</g>
<!-- Node9&#45;&gt;Node9 -->
<g id="edge9" class="edge">
<title>Node9&#45;&gt;Node9</title>
<path fill="none" stroke="#9a32cd" stroke-dasharray="5,2" d="M558.6856,-1080.2746C559.5499,-1085.741 569.6547,-1090 589,-1090 617.793,-1090 626.1159,-1080.5653 613.9689,-1071.7571"/>
<polygon fill="#9a32cd" stroke="#9a32cd" points="561.6799,-1082.0877 564.0311,-1071.7571 555.7508,-1078.3667 561.6799,-1082.0877"/>
<text text-anchor="middle" x="589" y="-1093" font-family="Helvetica,sans-Serif" font-size="10.00" fill="#000000"> EMPTY</text>
</g>
<!-- Node9&#45;&gt;Node12 -->
<g id="edge32" class="edge">
<title>Node9&#45;&gt;Node12</title>
<path fill="none" stroke="#9a32cd" stroke-dasharray="5,2" d="M643.081,-1049.9037C653.4716,-1047.048 664.1725,-1043.7308 674,-1040 737.9253,-1015.7325 770.1115,-1024.8041 811,-970 860.0578,-904.2464 881.5041,-630.5391 885.3544,-575.6205"/>
<polygon fill="#9a32cd" stroke="#9a32cd" points="642.0277,-1046.5618 633.2526,-1052.4987 643.8148,-1053.3298 642.0277,-1046.5618"/>
<text text-anchor="middle" x="751.5" y="-1036" font-family="Helvetica,sans-Serif" font-size="10.00" fill="#000000"> sceneFileName_</text>
</g>
<!-- Node10 -->
<g id="node9" class="node">
<title>Node10</title>
<g id="a_node9"><a xlink:href="class_urho3_d_1_1_string_hash.html" target="_top" xlink:title="32&#45;bit hash value for a string. ">
<polygon fill="none" stroke="#000000" points="829.5,-.5 829.5,-19.5 942.5,-19.5 942.5,-.5 829.5,-.5"/>
<text text-anchor="middle" x="886" y="-7.5" font-family="Helvetica,sans-Serif" font-size="10.00" fill="#000000">Urho3D::StringHash</text>
</a>
</g>
</g>
<!-- Node10&#45;&gt;Node1 -->
<g id="edge10" class="edge">
<title>Node10&#45;&gt;Node1</title>
<path fill="none" stroke="#9a32cd" stroke-dasharray="5,2" d="M952.3346,-16.5435C977.2832,-22.2401 1003.9492,-32.7397 1022,-52 1063.2428,-96.0062 1087.3904,-295.342 1092.4836,-341.457"/>
<polygon fill="#9a32cd" stroke="#9a32cd" points="953.0149,-13.1102 942.5142,-14.5196 951.6019,-19.9662 953.0149,-13.1102"/>
<text text-anchor="middle" x="991.5" y="-55" font-family="Helvetica,sans-Serif" font-size="10.00" fill="#000000"> nameHash_</text>
</g>
<!-- Node10&#45;&gt;Node10 -->
<g id="edge11" class="edge">
<title>Node10&#45;&gt;Node10</title>
<path fill="none" stroke="#9a32cd" stroke-dasharray="5,2" d="M866.7417,-29.4C868.0278,-34.3146 874.4473,-38 886,-38 904.4844,-38 909.8275,-28.5653 902.0294,-19.7571"/>
<polygon fill="#9a32cd" stroke="#9a32cd" points="870.1142,-30.3509 869.9706,-19.7571 863.4765,-28.1283 870.1142,-30.3509"/>
<text text-anchor="middle" x="886" y="-41" font-family="Helvetica,sans-Serif" font-size="10.00" fill="#000000"> ZERO</text>
</g>
<!-- Node11&#45;&gt;Node1 -->
<g id="edge12" class="edge">
<title>Node11&#45;&gt;Node1</title>
<path fill="none" stroke="#9a32cd" stroke-dasharray="5,2" d="M496.2021,-68.9122C577.4105,-63.3394 705.4052,-61.6179 811,-92 953.5947,-133.0278 1062.1249,-299.1078 1087.7359,-341.2435"/>
<polygon fill="#9a32cd" stroke="#9a32cd" points="495.7661,-65.4344 486.0444,-69.6461 496.2707,-72.4162 495.7661,-65.4344"/>
<text text-anchor="middle" x="751.5" y="-95" font-family="Helvetica,sans-Serif" font-size="10.00" fill="#000000"> tags_</text>
</g>
<!-- Node12&#45;&gt;Node1 -->
<g id="edge14" class="edge">
<title>Node12&#45;&gt;Node1</title>
<path fill="none" stroke="#9a32cd" stroke-dasharray="5,2" d="M902.2985,-549.1124C943.5718,-506.3472 1051.2538,-394.7732 1083.9488,-360.8965"/>
<polygon fill="#9a32cd" stroke="#9a32cd" points="899.6098,-546.8583 895.1838,-556.4843 904.6467,-551.7194 899.6098,-546.8583"/>
<text text-anchor="middle" x="991.5" y="-487" font-family="Helvetica,sans-Serif" font-size="10.00" fill="#000000"> owner_</text>
</g>
<!-- Node13 -->
<g id="node12" class="node">
<title>Node13</title>
<g id="a_node12"><a xlink:href="class_urho3_d_1_1_object.html" target="_top" xlink:title="Base class for objects with type identification, subsystem access and event sending/receiving capabil...">
<polygon fill="none" stroke="#ff0000" points="543.5,-307.5 543.5,-326.5 634.5,-326.5 634.5,-307.5 543.5,-307.5"/>
<text text-anchor="middle" x="589" y="-314.5" font-family="Helvetica,sans-Serif" font-size="10.00" fill="#000000">Urho3D::Object</text>
</a>
</g>
</g>
<!-- Node13&#45;&gt;Node12 -->
<g id="edge15" class="edge">
<title>Node13&#45;&gt;Node12</title>
<path fill="none" stroke="#191970" d="M644.7572,-320.6153C694.3922,-326.6945 765.9267,-342.9041 811,-386 862.8748,-435.599 880.2663,-526.492 884.7122,-556.2713"/>
<polygon fill="#191970" stroke="#191970" points="644.8434,-317.1031 634.5154,-319.4658 644.0626,-324.0594 644.8434,-317.1031"/>
</g>
<!-- Node33 -->
<g id="node13" class="node">
<title>Node33</title>
<g id="a_node13"><a xlink:href="struct_urho3_d_1_1_scene_replication_state.html" target="_top" xlink:title="Per&#45;user scene network replication state. ">
<polygon fill="none" stroke="#ff0000" points="517.5,-842 517.5,-872 660.5,-872 660.5,-842 517.5,-842"/>
<text text-anchor="start" x="525.5" y="-860" font-family="Helvetica,sans-Serif" font-size="10.00" fill="#000000">Urho3D::SceneReplication</text>
<text text-anchor="middle" x="589" y="-849" font-family="Helvetica,sans-Serif" font-size="10.00" fill="#000000">State</text>
</a>
</g>
</g>
<!-- Node33&#45;&gt;Node12 -->
<g id="edge16" class="edge">
<title>Node33&#45;&gt;Node12</title>
<path fill="none" stroke="#9a32cd" stroke-dasharray="5,2" d="M659.8541,-838.3319C664.7209,-836.3902 669.4819,-834.2819 674,-832 742.2366,-797.5368 763.0783,-787.5606 811,-728 851.4114,-677.7737 875.666,-602.2198 883.3408,-575.6529"/>
<polygon fill="#9a32cd" stroke="#9a32cd" points="658.5441,-835.0849 650.4005,-841.8623 660.9931,-841.6426 658.5441,-835.0849"/>
<text text-anchor="middle" x="751.5" y="-825" font-family="Helvetica,sans-Serif" font-size="10.00" fill="#000000"> sceneState_</text>
</g>
<!-- Node36 -->
<g id="node14" class="node">
<title>Node36</title>
<g id="a_node14"><a xlink:href="class_urho3_d_1_1_hash_set.html" target="_top" xlink:title="Urho3D::HashSet\&lt; unsigned \&gt;">
<polygon fill="none" stroke="#ff0000" points="157.5,-669.5 157.5,-688.5 324.5,-688.5 324.5,-669.5 157.5,-669.5"/>
<text text-anchor="middle" x="241" y="-676.5" font-family="Helvetica,sans-Serif" font-size="10.00" fill="#000000">Urho3D::HashSet&lt; unsigned &gt;</text>
</a>
</g>
</g>
<!-- Node36&#45;&gt;Node12 -->
<g id="edge36" class="edge">
<title>Node36&#45;&gt;Node12</title>
<path fill="none" stroke="#9a32cd" stroke-dasharray="5,2" d="M334.6504,-677.0183C490.9528,-673.4342 790.0517,-665.283 811,-655 846.3704,-637.6377 871.3723,-595.0866 881.2791,-575.7941"/>
<polygon fill="#9a32cd" stroke="#9a32cd" points="334.4838,-673.5211 324.566,-677.2478 334.6431,-680.5193 334.4838,-673.5211"/>
<text text-anchor="middle" x="589" y="-675" font-family="Helvetica,sans-Serif" font-size="10.00" fill="#000000"> nodesToProcess_</text>
</g>
<!-- Node36&#45;&gt;Node33 -->
<g id="edge17" class="edge">
<title>Node36&#45;&gt;Node33</title>
<path fill="none" stroke="#9a32cd" stroke-dasharray="5,2" d="M263.1155,-694.3591C307.1726,-724.3803 409.7802,-791.4438 504,-832 512.4772,-835.649 521.6499,-838.9607 530.7264,-841.893"/>
<polygon fill="#9a32cd" stroke="#9a32cd" points="264.8535,-691.307 254.6269,-688.538 260.8946,-697.08 264.8535,-691.307"/>
<text text-anchor="middle" x="415.5" y="-824" font-family="Helvetica,sans-Serif" font-size="10.00" fill="#000000"> dirtyNodes_</text>
</g>
<!-- Node37 -->
<g id="node15" class="node">
<title>Node37</title>
<g id="a_node15"><a xlink:href="class_urho3_d_1_1_weak_ptr.html" target="_top" xlink:title="Urho3D::WeakPtr\&lt; Urho3D\l::Scene \&gt;">
<polygon fill="none" stroke="#ff0000" points="515,-211 515,-241 663,-241 663,-211 515,-211"/>
<text text-anchor="start" x="523" y="-229" font-family="Helvetica,sans-Serif" font-size="10.00" fill="#000000">Urho3D::WeakPtr&lt; Urho3D</text>
<text text-anchor="middle" x="589" y="-218" font-family="Helvetica,sans-Serif" font-size="10.00" fill="#000000">::Scene &gt;</text>
</a>
</g>
</g>
<!-- Node37&#45;&gt;Node12 -->
<g id="edge18" class="edge">
<title>Node37&#45;&gt;Node12</title>
<path fill="none" stroke="#9a32cd" stroke-dasharray="5,2" d="M673.375,-214.6534C719.3621,-213.2886 774.2296,-220.2046 811,-253 858.3315,-295.2148 880.6938,-508.6669 885.1529,-556.4853"/>
<polygon fill="#9a32cd" stroke="#9a32cd" points="672.9444,-211.1687 663.105,-215.0976 673.2469,-218.1621 672.9444,-211.1687"/>
<text text-anchor="middle" x="751.5" y="-256" font-family="Helvetica,sans-Serif" font-size="10.00" fill="#000000"> scene_</text>
</g>
<!-- Node56 -->
<g id="node16" class="node">
<title>Node56</title>
<g id="a_node16"><a xlink:href="class_urho3_d_1_1_quaternion.html" target="_top" xlink:title="Rotation represented as a four&#45;dimensional normalized vector. ">
<polygon fill="none" stroke="#000000" points="532.5,-143.5 532.5,-162.5 645.5,-162.5 645.5,-143.5 532.5,-143.5"/>
<text text-anchor="middle" x="589" y="-150.5" font-family="Helvetica,sans-Serif" font-size="10.00" fill="#000000">Urho3D::Quaternion</text>
</a>
</g>
</g>
<!-- Node56&#45;&gt;Node12 -->
<g id="edge19" class="edge">
<title>Node56&#45;&gt;Node12</title>
<path fill="none" stroke="#9a32cd" stroke-dasharray="5,2" d="M655.6619,-158.7801C712.9063,-165.1395 789.4999,-177.4411 811,-199 863.5805,-251.7243 882.1052,-503.7899 885.4278,-556.3734"/>
<polygon fill="#9a32cd" stroke="#9a32cd" points="655.8925,-155.2848 645.5762,-157.6982 655.1458,-162.2449 655.8925,-155.2848"/>
<text text-anchor="middle" x="751.5" y="-202" font-family="Helvetica,sans-Serif" font-size="10.00" fill="#000000"> rotation_</text>
</g>
<!-- Node56&#45;&gt;Node56 -->
<g id="edge20" class="edge">
<title>Node56&#45;&gt;Node56</title>
<path fill="none" stroke="#9a32cd" stroke-dasharray="5,2" d="M558.6856,-171.2746C559.5499,-176.741 569.6547,-181 589,-181 617.793,-181 626.1159,-171.5653 613.9689,-162.7571"/>
<polygon fill="#9a32cd" stroke="#9a32cd" points="561.6799,-173.0877 564.0311,-162.7571 555.7508,-169.3667 561.6799,-173.0877"/>
<text text-anchor="middle" x="589" y="-184" font-family="Helvetica,sans-Serif" font-size="10.00" fill="#000000"> IDENTITY</text>
</g>
<!-- Node88 -->
<g id="node17" class="node">
<title>Node88</title>
<g id="a_node17"><a xlink:href="class_urho3_d_1_1_hash_map.html" target="_top" xlink:title="Urho3D::HashMap\&lt; Urho3D\l::StringHash, Urho3D::\lPackageUpload \&gt;">
<polygon fill="none" stroke="#ff0000" points="513,-951.5 513,-992.5 665,-992.5 665,-951.5 513,-951.5"/>
<text text-anchor="start" x="521" y="-980.5" font-family="Helvetica,sans-Serif" font-size="10.00" fill="#000000">Urho3D::HashMap&lt; Urho3D</text>
<text text-anchor="start" x="521" y="-969.5" font-family="Helvetica,sans-Serif" font-size="10.00" fill="#000000">::StringHash, Urho3D::</text>
<text text-anchor="middle" x="589" y="-958.5" font-family="Helvetica,sans-Serif" font-size="10.00" fill="#000000">PackageUpload &gt;</text>
</a>
</g>
</g>
<!-- Node88&#45;&gt;Node12 -->
<g id="edge21" class="edge">
<title>Node88&#45;&gt;Node12</title>
<path fill="none" stroke="#9a32cd" stroke-dasharray="5,2" d="M665.2869,-946.9012C668.2783,-945.3455 671.195,-943.7123 674,-942 683.3922,-936.2666 682.229,-930.0611 692,-925 739.9084,-900.1847 772.4459,-938.7438 811,-901 859.4442,-853.5739 881.0167,-625.8781 885.2196,-575.7681"/>
<polygon fill="#9a32cd" stroke="#9a32cd" points="663.6015,-943.8285 656.1264,-951.3367 666.6522,-950.1288 663.6015,-943.8285"/>
<text text-anchor="middle" x="751.5" y="-928" font-family="Helvetica,sans-Serif" font-size="10.00" fill="#000000"> uploads_</text>
</g>
<!-- Node89 -->
<g id="node18" class="node">
<title>Node89</title>
<g id="a_node18"><a xlink:href="class_urho3_d_1_1_hash_map.html" target="_top" xlink:title="Urho3D::HashMap\&lt; Urho3D\l::StringHash, Urho3D::\lPackageDownload \&gt;">
<polygon fill="none" stroke="#ff0000" points="513,-891.5 513,-932.5 665,-932.5 665,-891.5 513,-891.5"/>
<text text-anchor="start" x="521" y="-920.5" font-family="Helvetica,sans-Serif" font-size="10.00" fill="#000000">Urho3D::HashMap&lt; Urho3D</text>
<text text-anchor="start" x="521" y="-909.5" font-family="Helvetica,sans-Serif" font-size="10.00" fill="#000000">::StringHash, Urho3D::</text>
<text text-anchor="middle" x="589" y="-898.5" font-family="Helvetica,sans-Serif" font-size="10.00" fill="#000000">PackageDownload &gt;</text>
</a>
</g>
</g>
<!-- Node89&#45;&gt;Node12 -->
<g id="edge23" class="edge">
<title>Node89&#45;&gt;Node12</title>
<path fill="none" stroke="#9a32cd" stroke-dasharray="5,2" d="M675.1,-891.7857C729.0003,-877.5021 791.7573,-857.3476 811,-837 848.5676,-797.2753 877.8138,-619.5844 884.5383,-575.7824"/>
<polygon fill="#9a32cd" stroke="#9a32cd" points="673.9427,-888.4705 665.1512,-894.3832 675.7111,-895.2435 673.9427,-888.4705"/>
<text text-anchor="middle" x="751.5" y="-889" font-family="Helvetica,sans-Serif" font-size="10.00" fill="#000000"> downloads_</text>
</g>
<!-- Node59 -->
<g id="node19" class="node">
<title>Node59</title>
<g id="a_node19"><a xlink:href="class_urho3_d_1_1_vector3.html" target="_top" xlink:title="Three&#45;dimensional vector. ">
<polygon fill="none" stroke="#000000" points="541,-697.5 541,-716.5 637,-716.5 637,-697.5 541,-697.5"/>
<text text-anchor="middle" x="589" y="-704.5" font-family="Helvetica,sans-Serif" font-size="10.00" fill="#000000">Urho3D::Vector3</text>
</a>
</g>
</g>
<!-- Node59&#45;&gt;Node12 -->
<g id="edge24" class="edge">
<title>Node59&#45;&gt;Node12</title>
<path fill="none" stroke="#9a32cd" stroke-dasharray="5,2" d="M647.5659,-713.5147C695.088,-715.8853 762.0018,-712.3449 811,-682 852.3884,-656.3679 875.2973,-598.446 883.0091,-575.5613"/>
<polygon fill="#9a32cd" stroke="#9a32cd" points="647.625,-710.0121 637.433,-712.9057 647.2049,-716.9995 647.625,-710.0121"/>
<text text-anchor="middle" x="751.5" y="-716" font-family="Helvetica,sans-Serif" font-size="10.00" fill="#000000"> position_</text>
</g>
<!-- Node59&#45;&gt;Node59 -->
<g id="edge25" class="edge">
<title>Node59&#45;&gt;Node59</title>
<path fill="none" stroke="#9a32cd" stroke-dasharray="5,2" d="M558.6856,-725.2746C559.5499,-730.741 569.6547,-735 589,-735 617.793,-735 626.1159,-725.5653 613.9689,-716.7571"/>
<polygon fill="#9a32cd" stroke="#9a32cd" points="561.6799,-727.0877 564.0311,-716.7571 555.7508,-723.3667 561.6799,-727.0877"/>
<text text-anchor="middle" x="589" y="-815" font-family="Helvetica,sans-Serif" font-size="10.00" fill="#000000"> ONE</text>
<text text-anchor="middle" x="589" y="-804" font-family="Helvetica,sans-Serif" font-size="10.00" fill="#000000">DOWN</text>
<text text-anchor="middle" x="589" y="-793" font-family="Helvetica,sans-Serif" font-size="10.00" fill="#000000">BACK</text>
<text text-anchor="middle" x="589" y="-782" font-family="Helvetica,sans-Serif" font-size="10.00" fill="#000000">RIGHT</text>
<text text-anchor="middle" x="589" y="-771" font-family="Helvetica,sans-Serif" font-size="10.00" fill="#000000">LEFT</text>
<text text-anchor="middle" x="589" y="-760" font-family="Helvetica,sans-Serif" font-size="10.00" fill="#000000">ZERO</text>
<text text-anchor="middle" x="589" y="-749" font-family="Helvetica,sans-Serif" font-size="10.00" fill="#000000">FORWARD</text>
<text text-anchor="middle" x="589" y="-738" font-family="Helvetica,sans-Serif" font-size="10.00" fill="#000000">UP</text>
</g>
<!-- Node90&#45;&gt;Node12 -->
<g id="edge26" class="edge">
<title>Node90&#45;&gt;Node12</title>
<path fill="none" stroke="#9a32cd" stroke-dasharray="5,2" d="M460.2745,-543.7114C474.0579,-548.6421 489.44,-553.3272 504,-556 617.7013,-576.8722 753.5998,-573.9635 828.7996,-569.9774"/>
<polygon fill="#9a32cd" stroke="#9a32cd" points="461.1483,-540.3024 450.5553,-540.1029 458.7118,-546.8647 461.1483,-540.3024"/>
<text text-anchor="middle" x="589" y="-574" font-family="Helvetica,sans-Serif" font-size="10.00" fill="#000000"> remoteEvents_</text>
</g>
<!-- Node91 -->
<g id="node21" class="node">
<title>Node91</title>
<g id="a_node21"><a xlink:href="class_urho3_d_1_1_controls.html" target="_top" xlink:title="Controls sent over the network. ">
<polygon fill="none" stroke="#000000" points="539,-527.5 539,-546.5 639,-546.5 639,-527.5 539,-527.5"/>
<text text-anchor="middle" x="589" y="-534.5" font-family="Helvetica,sans-Serif" font-size="10.00" fill="#000000">Urho3D::Controls</text>
</a>
</g>
</g>
<!-- Node91&#45;&gt;Node12 -->
<g id="edge28" class="edge">
<title>Node91&#45;&gt;Node12</title>
<path fill="none" stroke="#9a32cd" stroke-dasharray="5,2" d="M649.3806,-533.1818C694.2882,-531.5259 756.8952,-531.719 811,-541 829.127,-544.1094 848.8263,-550.8134 863.4853,-556.4968"/>
<polygon fill="#9a32cd" stroke="#9a32cd" points="649.0689,-529.6916 639.2209,-533.599 649.3562,-536.6857 649.0689,-529.6916"/>
<text text-anchor="middle" x="751.5" y="-544" font-family="Helvetica,sans-Serif" font-size="10.00" fill="#000000"> controls_</text>
</g>
<!-- Node26 -->
<g id="node22" class="node">
<title>Node26</title>
<g id="a_node22"><a xlink:href="class_urho3_d_1_1_hash_map.html" target="_top" xlink:title="Urho3D::HashMap\&lt; StringHash,\l Variant \&gt;">
<polygon fill="none" stroke="#ff0000" points="155,-311 155,-341 327,-341 327,-311 155,-311"/>
<text text-anchor="start" x="163" y="-329" font-family="Helvetica,sans-Serif" font-size="10.00" fill="#000000">Urho3D::HashMap&lt; StringHash,</text>
<text text-anchor="middle" x="241" y="-318" font-family="Helvetica,sans-Serif" font-size="10.00" fill="#000000"> Variant &gt;</text>
</a>
</g>
</g>
<!-- Node26&#45;&gt;Node12 -->
<g id="edge30" class="edge">
<title>Node26&#45;&gt;Node12</title>
<path fill="none" stroke="#9a32cd" stroke-dasharray="5,2" d="M316.4958,-308.9387C403.0827,-291.7478 549.1843,-270.0105 674,-287 736.6104,-295.5223 765.6294,-281.0204 811,-325 846.0033,-358.9302 876.8164,-515.9329 884.2814,-556.4424"/>
<polygon fill="#9a32cd" stroke="#9a32cd" points="315.6058,-305.5477 306.4957,-310.9566 316.9905,-312.4094 315.6058,-305.5477"/>
<text text-anchor="middle" x="589" y="-290" font-family="Helvetica,sans-Serif" font-size="10.00" fill="#000000"> identity_</text>
</g>
<!-- Node26&#45;&gt;Node91 -->
<g id="edge29" class="edge">
<title>Node26&#45;&gt;Node91</title>
<path fill="none" stroke="#9a32cd" stroke-dasharray="5,2" d="M280.543,-345.8401C332.1895,-373.1362 423.3846,-426.2124 486,-490 496.3635,-500.5575 491.8714,-509.5288 504,-518 514.1653,-525.1 526.5395,-529.6009 538.6645,-532.4394"/>
<polygon fill="#9a32cd" stroke="#9a32cd" points="281.859,-342.5786 271.3755,-341.0465 278.6154,-348.7818 281.859,-342.5786"/>
<text text-anchor="middle" x="415.5" y="-493" font-family="Helvetica,sans-Serif" font-size="10.00" fill="#000000"> extraData_</text>
</g>
<!-- Node54 -->
<g id="node23" class="node">
<title>Node54</title>
<g id="a_node23"><a xlink:href="class_urho3_d_1_1_timer.html" target="_top" xlink:title="Low&#45;resolution operating system timer. ">
<polygon fill="none" stroke="#000000" points="545,-612.5 545,-631.5 633,-631.5 633,-612.5 545,-612.5"/>
<text text-anchor="middle" x="589" y="-619.5" font-family="Helvetica,sans-Serif" font-size="10.00" fill="#000000">Urho3D::Timer</text>
</a>
</g>
</g>
<!-- Node54&#45;&gt;Node12 -->
<g id="edge31" class="edge">
<title>Node54&#45;&gt;Node12</title>
<path fill="none" stroke="#9a32cd" stroke-dasharray="5,2" d="M641.5827,-610.3774C657.7316,-606.9134 675.5749,-603.1923 692,-600 737.8173,-591.0951 789.9301,-582.0201 828.5986,-575.488"/>
<polygon fill="#9a32cd" stroke="#9a32cd" points="640.8112,-606.9632 631.7745,-612.494 642.2878,-613.8057 640.8112,-606.9632"/>
<text text-anchor="start" x="700" y="-647" font-family="Helvetica,sans-Serif" font-size="10.00" fill="#000000"> packetCounterTimer</text>
<text text-anchor="middle" x="751.5" y="-636" font-family="Helvetica,sans-Serif" font-size="10.00" fill="#000000">_</text>
<text text-anchor="start" x="700" y="-625" font-family="Helvetica,sans-Serif" font-size="10.00" fill="#000000">lastHeardTimer</text>
<text text-anchor="middle" x="751.5" y="-614" font-family="Helvetica,sans-Serif" font-size="10.00" fill="#000000">_</text>
<text text-anchor="middle" x="751.5" y="-603" font-family="Helvetica,sans-Serif" font-size="10.00" fill="#000000">statsTimer_</text>
</g>
<!-- Node92 -->
<g id="node24" class="node">
<title>Node92</title>
<g id="a_node24"><a xlink:href="class_urho3_d_1_1_hash_map.html" target="_top" xlink:title="Urho3D::HashMap\&lt; unsigned,\l Urho3D::PODVector\&lt; unsigned\l char \&gt; \&gt;">
<polygon fill="none" stroke="#ff0000" points="504,-467.5 504,-508.5 674,-508.5 674,-467.5 504,-467.5"/>
<text text-anchor="start" x="512" y="-496.5" font-family="Helvetica,sans-Serif" font-size="10.00" fill="#000000">Urho3D::HashMap&lt; unsigned,</text>
<text text-anchor="start" x="512" y="-485.5" font-family="Helvetica,sans-Serif" font-size="10.00" fill="#000000"> Urho3D::PODVector&lt; unsigned</text>
<text text-anchor="middle" x="589" y="-474.5" font-family="Helvetica,sans-Serif" font-size="10.00" fill="#000000"> char &gt; &gt;</text>
</a>
</g>
</g>
<!-- Node92&#45;&gt;Node12 -->
<g id="edge33" class="edge">
<title>Node92&#45;&gt;Node12</title>
<path fill="none" stroke="#9a32cd" stroke-dasharray="5,2" d="M684.25,-483.5623C724.5833,-484.7395 771.3232,-490.2527 811,-506 838.8977,-517.0723 864.6431,-542.2373 877.4707,-556.2031"/>
<polygon fill="#9a32cd" stroke="#9a32cd" points="684.2125,-480.0609 674.1421,-483.3528 684.0674,-487.0594 684.2125,-480.0609"/>
<text text-anchor="middle" x="751.5" y="-520" font-family="Helvetica,sans-Serif" font-size="10.00" fill="#000000"> nodeLatestData_</text>
<text text-anchor="middle" x="751.5" y="-509" font-family="Helvetica,sans-Serif" font-size="10.00" fill="#000000">componentLatestData_</text>
</g>
<!-- Node93 -->
<g id="node25" class="node">
<title>Node93</title>
<g id="a_node25"><a xlink:href="class_urho3_d_1_1_int_vector2.html" target="_top" xlink:title="Two&#45;dimensional vector with integer values. ">
<polygon fill="none" stroke="#000000" points="534.5,-345.5 534.5,-364.5 643.5,-364.5 643.5,-345.5 534.5,-345.5"/>
<text text-anchor="middle" x="589" y="-352.5" font-family="Helvetica,sans-Serif" font-size="10.00" fill="#000000">Urho3D::IntVector2</text>
</a>
</g>
</g>
<!-- Node93&#45;&gt;Node12 -->
<g id="edge34" class="edge">
<title>Node93&#45;&gt;Node12</title>
<path fill="none" stroke="#9a32cd" stroke-dasharray="5,2" d="M633.5095,-367.6143C681.342,-382.8415 757.6689,-412.1339 811,-457 845.8037,-486.2794 871.6358,-535.4716 881.5545,-556.2589"/>
<polygon fill="#9a32cd" stroke="#9a32cd" points="634.3419,-364.2078 623.7536,-364.5779 632.2617,-370.8916 634.3419,-364.2078"/>
<text text-anchor="middle" x="751.5" y="-471" font-family="Helvetica,sans-Serif" font-size="10.00" fill="#000000"> tempPacketCounter_</text>
<text text-anchor="middle" x="751.5" y="-460" font-family="Helvetica,sans-Serif" font-size="10.00" fill="#000000">packetCounter_</text>
</g>
<!-- Node93&#45;&gt;Node93 -->
<g id="edge35" class="edge">
<title>Node93&#45;&gt;Node93</title>
<path fill="none" stroke="#9a32cd" stroke-dasharray="5,2" d="M558.6856,-373.2746C559.5499,-378.741 569.6547,-383 589,-383 617.793,-383 626.1159,-373.5653 613.9689,-364.7571"/>
<polygon fill="#9a32cd" stroke="#9a32cd" points="561.6799,-375.0877 564.0311,-364.7571 555.7508,-371.3667 561.6799,-375.0877"/>
<text text-anchor="middle" x="589" y="-441" font-family="Helvetica,sans-Serif" font-size="10.00" fill="#000000"> ONE</text>
<text text-anchor="middle" x="589" y="-430" font-family="Helvetica,sans-Serif" font-size="10.00" fill="#000000">DOWN</text>
<text text-anchor="middle" x="589" y="-419" font-family="Helvetica,sans-Serif" font-size="10.00" fill="#000000">RIGHT</text>
<text text-anchor="middle" x="589" y="-408" font-family="Helvetica,sans-Serif" font-size="10.00" fill="#000000">LEFT</text>
<text text-anchor="middle" x="589" y="-397" font-family="Helvetica,sans-Serif" font-size="10.00" fill="#000000">ZERO</text>
<text text-anchor="middle" x="589" y="-386" font-family="Helvetica,sans-Serif" font-size="10.00" fill="#000000">UP</text>
</g>
</g>
</svg>
        <g id="navigator" transform="translate(0 0)" fill="#404254">
                <rect fill="#f2f5e9" fill-opacity="0.5" stroke="#606060" stroke-width=".5" x="0" y="0" width="60" height="60"/>
                <use id="zoomplus" xlink:href="#zoomPlus" x="17" y="9" onmousedown="handleZoom(evt,'in')"/>
                <use id="zoomminus" xlink:href="#zoomMin" x="42" y="9" onmousedown="handleZoom(evt,'out')"/>
                <use id="reset" xlink:href="#resetDef" x="30" y="36" onmousedown="handleReset()"/>
                <g id="arrowUp" xlink:href="#dirArrow" transform="translate(30 24)" onmousedown="handlePan(0,-1)">
                  <use xlink:href="#rim" fill="#404040">
                        <set attributeName="fill" to="#808080" begin="arrowUp.mouseover" end="arrowUp.mouseout"/>
                  </use>
                  <path fill="none" stroke="white" stroke-width="1.5" d="M0,-3.0v7 M-2.5,-0.5L0,-3.0L2.5,-0.5"/>
                </g>
                <g id="arrowRight" xlink:href="#dirArrow" transform="rotate(90) translate(36 -43)" onmousedown="handlePan(1,0)">
                  <use xlink:href="#rim" fill="#404040">
                        <set attributeName="fill" to="#808080" begin="arrowRight.mouseover" end="arrowRight.mouseout"/>
                  </use>
                  <path fill="none" stroke="white" stroke-width="1.5" d="M0,-3.0v7 M-2.5,-0.5L0,-3.0L2.5,-0.5"/>
                </g>
                <g id="arrowDown" xlink:href="#dirArrow" transform="rotate(180) translate(-30 -48)" onmousedown="handlePan(0,1)">
                  <use xlink:href="#rim" fill="#404040">
                        <set attributeName="fill" to="#808080" begin="arrowDown.mouseover" end="arrowDown.mouseout"/>
                  </use>
                  <path fill="none" stroke="white" stroke-width="1.5" d="M0,-3.0v7 M-2.5,-0.5L0,-3.0L2.5,-0.5"/>
                </g>
                <g id="arrowLeft" xlink:href="#dirArrow" transform="rotate(270) translate(-36 17)" onmousedown="handlePan(-1,0)">
                  <use xlink:href="#rim" fill="#404040">
                        <set attributeName="fill" to="#808080" begin="arrowLeft.mouseover" end="arrowLeft.mouseout"/>
                  </use>
                  <path fill="none" stroke="white" stroke-width="1.5" d="M0,-3.0v7 M-2.5,-0.5L0,-3.0L2.5,-0.5"/>
                </g>
        </g>
        <svg viewBox="0 0 15 15" width="100%" height="30px" preserveAspectRatio="xMaxYMin meet">
         <g id="arrow_out" transform="scale(0.3 0.3)">
          <a xlink:href="struct_urho3_d_1_1_node_impl__coll__graph_org.svg" target="_base">
           <rect id="button" ry="5" rx="5" y="6" x="6" height="38" width="38"
                fill="#f2f5e9" fill-opacity="0.5" stroke="#606060" stroke-width="1.0"/>
           <path id="arrow"
             d="M 11.500037,31.436501 C 11.940474,20.09759 22.043105,11.32322 32.158766,21.979434 L 37.068811,17.246167 C 37.068811,17.246167 37.088388,32 37.088388,32 L 22.160133,31.978069 C 22.160133,31.978069 26.997745,27.140456 26.997745,27.140456 C 18.528582,18.264221 13.291696,25.230495 11.500037,31.436501 z"
             style="fill:#404040;"/>
          </a>
         </g>
        </svg>
</svg>
