<?xml version="1.0" encoding="UTF-8" standalone="no"?>
<!DOCTYPE svg PUBLIC "-//W3C//DTD SVG 1.1//EN"
 "http://www.w3.org/Graphics/SVG/1.1/DTD/svg11.dtd">
<!-- Generated by graphviz version 2.36.0 (20140111.2315)
 -->
<!-- Title: Urho3D::CollisionGeometryData Pages: 1 -->
<svg width="488pt" height="142pt"
 viewBox="0.00 0.00 488.00 142.00" xmlns="http://www.w3.org/2000/svg" xmlns:xlink="http://www.w3.org/1999/xlink">
<g id="graph0" class="graph" transform="scale(1 1) rotate(0) translate(4 138)">
<title>Urho3D::CollisionGeometryData</title>
<!-- Node1 -->
<g id="node1" class="node"><title>Node1</title>
<polygon fill="#bfbfbf" stroke="black" points="146,-57.5 146,-76.5 304,-76.5 304,-57.5 146,-57.5"/>
<text text-anchor="middle" x="225" y="-64.5" font-family="Helvetica,sans-Serif" font-size="10.00">Urho3D::CollisionGeometryData</text>
</g>
<!-- Node3 -->
<g id="node3" class="node"><title>Node3</title>
<g id="a_node3"><a xlink:href="struct_urho3_d_1_1_convex_data.html" target="_top" xlink:title="Convex hull geometry data. ">
<polygon fill="none" stroke="black" points="354.5,-114.5 354.5,-133.5 465.5,-133.5 465.5,-114.5 354.5,-114.5"/>
<text text-anchor="middle" x="410" y="-121.5" font-family="Helvetica,sans-Serif" font-size="10.00">Urho3D::ConvexData</text>
</a>
</g>
</g>
<!-- Node1&#45;&gt;Node3 -->
<g id="edge2" class="edge"><title>Node1&#45;&gt;Node3</title>
<path fill="none" stroke="midnightblue" d="M263.213,-79.9588C285.412,-87.5505 314.21,-97.1569 340,-105 350.699,-108.254 362.403,-111.568 373.084,-114.498"/>
<polygon fill="midnightblue" stroke="midnightblue" points="264.107,-76.5652 253.512,-76.6261 261.832,-83.1854 264.107,-76.5652"/>
</g>
<!-- Node4 -->
<g id="node4" class="node"><title>Node4</title>
<g id="a_node4"><a xlink:href="struct_urho3_d_1_1_g_impact_mesh_data.html" target="_top" xlink:title="Triangle mesh geometry data. ">
<polygon fill="none" stroke="black" points="340.5,-76.5 340.5,-95.5 479.5,-95.5 479.5,-76.5 340.5,-76.5"/>
<text text-anchor="middle" x="410" y="-83.5" font-family="Helvetica,sans-Serif" font-size="10.00">Urho3D::GImpactMeshData</text>
</a>
</g>
</g>
<!-- Node1&#45;&gt;Node4 -->
<g id="edge3" class="edge"><title>Node1&#45;&gt;Node4</title>
<path fill="none" stroke="midnightblue" d="M314.359,-76.1739C323.096,-77.081 331.871,-77.9921 340.365,-78.874"/>
<polygon fill="midnightblue" stroke="midnightblue" points="314.447,-72.6643 304.139,-75.1128 313.724,-79.6269 314.447,-72.6643"/>
</g>
<!-- Node5 -->
<g id="node5" class="node"><title>Node5</title>
<g id="a_node5"><a xlink:href="struct_urho3_d_1_1_heightfield_data.html" target="_top" xlink:title="Heightfield geometry data. ">
<polygon fill="none" stroke="black" points="348,-38.5 348,-57.5 472,-57.5 472,-38.5 348,-38.5"/>
<text text-anchor="middle" x="410" y="-45.5" font-family="Helvetica,sans-Serif" font-size="10.00">Urho3D::HeightfieldData</text>
</a>
</g>
</g>
<!-- Node1&#45;&gt;Node5 -->
<g id="edge4" class="edge"><title>Node1&#45;&gt;Node5</title>
<path fill="none" stroke="midnightblue" d="M314.164,-57.8464C325.612,-56.6578 337.13,-55.462 347.999,-54.3334"/>
<polygon fill="midnightblue" stroke="midnightblue" points="313.724,-54.3731 304.139,-58.8872 314.447,-61.3357 313.724,-54.3731"/>
</g>
<!-- Node6 -->
<g id="node6" class="node"><title>Node6</title>
<g id="a_node6"><a xlink:href="struct_urho3_d_1_1_triangle_mesh_data.html" target="_top" xlink:title="Triangle mesh geometry data. ">
<polygon fill="none" stroke="black" points="342,-0.5 342,-19.5 478,-19.5 478,-0.5 342,-0.5"/>
<text text-anchor="middle" x="410" y="-7.5" font-family="Helvetica,sans-Serif" font-size="10.00">Urho3D::TriangleMeshData</text>
</a>
</g>
</g>
<!-- Node1&#45;&gt;Node6 -->
<g id="edge5" class="edge"><title>Node1&#45;&gt;Node6</title>
<path fill="none" stroke="midnightblue" d="M263.213,-54.0412C285.412,-46.4495 314.21,-36.8431 340,-29 350.699,-25.7464 362.403,-22.4321 373.084,-19.502"/>
<polygon fill="midnightblue" stroke="midnightblue" points="261.832,-50.8146 253.512,-57.3739 264.107,-57.4348 261.832,-50.8146"/>
</g>
<!-- Node2 -->
<g id="node2" class="node"><title>Node2</title>
<g id="a_node2"><a xlink:href="class_urho3_d_1_1_ref_counted.html" target="_top" xlink:title="Base class for intrusively reference&#45;counted objects. These are noncopyable and non&#45;assignable. ">
<polygon fill="none" stroke="black" points="0.5,-57.5 0.5,-76.5 109.5,-76.5 109.5,-57.5 0.5,-57.5"/>
<text text-anchor="middle" x="55" y="-64.5" font-family="Helvetica,sans-Serif" font-size="10.00">Urho3D::RefCounted</text>
</a>
</g>
</g>
<!-- Node2&#45;&gt;Node1 -->
<g id="edge1" class="edge"><title>Node2&#45;&gt;Node1</title>
<path fill="none" stroke="midnightblue" d="M119.807,-67C128.299,-67 137.085,-67 145.787,-67"/>
<polygon fill="midnightblue" stroke="midnightblue" points="119.618,-63.5001 109.618,-67 119.618,-70.5001 119.618,-63.5001"/>
</g>
</g>
</svg>
