<?xml version="1.0" encoding="UTF-8" standalone="no"?>
<!DOCTYPE svg PUBLIC "-//W3C//DTD SVG 1.1//EN"
 "http://www.w3.org/Graphics/SVG/1.1/DTD/svg11.dtd">
<!-- Generated by graphviz version 2.36.0 (20140111.2315)
 -->
<!-- Title: Urho3D::NavigationPathPoint Pages: 1 -->
<svg width="197pt" height="164pt"
 viewBox="0.00 0.00 197.00 164.00" xmlns="http://www.w3.org/2000/svg" xmlns:xlink="http://www.w3.org/1999/xlink">
<g id="graph0" class="graph" transform="scale(1 1) rotate(0) translate(4 160)">
<title>Urho3D::NavigationPathPoint</title>
<!-- Node1 -->
<g id="node1" class="node"><title>Node1</title>
<polygon fill="#bfbfbf" stroke="black" points="-0.5,-0.5 -0.5,-19.5 154.5,-19.5 154.5,-0.5 -0.5,-0.5"/>
<text text-anchor="middle" x="77" y="-7.5" font-family="FreeSans" font-size="10.00">Urho3D::NavigationPathPoint</text>
</g>
<!-- Node2 -->
<g id="node2" class="node"><title>Node2</title>
<g id="a_node2"><a xlink:href="class_urho3_d_1_1_vector3.html" target="_top" xlink:title="Three&#45;dimensional vector. ">
<polygon fill="none" stroke="black" points="29,-102.5 29,-121.5 125,-121.5 125,-102.5 29,-102.5"/>
<text text-anchor="middle" x="77" y="-109.5" font-family="FreeSans" font-size="10.00">Urho3D::Vector3</text>
</a>
</g>
</g>
<!-- Node2&#45;&gt;Node1 -->
<g id="edge1" class="edge"><title>Node2&#45;&gt;Node1</title>
<path fill="none" stroke="#9a32cd" stroke-dasharray="5,2" d="M77,-92.1936C77,-70.4192 77,-35.502 77,-19.5044"/>
<polygon fill="#9a32cd" stroke="#9a32cd" points="73.5001,-92.474 77,-102.474 80.5001,-92.4741 73.5001,-92.474"/>
<text text-anchor="middle" x="100" y="-41.5" font-family="FreeSans" font-size="10.00"> position_</text>
</g>
<!-- Node2&#45;&gt;Node2 -->
<g id="edge2" class="edge"><title>Node2&#45;&gt;Node2</title>
<path fill="none" stroke="#9a32cd" stroke-dasharray="5,2" d="M106.351,-123.769C125.052,-126.781 143,-122.857 143,-112 143,-99.25 118.25,-96.0625 96.5938,-102.438"/>
<polygon fill="#9a32cd" stroke="#9a32cd" points="107.12,-120.355 96.5938,-121.562 105.575,-127.182 107.12,-120.355"/>
<text text-anchor="middle" x="166" y="-148" font-family="FreeSans" font-size="10.00"> ONE</text>
<text text-anchor="middle" x="166" y="-137" font-family="FreeSans" font-size="10.00">DOWN</text>
<text text-anchor="middle" x="166" y="-126" font-family="FreeSans" font-size="10.00">BACK</text>
<text text-anchor="middle" x="166" y="-115" font-family="FreeSans" font-size="10.00">RIGHT</text>
<text text-anchor="middle" x="166" y="-104" font-family="FreeSans" font-size="10.00">LEFT</text>
<text text-anchor="middle" x="166" y="-93" font-family="FreeSans" font-size="10.00">ZERO</text>
<text text-anchor="middle" x="166" y="-82" font-family="FreeSans" font-size="10.00">FORWARD</text>
<text text-anchor="middle" x="166" y="-71" font-family="FreeSans" font-size="10.00">UP</text>
</g>
</g>
</svg>
