<?xml version="1.0" encoding="UTF-8" standalone="no"?>
<!DOCTYPE svg PUBLIC "-//W3C//DTD SVG 1.1//EN"
 "http://www.w3.org/Graphics/SVG/1.1/DTD/svg11.dtd">
<!-- Generated by graphviz version 2.26.3 (20100126.1600)
 -->
<!-- Title: GenericValue&lt; Encoding, Allocator &gt;::ArrayData Pages: 1 -->
<!--zoomable 302 -->
<svg id="main" version="1.1" xmlns="http://www.w3.org/2000/svg" xmlns:xlink="http://www.w3.org/1999/xlink" xml:space="preserve" onload="init(evt)">
        <defs>
                <circle id="rim" cx="0" cy="0" r="7"/>
                <circle id="rim2" cx="0" cy="0" r="3.5"/>
                <g id="zoomPlus">
                        <use xlink:href="#rim" fill="#404040">
                                <set attributeName="fill" to="#808080" begin="zoomplus.mouseover" end="zoomplus.mouseout"/>
                        </use>
                        <path d="M-4,0h8M0,-4v8" fill="none" stroke="white" stroke-width="1.5" pointer-events="none"/>
                </g>
                <g id="zoomMin">
                        <use xlink:href="#rim" fill="#404040">
                                <set attributeName="fill" to="#808080" begin="zoomminus.mouseover" end="zoomminus.mouseout"/>
                        </use>
                        <path d="M-4,0h8" fill="none" stroke="white" stroke-width="1.5" pointer-events="none"/>
                </g>
                <g id="dirArrow">
                        <path fill="none" stroke="white" stroke-width="1.5" d="M0,-3.0v7 M-2.5,-0.5L0,-3.0L2.5,-0.5"/>
                </g>
               <g id="resetDef">
                       <use xlink:href="#rim2" fill="#404040">
                               <set attributeName="fill" to="#808080" begin="reset.mouseover" end="reset.mouseout"/>
                       </use>
               </g>
        </defs>

<script type="text/javascript">
var viewWidth = 778;
var viewHeight = 302;
var sectionId = 'dynsection-0';
</script>
<script xlink:href="svgpan.js"/>
<svg id="graph" class="graph">
<g id="viewport">
<title>GenericValue&lt; Encoding, Allocator &gt;::ArrayData</title>
<!-- Node1 -->
<g id="node1" class="node"><title>Node1</title>
<polygon fill="#bfbfbf" stroke="black" points="238.5,-260 238.5,-294 375.5,-294 375.5,-260 238.5,-260"/>
<text text-anchor="start" x="246.5" y="-281" font-family="FreeSans" font-size="10.00">GenericValue&lt; Encoding,</text>
<text text-anchor="middle" x="307" y="-268" font-family="FreeSans" font-size="10.00"> Allocator &gt;::ArrayData</text>
</g>
<!-- Node3 -->
<g id="node4" class="node"><title>Node3</title>
<a xlink:href="union_generic_value_1_1_data.html" target="_top" xlink:title="GenericValue\&lt; Encoding,\l Allocator \&gt;::Data">
<polygon fill="none" stroke="black" points="426.5,-156 426.5,-190 563.5,-190 563.5,-156 426.5,-156"/>
<text text-anchor="start" x="434.5" y="-177" font-family="FreeSans" font-size="10.00">GenericValue&lt; Encoding,</text>
<text text-anchor="middle" x="495" y="-164" font-family="FreeSans" font-size="10.00"> Allocator &gt;::Data</text>
</a>
</g>
<!-- Node1&#45;&gt;Node3 -->
<g id="edge8" class="edge"><title>Node1&#45;&gt;Node3</title>
<path fill="none" stroke="#9a32cd" stroke-dasharray="5,2" d="M365.659,-255.929C369.194,-254.342 372.666,-252.695 376,-251 411.233,-233.09 448.909,-207.099 472.212,-190.124"/>
<polygon fill="#9a32cd" stroke="#9a32cd" points="364.016,-252.825 356.206,-259.985 366.776,-259.258 364.016,-252.825"/>
<text text-anchor="middle" x="401" y="-243" font-family="FreeSans" font-size="10.00"> a</text>
</g>
<!-- Node2 -->
<g id="node2" class="node"><title>Node2</title>
<a xlink:href="class_generic_value.html" target="_top" xlink:title="Represents a JSON value. Use Value for UTF8 encoding and default allocator.">
<polygon fill="none" stroke="black" points="632.5,-227 632.5,-261 769.5,-261 769.5,-227 632.5,-227"/>
<text text-anchor="start" x="640.5" y="-248" font-family="FreeSans" font-size="10.00">GenericValue&lt; Encoding,</text>
<text text-anchor="middle" x="701" y="-235" font-family="FreeSans" font-size="10.00"> Allocator &gt;</text>
</a>
</g>
<!-- Node2&#45;&gt;Node1 -->
<g id="edge2" class="edge"><title>Node2&#45;&gt;Node1</title>
<path fill="none" stroke="#9a32cd" stroke-dasharray="5,2" d="M622.106,-250.608C549.97,-256.65 444.346,-265.496 375.63,-271.252"/>
<polygon fill="#9a32cd" stroke="#9a32cd" points="622.824,-254.06 632.497,-249.738 622.24,-247.084 622.824,-254.06"/>
<text text-anchor="middle" x="495" y="-270" font-family="FreeSans" font-size="10.00"> elements</text>
</g>
<!-- Node3&#45;&gt;Node2 -->
<g id="edge4" class="edge"><title>Node3&#45;&gt;Node2</title>
<path fill="none" stroke="#9a32cd" stroke-dasharray="5,2" d="M554.09,-193.366C584.865,-203.973 622.076,-216.798 651.347,-226.886"/>
<polygon fill="#9a32cd" stroke="#9a32cd" points="554.937,-189.956 544.342,-190.006 552.656,-196.574 554.937,-189.956"/>
<text text-anchor="middle" x="598" y="-216" font-family="FreeSans" font-size="10.00"> data_</text>
</g>
<!-- Node4 -->
<g id="node6" class="node"><title>Node4</title>
<a xlink:href="struct_generic_value_1_1_string.html" target="_top" xlink:title="GenericValue\&lt; Encoding,\l Allocator \&gt;::String">
<polygon fill="none" stroke="black" points="238.5,-208 238.5,-242 375.5,-242 375.5,-208 238.5,-208"/>
<text text-anchor="start" x="246.5" y="-229" font-family="FreeSans" font-size="10.00">GenericValue&lt; Encoding,</text>
<text text-anchor="middle" x="307" y="-216" font-family="FreeSans" font-size="10.00"> Allocator &gt;::String</text>
</a>
</g>
<!-- Node4&#45;&gt;Node3 -->
<g id="edge6" class="edge"><title>Node4&#45;&gt;Node3</title>
<path fill="none" stroke="#9a32cd" stroke-dasharray="5,2" d="M378.204,-205.305C396.342,-200.288 415.684,-194.938 433.303,-190.065"/>
<polygon fill="#9a32cd" stroke="#9a32cd" points="377.263,-201.934 368.558,-207.973 379.129,-208.681 377.263,-201.934"/>
<text text-anchor="middle" x="401" y="-204" font-family="FreeSans" font-size="10.00"> s</text>
</g>
<!-- Node5 -->
<g id="node9" class="node"><title>Node5</title>
<a xlink:href="struct_generic_value_1_1_object_data.html" target="_top" xlink:title="GenericValue\&lt; Encoding,\l Allocator \&gt;::ObjectData">
<polygon fill="none" stroke="black" points="238.5,-156 238.5,-190 375.5,-190 375.5,-156 238.5,-156"/>
<text text-anchor="start" x="246.5" y="-177" font-family="FreeSans" font-size="10.00">GenericValue&lt; Encoding,</text>
<text text-anchor="middle" x="307" y="-164" font-family="FreeSans" font-size="10.00"> Allocator &gt;::ObjectData</text>
</a>
</g>
<!-- Node5&#45;&gt;Node3 -->
<g id="edge10" class="edge"><title>Node5&#45;&gt;Node3</title>
<path fill="none" stroke="#9a32cd" stroke-dasharray="5,2" d="M385.826,-173C399.238,-173 413.074,-173 426.201,-173"/>
<polygon fill="#9a32cd" stroke="#9a32cd" points="385.67,-169.5 375.67,-173 385.67,-176.5 385.67,-169.5"/>
<text text-anchor="middle" x="401" y="-177" font-family="FreeSans" font-size="10.00"> o</text>
</g>
<!-- Node6 -->
<g id="node11" class="node"><title>Node6</title>
<a xlink:href="struct_generic_member.html" target="_top" xlink:title="Name&#45;value pair in a JSON object value.">
<polygon fill="none" stroke="black" points="0.5,-156 0.5,-190 151.5,-190 151.5,-156 0.5,-156"/>
<text text-anchor="start" x="8.5" y="-177" font-family="FreeSans" font-size="10.00">GenericMember&lt; Encoding,</text>
<text text-anchor="middle" x="76" y="-164" font-family="FreeSans" font-size="10.00"> Allocator &gt;</text>
</a>
</g>
<!-- Node6&#45;&gt;Node5 -->
<g id="edge12" class="edge"><title>Node6&#45;&gt;Node5</title>
<path fill="none" stroke="#9a32cd" stroke-dasharray="5,2" d="M161.914,-173C187.084,-173 214.265,-173 238.22,-173"/>
<polygon fill="#9a32cd" stroke="#9a32cd" points="161.638,-169.5 151.638,-173 161.638,-176.5 161.638,-169.5"/>
<text text-anchor="middle" x="195" y="-177" font-family="FreeSans" font-size="10.00"> members</text>
</g>
<!-- Node7 -->
<g id="node13" class="node"><title>Node7</title>
<a xlink:href="union_generic_value_1_1_number.html" target="_top" xlink:title="GenericValue\&lt; Encoding,\l Allocator \&gt;::Number">
<polygon fill="none" stroke="black" points="238.5,-104 238.5,-138 375.5,-138 375.5,-104 238.5,-104"/>
<text text-anchor="start" x="246.5" y="-125" font-family="FreeSans" font-size="10.00">GenericValue&lt; Encoding,</text>
<text text-anchor="middle" x="307" y="-112" font-family="FreeSans" font-size="10.00"> Allocator &gt;::Number</text>
</a>
</g>
<!-- Node7&#45;&gt;Node3 -->
<g id="edge14" class="edge"><title>Node7&#45;&gt;Node3</title>
<path fill="none" stroke="#9a32cd" stroke-dasharray="5,2" d="M378.204,-140.695C396.342,-145.712 415.684,-151.062 433.303,-155.935"/>
<polygon fill="#9a32cd" stroke="#9a32cd" points="379.129,-137.319 368.558,-138.027 377.263,-144.066 379.129,-137.319"/>
<text text-anchor="middle" x="401" y="-152" font-family="FreeSans" font-size="10.00"> n</text>
</g>
<!-- Node8 -->
<g id="node15" class="node"><title>Node8</title>
<a xlink:href="struct_generic_value_1_1_number_1_1_u.html" target="_top" xlink:title="GenericValue\&lt; Encoding,\l Allocator \&gt;::Number::U">
<polygon fill="none" stroke="black" points="7.5,-104 7.5,-138 144.5,-138 144.5,-104 7.5,-104"/>
<text text-anchor="start" x="15.5" y="-125" font-family="FreeSans" font-size="10.00">GenericValue&lt; Encoding,</text>
<text text-anchor="middle" x="76" y="-112" font-family="FreeSans" font-size="10.00"> Allocator &gt;::Number::U</text>
</a>
</g>
<!-- Node8&#45;&gt;Node7 -->
<g id="edge16" class="edge"><title>Node8&#45;&gt;Node7</title>
<path fill="none" stroke="#9a32cd" stroke-dasharray="5,2" d="M154.891,-121C181.946,-121 211.99,-121 238.184,-121"/>
<polygon fill="#9a32cd" stroke="#9a32cd" points="154.682,-117.5 144.682,-121 154.682,-124.5 154.682,-117.5"/>
<text text-anchor="middle" x="195" y="-125" font-family="FreeSans" font-size="10.00"> u</text>
</g>
<!-- Node9 -->
<g id="node17" class="node"><title>Node9</title>
<a xlink:href="struct_generic_value_1_1_number_1_1_i.html" target="_top" xlink:title="GenericValue\&lt; Encoding,\l Allocator \&gt;::Number::I">
<polygon fill="none" stroke="black" points="7.5,-52 7.5,-86 144.5,-86 144.5,-52 7.5,-52"/>
<text text-anchor="start" x="15.5" y="-73" font-family="FreeSans" font-size="10.00">GenericValue&lt; Encoding,</text>
<text text-anchor="middle" x="76" y="-60" font-family="FreeSans" font-size="10.00"> Allocator &gt;::Number::I</text>
</a>
</g>
<!-- Node9&#45;&gt;Node7 -->
<g id="edge18" class="edge"><title>Node9&#45;&gt;Node7</title>
<path fill="none" stroke="#9a32cd" stroke-dasharray="5,2" d="M154.533,-86.6785C181.681,-92.7897 211.875,-99.5866 238.184,-105.509"/>
<polygon fill="#9a32cd" stroke="#9a32cd" points="155.207,-83.2426 144.682,-84.4609 153.669,-90.0717 155.207,-83.2426"/>
<text text-anchor="middle" x="195" y="-105" font-family="FreeSans" font-size="10.00"> i</text>
</g>
<!-- Node10 -->
<g id="node19" class="node"><title>Node10</title>
<a xlink:href="struct_generic_value_1_1_short_string.html" target="_top" xlink:title="GenericValue\&lt; Encoding,\l Allocator \&gt;::ShortString">
<polygon fill="none" stroke="black" points="238.5,-52 238.5,-86 375.5,-86 375.5,-52 238.5,-52"/>
<text text-anchor="start" x="246.5" y="-73" font-family="FreeSans" font-size="10.00">GenericValue&lt; Encoding,</text>
<text text-anchor="middle" x="307" y="-60" font-family="FreeSans" font-size="10.00"> Allocator &gt;::ShortString</text>
</a>
</g>
<!-- Node10&#45;&gt;Node3 -->
<g id="edge20" class="edge"><title>Node10&#45;&gt;Node3</title>
<path fill="none" stroke="#9a32cd" stroke-dasharray="5,2" d="M365.659,-90.0709C369.194,-91.6584 372.666,-93.3051 376,-95 411.233,-112.91 448.909,-138.901 472.212,-155.876"/>
<polygon fill="#9a32cd" stroke="#9a32cd" points="366.776,-86.7418 356.206,-86.0149 364.016,-93.1746 366.776,-86.7418"/>
<text text-anchor="middle" x="401" y="-116" font-family="FreeSans" font-size="10.00"> ss</text>
</g>
<!-- Node11 -->
<g id="node21" class="node"><title>Node11</title>
<a xlink:href="struct_generic_value_1_1_flag.html" target="_top" xlink:title="GenericValue\&lt; Encoding,\l Allocator \&gt;::Flag">
<polygon fill="none" stroke="black" points="238.5,-0 238.5,-34 375.5,-34 375.5,-0 238.5,-0"/>
<text text-anchor="start" x="246.5" y="-21" font-family="FreeSans" font-size="10.00">GenericValue&lt; Encoding,</text>
<text text-anchor="middle" x="307" y="-8" font-family="FreeSans" font-size="10.00"> Allocator &gt;::Flag</text>
</a>
</g>
<!-- Node11&#45;&gt;Node3 -->
<g id="edge22" class="edge"><title>Node11&#45;&gt;Node3</title>
<path fill="none" stroke="#9a32cd" stroke-dasharray="5,2" d="M369.354,-38.8657C371.642,-40.1785 373.866,-41.5561 376,-43 422.879,-74.7255 464.149,-128.488 483.435,-155.869"/>
<polygon fill="#9a32cd" stroke="#9a32cd" points="370.756,-35.6495 360.272,-34.1206 367.514,-41.8537 370.756,-35.6495"/>
<text text-anchor="middle" x="401" y="-71" font-family="FreeSans" font-size="10.00"> f</text>
</g>
</g>
</svg>
        <g id="navigator" transform="translate(0 0)" fill="#404254">
                <rect fill="#f2f5e9" fill-opacity="0.5" stroke="#606060" stroke-width=".5" x="0" y="0" width="60" height="60"/>
                <use id="zoomplus" xlink:href="#zoomPlus" x="17" y="9" onmousedown="handleZoom(evt,'in')"/>
                <use id="zoomminus" xlink:href="#zoomMin" x="42" y="9" onmousedown="handleZoom(evt,'out')"/>
                <use id="reset" xlink:href="#resetDef" x="30" y="36" onmousedown="handleReset()"/>
                <g id="arrowUp" xlink:href="#dirArrow" transform="translate(30 24)" onmousedown="handlePan(0,-1)">
                  <use xlink:href="#rim" fill="#404040">
                        <set attributeName="fill" to="#808080" begin="arrowUp.mouseover" end="arrowUp.mouseout"/>
                  </use>
                  <path fill="none" stroke="white" stroke-width="1.5" d="M0,-3.0v7 M-2.5,-0.5L0,-3.0L2.5,-0.5"/>
                </g>
                <g id="arrowRight" xlink:href="#dirArrow" transform="rotate(90) translate(36 -43)" onmousedown="handlePan(1,0)">
                  <use xlink:href="#rim" fill="#404040">
                        <set attributeName="fill" to="#808080" begin="arrowRight.mouseover" end="arrowRight.mouseout"/>
                  </use>
                  <path fill="none" stroke="white" stroke-width="1.5" d="M0,-3.0v7 M-2.5,-0.5L0,-3.0L2.5,-0.5"/>
                </g>
                <g id="arrowDown" xlink:href="#dirArrow" transform="rotate(180) translate(-30 -48)" onmousedown="handlePan(0,1)">
                  <use xlink:href="#rim" fill="#404040">
                        <set attributeName="fill" to="#808080" begin="arrowDown.mouseover" end="arrowDown.mouseout"/>
                  </use>
                  <path fill="none" stroke="white" stroke-width="1.5" d="M0,-3.0v7 M-2.5,-0.5L0,-3.0L2.5,-0.5"/>
                </g>
                <g id="arrowLeft" xlink:href="#dirArrow" transform="rotate(270) translate(-36 17)" onmousedown="handlePan(-1,0)">
                  <use xlink:href="#rim" fill="#404040">
                        <set attributeName="fill" to="#808080" begin="arrowLeft.mouseover" end="arrowLeft.mouseout"/>
                  </use>
                  <path fill="none" stroke="white" stroke-width="1.5" d="M0,-3.0v7 M-2.5,-0.5L0,-3.0L2.5,-0.5"/>
                </g>
        </g>
        <svg viewBox="0 0 15 15" width="100%" height="30px" preserveAspectRatio="xMaxYMin meet">
         <g id="arrow_out" transform="scale(0.3 0.3)">
          <a xlink:href="struct_generic_value_1_1_array_data__coll__graph_org.svg" target="_base">
           <rect id="button" ry="5" rx="5" y="6" x="6" height="38" width="38"
                fill="#f2f5e9" fill-opacity="0.5" stroke="#606060" stroke-width="1.0"/>
           <path id="arrow"
             d="M 11.500037,31.436501 C 11.940474,20.09759 22.043105,11.32322 32.158766,21.979434 L 37.068811,17.246167 C 37.068811,17.246167 37.088388,32 37.088388,32 L 22.160133,31.978069 C 22.160133,31.978069 26.997745,27.140456 26.997745,27.140456 C 18.528582,18.264221 13.291696,25.230495 11.500037,31.436501 z"
             style="fill:#404040;"/>
          </a>
         </g>
        </svg>
</svg>
