<?xml version="1.0" encoding="UTF-8" standalone="no"?>
<!DOCTYPE svg PUBLIC "-//W3C//DTD SVG 1.1//EN"
 "http://www.w3.org/Graphics/SVG/1.1/DTD/svg11.dtd">
<!-- Generated by graphviz version 2.26.3 (20100126.1600)
 -->
<!-- Title: Urho3D::FrameBufferObject Pages: 1 -->
<svg width="1906pt" height="966pt"
 viewBox="0.00 0.00 1906.00 966.00" xmlns="http://www.w3.org/2000/svg" xmlns:xlink="http://www.w3.org/1999/xlink">
<g id="graph1" class="graph" transform="scale(1 1) rotate(0) translate(4 962)">
<title>Urho3D::FrameBufferObject</title>
<!-- Node1 -->
<g id="node1" class="node"><title>Node1</title>
<polygon fill="#bfbfbf" stroke="black" points="818.5,-291.5 818.5,-312.5 967.5,-312.5 967.5,-291.5 818.5,-291.5"/>
<text text-anchor="middle" x="893" y="-299.5" font-family="FreeSans" font-size="10.00">Urho3D::FrameBufferObject</text>
</g>
<!-- Node2 -->
<g id="node2" class="node"><title>Node2</title>
<a xlink:href="class_urho3_d_1_1_render_surface.html" target="_top" xlink:title="Color or depth&#45;stencil surface that can be rendered into.">
<polygon fill="none" stroke="black" points="544.5,-313.5 544.5,-334.5 673.5,-334.5 673.5,-313.5 544.5,-313.5"/>
<text text-anchor="middle" x="609" y="-321.5" font-family="FreeSans" font-size="10.00">Urho3D::RenderSurface</text>
</a>
</g>
<!-- Node2&#45;&gt;Node1 -->
<g id="edge2" class="edge"><title>Node2&#45;&gt;Node1</title>
<path fill="none" stroke="#9a32cd" stroke-dasharray="5,2" d="M630.222,-307.506C646.211,-296.175 669.211,-282.115 692,-276 733.209,-264.942 745.884,-269.166 788,-276 796.324,-277.351 797.882,-279.719 806,-282 818.086,-285.395 831.233,-288.644 843.561,-291.499"/>
<polygon fill="#9a32cd" stroke="#9a32cd" points="628.103,-304.719 622.105,-313.453 632.241,-310.366 628.103,-304.719"/>
<text text-anchor="middle" x="740" y="-293" font-family="FreeSans" font-size="10.00"> colorAttachments_</text>
<text text-anchor="middle" x="740" y="-280" font-family="FreeSans" font-size="10.00">depthAttachment_</text>
</g>
<!-- Node5 -->
<g id="node8" class="node"><title>Node5</title>
<a xlink:href="class_urho3_d_1_1_weak_ptr.html" target="_top" xlink:title="Urho3D::WeakPtr\&lt; Urho3D\l::RenderSurface \&gt;">
<polygon fill="none" stroke="black" points="820,-331 820,-365 966,-365 966,-331 820,-331"/>
<text text-anchor="start" x="828" y="-352" font-family="FreeSans" font-size="10.00">Urho3D::WeakPtr&lt; Urho3D</text>
<text text-anchor="middle" x="893" y="-339" font-family="FreeSans" font-size="10.00">::RenderSurface &gt;</text>
</a>
</g>
<!-- Node2&#45;&gt;Node5 -->
<g id="edge10" class="edge"><title>Node2&#45;&gt;Node5</title>
<path fill="none" stroke="#9a32cd" stroke-dasharray="5,2" d="M634.039,-339.738C649.966,-348.798 671.403,-359.296 692,-364 733.635,-373.509 781.237,-370.321 819.661,-364.378"/>
<polygon fill="#9a32cd" stroke="#9a32cd" points="635.739,-336.677 625.345,-334.623 632.19,-342.711 635.739,-336.677"/>
<text text-anchor="middle" x="740" y="-374" font-family="FreeSans" font-size="10.00"> ptr_</text>
</g>
<!-- Node21 -->
<g id="node49" class="node"><title>Node21</title>
<a xlink:href="class_urho3_d_1_1_graphics.html" target="_top" xlink:title="Graphics subsystem. Manages the application window, rendering state and GPU resources.">
<polygon fill="none" stroke="red" points="842.5,-648.5 842.5,-669.5 943.5,-669.5 943.5,-648.5 842.5,-648.5"/>
<text text-anchor="middle" x="893" y="-656.5" font-family="FreeSans" font-size="10.00">Urho3D::Graphics</text>
</a>
</g>
<!-- Node2&#45;&gt;Node21 -->
<g id="edge62" class="edge"><title>Node2&#45;&gt;Node21</title>
<path fill="none" stroke="#9a32cd" stroke-dasharray="5,2" d="M615.61,-344.179C627.581,-380.867 653.509,-460.998 674,-529 682.402,-556.882 670.573,-572.28 692,-592 724.003,-621.454 749.343,-591.065 788,-611 797.78,-616.043 796.616,-622.252 806,-628 820.22,-636.71 837.245,-643.459 852.449,-648.404"/>
<polygon fill="#9a32cd" stroke="#9a32cd" points="618.925,-343.055 612.492,-334.637 612.272,-345.23 618.925,-343.055"/>
<text text-anchor="middle" x="740" y="-628" font-family="FreeSans" font-size="10.00"> depthStencil_</text>
<text text-anchor="middle" x="740" y="-615" font-family="FreeSans" font-size="10.00">renderTargets_</text>
</g>
<!-- Node3 -->
<g id="node4" class="node"><title>Node3</title>
<a xlink:href="class_urho3_d_1_1_ref_counted.html" target="_top" xlink:title="Base class for intrusively reference&#45;counted objects. These are noncopyable and non&#45;assignable.">
<polygon fill="none" stroke="black" points="237,-403.5 237,-424.5 351,-424.5 351,-403.5 237,-403.5"/>
<text text-anchor="middle" x="294" y="-411.5" font-family="FreeSans" font-size="10.00">Urho3D::RefCounted</text>
</a>
</g>
<!-- Node3&#45;&gt;Node2 -->
<g id="edge4" class="edge"><title>Node3&#45;&gt;Node2</title>
<path fill="none" stroke="midnightblue" d="M340.418,-400.738C403.322,-382.765 514.378,-351.035 571.996,-334.573"/>
<polygon fill="midnightblue" stroke="midnightblue" points="339.405,-397.387 330.751,-403.5 341.328,-404.118 339.405,-397.387"/>
</g>
<!-- Node8 -->
<g id="node16" class="node"><title>Node8</title>
<a xlink:href="class_urho3_d_1_1_object.html" target="_top" xlink:title="Base class for objects with type identification, subsystem access and event sending/receiving capabil...">
<polygon fill="none" stroke="black" points="564,-538.5 564,-559.5 654,-559.5 654,-538.5 564,-538.5"/>
<text text-anchor="middle" x="609" y="-546.5" font-family="FreeSans" font-size="10.00">Urho3D::Object</text>
</a>
</g>
<!-- Node3&#45;&gt;Node8 -->
<g id="edge20" class="edge"><title>Node3&#45;&gt;Node8</title>
<path fill="none" stroke="midnightblue" d="M327.96,-428.554C391.845,-455.934 528.498,-514.499 584.397,-538.456"/>
<polygon fill="midnightblue" stroke="midnightblue" points="329.288,-425.315 318.718,-424.593 326.53,-431.749 329.288,-425.315"/>
</g>
<!-- Node9 -->
<g id="node19" class="node"><title>Node9</title>
<a xlink:href="class_urho3_d_1_1_context.html" target="_top" xlink:title="Urho3D execution context. Provides access to subsystems, object factories and attributes, and event receivers.">
<polygon fill="none" stroke="red" points="1122.5,-405.5 1122.5,-426.5 1219.5,-426.5 1219.5,-405.5 1122.5,-405.5"/>
<text text-anchor="middle" x="1171" y="-413.5" font-family="FreeSans" font-size="10.00">Urho3D::Context</text>
</a>
</g>
<!-- Node3&#45;&gt;Node9 -->
<g id="edge24" class="edge"><title>Node3&#45;&gt;Node9</title>
<path fill="none" stroke="midnightblue" d="M361.231,-413.491C486.493,-412.571 764.1,-410.664 998,-410 1034.44,-409.896 1043.58,-408.8 1080,-410 1093.77,-410.453 1108.69,-411.292 1122.39,-412.201"/>
<polygon fill="midnightblue" stroke="midnightblue" points="361.007,-409.992 351.033,-413.566 361.058,-416.992 361.007,-409.992"/>
</g>
<!-- Node4 -->
<g id="node6" class="node"><title>Node4</title>
<a xlink:href="struct_urho3_d_1_1_ref_count.html" target="_top" xlink:title="Reference count structure.">
<polygon fill="none" stroke="black" points="6,-403.5 6,-424.5 108,-424.5 108,-403.5 6,-403.5"/>
<text text-anchor="middle" x="57" y="-411.5" font-family="FreeSans" font-size="10.00">Urho3D::RefCount</text>
</a>
</g>
<!-- Node4&#45;&gt;Node3 -->
<g id="edge6" class="edge"><title>Node4&#45;&gt;Node3</title>
<path fill="none" stroke="#9a32cd" stroke-dasharray="5,2" d="M118.174,-414C154.731,-414 200.878,-414 236.722,-414"/>
<polygon fill="#9a32cd" stroke="#9a32cd" points="118.134,-410.5 108.134,-414 118.134,-417.5 118.134,-410.5"/>
<text text-anchor="middle" x="157" y="-418" font-family="FreeSans" font-size="10.00"> refCount_</text>
</g>
<!-- Node4&#45;&gt;Node5 -->
<g id="edge12" class="edge"><title>Node4&#45;&gt;Node5</title>
<path fill="none" stroke="#9a32cd" stroke-dasharray="5,2" d="M99.4147,-400.391C200.599,-368.737 464.662,-290.891 692,-265 734.393,-260.172 753.586,-239.778 788,-265 809.428,-280.704 787.07,-303.361 806,-322 810.044,-325.982 814.671,-329.358 819.637,-332.22"/>
<polygon fill="#9a32cd" stroke="#9a32cd" points="98.0639,-397.147 89.5741,-403.485 100.163,-403.825 98.0639,-397.147"/>
<text text-anchor="middle" x="466" y="-320" font-family="FreeSans" font-size="10.00"> refCount_</text>
</g>
<!-- Node20 -->
<g id="node47" class="node"><title>Node20</title>
<a xlink:href="class_urho3_d_1_1_weak_ptr.html" target="_top" xlink:title="Urho3D::WeakPtr\&lt; Urho3D\l::Graphics \&gt;">
<polygon fill="none" stroke="black" points="1098,-629 1098,-663 1244,-663 1244,-629 1098,-629"/>
<text text-anchor="start" x="1106" y="-650" font-family="FreeSans" font-size="10.00">Urho3D::WeakPtr&lt; Urho3D</text>
<text text-anchor="middle" x="1171" y="-637" font-family="FreeSans" font-size="10.00">::Graphics &gt;</text>
</a>
</g>
<!-- Node4&#45;&gt;Node20 -->
<g id="edge68" class="edge"><title>Node4&#45;&gt;Node20</title>
<path fill="none" stroke="#9a32cd" stroke-dasharray="5,2" d="M62.2559,-434.73C80.9175,-502.93 150.687,-716 294,-716 294,-716 294,-716 893,-716 979.352,-716 1076.35,-683.847 1129.9,-663.124"/>
<polygon fill="#9a32cd" stroke="#9a32cd" points="65.5557,-433.518 59.6106,-424.748 58.7893,-435.311 65.5557,-433.518"/>
<text text-anchor="middle" x="609" y="-720" font-family="FreeSans" font-size="10.00"> refCount_</text>
</g>
<!-- Node5&#45;&gt;Node2 -->
<g id="edge8" class="edge"><title>Node5&#45;&gt;Node2</title>
<path fill="none" stroke="#9a32cd" stroke-dasharray="5,2" d="M815.38,-329.091C806.197,-327.421 796.922,-325.991 788,-325 750.318,-320.815 707.899,-320.391 673.815,-321.095"/>
<polygon fill="#9a32cd" stroke="#9a32cd" points="814.805,-332.545 825.285,-330.988 816.122,-325.67 814.805,-332.545"/>
<text text-anchor="start" x="692" y="-355" font-family="FreeSans" font-size="10.00"> linkedDepthStencil</text>
<text text-anchor="middle" x="740" y="-342" font-family="FreeSans" font-size="10.00">_</text>
<text text-anchor="middle" x="740" y="-329" font-family="FreeSans" font-size="10.00">linkedRenderTarget_</text>
</g>
<!-- Node6 -->
<g id="node12" class="node"><title>Node6</title>
<a xlink:href="class_urho3_d_1_1_texture.html" target="_top" xlink:title="Base class for texture resources.">
<polygon fill="none" stroke="black" points="1574,-609.5 1574,-630.5 1668,-630.5 1668,-609.5 1574,-609.5"/>
<text text-anchor="middle" x="1621" y="-617.5" font-family="FreeSans" font-size="10.00">Urho3D::Texture</text>
</a>
</g>
<!-- Node6&#45;&gt;Node2 -->
<g id="edge14" class="edge"><title>Node6&#45;&gt;Node2</title>
<path fill="none" stroke="#9a32cd" stroke-dasharray="5,2" d="M1619.79,-599.269C1613.71,-516.087 1579.27,-211 1401,-211 893,-211 893,-211 893,-211 800.499,-211 774.971,-224.106 692,-265 664.724,-278.443 636.633,-300.456 621.134,-313.454"/>
<polygon fill="#9a32cd" stroke="#9a32cd" points="1616.31,-599.734 1620.47,-609.479 1623.3,-599.268 1616.31,-599.734"/>
<text text-anchor="middle" x="1171" y="-215" font-family="FreeSans" font-size="10.00"> parentTexture_</text>
</g>
<!-- Node6&#45;&gt;Node21 -->
<g id="edge64" class="edge"><title>Node6&#45;&gt;Node21</title>
<path fill="none" stroke="#9a32cd" stroke-dasharray="5,2" d="M1564.64,-632.466C1561.72,-633.009 1558.83,-633.524 1556,-634 1418.24,-657.175 1383.43,-663.54 1244,-672 1179.23,-675.93 1162.89,-672.324 1098,-672 1053.55,-671.778 1042.36,-673.749 998,-671 980.237,-669.899 960.86,-667.91 943.642,-665.863"/>
<polygon fill="#9a32cd" stroke="#9a32cd" points="1565.44,-635.876 1574.59,-630.534 1564.1,-629.005 1565.44,-635.876"/>
<text text-anchor="middle" x="1287" y="-674" font-family="FreeSans" font-size="10.00"> textures_</text>
</g>
<!-- Node23 -->
<g id="node58" class="node"><title>Node23</title>
<a xlink:href="class_urho3_d_1_1_shared_ptr.html" target="_top" xlink:title="Urho3D::SharedPtr\&lt;\l Urho3D::Texture \&gt;">
<polygon fill="none" stroke="black" points="1782,-603 1782,-637 1898,-637 1898,-603 1782,-603"/>
<text text-anchor="start" x="1790" y="-624" font-family="FreeSans" font-size="10.00">Urho3D::SharedPtr&lt;</text>
<text text-anchor="middle" x="1840" y="-611" font-family="FreeSans" font-size="10.00"> Urho3D::Texture &gt;</text>
</a>
</g>
<!-- Node6&#45;&gt;Node23 -->
<g id="edge74" class="edge"><title>Node6&#45;&gt;Node23</title>
<path fill="none" stroke="#9a32cd" stroke-dasharray="5,2" d="M1678.32,-620C1710.24,-620 1749.88,-620 1781.92,-620"/>
<polygon fill="#9a32cd" stroke="#9a32cd" points="1678.25,-616.5 1668.25,-620 1678.25,-623.5 1678.25,-616.5"/>
<text text-anchor="middle" x="1725" y="-624" font-family="FreeSans" font-size="10.00"> ptr_</text>
</g>
<!-- Node7 -->
<g id="node14" class="node"><title>Node7</title>
<a xlink:href="class_urho3_d_1_1_resource.html" target="_top" xlink:title="Base class for resources.">
<polygon fill="none" stroke="black" points="841.5,-763.5 841.5,-784.5 944.5,-784.5 944.5,-763.5 841.5,-763.5"/>
<text text-anchor="middle" x="893" y="-771.5" font-family="FreeSans" font-size="10.00">Urho3D::Resource</text>
</a>
</g>
<!-- Node7&#45;&gt;Node6 -->
<g id="edge16" class="edge"><title>Node7&#45;&gt;Node6</title>
<path fill="none" stroke="midnightblue" d="M954.499,-763.788C1060.4,-746.04 1283.94,-707.864 1472,-671 1509.47,-663.655 1520.01,-665.749 1556,-653 1572.7,-647.084 1590.58,-637.769 1603.34,-630.542"/>
<polygon fill="midnightblue" stroke="midnightblue" points="953.907,-760.338 944.622,-765.441 955.063,-767.242 953.907,-760.338"/>
</g>
<!-- Node8&#45;&gt;Node7 -->
<g id="edge18" class="edge"><title>Node8&#45;&gt;Node7</title>
<path fill="none" stroke="midnightblue" d="M617.831,-569.154C637.825,-614.61 685.339,-721.591 692,-727 714.603,-745.356 789.499,-759.346 841.193,-767.117"/>
<polygon fill="midnightblue" stroke="midnightblue" points="620.918,-567.477 613.692,-559.729 614.508,-570.292 620.918,-567.477"/>
</g>
<!-- Node12 -->
<g id="node26" class="node"><title>Node12</title>
<a xlink:href="class_urho3_d_1_1_event_handler.html" target="_top" xlink:title="Internal helper class for invoking event handler functions.">
<polygon fill="none" stroke="red" points="831,-597.5 831,-618.5 955,-618.5 955,-597.5 831,-597.5"/>
<text text-anchor="middle" x="893" y="-605.5" font-family="FreeSans" font-size="10.00">Urho3D::EventHandler</text>
</a>
</g>
<!-- Node8&#45;&gt;Node12 -->
<g id="edge32" class="edge"><title>Node8&#45;&gt;Node12</title>
<path fill="none" stroke="#9a32cd" stroke-dasharray="5,2" d="M664.314,-550.185C700.033,-551.943 747.27,-556.136 788,-566 818.149,-573.301 851.08,-587.589 871.874,-597.458"/>
<polygon fill="#9a32cd" stroke="#9a32cd" points="664.236,-546.678 654.091,-549.733 663.926,-553.671 664.236,-546.678"/>
<text text-anchor="middle" x="740" y="-583" font-family="FreeSans" font-size="10.00"> sender_</text>
<text text-anchor="middle" x="740" y="-570" font-family="FreeSans" font-size="10.00">receiver_</text>
</g>
<!-- Node8&#45;&gt;Node21 -->
<g id="edge60" class="edge"><title>Node8&#45;&gt;Node21</title>
<path fill="none" stroke="midnightblue" d="M620.188,-568.37C633.988,-590.231 659.643,-624.846 692,-641 739.019,-664.474 799.946,-666.619 842.339,-664.371"/>
<polygon fill="midnightblue" stroke="midnightblue" points="623.044,-566.329 614.857,-559.603 617.063,-569.966 623.044,-566.329"/>
</g>
<!-- Node9&#45;&gt;Node8 -->
<g id="edge22" class="edge"><title>Node9&#45;&gt;Node8</title>
<path fill="none" stroke="#9a32cd" stroke-dasharray="5,2" d="M1111.99,-414.281C1038.75,-413.703 910.719,-417.82 806,-448 733.615,-468.862 656.592,-516.983 624.463,-538.394"/>
<polygon fill="#9a32cd" stroke="#9a32cd" points="1112.35,-417.785 1122.39,-414.398 1112.43,-410.786 1112.35,-417.785"/>
<text text-anchor="middle" x="893" y="-452" font-family="FreeSans" font-size="10.00"> context_</text>
</g>
<!-- Node10 -->
<g id="node22" class="node"><title>Node10</title>
<a xlink:href="class_urho3_d_1_1_p_o_d_vector.html" target="_top" xlink:title="Urho3D::PODVector\&lt;\l Urho3D::Object * \&gt;">
<polygon fill="none" stroke="black" points="406.5,-137 406.5,-171 525.5,-171 525.5,-137 406.5,-137"/>
<text text-anchor="start" x="414.5" y="-158" font-family="FreeSans" font-size="10.00">Urho3D::PODVector&lt;</text>
<text text-anchor="middle" x="466" y="-145" font-family="FreeSans" font-size="10.00"> Urho3D::Object * &gt;</text>
</a>
</g>
<!-- Node10&#45;&gt;Node9 -->
<g id="edge26" class="edge"><title>Node10&#45;&gt;Node9</title>
<path fill="none" stroke="#9a32cd" stroke-dasharray="5,2" d="M535.909,-154.046C637.397,-156.361 829.808,-169.298 980,-230 1027.84,-249.337 1041.93,-254.165 1080,-289 1119.82,-325.438 1152.72,-381.968 1165.4,-405.335"/>
<polygon fill="#9a32cd" stroke="#9a32cd" points="535.848,-150.545 525.78,-153.844 535.708,-157.543 535.848,-150.545"/>
<text text-anchor="middle" x="740" y="-181" font-family="FreeSans" font-size="10.00"> eventSenders_</text>
</g>
<!-- Node11 -->
<g id="node24" class="node"><title>Node11</title>
<a xlink:href="class_urho3_d_1_1_vector_base.html" target="_top" xlink:title="Vector base class.">
<polygon fill="none" stroke="black" points="0,-159.5 0,-180.5 114,-180.5 114,-159.5 0,-159.5"/>
<text text-anchor="middle" x="57" y="-167.5" font-family="FreeSans" font-size="10.00">Urho3D::VectorBase</text>
</a>
</g>
<!-- Node11&#45;&gt;Node10 -->
<g id="edge28" class="edge"><title>Node11&#45;&gt;Node10</title>
<path fill="none" stroke="midnightblue" d="M124.568,-167.357C203.103,-164.284 331.486,-159.262 406.433,-156.33"/>
<polygon fill="midnightblue" stroke="midnightblue" points="124.156,-163.87 114.3,-167.758 124.43,-170.865 124.156,-163.87"/>
</g>
<!-- Node25 -->
<g id="node64" class="node"><title>Node25</title>
<a xlink:href="class_urho3_d_1_1_vector.html" target="_top" xlink:title="Urho3D::Vector\&lt; Urho3D\l::SharedPtr\&lt; Urho3D::Viewport \&gt; \&gt;">
<polygon fill="none" stroke="black" points="200,-180 200,-214 388,-214 388,-180 200,-180"/>
<text text-anchor="start" x="208" y="-201" font-family="FreeSans" font-size="10.00">Urho3D::Vector&lt; Urho3D</text>
<text text-anchor="middle" x="294" y="-188" font-family="FreeSans" font-size="10.00">::SharedPtr&lt; Urho3D::Viewport &gt; &gt;</text>
</a>
</g>
<!-- Node11&#45;&gt;Node25 -->
<g id="edge82" class="edge"><title>Node11&#45;&gt;Node25</title>
<path fill="none" stroke="midnightblue" d="M124.278,-177.665C147.803,-180.345 174.663,-183.405 199.967,-186.287"/>
<polygon fill="midnightblue" stroke="midnightblue" points="124.401,-174.156 114.069,-176.502 123.609,-181.111 124.401,-174.156"/>
</g>
<!-- Node12&#45;&gt;Node9 -->
<g id="edge30" class="edge"><title>Node12&#45;&gt;Node9</title>
<path fill="none" stroke="#9a32cd" stroke-dasharray="5,2" d="M933.013,-593.647C948.18,-587.528 965.32,-579.768 980,-571 1055.16,-526.108 1132.42,-453.72 1160.23,-426.659"/>
<polygon fill="#9a32cd" stroke="#9a32cd" points="931.409,-590.516 923.377,-597.426 933.965,-597.033 931.409,-590.516"/>
<text text-anchor="middle" x="1039" y="-560" font-family="FreeSans" font-size="10.00"> eventHandler_</text>
</g>
<!-- Node16 -->
<g id="node36" class="node"><title>Node16</title>
<a xlink:href="class_urho3_d_1_1_linked_list.html" target="_top" xlink:title="Urho3D::LinkedList\l\&lt; Urho3D::EventHandler \&gt;">
<polygon fill="none" stroke="black" points="1098,-537 1098,-571 1244,-571 1244,-537 1098,-537"/>
<text text-anchor="start" x="1106" y="-558" font-family="FreeSans" font-size="10.00">Urho3D::LinkedList</text>
<text text-anchor="middle" x="1171" y="-545" font-family="FreeSans" font-size="10.00">&lt; Urho3D::EventHandler &gt;</text>
</a>
</g>
<!-- Node12&#45;&gt;Node16 -->
<g id="edge44" class="edge"><title>Node12&#45;&gt;Node16</title>
<path fill="none" stroke="#9a32cd" stroke-dasharray="5,2" d="M965.349,-618.514C1001.47,-620.556 1044.83,-617.978 1080,-601 1091.07,-595.655 1087.87,-586.963 1098,-580 1102.88,-576.647 1108.24,-573.679 1113.76,-571.062"/>
<polygon fill="#9a32cd" stroke="#9a32cd" points="965.586,-615.022 955.368,-617.823 965.103,-622.005 965.586,-615.022"/>
<text text-anchor="middle" x="1039" y="-622" font-family="FreeSans" font-size="10.00"> head_</text>
</g>
<!-- Node13 -->
<g id="node29" class="node"><title>Node13</title>
<a xlink:href="class_urho3_d_1_1_string_hash.html" target="_top" xlink:title="32&#45;bit hash value for a string.">
<polygon fill="none" stroke="black" points="552.5,-755.5 552.5,-776.5 665.5,-776.5 665.5,-755.5 552.5,-755.5"/>
<text text-anchor="middle" x="609" y="-763.5" font-family="FreeSans" font-size="10.00">Urho3D::StringHash</text>
</a>
</g>
<!-- Node13&#45;&gt;Node7 -->
<g id="edge52" class="edge"><title>Node13&#45;&gt;Node7</title>
<path fill="none" stroke="#9a32cd" stroke-dasharray="5,2" d="M675.958,-767.886C726.448,-769.308 794.697,-771.231 841.091,-772.538"/>
<polygon fill="#9a32cd" stroke="#9a32cd" points="675.884,-764.383 665.789,-767.6 675.687,-771.38 675.884,-764.383"/>
<text text-anchor="middle" x="740" y="-774" font-family="FreeSans" font-size="10.00"> nameHash_</text>
</g>
<!-- Node13&#45;&gt;Node12 -->
<g id="edge34" class="edge"><title>Node13&#45;&gt;Node12</title>
<path fill="none" stroke="#9a32cd" stroke-dasharray="5,2" d="M641.028,-750.927C651.701,-745.593 663.533,-739.336 674,-733 735.614,-695.706 742.135,-672.294 806,-639 821.924,-630.698 840.567,-623.727 856.502,-618.511"/>
<polygon fill="#9a32cd" stroke="#9a32cd" points="639.444,-747.805 632.011,-755.355 642.53,-754.088 639.444,-747.805"/>
<text text-anchor="middle" x="740" y="-724" font-family="FreeSans" font-size="10.00"> eventType_</text>
</g>
<!-- Node13&#45;&gt;Node13 -->
<g id="edge36" class="edge"><title>Node13&#45;&gt;Node13</title>
<path fill="none" stroke="#9a32cd" stroke-dasharray="5,2" d="M585.042,-786.427C586.891,-791.349 594.876,-795 609,-795 631.598,-795 638.483,-785.653 629.656,-776.708"/>
<polygon fill="#9a32cd" stroke="#9a32cd" points="588.441,-787.302 588.344,-776.708 581.813,-785.05 588.441,-787.302"/>
<text text-anchor="middle" x="609" y="-799" font-family="FreeSans" font-size="10.00"> ZERO</text>
</g>
<!-- Node14 -->
<g id="node32" class="node"><title>Node14</title>
<a xlink:href="class_urho3_d_1_1_hash_map.html" target="_top" xlink:title="Urho3D::HashMap\&lt; Urho3D\l::StringHash, Urho3D::\lHashSet\&lt; Urho3D::Object * \&gt; \&gt;">
<polygon fill="none" stroke="red" points="806.5,-470.5 806.5,-517.5 979.5,-517.5 979.5,-470.5 806.5,-470.5"/>
<text text-anchor="start" x="814.5" y="-504.5" font-family="FreeSans" font-size="10.00">Urho3D::HashMap&lt; Urho3D</text>
<text text-anchor="start" x="814.5" y="-491.5" font-family="FreeSans" font-size="10.00">::StringHash, Urho3D::</text>
<text text-anchor="middle" x="893" y="-478.5" font-family="FreeSans" font-size="10.00">HashSet&lt; Urho3D::Object * &gt; &gt;</text>
</a>
</g>
<!-- Node14&#45;&gt;Node9 -->
<g id="edge38" class="edge"><title>Node14&#45;&gt;Node9</title>
<path fill="none" stroke="#9a32cd" stroke-dasharray="5,2" d="M989.729,-476.074C1019,-469.773 1051.05,-461.986 1080,-453 1103.78,-445.618 1130.03,-434.621 1148.21,-426.534"/>
<polygon fill="#9a32cd" stroke="#9a32cd" points="988.974,-472.656 979.917,-478.154 990.425,-479.504 988.974,-472.656"/>
<text text-anchor="middle" x="1039" y="-478" font-family="FreeSans" font-size="10.00"> eventReceivers_</text>
</g>
<!-- Node15 -->
<g id="node34" class="node"><title>Node15</title>
<a xlink:href="class_urho3_d_1_1_hash_map.html" target="_top" xlink:title="Urho3D::HashMap\&lt; StringHash,\l Variant \&gt;">
<polygon fill="none" stroke="red" points="807,-239 807,-273 979,-273 979,-239 807,-239"/>
<text text-anchor="start" x="815" y="-260" font-family="FreeSans" font-size="10.00">Urho3D::HashMap&lt; StringHash,</text>
<text text-anchor="middle" x="893" y="-247" font-family="FreeSans" font-size="10.00"> Variant &gt;</text>
</a>
</g>
<!-- Node15&#45;&gt;Node9 -->
<g id="edge40" class="edge"><title>Node15&#45;&gt;Node9</title>
<path fill="none" stroke="#9a32cd" stroke-dasharray="5,2" d="M968.105,-276.739C972.179,-278.391 976.169,-280.144 980,-282 1053.64,-317.671 1129.99,-380.48 1158.92,-405.39"/>
<polygon fill="#9a32cd" stroke="#9a32cd" points="969.075,-273.363 958.484,-273.068 966.579,-279.903 969.075,-273.363"/>
<text text-anchor="middle" x="1039" y="-345" font-family="FreeSans" font-size="10.00"> globalVars_</text>
</g>
<!-- Node16&#45;&gt;Node8 -->
<g id="edge42" class="edge"><title>Node16&#45;&gt;Node8</title>
<path fill="none" stroke="#9a32cd" stroke-dasharray="5,2" d="M1087.79,-552.022C992.249,-549.969 830.817,-547.164 692,-548 679.751,-548.074 666.486,-548.209 654.23,-548.356"/>
<polygon fill="#9a32cd" stroke="#9a32cd" points="1087.89,-555.525 1097.97,-552.244 1088.05,-548.527 1087.89,-555.525"/>
<text text-anchor="middle" x="893" y="-553" font-family="FreeSans" font-size="10.00"> eventHandlers_</text>
</g>
<!-- Node17 -->
<g id="node39" class="node"><title>Node17</title>
<a xlink:href="class_urho3_d_1_1_timer.html" target="_top" xlink:title="Low&#45;resolution operating system timer.">
<polygon fill="none" stroke="black" points="566,-936.5 566,-957.5 652,-957.5 652,-936.5 566,-936.5"/>
<text text-anchor="middle" x="609" y="-944.5" font-family="FreeSans" font-size="10.00">Urho3D::Timer</text>
</a>
</g>
<!-- Node17&#45;&gt;Node7 -->
<g id="edge46" class="edge"><title>Node17&#45;&gt;Node7</title>
<path fill="none" stroke="#9a32cd" stroke-dasharray="5,2" d="M662.548,-947.574C700.179,-945.668 750.327,-938.295 788,-915 841.216,-882.094 876.535,-811.473 888.495,-784.64"/>
<polygon fill="#9a32cd" stroke="#9a32cd" points="662.142,-944.087 652.287,-947.975 662.416,-951.082 662.142,-944.087"/>
<text text-anchor="middle" x="740" y="-948" font-family="FreeSans" font-size="10.00"> useTimer_</text>
</g>
<!-- Node18 -->
<g id="node41" class="node"><title>Node18</title>
<a xlink:href="class_urho3_d_1_1_string.html" target="_top" xlink:title="String class.">
<polygon fill="none" stroke="black" points="565,-845.5 565,-866.5 653,-866.5 653,-845.5 565,-845.5"/>
<text text-anchor="middle" x="609" y="-853.5" font-family="FreeSans" font-size="10.00">Urho3D::String</text>
</a>
</g>
<!-- Node18&#45;&gt;Node7 -->
<g id="edge48" class="edge"><title>Node18&#45;&gt;Node7</title>
<path fill="none" stroke="#9a32cd" stroke-dasharray="5,2" d="M637.162,-870.968C673.452,-888.104 737.838,-911.125 788,-889 837.72,-867.07 874.093,-808.683 887.428,-784.607"/>
<polygon fill="#9a32cd" stroke="#9a32cd" points="638.657,-867.803 628.136,-866.551 635.58,-874.09 638.657,-867.803"/>
<text text-anchor="middle" x="740" y="-902" font-family="FreeSans" font-size="10.00"> name_</text>
</g>
<!-- Node18&#45;&gt;Node18 -->
<g id="edge50" class="edge"><title>Node18&#45;&gt;Node18</title>
<path fill="none" stroke="#9a32cd" stroke-dasharray="5,2" d="M585.042,-876.427C586.891,-881.349 594.876,-885 609,-885 631.598,-885 638.483,-875.653 629.656,-866.708"/>
<polygon fill="#9a32cd" stroke="#9a32cd" points="588.441,-877.302 588.344,-866.708 581.813,-875.05 588.441,-877.302"/>
<text text-anchor="middle" x="609" y="-889" font-family="FreeSans" font-size="10.00"> EMPTY</text>
</g>
<!-- Node18&#45;&gt;Node21 -->
<g id="edge66" class="edge"><title>Node18&#45;&gt;Node21</title>
<path fill="none" stroke="#9a32cd" stroke-dasharray="5,2" d="M635.202,-840.253C658.359,-826.379 688.935,-808.187 692,-807 732.644,-791.266 753.001,-812.972 788,-787 801.416,-777.044 796.287,-767.593 806,-754 829.793,-720.701 864.027,-686.464 881.616,-669.646"/>
<polygon fill="#9a32cd" stroke="#9a32cd" points="633.229,-837.355 626.453,-845.5 636.829,-843.358 633.229,-837.355"/>
<text text-anchor="middle" x="740" y="-876" font-family="FreeSans" font-size="10.00"> lastShaderName_</text>
<text text-anchor="middle" x="740" y="-863" font-family="FreeSans" font-size="10.00">windowTitle_</text>
<text text-anchor="middle" x="740" y="-850" font-family="FreeSans" font-size="10.00">apiName_</text>
<text text-anchor="middle" x="740" y="-837" font-family="FreeSans" font-size="10.00">shaderPath_</text>
<text text-anchor="middle" x="740" y="-824" font-family="FreeSans" font-size="10.00">orientations_</text>
<text text-anchor="middle" x="740" y="-811" font-family="FreeSans" font-size="10.00">shaderExtension_</text>
</g>
<!-- Node19 -->
<g id="node45" class="node"><title>Node19</title>
<a xlink:href="class_urho3_d_1_1_g_p_u_object.html" target="_top" xlink:title="Base class for GPU resources.">
<polygon fill="none" stroke="black" points="1345.5,-609.5 1345.5,-630.5 1456.5,-630.5 1456.5,-609.5 1345.5,-609.5"/>
<text text-anchor="middle" x="1401" y="-617.5" font-family="FreeSans" font-size="10.00">Urho3D::GPUObject</text>
</a>
</g>
<!-- Node19&#45;&gt;Node6 -->
<g id="edge54" class="edge"><title>Node19&#45;&gt;Node6</title>
<path fill="none" stroke="midnightblue" d="M1466.94,-620C1501.31,-620 1542.54,-620 1573.7,-620"/>
<polygon fill="midnightblue" stroke="midnightblue" points="1466.52,-616.5 1456.52,-620 1466.52,-623.5 1466.52,-616.5"/>
</g>
<!-- Node20&#45;&gt;Node19 -->
<g id="edge56" class="edge"><title>Node20&#45;&gt;Node19</title>
<path fill="none" stroke="#9a32cd" stroke-dasharray="5,2" d="M1254.22,-636.593C1284.48,-633.171 1317.94,-629.39 1345.25,-626.302"/>
<polygon fill="#9a32cd" stroke="#9a32cd" points="1253.63,-633.136 1244.09,-637.738 1254.42,-640.092 1253.63,-633.136"/>
<text text-anchor="middle" x="1287" y="-639" font-family="FreeSans" font-size="10.00"> graphics_</text>
</g>
<!-- Node21&#45;&gt;Node20 -->
<g id="edge58" class="edge"><title>Node21&#45;&gt;Node20</title>
<path fill="none" stroke="#9a32cd" stroke-dasharray="5,2" d="M953.849,-656.155C996.258,-654.171 1053.05,-651.516 1097.91,-649.418"/>
<polygon fill="#9a32cd" stroke="#9a32cd" points="953.492,-652.667 943.666,-656.631 953.819,-659.66 953.492,-652.667"/>
<text text-anchor="middle" x="1039" y="-658" font-family="FreeSans" font-size="10.00"> ptr_</text>
</g>
<!-- Node22 -->
<g id="node56" class="node"><title>Node22</title>
<a xlink:href="union_urho3_d_1_1_g_p_u_object_handle.html" target="_top" xlink:title="API&#45;specific GPU object representation.">
<polygon fill="none" stroke="black" points="1098.5,-589.5 1098.5,-610.5 1243.5,-610.5 1243.5,-589.5 1098.5,-589.5"/>
<text text-anchor="middle" x="1171" y="-597.5" font-family="FreeSans" font-size="10.00">Urho3D::GPUObjectHandle</text>
</a>
</g>
<!-- Node22&#45;&gt;Node19 -->
<g id="edge70" class="edge"><title>Node22&#45;&gt;Node19</title>
<path fill="none" stroke="#9a32cd" stroke-dasharray="5,2" d="M1253.77,-601.951C1272.92,-602.838 1293.19,-604.127 1312,-606 1322.74,-607.07 1334.16,-608.58 1345.1,-610.215"/>
<polygon fill="#9a32cd" stroke="#9a32cd" points="1253.71,-598.445 1243.57,-601.511 1253.41,-605.439 1253.71,-598.445"/>
<text text-anchor="middle" x="1287" y="-610" font-family="FreeSans" font-size="10.00"> object_</text>
</g>
<!-- Node23&#45;&gt;Node6 -->
<g id="edge72" class="edge"><title>Node23&#45;&gt;Node6</title>
<path fill="none" stroke="#9a32cd" stroke-dasharray="5,2" d="M1771.68,-603.981C1769.1,-603.609 1766.53,-603.279 1764,-603 1729.54,-599.193 1720.38,-598.578 1686,-603 1675.7,-604.324 1664.71,-606.782 1654.75,-609.426"/>
<polygon fill="#9a32cd" stroke="#9a32cd" points="1771.28,-607.462 1781.71,-605.604 1772.4,-600.552 1771.28,-607.462"/>
<text text-anchor="middle" x="1725" y="-607" font-family="FreeSans" font-size="10.00"> backupTexture_</text>
</g>
<!-- Node24 -->
<g id="node61" class="node"><title>Node24</title>
<a xlink:href="class_urho3_d_1_1_color.html" target="_top" xlink:title="RGBA color.">
<polygon fill="none" stroke="black" points="1359,-0.5 1359,-21.5 1443,-21.5 1443,-0.5 1359,-0.5"/>
<text text-anchor="middle" x="1401" y="-8.5" font-family="FreeSans" font-size="10.00">Urho3D::Color</text>
</a>
</g>
<!-- Node24&#45;&gt;Node6 -->
<g id="edge76" class="edge"><title>Node24&#45;&gt;Node6</title>
<path fill="none" stroke="#9a32cd" stroke-dasharray="5,2" d="M1423.18,-28.2463C1457.91,-56.6084 1524.38,-116.707 1556,-184 1593.27,-263.308 1615.87,-549.61 1620.23,-609.12"/>
<polygon fill="#9a32cd" stroke="#9a32cd" points="1425.07,-25.2707 1415.08,-21.7344 1420.68,-30.727 1425.07,-25.2707"/>
<text text-anchor="middle" x="1523" y="-188" font-family="FreeSans" font-size="10.00"> borderColor_</text>
</g>
<!-- Node24&#45;&gt;Node24 -->
<g id="edge78" class="edge"><title>Node24&#45;&gt;Node24</title>
<path fill="none" stroke="#9a32cd" stroke-dasharray="5,2" d="M1379.99,-31.4266C1381.61,-36.3489 1388.61,-40 1401,-40 1420.82,-40 1426.85,-30.6531 1419.11,-21.7079"/>
<polygon fill="#9a32cd" stroke="#9a32cd" points="1383.39,-32.2909 1382.89,-21.7079 1376.68,-30.2922 1383.39,-32.2909"/>
<text text-anchor="middle" x="1401" y="-174" font-family="FreeSans" font-size="10.00"> CYAN</text>
<text text-anchor="middle" x="1401" y="-161" font-family="FreeSans" font-size="10.00">GRAY</text>
<text text-anchor="middle" x="1401" y="-148" font-family="FreeSans" font-size="10.00">YELLOW</text>
<text text-anchor="middle" x="1401" y="-135" font-family="FreeSans" font-size="10.00">MAGENTA</text>
<text text-anchor="middle" x="1401" y="-122" font-family="FreeSans" font-size="10.00">WHITE</text>
<text text-anchor="middle" x="1401" y="-109" font-family="FreeSans" font-size="10.00">TRANSPARENT</text>
<text text-anchor="middle" x="1401" y="-96" font-family="FreeSans" font-size="10.00">BLUE</text>
<text text-anchor="middle" x="1401" y="-83" font-family="FreeSans" font-size="10.00">BLACK</text>
<text text-anchor="middle" x="1401" y="-70" font-family="FreeSans" font-size="10.00">RED</text>
<text text-anchor="middle" x="1401" y="-57" font-family="FreeSans" font-size="10.00">GREEN</text>
<text text-anchor="middle" x="1401" y="-44" font-family="FreeSans" font-size="10.00">...</text>
</g>
<!-- Node25&#45;&gt;Node2 -->
<g id="edge80" class="edge"><title>Node25&#45;&gt;Node2</title>
<path fill="none" stroke="#9a32cd" stroke-dasharray="5,2" d="M398.518,-182.295C440.414,-181.145 487.726,-186.169 526,-207 569.968,-230.93 596.059,-289.41 605.241,-313.433"/>
<polygon fill="#9a32cd" stroke="#9a32cd" points="398.128,-178.807 388.274,-182.7 398.404,-185.802 398.128,-178.807"/>
<text text-anchor="middle" x="466" y="-211" font-family="FreeSans" font-size="10.00"> viewports_</text>
</g>
</g>
</svg>
