<?xml version="1.0" encoding="UTF-8" standalone="no"?>
<!DOCTYPE svg PUBLIC "-//W3C//DTD SVG 1.1//EN"
 "http://www.w3.org/Graphics/SVG/1.1/DTD/svg11.dtd">
<!-- Generated by graphviz version 2.36.0 (20140111.2315)
 -->
<!-- Title: GenericValue&lt; Encoding, Allocator &gt;::ArrayData Pages: 1 -->
<svg width="778pt" height="283pt"
 viewBox="0.00 0.00 778.00 283.00" xmlns="http://www.w3.org/2000/svg" xmlns:xlink="http://www.w3.org/1999/xlink">
<g id="graph0" class="graph" transform="scale(1 1) rotate(0) translate(4 279)">
<title>GenericValue&lt; Encoding, Allocator &gt;::ArrayData</title>
<!-- Node1 -->
<g id="node1" class="node"><title>Node1</title>
<polygon fill="#bfbfbf" stroke="black" points="238.5,-245 238.5,-275 375.5,-275 375.5,-245 238.5,-245"/>
<text text-anchor="start" x="246.5" y="-263" font-family="FreeSans" font-size="10.00">GenericValue&lt; Encoding,</text>
<text text-anchor="middle" x="307" y="-252" font-family="FreeSans" font-size="10.00"> Allocator &gt;::ArrayData</text>
</g>
<!-- Node3 -->
<g id="node3" class="node"><title>Node3</title>
<g id="a_node3"><a xlink:href="union_generic_value_1_1_data.html" target="_top" xlink:title="GenericValue\&lt; Encoding,\l Allocator \&gt;::Data">
<polygon fill="none" stroke="black" points="426.5,-147 426.5,-177 563.5,-177 563.5,-147 426.5,-147"/>
<text text-anchor="start" x="434.5" y="-165" font-family="FreeSans" font-size="10.00">GenericValue&lt; Encoding,</text>
<text text-anchor="middle" x="495" y="-154" font-family="FreeSans" font-size="10.00"> Allocator &gt;::Data</text>
</a>
</g>
</g>
<!-- Node1&#45;&gt;Node3 -->
<g id="edge4" class="edge"><title>Node1&#45;&gt;Node3</title>
<path fill="none" stroke="#9a32cd" stroke-dasharray="5,2" d="M362.387,-241.132C367.042,-239.178 371.636,-237.125 376,-235 411.303,-217.809 449.488,-192.915 472.573,-177.096"/>
<polygon fill="#9a32cd" stroke="#9a32cd" points="360.767,-238.011 352.799,-244.994 363.383,-244.504 360.767,-238.011"/>
<text text-anchor="middle" x="401" y="-227" font-family="FreeSans" font-size="10.00"> a</text>
</g>
<!-- Node2 -->
<g id="node2" class="node"><title>Node2</title>
<g id="a_node2"><a xlink:href="class_generic_value.html" target="_top" xlink:title="Represents a JSON value. Use Value for UTF8 encoding and default allocator. ">
<polygon fill="none" stroke="black" points="632.5,-214 632.5,-244 769.5,-244 769.5,-214 632.5,-214"/>
<text text-anchor="start" x="640.5" y="-232" font-family="FreeSans" font-size="10.00">GenericValue&lt; Encoding,</text>
<text text-anchor="middle" x="701" y="-221" font-family="FreeSans" font-size="10.00"> Allocator &gt;</text>
</a>
</g>
</g>
<!-- Node2&#45;&gt;Node1 -->
<g id="edge1" class="edge"><title>Node2&#45;&gt;Node1</title>
<path fill="none" stroke="#9a32cd" stroke-dasharray="5,2" d="M621.981,-235.17C550.045,-240.859 444.34,-249.218 375.834,-254.636"/>
<polygon fill="#9a32cd" stroke="#9a32cd" points="622.648,-238.628 632.341,-234.351 622.096,-231.65 622.648,-238.628"/>
<text text-anchor="middle" x="495" y="-253" font-family="FreeSans" font-size="10.00"> elements</text>
</g>
<!-- Node3&#45;&gt;Node2 -->
<g id="edge2" class="edge"><title>Node3&#45;&gt;Node2</title>
<path fill="none" stroke="#9a32cd" stroke-dasharray="5,2" d="M551.488,-180.224C583.639,-190.783 623.636,-203.92 654.019,-213.898"/>
<polygon fill="#9a32cd" stroke="#9a32cd" points="552.374,-176.831 541.782,-177.036 550.19,-183.482 552.374,-176.831"/>
<text text-anchor="middle" x="598" y="-203" font-family="FreeSans" font-size="10.00"> data_</text>
</g>
<!-- Node4 -->
<g id="node4" class="node"><title>Node4</title>
<g id="a_node4"><a xlink:href="struct_generic_value_1_1_string.html" target="_top" xlink:title="GenericValue\&lt; Encoding,\l Allocator \&gt;::String">
<polygon fill="none" stroke="black" points="238.5,-196 238.5,-226 375.5,-226 375.5,-196 238.5,-196"/>
<text text-anchor="start" x="246.5" y="-214" font-family="FreeSans" font-size="10.00">GenericValue&lt; Encoding,</text>
<text text-anchor="middle" x="307" y="-203" font-family="FreeSans" font-size="10.00"> Allocator &gt;::String</text>
</a>
</g>
</g>
<!-- Node4&#45;&gt;Node3 -->
<g id="edge3" class="edge"><title>Node4&#45;&gt;Node3</title>
<path fill="none" stroke="#9a32cd" stroke-dasharray="5,2" d="M374.895,-193.377C395.244,-188.016 417.408,-182.177 437.038,-177.006"/>
<polygon fill="#9a32cd" stroke="#9a32cd" points="373.849,-190.033 365.07,-195.965 375.632,-196.802 373.849,-190.033"/>
<text text-anchor="middle" x="401" y="-191" font-family="FreeSans" font-size="10.00"> s</text>
</g>
<!-- Node5 -->
<g id="node5" class="node"><title>Node5</title>
<g id="a_node5"><a xlink:href="struct_generic_value_1_1_object_data.html" target="_top" xlink:title="GenericValue\&lt; Encoding,\l Allocator \&gt;::ObjectData">
<polygon fill="none" stroke="black" points="238.5,-147 238.5,-177 375.5,-177 375.5,-147 238.5,-147"/>
<text text-anchor="start" x="246.5" y="-165" font-family="FreeSans" font-size="10.00">GenericValue&lt; Encoding,</text>
<text text-anchor="middle" x="307" y="-154" font-family="FreeSans" font-size="10.00"> Allocator &gt;::ObjectData</text>
</a>
</g>
</g>
<!-- Node5&#45;&gt;Node3 -->
<g id="edge5" class="edge"><title>Node5&#45;&gt;Node3</title>
<path fill="none" stroke="#9a32cd" stroke-dasharray="5,2" d="M385.864,-162C399.322,-162 413.215,-162 426.374,-162"/>
<polygon fill="#9a32cd" stroke="#9a32cd" points="385.676,-158.5 375.676,-162 385.676,-165.5 385.676,-158.5"/>
<text text-anchor="middle" x="401" y="-165" font-family="FreeSans" font-size="10.00"> o</text>
</g>
<!-- Node6 -->
<g id="node6" class="node"><title>Node6</title>
<g id="a_node6"><a xlink:href="struct_generic_member.html" target="_top" xlink:title="Name&#45;value pair in a JSON object value. ">
<polygon fill="none" stroke="black" points="0.5,-147 0.5,-177 151.5,-177 151.5,-147 0.5,-147"/>
<text text-anchor="start" x="8.5" y="-165" font-family="FreeSans" font-size="10.00">GenericMember&lt; Encoding,</text>
<text text-anchor="middle" x="76" y="-154" font-family="FreeSans" font-size="10.00"> Allocator &gt;</text>
</a>
</g>
</g>
<!-- Node6&#45;&gt;Node5 -->
<g id="edge6" class="edge"><title>Node6&#45;&gt;Node5</title>
<path fill="none" stroke="#9a32cd" stroke-dasharray="5,2" d="M161.958,-162C187.175,-162 214.443,-162 238.399,-162"/>
<polygon fill="#9a32cd" stroke="#9a32cd" points="161.666,-158.5 151.666,-162 161.666,-165.5 161.666,-158.5"/>
<text text-anchor="middle" x="195" y="-165" font-family="FreeSans" font-size="10.00"> members</text>
</g>
<!-- Node7 -->
<g id="node7" class="node"><title>Node7</title>
<g id="a_node7"><a xlink:href="union_generic_value_1_1_number.html" target="_top" xlink:title="GenericValue\&lt; Encoding,\l Allocator \&gt;::Number">
<polygon fill="none" stroke="black" points="238.5,-98 238.5,-128 375.5,-128 375.5,-98 238.5,-98"/>
<text text-anchor="start" x="246.5" y="-116" font-family="FreeSans" font-size="10.00">GenericValue&lt; Encoding,</text>
<text text-anchor="middle" x="307" y="-105" font-family="FreeSans" font-size="10.00"> Allocator &gt;::Number</text>
</a>
</g>
</g>
<!-- Node7&#45;&gt;Node3 -->
<g id="edge7" class="edge"><title>Node7&#45;&gt;Node3</title>
<path fill="none" stroke="#9a32cd" stroke-dasharray="5,2" d="M374.895,-130.623C395.244,-135.984 417.408,-141.823 437.038,-146.994"/>
<polygon fill="#9a32cd" stroke="#9a32cd" points="375.632,-127.198 365.07,-128.035 373.849,-133.967 375.632,-127.198"/>
<text text-anchor="middle" x="401" y="-142" font-family="FreeSans" font-size="10.00"> n</text>
</g>
<!-- Node8 -->
<g id="node8" class="node"><title>Node8</title>
<g id="a_node8"><a xlink:href="struct_generic_value_1_1_number_1_1_u.html" target="_top" xlink:title="GenericValue\&lt; Encoding,\l Allocator \&gt;::Number::U">
<polygon fill="none" stroke="black" points="7.5,-98 7.5,-128 144.5,-128 144.5,-98 7.5,-98"/>
<text text-anchor="start" x="15.5" y="-116" font-family="FreeSans" font-size="10.00">GenericValue&lt; Encoding,</text>
<text text-anchor="middle" x="76" y="-105" font-family="FreeSans" font-size="10.00"> Allocator &gt;::Number::U</text>
</a>
</g>
</g>
<!-- Node8&#45;&gt;Node7 -->
<g id="edge8" class="edge"><title>Node8&#45;&gt;Node7</title>
<path fill="none" stroke="#9a32cd" stroke-dasharray="5,2" d="M154.996,-113C182.085,-113 212.217,-113 238.396,-113"/>
<polygon fill="#9a32cd" stroke="#9a32cd" points="154.778,-109.5 144.778,-113 154.778,-116.5 154.778,-109.5"/>
<text text-anchor="middle" x="195" y="-116" font-family="FreeSans" font-size="10.00"> u</text>
</g>
<!-- Node9 -->
<g id="node9" class="node"><title>Node9</title>
<g id="a_node9"><a xlink:href="struct_generic_value_1_1_number_1_1_i.html" target="_top" xlink:title="GenericValue\&lt; Encoding,\l Allocator \&gt;::Number::I">
<polygon fill="none" stroke="black" points="7.5,-49 7.5,-79 144.5,-79 144.5,-49 7.5,-49"/>
<text text-anchor="start" x="15.5" y="-67" font-family="FreeSans" font-size="10.00">GenericValue&lt; Encoding,</text>
<text text-anchor="middle" x="76" y="-56" font-family="FreeSans" font-size="10.00"> Allocator &gt;::Number::I</text>
</a>
</g>
</g>
<!-- Node9&#45;&gt;Node7 -->
<g id="edge9" class="edge"><title>Node9&#45;&gt;Node7</title>
<path fill="none" stroke="#9a32cd" stroke-dasharray="5,2" d="M154.638,-80.6126C181.819,-86.4285 212.102,-92.9082 238.396,-98.5345"/>
<polygon fill="#9a32cd" stroke="#9a32cd" points="155.289,-77.1727 144.778,-78.5027 153.824,-84.0177 155.289,-77.1727"/>
<text text-anchor="middle" x="195" y="-98" font-family="FreeSans" font-size="10.00"> i</text>
</g>
<!-- Node10 -->
<g id="node10" class="node"><title>Node10</title>
<g id="a_node10"><a xlink:href="struct_generic_value_1_1_short_string.html" target="_top" xlink:title="GenericValue\&lt; Encoding,\l Allocator \&gt;::ShortString">
<polygon fill="none" stroke="black" points="238.5,-49 238.5,-79 375.5,-79 375.5,-49 238.5,-49"/>
<text text-anchor="start" x="246.5" y="-67" font-family="FreeSans" font-size="10.00">GenericValue&lt; Encoding,</text>
<text text-anchor="middle" x="307" y="-56" font-family="FreeSans" font-size="10.00"> Allocator &gt;::ShortString</text>
</a>
</g>
</g>
<!-- Node10&#45;&gt;Node3 -->
<g id="edge10" class="edge"><title>Node10&#45;&gt;Node3</title>
<path fill="none" stroke="#9a32cd" stroke-dasharray="5,2" d="M364.364,-82.79C368.344,-84.4527 372.258,-86.1939 376,-88 411.714,-105.239 450.097,-130.76 473.072,-146.877"/>
<polygon fill="#9a32cd" stroke="#9a32cd" points="365.597,-79.5135 355.012,-79.059 363.003,-86.0152 365.597,-79.5135"/>
<text text-anchor="middle" x="401" y="-108" font-family="FreeSans" font-size="10.00"> ss</text>
</g>
<!-- Node11 -->
<g id="node11" class="node"><title>Node11</title>
<g id="a_node11"><a xlink:href="struct_generic_value_1_1_flag.html" target="_top" xlink:title="GenericValue\&lt; Encoding,\l Allocator \&gt;::Flag">
<polygon fill="none" stroke="black" points="238.5,-0 238.5,-30 375.5,-30 375.5,-0 238.5,-0"/>
<text text-anchor="start" x="246.5" y="-18" font-family="FreeSans" font-size="10.00">GenericValue&lt; Encoding,</text>
<text text-anchor="middle" x="307" y="-7" font-family="FreeSans" font-size="10.00"> Allocator &gt;::Flag</text>
</a>
</g>
</g>
<!-- Node11&#45;&gt;Node3 -->
<g id="edge11" class="edge"><title>Node11&#45;&gt;Node3</title>
<path fill="none" stroke="#9a32cd" stroke-dasharray="5,2" d="M368.289,-34.4965C370.95,-35.9098 373.534,-37.4099 376,-39 422.756,-69.1484 464.477,-121.351 483.343,-146.957"/>
<polygon fill="#9a32cd" stroke="#9a32cd" points="369.539,-31.2138 359.012,-30.0215 366.498,-37.5186 369.539,-31.2138"/>
<text text-anchor="middle" x="401" y="-65" font-family="FreeSans" font-size="10.00"> f</text>
</g>
</g>
</svg>
