<?xml version="1.0" encoding="UTF-8" standalone="no"?>
<!DOCTYPE svg PUBLIC "-//W3C//DTD SVG 1.1//EN"
 "http://www.w3.org/Graphics/SVG/1.1/DTD/svg11.dtd">
<!-- Generated by graphviz version 2.36.0 (20140111.2315)
 -->
<!-- Title: Urho3D::Bone Pages: 1 -->
<!--zoomable 640 -->
<svg id="main" version="1.1" xmlns="http://www.w3.org/2000/svg" xmlns:xlink="http://www.w3.org/1999/xlink" xml:space="preserve" onload="init(evt)">
<style type="text/css"><![CDATA[
.edge:hover path { stroke: red; }
.edge:hover polygon { stroke: red; fill: red; }
]]></style>
<script type="text/javascript"><![CDATA[
var edges = document.getElementsByTagName('g');
if (edges && edges.length) {
  for (var i=0;i<edges.length;i++) {
    if (edges[i].id.substr(0,4)=='edge') {
      edges[i].setAttribute('class','edge');
    }
  }
}
]]></script>
        <defs>
                <circle id="rim" cx="0" cy="0" r="7"/>
                <circle id="rim2" cx="0" cy="0" r="3.5"/>
                <g id="zoomPlus">
                        <use xlink:href="#rim" fill="#404040">
                                <set attributeName="fill" to="#808080" begin="zoomplus.mouseover" end="zoomplus.mouseout"/>
                        </use>
                        <path d="M-4,0h8M0,-4v8" fill="none" stroke="white" stroke-width="1.5" pointer-events="none"/>
                </g>
                <g id="zoomMin">
                        <use xlink:href="#rim" fill="#404040">
                                <set attributeName="fill" to="#808080" begin="zoomminus.mouseover" end="zoomminus.mouseout"/>
                        </use>
                        <path d="M-4,0h8" fill="none" stroke="white" stroke-width="1.5" pointer-events="none"/>
                </g>
                <g id="dirArrow">
                        <path fill="none" stroke="white" stroke-width="1.5" d="M0,-3.0v7 M-2.5,-0.5L0,-3.0L2.5,-0.5"/>
                </g>
               <g id="resetDef">
                       <use xlink:href="#rim2" fill="#404040">
                               <set attributeName="fill" to="#808080" begin="reset.mouseover" end="reset.mouseout"/>
                       </use>
               </g>
        </defs>

<script type="text/javascript">
var viewWidth = 1376;
var viewHeight = 640;
var sectionId = 'dynsection-0';
</script>
<script xlink:href="svgpan.js"/>
<svg id="graph" class="graph">
<g id="viewport">
<title>Urho3D::Bone</title>
<!-- Node1 -->
<g id="node1" class="node"><title>Node1</title>
<polygon fill="#bfbfbf" stroke="black" points="1284,-379.5 1284,-398.5 1368,-398.5 1368,-379.5 1284,-379.5"/>
<text text-anchor="middle" x="1326" y="-386.5" font-family="FreeSans" font-size="10.00">Urho3D::Bone</text>
</g>
<!-- Node2 -->
<g id="node2" class="node"><title>Node2</title>
<g id="a_node2"><a xlink:href="class_urho3_d_1_1_quaternion.html" target="_top" xlink:title="Rotation represented as a four&#45;dimensional normalized vector. ">
<polygon fill="none" stroke="black" points="425.5,-583.5 425.5,-602.5 538.5,-602.5 538.5,-583.5 425.5,-583.5"/>
<text text-anchor="middle" x="482" y="-590.5" font-family="FreeSans" font-size="10.00">Urho3D::Quaternion</text>
</a>
</g>
</g>
<!-- Node2&#45;&gt;Node1 -->
<g id="edge1" class="edge"><title>Node2&#45;&gt;Node1</title>
<path fill="none" stroke="#9a32cd" stroke-dasharray="5,2" d="M549.082,-594.461C674.658,-595.907 955.784,-592.753 1186,-544 1223,-536.165 1238.08,-540.51 1266,-515 1302.2,-481.926 1318.09,-422.077 1323.12,-398.713"/>
<polygon fill="#9a32cd" stroke="#9a32cd" points="548.909,-590.959 538.865,-594.329 548.819,-597.958 548.909,-590.959"/>
<text text-anchor="middle" x="961" y="-586" font-family="FreeSans" font-size="10.00"> initialRotation_</text>
</g>
<!-- Node2&#45;&gt;Node2 -->
<g id="edge2" class="edge"><title>Node2&#45;&gt;Node2</title>
<path fill="none" stroke="#9a32cd" stroke-dasharray="5,2" d="M452.06,-611.275C452.914,-616.741 462.894,-621 482,-621 510.438,-621 518.658,-611.565 506.661,-602.757"/>
<polygon fill="#9a32cd" stroke="#9a32cd" points="455.046,-613.101 457.339,-602.757 449.096,-609.413 455.046,-613.101"/>
<text text-anchor="middle" x="482" y="-624" font-family="FreeSans" font-size="10.00"> IDENTITY</text>
</g>
<!-- Node5 -->
<g id="node5" class="node"><title>Node5</title>
<g id="a_node5"><a xlink:href="class_urho3_d_1_1_node.html" target="_top" xlink:title="Scene node that may contain components and child nodes. ">
<polygon fill="none" stroke="black" points="749.5,-306.5 749.5,-325.5 834.5,-325.5 834.5,-306.5 749.5,-306.5"/>
<text text-anchor="middle" x="792" y="-313.5" font-family="FreeSans" font-size="10.00">Urho3D::Node</text>
</a>
</g>
</g>
<!-- Node2&#45;&gt;Node5 -->
<g id="edge21" class="edge"><title>Node2&#45;&gt;Node5</title>
<path fill="none" stroke="#9a32cd" stroke-dasharray="5,2" d="M548.727,-586.268C560.868,-583.475 573.133,-579.539 584,-574 593.804,-569.003 592.424,-562.421 602,-557 634.939,-538.352 659.575,-562.916 684,-534 733.028,-475.958 659.676,-427.098 702,-364 714.713,-345.047 737.465,-332.965 756.782,-325.664"/>
<polygon fill="#9a32cd" stroke="#9a32cd" points="547.678,-582.911 538.59,-588.356 549.091,-589.767 547.678,-582.911"/>
<text text-anchor="middle" x="643" y="-571" font-family="FreeSans" font-size="10.00"> worldRotation_</text>
<text text-anchor="middle" x="643" y="-560" font-family="FreeSans" font-size="10.00">rotation_</text>
</g>
<!-- Node3 -->
<g id="node3" class="node"><title>Node3</title>
<g id="a_node3"><a xlink:href="class_urho3_d_1_1_vector3.html" target="_top" xlink:title="Three&#45;dimensional vector. ">
<polygon fill="none" stroke="black" points="434,-439.5 434,-458.5 530,-458.5 530,-439.5 434,-439.5"/>
<text text-anchor="middle" x="482" y="-446.5" font-family="FreeSans" font-size="10.00">Urho3D::Vector3</text>
</a>
</g>
</g>
<!-- Node3&#45;&gt;Node1 -->
<g id="edge3" class="edge"><title>Node3&#45;&gt;Node1</title>
<path fill="none" stroke="#9a32cd" stroke-dasharray="5,2" d="M540.669,-450.676C584.827,-451.872 647.255,-453.375 702,-454 781.995,-454.913 802.025,-455.998 882,-454 1054.05,-449.701 1097.73,-440.164 1266,-404 1273.54,-402.379 1281.58,-400.463 1289.22,-398.551"/>
<polygon fill="#9a32cd" stroke="#9a32cd" points="540.506,-447.17 530.414,-450.395 540.314,-454.167 540.506,-447.17"/>
<text text-anchor="middle" x="961" y="-468" font-family="FreeSans" font-size="10.00"> initialScale_</text>
<text text-anchor="middle" x="961" y="-457" font-family="FreeSans" font-size="10.00">initialPosition_</text>
</g>
<!-- Node3&#45;&gt;Node3 -->
<g id="edge4" class="edge"><title>Node3&#45;&gt;Node3</title>
<path fill="none" stroke="#9a32cd" stroke-dasharray="5,2" d="M452.06,-467.275C452.914,-472.741 462.894,-477 482,-477 510.438,-477 518.658,-467.565 506.661,-458.757"/>
<polygon fill="#9a32cd" stroke="#9a32cd" points="455.046,-469.101 457.339,-458.757 449.096,-465.413 455.046,-469.101"/>
<text text-anchor="middle" x="482" y="-557" font-family="FreeSans" font-size="10.00"> ONE</text>
<text text-anchor="middle" x="482" y="-546" font-family="FreeSans" font-size="10.00">DOWN</text>
<text text-anchor="middle" x="482" y="-535" font-family="FreeSans" font-size="10.00">BACK</text>
<text text-anchor="middle" x="482" y="-524" font-family="FreeSans" font-size="10.00">RIGHT</text>
<text text-anchor="middle" x="482" y="-513" font-family="FreeSans" font-size="10.00">LEFT</text>
<text text-anchor="middle" x="482" y="-502" font-family="FreeSans" font-size="10.00">ZERO</text>
<text text-anchor="middle" x="482" y="-491" font-family="FreeSans" font-size="10.00">FORWARD</text>
<text text-anchor="middle" x="482" y="-480" font-family="FreeSans" font-size="10.00">UP</text>
</g>
<!-- Node3&#45;&gt;Node5 -->
<g id="edge24" class="edge"><title>Node3&#45;&gt;Node5</title>
<path fill="none" stroke="#9a32cd" stroke-dasharray="5,2" d="M539.98,-438.795C554.45,-435.755 569.892,-432.119 584,-428 629.64,-414.675 646.562,-419.308 684,-390 695.067,-381.336 691.526,-373.372 702,-364 721.101,-346.909 747.362,-333.7 766.405,-325.504"/>
<polygon fill="#9a32cd" stroke="#9a32cd" points="539.243,-435.373 530.145,-440.803 540.643,-442.232 539.243,-435.373"/>
<text text-anchor="middle" x="643" y="-437" font-family="FreeSans" font-size="10.00"> scale_</text>
<text text-anchor="middle" x="643" y="-426" font-family="FreeSans" font-size="10.00">position_</text>
</g>
<!-- Node24 -->
<g id="node24" class="node"><title>Node24</title>
<g id="a_node24"><a xlink:href="class_urho3_d_1_1_bounding_box.html" target="_top" xlink:title="Three&#45;dimensional axis&#45;aligned bounding box. ">
<polygon fill="none" stroke="black" points="900,-505.5 900,-524.5 1022,-524.5 1022,-505.5 900,-505.5"/>
<text text-anchor="middle" x="961" y="-512.5" font-family="FreeSans" font-size="10.00">Urho3D::BoundingBox</text>
</a>
</g>
</g>
<!-- Node3&#45;&gt;Node24 -->
<g id="edge33" class="edge"><title>Node3&#45;&gt;Node24</title>
<path fill="none" stroke="#9a32cd" stroke-dasharray="5,2" d="M516.694,-462.062C540.228,-470.612 572.577,-481.232 602,-487 705.391,-507.268 828.292,-512.978 899.886,-514.519"/>
<polygon fill="#9a32cd" stroke="#9a32cd" points="517.775,-458.73 507.182,-458.545 515.347,-465.296 517.775,-458.73"/>
<text text-anchor="middle" x="643" y="-514" font-family="FreeSans" font-size="10.00"> max_</text>
<text text-anchor="middle" x="643" y="-503" font-family="FreeSans" font-size="10.00">min_</text>
</g>
<!-- Node4 -->
<g id="node4" class="node"><title>Node4</title>
<g id="a_node4"><a xlink:href="class_urho3_d_1_1_weak_ptr.html" target="_top" xlink:title="Urho3D::WeakPtr\&lt; Urho3D\l::Node \&gt;">
<polygon fill="none" stroke="black" points="1040,-374 1040,-404 1186,-404 1186,-374 1040,-374"/>
<text text-anchor="start" x="1048" y="-392" font-family="FreeSans" font-size="10.00">Urho3D::WeakPtr&lt; Urho3D</text>
<text text-anchor="middle" x="1113" y="-381" font-family="FreeSans" font-size="10.00">::Node &gt;</text>
</a>
</g>
</g>
<!-- Node4&#45;&gt;Node1 -->
<g id="edge5" class="edge"><title>Node4&#45;&gt;Node1</title>
<path fill="none" stroke="#9a32cd" stroke-dasharray="5,2" d="M1196.09,-389C1226.1,-389 1258.78,-389 1283.73,-389"/>
<polygon fill="#9a32cd" stroke="#9a32cd" points="1196.02,-385.5 1186.02,-389 1196.02,-392.5 1196.02,-385.5"/>
<text text-anchor="middle" x="1235" y="-392" font-family="FreeSans" font-size="10.00"> node_</text>
</g>
<!-- Node5&#45;&gt;Node4 -->
<g id="edge6" class="edge"><title>Node5&#45;&gt;Node4</title>
<path fill="none" stroke="#9a32cd" stroke-dasharray="5,2" d="M844.986,-322.117C902.006,-329.11 989.71,-340.779 1022,-350 1042.96,-355.985 1065.46,-365.735 1082.72,-373.989"/>
<polygon fill="#9a32cd" stroke="#9a32cd" points="845.066,-318.601 834.717,-320.867 844.22,-325.55 845.066,-318.601"/>
<text text-anchor="middle" x="961" y="-353" font-family="FreeSans" font-size="10.00"> ptr_</text>
</g>
<!-- Node5&#45;&gt;Node5 -->
<g id="edge27" class="edge"><title>Node5&#45;&gt;Node5</title>
<path fill="none" stroke="#9a32cd" stroke-dasharray="5,2" d="M764.374,-334.654C765.529,-339.937 774.738,-344 792,-344 818.305,-344 825.908,-334.565 814.811,-325.757"/>
<polygon fill="#9a32cd" stroke="#9a32cd" points="767.508,-336.218 769.189,-325.757 761.351,-332.886 767.508,-336.218"/>
<text text-anchor="middle" x="792" y="-347" font-family="FreeSans" font-size="10.00"> parent_</text>
</g>
<!-- Node11 -->
<g id="node11" class="node"><title>Node11</title>
<g id="a_node11"><a xlink:href="class_urho3_d_1_1_scene.html" target="_top" xlink:title="Root scene node, represents the whole scene. ">
<polygon fill="none" stroke="red" points="1068.5,-201.5 1068.5,-220.5 1157.5,-220.5 1157.5,-201.5 1068.5,-201.5"/>
<text text-anchor="middle" x="1113" y="-208.5" font-family="FreeSans" font-size="10.00">Urho3D::Scene</text>
</a>
</g>
</g>
<!-- Node5&#45;&gt;Node11 -->
<g id="edge13" class="edge"><title>Node5&#45;&gt;Node11</title>
<path fill="none" stroke="midnightblue" d="M844.995,-306.112C857.211,-303.455 870.126,-300.372 882,-297 945.559,-278.952 962.959,-276.658 1022,-247 1030.59,-242.684 1031.36,-239.224 1040,-235 1051.72,-229.269 1065.14,-224.381 1077.2,-220.542"/>
<polygon fill="midnightblue" stroke="midnightblue" points="843.996,-302.746 834.937,-308.24 845.445,-309.594 843.996,-302.746"/>
</g>
<!-- Node6 -->
<g id="node6" class="node"><title>Node6</title>
<g id="a_node6"><a xlink:href="class_urho3_d_1_1_animatable.html" target="_top" xlink:title="Base class for animatable object, an animatable object can be set animation on it&#39;s attributes...">
<polygon fill="none" stroke="black" points="425,-203.5 425,-222.5 539,-222.5 539,-203.5 425,-203.5"/>
<text text-anchor="middle" x="482" y="-210.5" font-family="FreeSans" font-size="10.00">Urho3D::Animatable</text>
</a>
</g>
</g>
<!-- Node6&#45;&gt;Node5 -->
<g id="edge7" class="edge"><title>Node6&#45;&gt;Node5</title>
<path fill="none" stroke="midnightblue" d="M548.983,-222.995C560.77,-225.463 572.844,-228.444 584,-232 630.611,-246.856 644.235,-249.504 684,-278 693.455,-284.776 691.856,-291.307 702,-297 716.33,-305.041 733.705,-309.685 749.286,-312.364"/>
<polygon fill="midnightblue" stroke="midnightblue" points="549.666,-219.563 539.175,-221.042 548.299,-226.428 549.666,-219.563"/>
</g>
<!-- Node7 -->
<g id="node7" class="node"><title>Node7</title>
<g id="a_node7"><a xlink:href="class_urho3_d_1_1_serializable.html" target="_top" xlink:title="Base class for objects with automatic serialization through attributes. ">
<polygon fill="none" stroke="red" points="44,-279.5 44,-298.5 158,-298.5 158,-279.5 44,-279.5"/>
<text text-anchor="middle" x="101" y="-286.5" font-family="FreeSans" font-size="10.00">Urho3D::Serializable</text>
</a>
</g>
</g>
<!-- Node7&#45;&gt;Node6 -->
<g id="edge8" class="edge"><title>Node7&#45;&gt;Node6</title>
<path fill="none" stroke="midnightblue" d="M168.422,-287.888C222.687,-284.764 300.237,-275.135 362,-247 371.477,-242.683 370.58,-236.439 380,-232 393.881,-225.459 409.833,-221.169 424.9,-218.355"/>
<polygon fill="midnightblue" stroke="midnightblue" points="168.036,-284.403 158.23,-288.414 168.397,-291.394 168.036,-284.403"/>
</g>
<!-- Node8 -->
<g id="node8" class="node"><title>Node8</title>
<g id="a_node8"><a xlink:href="class_urho3_d_1_1_hash_map.html" target="_top" xlink:title="Urho3D::HashMap\&lt; Urho3D\l::String, Urho3D::SharedPtr\l\&lt; Urho3D::AttributeAnimationInfo \&gt; \&gt;">
<polygon fill="none" stroke="red" points="0.5,-219.5 0.5,-260.5 201.5,-260.5 201.5,-219.5 0.5,-219.5"/>
<text text-anchor="start" x="8.5" y="-248.5" font-family="FreeSans" font-size="10.00">Urho3D::HashMap&lt; Urho3D</text>
<text text-anchor="start" x="8.5" y="-237.5" font-family="FreeSans" font-size="10.00">::String, Urho3D::SharedPtr</text>
<text text-anchor="middle" x="101" y="-226.5" font-family="FreeSans" font-size="10.00">&lt; Urho3D::AttributeAnimationInfo &gt; &gt;</text>
</a>
</g>
</g>
<!-- Node8&#45;&gt;Node6 -->
<g id="edge9" class="edge"><title>Node8&#45;&gt;Node6</title>
<path fill="none" stroke="#9a32cd" stroke-dasharray="5,2" d="M211.741,-232.182C281.534,-227.21 368.983,-220.98 424.931,-216.994"/>
<polygon fill="#9a32cd" stroke="#9a32cd" points="211.304,-228.704 201.578,-232.906 211.801,-235.687 211.304,-228.704"/>
<text text-anchor="middle" x="291" y="-235" font-family="FreeSans" font-size="10.00"> attributeAnimationInfos_</text>
</g>
<!-- Node9 -->
<g id="node9" class="node"><title>Node9</title>
<g id="a_node9"><a xlink:href="class_urho3_d_1_1_shared_ptr.html" target="_top" xlink:title="Urho3D::SharedPtr\&lt;\l Urho3D::ObjectAnimation \&gt;">
<polygon fill="none" stroke="red" points="24.5,-171 24.5,-201 177.5,-201 177.5,-171 24.5,-171"/>
<text text-anchor="start" x="32.5" y="-189" font-family="FreeSans" font-size="10.00">Urho3D::SharedPtr&lt;</text>
<text text-anchor="middle" x="101" y="-178" font-family="FreeSans" font-size="10.00"> Urho3D::ObjectAnimation &gt;</text>
</a>
</g>
</g>
<!-- Node9&#45;&gt;Node6 -->
<g id="edge10" class="edge"><title>Node9&#45;&gt;Node6</title>
<path fill="none" stroke="#9a32cd" stroke-dasharray="5,2" d="M187.819,-192.114C260.357,-197.281 362.177,-204.535 424.751,-208.993"/>
<polygon fill="#9a32cd" stroke="#9a32cd" points="188.009,-188.619 177.785,-191.399 187.511,-195.601 188.009,-188.619"/>
<text text-anchor="middle" x="291" y="-208" font-family="FreeSans" font-size="10.00"> objectAnimation_</text>
</g>
<!-- Node10 -->
<g id="node10" class="node"><title>Node10</title>
<g id="a_node10"><a xlink:href="class_urho3_d_1_1_hash_set.html" target="_top" xlink:title="Urho3D::HashSet\&lt; const\l Urho3D::AttributeInfo * \&gt;">
<polygon fill="none" stroke="red" points="30.5,-122 30.5,-152 171.5,-152 171.5,-122 30.5,-122"/>
<text text-anchor="start" x="38.5" y="-140" font-family="FreeSans" font-size="10.00">Urho3D::HashSet&lt; const</text>
<text text-anchor="middle" x="101" y="-129" font-family="FreeSans" font-size="10.00"> Urho3D::AttributeInfo * &gt;</text>
</a>
</g>
</g>
<!-- Node10&#45;&gt;Node6 -->
<g id="edge11" class="edge"><title>Node10&#45;&gt;Node6</title>
<path fill="none" stroke="#9a32cd" stroke-dasharray="5,2" d="M181.734,-147.937C233.399,-155.576 302,-166.759 362,-180 392.147,-186.653 426.031,-196.263 449.909,-203.398"/>
<polygon fill="#9a32cd" stroke="#9a32cd" points="182.036,-144.444 171.634,-146.457 181.02,-151.37 182.036,-144.444"/>
<text text-anchor="middle" x="291" y="-183" font-family="FreeSans" font-size="10.00"> animatedNetworkAttributes_</text>
</g>
<!-- Node11&#45;&gt;Node5 -->
<g id="edge12" class="edge"><title>Node11&#45;&gt;Node5</title>
<path fill="none" stroke="#9a32cd" stroke-dasharray="5,2" d="M1058.67,-222.223C1051.75,-225.459 1045.26,-229.628 1040,-235 1021.11,-254.283 1042.9,-275.924 1022,-293 1007.82,-304.581 896.604,-311.367 834.535,-314.289"/>
<polygon fill="#9a32cd" stroke="#9a32cd" points="1060.31,-225.337 1068.28,-218.363 1057.7,-218.841 1060.31,-225.337"/>
<text text-anchor="middle" x="961" y="-314" font-family="FreeSans" font-size="10.00"> scene_</text>
</g>
<!-- Node12 -->
<g id="node12" class="node"><title>Node12</title>
<g id="a_node12"><a xlink:href="class_urho3_d_1_1_scene_resolver.html" target="_top" xlink:title="Utility class that resolves node &amp; component IDs after a scene or partial scene load. ">
<polygon fill="none" stroke="red" points="727.5,-201.5 727.5,-220.5 856.5,-220.5 856.5,-201.5 727.5,-201.5"/>
<text text-anchor="middle" x="792" y="-208.5" font-family="FreeSans" font-size="10.00">Urho3D::SceneResolver</text>
</a>
</g>
</g>
<!-- Node12&#45;&gt;Node11 -->
<g id="edge14" class="edge"><title>Node12&#45;&gt;Node11</title>
<path fill="none" stroke="#9a32cd" stroke-dasharray="5,2" d="M866.682,-200.864C877.826,-199.675 889.203,-198.654 900,-198 954.123,-194.724 967.917,-194.114 1022,-198 1037.12,-199.086 1053.55,-201.186 1068.19,-203.386"/>
<polygon fill="#9a32cd" stroke="#9a32cd" points="866.086,-197.409 856.537,-201.998 866.864,-204.366 866.086,-197.409"/>
<text text-anchor="middle" x="961" y="-201" font-family="FreeSans" font-size="10.00"> resolver_</text>
</g>
<!-- Node13 -->
<g id="node13" class="node"><title>Node13</title>
<g id="a_node13"><a xlink:href="class_urho3_d_1_1_hash_map.html" target="_top" xlink:title="Urho3D::HashMap\&lt; Urho3D\l::StringHash, Urho3D::\lPODVector\&lt; Urho3D::Node * \&gt; \&gt;">
<polygon fill="none" stroke="red" points="702.5,-141.5 702.5,-182.5 881.5,-182.5 881.5,-141.5 702.5,-141.5"/>
<text text-anchor="start" x="710.5" y="-170.5" font-family="FreeSans" font-size="10.00">Urho3D::HashMap&lt; Urho3D</text>
<text text-anchor="start" x="710.5" y="-159.5" font-family="FreeSans" font-size="10.00">::StringHash, Urho3D::</text>
<text text-anchor="middle" x="792" y="-148.5" font-family="FreeSans" font-size="10.00">PODVector&lt; Urho3D::Node * &gt; &gt;</text>
</a>
</g>
</g>
<!-- Node13&#45;&gt;Node11 -->
<g id="edge15" class="edge"><title>Node13&#45;&gt;Node11</title>
<path fill="none" stroke="#9a32cd" stroke-dasharray="5,2" d="M891.644,-160.234C932.801,-162.028 980.573,-167.47 1022,-181 1030.91,-183.911 1031.38,-188.321 1040,-192 1048.92,-195.805 1058.79,-199.011 1068.29,-201.643"/>
<polygon fill="#9a32cd" stroke="#9a32cd" points="891.729,-156.735 881.606,-159.862 891.47,-163.73 891.729,-156.735"/>
<text text-anchor="middle" x="961" y="-184" font-family="FreeSans" font-size="10.00"> taggedNodes_</text>
</g>
<!-- Node14 -->
<g id="node14" class="node"><title>Node14</title>
<g id="a_node14"><a xlink:href="class_urho3_d_1_1_vector.html" target="_top" xlink:title="Urho3D::Vector\&lt; Urho3D\l::SharedPtr\&lt; Urho3D::Package\lFile \&gt; \&gt;">
<polygon fill="none" stroke="red" points="710,-81.5 710,-122.5 874,-122.5 874,-81.5 710,-81.5"/>
<text text-anchor="start" x="718" y="-110.5" font-family="FreeSans" font-size="10.00">Urho3D::Vector&lt; Urho3D</text>
<text text-anchor="start" x="718" y="-99.5" font-family="FreeSans" font-size="10.00">::SharedPtr&lt; Urho3D::Package</text>
<text text-anchor="middle" x="792" y="-88.5" font-family="FreeSans" font-size="10.00">File &gt; &gt;</text>
</a>
</g>
</g>
<!-- Node14&#45;&gt;Node11 -->
<g id="edge16" class="edge"><title>Node14&#45;&gt;Node11</title>
<path fill="none" stroke="#9a32cd" stroke-dasharray="5,2" d="M884.02,-99.562C929.994,-102.89 983.941,-114.344 1022,-146 1038.88,-160.039 1023.61,-177.394 1040,-192 1047.91,-199.053 1058.15,-203.537 1068.4,-206.374"/>
<polygon fill="#9a32cd" stroke="#9a32cd" points="884.232,-96.0685 874.038,-98.9558 883.807,-103.056 884.232,-96.0685"/>
<text text-anchor="middle" x="961" y="-149" font-family="FreeSans" font-size="10.00"> requiredPackageFiles_</text>
</g>
<!-- Node15 -->
<g id="node15" class="node"><title>Node15</title>
<g id="a_node15"><a xlink:href="class_urho3_d_1_1_hash_map.html" target="_top" xlink:title="Urho3D::HashMap\&lt; unsigned,\l Urho3D::Component * \&gt;">
<polygon fill="none" stroke="red" points="711,-374 711,-404 873,-404 873,-374 711,-374"/>
<text text-anchor="start" x="719" y="-392" font-family="FreeSans" font-size="10.00">Urho3D::HashMap&lt; unsigned,</text>
<text text-anchor="middle" x="792" y="-381" font-family="FreeSans" font-size="10.00"> Urho3D::Component * &gt;</text>
</a>
</g>
</g>
<!-- Node15&#45;&gt;Node11 -->
<g id="edge17" class="edge"><title>Node15&#45;&gt;Node11</title>
<path fill="none" stroke="#9a32cd" stroke-dasharray="5,2" d="M883.512,-380.476C945.289,-374.246 1016.86,-366.037 1022,-361 1062.4,-321.407 1003.75,-278.431 1040,-235 1047.18,-226.401 1057.52,-220.867 1068.15,-217.31"/>
<polygon fill="#9a32cd" stroke="#9a32cd" points="882.901,-377.02 873.298,-381.497 883.597,-383.985 882.901,-377.02"/>
<text text-anchor="start" x="905" y="-404" font-family="FreeSans" font-size="10.00"> replicatedComponents</text>
<text text-anchor="middle" x="961" y="-393" font-family="FreeSans" font-size="10.00">_</text>
<text text-anchor="middle" x="961" y="-382" font-family="FreeSans" font-size="10.00">localComponents_</text>
</g>
<!-- Node16 -->
<g id="node16" class="node"><title>Node16</title>
<g id="a_node16"><a xlink:href="class_urho3_d_1_1_hash_map.html" target="_top" xlink:title="Urho3D::HashMap\&lt; StringHash,\l Variant \&gt;">
<polygon fill="none" stroke="red" points="396,-116 396,-146 568,-146 568,-116 396,-116"/>
<text text-anchor="start" x="404" y="-134" font-family="FreeSans" font-size="10.00">Urho3D::HashMap&lt; StringHash,</text>
<text text-anchor="middle" x="482" y="-123" font-family="FreeSans" font-size="10.00"> Variant &gt;</text>
</a>
</g>
</g>
<!-- Node16&#45;&gt;Node5 -->
<g id="edge26" class="edge"><title>Node16&#45;&gt;Node5</title>
<path fill="none" stroke="#9a32cd" stroke-dasharray="5,2" d="M560.45,-149.163C602.78,-162.938 652.794,-186.159 684,-224 705.26,-249.781 678.003,-273.745 702,-297 714.481,-309.095 732.668,-314.303 749.353,-316.311"/>
<polygon fill="#9a32cd" stroke="#9a32cd" points="561.299,-145.762 550.71,-146.114 559.208,-152.442 561.299,-145.762"/>
<text text-anchor="middle" x="643" y="-227" font-family="FreeSans" font-size="10.00"> vars_</text>
</g>
<!-- Node16&#45;&gt;Node11 -->
<g id="edge18" class="edge"><title>Node16&#45;&gt;Node11</title>
<path fill="none" stroke="#9a32cd" stroke-dasharray="5,2" d="M527.659,-112.214C571.233,-94.9749 639.851,-70.691 702,-61 781.045,-48.6744 802.667,-50.6936 882,-61 945.822,-69.2913 978.093,-50.945 1022,-98 1051.02,-129.1 1010.97,-160.905 1040,-192 1047.41,-199.938 1057.71,-204.713 1068.2,-207.545"/>
<polygon fill="#9a32cd" stroke="#9a32cd" points="526.199,-109.029 518.216,-115.995 528.801,-115.527 526.199,-109.029"/>
<text text-anchor="middle" x="792" y="-64" font-family="FreeSans" font-size="10.00"> smoothingData_</text>
</g>
<!-- Node17 -->
<g id="node17" class="node"><title>Node17</title>
<g id="a_node17"><a xlink:href="class_urho3_d_1_1_string.html" target="_top" xlink:title="String class. ">
<polygon fill="none" stroke="black" points="748,-239.5 748,-258.5 836,-258.5 836,-239.5 748,-239.5"/>
<text text-anchor="middle" x="792" y="-246.5" font-family="FreeSans" font-size="10.00">Urho3D::String</text>
</a>
</g>
</g>
<!-- Node17&#45;&gt;Node1 -->
<g id="edge34" class="edge"><title>Node17&#45;&gt;Node1</title>
<path fill="none" stroke="#9a32cd" stroke-dasharray="5,2" d="M846.211,-256.048C892.921,-262.767 962.498,-274.069 1022,-289 1127.31,-315.425 1248.98,-360.005 1300.22,-379.45"/>
<polygon fill="#9a32cd" stroke="#9a32cd" points="846.412,-252.542 836.019,-254.603 845.429,-259.472 846.412,-252.542"/>
<text text-anchor="middle" x="1113" y="-341" font-family="FreeSans" font-size="10.00"> name_</text>
</g>
<!-- Node17&#45;&gt;Node11 -->
<g id="edge19" class="edge"><title>Node17&#45;&gt;Node11</title>
<path fill="none" stroke="#9a32cd" stroke-dasharray="5,2" d="M846.479,-239.87C863.551,-237.126 882.543,-234.249 900,-232 958.142,-224.508 1025.55,-218.243 1068.47,-214.558"/>
<polygon fill="#9a32cd" stroke="#9a32cd" points="845.436,-236.494 836.128,-241.555 846.561,-243.403 845.436,-236.494"/>
<text text-anchor="middle" x="961" y="-235" font-family="FreeSans" font-size="10.00"> fileName_</text>
</g>
<!-- Node17&#45;&gt;Node17 -->
<g id="edge20" class="edge"><title>Node17&#45;&gt;Node17</title>
<path fill="none" stroke="#9a32cd" stroke-dasharray="5,2" d="M764.374,-267.654C765.529,-272.937 774.738,-277 792,-277 818.305,-277 825.908,-267.565 814.811,-258.757"/>
<polygon fill="#9a32cd" stroke="#9a32cd" points="767.508,-269.218 769.189,-258.757 761.351,-265.886 767.508,-269.218"/>
<text text-anchor="middle" x="792" y="-280" font-family="FreeSans" font-size="10.00"> EMPTY</text>
</g>
<!-- Node18 -->
<g id="node18" class="node"><title>Node18</title>
<g id="a_node18"><a xlink:href="class_urho3_d_1_1_vector.html" target="_top" xlink:title="Urho3D::Vector\&lt; Urho3D\l::WeakPtr\&lt; Urho3D::Component \&gt; \&gt;">
<polygon fill="none" stroke="red" points="385,-389 385,-419 579,-419 579,-389 385,-389"/>
<text text-anchor="start" x="393" y="-407" font-family="FreeSans" font-size="10.00">Urho3D::Vector&lt; Urho3D</text>
<text text-anchor="middle" x="482" y="-396" font-family="FreeSans" font-size="10.00">::WeakPtr&lt; Urho3D::Component &gt; &gt;</text>
</a>
</g>
</g>
<!-- Node18&#45;&gt;Node5 -->
<g id="edge22" class="edge"><title>Node18&#45;&gt;Node5</title>
<path fill="none" stroke="#9a32cd" stroke-dasharray="5,2" d="M553.914,-386.469C564.013,-383.966 574.271,-381.42 584,-379 628.457,-367.941 640.142,-367.237 684,-354 712.497,-345.399 744.604,-333.724 766.147,-325.593"/>
<polygon fill="#9a32cd" stroke="#9a32cd" points="552.757,-383.15 543.892,-388.952 554.44,-389.945 552.757,-383.15"/>
<text text-anchor="middle" x="643" y="-378" font-family="FreeSans" font-size="10.00"> listeners_</text>
</g>
<!-- Node19 -->
<g id="node19" class="node"><title>Node19</title>
<g id="a_node19"><a xlink:href="class_urho3_d_1_1_vector.html" target="_top" xlink:title="Urho3D::Vector\&lt; Urho3D\l::SharedPtr\&lt; Urho3D::Component \&gt; \&gt;">
<polygon fill="none" stroke="red" points="380.5,-340 380.5,-370 583.5,-370 583.5,-340 380.5,-340"/>
<text text-anchor="start" x="388.5" y="-358" font-family="FreeSans" font-size="10.00">Urho3D::Vector&lt; Urho3D</text>
<text text-anchor="middle" x="482" y="-347" font-family="FreeSans" font-size="10.00">::SharedPtr&lt; Urho3D::Component &gt; &gt;</text>
</a>
</g>
</g>
<!-- Node19&#45;&gt;Node5 -->
<g id="edge23" class="edge"><title>Node19&#45;&gt;Node5</title>
<path fill="none" stroke="#9a32cd" stroke-dasharray="5,2" d="M593.823,-340.967C647.745,-334.139 709.351,-326.339 749.141,-321.3"/>
<polygon fill="#9a32cd" stroke="#9a32cd" points="593.332,-337.501 583.851,-342.23 594.211,-344.446 593.332,-337.501"/>
<text text-anchor="middle" x="643" y="-342" font-family="FreeSans" font-size="10.00"> components_</text>
</g>
<!-- Node20 -->
<g id="node20" class="node"><title>Node20</title>
<g id="a_node20"><a xlink:href="class_urho3_d_1_1_unique_ptr.html" target="_top" xlink:title="Urho3D::UniquePtr\&lt;\l Urho3D::NodeImpl \&gt;">
<polygon fill="none" stroke="red" points="422.5,-291 422.5,-321 541.5,-321 541.5,-291 422.5,-291"/>
<text text-anchor="start" x="430.5" y="-309" font-family="FreeSans" font-size="10.00">Urho3D::UniquePtr&lt;</text>
<text text-anchor="middle" x="482" y="-298" font-family="FreeSans" font-size="10.00"> Urho3D::NodeImpl &gt;</text>
</a>
</g>
</g>
<!-- Node20&#45;&gt;Node5 -->
<g id="edge25" class="edge"><title>Node20&#45;&gt;Node5</title>
<path fill="none" stroke="#9a32cd" stroke-dasharray="5,2" d="M551.903,-308.237C612.489,-310.204 698.689,-313.003 749.337,-314.647"/>
<polygon fill="#9a32cd" stroke="#9a32cd" points="551.766,-304.731 541.657,-307.904 551.539,-311.727 551.766,-304.731"/>
<text text-anchor="middle" x="643" y="-316" font-family="FreeSans" font-size="10.00"> impl_</text>
</g>
<!-- Node21 -->
<g id="node21" class="node"><title>Node21</title>
<g id="a_node21"><a xlink:href="class_urho3_d_1_1_vector.html" target="_top" xlink:title="Urho3D::Vector\&lt; Urho3D\l::SharedPtr\&lt; Urho3D::Node \&gt; \&gt;">
<polygon fill="none" stroke="red" points="395.5,-242 395.5,-272 568.5,-272 568.5,-242 395.5,-242"/>
<text text-anchor="start" x="403.5" y="-260" font-family="FreeSans" font-size="10.00">Urho3D::Vector&lt; Urho3D</text>
<text text-anchor="middle" x="482" y="-249" font-family="FreeSans" font-size="10.00">::SharedPtr&lt; Urho3D::Node &gt; &gt;</text>
</a>
</g>
</g>
<!-- Node21&#45;&gt;Node5 -->
<g id="edge28" class="edge"><title>Node21&#45;&gt;Node5</title>
<path fill="none" stroke="#9a32cd" stroke-dasharray="5,2" d="M571.486,-273.95C629.86,-285.132 703.67,-299.271 749.092,-307.972"/>
<polygon fill="#9a32cd" stroke="#9a32cd" points="571.998,-270.485 561.518,-272.041 570.681,-277.36 571.998,-270.485"/>
<text text-anchor="middle" x="643" y="-299" font-family="FreeSans" font-size="10.00"> children_</text>
</g>
<!-- Node22 -->
<g id="node22" class="node"><title>Node22</title>
<g id="a_node22"><a xlink:href="class_urho3_d_1_1_matrix3x4.html" target="_top" xlink:title="3x4 matrix for scene node transform calculations. ">
<polygon fill="none" stroke="black" points="429,-0.5 429,-19.5 535,-19.5 535,-0.5 429,-0.5"/>
<text text-anchor="middle" x="482" y="-7.5" font-family="FreeSans" font-size="10.00">Urho3D::Matrix3x4</text>
</a>
</g>
</g>
<!-- Node22&#45;&gt;Node1 -->
<g id="edge37" class="edge"><title>Node22&#45;&gt;Node1</title>
<path fill="none" stroke="#9a32cd" stroke-dasharray="5,2" d="M545.393,-7.0657C647.042,-3.903 853.923,-4.24529 1022,-48 1141.52,-79.1153 1194.42,-80.3525 1266,-181 1312.56,-246.458 1322.51,-347.827 1324.52,-379.327"/>
<polygon fill="#9a32cd" stroke="#9a32cd" points="545.176,-3.5709 535.298,-7.40234 545.409,-10.567 545.176,-3.5709"/>
<text text-anchor="middle" x="961" y="-51" font-family="FreeSans" font-size="10.00"> offsetMatrix_</text>
</g>
<!-- Node22&#45;&gt;Node5 -->
<g id="edge29" class="edge"><title>Node22&#45;&gt;Node5</title>
<path fill="none" stroke="#9a32cd" stroke-dasharray="5,2" d="M517.578,-23.5459C564.015,-43.7179 645.172,-86.3525 684,-151 717.663,-207.048 657.839,-248.788 702,-297 713.846,-309.932 732.151,-315.222 749.088,-317.065"/>
<polygon fill="#9a32cd" stroke="#9a32cd" points="518.797,-20.2611 508.224,-19.5825 516.066,-26.7064 518.797,-20.2611"/>
<text text-anchor="middle" x="643" y="-154" font-family="FreeSans" font-size="10.00"> worldTransform_</text>
</g>
<!-- Node22&#45;&gt;Node22 -->
<g id="edge30" class="edge"><title>Node22&#45;&gt;Node22</title>
<path fill="none" stroke="#9a32cd" stroke-dasharray="5,2" d="M452.06,-28.2746C452.914,-33.741 462.894,-38 482,-38 510.438,-38 518.658,-28.5653 506.661,-19.7571"/>
<polygon fill="#9a32cd" stroke="#9a32cd" points="455.046,-30.1007 457.339,-19.7571 449.096,-26.4128 455.046,-30.1007"/>
<text text-anchor="middle" x="482" y="-52" font-family="FreeSans" font-size="10.00"> IDENTITY</text>
<text text-anchor="middle" x="482" y="-41" font-family="FreeSans" font-size="10.00">ZERO</text>
</g>
<!-- Node23 -->
<g id="node23" class="node"><title>Node23</title>
<g id="a_node23"><a xlink:href="struct_urho3_d_1_1_ref_count.html" target="_top" xlink:title="Reference count structure. ">
<polygon fill="none" stroke="black" points="741,-425.5 741,-444.5 843,-444.5 843,-425.5 741,-425.5"/>
<text text-anchor="middle" x="792" y="-432.5" font-family="FreeSans" font-size="10.00">Urho3D::RefCount</text>
</a>
</g>
</g>
<!-- Node23&#45;&gt;Node4 -->
<g id="edge31" class="edge"><title>Node23&#45;&gt;Node4</title>
<path fill="none" stroke="#9a32cd" stroke-dasharray="5,2" d="M853.214,-433.928C899.685,-432.221 965.385,-427.89 1022,-417 1038.07,-413.909 1055.32,-408.96 1070.37,-404.077"/>
<polygon fill="#9a32cd" stroke="#9a32cd" points="852.889,-430.436 843.013,-434.272 853.125,-437.432 852.889,-430.436"/>
<text text-anchor="middle" x="961" y="-435" font-family="FreeSans" font-size="10.00"> refCount_</text>
</g>
<!-- Node24&#45;&gt;Node1 -->
<g id="edge32" class="edge"><title>Node24&#45;&gt;Node1</title>
<path fill="none" stroke="#9a32cd" stroke-dasharray="5,2" d="M1032.08,-525.564C1097.62,-531.735 1195.68,-531.12 1266,-487 1299.31,-466.101 1316.39,-418.906 1322.42,-398.594"/>
<polygon fill="#9a32cd" stroke="#9a32cd" points="1032.15,-522.053 1021.85,-524.521 1031.44,-529.017 1032.15,-522.053"/>
<text text-anchor="middle" x="1113" y="-532" font-family="FreeSans" font-size="10.00"> boundingBox_</text>
</g>
<!-- Node25 -->
<g id="node25" class="node"><title>Node25</title>
<g id="a_node25"><a xlink:href="class_urho3_d_1_1_string_hash.html" target="_top" xlink:title="32&#45;bit hash value for a string. ">
<polygon fill="none" stroke="black" points="1056.5,-134.5 1056.5,-153.5 1169.5,-153.5 1169.5,-134.5 1056.5,-134.5"/>
<text text-anchor="middle" x="1113" y="-141.5" font-family="FreeSans" font-size="10.00">Urho3D::StringHash</text>
</a>
</g>
</g>
<!-- Node25&#45;&gt;Node1 -->
<g id="edge35" class="edge"><title>Node25&#45;&gt;Node1</title>
<path fill="none" stroke="#9a32cd" stroke-dasharray="5,2" d="M1151.63,-157.273C1185.77,-171.08 1235.33,-195.786 1266,-232 1305.14,-278.216 1319.63,-352.976 1323.68,-379.386"/>
<polygon fill="#9a32cd" stroke="#9a32cd" points="1152.59,-153.891 1142,-153.503 1150.03,-160.409 1152.59,-153.891"/>
<text text-anchor="middle" x="1235" y="-235" font-family="FreeSans" font-size="10.00"> nameHash_</text>
</g>
<!-- Node25&#45;&gt;Node25 -->
<g id="edge36" class="edge"><title>Node25&#45;&gt;Node25</title>
<path fill="none" stroke="#9a32cd" stroke-dasharray="5,2" d="M1090.31,-163.029C1091.54,-168.128 1099.11,-172 1113,-172 1134.68,-172 1140.95,-162.565 1131.8,-153.757"/>
<polygon fill="#9a32cd" stroke="#9a32cd" points="1093.56,-164.332 1094.2,-153.757 1087.1,-161.625 1093.56,-164.332"/>
<text text-anchor="middle" x="1113" y="-175" font-family="FreeSans" font-size="10.00"> ZERO</text>
</g>
</g>
</svg>
        <g id="navigator" transform="translate(0 0)" fill="#404254">
                <rect fill="#f2f5e9" fill-opacity="0.5" stroke="#606060" stroke-width=".5" x="0" y="0" width="60" height="60"/>
                <use id="zoomplus" xlink:href="#zoomPlus" x="17" y="9" onmousedown="handleZoom(evt,'in')"/>
                <use id="zoomminus" xlink:href="#zoomMin" x="42" y="9" onmousedown="handleZoom(evt,'out')"/>
                <use id="reset" xlink:href="#resetDef" x="30" y="36" onmousedown="handleReset()"/>
                <g id="arrowUp" xlink:href="#dirArrow" transform="translate(30 24)" onmousedown="handlePan(0,-1)">
                  <use xlink:href="#rim" fill="#404040">
                        <set attributeName="fill" to="#808080" begin="arrowUp.mouseover" end="arrowUp.mouseout"/>
                  </use>
                  <path fill="none" stroke="white" stroke-width="1.5" d="M0,-3.0v7 M-2.5,-0.5L0,-3.0L2.5,-0.5"/>
                </g>
                <g id="arrowRight" xlink:href="#dirArrow" transform="rotate(90) translate(36 -43)" onmousedown="handlePan(1,0)">
                  <use xlink:href="#rim" fill="#404040">
                        <set attributeName="fill" to="#808080" begin="arrowRight.mouseover" end="arrowRight.mouseout"/>
                  </use>
                  <path fill="none" stroke="white" stroke-width="1.5" d="M0,-3.0v7 M-2.5,-0.5L0,-3.0L2.5,-0.5"/>
                </g>
                <g id="arrowDown" xlink:href="#dirArrow" transform="rotate(180) translate(-30 -48)" onmousedown="handlePan(0,1)">
                  <use xlink:href="#rim" fill="#404040">
                        <set attributeName="fill" to="#808080" begin="arrowDown.mouseover" end="arrowDown.mouseout"/>
                  </use>
                  <path fill="none" stroke="white" stroke-width="1.5" d="M0,-3.0v7 M-2.5,-0.5L0,-3.0L2.5,-0.5"/>
                </g>
                <g id="arrowLeft" xlink:href="#dirArrow" transform="rotate(270) translate(-36 17)" onmousedown="handlePan(-1,0)">
                  <use xlink:href="#rim" fill="#404040">
                        <set attributeName="fill" to="#808080" begin="arrowLeft.mouseover" end="arrowLeft.mouseout"/>
                  </use>
                  <path fill="none" stroke="white" stroke-width="1.5" d="M0,-3.0v7 M-2.5,-0.5L0,-3.0L2.5,-0.5"/>
                </g>
        </g>
        <svg viewBox="0 0 15 15" width="100%" height="30px" preserveAspectRatio="xMaxYMin meet">
         <g id="arrow_out" transform="scale(0.3 0.3)">
          <a xlink:href="struct_urho3_d_1_1_bone__coll__graph_org.svg" target="_base">
           <rect id="button" ry="5" rx="5" y="6" x="6" height="38" width="38"
                fill="#f2f5e9" fill-opacity="0.5" stroke="#606060" stroke-width="1.0"/>
           <path id="arrow"
             d="M 11.500037,31.436501 C 11.940474,20.09759 22.043105,11.32322 32.158766,21.979434 L 37.068811,17.246167 C 37.068811,17.246167 37.088388,32 37.088388,32 L 22.160133,31.978069 C 22.160133,31.978069 26.997745,27.140456 26.997745,27.140456 C 18.528582,18.264221 13.291696,25.230495 11.500037,31.436501 z"
             style="fill:#404040;"/>
          </a>
         </g>
        </svg>
</svg>
