<?xml version="1.0" encoding="UTF-8" standalone="no"?>
<!DOCTYPE svg PUBLIC "-//W3C//DTD SVG 1.1//EN"
 "http://www.w3.org/Graphics/SVG/1.1/DTD/svg11.dtd">
<!-- Generated by graphviz version 2.26.3 (20100126.1600)
 -->
<!-- Title: Urho3D::AsyncProgress Pages: 1 -->
<svg width="2326pt" height="371pt"
 viewBox="0.00 0.00 2326.00 371.00" xmlns="http://www.w3.org/2000/svg" xmlns:xlink="http://www.w3.org/1999/xlink">
<g id="graph1" class="graph" transform="scale(1 1) rotate(0) translate(4 367)">
<title>Urho3D::AsyncProgress</title>
<!-- Node1 -->
<g id="node1" class="node"><title>Node1</title>
<polygon fill="#bfbfbf" stroke="black" points="2188,-119.5 2188,-140.5 2318,-140.5 2318,-119.5 2188,-119.5"/>
<text text-anchor="middle" x="2253" y="-127.5" font-family="FreeSans" font-size="10.00">Urho3D::AsyncProgress</text>
</g>
<!-- Node2 -->
<g id="node2" class="node"><title>Node2</title>
<a xlink:href="class_urho3_d_1_1_shared_ptr.html" target="_top" xlink:title="Urho3D::SharedPtr\&lt;\l Urho3D::File \&gt;">
<polygon fill="none" stroke="black" points="1220,-312 1220,-346 1336,-346 1336,-312 1220,-312"/>
<text text-anchor="start" x="1228" y="-333" font-family="FreeSans" font-size="10.00">Urho3D::SharedPtr&lt;</text>
<text text-anchor="middle" x="1278" y="-320" font-family="FreeSans" font-size="10.00"> Urho3D::File &gt;</text>
</a>
</g>
<!-- Node2&#45;&gt;Node1 -->
<g id="edge2" class="edge"><title>Node2&#45;&gt;Node1</title>
<path fill="none" stroke="#9a32cd" stroke-dasharray="5,2" d="M1346.41,-331.519C1406.8,-333.526 1497.24,-336 1576,-336 1576,-336 1576,-336 2011,-336 2132.66,-336 2224.28,-183.171 2247.35,-140.785"/>
<polygon fill="#9a32cd" stroke="#9a32cd" points="1346.35,-328.016 1336.23,-331.176 1346.11,-335.012 1346.35,-328.016"/>
<text text-anchor="middle" x="1718" y="-340" font-family="FreeSans" font-size="10.00"> file_</text>
</g>
<!-- Node3 -->
<g id="node4" class="node"><title>Node3</title>
<a xlink:href="class_urho3_d_1_1_file.html" target="_top" xlink:title="File opened either through the filesystem or from within a package file.">
<polygon fill="none" stroke="black" points="909,-268.5 909,-289.5 983,-289.5 983,-268.5 909,-268.5"/>
<text text-anchor="middle" x="946" y="-276.5" font-family="FreeSans" font-size="10.00">Urho3D::File</text>
</a>
</g>
<!-- Node3&#45;&gt;Node2 -->
<g id="edge4" class="edge"><title>Node3&#45;&gt;Node2</title>
<path fill="none" stroke="#9a32cd" stroke-dasharray="5,2" d="M993.007,-286.079C1052.57,-295.049 1155.21,-310.508 1219.7,-320.22"/>
<polygon fill="#9a32cd" stroke="#9a32cd" points="993.528,-282.618 983.118,-284.59 992.485,-289.54 993.528,-282.618"/>
<text text-anchor="middle" x="1057" y="-303" font-family="FreeSans" font-size="10.00"> ptr_</text>
</g>
<!-- Node4 -->
<g id="node6" class="node"><title>Node4</title>
<a xlink:href="class_urho3_d_1_1_object.html" target="_top" xlink:title="Base class for objects with type identification, subsystem access and event sending/receiving capabil...">
<polygon fill="none" stroke="red" points="681,-221.5 681,-242.5 771,-242.5 771,-221.5 681,-221.5"/>
<text text-anchor="middle" x="726" y="-229.5" font-family="FreeSans" font-size="10.00">Urho3D::Object</text>
</a>
</g>
<!-- Node4&#45;&gt;Node3 -->
<g id="edge6" class="edge"><title>Node4&#45;&gt;Node3</title>
<path fill="none" stroke="midnightblue" d="M780.886,-243.726C820.746,-252.241 873.626,-263.538 908.681,-271.027"/>
<polygon fill="midnightblue" stroke="midnightblue" points="781.562,-240.291 771.051,-241.625 780.099,-247.137 781.562,-240.291"/>
</g>
<!-- Node18 -->
<g id="node39" class="node"><title>Node18</title>
<a xlink:href="class_urho3_d_1_1_resource.html" target="_top" xlink:title="Base class for resources.">
<polygon fill="none" stroke="red" points="894.5,-183.5 894.5,-204.5 997.5,-204.5 997.5,-183.5 894.5,-183.5"/>
<text text-anchor="middle" x="946" y="-191.5" font-family="FreeSans" font-size="10.00">Urho3D::Resource</text>
</a>
</g>
<!-- Node4&#45;&gt;Node18 -->
<g id="edge46" class="edge"><title>Node4&#45;&gt;Node18</title>
<path fill="none" stroke="midnightblue" d="M781.22,-223.001C806.472,-218.834 836.768,-213.76 864,-209 873.837,-207.281 884.328,-205.398 894.406,-203.566"/>
<polygon fill="midnightblue" stroke="midnightblue" points="780.389,-219.591 771.09,-224.669 781.526,-226.498 780.389,-219.591"/>
</g>
<!-- Node5 -->
<g id="node8" class="node"><title>Node5</title>
<a xlink:href="class_urho3_d_1_1_ref_counted.html" target="_top" xlink:title="Base class for intrusively reference&#45;counted objects. These are noncopyable and non&#45;assignable.">
<polygon fill="none" stroke="black" points="188,-206.5 188,-227.5 302,-227.5 302,-206.5 188,-206.5"/>
<text text-anchor="middle" x="245" y="-214.5" font-family="FreeSans" font-size="10.00">Urho3D::RefCounted</text>
</a>
</g>
<!-- Node5&#45;&gt;Node4 -->
<g id="edge8" class="edge"><title>Node5&#45;&gt;Node4</title>
<path fill="none" stroke="midnightblue" d="M312.312,-219.099C411.886,-222.204 595.798,-227.94 680.777,-230.59"/>
<polygon fill="midnightblue" stroke="midnightblue" points="312.17,-215.593 302.066,-218.78 311.952,-222.59 312.17,-215.593"/>
</g>
<!-- Node7 -->
<g id="node12" class="node"><title>Node7</title>
<a xlink:href="class_urho3_d_1_1_context.html" target="_top" xlink:title="Urho3D execution context. Provides access to subsystems, object factories and attributes, and event receivers.">
<polygon fill="none" stroke="red" points="472.5,-183.5 472.5,-204.5 569.5,-204.5 569.5,-183.5 472.5,-183.5"/>
<text text-anchor="middle" x="521" y="-191.5" font-family="FreeSans" font-size="10.00">Urho3D::Context</text>
</a>
</g>
<!-- Node5&#45;&gt;Node7 -->
<g id="edge14" class="edge"><title>Node5&#45;&gt;Node7</title>
<path fill="none" stroke="midnightblue" d="M312.158,-211.403C361.609,-207.283 427.71,-201.774 472.188,-198.068"/>
<polygon fill="midnightblue" stroke="midnightblue" points="311.862,-207.916 302.187,-212.234 312.444,-214.892 311.862,-207.916"/>
</g>
<!-- Node6 -->
<g id="node10" class="node"><title>Node6</title>
<a xlink:href="struct_urho3_d_1_1_ref_count.html" target="_top" xlink:title="Reference count structure.">
<polygon fill="none" stroke="black" points="0,-206.5 0,-227.5 102,-227.5 102,-206.5 0,-206.5"/>
<text text-anchor="middle" x="51" y="-214.5" font-family="FreeSans" font-size="10.00">Urho3D::RefCount</text>
</a>
</g>
<!-- Node6&#45;&gt;Node5 -->
<g id="edge10" class="edge"><title>Node6&#45;&gt;Node5</title>
<path fill="none" stroke="#9a32cd" stroke-dasharray="5,2" d="M112.327,-217C136.436,-217 163.96,-217 187.666,-217"/>
<polygon fill="#9a32cd" stroke="#9a32cd" points="112.225,-213.5 102.225,-217 112.225,-220.5 112.225,-213.5"/>
<text text-anchor="middle" x="145" y="-221" font-family="FreeSans" font-size="10.00"> refCount_</text>
</g>
<!-- Node10 -->
<g id="node19" class="node"><title>Node10</title>
<a xlink:href="class_urho3_d_1_1_shared_array_ptr.html" target="_top" xlink:title="Urho3D::SharedArrayPtr\l\&lt; unsigned char \&gt;">
<polygon fill="none" stroke="black" points="320.5,-252 320.5,-286 453.5,-286 453.5,-252 320.5,-252"/>
<text text-anchor="start" x="328.5" y="-273" font-family="FreeSans" font-size="10.00">Urho3D::SharedArrayPtr</text>
<text text-anchor="middle" x="387" y="-260" font-family="FreeSans" font-size="10.00">&lt; unsigned char &gt;</text>
</a>
</g>
<!-- Node6&#45;&gt;Node10 -->
<g id="edge22" class="edge"><title>Node6&#45;&gt;Node10</title>
<path fill="none" stroke="#9a32cd" stroke-dasharray="5,2" d="M100.663,-229.935C107.144,-231.417 113.714,-232.817 120,-234 187.769,-246.749 266.081,-256.426 320.291,-262.338"/>
<polygon fill="#9a32cd" stroke="#9a32cd" points="101.143,-226.451 90.606,-227.558 99.5332,-233.264 101.143,-226.451"/>
<text text-anchor="middle" x="145" y="-246" font-family="FreeSans" font-size="10.00"> refCount_</text>
</g>
<!-- Node24 -->
<g id="node56" class="node"><title>Node24</title>
<a xlink:href="class_urho3_d_1_1_weak_ptr.html" target="_top" xlink:title="Urho3D::WeakPtr\&lt; Urho3D\l::XMLFile \&gt;">
<polygon fill="none" stroke="black" points="1354,-15 1354,-49 1500,-49 1500,-15 1354,-15"/>
<text text-anchor="start" x="1362" y="-36" font-family="FreeSans" font-size="10.00">Urho3D::WeakPtr&lt; Urho3D</text>
<text text-anchor="middle" x="1427" y="-23" font-family="FreeSans" font-size="10.00">::XMLFile &gt;</text>
</a>
</g>
<!-- Node6&#45;&gt;Node24 -->
<g id="edge70" class="edge"><title>Node6&#45;&gt;Node24</title>
<path fill="none" stroke="#9a32cd" stroke-dasharray="5,2" d="M59.7344,-197.1C82.5422,-148.555 148.861,-28 245,-28 245,-28 245,-28 1153,-28 1221.03,-28 1298.55,-29.2481 1353.74,-30.35"/>
<polygon fill="#9a32cd" stroke="#9a32cd" points="56.5048,-195.747 55.5328,-206.297 62.8718,-198.656 56.5048,-195.747"/>
<text text-anchor="middle" x="726" y="-32" font-family="FreeSans" font-size="10.00"> refCount_</text>
</g>
<!-- Node7&#45;&gt;Node4 -->
<g id="edge12" class="edge"><title>Node7&#45;&gt;Node4</title>
<path fill="none" stroke="#9a32cd" stroke-dasharray="5,2" d="M580.056,-196.545C602.173,-198.268 627.407,-201.156 650,-206 667.044,-209.654 685.563,-215.939 700.054,-221.414"/>
<polygon fill="#9a32cd" stroke="#9a32cd" points="580.03,-193.034 569.806,-195.811 579.53,-200.016 580.03,-193.034"/>
<text text-anchor="middle" x="619" y="-210" font-family="FreeSans" font-size="10.00"> context_</text>
</g>
<!-- Node8 -->
<g id="node15" class="node"><title>Node8</title>
<a xlink:href="class_urho3_d_1_1_deserializer.html" target="_top" xlink:title="Abstract stream for reading.">
<polygon fill="none" stroke="black" points="668,-341.5 668,-362.5 784,-362.5 784,-341.5 668,-341.5"/>
<text text-anchor="middle" x="726" y="-349.5" font-family="FreeSans" font-size="10.00">Urho3D::Deserializer</text>
</a>
</g>
<!-- Node8&#45;&gt;Node3 -->
<g id="edge16" class="edge"><title>Node8&#45;&gt;Node3</title>
<path fill="none" stroke="midnightblue" d="M771.185,-338.527C798.219,-330.315 833.198,-319.427 864,-309 882.092,-302.876 902.239,-295.513 918.035,-289.614"/>
<polygon fill="midnightblue" stroke="midnightblue" points="770.165,-335.179 761.607,-341.425 772.192,-341.879 770.165,-335.179"/>
</g>
<!-- Node9 -->
<g id="node17" class="node"><title>Node9</title>
<a xlink:href="class_urho3_d_1_1_serializer.html" target="_top" xlink:title="Abstract stream for writing.">
<polygon fill="none" stroke="black" points="674,-301.5 674,-322.5 778,-322.5 778,-301.5 674,-301.5"/>
<text text-anchor="middle" x="726" y="-309.5" font-family="FreeSans" font-size="10.00">Urho3D::Serializer</text>
</a>
</g>
<!-- Node9&#45;&gt;Node3 -->
<g id="edge18" class="edge"><title>Node9&#45;&gt;Node3</title>
<path fill="none" stroke="midnightblue" d="M788.29,-302.656C827.11,-296.833 875.763,-289.536 908.688,-284.597"/>
<polygon fill="midnightblue" stroke="midnightblue" points="787.507,-299.235 778.137,-304.179 788.546,-306.157 787.507,-299.235"/>
</g>
<!-- Node10&#45;&gt;Node3 -->
<g id="edge20" class="edge"><title>Node10&#45;&gt;Node3</title>
<path fill="none" stroke="#9a32cd" stroke-dasharray="5,2" d="M463.597,-270.37C585.373,-272.549 818.588,-276.721 908.952,-278.337"/>
<polygon fill="#9a32cd" stroke="#9a32cd" points="463.657,-266.871 453.596,-270.191 463.532,-273.87 463.657,-266.871"/>
<text text-anchor="middle" x="619" y="-290" font-family="FreeSans" font-size="10.00"> inputBuffer_</text>
<text text-anchor="middle" x="619" y="-277" font-family="FreeSans" font-size="10.00">readBuffer_</text>
</g>
<!-- Node11 -->
<g id="node22" class="node"><title>Node11</title>
<a xlink:href="class_urho3_d_1_1_string.html" target="_top" xlink:title="String class.">
<polygon fill="none" stroke="black" points="682,-148.5 682,-169.5 770,-169.5 770,-148.5 682,-148.5"/>
<text text-anchor="middle" x="726" y="-156.5" font-family="FreeSans" font-size="10.00">Urho3D::String</text>
</a>
</g>
<!-- Node11&#45;&gt;Node3 -->
<g id="edge24" class="edge"><title>Node11&#45;&gt;Node3</title>
<path fill="none" stroke="#9a32cd" stroke-dasharray="5,2" d="M756.143,-174.193C784.251,-188.486 827.246,-210.67 864,-231 886.518,-243.455 912.042,-258.555 928.547,-268.451"/>
<polygon fill="#9a32cd" stroke="#9a32cd" points="757.713,-171.065 747.212,-169.662 754.546,-177.307 757.713,-171.065"/>
<text text-anchor="middle" x="833" y="-235" font-family="FreeSans" font-size="10.00"> fileName_</text>
</g>
<!-- Node11&#45;&gt;Node11 -->
<g id="edge26" class="edge"><title>Node11&#45;&gt;Node11</title>
<path fill="none" stroke="#9a32cd" stroke-dasharray="5,2" d="M706.465,-179.427C707.972,-184.349 714.484,-188 726,-188 744.426,-188 750.04,-178.653 742.842,-169.708"/>
<polygon fill="#9a32cd" stroke="#9a32cd" points="709.861,-180.279 709.158,-169.708 703.115,-178.41 709.861,-180.279"/>
<text text-anchor="middle" x="726" y="-192" font-family="FreeSans" font-size="10.00"> EMPTY</text>
</g>
<!-- Node11&#45;&gt;Node18 -->
<g id="edge48" class="edge"><title>Node11&#45;&gt;Node18</title>
<path fill="none" stroke="#9a32cd" stroke-dasharray="5,2" d="M780.176,-151.451C806.197,-149.801 837.425,-150.774 864,-160 873.574,-163.324 873.02,-169.302 882,-174 889.014,-177.669 896.818,-180.8 904.496,-183.42"/>
<polygon fill="#9a32cd" stroke="#9a32cd" points="779.81,-147.968 770.111,-152.233 780.353,-154.947 779.81,-147.968"/>
<text text-anchor="middle" x="833" y="-164" font-family="FreeSans" font-size="10.00"> name_</text>
</g>
<!-- Node19 -->
<g id="node43" class="node"><title>Node19</title>
<a xlink:href="class_urho3_d_1_1_j_s_o_n_value.html" target="_top" xlink:title="JSON value class.">
<polygon fill="none" stroke="red" points="891,-112.5 891,-133.5 1001,-133.5 1001,-112.5 891,-112.5"/>
<text text-anchor="middle" x="946" y="-120.5" font-family="FreeSans" font-size="10.00">Urho3D::JSONValue</text>
</a>
</g>
<!-- Node11&#45;&gt;Node19 -->
<g id="edge54" class="edge"><title>Node11&#45;&gt;Node19</title>
<path fill="none" stroke="#9a32cd" stroke-dasharray="5,2" d="M761.263,-144.802C773.913,-140.282 788.41,-135.747 802,-133 830.985,-127.14 863.844,-124.558 890.847,-123.476"/>
<polygon fill="#9a32cd" stroke="#9a32cd" points="759.731,-141.637 751.567,-148.389 762.16,-148.202 759.731,-141.637"/>
<text text-anchor="middle" x="833" y="-137" font-family="FreeSans" font-size="10.00"> stringValue_</text>
</g>
<!-- Node12 -->
<g id="node25" class="node"><title>Node12</title>
<a xlink:href="class_urho3_d_1_1_hash_set.html" target="_top" xlink:title="Urho3D::HashSet\&lt; Urho3D\l::StringHash \&gt;">
<polygon fill="none" stroke="black" points="1936.5,-158 1936.5,-192 2085.5,-192 2085.5,-158 1936.5,-158"/>
<text text-anchor="start" x="1944.5" y="-179" font-family="FreeSans" font-size="10.00">Urho3D::HashSet&lt; Urho3D</text>
<text text-anchor="middle" x="2011" y="-166" font-family="FreeSans" font-size="10.00">::StringHash &gt;</text>
</a>
</g>
<!-- Node12&#45;&gt;Node1 -->
<g id="edge28" class="edge"><title>Node12&#45;&gt;Node1</title>
<path fill="none" stroke="#9a32cd" stroke-dasharray="5,2" d="M2095.78,-159.236C2129.08,-153.043 2166.41,-146.101 2196.34,-140.536"/>
<polygon fill="#9a32cd" stroke="#9a32cd" points="2094.77,-155.862 2085.58,-161.131 2096.05,-162.744 2094.77,-155.862"/>
<text text-anchor="middle" x="2137" y="-160" font-family="FreeSans" font-size="10.00"> resources_</text>
</g>
<!-- Node13 -->
<g id="node27" class="node"><title>Node13</title>
<a xlink:href="class_urho3_d_1_1_hash_base.html" target="_top" xlink:title="Hash set/map base class.">
<polygon fill="none" stroke="black" points="1664,-164.5 1664,-185.5 1772,-185.5 1772,-164.5 1664,-164.5"/>
<text text-anchor="middle" x="1718" y="-172.5" font-family="FreeSans" font-size="10.00">Urho3D::HashBase</text>
</a>
</g>
<!-- Node13&#45;&gt;Node12 -->
<g id="edge30" class="edge"><title>Node13&#45;&gt;Node12</title>
<path fill="none" stroke="midnightblue" d="M1782.11,-175C1827.53,-175 1888.62,-175 1936.26,-175"/>
<polygon fill="midnightblue" stroke="midnightblue" points="1782.08,-171.5 1772.08,-175 1782.08,-178.5 1782.08,-171.5"/>
</g>
<!-- Node14 -->
<g id="node29" class="node"><title>Node14</title>
<a xlink:href="struct_urho3_d_1_1_hash_node_base.html" target="_top" xlink:title="Hash set/map node base class.">
<polygon fill="none" stroke="black" points="1360,-158.5 1360,-179.5 1494,-179.5 1494,-158.5 1360,-158.5"/>
<text text-anchor="middle" x="1427" y="-166.5" font-family="FreeSans" font-size="10.00">Urho3D::HashNodeBase</text>
</a>
</g>
<!-- Node14&#45;&gt;Node13 -->
<g id="edge32" class="edge"><title>Node14&#45;&gt;Node13</title>
<path fill="none" stroke="#9a32cd" stroke-dasharray="5,2" d="M1504.31,-170.594C1554.62,-171.631 1618.97,-172.958 1663.85,-173.884"/>
<polygon fill="#9a32cd" stroke="#9a32cd" points="1504.2,-167.091 1494.13,-170.384 1504.05,-174.09 1504.2,-167.091"/>
<text text-anchor="middle" x="1576" y="-203" font-family="FreeSans" font-size="10.00"> ptrs_</text>
<text text-anchor="middle" x="1576" y="-190" font-family="FreeSans" font-size="10.00">tail_</text>
<text text-anchor="middle" x="1576" y="-177" font-family="FreeSans" font-size="10.00">head_</text>
</g>
<!-- Node14&#45;&gt;Node14 -->
<g id="edge34" class="edge"><title>Node14&#45;&gt;Node14</title>
<path fill="none" stroke="#9a32cd" stroke-dasharray="5,2" d="M1399.58,-189.055C1401.38,-194.164 1410.52,-198 1427,-198 1452.73,-198 1460.57,-188.653 1450.52,-179.708"/>
<polygon fill="#9a32cd" stroke="#9a32cd" points="1402.86,-190.284 1403.48,-179.708 1396.4,-187.587 1402.86,-190.284"/>
<text text-anchor="middle" x="1427" y="-228" font-family="FreeSans" font-size="10.00"> next_</text>
<text text-anchor="middle" x="1427" y="-215" font-family="FreeSans" font-size="10.00">prev_</text>
<text text-anchor="middle" x="1427" y="-202" font-family="FreeSans" font-size="10.00">down_</text>
</g>
<!-- Node15 -->
<g id="node32" class="node"><title>Node15</title>
<a xlink:href="struct_urho3_d_1_1_allocator_block.html" target="_top" xlink:title="Allocator memory block.">
<polygon fill="none" stroke="red" points="1363.5,-255.5 1363.5,-276.5 1490.5,-276.5 1490.5,-255.5 1363.5,-255.5"/>
<text text-anchor="middle" x="1427" y="-263.5" font-family="FreeSans" font-size="10.00">Urho3D::AllocatorBlock</text>
</a>
</g>
<!-- Node15&#45;&gt;Node13 -->
<g id="edge36" class="edge"><title>Node15&#45;&gt;Node13</title>
<path fill="none" stroke="#9a32cd" stroke-dasharray="5,2" d="M1494.96,-253.468C1535.89,-244.969 1588.69,-232.312 1634,-216 1657.21,-207.645 1682.47,-194.758 1699.16,-185.665"/>
<polygon fill="#9a32cd" stroke="#9a32cd" points="1494.19,-250.053 1485.09,-255.485 1495.59,-256.912 1494.19,-250.053"/>
<text text-anchor="middle" x="1576" y="-251" font-family="FreeSans" font-size="10.00"> allocator_</text>
</g>
<!-- Node15&#45;&gt;Node15 -->
<g id="edge38" class="edge"><title>Node15&#45;&gt;Node15</title>
<path fill="none" stroke="#9a32cd" stroke-dasharray="5,2" d="M1399.58,-286.055C1401.38,-291.164 1410.52,-295 1427,-295 1452.73,-295 1460.57,-285.653 1450.52,-276.708"/>
<polygon fill="#9a32cd" stroke="#9a32cd" points="1402.86,-287.284 1403.48,-276.708 1396.4,-284.587 1402.86,-287.284"/>
<text text-anchor="middle" x="1427" y="-299" font-family="FreeSans" font-size="10.00"> next_</text>
</g>
<!-- Node16 -->
<g id="node35" class="node"><title>Node16</title>
<a xlink:href="class_urho3_d_1_1_shared_ptr.html" target="_top" xlink:title="Urho3D::SharedPtr\&lt;\l Urho3D::JSONFile \&gt;">
<polygon fill="none" stroke="black" points="1518,-113 1518,-147 1634,-147 1634,-113 1518,-113"/>
<text text-anchor="start" x="1526" y="-134" font-family="FreeSans" font-size="10.00">Urho3D::SharedPtr&lt;</text>
<text text-anchor="middle" x="1576" y="-121" font-family="FreeSans" font-size="10.00"> Urho3D::JSONFile &gt;</text>
</a>
</g>
<!-- Node16&#45;&gt;Node1 -->
<g id="edge40" class="edge"><title>Node16&#45;&gt;Node1</title>
<path fill="none" stroke="#9a32cd" stroke-dasharray="5,2" d="M1644.3,-130C1775.15,-130 2059.55,-130 2187.87,-130"/>
<polygon fill="#9a32cd" stroke="#9a32cd" points="1644.01,-126.5 1634.01,-130 1644.01,-133.5 1644.01,-126.5"/>
<text text-anchor="middle" x="1860" y="-134" font-family="FreeSans" font-size="10.00"> jsonFile_</text>
</g>
<!-- Node17 -->
<g id="node37" class="node"><title>Node17</title>
<a xlink:href="class_urho3_d_1_1_j_s_o_n_file.html" target="_top" xlink:title="JSON document resource.">
<polygon fill="none" stroke="black" points="1104,-119.5 1104,-140.5 1202,-140.5 1202,-119.5 1104,-119.5"/>
<text text-anchor="middle" x="1153" y="-127.5" font-family="FreeSans" font-size="10.00">Urho3D::JSONFile</text>
</a>
</g>
<!-- Node17&#45;&gt;Node16 -->
<g id="edge42" class="edge"><title>Node17&#45;&gt;Node16</title>
<path fill="none" stroke="#9a32cd" stroke-dasharray="5,2" d="M1212.39,-130C1293.36,-130 1437.52,-130 1517.85,-130"/>
<polygon fill="#9a32cd" stroke="#9a32cd" points="1212.35,-126.5 1202.35,-130 1212.35,-133.5 1212.35,-126.5"/>
<text text-anchor="middle" x="1278" y="-134" font-family="FreeSans" font-size="10.00"> ptr_</text>
</g>
<!-- Node18&#45;&gt;Node17 -->
<g id="edge44" class="edge"><title>Node18&#45;&gt;Node17</title>
<path fill="none" stroke="midnightblue" d="M1007.76,-188.392C1032.61,-184.864 1061.2,-179.166 1086,-170 1105.57,-162.768 1125.84,-149.762 1138.89,-140.546"/>
<polygon fill="midnightblue" stroke="midnightblue" points="1007.17,-184.939 997.723,-189.729 1008.1,-191.878 1007.17,-184.939"/>
</g>
<!-- Node21 -->
<g id="node49" class="node"><title>Node21</title>
<a xlink:href="class_urho3_d_1_1_x_m_l_file.html" target="_top" xlink:title="XML document resource.">
<polygon fill="none" stroke="black" points="1106,-74.5 1106,-95.5 1200,-95.5 1200,-74.5 1106,-74.5"/>
<text text-anchor="middle" x="1153" y="-82.5" font-family="FreeSans" font-size="10.00">Urho3D::XMLFile</text>
</a>
</g>
<!-- Node18&#45;&gt;Node21 -->
<g id="edge60" class="edge"><title>Node18&#45;&gt;Node21</title>
<path fill="none" stroke="midnightblue" d="M991.47,-180.381C997.727,-178.335 1004.05,-176.178 1010,-174 1044.42,-161.409 1058.65,-166.399 1086,-142 1098.18,-131.137 1092.23,-121.302 1104,-110 1110.13,-104.113 1117.92,-99.2978 1125.48,-95.5206"/>
<polygon fill="midnightblue" stroke="midnightblue" points="990.206,-177.111 981.748,-183.492 992.339,-183.778 990.206,-177.111"/>
</g>
<!-- Node19&#45;&gt;Node17 -->
<g id="edge50" class="edge"><title>Node19&#45;&gt;Node17</title>
<path fill="none" stroke="#9a32cd" stroke-dasharray="5,2" d="M1011.56,-125.217C1041.5,-126.229 1076.34,-127.408 1103.96,-128.341"/>
<polygon fill="#9a32cd" stroke="#9a32cd" points="1011.31,-121.707 1001.2,-124.867 1011.08,-128.703 1011.31,-121.707"/>
<text text-anchor="middle" x="1057" y="-131" font-family="FreeSans" font-size="10.00"> root_</text>
</g>
<!-- Node19&#45;&gt;Node19 -->
<g id="edge52" class="edge"><title>Node19&#45;&gt;Node19</title>
<path fill="none" stroke="#9a32cd" stroke-dasharray="5,2" d="M925.728,-143.427C927.292,-148.349 934.049,-152 946,-152 965.121,-152 970.947,-142.653 963.478,-133.708"/>
<polygon fill="#9a32cd" stroke="#9a32cd" points="929.123,-144.286 928.522,-133.708 922.395,-142.352 929.123,-144.286"/>
<text text-anchor="middle" x="946" y="-156" font-family="FreeSans" font-size="10.00"> EMPTY</text>
</g>
<!-- Node20 -->
<g id="node47" class="node"><title>Node20</title>
<a xlink:href="class_urho3_d_1_1_shared_ptr.html" target="_top" xlink:title="Urho3D::SharedPtr\&lt;\l Urho3D::XMLFile \&gt;">
<polygon fill="none" stroke="black" points="1802,-72 1802,-106 1918,-106 1918,-72 1802,-72"/>
<text text-anchor="start" x="1810" y="-93" font-family="FreeSans" font-size="10.00">Urho3D::SharedPtr&lt;</text>
<text text-anchor="middle" x="1860" y="-80" font-family="FreeSans" font-size="10.00"> Urho3D::XMLFile &gt;</text>
</a>
</g>
<!-- Node20&#45;&gt;Node1 -->
<g id="edge56" class="edge"><title>Node20&#45;&gt;Node1</title>
<path fill="none" stroke="#9a32cd" stroke-dasharray="5,2" d="M1928.39,-91.6035C1973.29,-93.7146 2033.24,-97.2957 2086,-103 2123.56,-107.061 2132.71,-109.969 2170,-116 2176.78,-117.096 2183.87,-118.262 2190.92,-119.435"/>
<polygon fill="#9a32cd" stroke="#9a32cd" points="1928.34,-88.0973 1918.19,-91.1367 1928.02,-95.09 1928.34,-88.0973"/>
<text text-anchor="middle" x="2011" y="-107" font-family="FreeSans" font-size="10.00"> xmlFile_</text>
</g>
<!-- Node21&#45;&gt;Node20 -->
<g id="edge58" class="edge"><title>Node21&#45;&gt;Node20</title>
<path fill="none" stroke="#9a32cd" stroke-dasharray="5,2" d="M1210.55,-85.3256C1343.15,-86.0758 1668.96,-87.9191 1801.99,-88.6718"/>
<polygon fill="#9a32cd" stroke="#9a32cd" points="1210.23,-81.8238 1200.21,-85.2671 1210.19,-88.8237 1210.23,-81.8238"/>
<text text-anchor="middle" x="1427" y="-90" font-family="FreeSans" font-size="10.00"> ptr_</text>
</g>
<!-- Node21&#45;&gt;Node24 -->
<g id="edge68" class="edge"><title>Node21&#45;&gt;Node24</title>
<path fill="none" stroke="#9a32cd" stroke-dasharray="5,2" d="M1189.5,-71.0927C1199.29,-67.7396 1209.96,-64.4285 1220,-62 1263.77,-51.4147 1313.7,-44.0454 1353.56,-39.26"/>
<polygon fill="#9a32cd" stroke="#9a32cd" points="1188.31,-67.8006 1180.04,-74.4286 1190.64,-74.4018 1188.31,-67.8006"/>
<text text-anchor="middle" x="1278" y="-66" font-family="FreeSans" font-size="10.00"> ptr_</text>
</g>
<!-- Node22 -->
<g id="node52" class="node"><title>Node22</title>
<a xlink:href="class_urho3_d_1_1_unique_ptr.html" target="_top" xlink:title="Urho3D::UniquePtr\&lt;\l pugi::xml_document \&gt;">
<polygon fill="none" stroke="black" points="882,-60 882,-94 1010,-94 1010,-60 882,-60"/>
<text text-anchor="start" x="890" y="-81" font-family="FreeSans" font-size="10.00">Urho3D::UniquePtr&lt;</text>
<text text-anchor="middle" x="946" y="-68" font-family="FreeSans" font-size="10.00"> pugi::xml_document &gt;</text>
</a>
</g>
<!-- Node22&#45;&gt;Node21 -->
<g id="edge62" class="edge"><title>Node22&#45;&gt;Node21</title>
<path fill="none" stroke="#9a32cd" stroke-dasharray="5,2" d="M1020.43,-79.8765C1048.96,-80.9793 1080.71,-82.2061 1105.98,-83.1827"/>
<polygon fill="#9a32cd" stroke="#9a32cd" points="1020.21,-76.3654 1010.08,-79.4765 1019.94,-83.3601 1020.21,-76.3654"/>
<text text-anchor="middle" x="1057" y="-86" font-family="FreeSans" font-size="10.00"> document_</text>
</g>
<!-- Node23 -->
<g id="node54" class="node"><title>Node23</title>
<a xlink:href="class_urho3_d_1_1_x_m_l_element.html" target="_top" xlink:title="Element in an XML file.">
<polygon fill="none" stroke="black" points="1951.5,-0.5 1951.5,-21.5 2070.5,-21.5 2070.5,-0.5 1951.5,-0.5"/>
<text text-anchor="middle" x="2011" y="-8.5" font-family="FreeSans" font-size="10.00">Urho3D::XMLElement</text>
</a>
</g>
<!-- Node23&#45;&gt;Node1 -->
<g id="edge64" class="edge"><title>Node23&#45;&gt;Node1</title>
<path fill="none" stroke="#9a32cd" stroke-dasharray="5,2" d="M2069.33,-24.0661C2100.37,-32.391 2138.52,-44.8696 2170,-62 2199.12,-77.8499 2227.88,-104.534 2242.69,-119.323"/>
<polygon fill="#9a32cd" stroke="#9a32cd" points="2070.08,-20.6443 2059.52,-21.5086 2068.31,-27.418 2070.08,-20.6443"/>
<text text-anchor="middle" x="2137" y="-66" font-family="FreeSans" font-size="10.00"> xmlElement_</text>
</g>
<!-- Node23&#45;&gt;Node23 -->
<g id="edge76" class="edge"><title>Node23&#45;&gt;Node23</title>
<path fill="none" stroke="#9a32cd" stroke-dasharray="5,2" d="M1987.78,-31.4266C1989.57,-36.3489 1997.31,-40 2011,-40 2032.9,-40 2039.58,-30.6531 2031.02,-21.7079"/>
<polygon fill="#9a32cd" stroke="#9a32cd" points="1991.18,-32.3009 1990.98,-21.7079 1984.53,-30.1114 1991.18,-32.3009"/>
<text text-anchor="middle" x="2011" y="-44" font-family="FreeSans" font-size="10.00"> EMPTY</text>
</g>
<!-- Node24&#45;&gt;Node23 -->
<g id="edge66" class="edge"><title>Node24&#45;&gt;Node23</title>
<path fill="none" stroke="#9a32cd" stroke-dasharray="5,2" d="M1510.08,-21.9266C1552.47,-17.2817 1604.91,-12.2967 1652,-10 1757.21,-4.86878 1879.96,-6.94818 1951.25,-8.95415"/>
<polygon fill="#9a32cd" stroke="#9a32cd" points="1509.63,-18.4542 1500.08,-23.0357 1510.41,-25.4115 1509.63,-18.4542"/>
<text text-anchor="middle" x="1718" y="-14" font-family="FreeSans" font-size="10.00"> file_</text>
</g>
<!-- Node25 -->
<g id="node60" class="node"><title>Node25</title>
<a xlink:href="class_urho3_d_1_1_x_path_result_set.html" target="_top" xlink:title="XPath query result set.">
<polygon fill="none" stroke="black" points="1652.5,-32.5 1652.5,-53.5 1783.5,-53.5 1783.5,-32.5 1652.5,-32.5"/>
<text text-anchor="middle" x="1718" y="-40.5" font-family="FreeSans" font-size="10.00">Urho3D::XPathResultSet</text>
</a>
</g>
<!-- Node24&#45;&gt;Node25 -->
<g id="edge74" class="edge"><title>Node24&#45;&gt;Node25</title>
<path fill="none" stroke="#9a32cd" stroke-dasharray="5,2" d="M1510.12,-35.1419C1555.26,-36.8482 1610.27,-38.9279 1652.37,-40.5191"/>
<polygon fill="#9a32cd" stroke="#9a32cd" points="1510.18,-31.6419 1500.06,-34.7616 1509.92,-38.6369 1510.18,-31.6419"/>
<text text-anchor="middle" x="1576" y="-44" font-family="FreeSans" font-size="10.00"> file_</text>
</g>
<!-- Node25&#45;&gt;Node23 -->
<g id="edge72" class="edge"><title>Node25&#45;&gt;Node23</title>
<path fill="none" stroke="#9a32cd" stroke-dasharray="5,2" d="M1793.7,-34.7328C1842.81,-29.3688 1905.9,-22.478 1951.44,-17.5049"/>
<polygon fill="#9a32cd" stroke="#9a32cd" points="1793.32,-31.2535 1783.75,-35.8186 1794.08,-38.2121 1793.32,-31.2535"/>
<text text-anchor="middle" x="1860" y="-38" font-family="FreeSans" font-size="10.00"> xpathResultSet_</text>
</g>
</g>
</svg>
