<?xml version="1.0" encoding="UTF-8" standalone="no"?>
<!DOCTYPE svg PUBLIC "-//W3C//DTD SVG 1.1//EN"
 "http://www.w3.org/Graphics/SVG/1.1/DTD/svg11.dtd">
<!-- Generated by graphviz version 2.36.0 (20140111.2315)
 -->
<!-- Title: Urho3D::TriangleMeshData Pages: 1 -->
<svg width="996pt" height="176pt"
 viewBox="0.00 0.00 996.00 176.00" xmlns="http://www.w3.org/2000/svg" xmlns:xlink="http://www.w3.org/1999/xlink">
<g id="graph0" class="graph" transform="scale(1 1) rotate(0) translate(4 172)">
<title>Urho3D::TriangleMeshData</title>
<!-- Node1 -->
<g id="node1" class="node"><title>Node1</title>
<polygon fill="#bfbfbf" stroke="black" points="852,-74.5 852,-93.5 988,-93.5 988,-74.5 852,-74.5"/>
<text text-anchor="middle" x="920" y="-81.5" font-family="Helvetica,sans-Serif" font-size="10.00">Urho3D::TriangleMeshData</text>
</g>
<!-- Node2 -->
<g id="node2" class="node"><title>Node2</title>
<g id="a_node2"><a xlink:href="struct_urho3_d_1_1_collision_geometry_data.html" target="_top" xlink:title="Base class for collision shape geometry data. ">
<polygon fill="none" stroke="black" points="586,-147.5 586,-166.5 744,-166.5 744,-147.5 586,-147.5"/>
<text text-anchor="middle" x="665" y="-154.5" font-family="Helvetica,sans-Serif" font-size="10.00">Urho3D::CollisionGeometryData</text>
</a>
</g>
</g>
<!-- Node2&#45;&gt;Node1 -->
<g id="edge1" class="edge"><title>Node2&#45;&gt;Node1</title>
<path fill="none" stroke="midnightblue" d="M723.388,-145.373C756.098,-138.24 797.682,-128.315 834,-117 855.763,-110.219 879.938,-100.625 896.924,-93.5287"/>
<polygon fill="midnightblue" stroke="midnightblue" points="722.576,-141.967 713.537,-147.495 724.05,-148.81 722.576,-141.967"/>
</g>
<!-- Node3 -->
<g id="node3" class="node"><title>Node3</title>
<g id="a_node3"><a xlink:href="class_urho3_d_1_1_ref_counted.html" target="_top" xlink:title="Base class for intrusively reference&#45;counted objects. These are noncopyable and non&#45;assignable. ">
<polygon fill="none" stroke="black" points="398.5,-147.5 398.5,-166.5 507.5,-166.5 507.5,-147.5 398.5,-147.5"/>
<text text-anchor="middle" x="453" y="-154.5" font-family="Helvetica,sans-Serif" font-size="10.00">Urho3D::RefCounted</text>
</a>
</g>
</g>
<!-- Node3&#45;&gt;Node2 -->
<g id="edge2" class="edge"><title>Node3&#45;&gt;Node2</title>
<path fill="none" stroke="midnightblue" d="M517.549,-157C539.104,-157 563.436,-157 585.986,-157"/>
<polygon fill="midnightblue" stroke="midnightblue" points="517.535,-153.5 507.535,-157 517.535,-160.5 517.535,-153.5"/>
</g>
<!-- Node4 -->
<g id="node4" class="node"><title>Node4</title>
<g id="a_node4"><a xlink:href="struct_urho3_d_1_1_ref_count.html" target="_top" xlink:title="Reference count structure. ">
<polygon fill="none" stroke="black" points="166,-147.5 166,-166.5 264,-166.5 264,-147.5 166,-147.5"/>
<text text-anchor="middle" x="215" y="-154.5" font-family="Helvetica,sans-Serif" font-size="10.00">Urho3D::RefCount</text>
</a>
</g>
</g>
<!-- Node4&#45;&gt;Node3 -->
<g id="edge3" class="edge"><title>Node4&#45;&gt;Node3</title>
<path fill="none" stroke="#9a32cd" stroke-dasharray="5,2" d="M274.417,-157C312.314,-157 361.327,-157 398.258,-157"/>
<polygon fill="#9a32cd" stroke="#9a32cd" points="274.043,-153.5 264.043,-157 274.043,-160.5 274.043,-153.5"/>
<text text-anchor="middle" x="330" y="-160" font-family="Helvetica,sans-Serif" font-size="10.00"> refCount_</text>
</g>
<!-- Node5 -->
<g id="node5" class="node"><title>Node5</title>
<g id="a_node5"><a xlink:href="class_urho3_d_1_1_unique_ptr.html" target="_top" xlink:title="Urho3D::UniquePtr\&lt;\l TriangleMeshInterface \&gt;">
<polygon fill="none" stroke="black" points="602.5,-98 602.5,-128 727.5,-128 727.5,-98 602.5,-98"/>
<text text-anchor="start" x="610.5" y="-116" font-family="Helvetica,sans-Serif" font-size="10.00">Urho3D::UniquePtr&lt;</text>
<text text-anchor="middle" x="665" y="-105" font-family="Helvetica,sans-Serif" font-size="10.00"> TriangleMeshInterface &gt;</text>
</a>
</g>
</g>
<!-- Node5&#45;&gt;Node1 -->
<g id="edge4" class="edge"><title>Node5&#45;&gt;Node1</title>
<path fill="none" stroke="#9a32cd" stroke-dasharray="5,2" d="M737.939,-104.754C773.722,-100.652 816.709,-95.725 851.818,-91.7008"/>
<polygon fill="#9a32cd" stroke="#9a32cd" points="737.104,-101.327 727.567,-105.943 737.901,-108.281 737.104,-101.327"/>
<text text-anchor="middle" x="798" y="-105" font-family="Helvetica,sans-Serif" font-size="10.00"> meshInterface_</text>
</g>
<!-- Node6 -->
<g id="node6" class="node"><title>Node6</title>
<polygon fill="none" stroke="#bfbfbf" points="376.5,-103.5 376.5,-122.5 529.5,-122.5 529.5,-103.5 376.5,-103.5"/>
<text text-anchor="middle" x="453" y="-110.5" font-family="Helvetica,sans-Serif" font-size="10.00">Urho3D::TriangleMeshInterface</text>
</g>
<!-- Node6&#45;&gt;Node5 -->
<g id="edge5" class="edge"><title>Node6&#45;&gt;Node5</title>
<path fill="none" stroke="#9a32cd" stroke-dasharray="5,2" d="M539.704,-113C560.659,-113 582.675,-113 602.259,-113"/>
<polygon fill="#9a32cd" stroke="#9a32cd" points="539.518,-109.5 529.518,-113 539.518,-116.5 539.518,-109.5"/>
<text text-anchor="middle" x="558" y="-116" font-family="Helvetica,sans-Serif" font-size="10.00"> ptr_</text>
</g>
<!-- Node7 -->
<g id="node7" class="node"><title>Node7</title>
<polygon fill="none" stroke="#bfbfbf" points="147.5,-106.5 147.5,-125.5 282.5,-125.5 282.5,-106.5 147.5,-106.5"/>
<text text-anchor="middle" x="215" y="-113.5" font-family="Helvetica,sans-Serif" font-size="10.00">btTriangleIndexVertexArray</text>
</g>
<!-- Node7&#45;&gt;Node6 -->
<g id="edge6" class="edge"><title>Node7&#45;&gt;Node6</title>
<path fill="none" stroke="midnightblue" d="M292.781,-115.024C319.582,-114.683 349.628,-114.301 376.338,-113.962"/>
<polygon fill="midnightblue" stroke="midnightblue" points="292.636,-111.525 282.682,-115.152 292.726,-118.525 292.636,-111.525"/>
</g>
<!-- Node8 -->
<g id="node8" class="node"><title>Node8</title>
<g id="a_node8"><a xlink:href="class_urho3_d_1_1_vector.html" target="_top" xlink:title="Urho3D::Vector\&lt; Urho3D\l::SharedArrayPtr\&lt; unsigned\l char \&gt; \&gt;">
<polygon fill="none" stroke="black" points="146.5,-46.5 146.5,-87.5 283.5,-87.5 283.5,-46.5 146.5,-46.5"/>
<text text-anchor="start" x="154.5" y="-75.5" font-family="Helvetica,sans-Serif" font-size="10.00">Urho3D::Vector&lt; Urho3D</text>
<text text-anchor="start" x="154.5" y="-64.5" font-family="Helvetica,sans-Serif" font-size="10.00">::SharedArrayPtr&lt; unsigned</text>
<text text-anchor="middle" x="215" y="-53.5" font-family="Helvetica,sans-Serif" font-size="10.00"> char &gt; &gt;</text>
</a>
</g>
</g>
<!-- Node8&#45;&gt;Node6 -->
<g id="edge7" class="edge"><title>Node8&#45;&gt;Node6</title>
<path fill="none" stroke="#9a32cd" stroke-dasharray="5,2" d="M293.639,-82.133C329.716,-89.165 371.516,-97.3125 403.11,-103.471"/>
<polygon fill="#9a32cd" stroke="#9a32cd" points="294.113,-78.6596 283.628,-80.1818 292.774,-85.5303 294.113,-78.6596"/>
<text text-anchor="middle" x="330" y="-98" font-family="Helvetica,sans-Serif" font-size="10.00"> dataArrays_</text>
</g>
<!-- Node9 -->
<g id="node9" class="node"><title>Node9</title>
<g id="a_node9"><a xlink:href="class_urho3_d_1_1_vector_base.html" target="_top" xlink:title="Vector base class. ">
<polygon fill="none" stroke="black" points="0.5,-57.5 0.5,-76.5 107.5,-76.5 107.5,-57.5 0.5,-57.5"/>
<text text-anchor="middle" x="54" y="-64.5" font-family="Helvetica,sans-Serif" font-size="10.00">Urho3D::VectorBase</text>
</a>
</g>
</g>
<!-- Node9&#45;&gt;Node8 -->
<g id="edge8" class="edge"><title>Node9&#45;&gt;Node8</title>
<path fill="none" stroke="midnightblue" d="M117.562,-67C126.977,-67 136.724,-67 146.241,-67"/>
<polygon fill="midnightblue" stroke="midnightblue" points="117.503,-63.5001 107.503,-67 117.503,-70.5001 117.503,-63.5001"/>
</g>
<!-- Node10 -->
<g id="node10" class="node"><title>Node10</title>
<g id="a_node10"><a xlink:href="class_urho3_d_1_1_unique_ptr.html" target="_top" xlink:title="Urho3D::UniquePtr\&lt;\l btTriangleInfoMap \&gt;">
<polygon fill="none" stroke="black" points="611.5,-49 611.5,-79 718.5,-79 718.5,-49 611.5,-49"/>
<text text-anchor="start" x="619.5" y="-67" font-family="Helvetica,sans-Serif" font-size="10.00">Urho3D::UniquePtr&lt;</text>
<text text-anchor="middle" x="665" y="-56" font-family="Helvetica,sans-Serif" font-size="10.00"> btTriangleInfoMap &gt;</text>
</a>
</g>
</g>
<!-- Node10&#45;&gt;Node1 -->
<g id="edge9" class="edge"><title>Node10&#45;&gt;Node1</title>
<path fill="none" stroke="#9a32cd" stroke-dasharray="5,2" d="M728.677,-65.6051C760.307,-66.7652 799.243,-68.7261 834,-72 841.27,-72.6848 848.872,-73.5471 856.411,-74.4939"/>
<polygon fill="#9a32cd" stroke="#9a32cd" points="728.794,-62.1072 718.678,-65.2559 728.55,-69.1029 728.794,-62.1072"/>
<text text-anchor="middle" x="798" y="-75" font-family="Helvetica,sans-Serif" font-size="10.00"> infoMap_</text>
</g>
<!-- Node11 -->
<g id="node11" class="node"><title>Node11</title>
<g id="a_node11"><a xlink:href="class_urho3_d_1_1_unique_ptr.html" target="_top" xlink:title="Urho3D::UniquePtr\&lt;\l btBvhTriangleMeshShape \&gt;">
<polygon fill="none" stroke="black" points="595,-0 595,-30 735,-30 735,-0 595,-0"/>
<text text-anchor="start" x="603" y="-18" font-family="Helvetica,sans-Serif" font-size="10.00">Urho3D::UniquePtr&lt;</text>
<text text-anchor="middle" x="665" y="-7" font-family="Helvetica,sans-Serif" font-size="10.00"> btBvhTriangleMeshShape &gt;</text>
</a>
</g>
</g>
<!-- Node11&#45;&gt;Node1 -->
<g id="edge10" class="edge"><title>Node11&#45;&gt;Node1</title>
<path fill="none" stroke="#9a32cd" stroke-dasharray="5,2" d="M745.005,-30.6994C773.282,-36.8884 805.258,-44.5456 834,-53 855.097,-59.2057 878.54,-67.8952 895.454,-74.4958"/>
<polygon fill="#9a32cd" stroke="#9a32cd" points="745.683,-27.2652 735.169,-28.5726 744.203,-34.107 745.683,-27.2652"/>
<text text-anchor="middle" x="798" y="-56" font-family="Helvetica,sans-Serif" font-size="10.00"> shape_</text>
</g>
</g>
</svg>
