<?xml version="1.0" encoding="UTF-8" standalone="no"?>
<!DOCTYPE svg PUBLIC "-//W3C//DTD SVG 1.1//EN"
 "http://www.w3.org/Graphics/SVG/1.1/DTD/svg11.dtd">
<!-- Generated by graphviz version 2.36.0 (20140111.2315)
 -->
<!-- Title: Urho3D::RenderPathCommand Pages: 1 -->
<!--zoomable 425 -->
<svg id="main" version="1.1" xmlns="http://www.w3.org/2000/svg" xmlns:xlink="http://www.w3.org/1999/xlink" xml:space="preserve" onload="init(evt)">
<style type="text/css"><![CDATA[
.edge:hover path { stroke: red; }
.edge:hover polygon { stroke: red; fill: red; }
]]></style>
<script type="text/javascript"><![CDATA[
var edges = document.getElementsByTagName('g');
if (edges && edges.length) {
  for (var i=0;i<edges.length;i++) {
    if (edges[i].id.substr(0,4)=='edge') {
      edges[i].setAttribute('class','edge');
    }
  }
}
]]></script>
        <defs>
                <circle id="rim" cx="0" cy="0" r="7"/>
                <circle id="rim2" cx="0" cy="0" r="3.5"/>
                <g id="zoomPlus">
                        <use xlink:href="#rim" fill="#404040">
                                <set attributeName="fill" to="#808080" begin="zoomplus.mouseover" end="zoomplus.mouseout"/>
                        </use>
                        <path d="M-4,0h8M0,-4v8" fill="none" stroke="white" stroke-width="1.5" pointer-events="none"/>
                </g>
                <g id="zoomMin">
                        <use xlink:href="#rim" fill="#404040">
                                <set attributeName="fill" to="#808080" begin="zoomminus.mouseover" end="zoomminus.mouseout"/>
                        </use>
                        <path d="M-4,0h8" fill="none" stroke="white" stroke-width="1.5" pointer-events="none"/>
                </g>
                <g id="dirArrow">
                        <path fill="none" stroke="white" stroke-width="1.5" d="M0,-3.0v7 M-2.5,-0.5L0,-3.0L2.5,-0.5"/>
                </g>
               <g id="resetDef">
                       <use xlink:href="#rim2" fill="#404040">
                               <set attributeName="fill" to="#808080" begin="reset.mouseover" end="reset.mouseout"/>
                       </use>
               </g>
        </defs>

<script type="text/javascript">
var viewWidth = 1028;
var viewHeight = 425;
var sectionId = 'dynsection-0';
</script>
<script xlink:href="svgpan.js"/>
<svg id="graph" class="graph">
<g id="viewport">
<title>Urho3D::RenderPathCommand</title>
<!-- Node1 -->
<g id="node1" class="node"><title>Node1</title>
<polygon fill="#bfbfbf" stroke="black" points="856,-221.5 856,-240.5 1020,-240.5 1020,-221.5 856,-221.5"/>
<text text-anchor="middle" x="938" y="-228.5" font-family="FreeSans" font-size="10.00">Urho3D::RenderPathCommand</text>
</g>
<!-- Node2 -->
<g id="node2" class="node"><title>Node2</title>
<g id="a_node2"><a xlink:href="class_urho3_d_1_1_vector.html" target="_top" xlink:title="Urho3D::Vector\&lt; Urho3D\l::Pair\&lt; Urho3D::String,\l CubeMapFace \&gt; \&gt;">
<polygon fill="none" stroke="black" points="571,-353.5 571,-394.5 709,-394.5 709,-353.5 571,-353.5"/>
<text text-anchor="start" x="579" y="-382.5" font-family="FreeSans" font-size="10.00">Urho3D::Vector&lt; Urho3D</text>
<text text-anchor="start" x="579" y="-371.5" font-family="FreeSans" font-size="10.00">::Pair&lt; Urho3D::String,</text>
<text text-anchor="middle" x="640" y="-360.5" font-family="FreeSans" font-size="10.00"> CubeMapFace &gt; &gt;</text>
</a>
</g>
</g>
<!-- Node2&#45;&gt;Node1 -->
<g id="edge1" class="edge"><title>Node2&#45;&gt;Node1</title>
<path fill="none" stroke="#9a32cd" stroke-dasharray="5,2" d="M719.028,-366.855C756.758,-360.9 801.633,-349.989 838,-330 879.963,-306.935 915.968,-260.743 930.335,-240.676"/>
<polygon fill="#9a32cd" stroke="#9a32cd" points="718.47,-363.399 709.095,-368.335 719.502,-370.322 718.47,-363.399"/>
<text text-anchor="middle" x="786" y="-367" font-family="FreeSans" font-size="10.00"> outputs_</text>
</g>
<!-- Node3 -->
<g id="node3" class="node"><title>Node3</title>
<g id="a_node3"><a xlink:href="class_urho3_d_1_1_vector_base.html" target="_top" xlink:title="Vector base class. ">
<polygon fill="none" stroke="black" points="412,-364.5 412,-383.5 526,-383.5 526,-364.5 412,-364.5"/>
<text text-anchor="middle" x="469" y="-371.5" font-family="FreeSans" font-size="10.00">Urho3D::VectorBase</text>
</a>
</g>
</g>
<!-- Node3&#45;&gt;Node2 -->
<g id="edge2" class="edge"><title>Node3&#45;&gt;Node2</title>
<path fill="none" stroke="midnightblue" d="M536.51,-374C547.821,-374 559.583,-374 570.933,-374"/>
<polygon fill="midnightblue" stroke="midnightblue" points="536.275,-370.5 526.275,-374 536.275,-377.5 536.275,-370.5"/>
</g>
<!-- Node4 -->
<g id="node4" class="node"><title>Node4</title>
<g id="a_node4"><a xlink:href="class_urho3_d_1_1_hash_map.html" target="_top" xlink:title="Urho3D::HashMap\&lt; Urho3D\l::StringHash, Urho3D::\lVariant \&gt;">
<polygon fill="none" stroke="black" points="564,-293.5 564,-334.5 716,-334.5 716,-293.5 564,-293.5"/>
<text text-anchor="start" x="572" y="-322.5" font-family="FreeSans" font-size="10.00">Urho3D::HashMap&lt; Urho3D</text>
<text text-anchor="start" x="572" y="-311.5" font-family="FreeSans" font-size="10.00">::StringHash, Urho3D::</text>
<text text-anchor="middle" x="640" y="-300.5" font-family="FreeSans" font-size="10.00">Variant &gt;</text>
</a>
</g>
</g>
<!-- Node4&#45;&gt;Node1 -->
<g id="edge3" class="edge"><title>Node4&#45;&gt;Node1</title>
<path fill="none" stroke="#9a32cd" stroke-dasharray="5,2" d="M726.597,-316.491C761.94,-315.124 802.79,-310.376 838,-298 874.222,-285.268 909.793,-255.948 926.737,-240.664"/>
<polygon fill="#9a32cd" stroke="#9a32cd" points="726.192,-313.002 716.302,-316.802 726.403,-319.999 726.192,-313.002"/>
<text text-anchor="middle" x="786" y="-318" font-family="FreeSans" font-size="10.00"> shaderParameters_</text>
</g>
<!-- Node5 -->
<g id="node5" class="node"><title>Node5</title>
<g id="a_node5"><a xlink:href="class_urho3_d_1_1_hash_base.html" target="_top" xlink:title="Hash set/map base class. ">
<polygon fill="none" stroke="black" points="415,-304.5 415,-323.5 523,-323.5 523,-304.5 415,-304.5"/>
<text text-anchor="middle" x="469" y="-311.5" font-family="FreeSans" font-size="10.00">Urho3D::HashBase</text>
</a>
</g>
</g>
<!-- Node5&#45;&gt;Node4 -->
<g id="edge4" class="edge"><title>Node5&#45;&gt;Node4</title>
<path fill="none" stroke="midnightblue" d="M533.246,-314C543.242,-314 553.662,-314 563.896,-314"/>
<polygon fill="midnightblue" stroke="midnightblue" points="533.009,-310.5 523.009,-314 533.009,-317.5 533.009,-310.5"/>
</g>
<!-- Node6 -->
<g id="node6" class="node"><title>Node6</title>
<g id="a_node6"><a xlink:href="struct_urho3_d_1_1_hash_node_base.html" target="_top" xlink:title="Hash set/map node base class. ">
<polygon fill="none" stroke="black" points="192,-346.5 192,-365.5 326,-365.5 326,-346.5 192,-346.5"/>
<text text-anchor="middle" x="259" y="-353.5" font-family="FreeSans" font-size="10.00">Urho3D::HashNodeBase</text>
</a>
</g>
</g>
<!-- Node6&#45;&gt;Node5 -->
<g id="edge5" class="edge"><title>Node6&#45;&gt;Node5</title>
<path fill="none" stroke="#9a32cd" stroke-dasharray="5,2" d="M317.026,-344.485C349.558,-337.916 389.853,-329.78 420.629,-323.565"/>
<polygon fill="#9a32cd" stroke="#9a32cd" points="316.308,-341.059 307.198,-346.47 317.693,-347.921 316.308,-341.059"/>
<text text-anchor="middle" x="369" y="-363" font-family="FreeSans" font-size="10.00"> ptrs_</text>
<text text-anchor="middle" x="369" y="-352" font-family="FreeSans" font-size="10.00">tail_</text>
<text text-anchor="middle" x="369" y="-341" font-family="FreeSans" font-size="10.00">head_</text>
</g>
<!-- Node6&#45;&gt;Node6 -->
<g id="edge6" class="edge"><title>Node6&#45;&gt;Node6</title>
<path fill="none" stroke="#9a32cd" stroke-dasharray="5,2" d="M240.853,-375.4C242.065,-380.315 248.114,-384 259,-384 276.418,-384 281.453,-374.565 274.105,-365.757"/>
<polygon fill="#9a32cd" stroke="#9a32cd" points="244.224,-376.347 243.895,-365.757 237.548,-374.24 244.224,-376.347"/>
<text text-anchor="middle" x="259" y="-409" font-family="FreeSans" font-size="10.00"> next_</text>
<text text-anchor="middle" x="259" y="-398" font-family="FreeSans" font-size="10.00">prev_</text>
<text text-anchor="middle" x="259" y="-387" font-family="FreeSans" font-size="10.00">down_</text>
</g>
<!-- Node7 -->
<g id="node7" class="node"><title>Node7</title>
<g id="a_node7"><a xlink:href="struct_urho3_d_1_1_allocator_block.html" target="_top" xlink:title="Allocator memory block. ">
<polygon fill="none" stroke="black" points="195.5,-279.5 195.5,-298.5 322.5,-298.5 322.5,-279.5 195.5,-279.5"/>
<text text-anchor="middle" x="259" y="-286.5" font-family="FreeSans" font-size="10.00">Urho3D::AllocatorBlock</text>
</a>
</g>
</g>
<!-- Node7&#45;&gt;Node5 -->
<g id="edge7" class="edge"><title>Node7&#45;&gt;Node5</title>
<path fill="none" stroke="#9a32cd" stroke-dasharray="5,2" d="M332.875,-297.759C359.891,-301.006 389.993,-304.624 414.917,-307.62"/>
<polygon fill="#9a32cd" stroke="#9a32cd" points="333.035,-294.253 322.689,-296.535 332.2,-301.203 333.035,-294.253"/>
<text text-anchor="middle" x="369" y="-307" font-family="FreeSans" font-size="10.00"> allocator_</text>
</g>
<!-- Node7&#45;&gt;Node7 -->
<g id="edge8" class="edge"><title>Node7&#45;&gt;Node7</title>
<path fill="none" stroke="#9a32cd" stroke-dasharray="5,2" d="M240.853,-308.4C242.065,-313.315 248.114,-317 259,-317 276.418,-317 281.453,-307.565 274.105,-298.757"/>
<polygon fill="#9a32cd" stroke="#9a32cd" points="244.224,-309.347 243.895,-298.757 237.548,-307.24 244.224,-309.347"/>
<text text-anchor="middle" x="259" y="-320" font-family="FreeSans" font-size="10.00"> next_</text>
</g>
<!-- Node8 -->
<g id="node8" class="node"><title>Node8</title>
<g id="a_node8"><a xlink:href="struct_urho3_d_1_1_allocator_node.html" target="_top" xlink:title="Allocator node. ">
<polygon fill="none" stroke="black" points="0.5,-279.5 0.5,-298.5 127.5,-298.5 127.5,-279.5 0.5,-279.5"/>
<text text-anchor="middle" x="64" y="-286.5" font-family="FreeSans" font-size="10.00">Urho3D::AllocatorNode</text>
</a>
</g>
</g>
<!-- Node8&#45;&gt;Node7 -->
<g id="edge9" class="edge"><title>Node8&#45;&gt;Node7</title>
<path fill="none" stroke="#9a32cd" stroke-dasharray="5,2" d="M137.735,-289C156.686,-289 176.942,-289 195.323,-289"/>
<polygon fill="#9a32cd" stroke="#9a32cd" points="137.662,-285.5 127.662,-289 137.662,-292.5 137.662,-285.5"/>
<text text-anchor="middle" x="160" y="-292" font-family="FreeSans" font-size="10.00"> free_</text>
</g>
<!-- Node8&#45;&gt;Node8 -->
<g id="edge10" class="edge"><title>Node8&#45;&gt;Node8</title>
<path fill="none" stroke="#9a32cd" stroke-dasharray="5,2" d="M46.2231,-308.4C47.4103,-313.315 53.3359,-317 64,-317 81.0625,-317 85.9946,-307.565 78.7964,-298.757"/>
<polygon fill="#9a32cd" stroke="#9a32cd" points="49.5944,-309.345 49.2036,-298.757 42.9066,-307.278 49.5944,-309.345"/>
<text text-anchor="middle" x="64" y="-320" font-family="FreeSans" font-size="10.00"> next_</text>
</g>
<!-- Node9 -->
<g id="node9" class="node"><title>Node9</title>
<g id="a_node9"><a xlink:href="class_urho3_d_1_1_string.html" target="_top" xlink:title="String class. ">
<polygon fill="none" stroke="black" points="596,-177.5 596,-196.5 684,-196.5 684,-177.5 596,-177.5"/>
<text text-anchor="middle" x="640" y="-184.5" font-family="FreeSans" font-size="10.00">Urho3D::String</text>
</a>
</g>
</g>
<!-- Node9&#45;&gt;Node1 -->
<g id="edge11" class="edge"><title>Node9&#45;&gt;Node1</title>
<path fill="none" stroke="#9a32cd" stroke-dasharray="5,2" d="M694.144,-178.377C701.85,-175.779 709.398,-172.399 716,-168 727.096,-160.607 722.074,-149.963 734,-144 775.342,-123.329 794.749,-127.696 838,-144 879.75,-159.738 915.338,-201.979 929.927,-221.216"/>
<polygon fill="#9a32cd" stroke="#9a32cd" points="692.957,-175.078 684.358,-181.267 694.94,-181.791 692.957,-175.078"/>
<text text-anchor="middle" x="786" y="-290" font-family="FreeSans" font-size="10.00"> vertexShaderName_</text>
<text text-anchor="middle" x="786" y="-279" font-family="FreeSans" font-size="10.00">depthStencilName_</text>
<text text-anchor="middle" x="786" y="-268" font-family="FreeSans" font-size="10.00">textureNames_</text>
<text text-anchor="middle" x="786" y="-257" font-family="FreeSans" font-size="10.00">tag_</text>
<text text-anchor="middle" x="786" y="-246" font-family="FreeSans" font-size="10.00">pass_</text>
<text text-anchor="start" x="734.5" y="-235" font-family="FreeSans" font-size="10.00">pixelShaderName</text>
<text text-anchor="middle" x="786" y="-224" font-family="FreeSans" font-size="10.00">_</text>
<text text-anchor="middle" x="786" y="-213" font-family="FreeSans" font-size="10.00">eventName_</text>
<text text-anchor="start" x="734.5" y="-202" font-family="FreeSans" font-size="10.00">vertexShaderDefines</text>
<text text-anchor="middle" x="786" y="-191" font-family="FreeSans" font-size="10.00">_</text>
<text text-anchor="middle" x="786" y="-180" font-family="FreeSans" font-size="10.00">metadata_</text>
<text text-anchor="start" x="734.5" y="-169" font-family="FreeSans" font-size="10.00">pixelShaderDefines</text>
<text text-anchor="middle" x="786" y="-158" font-family="FreeSans" font-size="10.00">_</text>
<text text-anchor="middle" x="786" y="-147" font-family="FreeSans" font-size="10.00">...</text>
</g>
<!-- Node9&#45;&gt;Node9 -->
<g id="edge12" class="edge"><title>Node9&#45;&gt;Node9</title>
<path fill="none" stroke="#9a32cd" stroke-dasharray="5,2" d="M622.593,-206.4C623.756,-211.315 629.558,-215 640,-215 656.707,-215 661.536,-205.565 654.488,-196.757"/>
<polygon fill="#9a32cd" stroke="#9a32cd" points="625.965,-207.342 625.512,-196.757 619.265,-205.314 625.965,-207.342"/>
<text text-anchor="middle" x="640" y="-218" font-family="FreeSans" font-size="10.00"> EMPTY</text>
</g>
<!-- Node10 -->
<g id="node10" class="node"><title>Node10</title>
<g id="a_node10"><a xlink:href="class_urho3_d_1_1_color.html" target="_top" xlink:title="RGBA color. ">
<polygon fill="none" stroke="black" points="598,-0.5 598,-19.5 682,-19.5 682,-0.5 598,-0.5"/>
<text text-anchor="middle" x="640" y="-7.5" font-family="FreeSans" font-size="10.00">Urho3D::Color</text>
</a>
</g>
</g>
<!-- Node10&#45;&gt;Node1 -->
<g id="edge13" class="edge"><title>Node10&#45;&gt;Node1</title>
<path fill="none" stroke="#9a32cd" stroke-dasharray="5,2" d="M674.415,-23.4575C715.499,-40.9771 786.145,-74.3381 838,-116 878.869,-148.835 916.021,-200.112 930.54,-221.319"/>
<polygon fill="#9a32cd" stroke="#9a32cd" points="675.704,-20.2026 665.129,-19.5532 672.991,-26.6555 675.704,-20.2026"/>
<text text-anchor="middle" x="786" y="-119" font-family="FreeSans" font-size="10.00"> clearColor_</text>
</g>
<!-- Node10&#45;&gt;Node10 -->
<g id="edge14" class="edge"><title>Node10&#45;&gt;Node10</title>
<path fill="none" stroke="#9a32cd" stroke-dasharray="5,2" d="M622.593,-29.4C623.756,-34.3146 629.558,-38 640,-38 656.707,-38 661.536,-28.5653 654.488,-19.7571"/>
<polygon fill="#9a32cd" stroke="#9a32cd" points="625.965,-30.3422 625.512,-19.7571 619.265,-28.3144 625.965,-30.3422"/>
<text text-anchor="middle" x="640" y="-151" font-family="FreeSans" font-size="10.00"> CYAN</text>
<text text-anchor="middle" x="640" y="-140" font-family="FreeSans" font-size="10.00">GRAY</text>
<text text-anchor="middle" x="640" y="-129" font-family="FreeSans" font-size="10.00">YELLOW</text>
<text text-anchor="middle" x="640" y="-118" font-family="FreeSans" font-size="10.00">MAGENTA</text>
<text text-anchor="middle" x="640" y="-107" font-family="FreeSans" font-size="10.00">WHITE</text>
<text text-anchor="middle" x="640" y="-96" font-family="FreeSans" font-size="10.00">TRANSPARENT</text>
<text text-anchor="middle" x="640" y="-85" font-family="FreeSans" font-size="10.00">BLUE</text>
<text text-anchor="middle" x="640" y="-74" font-family="FreeSans" font-size="10.00">BLACK</text>
<text text-anchor="middle" x="640" y="-63" font-family="FreeSans" font-size="10.00">RED</text>
<text text-anchor="middle" x="640" y="-52" font-family="FreeSans" font-size="10.00">GREEN</text>
<text text-anchor="middle" x="640" y="-41" font-family="FreeSans" font-size="10.00">...</text>
</g>
</g>
</svg>
        <g id="navigator" transform="translate(0 0)" fill="#404254">
                <rect fill="#f2f5e9" fill-opacity="0.5" stroke="#606060" stroke-width=".5" x="0" y="0" width="60" height="60"/>
                <use id="zoomplus" xlink:href="#zoomPlus" x="17" y="9" onmousedown="handleZoom(evt,'in')"/>
                <use id="zoomminus" xlink:href="#zoomMin" x="42" y="9" onmousedown="handleZoom(evt,'out')"/>
                <use id="reset" xlink:href="#resetDef" x="30" y="36" onmousedown="handleReset()"/>
                <g id="arrowUp" xlink:href="#dirArrow" transform="translate(30 24)" onmousedown="handlePan(0,-1)">
                  <use xlink:href="#rim" fill="#404040">
                        <set attributeName="fill" to="#808080" begin="arrowUp.mouseover" end="arrowUp.mouseout"/>
                  </use>
                  <path fill="none" stroke="white" stroke-width="1.5" d="M0,-3.0v7 M-2.5,-0.5L0,-3.0L2.5,-0.5"/>
                </g>
                <g id="arrowRight" xlink:href="#dirArrow" transform="rotate(90) translate(36 -43)" onmousedown="handlePan(1,0)">
                  <use xlink:href="#rim" fill="#404040">
                        <set attributeName="fill" to="#808080" begin="arrowRight.mouseover" end="arrowRight.mouseout"/>
                  </use>
                  <path fill="none" stroke="white" stroke-width="1.5" d="M0,-3.0v7 M-2.5,-0.5L0,-3.0L2.5,-0.5"/>
                </g>
                <g id="arrowDown" xlink:href="#dirArrow" transform="rotate(180) translate(-30 -48)" onmousedown="handlePan(0,1)">
                  <use xlink:href="#rim" fill="#404040">
                        <set attributeName="fill" to="#808080" begin="arrowDown.mouseover" end="arrowDown.mouseout"/>
                  </use>
                  <path fill="none" stroke="white" stroke-width="1.5" d="M0,-3.0v7 M-2.5,-0.5L0,-3.0L2.5,-0.5"/>
                </g>
                <g id="arrowLeft" xlink:href="#dirArrow" transform="rotate(270) translate(-36 17)" onmousedown="handlePan(-1,0)">
                  <use xlink:href="#rim" fill="#404040">
                        <set attributeName="fill" to="#808080" begin="arrowLeft.mouseover" end="arrowLeft.mouseout"/>
                  </use>
                  <path fill="none" stroke="white" stroke-width="1.5" d="M0,-3.0v7 M-2.5,-0.5L0,-3.0L2.5,-0.5"/>
                </g>
        </g>
        <svg viewBox="0 0 15 15" width="100%" height="30px" preserveAspectRatio="xMaxYMin meet">
         <g id="arrow_out" transform="scale(0.3 0.3)">
          <a xlink:href="struct_urho3_d_1_1_render_path_command__coll__graph_org.svg" target="_base">
           <rect id="button" ry="5" rx="5" y="6" x="6" height="38" width="38"
                fill="#f2f5e9" fill-opacity="0.5" stroke="#606060" stroke-width="1.0"/>
           <path id="arrow"
             d="M 11.500037,31.436501 C 11.940474,20.09759 22.043105,11.32322 32.158766,21.979434 L 37.068811,17.246167 C 37.068811,17.246167 37.088388,32 37.088388,32 L 22.160133,31.978069 C 22.160133,31.978069 26.997745,27.140456 26.997745,27.140456 C 18.528582,18.264221 13.291696,25.230495 11.500037,31.436501 z"
             style="fill:#404040;"/>
          </a>
         </g>
        </svg>
</svg>
