<?xml version="1.0" encoding="UTF-8" standalone="no"?>
<!DOCTYPE svg PUBLIC "-//W3C//DTD SVG 1.1//EN"
 "http://www.w3.org/Graphics/SVG/1.1/DTD/svg11.dtd">
<!-- Generated by graphviz version 2.26.3 (20100126.1600)
 -->
<!-- Title: Urho3D::PackageDownload Pages: 1 -->
<!--zoomable 840 -->
<svg id="main" version="1.1" xmlns="http://www.w3.org/2000/svg" xmlns:xlink="http://www.w3.org/1999/xlink" xml:space="preserve" onload="init(evt)">
        <defs>
                <circle id="rim" cx="0" cy="0" r="7"/>
                <circle id="rim2" cx="0" cy="0" r="3.5"/>
                <g id="zoomPlus">
                        <use xlink:href="#rim" fill="#404040">
                                <set attributeName="fill" to="#808080" begin="zoomplus.mouseover" end="zoomplus.mouseout"/>
                        </use>
                        <path d="M-4,0h8M0,-4v8" fill="none" stroke="white" stroke-width="1.5" pointer-events="none"/>
                </g>
                <g id="zoomMin">
                        <use xlink:href="#rim" fill="#404040">
                                <set attributeName="fill" to="#808080" begin="zoomminus.mouseover" end="zoomminus.mouseout"/>
                        </use>
                        <path d="M-4,0h8" fill="none" stroke="white" stroke-width="1.5" pointer-events="none"/>
                </g>
                <g id="dirArrow">
                        <path fill="none" stroke="white" stroke-width="1.5" d="M0,-3.0v7 M-2.5,-0.5L0,-3.0L2.5,-0.5"/>
                </g>
               <g id="resetDef">
                       <use xlink:href="#rim2" fill="#404040">
                               <set attributeName="fill" to="#808080" begin="reset.mouseover" end="reset.mouseout"/>
                       </use>
               </g>
        </defs>

<script type="text/javascript">
var viewWidth = 1490;
var viewHeight = 840;
var sectionId = 'dynsection-0';
</script>
<script xlink:href="svgpan.js"/>
<svg id="graph" class="graph">
<g id="viewport">
<title>Urho3D::PackageDownload</title>
<!-- Node1 -->
<g id="node1" class="node"><title>Node1</title>
<polygon fill="#bfbfbf" stroke="black" points="1336,-696.097 1336,-717.097 1482,-717.097 1482,-696.097 1336,-696.097"/>
<text text-anchor="middle" x="1409" y="-704.097" font-family="FreeSans" font-size="10.00">Urho3D::PackageDownload</text>
</g>
<!-- Node2 -->
<g id="node2" class="node"><title>Node2</title>
<a xlink:href="class_urho3_d_1_1_shared_ptr.html" target="_top" xlink:title="Urho3D::SharedPtr\&lt;\l Urho3D::File \&gt;">
<polygon fill="none" stroke="black" points="1147,-689.597 1147,-723.597 1263,-723.597 1263,-689.597 1147,-689.597"/>
<text text-anchor="start" x="1155" y="-710.597" font-family="FreeSans" font-size="10.00">Urho3D::SharedPtr&lt;</text>
<text text-anchor="middle" x="1205" y="-697.597" font-family="FreeSans" font-size="10.00"> Urho3D::File &gt;</text>
</a>
</g>
<!-- Node2&#45;&gt;Node1 -->
<g id="edge2" class="edge"><title>Node2&#45;&gt;Node1</title>
<path fill="none" stroke="#9a32cd" stroke-dasharray="5,2" d="M1273.19,-706.597C1293.31,-706.597 1315.4,-706.597 1335.82,-706.597"/>
<polygon fill="#9a32cd" stroke="#9a32cd" points="1273.19,-703.097 1263.19,-706.597 1273.19,-710.097 1273.19,-703.097"/>
<text text-anchor="middle" x="1307" y="-710.597" font-family="FreeSans" font-size="10.00"> file_</text>
</g>
<!-- Node3 -->
<g id="node4" class="node"><title>Node3</title>
<a xlink:href="class_urho3_d_1_1_file.html" target="_top" xlink:title="File opened either through the filesystem or from within a package file.">
<polygon fill="none" stroke="black" points="788,-696.097 788,-717.097 862,-717.097 862,-696.097 788,-696.097"/>
<text text-anchor="middle" x="825" y="-704.097" font-family="FreeSans" font-size="10.00">Urho3D::File</text>
</a>
</g>
<!-- Node3&#45;&gt;Node2 -->
<g id="edge4" class="edge"><title>Node3&#45;&gt;Node2</title>
<path fill="none" stroke="#9a32cd" stroke-dasharray="5,2" d="M872.345,-706.597C941.876,-706.597 1071.49,-706.597 1146.75,-706.597"/>
<polygon fill="#9a32cd" stroke="#9a32cd" points="872.128,-703.097 862.128,-706.597 872.128,-710.097 872.128,-703.097"/>
<text text-anchor="middle" x="1030" y="-710.597" font-family="FreeSans" font-size="10.00"> ptr_</text>
</g>
<!-- Node4 -->
<g id="node6" class="node"><title>Node4</title>
<a xlink:href="class_urho3_d_1_1_object.html" target="_top" xlink:title="Base class for objects with type identification, subsystem access and event sending/receiving capabil...">
<polygon fill="none" stroke="black" points="531,-576.097 531,-597.097 621,-597.097 621,-576.097 531,-576.097"/>
<text text-anchor="middle" x="576" y="-584.097" font-family="FreeSans" font-size="10.00">Urho3D::Object</text>
</a>
</g>
<!-- Node4&#45;&gt;Node3 -->
<g id="edge6" class="edge"><title>Node4&#45;&gt;Node3</title>
<path fill="none" stroke="midnightblue" d="M603.711,-602.118C618.013,-609.983 635.813,-619.546 652,-627.597 704.179,-653.55 766.643,-681.268 800.407,-695.981"/>
<polygon fill="midnightblue" stroke="midnightblue" points="605.314,-599.005 594.869,-597.228 601.926,-605.131 605.314,-599.005"/>
</g>
<!-- Node14 -->
<g id="node30" class="node"><title>Node14</title>
<a xlink:href="class_urho3_d_1_1_event_handler.html" target="_top" xlink:title="Internal helper class for invoking event handler functions.">
<polygon fill="none" stroke="red" points="763,-561.097 763,-582.097 887,-582.097 887,-561.097 763,-561.097"/>
<text text-anchor="middle" x="825" y="-569.097" font-family="FreeSans" font-size="10.00">Urho3D::EventHandler</text>
</a>
</g>
<!-- Node4&#45;&gt;Node14 -->
<g id="edge36" class="edge"><title>Node4&#45;&gt;Node14</title>
<path fill="none" stroke="#9a32cd" stroke-dasharray="5,2" d="M631.389,-578.642C638.318,-577.844 645.315,-577.132 652,-576.597 688.691,-573.66 729.88,-572.389 762.862,-571.862"/>
<polygon fill="#9a32cd" stroke="#9a32cd" points="630.837,-575.183 621.332,-579.863 631.681,-582.132 630.837,-575.183"/>
<text text-anchor="middle" x="678" y="-593.597" font-family="FreeSans" font-size="10.00"> sender_</text>
<text text-anchor="middle" x="678" y="-580.597" font-family="FreeSans" font-size="10.00">receiver_</text>
</g>
<!-- Node5 -->
<g id="node8" class="node"><title>Node5</title>
<a xlink:href="class_urho3_d_1_1_ref_counted.html" target="_top" xlink:title="Base class for intrusively reference&#45;counted objects. These are noncopyable and non&#45;assignable.">
<polygon fill="none" stroke="black" points="224,-576.097 224,-597.097 338,-597.097 338,-576.097 224,-576.097"/>
<text text-anchor="middle" x="281" y="-584.097" font-family="FreeSans" font-size="10.00">Urho3D::RefCounted</text>
</a>
</g>
<!-- Node5&#45;&gt;Node4 -->
<g id="edge8" class="edge"><title>Node5&#45;&gt;Node4</title>
<path fill="none" stroke="midnightblue" d="M348.406,-586.597C404.351,-586.597 482.36,-586.597 530.985,-586.597"/>
<polygon fill="midnightblue" stroke="midnightblue" points="348.229,-583.097 338.229,-586.597 348.229,-590.097 348.229,-583.097"/>
</g>
<!-- Node7 -->
<g id="node12" class="node"><title>Node7</title>
<a xlink:href="class_urho3_d_1_1_context.html" target="_top" xlink:title="Urho3D execution context. Provides access to subsystems, object factories and attributes, and event receivers.">
<polygon fill="none" stroke="red" points="1156.5,-344.097 1156.5,-365.097 1253.5,-365.097 1253.5,-344.097 1156.5,-344.097"/>
<text text-anchor="middle" x="1205" y="-352.097" font-family="FreeSans" font-size="10.00">Urho3D::Context</text>
</a>
</g>
<!-- Node5&#45;&gt;Node7 -->
<g id="edge14" class="edge"><title>Node5&#45;&gt;Node7</title>
<path fill="none" stroke="midnightblue" d="M348.172,-576.348C533.825,-547.729 1044.8,-466.881 1114,-433.597 1149.07,-416.731 1181.22,-382.67 1196.18,-365.304"/>
<polygon fill="midnightblue" stroke="midnightblue" points="347.61,-572.893 338.259,-577.874 348.675,-579.811 347.61,-572.893"/>
</g>
<!-- Node6 -->
<g id="node10" class="node"><title>Node6</title>
<a xlink:href="struct_urho3_d_1_1_ref_count.html" target="_top" xlink:title="Reference count structure.">
<polygon fill="none" stroke="black" points="13,-604.097 13,-625.097 115,-625.097 115,-604.097 13,-604.097"/>
<text text-anchor="middle" x="64" y="-612.097" font-family="FreeSans" font-size="10.00">Urho3D::RefCount</text>
</a>
</g>
<!-- Node6&#45;&gt;Node5 -->
<g id="edge10" class="edge"><title>Node6&#45;&gt;Node5</title>
<path fill="none" stroke="#9a32cd" stroke-dasharray="5,2" d="M119.885,-602.054C128.596,-600.376 137.518,-598.817 146,-597.597 171.37,-593.948 199.61,-591.412 223.677,-589.703"/>
<polygon fill="#9a32cd" stroke="#9a32cd" points="118.919,-598.678 109.796,-604.065 120.287,-605.543 118.919,-598.678"/>
<text text-anchor="middle" x="171" y="-601.597" font-family="FreeSans" font-size="10.00"> refCount_</text>
</g>
<!-- Node23 -->
<g id="node54" class="node"><title>Node23</title>
<a xlink:href="class_urho3_d_1_1_shared_array_ptr.html" target="_top" xlink:title="Urho3D::SharedArrayPtr\l\&lt; unsigned char \&gt;">
<polygon fill="none" stroke="black" points="366.5,-626.597 366.5,-660.597 499.5,-660.597 499.5,-626.597 366.5,-626.597"/>
<text text-anchor="start" x="374.5" y="-647.597" font-family="FreeSans" font-size="10.00">Urho3D::SharedArrayPtr</text>
<text text-anchor="middle" x="433" y="-634.597" font-family="FreeSans" font-size="10.00">&lt; unsigned char &gt;</text>
</a>
</g>
<!-- Node6&#45;&gt;Node23 -->
<g id="edge66" class="edge"><title>Node6&#45;&gt;Node23</title>
<path fill="none" stroke="#9a32cd" stroke-dasharray="5,2" d="M125.637,-619.441C192.16,-624.669 297.749,-632.967 366.21,-638.348"/>
<polygon fill="#9a32cd" stroke="#9a32cd" points="125.551,-615.924 115.308,-618.629 125.003,-622.902 125.551,-615.924"/>
<text text-anchor="middle" x="171" y="-629.597" font-family="FreeSans" font-size="10.00"> refCount_</text>
</g>
<!-- Node7&#45;&gt;Node4 -->
<g id="edge12" class="edge"><title>Node7&#45;&gt;Node4</title>
<path fill="none" stroke="#9a32cd" stroke-dasharray="5,2" d="M1198.58,-374.843C1187.22,-406.975 1160.31,-468.938 1114,-497.597 1039.52,-543.686 807.645,-520.259 722,-538.597 679.211,-547.758 631.327,-564.881 602.437,-576.004"/>
<polygon fill="#9a32cd" stroke="#9a32cd" points="1201.96,-375.775 1201.84,-365.181 1195.33,-373.536 1201.96,-375.775"/>
<text text-anchor="middle" x="825" y="-542.597" font-family="FreeSans" font-size="10.00"> context_</text>
</g>
<!-- Node8 -->
<g id="node15" class="node"><title>Node8</title>
<a xlink:href="class_urho3_d_1_1_p_o_d_vector.html" target="_top" xlink:title="Urho3D::PODVector\&lt;\l Urho3D::Object * \&gt;">
<polygon fill="none" stroke="red" points="765.5,-355.597 765.5,-389.597 884.5,-389.597 884.5,-355.597 765.5,-355.597"/>
<text text-anchor="start" x="773.5" y="-376.597" font-family="FreeSans" font-size="10.00">Urho3D::PODVector&lt;</text>
<text text-anchor="middle" x="825" y="-363.597" font-family="FreeSans" font-size="10.00"> Urho3D::Object * &gt;</text>
</a>
</g>
<!-- Node8&#45;&gt;Node7 -->
<g id="edge16" class="edge"><title>Node8&#45;&gt;Node7</title>
<path fill="none" stroke="#9a32cd" stroke-dasharray="5,2" d="M895.211,-369.271C971.142,-365.674 1090.18,-360.036 1156.41,-356.899"/>
<polygon fill="#9a32cd" stroke="#9a32cd" points="894.616,-365.795 884.793,-369.765 894.947,-372.787 894.616,-365.795"/>
<text text-anchor="middle" x="1030" y="-371.597" font-family="FreeSans" font-size="10.00"> eventSenders_</text>
</g>
<!-- Node9 -->
<g id="node17" class="node"><title>Node9</title>
<a xlink:href="class_urho3_d_1_1_hash_map.html" target="_top" xlink:title="Urho3D::HashMap\&lt; Urho3D\l::Object *, Urho3D::HashMap\l\&lt; Urho3D::StringHash, Urho3D\l::EventReceiverGroup \&gt; \&gt;">
<polygon fill="none" stroke="black" points="741.5,-93.5968 741.5,-153.597 908.5,-153.597 908.5,-93.5968 741.5,-93.5968"/>
<text text-anchor="start" x="749.5" y="-140.597" font-family="FreeSans" font-size="10.00">Urho3D::HashMap&lt; Urho3D</text>
<text text-anchor="start" x="749.5" y="-127.597" font-family="FreeSans" font-size="10.00">::Object *, Urho3D::HashMap</text>
<text text-anchor="start" x="749.5" y="-114.597" font-family="FreeSans" font-size="10.00">&lt; Urho3D::StringHash, Urho3D</text>
<text text-anchor="middle" x="825" y="-101.597" font-family="FreeSans" font-size="10.00">::EventReceiverGroup &gt; &gt;</text>
</a>
</g>
<!-- Node9&#45;&gt;Node7 -->
<g id="edge18" class="edge"><title>Node9&#45;&gt;Node7</title>
<path fill="none" stroke="#9a32cd" stroke-dasharray="5,2" d="M918.624,-124.444C979.63,-129.389 1058,-144.512 1114,-186.597 1169.42,-228.248 1195,-313.866 1202.53,-343.9"/>
<polygon fill="#9a32cd" stroke="#9a32cd" points="918.833,-120.95 908.604,-123.71 918.321,-127.932 918.833,-120.95"/>
<text text-anchor="middle" x="1030" y="-190.597" font-family="FreeSans" font-size="10.00"> specificEventReceivers_</text>
</g>
<!-- Node10 -->
<g id="node19" class="node"><title>Node10</title>
<a xlink:href="class_urho3_d_1_1_hash_base.html" target="_top" xlink:title="Hash set/map base class.">
<polygon fill="none" stroke="black" points="522,-215.097 522,-236.097 630,-236.097 630,-215.097 522,-215.097"/>
<text text-anchor="middle" x="576" y="-223.097" font-family="FreeSans" font-size="10.00">Urho3D::HashBase</text>
</a>
</g>
<!-- Node10&#45;&gt;Node9 -->
<g id="edge20" class="edge"><title>Node10&#45;&gt;Node9</title>
<path fill="none" stroke="midnightblue" d="M609.025,-210.837C638.5,-197.787 682.917,-178.419 722,-162.597 729.267,-159.655 736.848,-156.655 744.456,-153.691"/>
<polygon fill="midnightblue" stroke="midnightblue" points="607.352,-207.751 599.632,-215.007 610.192,-214.149 607.352,-207.751"/>
</g>
<!-- Node15 -->
<g id="node33" class="node"><title>Node15</title>
<a xlink:href="class_urho3_d_1_1_hash_map.html" target="_top" xlink:title="Urho3D::HashMap\&lt; Urho3D\l::StringHash, Urho3D::\lEventReceiverGroup \&gt;">
<polygon fill="none" stroke="black" points="749,-290.097 749,-337.097 901,-337.097 901,-290.097 749,-290.097"/>
<text text-anchor="start" x="757" y="-324.097" font-family="FreeSans" font-size="10.00">Urho3D::HashMap&lt; Urho3D</text>
<text text-anchor="start" x="757" y="-311.097" font-family="FreeSans" font-size="10.00">::StringHash, Urho3D::</text>
<text text-anchor="middle" x="825" y="-298.097" font-family="FreeSans" font-size="10.00">EventReceiverGroup &gt;</text>
</a>
</g>
<!-- Node10&#45;&gt;Node15 -->
<g id="edge40" class="edge"><title>Node10&#45;&gt;Node15</title>
<path fill="none" stroke="midnightblue" d="M612.209,-239.816C641.641,-251.234 684.311,-267.47 722,-280.597 731.044,-283.747 740.572,-286.951 750.032,-290.064"/>
<polygon fill="midnightblue" stroke="midnightblue" points="613.35,-236.504 602.762,-236.14 610.812,-243.028 613.35,-236.504"/>
</g>
<!-- Node16 -->
<g id="node36" class="node"><title>Node16</title>
<a xlink:href="class_urho3_d_1_1_hash_map.html" target="_top" xlink:title="Urho3D::HashMap\&lt; StringHash,\l Variant \&gt;">
<polygon fill="none" stroke="black" points="739,-237.597 739,-271.597 911,-271.597 911,-237.597 739,-237.597"/>
<text text-anchor="start" x="747" y="-258.597" font-family="FreeSans" font-size="10.00">Urho3D::HashMap&lt; StringHash,</text>
<text text-anchor="middle" x="825" y="-245.597" font-family="FreeSans" font-size="10.00"> Variant &gt;</text>
</a>
</g>
<!-- Node10&#45;&gt;Node16 -->
<g id="edge44" class="edge"><title>Node10&#45;&gt;Node16</title>
<path fill="none" stroke="midnightblue" d="M639.972,-233.047C670.036,-236.549 706.323,-240.775 738.769,-244.554"/>
<polygon fill="midnightblue" stroke="midnightblue" points="640.367,-229.57 630.029,-231.889 639.557,-236.523 640.367,-229.57"/>
</g>
<!-- Node17 -->
<g id="node39" class="node"><title>Node17</title>
<a xlink:href="class_urho3_d_1_1_hash_map.html" target="_top" xlink:title="Urho3D::HashMap\&lt; Urho3D\l::StringHash, Urho3D::\lSharedPtr\&lt; Urho3D::Object \&gt; \&gt;">
<polygon fill="none" stroke="black" points="739,-172.097 739,-219.097 911,-219.097 911,-172.097 739,-172.097"/>
<text text-anchor="start" x="747" y="-206.097" font-family="FreeSans" font-size="10.00">Urho3D::HashMap&lt; Urho3D</text>
<text text-anchor="start" x="747" y="-193.097" font-family="FreeSans" font-size="10.00">::StringHash, Urho3D::</text>
<text text-anchor="middle" x="825" y="-180.097" font-family="FreeSans" font-size="10.00">SharedPtr&lt; Urho3D::Object &gt; &gt;</text>
</a>
</g>
<!-- Node10&#45;&gt;Node17 -->
<g id="edge48" class="edge"><title>Node10&#45;&gt;Node17</title>
<path fill="none" stroke="midnightblue" d="M639.972,-217.889C670.036,-214.267 706.323,-209.895 738.769,-205.986"/>
<polygon fill="midnightblue" stroke="midnightblue" points="639.539,-214.416 630.029,-219.087 640.376,-221.366 639.539,-214.416"/>
</g>
<!-- Node19 -->
<g id="node44" class="node"><title>Node19</title>
<a xlink:href="class_urho3_d_1_1_hash_map.html" target="_top" xlink:title="Urho3D::HashMap\&lt; Urho3D\l::StringHash, Urho3D::\lSharedPtr\&lt; Urho3D::ObjectFactory \&gt; \&gt;">
<polygon fill="none" stroke="black" points="722,-408.097 722,-455.097 928,-455.097 928,-408.097 722,-408.097"/>
<text text-anchor="start" x="730" y="-442.097" font-family="FreeSans" font-size="10.00">Urho3D::HashMap&lt; Urho3D</text>
<text text-anchor="start" x="730" y="-429.097" font-family="FreeSans" font-size="10.00">::StringHash, Urho3D::</text>
<text text-anchor="middle" x="825" y="-416.097" font-family="FreeSans" font-size="10.00">SharedPtr&lt; Urho3D::ObjectFactory &gt; &gt;</text>
</a>
</g>
<!-- Node10&#45;&gt;Node19 -->
<g id="edge54" class="edge"><title>Node10&#45;&gt;Node19</title>
<path fill="none" stroke="midnightblue" d="M587.38,-245.294C609.032,-281.058 659.611,-356.829 722,-398.597 727.227,-402.096 732.85,-405.245 738.676,-408.075"/>
<polygon fill="midnightblue" stroke="midnightblue" points="590.171,-243.139 582.055,-236.329 584.153,-246.714 590.171,-243.139"/>
</g>
<!-- Node25 -->
<g id="node61" class="node"><title>Node25</title>
<a xlink:href="class_urho3_d_1_1_hash_set.html" target="_top" xlink:title="Urho3D::HashSet\&lt; unsigned \&gt;">
<polygon fill="none" stroke="black" points="946.5,-9.09684 946.5,-30.0968 1113.5,-30.0968 1113.5,-9.09684 946.5,-9.09684"/>
<text text-anchor="middle" x="1030" y="-17.0968" font-family="FreeSans" font-size="10.00">Urho3D::HashSet&lt; unsigned &gt;</text>
</a>
</g>
<!-- Node10&#45;&gt;Node25 -->
<g id="edge76" class="edge"><title>Node10&#45;&gt;Node25</title>
<path fill="none" stroke="midnightblue" d="M584.045,-205.604C601.815,-164.465 648.738,-70.9868 722,-32.5968 803.538,10.1299 914.545,1.31101 978.615,-9.07662"/>
<polygon fill="midnightblue" stroke="midnightblue" points="580.708,-204.511 580.069,-215.087 587.164,-207.218 580.708,-204.511"/>
</g>
<!-- Node11 -->
<g id="node21" class="node"><title>Node11</title>
<a xlink:href="struct_urho3_d_1_1_hash_node_base.html" target="_top" xlink:title="Hash set/map node base class.">
<polygon fill="none" stroke="black" points="214,-250.097 214,-271.097 348,-271.097 348,-250.097 214,-250.097"/>
<text text-anchor="middle" x="281" y="-258.097" font-family="FreeSans" font-size="10.00">Urho3D::HashNodeBase</text>
</a>
</g>
<!-- Node11&#45;&gt;Node10 -->
<g id="edge22" class="edge"><title>Node11&#45;&gt;Node10</title>
<path fill="none" stroke="#9a32cd" stroke-dasharray="5,2" d="M358.38,-251.416C409.771,-245.319 475.963,-237.466 521.784,-232.029"/>
<polygon fill="#9a32cd" stroke="#9a32cd" points="357.827,-247.957 348.309,-252.611 358.652,-254.908 357.827,-247.957"/>
<text text-anchor="middle" x="433" y="-280.597" font-family="FreeSans" font-size="10.00"> ptrs_</text>
<text text-anchor="middle" x="433" y="-267.597" font-family="FreeSans" font-size="10.00">tail_</text>
<text text-anchor="middle" x="433" y="-254.597" font-family="FreeSans" font-size="10.00">head_</text>
</g>
<!-- Node11&#45;&gt;Node11 -->
<g id="edge24" class="edge"><title>Node11&#45;&gt;Node11</title>
<path fill="none" stroke="#9a32cd" stroke-dasharray="5,2" d="M260.728,-281.023C262.292,-285.946 269.049,-289.597 281,-289.597 300.121,-289.597 305.947,-280.25 298.478,-271.305"/>
<polygon fill="#9a32cd" stroke="#9a32cd" points="264.123,-281.882 263.522,-271.305 257.395,-279.948 264.123,-281.882"/>
<text text-anchor="middle" x="281" y="-319.597" font-family="FreeSans" font-size="10.00"> next_</text>
<text text-anchor="middle" x="281" y="-306.597" font-family="FreeSans" font-size="10.00">prev_</text>
<text text-anchor="middle" x="281" y="-293.597" font-family="FreeSans" font-size="10.00">down_</text>
</g>
<!-- Node12 -->
<g id="node24" class="node"><title>Node12</title>
<a xlink:href="struct_urho3_d_1_1_allocator_block.html" target="_top" xlink:title="Allocator memory block.">
<polygon fill="none" stroke="black" points="217.5,-179.097 217.5,-200.097 344.5,-200.097 344.5,-179.097 217.5,-179.097"/>
<text text-anchor="middle" x="281" y="-187.097" font-family="FreeSans" font-size="10.00">Urho3D::AllocatorBlock</text>
</a>
</g>
<!-- Node12&#45;&gt;Node10 -->
<g id="edge26" class="edge"><title>Node12&#45;&gt;Node10</title>
<path fill="none" stroke="#9a32cd" stroke-dasharray="5,2" d="M354.797,-198.603C406.692,-204.936 474.97,-213.268 521.866,-218.991"/>
<polygon fill="#9a32cd" stroke="#9a32cd" points="354.998,-195.101 344.647,-197.364 354.15,-202.05 354.998,-195.101"/>
<text text-anchor="middle" x="433" y="-220.597" font-family="FreeSans" font-size="10.00"> allocator_</text>
</g>
<!-- Node12&#45;&gt;Node12 -->
<g id="edge28" class="edge"><title>Node12&#45;&gt;Node12</title>
<path fill="none" stroke="#9a32cd" stroke-dasharray="5,2" d="M260.728,-210.023C262.292,-214.946 269.049,-218.597 281,-218.597 300.121,-218.597 305.947,-209.25 298.478,-200.305"/>
<polygon fill="#9a32cd" stroke="#9a32cd" points="264.123,-210.882 263.522,-200.305 257.395,-208.948 264.123,-210.882"/>
<text text-anchor="middle" x="281" y="-222.597" font-family="FreeSans" font-size="10.00"> next_</text>
</g>
<!-- Node13 -->
<g id="node27" class="node"><title>Node13</title>
<a xlink:href="struct_urho3_d_1_1_allocator_node.html" target="_top" xlink:title="Allocator node.">
<polygon fill="none" stroke="black" points="0.5,-179.097 0.5,-200.097 127.5,-200.097 127.5,-179.097 0.5,-179.097"/>
<text text-anchor="middle" x="64" y="-187.097" font-family="FreeSans" font-size="10.00">Urho3D::AllocatorNode</text>
</a>
</g>
<!-- Node13&#45;&gt;Node12 -->
<g id="edge30" class="edge"><title>Node13&#45;&gt;Node12</title>
<path fill="none" stroke="#9a32cd" stroke-dasharray="5,2" d="M137.765,-189.597C163.616,-189.597 192.409,-189.597 217.36,-189.597"/>
<polygon fill="#9a32cd" stroke="#9a32cd" points="137.641,-186.097 127.641,-189.597 137.641,-193.097 137.641,-186.097"/>
<text text-anchor="middle" x="171" y="-193.597" font-family="FreeSans" font-size="10.00"> free_</text>
</g>
<!-- Node13&#45;&gt;Node13 -->
<g id="edge32" class="edge"><title>Node13&#45;&gt;Node13</title>
<path fill="none" stroke="#9a32cd" stroke-dasharray="5,2" d="M44.4653,-210.023C45.9723,-214.946 52.4839,-218.597 64,-218.597 82.4258,-218.597 88.0399,-209.25 80.8423,-200.305"/>
<polygon fill="#9a32cd" stroke="#9a32cd" points="47.8609,-210.876 47.1577,-200.305 41.1149,-209.007 47.8609,-210.876"/>
<text text-anchor="middle" x="64" y="-222.597" font-family="FreeSans" font-size="10.00"> next_</text>
</g>
<!-- Node14&#45;&gt;Node7 -->
<g id="edge34" class="edge"><title>Node14&#45;&gt;Node7</title>
<path fill="none" stroke="#9a32cd" stroke-dasharray="5,2" d="M897.049,-565.368C976.839,-557.925 1096.59,-544.925 1114,-532.597 1173.76,-490.275 1196.83,-396.796 1203.09,-365.24"/>
<polygon fill="#9a32cd" stroke="#9a32cd" points="896.677,-561.887 887.041,-566.292 897.321,-568.858 896.677,-561.887"/>
<text text-anchor="middle" x="1030" y="-564.597" font-family="FreeSans" font-size="10.00"> eventHandler_</text>
</g>
<!-- Node20 -->
<g id="node47" class="node"><title>Node20</title>
<a xlink:href="class_urho3_d_1_1_linked_list.html" target="_top" xlink:title="Urho3D::LinkedList\l\&lt; Urho3D::EventHandler \&gt;">
<polygon fill="none" stroke="black" points="1132,-587.597 1132,-621.597 1278,-621.597 1278,-587.597 1132,-587.597"/>
<text text-anchor="start" x="1140" y="-608.597" font-family="FreeSans" font-size="10.00">Urho3D::LinkedList</text>
<text text-anchor="middle" x="1205" y="-595.597" font-family="FreeSans" font-size="10.00">&lt; Urho3D::EventHandler &gt;</text>
</a>
</g>
<!-- Node14&#45;&gt;Node20 -->
<g id="edge58" class="edge"><title>Node14&#45;&gt;Node20</title>
<path fill="none" stroke="#9a32cd" stroke-dasharray="5,2" d="M897.381,-575.142C955.913,-578.361 1040.4,-583.803 1114,-591.597 1119.71,-592.202 1125.62,-592.894 1131.55,-593.636"/>
<polygon fill="#9a32cd" stroke="#9a32cd" points="897.301,-571.632 887.127,-574.586 896.923,-578.622 897.301,-571.632"/>
<text text-anchor="middle" x="1030" y="-595.597" font-family="FreeSans" font-size="10.00"> head_</text>
</g>
<!-- Node15&#45;&gt;Node7 -->
<g id="edge38" class="edge"><title>Node15&#45;&gt;Node7</title>
<path fill="none" stroke="#9a32cd" stroke-dasharray="5,2" d="M911.265,-321.546C968.75,-327.017 1045.96,-334.698 1114,-342.597 1127.77,-344.195 1142.69,-346.093 1156.39,-347.903"/>
<polygon fill="#9a32cd" stroke="#9a32cd" points="911.416,-318.044 901.13,-320.585 910.755,-325.013 911.416,-318.044"/>
<text text-anchor="middle" x="1030" y="-346.597" font-family="FreeSans" font-size="10.00"> eventReceivers_</text>
</g>
<!-- Node16&#45;&gt;Node7 -->
<g id="edge42" class="edge"><title>Node16&#45;&gt;Node7</title>
<path fill="none" stroke="#9a32cd" stroke-dasharray="5,2" d="M921.128,-265.603C978.198,-273.84 1051.4,-287.408 1114,-308.597 1141,-317.735 1170.03,-333.573 1187.86,-344.069"/>
<polygon fill="#9a32cd" stroke="#9a32cd" points="921.42,-262.109 911.029,-264.176 920.441,-269.041 921.42,-262.109"/>
<text text-anchor="middle" x="1030" y="-312.597" font-family="FreeSans" font-size="10.00"> globalVars_</text>
</g>
<!-- Node17&#45;&gt;Node7 -->
<g id="edge46" class="edge"><title>Node17&#45;&gt;Node7</title>
<path fill="none" stroke="#9a32cd" stroke-dasharray="5,2" d="M921.271,-199.692C980.18,-205.766 1055.26,-220.138 1114,-253.597 1153.99,-276.375 1185.86,-323.054 1198.77,-344.006"/>
<polygon fill="#9a32cd" stroke="#9a32cd" points="921.507,-196.198 911.216,-198.719 920.832,-203.166 921.507,-196.198"/>
<text text-anchor="middle" x="1030" y="-257.597" font-family="FreeSans" font-size="10.00"> subsystems_</text>
</g>
<!-- Node18 -->
<g id="node42" class="node"><title>Node18</title>
<a xlink:href="class_urho3_d_1_1_p_o_d_vector.html" target="_top" xlink:title="Urho3D::PODVector\&lt;\l Urho3D::HashMap * \&gt;">
<polygon fill="none" stroke="red" points="761.5,-41.5968 761.5,-75.5968 888.5,-75.5968 888.5,-41.5968 761.5,-41.5968"/>
<text text-anchor="start" x="769.5" y="-62.5968" font-family="FreeSans" font-size="10.00">Urho3D::PODVector&lt;</text>
<text text-anchor="middle" x="825" y="-49.5968" font-family="FreeSans" font-size="10.00"> Urho3D::HashMap * &gt;</text>
</a>
</g>
<!-- Node18&#45;&gt;Node7 -->
<g id="edge50" class="edge"><title>Node18&#45;&gt;Node7</title>
<path fill="none" stroke="#9a32cd" stroke-dasharray="5,2" d="M898.761,-51.8712C963.505,-50.1856 1056.13,-58.647 1114,-111.597 1136.12,-131.832 1122.3,-148.235 1132,-176.597 1154.17,-241.381 1187.64,-316.552 1200.1,-343.932"/>
<polygon fill="#9a32cd" stroke="#9a32cd" points="898.492,-48.3784 888.619,-52.2236 898.735,-55.3742 898.492,-48.3784"/>
<text text-anchor="middle" x="1030" y="-115.597" font-family="FreeSans" font-size="10.00"> eventDataMaps_</text>
</g>
<!-- Node19&#45;&gt;Node7 -->
<g id="edge52" class="edge"><title>Node19&#45;&gt;Node7</title>
<path fill="none" stroke="#9a32cd" stroke-dasharray="5,2" d="M938.339,-417.374C991.989,-409.571 1056.71,-398.606 1114,-384.597 1135.33,-379.381 1158.86,-371.568 1176.65,-365.223"/>
<polygon fill="#9a32cd" stroke="#9a32cd" points="937.509,-413.957 928.108,-418.843 938.504,-420.886 937.509,-413.957"/>
<text text-anchor="middle" x="1030" y="-420.597" font-family="FreeSans" font-size="10.00"> factories_</text>
</g>
<!-- Node20&#45;&gt;Node4 -->
<g id="edge56" class="edge"><title>Node20&#45;&gt;Node4</title>
<path fill="none" stroke="#9a32cd" stroke-dasharray="5,2" d="M1121.6,-609.644C1013.09,-614.988 817.76,-620.426 652,-602.597 641.141,-601.429 629.545,-599.398 618.766,-597.168"/>
<polygon fill="#9a32cd" stroke="#9a32cd" points="1122.02,-613.128 1131.83,-609.128 1121.66,-606.137 1122.02,-613.128"/>
<text text-anchor="middle" x="825" y="-619.597" font-family="FreeSans" font-size="10.00"> eventHandlers_</text>
</g>
<!-- Node21 -->
<g id="node50" class="node"><title>Node21</title>
<a xlink:href="class_urho3_d_1_1_deserializer.html" target="_top" xlink:title="Abstract stream for reading.">
<polygon fill="none" stroke="black" points="518,-736.097 518,-757.097 634,-757.097 634,-736.097 518,-736.097"/>
<text text-anchor="middle" x="576" y="-744.097" font-family="FreeSans" font-size="10.00">Urho3D::Deserializer</text>
</a>
</g>
<!-- Node21&#45;&gt;Node3 -->
<g id="edge60" class="edge"><title>Node21&#45;&gt;Node3</title>
<path fill="none" stroke="midnightblue" d="M644.032,-735.668C690.342,-728.229 749.877,-718.665 787.751,-712.581"/>
<polygon fill="midnightblue" stroke="midnightblue" points="643.383,-732.227 634.065,-737.269 644.494,-739.139 643.383,-732.227"/>
</g>
<!-- Node22 -->
<g id="node52" class="node"><title>Node22</title>
<a xlink:href="class_urho3_d_1_1_serializer.html" target="_top" xlink:title="Abstract stream for writing.">
<polygon fill="none" stroke="black" points="524,-696.097 524,-717.097 628,-717.097 628,-696.097 524,-696.097"/>
<text text-anchor="middle" x="576" y="-704.097" font-family="FreeSans" font-size="10.00">Urho3D::Serializer</text>
</a>
</g>
<!-- Node22&#45;&gt;Node3 -->
<g id="edge62" class="edge"><title>Node22&#45;&gt;Node3</title>
<path fill="none" stroke="midnightblue" d="M638.285,-706.597C685.348,-706.597 748.376,-706.597 787.83,-706.597"/>
<polygon fill="midnightblue" stroke="midnightblue" points="638.199,-703.097 628.199,-706.597 638.199,-710.097 638.199,-703.097"/>
</g>
<!-- Node23&#45;&gt;Node3 -->
<g id="edge64" class="edge"><title>Node23&#45;&gt;Node3</title>
<path fill="none" stroke="#9a32cd" stroke-dasharray="5,2" d="M510.211,-647.374C547.736,-649.909 593.394,-654.029 634,-660.597 688.377,-669.392 750.161,-685.397 788.364,-696.015"/>
<polygon fill="#9a32cd" stroke="#9a32cd" points="510.059,-643.857 499.853,-646.7 509.605,-650.842 510.059,-643.857"/>
<text text-anchor="middle" x="576" y="-677.597" font-family="FreeSans" font-size="10.00"> inputBuffer_</text>
<text text-anchor="middle" x="576" y="-664.597" font-family="FreeSans" font-size="10.00">readBuffer_</text>
</g>
<!-- Node24 -->
<g id="node57" class="node"><title>Node24</title>
<a xlink:href="class_urho3_d_1_1_string.html" target="_top" xlink:title="String class.">
<polygon fill="none" stroke="black" points="532,-779.097 532,-800.097 620,-800.097 620,-779.097 532,-779.097"/>
<text text-anchor="middle" x="576" y="-787.097" font-family="FreeSans" font-size="10.00">Urho3D::String</text>
</a>
</g>
<!-- Node24&#45;&gt;Node1 -->
<g id="edge72" class="edge"><title>Node24&#45;&gt;Node1</title>
<path fill="none" stroke="#9a32cd" stroke-dasharray="5,2" d="M630.372,-787.313C748.629,-781.88 1037.89,-766.06 1278,-732.597 1306.36,-728.644 1337.85,-722.454 1362.84,-717.106"/>
<polygon fill="#9a32cd" stroke="#9a32cd" points="629.969,-783.828 620.138,-787.777 630.286,-790.821 629.969,-783.828"/>
<text text-anchor="middle" x="1030" y="-770.597" font-family="FreeSans" font-size="10.00"> name_</text>
</g>
<!-- Node24&#45;&gt;Node3 -->
<g id="edge68" class="edge"><title>Node24&#45;&gt;Node3</title>
<path fill="none" stroke="#9a32cd" stroke-dasharray="5,2" d="M617.278,-775.838C666.75,-759.347 748.566,-732.075 793.328,-717.154"/>
<polygon fill="#9a32cd" stroke="#9a32cd" points="615.916,-772.602 607.536,-779.085 618.13,-779.243 615.916,-772.602"/>
<text text-anchor="middle" x="678" y="-766.597" font-family="FreeSans" font-size="10.00"> fileName_</text>
</g>
<!-- Node24&#45;&gt;Node24 -->
<g id="edge70" class="edge"><title>Node24&#45;&gt;Node24</title>
<path fill="none" stroke="#9a32cd" stroke-dasharray="5,2" d="M557.202,-810.023C558.653,-814.946 564.918,-818.597 576,-818.597 593.73,-818.597 599.133,-809.25 592.207,-800.305"/>
<polygon fill="#9a32cd" stroke="#9a32cd" points="560.599,-810.869 559.793,-800.305 553.836,-809.066 560.599,-810.869"/>
<text text-anchor="middle" x="576" y="-822.597" font-family="FreeSans" font-size="10.00"> EMPTY</text>
</g>
<!-- Node25&#45;&gt;Node1 -->
<g id="edge74" class="edge"><title>Node25&#45;&gt;Node1</title>
<path fill="none" stroke="#9a32cd" stroke-dasharray="5,2" d="M1086.42,-33.6849C1096.26,-37.7733 1105.92,-42.984 1114,-49.5968 1223.26,-138.974 1218.48,-193.597 1278,-321.597 1344.24,-464.042 1394.29,-649.708 1406.26,-695.862"/>
<polygon fill="#9a32cd" stroke="#9a32cd" points="1087.57,-30.3776 1076.98,-30.0998 1085.09,-36.9217 1087.57,-30.3776"/>
<text text-anchor="middle" x="1205" y="-325.597" font-family="FreeSans" font-size="10.00"> receivedFragments_</text>
</g>
</g>
</svg>
        <g id="navigator" transform="translate(0 0)" fill="#404254">
                <rect fill="#f2f5e9" fill-opacity="0.5" stroke="#606060" stroke-width=".5" x="0" y="0" width="60" height="60"/>
                <use id="zoomplus" xlink:href="#zoomPlus" x="17" y="9" onmousedown="handleZoom(evt,'in')"/>
                <use id="zoomminus" xlink:href="#zoomMin" x="42" y="9" onmousedown="handleZoom(evt,'out')"/>
                <use id="reset" xlink:href="#resetDef" x="30" y="36" onmousedown="handleReset()"/>
                <g id="arrowUp" xlink:href="#dirArrow" transform="translate(30 24)" onmousedown="handlePan(0,-1)">
                  <use xlink:href="#rim" fill="#404040">
                        <set attributeName="fill" to="#808080" begin="arrowUp.mouseover" end="arrowUp.mouseout"/>
                  </use>
                  <path fill="none" stroke="white" stroke-width="1.5" d="M0,-3.0v7 M-2.5,-0.5L0,-3.0L2.5,-0.5"/>
                </g>
                <g id="arrowRight" xlink:href="#dirArrow" transform="rotate(90) translate(36 -43)" onmousedown="handlePan(1,0)">
                  <use xlink:href="#rim" fill="#404040">
                        <set attributeName="fill" to="#808080" begin="arrowRight.mouseover" end="arrowRight.mouseout"/>
                  </use>
                  <path fill="none" stroke="white" stroke-width="1.5" d="M0,-3.0v7 M-2.5,-0.5L0,-3.0L2.5,-0.5"/>
                </g>
                <g id="arrowDown" xlink:href="#dirArrow" transform="rotate(180) translate(-30 -48)" onmousedown="handlePan(0,1)">
                  <use xlink:href="#rim" fill="#404040">
                        <set attributeName="fill" to="#808080" begin="arrowDown.mouseover" end="arrowDown.mouseout"/>
                  </use>
                  <path fill="none" stroke="white" stroke-width="1.5" d="M0,-3.0v7 M-2.5,-0.5L0,-3.0L2.5,-0.5"/>
                </g>
                <g id="arrowLeft" xlink:href="#dirArrow" transform="rotate(270) translate(-36 17)" onmousedown="handlePan(-1,0)">
                  <use xlink:href="#rim" fill="#404040">
                        <set attributeName="fill" to="#808080" begin="arrowLeft.mouseover" end="arrowLeft.mouseout"/>
                  </use>
                  <path fill="none" stroke="white" stroke-width="1.5" d="M0,-3.0v7 M-2.5,-0.5L0,-3.0L2.5,-0.5"/>
                </g>
        </g>
        <svg viewBox="0 0 15 15" width="100%" height="30px" preserveAspectRatio="xMaxYMin meet">
         <g id="arrow_out" transform="scale(0.3 0.3)">
          <a xlink:href="struct_urho3_d_1_1_package_download__coll__graph_org.svg" target="_base">
           <rect id="button" ry="5" rx="5" y="6" x="6" height="38" width="38"
                fill="#f2f5e9" fill-opacity="0.5" stroke="#606060" stroke-width="1.0"/>
           <path id="arrow"
             d="M 11.500037,31.436501 C 11.940474,20.09759 22.043105,11.32322 32.158766,21.979434 L 37.068811,17.246167 C 37.068811,17.246167 37.088388,32 37.088388,32 L 22.160133,31.978069 C 22.160133,31.978069 26.997745,27.140456 26.997745,27.140456 C 18.528582,18.264221 13.291696,25.230495 11.500037,31.436501 z"
             style="fill:#404040;"/>
          </a>
         </g>
        </svg>
</svg>
