<?xml version="1.0" encoding="UTF-8" standalone="no"?>
<!DOCTYPE svg PUBLIC "-//W3C//DTD SVG 1.1//EN"
 "http://www.w3.org/Graphics/SVG/1.1/DTD/svg11.dtd">
<!-- Generated by graphviz version 2.40.1 (20161225.0304)
 -->
<!-- Title: Urho3D::VertexBufferMorph Pages: 1 -->
<svg width="158pt" height="173pt"
 viewBox="0.00 0.00 158.00 173.00" xmlns="http://www.w3.org/2000/svg" xmlns:xlink="http://www.w3.org/1999/xlink">
<g id="graph0" class="graph" transform="scale(1 1) rotate(0) translate(4 169)">
<title>Urho3D::VertexBufferMorph</title>
<!-- Node1 -->
<g id="node1" class="node">
<title>Node1</title>
<polygon fill="#bfbfbf" stroke="#000000" points="0,-.5 0,-19.5 150,-19.5 150,-.5 0,-.5"/>
<text text-anchor="middle" x="75" y="-7.5" font-family="Helvetica,sans-Serif" font-size="10.00" fill="#000000">Urho3D::VertexBufferMorph</text>
</g>
<!-- Node2 -->
<g id="node2" class="node">
<title>Node2</title>
<g id="a_node2"><a xlink:href="class_urho3_d_1_1_shared_array_ptr.html" target="_top" xlink:title="Urho3D::SharedArrayPtr\l\&lt; unsigned char \&gt;">
<polygon fill="none" stroke="#000000" points="8.5,-67.5 8.5,-97.5 141.5,-97.5 141.5,-67.5 8.5,-67.5"/>
<text text-anchor="start" x="16.5" y="-85.5" font-family="Helvetica,sans-Serif" font-size="10.00" fill="#000000">Urho3D::SharedArrayPtr</text>
<text text-anchor="middle" x="75" y="-74.5" font-family="Helvetica,sans-Serif" font-size="10.00" fill="#000000">&lt; unsigned char &gt;</text>
</a>
</g>
</g>
<!-- Node2&#45;&gt;Node1 -->
<g id="edge1" class="edge">
<title>Node2&#45;&gt;Node1</title>
<path fill="none" stroke="#9a32cd" stroke-dasharray="5,2" d="M75,-57.305C75,-44.424 75,-29.4836 75,-19.8957"/>
<polygon fill="#9a32cd" stroke="#9a32cd" points="71.5001,-57.4779 75,-67.478 78.5001,-57.478 71.5001,-57.4779"/>
<text text-anchor="middle" x="107" y="-41" font-family="Helvetica,sans-Serif" font-size="10.00" fill="#000000"> morphData_</text>
</g>
<!-- Node3 -->
<g id="node3" class="node">
<title>Node3</title>
<g id="a_node3"><a xlink:href="struct_urho3_d_1_1_ref_count.html" target="_top" xlink:title="Reference count structure. ">
<polygon fill="none" stroke="#000000" points="23,-145.5 23,-164.5 127,-164.5 127,-145.5 23,-145.5"/>
<text text-anchor="middle" x="75" y="-152.5" font-family="Helvetica,sans-Serif" font-size="10.00" fill="#000000">Urho3D::RefCount</text>
</a>
</g>
</g>
<!-- Node3&#45;&gt;Node2 -->
<g id="edge2" class="edge">
<title>Node3&#45;&gt;Node2</title>
<path fill="none" stroke="#9a32cd" stroke-dasharray="5,2" d="M75,-135.0177C75,-123.2164 75,-108.513 75,-97.668"/>
<polygon fill="#9a32cd" stroke="#9a32cd" points="71.5001,-135.2223 75,-145.2223 78.5001,-135.2224 71.5001,-135.2223"/>
<text text-anchor="middle" x="100.5" y="-119" font-family="Helvetica,sans-Serif" font-size="10.00" fill="#000000"> refCount_</text>
</g>
</g>
</svg>
