<?xml version="1.0" encoding="UTF-8" standalone="no"?>
<!DOCTYPE svg PUBLIC "-//W3C//DTD SVG 1.1//EN"
 "http://www.w3.org/Graphics/SVG/1.1/DTD/svg11.dtd">
<!-- Generated by graphviz version 2.26.3 (20100126.1600)
 -->
<!-- Title: Urho3D::ViewBatchInfo2D Pages: 1 -->
<svg width="1958pt" height="779pt"
 viewBox="0.00 0.00 1958.00 779.00" xmlns="http://www.w3.org/2000/svg" xmlns:xlink="http://www.w3.org/1999/xlink">
<g id="graph1" class="graph" transform="scale(1 1) rotate(0) translate(4 775)">
<title>Urho3D::ViewBatchInfo2D</title>
<!-- Node1 -->
<g id="node1" class="node"><title>Node1</title>
<polygon fill="#bfbfbf" stroke="black" points="1810,-658.5 1810,-679.5 1950,-679.5 1950,-658.5 1810,-658.5"/>
<text text-anchor="middle" x="1880" y="-666.5" font-family="FreeSans" font-size="10.00">Urho3D::ViewBatchInfo2D</text>
</g>
<!-- Node2 -->
<g id="node2" class="node"><title>Node2</title>
<a xlink:href="class_urho3_d_1_1_vector.html" target="_top" xlink:title="Urho3D::Vector\&lt; Urho3D\l::SharedPtr\&lt; Urho3D::Material \&gt; \&gt;">
<polygon fill="none" stroke="black" points="424.5,-692 424.5,-726 609.5,-726 609.5,-692 424.5,-692"/>
<text text-anchor="start" x="432.5" y="-713" font-family="FreeSans" font-size="10.00">Urho3D::Vector&lt; Urho3D</text>
<text text-anchor="middle" x="517" y="-700" font-family="FreeSans" font-size="10.00">::SharedPtr&lt; Urho3D::Material &gt; &gt;</text>
</a>
</g>
<!-- Node2&#45;&gt;Node1 -->
<g id="edge2" class="edge"><title>Node2&#45;&gt;Node1</title>
<path fill="none" stroke="#9a32cd" stroke-dasharray="5,2" d="M620.107,-709.457C688.21,-709.721 779.428,-710 860,-710 860,-710 860,-710 1633,-710 1707.33,-710 1792.57,-691.707 1840.98,-679.559"/>
<polygon fill="#9a32cd" stroke="#9a32cd" points="619.82,-705.956 609.806,-709.417 619.792,-712.956 619.82,-705.956"/>
<text text-anchor="middle" x="1164" y="-714" font-family="FreeSans" font-size="10.00"> materials_</text>
</g>
<!-- Node3 -->
<g id="node4" class="node"><title>Node3</title>
<a xlink:href="class_urho3_d_1_1_vector_base.html" target="_top" xlink:title="Vector base class.">
<polygon fill="none" stroke="black" points="0,-640.5 0,-661.5 114,-661.5 114,-640.5 0,-640.5"/>
<text text-anchor="middle" x="57" y="-648.5" font-family="FreeSans" font-size="10.00">Urho3D::VectorBase</text>
</a>
</g>
<!-- Node3&#45;&gt;Node2 -->
<g id="edge4" class="edge"><title>Node3&#45;&gt;Node2</title>
<path fill="none" stroke="midnightblue" d="M85.0223,-666.127C98.7766,-672.816 115.832,-680.049 132,-684 229.762,-707.89 345.389,-712.349 424.234,-711.956"/>
<polygon fill="midnightblue" stroke="midnightblue" points="86.5853,-662.996 76.0789,-661.63 83.4406,-669.25 86.5853,-662.996"/>
</g>
<!-- Node4 -->
<g id="node6" class="node"><title>Node4</title>
<a xlink:href="class_urho3_d_1_1_p_o_d_vector.html" target="_top" xlink:title="Urho3D::PODVector\&lt;\l const Urho3D::SourceBatch2\lD * \&gt;">
<polygon fill="none" stroke="black" points="780.5,-646.5 780.5,-693.5 939.5,-693.5 939.5,-646.5 780.5,-646.5"/>
<text text-anchor="start" x="788.5" y="-680.5" font-family="FreeSans" font-size="10.00">Urho3D::PODVector&lt;</text>
<text text-anchor="start" x="788.5" y="-667.5" font-family="FreeSans" font-size="10.00"> const Urho3D::SourceBatch2</text>
<text text-anchor="middle" x="860" y="-654.5" font-family="FreeSans" font-size="10.00">D * &gt;</text>
</a>
</g>
<!-- Node3&#45;&gt;Node4 -->
<g id="edge8" class="edge"><title>Node3&#45;&gt;Node4</title>
<path fill="none" stroke="midnightblue" d="M124.363,-652.594C271.77,-656.082 622.355,-664.377 780.362,-668.116"/>
<polygon fill="midnightblue" stroke="midnightblue" points="124.186,-649.089 114.106,-652.351 124.02,-656.087 124.186,-649.089"/>
</g>
<!-- Node11 -->
<g id="node22" class="node"><title>Node11</title>
<a xlink:href="class_urho3_d_1_1_p_o_d_vector.html" target="_top" xlink:title="Urho3D::PODVector\&lt;\l Urho3D::Object * \&gt;">
<polygon fill="none" stroke="black" points="243.5,-346 243.5,-380 362.5,-380 362.5,-346 243.5,-346"/>
<text text-anchor="start" x="251.5" y="-367" font-family="FreeSans" font-size="10.00">Urho3D::PODVector&lt;</text>
<text text-anchor="middle" x="303" y="-354" font-family="FreeSans" font-size="10.00"> Urho3D::Object * &gt;</text>
</a>
</g>
<!-- Node3&#45;&gt;Node11 -->
<g id="edge26" class="edge"><title>Node3&#45;&gt;Node11</title>
<path fill="none" stroke="midnightblue" d="M61.6736,-630.208C70.7887,-592.655 93.4911,-512.032 132,-454 155.117,-419.164 163.411,-409.229 200,-389 213.235,-381.683 228.559,-376.385 243.276,-372.565"/>
<polygon fill="midnightblue" stroke="midnightblue" points="58.1574,-629.871 59.2785,-640.407 64.972,-631.472 58.1574,-629.871"/>
</g>
<!-- Node17 -->
<g id="node36" class="node"><title>Node17</title>
<a xlink:href="class_urho3_d_1_1_p_o_d_vector.html" target="_top" xlink:title="Urho3D::PODVector\&lt;\l Urho3D::HashMap * \&gt;">
<polygon fill="none" stroke="black" points="239.5,-398 239.5,-432 366.5,-432 366.5,-398 239.5,-398"/>
<text text-anchor="start" x="247.5" y="-419" font-family="FreeSans" font-size="10.00">Urho3D::PODVector&lt;</text>
<text text-anchor="middle" x="303" y="-406" font-family="FreeSans" font-size="10.00"> Urho3D::HashMap * &gt;</text>
</a>
</g>
<!-- Node3&#45;&gt;Node17 -->
<g id="edge42" class="edge"><title>Node3&#45;&gt;Node17</title>
<path fill="none" stroke="midnightblue" d="M64.7517,-630.632C82.0381,-588.117 127.98,-489.839 200,-441 211.677,-433.081 225.573,-427.574 239.319,-423.743"/>
<polygon fill="midnightblue" stroke="midnightblue" points="61.4004,-629.589 60.9758,-640.175 67.9094,-632.164 61.4004,-629.589"/>
</g>
<!-- Node24 -->
<g id="node54" class="node"><title>Node24</title>
<a xlink:href="class_urho3_d_1_1_vector.html" target="_top" xlink:title="Urho3D::Vector\&lt; Urho3D\l::SharedPtr\&lt; Urho3D::Geometry \&gt; \&gt;">
<polygon fill="none" stroke="black" points="1066.5,-610 1066.5,-644 1261.5,-644 1261.5,-610 1066.5,-610"/>
<text text-anchor="start" x="1074.5" y="-631" font-family="FreeSans" font-size="10.00">Urho3D::Vector&lt; Urho3D</text>
<text text-anchor="middle" x="1164" y="-618" font-family="FreeSans" font-size="10.00">::SharedPtr&lt; Urho3D::Geometry &gt; &gt;</text>
</a>
</g>
<!-- Node3&#45;&gt;Node24 -->
<g id="edge64" class="edge"><title>Node3&#45;&gt;Node24</title>
<path fill="none" stroke="midnightblue" d="M124.36,-649.187C126.94,-649.123 129.493,-649.06 132,-649 475.307,-640.763 882.894,-632.531 1066.17,-628.911"/>
<polygon fill="midnightblue" stroke="midnightblue" points="124.236,-645.688 114.327,-649.44 124.412,-652.686 124.236,-645.688"/>
</g>
<!-- Node25 -->
<g id="node57" class="node"><title>Node25</title>
<a xlink:href="class_urho3_d_1_1_p_o_d_vector.html" target="_top" xlink:title="Urho3D::PODVector\&lt;\l float \&gt;">
<polygon fill="none" stroke="black" points="1422.5,-737 1422.5,-771 1541.5,-771 1541.5,-737 1422.5,-737"/>
<text text-anchor="start" x="1430.5" y="-758" font-family="FreeSans" font-size="10.00">Urho3D::PODVector&lt;</text>
<text text-anchor="middle" x="1482" y="-745" font-family="FreeSans" font-size="10.00"> float &gt;</text>
</a>
</g>
<!-- Node3&#45;&gt;Node25 -->
<g id="edge68" class="edge"><title>Node3&#45;&gt;Node25</title>
<path fill="none" stroke="midnightblue" d="M77.9863,-668.003C92.442,-679.008 112.492,-692.925 132,-702 203.572,-735.295 224.063,-750 303,-750 303,-750 303,-750 1164,-750 1254,-750 1358.31,-751.622 1422.22,-752.8"/>
<polygon fill="midnightblue" stroke="midnightblue" points="79.803,-664.982 69.7633,-661.597 75.5009,-670.504 79.803,-664.982"/>
</g>
<!-- Node4&#45;&gt;Node1 -->
<g id="edge6" class="edge"><title>Node4&#45;&gt;Node1</title>
<path fill="none" stroke="#9a32cd" stroke-dasharray="5,2" d="M949.972,-669.549C1010.48,-669.284 1092.03,-669 1164,-669 1164,-669 1164,-669 1633,-669 1692.71,-669 1760.55,-669 1810,-669"/>
<polygon fill="#9a32cd" stroke="#9a32cd" points="949.673,-666.05 939.689,-669.595 949.704,-673.05 949.673,-666.05"/>
<text text-anchor="middle" x="1342" y="-673" font-family="FreeSans" font-size="10.00"> sourceBatches_</text>
</g>
<!-- Node5 -->
<g id="node9" class="node"><title>Node5</title>
<a xlink:href="class_urho3_d_1_1_shared_ptr.html" target="_top" xlink:title="Urho3D::SharedPtr\&lt;\l Urho3D::VertexBuffer \&gt;">
<polygon fill="none" stroke="black" points="1566.5,-332 1566.5,-366 1699.5,-366 1699.5,-332 1566.5,-332"/>
<text text-anchor="start" x="1574.5" y="-353" font-family="FreeSans" font-size="10.00">Urho3D::SharedPtr&lt;</text>
<text text-anchor="middle" x="1633" y="-340" font-family="FreeSans" font-size="10.00"> Urho3D::VertexBuffer &gt;</text>
</a>
</g>
<!-- Node5&#45;&gt;Node1 -->
<g id="edge10" class="edge"><title>Node5&#45;&gt;Node1</title>
<path fill="none" stroke="#9a32cd" stroke-dasharray="5,2" d="M1672.83,-371.501C1684.29,-379.05 1696.3,-388.096 1706,-398 1791.11,-484.861 1857.2,-619.744 1875.15,-658.349"/>
<polygon fill="#9a32cd" stroke="#9a32cd" points="1674.54,-368.442 1664.22,-366.031 1670.79,-374.349 1674.54,-368.442"/>
<text text-anchor="middle" x="1758" y="-506" font-family="FreeSans" font-size="10.00"> vertexBuffer_</text>
</g>
<!-- Node6 -->
<g id="node11" class="node"><title>Node6</title>
<a xlink:href="class_urho3_d_1_1_vertex_buffer.html" target="_top" xlink:title="Hardware vertex buffer.">
<polygon fill="none" stroke="black" points="1282.5,-126.5 1282.5,-147.5 1401.5,-147.5 1401.5,-126.5 1282.5,-126.5"/>
<text text-anchor="middle" x="1342" y="-134.5" font-family="FreeSans" font-size="10.00">Urho3D::VertexBuffer</text>
</a>
</g>
<!-- Node6&#45;&gt;Node5 -->
<g id="edge12" class="edge"><title>Node6&#45;&gt;Node5</title>
<path fill="none" stroke="#9a32cd" stroke-dasharray="5,2" d="M1364.67,-153.516C1418.74,-192.908 1554.84,-292.058 1609.62,-331.967"/>
<polygon fill="#9a32cd" stroke="#9a32cd" points="1366.57,-150.573 1356.43,-147.513 1362.45,-156.23 1366.57,-150.573"/>
<text text-anchor="middle" x="1482" y="-285" font-family="FreeSans" font-size="10.00"> ptr_</text>
</g>
<!-- Node7 -->
<g id="node13" class="node"><title>Node7</title>
<a xlink:href="class_urho3_d_1_1_object.html" target="_top" xlink:title="Base class for objects with type identification, subsystem access and event sending/receiving capabil...">
<polygon fill="none" stroke="black" points="958,-389.5 958,-410.5 1048,-410.5 1048,-389.5 958,-389.5"/>
<text text-anchor="middle" x="1003" y="-397.5" font-family="FreeSans" font-size="10.00">Urho3D::Object</text>
</a>
</g>
<!-- Node7&#45;&gt;Node6 -->
<g id="edge14" class="edge"><title>Node7&#45;&gt;Node6</title>
<path fill="none" stroke="midnightblue" d="M1033.03,-384.272C1038.12,-381.338 1043.28,-378.188 1048,-375 1164.75,-296.184 1292.26,-182.356 1330.53,-147.522"/>
<polygon fill="midnightblue" stroke="midnightblue" points="1031.08,-381.35 1024.06,-389.281 1034.5,-387.462 1031.08,-381.35"/>
</g>
<!-- Node12 -->
<g id="node25" class="node"><title>Node12</title>
<a xlink:href="class_urho3_d_1_1_event_handler.html" target="_top" xlink:title="Internal helper class for invoking event handler functions.">
<polygon fill="none" stroke="red" points="1280,-374.5 1280,-395.5 1404,-395.5 1404,-374.5 1280,-374.5"/>
<text text-anchor="middle" x="1342" y="-382.5" font-family="FreeSans" font-size="10.00">Urho3D::EventHandler</text>
</a>
</g>
<!-- Node7&#45;&gt;Node12 -->
<g id="edge30" class="edge"><title>Node7&#45;&gt;Node12</title>
<path fill="none" stroke="#9a32cd" stroke-dasharray="5,2" d="M1058.22,-392.666C1060.85,-392.418 1063.45,-392.194 1066,-392 1139.36,-386.426 1223.98,-385.02 1279.98,-384.787"/>
<polygon fill="#9a32cd" stroke="#9a32cd" points="1057.61,-389.21 1048.03,-393.722 1058.33,-396.172 1057.61,-389.21"/>
<text text-anchor="middle" x="1164" y="-409" font-family="FreeSans" font-size="10.00"> sender_</text>
<text text-anchor="middle" x="1164" y="-396" font-family="FreeSans" font-size="10.00">receiver_</text>
</g>
<!-- Node8 -->
<g id="node15" class="node"><title>Node8</title>
<a xlink:href="class_urho3_d_1_1_ref_counted.html" target="_top" xlink:title="Base class for intrusively reference&#45;counted objects. These are noncopyable and non&#45;assignable.">
<polygon fill="none" stroke="black" points="246,-582.5 246,-603.5 360,-603.5 360,-582.5 246,-582.5"/>
<text text-anchor="middle" x="303" y="-590.5" font-family="FreeSans" font-size="10.00">Urho3D::RefCounted</text>
</a>
</g>
<!-- Node8&#45;&gt;Node7 -->
<g id="edge16" class="edge"><title>Node8&#45;&gt;Node7</title>
<path fill="none" stroke="midnightblue" d="M370.394,-597.204C433.292,-599.428 529.298,-598.449 610,-579 764.884,-541.674 933.425,-442.979 986.231,-410.515"/>
<polygon fill="midnightblue" stroke="midnightblue" points="370.335,-593.699 360.206,-596.806 370.062,-600.694 370.335,-593.699"/>
</g>
<!-- Node10 -->
<g id="node19" class="node"><title>Node10</title>
<a xlink:href="class_urho3_d_1_1_context.html" target="_top" xlink:title="Urho3D execution context. Provides access to subsystems, object factories and attributes, and event receivers.">
<polygon fill="none" stroke="red" points="646.5,-352.5 646.5,-373.5 743.5,-373.5 743.5,-352.5 646.5,-352.5"/>
<text text-anchor="middle" x="695" y="-360.5" font-family="FreeSans" font-size="10.00">Urho3D::Context</text>
</a>
</g>
<!-- Node8&#45;&gt;Node10 -->
<g id="edge22" class="edge"><title>Node8&#45;&gt;Node10</title>
<path fill="none" stroke="midnightblue" d="M370.306,-586.138C457.754,-576.976 600.473,-561.082 610,-554 671.753,-508.096 689.52,-407.235 693.803,-373.919"/>
<polygon fill="midnightblue" stroke="midnightblue" points="369.773,-582.674 360.19,-587.193 370.499,-589.636 369.773,-582.674"/>
</g>
<!-- Node9 -->
<g id="node17" class="node"><title>Node9</title>
<a xlink:href="struct_urho3_d_1_1_ref_count.html" target="_top" xlink:title="Reference count structure.">
<polygon fill="none" stroke="black" points="6,-45.5 6,-66.5 108,-66.5 108,-45.5 6,-45.5"/>
<text text-anchor="middle" x="57" y="-53.5" font-family="FreeSans" font-size="10.00">Urho3D::RefCount</text>
</a>
</g>
<!-- Node9&#45;&gt;Node8 -->
<g id="edge18" class="edge"><title>Node9&#45;&gt;Node8</title>
<path fill="none" stroke="#9a32cd" stroke-dasharray="5,2" d="M59.8381,-76.9151C72.1832,-164.782 124.021,-502.732 200,-573 212.37,-584.441 229.249,-590.225 245.762,-592.946"/>
<polygon fill="#9a32cd" stroke="#9a32cd" points="63.2824,-76.2712 58.4437,-66.8459 56.3486,-77.2315 63.2824,-76.2712"/>
<text text-anchor="middle" x="157" y="-552" font-family="FreeSans" font-size="10.00"> refCount_</text>
</g>
<!-- Node22 -->
<g id="node48" class="node"><title>Node22</title>
<a xlink:href="class_urho3_d_1_1_weak_ptr.html" target="_top" xlink:title="Urho3D::WeakPtr\&lt; Urho3D\l::Graphics \&gt;">
<polygon fill="none" stroke="red" points="444,-45 444,-79 590,-79 590,-45 444,-45"/>
<text text-anchor="start" x="452" y="-66" font-family="FreeSans" font-size="10.00">Urho3D::WeakPtr&lt; Urho3D</text>
<text text-anchor="middle" x="517" y="-53" font-family="FreeSans" font-size="10.00">::Graphics &gt;</text>
</a>
</g>
<!-- Node9&#45;&gt;Node22 -->
<g id="edge56" class="edge"><title>Node9&#45;&gt;Node22</title>
<path fill="none" stroke="#9a32cd" stroke-dasharray="5,2" d="M118.609,-56.8036C202.821,-57.902 353.655,-59.8694 443.612,-61.0428"/>
<polygon fill="#9a32cd" stroke="#9a32cd" points="118.474,-53.3016 108.429,-56.6708 118.382,-60.301 118.474,-53.3016"/>
<text text-anchor="middle" x="157" y="-62" font-family="FreeSans" font-size="10.00"> refCount_</text>
</g>
<!-- Node23 -->
<g id="node51" class="node"><title>Node23</title>
<a xlink:href="class_urho3_d_1_1_shared_array_ptr.html" target="_top" xlink:title="Urho3D::SharedArrayPtr\l\&lt; unsigned char \&gt;">
<polygon fill="none" stroke="black" points="628.5,-0 628.5,-34 761.5,-34 761.5,-0 628.5,-0"/>
<text text-anchor="start" x="636.5" y="-21" font-family="FreeSans" font-size="10.00">Urho3D::SharedArrayPtr</text>
<text text-anchor="middle" x="695" y="-8" font-family="FreeSans" font-size="10.00">&lt; unsigned char &gt;</text>
</a>
</g>
<!-- Node9&#45;&gt;Node23 -->
<g id="edge60" class="edge"><title>Node9&#45;&gt;Node23</title>
<path fill="none" stroke="#9a32cd" stroke-dasharray="5,2" d="M118.403,-48.7962C143.652,-46.0329 173.202,-43.0535 200,-41 353.13,-29.2658 533.374,-22.227 628.472,-19.0406"/>
<polygon fill="#9a32cd" stroke="#9a32cd" points="117.785,-45.3432 108.231,-49.923 118.555,-52.3006 117.785,-45.3432"/>
<text text-anchor="middle" x="303" y="-45" font-family="FreeSans" font-size="10.00"> refCount_</text>
</g>
<!-- Node10&#45;&gt;Node7 -->
<g id="edge20" class="edge"><title>Node10&#45;&gt;Node7</title>
<path fill="none" stroke="#9a32cd" stroke-dasharray="5,2" d="M753.799,-370.064C813.274,-377.208 903.92,-388.098 957.932,-394.586"/>
<polygon fill="#9a32cd" stroke="#9a32cd" points="754.15,-366.581 743.804,-368.863 753.315,-373.531 754.15,-366.581"/>
<text text-anchor="middle" x="860" y="-397" font-family="FreeSans" font-size="10.00"> context_</text>
</g>
<!-- Node11&#45;&gt;Node10 -->
<g id="edge24" class="edge"><title>Node11&#45;&gt;Node10</title>
<path fill="none" stroke="#9a32cd" stroke-dasharray="5,2" d="M372.849,-363C451.608,-363 577.62,-363 646.375,-363"/>
<polygon fill="#9a32cd" stroke="#9a32cd" points="372.536,-359.5 362.536,-363 372.536,-366.5 372.536,-359.5"/>
<text text-anchor="middle" x="517" y="-367" font-family="FreeSans" font-size="10.00"> eventSenders_</text>
</g>
<!-- Node12&#45;&gt;Node10 -->
<g id="edge28" class="edge"><title>Node12&#45;&gt;Node10</title>
<path fill="none" stroke="#9a32cd" stroke-dasharray="5,2" d="M1269.77,-379.572C1210.29,-375.343 1123.72,-369.745 1048,-367 939.284,-363.058 811.623,-362.66 743.553,-362.786"/>
<polygon fill="#9a32cd" stroke="#9a32cd" points="1269.59,-383.068 1279.81,-380.291 1270.09,-376.085 1269.59,-383.068"/>
<text text-anchor="middle" x="1003" y="-371" font-family="FreeSans" font-size="10.00"> eventHandler_</text>
</g>
<!-- Node20 -->
<g id="node43" class="node"><title>Node20</title>
<a xlink:href="class_urho3_d_1_1_linked_list.html" target="_top" xlink:title="Urho3D::LinkedList\l\&lt; Urho3D::EventHandler \&gt;">
<polygon fill="none" stroke="black" points="1560,-407 1560,-441 1706,-441 1706,-407 1560,-407"/>
<text text-anchor="start" x="1568" y="-428" font-family="FreeSans" font-size="10.00">Urho3D::LinkedList</text>
<text text-anchor="middle" x="1633" y="-415" font-family="FreeSans" font-size="10.00">&lt; Urho3D::EventHandler &gt;</text>
</a>
</g>
<!-- Node12&#45;&gt;Node20 -->
<g id="edge50" class="edge"><title>Node12&#45;&gt;Node20</title>
<path fill="none" stroke="#9a32cd" stroke-dasharray="5,2" d="M1414.36,-390.371C1452.46,-393.669 1499.89,-398.517 1542,-405 1547.74,-405.884 1553.67,-406.895 1559.62,-407.98"/>
<polygon fill="#9a32cd" stroke="#9a32cd" points="1414.64,-386.882 1404.38,-389.524 1414.04,-393.857 1414.64,-386.882"/>
<text text-anchor="middle" x="1482" y="-409" font-family="FreeSans" font-size="10.00"> head_</text>
</g>
<!-- Node13 -->
<g id="node28" class="node"><title>Node13</title>
<a xlink:href="class_urho3_d_1_1_hash_map.html" target="_top" xlink:title="Urho3D::HashMap\&lt; Urho3D\l::StringHash, Urho3D::\lHashSet\&lt; Urho3D::Object * \&gt; \&gt;">
<polygon fill="none" stroke="red" points="216.5,-84.5 216.5,-131.5 389.5,-131.5 389.5,-84.5 216.5,-84.5"/>
<text text-anchor="start" x="224.5" y="-118.5" font-family="FreeSans" font-size="10.00">Urho3D::HashMap&lt; Urho3D</text>
<text text-anchor="start" x="224.5" y="-105.5" font-family="FreeSans" font-size="10.00">::StringHash, Urho3D::</text>
<text text-anchor="middle" x="303" y="-92.5" font-family="FreeSans" font-size="10.00">HashSet&lt; Urho3D::Object * &gt; &gt;</text>
</a>
</g>
<!-- Node13&#45;&gt;Node10 -->
<g id="edge32" class="edge"><title>Node13&#45;&gt;Node10</title>
<path fill="none" stroke="#9a32cd" stroke-dasharray="5,2" d="M400.133,-103.357C465.913,-105.218 551.221,-118.006 610,-165 672.235,-214.757 689.751,-318.786 693.879,-352.329"/>
<polygon fill="#9a32cd" stroke="#9a32cd" points="399.819,-99.85 389.751,-103.149 399.678,-106.849 399.819,-99.85"/>
<text text-anchor="middle" x="517" y="-169" font-family="FreeSans" font-size="10.00"> eventReceivers_</text>
</g>
<!-- Node14 -->
<g id="node30" class="node"><title>Node14</title>
<a xlink:href="class_urho3_d_1_1_hash_map.html" target="_top" xlink:title="Urho3D::HashMap\&lt; StringHash,\l Variant \&gt;">
<polygon fill="none" stroke="red" points="217,-294 217,-328 389,-328 389,-294 217,-294"/>
<text text-anchor="start" x="225" y="-315" font-family="FreeSans" font-size="10.00">Urho3D::HashMap&lt; StringHash,</text>
<text text-anchor="middle" x="303" y="-302" font-family="FreeSans" font-size="10.00"> Variant &gt;</text>
</a>
</g>
<!-- Node14&#45;&gt;Node10 -->
<g id="edge34" class="edge"><title>Node14&#45;&gt;Node10</title>
<path fill="none" stroke="#9a32cd" stroke-dasharray="5,2" d="M399.595,-319.916C460.194,-326.027 539.862,-335.008 610,-346 621.745,-347.841 634.336,-350.164 646.132,-352.497"/>
<polygon fill="#9a32cd" stroke="#9a32cd" points="399.574,-316.396 389.275,-318.884 398.877,-323.361 399.574,-316.396"/>
<text text-anchor="middle" x="517" y="-350" font-family="FreeSans" font-size="10.00"> globalVars_</text>
</g>
<!-- Node15 -->
<g id="node32" class="node"><title>Node15</title>
<a xlink:href="class_urho3_d_1_1_hash_map.html" target="_top" xlink:title="Urho3D::HashMap\&lt; Urho3D\l::Object *, Urho3D::HashMap\l\&lt; Urho3D::StringHash, Urho3D\l::HashSet\&lt; Urho3D::Object * \&gt; \&gt; \&gt;">
<polygon fill="none" stroke="red" points="207.5,-216 207.5,-276 398.5,-276 398.5,-216 207.5,-216"/>
<text text-anchor="start" x="215.5" y="-263" font-family="FreeSans" font-size="10.00">Urho3D::HashMap&lt; Urho3D</text>
<text text-anchor="start" x="215.5" y="-250" font-family="FreeSans" font-size="10.00">::Object *, Urho3D::HashMap</text>
<text text-anchor="start" x="215.5" y="-237" font-family="FreeSans" font-size="10.00">&lt; Urho3D::StringHash, Urho3D</text>
<text text-anchor="middle" x="303" y="-224" font-family="FreeSans" font-size="10.00">::HashSet&lt; Urho3D::Object * &gt; &gt; &gt;</text>
</a>
</g>
<!-- Node15&#45;&gt;Node10 -->
<g id="edge36" class="edge"><title>Node15&#45;&gt;Node10</title>
<path fill="none" stroke="#9a32cd" stroke-dasharray="5,2" d="M408.487,-256.113C469.149,-264.48 545.816,-279.477 610,-306 638.244,-317.671 666.906,-339.39 682.674,-352.386"/>
<polygon fill="#9a32cd" stroke="#9a32cd" points="408.885,-252.635 398.509,-254.776 407.956,-259.573 408.885,-252.635"/>
<text text-anchor="middle" x="517" y="-310" font-family="FreeSans" font-size="10.00"> specificEventReceivers_</text>
</g>
<!-- Node16 -->
<g id="node34" class="node"><title>Node16</title>
<a xlink:href="class_urho3_d_1_1_hash_map.html" target="_top" xlink:title="Urho3D::HashMap\&lt; Urho3D\l::StringHash, Urho3D::\lSharedPtr\&lt; Urho3D::Object \&gt; \&gt;">
<polygon fill="none" stroke="red" points="217,-150.5 217,-197.5 389,-197.5 389,-150.5 217,-150.5"/>
<text text-anchor="start" x="225" y="-184.5" font-family="FreeSans" font-size="10.00">Urho3D::HashMap&lt; Urho3D</text>
<text text-anchor="start" x="225" y="-171.5" font-family="FreeSans" font-size="10.00">::StringHash, Urho3D::</text>
<text text-anchor="middle" x="303" y="-158.5" font-family="FreeSans" font-size="10.00">SharedPtr&lt; Urho3D::Object &gt; &gt;</text>
</a>
</g>
<!-- Node16&#45;&gt;Node10 -->
<g id="edge38" class="edge"><title>Node16&#45;&gt;Node10</title>
<path fill="none" stroke="#9a32cd" stroke-dasharray="5,2" d="M399.404,-177.907C463.689,-184.558 547.538,-201.378 610,-243 652.491,-271.314 680.47,-328.63 690.677,-352.35"/>
<polygon fill="#9a32cd" stroke="#9a32cd" points="399.551,-174.405 389.261,-176.924 398.877,-181.372 399.551,-174.405"/>
<text text-anchor="middle" x="517" y="-247" font-family="FreeSans" font-size="10.00"> subsystems_</text>
</g>
<!-- Node17&#45;&gt;Node10 -->
<g id="edge40" class="edge"><title>Node17&#45;&gt;Node10</title>
<path fill="none" stroke="#9a32cd" stroke-dasharray="5,2" d="M376.842,-408.335C439.174,-402.29 530.681,-392.431 610,-380 621.745,-378.159 634.336,-375.836 646.132,-373.503"/>
<polygon fill="#9a32cd" stroke="#9a32cd" points="376.329,-404.868 366.71,-409.309 376.999,-411.836 376.329,-404.868"/>
<text text-anchor="middle" x="517" y="-408" font-family="FreeSans" font-size="10.00"> eventDataMaps_</text>
</g>
<!-- Node18 -->
<g id="node39" class="node"><title>Node18</title>
<a xlink:href="class_urho3_d_1_1_hash_map.html" target="_top" xlink:title="Urho3D::HashMap\&lt; Urho3D\l::StringHash, Urho3D::\lSharedPtr\&lt; Urho3D::ObjectFactory \&gt; \&gt;">
<polygon fill="none" stroke="red" points="200,-516.5 200,-563.5 406,-563.5 406,-516.5 200,-516.5"/>
<text text-anchor="start" x="208" y="-550.5" font-family="FreeSans" font-size="10.00">Urho3D::HashMap&lt; Urho3D</text>
<text text-anchor="start" x="208" y="-537.5" font-family="FreeSans" font-size="10.00">::StringHash, Urho3D::</text>
<text text-anchor="middle" x="303" y="-524.5" font-family="FreeSans" font-size="10.00">SharedPtr&lt; Urho3D::ObjectFactory &gt; &gt;</text>
</a>
</g>
<!-- Node18&#45;&gt;Node10 -->
<g id="edge44" class="edge"><title>Node18&#45;&gt;Node10</title>
<path fill="none" stroke="#9a32cd" stroke-dasharray="5,2" d="M416.26,-538.729C477.722,-533.314 552.633,-518.66 610,-482 652.787,-454.657 680.599,-397.406 690.72,-373.667"/>
<polygon fill="#9a32cd" stroke="#9a32cd" points="415.811,-535.254 406.126,-539.549 416.376,-542.231 415.811,-535.254"/>
<text text-anchor="middle" x="517" y="-542" font-family="FreeSans" font-size="10.00"> factories_</text>
</g>
<!-- Node19 -->
<g id="node41" class="node"><title>Node19</title>
<a xlink:href="class_urho3_d_1_1_hash_map.html" target="_top" xlink:title="Urho3D::HashMap\&lt; Urho3D\l::String, Urho3D::Vector\l\&lt; Urho3D::StringHash \&gt; \&gt;">
<polygon fill="none" stroke="red" points="227,-450.5 227,-497.5 379,-497.5 379,-450.5 227,-450.5"/>
<text text-anchor="start" x="235" y="-484.5" font-family="FreeSans" font-size="10.00">Urho3D::HashMap&lt; Urho3D</text>
<text text-anchor="start" x="235" y="-471.5" font-family="FreeSans" font-size="10.00">::String, Urho3D::Vector</text>
<text text-anchor="middle" x="303" y="-458.5" font-family="FreeSans" font-size="10.00">&lt; Urho3D::StringHash &gt; &gt;</text>
</a>
</g>
<!-- Node19&#45;&gt;Node10 -->
<g id="edge46" class="edge"><title>Node19&#45;&gt;Node10</title>
<path fill="none" stroke="#9a32cd" stroke-dasharray="5,2" d="M389.58,-468.936C452.612,-462.917 539.007,-449.757 610,-421 638.646,-409.397 667.393,-386.988 683.022,-373.678"/>
<polygon fill="#9a32cd" stroke="#9a32cd" points="388.917,-465.482 379.277,-469.876 389.554,-472.453 388.917,-465.482"/>
<text text-anchor="middle" x="517" y="-469" font-family="FreeSans" font-size="10.00"> objectCategories_</text>
</g>
<!-- Node20&#45;&gt;Node7 -->
<g id="edge48" class="edge"><title>Node20&#45;&gt;Node7</title>
<path fill="none" stroke="#9a32cd" stroke-dasharray="5,2" d="M1549.44,-430.049C1438.36,-436.511 1236.28,-442.768 1066,-418 1055.31,-416.445 1043.87,-413.565 1033.72,-410.558"/>
<polygon fill="#9a32cd" stroke="#9a32cd" points="1549.8,-433.533 1559.57,-429.444 1549.38,-426.546 1549.8,-433.533"/>
<text text-anchor="middle" x="1342" y="-440" font-family="FreeSans" font-size="10.00"> eventHandlers_</text>
</g>
<!-- Node21 -->
<g id="node46" class="node"><title>Node21</title>
<a xlink:href="class_urho3_d_1_1_g_p_u_object.html" target="_top" xlink:title="Base class for GPU resources.">
<polygon fill="none" stroke="black" points="804.5,-114.5 804.5,-135.5 915.5,-135.5 915.5,-114.5 804.5,-114.5"/>
<text text-anchor="middle" x="860" y="-122.5" font-family="FreeSans" font-size="10.00">Urho3D::GPUObject</text>
</a>
</g>
<!-- Node21&#45;&gt;Node6 -->
<g id="edge52" class="edge"><title>Node21&#45;&gt;Node6</title>
<path fill="none" stroke="midnightblue" d="M926.017,-126.644C1020.17,-128.988 1191.63,-133.256 1282.22,-135.512"/>
<polygon fill="midnightblue" stroke="midnightblue" points="925.846,-123.138 915.762,-126.388 925.672,-130.136 925.846,-123.138"/>
</g>
<!-- Node22&#45;&gt;Node21 -->
<g id="edge54" class="edge"><title>Node22&#45;&gt;Node21</title>
<path fill="none" stroke="#9a32cd" stroke-dasharray="5,2" d="M600.139,-77.2705C663.544,-88.9163 749.118,-104.634 804.434,-114.794"/>
<polygon fill="#9a32cd" stroke="#9a32cd" points="600.629,-73.802 590.161,-75.4378 599.365,-80.6868 600.629,-73.802"/>
<text text-anchor="middle" x="695" y="-111" font-family="FreeSans" font-size="10.00"> graphics_</text>
</g>
<!-- Node23&#45;&gt;Node6 -->
<g id="edge58" class="edge"><title>Node23&#45;&gt;Node6</title>
<path fill="none" stroke="#9a32cd" stroke-dasharray="5,2" d="M771.5,-31.1885C902.996,-55.5774 1168.95,-104.905 1285.32,-126.488"/>
<polygon fill="#9a32cd" stroke="#9a32cd" points="771.972,-27.7165 761.501,-29.3341 770.695,-34.5991 771.972,-27.7165"/>
<text text-anchor="middle" x="1003" y="-85" font-family="FreeSans" font-size="10.00"> shadowData_</text>
</g>
<!-- Node24&#45;&gt;Node1 -->
<g id="edge62" class="edge"><title>Node24&#45;&gt;Node1</title>
<path fill="none" stroke="#9a32cd" stroke-dasharray="5,2" d="M1272,-627.864C1397.35,-629.781 1610.16,-635.862 1792,-655 1800.77,-655.923 1810,-657.129 1819.04,-658.446"/>
<polygon fill="#9a32cd" stroke="#9a32cd" points="1271.68,-624.359 1261.63,-627.712 1271.58,-631.358 1271.68,-624.359"/>
<text text-anchor="middle" x="1482" y="-641" font-family="FreeSans" font-size="10.00"> geometries_</text>
</g>
<!-- Node25&#45;&gt;Node1 -->
<g id="edge66" class="edge"><title>Node25&#45;&gt;Node1</title>
<path fill="none" stroke="#9a32cd" stroke-dasharray="5,2" d="M1551.68,-756.266C1615.79,-756.27 1712.67,-750.956 1792,-724 1821.34,-714.031 1850.98,-692.63 1867.27,-679.659"/>
<polygon fill="#9a32cd" stroke="#9a32cd" points="1551.69,-752.766 1541.68,-756.222 1551.66,-759.766 1551.69,-752.766"/>
<text text-anchor="middle" x="1633" y="-760" font-family="FreeSans" font-size="10.00"> distances_</text>
</g>
</g>
</svg>
