<?xml version="1.0" encoding="UTF-8" standalone="no"?>
<!DOCTYPE svg PUBLIC "-//W3C//DTD SVG 1.1//EN"
 "http://www.w3.org/Graphics/SVG/1.1/DTD/svg11.dtd">
<!-- Generated by graphviz version 2.26.3 (20100126.1600)
 -->
<!-- Title: Urho3D::JoystickState Pages: 1 -->
<!--zoomable 996 -->
<svg id="main" version="1.1" xmlns="http://www.w3.org/2000/svg" xmlns:xlink="http://www.w3.org/1999/xlink" xml:space="preserve" onload="init(evt)">
        <defs>
                <circle id="rim" cx="0" cy="0" r="7"/>
                <circle id="rim2" cx="0" cy="0" r="3.5"/>
                <g id="zoomPlus">
                        <use xlink:href="#rim" fill="#404040">
                                <set attributeName="fill" to="#808080" begin="zoomplus.mouseover" end="zoomplus.mouseout"/>
                        </use>
                        <path d="M-4,0h8M0,-4v8" fill="none" stroke="white" stroke-width="1.5" pointer-events="none"/>
                </g>
                <g id="zoomMin">
                        <use xlink:href="#rim" fill="#404040">
                                <set attributeName="fill" to="#808080" begin="zoomminus.mouseover" end="zoomminus.mouseout"/>
                        </use>
                        <path d="M-4,0h8" fill="none" stroke="white" stroke-width="1.5" pointer-events="none"/>
                </g>
                <g id="dirArrow">
                        <path fill="none" stroke="white" stroke-width="1.5" d="M0,-3.0v7 M-2.5,-0.5L0,-3.0L2.5,-0.5"/>
                </g>
               <g id="resetDef">
                       <use xlink:href="#rim2" fill="#404040">
                               <set attributeName="fill" to="#808080" begin="reset.mouseover" end="reset.mouseout"/>
                       </use>
               </g>
        </defs>

<script type="text/javascript">
var viewWidth = 1272;
var viewHeight = 996;
var sectionId = 'dynsection-0';
</script>
<script xlink:href="svgpan.js"/>
<svg id="graph" class="graph">
<g id="viewport">
<title>Urho3D::JoystickState</title>
<!-- Node1 -->
<g id="node1" class="node"><title>Node1</title>
<polygon fill="#bfbfbf" stroke="black" points="1142.5,-845.702 1142.5,-866.702 1263.5,-866.702 1263.5,-845.702 1142.5,-845.702"/>
<text text-anchor="middle" x="1203" y="-853.702" font-family="FreeSans" font-size="10.00">Urho3D::JoystickState</text>
</g>
<!-- Node2 -->
<g id="node2" class="node"><title>Node2</title>
<a xlink:href="class_urho3_d_1_1_p_o_d_vector.html" target="_top" xlink:title="Urho3D::PODVector\&lt;\l int \&gt;">
<polygon fill="none" stroke="black" points="772.5,-954.202 772.5,-988.202 891.5,-988.202 891.5,-954.202 772.5,-954.202"/>
<text text-anchor="start" x="780.5" y="-975.202" font-family="FreeSans" font-size="10.00">Urho3D::PODVector&lt;</text>
<text text-anchor="middle" x="832" y="-962.202" font-family="FreeSans" font-size="10.00"> int &gt;</text>
</a>
</g>
<!-- Node2&#45;&gt;Node1 -->
<g id="edge2" class="edge"><title>Node2&#45;&gt;Node1</title>
<path fill="none" stroke="#9a32cd" stroke-dasharray="5,2" d="M901.724,-968.425C940.249,-965.404 988.558,-959.142 1030,-946.202 1091.73,-926.928 1157.65,-886.315 1187.14,-866.934"/>
<polygon fill="#9a32cd" stroke="#9a32cd" points="901.361,-964.942 891.642,-969.16 901.87,-971.923 901.361,-964.942"/>
<text text-anchor="middle" x="970" y="-971.202" font-family="FreeSans" font-size="10.00"> hats_</text>
</g>
<!-- Node3 -->
<g id="node4" class="node"><title>Node3</title>
<a xlink:href="class_urho3_d_1_1_vector_base.html" target="_top" xlink:title="Vector base class.">
<polygon fill="none" stroke="black" points="190,-903.702 190,-924.702 304,-924.702 304,-903.702 190,-903.702"/>
<text text-anchor="middle" x="247" y="-911.702" font-family="FreeSans" font-size="10.00">Urho3D::VectorBase</text>
</a>
</g>
<!-- Node3&#45;&gt;Node2 -->
<g id="edge4" class="edge"><title>Node3&#45;&gt;Node2</title>
<path fill="none" stroke="midnightblue" d="M313.353,-926.407C330.463,-929.264 348.88,-932.088 366,-934.202 511.385,-952.156 683.419,-963.186 772.247,-968.13"/>
<polygon fill="midnightblue" stroke="midnightblue" points="313.894,-922.949 303.45,-924.726 312.723,-929.85 313.894,-922.949"/>
</g>
<!-- Node4 -->
<g id="node6" class="node"><title>Node4</title>
<a xlink:href="class_urho3_d_1_1_p_o_d_vector.html" target="_top" xlink:title="Urho3D::PODVector\&lt;\l bool \&gt;">
<polygon fill="none" stroke="black" points="772.5,-913.202 772.5,-947.202 891.5,-947.202 891.5,-913.202 772.5,-913.202"/>
<text text-anchor="start" x="780.5" y="-934.202" font-family="FreeSans" font-size="10.00">Urho3D::PODVector&lt;</text>
<text text-anchor="middle" x="832" y="-921.202" font-family="FreeSans" font-size="10.00"> bool &gt;</text>
</a>
</g>
<!-- Node3&#45;&gt;Node4 -->
<g id="edge8" class="edge"><title>Node3&#45;&gt;Node4</title>
<path fill="none" stroke="midnightblue" d="M314.26,-916.041C429.47,-919.192 662.733,-925.572 772.434,-928.573"/>
<polygon fill="midnightblue" stroke="midnightblue" points="314.249,-912.54 304.157,-915.765 314.058,-919.537 314.249,-912.54"/>
</g>
<!-- Node17 -->
<g id="node35" class="node"><title>Node17</title>
<a xlink:href="class_urho3_d_1_1_vector.html" target="_top" xlink:title="Urho3D::Vector\&lt; Urho3D\l::SharedPtr\&lt; Urho3D::UIElement \&gt; \&gt;">
<polygon fill="none" stroke="black" points="556.5,-833.202 556.5,-867.202 753.5,-867.202 753.5,-833.202 556.5,-833.202"/>
<text text-anchor="start" x="564.5" y="-854.202" font-family="FreeSans" font-size="10.00">Urho3D::Vector&lt; Urho3D</text>
<text text-anchor="middle" x="655" y="-841.202" font-family="FreeSans" font-size="10.00">::SharedPtr&lt; Urho3D::UIElement &gt; &gt;</text>
</a>
</g>
<!-- Node3&#45;&gt;Node17 -->
<g id="edge40" class="edge"><title>Node3&#45;&gt;Node17</title>
<path fill="none" stroke="midnightblue" d="M289.107,-900.712C311.696,-893.937 340.135,-886.141 366,-881.202 428.825,-869.205 500.284,-861.488 556.427,-856.755"/>
<polygon fill="midnightblue" stroke="midnightblue" points="288.038,-897.379 279.491,-903.639 290.077,-904.075 288.038,-897.379"/>
</g>
<!-- Node25 -->
<g id="node61" class="node"><title>Node25</title>
<a xlink:href="class_urho3_d_1_1_p_o_d_vector.html" target="_top" xlink:title="Urho3D::PODVector\&lt;\l float \&gt;">
<polygon fill="none" stroke="black" points="910.5,-839.202 910.5,-873.202 1029.5,-873.202 1029.5,-839.202 910.5,-839.202"/>
<text text-anchor="start" x="918.5" y="-860.202" font-family="FreeSans" font-size="10.00">Urho3D::PODVector&lt;</text>
<text text-anchor="middle" x="970" y="-847.202" font-family="FreeSans" font-size="10.00"> float &gt;</text>
</a>
</g>
<!-- Node3&#45;&gt;Node25 -->
<g id="edge76" class="edge"><title>Node3&#45;&gt;Node25</title>
<path fill="none" stroke="midnightblue" d="M314.463,-912.444C432.14,-908.766 682.393,-898.238 892,-871.202 897.881,-870.443 903.987,-869.516 910.076,-868.499"/>
<polygon fill="midnightblue" stroke="midnightblue" points="314.064,-908.954 304.175,-912.758 314.278,-915.951 314.064,-908.954"/>
</g>
<!-- Node4&#45;&gt;Node1 -->
<g id="edge6" class="edge"><title>Node4&#45;&gt;Node1</title>
<path fill="none" stroke="#9a32cd" stroke-dasharray="5,2" d="M901.613,-917.002C960.819,-905.682 1048.07,-888.781 1124,-873.202 1133.89,-871.172 1144.47,-868.939 1154.57,-866.778"/>
<polygon fill="#9a32cd" stroke="#9a32cd" points="900.792,-913.595 891.626,-918.909 902.105,-920.471 900.792,-913.595"/>
<text text-anchor="middle" x="970" y="-933.202" font-family="FreeSans" font-size="10.00"> buttons_</text>
<text text-anchor="middle" x="970" y="-920.202" font-family="FreeSans" font-size="10.00">buttonPress_</text>
</g>
<!-- Node5 -->
<g id="node9" class="node"><title>Node5</title>
<a xlink:href="class_urho3_d_1_1_u_i_element.html" target="_top" xlink:title="Base class for UI elements.">
<polygon fill="none" stroke="black" points="915.5,-436.702 915.5,-457.702 1024.5,-457.702 1024.5,-436.702 915.5,-436.702"/>
<text text-anchor="middle" x="970" y="-444.702" font-family="FreeSans" font-size="10.00">Urho3D::UIElement</text>
</a>
</g>
<!-- Node5&#45;&gt;Node1 -->
<g id="edge10" class="edge"><title>Node5&#45;&gt;Node1</title>
<path fill="none" stroke="#9a32cd" stroke-dasharray="5,2" d="M981.102,-466.689C1022.25,-538.922 1165.32,-790.067 1196.83,-845.373"/>
<polygon fill="#9a32cd" stroke="#9a32cd" points="983.985,-464.679 975.994,-457.723 977.903,-468.144 983.985,-464.679"/>
<text text-anchor="middle" x="1086" y="-717.202" font-family="FreeSans" font-size="10.00"> screenJoystick_</text>
</g>
<!-- Node5&#45;&gt;Node5 -->
<g id="edge50" class="edge"><title>Node5&#45;&gt;Node5</title>
<path fill="none" stroke="#9a32cd" stroke-dasharray="5,2" d="M948.622,-467.628C950.272,-472.551 957.397,-476.202 970,-476.202 990.164,-476.202 996.308,-466.855 988.431,-457.91"/>
<polygon fill="#9a32cd" stroke="#9a32cd" points="952.017,-468.495 951.569,-457.91 945.318,-466.464 952.017,-468.495"/>
<text text-anchor="middle" x="970" y="-480.202" font-family="FreeSans" font-size="10.00"> parent_</text>
</g>
<!-- Node6 -->
<g id="node11" class="node"><title>Node6</title>
<a xlink:href="class_urho3_d_1_1_animatable.html" target="_top" xlink:title="Base class for animatable object, an animatable object can be set animation on it&#39;s attributes...">
<polygon fill="none" stroke="black" points="598,-368.702 598,-389.702 712,-389.702 712,-368.702 598,-368.702"/>
<text text-anchor="middle" x="655" y="-376.702" font-family="FreeSans" font-size="10.00">Urho3D::Animatable</text>
</a>
</g>
<!-- Node6&#45;&gt;Node5 -->
<g id="edge12" class="edge"><title>Node6&#45;&gt;Node5</title>
<path fill="none" stroke="midnightblue" d="M722.277,-389.575C769.959,-397.441 835.279,-409.259 892,-423.202 907.547,-427.023 924.567,-432.147 938.729,-436.679"/>
<polygon fill="midnightblue" stroke="midnightblue" points="722.813,-386.116 712.38,-387.957 721.684,-393.024 722.813,-386.116"/>
</g>
<!-- Node7 -->
<g id="node13" class="node"><title>Node7</title>
<a xlink:href="class_urho3_d_1_1_serializable.html" target="_top" xlink:title="Base class for objects with automatic serialization through attributes.">
<polygon fill="none" stroke="red" points="190,-221.702 190,-242.702 304,-242.702 304,-221.702 190,-221.702"/>
<text text-anchor="middle" x="247" y="-229.702" font-family="FreeSans" font-size="10.00">Urho3D::Serializable</text>
</a>
</g>
<!-- Node7&#45;&gt;Node6 -->
<g id="edge14" class="edge"><title>Node7&#45;&gt;Node6</title>
<path fill="none" stroke="midnightblue" d="M314.525,-224.857C380.176,-221.681 478.456,-228.055 538,-284.202 562.941,-307.719 531.326,-335.405 556,-359.202 567.233,-370.035 582.621,-375.753 597.918,-378.604"/>
<polygon fill="midnightblue" stroke="midnightblue" points="314.064,-221.378 304.28,-225.443 314.463,-228.366 314.064,-221.378"/>
</g>
<!-- Node8 -->
<g id="node15" class="node"><title>Node8</title>
<a xlink:href="class_urho3_d_1_1_object.html" target="_top" xlink:title="Base class for objects with type identification, subsystem access and event sending/receiving capabil...">
<polygon fill="none" stroke="red" points="9,-221.702 9,-242.702 99,-242.702 99,-221.702 9,-221.702"/>
<text text-anchor="middle" x="54" y="-229.702" font-family="FreeSans" font-size="10.00">Urho3D::Object</text>
</a>
</g>
<!-- Node8&#45;&gt;Node7 -->
<g id="edge16" class="edge"><title>Node8&#45;&gt;Node7</title>
<path fill="none" stroke="midnightblue" d="M109.395,-232.202C134.634,-232.202 164.485,-232.202 189.923,-232.202"/>
<polygon fill="midnightblue" stroke="midnightblue" points="109.25,-228.702 99.2499,-232.202 109.25,-235.702 109.25,-228.702"/>
</g>
<!-- Node9 -->
<g id="node17" class="node"><title>Node9</title>
<a xlink:href="class_urho3_d_1_1_hash_map.html" target="_top" xlink:title="Urho3D::HashMap\&lt; Urho3D\l::String, Urho3D::SharedPtr\l\&lt; Urho3D::AttributeAnimationInfo \&gt; \&gt;">
<polygon fill="none" stroke="black" points="146.5,-261.702 146.5,-308.702 347.5,-308.702 347.5,-261.702 146.5,-261.702"/>
<text text-anchor="start" x="154.5" y="-295.702" font-family="FreeSans" font-size="10.00">Urho3D::HashMap&lt; Urho3D</text>
<text text-anchor="start" x="154.5" y="-282.702" font-family="FreeSans" font-size="10.00">::String, Urho3D::SharedPtr</text>
<text text-anchor="middle" x="247" y="-269.702" font-family="FreeSans" font-size="10.00">&lt; Urho3D::AttributeAnimationInfo &gt; &gt;</text>
</a>
</g>
<!-- Node9&#45;&gt;Node6 -->
<g id="edge18" class="edge"><title>Node9&#45;&gt;Node6</title>
<path fill="none" stroke="#9a32cd" stroke-dasharray="5,2" d="M357.717,-285.968C415.011,-290.796 484.053,-303.855 538,-336.202 549.133,-342.877 544.954,-352.383 556,-359.202 568.533,-366.939 583.501,-371.752 597.955,-374.726"/>
<polygon fill="#9a32cd" stroke="#9a32cd" points="357.769,-282.462 347.53,-285.185 357.233,-289.441 357.769,-282.462"/>
<text text-anchor="middle" x="452" y="-340.202" font-family="FreeSans" font-size="10.00"> attributeAnimationInfos_</text>
</g>
<!-- Node10 -->
<g id="node19" class="node"><title>Node10</title>
<a xlink:href="class_urho3_d_1_1_hash_base.html" target="_top" xlink:title="Hash set/map base class.">
<polygon fill="none" stroke="red" points="0,-333.702 0,-354.702 108,-354.702 108,-333.702 0,-333.702"/>
<text text-anchor="middle" x="54" y="-341.702" font-family="FreeSans" font-size="10.00">Urho3D::HashBase</text>
</a>
</g>
<!-- Node10&#45;&gt;Node9 -->
<g id="edge20" class="edge"><title>Node10&#45;&gt;Node9</title>
<path fill="none" stroke="midnightblue" d="M98.2164,-330.685C119.481,-324.184 145.598,-316.2 169.982,-308.746"/>
<polygon fill="midnightblue" stroke="midnightblue" points="97.0444,-327.383 88.5045,-333.654 99.0909,-334.077 97.0444,-327.383"/>
</g>
<!-- Node12 -->
<g id="node23" class="node"><title>Node12</title>
<a xlink:href="class_urho3_d_1_1_hash_set.html" target="_top" xlink:title="Urho3D::HashSet\&lt; const\l Urho3D::AttributeInfo * \&gt;">
<polygon fill="none" stroke="black" points="176.5,-327.202 176.5,-361.202 317.5,-361.202 317.5,-327.202 176.5,-327.202"/>
<text text-anchor="start" x="184.5" y="-348.202" font-family="FreeSans" font-size="10.00">Urho3D::HashSet&lt; const</text>
<text text-anchor="middle" x="247" y="-335.202" font-family="FreeSans" font-size="10.00"> Urho3D::AttributeInfo * &gt;</text>
</a>
</g>
<!-- Node10&#45;&gt;Node12 -->
<g id="edge26" class="edge"><title>Node10&#45;&gt;Node12</title>
<path fill="none" stroke="midnightblue" d="M118.179,-344.202C136.844,-344.202 157.333,-344.202 176.372,-344.202"/>
<polygon fill="midnightblue" stroke="midnightblue" points="118.018,-340.702 108.018,-344.202 118.018,-347.702 118.018,-340.702"/>
</g>
<!-- Node19 -->
<g id="node41" class="node"><title>Node19</title>
<a xlink:href="class_urho3_d_1_1_hash_map.html" target="_top" xlink:title="Urho3D::HashMap\&lt; StringHash,\l Variant \&gt;">
<polygon fill="none" stroke="black" points="366,-514.202 366,-548.202 538,-548.202 538,-514.202 366,-514.202"/>
<text text-anchor="start" x="374" y="-535.202" font-family="FreeSans" font-size="10.00">Urho3D::HashMap&lt; StringHash,</text>
<text text-anchor="middle" x="452" y="-522.202" font-family="FreeSans" font-size="10.00"> Variant &gt;</text>
</a>
</g>
<!-- Node10&#45;&gt;Node19 -->
<g id="edge48" class="edge"><title>Node10&#45;&gt;Node19</title>
<path fill="none" stroke="midnightblue" d="M58.9024,-364.836C68.6391,-400.76 94.1039,-474.113 146,-507.202 211.039,-548.671 300.359,-550.917 365.709,-545.038"/>
<polygon fill="midnightblue" stroke="midnightblue" points="62.2481,-363.792 56.3738,-354.975 55.4674,-365.531 62.2481,-363.792"/>
</g>
<!-- Node11 -->
<g id="node21" class="node"><title>Node11</title>
<a xlink:href="class_urho3_d_1_1_shared_ptr.html" target="_top" xlink:title="Urho3D::SharedPtr\&lt;\l Urho3D::ObjectAnimation \&gt;">
<polygon fill="none" stroke="red" points="170.5,-379.202 170.5,-413.202 323.5,-413.202 323.5,-379.202 170.5,-379.202"/>
<text text-anchor="start" x="178.5" y="-400.202" font-family="FreeSans" font-size="10.00">Urho3D::SharedPtr&lt;</text>
<text text-anchor="middle" x="247" y="-387.202" font-family="FreeSans" font-size="10.00"> Urho3D::ObjectAnimation &gt;</text>
</a>
</g>
<!-- Node11&#45;&gt;Node6 -->
<g id="edge22" class="edge"><title>Node11&#45;&gt;Node6</title>
<path fill="none" stroke="#9a32cd" stroke-dasharray="5,2" d="M334.065,-390.837C344.819,-390.246 355.66,-389.685 366,-389.202 446.489,-385.442 539.65,-382.466 597.955,-380.769"/>
<polygon fill="#9a32cd" stroke="#9a32cd" points="333.591,-387.358 323.802,-391.411 333.982,-394.347 333.591,-387.358"/>
<text text-anchor="middle" x="452" y="-393.202" font-family="FreeSans" font-size="10.00"> objectAnimation_</text>
</g>
<!-- Node12&#45;&gt;Node6 -->
<g id="edge24" class="edge"><title>Node12&#45;&gt;Node6</title>
<path fill="none" stroke="#9a32cd" stroke-dasharray="5,2" d="M327.897,-349.551C386.323,-353.601 467.093,-359.584 538,-366.202 557.535,-368.025 578.872,-370.309 597.912,-372.452"/>
<polygon fill="#9a32cd" stroke="#9a32cd" points="327.839,-346.039 317.622,-348.843 327.357,-353.022 327.839,-346.039"/>
<text text-anchor="middle" x="452" y="-370.202" font-family="FreeSans" font-size="10.00"> animatedNetworkAttributes_</text>
</g>
<!-- Node13 -->
<g id="node26" class="node"><title>Node13</title>
<a xlink:href="class_urho3_d_1_1_weak_ptr.html" target="_top" xlink:title="Urho3D::WeakPtr\&lt; Urho3D\l::XMLFile \&gt;">
<polygon fill="none" stroke="black" points="582,-408.202 582,-442.202 728,-442.202 728,-408.202 582,-408.202"/>
<text text-anchor="start" x="590" y="-429.202" font-family="FreeSans" font-size="10.00">Urho3D::WeakPtr&lt; Urho3D</text>
<text text-anchor="middle" x="655" y="-416.202" font-family="FreeSans" font-size="10.00">::XMLFile &gt;</text>
</a>
</g>
<!-- Node13&#45;&gt;Node5 -->
<g id="edge28" class="edge"><title>Node13&#45;&gt;Node5</title>
<path fill="none" stroke="#9a32cd" stroke-dasharray="5,2" d="M738.159,-425.776C783.694,-426.74 841.064,-429.011 892,-434.202 899.512,-434.967 907.396,-436.004 915.146,-437.16"/>
<polygon fill="#9a32cd" stroke="#9a32cd" points="738.104,-422.274 728.038,-425.579 737.968,-429.273 738.104,-422.274"/>
<text text-anchor="middle" x="832" y="-438.202" font-family="FreeSans" font-size="10.00"> appliedStyleFile_</text>
</g>
<!-- Node14 -->
<g id="node28" class="node"><title>Node14</title>
<a xlink:href="class_urho3_d_1_1_x_m_l_file.html" target="_top" xlink:title="XML document resource.">
<polygon fill="none" stroke="red" points="200,-476.702 200,-497.702 294,-497.702 294,-476.702 200,-476.702"/>
<text text-anchor="middle" x="247" y="-484.702" font-family="FreeSans" font-size="10.00">Urho3D::XMLFile</text>
</a>
</g>
<!-- Node14&#45;&gt;Node13 -->
<g id="edge30" class="edge"><title>Node14&#45;&gt;Node13</title>
<path fill="none" stroke="#9a32cd" stroke-dasharray="5,2" d="M304.051,-474.873C323.637,-470.86 345.729,-466.575 366,-463.202 439.132,-451.034 523.206,-440.348 581.749,-433.433"/>
<polygon fill="#9a32cd" stroke="#9a32cd" points="303.143,-471.486 294.06,-476.941 304.562,-478.341 303.143,-471.486"/>
<text text-anchor="middle" x="452" y="-467.202" font-family="FreeSans" font-size="10.00"> ptr_</text>
</g>
<!-- Node22 -->
<g id="node51" class="node"><title>Node22</title>
<a xlink:href="class_urho3_d_1_1_shared_ptr.html" target="_top" xlink:title="Urho3D::SharedPtr\&lt;\l Urho3D::XMLFile \&gt;">
<polygon fill="none" stroke="black" points="597,-460.202 597,-494.202 713,-494.202 713,-460.202 597,-460.202"/>
<text text-anchor="start" x="605" y="-481.202" font-family="FreeSans" font-size="10.00">Urho3D::SharedPtr&lt;</text>
<text text-anchor="middle" x="655" y="-468.202" font-family="FreeSans" font-size="10.00"> Urho3D::XMLFile &gt;</text>
</a>
</g>
<!-- Node14&#45;&gt;Node22 -->
<g id="edge62" class="edge"><title>Node14&#45;&gt;Node22</title>
<path fill="none" stroke="#9a32cd" stroke-dasharray="5,2" d="M304.252,-485.799C381.633,-483.902 518.861,-480.539 596.752,-478.629"/>
<polygon fill="#9a32cd" stroke="#9a32cd" points="304.113,-482.301 294.201,-486.045 304.284,-489.299 304.113,-482.301"/>
<text text-anchor="middle" x="452" y="-489.202" font-family="FreeSans" font-size="10.00"> ptr_</text>
</g>
<!-- Node15 -->
<g id="node30" class="node"><title>Node15</title>
<a xlink:href="struct_urho3_d_1_1_ref_count.html" target="_top" xlink:title="Reference count structure.">
<polygon fill="none" stroke="black" points="196,-431.702 196,-452.702 298,-452.702 298,-431.702 196,-431.702"/>
<text text-anchor="middle" x="247" y="-439.702" font-family="FreeSans" font-size="10.00">Urho3D::RefCount</text>
</a>
</g>
<!-- Node15&#45;&gt;Node13 -->
<g id="edge32" class="edge"><title>Node15&#45;&gt;Node13</title>
<path fill="none" stroke="#9a32cd" stroke-dasharray="5,2" d="M308.154,-431.77C326.678,-429.069 347.118,-426.544 366,-425.202 439.319,-419.991 523.366,-420.744 581.852,-422.342"/>
<polygon fill="#9a32cd" stroke="#9a32cd" points="307.451,-428.336 298.082,-433.283 308.49,-435.259 307.451,-428.336"/>
<text text-anchor="middle" x="452" y="-429.202" font-family="FreeSans" font-size="10.00"> refCount_</text>
</g>
<!-- Node16 -->
<g id="node32" class="node"><title>Node16</title>
<a xlink:href="class_urho3_d_1_1_int_rect.html" target="_top" xlink:title="Two&#45;dimensional bounding rectangle with integer values.">
<polygon fill="none" stroke="black" points="609,-297.702 609,-318.702 701,-318.702 701,-297.702 609,-297.702"/>
<text text-anchor="middle" x="655" y="-305.702" font-family="FreeSans" font-size="10.00">Urho3D::IntRect</text>
</a>
</g>
<!-- Node16&#45;&gt;Node5 -->
<g id="edge34" class="edge"><title>Node16&#45;&gt;Node5</title>
<path fill="none" stroke="#9a32cd" stroke-dasharray="5,2" d="M711.386,-314.17C761.502,-321.396 835.386,-336.887 892,-369.202 922.77,-386.764 949.802,-419.678 962.429,-436.583"/>
<polygon fill="#9a32cd" stroke="#9a32cd" points="711.764,-310.689 701.379,-312.791 710.808,-317.623 711.764,-310.689"/>
<text text-anchor="middle" x="832" y="-386.202" font-family="FreeSans" font-size="10.00"> clipBorder_</text>
<text text-anchor="middle" x="832" y="-373.202" font-family="FreeSans" font-size="10.00">layoutBorder_</text>
</g>
<!-- Node16&#45;&gt;Node16 -->
<g id="edge36" class="edge"><title>Node16&#45;&gt;Node16</title>
<path fill="none" stroke="#9a32cd" stroke-dasharray="5,2" d="M622.252,-327.881C624.007,-333.176 634.923,-337.202 655,-337.202 685.594,-337.202 694.915,-327.855 682.965,-318.91"/>
<polygon fill="#9a32cd" stroke="#9a32cd" points="625.419,-329.38 627.035,-318.91 619.242,-326.087 625.419,-329.38"/>
<text text-anchor="middle" x="655" y="-341.202" font-family="FreeSans" font-size="10.00"> ZERO</text>
</g>
<!-- Node17&#45;&gt;Node5 -->
<g id="edge38" class="edge"><title>Node17&#45;&gt;Node5</title>
<path fill="none" stroke="#9a32cd" stroke-dasharray="5,2" d="M763.666,-854.566C808.8,-850.63 858.381,-837.929 892,-805.202 943.734,-754.841 965.05,-512.307 969.216,-458.004"/>
<polygon fill="#9a32cd" stroke="#9a32cd" points="763.227,-851.088 753.51,-855.313 763.74,-858.069 763.227,-851.088"/>
<text text-anchor="middle" x="832" y="-858.202" font-family="FreeSans" font-size="10.00"> children_</text>
</g>
<!-- Node18 -->
<g id="node38" class="node"><title>Node18</title>
<a xlink:href="class_urho3_d_1_1_vector2.html" target="_top" xlink:title="Two&#45;dimensional vector.">
<polygon fill="none" stroke="black" points="607,-161.702 607,-182.702 703,-182.702 703,-161.702 607,-161.702"/>
<text text-anchor="middle" x="655" y="-169.702" font-family="FreeSans" font-size="10.00">Urho3D::Vector2</text>
</a>
</g>
<!-- Node18&#45;&gt;Node5 -->
<g id="edge42" class="edge"><title>Node18&#45;&gt;Node5</title>
<path fill="none" stroke="#9a32cd" stroke-dasharray="5,2" d="M692.913,-186.642C743.417,-207.409 833.214,-249.844 892,-309.202 931.118,-348.701 957.067,-411.787 966.274,-436.644"/>
<polygon fill="#9a32cd" stroke="#9a32cd" points="693.939,-183.282 683.357,-182.78 691.316,-189.772 693.939,-183.282"/>
<text text-anchor="middle" x="832" y="-313.202" font-family="FreeSans" font-size="10.00"> layoutFlexScale_</text>
</g>
<!-- Node18&#45;&gt;Node18 -->
<g id="edge44" class="edge"><title>Node18&#45;&gt;Node18</title>
<path fill="none" stroke="#9a32cd" stroke-dasharray="5,2" d="M622.252,-191.881C624.007,-197.176 634.923,-201.202 655,-201.202 685.594,-201.202 694.915,-191.855 682.965,-182.91"/>
<polygon fill="#9a32cd" stroke="#9a32cd" points="625.419,-193.38 627.035,-182.91 619.242,-190.087 625.419,-193.38"/>
<text text-anchor="middle" x="655" y="-270.202" font-family="FreeSans" font-size="10.00"> ONE</text>
<text text-anchor="middle" x="655" y="-257.202" font-family="FreeSans" font-size="10.00">DOWN</text>
<text text-anchor="middle" x="655" y="-244.202" font-family="FreeSans" font-size="10.00">RIGHT</text>
<text text-anchor="middle" x="655" y="-231.202" font-family="FreeSans" font-size="10.00">LEFT</text>
<text text-anchor="middle" x="655" y="-218.202" font-family="FreeSans" font-size="10.00">ZERO</text>
<text text-anchor="middle" x="655" y="-205.202" font-family="FreeSans" font-size="10.00">UP</text>
</g>
<!-- Node19&#45;&gt;Node5 -->
<g id="edge46" class="edge"><title>Node19&#45;&gt;Node5</title>
<path fill="none" stroke="#9a32cd" stroke-dasharray="5,2" d="M548.373,-530.545C638.842,-527.64 777.078,-517.267 892,-483.202 913.02,-476.971 935.619,-466.026 951.052,-457.835"/>
<polygon fill="#9a32cd" stroke="#9a32cd" points="548.022,-527.054 538.13,-530.849 548.229,-534.051 548.022,-527.054"/>
<text text-anchor="middle" x="655" y="-534.202" font-family="FreeSans" font-size="10.00"> vars_</text>
</g>
<!-- Node20 -->
<g id="node45" class="node"><title>Node20</title>
<a xlink:href="class_urho3_d_1_1_string.html" target="_top" xlink:title="String class.">
<polygon fill="none" stroke="black" points="203,-66.7018 203,-87.7018 291,-87.7018 291,-66.7018 203,-66.7018"/>
<text text-anchor="middle" x="247" y="-74.7018" font-family="FreeSans" font-size="10.00">Urho3D::String</text>
</a>
</g>
<!-- Node20&#45;&gt;Node1 -->
<g id="edge72" class="edge"><title>Node20&#45;&gt;Node1</title>
<path fill="none" stroke="#9a32cd" stroke-dasharray="5,2" d="M284.55,-63.2907C391.253,-26.373 700.853,62.331 892,-73.2018 1172.69,-272.229 1200.13,-766.678 1202.73,-845.526"/>
<polygon fill="#9a32cd" stroke="#9a32cd" points="283.143,-60.0753 274.869,-66.6924 285.463,-66.6796 283.143,-60.0753"/>
<text text-anchor="middle" x="832" y="-77.2018" font-family="FreeSans" font-size="10.00"> name_</text>
</g>
<!-- Node20&#45;&gt;Node5 -->
<g id="edge52" class="edge"><title>Node20&#45;&gt;Node5</title>
<path fill="none" stroke="#9a32cd" stroke-dasharray="5,2" d="M301.102,-71.5355C394.635,-63.202 592.095,-52.0632 754,-86.2018 819.099,-99.9283 848.51,-93.8537 892,-144.202 931.857,-190.345 961.794,-388.578 968.558,-436.664"/>
<polygon fill="#9a32cd" stroke="#9a32cd" points="300.668,-68.0605 291.029,-72.4583 301.307,-75.0313 300.668,-68.0605"/>
<text text-anchor="middle" x="655" y="-103.202" font-family="FreeSans" font-size="10.00"> appliedStyle_</text>
<text text-anchor="middle" x="655" y="-90.2018" font-family="FreeSans" font-size="10.00">name_</text>
</g>
<!-- Node20&#45;&gt;Node20 -->
<g id="edge54" class="edge"><title>Node20&#45;&gt;Node20</title>
<path fill="none" stroke="#9a32cd" stroke-dasharray="5,2" d="M224.885,-97.6284C226.591,-102.551 233.963,-106.202 247,-106.202 267.859,-106.202 274.215,-96.8549 266.067,-87.9096"/>
<polygon fill="#9a32cd" stroke="#9a32cd" points="228.28,-98.4988 227.933,-87.9096 221.601,-96.404 228.28,-98.4988"/>
<text text-anchor="middle" x="247" y="-110.202" font-family="FreeSans" font-size="10.00"> EMPTY</text>
</g>
<!-- Node21 -->
<g id="node48" class="node"><title>Node21</title>
<a xlink:href="class_urho3_d_1_1_x_path_query.html" target="_top" xlink:title="XPath query.">
<polygon fill="none" stroke="black" points="597.5,-121.702 597.5,-142.702 712.5,-142.702 712.5,-121.702 597.5,-121.702"/>
<text text-anchor="middle" x="655" y="-129.702" font-family="FreeSans" font-size="10.00">Urho3D::XPathQuery</text>
</a>
</g>
<!-- Node20&#45;&gt;Node21 -->
<g id="edge58" class="edge"><title>Node20&#45;&gt;Node21</title>
<path fill="none" stroke="#9a32cd" stroke-dasharray="5,2" d="M301.02,-84.484C377.979,-94.8583 518.567,-113.81 597.429,-124.441"/>
<polygon fill="#9a32cd" stroke="#9a32cd" points="301.429,-81.0074 291.051,-83.14 300.494,-87.9447 301.429,-81.0074"/>
<text text-anchor="middle" x="452" y="-120.202" font-family="FreeSans" font-size="10.00"> queryString_</text>
</g>
<!-- Node21&#45;&gt;Node5 -->
<g id="edge56" class="edge"><title>Node21&#45;&gt;Node5</title>
<path fill="none" stroke="#9a32cd" stroke-dasharray="5,2" d="M722.774,-136.989C776.133,-144.395 848.526,-163.106 892,-210.202 955.464,-278.952 967.362,-400.41 969.53,-436.687"/>
<polygon fill="#9a32cd" stroke="#9a32cd" points="723.072,-133.499 712.707,-135.693 722.178,-140.441 723.072,-133.499"/>
<text text-anchor="middle" x="832" y="-214.202" font-family="FreeSans" font-size="10.00"> styleXPathQuery_</text>
</g>
<!-- Node22&#45;&gt;Node5 -->
<g id="edge60" class="edge"><title>Node22&#45;&gt;Node5</title>
<path fill="none" stroke="#9a32cd" stroke-dasharray="5,2" d="M723.239,-470.703C780.777,-465.223 862.042,-457.484 915.358,-452.406"/>
<polygon fill="#9a32cd" stroke="#9a32cd" points="722.766,-467.232 713.143,-471.664 723.43,-474.2 722.766,-467.232"/>
<text text-anchor="middle" x="832" y="-470.202" font-family="FreeSans" font-size="10.00"> defaultStyle_</text>
</g>
<!-- Node23 -->
<g id="node54" class="node"><title>Node23</title>
<a xlink:href="class_urho3_d_1_1_int_vector2.html" target="_top" xlink:title="Two&#45;dimensional vector with integer values.">
<polygon fill="none" stroke="black" points="601,-762.702 601,-783.702 709,-783.702 709,-762.702 601,-762.702"/>
<text text-anchor="middle" x="655" y="-770.702" font-family="FreeSans" font-size="10.00">Urho3D::IntVector2</text>
</a>
</g>
<!-- Node23&#45;&gt;Node5 -->
<g id="edge64" class="edge"><title>Node23&#45;&gt;Node5</title>
<path fill="none" stroke="#9a32cd" stroke-dasharray="5,2" d="M718.9,-770.828C731.794,-767.638 744.338,-762.202 754,-753.202 775.933,-732.769 754.565,-712.586 772,-688.202 809.572,-635.657 849.713,-655.032 892,-606.202 933.263,-558.554 958.458,-485.258 966.859,-457.946"/>
<polygon fill="#9a32cd" stroke="#9a32cd" points="718.108,-767.417 709.013,-772.851 719.512,-774.275 718.108,-767.417"/>
<text text-anchor="middle" x="832" y="-796.202" font-family="FreeSans" font-size="10.00"> maxSize_</text>
<text text-anchor="middle" x="832" y="-783.202" font-family="FreeSans" font-size="10.00">childOffset_</text>
<text text-anchor="middle" x="832" y="-770.202" font-family="FreeSans" font-size="10.00">size_</text>
<text text-anchor="middle" x="832" y="-757.202" font-family="FreeSans" font-size="10.00">position_</text>
<text text-anchor="start" x="797" y="-744.202" font-family="FreeSans" font-size="10.00">screenPosition</text>
<text text-anchor="middle" x="832" y="-731.202" font-family="FreeSans" font-size="10.00">_</text>
<text text-anchor="start" x="797" y="-718.202" font-family="FreeSans" font-size="10.00">layoutMinSize</text>
<text text-anchor="middle" x="832" y="-705.202" font-family="FreeSans" font-size="10.00">_</text>
<text text-anchor="middle" x="832" y="-692.202" font-family="FreeSans" font-size="10.00">minSize_</text>
</g>
<!-- Node23&#45;&gt;Node23 -->
<g id="edge66" class="edge"><title>Node23&#45;&gt;Node23</title>
<path fill="none" stroke="#9a32cd" stroke-dasharray="5,2" d="M622.252,-792.881C624.007,-798.176 634.923,-802.202 655,-802.202 685.594,-802.202 694.915,-792.855 682.965,-783.91"/>
<polygon fill="#9a32cd" stroke="#9a32cd" points="625.419,-794.38 627.035,-783.91 619.242,-791.087 625.419,-794.38"/>
<text text-anchor="middle" x="655" y="-806.202" font-family="FreeSans" font-size="10.00"> ZERO</text>
</g>
<!-- Node24 -->
<g id="node57" class="node"><title>Node24</title>
<a xlink:href="class_urho3_d_1_1_color.html" target="_top" xlink:title="RGBA color.">
<polygon fill="none" stroke="black" points="613,-561.702 613,-582.702 697,-582.702 697,-561.702 613,-561.702"/>
<text text-anchor="middle" x="655" y="-569.702" font-family="FreeSans" font-size="10.00">Urho3D::Color</text>
</a>
</g>
<!-- Node24&#45;&gt;Node5 -->
<g id="edge68" class="edge"><title>Node24&#45;&gt;Node5</title>
<path fill="none" stroke="#9a32cd" stroke-dasharray="5,2" d="M707.321,-576.967C757.768,-579.145 834.688,-575.927 892,-544.202 928.678,-523.898 954.56,-478.662 964.945,-457.942"/>
<polygon fill="#9a32cd" stroke="#9a32cd" points="707.454,-573.47 697.286,-576.448 707.092,-580.46 707.454,-573.47"/>
<text text-anchor="middle" x="832" y="-593.202" font-family="FreeSans" font-size="10.00"> derivedColor_</text>
<text text-anchor="middle" x="832" y="-580.202" font-family="FreeSans" font-size="10.00">color_</text>
</g>
<!-- Node24&#45;&gt;Node24 -->
<g id="edge70" class="edge"><title>Node24&#45;&gt;Node24</title>
<path fill="none" stroke="#9a32cd" stroke-dasharray="5,2" d="M622.252,-591.881C624.007,-597.176 634.923,-601.202 655,-601.202 685.594,-601.202 694.915,-591.855 682.965,-582.91"/>
<polygon fill="#9a32cd" stroke="#9a32cd" points="625.419,-593.38 627.035,-582.91 619.242,-590.087 625.419,-593.38"/>
<text text-anchor="middle" x="655" y="-735.202" font-family="FreeSans" font-size="10.00"> CYAN</text>
<text text-anchor="middle" x="655" y="-722.202" font-family="FreeSans" font-size="10.00">GRAY</text>
<text text-anchor="middle" x="655" y="-709.202" font-family="FreeSans" font-size="10.00">YELLOW</text>
<text text-anchor="middle" x="655" y="-696.202" font-family="FreeSans" font-size="10.00">MAGENTA</text>
<text text-anchor="middle" x="655" y="-683.202" font-family="FreeSans" font-size="10.00">WHITE</text>
<text text-anchor="middle" x="655" y="-670.202" font-family="FreeSans" font-size="10.00">TRANSPARENT</text>
<text text-anchor="middle" x="655" y="-657.202" font-family="FreeSans" font-size="10.00">BLUE</text>
<text text-anchor="middle" x="655" y="-644.202" font-family="FreeSans" font-size="10.00">BLACK</text>
<text text-anchor="middle" x="655" y="-631.202" font-family="FreeSans" font-size="10.00">RED</text>
<text text-anchor="middle" x="655" y="-618.202" font-family="FreeSans" font-size="10.00">GREEN</text>
<text text-anchor="middle" x="655" y="-605.202" font-family="FreeSans" font-size="10.00">...</text>
</g>
<!-- Node25&#45;&gt;Node1 -->
<g id="edge74" class="edge"><title>Node25&#45;&gt;Node1</title>
<path fill="none" stroke="#9a32cd" stroke-dasharray="5,2" d="M1040.05,-856.202C1072.6,-856.202 1110.93,-856.202 1142.24,-856.202"/>
<polygon fill="#9a32cd" stroke="#9a32cd" points="1039.7,-852.702 1029.7,-856.202 1039.7,-859.702 1039.7,-852.702"/>
<text text-anchor="middle" x="1086" y="-860.202" font-family="FreeSans" font-size="10.00"> axes_</text>
</g>
</g>
</svg>
        <g id="navigator" transform="translate(0 0)" fill="#404254">
                <rect fill="#f2f5e9" fill-opacity="0.5" stroke="#606060" stroke-width=".5" x="0" y="0" width="60" height="60"/>
                <use id="zoomplus" xlink:href="#zoomPlus" x="17" y="9" onmousedown="handleZoom(evt,'in')"/>
                <use id="zoomminus" xlink:href="#zoomMin" x="42" y="9" onmousedown="handleZoom(evt,'out')"/>
                <use id="reset" xlink:href="#resetDef" x="30" y="36" onmousedown="handleReset()"/>
                <g id="arrowUp" xlink:href="#dirArrow" transform="translate(30 24)" onmousedown="handlePan(0,-1)">
                  <use xlink:href="#rim" fill="#404040">
                        <set attributeName="fill" to="#808080" begin="arrowUp.mouseover" end="arrowUp.mouseout"/>
                  </use>
                  <path fill="none" stroke="white" stroke-width="1.5" d="M0,-3.0v7 M-2.5,-0.5L0,-3.0L2.5,-0.5"/>
                </g>
                <g id="arrowRight" xlink:href="#dirArrow" transform="rotate(90) translate(36 -43)" onmousedown="handlePan(1,0)">
                  <use xlink:href="#rim" fill="#404040">
                        <set attributeName="fill" to="#808080" begin="arrowRight.mouseover" end="arrowRight.mouseout"/>
                  </use>
                  <path fill="none" stroke="white" stroke-width="1.5" d="M0,-3.0v7 M-2.5,-0.5L0,-3.0L2.5,-0.5"/>
                </g>
                <g id="arrowDown" xlink:href="#dirArrow" transform="rotate(180) translate(-30 -48)" onmousedown="handlePan(0,1)">
                  <use xlink:href="#rim" fill="#404040">
                        <set attributeName="fill" to="#808080" begin="arrowDown.mouseover" end="arrowDown.mouseout"/>
                  </use>
                  <path fill="none" stroke="white" stroke-width="1.5" d="M0,-3.0v7 M-2.5,-0.5L0,-3.0L2.5,-0.5"/>
                </g>
                <g id="arrowLeft" xlink:href="#dirArrow" transform="rotate(270) translate(-36 17)" onmousedown="handlePan(-1,0)">
                  <use xlink:href="#rim" fill="#404040">
                        <set attributeName="fill" to="#808080" begin="arrowLeft.mouseover" end="arrowLeft.mouseout"/>
                  </use>
                  <path fill="none" stroke="white" stroke-width="1.5" d="M0,-3.0v7 M-2.5,-0.5L0,-3.0L2.5,-0.5"/>
                </g>
        </g>
        <svg viewBox="0 0 15 15" width="100%" height="30px" preserveAspectRatio="xMaxYMin meet">
         <g id="arrow_out" transform="scale(0.3 0.3)">
          <a xlink:href="struct_urho3_d_1_1_joystick_state__coll__graph_org.svg" target="_base">
           <rect id="button" ry="5" rx="5" y="6" x="6" height="38" width="38"
                fill="#f2f5e9" fill-opacity="0.5" stroke="#606060" stroke-width="1.0"/>
           <path id="arrow"
             d="M 11.500037,31.436501 C 11.940474,20.09759 22.043105,11.32322 32.158766,21.979434 L 37.068811,17.246167 C 37.068811,17.246167 37.088388,32 37.088388,32 L 22.160133,31.978069 C 22.160133,31.978069 26.997745,27.140456 26.997745,27.140456 C 18.528582,18.264221 13.291696,25.230495 11.500037,31.436501 z"
             style="fill:#404040;"/>
          </a>
         </g>
        </svg>
</svg>
