<?xml version="1.0" encoding="UTF-8" standalone="no"?>
<!DOCTYPE svg PUBLIC "-//W3C//DTD SVG 1.1//EN"
 "http://www.w3.org/Graphics/SVG/1.1/DTD/svg11.dtd">
<!-- Generated by graphviz version 2.26.3 (20100126.1600)
 -->
<!-- Title: Urho3D::Script Pages: 1 -->
<svg width="1452pt" height="857pt"
 viewBox="0.00 0.00 1452.00 857.00" xmlns="http://www.w3.org/2000/svg" xmlns:xlink="http://www.w3.org/1999/xlink">
<g id="graph1" class="graph" transform="scale(1 1) rotate(0) translate(4 853)">
<title>Urho3D::Script</title>
<!-- Node1 -->
<g id="node1" class="node"><title>Node1</title>
<polygon fill="#bfbfbf" stroke="black" points="1356.5,-649.5 1356.5,-670.5 1443.5,-670.5 1443.5,-649.5 1356.5,-649.5"/>
<text text-anchor="middle" x="1400" y="-657.5" font-family="FreeSans" font-size="10.00">Urho3D::Script</text>
</g>
<!-- Node2 -->
<g id="node2" class="node"><title>Node2</title>
<a xlink:href="class_urho3_d_1_1_object.html" target="_top" xlink:title="Base class for objects with type identification, subsystem access and event sending/receiving capabil...">
<polygon fill="none" stroke="black" points="413,-116.5 413,-137.5 503,-137.5 503,-116.5 413,-116.5"/>
<text text-anchor="middle" x="458" y="-124.5" font-family="FreeSans" font-size="10.00">Urho3D::Object</text>
</a>
</g>
<!-- Node2&#45;&gt;Node1 -->
<g id="edge2" class="edge"><title>Node2&#45;&gt;Node1</title>
<path fill="none" stroke="midnightblue" d="M513.117,-116.344C673.072,-86.7335 1133.28,-11.2269 1248,-99 1341.56,-170.587 1390.9,-578.304 1398.85,-649.42"/>
<polygon fill="midnightblue" stroke="midnightblue" points="512.212,-112.953 503.022,-118.226 513.494,-119.834 512.212,-112.953"/>
</g>
<!-- Node8 -->
<g id="node15" class="node"><title>Node8</title>
<a xlink:href="class_urho3_d_1_1_event_handler.html" target="_top" xlink:title="Internal helper class for invoking event handler functions.">
<polygon fill="none" stroke="red" points="791,-139.5 791,-160.5 915,-160.5 915,-139.5 791,-139.5"/>
<text text-anchor="middle" x="853" y="-147.5" font-family="FreeSans" font-size="10.00">Urho3D::EventHandler</text>
</a>
</g>
<!-- Node2&#45;&gt;Node8 -->
<g id="edge18" class="edge"><title>Node2&#45;&gt;Node8</title>
<path fill="none" stroke="#9a32cd" stroke-dasharray="5,2" d="M513.68,-130.242C586.733,-134.496 714.566,-141.939 790.745,-146.375"/>
<polygon fill="#9a32cd" stroke="#9a32cd" points="513.498,-126.726 503.312,-129.638 513.091,-133.714 513.498,-126.726"/>
<text text-anchor="middle" x="665" y="-162" font-family="FreeSans" font-size="10.00"> sender_</text>
<text text-anchor="middle" x="665" y="-149" font-family="FreeSans" font-size="10.00">receiver_</text>
</g>
<!-- Node22 -->
<g id="node54" class="node"><title>Node22</title>
<a xlink:href="class_urho3_d_1_1_resource_router.html" target="_top" xlink:title="Optional resource request processor. Can deny requests, re&#45;route resource file names, or perform other processing per request.">
<polygon fill="none" stroke="black" points="786,-11.5 786,-32.5 920,-32.5 920,-11.5 786,-11.5"/>
<text text-anchor="middle" x="853" y="-19.5" font-family="FreeSans" font-size="10.00">Urho3D::ResourceRouter</text>
</a>
</g>
<!-- Node2&#45;&gt;Node22 -->
<g id="edge68" class="edge"><title>Node2&#45;&gt;Node22</title>
<path fill="none" stroke="midnightblue" d="M474.774,-109.35C493.898,-90.5029 527.062,-61.526 562,-48 634.844,-19.7995 725.354,-16.1189 785.915,-17.6628"/>
<polygon fill="midnightblue" stroke="midnightblue" points="472.248,-106.927 467.701,-116.497 477.223,-111.851 472.248,-106.927"/>
</g>
<!-- Node3 -->
<g id="node4" class="node"><title>Node3</title>
<a xlink:href="class_urho3_d_1_1_ref_counted.html" target="_top" xlink:title="Base class for intrusively reference&#45;counted objects. These are noncopyable and non&#45;assignable.">
<polygon fill="none" stroke="black" points="204,-227.5 204,-248.5 318,-248.5 318,-227.5 204,-227.5"/>
<text text-anchor="middle" x="261" y="-235.5" font-family="FreeSans" font-size="10.00">Urho3D::RefCounted</text>
</a>
</g>
<!-- Node3&#45;&gt;Node2 -->
<g id="edge4" class="edge"><title>Node3&#45;&gt;Node2</title>
<path fill="none" stroke="midnightblue" d="M288.744,-222.368C329.445,-199.435 404.278,-157.27 439.168,-137.611"/>
<polygon fill="midnightblue" stroke="midnightblue" points="286.883,-219.399 279.889,-227.357 290.32,-225.497 286.883,-219.399"/>
</g>
<!-- Node5 -->
<g id="node8" class="node"><title>Node5</title>
<a xlink:href="class_urho3_d_1_1_context.html" target="_top" xlink:title="Urho3D execution context. Provides access to subsystems, object factories and attributes, and event receivers.">
<polygon fill="none" stroke="red" points="1125.5,-346.5 1125.5,-367.5 1222.5,-367.5 1222.5,-346.5 1125.5,-346.5"/>
<text text-anchor="middle" x="1174" y="-354.5" font-family="FreeSans" font-size="10.00">Urho3D::Context</text>
</a>
</g>
<!-- Node3&#45;&gt;Node5 -->
<g id="edge10" class="edge"><title>Node3&#45;&gt;Node5</title>
<path fill="none" stroke="midnightblue" d="M328.259,-236.097C425.612,-234.195 611.3,-233.762 768,-252 909.559,-268.475 946.154,-273.915 1082,-317 1107.07,-324.951 1134.57,-337.439 1152.92,-346.345"/>
<polygon fill="midnightblue" stroke="midnightblue" points="328.186,-232.598 318.26,-236.304 328.331,-239.597 328.186,-232.598"/>
</g>
<!-- Node4 -->
<g id="node6" class="node"><title>Node4</title>
<a xlink:href="struct_urho3_d_1_1_ref_count.html" target="_top" xlink:title="Reference count structure.">
<polygon fill="none" stroke="black" points="0,-718.5 0,-739.5 102,-739.5 102,-718.5 0,-718.5"/>
<text text-anchor="middle" x="51" y="-726.5" font-family="FreeSans" font-size="10.00">Urho3D::RefCount</text>
</a>
</g>
<!-- Node4&#45;&gt;Node3 -->
<g id="edge6" class="edge"><title>Node4&#45;&gt;Node3</title>
<path fill="none" stroke="#9a32cd" stroke-dasharray="5,2" d="M59.4496,-708.909C80.8293,-658.11 138.869,-520.438 188,-406 213.593,-346.387 244.753,-275.101 256.356,-248.6"/>
<polygon fill="#9a32cd" stroke="#9a32cd" points="56.1124,-707.816 55.4603,-718.39 62.5646,-710.53 56.1124,-707.816"/>
<text text-anchor="middle" x="145" y="-568" font-family="FreeSans" font-size="10.00"> refCount_</text>
</g>
<!-- Node17 -->
<g id="node40" class="node"><title>Node17</title>
<a xlink:href="class_urho3_d_1_1_weak_ptr.html" target="_top" xlink:title="Urho3D::WeakPtr\&lt; Urho3D\l::Scene \&gt;">
<polygon fill="none" stroke="black" points="1101,-691 1101,-725 1247,-725 1247,-691 1101,-691"/>
<text text-anchor="start" x="1109" y="-712" font-family="FreeSans" font-size="10.00">Urho3D::WeakPtr&lt; Urho3D</text>
<text text-anchor="middle" x="1174" y="-699" font-family="FreeSans" font-size="10.00">::Scene &gt;</text>
</a>
</g>
<!-- Node4&#45;&gt;Node17 -->
<g id="edge56" class="edge"><title>Node4&#45;&gt;Node17</title>
<path fill="none" stroke="#9a32cd" stroke-dasharray="5,2" d="M112.196,-731.959C272.024,-738.968 715.036,-753.794 1082,-723 1088.13,-722.486 1094.46,-721.794 1100.81,-720.988"/>
<polygon fill="#9a32cd" stroke="#9a32cd" points="112.228,-728.457 102.082,-731.509 111.917,-735.45 112.228,-728.457"/>
<text text-anchor="middle" x="458" y="-745" font-family="FreeSans" font-size="10.00"> refCount_</text>
</g>
<!-- Node24 -->
<g id="node60" class="node"><title>Node24</title>
<a xlink:href="class_urho3_d_1_1_weak_ptr.html" target="_top" xlink:title="Urho3D::WeakPtr\&lt; Urho3D\l::ScriptFile \&gt;">
<polygon fill="none" stroke="black" points="188,-809 188,-843 334,-843 334,-809 188,-809"/>
<text text-anchor="start" x="196" y="-830" font-family="FreeSans" font-size="10.00">Urho3D::WeakPtr&lt; Urho3D</text>
<text text-anchor="middle" x="261" y="-817" font-family="FreeSans" font-size="10.00">::ScriptFile &gt;</text>
</a>
</g>
<!-- Node4&#45;&gt;Node24 -->
<g id="edge78" class="edge"><title>Node4&#45;&gt;Node24</title>
<path fill="none" stroke="#9a32cd" stroke-dasharray="5,2" d="M83.4307,-743.98C121.426,-761.53 184.236,-790.542 224.071,-808.943"/>
<polygon fill="#9a32cd" stroke="#9a32cd" points="84.4195,-740.581 73.8734,-739.565 81.4841,-746.936 84.4195,-740.581"/>
<text text-anchor="middle" x="145" y="-787" font-family="FreeSans" font-size="10.00"> refCount_</text>
</g>
<!-- Node5&#45;&gt;Node2 -->
<g id="edge8" class="edge"><title>Node5&#45;&gt;Node2</title>
<path fill="none" stroke="#9a32cd" stroke-dasharray="5,2" d="M1166.53,-336.801C1154.14,-306.452 1126.21,-249.892 1082,-224 981.844,-165.344 674.071,-205.195 562,-175 530.318,-166.464 496.272,-148.991 476.071,-137.648"/>
<polygon fill="#9a32cd" stroke="#9a32cd" points="1163.37,-338.313 1170.27,-346.349 1169.89,-335.762 1163.37,-338.313"/>
<text text-anchor="middle" x="853" y="-195" font-family="FreeSans" font-size="10.00"> context_</text>
</g>
<!-- Node6 -->
<g id="node11" class="node"><title>Node6</title>
<a xlink:href="class_urho3_d_1_1_p_o_d_vector.html" target="_top" xlink:title="Urho3D::PODVector\&lt;\l Urho3D::Object * \&gt;">
<polygon fill="none" stroke="black" points="793.5,-514 793.5,-548 912.5,-548 912.5,-514 793.5,-514"/>
<text text-anchor="start" x="801.5" y="-535" font-family="FreeSans" font-size="10.00">Urho3D::PODVector&lt;</text>
<text text-anchor="middle" x="853" y="-522" font-family="FreeSans" font-size="10.00"> Urho3D::Object * &gt;</text>
</a>
</g>
<!-- Node6&#45;&gt;Node5 -->
<g id="edge12" class="edge"><title>Node6&#45;&gt;Node5</title>
<path fill="none" stroke="#9a32cd" stroke-dasharray="5,2" d="M922.658,-534.225C970.898,-533.245 1034.69,-525.282 1082,-495 1131.47,-463.333 1160.52,-394.504 1170.28,-367.849"/>
<polygon fill="#9a32cd" stroke="#9a32cd" points="922.573,-530.725 912.612,-534.333 922.649,-537.725 922.573,-530.725"/>
<text text-anchor="middle" x="1010" y="-537" font-family="FreeSans" font-size="10.00"> eventSenders_</text>
</g>
<!-- Node7 -->
<g id="node13" class="node"><title>Node7</title>
<a xlink:href="class_urho3_d_1_1_vector_base.html" target="_top" xlink:title="Vector base class.">
<polygon fill="none" stroke="black" points="401,-520.5 401,-541.5 515,-541.5 515,-520.5 401,-520.5"/>
<text text-anchor="middle" x="458" y="-528.5" font-family="FreeSans" font-size="10.00">Urho3D::VectorBase</text>
</a>
</g>
<!-- Node7&#45;&gt;Node6 -->
<g id="edge14" class="edge"><title>Node7&#45;&gt;Node6</title>
<path fill="none" stroke="midnightblue" d="M525.327,-531C600.622,-531 721.428,-531 793.418,-531"/>
<polygon fill="midnightblue" stroke="midnightblue" points="525.015,-527.5 515.015,-531 525.015,-534.5 525.015,-527.5"/>
</g>
<!-- Node14 -->
<g id="node31" class="node"><title>Node14</title>
<a xlink:href="class_urho3_d_1_1_p_o_d_vector.html" target="_top" xlink:title="Urho3D::PODVector\&lt;\l Urho3D::HashMap * \&gt;">
<polygon fill="none" stroke="black" points="789.5,-462 789.5,-496 916.5,-496 916.5,-462 789.5,-462"/>
<text text-anchor="start" x="797.5" y="-483" font-family="FreeSans" font-size="10.00">Urho3D::PODVector&lt;</text>
<text text-anchor="middle" x="853" y="-470" font-family="FreeSans" font-size="10.00"> Urho3D::HashMap * &gt;</text>
</a>
</g>
<!-- Node7&#45;&gt;Node14 -->
<g id="edge38" class="edge"><title>Node7&#45;&gt;Node14</title>
<path fill="none" stroke="midnightblue" d="M525.144,-522.161C599.064,-512.43 717.009,-496.903 789.46,-487.365"/>
<polygon fill="midnightblue" stroke="midnightblue" points="524.472,-518.719 515.015,-523.494 525.386,-525.659 524.472,-518.719"/>
</g>
<!-- Node20 -->
<g id="node48" class="node"><title>Node20</title>
<a xlink:href="class_urho3_d_1_1_vector.html" target="_top" xlink:title="Urho3D::Vector\&lt; asIScript\lContext * \&gt;">
<polygon fill="none" stroke="black" points="938.5,-566 938.5,-600 1081.5,-600 1081.5,-566 938.5,-566"/>
<text text-anchor="start" x="946.5" y="-587" font-family="FreeSans" font-size="10.00">Urho3D::Vector&lt; asIScript</text>
<text text-anchor="middle" x="1010" y="-574" font-family="FreeSans" font-size="10.00">Context * &gt;</text>
</a>
</g>
<!-- Node7&#45;&gt;Node20 -->
<g id="edge60" class="edge"><title>Node7&#45;&gt;Node20</title>
<path fill="none" stroke="midnightblue" d="M525.284,-540.55C537.49,-542.142 550.115,-543.697 562,-545 694.488,-559.528 849.545,-571.581 938.123,-577.998"/>
<polygon fill="midnightblue" stroke="midnightblue" points="525.528,-537.052 515.155,-539.208 524.609,-543.991 525.528,-537.052"/>
</g>
<!-- Node8&#45;&gt;Node5 -->
<g id="edge16" class="edge"><title>Node8&#45;&gt;Node5</title>
<path fill="none" stroke="#9a32cd" stroke-dasharray="5,2" d="M925.441,-155.455C987.635,-160.693 1069.24,-169.103 1082,-178 1142.48,-220.165 1165.76,-314.425 1172.08,-346.26"/>
<polygon fill="#9a32cd" stroke="#9a32cd" points="925.505,-151.949 915.25,-154.611 924.926,-158.925 925.505,-151.949"/>
<text text-anchor="middle" x="1010" y="-182" font-family="FreeSans" font-size="10.00"> eventHandler_</text>
</g>
<!-- Node16 -->
<g id="node37" class="node"><title>Node16</title>
<a xlink:href="class_urho3_d_1_1_linked_list.html" target="_top" xlink:title="Urho3D::LinkedList\l\&lt; Urho3D::EventHandler \&gt;">
<polygon fill="none" stroke="black" points="1101,-108 1101,-142 1247,-142 1247,-108 1101,-108"/>
<text text-anchor="start" x="1109" y="-129" font-family="FreeSans" font-size="10.00">Urho3D::LinkedList</text>
<text text-anchor="middle" x="1174" y="-116" font-family="FreeSans" font-size="10.00">&lt; Urho3D::EventHandler &gt;</text>
</a>
</g>
<!-- Node8&#45;&gt;Node16 -->
<g id="edge46" class="edge"><title>Node8&#45;&gt;Node16</title>
<path fill="none" stroke="#9a32cd" stroke-dasharray="5,2" d="M925.272,-143.089C929.578,-142.711 933.846,-142.345 938,-142 992.549,-137.469 1054.25,-133.049 1100.88,-129.852"/>
<polygon fill="#9a32cd" stroke="#9a32cd" points="924.841,-139.613 915.192,-143.988 925.464,-146.586 924.841,-139.613"/>
<text text-anchor="middle" x="1010" y="-146" font-family="FreeSans" font-size="10.00"> head_</text>
</g>
<!-- Node9 -->
<g id="node18" class="node"><title>Node9</title>
<a xlink:href="class_urho3_d_1_1_hash_map.html" target="_top" xlink:title="Urho3D::HashMap\&lt; Urho3D\l::StringHash, Urho3D::\lHashSet\&lt; Urho3D::Object * \&gt; \&gt;">
<polygon fill="none" stroke="black" points="578.5,-258.5 578.5,-305.5 751.5,-305.5 751.5,-258.5 578.5,-258.5"/>
<text text-anchor="start" x="586.5" y="-292.5" font-family="FreeSans" font-size="10.00">Urho3D::HashMap&lt; Urho3D</text>
<text text-anchor="start" x="586.5" y="-279.5" font-family="FreeSans" font-size="10.00">::StringHash, Urho3D::</text>
<text text-anchor="middle" x="665" y="-266.5" font-family="FreeSans" font-size="10.00">HashSet&lt; Urho3D::Object * &gt; &gt;</text>
</a>
</g>
<!-- Node9&#45;&gt;Node5 -->
<g id="edge20" class="edge"><title>Node9&#45;&gt;Node5</title>
<path fill="none" stroke="#9a32cd" stroke-dasharray="5,2" d="M761.828,-295.409C846.392,-307.244 972.409,-325.183 1082,-342 1096.08,-344.16 1111.35,-346.607 1125.33,-348.89"/>
<polygon fill="#9a32cd" stroke="#9a32cd" points="762.113,-291.915 751.724,-293.996 761.143,-298.847 762.113,-291.915"/>
<text text-anchor="middle" x="853" y="-321" font-family="FreeSans" font-size="10.00"> eventReceivers_</text>
</g>
<!-- Node10 -->
<g id="node20" class="node"><title>Node10</title>
<a xlink:href="class_urho3_d_1_1_hash_base.html" target="_top" xlink:title="Hash set/map base class.">
<polygon fill="none" stroke="red" points="207,-415.5 207,-436.5 315,-436.5 315,-415.5 207,-415.5"/>
<text text-anchor="middle" x="261" y="-423.5" font-family="FreeSans" font-size="10.00">Urho3D::HashBase</text>
</a>
</g>
<!-- Node10&#45;&gt;Node9 -->
<g id="edge22" class="edge"><title>Node10&#45;&gt;Node9</title>
<path fill="none" stroke="midnightblue" d="M283.127,-409.394C304.768,-393.861 339.167,-371.012 372,-357 438.766,-328.505 518.871,-308.914 578.436,-296.92"/>
<polygon fill="midnightblue" stroke="midnightblue" points="280.967,-406.637 274.947,-415.355 285.09,-412.295 280.967,-406.637"/>
</g>
<!-- Node11 -->
<g id="node22" class="node"><title>Node11</title>
<a xlink:href="class_urho3_d_1_1_hash_map.html" target="_top" xlink:title="Urho3D::HashMap\&lt; StringHash,\l Variant \&gt;">
<polygon fill="none" stroke="black" points="372,-585 372,-619 544,-619 544,-585 372,-585"/>
<text text-anchor="start" x="380" y="-606" font-family="FreeSans" font-size="10.00">Urho3D::HashMap&lt; StringHash,</text>
<text text-anchor="middle" x="458" y="-593" font-family="FreeSans" font-size="10.00"> Variant &gt;</text>
</a>
</g>
<!-- Node10&#45;&gt;Node11 -->
<g id="edge26" class="edge"><title>Node10&#45;&gt;Node11</title>
<path fill="none" stroke="midnightblue" d="M274.83,-444.971C294.434,-471.002 332.354,-518.281 372,-551 387.798,-564.038 407.304,-575.892 423.743,-584.884"/>
<polygon fill="midnightblue" stroke="midnightblue" points="277.462,-442.646 268.686,-436.709 271.844,-446.822 277.462,-442.646"/>
</g>
<!-- Node12 -->
<g id="node25" class="node"><title>Node12</title>
<a xlink:href="class_urho3_d_1_1_hash_map.html" target="_top" xlink:title="Urho3D::HashMap\&lt; Urho3D\l::Object *, Urho3D::HashMap\l\&lt; Urho3D::StringHash, Urho3D\l::HashSet\&lt; Urho3D::Object * \&gt; \&gt; \&gt;">
<polygon fill="none" stroke="black" points="569.5,-364 569.5,-424 760.5,-424 760.5,-364 569.5,-364"/>
<text text-anchor="start" x="577.5" y="-411" font-family="FreeSans" font-size="10.00">Urho3D::HashMap&lt; Urho3D</text>
<text text-anchor="start" x="577.5" y="-398" font-family="FreeSans" font-size="10.00">::Object *, Urho3D::HashMap</text>
<text text-anchor="start" x="577.5" y="-385" font-family="FreeSans" font-size="10.00">&lt; Urho3D::StringHash, Urho3D</text>
<text text-anchor="middle" x="665" y="-372" font-family="FreeSans" font-size="10.00">::HashSet&lt; Urho3D::Object * &gt; &gt; &gt;</text>
</a>
</g>
<!-- Node10&#45;&gt;Node12 -->
<g id="edge30" class="edge"><title>Node10&#45;&gt;Node12</title>
<path fill="none" stroke="midnightblue" d="M325.298,-420.907C391.101,-415.695 494.11,-407.536 569.456,-401.568"/>
<polygon fill="midnightblue" stroke="midnightblue" points="324.758,-417.439 315.066,-421.718 325.311,-424.417 324.758,-417.439"/>
</g>
<!-- Node13 -->
<g id="node28" class="node"><title>Node13</title>
<a xlink:href="class_urho3_d_1_1_hash_map.html" target="_top" xlink:title="Urho3D::HashMap\&lt; Urho3D\l::StringHash, Urho3D::\lSharedPtr\&lt; Urho3D::Object \&gt; \&gt;">
<polygon fill="none" stroke="black" points="579,-311.5 579,-358.5 751,-358.5 751,-311.5 579,-311.5"/>
<text text-anchor="start" x="587" y="-345.5" font-family="FreeSans" font-size="10.00">Urho3D::HashMap&lt; Urho3D</text>
<text text-anchor="start" x="587" y="-332.5" font-family="FreeSans" font-size="10.00">::StringHash, Urho3D::</text>
<text text-anchor="middle" x="665" y="-319.5" font-family="FreeSans" font-size="10.00">SharedPtr&lt; Urho3D::Object &gt; &gt;</text>
</a>
</g>
<!-- Node10&#45;&gt;Node13 -->
<g id="edge34" class="edge"><title>Node10&#45;&gt;Node13</title>
<path fill="none" stroke="midnightblue" d="M313.116,-413.055C331.68,-408.515 352.753,-403.442 372,-399 441.505,-382.958 520.531,-365.757 578.982,-353.232"/>
<polygon fill="midnightblue" stroke="midnightblue" points="312.254,-409.663 303.375,-415.444 313.921,-416.461 312.254,-409.663"/>
</g>
<!-- Node15 -->
<g id="node34" class="node"><title>Node15</title>
<a xlink:href="class_urho3_d_1_1_hash_map.html" target="_top" xlink:title="Urho3D::HashMap\&lt; Urho3D\l::StringHash, Urho3D::\lSharedPtr\&lt; Urho3D::ObjectFactory \&gt; \&gt;">
<polygon fill="none" stroke="black" points="562,-429.5 562,-476.5 768,-476.5 768,-429.5 562,-429.5"/>
<text text-anchor="start" x="570" y="-463.5" font-family="FreeSans" font-size="10.00">Urho3D::HashMap&lt; Urho3D</text>
<text text-anchor="start" x="570" y="-450.5" font-family="FreeSans" font-size="10.00">::StringHash, Urho3D::</text>
<text text-anchor="middle" x="665" y="-437.5" font-family="FreeSans" font-size="10.00">SharedPtr&lt; Urho3D::ObjectFactory &gt; &gt;</text>
</a>
</g>
<!-- Node10&#45;&gt;Node15 -->
<g id="edge42" class="edge"><title>Node10&#45;&gt;Node15</title>
<path fill="none" stroke="midnightblue" d="M325.359,-430.301C388.983,-434.553 487.348,-441.127 561.876,-446.108"/>
<polygon fill="midnightblue" stroke="midnightblue" points="325.277,-426.788 315.066,-429.613 324.81,-433.772 325.277,-426.788"/>
</g>
<!-- Node23 -->
<g id="node57" class="node"><title>Node23</title>
<a xlink:href="class_urho3_d_1_1_hash_map.html" target="_top" xlink:title="Urho3D::HashMap\&lt; const\l char *, asIObjectType * \&gt;">
<polygon fill="none" stroke="black" points="939,-645 939,-679 1081,-679 1081,-645 939,-645"/>
<text text-anchor="start" x="947" y="-666" font-family="FreeSans" font-size="10.00">Urho3D::HashMap&lt; const</text>
<text text-anchor="middle" x="1010" y="-653" font-family="FreeSans" font-size="10.00"> char *, asIObjectType * &gt;</text>
</a>
</g>
<!-- Node10&#45;&gt;Node23 -->
<g id="edge72" class="edge"><title>Node10&#45;&gt;Node23</title>
<path fill="none" stroke="midnightblue" d="M265.616,-446.618C276.231,-488.728 306.646,-584.317 372,-628 462.95,-688.791 792.514,-676.088 938.989,-667.055"/>
<polygon fill="midnightblue" stroke="midnightblue" points="268.97,-445.593 263.234,-436.685 262.163,-447.225 268.97,-445.593"/>
</g>
<!-- Node11&#45;&gt;Node5 -->
<g id="edge24" class="edge"><title>Node11&#45;&gt;Node5</title>
<path fill="none" stroke="#9a32cd" stroke-dasharray="5,2" d="M554.162,-608.97C718.529,-619.999 1039.94,-637.377 1082,-608 1124.23,-578.499 1162.4,-411.408 1171.8,-367.545"/>
<polygon fill="#9a32cd" stroke="#9a32cd" points="554.262,-605.469 544.048,-608.286 553.789,-612.453 554.262,-605.469"/>
<text text-anchor="middle" x="853" y="-628" font-family="FreeSans" font-size="10.00"> globalVars_</text>
</g>
<!-- Node18 -->
<g id="node42" class="node"><title>Node18</title>
<a xlink:href="class_urho3_d_1_1_scene.html" target="_top" xlink:title="Root scene node, represents the whole scene.">
<polygon fill="none" stroke="red" points="808.5,-691.5 808.5,-712.5 897.5,-712.5 897.5,-691.5 808.5,-691.5"/>
<text text-anchor="middle" x="853" y="-699.5" font-family="FreeSans" font-size="10.00">Urho3D::Scene</text>
</a>
</g>
<!-- Node11&#45;&gt;Node18 -->
<g id="edge52" class="edge"><title>Node11&#45;&gt;Node18</title>
<path fill="none" stroke="#9a32cd" stroke-dasharray="5,2" d="M535.299,-621.569C617.926,-642.488 745.851,-674.874 811.309,-691.445"/>
<polygon fill="#9a32cd" stroke="#9a32cd" points="536.007,-618.138 525.454,-619.077 534.289,-624.924 536.007,-618.138"/>
<text text-anchor="middle" x="665" y="-684" font-family="FreeSans" font-size="10.00"> smoothingData_</text>
</g>
<!-- Node12&#45;&gt;Node5 -->
<g id="edge28" class="edge"><title>Node12&#45;&gt;Node5</title>
<path fill="none" stroke="#9a32cd" stroke-dasharray="5,2" d="M770.758,-386.312C879.522,-378.406 1044.13,-366.441 1125.27,-360.542"/>
<polygon fill="#9a32cd" stroke="#9a32cd" points="770.459,-382.825 760.739,-387.041 770.966,-389.806 770.459,-382.825"/>
<text text-anchor="middle" x="853" y="-388" font-family="FreeSans" font-size="10.00"> specificEventReceivers_</text>
</g>
<!-- Node13&#45;&gt;Node5 -->
<g id="edge32" class="edge"><title>Node13&#45;&gt;Node5</title>
<path fill="none" stroke="#9a32cd" stroke-dasharray="5,2" d="M761.351,-339.164C869.824,-343.853 1041.79,-351.286 1125.3,-354.895"/>
<polygon fill="#9a32cd" stroke="#9a32cd" points="761.199,-335.655 751.057,-338.72 760.896,-342.648 761.199,-335.655"/>
<text text-anchor="middle" x="853" y="-350" font-family="FreeSans" font-size="10.00"> subsystems_</text>
</g>
<!-- Node14&#45;&gt;Node5 -->
<g id="edge36" class="edge"><title>Node14&#45;&gt;Node5</title>
<path fill="none" stroke="#9a32cd" stroke-dasharray="5,2" d="M926.821,-479.313C973.432,-476.85 1033.74,-468.628 1082,-445 1119.92,-426.437 1152.47,-386.588 1166.55,-367.549"/>
<polygon fill="#9a32cd" stroke="#9a32cd" points="926.624,-475.818 916.792,-479.766 926.94,-482.811 926.624,-475.818"/>
<text text-anchor="middle" x="1010" y="-482" font-family="FreeSans" font-size="10.00"> eventDataMaps_</text>
</g>
<!-- Node15&#45;&gt;Node5 -->
<g id="edge40" class="edge"><title>Node15&#45;&gt;Node5</title>
<path fill="none" stroke="#9a32cd" stroke-dasharray="5,2" d="M778.457,-436.716C862.639,-423.9 980.007,-404.485 1082,-382 1100.75,-377.866 1121.4,-372.346 1138.37,-367.544"/>
<polygon fill="#9a32cd" stroke="#9a32cd" points="777.722,-433.288 768.359,-438.246 778.771,-440.209 777.722,-433.288"/>
<text text-anchor="middle" x="853" y="-438" font-family="FreeSans" font-size="10.00"> factories_</text>
</g>
<!-- Node16&#45;&gt;Node2 -->
<g id="edge44" class="edge"><title>Node16&#45;&gt;Node2</title>
<path fill="none" stroke="#9a32cd" stroke-dasharray="5,2" d="M1090.89,-121.722C1041.3,-119.931 977.056,-117.898 920,-117 767.186,-114.594 585.972,-121.306 503.245,-124.899"/>
<polygon fill="#9a32cd" stroke="#9a32cd" points="1090.81,-125.222 1100.93,-122.089 1091.06,-118.226 1090.81,-125.222"/>
<text text-anchor="middle" x="853" y="-121" font-family="FreeSans" font-size="10.00"> eventHandlers_</text>
</g>
<!-- Node17&#45;&gt;Node1 -->
<g id="edge48" class="edge"><title>Node17&#45;&gt;Node1</title>
<path fill="none" stroke="#9a32cd" stroke-dasharray="5,2" d="M1256.93,-691.103C1282.91,-685.731 1311.67,-679.702 1338,-674 1343.93,-672.716 1350.18,-671.337 1356.33,-669.964"/>
<polygon fill="#9a32cd" stroke="#9a32cd" points="1256.21,-687.678 1247.13,-693.128 1257.63,-694.534 1256.21,-687.678"/>
<text text-anchor="middle" x="1302" y="-693" font-family="FreeSans" font-size="10.00"> defaultScene_</text>
</g>
<!-- Node18&#45;&gt;Node17 -->
<g id="edge50" class="edge"><title>Node18&#45;&gt;Node17</title>
<path fill="none" stroke="#9a32cd" stroke-dasharray="5,2" d="M907.886,-703.026C961.078,-704.02 1042.1,-705.535 1100.77,-706.631"/>
<polygon fill="#9a32cd" stroke="#9a32cd" points="907.697,-699.522 897.634,-702.834 907.566,-706.521 907.697,-699.522"/>
<text text-anchor="middle" x="1010" y="-710" font-family="FreeSans" font-size="10.00"> ptr_</text>
</g>
<!-- Node19 -->
<g id="node45" class="node"><title>Node19</title>
<a xlink:href="class_urho3_d_1_1_mutex.html" target="_top" xlink:title="Operating system mutual exclusion primitive.">
<polygon fill="none" stroke="black" points="413.5,-770.5 413.5,-791.5 502.5,-791.5 502.5,-770.5 413.5,-770.5"/>
<text text-anchor="middle" x="458" y="-778.5" font-family="FreeSans" font-size="10.00">Urho3D::Mutex</text>
</a>
</g>
<!-- Node19&#45;&gt;Node1 -->
<g id="edge62" class="edge"><title>Node19&#45;&gt;Node1</title>
<path fill="none" stroke="#9a32cd" stroke-dasharray="5,2" d="M512.832,-783.481C642.42,-788.108 977.065,-792.805 1248,-734 1288.94,-725.115 1300.65,-724.971 1338,-706 1356.88,-696.41 1376.07,-681.135 1388,-670.846"/>
<polygon fill="#9a32cd" stroke="#9a32cd" points="512.883,-779.981 502.76,-783.107 512.623,-786.976 512.883,-779.981"/>
<text text-anchor="middle" x="1010" y="-779" font-family="FreeSans" font-size="10.00"> moduleMutex_</text>
</g>
<!-- Node19&#45;&gt;Node18 -->
<g id="edge54" class="edge"><title>Node19&#45;&gt;Node18</title>
<path fill="none" stroke="#9a32cd" stroke-dasharray="5,2" d="M512.754,-770.049C591.577,-754.285 735.526,-725.495 808.316,-710.937"/>
<polygon fill="#9a32cd" stroke="#9a32cd" points="511.663,-766.698 502.544,-772.091 513.036,-773.562 511.663,-766.698"/>
<text text-anchor="middle" x="665" y="-763" font-family="FreeSans" font-size="10.00"> sceneMutex_</text>
</g>
<!-- Node20&#45;&gt;Node1 -->
<g id="edge58" class="edge"><title>Node20&#45;&gt;Node1</title>
<path fill="none" stroke="#9a32cd" stroke-dasharray="5,2" d="M1091.65,-599.121C1172.3,-615.043 1292.55,-638.786 1356.44,-651.4"/>
<polygon fill="#9a32cd" stroke="#9a32cd" points="1092.02,-595.626 1081.53,-597.123 1090.66,-602.494 1092.02,-595.626"/>
<text text-anchor="middle" x="1174" y="-633" font-family="FreeSans" font-size="10.00"> scriptFileContexts_</text>
</g>
<!-- Node21 -->
<g id="node52" class="node"><title>Node21</title>
<a xlink:href="class_urho3_d_1_1_shared_ptr.html" target="_top" xlink:title="Urho3D::SharedPtr\&lt;\l Urho3D::ResourceRouter \&gt;">
<polygon fill="none" stroke="black" points="1100,-0 1100,-34 1248,-34 1248,-0 1100,-0"/>
<text text-anchor="start" x="1108" y="-21" font-family="FreeSans" font-size="10.00">Urho3D::SharedPtr&lt;</text>
<text text-anchor="middle" x="1174" y="-8" font-family="FreeSans" font-size="10.00"> Urho3D::ResourceRouter &gt;</text>
</a>
</g>
<!-- Node21&#45;&gt;Node1 -->
<g id="edge64" class="edge"><title>Node21&#45;&gt;Node1</title>
<path fill="none" stroke="#9a32cd" stroke-dasharray="5,2" d="M1258.35,-6.16043C1287.25,-7.16106 1317.45,-14.2383 1338,-35 1383.16,-80.6305 1397.7,-571.218 1399.74,-649.496"/>
<polygon fill="#9a32cd" stroke="#9a32cd" points="1258.24,-2.65905 1248.2,-6.04744 1258.16,-9.65861 1258.24,-2.65905"/>
<text text-anchor="middle" x="1302" y="-39" font-family="FreeSans" font-size="10.00"> router_</text>
</g>
<!-- Node22&#45;&gt;Node21 -->
<g id="edge66" class="edge"><title>Node22&#45;&gt;Node21</title>
<path fill="none" stroke="#9a32cd" stroke-dasharray="5,2" d="M930.362,-20.795C981.811,-19.9936 1049,-18.947 1099.79,-18.1559"/>
<polygon fill="#9a32cd" stroke="#9a32cd" points="930.236,-17.2964 920.292,-20.9518 930.345,-24.2956 930.236,-17.2964"/>
<text text-anchor="middle" x="1010" y="-25" font-family="FreeSans" font-size="10.00"> ptr_</text>
</g>
<!-- Node23&#45;&gt;Node1 -->
<g id="edge70" class="edge"><title>Node23&#45;&gt;Node1</title>
<path fill="none" stroke="#9a32cd" stroke-dasharray="5,2" d="M1091.19,-661.584C1171.79,-661.17 1292.3,-660.552 1356.33,-660.224"/>
<polygon fill="#9a32cd" stroke="#9a32cd" points="1091.06,-658.084 1081.08,-661.635 1091.1,-665.084 1091.06,-658.084"/>
<text text-anchor="middle" x="1174" y="-665" font-family="FreeSans" font-size="10.00"> objectTypes_</text>
</g>
<!-- Node24&#45;&gt;Node1 -->
<g id="edge74" class="edge"><title>Node24&#45;&gt;Node1</title>
<path fill="none" stroke="#9a32cd" stroke-dasharray="5,2" d="M344.575,-832.119C379.596,-834.195 420.753,-836 458,-836 458,-836 458,-836 1174,-836 1282.16,-836 1369.67,-708.957 1393.54,-670.745"/>
<polygon fill="#9a32cd" stroke="#9a32cd" points="344.588,-828.613 334.393,-831.497 344.161,-835.6 344.588,-828.613"/>
<text text-anchor="middle" x="853" y="-840" font-family="FreeSans" font-size="10.00"> defaultScriptFile_</text>
</g>
<!-- Node25 -->
<g id="node62" class="node"><title>Node25</title>
<a xlink:href="class_urho3_d_1_1_script_file.html" target="_top" xlink:title="Script file resource.">
<polygon fill="none" stroke="red" points="0,-815.5 0,-836.5 102,-836.5 102,-815.5 0,-815.5"/>
<text text-anchor="middle" x="51" y="-823.5" font-family="FreeSans" font-size="10.00">Urho3D::ScriptFile</text>
</a>
</g>
<!-- Node25&#45;&gt;Node24 -->
<g id="edge76" class="edge"><title>Node25&#45;&gt;Node24</title>
<path fill="none" stroke="#9a32cd" stroke-dasharray="5,2" d="M112.332,-826C135.949,-826 163.152,-826 187.78,-826"/>
<polygon fill="#9a32cd" stroke="#9a32cd" points="112.103,-822.5 102.103,-826 112.103,-829.5 112.103,-822.5"/>
<text text-anchor="middle" x="145" y="-830" font-family="FreeSans" font-size="10.00"> ptr_</text>
</g>
</g>
</svg>
