<?xml version="1.0" encoding="UTF-8" standalone="no"?>
<!DOCTYPE svg PUBLIC "-//W3C//DTD SVG 1.1//EN"
 "http://www.w3.org/Graphics/SVG/1.1/DTD/svg11.dtd">
<!-- Generated by graphviz version 2.26.3 (20100126.1600)
 -->
<!-- Title: Urho3D::CollisionBox2D Pages: 1 -->
<svg width="1926pt" height="778pt"
 viewBox="0.00 0.00 1926.00 778.00" xmlns="http://www.w3.org/2000/svg" xmlns:xlink="http://www.w3.org/1999/xlink">
<g id="graph1" class="graph" transform="scale(1 1) rotate(0) translate(4 774)">
<title>Urho3D::CollisionBox2D</title>
<!-- Node1 -->
<g id="node1" class="node"><title>Node1</title>
<polygon fill="#bfbfbf" stroke="black" points="1788,-79.5 1788,-100.5 1918,-100.5 1918,-79.5 1788,-79.5"/>
<text text-anchor="middle" x="1853" y="-87.5" font-family="FreeSans" font-size="10.00">Urho3D::CollisionBox2D</text>
</g>
<!-- Node2 -->
<g id="node2" class="node"><title>Node2</title>
<a xlink:href="class_urho3_d_1_1_collision_shape2_d.html" target="_top" xlink:title="2D collision shape component.">
<polygon fill="none" stroke="black" points="1568.5,-136.5 1568.5,-157.5 1711.5,-157.5 1711.5,-136.5 1568.5,-136.5"/>
<text text-anchor="middle" x="1640" y="-144.5" font-family="FreeSans" font-size="10.00">Urho3D::CollisionShape2D</text>
</a>
</g>
<!-- Node2&#45;&gt;Node1 -->
<g id="edge2" class="edge"><title>Node2&#45;&gt;Node1</title>
<path fill="none" stroke="midnightblue" d="M1689.35,-133.794C1727.15,-123.679 1778.59,-109.912 1813.65,-100.531"/>
<polygon fill="midnightblue" stroke="midnightblue" points="1688.32,-130.446 1679.56,-136.412 1690.13,-137.208 1688.32,-130.446"/>
</g>
<!-- Node3 -->
<g id="node4" class="node"><title>Node3</title>
<a xlink:href="class_urho3_d_1_1_component.html" target="_top" xlink:title="Base class for components. Components can be created to scene nodes.">
<polygon fill="none" stroke="black" points="878,-195.5 878,-216.5 994,-216.5 994,-195.5 878,-195.5"/>
<text text-anchor="middle" x="936" y="-203.5" font-family="FreeSans" font-size="10.00">Urho3D::Component</text>
</a>
</g>
<!-- Node3&#45;&gt;Node2 -->
<g id="edge4" class="edge"><title>Node3&#45;&gt;Node2</title>
<path fill="none" stroke="midnightblue" d="M1004.5,-203.227C1107.43,-198.743 1308.07,-188.778 1478,-173 1510.11,-170.019 1518.14,-168.995 1550,-164 1562.1,-162.103 1575.06,-159.81 1587.27,-157.53"/>
<polygon fill="midnightblue" stroke="midnightblue" points="1004.08,-199.741 994.244,-203.669 1004.39,-206.735 1004.08,-199.741"/>
</g>
<!-- Node23 -->
<g id="node53" class="node"><title>Node23</title>
<a xlink:href="class_urho3_d_1_1_rigid_body2_d.html" target="_top" xlink:title="2D rigid body component.">
<polygon fill="none" stroke="red" points="1126.5,-116.5 1126.5,-137.5 1245.5,-137.5 1245.5,-116.5 1126.5,-116.5"/>
<text text-anchor="middle" x="1186" y="-124.5" font-family="FreeSans" font-size="10.00">Urho3D::RigidBody2D</text>
</a>
</g>
<!-- Node3&#45;&gt;Node23 -->
<g id="edge64" class="edge"><title>Node3&#45;&gt;Node23</title>
<path fill="none" stroke="midnightblue" d="M979.192,-192.351C1028.48,-176.776 1108.03,-151.638 1152.74,-137.51"/>
<polygon fill="midnightblue" stroke="midnightblue" points="977.937,-189.077 969.457,-195.428 980.047,-195.752 977.937,-189.077"/>
</g>
<!-- Node4 -->
<g id="node6" class="node"><title>Node4</title>
<a xlink:href="class_urho3_d_1_1_animatable.html" target="_top" xlink:title="Base class for animatable object, an animatable object can be set animation on it&#39;s attributes...">
<polygon fill="none" stroke="black" points="425,-195.5 425,-216.5 539,-216.5 539,-195.5 425,-195.5"/>
<text text-anchor="middle" x="482" y="-203.5" font-family="FreeSans" font-size="10.00">Urho3D::Animatable</text>
</a>
</g>
<!-- Node4&#45;&gt;Node3 -->
<g id="edge6" class="edge"><title>Node4&#45;&gt;Node3</title>
<path fill="none" stroke="midnightblue" d="M549.287,-206C638.258,-206 793.577,-206 877.76,-206"/>
<polygon fill="midnightblue" stroke="midnightblue" points="549.04,-202.5 539.04,-206 549.04,-209.5 549.04,-202.5"/>
</g>
<!-- Node9 -->
<g id="node16" class="node"><title>Node9</title>
<a xlink:href="class_urho3_d_1_1_node.html" target="_top" xlink:title="Scene node that may contain components and child nodes.">
<polygon fill="none" stroke="red" points="718.5,-435.5 718.5,-456.5 803.5,-456.5 803.5,-435.5 718.5,-435.5"/>
<text text-anchor="middle" x="761" y="-443.5" font-family="FreeSans" font-size="10.00">Urho3D::Node</text>
</a>
</g>
<!-- Node4&#45;&gt;Node9 -->
<g id="edge18" class="edge"><title>Node4&#45;&gt;Node9</title>
<path fill="none" stroke="midnightblue" d="M549.376,-211.002C597.814,-218.169 661.183,-235.457 700,-277 744.296,-324.407 756.881,-406.344 760.042,-435.404"/>
<polygon fill="midnightblue" stroke="midnightblue" points="549.663,-207.509 539.28,-209.622 548.714,-214.445 549.663,-207.509"/>
</g>
<!-- Node5 -->
<g id="node8" class="node"><title>Node5</title>
<a xlink:href="class_urho3_d_1_1_serializable.html" target="_top" xlink:title="Base class for objects with automatic serialization through attributes.">
<polygon fill="none" stroke="red" points="44,-277.5 44,-298.5 158,-298.5 158,-277.5 44,-277.5"/>
<text text-anchor="middle" x="101" y="-285.5" font-family="FreeSans" font-size="10.00">Urho3D::Serializable</text>
</a>
</g>
<!-- Node5&#45;&gt;Node4 -->
<g id="edge8" class="edge"><title>Node5&#45;&gt;Node4</title>
<path fill="none" stroke="midnightblue" d="M168.472,-286.177C223.082,-282.389 300.714,-271.646 362,-242 371.636,-237.339 370.41,-230.753 380,-226 393.824,-219.149 409.792,-214.643 424.929,-211.68"/>
<polygon fill="midnightblue" stroke="midnightblue" points="167.97,-282.701 158.211,-286.826 168.412,-289.688 167.97,-282.701"/>
</g>
<!-- Node6 -->
<g id="node10" class="node"><title>Node6</title>
<a xlink:href="class_urho3_d_1_1_hash_map.html" target="_top" xlink:title="Urho3D::HashMap\&lt; Urho3D\l::String, Urho3D::SharedPtr\l\&lt; Urho3D::AttributeAnimationInfo \&gt; \&gt;">
<polygon fill="none" stroke="red" points="0.5,-211.5 0.5,-258.5 201.5,-258.5 201.5,-211.5 0.5,-211.5"/>
<text text-anchor="start" x="8.5" y="-245.5" font-family="FreeSans" font-size="10.00">Urho3D::HashMap&lt; Urho3D</text>
<text text-anchor="start" x="8.5" y="-232.5" font-family="FreeSans" font-size="10.00">::String, Urho3D::SharedPtr</text>
<text text-anchor="middle" x="101" y="-219.5" font-family="FreeSans" font-size="10.00">&lt; Urho3D::AttributeAnimationInfo &gt; &gt;</text>
</a>
</g>
<!-- Node6&#45;&gt;Node4 -->
<g id="edge10" class="edge"><title>Node6&#45;&gt;Node4</title>
<path fill="none" stroke="#9a32cd" stroke-dasharray="5,2" d="M211.769,-226.569C281.579,-221.255 368.818,-214.615 424.967,-210.341"/>
<polygon fill="#9a32cd" stroke="#9a32cd" points="211.307,-223.094 201.602,-227.343 211.838,-230.074 211.307,-223.094"/>
<text text-anchor="middle" x="291" y="-229" font-family="FreeSans" font-size="10.00"> attributeAnimationInfos_</text>
</g>
<!-- Node7 -->
<g id="node12" class="node"><title>Node7</title>
<a xlink:href="class_urho3_d_1_1_shared_ptr.html" target="_top" xlink:title="Urho3D::SharedPtr\&lt;\l Urho3D::ObjectAnimation \&gt;">
<polygon fill="none" stroke="red" points="24.5,-159 24.5,-193 177.5,-193 177.5,-159 24.5,-159"/>
<text text-anchor="start" x="32.5" y="-180" font-family="FreeSans" font-size="10.00">Urho3D::SharedPtr&lt;</text>
<text text-anchor="middle" x="101" y="-167" font-family="FreeSans" font-size="10.00"> Urho3D::ObjectAnimation &gt;</text>
</a>
</g>
<!-- Node7&#45;&gt;Node4 -->
<g id="edge12" class="edge"><title>Node7&#45;&gt;Node4</title>
<path fill="none" stroke="#9a32cd" stroke-dasharray="5,2" d="M187.689,-182.826C260.297,-188.543 361.871,-196.541 424.716,-201.489"/>
<polygon fill="#9a32cd" stroke="#9a32cd" points="187.887,-179.331 177.643,-182.035 187.337,-186.309 187.887,-179.331"/>
<text text-anchor="middle" x="291" y="-200" font-family="FreeSans" font-size="10.00"> objectAnimation_</text>
</g>
<!-- Node8 -->
<g id="node14" class="node"><title>Node8</title>
<a xlink:href="class_urho3_d_1_1_hash_set.html" target="_top" xlink:title="Urho3D::HashSet\&lt; const\l Urho3D::AttributeInfo * \&gt;">
<polygon fill="none" stroke="red" points="30.5,-107 30.5,-141 171.5,-141 171.5,-107 30.5,-107"/>
<text text-anchor="start" x="38.5" y="-128" font-family="FreeSans" font-size="10.00">Urho3D::HashSet&lt; const</text>
<text text-anchor="middle" x="101" y="-115" font-family="FreeSans" font-size="10.00"> Urho3D::AttributeInfo * &gt;</text>
</a>
</g>
<!-- Node8&#45;&gt;Node4 -->
<g id="edge14" class="edge"><title>Node8&#45;&gt;Node4</title>
<path fill="none" stroke="#9a32cd" stroke-dasharray="5,2" d="M181.855,-125.001C235.556,-128.617 306.177,-139.206 362,-168 372.055,-173.186 370.015,-180.68 380,-186 393.697,-193.297 409.702,-197.948 424.919,-200.908"/>
<polygon fill="#9a32cd" stroke="#9a32cd" points="181.884,-121.496 171.691,-124.385 181.461,-128.483 181.884,-121.496"/>
<text text-anchor="middle" x="291" y="-172" font-family="FreeSans" font-size="10.00"> animatedNetworkAttributes_</text>
</g>
<!-- Node9&#45;&gt;Node3 -->
<g id="edge16" class="edge"><title>Node9&#45;&gt;Node3</title>
<path fill="none" stroke="#9a32cd" stroke-dasharray="5,2" d="M774.761,-427.128C809.666,-379.257 900.818,-254.249 928.146,-216.772"/>
<polygon fill="#9a32cd" stroke="#9a32cd" points="771.809,-425.236 768.745,-435.378 777.465,-429.36 771.809,-425.236"/>
<text text-anchor="middle" x="841" y="-365" font-family="FreeSans" font-size="10.00"> node_</text>
</g>
<!-- Node9&#45;&gt;Node9 -->
<g id="edge50" class="edge"><title>Node9&#45;&gt;Node9</title>
<path fill="none" stroke="#9a32cd" stroke-dasharray="5,2" d="M746.349,-466.793C747.642,-471.529 752.526,-475 761,-475 774.906,-475 779.143,-465.653 773.711,-456.708"/>
<polygon fill="#9a32cd" stroke="#9a32cd" points="749.837,-467.189 748.289,-456.708 742.963,-465.867 749.837,-467.189"/>
<text text-anchor="middle" x="761" y="-479" font-family="FreeSans" font-size="10.00"> parent_</text>
</g>
<!-- Node11 -->
<g id="node21" class="node"><title>Node11</title>
<a xlink:href="class_urho3_d_1_1_scene.html" target="_top" xlink:title="Root scene node, represents the whole scene.">
<polygon fill="none" stroke="red" points="891.5,-435.5 891.5,-456.5 980.5,-456.5 980.5,-435.5 891.5,-435.5"/>
<text text-anchor="middle" x="936" y="-443.5" font-family="FreeSans" font-size="10.00">Urho3D::Scene</text>
</a>
</g>
<!-- Node9&#45;&gt;Node11 -->
<g id="edge24" class="edge"><title>Node9&#45;&gt;Node11</title>
<path fill="none" stroke="midnightblue" d="M814.114,-446C838.847,-446 867.94,-446 891.498,-446"/>
<polygon fill="midnightblue" stroke="midnightblue" points="813.81,-442.5 803.81,-446 813.81,-449.5 813.81,-442.5"/>
</g>
<!-- Node10 -->
<g id="node19" class="node"><title>Node10</title>
<a xlink:href="class_urho3_d_1_1_p_o_d_vector.html" target="_top" xlink:title="Urho3D::PODVector\&lt;\l Urho3D::Node * \&gt;">
<polygon fill="none" stroke="red" points="422.5,-429 422.5,-463 541.5,-463 541.5,-429 422.5,-429"/>
<text text-anchor="start" x="430.5" y="-450" font-family="FreeSans" font-size="10.00">Urho3D::PODVector&lt;</text>
<text text-anchor="middle" x="482" y="-437" font-family="FreeSans" font-size="10.00"> Urho3D::Node * &gt;</text>
</a>
</g>
<!-- Node10&#45;&gt;Node9 -->
<g id="edge20" class="edge"><title>Node10&#45;&gt;Node9</title>
<path fill="none" stroke="#9a32cd" stroke-dasharray="5,2" d="M551.734,-446C604.093,-446 674.11,-446 718.391,-446"/>
<polygon fill="#9a32cd" stroke="#9a32cd" points="551.51,-442.5 541.51,-446 551.51,-449.5 551.51,-442.5"/>
<text text-anchor="middle" x="651" y="-450" font-family="FreeSans" font-size="10.00"> dependencyNodes_</text>
</g>
<!-- Node11&#45;&gt;Node9 -->
<g id="edge22" class="edge"><title>Node11&#45;&gt;Node9</title>
<path fill="none" stroke="#9a32cd" stroke-dasharray="5,2" d="M881.458,-434.911C862.629,-432.377 841.395,-430.956 822,-433 816.077,-433.624 809.884,-434.58 803.81,-435.697"/>
<polygon fill="#9a32cd" stroke="#9a32cd" points="880.949,-438.374 891.353,-436.372 881.971,-431.449 880.949,-438.374"/>
<text text-anchor="middle" x="841" y="-437" font-family="FreeSans" font-size="10.00"> scene_</text>
</g>
<!-- Node12 -->
<g id="node24" class="node"><title>Node12</title>
<a xlink:href="class_urho3_d_1_1_hash_map.html" target="_top" xlink:title="Urho3D::HashMap\&lt; StringHash,\l Variant \&gt;">
<polygon fill="none" stroke="red" points="396,-736 396,-770 568,-770 568,-736 396,-736"/>
<text text-anchor="start" x="404" y="-757" font-family="FreeSans" font-size="10.00">Urho3D::HashMap&lt; StringHash,</text>
<text text-anchor="middle" x="482" y="-744" font-family="FreeSans" font-size="10.00"> Variant &gt;</text>
</a>
</g>
<!-- Node12&#45;&gt;Node9 -->
<g id="edge46" class="edge"><title>Node12&#45;&gt;Node9</title>
<path fill="none" stroke="#9a32cd" stroke-dasharray="5,2" d="M568.971,-733.735C628.643,-720.345 697.518,-704.472 700,-702 735.853,-666.294 755.33,-500.727 759.928,-456.75"/>
<polygon fill="#9a32cd" stroke="#9a32cd" points="568.097,-730.344 559.104,-735.946 569.627,-737.175 568.097,-730.344"/>
<text text-anchor="middle" x="651" y="-730" font-family="FreeSans" font-size="10.00"> vars_</text>
</g>
<!-- Node12&#45;&gt;Node11 -->
<g id="edge26" class="edge"><title>Node12&#45;&gt;Node11</title>
<path fill="none" stroke="#9a32cd" stroke-dasharray="5,2" d="M578.262,-763.827C617.926,-764.191 663.127,-759.055 700,-740 829.086,-673.291 911.764,-501.188 931.448,-456.65"/>
<polygon fill="#9a32cd" stroke="#9a32cd" points="578.111,-760.323 568.039,-763.612 577.964,-767.321 578.111,-760.323"/>
<text text-anchor="middle" x="761" y="-732" font-family="FreeSans" font-size="10.00"> smoothingData_</text>
</g>
<!-- Node13 -->
<g id="node26" class="node"><title>Node13</title>
<a xlink:href="class_urho3_d_1_1_string.html" target="_top" xlink:title="String class.">
<polygon fill="none" stroke="black" points="438,-235.5 438,-256.5 526,-256.5 526,-235.5 438,-235.5"/>
<text text-anchor="middle" x="482" y="-243.5" font-family="FreeSans" font-size="10.00">Urho3D::String</text>
</a>
</g>
<!-- Node13&#45;&gt;Node9 -->
<g id="edge48" class="edge"><title>Node13&#45;&gt;Node9</title>
<path fill="none" stroke="#9a32cd" stroke-dasharray="5,2" d="M533.179,-259.267C589.331,-274.64 674.846,-300.716 700,-323 735.683,-354.612 752.843,-411.903 758.643,-435.456"/>
<polygon fill="#9a32cd" stroke="#9a32cd" points="533.969,-255.855 523.402,-256.617 532.138,-262.611 533.969,-255.855"/>
<text text-anchor="middle" x="651" y="-327" font-family="FreeSans" font-size="10.00"> name_</text>
</g>
<!-- Node13&#45;&gt;Node11 -->
<g id="edge28" class="edge"><title>Node13&#45;&gt;Node11</title>
<path fill="none" stroke="#9a32cd" stroke-dasharray="5,2" d="M536.349,-240.366C615.365,-235.105 763.082,-236.648 860,-307 905.406,-339.96 926.707,-408.656 933.487,-435.204"/>
<polygon fill="#9a32cd" stroke="#9a32cd" points="535.852,-236.893 526.133,-241.11 536.361,-243.874 535.852,-236.893"/>
<text text-anchor="middle" x="761" y="-278" font-family="FreeSans" font-size="10.00"> fileName_</text>
</g>
<!-- Node13&#45;&gt;Node13 -->
<g id="edge30" class="edge"><title>Node13&#45;&gt;Node13</title>
<path fill="none" stroke="#9a32cd" stroke-dasharray="5,2" d="M450.741,-265.679C452.416,-270.975 462.835,-275 482,-275 511.203,-275 520.101,-265.653 508.693,-256.708"/>
<polygon fill="#9a32cd" stroke="#9a32cd" points="453.89,-267.208 455.307,-256.708 447.651,-264.032 453.89,-267.208"/>
<text text-anchor="middle" x="482" y="-279" font-family="FreeSans" font-size="10.00"> EMPTY</text>
</g>
<!-- Node14 -->
<g id="node29" class="node"><title>Node14</title>
<a xlink:href="class_urho3_d_1_1_quaternion.html" target="_top" xlink:title="Rotation represented as a four&#45;dimensional normalized vector.">
<polygon fill="none" stroke="black" points="425.5,-306.5 425.5,-327.5 538.5,-327.5 538.5,-306.5 425.5,-306.5"/>
<text text-anchor="middle" x="482" y="-314.5" font-family="FreeSans" font-size="10.00">Urho3D::Quaternion</text>
</a>
</g>
<!-- Node14&#45;&gt;Node9 -->
<g id="edge32" class="edge"><title>Node14&#45;&gt;Node9</title>
<path fill="none" stroke="#9a32cd" stroke-dasharray="5,2" d="M548.641,-327.072C593.856,-336.102 653.613,-352.474 700,-381 723.201,-395.268 743.333,-420.64 753.649,-435.104"/>
<polygon fill="#9a32cd" stroke="#9a32cd" points="549.125,-323.601 538.643,-325.147 547.801,-330.474 549.125,-323.601"/>
<text text-anchor="middle" x="651" y="-398" font-family="FreeSans" font-size="10.00"> worldRotation_</text>
<text text-anchor="middle" x="651" y="-385" font-family="FreeSans" font-size="10.00">rotation_</text>
</g>
<!-- Node14&#45;&gt;Node14 -->
<g id="edge34" class="edge"><title>Node14&#45;&gt;Node14</title>
<path fill="none" stroke="#9a32cd" stroke-dasharray="5,2" d="M450.741,-336.679C452.416,-341.975 462.835,-346 482,-346 511.203,-346 520.101,-336.653 508.693,-327.708"/>
<polygon fill="#9a32cd" stroke="#9a32cd" points="453.89,-338.208 455.307,-327.708 447.651,-335.032 453.89,-338.208"/>
<text text-anchor="middle" x="482" y="-350" font-family="FreeSans" font-size="10.00"> IDENTITY</text>
</g>
<!-- Node15 -->
<g id="node32" class="node"><title>Node15</title>
<a xlink:href="class_urho3_d_1_1_vector.html" target="_top" xlink:title="Urho3D::Vector\&lt; Urho3D\l::WeakPtr\&lt; Urho3D::Component \&gt; \&gt;">
<polygon fill="none" stroke="red" points="385,-684 385,-718 579,-718 579,-684 385,-684"/>
<text text-anchor="start" x="393" y="-705" font-family="FreeSans" font-size="10.00">Urho3D::Vector&lt; Urho3D</text>
<text text-anchor="middle" x="482" y="-692" font-family="FreeSans" font-size="10.00">::WeakPtr&lt; Urho3D::Component &gt; &gt;</text>
</a>
</g>
<!-- Node15&#45;&gt;Node9 -->
<g id="edge36" class="edge"><title>Node15&#45;&gt;Node9</title>
<path fill="none" stroke="#9a32cd" stroke-dasharray="5,2" d="M589.36,-687.941C639.94,-680.857 691.174,-671.947 700,-664 731.981,-635.204 753.886,-496.138 759.55,-456.541"/>
<polygon fill="#9a32cd" stroke="#9a32cd" points="588.694,-684.5 579.266,-689.333 589.65,-691.435 588.694,-684.5"/>
<text text-anchor="middle" x="651" y="-689" font-family="FreeSans" font-size="10.00"> listeners_</text>
</g>
<!-- Node16 -->
<g id="node34" class="node"><title>Node16</title>
<a xlink:href="class_urho3_d_1_1_vector_buffer.html" target="_top" xlink:title="Dynamically sized buffer that can be read and written to as a stream.">
<polygon fill="none" stroke="red" points="422.5,-644.5 422.5,-665.5 541.5,-665.5 541.5,-644.5 422.5,-644.5"/>
<text text-anchor="middle" x="482" y="-652.5" font-family="FreeSans" font-size="10.00">Urho3D::VectorBuffer</text>
</a>
</g>
<!-- Node16&#45;&gt;Node9 -->
<g id="edge38" class="edge"><title>Node16&#45;&gt;Node9</title>
<path fill="none" stroke="#9a32cd" stroke-dasharray="5,2" d="M552.065,-654.708C599.268,-650.873 659.985,-638.362 700,-602 744.55,-561.517 756.938,-484.506 760.048,-456.508"/>
<polygon fill="#9a32cd" stroke="#9a32cd" points="551.638,-651.229 541.906,-655.418 552.126,-658.212 551.638,-651.229"/>
<text text-anchor="middle" x="651" y="-651" font-family="FreeSans" font-size="10.00"> attrBuffer_</text>
</g>
<!-- Node17 -->
<g id="node36" class="node"><title>Node17</title>
<a xlink:href="class_urho3_d_1_1_vector.html" target="_top" xlink:title="Urho3D::Vector\&lt; Urho3D\l::SharedPtr\&lt; Urho3D::Component \&gt; \&gt;">
<polygon fill="none" stroke="red" points="380.5,-592 380.5,-626 583.5,-626 583.5,-592 380.5,-592"/>
<text text-anchor="start" x="388.5" y="-613" font-family="FreeSans" font-size="10.00">Urho3D::Vector&lt; Urho3D</text>
<text text-anchor="middle" x="482" y="-600" font-family="FreeSans" font-size="10.00">::SharedPtr&lt; Urho3D::Component &gt; &gt;</text>
</a>
</g>
<!-- Node17&#45;&gt;Node9 -->
<g id="edge40" class="edge"><title>Node17&#45;&gt;Node9</title>
<path fill="none" stroke="#9a32cd" stroke-dasharray="5,2" d="M593.385,-589.344C630.182,-578.743 669.472,-562.57 700,-538 728.366,-515.17 748.228,-475.551 756.583,-456.64"/>
<polygon fill="#9a32cd" stroke="#9a32cd" points="592.293,-586.014 583.588,-592.054 594.159,-592.761 592.293,-586.014"/>
<text text-anchor="middle" x="651" y="-589" font-family="FreeSans" font-size="10.00"> components_</text>
</g>
<!-- Node18 -->
<g id="node38" class="node"><title>Node18</title>
<a xlink:href="class_urho3_d_1_1_vector3.html" target="_top" xlink:title="Three&#45;dimensional vector.">
<polygon fill="none" stroke="black" points="434,-33.5 434,-54.5 530,-54.5 530,-33.5 434,-33.5"/>
<text text-anchor="middle" x="482" y="-41.5" font-family="FreeSans" font-size="10.00">Urho3D::Vector3</text>
</a>
</g>
<!-- Node18&#45;&gt;Node2 -->
<g id="edge68" class="edge"><title>Node18&#45;&gt;Node2</title>
<path fill="none" stroke="#9a32cd" stroke-dasharray="5,2" d="M540.447,-51.2994C596.824,-57.7028 684.613,-66 761,-66 761,-66 761,-66 1405,-66 1482.35,-66 1494.44,-103.07 1568,-127 1578.12,-130.291 1589.14,-133.526 1599.45,-136.403"/>
<polygon fill="#9a32cd" stroke="#9a32cd" points="540.631,-47.7975 530.296,-50.1282 539.828,-54.7514 540.631,-47.7975"/>
<text text-anchor="middle" x="1060" y="-70" font-family="FreeSans" font-size="10.00"> cachedWorldScale_</text>
</g>
<!-- Node18&#45;&gt;Node9 -->
<g id="edge42" class="edge"><title>Node18&#45;&gt;Node9</title>
<path fill="none" stroke="#9a32cd" stroke-dasharray="5,2" d="M518.852,-58.6205C568.299,-80.2367 655.087,-125.576 700,-193 721.89,-225.862 709.047,-241.543 718,-280 731.704,-338.86 750.713,-408.753 757.996,-435.169"/>
<polygon fill="#9a32cd" stroke="#9a32cd" points="520.054,-55.3282 509.484,-54.6141 517.302,-61.7643 520.054,-55.3282"/>
<text text-anchor="middle" x="651" y="-210" font-family="FreeSans" font-size="10.00"> scale_</text>
<text text-anchor="middle" x="651" y="-197" font-family="FreeSans" font-size="10.00">position_</text>
</g>
<!-- Node18&#45;&gt;Node18 -->
<g id="edge44" class="edge"><title>Node18&#45;&gt;Node18</title>
<path fill="none" stroke="#9a32cd" stroke-dasharray="5,2" d="M450.741,-63.6791C452.416,-68.9746 462.835,-73 482,-73 511.203,-73 520.101,-63.6531 508.693,-54.7079"/>
<polygon fill="#9a32cd" stroke="#9a32cd" points="453.89,-65.2076 455.307,-54.7079 447.651,-62.0325 453.89,-65.2076"/>
<text text-anchor="middle" x="482" y="-168" font-family="FreeSans" font-size="10.00"> ONE</text>
<text text-anchor="middle" x="482" y="-155" font-family="FreeSans" font-size="10.00">DOWN</text>
<text text-anchor="middle" x="482" y="-142" font-family="FreeSans" font-size="10.00">BACK</text>
<text text-anchor="middle" x="482" y="-129" font-family="FreeSans" font-size="10.00">RIGHT</text>
<text text-anchor="middle" x="482" y="-116" font-family="FreeSans" font-size="10.00">LEFT</text>
<text text-anchor="middle" x="482" y="-103" font-family="FreeSans" font-size="10.00">ZERO</text>
<text text-anchor="middle" x="482" y="-90" font-family="FreeSans" font-size="10.00">FORWARD</text>
<text text-anchor="middle" x="482" y="-77" font-family="FreeSans" font-size="10.00">UP</text>
</g>
<!-- Node19 -->
<g id="node44" class="node"><title>Node19</title>
<a xlink:href="class_urho3_d_1_1_string_hash.html" target="_top" xlink:title="32&#45;bit hash value for a string.">
<polygon fill="none" stroke="black" points="425.5,-521.5 425.5,-542.5 538.5,-542.5 538.5,-521.5 425.5,-521.5"/>
<text text-anchor="middle" x="482" y="-529.5" font-family="FreeSans" font-size="10.00">Urho3D::StringHash</text>
</a>
</g>
<!-- Node19&#45;&gt;Node9 -->
<g id="edge52" class="edge"><title>Node19&#45;&gt;Node9</title>
<path fill="none" stroke="#9a32cd" stroke-dasharray="5,2" d="M549.036,-529.373C593.507,-525.559 652.249,-516.464 700,-495 720.319,-485.867 739.639,-468.326 750.901,-456.898"/>
<polygon fill="#9a32cd" stroke="#9a32cd" points="548.609,-525.896 538.916,-530.172 549.16,-532.874 548.609,-525.896"/>
<text text-anchor="middle" x="651" y="-525" font-family="FreeSans" font-size="10.00"> nameHash_</text>
</g>
<!-- Node19&#45;&gt;Node19 -->
<g id="edge54" class="edge"><title>Node19&#45;&gt;Node19</title>
<path fill="none" stroke="#9a32cd" stroke-dasharray="5,2" d="M450.741,-551.679C452.416,-556.975 462.835,-561 482,-561 511.203,-561 520.101,-551.653 508.693,-542.708"/>
<polygon fill="#9a32cd" stroke="#9a32cd" points="453.89,-553.208 455.307,-542.708 447.651,-550.032 453.89,-553.208"/>
<text text-anchor="middle" x="482" y="-565" font-family="FreeSans" font-size="10.00"> ZERO</text>
</g>
<!-- Node20 -->
<g id="node47" class="node"><title>Node20</title>
<a xlink:href="class_urho3_d_1_1_vector.html" target="_top" xlink:title="Urho3D::Vector\&lt; String \&gt;">
<polygon fill="none" stroke="red" points="411.5,-481.5 411.5,-502.5 552.5,-502.5 552.5,-481.5 411.5,-481.5"/>
<text text-anchor="middle" x="482" y="-489.5" font-family="FreeSans" font-size="10.00">Urho3D::Vector&lt; String &gt;</text>
</a>
</g>
<!-- Node20&#45;&gt;Node9 -->
<g id="edge56" class="edge"><title>Node20&#45;&gt;Node9</title>
<path fill="none" stroke="#9a32cd" stroke-dasharray="5,2" d="M562.626,-483.993C603.936,-479.205 654.906,-472.236 700,-463 708.616,-461.235 717.804,-458.913 726.365,-456.555"/>
<polygon fill="#9a32cd" stroke="#9a32cd" points="562.154,-480.524 552.614,-485.133 562.946,-487.479 562.154,-480.524"/>
<text text-anchor="middle" x="651" y="-482" font-family="FreeSans" font-size="10.00"> tags_</text>
</g>
<!-- Node21 -->
<g id="node49" class="node"><title>Node21</title>
<a xlink:href="class_urho3_d_1_1_vector.html" target="_top" xlink:title="Urho3D::Vector\&lt; Urho3D\l::SharedPtr\&lt; Urho3D::Node \&gt; \&gt;">
<polygon fill="none" stroke="red" points="395.5,-377 395.5,-411 568.5,-411 568.5,-377 395.5,-377"/>
<text text-anchor="start" x="403.5" y="-398" font-family="FreeSans" font-size="10.00">Urho3D::Vector&lt; Urho3D</text>
<text text-anchor="middle" x="482" y="-385" font-family="FreeSans" font-size="10.00">::SharedPtr&lt; Urho3D::Node &gt; &gt;</text>
</a>
</g>
<!-- Node21&#45;&gt;Node9 -->
<g id="edge58" class="edge"><title>Node21&#45;&gt;Node9</title>
<path fill="none" stroke="#9a32cd" stroke-dasharray="5,2" d="M578.66,-407.128C616.663,-412.912 660.556,-420.366 700,-429 708.377,-430.834 717.312,-433.128 725.688,-435.432"/>
<polygon fill="#9a32cd" stroke="#9a32cd" points="579.03,-403.644 568.621,-405.618 577.989,-410.566 579.03,-403.644"/>
<text text-anchor="middle" x="651" y="-433" font-family="FreeSans" font-size="10.00"> children_</text>
</g>
<!-- Node22 -->
<g id="node51" class="node"><title>Node22</title>
<a xlink:href="class_urho3_d_1_1_weak_ptr.html" target="_top" xlink:title="Urho3D::WeakPtr\&lt; Urho3D\l::RigidBody2D \&gt;">
<polygon fill="none" stroke="black" points="1332,-130 1332,-164 1478,-164 1478,-130 1332,-130"/>
<text text-anchor="start" x="1340" y="-151" font-family="FreeSans" font-size="10.00">Urho3D::WeakPtr&lt; Urho3D</text>
<text text-anchor="middle" x="1405" y="-138" font-family="FreeSans" font-size="10.00">::RigidBody2D &gt;</text>
</a>
</g>
<!-- Node22&#45;&gt;Node2 -->
<g id="edge60" class="edge"><title>Node22&#45;&gt;Node2</title>
<path fill="none" stroke="#9a32cd" stroke-dasharray="5,2" d="M1488.31,-147C1514.41,-147 1542.96,-147 1568.19,-147"/>
<polygon fill="#9a32cd" stroke="#9a32cd" points="1488.07,-143.5 1478.07,-147 1488.07,-150.5 1488.07,-143.5"/>
<text text-anchor="middle" x="1523" y="-151" font-family="FreeSans" font-size="10.00"> rigidBody_</text>
</g>
<!-- Node23&#45;&gt;Node22 -->
<g id="edge62" class="edge"><title>Node23&#45;&gt;Node22</title>
<path fill="none" stroke="#9a32cd" stroke-dasharray="5,2" d="M1255.74,-128.151C1274.67,-128.892 1295.15,-130.086 1314,-132 1319.73,-132.582 1325.66,-133.298 1331.6,-134.097"/>
<polygon fill="#9a32cd" stroke="#9a32cd" points="1255.81,-124.652 1245.69,-127.794 1255.56,-131.647 1255.81,-124.652"/>
<text text-anchor="middle" x="1289" y="-136" font-family="FreeSans" font-size="10.00"> ptr_</text>
</g>
<!-- Node24 -->
<g id="node56" class="node"><title>Node24</title>
<a xlink:href="struct_urho3_d_1_1_ref_count.html" target="_top" xlink:title="Reference count structure.">
<polygon fill="none" stroke="black" points="1135,-156.5 1135,-177.5 1237,-177.5 1237,-156.5 1135,-156.5"/>
<text text-anchor="middle" x="1186" y="-164.5" font-family="FreeSans" font-size="10.00">Urho3D::RefCount</text>
</a>
</g>
<!-- Node24&#45;&gt;Node22 -->
<g id="edge66" class="edge"><title>Node24&#45;&gt;Node22</title>
<path fill="none" stroke="#9a32cd" stroke-dasharray="5,2" d="M1247.26,-161.405C1273.51,-159.008 1304.39,-156.188 1331.83,-153.682"/>
<polygon fill="#9a32cd" stroke="#9a32cd" points="1246.71,-157.941 1237.07,-162.336 1247.35,-164.912 1246.71,-157.941"/>
<text text-anchor="middle" x="1289" y="-163" font-family="FreeSans" font-size="10.00"> refCount_</text>
</g>
<!-- Node25 -->
<g id="node59" class="node"><title>Node25</title>
<a xlink:href="class_urho3_d_1_1_vector2.html" target="_top" xlink:title="Two&#45;dimensional vector.">
<polygon fill="none" stroke="black" points="1592,-0.5 1592,-21.5 1688,-21.5 1688,-0.5 1592,-0.5"/>
<text text-anchor="middle" x="1640" y="-8.5" font-family="FreeSans" font-size="10.00">Urho3D::Vector2</text>
</a>
</g>
<!-- Node25&#45;&gt;Node1 -->
<g id="edge70" class="edge"><title>Node25&#45;&gt;Node1</title>
<path fill="none" stroke="#9a32cd" stroke-dasharray="5,2" d="M1678.33,-25.2156C1720.32,-40.7904 1786.71,-65.4128 1824.39,-79.3886"/>
<polygon fill="#9a32cd" stroke="#9a32cd" points="1679.32,-21.8502 1668.73,-21.6543 1676.88,-28.4134 1679.32,-21.8502"/>
<text text-anchor="middle" x="1750" y="-75" font-family="FreeSans" font-size="10.00"> center_</text>
<text text-anchor="middle" x="1750" y="-62" font-family="FreeSans" font-size="10.00">size_</text>
</g>
<!-- Node25&#45;&gt;Node25 -->
<g id="edge72" class="edge"><title>Node25&#45;&gt;Node25</title>
<path fill="none" stroke="#9a32cd" stroke-dasharray="5,2" d="M1619.73,-31.4266C1621.29,-36.3489 1628.05,-40 1640,-40 1659.12,-40 1664.95,-30.6531 1657.48,-21.7079"/>
<polygon fill="#9a32cd" stroke="#9a32cd" points="1623.12,-32.2856 1622.52,-21.7079 1616.4,-30.3516 1623.12,-32.2856"/>
<text text-anchor="middle" x="1640" y="-109" font-family="FreeSans" font-size="10.00"> ONE</text>
<text text-anchor="middle" x="1640" y="-96" font-family="FreeSans" font-size="10.00">DOWN</text>
<text text-anchor="middle" x="1640" y="-83" font-family="FreeSans" font-size="10.00">RIGHT</text>
<text text-anchor="middle" x="1640" y="-70" font-family="FreeSans" font-size="10.00">LEFT</text>
<text text-anchor="middle" x="1640" y="-57" font-family="FreeSans" font-size="10.00">ZERO</text>
<text text-anchor="middle" x="1640" y="-44" font-family="FreeSans" font-size="10.00">UP</text>
</g>
</g>
</svg>
