<?xml version="1.0" encoding="UTF-8" standalone="no"?>
<!DOCTYPE svg PUBLIC "-//W3C//DTD SVG 1.1//EN"
 "http://www.w3.org/Graphics/SVG/1.1/DTD/svg11.dtd">
<!-- Generated by graphviz version 2.26.3 (20100126.1600)
 -->
<!-- Title: Urho3D::Resource Pages: 1 -->
<svg width="1176pt" height="919pt"
 viewBox="0.00 0.00 1176.00 919.00" xmlns="http://www.w3.org/2000/svg" xmlns:xlink="http://www.w3.org/1999/xlink">
<g id="graph1" class="graph" transform="scale(1 1) rotate(0) translate(4 915)">
<title>Urho3D::Resource</title>
<!-- Node1 -->
<g id="node1" class="node"><title>Node1</title>
<polygon fill="#bfbfbf" stroke="black" points="715.5,-682.5 715.5,-703.5 818.5,-703.5 818.5,-682.5 715.5,-682.5"/>
<text text-anchor="middle" x="767" y="-690.5" font-family="FreeSans" font-size="10.00">Urho3D::Resource</text>
</g>
<!-- Node2 -->
<g id="node2" class="node"><title>Node2</title>
<a xlink:href="class_urho3_d_1_1_object.html" target="_top" xlink:title="Base class for objects with type identification, subsystem access and event sending/receiving capabil...">
<polygon fill="none" stroke="black" points="455,-855.5 455,-876.5 545,-876.5 545,-855.5 455,-855.5"/>
<text text-anchor="middle" x="500" y="-863.5" font-family="FreeSans" font-size="10.00">Urho3D::Object</text>
</a>
</g>
<!-- Node2&#45;&gt;Node1 -->
<g id="edge2" class="edge"><title>Node2&#45;&gt;Node1</title>
<path fill="none" stroke="midnightblue" d="M554.488,-853.317C558.59,-851.237 562.491,-848.816 566,-846 578.726,-835.786 573.193,-826.226 584,-814 585.829,-811.931 661.704,-756.533 664,-755 692.642,-735.879 727.151,-715.65 748.066,-703.685"/>
<polygon fill="midnightblue" stroke="midnightblue" points="553.023,-850.137 545.26,-857.348 555.825,-856.552 553.023,-850.137"/>
</g>
<!-- Node8 -->
<g id="node15" class="node"><title>Node8</title>
<a xlink:href="class_urho3_d_1_1_event_handler.html" target="_top" xlink:title="Internal helper class for invoking event handler functions.">
<polygon fill="none" stroke="black" points="705,-764.5 705,-785.5 829,-785.5 829,-764.5 705,-764.5"/>
<text text-anchor="middle" x="767" y="-772.5" font-family="FreeSans" font-size="10.00">Urho3D::EventHandler</text>
</a>
</g>
<!-- Node2&#45;&gt;Node8 -->
<g id="edge22" class="edge"><title>Node2&#45;&gt;Node8</title>
<path fill="none" stroke="#9a32cd" stroke-dasharray="5,2" d="M551.278,-852.102C556.33,-850.247 561.316,-848.212 566,-846 574.694,-841.895 575.342,-838.182 584,-834 610.076,-821.406 684.863,-798.782 730.358,-785.509"/>
<polygon fill="#9a32cd" stroke="#9a32cd" points="549.862,-848.888 541.543,-855.448 552.137,-855.508 549.862,-848.888"/>
<text text-anchor="middle" x="615" y="-851" font-family="FreeSans" font-size="10.00"> sender_</text>
<text text-anchor="middle" x="615" y="-838" font-family="FreeSans" font-size="10.00">receiver_</text>
</g>
<!-- Node3 -->
<g id="node4" class="node"><title>Node3</title>
<a xlink:href="class_urho3_d_1_1_ref_counted.html" target="_top" xlink:title="Base class for intrusively reference&#45;counted objects. These are noncopyable and non&#45;assignable.">
<polygon fill="none" stroke="black" points="224,-575.5 224,-596.5 338,-596.5 338,-575.5 224,-575.5"/>
<text text-anchor="middle" x="281" y="-583.5" font-family="FreeSans" font-size="10.00">Urho3D::RefCounted</text>
</a>
</g>
<!-- Node3&#45;&gt;Node2 -->
<g id="edge4" class="edge"><title>Node3&#45;&gt;Node2</title>
<path fill="none" stroke="midnightblue" d="M287.181,-606.266C303.13,-655.125 350.382,-780.219 434,-846 440.117,-850.812 447.382,-854.469 454.818,-857.249"/>
<polygon fill="midnightblue" stroke="midnightblue" points="290.458,-605.021 284.097,-596.548 283.786,-607.138 290.458,-605.021"/>
</g>
<!-- Node5 -->
<g id="node8" class="node"><title>Node5</title>
<a xlink:href="class_urho3_d_1_1_context.html" target="_top" xlink:title="Urho3D execution context. Provides access to subsystems, object factories and attributes, and event receivers.">
<polygon fill="none" stroke="black" points="1046.5,-380.5 1046.5,-401.5 1143.5,-401.5 1143.5,-380.5 1046.5,-380.5"/>
<text text-anchor="middle" x="1095" y="-388.5" font-family="FreeSans" font-size="10.00">Urho3D::Context</text>
</a>
</g>
<!-- Node3&#45;&gt;Node5 -->
<g id="edge10" class="edge"><title>Node3&#45;&gt;Node5</title>
<path fill="none" stroke="midnightblue" d="M348.318,-588.42C506.907,-592.85 898.563,-595.985 1004,-524 1050.91,-491.976 1080.64,-427.11 1090.95,-401.624"/>
<polygon fill="midnightblue" stroke="midnightblue" points="348.311,-584.919 338.214,-588.128 348.109,-591.916 348.311,-584.919"/>
</g>
<!-- Node4 -->
<g id="node6" class="node"><title>Node4</title>
<a xlink:href="struct_urho3_d_1_1_ref_count.html" target="_top" xlink:title="Reference count structure.">
<polygon fill="none" stroke="black" points="13,-575.5 13,-596.5 115,-596.5 115,-575.5 13,-575.5"/>
<text text-anchor="middle" x="64" y="-583.5" font-family="FreeSans" font-size="10.00">Urho3D::RefCount</text>
</a>
</g>
<!-- Node4&#45;&gt;Node3 -->
<g id="edge6" class="edge"><title>Node4&#45;&gt;Node3</title>
<path fill="none" stroke="#9a32cd" stroke-dasharray="5,2" d="M125.358,-586C156.225,-586 193.412,-586 223.695,-586"/>
<polygon fill="#9a32cd" stroke="#9a32cd" points="125.151,-582.5 115.151,-586 125.151,-589.5 125.151,-582.5"/>
<text text-anchor="middle" x="171" y="-590" font-family="FreeSans" font-size="10.00"> refCount_</text>
</g>
<!-- Node5&#45;&gt;Node2 -->
<g id="edge8" class="edge"><title>Node5&#45;&gt;Node2</title>
<path fill="none" stroke="#9a32cd" stroke-dasharray="5,2" d="M1094.25,-411.842C1090.79,-494.506 1073.48,-797.633 1004,-856 986.598,-870.618 665.521,-868.096 545.108,-866.626"/>
<polygon fill="#9a32cd" stroke="#9a32cd" points="1097.75,-411.819 1094.65,-401.689 1090.76,-411.544 1097.75,-411.819"/>
<text text-anchor="middle" x="767" y="-871" font-family="FreeSans" font-size="10.00"> context_</text>
</g>
<!-- Node6 -->
<g id="node11" class="node"><title>Node6</title>
<a xlink:href="class_urho3_d_1_1_p_o_d_vector.html" target="_top" xlink:title="Urho3D::PODVector\&lt;\l Urho3D::Object * \&gt;">
<polygon fill="none" stroke="black" points="707.5,-460 707.5,-494 826.5,-494 826.5,-460 707.5,-460"/>
<text text-anchor="start" x="715.5" y="-481" font-family="FreeSans" font-size="10.00">Urho3D::PODVector&lt;</text>
<text text-anchor="middle" x="767" y="-468" font-family="FreeSans" font-size="10.00"> Urho3D::Object * &gt;</text>
</a>
</g>
<!-- Node6&#45;&gt;Node5 -->
<g id="edge12" class="edge"><title>Node6&#45;&gt;Node5</title>
<path fill="none" stroke="#9a32cd" stroke-dasharray="5,2" d="M836.641,-462.207C884.08,-451.725 948.161,-436.769 1004,-421 1024.65,-415.168 1047.6,-407.596 1065.28,-401.518"/>
<polygon fill="#9a32cd" stroke="#9a32cd" points="835.795,-458.81 826.78,-464.375 837.298,-465.647 835.795,-458.81"/>
<text text-anchor="middle" x="946" y="-454" font-family="FreeSans" font-size="10.00"> eventSenders_</text>
</g>
<!-- Node7 -->
<g id="node13" class="node"><title>Node7</title>
<a xlink:href="class_urho3_d_1_1_vector_base.html" target="_top" xlink:title="Vector base class.">
<polygon fill="none" stroke="black" points="443,-486.5 443,-507.5 557,-507.5 557,-486.5 443,-486.5"/>
<text text-anchor="middle" x="500" y="-494.5" font-family="FreeSans" font-size="10.00">Urho3D::VectorBase</text>
</a>
</g>
<!-- Node7&#45;&gt;Node6 -->
<g id="edge14" class="edge"><title>Node7&#45;&gt;Node6</title>
<path fill="none" stroke="midnightblue" d="M567.367,-491.954C610.351,-488.734 665.573,-484.597 707.038,-481.492"/>
<polygon fill="midnightblue" stroke="midnightblue" points="566.989,-488.472 557.278,-492.709 567.512,-495.453 566.989,-488.472"/>
</g>
<!-- Node19 -->
<g id="node46" class="node"><title>Node19</title>
<a xlink:href="class_urho3_d_1_1_p_o_d_vector.html" target="_top" xlink:title="Urho3D::PODVector\&lt;\l Urho3D::HashMap * \&gt;">
<polygon fill="none" stroke="black" points="703.5,-512 703.5,-546 830.5,-546 830.5,-512 703.5,-512"/>
<text text-anchor="start" x="711.5" y="-533" font-family="FreeSans" font-size="10.00">Urho3D::PODVector&lt;</text>
<text text-anchor="middle" x="767" y="-520" font-family="FreeSans" font-size="10.00"> Urho3D::HashMap * &gt;</text>
</a>
</g>
<!-- Node7&#45;&gt;Node19 -->
<g id="edge58" class="edge"><title>Node7&#45;&gt;Node19</title>
<path fill="none" stroke="midnightblue" d="M567.344,-505.071C609.042,-510.069 662.263,-516.447 703.27,-521.362"/>
<polygon fill="midnightblue" stroke="midnightblue" points="567.624,-501.58 557.278,-503.865 566.791,-508.53 567.624,-501.58"/>
</g>
<!-- Node8&#45;&gt;Node5 -->
<g id="edge16" class="edge"><title>Node8&#45;&gt;Node5</title>
<path fill="none" stroke="#9a32cd" stroke-dasharray="5,2" d="M796.405,-759.464C817.598,-747.759 846.486,-730.737 870,-713 935.021,-663.954 956.252,-653.981 1004,-588 1050.38,-523.907 1081.9,-432.403 1091.73,-401.588"/>
<polygon fill="#9a32cd" stroke="#9a32cd" points="794.648,-756.436 787.545,-764.297 798,-762.581 794.648,-756.436"/>
<text text-anchor="middle" x="946" y="-703" font-family="FreeSans" font-size="10.00"> eventHandler_</text>
</g>
<!-- Node23 -->
<g id="node58" class="node"><title>Node23</title>
<a xlink:href="class_urho3_d_1_1_linked_list.html" target="_top" xlink:title="Urho3D::LinkedList\l\&lt; Urho3D::EventHandler \&gt;">
<polygon fill="none" stroke="black" points="1022,-849 1022,-883 1168,-883 1168,-849 1022,-849"/>
<text text-anchor="start" x="1030" y="-870" font-family="FreeSans" font-size="10.00">Urho3D::LinkedList</text>
<text text-anchor="middle" x="1095" y="-857" font-family="FreeSans" font-size="10.00">&lt; Urho3D::EventHandler &gt;</text>
</a>
</g>
<!-- Node8&#45;&gt;Node23 -->
<g id="edge74" class="edge"><title>Node8&#45;&gt;Node23</title>
<path fill="none" stroke="#9a32cd" stroke-dasharray="5,2" d="M814.934,-788.299C872.852,-804.368 970.39,-831.428 1033.72,-848.999"/>
<polygon fill="#9a32cd" stroke="#9a32cd" points="815.518,-784.829 804.946,-785.528 813.647,-791.574 815.518,-784.829"/>
<text text-anchor="middle" x="946" y="-843" font-family="FreeSans" font-size="10.00"> head_</text>
</g>
<!-- Node9 -->
<g id="node17" class="node"><title>Node9</title>
<a xlink:href="struct_urho3_d_1_1_linked_list_node.html" target="_top" xlink:title="Singly&#45;linked list node base class.">
<polygon fill="none" stroke="black" points="434,-784.5 434,-805.5 566,-805.5 566,-784.5 434,-784.5"/>
<text text-anchor="middle" x="500" y="-792.5" font-family="FreeSans" font-size="10.00">Urho3D::LinkedListNode</text>
</a>
</g>
<!-- Node9&#45;&gt;Node8 -->
<g id="edge18" class="edge"><title>Node9&#45;&gt;Node8</title>
<path fill="none" stroke="midnightblue" d="M576.168,-789.295C616.955,-786.239 666.556,-782.524 704.966,-779.647"/>
<polygon fill="midnightblue" stroke="midnightblue" points="575.711,-785.819 566,-790.056 576.234,-792.799 575.711,-785.819"/>
</g>
<!-- Node9&#45;&gt;Node9 -->
<g id="edge20" class="edge"><title>Node9&#45;&gt;Node9</title>
<path fill="none" stroke="#9a32cd" stroke-dasharray="5,2" d="M480.097,-815.427C481.632,-820.349 488.267,-824 500,-824 518.773,-824 524.493,-814.653 517.16,-805.708"/>
<polygon fill="#9a32cd" stroke="#9a32cd" points="483.492,-816.283 482.84,-805.708 476.755,-814.381 483.492,-816.283"/>
<text text-anchor="middle" x="500" y="-828" font-family="FreeSans" font-size="10.00"> next_</text>
</g>
<!-- Node10 -->
<g id="node21" class="node"><title>Node10</title>
<a xlink:href="class_urho3_d_1_1_string_hash.html" target="_top" xlink:title="32&#45;bit hash value for a string.">
<polygon fill="none" stroke="black" points="443.5,-713.5 443.5,-734.5 556.5,-734.5 556.5,-713.5 443.5,-713.5"/>
<text text-anchor="middle" x="500" y="-721.5" font-family="FreeSans" font-size="10.00">Urho3D::StringHash</text>
</a>
</g>
<!-- Node10&#45;&gt;Node1 -->
<g id="edge82" class="edge"><title>Node10&#45;&gt;Node1</title>
<path fill="none" stroke="#9a32cd" stroke-dasharray="5,2" d="M567.138,-714.174C572.838,-713.411 578.517,-712.676 584,-712 628.224,-706.547 678.59,-701.395 715.274,-697.836"/>
<polygon fill="#9a32cd" stroke="#9a32cd" points="566.329,-710.752 556.893,-715.571 567.275,-717.688 566.329,-710.752"/>
<text text-anchor="middle" x="615" y="-716" font-family="FreeSans" font-size="10.00"> nameHash_</text>
</g>
<!-- Node10&#45;&gt;Node8 -->
<g id="edge24" class="edge"><title>Node10&#45;&gt;Node8</title>
<path fill="none" stroke="#9a32cd" stroke-dasharray="5,2" d="M564.929,-736.402C609.831,-744.979 668.937,-756.269 711.614,-764.421"/>
<polygon fill="#9a32cd" stroke="#9a32cd" points="565.478,-732.944 554.999,-734.505 564.165,-739.82 565.478,-732.944"/>
<text text-anchor="middle" x="615" y="-755" font-family="FreeSans" font-size="10.00"> eventType_</text>
</g>
<!-- Node10&#45;&gt;Node10 -->
<g id="edge26" class="edge"><title>Node10&#45;&gt;Node10</title>
<path fill="none" stroke="#9a32cd" stroke-dasharray="5,2" d="M480.097,-744.427C481.632,-749.349 488.267,-753 500,-753 518.773,-753 524.493,-743.653 517.16,-734.708"/>
<polygon fill="#9a32cd" stroke="#9a32cd" points="483.492,-745.283 482.84,-734.708 476.755,-743.381 483.492,-745.283"/>
<text text-anchor="middle" x="500" y="-757" font-family="FreeSans" font-size="10.00"> ZERO</text>
</g>
<!-- Node11 -->
<g id="node24" class="node"><title>Node11</title>
<a xlink:href="class_urho3_d_1_1_hash_map.html" target="_top" xlink:title="Urho3D::HashMap\&lt; Urho3D\l::StringHash, Urho3D::\lHashSet\&lt; Urho3D::Object * \&gt; \&gt;">
<polygon fill="none" stroke="black" points="680.5,-52.5 680.5,-99.5 853.5,-99.5 853.5,-52.5 680.5,-52.5"/>
<text text-anchor="start" x="688.5" y="-86.5" font-family="FreeSans" font-size="10.00">Urho3D::HashMap&lt; Urho3D</text>
<text text-anchor="start" x="688.5" y="-73.5" font-family="FreeSans" font-size="10.00">::StringHash, Urho3D::</text>
<text text-anchor="middle" x="767" y="-60.5" font-family="FreeSans" font-size="10.00">HashSet&lt; Urho3D::Object * &gt; &gt;</text>
</a>
</g>
<!-- Node11&#45;&gt;Node5 -->
<g id="edge28" class="edge"><title>Node11&#45;&gt;Node5</title>
<path fill="none" stroke="#9a32cd" stroke-dasharray="5,2" d="M863.672,-83.8637C911.124,-92.3394 966.087,-109.688 1004,-145 1076.31,-212.349 1091.42,-342.276 1094.34,-380.301"/>
<polygon fill="#9a32cd" stroke="#9a32cd" points="864.111,-80.3884 853.669,-82.1864 862.953,-87.292 864.111,-80.3884"/>
<text text-anchor="middle" x="946" y="-149" font-family="FreeSans" font-size="10.00"> eventReceivers_</text>
</g>
<!-- Node12 -->
<g id="node26" class="node"><title>Node12</title>
<a xlink:href="class_urho3_d_1_1_hash_base.html" target="_top" xlink:title="Hash set/map base class.">
<polygon fill="none" stroke="black" points="446,-197.5 446,-218.5 554,-218.5 554,-197.5 446,-197.5"/>
<text text-anchor="middle" x="500" y="-205.5" font-family="FreeSans" font-size="10.00">Urho3D::HashBase</text>
</a>
</g>
<!-- Node12&#45;&gt;Node11 -->
<g id="edge30" class="edge"><title>Node12&#45;&gt;Node11</title>
<path fill="none" stroke="midnightblue" d="M523.085,-191.68C553.996,-170.395 611.09,-133.047 664,-109 671.351,-105.659 679.138,-102.51 687.008,-99.5814"/>
<polygon fill="midnightblue" stroke="midnightblue" points="520.942,-188.906 514.725,-197.485 524.935,-194.656 520.942,-188.906"/>
</g>
<!-- Node16 -->
<g id="node37" class="node"><title>Node16</title>
<a xlink:href="class_urho3_d_1_1_hash_map.html" target="_top" xlink:title="Urho3D::HashMap\&lt; StringHash,\l Variant \&gt;">
<polygon fill="none" stroke="black" points="681,-0 681,-34 853,-34 853,-0 681,-0"/>
<text text-anchor="start" x="689" y="-21" font-family="FreeSans" font-size="10.00">Urho3D::HashMap&lt; StringHash,</text>
<text text-anchor="middle" x="767" y="-8" font-family="FreeSans" font-size="10.00"> Variant &gt;</text>
</a>
</g>
<!-- Node12&#45;&gt;Node16 -->
<g id="edge46" class="edge"><title>Node12&#45;&gt;Node16</title>
<path fill="none" stroke="midnightblue" d="M512.828,-188.938C537.564,-153.83 595.505,-79.2327 664,-43 670.439,-39.5936 677.344,-36.6194 684.417,-34.0252"/>
<polygon fill="midnightblue" stroke="midnightblue" points="509.821,-187.134 507.009,-197.349 515.577,-191.117 509.821,-187.134"/>
</g>
<!-- Node17 -->
<g id="node40" class="node"><title>Node17</title>
<a xlink:href="class_urho3_d_1_1_hash_map.html" target="_top" xlink:title="Urho3D::HashMap\&lt; Urho3D\l::Object *, Urho3D::HashMap\l\&lt; Urho3D::StringHash, Urho3D\l::HashSet\&lt; Urho3D::Object * \&gt; \&gt; \&gt;">
<polygon fill="none" stroke="black" points="671.5,-382 671.5,-442 862.5,-442 862.5,-382 671.5,-382"/>
<text text-anchor="start" x="679.5" y="-429" font-family="FreeSans" font-size="10.00">Urho3D::HashMap&lt; Urho3D</text>
<text text-anchor="start" x="679.5" y="-416" font-family="FreeSans" font-size="10.00">::Object *, Urho3D::HashMap</text>
<text text-anchor="start" x="679.5" y="-403" font-family="FreeSans" font-size="10.00">&lt; Urho3D::StringHash, Urho3D</text>
<text text-anchor="middle" x="767" y="-390" font-family="FreeSans" font-size="10.00">::HashSet&lt; Urho3D::Object * &gt; &gt; &gt;</text>
</a>
</g>
<!-- Node12&#45;&gt;Node17 -->
<g id="edge50" class="edge"><title>Node12&#45;&gt;Node17</title>
<path fill="none" stroke="midnightblue" d="M514.142,-227.054C540.212,-260.94 599.145,-331.965 664,-373 669.009,-376.169 674.315,-379.143 679.773,-381.922"/>
<polygon fill="midnightblue" stroke="midnightblue" points="516.793,-224.758 507.96,-218.908 511.217,-228.99 516.793,-224.758"/>
</g>
<!-- Node18 -->
<g id="node43" class="node"><title>Node18</title>
<a xlink:href="class_urho3_d_1_1_hash_map.html" target="_top" xlink:title="Urho3D::HashMap\&lt; Urho3D\l::StringHash, Urho3D::\lSharedPtr\&lt; Urho3D::Object \&gt; \&gt;">
<polygon fill="none" stroke="black" points="681,-316.5 681,-363.5 853,-363.5 853,-316.5 681,-316.5"/>
<text text-anchor="start" x="689" y="-350.5" font-family="FreeSans" font-size="10.00">Urho3D::HashMap&lt; Urho3D</text>
<text text-anchor="start" x="689" y="-337.5" font-family="FreeSans" font-size="10.00">::StringHash, Urho3D::</text>
<text text-anchor="middle" x="767" y="-324.5" font-family="FreeSans" font-size="10.00">SharedPtr&lt; Urho3D::Object &gt; &gt;</text>
</a>
</g>
<!-- Node12&#45;&gt;Node18 -->
<g id="edge54" class="edge"><title>Node12&#45;&gt;Node18</title>
<path fill="none" stroke="midnightblue" d="M523.085,-224.32C553.996,-245.605 611.09,-282.953 664,-307 671.351,-310.341 679.138,-313.49 687.008,-316.419"/>
<polygon fill="midnightblue" stroke="midnightblue" points="524.935,-221.344 514.725,-218.515 520.942,-227.094 524.935,-221.344"/>
</g>
<!-- Node20 -->
<g id="node49" class="node"><title>Node20</title>
<a xlink:href="class_urho3_d_1_1_hash_map.html" target="_top" xlink:title="Urho3D::HashMap\&lt; Urho3D\l::StringHash, Urho3D::\lSharedPtr\&lt; Urho3D::ObjectFactory \&gt; \&gt;">
<polygon fill="none" stroke="black" points="664,-250.5 664,-297.5 870,-297.5 870,-250.5 664,-250.5"/>
<text text-anchor="start" x="672" y="-284.5" font-family="FreeSans" font-size="10.00">Urho3D::HashMap&lt; Urho3D</text>
<text text-anchor="start" x="672" y="-271.5" font-family="FreeSans" font-size="10.00">::StringHash, Urho3D::</text>
<text text-anchor="middle" x="767" y="-258.5" font-family="FreeSans" font-size="10.00">SharedPtr&lt; Urho3D::ObjectFactory &gt; &gt;</text>
</a>
</g>
<!-- Node12&#45;&gt;Node20 -->
<g id="edge62" class="edge"><title>Node12&#45;&gt;Node20</title>
<path fill="none" stroke="midnightblue" d="M552.747,-221.039C586.643,-229.417 631.666,-240.547 671.689,-250.44"/>
<polygon fill="midnightblue" stroke="midnightblue" points="553.15,-217.533 542.602,-218.531 551.47,-224.328 553.15,-217.533"/>
</g>
<!-- Node21 -->
<g id="node52" class="node"><title>Node21</title>
<a xlink:href="class_urho3_d_1_1_hash_map.html" target="_top" xlink:title="Urho3D::HashMap\&lt; Urho3D\l::String, Urho3D::Vector\l\&lt; Urho3D::StringHash \&gt; \&gt;">
<polygon fill="none" stroke="black" points="691,-184.5 691,-231.5 843,-231.5 843,-184.5 691,-184.5"/>
<text text-anchor="start" x="699" y="-218.5" font-family="FreeSans" font-size="10.00">Urho3D::HashMap&lt; Urho3D</text>
<text text-anchor="start" x="699" y="-205.5" font-family="FreeSans" font-size="10.00">::String, Urho3D::Vector</text>
<text text-anchor="middle" x="767" y="-192.5" font-family="FreeSans" font-size="10.00">&lt; Urho3D::StringHash &gt; &gt;</text>
</a>
</g>
<!-- Node12&#45;&gt;Node21 -->
<g id="edge66" class="edge"><title>Node12&#45;&gt;Node21</title>
<path fill="none" stroke="midnightblue" d="M564.472,-208C602.512,-208 650.869,-208 690.79,-208"/>
<polygon fill="midnightblue" stroke="midnightblue" points="564.031,-204.5 554.031,-208 564.031,-211.5 564.031,-204.5"/>
</g>
<!-- Node22 -->
<g id="node55" class="node"><title>Node22</title>
<a xlink:href="class_urho3_d_1_1_hash_map.html" target="_top" xlink:title="Urho3D::HashMap\&lt; Urho3D\l::StringHash, Urho3D::\lVector\&lt; Urho3D::AttributeInfo \&gt; \&gt;">
<polygon fill="none" stroke="black" points="675.5,-118.5 675.5,-165.5 858.5,-165.5 858.5,-118.5 675.5,-118.5"/>
<text text-anchor="start" x="683.5" y="-152.5" font-family="FreeSans" font-size="10.00">Urho3D::HashMap&lt; Urho3D</text>
<text text-anchor="start" x="683.5" y="-139.5" font-family="FreeSans" font-size="10.00">::StringHash, Urho3D::</text>
<text text-anchor="middle" x="767" y="-126.5" font-family="FreeSans" font-size="10.00">Vector&lt; Urho3D::AttributeInfo &gt; &gt;</text>
</a>
</g>
<!-- Node12&#45;&gt;Node22 -->
<g id="edge70" class="edge"><title>Node12&#45;&gt;Node22</title>
<path fill="none" stroke="midnightblue" d="M552.587,-195.001C587.533,-186.363 634.356,-174.788 675.331,-164.66"/>
<polygon fill="midnightblue" stroke="midnightblue" points="551.47,-191.672 542.602,-197.469 553.15,-198.467 551.47,-191.672"/>
</g>
<!-- Node13 -->
<g id="node28" class="node"><title>Node13</title>
<a xlink:href="struct_urho3_d_1_1_hash_node_base.html" target="_top" xlink:title="Hash set/map node base class.">
<polygon fill="none" stroke="black" points="214,-232.5 214,-253.5 348,-253.5 348,-232.5 214,-232.5"/>
<text text-anchor="middle" x="281" y="-240.5" font-family="FreeSans" font-size="10.00">Urho3D::HashNodeBase</text>
</a>
</g>
<!-- Node13&#45;&gt;Node12 -->
<g id="edge32" class="edge"><title>Node13&#45;&gt;Node12</title>
<path fill="none" stroke="#9a32cd" stroke-dasharray="5,2" d="M356.892,-230.871C386.149,-226.195 418.951,-220.953 445.762,-216.668"/>
<polygon fill="#9a32cd" stroke="#9a32cd" points="356.03,-227.464 346.707,-232.499 357.134,-234.377 356.03,-227.464"/>
<text text-anchor="middle" x="391" y="-259" font-family="FreeSans" font-size="10.00"> ptrs_</text>
<text text-anchor="middle" x="391" y="-246" font-family="FreeSans" font-size="10.00">tail_</text>
<text text-anchor="middle" x="391" y="-233" font-family="FreeSans" font-size="10.00">head_</text>
</g>
<!-- Node13&#45;&gt;Node13 -->
<g id="edge34" class="edge"><title>Node13&#45;&gt;Node13</title>
<path fill="none" stroke="#9a32cd" stroke-dasharray="5,2" d="M260.728,-263.427C262.292,-268.349 269.049,-272 281,-272 300.121,-272 305.947,-262.653 298.478,-253.708"/>
<polygon fill="#9a32cd" stroke="#9a32cd" points="264.123,-264.286 263.522,-253.708 257.395,-262.352 264.123,-264.286"/>
<text text-anchor="middle" x="281" y="-302" font-family="FreeSans" font-size="10.00"> next_</text>
<text text-anchor="middle" x="281" y="-289" font-family="FreeSans" font-size="10.00">prev_</text>
<text text-anchor="middle" x="281" y="-276" font-family="FreeSans" font-size="10.00">down_</text>
</g>
<!-- Node14 -->
<g id="node31" class="node"><title>Node14</title>
<a xlink:href="struct_urho3_d_1_1_allocator_block.html" target="_top" xlink:title="Allocator memory block.">
<polygon fill="none" stroke="black" points="217.5,-161.5 217.5,-182.5 344.5,-182.5 344.5,-161.5 217.5,-161.5"/>
<text text-anchor="middle" x="281" y="-169.5" font-family="FreeSans" font-size="10.00">Urho3D::AllocatorBlock</text>
</a>
</g>
<!-- Node14&#45;&gt;Node12 -->
<g id="edge36" class="edge"><title>Node14&#45;&gt;Node12</title>
<path fill="none" stroke="#9a32cd" stroke-dasharray="5,2" d="M354.595,-184.098C384.452,-189.006 418.314,-194.572 445.844,-199.098"/>
<polygon fill="#9a32cd" stroke="#9a32cd" points="355.073,-180.63 344.638,-182.461 353.938,-187.537 355.073,-180.63"/>
<text text-anchor="middle" x="391" y="-198" font-family="FreeSans" font-size="10.00"> allocator_</text>
</g>
<!-- Node14&#45;&gt;Node14 -->
<g id="edge38" class="edge"><title>Node14&#45;&gt;Node14</title>
<path fill="none" stroke="#9a32cd" stroke-dasharray="5,2" d="M260.728,-192.427C262.292,-197.349 269.049,-201 281,-201 300.121,-201 305.947,-191.653 298.478,-182.708"/>
<polygon fill="#9a32cd" stroke="#9a32cd" points="264.123,-193.286 263.522,-182.708 257.395,-191.352 264.123,-193.286"/>
<text text-anchor="middle" x="281" y="-205" font-family="FreeSans" font-size="10.00"> next_</text>
</g>
<!-- Node15 -->
<g id="node34" class="node"><title>Node15</title>
<a xlink:href="struct_urho3_d_1_1_allocator_node.html" target="_top" xlink:title="Allocator node.">
<polygon fill="none" stroke="black" points="0.5,-161.5 0.5,-182.5 127.5,-182.5 127.5,-161.5 0.5,-161.5"/>
<text text-anchor="middle" x="64" y="-169.5" font-family="FreeSans" font-size="10.00">Urho3D::AllocatorNode</text>
</a>
</g>
<!-- Node15&#45;&gt;Node14 -->
<g id="edge40" class="edge"><title>Node15&#45;&gt;Node14</title>
<path fill="none" stroke="#9a32cd" stroke-dasharray="5,2" d="M137.765,-172C163.616,-172 192.409,-172 217.36,-172"/>
<polygon fill="#9a32cd" stroke="#9a32cd" points="137.641,-168.5 127.641,-172 137.641,-175.5 137.641,-168.5"/>
<text text-anchor="middle" x="171" y="-176" font-family="FreeSans" font-size="10.00"> free_</text>
</g>
<!-- Node15&#45;&gt;Node15 -->
<g id="edge42" class="edge"><title>Node15&#45;&gt;Node15</title>
<path fill="none" stroke="#9a32cd" stroke-dasharray="5,2" d="M44.4653,-192.427C45.9723,-197.349 52.4839,-201 64,-201 82.4258,-201 88.0399,-191.653 80.8423,-182.708"/>
<polygon fill="#9a32cd" stroke="#9a32cd" points="47.8609,-193.279 47.1577,-182.708 41.1149,-191.41 47.8609,-193.279"/>
<text text-anchor="middle" x="64" y="-205" font-family="FreeSans" font-size="10.00"> next_</text>
</g>
<!-- Node16&#45;&gt;Node5 -->
<g id="edge44" class="edge"><title>Node16&#45;&gt;Node5</title>
<path fill="none" stroke="#9a32cd" stroke-dasharray="5,2" d="M863.351,-17.7178C911.263,-23.0401 966.737,-37.437 1004,-73 1050.84,-117.701 1085.77,-330.392 1093.43,-380.438"/>
<polygon fill="#9a32cd" stroke="#9a32cd" points="863.548,-14.2202 853.251,-16.7154 862.857,-21.186 863.548,-14.2202"/>
<text text-anchor="middle" x="946" y="-77" font-family="FreeSans" font-size="10.00"> globalVars_</text>
</g>
<!-- Node17&#45;&gt;Node5 -->
<g id="edge48" class="edge"><title>Node17&#45;&gt;Node5</title>
<path fill="none" stroke="#9a32cd" stroke-dasharray="5,2" d="M872.745,-405.23C931.009,-401.499 1000.55,-397.047 1046.14,-394.128"/>
<polygon fill="#9a32cd" stroke="#9a32cd" points="872.509,-401.738 862.753,-405.869 872.956,-408.723 872.509,-401.738"/>
<text text-anchor="middle" x="946" y="-408" font-family="FreeSans" font-size="10.00"> specificEventReceivers_</text>
</g>
<!-- Node18&#45;&gt;Node5 -->
<g id="edge52" class="edge"><title>Node18&#45;&gt;Node5</title>
<path fill="none" stroke="#9a32cd" stroke-dasharray="5,2" d="M863.09,-354.941C923.305,-364.303 998.354,-375.973 1046.48,-383.455"/>
<polygon fill="#9a32cd" stroke="#9a32cd" points="863.597,-351.478 853.178,-353.4 862.522,-358.395 863.597,-351.478"/>
<text text-anchor="middle" x="946" y="-380" font-family="FreeSans" font-size="10.00"> subsystems_</text>
</g>
<!-- Node19&#45;&gt;Node5 -->
<g id="edge56" class="edge"><title>Node19&#45;&gt;Node5</title>
<path fill="none" stroke="#9a32cd" stroke-dasharray="5,2" d="M840.744,-518.448C889.144,-509.459 952.733,-493.634 1004,-467 1037.61,-449.539 1069.92,-417.917 1085.43,-401.51"/>
<polygon fill="#9a32cd" stroke="#9a32cd" points="839.878,-515.047 830.656,-520.264 841.118,-521.937 839.878,-515.047"/>
<text text-anchor="middle" x="946" y="-511" font-family="FreeSans" font-size="10.00"> eventDataMaps_</text>
</g>
<!-- Node20&#45;&gt;Node5 -->
<g id="edge60" class="edge"><title>Node20&#45;&gt;Node5</title>
<path fill="none" stroke="#9a32cd" stroke-dasharray="5,2" d="M874.014,-300.215C915.269,-311.597 962.44,-326.19 1004,-343 1030.49,-353.716 1059.42,-369.787 1077.38,-380.333"/>
<polygon fill="#9a32cd" stroke="#9a32cd" points="874.781,-296.796 864.212,-297.54 872.938,-303.549 874.781,-296.796"/>
<text text-anchor="middle" x="946" y="-347" font-family="FreeSans" font-size="10.00"> factories_</text>
</g>
<!-- Node21&#45;&gt;Node5 -->
<g id="edge64" class="edge"><title>Node21&#45;&gt;Node5</title>
<path fill="none" stroke="#9a32cd" stroke-dasharray="5,2" d="M853.155,-234.644C915.427,-254.314 990.833,-279.141 1004,-288 1042.41,-313.841 1074.86,-359.668 1088.33,-380.349"/>
<polygon fill="#9a32cd" stroke="#9a32cd" points="853.874,-231.202 843.285,-231.535 851.771,-237.878 853.874,-231.202"/>
<text text-anchor="middle" x="946" y="-292" font-family="FreeSans" font-size="10.00"> objectCategories_</text>
</g>
<!-- Node22&#45;&gt;Node5 -->
<g id="edge68" class="edge"><title>Node22&#45;&gt;Node5</title>
<path fill="none" stroke="#9a32cd" stroke-dasharray="5,2" d="M868.534,-156.095C914.017,-166.648 965.871,-185.034 1004,-217 1058.6,-262.774 1084.7,-349.782 1092.45,-380.187"/>
<polygon fill="#9a32cd" stroke="#9a32cd" points="869.154,-152.647 858.633,-153.896 867.636,-159.481 869.154,-152.647"/>
<text text-anchor="middle" x="946" y="-234" font-family="FreeSans" font-size="10.00"> attributes_</text>
<text text-anchor="middle" x="946" y="-221" font-family="FreeSans" font-size="10.00">networkAttributes_</text>
</g>
<!-- Node23&#45;&gt;Node2 -->
<g id="edge72" class="edge"><title>Node23&#45;&gt;Node2</title>
<path fill="none" stroke="#9a32cd" stroke-dasharray="5,2" d="M1022,-885.091C1015.94,-886.235 1009.89,-887.232 1004,-888 854.154,-907.559 815.09,-893.832 664,-891 628.426,-890.333 619.198,-893.205 584,-888 567.148,-885.508 548.807,-880.929 533.574,-876.592"/>
<polygon fill="#9a32cd" stroke="#9a32cd" points="1023.07,-888.447 1032.18,-883.04 1021.68,-881.585 1023.07,-888.447"/>
<text text-anchor="middle" x="767" y="-902" font-family="FreeSans" font-size="10.00"> eventHandlers_</text>
</g>
<!-- Node24 -->
<g id="node61" class="node"><title>Node24</title>
<a xlink:href="class_urho3_d_1_1_timer.html" target="_top" xlink:title="Low&#45;resolution operating system timer.">
<polygon fill="none" stroke="black" points="457,-673.5 457,-694.5 543,-694.5 543,-673.5 457,-673.5"/>
<text text-anchor="middle" x="500" y="-681.5" font-family="FreeSans" font-size="10.00">Urho3D::Timer</text>
</a>
</g>
<!-- Node24&#45;&gt;Node1 -->
<g id="edge76" class="edge"><title>Node24&#45;&gt;Node1</title>
<path fill="none" stroke="#9a32cd" stroke-dasharray="5,2" d="M553.157,-678.168C563.381,-677.265 574.013,-676.474 584,-676 611.525,-674.692 618.512,-674.078 646,-676 668.855,-677.598 693.961,-680.873 715.352,-684.126"/>
<polygon fill="#9a32cd" stroke="#9a32cd" points="552.742,-674.692 543.109,-679.102 553.39,-681.662 552.742,-674.692"/>
<text text-anchor="middle" x="615" y="-680" font-family="FreeSans" font-size="10.00"> useTimer_</text>
</g>
<!-- Node25 -->
<g id="node63" class="node"><title>Node25</title>
<a xlink:href="class_urho3_d_1_1_string.html" target="_top" xlink:title="String class.">
<polygon fill="none" stroke="black" points="456,-602.5 456,-623.5 544,-623.5 544,-602.5 456,-602.5"/>
<text text-anchor="middle" x="500" y="-610.5" font-family="FreeSans" font-size="10.00">Urho3D::String</text>
</a>
</g>
<!-- Node25&#45;&gt;Node1 -->
<g id="edge78" class="edge"><title>Node25&#45;&gt;Node1</title>
<path fill="none" stroke="#9a32cd" stroke-dasharray="5,2" d="M544.921,-626.459C597.558,-642.231 683.676,-668.034 731.742,-682.436"/>
<polygon fill="#9a32cd" stroke="#9a32cd" points="545.764,-623.058 535.18,-623.541 543.755,-629.764 545.764,-623.058"/>
<text text-anchor="middle" x="615" y="-659" font-family="FreeSans" font-size="10.00"> name_</text>
</g>
<!-- Node25&#45;&gt;Node25 -->
<g id="edge80" class="edge"><title>Node25&#45;&gt;Node25</title>
<path fill="none" stroke="#9a32cd" stroke-dasharray="5,2" d="M480.097,-633.427C481.632,-638.349 488.267,-642 500,-642 518.773,-642 524.493,-632.653 517.16,-623.708"/>
<polygon fill="#9a32cd" stroke="#9a32cd" points="483.492,-634.283 482.84,-623.708 476.755,-632.381 483.492,-634.283"/>
<text text-anchor="middle" x="500" y="-646" font-family="FreeSans" font-size="10.00"> EMPTY</text>
</g>
</g>
</svg>
