<?xml version="1.0" encoding="UTF-8" standalone="no"?>
<!DOCTYPE svg PUBLIC "-//W3C//DTD SVG 1.1//EN"
 "http://www.w3.org/Graphics/SVG/1.1/DTD/svg11.dtd">
<!-- Generated by graphviz version 2.26.3 (20100126.1600)
 -->
<!-- Title: Urho3D::SceneReplicationState Pages: 1 -->
<svg width="1718pt" height="812pt"
 viewBox="0.00 0.00 1718.00 812.09" xmlns="http://www.w3.org/2000/svg" xmlns:xlink="http://www.w3.org/1999/xlink">
<g id="graph1" class="graph" transform="scale(1 1) rotate(0) translate(4 808.089)">
<title>Urho3D::SceneReplicationState</title>
<!-- Node1 -->
<g id="node1" class="node"><title>Node1</title>
<polygon fill="#bfbfbf" stroke="black" points="929,-711.799 929,-745.799 1069,-745.799 1069,-711.799 929,-711.799"/>
<text text-anchor="start" x="937" y="-732.799" font-family="FreeSans" font-size="10.00">Urho3D::SceneReplication</text>
<text text-anchor="middle" x="999" y="-719.799" font-family="FreeSans" font-size="10.00">State</text>
</g>
<!-- Node3 -->
<g id="node4" class="node"><title>Node3</title>
<a xlink:href="class_urho3_d_1_1_connection.html" target="_top" xlink:title="Connection to a remote network host.">
<polygon fill="none" stroke="black" points="1360.5,-455.299 1360.5,-476.299 1473.5,-476.299 1473.5,-455.299 1360.5,-455.299"/>
<text text-anchor="middle" x="1417" y="-463.299" font-family="FreeSans" font-size="10.00">Urho3D::Connection</text>
</a>
</g>
<!-- Node1&#45;&gt;Node3 -->
<g id="edge28" class="edge"><title>Node1&#45;&gt;Node3</title>
<path fill="none" stroke="#9a32cd" stroke-dasharray="5,2" d="M1079.21,-727.93C1128.68,-725.64 1192.98,-719.477 1248,-703.799 1292.73,-691.054 1310.5,-692.02 1342,-657.799 1393.14,-602.245 1410.93,-507.836 1415.6,-476.362"/>
<polygon fill="#9a32cd" stroke="#9a32cd" points="1079.05,-724.434 1069.2,-728.35 1079.34,-731.427 1079.05,-724.434"/>
<text text-anchor="middle" x="1175" y="-729.799" font-family="FreeSans" font-size="10.00"> sceneState_</text>
</g>
<!-- Node2 -->
<g id="node2" class="node"><title>Node2</title>
<a xlink:href="struct_urho3_d_1_1_replication_state.html" target="_top" xlink:title="Base class for per&#45;user network replication states.">
<polygon fill="none" stroke="black" points="1572.5,-699.299 1572.5,-720.299 1709.5,-720.299 1709.5,-699.299 1572.5,-699.299"/>
<text text-anchor="middle" x="1641" y="-707.299" font-family="FreeSans" font-size="10.00">Urho3D::ReplicationState</text>
</a>
</g>
<!-- Node2&#45;&gt;Node1 -->
<g id="edge2" class="edge"><title>Node2&#45;&gt;Node1</title>
<path fill="none" stroke="midnightblue" d="M1606.86,-724.1C1520.84,-758.131 1288.74,-837.495 1102,-787.799 1071.53,-779.691 1040.69,-760.2 1020.81,-745.829"/>
<polygon fill="midnightblue" stroke="midnightblue" points="1608.17,-727.347 1616.15,-720.377 1605.56,-720.85 1608.17,-727.347"/>
</g>
<!-- Node3&#45;&gt;Node2 -->
<g id="edge4" class="edge"><title>Node3&#45;&gt;Node2</title>
<path fill="none" stroke="#9a32cd" stroke-dasharray="5,2" d="M1433.8,-484.104C1477.97,-532.216 1596.33,-661.136 1631.2,-699.125"/>
<polygon fill="#9a32cd" stroke="#9a32cd" points="1436.26,-481.598 1426.91,-476.599 1431.1,-486.332 1436.26,-481.598"/>
<text text-anchor="middle" x="1523" y="-612.799" font-family="FreeSans" font-size="10.00"> connection_</text>
</g>
<!-- Node4 -->
<g id="node6" class="node"><title>Node4</title>
<a xlink:href="class_urho3_d_1_1_object.html" target="_top" xlink:title="Base class for objects with type identification, subsystem access and event sending/receiving capabil...">
<polygon fill="none" stroke="black" points="1130,-567.299 1130,-588.299 1220,-588.299 1220,-567.299 1130,-567.299"/>
<text text-anchor="middle" x="1175" y="-575.299" font-family="FreeSans" font-size="10.00">Urho3D::Object</text>
</a>
</g>
<!-- Node4&#45;&gt;Node3 -->
<g id="edge6" class="edge"><title>Node4&#45;&gt;Node3</title>
<path fill="none" stroke="midnightblue" d="M1230.26,-570.571C1264.06,-564.492 1307.32,-553.652 1342,-534.799 1369.98,-519.59 1395.69,-491.656 1408.49,-476.411"/>
<polygon fill="midnightblue" stroke="midnightblue" points="1229.36,-567.174 1220.09,-572.309 1230.54,-574.074 1229.36,-567.174"/>
</g>
<!-- Node5 -->
<g id="node8" class="node"><title>Node5</title>
<a xlink:href="class_urho3_d_1_1_ref_counted.html" target="_top" xlink:title="Base class for intrusively reference&#45;counted objects. These are noncopyable and non&#45;assignable.">
<polygon fill="none" stroke="red" points="395,-529.299 395,-550.299 509,-550.299 509,-529.299 395,-529.299"/>
<text text-anchor="middle" x="452" y="-537.299" font-family="FreeSans" font-size="10.00">Urho3D::RefCounted</text>
</a>
</g>
<!-- Node5&#45;&gt;Node4 -->
<g id="edge8" class="edge"><title>Node5&#45;&gt;Node4</title>
<path fill="none" stroke="midnightblue" d="M519.185,-543.331C664.96,-550.992 1007.04,-568.972 1129.99,-575.434"/>
<polygon fill="midnightblue" stroke="midnightblue" points="519.204,-539.827 509.034,-542.797 518.837,-546.817 519.204,-539.827"/>
</g>
<!-- Node6 -->
<g id="node10" class="node"><title>Node6</title>
<a xlink:href="class_urho3_d_1_1_context.html" target="_top" xlink:title="Urho3D execution context. Provides access to subsystems, object factories and attributes, and event receivers.">
<polygon fill="none" stroke="red" points="774.5,-500.299 774.5,-521.299 871.5,-521.299 871.5,-500.299 774.5,-500.299"/>
<text text-anchor="middle" x="823" y="-508.299" font-family="FreeSans" font-size="10.00">Urho3D::Context</text>
</a>
</g>
<!-- Node5&#45;&gt;Node6 -->
<g id="edge12" class="edge"><title>Node5&#45;&gt;Node6</title>
<path fill="none" stroke="midnightblue" d="M519.251,-534.543C592.867,-528.788 709.092,-519.703 774.363,-514.601"/>
<polygon fill="midnightblue" stroke="midnightblue" points="518.852,-531.063 509.156,-535.332 519.398,-538.042 518.852,-531.063"/>
</g>
<!-- Node6&#45;&gt;Node4 -->
<g id="edge10" class="edge"><title>Node6&#45;&gt;Node4</title>
<path fill="none" stroke="#9a32cd" stroke-dasharray="5,2" d="M882.095,-506.822C948.671,-503.488 1051.8,-502.121 1084,-522.799 1098.72,-532.251 1088.42,-546.779 1102,-557.799 1109.96,-564.257 1119.85,-568.636 1129.75,-571.604"/>
<polygon fill="#9a32cd" stroke="#9a32cd" points="881.541,-503.347 871.741,-507.372 881.912,-510.337 881.541,-503.347"/>
<text text-anchor="middle" x="999" y="-526.799" font-family="FreeSans" font-size="10.00"> context_</text>
</g>
<!-- Node7 -->
<g id="node13" class="node"><title>Node7</title>
<a xlink:href="class_urho3_d_1_1_hash_map.html" target="_top" xlink:title="Urho3D::HashMap\&lt; StringHash,\l Variant \&gt;">
<polygon fill="none" stroke="black" points="366,-446.799 366,-480.799 538,-480.799 538,-446.799 366,-446.799"/>
<text text-anchor="start" x="374" y="-467.799" font-family="FreeSans" font-size="10.00">Urho3D::HashMap&lt; StringHash,</text>
<text text-anchor="middle" x="452" y="-454.799" font-family="FreeSans" font-size="10.00"> Variant &gt;</text>
</a>
</g>
<!-- Node7&#45;&gt;Node3 -->
<g id="edge68" class="edge"><title>Node7&#45;&gt;Node3</title>
<path fill="none" stroke="#9a32cd" stroke-dasharray="5,2" d="M548.323,-458.227C550.909,-458.082 553.472,-457.939 556,-457.799 715.091,-448.989 754.721,-443.023 914,-438.799 989.529,-436.796 1016.08,-405.706 1084,-438.799 1095.67,-444.485 1090.42,-455.937 1102,-461.799 1167.06,-494.735 1193.09,-465.688 1266,-466.799 1297.19,-467.275 1332.01,-467.092 1360.35,-466.76"/>
<polygon fill="#9a32cd" stroke="#9a32cd" points="548.047,-454.737 538.259,-458.792 548.439,-461.725 548.047,-454.737"/>
<text text-anchor="middle" x="999" y="-442.799" font-family="FreeSans" font-size="10.00"> identity_</text>
</g>
<!-- Node7&#45;&gt;Node6 -->
<g id="edge14" class="edge"><title>Node7&#45;&gt;Node6</title>
<path fill="none" stroke="#9a32cd" stroke-dasharray="5,2" d="M548.319,-476.803C550.906,-477.14 553.47,-477.473 556,-477.799 632.2,-487.637 720.717,-498.458 774.259,-504.936"/>
<polygon fill="#9a32cd" stroke="#9a32cd" points="548.621,-473.312 538.251,-475.483 547.711,-480.253 548.621,-473.312"/>
<text text-anchor="middle" x="644" y="-502.799" font-family="FreeSans" font-size="10.00"> globalVars_</text>
</g>
<!-- Node13 -->
<g id="node28" class="node"><title>Node13</title>
<a xlink:href="class_urho3_d_1_1_scene.html" target="_top" xlink:title="Root scene node, represents the whole scene.">
<polygon fill="none" stroke="red" points="778.5,-460.299 778.5,-481.299 867.5,-481.299 867.5,-460.299 778.5,-460.299"/>
<text text-anchor="middle" x="823" y="-468.299" font-family="FreeSans" font-size="10.00">Urho3D::Scene</text>
</a>
</g>
<!-- Node7&#45;&gt;Node13 -->
<g id="edge34" class="edge"><title>Node7&#45;&gt;Node13</title>
<path fill="none" stroke="#9a32cd" stroke-dasharray="5,2" d="M548.374,-462.665C602.381,-462.4 670.956,-462.68 732,-464.799 747.032,-465.321 763.439,-466.282 778.131,-467.284"/>
<polygon fill="#9a32cd" stroke="#9a32cd" points="548.099,-459.166 538.119,-462.722 548.138,-466.166 548.099,-459.166"/>
<text text-anchor="middle" x="644" y="-468.799" font-family="FreeSans" font-size="10.00"> smoothingData_</text>
</g>
<!-- Node22 -->
<g id="node53" class="node"><title>Node22</title>
<a xlink:href="class_urho3_d_1_1_controls.html" target="_top" xlink:title="Controls sent over the network.">
<polygon fill="none" stroke="black" points="949.5,-375.299 949.5,-396.299 1048.5,-396.299 1048.5,-375.299 949.5,-375.299"/>
<text text-anchor="middle" x="999" y="-383.299" font-family="FreeSans" font-size="10.00">Urho3D::Controls</text>
</a>
</g>
<!-- Node7&#45;&gt;Node22 -->
<g id="edge66" class="edge"><title>Node7&#45;&gt;Node22</title>
<path fill="none" stroke="#9a32cd" stroke-dasharray="5,2" d="M506.78,-442.041C518.079,-435.761 529.201,-428.047 538,-418.799 551.16,-404.969 539.919,-390.088 556,-379.799 619.818,-338.967 847.751,-364.531 949.424,-378.484"/>
<polygon fill="#9a32cd" stroke="#9a32cd" points="504.965,-439.04 497.721,-446.771 508.206,-445.245 504.965,-439.04"/>
<text text-anchor="middle" x="644" y="-383.799" font-family="FreeSans" font-size="10.00"> extraData_</text>
</g>
<!-- Node8 -->
<g id="node15" class="node"><title>Node8</title>
<a xlink:href="class_urho3_d_1_1_hash_base.html" target="_top" xlink:title="Hash set/map base class.">
<polygon fill="none" stroke="black" points="220,-512.299 220,-533.299 328,-533.299 328,-512.299 220,-512.299"/>
<text text-anchor="middle" x="274" y="-520.299" font-family="FreeSans" font-size="10.00">Urho3D::HashBase</text>
</a>
</g>
<!-- Node8&#45;&gt;Node7 -->
<g id="edge16" class="edge"><title>Node8&#45;&gt;Node7</title>
<path fill="none" stroke="midnightblue" d="M315.514,-509.039C340.894,-500.627 373.559,-489.8 400.569,-480.847"/>
<polygon fill="midnightblue" stroke="midnightblue" points="314.214,-505.783 305.823,-512.251 316.416,-512.427 314.214,-505.783"/>
</g>
<!-- Node15 -->
<g id="node34" class="node"><title>Node15</title>
<a xlink:href="class_urho3_d_1_1_hash_set.html" target="_top" xlink:title="Urho3D::HashSet\&lt; unsigned \&gt;">
<polygon fill="none" stroke="black" points="368.5,-602.299 368.5,-623.299 535.5,-623.299 535.5,-602.299 368.5,-602.299"/>
<text text-anchor="middle" x="452" y="-610.299" font-family="FreeSans" font-size="10.00">Urho3D::HashSet&lt; unsigned &gt;</text>
</a>
</g>
<!-- Node8&#45;&gt;Node15 -->
<g id="edge42" class="edge"><title>Node8&#45;&gt;Node15</title>
<path fill="none" stroke="midnightblue" d="M303.827,-537.88C339.875,-556.107 399.603,-586.307 431.09,-602.227"/>
<polygon fill="midnightblue" stroke="midnightblue" points="305.271,-534.688 294.767,-533.3 302.112,-540.935 305.271,-534.688"/>
</g>
<!-- Node17 -->
<g id="node40" class="node"><title>Node17</title>
<a xlink:href="class_urho3_d_1_1_hash_map.html" target="_top" xlink:title="Urho3D::HashMap\&lt; Urho3D\l::StringHash, Urho3D::\lPackageUpload \&gt;">
<polygon fill="none" stroke="black" points="568,-247.299 568,-294.299 720,-294.299 720,-247.299 568,-247.299"/>
<text text-anchor="start" x="576" y="-281.299" font-family="FreeSans" font-size="10.00">Urho3D::HashMap&lt; Urho3D</text>
<text text-anchor="start" x="576" y="-268.299" font-family="FreeSans" font-size="10.00">::StringHash, Urho3D::</text>
<text text-anchor="middle" x="644" y="-255.299" font-family="FreeSans" font-size="10.00">PackageUpload &gt;</text>
</a>
</g>
<!-- Node8&#45;&gt;Node17 -->
<g id="edge50" class="edge"><title>Node8&#45;&gt;Node17</title>
<path fill="none" stroke="midnightblue" d="M279.018,-502.245C289.057,-465.554 315.144,-388.798 366,-347.799 423.606,-301.359 507.32,-282.875 567.816,-275.548"/>
<polygon fill="midnightblue" stroke="midnightblue" points="275.543,-501.702 276.408,-512.261 282.317,-503.467 275.543,-501.702"/>
</g>
<!-- Node19 -->
<g id="node45" class="node"><title>Node19</title>
<a xlink:href="class_urho3_d_1_1_hash_map.html" target="_top" xlink:title="Urho3D::HashMap\&lt; Urho3D\l::StringHash, Urho3D::\lPackageDownload \&gt;">
<polygon fill="none" stroke="black" points="568,-75.2993 568,-122.299 720,-122.299 720,-75.2993 568,-75.2993"/>
<text text-anchor="start" x="576" y="-109.299" font-family="FreeSans" font-size="10.00">Urho3D::HashMap&lt; Urho3D</text>
<text text-anchor="start" x="576" y="-96.2993" font-family="FreeSans" font-size="10.00">::StringHash, Urho3D::</text>
<text text-anchor="middle" x="644" y="-83.2993" font-family="FreeSans" font-size="10.00">PackageDownload &gt;</text>
</a>
</g>
<!-- Node8&#45;&gt;Node19 -->
<g id="edge56" class="edge"><title>Node8&#45;&gt;Node19</title>
<path fill="none" stroke="midnightblue" d="M277.156,-502.226C284.983,-457.016 308.938,-347.424 366,-276.799 425.428,-203.246 523.737,-150.563 586.119,-122.402"/>
<polygon fill="midnightblue" stroke="midnightblue" points="273.673,-501.834 275.503,-512.27 280.58,-502.971 273.673,-501.834"/>
</g>
<!-- Node24 -->
<g id="node60" class="node"><title>Node24</title>
<a xlink:href="class_urho3_d_1_1_hash_map.html" target="_top" xlink:title="Urho3D::HashMap\&lt; unsigned,\l Urho3D::PODVector\&lt; unsigned\l char \&gt; \&gt;">
<polygon fill="none" stroke="black" points="914.5,-657.299 914.5,-704.299 1083.5,-704.299 1083.5,-657.299 914.5,-657.299"/>
<text text-anchor="start" x="922.5" y="-691.299" font-family="FreeSans" font-size="10.00">Urho3D::HashMap&lt; unsigned,</text>
<text text-anchor="start" x="922.5" y="-678.299" font-family="FreeSans" font-size="10.00"> Urho3D::PODVector&lt; unsigned</text>
<text text-anchor="middle" x="999" y="-665.299" font-family="FreeSans" font-size="10.00"> char &gt; &gt;</text>
</a>
</g>
<!-- Node8&#45;&gt;Node24 -->
<g id="edge76" class="edge"><title>Node8&#45;&gt;Node24</title>
<path fill="none" stroke="midnightblue" d="M285.611,-542.182C301.104,-566.52 330.724,-608.075 366,-632.799 439.57,-684.362 467.519,-686.23 556,-701.799 679.226,-723.482 824.509,-709.176 914.197,-695.834"/>
<polygon fill="midnightblue" stroke="midnightblue" points="288.456,-540.128 280.207,-533.479 282.509,-543.821 288.456,-540.128"/>
</g>
<!-- Node25 -->
<g id="node64" class="node"><title>Node25</title>
<a xlink:href="class_urho3_d_1_1_hash_map.html" target="_top" xlink:title="Urho3D::HashMap\&lt; unsigned,\l Urho3D::NodeReplicationState \&gt;">
<polygon fill="none" stroke="black" points="556,-742.799 556,-776.799 732,-776.799 732,-742.799 556,-742.799"/>
<text text-anchor="start" x="564" y="-763.799" font-family="FreeSans" font-size="10.00">Urho3D::HashMap&lt; unsigned,</text>
<text text-anchor="middle" x="644" y="-750.799" font-family="FreeSans" font-size="10.00"> Urho3D::NodeReplicationState &gt;</text>
</a>
</g>
<!-- Node8&#45;&gt;Node25 -->
<g id="edge82" class="edge"><title>Node8&#45;&gt;Node25</title>
<path fill="none" stroke="midnightblue" d="M278.26,-543.494C288.494,-591.077 315.862,-706.01 346,-729.799 404.57,-776.03 491.113,-779.858 555.865,-774.294"/>
<polygon fill="midnightblue" stroke="midnightblue" points="281.626,-542.492 276.136,-533.43 274.777,-543.937 281.626,-542.492"/>
</g>
<!-- Node9 -->
<g id="node17" class="node"><title>Node9</title>
<a xlink:href="struct_urho3_d_1_1_hash_node_base.html" target="_top" xlink:title="Hash set/map node base class.">
<polygon fill="none" stroke="black" points="0,-556.299 0,-577.299 134,-577.299 134,-556.299 0,-556.299"/>
<text text-anchor="middle" x="67" y="-564.299" font-family="FreeSans" font-size="10.00">Urho3D::HashNodeBase</text>
</a>
</g>
<!-- Node9&#45;&gt;Node8 -->
<g id="edge18" class="edge"><title>Node9&#45;&gt;Node8</title>
<path fill="none" stroke="#9a32cd" stroke-dasharray="5,2" d="M126.414,-554.17C157.457,-547.572 195.009,-539.59 224.465,-533.329"/>
<polygon fill="#9a32cd" stroke="#9a32cd" points="125.635,-550.757 116.582,-556.26 127.091,-557.605 125.635,-550.757"/>
<text text-anchor="middle" x="177" y="-576.799" font-family="FreeSans" font-size="10.00"> ptrs_</text>
<text text-anchor="middle" x="177" y="-563.799" font-family="FreeSans" font-size="10.00">tail_</text>
<text text-anchor="middle" x="177" y="-550.799" font-family="FreeSans" font-size="10.00">head_</text>
</g>
<!-- Node9&#45;&gt;Node9 -->
<g id="edge20" class="edge"><title>Node9&#45;&gt;Node9</title>
<path fill="none" stroke="#9a32cd" stroke-dasharray="5,2" d="M46.7282,-587.226C48.292,-592.148 55.0493,-595.799 67,-595.799 86.1211,-595.799 91.9471,-586.452 84.4779,-577.507"/>
<polygon fill="#9a32cd" stroke="#9a32cd" points="50.1229,-588.085 49.5221,-577.507 43.3954,-586.151 50.1229,-588.085"/>
<text text-anchor="middle" x="67" y="-625.799" font-family="FreeSans" font-size="10.00"> next_</text>
<text text-anchor="middle" x="67" y="-612.799" font-family="FreeSans" font-size="10.00">prev_</text>
<text text-anchor="middle" x="67" y="-599.799" font-family="FreeSans" font-size="10.00">down_</text>
</g>
<!-- Node10 -->
<g id="node20" class="node"><title>Node10</title>
<a xlink:href="struct_urho3_d_1_1_allocator_block.html" target="_top" xlink:title="Allocator memory block.">
<polygon fill="none" stroke="red" points="3.5,-485.299 3.5,-506.299 130.5,-506.299 130.5,-485.299 3.5,-485.299"/>
<text text-anchor="middle" x="67" y="-493.299" font-family="FreeSans" font-size="10.00">Urho3D::AllocatorBlock</text>
</a>
</g>
<!-- Node10&#45;&gt;Node8 -->
<g id="edge22" class="edge"><title>Node10&#45;&gt;Node8</title>
<path fill="none" stroke="#9a32cd" stroke-dasharray="5,2" d="M140.721,-505.415C166.762,-508.812 195.551,-512.567 219.689,-515.715"/>
<polygon fill="#9a32cd" stroke="#9a32cd" points="140.882,-501.907 130.514,-504.084 139.977,-508.848 140.882,-501.907"/>
<text text-anchor="middle" x="177" y="-516.799" font-family="FreeSans" font-size="10.00"> allocator_</text>
</g>
<!-- Node10&#45;&gt;Node10 -->
<g id="edge24" class="edge"><title>Node10&#45;&gt;Node10</title>
<path fill="none" stroke="#9a32cd" stroke-dasharray="5,2" d="M46.7282,-516.226C48.292,-521.148 55.0493,-524.799 67,-524.799 86.1211,-524.799 91.9471,-515.452 84.4779,-506.507"/>
<polygon fill="#9a32cd" stroke="#9a32cd" points="50.1229,-517.085 49.5221,-506.507 43.3954,-515.151 50.1229,-517.085"/>
<text text-anchor="middle" x="67" y="-528.799" font-family="FreeSans" font-size="10.00"> next_</text>
</g>
<!-- Node11 -->
<g id="node23" class="node"><title>Node11</title>
<a xlink:href="class_urho3_d_1_1_linked_list.html" target="_top" xlink:title="Urho3D::LinkedList\l\&lt; Urho3D::EventHandler \&gt;">
<polygon fill="none" stroke="red" points="750,-577.799 750,-611.799 896,-611.799 896,-577.799 750,-577.799"/>
<text text-anchor="start" x="758" y="-598.799" font-family="FreeSans" font-size="10.00">Urho3D::LinkedList</text>
<text text-anchor="middle" x="823" y="-585.799" font-family="FreeSans" font-size="10.00">&lt; Urho3D::EventHandler &gt;</text>
</a>
</g>
<!-- Node11&#45;&gt;Node4 -->
<g id="edge26" class="edge"><title>Node11&#45;&gt;Node4</title>
<path fill="none" stroke="#9a32cd" stroke-dasharray="5,2" d="M906.479,-590.768C976.444,-587.389 1073.66,-582.693 1129.89,-579.978"/>
<polygon fill="#9a32cd" stroke="#9a32cd" points="906.182,-587.278 896.362,-591.256 906.519,-594.27 906.182,-587.278"/>
<text text-anchor="middle" x="999" y="-593.799" font-family="FreeSans" font-size="10.00"> eventHandlers_</text>
</g>
<!-- Node12 -->
<g id="node26" class="node"><title>Node12</title>
<a xlink:href="class_urho3_d_1_1_weak_ptr.html" target="_top" xlink:title="Urho3D::WeakPtr\&lt; Urho3D\l::Scene \&gt;">
<polygon fill="none" stroke="red" points="1102,-514.799 1102,-548.799 1248,-548.799 1248,-514.799 1102,-514.799"/>
<text text-anchor="start" x="1110" y="-535.799" font-family="FreeSans" font-size="10.00">Urho3D::WeakPtr&lt; Urho3D</text>
<text text-anchor="middle" x="1175" y="-522.799" font-family="FreeSans" font-size="10.00">::Scene &gt;</text>
</a>
</g>
<!-- Node12&#45;&gt;Node3 -->
<g id="edge30" class="edge"><title>Node12&#45;&gt;Node3</title>
<path fill="none" stroke="#9a32cd" stroke-dasharray="5,2" d="M1258.52,-520.563C1285.52,-515.804 1315.36,-509.337 1342,-500.799 1361.7,-494.486 1382.97,-484.201 1397.81,-476.41"/>
<polygon fill="#9a32cd" stroke="#9a32cd" points="1257.6,-517.17 1248.33,-522.304 1258.77,-524.071 1257.6,-517.17"/>
<text text-anchor="middle" x="1304" y="-521.799" font-family="FreeSans" font-size="10.00"> scene_</text>
</g>
<!-- Node13&#45;&gt;Node12 -->
<g id="edge32" class="edge"><title>Node13&#45;&gt;Node12</title>
<path fill="none" stroke="#9a32cd" stroke-dasharray="5,2" d="M878.167,-460.938C933.085,-453.794 1018.42,-450.075 1084,-480.799 1094.83,-485.873 1092.27,-493.853 1102,-500.799 1109.4,-506.078 1117.83,-510.695 1126.28,-514.641"/>
<polygon fill="#9a32cd" stroke="#9a32cd" points="877.366,-457.516 867.941,-462.354 878.326,-464.45 877.366,-457.516"/>
<text text-anchor="middle" x="999" y="-484.799" font-family="FreeSans" font-size="10.00"> ptr_</text>
</g>
<!-- Node14 -->
<g id="node31" class="node"><title>Node14</title>
<a xlink:href="class_urho3_d_1_1_string.html" target="_top" xlink:title="String class.">
<polygon fill="none" stroke="black" points="408,-357.299 408,-378.299 496,-378.299 496,-357.299 408,-357.299"/>
<text text-anchor="middle" x="452" y="-365.299" font-family="FreeSans" font-size="10.00">Urho3D::String</text>
</a>
</g>
<!-- Node14&#45;&gt;Node3 -->
<g id="edge72" class="edge"><title>Node14&#45;&gt;Node3</title>
<path fill="none" stroke="#9a32cd" stroke-dasharray="5,2" d="M506.454,-357.264C636.662,-334.039 975.464,-285.27 1248,-347.799 1292.25,-357.953 1304.62,-362.026 1342,-387.799 1370.3,-407.315 1396.47,-438.787 1409.09,-455.15"/>
<polygon fill="#9a32cd" stroke="#9a32cd" points="505.558,-353.869 496.34,-359.092 506.803,-360.757 505.558,-353.869"/>
<text text-anchor="middle" x="999" y="-340.799" font-family="FreeSans" font-size="10.00"> sceneFileName_</text>
<text text-anchor="middle" x="999" y="-327.799" font-family="FreeSans" font-size="10.00">address_</text>
</g>
<!-- Node14&#45;&gt;Node13 -->
<g id="edge36" class="edge"><title>Node14&#45;&gt;Node13</title>
<path fill="none" stroke="#9a32cd" stroke-dasharray="5,2" d="M500.974,-381.109C556.897,-396.344 651.111,-422.122 732,-444.799 749.878,-449.811 769.703,-455.464 786.273,-460.216"/>
<polygon fill="#9a32cd" stroke="#9a32cd" points="501.557,-377.64 490.989,-378.39 499.718,-384.394 501.557,-377.64"/>
<text text-anchor="middle" x="644" y="-448.799" font-family="FreeSans" font-size="10.00"> fileName_</text>
</g>
<!-- Node14&#45;&gt;Node14 -->
<g id="edge38" class="edge"><title>Node14&#45;&gt;Node14</title>
<path fill="none" stroke="#9a32cd" stroke-dasharray="5,2" d="M432.834,-388.226C434.312,-393.148 440.701,-396.799 452,-396.799 470.078,-396.799 475.586,-387.452 468.525,-378.507"/>
<polygon fill="#9a32cd" stroke="#9a32cd" points="436.23,-389.075 435.475,-378.507 429.475,-387.239 436.23,-389.075"/>
<text text-anchor="middle" x="452" y="-400.799" font-family="FreeSans" font-size="10.00"> EMPTY</text>
</g>
<!-- Node15&#45;&gt;Node1 -->
<g id="edge84" class="edge"><title>Node15&#45;&gt;Node1</title>
<path fill="none" stroke="#9a32cd" stroke-dasharray="5,2" d="M484.035,-627.433C504.302,-636.185 531.256,-646.908 556,-653.799 685.248,-689.795 840.797,-711.278 928.959,-721.5"/>
<polygon fill="#9a32cd" stroke="#9a32cd" points="485.225,-624.133 474.661,-623.32 482.413,-630.543 485.225,-624.133"/>
<text text-anchor="middle" x="644" y="-695.799" font-family="FreeSans" font-size="10.00"> dirtyNodes_</text>
</g>
<!-- Node15&#45;&gt;Node3 -->
<g id="edge78" class="edge"><title>Node15&#45;&gt;Node3</title>
<path fill="none" stroke="#9a32cd" stroke-dasharray="5,2" d="M537.168,-624.316C543.532,-624.909 549.862,-625.417 556,-625.799 634.071,-630.66 653.787,-626.991 732,-625.799 961.644,-622.299 1023.64,-646.911 1248,-597.799 1291.7,-588.233 1306.03,-588.396 1342,-561.799 1374.48,-537.783 1400.24,-496.164 1411.23,-476.578"/>
<polygon fill="#9a32cd" stroke="#9a32cd" points="537.46,-620.828 527.162,-623.318 536.765,-627.793 537.46,-620.828"/>
<text text-anchor="middle" x="999" y="-632.799" font-family="FreeSans" font-size="10.00"> nodesToProcess_</text>
</g>
<!-- Node15&#45;&gt;Node13 -->
<g id="edge40" class="edge"><title>Node15&#45;&gt;Node13</title>
<path fill="none" stroke="#9a32cd" stroke-dasharray="5,2" d="M501.676,-599.509C571.658,-580.135 694.886,-543.44 732,-515.799 742.981,-507.621 738.755,-498.61 750,-490.799 758.418,-484.952 768.483,-480.811 778.411,-477.88"/>
<polygon fill="#9a32cd" stroke="#9a32cd" points="500.468,-596.211 491.754,-602.238 502.324,-602.961 500.468,-596.211"/>
<text text-anchor="start" x="574" y="-612.799" font-family="FreeSans" font-size="10.00"> networkUpdateNodes</text>
<text text-anchor="middle" x="644" y="-599.799" font-family="FreeSans" font-size="10.00">_</text>
<text text-anchor="middle" x="644" y="-586.799" font-family="FreeSans" font-size="10.00">networkUpdateComponents_</text>
</g>
<!-- Node16 -->
<g id="node37" class="node"><title>Node16</title>
<a xlink:href="class_urho3_d_1_1_quaternion.html" target="_top" xlink:title="Rotation represented as a four&#45;dimensional normalized vector.">
<polygon fill="none" stroke="black" points="1118.5,-357.299 1118.5,-378.299 1231.5,-378.299 1231.5,-357.299 1118.5,-357.299"/>
<text text-anchor="middle" x="1175" y="-365.299" font-family="FreeSans" font-size="10.00">Urho3D::Quaternion</text>
</a>
</g>
<!-- Node16&#45;&gt;Node3 -->
<g id="edge44" class="edge"><title>Node16&#45;&gt;Node3</title>
<path fill="none" stroke="#9a32cd" stroke-dasharray="5,2" d="M1230.8,-380.894C1263.91,-389.624 1306.26,-402.49 1342,-418.799 1364.37,-429.006 1388.07,-444.814 1402.71,-455.234"/>
<polygon fill="#9a32cd" stroke="#9a32cd" points="1231.39,-377.433 1220.84,-378.318 1229.64,-384.21 1231.39,-377.433"/>
<text text-anchor="middle" x="1304" y="-422.799" font-family="FreeSans" font-size="10.00"> rotation_</text>
</g>
<!-- Node16&#45;&gt;Node16 -->
<g id="edge46" class="edge"><title>Node16&#45;&gt;Node16</title>
<path fill="none" stroke="#9a32cd" stroke-dasharray="5,2" d="M1151.41,-388.226C1153.23,-393.148 1161.09,-396.799 1175,-396.799 1197.25,-396.799 1204.03,-387.452 1195.34,-378.507"/>
<polygon fill="#9a32cd" stroke="#9a32cd" points="1154.81,-389.101 1154.66,-378.507 1148.17,-386.88 1154.81,-389.101"/>
<text text-anchor="middle" x="1175" y="-400.799" font-family="FreeSans" font-size="10.00"> IDENTITY</text>
</g>
<!-- Node17&#45;&gt;Node3 -->
<g id="edge48" class="edge"><title>Node17&#45;&gt;Node3</title>
<path fill="none" stroke="#9a32cd" stroke-dasharray="5,2" d="M730.112,-259.382C894.897,-239.437 1246.94,-206.592 1342,-275.799 1403.07,-320.258 1414.44,-422.267 1416.53,-455.281"/>
<polygon fill="#9a32cd" stroke="#9a32cd" points="729.514,-255.929 720.012,-260.617 730.363,-262.877 729.514,-255.929"/>
<text text-anchor="middle" x="999" y="-245.799" font-family="FreeSans" font-size="10.00"> uploads_</text>
</g>
<!-- Node18 -->
<g id="node43" class="node"><title>Node18</title>
<a xlink:href="class_urho3_d_1_1_vector_buffer.html" target="_top" xlink:title="Dynamically sized buffer that can be read and written to as a stream.">
<polygon fill="none" stroke="red" points="1115.5,-279.299 1115.5,-300.299 1234.5,-300.299 1234.5,-279.299 1115.5,-279.299"/>
<text text-anchor="middle" x="1175" y="-287.299" font-family="FreeSans" font-size="10.00">Urho3D::VectorBuffer</text>
</a>
</g>
<!-- Node18&#45;&gt;Node3 -->
<g id="edge52" class="edge"><title>Node18&#45;&gt;Node3</title>
<path fill="none" stroke="#9a32cd" stroke-dasharray="5,2" d="M1245.02,-279.401C1277.16,-278.276 1314.2,-282.505 1342,-301.799 1395.75,-339.113 1411.73,-424.81 1415.78,-455.019"/>
<polygon fill="#9a32cd" stroke="#9a32cd" points="1244.58,-275.919 1234.78,-279.942 1244.95,-282.909 1244.58,-275.919"/>
<text text-anchor="middle" x="1304" y="-305.799" font-family="FreeSans" font-size="10.00"> msg_</text>
</g>
<!-- Node19&#45;&gt;Node3 -->
<g id="edge54" class="edge"><title>Node19&#45;&gt;Node3</title>
<path fill="none" stroke="#9a32cd" stroke-dasharray="5,2" d="M715.028,-71.8753C829.007,-32.5307 1059.12,30.9615 1248,-17.7993 1294.23,-29.7338 1314.01,-31.1181 1342,-69.7993 1388.76,-134.426 1411.72,-398.049 1416.18,-454.943"/>
<polygon fill="#9a32cd" stroke="#9a32cd" points="713.649,-68.6495 705.362,-75.2506 715.957,-75.2582 713.649,-68.6495"/>
<text text-anchor="middle" x="999" y="-22.7993" font-family="FreeSans" font-size="10.00"> downloads_</text>
</g>
<!-- Node20 -->
<g id="node48" class="node"><title>Node20</title>
<a xlink:href="class_urho3_d_1_1_vector3.html" target="_top" xlink:title="Three&#45;dimensional vector.">
<polygon fill="none" stroke="black" points="1127,-79.2993 1127,-100.299 1223,-100.299 1223,-79.2993 1127,-79.2993"/>
<text text-anchor="middle" x="1175" y="-87.2993" font-family="FreeSans" font-size="10.00">Urho3D::Vector3</text>
</a>
</g>
<!-- Node20&#45;&gt;Node3 -->
<g id="edge58" class="edge"><title>Node20&#45;&gt;Node3</title>
<path fill="none" stroke="#9a32cd" stroke-dasharray="5,2" d="M1203.78,-105.517C1241.02,-127.298 1305.46,-170.114 1342,-223.799 1395.21,-301.98 1411.94,-419.533 1415.94,-455.182"/>
<polygon fill="#9a32cd" stroke="#9a32cd" points="1205.34,-102.38 1194.93,-100.439 1201.86,-108.452 1205.34,-102.38"/>
<text text-anchor="middle" x="1304" y="-227.799" font-family="FreeSans" font-size="10.00"> position_</text>
</g>
<!-- Node20&#45;&gt;Node20 -->
<g id="edge60" class="edge"><title>Node20&#45;&gt;Node20</title>
<path fill="none" stroke="#9a32cd" stroke-dasharray="5,2" d="M1151.41,-110.226C1153.23,-115.148 1161.09,-118.799 1175,-118.799 1197.25,-118.799 1204.03,-109.452 1195.34,-100.507"/>
<polygon fill="#9a32cd" stroke="#9a32cd" points="1154.81,-111.101 1154.66,-100.507 1148.17,-108.88 1154.81,-111.101"/>
<text text-anchor="middle" x="1175" y="-213.799" font-family="FreeSans" font-size="10.00"> ONE</text>
<text text-anchor="middle" x="1175" y="-200.799" font-family="FreeSans" font-size="10.00">DOWN</text>
<text text-anchor="middle" x="1175" y="-187.799" font-family="FreeSans" font-size="10.00">BACK</text>
<text text-anchor="middle" x="1175" y="-174.799" font-family="FreeSans" font-size="10.00">RIGHT</text>
<text text-anchor="middle" x="1175" y="-161.799" font-family="FreeSans" font-size="10.00">LEFT</text>
<text text-anchor="middle" x="1175" y="-148.799" font-family="FreeSans" font-size="10.00">ZERO</text>
<text text-anchor="middle" x="1175" y="-135.799" font-family="FreeSans" font-size="10.00">FORWARD</text>
<text text-anchor="middle" x="1175" y="-122.799" font-family="FreeSans" font-size="10.00">UP</text>
</g>
<!-- Node21 -->
<g id="node51" class="node"><title>Node21</title>
<a xlink:href="class_urho3_d_1_1_vector.html" target="_top" xlink:title="Urho3D::Vector\&lt; Urho3D\l::RemoteEvent \&gt;">
<polygon fill="none" stroke="red" points="1106,-26.7993 1106,-60.7993 1244,-60.7993 1244,-26.7993 1106,-26.7993"/>
<text text-anchor="start" x="1114" y="-47.7993" font-family="FreeSans" font-size="10.00">Urho3D::Vector&lt; Urho3D</text>
<text text-anchor="middle" x="1175" y="-34.7993" font-family="FreeSans" font-size="10.00">::RemoteEvent &gt;</text>
</a>
</g>
<!-- Node21&#45;&gt;Node3 -->
<g id="edge62" class="edge"><title>Node21&#45;&gt;Node3</title>
<path fill="none" stroke="#9a32cd" stroke-dasharray="5,2" d="M1246.49,-64.5532C1280.91,-78.2945 1319.5,-99.9805 1342,-132.799 1379.78,-187.91 1409.2,-404.31 1415.67,-455.092"/>
<polygon fill="#9a32cd" stroke="#9a32cd" points="1247.5,-61.1921 1236.91,-60.8854 1245,-67.7294 1247.5,-61.1921"/>
<text text-anchor="middle" x="1304" y="-136.799" font-family="FreeSans" font-size="10.00"> remoteEvents_</text>
</g>
<!-- Node22&#45;&gt;Node3 -->
<g id="edge64" class="edge"><title>Node22&#45;&gt;Node3</title>
<path fill="none" stroke="#9a32cd" stroke-dasharray="5,2" d="M1037.12,-399.641C1056.37,-406.21 1080.2,-413.716 1102,-418.799 1191.25,-439.611 1296.98,-453.176 1360.43,-460.154"/>
<polygon fill="#9a32cd" stroke="#9a32cd" points="1038.1,-396.278 1027.51,-396.309 1035.81,-402.892 1038.1,-396.278"/>
<text text-anchor="middle" x="1175" y="-448.799" font-family="FreeSans" font-size="10.00"> controls_</text>
</g>
<!-- Node23 -->
<g id="node57" class="node"><title>Node23</title>
<a xlink:href="class_urho3_d_1_1_timer.html" target="_top" xlink:title="Low&#45;resolution operating system timer.">
<polygon fill="none" stroke="black" points="1132,-757.299 1132,-778.299 1218,-778.299 1218,-757.299 1132,-757.299"/>
<text text-anchor="middle" x="1175" y="-765.299" font-family="FreeSans" font-size="10.00">Urho3D::Timer</text>
</a>
</g>
<!-- Node23&#45;&gt;Node3 -->
<g id="edge70" class="edge"><title>Node23&#45;&gt;Node3</title>
<path fill="none" stroke="#9a32cd" stroke-dasharray="5,2" d="M1228.57,-772.766C1264.88,-773.119 1311.63,-767.248 1342,-739.799 1382.8,-702.928 1409.43,-522.381 1415.62,-476.447"/>
<polygon fill="#9a32cd" stroke="#9a32cd" points="1228.23,-769.256 1218.14,-772.495 1228.05,-776.254 1228.23,-769.256"/>
<text text-anchor="middle" x="1304" y="-773.799" font-family="FreeSans" font-size="10.00"> statsTimer_</text>
</g>
<!-- Node24&#45;&gt;Node3 -->
<g id="edge74" class="edge"><title>Node24&#45;&gt;Node3</title>
<path fill="none" stroke="#9a32cd" stroke-dasharray="5,2" d="M1093.82,-677.346C1181.52,-672.386 1303.89,-660.423 1342,-631.799 1394.85,-592.107 1411.39,-506.583 1415.69,-476.517"/>
<polygon fill="#9a32cd" stroke="#9a32cd" points="1093.36,-673.865 1083.57,-677.903 1093.74,-680.855 1093.36,-673.865"/>
<text text-anchor="middle" x="1175" y="-693.799" font-family="FreeSans" font-size="10.00"> nodeLatestData_</text>
<text text-anchor="middle" x="1175" y="-680.799" font-family="FreeSans" font-size="10.00">componentLatestData_</text>
</g>
<!-- Node25&#45;&gt;Node1 -->
<g id="edge80" class="edge"><title>Node25&#45;&gt;Node1</title>
<path fill="none" stroke="#9a32cd" stroke-dasharray="5,2" d="M742.326,-751.213C801.516,-746.044 875.478,-739.586 928.783,-734.931"/>
<polygon fill="#9a32cd" stroke="#9a32cd" points="741.867,-747.74 732.209,-752.097 742.476,-754.713 741.867,-747.74"/>
<text text-anchor="middle" x="823" y="-752.799" font-family="FreeSans" font-size="10.00"> nodeStates_</text>
</g>
</g>
</svg>
