<?xml version="1.0" encoding="UTF-8" standalone="no"?>
<!DOCTYPE svg PUBLIC "-//W3C//DTD SVG 1.1//EN"
 "http://www.w3.org/Graphics/SVG/1.1/DTD/svg11.dtd">
<!-- Generated by graphviz version 2.36.0 (20140111.2315)
 -->
<!-- Title: Urho3D::ValueAnimation Pages: 1 -->
<svg width="1052pt" height="954pt"
 viewBox="0.00 0.00 1052.00 953.80" xmlns="http://www.w3.org/2000/svg" xmlns:xlink="http://www.w3.org/1999/xlink">
<g id="graph0" class="graph" transform="scale(1 1) rotate(0) translate(4 949.8)">
<title>Urho3D::ValueAnimation</title>
<!-- Node1 -->
<g id="node1" class="node"><title>Node1</title>
<polygon fill="#bfbfbf" stroke="black" points="914.5,-682.3 914.5,-701.3 1039.5,-701.3 1039.5,-682.3 914.5,-682.3"/>
<text text-anchor="middle" x="977" y="-689.3" font-family="Helvetica,sans-Serif" font-size="10.00">Urho3D::ValueAnimation</text>
</g>
<!-- Node2 -->
<g id="node2" class="node"><title>Node2</title>
<g id="a_node2"><a xlink:href="class_urho3_d_1_1_resource.html" target="_top" xlink:title="Base class for resources. ">
<polygon fill="none" stroke="black" points="596,-842.3 596,-861.3 694,-861.3 694,-842.3 596,-842.3"/>
<text text-anchor="middle" x="645" y="-849.3" font-family="Helvetica,sans-Serif" font-size="10.00">Urho3D::Resource</text>
</a>
</g>
</g>
<!-- Node2&#45;&gt;Node1 -->
<g id="edge1" class="edge"><title>Node2&#45;&gt;Node1</title>
<path fill="none" stroke="midnightblue" d="M703.939,-841.23C724.586,-834.883 746.531,-824.793 762,-808.8 779.589,-790.617 762.016,-772.593 780,-754.8 783.033,-751.8 890.645,-718.207 945.096,-701.342"/>
<polygon fill="midnightblue" stroke="midnightblue" points="702.926,-837.879 694.258,-843.972 704.834,-844.614 702.926,-837.879"/>
</g>
<!-- Node3 -->
<g id="node3" class="node"><title>Node3</title>
<g id="a_node3"><a xlink:href="class_urho3_d_1_1_object.html" target="_top" xlink:title="Base class for objects with type identification, subsystem access and event sending/receiving capabil...">
<polygon fill="none" stroke="black" points="339.5,-713.3 339.5,-732.3 424.5,-732.3 424.5,-713.3 339.5,-713.3"/>
<text text-anchor="middle" x="382" y="-720.3" font-family="Helvetica,sans-Serif" font-size="10.00">Urho3D::Object</text>
</a>
</g>
</g>
<!-- Node3&#45;&gt;Node2 -->
<g id="edge2" class="edge"><title>Node3&#45;&gt;Node2</title>
<path fill="none" stroke="midnightblue" d="M402.461,-739.127C413.092,-748.609 426.075,-761.152 436,-773.8 445.835,-786.334 441.256,-795.24 454,-804.8 476.153,-821.419 547.124,-835.929 595.765,-844.279"/>
<polygon fill="midnightblue" stroke="midnightblue" points="404.718,-736.451 394.878,-732.522 400.12,-741.729 404.718,-736.451"/>
</g>
<!-- Node12 -->
<g id="node12" class="node"><title>Node12</title>
<g id="a_node12"><a xlink:href="class_urho3_d_1_1_event_handler.html" target="_top" xlink:title="Internal helper class for invoking event handler functions. ">
<polygon fill="none" stroke="red" points="587,-738.3 587,-757.3 703,-757.3 703,-738.3 587,-738.3"/>
<text text-anchor="middle" x="645" y="-745.3" font-family="Helvetica,sans-Serif" font-size="10.00">Urho3D::EventHandler</text>
</a>
</g>
</g>
<!-- Node3&#45;&gt;Node12 -->
<g id="edge14" class="edge"><title>Node3&#45;&gt;Node12</title>
<path fill="none" stroke="#9a32cd" stroke-dasharray="5,2" d="M434.945,-720.14C458.032,-719.745 485.479,-720.36 510,-723.8 518.222,-724.954 519.891,-727.016 528,-728.8 547.033,-732.99 568.009,-736.698 586.829,-739.7"/>
<polygon fill="#9a32cd" stroke="#9a32cd" points="434.584,-716.647 424.67,-720.385 434.751,-723.645 434.584,-716.647"/>
<text text-anchor="middle" x="482" y="-737.8" font-family="Helvetica,sans-Serif" font-size="10.00"> sender_</text>
<text text-anchor="middle" x="482" y="-726.8" font-family="Helvetica,sans-Serif" font-size="10.00">receiver_</text>
</g>
<!-- Node4 -->
<g id="node4" class="node"><title>Node4</title>
<g id="a_node4"><a xlink:href="class_urho3_d_1_1_ref_counted.html" target="_top" xlink:title="Base class for intrusively reference&#45;counted objects. These are noncopyable and non&#45;assignable. ">
<polygon fill="none" stroke="black" points="180.5,-175.3 180.5,-194.3 289.5,-194.3 289.5,-175.3 180.5,-175.3"/>
<text text-anchor="middle" x="235" y="-182.3" font-family="Helvetica,sans-Serif" font-size="10.00">Urho3D::RefCounted</text>
</a>
</g>
</g>
<!-- Node4&#45;&gt;Node3 -->
<g id="edge3" class="edge"><title>Node4&#45;&gt;Node3</title>
<path fill="none" stroke="midnightblue" d="M239.376,-204.474C249.738,-263.482 283.119,-443.853 328,-588.8 342.799,-636.597 366.823,-691.498 376.626,-713.231"/>
<polygon fill="midnightblue" stroke="midnightblue" points="242.775,-203.59 237.614,-194.337 235.879,-204.788 242.775,-203.59"/>
</g>
<!-- Node6 -->
<g id="node6" class="node"><title>Node6</title>
<g id="a_node6"><a xlink:href="class_urho3_d_1_1_context.html" target="_top" xlink:title="Urho3D execution context. Provides access to subsystems, object factories and attributes, and event receivers. ">
<polygon fill="none" stroke="black" points="931.5,-321.3 931.5,-340.3 1022.5,-340.3 1022.5,-321.3 931.5,-321.3"/>
<text text-anchor="middle" x="977" y="-328.3" font-family="Helvetica,sans-Serif" font-size="10.00">Urho3D::Context</text>
</a>
</g>
</g>
<!-- Node4&#45;&gt;Node6 -->
<g id="edge6" class="edge"><title>Node4&#45;&gt;Node6</title>
<path fill="none" stroke="midnightblue" d="M255.477,-168.618C300.157,-132.681 414.903,-47.0135 528,-16.8005 628.477,10.041 659.267,-0.61697 762,-16.8005 821.979,-26.2489 849.345,-15.5888 892,-58.8005 968.731,-136.533 975.583,-282.765 976.022,-321.297"/>
<polygon fill="midnightblue" stroke="midnightblue" points="253.045,-166.086 247.497,-175.112 257.463,-171.515 253.045,-166.086"/>
</g>
<!-- Node5 -->
<g id="node5" class="node"><title>Node5</title>
<g id="a_node5"><a xlink:href="struct_urho3_d_1_1_ref_count.html" target="_top" xlink:title="Reference count structure. ">
<polygon fill="none" stroke="black" points="0,-175.3 0,-194.3 98,-194.3 98,-175.3 0,-175.3"/>
<text text-anchor="middle" x="49" y="-182.3" font-family="Helvetica,sans-Serif" font-size="10.00">Urho3D::RefCount</text>
</a>
</g>
</g>
<!-- Node5&#45;&gt;Node4 -->
<g id="edge4" class="edge"><title>Node5&#45;&gt;Node4</title>
<path fill="none" stroke="#9a32cd" stroke-dasharray="5,2" d="M108.364,-184.8C131.473,-184.8 157.864,-184.8 180.474,-184.8"/>
<polygon fill="#9a32cd" stroke="#9a32cd" points="108.344,-181.301 98.3438,-184.8 108.344,-188.301 108.344,-181.301"/>
<text text-anchor="middle" x="139" y="-187.8" font-family="Helvetica,sans-Serif" font-size="10.00"> refCount_</text>
</g>
<!-- Node6&#45;&gt;Node3 -->
<g id="edge5" class="edge"><title>Node6&#45;&gt;Node3</title>
<path fill="none" stroke="#9a32cd" stroke-dasharray="5,2" d="M975.842,-350.57C974.331,-399.451 963.372,-526.868 892,-593.8 854.573,-628.899 823.647,-594.825 780,-621.8 769.543,-628.263 772.731,-636.805 762,-642.8 670.081,-694.155 630.695,-656.56 528,-679.8 486.769,-689.131 440.048,-703.733 411.05,-713.286"/>
<polygon fill="#9a32cd" stroke="#9a32cd" points="979.345,-350.469 976.05,-340.399 972.346,-350.326 979.345,-350.469"/>
<text text-anchor="middle" x="645" y="-682.8" font-family="Helvetica,sans-Serif" font-size="10.00"> context_</text>
</g>
<!-- Node7 -->
<g id="node7" class="node"><title>Node7</title>
<g id="a_node7"><a xlink:href="class_urho3_d_1_1_hash_map.html" target="_top" xlink:title="Urho3D::HashMap\&lt; Urho3D\l::Object *, Urho3D::HashMap\l\&lt; Urho3D::StringHash, Urho3D\l::SharedPtr\&lt; Urho3D::EventReceiverGroup \&gt; \&gt; \&gt;">
<polygon fill="none" stroke="black" points="528.5,-157.8 528.5,-209.8 761.5,-209.8 761.5,-157.8 528.5,-157.8"/>
<text text-anchor="start" x="536.5" y="-197.8" font-family="Helvetica,sans-Serif" font-size="10.00">Urho3D::HashMap&lt; Urho3D</text>
<text text-anchor="start" x="536.5" y="-186.8" font-family="Helvetica,sans-Serif" font-size="10.00">::Object *, Urho3D::HashMap</text>
<text text-anchor="start" x="536.5" y="-175.8" font-family="Helvetica,sans-Serif" font-size="10.00">&lt; Urho3D::StringHash, Urho3D</text>
<text text-anchor="middle" x="645" y="-164.8" font-family="Helvetica,sans-Serif" font-size="10.00">::SharedPtr&lt; Urho3D::EventReceiverGroup &gt; &gt; &gt;</text>
</a>
</g>
</g>
<!-- Node7&#45;&gt;Node6 -->
<g id="edge7" class="edge"><title>Node7&#45;&gt;Node6</title>
<path fill="none" stroke="#9a32cd" stroke-dasharray="5,2" d="M771.377,-209.738C811.403,-220.928 854.908,-236.279 892,-256.8 923.631,-274.3 953.641,-305.435 967.688,-321.153"/>
<polygon fill="#9a32cd" stroke="#9a32cd" points="772.121,-206.314 761.552,-207.055 770.277,-213.066 772.121,-206.314"/>
<text text-anchor="middle" x="836" y="-259.8" font-family="Helvetica,sans-Serif" font-size="10.00"> specificEventReceivers_</text>
</g>
<!-- Node8 -->
<g id="node8" class="node"><title>Node8</title>
<g id="a_node8"><a xlink:href="class_urho3_d_1_1_hash_base.html" target="_top" xlink:title="Hash set/map base class. ">
<polygon fill="none" stroke="red" points="331,-240.3 331,-259.3 433,-259.3 433,-240.3 331,-240.3"/>
<text text-anchor="middle" x="382" y="-247.3" font-family="Helvetica,sans-Serif" font-size="10.00">Urho3D::HashBase</text>
</a>
</g>
</g>
<!-- Node8&#45;&gt;Node7 -->
<g id="edge8" class="edge"><title>Node8&#45;&gt;Node7</title>
<path fill="none" stroke="midnightblue" d="M430.707,-237.737C461.542,-229.939 502.881,-219.486 540.955,-209.858"/>
<polygon fill="midnightblue" stroke="midnightblue" points="429.51,-234.429 420.673,-240.274 431.226,-241.216 429.51,-234.429"/>
</g>
<!-- Node9 -->
<g id="node9" class="node"><title>Node9</title>
<g id="a_node9"><a xlink:href="class_urho3_d_1_1_hash_map.html" target="_top" xlink:title="Urho3D::HashMap\&lt; Urho3D\l::StringHash, Urho3D::\lSharedPtr\&lt; Urho3D::EventReceiver\lGroup \&gt; \&gt;">
<polygon fill="none" stroke="black" points="558.5,-86.8005 558.5,-138.8 731.5,-138.8 731.5,-86.8005 558.5,-86.8005"/>
<text text-anchor="start" x="566.5" y="-126.8" font-family="Helvetica,sans-Serif" font-size="10.00">Urho3D::HashMap&lt; Urho3D</text>
<text text-anchor="start" x="566.5" y="-115.8" font-family="Helvetica,sans-Serif" font-size="10.00">::StringHash, Urho3D::</text>
<text text-anchor="start" x="566.5" y="-104.8" font-family="Helvetica,sans-Serif" font-size="10.00">SharedPtr&lt; Urho3D::EventReceiver</text>
<text text-anchor="middle" x="645" y="-93.8005" font-family="Helvetica,sans-Serif" font-size="10.00">Group &gt; &gt;</text>
</a>
</g>
</g>
<!-- Node8&#45;&gt;Node9 -->
<g id="edge10" class="edge"><title>Node8&#45;&gt;Node9</title>
<path fill="none" stroke="midnightblue" d="M401.568,-233.753C428.018,-211.619 478.807,-171.748 528,-147.8 537.551,-143.151 547.848,-138.974 558.225,-135.263"/>
<polygon fill="midnightblue" stroke="midnightblue" points="399.238,-231.14 393.868,-240.273 403.761,-236.482 399.238,-231.14"/>
</g>
<!-- Node14 -->
<g id="node14" class="node"><title>Node14</title>
<g id="a_node14"><a xlink:href="class_urho3_d_1_1_hash_map.html" target="_top" xlink:title="Urho3D::HashMap\&lt; StringHash,\l Variant \&gt;">
<polygon fill="none" stroke="black" points="565.5,-288.8 565.5,-318.8 724.5,-318.8 724.5,-288.8 565.5,-288.8"/>
<text text-anchor="start" x="573.5" y="-306.8" font-family="Helvetica,sans-Serif" font-size="10.00">Urho3D::HashMap&lt; StringHash,</text>
<text text-anchor="middle" x="645" y="-295.8" font-family="Helvetica,sans-Serif" font-size="10.00"> Variant &gt;</text>
</a>
</g>
</g>
<!-- Node8&#45;&gt;Node14 -->
<g id="edge18" class="edge"><title>Node8&#45;&gt;Node14</title>
<path fill="none" stroke="midnightblue" d="M439.095,-261.406C477.754,-269.405 529.496,-280.11 571.312,-288.762"/>
<polygon fill="midnightblue" stroke="midnightblue" points="439.563,-257.929 429.061,-259.33 438.144,-264.784 439.563,-257.929"/>
</g>
<!-- Node15 -->
<g id="node15" class="node"><title>Node15</title>
<g id="a_node15"><a xlink:href="class_urho3_d_1_1_hash_map.html" target="_top" xlink:title="Urho3D::HashMap\&lt; Urho3D\l::StringHash, Urho3D::\lSharedPtr\&lt; Urho3D::Object \&gt; \&gt;">
<polygon fill="none" stroke="black" points="567.5,-229.3 567.5,-270.3 722.5,-270.3 722.5,-229.3 567.5,-229.3"/>
<text text-anchor="start" x="575.5" y="-258.3" font-family="Helvetica,sans-Serif" font-size="10.00">Urho3D::HashMap&lt; Urho3D</text>
<text text-anchor="start" x="575.5" y="-247.3" font-family="Helvetica,sans-Serif" font-size="10.00">::StringHash, Urho3D::</text>
<text text-anchor="middle" x="645" y="-236.3" font-family="Helvetica,sans-Serif" font-size="10.00">SharedPtr&lt; Urho3D::Object &gt; &gt;</text>
</a>
</g>
</g>
<!-- Node8&#45;&gt;Node15 -->
<g id="edge20" class="edge"><title>Node8&#45;&gt;Node15</title>
<path fill="none" stroke="midnightblue" d="M443.138,-249.8C480.095,-249.8 527.793,-249.8 567.434,-249.8"/>
<polygon fill="midnightblue" stroke="midnightblue" points="443.015,-246.301 433.015,-249.8 443.015,-253.301 443.015,-246.301"/>
</g>
<!-- Node17 -->
<g id="node17" class="node"><title>Node17</title>
<g id="a_node17"><a xlink:href="class_urho3_d_1_1_hash_map.html" target="_top" xlink:title="Urho3D::HashMap\&lt; Urho3D\l::StringHash, Urho3D::\lSharedPtr\&lt; Urho3D::ObjectFactory \&gt; \&gt;">
<polygon fill="none" stroke="black" points="551,-397.3 551,-438.3 739,-438.3 739,-397.3 551,-397.3"/>
<text text-anchor="start" x="559" y="-426.3" font-family="Helvetica,sans-Serif" font-size="10.00">Urho3D::HashMap&lt; Urho3D</text>
<text text-anchor="start" x="559" y="-415.3" font-family="Helvetica,sans-Serif" font-size="10.00">::StringHash, Urho3D::</text>
<text text-anchor="middle" x="645" y="-404.3" font-family="Helvetica,sans-Serif" font-size="10.00">SharedPtr&lt; Urho3D::ObjectFactory &gt; &gt;</text>
</a>
</g>
</g>
<!-- Node8&#45;&gt;Node17 -->
<g id="edge24" class="edge"><title>Node8&#45;&gt;Node17</title>
<path fill="none" stroke="midnightblue" d="M396.618,-267.74C420.076,-297.321 471.097,-356.103 528,-386.8 535.338,-390.759 543.216,-394.238 551.284,-397.29"/>
<polygon fill="midnightblue" stroke="midnightblue" points="399.154,-265.299 390.248,-259.561 393.631,-269.601 399.154,-265.299"/>
</g>
<!-- Node18 -->
<g id="node18" class="node"><title>Node18</title>
<g id="a_node18"><a xlink:href="class_urho3_d_1_1_hash_map.html" target="_top" xlink:title="Urho3D::HashMap\&lt; Urho3D\l::String, Urho3D::Vector\l\&lt; Urho3D::StringHash \&gt; \&gt;">
<polygon fill="none" stroke="black" points="574.5,-337.3 574.5,-378.3 715.5,-378.3 715.5,-337.3 574.5,-337.3"/>
<text text-anchor="start" x="582.5" y="-366.3" font-family="Helvetica,sans-Serif" font-size="10.00">Urho3D::HashMap&lt; Urho3D</text>
<text text-anchor="start" x="582.5" y="-355.3" font-family="Helvetica,sans-Serif" font-size="10.00">::String, Urho3D::Vector</text>
<text text-anchor="middle" x="645" y="-344.3" font-family="Helvetica,sans-Serif" font-size="10.00">&lt; Urho3D::StringHash &gt; &gt;</text>
</a>
</g>
</g>
<!-- Node8&#45;&gt;Node18 -->
<g id="edge26" class="edge"><title>Node8&#45;&gt;Node18</title>
<path fill="none" stroke="midnightblue" d="M406.767,-264.904C434.808,-282.166 483.283,-310.286 528,-327.8 542.72,-333.566 558.924,-338.552 574.433,-342.714"/>
<polygon fill="midnightblue" stroke="midnightblue" points="408.416,-261.807 398.076,-259.497 404.718,-267.751 408.416,-261.807"/>
</g>
<!-- Node19 -->
<g id="node19" class="node"><title>Node19</title>
<g id="a_node19"><a xlink:href="class_urho3_d_1_1_hash_map.html" target="_top" xlink:title="Urho3D::HashMap\&lt; Urho3D\l::StringHash, Urho3D::\lVector\&lt; Urho3D::AttributeInfo \&gt; \&gt;">
<polygon fill="none" stroke="black" points="562.5,-26.3005 562.5,-67.3005 727.5,-67.3005 727.5,-26.3005 562.5,-26.3005"/>
<text text-anchor="start" x="570.5" y="-55.3005" font-family="Helvetica,sans-Serif" font-size="10.00">Urho3D::HashMap&lt; Urho3D</text>
<text text-anchor="start" x="570.5" y="-44.3005" font-family="Helvetica,sans-Serif" font-size="10.00">::StringHash, Urho3D::</text>
<text text-anchor="middle" x="645" y="-33.3005" font-family="Helvetica,sans-Serif" font-size="10.00">Vector&lt; Urho3D::AttributeInfo &gt; &gt;</text>
</a>
</g>
</g>
<!-- Node8&#45;&gt;Node19 -->
<g id="edge28" class="edge"><title>Node8&#45;&gt;Node19</title>
<path fill="none" stroke="midnightblue" d="M392.959,-230.979C413.172,-194.765 462.692,-115.556 528,-76.8005 538.554,-70.5373 550.405,-65.5675 562.395,-61.6277"/>
<polygon fill="midnightblue" stroke="midnightblue" points="389.763,-229.528 388.046,-239.983 395.908,-232.881 389.763,-229.528"/>
</g>
<!-- Node9&#45;&gt;Node6 -->
<g id="edge9" class="edge"><title>Node9&#45;&gt;Node6</title>
<path fill="none" stroke="#9a32cd" stroke-dasharray="5,2" d="M741.669,-129.298C790.773,-141.609 849.114,-162.597 892,-197.8 935.274,-233.322 963.107,-297.24 972.479,-321.297"/>
<polygon fill="#9a32cd" stroke="#9a32cd" points="742.202,-125.827 731.66,-126.876 740.556,-132.63 742.202,-125.827"/>
<text text-anchor="middle" x="836" y="-200.8" font-family="Helvetica,sans-Serif" font-size="10.00"> eventReceivers_</text>
</g>
<!-- Node10 -->
<g id="node10" class="node"><title>Node10</title>
<g id="a_node10"><a xlink:href="class_urho3_d_1_1_p_o_d_vector.html" target="_top" xlink:title="Urho3D::PODVector\&lt;\l Urho3D::Object * \&gt;">
<polygon fill="none" stroke="black" points="588.5,-505.8 588.5,-535.8 701.5,-535.8 701.5,-505.8 588.5,-505.8"/>
<text text-anchor="start" x="596.5" y="-523.8" font-family="Helvetica,sans-Serif" font-size="10.00">Urho3D::PODVector&lt;</text>
<text text-anchor="middle" x="645" y="-512.8" font-family="Helvetica,sans-Serif" font-size="10.00"> Urho3D::Object * &gt;</text>
</a>
</g>
</g>
<!-- Node10&#45;&gt;Node6 -->
<g id="edge11" class="edge"><title>Node10&#45;&gt;Node6</title>
<path fill="none" stroke="#9a32cd" stroke-dasharray="5,2" d="M711.596,-518.929C764.717,-514.426 839.148,-501.04 892,-462.8 937.115,-430.159 963.841,-365.15 972.698,-340.543"/>
<polygon fill="#9a32cd" stroke="#9a32cd" points="711.306,-515.441 701.602,-519.693 711.84,-522.42 711.306,-515.441"/>
<text text-anchor="middle" x="836" y="-510.8" font-family="Helvetica,sans-Serif" font-size="10.00"> eventSenders_</text>
</g>
<!-- Node11 -->
<g id="node11" class="node"><title>Node11</title>
<g id="a_node11"><a xlink:href="class_urho3_d_1_1_vector_base.html" target="_top" xlink:title="Vector base class. ">
<polygon fill="none" stroke="black" points="328.5,-560.3 328.5,-579.3 435.5,-579.3 435.5,-560.3 328.5,-560.3"/>
<text text-anchor="middle" x="382" y="-567.3" font-family="Helvetica,sans-Serif" font-size="10.00">Urho3D::VectorBase</text>
</a>
</g>
</g>
<!-- Node11&#45;&gt;Node10 -->
<g id="edge12" class="edge"><title>Node11&#45;&gt;Node10</title>
<path fill="none" stroke="midnightblue" d="M443.541,-558.435C487.154,-550.247 545.567,-539.28 588.082,-531.298"/>
<polygon fill="midnightblue" stroke="midnightblue" points="442.815,-555.01 433.633,-560.295 444.107,-561.889 442.815,-555.01"/>
</g>
<!-- Node16 -->
<g id="node16" class="node"><title>Node16</title>
<g id="a_node16"><a xlink:href="class_urho3_d_1_1_p_o_d_vector.html" target="_top" xlink:title="Urho3D::PODVector\&lt;\l Urho3D::HashMap * \&gt;">
<polygon fill="none" stroke="black" points="586.5,-456.8 586.5,-486.8 703.5,-486.8 703.5,-456.8 586.5,-456.8"/>
<text text-anchor="start" x="594.5" y="-474.8" font-family="Helvetica,sans-Serif" font-size="10.00">Urho3D::PODVector&lt;</text>
<text text-anchor="middle" x="645" y="-463.8" font-family="Helvetica,sans-Serif" font-size="10.00"> Urho3D::HashMap * &gt;</text>
</a>
</g>
</g>
<!-- Node11&#45;&gt;Node16 -->
<g id="edge22" class="edge"><title>Node11&#45;&gt;Node16</title>
<path fill="none" stroke="midnightblue" d="M407.19,-554.894C435.271,-538.207 483.442,-511.46 528,-495.8 546.529,-489.289 567.377,-484.295 586.234,-480.594"/>
<polygon fill="midnightblue" stroke="midnightblue" points="405.237,-551.984 398.471,-560.137 408.845,-557.983 405.237,-551.984"/>
</g>
<!-- Node23 -->
<g id="node23" class="node"><title>Node23</title>
<g id="a_node23"><a xlink:href="class_urho3_d_1_1_vector.html" target="_top" xlink:title="Urho3D::Vector\&lt; Urho3D\l::VAnimEventFrame \&gt;">
<polygon fill="none" stroke="black" points="581,-554.8 581,-584.8 709,-584.8 709,-554.8 581,-554.8"/>
<text text-anchor="start" x="589" y="-572.8" font-family="Helvetica,sans-Serif" font-size="10.00">Urho3D::Vector&lt; Urho3D</text>
<text text-anchor="middle" x="645" y="-561.8" font-family="Helvetica,sans-Serif" font-size="10.00">::VAnimEventFrame &gt;</text>
</a>
</g>
</g>
<!-- Node11&#45;&gt;Node23 -->
<g id="edge36" class="edge"><title>Node11&#45;&gt;Node23</title>
<path fill="none" stroke="midnightblue" d="M445.638,-569.8C486.61,-569.8 539.946,-569.8 580.992,-569.8"/>
<polygon fill="midnightblue" stroke="midnightblue" points="445.503,-566.301 435.503,-569.8 445.503,-573.301 445.503,-566.301"/>
</g>
<!-- Node24 -->
<g id="node24" class="node"><title>Node24</title>
<g id="a_node24"><a xlink:href="class_urho3_d_1_1_vector.html" target="_top" xlink:title="Urho3D::Vector\&lt; Variant \&gt;">
<polygon fill="none" stroke="black" points="578,-700.3 578,-719.3 712,-719.3 712,-700.3 578,-700.3"/>
<text text-anchor="middle" x="645" y="-707.3" font-family="Helvetica,sans-Serif" font-size="10.00">Urho3D::Vector&lt; Variant &gt;</text>
</a>
</g>
</g>
<!-- Node11&#45;&gt;Node24 -->
<g id="edge38" class="edge"><title>Node11&#45;&gt;Node24</title>
<path fill="none" stroke="midnightblue" d="M398.92,-586.903C423.861,-612.597 474.82,-660.805 528,-685.8 543.448,-693.061 561.073,-698.137 577.839,-701.681"/>
<polygon fill="midnightblue" stroke="midnightblue" points="401.203,-584.226 391.766,-579.41 396.14,-589.06 401.203,-584.226"/>
</g>
<!-- Node25 -->
<g id="node25" class="node"><title>Node25</title>
<g id="a_node25"><a xlink:href="class_urho3_d_1_1_vector.html" target="_top" xlink:title="Urho3D::Vector\&lt; Urho3D\l::VAnimKeyFrame \&gt;">
<polygon fill="none" stroke="black" points="581,-603.8 581,-633.8 709,-633.8 709,-603.8 581,-603.8"/>
<text text-anchor="start" x="589" y="-621.8" font-family="Helvetica,sans-Serif" font-size="10.00">Urho3D::Vector&lt; Urho3D</text>
<text text-anchor="middle" x="645" y="-610.8" font-family="Helvetica,sans-Serif" font-size="10.00">::VAnimKeyFrame &gt;</text>
</a>
</g>
</g>
<!-- Node11&#45;&gt;Node25 -->
<g id="edge40" class="edge"><title>Node11&#45;&gt;Node25</title>
<path fill="none" stroke="midnightblue" d="M441.205,-581.339C445.534,-582.178 449.835,-583.006 454,-583.8 496.173,-591.842 543.673,-600.592 580.63,-607.332"/>
<polygon fill="midnightblue" stroke="midnightblue" points="441.591,-577.848 431.106,-579.371 440.252,-584.719 441.591,-577.848"/>
</g>
<!-- Node12&#45;&gt;Node6 -->
<g id="edge13" class="edge"><title>Node12&#45;&gt;Node6</title>
<path fill="none" stroke="#9a32cd" stroke-dasharray="5,2" d="M713.478,-750.108C731.242,-747.426 749.039,-741.288 762,-728.8 791.062,-700.8 751.262,-668.133 780,-639.8 816.065,-604.244 854.47,-652.807 892,-618.8 977.876,-540.988 977.929,-380.879 976.473,-340.308"/>
<polygon fill="#9a32cd" stroke="#9a32cd" points="712.593,-746.687 703.06,-751.31 713.395,-753.641 712.593,-746.687"/>
<text text-anchor="middle" x="836" y="-642.8" font-family="Helvetica,sans-Serif" font-size="10.00"> eventHandler_</text>
</g>
<!-- Node20 -->
<g id="node20" class="node"><title>Node20</title>
<g id="a_node20"><a xlink:href="class_urho3_d_1_1_linked_list.html" target="_top" xlink:title="Urho3D::LinkedList\l\&lt; Urho3D::EventHandler \&gt;">
<polygon fill="none" stroke="black" points="910,-765.8 910,-795.8 1044,-795.8 1044,-765.8 910,-765.8"/>
<text text-anchor="start" x="918" y="-783.8" font-family="Helvetica,sans-Serif" font-size="10.00">Urho3D::LinkedList</text>
<text text-anchor="middle" x="977" y="-772.8" font-family="Helvetica,sans-Serif" font-size="10.00">&lt; Urho3D::EventHandler &gt;</text>
</a>
</g>
</g>
<!-- Node12&#45;&gt;Node20 -->
<g id="edge30" class="edge"><title>Node12&#45;&gt;Node20</title>
<path fill="none" stroke="#9a32cd" stroke-dasharray="5,2" d="M713.511,-752.527C762.996,-756.243 831.764,-761.932 892,-768.8 897.708,-769.451 903.627,-770.182 909.559,-770.954"/>
<polygon fill="#9a32cd" stroke="#9a32cd" points="713.487,-749.015 703.254,-751.764 712.967,-755.996 713.487,-749.015"/>
<text text-anchor="middle" x="836" y="-771.8" font-family="Helvetica,sans-Serif" font-size="10.00"> head_</text>
</g>
<!-- Node13 -->
<g id="node13" class="node"><title>Node13</title>
<g id="a_node13"><a xlink:href="class_urho3_d_1_1_string_hash.html" target="_top" xlink:title="32&#45;bit hash value for a string. ">
<polygon fill="none" stroke="black" points="329.5,-783.3 329.5,-802.3 434.5,-802.3 434.5,-783.3 329.5,-783.3"/>
<text text-anchor="middle" x="382" y="-790.3" font-family="Helvetica,sans-Serif" font-size="10.00">Urho3D::StringHash</text>
</a>
</g>
</g>
<!-- Node13&#45;&gt;Node2 -->
<g id="edge34" class="edge"><title>Node13&#45;&gt;Node2</title>
<path fill="none" stroke="#9a32cd" stroke-dasharray="5,2" d="M406.14,-807.618C419.588,-815.51 437.158,-824.63 454,-829.8 500.823,-844.174 556.765,-849.288 595.774,-851.04"/>
<polygon fill="#9a32cd" stroke="#9a32cd" points="407.915,-804.601 397.548,-802.414 404.289,-810.588 407.915,-804.601"/>
<text text-anchor="middle" x="482" y="-844.8" font-family="Helvetica,sans-Serif" font-size="10.00"> nameHash_</text>
</g>
<!-- Node13&#45;&gt;Node12 -->
<g id="edge15" class="edge"><title>Node13&#45;&gt;Node12</title>
<path fill="none" stroke="#9a32cd" stroke-dasharray="5,2" d="M444.487,-782.199C488.134,-774.674 546.239,-764.656 588.481,-757.373"/>
<polygon fill="#9a32cd" stroke="#9a32cd" points="443.825,-778.762 434.565,-783.91 445.015,-785.66 443.825,-778.762"/>
<text text-anchor="middle" x="482" y="-782.8" font-family="Helvetica,sans-Serif" font-size="10.00"> eventType_</text>
</g>
<!-- Node13&#45;&gt;Node13 -->
<g id="edge16" class="edge"><title>Node13&#45;&gt;Node13</title>
<path fill="none" stroke="#9a32cd" stroke-dasharray="5,2" d="M368.741,-812.567C369.782,-817.297 374.202,-820.8 382,-820.8 394.797,-820.8 398.496,-811.366 393.097,-802.558"/>
<polygon fill="#9a32cd" stroke="#9a32cd" points="372.212,-813.071 370.903,-802.558 365.37,-811.593 372.212,-813.071"/>
<text text-anchor="middle" x="382" y="-823.8" font-family="Helvetica,sans-Serif" font-size="10.00"> ZERO</text>
</g>
<!-- Node14&#45;&gt;Node6 -->
<g id="edge17" class="edge"><title>Node14&#45;&gt;Node6</title>
<path fill="none" stroke="#9a32cd" stroke-dasharray="5,2" d="M734.877,-308.178C781.686,-310.838 840.015,-314.712 892,-319.8 904.735,-321.047 918.516,-322.717 931.16,-324.378"/>
<polygon fill="#9a32cd" stroke="#9a32cd" points="734.946,-304.677 724.766,-307.612 734.554,-311.666 734.946,-304.677"/>
<text text-anchor="middle" x="836" y="-322.8" font-family="Helvetica,sans-Serif" font-size="10.00"> globalVars_</text>
</g>
<!-- Node15&#45;&gt;Node6 -->
<g id="edge19" class="edge"><title>Node15&#45;&gt;Node6</title>
<path fill="none" stroke="#9a32cd" stroke-dasharray="5,2" d="M732.52,-262.077C780.121,-269.89 839.922,-281.447 892,-296.8 914.334,-303.385 938.919,-313.72 955.689,-321.268"/>
<polygon fill="#9a32cd" stroke="#9a32cd" points="732.986,-258.607 722.555,-260.467 731.869,-265.518 732.986,-258.607"/>
<text text-anchor="middle" x="836" y="-299.8" font-family="Helvetica,sans-Serif" font-size="10.00"> subsystems_</text>
</g>
<!-- Node16&#45;&gt;Node6 -->
<g id="edge21" class="edge"><title>Node16&#45;&gt;Node6</title>
<path fill="none" stroke="#9a32cd" stroke-dasharray="5,2" d="M713.594,-462.765C765.09,-453.729 836.367,-436.458 892,-404.8 923.419,-386.922 953.525,-355.959 967.64,-340.363"/>
<polygon fill="#9a32cd" stroke="#9a32cd" points="712.844,-459.343 703.57,-464.465 714.014,-466.244 712.844,-459.343"/>
<text text-anchor="middle" x="836" y="-450.8" font-family="Helvetica,sans-Serif" font-size="10.00"> eventDataMaps_</text>
</g>
<!-- Node17&#45;&gt;Node6 -->
<g id="edge23" class="edge"><title>Node17&#45;&gt;Node6</title>
<path fill="none" stroke="#9a32cd" stroke-dasharray="5,2" d="M748.944,-397.482C793.301,-387.927 845.547,-375.596 892,-361.8 912.862,-355.605 936.028,-346.914 952.739,-340.311"/>
<polygon fill="#9a32cd" stroke="#9a32cd" points="748.07,-394.09 739.021,-399.602 749.532,-400.935 748.07,-394.09"/>
<text text-anchor="middle" x="836" y="-392.8" font-family="Helvetica,sans-Serif" font-size="10.00"> factories_</text>
</g>
<!-- Node18&#45;&gt;Node6 -->
<g id="edge25" class="edge"><title>Node18&#45;&gt;Node6</title>
<path fill="none" stroke="#9a32cd" stroke-dasharray="5,2" d="M725.715,-351.278C790.197,-346.003 878.644,-338.766 931.296,-334.458"/>
<polygon fill="#9a32cd" stroke="#9a32cd" points="725.263,-347.804 715.581,-352.107 725.833,-354.78 725.263,-347.804"/>
<text text-anchor="middle" x="836" y="-349.8" font-family="Helvetica,sans-Serif" font-size="10.00"> objectCategories_</text>
</g>
<!-- Node19&#45;&gt;Node6 -->
<g id="edge27" class="edge"><title>Node19&#45;&gt;Node6</title>
<path fill="none" stroke="#9a32cd" stroke-dasharray="5,2" d="M737.778,-52.8238C788.851,-60.6657 850.331,-78.1666 892,-116.8 955.219,-175.415 971.557,-287.467 975.119,-321.052"/>
<polygon fill="#9a32cd" stroke="#9a32cd" points="738.107,-49.3352 727.712,-51.3808 737.114,-56.2644 738.107,-49.3352"/>
<text text-anchor="middle" x="836" y="-130.8" font-family="Helvetica,sans-Serif" font-size="10.00"> attributes_</text>
<text text-anchor="middle" x="836" y="-119.8" font-family="Helvetica,sans-Serif" font-size="10.00">networkAttributes_</text>
</g>
<!-- Node20&#45;&gt;Node3 -->
<g id="edge29" class="edge"><title>Node20&#45;&gt;Node3</title>
<path fill="none" stroke="#9a32cd" stroke-dasharray="5,2" d="M899.665,-796.005C795.55,-813.358 604.735,-832.983 454,-779.8 427.168,-770.334 402.967,-746 390.963,-732.386"/>
<polygon fill="#9a32cd" stroke="#9a32cd" points="900.504,-799.413 909.773,-794.282 899.327,-792.512 900.504,-799.413"/>
<text text-anchor="middle" x="645" y="-817.8" font-family="Helvetica,sans-Serif" font-size="10.00"> eventHandlers_</text>
</g>
<!-- Node21 -->
<g id="node21" class="node"><title>Node21</title>
<g id="a_node21"><a xlink:href="class_urho3_d_1_1_timer.html" target="_top" xlink:title="Low&#45;resolution operating system timer. ">
<polygon fill="none" stroke="black" points="341.5,-926.3 341.5,-945.3 422.5,-945.3 422.5,-926.3 341.5,-926.3"/>
<text text-anchor="middle" x="382" y="-933.3" font-family="Helvetica,sans-Serif" font-size="10.00">Urho3D::Timer</text>
</a>
</g>
</g>
<!-- Node21&#45;&gt;Node2 -->
<g id="edge31" class="edge"><title>Node21&#45;&gt;Node2</title>
<path fill="none" stroke="#9a32cd" stroke-dasharray="5,2" d="M422.349,-923.136C474.991,-906.194 567.164,-876.529 614.342,-861.346"/>
<polygon fill="#9a32cd" stroke="#9a32cd" points="421.133,-919.851 412.686,-926.246 423.277,-926.514 421.133,-919.851"/>
<text text-anchor="middle" x="482" y="-914.8" font-family="Helvetica,sans-Serif" font-size="10.00"> useTimer_</text>
</g>
<!-- Node22 -->
<g id="node22" class="node"><title>Node22</title>
<g id="a_node22"><a xlink:href="class_urho3_d_1_1_string.html" target="_top" xlink:title="String class. ">
<polygon fill="none" stroke="black" points="341,-859.3 341,-878.3 423,-878.3 423,-859.3 341,-859.3"/>
<text text-anchor="middle" x="382" y="-866.3" font-family="Helvetica,sans-Serif" font-size="10.00">Urho3D::String</text>
</a>
</g>
</g>
<!-- Node22&#45;&gt;Node2 -->
<g id="edge32" class="edge"><title>Node22&#45;&gt;Node2</title>
<path fill="none" stroke="#9a32cd" stroke-dasharray="5,2" d="M433.104,-867.405C456.484,-866.606 484.68,-865.432 510,-863.8 538.553,-861.961 570.463,-859.134 595.979,-856.686"/>
<polygon fill="#9a32cd" stroke="#9a32cd" points="432.945,-863.908 423.066,-867.736 433.176,-870.905 432.945,-863.908"/>
<text text-anchor="middle" x="482" y="-869.8" font-family="Helvetica,sans-Serif" font-size="10.00"> name_</text>
</g>
<!-- Node22&#45;&gt;Node22 -->
<g id="edge33" class="edge"><title>Node22&#45;&gt;Node22</title>
<path fill="none" stroke="#9a32cd" stroke-dasharray="5,2" d="M368.741,-888.567C369.782,-893.297 374.202,-896.8 382,-896.8 394.797,-896.8 398.496,-887.366 393.097,-878.558"/>
<polygon fill="#9a32cd" stroke="#9a32cd" points="372.212,-889.071 370.903,-878.558 365.37,-887.593 372.212,-889.071"/>
<text text-anchor="middle" x="382" y="-899.8" font-family="Helvetica,sans-Serif" font-size="10.00"> EMPTY</text>
</g>
<!-- Node23&#45;&gt;Node1 -->
<g id="edge35" class="edge"><title>Node23&#45;&gt;Node1</title>
<path fill="none" stroke="#9a32cd" stroke-dasharray="5,2" d="M719.434,-569.324C770.347,-571.743 838.364,-580.6 892,-607.8 927.316,-625.71 956.908,-664.005 969.497,-682.034"/>
<polygon fill="#9a32cd" stroke="#9a32cd" points="719.298,-565.816 709.165,-568.912 719.017,-572.81 719.298,-565.816"/>
<text text-anchor="middle" x="836" y="-610.8" font-family="Helvetica,sans-Serif" font-size="10.00"> eventFrames_</text>
</g>
<!-- Node24&#45;&gt;Node1 -->
<g id="edge37" class="edge"><title>Node24&#45;&gt;Node1</title>
<path fill="none" stroke="#9a32cd" stroke-dasharray="5,2" d="M722.656,-705.619C780.993,-702.437 860.226,-698.115 914.46,-695.157"/>
<polygon fill="#9a32cd" stroke="#9a32cd" points="722.178,-702.14 712.383,-706.18 722.559,-709.13 722.178,-702.14"/>
<text text-anchor="middle" x="836" y="-705.8" font-family="Helvetica,sans-Serif" font-size="10.00"> splineTangents_</text>
</g>
<!-- Node25&#45;&gt;Node1 -->
<g id="edge39" class="edge"><title>Node25&#45;&gt;Node1</title>
<path fill="none" stroke="#9a32cd" stroke-dasharray="5,2" d="M712.273,-636.343C733.817,-641.851 757.872,-647.795 780,-652.8 828.73,-663.823 884.654,-674.785 924.261,-682.267"/>
<polygon fill="#9a32cd" stroke="#9a32cd" points="713.124,-632.948 702.568,-633.849 711.382,-639.728 713.124,-632.948"/>
<text text-anchor="middle" x="836" y="-679.8" font-family="Helvetica,sans-Serif" font-size="10.00"> keyFrames_</text>
</g>
</g>
</svg>
