<?xml version="1.0" encoding="UTF-8" standalone="no"?>
<!DOCTYPE svg PUBLIC "-//W3C//DTD SVG 1.1//EN"
 "http://www.w3.org/Graphics/SVG/1.1/DTD/svg11.dtd">
<!-- Generated by graphviz version 2.36.0 (20140111.2315)
 -->
<!-- Title: Urho3D::DbResult Pages: 1 -->
<svg width="282pt" height="166pt"
 viewBox="0.00 0.00 282.00 166.00" xmlns="http://www.w3.org/2000/svg" xmlns:xlink="http://www.w3.org/1999/xlink">
<g id="graph0" class="graph" transform="scale(1 1) rotate(0) translate(4 162)">
<title>Urho3D::DbResult</title>
<!-- Node1 -->
<g id="node1" class="node"><title>Node1</title>
<polygon fill="#bfbfbf" stroke="black" points="64,-0.5 64,-19.5 162,-19.5 162,-0.5 64,-0.5"/>
<text text-anchor="middle" x="113" y="-7.5" font-family="Helvetica,sans-Serif" font-size="10.00">Urho3D::DbResult</text>
</g>
<!-- Node2 -->
<g id="node2" class="node"><title>Node2</title>
<g id="a_node2"><a xlink:href="class_urho3_d_1_1_vector.html" target="_top" xlink:title="Urho3D::Vector\&lt; Urho3D\l::Vector \&gt;">
<polygon fill="none" stroke="black" points="0,-69 0,-99 128,-99 128,-69 0,-69"/>
<text text-anchor="start" x="8" y="-87" font-family="Helvetica,sans-Serif" font-size="10.00">Urho3D::Vector&lt; Urho3D</text>
<text text-anchor="middle" x="64" y="-76" font-family="Helvetica,sans-Serif" font-size="10.00">::Vector &gt;</text>
</a>
</g>
</g>
<!-- Node2&#45;&gt;Node1 -->
<g id="edge1" class="edge"><title>Node2&#45;&gt;Node1</title>
<path fill="none" stroke="#9a32cd" stroke-dasharray="5,2" d="M79.4673,-60.2726C88.8269,-46.5196 100.232,-29.7615 107.039,-19.7589"/>
<polygon fill="#9a32cd" stroke="#9a32cd" points="76.4136,-58.5388 73.6808,-68.7751 82.2006,-62.4772 76.4136,-58.5388"/>
<text text-anchor="middle" x="110" y="-41.5" font-family="Helvetica,sans-Serif" font-size="10.00"> rows_</text>
</g>
<!-- Node3 -->
<g id="node3" class="node"><title>Node3</title>
<g id="a_node3"><a xlink:href="class_urho3_d_1_1_vector_base.html" target="_top" xlink:title="Vector base class. ">
<polygon fill="none" stroke="black" points="97.5,-138.5 97.5,-157.5 204.5,-157.5 204.5,-138.5 97.5,-138.5"/>
<text text-anchor="middle" x="151" y="-145.5" font-family="Helvetica,sans-Serif" font-size="10.00">Urho3D::VectorBase</text>
</a>
</g>
</g>
<!-- Node3&#45;&gt;Node2 -->
<g id="edge2" class="edge"><title>Node3&#45;&gt;Node2</title>
<path fill="none" stroke="midnightblue" d="M130.361,-132.292C116.23,-122.221 97.6021,-108.946 83.6805,-99.0252"/>
<polygon fill="midnightblue" stroke="midnightblue" points="128.728,-135.426 138.903,-138.379 132.791,-129.725 128.728,-135.426"/>
</g>
<!-- Node4 -->
<g id="node4" class="node"><title>Node4</title>
<g id="a_node4"><a xlink:href="class_urho3_d_1_1_vector.html" target="_top" xlink:title="Urho3D::Vector\&lt; String \&gt;">
<polygon fill="none" stroke="black" points="146,-74.5 146,-93.5 274,-93.5 274,-74.5 146,-74.5"/>
<text text-anchor="middle" x="210" y="-81.5" font-family="Helvetica,sans-Serif" font-size="10.00">Urho3D::Vector&lt; String &gt;</text>
</a>
</g>
</g>
<!-- Node3&#45;&gt;Node4 -->
<g id="edge4" class="edge"><title>Node3&#45;&gt;Node4</title>
<path fill="none" stroke="midnightblue" d="M166.364,-130.855C177.72,-118.921 192.737,-103.141 201.866,-93.5476"/>
<polygon fill="midnightblue" stroke="midnightblue" points="163.562,-128.722 159.204,-138.379 168.633,-133.548 163.562,-128.722"/>
</g>
<!-- Node4&#45;&gt;Node1 -->
<g id="edge3" class="edge"><title>Node4&#45;&gt;Node1</title>
<path fill="none" stroke="#9a32cd" stroke-dasharray="5,2" d="M190.452,-68.4903C170.668,-53.8054 140.747,-31.5955 124.493,-19.531"/>
<polygon fill="#9a32cd" stroke="#9a32cd" points="188.376,-71.3081 198.492,-74.4579 192.548,-65.6873 188.376,-71.3081"/>
<text text-anchor="middle" x="187" y="-41.5" font-family="Helvetica,sans-Serif" font-size="10.00"> columns_</text>
</g>
</g>
</svg>
