<?xml version="1.0" encoding="UTF-8" standalone="no"?>
<!DOCTYPE svg PUBLIC "-//W3C//DTD SVG 1.1//EN"
 "http://www.w3.org/Graphics/SVG/1.1/DTD/svg11.dtd">
<!-- Generated by graphviz version 2.36.0 (20140111.2315)
 -->
<!-- Title: Urho3D::OctreeQuery Pages: 1 -->
<svg width="504pt" height="191pt"
 viewBox="0.00 0.00 504.00 191.00" xmlns="http://www.w3.org/2000/svg" xmlns:xlink="http://www.w3.org/1999/xlink">
<g id="graph0" class="graph" transform="scale(1 1) rotate(0) translate(4 187)">
<title>Urho3D::OctreeQuery</title>
<!-- Node1 -->
<g id="node1" class="node"><title>Node1</title>
<polygon fill="#bfbfbf" stroke="black" points="0,-76.5 0,-95.5 112,-95.5 112,-76.5 0,-76.5"/>
<text text-anchor="middle" x="56" y="-83.5" font-family="Helvetica,sans-Serif" font-size="10.00">Urho3D::OctreeQuery</text>
</g>
<!-- Node2 -->
<g id="node2" class="node"><title>Node2</title>
<g id="a_node2"><a xlink:href="class_urho3_d_1_1_all_content_octree_query.html" target="_top" xlink:title="Urho3D::AllContentOctree\lQuery">
<polygon fill="none" stroke="black" points="156.5,-153 156.5,-183 287.5,-183 287.5,-153 156.5,-153"/>
<text text-anchor="start" x="164.5" y="-171" font-family="Helvetica,sans-Serif" font-size="10.00">Urho3D::AllContentOctree</text>
<text text-anchor="middle" x="222" y="-160" font-family="Helvetica,sans-Serif" font-size="10.00">Query</text>
</a>
</g>
</g>
<!-- Node1&#45;&gt;Node2 -->
<g id="edge1" class="edge"><title>Node1&#45;&gt;Node2</title>
<path fill="none" stroke="midnightblue" d="M78.5621,-101.493C96.5092,-113.893 123.065,-131.116 148,-143 155.619,-146.631 163.908,-149.989 172.078,-152.988"/>
<polygon fill="midnightblue" stroke="midnightblue" points="80.2133,-98.3766 70.0158,-95.5025 76.1952,-104.109 80.2133,-98.3766"/>
</g>
<!-- Node3 -->
<g id="node3" class="node"><title>Node3</title>
<g id="a_node3"><a xlink:href="class_urho3_d_1_1_box_octree_query.html" target="_top" xlink:title="Bounding box octree query. ">
<polygon fill="none" stroke="black" points="157.5,-114.5 157.5,-133.5 286.5,-133.5 286.5,-114.5 157.5,-114.5"/>
<text text-anchor="middle" x="222" y="-121.5" font-family="Helvetica,sans-Serif" font-size="10.00">Urho3D::BoxOctreeQuery</text>
</a>
</g>
</g>
<!-- Node1&#45;&gt;Node3 -->
<g id="edge2" class="edge"><title>Node1&#45;&gt;Node3</title>
<path fill="none" stroke="midnightblue" d="M108.341,-97.8961C131.393,-103.237 158.221,-109.454 179.913,-114.48"/>
<polygon fill="midnightblue" stroke="midnightblue" points="108.916,-94.4367 98.3841,-95.589 107.336,-101.256 108.916,-94.4367"/>
</g>
<!-- Node4 -->
<g id="node4" class="node"><title>Node4</title>
<g id="a_node4"><a xlink:href="class_urho3_d_1_1_frustum_octree_query.html" target="_top" xlink:title="Frustum octree query. ">
<polygon fill="none" stroke="black" points="148,-76.5 148,-95.5 296,-95.5 296,-76.5 148,-76.5"/>
<text text-anchor="middle" x="222" y="-83.5" font-family="Helvetica,sans-Serif" font-size="10.00">Urho3D::FrustumOctreeQuery</text>
</a>
</g>
</g>
<!-- Node1&#45;&gt;Node4 -->
<g id="edge3" class="edge"><title>Node1&#45;&gt;Node4</title>
<path fill="none" stroke="midnightblue" d="M122.164,-86C130.563,-86 139.208,-86 147.727,-86"/>
<polygon fill="midnightblue" stroke="midnightblue" points="122.066,-82.5001 112.066,-86 122.066,-89.5001 122.066,-82.5001"/>
</g>
<!-- Node8 -->
<g id="node8" class="node"><title>Node8</title>
<g id="a_node8"><a xlink:href="class_urho3_d_1_1_point_octree_query.html" target="_top" xlink:title="Point octree query. ">
<polygon fill="none" stroke="black" points="155,-38.5 155,-57.5 289,-57.5 289,-38.5 155,-38.5"/>
<text text-anchor="middle" x="222" y="-45.5" font-family="Helvetica,sans-Serif" font-size="10.00">Urho3D::PointOctreeQuery</text>
</a>
</g>
</g>
<!-- Node1&#45;&gt;Node8 -->
<g id="edge7" class="edge"><title>Node1&#45;&gt;Node8</title>
<path fill="none" stroke="midnightblue" d="M108.341,-74.1039C131.393,-68.7626 158.221,-62.5463 179.913,-57.5201"/>
<polygon fill="midnightblue" stroke="midnightblue" points="107.336,-70.744 98.3841,-76.411 108.916,-77.5633 107.336,-70.744"/>
</g>
<!-- Node9 -->
<g id="node9" class="node"><title>Node9</title>
<g id="a_node9"><a xlink:href="class_urho3_d_1_1_sphere_octree_query.html" target="_top" xlink:title="Sphere octree query. ">
<polygon fill="none" stroke="black" points="150.5,-0.5 150.5,-19.5 293.5,-19.5 293.5,-0.5 150.5,-0.5"/>
<text text-anchor="middle" x="222" y="-7.5" font-family="Helvetica,sans-Serif" font-size="10.00">Urho3D::SphereOctreeQuery</text>
</a>
</g>
</g>
<!-- Node1&#45;&gt;Node9 -->
<g id="edge8" class="edge"><title>Node1&#45;&gt;Node9</title>
<path fill="none" stroke="midnightblue" d="M78.027,-70.2208C95.8427,-57.5087 122.49,-39.9999 148,-29 156.658,-25.2666 166.221,-22.1302 175.494,-19.5505"/>
<polygon fill="midnightblue" stroke="midnightblue" points="75.598,-67.6596 69.5684,-76.3714 79.7147,-73.3211 75.598,-67.6596"/>
</g>
<!-- Node5 -->
<g id="node5" class="node"><title>Node5</title>
<g id="a_node5"><a xlink:title="Frustum octree query with occlusion. ">
<polygon fill="none" stroke="#bfbfbf" points="332.5,-120 332.5,-150 495.5,-150 495.5,-120 332.5,-120"/>
<text text-anchor="start" x="340.5" y="-138" font-family="Helvetica,sans-Serif" font-size="10.00">Urho3D::OccludedFrustumOctree</text>
<text text-anchor="middle" x="414" y="-127" font-family="Helvetica,sans-Serif" font-size="10.00">Query</text>
</a>
</g>
</g>
<!-- Node4&#45;&gt;Node5 -->
<g id="edge4" class="edge"><title>Node4&#45;&gt;Node5</title>
<path fill="none" stroke="midnightblue" d="M269.925,-98.1018C295.541,-104.708 327.489,-112.947 354.693,-119.963"/>
<polygon fill="midnightblue" stroke="midnightblue" points="270.642,-94.6722 260.085,-95.564 268.894,-101.45 270.642,-94.6722"/>
</g>
<!-- Node6 -->
<g id="node6" class="node"><title>Node6</title>
<g id="a_node6"><a xlink:title="Frustum octree query for shadowcasters. ">
<polygon fill="none" stroke="#bfbfbf" points="339,-71 339,-101 489,-101 489,-71 339,-71"/>
<text text-anchor="start" x="347" y="-89" font-family="Helvetica,sans-Serif" font-size="10.00">Urho3D::ShadowCasterOctree</text>
<text text-anchor="middle" x="414" y="-78" font-family="Helvetica,sans-Serif" font-size="10.00">Query</text>
</a>
</g>
</g>
<!-- Node4&#45;&gt;Node6 -->
<g id="edge5" class="edge"><title>Node4&#45;&gt;Node6</title>
<path fill="none" stroke="midnightblue" d="M306.464,-86C317.267,-86 328.272,-86 338.909,-86"/>
<polygon fill="midnightblue" stroke="midnightblue" points="306.187,-82.5001 296.187,-86 306.187,-89.5001 306.187,-82.5001"/>
</g>
<!-- Node7 -->
<g id="node7" class="node"><title>Node7</title>
<g id="a_node7"><a xlink:title="Frustum octree query for zones and occluders. ">
<polygon fill="none" stroke="#bfbfbf" points="341,-22 341,-52 487,-52 487,-22 341,-22"/>
<text text-anchor="start" x="349" y="-40" font-family="Helvetica,sans-Serif" font-size="10.00">Urho3D::ZoneOccluderOctree</text>
<text text-anchor="middle" x="414" y="-29" font-family="Helvetica,sans-Serif" font-size="10.00">Query</text>
</a>
</g>
</g>
<!-- Node4&#45;&gt;Node7 -->
<g id="edge6" class="edge"><title>Node4&#45;&gt;Node7</title>
<path fill="none" stroke="midnightblue" d="M269.925,-73.8982C295.541,-67.292 327.489,-59.0529 354.693,-52.037"/>
<polygon fill="midnightblue" stroke="midnightblue" points="268.894,-70.5496 260.085,-76.436 270.642,-77.3278 268.894,-70.5496"/>
</g>
</g>
</svg>
