<?xml version="1.0" encoding="UTF-8" standalone="no"?>
<!DOCTYPE svg PUBLIC "-//W3C//DTD SVG 1.1//EN"
 "http://www.w3.org/Graphics/SVG/1.1/DTD/svg11.dtd">
<!-- Generated by graphviz version 2.36.0 (20140111.2315)
 -->
<!-- Title: Urho3D::ParticleEffect2D Pages: 1 -->
<svg width="1706pt" height="1033pt"
 viewBox="0.00 0.00 1706.00 1033.00" xmlns="http://www.w3.org/2000/svg" xmlns:xlink="http://www.w3.org/1999/xlink">
<g id="graph0" class="graph" transform="scale(1 1) rotate(0) translate(4 1029)">
<title>Urho3D::ParticleEffect2D</title>
<!-- Node1 -->
<g id="node1" class="node"><title>Node1</title>
<polygon fill="#bfbfbf" stroke="black" points="1570,-783.5 1570,-802.5 1698,-802.5 1698,-783.5 1570,-783.5"/>
<text text-anchor="middle" x="1634" y="-790.5" font-family="Helvetica,sans-Serif" font-size="10.00">Urho3D::ParticleEffect2D</text>
</g>
<!-- Node2 -->
<g id="node2" class="node"><title>Node2</title>
<g id="a_node2"><a xlink:href="class_urho3_d_1_1_resource.html" target="_top" xlink:title="Base class for resources. ">
<polygon fill="none" stroke="black" points="732,-567.5 732,-586.5 830,-586.5 830,-567.5 732,-567.5"/>
<text text-anchor="middle" x="781" y="-574.5" font-family="Helvetica,sans-Serif" font-size="10.00">Urho3D::Resource</text>
</a>
</g>
</g>
<!-- Node2&#45;&gt;Node1 -->
<g id="edge1" class="edge"><title>Node2&#45;&gt;Node1</title>
<path fill="none" stroke="midnightblue" d="M840.241,-585.377C858.777,-588.354 879.316,-591.976 898,-596 1173.73,-655.379 1500.77,-752.735 1601.75,-783.424"/>
<polygon fill="midnightblue" stroke="midnightblue" points="840.597,-581.89 830.174,-583.792 839.508,-588.805 840.597,-581.89"/>
</g>
<!-- Node20 -->
<g id="node20" class="node"><title>Node20</title>
<g id="a_node20"><a xlink:href="class_urho3_d_1_1_sprite2_d.html" target="_top" xlink:title="Sprite. ">
<polygon fill="none" stroke="black" points="1065.5,-783.5 1065.5,-802.5 1160.5,-802.5 1160.5,-783.5 1065.5,-783.5"/>
<text text-anchor="middle" x="1113" y="-790.5" font-family="Helvetica,sans-Serif" font-size="10.00">Urho3D::Sprite2D</text>
</a>
</g>
</g>
<!-- Node2&#45;&gt;Node20 -->
<g id="edge27" class="edge"><title>Node2&#45;&gt;Node20</title>
<path fill="none" stroke="midnightblue" d="M840.12,-573.409C860.886,-575.201 882.864,-581.127 898,-596 929.898,-627.345 885.424,-662.364 916,-695 951.081,-732.443 982.251,-699.769 1028,-723 1059.14,-738.815 1088.91,-768.058 1103.19,-783.256"/>
<polygon fill="midnightblue" stroke="midnightblue" points="840.241,-569.91 830.059,-572.84 839.846,-576.899 840.241,-569.91"/>
</g>
<!-- Node3 -->
<g id="node3" class="node"><title>Node3</title>
<g id="a_node3"><a xlink:href="class_urho3_d_1_1_object.html" target="_top" xlink:title="Base class for objects with type identification, subsystem access and event sending/receiving capabil...">
<polygon fill="none" stroke="black" points="474.5,-464.5 474.5,-483.5 559.5,-483.5 559.5,-464.5 474.5,-464.5"/>
<text text-anchor="middle" x="517" y="-471.5" font-family="Helvetica,sans-Serif" font-size="10.00">Urho3D::Object</text>
</a>
</g>
</g>
<!-- Node3&#45;&gt;Node2 -->
<g id="edge2" class="edge"><title>Node3&#45;&gt;Node2</title>
<path fill="none" stroke="midnightblue" d="M534.187,-491.149C554.327,-512.447 586.3,-546.114 588,-547 633.021,-570.478 691.466,-576.719 731.99,-577.876"/>
<polygon fill="midnightblue" stroke="midnightblue" points="536.547,-488.551 527.135,-483.686 531.459,-493.358 536.547,-488.551"/>
</g>
<!-- Node10 -->
<g id="node10" class="node"><title>Node10</title>
<g id="a_node10"><a xlink:href="class_urho3_d_1_1_event_handler.html" target="_top" xlink:title="Internal helper class for invoking event handler functions. ">
<polygon fill="none" stroke="red" points="723,-486.5 723,-505.5 839,-505.5 839,-486.5 723,-486.5"/>
<text text-anchor="middle" x="781" y="-493.5" font-family="Helvetica,sans-Serif" font-size="10.00">Urho3D::EventHandler</text>
</a>
</g>
</g>
<!-- Node3&#45;&gt;Node10 -->
<g id="edge11" class="edge"><title>Node3&#45;&gt;Node10</title>
<path fill="none" stroke="#9a32cd" stroke-dasharray="5,2" d="M569.721,-478.343C613.774,-482.042 676.998,-487.351 722.603,-491.18"/>
<polygon fill="#9a32cd" stroke="#9a32cd" points="569.773,-474.835 559.515,-477.486 569.187,-481.811 569.773,-474.835"/>
<text text-anchor="middle" x="617" y="-499" font-family="Helvetica,sans-Serif" font-size="10.00"> sender_</text>
<text text-anchor="middle" x="617" y="-488" font-family="Helvetica,sans-Serif" font-size="10.00">receiver_</text>
</g>
<!-- Node4 -->
<g id="node4" class="node"><title>Node4</title>
<g id="a_node4"><a xlink:href="class_urho3_d_1_1_ref_counted.html" target="_top" xlink:title="Base class for intrusively reference&#45;counted objects. These are noncopyable and non&#45;assignable. ">
<polygon fill="none" stroke="black" points="180.5,-464.5 180.5,-483.5 289.5,-483.5 289.5,-464.5 180.5,-464.5"/>
<text text-anchor="middle" x="235" y="-471.5" font-family="Helvetica,sans-Serif" font-size="10.00">Urho3D::RefCounted</text>
</a>
</g>
</g>
<!-- Node4&#45;&gt;Node3 -->
<g id="edge3" class="edge"><title>Node4&#45;&gt;Node3</title>
<path fill="none" stroke="midnightblue" d="M299.727,-474C353.269,-474 428.234,-474 474.376,-474"/>
<polygon fill="midnightblue" stroke="midnightblue" points="299.656,-470.5 289.656,-474 299.655,-477.5 299.656,-470.5"/>
</g>
<!-- Node6 -->
<g id="node6" class="node"><title>Node6</title>
<g id="a_node6"><a xlink:href="class_urho3_d_1_1_context.html" target="_top" xlink:title="Urho3D execution context. Provides access to subsystems, object factories and attributes, and event receivers. ">
<polygon fill="none" stroke="red" points="1067.5,-223.5 1067.5,-242.5 1158.5,-242.5 1158.5,-223.5 1067.5,-223.5"/>
<text text-anchor="middle" x="1113" y="-230.5" font-family="Helvetica,sans-Serif" font-size="10.00">Urho3D::Context</text>
</a>
</g>
</g>
<!-- Node4&#45;&gt;Node6 -->
<g id="edge6" class="edge"><title>Node4&#45;&gt;Node6</title>
<path fill="none" stroke="midnightblue" d="M299.942,-464.441C419.025,-445.874 682.266,-401.225 898,-339 957.327,-321.888 973.184,-318.421 1028,-290 1055.07,-275.966 1083.91,-254.869 1099.77,-242.664"/>
<polygon fill="midnightblue" stroke="midnightblue" points="299.247,-461.007 289.902,-465.998 300.32,-467.924 299.247,-461.007"/>
</g>
<!-- Node5 -->
<g id="node5" class="node"><title>Node5</title>
<g id="a_node5"><a xlink:href="struct_urho3_d_1_1_ref_count.html" target="_top" xlink:title="Reference count structure. ">
<polygon fill="none" stroke="black" points="0,-548.5 0,-567.5 98,-567.5 98,-548.5 0,-548.5"/>
<text text-anchor="middle" x="49" y="-555.5" font-family="Helvetica,sans-Serif" font-size="10.00">Urho3D::RefCount</text>
</a>
</g>
</g>
<!-- Node5&#45;&gt;Node4 -->
<g id="edge4" class="edge"><title>Node5&#45;&gt;Node4</title>
<path fill="none" stroke="#9a32cd" stroke-dasharray="5,2" d="M80.5233,-544.065C118.042,-526.937 180.71,-498.328 213.139,-483.523"/>
<polygon fill="#9a32cd" stroke="#9a32cd" points="78.7505,-541.027 71.1071,-548.364 81.6576,-547.395 78.7505,-541.027"/>
<text text-anchor="middle" x="139" y="-529" font-family="Helvetica,sans-Serif" font-size="10.00"> refCount_</text>
</g>
<!-- Node22 -->
<g id="node22" class="node"><title>Node22</title>
<g id="a_node22"><a xlink:href="class_urho3_d_1_1_weak_ptr.html" target="_top" xlink:title="Urho3D::WeakPtr\&lt; Urho3D\l::SpriteSheet2D \&gt;">
<polygon fill="none" stroke="red" points="308.5,-753 308.5,-783 445.5,-783 445.5,-753 308.5,-753"/>
<text text-anchor="start" x="316.5" y="-771" font-family="Helvetica,sans-Serif" font-size="10.00">Urho3D::WeakPtr&lt; Urho3D</text>
<text text-anchor="middle" x="377" y="-760" font-family="Helvetica,sans-Serif" font-size="10.00">::SpriteSheet2D &gt;</text>
</a>
</g>
</g>
<!-- Node5&#45;&gt;Node22 -->
<g id="edge32" class="edge"><title>Node5&#45;&gt;Node22</title>
<path fill="none" stroke="#9a32cd" stroke-dasharray="5,2" d="M73.2629,-572.985C133.115,-611.54 291.957,-713.862 352.294,-752.729"/>
<polygon fill="#9a32cd" stroke="#9a32cd" points="75.1568,-570.042 64.8547,-567.569 71.366,-575.927 75.1568,-570.042"/>
<text text-anchor="middle" x="139" y="-631" font-family="Helvetica,sans-Serif" font-size="10.00"> refCount_</text>
</g>
<!-- Node6&#45;&gt;Node3 -->
<g id="edge5" class="edge"><title>Node6&#45;&gt;Node3</title>
<path fill="none" stroke="#9a32cd" stroke-dasharray="5,2" d="M1106.13,-252.288C1095.7,-283.046 1070.93,-342.806 1028,-373 1008.62,-386.63 677.85,-445.863 559.605,-466.709"/>
<polygon fill="#9a32cd" stroke="#9a32cd" points="1109.48,-253.306 1109.22,-242.714 1102.81,-251.153 1109.48,-253.306"/>
<text text-anchor="middle" x="781" y="-451" font-family="Helvetica,sans-Serif" font-size="10.00"> context_</text>
</g>
<!-- Node7 -->
<g id="node7" class="node"><title>Node7</title>
<g id="a_node7"><a xlink:href="class_urho3_d_1_1_hash_map.html" target="_top" xlink:title="Urho3D::HashMap\&lt; Urho3D\l::Object *, Urho3D::HashMap\l\&lt; Urho3D::StringHash, Urho3D\l::SharedPtr\&lt; Urho3D::EventReceiverGroup \&gt; \&gt; \&gt;">
<polygon fill="none" stroke="red" points="664.5,-278 664.5,-330 897.5,-330 897.5,-278 664.5,-278"/>
<text text-anchor="start" x="672.5" y="-318" font-family="Helvetica,sans-Serif" font-size="10.00">Urho3D::HashMap&lt; Urho3D</text>
<text text-anchor="start" x="672.5" y="-307" font-family="Helvetica,sans-Serif" font-size="10.00">::Object *, Urho3D::HashMap</text>
<text text-anchor="start" x="672.5" y="-296" font-family="Helvetica,sans-Serif" font-size="10.00">&lt; Urho3D::StringHash, Urho3D</text>
<text text-anchor="middle" x="781" y="-285" font-family="Helvetica,sans-Serif" font-size="10.00">::SharedPtr&lt; Urho3D::EventReceiverGroup &gt; &gt; &gt;</text>
</a>
</g>
</g>
<!-- Node7&#45;&gt;Node6 -->
<g id="edge7" class="edge"><title>Node7&#45;&gt;Node6</title>
<path fill="none" stroke="#9a32cd" stroke-dasharray="5,2" d="M907.935,-276.905C964.17,-264.806 1026.83,-251.325 1067.69,-242.533"/>
<polygon fill="#9a32cd" stroke="#9a32cd" points="906.922,-273.543 897.882,-279.068 908.394,-280.386 906.922,-273.543"/>
<text text-anchor="middle" x="972" y="-278" font-family="Helvetica,sans-Serif" font-size="10.00"> specificEventReceivers_</text>
</g>
<!-- Node8 -->
<g id="node8" class="node"><title>Node8</title>
<g id="a_node8"><a xlink:href="class_urho3_d_1_1_hash_map.html" target="_top" xlink:title="Urho3D::HashMap\&lt; Urho3D\l::StringHash, Urho3D::\lSharedPtr\&lt; Urho3D::EventReceiver\lGroup \&gt; \&gt;">
<polygon fill="none" stroke="red" points="694.5,-207 694.5,-259 867.5,-259 867.5,-207 694.5,-207"/>
<text text-anchor="start" x="702.5" y="-247" font-family="Helvetica,sans-Serif" font-size="10.00">Urho3D::HashMap&lt; Urho3D</text>
<text text-anchor="start" x="702.5" y="-236" font-family="Helvetica,sans-Serif" font-size="10.00">::StringHash, Urho3D::</text>
<text text-anchor="start" x="702.5" y="-225" font-family="Helvetica,sans-Serif" font-size="10.00">SharedPtr&lt; Urho3D::EventReceiver</text>
<text text-anchor="middle" x="781" y="-214" font-family="Helvetica,sans-Serif" font-size="10.00">Group &gt; &gt;</text>
</a>
</g>
</g>
<!-- Node8&#45;&gt;Node6 -->
<g id="edge8" class="edge"><title>Node8&#45;&gt;Node6</title>
<path fill="none" stroke="#9a32cd" stroke-dasharray="5,2" d="M878.098,-233C940.442,-233 1018.78,-233 1067.12,-233"/>
<polygon fill="#9a32cd" stroke="#9a32cd" points="877.842,-229.5 867.842,-233 877.842,-236.5 877.842,-229.5"/>
<text text-anchor="middle" x="972" y="-236" font-family="Helvetica,sans-Serif" font-size="10.00"> eventReceivers_</text>
</g>
<!-- Node9 -->
<g id="node9" class="node"><title>Node9</title>
<g id="a_node9"><a xlink:href="class_urho3_d_1_1_p_o_d_vector.html" target="_top" xlink:title="Urho3D::PODVector\&lt;\l Urho3D::Object * \&gt;">
<polygon fill="none" stroke="red" points="724.5,-158 724.5,-188 837.5,-188 837.5,-158 724.5,-158"/>
<text text-anchor="start" x="732.5" y="-176" font-family="Helvetica,sans-Serif" font-size="10.00">Urho3D::PODVector&lt;</text>
<text text-anchor="middle" x="781" y="-165" font-family="Helvetica,sans-Serif" font-size="10.00"> Urho3D::Object * &gt;</text>
</a>
</g>
</g>
<!-- Node9&#45;&gt;Node6 -->
<g id="edge9" class="edge"><title>Node9&#45;&gt;Node6</title>
<path fill="none" stroke="#9a32cd" stroke-dasharray="5,2" d="M847.761,-184.957C912.856,-196.792 1010.74,-214.589 1067.3,-224.873"/>
<polygon fill="#9a32cd" stroke="#9a32cd" points="848.072,-181.456 837.607,-183.11 846.819,-188.343 848.072,-181.456"/>
<text text-anchor="middle" x="972" y="-220" font-family="Helvetica,sans-Serif" font-size="10.00"> eventSenders_</text>
</g>
<!-- Node10&#45;&gt;Node6 -->
<g id="edge10" class="edge"><title>Node10&#45;&gt;Node6</title>
<path fill="none" stroke="#9a32cd" stroke-dasharray="5,2" d="M849.037,-484.994C865.268,-481.548 882.423,-477.24 898,-472 928.336,-461.795 1005.39,-432.653 1028,-410 1078.7,-359.203 1102.89,-271.899 1109.83,-242.776"/>
<polygon fill="#9a32cd" stroke="#9a32cd" points="848.17,-481.598 839.073,-487.029 849.571,-488.457 848.17,-481.598"/>
<text text-anchor="middle" x="972" y="-468" font-family="Helvetica,sans-Serif" font-size="10.00"> eventHandler_</text>
</g>
<!-- Node15 -->
<g id="node15" class="node"><title>Node15</title>
<g id="a_node15"><a xlink:href="class_urho3_d_1_1_linked_list.html" target="_top" xlink:title="Urho3D::LinkedList\l\&lt; Urho3D::EventHandler \&gt;">
<polygon fill="none" stroke="black" points="1046,-460 1046,-490 1180,-490 1180,-460 1046,-460"/>
<text text-anchor="start" x="1054" y="-478" font-family="Helvetica,sans-Serif" font-size="10.00">Urho3D::LinkedList</text>
<text text-anchor="middle" x="1113" y="-467" font-family="Helvetica,sans-Serif" font-size="10.00">&lt; Urho3D::EventHandler &gt;</text>
</a>
</g>
</g>
<!-- Node10&#45;&gt;Node15 -->
<g id="edge18" class="edge"><title>Node10&#45;&gt;Node15</title>
<path fill="none" stroke="#9a32cd" stroke-dasharray="5,2" d="M849.174,-491.725C906.623,-488.069 988.836,-482.838 1045.96,-479.203"/>
<polygon fill="#9a32cd" stroke="#9a32cd" points="848.862,-488.238 839.105,-492.366 849.307,-495.224 848.862,-488.238"/>
<text text-anchor="middle" x="972" y="-491" font-family="Helvetica,sans-Serif" font-size="10.00"> head_</text>
</g>
<!-- Node11 -->
<g id="node11" class="node"><title>Node11</title>
<g id="a_node11"><a xlink:href="class_urho3_d_1_1_string_hash.html" target="_top" xlink:title="32&#45;bit hash value for a string. ">
<polygon fill="none" stroke="black" points="464.5,-538.5 464.5,-557.5 569.5,-557.5 569.5,-538.5 464.5,-538.5"/>
<text text-anchor="middle" x="517" y="-545.5" font-family="Helvetica,sans-Serif" font-size="10.00">Urho3D::StringHash</text>
</a>
</g>
</g>
<!-- Node11&#45;&gt;Node2 -->
<g id="edge22" class="edge"><title>Node11&#45;&gt;Node2</title>
<path fill="none" stroke="#9a32cd" stroke-dasharray="5,2" d="M549.669,-561.14C561.489,-565.433 575.159,-569.688 588,-572 636.405,-580.717 692.77,-581.048 731.853,-579.764"/>
<polygon fill="#9a32cd" stroke="#9a32cd" points="550.826,-557.836 540.234,-557.568 548.347,-564.382 550.826,-557.836"/>
<text text-anchor="middle" x="617" y="-582" font-family="Helvetica,sans-Serif" font-size="10.00"> nameHash_</text>
</g>
<!-- Node11&#45;&gt;Node10 -->
<g id="edge12" class="edge"><title>Node11&#45;&gt;Node10</title>
<path fill="none" stroke="#9a32cd" stroke-dasharray="5,2" d="M576.045,-536.48C622.836,-527.193 687.859,-514.288 731.807,-505.565"/>
<polygon fill="#9a32cd" stroke="#9a32cd" points="575.182,-533.083 566.055,-538.462 576.545,-539.949 575.182,-533.083"/>
<text text-anchor="middle" x="617" y="-538" font-family="Helvetica,sans-Serif" font-size="10.00"> eventType_</text>
</g>
<!-- Node11&#45;&gt;Node11 -->
<g id="edge13" class="edge"><title>Node11&#45;&gt;Node11</title>
<path fill="none" stroke="#9a32cd" stroke-dasharray="5,2" d="M498.482,-567.4C499.719,-572.315 505.892,-576 517,-576 534.773,-576 539.911,-566.565 532.413,-557.757"/>
<polygon fill="#9a32cd" stroke="#9a32cd" points="501.854,-568.349 501.587,-557.757 495.191,-566.203 501.854,-568.349"/>
<text text-anchor="middle" x="517" y="-579" font-family="Helvetica,sans-Serif" font-size="10.00"> ZERO</text>
</g>
<!-- Node12 -->
<g id="node12" class="node"><title>Node12</title>
<g id="a_node12"><a xlink:href="class_urho3_d_1_1_hash_map.html" target="_top" xlink:title="Urho3D::HashMap\&lt; StringHash,\l Variant \&gt;">
<polygon fill="none" stroke="red" points="701.5,-60 701.5,-90 860.5,-90 860.5,-60 701.5,-60"/>
<text text-anchor="start" x="709.5" y="-78" font-family="Helvetica,sans-Serif" font-size="10.00">Urho3D::HashMap&lt; StringHash,</text>
<text text-anchor="middle" x="781" y="-67" font-family="Helvetica,sans-Serif" font-size="10.00"> Variant &gt;</text>
</a>
</g>
</g>
<!-- Node12&#45;&gt;Node6 -->
<g id="edge14" class="edge"><title>Node12&#45;&gt;Node6</title>
<path fill="none" stroke="#9a32cd" stroke-dasharray="5,2" d="M870.564,-81.6479C919.992,-88.7042 980.903,-103.211 1028,-133 1065.75,-156.876 1095.14,-203.223 1106.69,-223.318"/>
<polygon fill="#9a32cd" stroke="#9a32cd" points="870.898,-78.1613 860.52,-80.293 869.962,-85.0985 870.898,-78.1613"/>
<text text-anchor="middle" x="972" y="-136" font-family="Helvetica,sans-Serif" font-size="10.00"> globalVars_</text>
</g>
<!-- Node13 -->
<g id="node13" class="node"><title>Node13</title>
<g id="a_node13"><a xlink:href="class_urho3_d_1_1_hash_map.html" target="_top" xlink:title="Urho3D::HashMap\&lt; Urho3D\l::StringHash, Urho3D::\lSharedPtr\&lt; Urho3D::Object \&gt; \&gt;">
<polygon fill="none" stroke="red" points="703.5,-0.5 703.5,-41.5 858.5,-41.5 858.5,-0.5 703.5,-0.5"/>
<text text-anchor="start" x="711.5" y="-29.5" font-family="Helvetica,sans-Serif" font-size="10.00">Urho3D::HashMap&lt; Urho3D</text>
<text text-anchor="start" x="711.5" y="-18.5" font-family="Helvetica,sans-Serif" font-size="10.00">::StringHash, Urho3D::</text>
<text text-anchor="middle" x="781" y="-7.5" font-family="Helvetica,sans-Serif" font-size="10.00">SharedPtr&lt; Urho3D::Object &gt; &gt;</text>
</a>
</g>
</g>
<!-- Node13&#45;&gt;Node6 -->
<g id="edge15" class="edge"><title>Node13&#45;&gt;Node6</title>
<path fill="none" stroke="#9a32cd" stroke-dasharray="5,2" d="M868.556,-22.7784C919.443,-27.8221 982.51,-41.437 1028,-76 1079.69,-115.274 1103.1,-195.761 1109.85,-223.418"/>
<polygon fill="#9a32cd" stroke="#9a32cd" points="868.823,-19.2884 858.55,-21.8803 868.197,-26.2604 868.823,-19.2884"/>
<text text-anchor="middle" x="972" y="-79" font-family="Helvetica,sans-Serif" font-size="10.00"> subsystems_</text>
</g>
<!-- Node14 -->
<g id="node14" class="node"><title>Node14</title>
<g id="a_node14"><a xlink:href="class_urho3_d_1_1_p_o_d_vector.html" target="_top" xlink:title="Urho3D::PODVector\&lt;\l Urho3D::HashMap * \&gt;">
<polygon fill="none" stroke="red" points="722.5,-109 722.5,-139 839.5,-139 839.5,-109 722.5,-109"/>
<text text-anchor="start" x="730.5" y="-127" font-family="Helvetica,sans-Serif" font-size="10.00">Urho3D::PODVector&lt;</text>
<text text-anchor="middle" x="781" y="-116" font-family="Helvetica,sans-Serif" font-size="10.00"> Urho3D::HashMap * &gt;</text>
</a>
</g>
</g>
<!-- Node14&#45;&gt;Node6 -->
<g id="edge16" class="edge"><title>Node14&#45;&gt;Node6</title>
<path fill="none" stroke="#9a32cd" stroke-dasharray="5,2" d="M849.765,-134.062C900.265,-143.022 970.19,-158.562 1028,-183 1054.42,-194.168 1082.56,-212.381 1098.64,-223.47"/>
<polygon fill="#9a32cd" stroke="#9a32cd" points="850.066,-130.562 839.615,-132.303 848.87,-137.459 850.066,-130.562"/>
<text text-anchor="middle" x="972" y="-186" font-family="Helvetica,sans-Serif" font-size="10.00"> eventDataMaps_</text>
</g>
<!-- Node15&#45;&gt;Node3 -->
<g id="edge17" class="edge"><title>Node15&#45;&gt;Node3</title>
<path fill="none" stroke="#9a32cd" stroke-dasharray="5,2" d="M1035.83,-471.018C994.975,-469.079 943.754,-466.962 898,-466 794.023,-463.815 767.961,-463.154 664,-466 628.728,-466.966 588.716,-469.241 559.51,-471.119"/>
<polygon fill="#9a32cd" stroke="#9a32cd" points="1035.83,-474.522 1045.99,-471.506 1036.17,-467.53 1035.83,-474.522"/>
<text text-anchor="middle" x="781" y="-469" font-family="Helvetica,sans-Serif" font-size="10.00"> eventHandlers_</text>
</g>
<!-- Node16 -->
<g id="node16" class="node"><title>Node16</title>
<g id="a_node16"><a xlink:href="class_urho3_d_1_1_timer.html" target="_top" xlink:title="Low&#45;resolution operating system timer. ">
<polygon fill="none" stroke="black" points="476.5,-618.5 476.5,-637.5 557.5,-637.5 557.5,-618.5 476.5,-618.5"/>
<text text-anchor="middle" x="517" y="-625.5" font-family="Helvetica,sans-Serif" font-size="10.00">Urho3D::Timer</text>
</a>
</g>
</g>
<!-- Node16&#45;&gt;Node2 -->
<g id="edge19" class="edge"><title>Node16&#45;&gt;Node2</title>
<path fill="none" stroke="#9a32cd" stroke-dasharray="5,2" d="M567.554,-616.45C595.75,-610.051 631.767,-602.167 664,-596 686.248,-591.743 711.012,-587.605 731.926,-584.284"/>
<polygon fill="#9a32cd" stroke="#9a32cd" points="566.512,-613.098 557.541,-618.734 568.069,-619.922 566.512,-613.098"/>
<text text-anchor="middle" x="617" y="-615" font-family="Helvetica,sans-Serif" font-size="10.00"> useTimer_</text>
</g>
<!-- Node17 -->
<g id="node17" class="node"><title>Node17</title>
<g id="a_node17"><a xlink:href="class_urho3_d_1_1_string.html" target="_top" xlink:title="String class. ">
<polygon fill="none" stroke="black" points="476,-943.5 476,-962.5 558,-962.5 558,-943.5 476,-943.5"/>
<text text-anchor="middle" x="517" y="-950.5" font-family="Helvetica,sans-Serif" font-size="10.00">Urho3D::String</text>
</a>
</g>
</g>
<!-- Node17&#45;&gt;Node1 -->
<g id="edge36" class="edge"><title>Node17&#45;&gt;Node1</title>
<path fill="none" stroke="#9a32cd" stroke-dasharray="5,2" d="M551.645,-966.049C600.955,-983.968 696.11,-1014 780,-1014 780,-1014 780,-1014 1387,-1014 1515.32,-1014 1607.08,-845.551 1628.32,-802.781"/>
<polygon fill="#9a32cd" stroke="#9a32cd" points="552.718,-962.714 542.125,-962.531 550.292,-969.28 552.718,-962.714"/>
<text text-anchor="middle" x="1113" y="-1017" font-family="Helvetica,sans-Serif" font-size="10.00"> loadSpriteName_</text>
</g>
<!-- Node17&#45;&gt;Node2 -->
<g id="edge20" class="edge"><title>Node17&#45;&gt;Node2</title>
<path fill="none" stroke="#9a32cd" stroke-dasharray="5,2" d="M525.277,-933.743C552.792,-861.13 649.644,-607.431 664,-596 682.918,-580.936 709.177,-575.747 731.927,-574.519"/>
<polygon fill="#9a32cd" stroke="#9a32cd" points="521.874,-932.845 521.608,-943.437 528.421,-935.323 521.874,-932.845"/>
<text text-anchor="middle" x="617" y="-772" font-family="Helvetica,sans-Serif" font-size="10.00"> name_</text>
</g>
<!-- Node17&#45;&gt;Node17 -->
<g id="edge21" class="edge"><title>Node17&#45;&gt;Node17</title>
<path fill="none" stroke="#9a32cd" stroke-dasharray="5,2" d="M498.482,-972.4C499.719,-977.315 505.892,-981 517,-981 534.773,-981 539.911,-971.565 532.413,-962.757"/>
<polygon fill="#9a32cd" stroke="#9a32cd" points="501.854,-973.349 501.587,-962.757 495.191,-971.203 501.854,-973.349"/>
<text text-anchor="middle" x="517" y="-984" font-family="Helvetica,sans-Serif" font-size="10.00"> EMPTY</text>
</g>
<!-- Node18 -->
<g id="node18" class="node"><title>Node18</title>
<g id="a_node18"><a xlink:href="class_urho3_d_1_1_vector2.html" target="_top" xlink:title="Two&#45;dimensional vector. ">
<polygon fill="none" stroke="black" points="736,-882.5 736,-901.5 826,-901.5 826,-882.5 736,-882.5"/>
<text text-anchor="middle" x="781" y="-889.5" font-family="Helvetica,sans-Serif" font-size="10.00">Urho3D::Vector2</text>
</a>
</g>
</g>
<!-- Node18&#45;&gt;Node1 -->
<g id="edge23" class="edge"><title>Node18&#45;&gt;Node1</title>
<path fill="none" stroke="#9a32cd" stroke-dasharray="5,2" d="M836.323,-897.101C886.238,-900.945 962.229,-904.669 1028,-899 1243.14,-880.458 1496.47,-824.925 1592.96,-802.524"/>
<polygon fill="#9a32cd" stroke="#9a32cd" points="836.328,-893.59 826.081,-896.282 835.77,-900.568 836.328,-893.59"/>
<text text-anchor="middle" x="1253" y="-893" font-family="Helvetica,sans-Serif" font-size="10.00"> gravity_</text>
<text text-anchor="middle" x="1253" y="-882" font-family="Helvetica,sans-Serif" font-size="10.00">sourcePositionVariance_</text>
</g>
<!-- Node18&#45;&gt;Node18 -->
<g id="edge24" class="edge"><title>Node18&#45;&gt;Node18</title>
<path fill="none" stroke="#9a32cd" stroke-dasharray="5,2" d="M750.311,-910.275C751.186,-915.741 761.416,-920 781,-920 810.148,-920 818.574,-910.565 806.277,-901.757"/>
<polygon fill="#9a32cd" stroke="#9a32cd" points="753.314,-912.075 755.723,-901.757 747.406,-908.321 753.314,-912.075"/>
<text text-anchor="middle" x="781" y="-978" font-family="Helvetica,sans-Serif" font-size="10.00"> ONE</text>
<text text-anchor="middle" x="781" y="-967" font-family="Helvetica,sans-Serif" font-size="10.00">DOWN</text>
<text text-anchor="middle" x="781" y="-956" font-family="Helvetica,sans-Serif" font-size="10.00">RIGHT</text>
<text text-anchor="middle" x="781" y="-945" font-family="Helvetica,sans-Serif" font-size="10.00">LEFT</text>
<text text-anchor="middle" x="781" y="-934" font-family="Helvetica,sans-Serif" font-size="10.00">ZERO</text>
<text text-anchor="middle" x="781" y="-923" font-family="Helvetica,sans-Serif" font-size="10.00">UP</text>
</g>
<!-- Node18&#45;&gt;Node20 -->
<g id="edge30" class="edge"><title>Node18&#45;&gt;Node20</title>
<path fill="none" stroke="#9a32cd" stroke-dasharray="5,2" d="M836.41,-889.765C898.179,-886.578 994.694,-879.435 1028,-865 1061.13,-850.64 1090.9,-818.541 1104.38,-802.502"/>
<polygon fill="#9a32cd" stroke="#9a32cd" points="835.871,-886.288 826.057,-890.28 836.218,-893.279 835.871,-886.288"/>
<text text-anchor="middle" x="972" y="-887" font-family="Helvetica,sans-Serif" font-size="10.00"> hotSpot_</text>
</g>
<!-- Node19 -->
<g id="node19" class="node"><title>Node19</title>
<g id="a_node19"><a xlink:href="class_urho3_d_1_1_shared_ptr.html" target="_top" xlink:title="Urho3D::SharedPtr\&lt;\l Urho3D::Sprite2D \&gt;">
<polygon fill="none" stroke="black" points="1332.5,-778 1332.5,-808 1439.5,-808 1439.5,-778 1332.5,-778"/>
<text text-anchor="start" x="1340.5" y="-796" font-family="Helvetica,sans-Serif" font-size="10.00">Urho3D::SharedPtr&lt;</text>
<text text-anchor="middle" x="1386" y="-785" font-family="Helvetica,sans-Serif" font-size="10.00"> Urho3D::Sprite2D &gt;</text>
</a>
</g>
</g>
<!-- Node19&#45;&gt;Node1 -->
<g id="edge25" class="edge"><title>Node19&#45;&gt;Node1</title>
<path fill="none" stroke="#9a32cd" stroke-dasharray="5,2" d="M1449.88,-793C1486.68,-793 1533.01,-793 1569.85,-793"/>
<polygon fill="#9a32cd" stroke="#9a32cd" points="1449.77,-789.5 1439.77,-793 1449.77,-796.5 1449.77,-789.5"/>
<text text-anchor="middle" x="1508" y="-796" font-family="Helvetica,sans-Serif" font-size="10.00"> sprite_</text>
</g>
<!-- Node20&#45;&gt;Node19 -->
<g id="edge26" class="edge"><title>Node20&#45;&gt;Node19</title>
<path fill="none" stroke="#9a32cd" stroke-dasharray="5,2" d="M1170.72,-793C1218.26,-793 1285.62,-793 1332.07,-793"/>
<polygon fill="#9a32cd" stroke="#9a32cd" points="1170.59,-789.5 1160.59,-793 1170.59,-796.5 1170.59,-789.5"/>
<text text-anchor="middle" x="1253" y="-796" font-family="Helvetica,sans-Serif" font-size="10.00"> ptr_</text>
</g>
<!-- Node21 -->
<g id="node21" class="node"><title>Node21</title>
<g id="a_node21"><a xlink:href="class_urho3_d_1_1_int_rect.html" target="_top" xlink:title="Two&#45;dimensional bounding rectangle with integer values. ">
<polygon fill="none" stroke="black" points="736.5,-727.5 736.5,-746.5 825.5,-746.5 825.5,-727.5 736.5,-727.5"/>
<text text-anchor="middle" x="781" y="-734.5" font-family="Helvetica,sans-Serif" font-size="10.00">Urho3D::IntRect</text>
</a>
</g>
</g>
<!-- Node21&#45;&gt;Node20 -->
<g id="edge28" class="edge"><title>Node21&#45;&gt;Node20</title>
<path fill="none" stroke="#9a32cd" stroke-dasharray="5,2" d="M835.687,-746.11C899.462,-756.933 1004.81,-774.81 1065.33,-785.081"/>
<polygon fill="#9a32cd" stroke="#9a32cd" points="836.266,-742.659 825.821,-744.436 835.095,-749.56 836.266,-742.659"/>
<text text-anchor="middle" x="972" y="-781" font-family="Helvetica,sans-Serif" font-size="10.00"> rectangle_</text>
</g>
<!-- Node21&#45;&gt;Node21 -->
<g id="edge29" class="edge"><title>Node21&#45;&gt;Node21</title>
<path fill="none" stroke="#9a32cd" stroke-dasharray="5,2" d="M750.311,-755.275C751.186,-760.741 761.416,-765 781,-765 810.148,-765 818.574,-755.565 806.277,-746.757"/>
<polygon fill="#9a32cd" stroke="#9a32cd" points="753.314,-757.075 755.723,-746.757 747.406,-753.321 753.314,-757.075"/>
<text text-anchor="middle" x="781" y="-768" font-family="Helvetica,sans-Serif" font-size="10.00"> ZERO</text>
</g>
<!-- Node22&#45;&gt;Node20 -->
<g id="edge31" class="edge"><title>Node22&#45;&gt;Node20</title>
<path fill="none" stroke="#9a32cd" stroke-dasharray="5,2" d="M437.138,-785.793C494.501,-802.06 584.31,-824.924 664,-834 767.332,-845.768 794.012,-835.599 898,-834 955.798,-833.111 971.624,-842.775 1028,-830 1052.56,-824.436 1078.8,-811.646 1095.29,-802.669"/>
<polygon fill="#9a32cd" stroke="#9a32cd" points="438.094,-782.426 427.517,-783.04 436.168,-789.156 438.094,-782.426"/>
<text text-anchor="middle" x="617" y="-835" font-family="Helvetica,sans-Serif" font-size="10.00"> spriteSheet_</text>
</g>
<!-- Node23 -->
<g id="node23" class="node"><title>Node23</title>
<g id="a_node23"><a xlink:href="class_urho3_d_1_1_int_vector2.html" target="_top" xlink:title="Two&#45;dimensional vector with integer values. ">
<polygon fill="none" stroke="black" points="730.5,-605.5 730.5,-624.5 831.5,-624.5 831.5,-605.5 730.5,-605.5"/>
<text text-anchor="middle" x="781" y="-612.5" font-family="Helvetica,sans-Serif" font-size="10.00">Urho3D::IntVector2</text>
</a>
</g>
</g>
<!-- Node23&#45;&gt;Node20 -->
<g id="edge33" class="edge"><title>Node23&#45;&gt;Node20</title>
<path fill="none" stroke="#9a32cd" stroke-dasharray="5,2" d="M798.182,-631.723C821.831,-655.148 868.24,-697.391 916,-720 962.098,-741.822 980.437,-726.586 1028,-745 1054.31,-755.188 1082.27,-772.676 1098.37,-783.495"/>
<polygon fill="#9a32cd" stroke="#9a32cd" points="800.595,-629.185 791.065,-624.556 795.628,-634.118 800.595,-629.185"/>
<text text-anchor="middle" x="972" y="-748" font-family="Helvetica,sans-Serif" font-size="10.00"> offset_</text>
</g>
<!-- Node23&#45;&gt;Node23 -->
<g id="edge34" class="edge"><title>Node23&#45;&gt;Node23</title>
<path fill="none" stroke="#9a32cd" stroke-dasharray="5,2" d="M750.311,-633.275C751.186,-638.741 761.416,-643 781,-643 810.148,-643 818.574,-633.565 806.277,-624.757"/>
<polygon fill="#9a32cd" stroke="#9a32cd" points="753.314,-635.075 755.723,-624.757 747.406,-631.321 753.314,-635.075"/>
<text text-anchor="middle" x="781" y="-701" font-family="Helvetica,sans-Serif" font-size="10.00"> ONE</text>
<text text-anchor="middle" x="781" y="-690" font-family="Helvetica,sans-Serif" font-size="10.00">DOWN</text>
<text text-anchor="middle" x="781" y="-679" font-family="Helvetica,sans-Serif" font-size="10.00">RIGHT</text>
<text text-anchor="middle" x="781" y="-668" font-family="Helvetica,sans-Serif" font-size="10.00">LEFT</text>
<text text-anchor="middle" x="781" y="-657" font-family="Helvetica,sans-Serif" font-size="10.00">ZERO</text>
<text text-anchor="middle" x="781" y="-646" font-family="Helvetica,sans-Serif" font-size="10.00">UP</text>
</g>
<!-- Node24 -->
<g id="node24" class="node"><title>Node24</title>
<g id="a_node24"><a xlink:href="class_urho3_d_1_1_shared_ptr.html" target="_top" xlink:title="Urho3D::SharedPtr\&lt;\l Urho3D::Texture2D \&gt;">
<polygon fill="none" stroke="red" points="724,-795 724,-825 838,-825 838,-795 724,-795"/>
<text text-anchor="start" x="732" y="-813" font-family="Helvetica,sans-Serif" font-size="10.00">Urho3D::SharedPtr&lt;</text>
<text text-anchor="middle" x="781" y="-802" font-family="Helvetica,sans-Serif" font-size="10.00"> Urho3D::Texture2D &gt;</text>
</a>
</g>
</g>
<!-- Node24&#45;&gt;Node20 -->
<g id="edge35" class="edge"><title>Node24&#45;&gt;Node20</title>
<path fill="none" stroke="#9a32cd" stroke-dasharray="5,2" d="M848.407,-806.579C912.804,-803.262 1008.84,-798.314 1065.48,-795.397"/>
<polygon fill="#9a32cd" stroke="#9a32cd" points="848.161,-803.087 838.354,-807.097 848.521,-810.078 848.161,-803.087"/>
<text text-anchor="middle" x="972" y="-818" font-family="Helvetica,sans-Serif" font-size="10.00"> loadTexture_</text>
<text text-anchor="middle" x="972" y="-807" font-family="Helvetica,sans-Serif" font-size="10.00">texture_</text>
</g>
<!-- Node25 -->
<g id="node25" class="node"><title>Node25</title>
<g id="a_node25"><a xlink:href="class_urho3_d_1_1_color.html" target="_top" xlink:title="RGBA color. ">
<polygon fill="none" stroke="black" points="1346,-497.5 1346,-516.5 1426,-516.5 1426,-497.5 1346,-497.5"/>
<text text-anchor="middle" x="1386" y="-504.5" font-family="Helvetica,sans-Serif" font-size="10.00">Urho3D::Color</text>
</a>
</g>
</g>
<!-- Node25&#45;&gt;Node1 -->
<g id="edge37" class="edge"><title>Node25&#45;&gt;Node1</title>
<path fill="none" stroke="#9a32cd" stroke-dasharray="5,2" d="M1423,-520.285C1459.78,-535.483 1516.41,-563.599 1552,-604 1602.02,-660.792 1624.74,-753.137 1631.08,-783.203"/>
<polygon fill="#9a32cd" stroke="#9a32cd" points="1424.22,-517.006 1413.64,-516.521 1421.61,-523.5 1424.22,-517.006"/>
<text text-anchor="start" x="1464" y="-662" font-family="Helvetica,sans-Serif" font-size="10.00"> finishColorVariance</text>
<text text-anchor="middle" x="1508" y="-651" font-family="Helvetica,sans-Serif" font-size="10.00">_</text>
<text text-anchor="middle" x="1508" y="-640" font-family="Helvetica,sans-Serif" font-size="10.00">finishColor_</text>
<text text-anchor="start" x="1464" y="-629" font-family="Helvetica,sans-Serif" font-size="10.00">startColorVariance</text>
<text text-anchor="middle" x="1508" y="-618" font-family="Helvetica,sans-Serif" font-size="10.00">_</text>
<text text-anchor="middle" x="1508" y="-607" font-family="Helvetica,sans-Serif" font-size="10.00">startColor_</text>
</g>
<!-- Node25&#45;&gt;Node25 -->
<g id="edge38" class="edge"><title>Node25&#45;&gt;Node25</title>
<path fill="none" stroke="#9a32cd" stroke-dasharray="5,2" d="M1363.31,-526.029C1364.54,-531.128 1372.11,-535 1386,-535 1407.68,-535 1413.95,-525.565 1404.8,-516.757"/>
<polygon fill="#9a32cd" stroke="#9a32cd" points="1366.56,-527.332 1367.2,-516.757 1360.1,-524.625 1366.56,-527.332"/>
<text text-anchor="middle" x="1386" y="-648" font-family="Helvetica,sans-Serif" font-size="10.00"> CYAN</text>
<text text-anchor="middle" x="1386" y="-637" font-family="Helvetica,sans-Serif" font-size="10.00">GRAY</text>
<text text-anchor="middle" x="1386" y="-626" font-family="Helvetica,sans-Serif" font-size="10.00">YELLOW</text>
<text text-anchor="middle" x="1386" y="-615" font-family="Helvetica,sans-Serif" font-size="10.00">MAGENTA</text>
<text text-anchor="middle" x="1386" y="-604" font-family="Helvetica,sans-Serif" font-size="10.00">WHITE</text>
<text text-anchor="middle" x="1386" y="-593" font-family="Helvetica,sans-Serif" font-size="10.00">TRANSPARENT</text>
<text text-anchor="middle" x="1386" y="-582" font-family="Helvetica,sans-Serif" font-size="10.00">BLUE</text>
<text text-anchor="middle" x="1386" y="-571" font-family="Helvetica,sans-Serif" font-size="10.00">BLACK</text>
<text text-anchor="middle" x="1386" y="-560" font-family="Helvetica,sans-Serif" font-size="10.00">RED</text>
<text text-anchor="middle" x="1386" y="-549" font-family="Helvetica,sans-Serif" font-size="10.00">GREEN</text>
<text text-anchor="middle" x="1386" y="-538" font-family="Helvetica,sans-Serif" font-size="10.00">...</text>
</g>
</g>
</svg>
