<?xml version="1.0" encoding="UTF-8" standalone="no"?>
<!DOCTYPE svg PUBLIC "-//W3C//DTD SVG 1.1//EN"
 "http://www.w3.org/Graphics/SVG/1.1/DTD/svg11.dtd">
<!-- Generated by graphviz version 2.36.0 (20140111.2315)
 -->
<!-- Title: Urho3D::ScriptEventListener Pages: 1 -->
<svg width="243pt" height="84pt"
 viewBox="0.00 0.00 243.00 84.00" xmlns="http://www.w3.org/2000/svg" xmlns:xlink="http://www.w3.org/1999/xlink">
<g id="graph0" class="graph" transform="scale(1 1) rotate(0) translate(4 80)">
<title>Urho3D::ScriptEventListener</title>
<!-- Node1 -->
<g id="node1" class="node"><title>Node1</title>
<polygon fill="#bfbfbf" stroke="black" points="41,-56.5 41,-75.5 183,-75.5 183,-56.5 41,-56.5"/>
<text text-anchor="middle" x="112" y="-63.5" font-family="Helvetica,sans-Serif" font-size="10.00">Urho3D::ScriptEventListener</text>
</g>
<!-- Node2 -->
<g id="node2" class="node"><title>Node2</title>
<g id="a_node2"><a xlink:href="class_urho3_d_1_1_script_file.html" target="_top" xlink:title="Script file resource. ">
<polygon fill="none" stroke="black" points="0,-0.5 0,-19.5 98,-19.5 98,-0.5 0,-0.5"/>
<text text-anchor="middle" x="49" y="-7.5" font-family="Helvetica,sans-Serif" font-size="10.00">Urho3D::ScriptFile</text>
</a>
</g>
</g>
<!-- Node1&#45;&gt;Node2 -->
<g id="edge1" class="edge"><title>Node1&#45;&gt;Node2</title>
<path fill="none" stroke="midnightblue" d="M93.9601,-49.5372C82.7269,-39.9087 68.6809,-27.8694 59.3062,-19.8339"/>
<polygon fill="midnightblue" stroke="midnightblue" points="92.0076,-52.4734 101.878,-56.324 96.5632,-47.1586 92.0076,-52.4734"/>
</g>
<!-- Node3 -->
<g id="node3" class="node"><title>Node3</title>
<g id="a_node3"><a xlink:href="class_urho3_d_1_1_script_instance.html" target="_top" xlink:title="Script object component. ">
<polygon fill="none" stroke="black" points="116.5,-0.5 116.5,-19.5 235.5,-19.5 235.5,-0.5 116.5,-0.5"/>
<text text-anchor="middle" x="176" y="-7.5" font-family="Helvetica,sans-Serif" font-size="10.00">Urho3D::ScriptInstance</text>
</a>
</g>
</g>
<!-- Node1&#45;&gt;Node3 -->
<g id="edge2" class="edge"><title>Node1&#45;&gt;Node3</title>
<path fill="none" stroke="midnightblue" d="M129.991,-49.8197C141.458,-40.1452 155.913,-27.9481 165.53,-19.8339"/>
<polygon fill="midnightblue" stroke="midnightblue" points="127.669,-47.2002 122.283,-56.324 132.183,-52.5502 127.669,-47.2002"/>
</g>
</g>
</svg>
