<?xml version="1.0" encoding="UTF-8" standalone="no"?>
<!DOCTYPE svg PUBLIC "-//W3C//DTD SVG 1.1//EN"
 "http://www.w3.org/Graphics/SVG/1.1/DTD/svg11.dtd">
<!-- Generated by graphviz version 2.36.0 (20140111.2315)
 -->
<!-- Title: Urho3D::UI::SetModalElement Pages: 1 -->
<svg width="636pt" height="126pt"
 viewBox="0.00 0.00 636.00 126.00" xmlns="http://www.w3.org/2000/svg" xmlns:xlink="http://www.w3.org/1999/xlink">
<g id="graph0" class="graph" transform="scale(1 1) rotate(0) translate(4 122)">
<title>Urho3D::UI::SetModalElement</title>
<!-- Node1 -->
<g id="node1" class="node"><title>Node1</title>
<polygon fill="#bfbfbf" stroke="black" points="0,-49.5 0,-68.5 150,-68.5 150,-49.5 0,-49.5"/>
<text text-anchor="middle" x="75" y="-56.5" font-family="Helvetica,sans-Serif" font-size="10.00">Urho3D::UI::SetModalElement</text>
</g>
<!-- Node2 -->
<g id="node2" class="node"><title>Node2</title>
<g id="a_node2"><a xlink:href="class_urho3_d_1_1_window.html#ab2c046329a404e867e228d9bdc7c0e05" target="_top" xlink:title="Set modal flag. When the modal flag is set, the focused window needs to be dismissed first to allow o...">
<polygon fill="none" stroke="black" points="186.5,-49.5 186.5,-68.5 325.5,-68.5 325.5,-49.5 186.5,-49.5"/>
<text text-anchor="middle" x="256" y="-56.5" font-family="Helvetica,sans-Serif" font-size="10.00">Urho3D::Window::SetModal</text>
</a>
</g>
</g>
<!-- Node1&#45;&gt;Node2 -->
<g id="edge1" class="edge"><title>Node1&#45;&gt;Node2</title>
<path fill="none" stroke="midnightblue" d="M160.313,-59C169.057,-59 177.868,-59 186.409,-59"/>
<polygon fill="midnightblue" stroke="midnightblue" points="160.098,-55.5001 150.098,-59 160.098,-62.5001 160.098,-55.5001"/>
</g>
<!-- Node3 -->
<g id="node3" class="node"><title>Node3</title>
<g id="a_node3"><a xlink:href="class_urho3_d_1_1_message_box.html#a07e55faac4168951e19ae569694d9b49" target="_top" xlink:title="Construct. If layout file is not given, use the default message box layout. If style file is not give...">
<polygon fill="none" stroke="black" points="378.5,-88 378.5,-118 491.5,-118 491.5,-88 378.5,-88"/>
<text text-anchor="start" x="386.5" y="-106" font-family="Helvetica,sans-Serif" font-size="10.00">Urho3D::MessageBox</text>
<text text-anchor="middle" x="435" y="-95" font-family="Helvetica,sans-Serif" font-size="10.00">::MessageBox</text>
</a>
</g>
</g>
<!-- Node2&#45;&gt;Node3 -->
<g id="edge2" class="edge"><title>Node2&#45;&gt;Node3</title>
<path fill="none" stroke="midnightblue" d="M305.414,-71.035C327.928,-76.6319 354.832,-83.3198 378.197,-89.1281"/>
<polygon fill="midnightblue" stroke="midnightblue" points="305.955,-67.5632 295.406,-68.5473 304.267,-74.3565 305.955,-67.5632"/>
</g>
<!-- Node4 -->
<g id="node4" class="node"><title>Node4</title>
<g id="a_node4"><a xlink:href="class_urho3_d_1_1_u_i.html#aa7966075651b12fe5bc1dae57a5bb636" target="_top" xlink:title="Handle keypress event. ">
<polygon fill="none" stroke="black" points="362,-49.5 362,-68.5 508,-68.5 508,-49.5 362,-49.5"/>
<text text-anchor="middle" x="435" y="-56.5" font-family="Helvetica,sans-Serif" font-size="10.00">Urho3D::UI::HandleKeyDown</text>
</a>
</g>
</g>
<!-- Node2&#45;&gt;Node4 -->
<g id="edge3" class="edge"><title>Node2&#45;&gt;Node4</title>
<path fill="none" stroke="midnightblue" d="M335.787,-59C344.459,-59 353.256,-59 361.841,-59"/>
<polygon fill="midnightblue" stroke="midnightblue" points="335.686,-55.5001 325.686,-59 335.686,-62.5001 335.686,-55.5001"/>
</g>
<!-- Node6 -->
<g id="node6" class="node"><title>Node6</title>
<g id="a_node6"><a xlink:href="class_urho3_d_1_1_window.html#acdeedb354b6ae43442750e747c68610b" target="_top" xlink:title="Register object factory. ">
<polygon fill="none" stroke="black" points="368,-0 368,-30 502,-30 502,-0 368,-0"/>
<text text-anchor="start" x="376" y="-18" font-family="Helvetica,sans-Serif" font-size="10.00">Urho3D::Window::Register</text>
<text text-anchor="middle" x="435" y="-7" font-family="Helvetica,sans-Serif" font-size="10.00">Object</text>
</a>
</g>
</g>
<!-- Node2&#45;&gt;Node6 -->
<g id="edge5" class="edge"><title>Node2&#45;&gt;Node6</title>
<path fill="none" stroke="midnightblue" d="M305.378,-46.9739C326.373,-41.7547 351.19,-35.5856 373.396,-30.0654"/>
<polygon fill="midnightblue" stroke="midnightblue" points="304.267,-43.6435 295.406,-49.4527 305.955,-50.4368 304.267,-43.6435"/>
</g>
<!-- Node5 -->
<g id="node5" class="node"><title>Node5</title>
<g id="a_node5"><a xlink:href="class_urho3_d_1_1_u_i.html#a2c011c43ca66ff4270e98601e4f9c4cf" target="_top" xlink:title="Construct. ">
<polygon fill="none" stroke="black" points="544.5,-49.5 544.5,-68.5 627.5,-68.5 627.5,-49.5 544.5,-49.5"/>
<text text-anchor="middle" x="586" y="-56.5" font-family="Helvetica,sans-Serif" font-size="10.00">Urho3D::UI::UI</text>
</a>
</g>
</g>
<!-- Node4&#45;&gt;Node5 -->
<g id="edge4" class="edge"><title>Node4&#45;&gt;Node5</title>
<path fill="none" stroke="midnightblue" d="M518.405,-59C527.306,-59 536.055,-59 544.136,-59"/>
<polygon fill="midnightblue" stroke="midnightblue" points="518.318,-55.5001 508.318,-59 518.318,-62.5001 518.318,-55.5001"/>
</g>
</g>
</svg>
